<svg width="330" height="120" viewBox="0 0 330 120" fill="none" xmlns="http://www.w3.org/2000/svg">
<rect width="330" height="120" fill="#FFF2D1"/>
<mask id="mask0_2_3504" style="mask-type:alpha" maskUnits="userSpaceOnUse" x="0" y="0" width="330" height="120">
<rect width="330" height="120" fill="#FFF2D1"/>
</mask>
<g mask="url(#mask0_2_3504)">
<rect x="-15" y="-8" width="127.5" height="72" rx="16" fill="#FEF6E4"/>
<rect x="188.35" y="9" width="156.15" height="36" rx="8" fill="#FEF6E4"/>
<rect x="275.5" y="-9" width="58.5" height="115" rx="8" fill="#FFEAB3"/>
<rect x="-36.75" y="-19.5" width="169" height="103" rx="23.5" stroke="#FFD466"/>
<rect x="-15" y="20" width="40" height="100" fill="#FFEAB3"/>
<circle cx="11" cy="11" r="1" fill="#FFDF8C"/>
<circle cx="17" cy="11" r="1" fill="#FFDF8C"/>
<circle cx="23" cy="11" r="1" fill="#FFDF8C"/>
<circle cx="29" cy="11" r="1" fill="#FFDF8C"/>
<circle cx="35" cy="11" r="1" fill="#FFDF8C"/>
<circle cx="41" cy="11" r="1" fill="#FFDF8C"/>
<circle cx="11" cy="17" r="1" fill="#FFDF8C"/>
<circle cx="17" cy="17" r="1" fill="#FFDF8C"/>
<circle cx="23" cy="17" r="1" fill="#FFDF8C"/>
<circle cx="29" cy="17" r="1" fill="#FFDF8C"/>
<circle cx="35" cy="17" r="1" fill="#FFDF8C"/>
<circle cx="41" cy="17" r="1" fill="#FFDF8C"/>
<circle cx="11" cy="23" r="1" fill="#FFDF8C"/>
<circle cx="17" cy="23" r="1" fill="#FFDF8C"/>
<circle cx="23" cy="23" r="1" fill="#FFDF8C"/>
<circle cx="29" cy="23" r="1" fill="#FFDF8C"/>
<circle cx="35" cy="23" r="1" fill="#FFDF8C"/>
<circle cx="41" cy="23" r="1" fill="#FFDF8C"/>
<circle cx="11" cy="29" r="1" fill="#FFDF8C"/>
<circle cx="17" cy="29" r="1" fill="#FFDF8C"/>
<circle cx="23" cy="29" r="1" fill="#FFDF8C"/>
<circle cx="29" cy="29" r="1" fill="#FFDF8C"/>
<circle cx="35" cy="29" r="1" fill="#FFDF8C"/>
<circle cx="41" cy="29" r="1" fill="#FFDF8C"/>
<circle cx="11" cy="35" r="1" fill="#FFDF8C"/>
<circle cx="17" cy="35" r="1" fill="#FFDF8C"/>
<circle cx="23" cy="35" r="1" fill="#FFDF8C"/>
<circle cx="29" cy="35" r="1" fill="#FFDF8C"/>
<circle cx="35" cy="35" r="1" fill="#FFDF8C"/>
<circle cx="41" cy="35" r="1" fill="#FFDF8C"/>
<circle cx="11" cy="41" r="1" fill="#FFDF8C"/>
<circle cx="17" cy="41" r="1" fill="#FFDF8C"/>
<circle cx="23" cy="41" r="1" fill="#FFDF8C"/>
<circle cx="29" cy="41" r="1" fill="#FFDF8C"/>
<circle cx="35" cy="41" r="1" fill="#FFDF8C"/>
<circle cx="41" cy="41" r="1" fill="#FFDF8C"/>
<circle cx="248" cy="78" r="1" fill="#FFDF8C"/>
<circle cx="254" cy="78" r="1" fill="#FFDF8C"/>
<circle cx="260" cy="78" r="1" fill="#FFDF8C"/>
<circle cx="266" cy="78" r="1" fill="#FFDF8C"/>
<circle cx="272" cy="78" r="1" fill="#FFDF8C"/>
<circle cx="278" cy="78" r="1" fill="#FFDF8C"/>
<circle cx="284" cy="78" r="1" fill="#FFDF8C"/>
<circle cx="290" cy="78" r="1" fill="#FFDF8C"/>
<circle cx="296" cy="78" r="1" fill="#FFDF8C"/>
<circle cx="302" cy="78" r="1" fill="#FFDF8C"/>
<circle cx="308" cy="78" r="1" fill="#FFDF8C"/>
<circle cx="314" cy="78" r="1" fill="#FFDF8C"/>
<circle cx="248" cy="84" r="1" fill="#FFDF8C"/>
<circle cx="254" cy="84" r="1" fill="#FFDF8C"/>
<circle cx="260" cy="84" r="1" fill="#FFDF8C"/>
<circle cx="266" cy="84" r="1" fill="#FFDF8C"/>
<circle cx="272" cy="84" r="1" fill="#FFDF8C"/>
<circle cx="278" cy="84" r="1" fill="#FFDF8C"/>
<circle cx="284" cy="84" r="1" fill="#FFDF8C"/>
<circle cx="290" cy="84" r="1" fill="#FFDF8C"/>
<circle cx="296" cy="84" r="1" fill="#FFDF8C"/>
<circle cx="302" cy="84" r="1" fill="#FFDF8C"/>
<circle cx="308" cy="84" r="1" fill="#FFDF8C"/>
<circle cx="314" cy="84" r="1" fill="#FFDF8C"/>
<circle cx="248" cy="90" r="1" fill="#FFDF8C"/>
<circle cx="254" cy="90" r="1" fill="#FFDF8C"/>
<circle cx="260" cy="90" r="1" fill="#FFDF8C"/>
<circle cx="266" cy="90" r="1" fill="#FFDF8C"/>
<circle cx="272" cy="90" r="1" fill="#FFDF8C"/>
<circle cx="278" cy="90" r="1" fill="#FFDF8C"/>
<circle cx="284" cy="90" r="1" fill="#FFDF8C"/>
<circle cx="290" cy="90" r="1" fill="#FFDF8C"/>
<circle cx="296" cy="90" r="1" fill="#FFDF8C"/>
<circle cx="302" cy="90" r="1" fill="#FFDF8C"/>
<circle cx="308" cy="90" r="1" fill="#FFDF8C"/>
<circle cx="314" cy="90" r="1" fill="#FFDF8C"/>
<circle cx="248" cy="96" r="1" fill="#FFDF8C"/>
<circle cx="254" cy="96" r="1" fill="#FFDF8C"/>
<circle cx="260" cy="96" r="1" fill="#FFDF8C"/>
<circle cx="266" cy="96" r="1" fill="#FFDF8C"/>
<circle cx="272" cy="96" r="1" fill="#FFDF8C"/>
<circle cx="278" cy="96" r="1" fill="#FFDF8C"/>
<circle cx="284" cy="96" r="1" fill="#FFDF8C"/>
<circle cx="290" cy="96" r="1" fill="#FFDF8C"/>
<circle cx="296" cy="96" r="1" fill="#FFDF8C"/>
<circle cx="302" cy="96" r="1" fill="#FFDF8C"/>
<circle cx="308" cy="96" r="1" fill="#FFDF8C"/>
<circle cx="314" cy="96" r="1" fill="#FFDF8C"/>
<circle cx="248" cy="102" r="1" fill="#FFDF8C"/>
<circle cx="254" cy="102" r="1" fill="#FFDF8C"/>
<circle cx="260" cy="102" r="1" fill="#FFDF8C"/>
<circle cx="266" cy="102" r="1" fill="#FFDF8C"/>
<circle cx="272" cy="102" r="1" fill="#FFDF8C"/>
<circle cx="278" cy="102" r="1" fill="#FFDF8C"/>
<circle cx="284" cy="102" r="1" fill="#FFDF8C"/>
<circle cx="290" cy="102" r="1" fill="#FFDF8C"/>
<circle cx="296" cy="102" r="1" fill="#FFDF8C"/>
<circle cx="302" cy="102" r="1" fill="#FFDF8C"/>
<circle cx="308" cy="102" r="1" fill="#FFDF8C"/>
<circle cx="314" cy="102" r="1" fill="#FFDF8C"/>
<circle cx="248" cy="108" r="1" fill="#FFDF8C"/>
<circle cx="254" cy="108" r="1" fill="#FFDF8C"/>
<circle cx="260" cy="108" r="1" fill="#FFDF8C"/>
<circle cx="266" cy="108" r="1" fill="#FFDF8C"/>
<circle cx="272" cy="108" r="1" fill="#FFDF8C"/>
<circle cx="278" cy="108" r="1" fill="#FFDF8C"/>
<circle cx="284" cy="108" r="1" fill="#FFDF8C"/>
<circle cx="290" cy="108" r="1" fill="#FFDF8C"/>
<circle cx="296" cy="108" r="1" fill="#FFDF8C"/>
<circle cx="302" cy="108" r="1" fill="#FFDF8C"/>
<circle cx="308" cy="108" r="1" fill="#FFDF8C"/>
<circle cx="314" cy="108" r="1" fill="#FFDF8C"/>
<circle cx="248" cy="108" r="1" fill="#FFDF8C"/>
<circle cx="254" cy="108" r="1" fill="#FFDF8C"/>
<circle cx="260" cy="108" r="1" fill="#FFDF8C"/>
<circle cx="266" cy="108" r="1" fill="#FFDF8C"/>
<circle cx="272" cy="108" r="1" fill="#FFDF8C"/>
<circle cx="278" cy="108" r="1" fill="#FFDF8C"/>
<circle cx="284" cy="108" r="1" fill="#FFDF8C"/>
<circle cx="290" cy="108" r="1" fill="#FFDF8C"/>
<circle cx="296" cy="108" r="1" fill="#FFDF8C"/>
<circle cx="302" cy="108" r="1" fill="#FFDF8C"/>
<circle cx="308" cy="108" r="1" fill="#FFDF8C"/>
<circle cx="314" cy="108" r="1" fill="#FFDF8C"/>
<circle cx="248" cy="114" r="1" fill="#FFDF8C"/>
<circle cx="254" cy="114" r="1" fill="#FFDF8C"/>
<circle cx="260" cy="114" r="1" fill="#FFDF8C"/>
<circle cx="266" cy="114" r="1" fill="#FFDF8C"/>
<circle cx="272" cy="114" r="1" fill="#FFDF8C"/>
<circle cx="278" cy="114" r="1" fill="#FFDF8C"/>
<circle cx="284" cy="114" r="1" fill="#FFDF8C"/>
<circle cx="290" cy="114" r="1" fill="#FFDF8C"/>
<circle cx="296" cy="114" r="1" fill="#FFDF8C"/>
<circle cx="302" cy="114" r="1" fill="#FFDF8C"/>
<circle cx="308" cy="114" r="1" fill="#FFDF8C"/>
<circle cx="314" cy="114" r="1" fill="#FFDF8C"/>
<circle cx="248" cy="120" r="1" fill="#FFDF8C"/>
<circle cx="254" cy="120" r="1" fill="#FFDF8C"/>
<circle cx="260" cy="120" r="1" fill="#FFDF8C"/>
<circle cx="266" cy="120" r="1" fill="#FFDF8C"/>
<circle cx="272" cy="120" r="1" fill="#FFDF8C"/>
<circle cx="278" cy="120" r="1" fill="#FFDF8C"/>
<circle cx="284" cy="120" r="1" fill="#FFDF8C"/>
<circle cx="290" cy="120" r="1" fill="#FFDF8C"/>
<circle cx="296" cy="120" r="1" fill="#FFDF8C"/>
<circle cx="302" cy="120" r="1" fill="#FFDF8C"/>
<circle cx="308" cy="120" r="1" fill="#FFDF8C"/>
<circle cx="314" cy="120" r="1" fill="#FFDF8C"/>
<rect x="252.5" y="-39.5" width="189.75" height="103" rx="15.5" stroke="#FFD466"/>
<rect x="199.5" y="-39.5" width="95" height="197" rx="23.5" stroke="#FFD466"/>
</g>
<path fill-rule="evenodd" clip-rule="evenodd" d="M60.6062 77.1484C60.6062 79.7014 57.1821 83.2451 54.5 83.2451C57.2012 83.2451 60.6062 86.6935 60.6062 89.3608C60.6062 86.6935 64.0112 83.2451 66.7123 83.2451C64.0302 83.2451 60.6062 79.7014 60.6062 77.1484Z" fill="white"/>
<path fill-rule="evenodd" clip-rule="evenodd" d="M74.3449 80.1484C74.3449 84.4034 68.6382 90.3095 64.168 90.3095C68.6699 90.3095 74.3449 96.0569 74.3449 100.502C74.3449 96.0569 80.0199 90.3095 84.5218 90.3095C80.0516 90.3095 74.3449 84.4034 74.3449 80.1484Z" fill="white"/>
<path fill-rule="evenodd" clip-rule="evenodd" d="M173.813 22.4922C173.813 25.3159 170.026 29.2353 167.059 29.2353C170.047 29.2353 173.813 33.0494 173.813 35.9995C173.813 33.0494 177.579 29.2353 180.566 29.2353C177.6 29.2353 173.813 25.3159 173.813 22.4922Z" fill="white"/>
<path fill-rule="evenodd" clip-rule="evenodd" d="M181.346 35.2422C181.346 36.9162 179.101 39.2398 177.342 39.2398C179.113 39.2398 181.346 41.501 181.346 43.25C181.346 41.501 183.578 39.2398 185.35 39.2398C183.591 39.2398 181.346 36.9162 181.346 35.2422Z" fill="white"/>
</svg>
