<svg width="330" height="120" viewBox="0 0 330 120" fill="none" xmlns="http://www.w3.org/2000/svg">
<mask id="mask0_2_3310" style="mask-type:alpha" maskUnits="userSpaceOnUse" x="0" y="0" width="330" height="120">
<rect width="330" height="120" fill="#CCF7F7"/>
</mask>
<g mask="url(#mask0_2_3310)">
<rect width="330" height="120" fill="#CCF7F7"/>
<circle cx="-0.000244141" cy="0.000244141" r="76.0002" fill="#7FEBEB"/>
<circle cx="-0.000244141" cy="-0.000244141" r="49.4138" fill="#AAF2F2"/>
<circle cx="76" cy="32.9531" r="20" fill="#AAF2F2"/>
<rect x="186.438" y="-0.00012207" width="24" height="48.5" fill="url(#paint0_linear_2_3310)"/>
<rect x="250" y="-0.00012207" width="80" height="120" fill="url(#paint1_linear_2_3310)"/>
<rect x="210.375" y="-0.00012207" width="40" height="72" fill="url(#paint2_linear_2_3310)"/>
<path fill-rule="evenodd" clip-rule="evenodd" d="M78.5 72.9297C78.5 77.9468 71.771 84.911 66.5 84.911C71.8084 84.911 78.5 91.6879 78.5 96.9297C78.5 91.6879 85.1916 84.911 90.5 84.911C85.229 84.911 78.5 77.9468 78.5 72.9297Z" fill="#F9FBFB"/>
<path fill-rule="evenodd" clip-rule="evenodd" d="M105.5 72.9297C105.5 81.2916 94.285 92.8985 85.5 92.8985C94.3474 92.8985 105.5 104.193 105.5 112.93C105.5 104.193 116.653 92.8985 125.5 92.8985C116.715 92.8985 105.5 81.2916 105.5 72.9297Z" fill="#F9FBFB"/>
<circle cx="198.438" cy="24.25" r="12" fill="#7FEBEB"/>
<circle cx="230.375" cy="21" r="20" fill="#EDFAFA"/>
<circle cx="290" cy="123.25" r="40" fill="#AAF2F2"/>
</g>
<defs>
<linearGradient id="paint0_linear_2_3310" x1="198.438" y1="-0.00012207" x2="198.438" y2="48.4999" gradientUnits="userSpaceOnUse">
<stop stop-color="#AAF2F2"/>
<stop offset="1" stop-color="#AAF2F2" stop-opacity="0"/>
</linearGradient>
<linearGradient id="paint1_linear_2_3310" x1="290" y1="31.6415" x2="290" y2="120" gradientUnits="userSpaceOnUse">
<stop stop-color="#55E4E4" stop-opacity="0"/>
<stop offset="1" stop-color="#55E4E4"/>
</linearGradient>
<linearGradient id="paint2_linear_2_3310" x1="230.375" y1="8.25942" x2="230.375" y2="71.9999" gradientUnits="userSpaceOnUse">
<stop stop-color="#7FEBEB"/>
<stop offset="1" stop-color="#7FEBEB" stop-opacity="0"/>
</linearGradient>
</defs>
</svg>
