<svg width="400" height="416" viewBox="0 0 400 416" fill="none" xmlns="http://www.w3.org/2000/svg">
<path d="M43.0462 323.115L44.5286 317.844L71.1284 329.621L68.7402 338.02C69.1519 341.232 68.9378 350.192 64.7873 360.338C64.0469 362.148 62.8805 363.5 61.392 364.47C52.45 370.302 31.8833 362.374 22.2112 357.291C12.0044 351.927 1.52791 346.158 1.26988 337.607C1.2427 336.706 1.32894 335.774 1.54087 334.809C1.81754 333.807 2.17972 332.905 2.61597 332.093C8.67238 320.823 29.0047 326.913 32.9993 324.762C36.4251 322.917 41.1247 322.895 43.0462 323.115Z" fill="white"/>
<path d="M43.9896 316.701C44.3214 316.545 44.7052 316.54 45.0405 316.688L71.64 328.464C72.2161 328.719 72.5171 329.36 72.3451 329.966L70.0223 338.135C70.4148 341.763 70.082 350.737 65.9583 360.817C65.1186 362.869 63.7818 364.421 62.0832 365.529C59.5604 367.175 56.3193 367.791 52.8573 367.788C49.3807 367.785 45.5588 367.159 41.7656 366.2C34.1795 364.282 26.526 360.987 21.6234 358.41C16.5388 355.738 11.254 352.9 7.21346 349.626C3.18232 346.361 0.151273 342.471 0.00543128 337.646C-0.0250162 336.637 0.0722198 335.6 0.305509 334.537L0.321562 334.472C0.621935 333.385 1.01876 332.394 1.50211 331.495C4.89451 325.182 12.1984 323.899 18.5497 323.743C21.7705 323.664 24.9526 323.875 27.4644 323.966C28.74 324.011 29.8312 324.027 30.7134 323.97C31.6351 323.911 32.1559 323.78 32.4002 323.648C34.3076 322.621 36.5144 322.127 38.445 321.908C39.8204 321.753 41.1019 321.733 42.1077 321.777L43.3117 317.502L43.3549 317.372C43.4733 317.078 43.6995 316.837 43.9896 316.701ZM2.69378 339.019C3.28936 342.153 5.48627 344.973 8.80523 347.662C12.6191 350.751 17.6768 353.479 22.799 356.171C27.5685 358.678 35.0349 361.889 42.3855 363.747C46.0605 364.677 49.6619 365.256 52.8586 365.259C55.2184 365.261 57.2923 364.946 58.9997 364.276C54.0149 360.675 43.71 353.861 32.0248 348.047C20.1457 342.137 8.33862 339.68 2.69378 339.019ZM3.37791 333.416C3.14578 333.937 2.9402 334.499 2.77034 335.107C2.67021 335.568 2.60279 336.018 2.56535 336.458C8.32425 337.079 20.6997 339.588 33.151 345.782C45.7349 352.043 56.732 359.443 61.4003 362.898C62.1753 362.262 62.8188 361.478 63.3119 360.517C62.3689 359.459 60.6189 358.031 58.1995 356.357C55.3901 354.412 51.8332 352.234 47.982 350.053C40.2752 345.687 31.4738 341.35 25.2811 338.864C16.1191 335.188 7.32602 333.752 3.37791 333.416ZM42.9029 324.371C42.038 324.272 40.4783 324.223 38.729 324.421C36.9734 324.62 35.1175 325.057 33.5993 325.875C32.845 326.281 31.8548 326.431 30.8764 326.495C29.8586 326.56 28.6592 326.54 27.373 326.493C24.7597 326.399 21.7302 326.196 18.6115 326.272C13.0627 326.408 7.85028 327.43 4.85483 331.023C9.43403 331.544 17.6751 333.086 26.2233 336.517C32.548 339.055 41.4527 343.447 49.228 347.852C53.1177 350.055 56.7459 352.274 59.6393 354.277C61.5146 355.575 63.1515 356.83 64.3504 357.967C67.4831 349.428 67.8107 342.033 67.5488 338.808C65.3649 337.596 62.1942 335.918 59.1429 334.483C57.478 333.7 55.866 332.996 54.4787 332.479C53.0528 331.947 51.9891 331.661 51.3705 331.624C50.8307 331.592 50.3709 331.219 50.227 330.698C49.0495 326.429 45.8161 324.417 43.0289 324.379C42.9868 324.379 42.9448 324.375 42.9029 324.371ZM44.6663 322.023C47.9044 322.669 51.0033 325.128 52.4128 329.22C53.2871 329.39 54.3075 329.716 55.3629 330.109C56.8407 330.66 58.5222 331.397 60.2197 332.195C62.9688 333.487 65.802 334.968 67.9575 336.145L69.611 330.331L45.3505 319.59L44.6663 322.023Z" fill="#262933"/>
<path d="M99.5398 357.126C98.881 356.632 105.14 340.656 112.881 318.256C119.074 300.336 127.902 283.048 140.968 276.091C139.237 274.747 134.935 270.36 131.575 263.574C138.558 263.838 150.618 269.93 155.776 272.943C169.29 273.91 180.172 284.707 187.058 294.833C195.848 299.411 214.668 328.303 210.715 340.656C191.115 365.855 167.562 363.055 151.092 354.491C148.193 360.552 140.573 376.104 137.125 383.122C136.878 384.311 134.815 384.65 129.845 383.643C130.702 381.272 132.107 378.005 132.702 376.669C131.481 375.435 130.11 374.126 128.725 372.804L128.692 372.773C121.445 365.855 100.199 357.62 99.5398 357.126Z" fill="#262933"/>
<path d="M131.623 262.311C135.366 262.452 140.312 264.127 144.856 266.064C149.299 267.958 153.52 270.178 156.16 271.705C170.024 272.84 181.026 283.805 187.929 293.87C190.306 295.204 193.15 297.952 195.992 301.38C198.982 304.987 202.076 309.475 204.764 314.203C207.45 318.928 209.753 323.932 211.135 328.568C212.503 333.16 213.025 337.585 211.919 341.041C211.873 341.183 211.804 341.314 211.712 341.432C201.734 354.262 190.66 360.06 179.896 361.489C169.659 362.847 159.839 360.234 151.671 356.201C148.463 362.868 141.577 376.922 138.311 383.571C138.137 384.157 137.752 384.62 137.232 384.932C136.698 385.251 136.051 385.403 135.372 385.465C134.014 385.59 132.107 385.391 129.594 384.882C129.234 384.809 128.923 384.584 128.743 384.264C128.563 383.943 128.532 383.56 128.656 383.214C129.387 381.191 130.502 378.549 131.197 376.954C130.149 375.915 129.012 374.826 127.853 373.719L127.819 373.688C124.366 370.391 117.428 366.68 111.104 363.683C107.973 362.2 105.045 360.914 102.852 359.967C101.764 359.497 100.837 359.102 100.18 358.816C99.85 358.673 99.5742 358.551 99.3674 358.456C99.2648 358.408 99.1698 358.363 99.0896 358.322C99.0393 358.297 98.9023 358.229 98.7808 358.138C98.3542 357.818 98.2711 357.367 98.2498 357.234C98.2201 357.048 98.2259 356.875 98.235 356.756C98.2541 356.51 98.3086 356.228 98.3746 355.945C98.51 355.365 98.7442 354.573 99.0538 353.607C99.676 351.668 100.645 348.906 101.869 345.481C104.323 338.616 107.818 329.034 111.685 317.843C114.798 308.835 118.59 299.937 123.272 292.395C127.586 285.448 132.702 279.581 138.808 275.869C136.601 273.74 133.204 269.715 130.441 264.135C130.243 263.736 130.271 263.262 130.512 262.888C130.755 262.513 131.177 262.294 131.623 262.311ZM133.105 378.916C132.628 380.032 132.06 381.398 131.563 382.673C133.215 382.947 134.372 383.018 135.14 382.947C135.546 382.91 135.769 382.836 135.878 382.787C135.867 382.718 135.838 382.602 135.766 382.43C135.629 382.103 135.383 381.683 135.012 381.171C134.526 380.501 133.875 379.745 133.105 378.916ZM155.686 274.204C154.379 274.111 153.046 274.113 151.688 274.223H151.685C148.049 274.505 144.685 275.545 141.562 277.208C135.301 280.541 129.972 286.399 125.421 293.729C120.875 301.051 117.156 309.757 114.076 318.669C110.203 329.877 106.698 339.485 104.251 346.332C103.026 349.761 102.07 352.486 101.462 354.381C101.189 355.23 100.995 355.889 100.878 356.359C100.973 356.401 101.076 356.448 101.189 356.497C101.848 356.784 102.746 357.166 103.855 357.646C106.058 358.598 109.018 359.897 112.187 361.398C118.462 364.372 125.772 368.237 129.565 371.858L129.599 371.89C130.98 373.208 132.365 374.53 133.601 375.78C134.97 377.164 136.202 378.501 137.061 379.687C137.129 379.781 137.194 379.878 137.259 379.972C141.048 372.251 147.373 359.337 149.951 353.946L150.013 353.833C150.167 353.58 150.406 353.387 150.691 353.291C151.016 353.183 151.372 353.211 151.676 353.369C159.756 357.571 169.497 360.317 179.563 358.982C189.542 357.658 199.987 352.302 209.567 340.066C210.358 337.36 210.001 333.621 208.71 329.289C207.4 324.89 205.189 320.068 202.566 315.453C199.944 310.843 196.932 306.478 194.045 302.994C193.422 302.243 192.809 301.54 192.212 300.886C193.15 302.626 193.946 304.261 194.582 305.731C194.859 306.372 194.563 307.116 193.923 307.393C193.282 307.67 192.538 307.376 192.261 306.735C190.907 303.607 188.793 299.634 186.012 295.544C179.179 285.497 168.595 275.129 155.686 274.204ZM133.816 265.107C136.497 269.861 139.496 273.118 141.139 274.582C144.182 273.07 147.451 272.088 150.957 271.749C148.841 270.654 146.388 269.467 143.864 268.39C140.326 266.882 136.754 265.637 133.816 265.107Z" fill="#262933"/>
<path d="M104.646 243.81C123.751 253.297 138.52 269.394 143.516 276.257C158.504 294.868 128.692 333.903 116.504 326.656C106.754 320.858 94.3241 309.746 89.3281 304.915C88.1751 307.44 84.2552 316.971 77.7988 334.891C74.7683 332.915 49.3051 321.77 36.9523 316.444C39.3679 301.676 46.9004 267.692 57.7049 249.904C68.5095 232.116 93.5006 238.43 104.646 243.81Z" fill="#262933"/>
<path d="M81.0513 236.904C89.7036 236.931 98.3495 239.561 104.087 242.154L105.196 242.671L105.208 242.677C124.5 252.257 139.389 268.461 144.501 275.464L144.869 275.937C148.591 280.865 149.465 286.989 148.584 293.181C147.674 299.565 144.889 306.132 141.268 311.831C137.649 317.527 133.138 322.449 128.69 325.499C124.335 328.485 119.587 329.96 115.858 327.743C106.752 322.328 95.4114 312.395 89.7659 307.078C88.0932 311.022 84.4543 320.151 78.9891 335.32C78.8581 335.683 78.5676 335.967 78.2012 336.09C77.8349 336.213 77.432 336.162 77.1083 335.951C76.4435 335.517 74.3819 334.493 71.3389 333.07C68.3426 331.668 64.4975 329.927 60.3559 328.078C52.0737 324.382 42.6254 320.267 36.4522 317.605C35.9193 317.376 35.6102 316.812 35.7038 316.24C36.9186 308.813 39.4156 296.579 42.965 283.965C46.5076 271.374 51.1293 258.295 56.624 249.248C62.3363 239.844 71.7963 236.876 81.0513 236.904ZM81.0439 239.433C72.3161 239.407 63.8786 242.177 58.7863 250.561C53.4767 259.302 48.9288 272.108 45.4002 284.649C42.0296 296.627 39.6163 308.263 38.3625 315.676C44.5355 318.342 53.4892 322.245 61.387 325.769C65.5337 327.62 69.3946 329.367 72.4108 330.778C74.345 331.682 75.9774 332.47 77.1157 333.061C83.2741 316.037 87.0332 306.897 88.1779 304.39L88.2495 304.255C88.4346 303.952 88.7399 303.739 89.0929 303.672C89.4962 303.596 89.9116 303.72 90.2068 304.006C95.1894 308.824 107.533 319.85 117.151 325.569C119.516 326.975 123.065 326.289 127.26 323.413C131.361 320.601 135.651 315.958 139.134 310.475C142.616 304.995 145.234 298.767 146.08 292.825C146.926 286.889 145.992 281.349 142.53 277.05C142.517 277.034 142.505 277.018 142.493 277.001C137.58 270.253 122.963 254.321 104.096 244.948C98.6431 242.316 89.7972 239.46 81.0439 239.433Z" fill="#262933"/>
<path d="M131.904 377.467C130.999 379.58 128.594 384.664 126.552 388.09C126.629 393.429 123.653 400.077 119.468 406.803C119.198 407.236 118.924 407.669 118.646 408.102C117.68 409.602 116.509 410.835 115.175 411.777C110.141 415.335 102.797 414.75 95.5048 408.76C86.2814 401.184 70.717 379.031 68.9876 373.596C68.0968 370.797 67.4245 365.091 69.2665 360.216C69.9418 358.429 70.9551 356.753 72.4195 355.373C74.7154 353.21 78.1201 351.773 83.0697 351.773C92.8383 351.773 101.313 356.75 107.69 362.12C117.806 365.719 128.048 373.851 131.904 377.467Z" fill="white"/>
<path d="M83.0701 350.508C93.179 350.509 101.872 355.608 108.331 361.009C118.611 364.729 128.885 372.902 132.769 376.545C133.157 376.909 133.276 377.476 133.067 377.965C132.174 380.048 129.853 384.956 127.814 388.434C127.763 394.096 124.65 400.868 120.541 407.471C120.269 407.91 119.991 408.348 119.709 408.786C118.662 410.414 117.38 411.768 115.906 412.81C110.25 416.807 102.267 415.951 94.7027 409.737C89.9598 405.841 83.6841 398.298 78.417 391.124C75.7719 387.521 73.3569 383.979 71.4905 380.988C69.6519 378.041 68.2693 375.511 67.7822 373.98C66.8323 370.995 66.113 364.984 68.0835 359.769C68.8143 357.835 69.9246 355.986 71.5523 354.453C74.1255 352.028 77.8619 350.508 83.0701 350.508ZM70.1396 361.575C68.8203 365.902 69.4161 370.772 70.1927 373.213C70.5703 374.4 71.7826 376.678 73.6368 379.649C75.4633 382.577 77.841 386.066 80.4558 389.627C85.709 396.782 91.8277 404.103 96.308 407.784C102.892 413.192 109.199 413.803 113.598 411.283C111.532 406.581 106.841 398.882 101.622 391.149C96.0471 382.889 89.9754 374.746 86.0807 370.405C80.5712 364.264 73.6197 362.052 70.1396 361.575ZM72.86 356.719C72.1627 357.457 71.5922 358.283 71.125 359.167C75.2613 359.882 82.3125 362.418 87.9639 368.717C91.975 373.188 98.1216 381.444 103.717 389.735C108.732 397.165 113.388 404.751 115.671 409.735C116.373 409.071 117.015 408.299 117.583 407.417C117.727 407.193 117.866 406.967 118.007 406.744C116.382 403.671 112.317 396.568 107.538 388.976C102.379 380.782 96.4681 372.142 91.9526 367.384C85.1851 360.254 76.714 357.38 72.86 356.719ZM83.0701 353.037C79.8266 353.037 77.3559 353.684 75.473 354.712C80.2111 355.975 87.6494 359.177 93.7864 365.643C98.4943 370.603 104.524 379.442 109.678 387.629C113.89 394.32 117.567 400.661 119.533 404.246C123.007 398.333 125.275 392.77 125.286 388.328C124.027 385.13 120.714 378.008 116.848 373.332C114.744 370.786 111.325 366.835 106.875 363.087C100.599 357.802 92.4075 353.038 83.0701 353.037ZM114.009 366.326C115.997 368.392 117.611 370.285 118.797 371.72C122.156 375.784 125.058 381.469 126.718 385.215C128.138 382.588 129.557 379.624 130.381 377.786C127.186 374.907 120.926 369.988 114.009 366.326Z" fill="#262933"/>
<path d="M101.174 285.854C100.523 285.528 99.7314 285.792 99.4059 286.443C97.7286 289.798 97.784 289.752 95.4145 294.739C93.061 299.692 90.5353 304.985 89.7811 307.179L92.0663 309.29C92.1267 309.031 92.3246 308.308 92.6325 307.484C93.3277 305.462 95.4175 300.87 97.7936 295.87C100.154 290.903 100.092 290.965 101.763 287.622C102.089 286.971 101.825 286.179 101.174 285.854Z" fill="white"/>
<path d="M171.125 321.904C170.502 321.528 169.692 321.728 169.316 322.351C165.148 329.262 155.301 346.526 151.694 356.277C152.333 356.586 153.723 357.273 154.283 357.471C154.514 356.862 154.661 356.415 154.716 356.265C158.224 346.778 167.396 330.638 171.573 323.713C171.949 323.09 171.749 322.28 171.125 321.904Z" fill="white"/>
<path d="M151.744 272.92C151.675 272.196 151.033 271.665 150.308 271.734C146.611 272.086 138.256 274.436 131.424 280.722C129.655 282.35 127.616 285.017 125.504 288.19C123.377 291.386 121.124 295.177 118.935 299.116C114.558 306.992 110.399 315.523 107.964 321.195L107.507 322.147L109.597 323.681C111.993 318.099 116.9 308.203 121.238 300.396C123.407 296.494 125.621 292.767 127.696 289.649C129.786 286.509 131.683 284.065 133.208 282.662C139.551 276.826 147.338 274.663 150.558 274.356C151.282 274.287 151.813 273.645 151.744 272.92Z" fill="white"/>
<path d="M378.301 295.774C373.228 295.643 360.595 297.696 354.913 298.739L348.078 319.738C352.827 323.472 364.005 331.301 370.724 332.75C379.124 334.562 380.607 327.562 376.736 325.256C373.64 323.411 371.328 321.084 370.56 320.15C375.254 320.15 385.96 319.953 391.23 319.162C397.818 318.174 399.218 314.221 396.995 311.75C398.971 309.692 399.877 307.468 396.336 304.833C395.282 301.012 392.767 299.672 391.642 299.48C389.309 298.3 383.374 295.906 378.301 295.774Z" fill="white"/>
<path d="M378.334 294.51C383.574 294.646 389.567 297.04 392.062 298.277C393.666 298.647 396.239 300.284 397.431 304.08C399.134 305.438 400.043 306.911 399.999 308.542C399.964 309.804 399.353 310.902 398.606 311.83C399.456 313.315 399.489 315.096 398.487 316.686C397.318 318.541 394.901 319.89 391.417 320.413C386.999 321.076 378.922 321.321 373.586 321.39C374.595 322.276 375.893 323.282 377.383 324.169C379.889 325.662 380.701 328.718 379.455 331.128C378.16 333.633 374.98 334.962 370.458 333.987C366.868 333.212 362.233 330.787 357.999 328.178C353.724 325.544 349.703 322.625 347.296 320.733C346.879 320.405 346.711 319.851 346.875 319.347L353.71 298.348L353.776 298.187C353.95 297.828 354.285 297.568 354.684 297.495C357.54 296.97 362.138 296.193 366.662 295.563C371.151 294.938 375.678 294.441 378.334 294.51ZM378.268 297.039C375.852 296.976 371.525 297.44 367.01 298.069C362.901 298.641 358.726 299.339 355.881 299.851L349.556 319.283C351.94 321.115 355.533 323.688 359.325 326.024C363.547 328.625 367.861 330.839 370.991 331.514C374.868 332.351 376.631 331.084 377.209 329.966C377.836 328.753 377.453 327.156 376.089 326.343C372.853 324.415 370.434 321.986 369.583 320.954C369.273 320.576 369.208 320.053 369.417 319.61C369.626 319.168 370.071 318.885 370.56 318.885C375.269 318.885 385.881 318.685 391.043 317.911C394.147 317.445 395.725 316.324 396.347 315.337C396.853 314.535 396.831 313.667 396.287 312.889C394.182 312.424 390.98 311.812 387.734 311.383C384.216 310.919 380.802 310.692 378.66 311.024C377.97 311.131 377.323 310.657 377.216 309.967C377.11 309.277 377.582 308.631 378.272 308.525C380.808 308.132 384.544 308.412 388.065 308.877C391.248 309.297 394.381 309.887 396.543 310.356C397.166 309.61 397.456 309 397.471 308.474C397.485 307.956 397.231 307.151 395.843 306.05C391.662 305.577 383.079 304.835 379.01 305.267C378.316 305.34 377.694 304.836 377.62 304.142C377.547 303.448 378.05 302.825 378.744 302.751C382.586 302.344 389.86 302.894 394.393 303.352C393.387 301.496 392.013 300.854 391.482 300.737C387.948 300.57 380.675 300.287 378.54 300.413C377.843 300.454 377.245 299.922 377.204 299.225C377.163 298.527 377.695 297.929 378.392 297.888C379.433 297.827 381.524 297.855 383.824 297.918C381.995 297.436 380.066 297.086 378.268 297.039Z" fill="#262933"/>
<path d="M172.684 102.941C163.909 108.002 152.419 109.282 145.184 109.541C139.521 118.802 133.278 125.498 126.59 129.473C126.463 129.549 126.334 129.624 126.207 129.698C117.598 134.664 108.433 134.972 101.06 130.543C95.5119 127.209 91.6387 121.656 89.5491 114.036C88.1638 108.984 87.5835 103.024 87.8162 96.2763C82.5572 93.487 78.1281 90.4447 74.6151 87.2041C68.1426 81.2337 64.7905 74.6839 64.6519 67.7372C64.4841 59.3006 69.1873 51.6093 77.5553 46.6354L77.9257 46.4183C84.7665 42.4723 93.8377 40.3404 104.941 40.0617C110.605 30.7886 116.856 24.0837 123.555 20.1014C123.681 20.0266 123.807 19.9525 123.933 19.8799C132.546 14.9117 141.712 14.603 149.084 19.0314C154.634 22.3653 158.507 27.9225 160.595 35.5488C161.981 40.6084 162.56 46.576 162.324 53.3334C173.93 59.4774 178.802 65.2911 181.76 69.7803L181.869 69.9444C182.006 70.1523 182.137 70.3735 182.258 70.6L182.346 70.7654C185.737 77.1259 186.43 83.3947 184.405 89.3979C182.59 94.7805 178.669 99.3858 173.067 102.716C172.957 102.782 172.684 102.941 172.684 102.941Z" fill="white"/>
<path d="M123.624 17.1836C132.666 12.294 142.425 12.0305 150.407 16.8256C156.595 20.5423 160.79 26.6841 163.01 34.792C164.369 39.7533 164.974 45.46 164.866 51.785C175.894 57.8626 180.798 63.6762 183.854 68.3131L183.961 68.4767C184.142 68.7504 184.313 69.0379 184.469 69.3303L184.47 69.3324L184.556 69.4951C188.101 76.1445 189.009 82.9236 186.978 89.5189L186.772 90.1561C184.723 96.2319 180.332 101.308 174.278 104.907C174.214 104.945 174.111 105.006 174.03 105.053C173.988 105.077 173.95 105.1 173.923 105.116C173.909 105.124 173.897 105.13 173.889 105.135C173.885 105.137 173.882 105.14 173.88 105.141L173.877 105.142L173.865 105.149C165.082 110.215 153.939 111.657 146.557 112.03C141.123 120.635 135.077 127.145 128.472 131.256L127.802 131.664C127.664 131.746 127.527 131.826 127.395 131.903L127.39 131.906C118.109 137.259 107.977 137.699 99.7359 132.749C93.551 129.032 89.356 122.894 87.1343 114.792C85.7759 109.838 85.168 104.139 85.2733 97.8221C80.4462 95.1532 76.2895 92.2431 72.9005 89.1167C66.0901 82.8347 62.3035 75.6898 62.1473 67.8701C61.9575 58.326 67.3121 49.8129 76.3438 44.4445L76.3571 44.436L76.7273 44.219L76.743 44.2099C83.778 40.1519 92.8309 37.9815 103.574 37.5591C109.192 28.6586 115.468 21.9976 122.343 17.9111C122.477 17.8314 122.614 17.7508 122.75 17.672L123.624 17.1836ZM149.084 19.0314C141.712 14.6033 132.546 14.9118 123.933 19.88C123.807 19.9525 123.681 20.0267 123.555 20.1015C116.855 24.0839 110.605 30.7887 104.941 40.0614L103.906 40.093C93.2731 40.4752 84.5527 42.5953 77.9258 46.4179L77.5555 46.6349C69.1875 51.6087 64.4845 59.301 64.6523 67.7377L64.6737 68.3869C65.0023 75.0925 68.3444 81.4207 74.6148 87.2046C78.1277 90.4453 82.5576 93.487 87.8165 96.2762C87.5838 103.024 88.1637 108.984 89.549 114.036C91.6386 121.656 95.5126 127.21 101.061 130.544C108.203 134.834 117.027 134.678 125.399 130.149L126.207 129.698L126.59 129.474C133.278 125.498 139.522 118.802 145.185 109.54C152.193 109.289 163.195 108.08 171.853 103.404L172.684 102.94L173.067 102.716C178.669 99.3861 182.59 94.78 184.405 89.3974C186.43 83.3943 185.736 77.1253 182.345 70.765L182.258 70.6001C182.197 70.4869 182.135 70.3744 182.07 70.2647L181.869 69.9442L181.76 69.7797C178.802 65.2906 173.93 59.4768 162.324 53.333C162.56 46.5758 161.981 40.6079 160.595 35.5484C158.507 27.9223 154.633 22.3653 149.084 19.0314Z" fill="#262933"/>
<path d="M155.238 57.4153C155.861 49.6409 155.429 42.9756 153.953 37.5851C152.294 31.5266 149.354 27.194 145.215 24.7078C139.961 21.552 133.563 21.836 127.198 25.5075C120.735 29.2385 114.386 36.5319 108.768 46.6642C97.1581 46.4692 87.6481 48.3208 81.1927 52.0446C74.8303 55.7206 71.3923 61.1054 71.5138 67.2221C71.6174 72.4258 74.3069 77.4967 79.5077 82.2938C83.3681 85.8547 88.5419 89.1806 94.9014 92.1915C94.2818 99.9553 94.7147 106.612 96.1913 111.997C97.8514 118.051 100.792 122.381 104.93 124.867C110.184 128.023 116.581 127.74 122.943 124.07C129.393 120.348 135.729 113.074 141.341 102.97C150.239 103.103 161.82 101.696 169.421 97.3119C169.424 97.3101 169.427 97.3084 169.43 97.3067C169.528 97.2502 169.624 97.1938 169.72 97.1367C173.857 94.6776 176.606 91.5005 177.891 87.69C179.325 83.4358 178.757 78.85 176.203 74.0594L176.114 73.8914C176.082 73.8325 176.048 73.775 176.011 73.7192L175.906 73.5593C173.066 69.25 168.152 63.5616 155.238 57.4153Z" fill="#262933"/>
<path d="M127.198 25.5079C133.563 21.8366 139.961 21.5516 145.215 24.7072C149.354 27.1934 152.294 31.5264 153.953 37.5848C155.43 42.9754 155.861 49.6409 155.238 57.4153C168.152 63.5616 173.066 69.2504 175.906 73.5597L176.011 73.7187C176.048 73.7744 176.082 73.8325 176.113 73.8913L176.203 74.0595C178.757 78.8499 179.325 83.4355 177.891 87.6896L177.765 88.0452C176.432 91.6982 173.727 94.7541 169.72 97.1364C169.624 97.1934 169.528 97.2509 169.43 97.3072L169.421 97.3121L168.698 97.7137C161.1 101.782 149.961 103.099 141.341 102.97C135.729 113.074 129.393 120.348 122.943 124.07L122.346 124.403C116.381 127.646 110.417 127.91 105.426 125.153L104.93 124.867C100.921 122.459 98.0365 118.32 96.3509 112.56L96.1918 111.997C94.7152 106.612 94.2813 99.9548 94.9009 92.191C88.9389 89.3683 84.019 86.2689 80.2466 82.9585L79.508 82.294C74.4698 77.6468 71.7876 72.7425 71.5307 67.7097L71.5142 67.2223C71.3927 61.1056 74.83 55.7202 81.1921 52.0443C87.6475 48.3205 97.1578 46.4691 108.768 46.6641C114.385 36.5319 120.735 29.2389 127.198 25.5079ZM143.891 26.913C139.538 24.2983 134.111 24.4075 128.379 27.7138L128.381 27.7147C122.498 31.111 116.441 37.9408 110.94 47.8623L110.177 49.2381L108.647 49.213C97.2481 49.0215 88.2609 50.8564 82.3758 54.2508C76.6416 57.5639 73.9197 62.1421 74.018 67.0901C74.1035 71.3753 76.3161 75.8554 81.222 80.3806C84.855 83.7317 89.8072 86.9336 96.0175 89.8738L97.5362 90.5935L97.3979 92.3178C96.7939 99.8878 97.2315 106.226 98.6063 111.239C100.147 116.858 102.785 120.577 106.254 122.661C110.607 125.276 116.032 125.167 121.761 121.862L122.311 121.534C128.007 118.045 133.846 111.355 139.17 101.771L139.932 100.399L141.458 100.421C149.947 100.548 160.558 99.2245 167.571 95.4747L168.238 95.1041C168.241 95.1026 168.244 95.1011 168.246 95.0995L168.508 94.946C172.221 92.739 174.482 90.0235 175.524 86.932C176.677 83.5123 176.303 79.6633 173.993 75.3302L173.916 75.1844L173.811 75.0253L173.303 74.2738C170.631 70.4343 165.884 65.3305 154.119 59.7307L152.604 59.01L152.741 57.2884C153.348 49.7075 152.913 43.3605 151.539 38.3413C149.999 32.7176 147.36 28.9964 143.891 26.913Z" fill="#262933"/>
<path d="M143.712 85.2205C149.867 81.4102 150.637 71.1739 145.433 62.3572C140.229 53.5404 131.02 49.4819 124.866 53.2922C118.711 57.1025 117.94 67.3387 123.145 76.1555C128.349 84.9722 137.557 89.0308 143.712 85.2205Z" fill="white"/>
<path d="M143.224 63.7247C140.835 59.6763 137.578 56.8178 134.362 55.4004C131.128 53.9752 128.224 54.0988 126.113 55.4058C124.002 56.7129 122.546 59.288 122.275 62.883C122.006 66.4579 122.964 70.7399 125.353 74.7884C127.743 78.8366 131 81.6942 134.215 83.1116C137.45 84.5371 140.353 84.4143 142.465 83.1072L143.712 85.2208L143.421 85.3939C137.466 88.7915 128.836 85.0853 123.644 76.9684L123.145 76.1556C117.94 67.3389 118.711 57.1026 124.866 53.2923C131.02 49.482 140.229 53.5407 145.433 62.3575L145.904 63.1876C150.584 71.8073 149.675 81.5296 143.712 85.2208L142.465 83.1072C144.576 81.8001 146.031 79.2244 146.302 75.629C146.571 72.0542 145.614 67.7731 143.224 63.7247Z" fill="#262933"/>
<path d="M144.918 86.9178C144.909 86.923 144.901 86.9281 144.892 86.9333C141.15 89.139 136.528 89.2323 131.879 87.1959C127.549 85.2993 123.65 81.7306 120.901 77.1472C118.151 72.5638 116.85 67.464 117.237 62.7871C117.652 57.7774 119.932 53.8035 123.659 51.5947C123.668 51.5894 123.676 51.5844 123.685 51.5793C127.427 49.3735 132.049 49.2802 136.698 51.3166C141.028 53.2132 144.927 56.7819 147.676 61.3653C150.425 65.9487 151.726 71.0485 151.339 75.7254C150.925 80.7353 148.645 84.7089 144.918 86.9178ZM125.863 55.243C120.803 58.242 120.374 67.179 124.929 74.7727C129.489 82.3733 137.626 86.2684 142.699 83.2782L142.714 83.2695C145.039 81.8914 146.478 79.2116 146.767 75.7212C147.085 71.8786 145.977 67.6235 143.647 63.7398C139.088 56.1392 130.951 52.2441 125.877 55.2343L125.863 55.243Z" fill="#262933"/>
<path d="M123.685 51.5792C127.427 49.3734 132.049 49.2799 136.699 51.3163C141.029 53.2129 144.927 56.7819 147.676 61.3652C150.426 65.9485 151.726 71.0483 151.339 75.7252C150.925 80.7349 148.645 84.7085 144.919 86.9174C144.91 86.9226 144.901 86.9282 144.892 86.9333C141.267 89.07 136.817 89.224 132.315 87.3804L131.879 87.1962C127.819 85.4183 124.139 82.1703 121.43 77.9949L120.901 77.1473C118.238 72.7073 116.933 67.7822 117.206 63.2269L117.238 62.7874C117.64 57.9343 119.792 54.0526 123.313 51.8066L123.659 51.5951L123.685 51.5792ZM143.648 63.7389C139.089 56.1385 130.951 52.2434 125.877 55.2335L125.863 55.2424C120.803 58.2414 120.374 67.1788 124.929 74.7724C129.488 82.373 137.626 86.268 142.7 83.2778L142.714 83.2689C144.894 81.977 146.295 79.5414 146.7 76.3661L146.768 75.7208C147.066 72.1184 146.111 68.153 144.071 64.4714L143.648 63.7389Z" fill="#262933"/>
<path d="M132.832 59.0476C130.144 60.6308 129.317 64.4024 130.522 68.256C130.74 68.9519 131.421 69.3984 132.2 69.38L135.163 69.3098C136.234 69.2844 137.036 70.1293 136.907 71.1487L136.478 74.5597C136.386 75.2895 136.77 75.9725 137.454 76.255C139.425 77.069 141.446 77.0926 143.079 76.1309C146.454 74.1436 146.896 68.7084 144.067 63.9909C141.237 59.2735 136.207 57.0603 132.832 59.0476Z" fill="#262933"/>
<path d="M132.832 59.0477C136.206 57.0605 141.236 59.2735 144.066 63.9906C146.896 68.708 146.454 74.144 143.079 76.1313L142.768 76.3C141.298 77.0345 139.552 77.024 137.823 76.3987L137.454 76.2551C136.77 75.9727 136.386 75.2895 136.478 74.5597L136.907 71.1486C137.027 70.1931 136.331 69.3903 135.361 69.3146L135.163 69.3099L132.2 69.3799C131.469 69.397 130.825 69.006 130.568 68.3842L130.522 68.2559C129.317 64.4025 130.143 60.631 132.832 59.0477ZM137.592 61.3571C136.032 60.6706 134.8 60.7872 134.016 61.2485C132.944 61.8803 131.982 63.8098 132.741 66.8141L135.201 66.7565C137.572 66.7004 139.729 68.6514 139.385 71.3782L139.042 74.0887C140.266 74.4614 141.237 74.3176 141.895 73.9302C142.644 73.489 143.28 72.556 143.409 70.9712C143.538 69.3829 143.108 67.3648 141.922 65.3862C140.737 63.4104 139.132 62.0345 137.592 61.3571Z" fill="#262933"/>
<path d="M125.306 96.329C131.461 92.5187 132.232 82.2825 127.027 73.4657C121.823 64.649 112.615 60.5904 106.46 64.4007C100.305 68.211 99.5345 78.4473 104.739 87.264C109.943 96.0808 119.152 100.139 125.306 96.329Z" fill="white"/>
<path d="M124.819 74.8332C122.429 70.7848 119.172 67.9263 115.956 66.509C112.722 65.0837 109.819 65.2073 107.707 66.5144C105.596 67.8214 104.14 70.3965 103.869 73.9915C103.6 77.5664 104.558 81.8485 106.947 85.8969C109.337 89.9452 112.594 92.8027 115.81 94.2201C119.044 95.6456 121.947 95.5228 124.059 94.2158L125.306 96.3293L125.015 96.5024C119.06 99.9001 110.43 96.1938 105.238 88.0769L104.739 87.2641C99.5347 78.4474 100.305 68.2111 106.46 64.4008C112.615 60.5905 121.823 64.6492 127.027 73.466L127.498 74.2961C132.179 82.9159 131.269 92.6381 125.306 96.3293L124.059 94.2158C126.17 92.9087 127.626 90.333 127.896 86.7375C128.165 83.1627 127.208 78.8816 124.819 74.8332Z" fill="#262933"/>
<path d="M126.512 98.0264C126.503 98.0317 126.495 98.0368 126.486 98.0419C122.744 100.248 118.122 100.341 113.473 98.3045C109.143 96.4081 105.244 92.8393 102.495 88.2559C99.7454 83.6725 98.4444 78.5728 98.8314 73.8959C99.2459 68.8861 101.526 64.9122 105.253 62.7034C105.262 62.6982 105.27 62.6932 105.279 62.688C109.021 60.4822 113.643 60.389 118.292 62.4254C122.622 64.3219 126.521 67.8906 129.27 72.4741C132.019 77.0574 133.32 82.1573 132.933 86.8341C132.519 91.8439 130.239 95.8176 126.512 98.0264ZM107.457 66.3517C102.397 69.3506 101.968 78.2877 106.523 85.8814C111.083 93.482 119.22 97.3771 124.293 94.3869L124.308 94.3782C126.633 93 128.072 90.3204 128.361 86.8299C128.679 82.9873 127.571 78.7322 125.241 74.8486C120.682 67.248 112.544 63.3529 107.471 66.3431L107.457 66.3517Z" fill="#262933"/>
<path d="M105.279 62.6879C109.022 60.4821 113.643 60.3886 118.293 62.425C122.622 64.3216 126.521 67.8906 129.27 72.4739C132.02 77.0572 133.32 82.157 132.933 86.8339C132.519 91.8435 130.239 95.8172 126.513 98.0261L126.486 98.042C122.861 100.179 118.411 100.333 113.909 98.4891L113.473 98.3049C109.413 96.527 105.733 93.279 103.024 89.1036L102.495 88.2561C99.8317 83.816 98.527 78.891 98.7998 74.3356L98.8323 73.8961C99.2339 69.043 101.385 65.1613 104.907 62.9153L105.253 62.7039L105.279 62.6879ZM125.242 74.8476C120.683 67.2473 112.545 63.3522 107.471 66.3423L107.457 66.3511C102.398 69.35 101.968 78.2875 106.523 85.8811C111.082 93.4817 119.22 97.3767 124.294 94.3865L124.308 94.3776C126.488 93.0857 127.889 90.6502 128.294 87.4748L128.362 86.8296C128.66 83.2271 127.705 79.2617 125.664 75.5801L125.242 74.8476Z" fill="#262933"/>
<path d="M115.272 69.645C112.583 71.2283 111.756 74.9999 112.962 78.8535C113.18 79.5493 113.86 79.9959 114.64 79.9774L117.603 79.9073C118.674 79.8819 119.475 80.7268 119.347 81.7462L118.917 85.1572C118.825 85.887 119.21 86.57 119.894 86.8524C121.865 87.6665 123.886 87.6901 125.519 86.7284C128.894 84.7411 129.336 79.3058 126.506 74.5884C123.677 69.871 118.647 67.6577 115.272 69.645Z" fill="#262933"/>
<path d="M115.271 69.6452C118.646 67.658 123.676 69.871 126.506 74.588C129.335 79.3055 128.893 84.7415 125.518 86.7288L125.208 86.8975C123.738 87.632 121.992 87.6215 120.263 86.9962L119.894 86.8526C119.21 86.5702 118.825 85.887 118.917 85.1572L119.346 81.7461C119.466 80.7905 118.77 79.9878 117.8 79.9121L117.603 79.9074L114.639 79.9774C113.909 79.9945 113.265 79.6035 113.008 78.9816L112.962 78.8534C111.756 75 112.583 71.2285 115.271 69.6452ZM120.032 71.9545C118.472 71.2681 117.24 71.3847 116.456 71.846C115.383 72.4777 114.422 74.4073 115.181 77.4116L117.641 77.354C120.012 77.2978 122.168 79.2488 121.825 81.9757L121.482 84.6862C122.706 85.0589 123.677 84.9151 124.335 84.5277C125.084 84.0865 125.719 83.1534 125.848 81.5687C125.977 79.9804 125.548 77.9622 124.361 75.9837C123.176 74.0079 121.571 72.632 120.032 71.9545Z" fill="#262933"/>
<path d="M140.963 101.753C146.036 100.567 151.732 106.949 154.477 111.039C155.397 110.916 157.796 110.236 160.168 109.775C162.737 114.09 161.29 126.788 159.698 131.688L159.616 135.353L142.775 140.005L135.487 142.311L134.951 138.811C133.496 137.411 129.714 132.385 129.187 130.639C135.487 126.609 140.963 119.258 144.361 115.465C144.279 114.971 144.899 114.468 143.516 112.953L143.502 112.937C141.747 111.016 134.639 103.231 140.963 101.753Z" fill="white"/>
<path d="M159.592 108.648C160.214 108.33 160.976 108.577 161.293 109.199C163.343 113.209 163.555 117.72 163.157 121.492C162.757 125.276 161.73 128.448 161.163 129.887C160.818 130.761 160.709 131.791 160.734 132.768C160.76 133.742 160.917 134.577 161.039 135.009C161.229 135.682 160.837 136.38 160.165 136.569C159.493 136.759 158.795 136.368 158.605 135.696C158.425 135.058 158.237 134.014 158.206 132.835C158.176 131.659 158.298 130.259 158.81 128.96C159.314 127.682 160.271 124.735 160.641 121.227C161.013 117.708 160.781 113.752 159.042 110.35C158.724 109.728 158.97 108.966 159.592 108.648Z" fill="#262933"/>
<path d="M139.64 100.828C140.951 100.287 142.598 100.356 144.479 100.96C147.55 101.947 150.405 104.308 152.678 106.72C154.971 109.154 156.793 111.773 157.784 113.467C158.136 114.07 157.934 114.845 157.331 115.197C156.728 115.55 155.953 115.347 155.601 114.744C154.697 113.199 152.987 110.737 150.838 108.455C148.667 106.151 146.169 104.16 143.706 103.368C142.129 102.861 141.15 102.94 140.604 103.166C140.119 103.366 139.814 103.746 139.69 104.353C139.415 105.702 140.14 107.982 142.077 109.808C145.638 113.164 147.799 116.918 148.465 118.464C148.738 119.095 148.456 119.828 147.831 120.115C146.975 120.506 145.671 121.558 144.89 123.419C144.124 125.248 143.825 127.956 145.124 131.729C145.351 132.389 145 133.109 144.34 133.337C143.679 133.564 142.959 133.213 142.732 132.552C141.264 128.288 141.514 124.93 142.558 122.441C143.328 120.605 144.509 119.293 145.651 118.476C144.766 116.849 142.98 114.134 140.344 111.649C137.999 109.441 136.707 106.326 137.213 103.846C137.48 102.539 138.267 101.395 139.64 100.828Z" fill="#262933"/>
<path d="M127.541 129.434C128.207 129.223 128.917 129.592 129.128 130.258C129.319 130.862 130.178 132.413 131.454 134.023C132.652 135.534 134.028 136.852 135.266 137.448L135.512 137.558L135.665 137.633C136.007 137.831 136.241 138.179 136.289 138.578C136.488 140.237 136.704 142.305 136.786 143.132C136.856 143.827 136.349 144.447 135.654 144.517C134.959 144.586 134.339 144.079 134.27 143.384C134.199 142.676 134.026 141.051 133.855 139.567C132.191 138.669 130.649 137.078 129.472 135.593C128.13 133.9 127.047 132.063 126.717 131.021C126.506 130.355 126.875 129.645 127.541 129.434Z" fill="#262933"/>
<path d="M130.01 147.458C138.179 139.816 155.374 135.929 162.951 134.941C164.488 140.87 168.81 160.441 182.715 186.987C190.904 202.621 206.173 216.712 221.156 227.479C232.692 235.768 244.057 242.087 251.891 245.622L355.16 295.362C354.776 302.28 352.097 318.157 344.454 326.327C332.2 325.668 280.275 310.79 255.844 303.433C246.291 314.029 224.089 338.548 211.703 351.856C210.495 352.789 207.274 355.699 199.368 353.195C202.342 351.088 208.851 345.735 211.099 341.182C204.676 286.987 148.836 268.009 131.328 262.586C136.928 251.716 145.657 255.339 150.104 252.375C153.661 250.003 160.59 244.249 163.61 241.669C150.763 227.834 132.975 187.317 130.01 147.458Z" fill="white"/>
<path d="M162.905 133.678C163.492 133.656 164.024 134.045 164.174 134.623C165.709 140.545 170.002 159.993 183.835 186.401C191.889 201.777 206.973 215.729 221.894 226.452C233.365 234.695 244.658 240.971 252.411 244.469C252.42 244.473 252.43 244.478 252.439 244.483L355.709 294.223C356.169 294.445 356.451 294.923 356.423 295.433C356.226 298.978 355.445 304.77 353.744 310.722C352.05 316.65 349.401 322.889 345.378 327.19C345.123 327.463 344.759 327.609 344.386 327.589C341.197 327.418 335.551 326.337 328.592 324.738C321.598 323.131 313.178 320.976 304.387 318.613C287.168 313.985 268.492 308.552 256.246 304.872C246.422 315.765 224.796 339.643 212.629 352.717C212.582 352.767 212.53 352.814 212.476 352.856C211.886 353.312 210.597 354.429 208.381 355.035C206.161 355.641 203.127 355.713 198.986 354.401C198.529 354.256 198.193 353.865 198.119 353.391C198.045 352.917 198.245 352.441 198.636 352.164C200.078 351.142 202.402 349.314 204.634 347.189C206.771 345.155 208.726 342.936 209.795 340.948C206.537 314.518 191.314 296.624 174.631 284.621C157.851 272.548 139.675 266.495 130.953 263.794C130.596 263.683 130.307 263.42 130.162 263.075C130.017 262.73 130.033 262.339 130.204 262.007C131.681 259.14 133.397 257.169 135.248 255.804C137.098 254.44 139.023 253.725 140.854 253.286C142.631 252.86 144.453 252.674 145.88 252.444C147.389 252.201 148.533 251.902 149.403 251.323C152.548 249.226 158.453 244.373 161.801 241.544C155.415 234.207 148.082 220.922 141.923 204.772C135.465 187.84 130.242 167.626 128.749 147.553C128.721 147.171 128.866 146.797 129.146 146.535C133.436 142.522 139.992 139.569 146.309 137.502C152.658 135.425 158.929 134.191 162.788 133.687L162.905 133.678ZM210.186 344.894C209.055 346.338 207.714 347.749 206.378 349.022C204.951 350.38 203.489 351.619 202.22 352.625C204.664 353.1 206.44 352.943 207.714 352.595C208.992 352.246 209.833 351.692 210.434 351.237C210.426 349.071 210.342 346.957 210.186 344.894ZM162.003 136.354C158.245 136.916 152.699 138.073 147.096 139.906C141.112 141.864 135.212 144.544 131.319 147.978C132.85 167.561 137.963 187.296 144.285 203.872C150.417 219.95 157.642 232.932 163.742 239.922L176.642 229.327C177.181 228.884 177.978 228.963 178.421 229.502C178.864 230.042 178.787 230.839 178.247 231.282L164.413 242.646C161.394 245.225 154.429 251.011 150.805 253.427C149.451 254.33 147.837 254.69 146.283 254.941C144.648 255.205 143.103 255.348 141.443 255.746C139.835 256.131 138.25 256.733 136.749 257.839C135.524 258.742 134.315 260.011 133.192 261.845C142.461 264.775 159.901 270.907 176.108 282.568C193.249 294.9 209.089 313.478 212.355 341.034C212.648 343.51 212.838 346.058 212.92 348.679C224.989 335.648 244.013 314.653 253.576 304.054C253.527 304.046 253.476 304.038 253.425 304.03C252.187 303.854 250.28 303.743 247.502 303.872C246.805 303.904 246.213 303.366 246.181 302.668C246.148 301.971 246.687 301.379 247.385 301.347C250.273 301.212 252.346 301.321 253.783 301.526C254.5 301.628 255.077 301.758 255.525 301.9C255.82 301.993 256.128 302.114 256.394 302.278C268.609 305.954 287.581 311.477 305.044 316.17C313.82 318.529 322.206 320.676 329.158 322.273C335.698 323.776 340.883 324.773 343.928 325.023C347.334 321.164 349.722 315.595 351.313 310.028C352.828 304.724 353.584 299.548 353.841 296.129L252.224 247.186C248.944 250.937 244.69 253.738 239.696 254.708C234.35 255.746 228.304 254.658 221.902 250.646C219.238 248.977 217.506 246.935 216.514 244.695C215.526 242.465 215.305 240.115 215.535 237.87C215.932 233.99 217.687 230.31 219.397 227.765C204.68 217.049 189.73 203.105 181.595 187.574C168.38 162.347 163.768 143.368 162.003 136.354ZM221.453 229.239C219.924 231.531 218.391 234.796 218.05 238.128C217.855 240.034 218.053 241.925 218.827 243.67C219.596 245.406 220.968 247.076 223.245 248.503C229.195 252.232 234.596 253.121 239.215 252.224C243.324 251.426 246.928 249.188 249.829 246.063C242.257 242.507 231.964 236.694 221.453 229.239Z" fill="#262933"/>
<path d="M232.95 135.929C218.588 143.308 218.291 160.415 219.938 168.047C242.118 192.587 291.453 239.956 311.349 233.104C336.219 224.54 353.843 191.928 338.69 173.976C345.278 137.082 312.776 125.443 295.702 124.235C307.561 95.2475 259.138 84.8709 244.644 95.9063C230.15 106.942 228.503 117.812 232.95 135.929Z" fill="#262933"/>
<path d="M260.379 90.3368C266.93 90.2076 274.136 91.402 280.514 93.8834C286.876 96.359 292.539 100.165 295.832 105.349C298.933 110.229 299.85 116.204 297.47 123.121C306.074 124.016 317.778 127.351 326.867 134.742C336.55 142.615 343.173 155.028 340.034 173.618C347.657 183.092 346.811 196.094 341.164 207.616C335.415 219.346 324.551 229.895 311.761 234.3C306.265 236.193 299.033 234.29 291.229 230.412C283.343 226.494 274.538 220.386 265.711 213.335C248.048 199.226 230.12 181.197 219 168.894C218.852 168.73 218.749 168.53 218.703 168.314C217.843 164.333 217.496 157.941 219.22 151.564C220.884 145.41 224.501 139.206 231.495 135.278C229.435 126.584 228.784 119.378 230.471 112.941C232.232 106.225 236.485 100.529 243.878 94.8997C247.809 91.9074 253.866 90.4653 260.379 90.3368ZM260.429 92.8646C254.157 92.9884 248.726 94.3874 245.409 96.9126C238.309 102.319 234.492 107.576 232.917 113.582C231.331 119.635 231.97 126.632 234.178 135.628C234.318 136.196 234.048 136.786 233.527 137.054C226.737 140.542 223.256 146.324 221.661 152.223C220.105 157.979 220.372 163.78 221.109 167.454C232.186 179.685 249.888 197.459 267.289 211.359C276.055 218.361 284.7 224.344 292.354 228.148C300.088 231.991 306.485 233.442 310.937 231.909C323.018 227.749 333.401 217.709 338.893 206.504C344.395 195.278 344.849 183.233 337.723 174.791C337.481 174.503 337.379 174.123 337.446 173.753C340.656 155.772 334.361 144.095 325.272 136.704C316.096 129.243 303.976 126.088 295.613 125.496C295.208 125.468 294.842 125.247 294.628 124.903C294.414 124.558 294.378 124.132 294.532 123.757C297.354 116.858 296.559 111.21 293.698 106.706C290.795 102.137 285.669 98.6033 279.597 96.2408C273.54 93.8841 266.663 92.7417 260.429 92.8646Z" fill="#262933"/>
<path d="M314.726 180.356C318.586 179.029 328.222 178.345 337.173 185.506C337.719 185.942 337.807 186.738 337.371 187.283C336.935 187.828 336.139 187.916 335.594 187.481C327.417 180.938 318.715 181.659 315.548 182.747C314.888 182.974 314.169 182.623 313.942 181.963C313.715 181.303 314.065 180.584 314.726 180.356Z" fill="white"/>
<path d="M313.784 188.538C315.962 188.19 319.5 188.021 323.16 188.622C326.806 189.22 330.741 190.611 333.512 193.528C333.993 194.035 333.973 194.834 333.467 195.315C332.96 195.796 332.16 195.776 331.679 195.27C329.443 192.917 326.131 191.671 322.752 191.117C319.388 190.565 316.124 190.725 314.184 191.035C313.494 191.145 312.846 190.676 312.735 189.987C312.625 189.297 313.094 188.649 313.784 188.538Z" fill="white"/>
<path d="M311.855 195.974C315.18 195.112 323.174 195.213 329.866 201.904C330.36 202.398 330.36 203.198 329.866 203.692C329.372 204.186 328.571 204.186 328.078 203.692C322.12 197.735 315.094 197.748 312.49 198.423C311.814 198.598 311.124 198.191 310.948 197.515C310.773 196.839 311.179 196.149 311.855 195.974Z" fill="white"/>
<path d="M248.971 101.486C249.437 100.965 250.236 100.922 250.757 101.387C251.277 101.853 251.322 102.652 250.857 103.173C245.998 108.606 238.651 123.808 248.696 140.718C249.052 141.319 248.854 142.094 248.254 142.451C247.653 142.807 246.878 142.61 246.521 142.01C235.747 123.872 243.618 107.472 248.971 101.486Z" fill="white"/>
<path d="M259 100.519C259.455 99.9882 260.253 99.9262 260.784 100.38C261.314 100.835 261.376 101.633 260.922 102.164C255.244 108.797 246.64 126.704 257.59 145.166C257.946 145.767 257.748 146.542 257.147 146.899C256.546 147.255 255.771 147.057 255.414 146.456C243.701 126.708 252.93 107.611 259 100.519Z" fill="white"/>
<path d="M268.912 102.628C269.383 102.113 270.184 102.078 270.698 102.55C271.213 103.022 271.248 103.822 270.776 104.337C265.025 110.616 256.257 127.987 267.474 146.98C267.829 147.581 267.629 148.356 267.028 148.711C266.427 149.066 265.651 148.867 265.296 148.265C253.323 127.993 262.695 109.415 268.912 102.628Z" fill="white"/>
<path d="M271.119 115.749C271.348 115.09 272.068 114.742 272.728 114.97C273.388 115.199 273.738 115.92 273.509 116.579C272.41 119.743 271.348 125.309 271.82 131.555C272.292 137.788 274.284 144.621 279.208 150.429C279.659 150.961 279.593 151.759 279.061 152.211C278.528 152.662 277.73 152.596 277.279 152.064C271.925 145.749 269.799 138.363 269.299 131.746C268.799 125.142 269.911 119.228 271.119 115.749Z" fill="white"/>
<path d="M281.446 126.813C281.569 126.125 282.225 125.667 282.913 125.79C283.6 125.913 284.058 126.57 283.935 127.257C282.782 133.708 284.213 147.983 298.969 153.86C299.618 154.119 299.935 154.854 299.676 155.503C299.418 156.151 298.683 156.467 298.034 156.209C281.694 149.701 280.184 133.868 281.446 126.813Z" fill="white"/>
<path d="M223.891 161.952C226.527 154.573 235.091 146.58 239.044 143.505C243.217 147.239 253.406 155.364 260.785 157.999C270.008 161.293 276.596 158.658 291.749 165.246C315.467 175.128 302.949 198.846 298.337 204.775C293.726 210.704 288.455 217.293 291.749 221.245C295.043 225.198 301.631 218.61 307.561 225.198C313.49 231.787 312.172 242.328 304.267 246.939C296.361 251.551 288.455 250.892 277.914 242.328C256.832 250.892 231.797 244.304 217.303 229.81C202.809 215.316 199.515 196.869 204.127 183.693C208.739 170.517 220.597 171.176 223.891 161.952Z" fill="white"/>
<path d="M238.268 142.508C238.75 142.132 239.431 142.156 239.887 142.563C241.94 144.401 245.495 147.334 249.444 150.132C253.413 152.944 257.69 155.551 261.211 156.809C265.651 158.394 269.398 158.543 274.198 159.133C278.975 159.72 284.53 160.731 292.235 164.079C298.374 166.637 302.282 170.142 304.534 174.137C306.781 178.122 307.314 182.473 306.926 186.612C306.155 194.833 301.734 202.467 299.335 205.551C297.001 208.553 294.619 211.577 293.203 214.33C291.752 217.151 291.608 219.102 292.72 220.436C293.246 221.067 293.885 221.307 294.819 221.34C295.865 221.377 296.988 221.159 298.519 220.978C299.961 220.809 301.627 220.703 303.355 221.129C305.114 221.563 306.856 222.525 308.501 224.352C314.943 231.51 313.532 242.998 304.904 248.031C300.754 250.452 296.511 251.536 291.887 250.824C287.465 250.144 282.832 247.84 277.698 243.771C256.256 252.122 231.076 245.371 216.409 230.704C201.608 215.903 198.145 196.956 202.934 183.275C205.377 176.294 209.777 172.971 213.802 170.288C217.886 167.565 221.225 165.658 222.701 161.527C224.101 157.606 227.031 153.617 230.032 150.27C233.051 146.905 236.236 144.088 238.268 142.508ZM239.004 145.155C237.092 146.722 234.443 149.142 231.916 151.959C228.988 155.223 226.317 158.919 225.082 162.377C223.263 167.469 219.027 169.845 215.205 172.393C211.325 174.98 207.489 177.916 205.321 184.111C200.886 196.782 204.01 214.729 218.197 228.916C232.36 243.079 256.864 249.515 277.438 241.156L277.601 241.102C277.986 241.004 278.398 241.092 278.712 241.347C283.887 245.551 288.293 247.713 292.271 248.325C296.211 248.931 299.873 248.038 303.629 245.847C310.812 241.656 312.038 232.062 306.621 226.044C305.301 224.577 303.995 223.893 302.749 223.585C301.471 223.27 300.172 223.33 298.814 223.49C297.545 223.64 296.034 223.914 294.732 223.868C293.319 223.819 291.899 223.401 290.778 222.055C288.595 219.437 289.441 216.116 290.954 213.173C292.503 210.161 295.062 206.926 297.339 203.999C299.552 201.154 303.696 193.965 304.407 186.374C304.76 182.608 304.263 178.805 302.331 175.379C300.404 171.962 296.982 168.797 291.263 166.414C291.257 166.411 291.25 166.409 291.244 166.406C283.807 163.173 278.496 162.208 273.889 161.642C269.302 161.079 265.143 160.898 260.36 159.19C256.502 157.812 251.994 155.039 247.981 152.196C244.419 149.673 241.173 147.041 239.004 145.155ZM294.672 231.742C297.686 231.225 301.419 231.516 305.877 233.243C306.527 233.496 306.851 234.227 306.599 234.878C306.347 235.53 305.614 235.853 304.963 235.601C301.628 234.309 298.843 233.931 296.575 234.066C297.303 235.66 298.918 237.858 301.919 239.005C302.571 239.255 302.897 239.986 302.647 240.638C302.398 241.29 301.667 241.617 301.015 241.368C296.919 239.801 294.837 236.661 294.012 234.475C291.007 235.277 289.238 237.019 288.561 238.185C288.211 238.789 287.436 238.995 286.832 238.645C286.228 238.294 286.023 237.521 286.373 236.917C287.51 234.956 290.275 232.496 294.672 231.742Z" fill="#262933"/>
<path d="M238.246 156.182C240.093 155.883 242.291 155.95 244.273 157.06C248.093 159.199 249.24 163.462 249.365 165.326C249.411 166.023 248.883 166.626 248.187 166.672C247.49 166.718 246.887 166.192 246.841 165.495C246.745 164.065 245.807 160.817 243.038 159.267C241.727 158.532 240.164 158.434 238.648 158.679C237.134 158.924 235.797 159.492 235.067 159.916C234.463 160.267 233.689 160.062 233.338 159.458C232.988 158.854 233.194 158.08 233.798 157.729C234.769 157.165 236.398 156.481 238.246 156.182Z" fill="#262933"/>
<path d="M268.698 177.255C269.843 176.778 271.714 176.325 273.753 176.44C275.812 176.556 278.123 177.26 279.979 179.193C283.497 182.858 283.284 186.752 282.533 188.48C282.254 189.12 281.51 189.412 280.869 189.134C280.229 188.856 279.935 188.111 280.214 187.471C280.561 186.672 280.962 183.868 278.155 180.944C276.85 179.585 275.207 179.054 273.611 178.964C271.993 178.873 270.503 179.243 269.671 179.59C269.027 179.858 268.287 179.553 268.018 178.908C267.75 178.263 268.054 177.523 268.698 177.255Z" fill="#262933"/>
<path d="M237.598 174.962C235.849 178.003 232.857 179.563 230.914 178.446C228.971 177.329 228.813 173.958 230.561 170.917C232.31 167.876 235.302 166.316 237.245 167.433C239.188 168.55 239.346 171.92 237.598 174.962Z" fill="#262933"/>
<path d="M269.046 196.708C266.866 199.456 263.676 200.555 261.92 199.162C260.164 197.769 260.508 194.412 262.688 191.664C264.869 188.916 268.059 187.817 269.815 189.21C271.571 190.603 271.226 193.96 269.046 196.708Z" fill="#262933"/>
<path d="M246.11 184.078C246.534 183.523 247.328 183.417 247.883 183.842C248.437 184.266 248.543 185.059 248.119 185.614L245.978 188.413C245.745 188.718 245.386 188.901 245.002 188.91C244.619 188.918 244.252 188.753 244.006 188.459C243.526 187.888 242.663 187.146 241.702 186.781C240.802 186.438 239.899 186.441 239.01 187.151C237.659 188.233 237.317 189.5 237.519 190.394C237.709 191.238 238.469 192.122 240.177 192.319C240.871 192.399 241.369 193.026 241.289 193.72C241.209 194.413 240.581 194.911 239.887 194.831C237.314 194.534 235.52 193.029 235.051 190.95C234.594 188.921 235.489 186.729 237.431 185.175C239.178 183.778 241.074 183.835 242.603 184.417C243.455 184.742 244.213 185.235 244.833 185.746L246.11 184.078Z" fill="#262933"/>
<path d="M251.891 205.927C245.83 204.873 241.13 203.402 239.538 202.798C237.809 202.304 233.872 200.657 231.962 198.022C229.574 194.728 223.727 195.222 221.833 197.281C219.938 199.339 218.703 201.645 220.268 207.08C221.833 212.516 233.279 228.821 248.926 223.551C264.573 218.28 259.467 207.245 251.891 205.927Z" fill="#262933"/>
<path d="M226.732 194.379C228.962 194.414 231.476 195.196 232.986 197.279C233.788 198.385 235.071 199.347 236.434 200.108C237.616 200.768 238.78 201.232 239.571 201.486L239.886 201.583L239.987 201.616C241.498 202.189 246.119 203.641 252.107 204.682C256.362 205.422 260.06 208.903 260.379 213.162C260.71 217.596 257.386 222.035 249.33 224.749C240.961 227.568 233.741 224.579 228.516 220.31C223.339 216.079 219.918 210.435 219.053 207.43C218.236 204.591 218.106 202.424 218.521 200.629C218.941 198.814 219.884 197.531 220.902 196.424C222.187 195.027 224.543 194.346 226.732 194.379ZM226.692 196.908C224.887 196.881 223.371 197.476 222.763 198.137C221.887 199.09 221.266 199.989 220.986 201.2C220.701 202.431 220.736 204.134 221.483 206.731C222.183 209.161 225.267 214.388 230.116 218.351C234.918 222.275 241.244 224.804 248.522 222.352C256.113 219.795 258.061 216.082 257.857 213.351C257.64 210.445 254.995 207.75 251.674 207.173C245.597 206.116 240.852 204.642 239.137 203.998C238.18 203.719 236.701 203.154 235.202 202.317C233.687 201.472 232.046 200.294 230.938 198.765C230.06 197.553 228.455 196.936 226.692 196.908Z" fill="#262933"/>
<path d="M238.138 223.962C232.147 222.483 227.048 217.457 225.127 215.151C240.345 209.024 249.421 217.155 252.056 221.986C249.942 223.441 244.809 225.61 238.138 223.962Z" fill="white"/>
<path d="M224.655 213.978C232.549 210.8 238.967 211.284 243.796 213.291C248.583 215.281 251.721 218.732 253.166 221.381C253.476 221.949 253.307 222.661 252.773 223.028C250.415 224.651 244.915 226.939 237.835 225.19C231.444 223.612 226.128 218.329 224.155 215.961C223.896 215.65 223.802 215.234 223.901 214.842C223.999 214.45 224.28 214.129 224.655 213.978ZM242.825 215.626C238.985 214.03 233.825 213.466 227.315 215.687C229.664 218.119 233.808 221.59 238.441 222.734C243.761 224.048 248.001 222.762 250.302 221.557C248.902 219.528 246.405 217.114 242.825 215.626Z" fill="#262933"/>
<path d="M228.791 199.134C229.879 197.882 232.044 198.612 232.991 199.134C235.05 201.11 240.485 203.251 243.574 204.116C247.125 205.11 250.697 205.639 253.744 206.463C256.791 207.286 256.544 212.68 251.521 212.351C243.121 211.404 235.997 208.48 232.58 205.886C229.162 203.292 227.433 200.698 228.791 199.134Z" fill="white"/>
<path d="M227.837 198.304C228.775 197.224 230.105 197.1 231.088 197.213C232.086 197.327 233.022 197.708 233.601 198.026C233.698 198.08 233.787 198.145 233.867 198.222C234.725 199.045 236.42 200.002 238.41 200.886C240.358 201.753 242.432 202.483 243.915 202.898C245.645 203.382 247.388 203.756 249.106 204.116C250.81 204.472 252.507 204.818 254.074 205.242C256.375 205.864 257.317 208.177 256.894 210.11C256.675 211.109 256.094 212.061 255.135 212.725C254.175 213.39 252.921 213.71 251.438 213.613C251.418 213.612 251.398 213.609 251.378 213.607C242.818 212.642 235.46 209.66 231.815 206.894C230.052 205.556 228.617 204.141 227.806 202.767C227.001 201.403 226.63 199.694 227.837 198.304ZM230.8 199.726C230.192 199.656 229.894 199.792 229.746 199.963C229.594 200.138 229.409 200.509 229.983 201.482C230.551 202.445 231.69 203.624 233.344 204.879C236.53 207.297 243.405 210.156 251.628 211.089C252.642 211.151 253.295 210.923 253.696 210.646C254.1 210.366 254.334 209.979 254.424 209.569C254.618 208.682 254.159 207.885 253.414 207.683C251.934 207.283 250.321 206.954 248.589 206.592C246.872 206.232 245.054 205.843 243.233 205.333C241.628 204.884 239.438 204.111 237.382 203.197C235.45 202.338 233.484 201.288 232.267 200.186C231.893 199.997 231.337 199.787 230.8 199.726Z" fill="#262933"/>
</svg>
