<svg width="48" height="48" viewBox="0 0 48 48" fill="none" xmlns="http://www.w3.org/2000/svg">
<path d="M23.6133 4.51074C23.8132 4.32717 24.1858 4.32717 24.3857 4.51074C26.7314 6.66429 31.8733 9.53073 39.9873 9.75488C40.1496 9.75937 40.2808 9.89459 40.2861 10.0449C40.2872 10.0747 40.288 10.105 40.2891 10.1357C40.396 13.1544 40.6479 20.3461 38.6904 27.4668C36.7355 34.5783 32.619 41.4891 24.0674 44.1943C24.0269 44.2071 23.9732 44.2071 23.9326 44.1943C15.3808 41.4892 11.2646 34.5783 9.30957 27.4668C7.3521 20.3461 7.60306 13.1544 7.70996 10.1357C7.71105 10.1051 7.71184 10.0748 7.71289 10.0449C7.7182 9.89468 7.84953 9.75951 8.01172 9.75488C16.1256 9.53076 21.2676 6.66429 23.6133 4.51074Z" fill="#F8EA88" stroke="#262933" stroke-width="1.5" stroke-linejoin="round"/>
<path d="M23.5488 11.3929C23.7835 11.2006 24.2165 11.2006 24.4512 11.3929C26.1941 12.8217 29.5724 14.5161 34.6738 14.6703C34.6786 14.6704 34.6862 14.673 34.6943 14.681C34.6978 14.6845 34.7003 14.6871 34.7012 14.6888C34.7017 14.6901 34.7012 14.6912 34.7012 14.6918C34.7728 16.7146 34.9388 21.4937 33.6455 26.2269C32.3544 30.9519 29.6506 35.5006 24.0615 37.308C24.0243 37.3199 23.9757 37.3199 23.9385 37.308C18.3494 35.5006 15.6456 30.9519 14.3545 26.2269C13.0612 21.4937 13.2272 16.7146 13.2988 14.6918C13.2988 14.6912 13.2983 14.6901 13.2988 14.6888C13.2997 14.6871 13.3022 14.6845 13.3057 14.681C13.3138 14.6731 13.3214 14.6704 13.3262 14.6703C18.4276 14.5161 21.806 12.8217 23.5488 11.3929Z" fill="white" stroke="#262933" stroke-width="1.5" stroke-linejoin="round"/>
<rect x="3.75" y="16.75" width="40.5" height="14.5" rx="3.25" fill="white" stroke="#262933" stroke-width="1.5"/>
<circle cx="10.5" cy="24" r="2" transform="rotate(90 10.5 24)" fill="#262933"/>
<circle cx="19.5" cy="24" r="2" transform="rotate(90 19.5 24)" fill="#262933"/>
<circle cx="28.5" cy="24" r="2" transform="rotate(90 28.5 24)" fill="#262933"/>
<circle cx="37.5" cy="24" r="2" transform="rotate(90 37.5 24)" fill="#262933"/>
</svg>
