<svg width="80" height="80" viewBox="0 0 80 80" fill="none" xmlns="http://www.w3.org/2000/svg">
<path d="M11.5006 58.4336L16.1777 61.3572C16.5365 61.5815 16.9363 61.7322 17.3539 61.8006L33.98 64.5238C34.5194 64.6121 35.027 64.8375 35.4544 65.1782L40.061 68.8515C41.5228 70.0171 43.5291 70.2255 45.1992 69.3851L68.2424 57.7903C70.4807 56.6641 70.6084 53.5161 68.4687 52.2122L63.4674 49.1644C63.0782 48.9272 62.6427 48.7761 62.1902 48.7212L47.0149 46.8818C46.6122 46.833 46.2225 46.7079 45.8666 46.5132L40.0673 43.3399C38.343 42.3964 36.2802 42.2996 34.4751 43.0776L11.9292 52.7945C9.56463 53.8136 9.31719 57.0688 11.5006 58.4336Z" fill="#F8EA88"/>
<path fill-rule="evenodd" clip-rule="evenodd" d="M17.3539 61.8006L17.7409 59.4376L34.367 62.1608C35.3109 62.3154 36.1994 62.7098 36.9472 63.3061L41.5538 66.9794C42.2847 67.5622 43.2879 67.6664 44.1229 67.2462L67.1661 55.6514C67.7257 55.3698 67.7576 54.5829 67.2227 54.2569L62.2214 51.209L63.4581 49.1796L62.2214 51.209C62.1241 51.1497 62.0152 51.112 61.9021 51.0983L46.7268 49.2589C46.022 49.1734 45.34 48.9545 44.7172 48.6137L45.8666 46.5132C46.2225 46.7079 46.6122 46.833 47.0149 46.8818L62.1902 48.7212C62.6427 48.7761 63.0782 48.9272 63.4674 49.1644L68.4687 52.2122C70.6084 53.5161 70.4807 56.6641 68.2424 57.7903L45.1992 69.3851C43.5291 70.2255 41.5228 70.0171 40.061 68.8515L35.4544 65.1782C35.027 64.8375 34.5194 64.6121 33.98 64.5238L17.3539 61.8006ZM45.8666 46.5132L44.7172 48.6137L38.9179 45.4404C37.8402 44.8507 36.551 44.7902 35.4228 45.2765L12.8769 54.9934C12.2858 55.2482 12.2239 56.062 12.7697 56.4032L17.4469 59.3268C17.5366 59.3829 17.6365 59.4205 17.7409 59.4376L17.3539 61.8006C16.9363 61.7322 16.5365 61.5815 16.1777 61.3572L11.5006 58.4336C9.31719 57.0688 9.56463 53.8136 11.9292 52.7945L34.4751 43.0776C36.2802 42.2996 38.343 42.3964 40.0673 43.3399L45.8666 46.5132Z" fill="#262933"/>
<path fill-rule="evenodd" clip-rule="evenodd" d="M29.1186 55.3968C29.3932 55.9983 29.1283 56.7085 28.5269 56.9832L18.1978 61.7L17.2032 59.522L27.5322 54.8051C28.1337 54.5305 28.8439 54.7954 29.1186 55.3968Z" fill="#262933"/>
<path fill-rule="evenodd" clip-rule="evenodd" d="M62.235 50.9049L50.2495 56.7714C49.6556 57.0621 48.9385 56.8163 48.6478 56.2224C48.3571 55.6286 48.6029 54.9115 49.1968 54.6208L61.1823 48.7543L62.235 50.9049Z" fill="#262933"/>
<path d="M47.4238 57.5462C47.4238 58.2314 46.8701 58.7869 46.187 58.7869C45.5039 58.7869 44.9501 58.2314 44.9501 57.5462C44.9501 56.8609 45.5039 56.3054 46.187 56.3054C46.8701 56.3054 47.4238 56.8609 47.4238 57.5462Z" fill="#262933"/>
<path d="M21.0109 28.4376C21.0109 37.4344 31.1841 48.6931 37.7764 54.5874C38.9261 55.6154 40.6513 55.6002 41.7881 54.5579C48.4237 48.474 58.7049 36.9918 58.7049 28.4376C58.7049 16.597 48.8055 10.1038 39.7945 10.1038C30.7834 10.1038 21.0109 15.9604 21.0109 28.4376Z" fill="white"/>
<path fill-rule="evenodd" clip-rule="evenodd" d="M28.8646 41.2767C32.103 45.7737 36.1649 49.9345 39.3724 52.8024C39.5998 53.0058 39.9353 53.0082 40.1699 52.793C43.4076 49.8245 47.5165 45.553 50.7947 41.0208C54.1502 36.3816 56.3105 31.9063 56.3105 28.4376C56.3105 18.2413 47.8298 12.4982 39.7945 12.4982C35.7752 12.4982 31.6505 13.8102 28.5713 16.4187C25.549 18.9789 23.4054 22.8893 23.4054 28.4376C23.4054 32.1491 25.5628 36.6916 28.8646 41.2767ZM37.7764 54.5874C31.1841 48.6931 21.0109 37.4344 21.0109 28.4376C21.0109 15.9604 30.7834 10.1038 39.7945 10.1038C48.8055 10.1038 58.7049 16.597 58.7049 28.4376C58.7049 36.9918 48.4237 48.474 41.7881 54.5579C40.6513 55.6002 38.9261 55.6154 37.7764 54.5874Z" fill="#262933"/>
<path fill-rule="evenodd" clip-rule="evenodd" d="M39.8579 36.8005C44.1358 36.8005 47.6167 33.3195 47.6167 29.0095C47.6167 24.6995 44.1358 21.2185 39.8579 21.2185C35.5799 21.2185 32.099 24.6995 32.099 29.0095C32.099 33.3195 35.5799 36.8005 39.8579 36.8005ZM39.8579 39.195C45.4653 39.195 50.0111 34.6348 50.0111 29.0095C50.0111 23.3843 45.4653 18.8241 39.8579 18.8241C34.2504 18.8241 29.7046 23.3843 29.7046 29.0095C29.7046 34.6348 34.2504 39.195 39.8579 39.195Z" fill="#262933"/>
</svg>
