<svg width="48" height="48" viewBox="0 0 48 48" fill="none" xmlns="http://www.w3.org/2000/svg">
<path d="M3.06132 18.7461C2.47517 16.6162 3.73286 14.4374 5.87044 13.8797L9.58118 12.9116L12.1113 14.7239L14.2605 15.1521L18.5772 30.838L16.8088 31.7939L15.6753 35.0564L11.9646 36.0246C9.82697 36.5822 7.61894 35.3077 7.03279 33.1777L3.06132 18.7461Z" fill="#F8EA88"/>
<path d="M40.9676 8.85666C40.3814 6.7267 38.1734 5.45213 36.0358 6.00981L17.1627 10.9337L15.9022 13.7349L14.2609 15.1521L18.5775 30.8381L20.5998 30.8049L23.2568 33.0786L42.1299 28.1547C44.2675 27.597 45.5252 25.4182 44.939 23.2882L40.9676 8.85666Z" fill="white"/>
<path d="M6.06944 14.6028L9.48443 13.7119L10.5927 14.335C12.8572 15.608 15.7099 14.8637 17.0173 12.6589L17.6572 11.5796L36.2345 6.73289C37.9713 6.27983 39.7653 7.31539 40.2416 9.04595L44.213 23.4772C44.6892 25.2078 43.6673 26.9781 41.9306 27.4312L23.3532 32.278L22.2449 31.6548C19.9805 30.382 17.1277 31.1263 15.8203 33.331L15.1805 34.4102L11.7655 35.3012C10.0287 35.7543 8.23467 34.7187 7.75842 32.9881L3.78703 18.5568C3.31078 16.8262 4.33265 15.056 6.06944 14.6028Z" stroke="#262933" stroke-width="1.5"/>
<path d="M14.1333 14.6908L18.7039 31.2994" stroke="#262933" stroke-width="1.5" stroke-dasharray="2.5 2.5"/>
<path d="M4.24707 23.4861C4.24707 21.2769 6.03793 19.4861 8.24707 19.4861H12.2969L14.3094 21.9354L16.3219 22.9152V39.5709L14.3094 40.0607L12.2969 43H8.24707C6.03793 43 4.24707 41.2091 4.24707 39V23.4861Z" fill="#F8EA88"/>
<path d="M44.4961 23.4861C44.4961 21.2769 42.7052 19.4861 40.4961 19.4861H20.3465L18.334 21.9354L16.3216 22.9152V39.5709L18.334 40.0607L20.3465 43H40.4961C42.7052 43 44.4961 41.2091 44.4961 39V23.4861Z" fill="white"/>
<path d="M8.24707 20.2361H11.9922L13.0078 21.2253C14.852 23.021 17.7915 23.021 19.6357 21.2253L20.6514 20.2361H40.4961C42.291 20.2361 43.7461 21.6912 43.7461 23.4861V38.9998C43.7461 40.7947 42.291 42.2498 40.4961 42.2498H20.6514L19.6357 41.2605C17.7915 39.4648 14.852 39.4648 13.0078 41.2605L11.9922 42.2498H8.24707C6.45215 42.2498 4.99707 40.7947 4.99707 38.9998V23.4861C4.99707 21.6912 6.45215 20.2361 8.24707 20.2361Z" stroke="#262933" stroke-width="1.5"/>
<path d="M16.3218 22.4253L16.3218 40.0607" stroke="#262933" stroke-width="1.5" stroke-dasharray="2.5 2.5"/>
<path d="M27.3978 30.4788C29.0642 30.4788 30.4163 29.1624 30.4163 27.5398C30.4163 25.9172 29.0642 24.6008 27.3978 24.6008C25.7313 24.6008 24.3793 25.9172 24.3793 27.5398C24.3793 29.1624 25.7313 30.4788 27.3978 30.4788ZM27.3978 26.0703C28.231 26.0703 28.907 26.7285 28.907 27.5398C28.907 28.3511 28.231 29.0093 27.3978 29.0093C26.5646 29.0093 25.8885 28.3511 25.8885 27.5398C25.8885 26.7285 26.5646 26.0703 27.3978 26.0703ZM33.4347 32.4381C31.7683 32.4381 30.4163 33.7546 30.4163 35.3772C30.4163 36.9997 31.7683 38.3162 33.4347 38.3162C35.1012 38.3162 36.4532 36.9997 36.4532 35.3772C36.4532 33.7546 35.1012 32.4381 33.4347 32.4381ZM33.4347 36.8467C32.6015 36.8467 31.9255 36.1885 31.9255 35.3772C31.9255 34.5659 32.6015 33.9077 33.4347 33.9077C34.268 33.9077 34.944 34.5659 34.944 35.3772C34.944 36.1885 34.268 36.8467 33.4347 36.8467ZM36.3872 25.1763L26.1778 38.1631C26.1055 38.258 25.9923 38.3162 25.8728 38.3162H24.7566C24.4548 38.3162 24.2755 37.9886 24.4422 37.7437L34.6673 24.7538C34.7396 24.6589 34.8528 24.6008 34.9723 24.6008H36.0759C36.3777 24.6008 36.557 24.9314 36.3872 25.1763Z" fill="#262933"/>
</svg>
