<svg width="48" height="48" viewBox="0 0 48 48" fill="none" xmlns="http://www.w3.org/2000/svg">
<rect x="10" y="13" width="4" height="1.5" rx="0.75" fill="#262933"/>
<rect x="26" y="31" width="12" height="1.5" rx="0.75" fill="#262933"/>
<rect x="30" y="35" width="8" height="1.5" rx="0.75" fill="#262933"/>
<rect x="39" y="35" width="2" height="1.5" rx="0.75" fill="#262933"/>
<rect x="7" y="17" width="12" height="1.5" rx="0.75" fill="#262933"/>
<path d="M17 7.75H17.3486C17.4129 7.75 17.475 7.77492 17.5215 7.81934L27.3779 17.2402C27.4842 17.3418 27.4799 17.5127 27.3691 17.6094L17.5391 26.1885C17.4936 26.2281 17.4353 26.25 17.375 26.25H17C16.3097 26.25 15.75 25.6903 15.75 25V9C15.75 8.30964 16.3096 7.75 17 7.75Z" fill="white" stroke="#262933" stroke-width="1.5"/>
<path d="M41 7.75H40.6514C40.5871 7.75 40.525 7.77492 40.4785 7.81934L30.6221 17.2402C30.5158 17.3418 30.5201 17.5127 30.6309 17.6094L40.4609 26.1885C40.5064 26.2281 40.5647 26.25 40.625 26.25H41C41.6903 26.25 42.25 25.6903 42.25 25V9C42.25 8.30964 41.6904 7.75 41 7.75Z" fill="white" stroke="#262933" stroke-width="1.5"/>
<path d="M28.1758 16.447C28.6473 16.0336 29.3527 16.0336 29.8242 16.447L41.0059 26.2498H16.9941L28.1758 16.447Z" fill="white" stroke="#262933" stroke-width="1.5"/>
<path d="M29.874 18.7865C29.3882 19.2614 28.6118 19.2614 28.126 18.7865L16.8398 7.75036L41.1602 7.75037L29.874 18.7865Z" fill="white" stroke="#262933" stroke-width="1.5"/>
<path d="M8 22.75H8.34863C8.41295 22.75 8.47497 22.7749 8.52148 22.8193L18.3779 32.2402C18.4842 32.3418 18.4799 32.5127 18.3691 32.6094L8.53906 41.1885C8.49356 41.2281 8.43533 41.25 8.375 41.25H8C7.30965 41.25 6.75001 40.6903 6.75 40V24C6.75 23.3096 7.30964 22.75 8 22.75Z" fill="#F8EA88" stroke="#262933" stroke-width="1.5"/>
<path d="M32 22.75H31.6514C31.5871 22.75 31.525 22.7749 31.4785 22.8193L21.6221 32.2402C21.5158 32.3418 21.5201 32.5127 21.6309 32.6094L31.4609 41.1885C31.5064 41.2281 31.5647 41.25 31.625 41.25H32C32.6903 41.25 33.25 40.6903 33.25 40V24C33.25 23.3096 32.6904 22.75 32 22.75Z" fill="#F8EA88" stroke="#262933" stroke-width="1.5"/>
<path d="M19.1758 31.447C19.6473 31.0336 20.3527 31.0336 20.8242 31.447L32.0059 41.2498H7.99414L19.1758 31.447Z" fill="#F8EA88" stroke="#262933" stroke-width="1.5"/>
<path d="M20.874 33.7865C20.3882 34.2614 19.6118 34.2614 19.126 33.7865L7.83984 22.7504L32.1602 22.7504L20.874 33.7865Z" fill="#F8EA88" stroke="#262933" stroke-width="1.5"/>
</svg>
