<svg width="48" height="48" viewBox="0 0 48 48" fill="none" xmlns="http://www.w3.org/2000/svg">
<path d="M21.9043 7.75C23.1148 6.7286 24.8852 6.7286 26.0957 7.75L39.0957 18.7188C39.8275 19.3362 40.2499 20.2447 40.25 21.2021V38.7188C40.25 40.5137 38.7949 41.9688 37 41.9688H11C9.20507 41.9688 7.75 40.5137 7.75 38.7188V21.2021C7.75006 20.2447 8.17253 19.3362 8.9043 18.7188L21.9043 7.75Z" fill="white" stroke="#262933" stroke-width="1.5"/>
<rect x="12" y="11.5938" width="24" height="24" rx="2.25" fill="white" stroke="#262933" stroke-width="1.5"/>
<path d="M7.75 21.4131C7.75007 21.204 7.99144 21.0878 8.15527 21.2178L20.9805 31.3887C21.1044 31.487 21.1065 31.6746 20.9854 31.7764L8.89355 41.9336C8.86681 41.9561 8.83277 41.9687 8.79785 41.9688C8.21928 41.9688 7.75 41.4995 7.75 40.9209V21.4131Z" fill="#F8EA88" stroke="#262933" stroke-width="1.5"/>
<path d="M40.25 21.4131C40.2499 21.204 40.0086 21.0878 39.8447 21.2178L27.0195 31.3887C26.8956 31.487 26.8935 31.6746 27.0146 31.7764L39.1064 41.9336C39.1332 41.9561 39.1672 41.9687 39.2021 41.9688C39.7807 41.9688 40.25 41.4995 40.25 40.9209V21.4131Z" fill="#F8EA88" stroke="#262933" stroke-width="1.5"/>
<path d="M23.1943 30.0361C23.6598 29.6437 24.3402 29.6437 24.8057 30.0361L38.9482 41.9688H9.05176L23.1943 30.0361Z" fill="#F8EA88" stroke="#262933" stroke-width="1.5"/>
<path d="M18.6875 21.2236L22.4062 24.6562L29.3125 18.2812" stroke="#262933" stroke-width="2" stroke-linecap="round" stroke-linejoin="round"/>
</svg>
