<svg width="48" height="48" viewBox="0 0 48 48" fill="none" xmlns="http://www.w3.org/2000/svg">
<path d="M28.8763 15.1672H18.7052C18.1967 14.1752 16.7727 11.2985 15.1454 7.72741C13.1111 3.26357 16.1623 3.75954 19.2138 4.75152C23.7908 6.23942 23.2822 3.75959 28.8763 2.27165C33.3516 1.08129 34.1314 4.09025 33.9619 5.74352L28.8763 15.1672Z" fill="white" stroke="#262933" stroke-width="1.5" stroke-linejoin="round"/>
<path d="M21.9791 10.5367C21.887 10.1328 21.485 9.88003 21.0812 9.97205C20.6773 10.0641 20.4245 10.4661 20.5165 10.8699L21.2478 10.7033L21.9791 10.5367ZM28.5824 7.92523C28.6917 7.52568 28.4564 7.11322 28.0568 7.00397C27.6573 6.89473 27.2448 7.13006 27.1356 7.52961L27.859 7.72742L28.5824 7.92523ZM22.2649 15.1672L22.9962 15.0005L21.9791 10.5367L21.2478 10.7033L20.5165 10.8699L21.5337 15.3338L22.2649 15.1672ZM25.8248 15.1672L26.5482 15.365L28.5824 7.92523L27.859 7.72742L27.1356 7.52961L25.1013 14.9693L25.8248 15.1672Z" fill="#262933"/>
<path d="M11.0557 24.1768L19.1926 15.2491H29.3637C29.7027 15.5797 31.8556 17.8282 37.7549 24.1768C47.3157 35.2868 38.5177 43.3548 32.9236 46H15.6327C2.61373 38.8578 7.15681 28.4753 11.0557 24.1768Z" fill="#F8EA88" stroke="#262933" stroke-width="1.5" stroke-linejoin="round"/>
<path d="M22.25 28.7239L24.5 24.2323L26.75 28.7239L32 29.4726L28.25 33.2156L29 38.4558L24.5 36.21L20 38.4558L20.75 33.2156L17 29.4726L22.25 28.7239Z" fill="white" stroke="#262933" stroke-width="1.5" stroke-linejoin="round"/>
</svg>
