<svg width="48" height="48" viewBox="0 0 48 48" fill="none" xmlns="http://www.w3.org/2000/svg">
<path d="M41.75 26.5V21C41.75 18.7909 39.9591 17 37.75 17H7.75C5.54086 17 3.75 18.7909 3.75 21V27" stroke="#262933" stroke-width="1.5"/>
<circle cx="23" cy="14" r="11.25" fill="white" stroke="#262933" stroke-width="1.5"/>
<path d="M24.9667 13.6742L22.241 12.8961C21.8706 12.7906 21.5706 12.493 21.5121 12.1109C21.4206 11.5156 21.8824 11 22.4613 11H24.191C24.5636 11 24.9292 11.1172 25.2316 11.3305C25.3816 11.4359 25.5831 11.4195 25.7121 11.2906L26.2488 10.7539C26.4081 10.5945 26.3917 10.3273 26.2136 10.1891C25.6347 9.74141 24.9316 9.5 24.191 9.5H24.1253V8.375C24.1253 8.16875 23.9566 8 23.7503 8H23.0003C22.7941 8 22.6253 8.16875 22.6253 8.375V9.5H22.5667C21.4136 9.5 20.3496 10.2453 20.073 11.3656C19.7472 12.6828 20.5464 13.9719 21.7839 14.3258L24.5097 15.1039C24.88 15.2094 25.18 15.507 25.2386 15.8891C25.33 16.4844 24.8683 17 24.2894 17H22.5597C22.1871 17 21.8214 16.8828 21.5191 16.6695C21.3691 16.5641 21.1675 16.5805 21.0386 16.7094L20.5019 17.2461C20.3425 17.4055 20.3589 17.6727 20.5371 17.8109C21.1136 18.2586 21.8167 18.5 22.5597 18.5H22.6253V19.625C22.6253 19.8313 22.7941 20 23.0003 20H23.7503C23.9566 20 24.1253 19.8313 24.1253 19.625V18.5H24.1839C25.3371 18.5 26.4011 17.7547 26.6777 16.6344C27.0035 15.3172 26.2042 14.0281 24.9667 13.6742Z" fill="#262933"/>
<path d="M38.5 22.75C40.2949 22.75 41.75 24.2051 41.75 26V42C41.75 43.7949 40.2949 45.25 38.5 45.25H7C5.20507 45.25 3.75 43.7949 3.75 42V22.75H38.5Z" fill="#F8EA88" stroke="#262933" stroke-width="1.5"/>
<path d="M36 28.75H44.25V39.25H36C33.1005 39.25 30.75 36.8995 30.75 34C30.75 31.1005 33.1005 28.75 36 28.75Z" fill="white" stroke="#262933" stroke-width="1.5" stroke-linejoin="round"/>
<circle cx="36" cy="34" r="2" fill="#252E35"/>
</svg>
