<svg width="48" height="32" viewBox="0 0 48 32" fill="none" xmlns="http://www.w3.org/2000/svg">
<rect width="48.003" height="32" rx="8" fill="white"/>
<g clip-path="url(#clip0_2283_16019)">
<mask id="mask0_2283_16019" style="mask-type:luminance" maskUnits="userSpaceOnUse" x="-21" y="-18" width="169" height="120">
<path d="M-20.827 -17.6238H147.456V101.365H-20.827V-17.6238Z" fill="white"/>
</mask>
<g mask="url(#mask0_2283_16019)">
<path d="M36.003 16.0016C36.003 22.6266 30.6252 28 24.0014 28C17.3736 28 12 22.6266 12 16.0016C12 9.37255 17.3736 4 24.0014 4C30.6252 4 36.003 9.37255 36.003 16.0016Z" fill="#E83E44"/>
</g>
<mask id="mask1_2283_16019" style="mask-type:luminance" maskUnits="userSpaceOnUse" x="-21" y="-18" width="169" height="120">
<path d="M-20.827 -17.6238H147.456V101.365H-20.827V-17.6238Z" fill="white"/>
</mask>
<g mask="url(#mask1_2283_16019)">
<path d="M14.0004 14.6635C14.0004 14.6717 14.0228 14.9282 14.0228 14.9282C14.0188 14.9873 14.0514 15.0435 14.1045 15.0639C14.1515 15.0855 14.2047 15.0753 14.2517 15.0355C14.699 14.6595 15.3774 14.3233 15.9229 14.5112C16.3499 14.6595 16.6401 15.0999 16.7912 15.822C17.1018 17.336 16.0638 18.0656 15.4162 18.3626L15.3938 18.3728L14.5641 18.7796C14.5641 18.7796 14.5173 18.7998 14.4661 18.7754C14.4152 18.7488 14.4008 18.716 14.366 18.6263C13.8021 16.5452 13.61 14.3591 13.8205 12.318C13.8429 12.1647 13.9125 11.9788 14.031 11.8275L14.7276 11.0849L14.8053 11.0002C15.1833 10.6324 15.5387 10.4485 15.731 10.5282C15.8903 10.5956 15.9291 10.8511 15.9311 11.0513C15.9637 12.1361 15.357 13.2447 14.0862 14.4386C14.0862 14.4386 13.988 14.5184 14.0004 14.6635ZM17.819 13.1588C17.4409 12.9329 17.0141 12.8687 16.5829 12.9311C17.3693 12.0932 17.7967 11.1821 17.7967 10.2626C17.7967 10.1788 17.7945 10.0951 17.7843 10.0091C17.7435 9.43726 17.4798 9.00811 17.0713 8.86299C16.6625 8.70987 15.9125 8.78743 14.7214 10.0051L14.0064 10.8061C13.8083 11.0471 13.0563 12.1851 12.9174 13.3702C12.6845 15.3847 12.8337 17.3952 13.3466 19.1777C13.4057 19.386 13.5978 19.8889 14.0596 20.075C14.5501 20.2751 15.0158 20.0341 15.4286 19.8214L15.5387 19.7664L15.9637 19.5763L16.3765 19.3944L16.8792 19.1737C17.2406 19.0266 17.58 18.8897 17.9108 18.6119C18.3501 18.2369 18.673 17.7468 18.8385 17.1889C18.9244 16.9008 18.9836 16.5862 19.0142 16.2286C19.0407 15.9508 19.0693 15.4113 18.9652 14.9373C18.7385 13.8933 18.2194 13.3946 17.819 13.1588Z" fill="white"/>
<path d="M27.2379 6.83434C27.0048 6.03559 26.6248 5.86809 26.5145 5.83111C25.5177 5.51249 24.4815 5.44713 23.4764 5.62263C21.9665 5.90067 20.661 6.69322 19.7947 7.85396C18.8854 9.07467 18.534 10.5978 18.8037 12.1383C19.0775 13.6851 19.8581 14.9375 21.0716 15.7569C22.4936 16.7151 24.3855 17.0072 26.4084 16.5822C27.6035 16.3228 28.5905 15.858 29.3545 15.199C29.6957 14.9028 29.7611 14.5258 29.7611 14.2611C29.7611 14.2611 29.7795 14.0477 29.6139 13.3744C29.5692 13.2111 29.4976 13.162 29.3831 13.162C29.2993 13.162 29.2116 13.2581 29.1952 13.2785C28.6251 13.9385 27.7568 14.3981 26.6718 14.6115C23.887 15.1468 21.7458 13.8466 21.2147 11.2966C20.9878 10.1922 21.1757 9.13304 21.752 8.3135C22.3303 7.47997 23.2781 6.92829 24.4203 6.75678C25.2906 6.63006 26.1753 6.7372 26.97 7.06941C26.97 7.06941 27.3115 7.16835 27.2379 6.83434Z" fill="white"/>
</g>
</g>
<defs>
<clipPath id="clip0_2283_16019">
<rect width="24.003" height="24" fill="white" transform="translate(12 4)"/>
</clipPath>
</defs>
</svg>
