<svg width="125" height="32" viewBox="0 0 125 32" fill="none" xmlns="http://www.w3.org/2000/svg">
<rect width="124.509" height="32" rx="8" fill="white"/>
<g clip-path="url(#clip0_2283_15974)">
<path d="M17.4544 6C14.4478 6 12 8.44697 12 11.4544V25.9999H13.8177V11.4544C13.8177 9.44592 15.4461 7.81795 17.4544 7.81795H107.054C109.063 7.81795 110.69 9.44592 110.69 11.4544V25.9999H112.509V11.4544C112.509 8.44655 110.061 6 107.054 6H17.4544Z" fill="#212121"/>
<path d="M28.7522 22.1694C28.7522 22.312 28.6616 22.3642 28.506 22.3642H27.1576C27.0019 22.3642 26.9507 22.3122 26.9507 22.1565V18.4877C26.9507 18.3193 26.8337 18.2279 26.6652 18.2279H23.1262C22.9707 18.2279 22.8792 18.3193 22.8792 18.4877V22.1565C22.8792 22.312 22.7886 22.3642 22.6467 22.3642H21.2716C21.1425 22.3642 21.0905 22.3122 21.0905 22.1694V13.0559C21.0905 12.9132 21.1425 12.8354 21.2716 12.8354H22.6467C22.7886 12.8354 22.8792 12.9132 22.8792 13.0559V16.5818C22.8792 16.7501 22.9707 16.828 23.1262 16.828H26.6652C26.8336 16.828 26.9507 16.7503 26.9507 16.5818V13.0559C26.9507 12.9132 27.002 12.8354 27.1576 12.8354H28.506C28.6616 12.8354 28.7522 12.9132 28.7522 13.0559V22.1694Z" fill="#212121"/>
<path d="M32.0065 22.4929C31.0083 22.4929 30.4896 21.6895 30.4896 21.0024V15.3373C30.4896 15.1686 30.5545 15.0908 30.7101 15.0908H32.0065C32.1357 15.0908 32.227 15.1686 32.227 15.3373V20.8077C32.227 20.9632 32.2919 21.0409 32.4731 21.0409H34.8455C35.001 21.0409 35.1045 20.9632 35.1045 20.8077V15.3373C35.1045 15.1686 35.1694 15.0908 35.3249 15.0908H36.6213C36.764 15.0908 36.8546 15.1686 36.8546 15.3373V23.5954C36.8546 23.8023 36.7897 23.997 36.6991 24.1912L35.8171 25.6303C35.7393 25.7601 35.6231 25.838 35.4932 25.838H35.3249C35.1694 25.838 35.1045 25.7474 35.1045 25.6047V21.9487C35.1045 21.7932 35.0139 21.7283 34.8712 21.7675L32.3825 22.4675C32.2655 22.4929 32.1228 22.4929 32.0065 22.4929Z" fill="#212121"/>
<path d="M40.0829 22.4802C39.2923 22.4802 38.5924 21.8315 38.5924 20.9897V15.3375C38.5924 15.1687 38.6566 15.091 38.8121 15.091H40.1214C40.2385 15.091 40.3291 15.1687 40.3291 15.3375V20.8078C40.3291 20.9633 40.4069 21.0282 40.5889 21.0282H42.9605C43.1161 21.0282 43.2203 20.9633 43.2203 20.8078V15.3373C43.2203 15.1686 43.2723 15.0908 43.4279 15.0908H44.7236C44.8663 15.0908 44.9577 15.1686 44.9577 15.3373V22.169C44.9577 22.3117 44.8663 22.3639 44.7236 22.3639H43.4279C43.2723 22.3639 43.2203 22.3118 43.2203 22.1562V21.9486C43.2203 21.7802 43.116 21.7153 42.9742 21.7674L40.4846 22.4408C40.3554 22.4802 40.2127 22.4802 40.0829 22.4802Z" fill="#212121"/>
<path d="M53.0594 16.4911V22.169C53.0594 22.3117 52.9688 22.3639 52.8261 22.3639H51.5295C51.374 22.3639 51.3219 22.3118 51.3219 22.1562V16.6849C51.3219 16.5167 51.2185 16.4261 51.063 16.4261H48.6906C48.5094 16.4261 48.4316 16.5167 48.4316 16.6849V22.1562C48.4316 22.3117 48.341 22.3639 48.2239 22.3639H46.9146C46.7591 22.3639 46.6942 22.3118 46.6942 22.169V15.3373C46.6942 15.1686 46.7591 15.0908 46.9146 15.0908H48.2239C48.341 15.0908 48.4316 15.1686 48.4316 15.3373V15.5578C48.4316 15.7002 48.4965 15.7647 48.6906 15.7133L51.1673 15.039C51.2964 15.0129 51.4134 14.9741 51.5425 14.9741C52.3988 14.9741 53.0594 15.6869 53.0594 16.4911Z" fill="#212121"/>
<path d="M54.5363 20.9898V17.7225C54.5363 17.0226 54.8345 16.4912 55.4568 16.1541L56.831 15.3503C57.1165 15.1686 57.4011 15.0909 57.7386 15.0909H58.9309C59.0993 15.0909 59.1772 15.026 59.1772 14.8705V12.187C59.1772 12.0446 59.2421 11.9409 59.372 11.9409H60.6942C60.8497 11.9409 60.9146 12.0448 60.9146 12.187V22.1692C60.9146 22.3119 60.8497 22.3641 60.6942 22.3641H59.372C59.2422 22.3641 59.1772 22.312 59.1772 22.1564V21.9488C59.1772 21.7805 59.0994 21.7155 58.9309 21.7676L56.4294 22.441C56.2867 22.4802 56.1696 22.4802 56.0405 22.4802C55.3662 22.5059 54.5363 21.8838 54.5363 20.9898ZM59.1769 20.8079V16.6988C59.1769 16.517 59.0991 16.4264 58.9179 16.4264H56.5198C56.3378 16.4264 56.2729 16.517 56.2729 16.6988V20.8079C56.2729 20.9634 56.3378 21.0283 56.5198 21.0283H58.9179C59.0991 21.0283 59.1769 20.9634 59.1769 20.8079Z" fill="#212121"/>
<path d="M63.8944 22.4803C63.0782 22.4803 62.3912 21.8196 62.3912 20.9899V17.7225C62.3912 17.0225 62.6893 16.4911 63.2986 16.154L64.6856 15.3502C64.9711 15.1686 65.2557 15.0908 65.5796 15.0908H68.5485C68.6913 15.0908 68.7691 15.1686 68.7691 15.3373V22.169C68.7691 22.3117 68.6913 22.3639 68.5485 22.3639H67.2264C67.0837 22.3639 67.0315 22.3118 67.0315 22.1562V21.9486C67.0315 21.7802 66.9409 21.7153 66.7726 21.7674L64.283 22.4408C64.1413 22.4803 64.0242 22.4803 63.8944 22.4803ZM67.0317 20.8078V16.6987C67.0317 16.5169 66.9411 16.4263 66.7727 16.4263H64.3746C64.1926 16.4263 64.1277 16.5169 64.1277 16.6987V20.8078C64.1277 20.9633 64.1926 21.0282 64.3746 21.0282H66.7727C66.9411 21.0282 67.0317 20.9633 67.0317 20.8078Z" fill="#212121"/>
<path d="M72.2432 13.2502C72.2432 13.4057 72.1526 13.4575 72.0227 13.4575H70.7263C70.558 13.4575 70.5066 13.4057 70.5066 13.2502V12.187C70.5066 12.0446 70.558 11.9409 70.7263 11.9409H72.0227C72.1526 11.9409 72.2432 12.0448 72.2432 12.187V13.2502ZM72.2432 22.1692C72.2432 22.3119 72.1526 22.3641 72.0227 22.3641H70.7263C70.558 22.3641 70.5066 22.312 70.5066 22.1692V15.3376C70.5066 15.1688 70.558 15.091 70.7263 15.091H72.0227C72.1526 15.091 72.2432 15.1688 72.2432 15.3376V22.1692Z" fill="#212121"/>
<path d="M75.8801 20.4969V15.5838C75.8801 14.8578 76.1911 14.3001 76.8261 13.9242L78.3431 13.0816C78.6149 12.9132 78.9396 12.8354 79.2379 12.8354H82.4522C82.6077 12.8354 82.6863 12.9132 82.6863 13.0687V14.0152C82.6863 14.1578 82.6077 14.2225 82.4522 14.2225H77.9543C77.7987 14.2225 77.7338 14.3135 77.7338 14.4818V20.7303C77.7338 20.8986 77.7987 20.9764 77.9543 20.9764H82.5821C82.7247 20.9764 82.8153 21.0413 82.8153 21.1713C82.8153 21.3139 82.7504 21.4302 82.6076 21.508L81.4931 22.1301C81.1949 22.2993 80.8837 22.3642 80.5727 22.3642H77.7721C76.8518 22.3642 75.8801 21.7027 75.8801 20.4969Z" fill="#212121"/>
<path d="M85.397 22.4803C84.5799 22.4803 83.8928 21.8196 83.8928 20.9899V17.7225C83.8928 17.0225 84.191 16.4911 84.8005 16.154L86.1875 15.3502C86.473 15.1686 86.7583 15.0908 87.0823 15.0908H90.0512C90.1932 15.0908 90.2716 15.1686 90.2716 15.3373V22.169C90.2716 22.3117 90.1931 22.3639 90.0512 22.3639H88.7283C88.5856 22.3639 88.5342 22.3118 88.5342 22.1562V21.9486C88.5342 21.7802 88.4436 21.7153 88.2744 21.7674L85.7857 22.4408C85.6431 22.4803 85.5261 22.4803 85.397 22.4803ZM88.5344 20.8078V16.6987C88.5344 16.5169 88.4438 16.4263 88.2746 16.4263H85.8765C85.6953 16.4263 85.6304 16.5169 85.6304 16.6987V20.8078C85.6304 20.9633 85.6953 21.0282 85.8765 21.0282H88.2746C88.4438 21.0282 88.5344 20.9633 88.5344 20.8078Z" fill="#212121"/>
<path d="M96.7789 16.2316C96.7789 16.3614 96.6883 16.4264 96.5457 16.4264H93.9921C93.8237 16.4264 93.7588 16.517 93.7588 16.6853V22.1566C93.7588 22.3121 93.6553 22.3643 93.5254 22.3643H92.2161C92.0606 22.3643 92.0085 22.3122 92.0085 22.1694V15.3376C92.0085 15.1688 92.0606 15.0911 92.2161 15.0911H93.5254C93.6552 15.0911 93.7588 15.1688 93.7588 15.3376V15.5449C93.7588 15.6872 93.8237 15.7521 93.9921 15.7521C94.0313 15.7521 94.0827 15.7521 94.1347 15.7264L94.8859 15.2333C95.1585 15.0909 95.444 15.0132 95.7807 15.0132H96.5455C96.6882 15.0132 96.7788 15.0909 96.7788 15.2333L96.7789 16.2316Z" fill="#212121"/>
<path d="M97.0396 20.9898V17.7225C97.0396 17.0226 97.3379 16.4912 97.96 16.1541L99.3342 15.3503C99.6197 15.1686 99.905 15.0909 100.242 15.0909H101.435C101.603 15.0909 101.681 15.026 101.681 14.8705V12.187C101.681 12.0446 101.746 11.9409 101.875 11.9409H103.198C103.353 11.9409 103.418 12.0448 103.418 12.187V22.1692C103.418 22.3119 103.353 22.3641 103.198 22.3641H101.875C101.746 22.3641 101.681 22.312 101.681 22.1564V21.9488C101.681 21.7805 101.603 21.7155 101.435 21.7676L98.9326 22.441C98.7899 22.4802 98.6737 22.4802 98.5437 22.4802C97.8693 22.5059 97.0396 21.8838 97.0396 20.9898ZM101.681 20.8079V16.6988C101.681 16.517 101.603 16.4264 101.421 16.4264H99.0231C98.8419 16.4264 98.777 16.517 98.777 16.6988V20.8079C98.777 20.9634 98.8419 21.0283 99.0231 21.0283H101.421C101.603 21.0283 101.681 20.9634 101.681 20.8079Z" fill="#212121"/>
</g>
<defs>
<clipPath id="clip0_2283_15974">
<rect width="100.509" height="20" fill="white" transform="translate(12 6)"/>
</clipPath>
</defs>
</svg>
