<svg width="48" height="32" viewBox="0 0 48 32" fill="none" xmlns="http://www.w3.org/2000/svg">
<rect width="48" height="32" rx="8" fill="white"/>
<g clip-path="url(#clip0_2283_16015)">
<path d="M33.7235 27.9744H14.2508C13.0072 27.9744 12 26.9663 12 25.7235V6.25084C12 5.00718 13.0072 4 14.2508 4H33.7235C34.9663 4 35.9744 5.00718 35.9744 6.25084V25.7235C35.9744 26.9663 34.9663 27.9744 33.7235 27.9744Z" fill="#FFE300"/>
<path d="M24.7559 19.2841H23.514V12.6906H24.7559V19.2841ZM28.0023 15.9874C29.0733 15.2815 29.7802 14.0693 29.7802 12.6907C29.7802 10.5118 28.0131 8.74561 25.8342 8.74561H19.221C19.0942 8.74561 18.9926 8.84723 18.9926 8.97402V23.001C18.9926 23.1277 19.0942 23.2303 19.221 23.2303H25.8342C28.0131 23.2303 29.7802 21.4641 29.7802 19.2844C29.7802 17.9058 29.0733 16.6925 28.0023 15.9874Z" fill="#1C1C1C"/>
</g>
<defs>
<clipPath id="clip0_2283_16015">
<rect width="24" height="24" fill="white" transform="translate(12 4)"/>
</clipPath>
</defs>
</svg>
