<svg width="86" height="32" viewBox="0 0 86 32" fill="none" xmlns="http://www.w3.org/2000/svg">
<g clip-path="url(#clip0_2283_15964)">
<path d="M39.6227 16.263L39.3801 16.1082C38.5521 15.2819 37.3991 14.9237 35.8575 15.0138C34.5741 15.0923 33.5559 15.6014 32.7788 16.074C32.7788 16.0624 32.7777 16.0508 32.7777 16.0392C32.7777 15.6368 32.823 15.2012 32.8683 14.7778C32.9126 14.3478 32.959 13.91 32.959 13.496C32.959 13.0732 32.9115 12.6725 32.7655 12.3298C32.7291 12.2419 32.6478 12.1894 32.5455 12.1894C32.131 12.1988 31.3212 12.4823 31.125 12.6548C31.125 12.6559 31.0184 12.8886 31.0184 12.8886C31.0117 13.3479 30.9106 14.6297 30.8078 14.7856C30.8122 14.78 30.7536 14.9403 30.7536 14.9403C30.5789 16.7715 30.5756 18.3816 30.7365 19.764C30.7547 19.9022 31.0217 20.1095 31.2267 20.1846C31.4522 20.2681 32.1575 20.0791 32.5643 19.9265C32.5588 19.9282 32.7163 19.9022 32.7163 19.9022C32.8446 19.8884 32.9203 19.78 32.9148 19.6336C32.9126 19.6302 32.9247 19.2356 32.9247 19.2356C33.2182 18.0428 34.406 16.619 35.8116 16.4051C36.6065 16.279 37.2333 16.4836 37.7291 17.023C37.7959 17.1203 37.9407 17.9787 37.4173 18.9653C37.0276 19.6955 36.2483 20.3118 35.2224 20.6959C34.2518 21.0651 33.1839 21.2138 31.8651 21.1685C31.8099 21.1331 30.6303 20.3333 30.6303 20.3333C29.584 19.5987 28.2845 18.6851 27.1067 18.2379C26.8994 18.1583 26.5291 17.8505 26.3058 17.6658L26.1836 17.5658C25.5043 17.0214 24.2115 16.1585 23.1729 15.4676C23.1729 15.4676 22.7042 15.1531 22.6135 15.0923C22.6146 15.0536 22.6146 14.9752 22.6146 14.9752C22.645 14.942 23.2978 14.5507 23.2978 14.5507C24.2109 14.0162 24.6332 13.7542 24.7228 13.6188C24.7045 13.6409 24.8438 13.5474 24.8438 13.5474C24.8526 13.5436 27.1089 12.2662 27.1089 12.2662C29.2833 11.0723 31.7457 9.71647 33.0391 8.37721C33.0413 8.37555 33.1027 8.17215 33.1027 8.17215L33.1292 7.98974C33.2155 7.70288 33.2199 7.484 33.1475 7.22919C33.1292 7.15623 33.0623 7.07221 32.9728 7.05618C31.9624 6.95503 30.6602 7.56082 29.474 8.67347C29.2065 8.92386 28.9815 9.04712 28.7444 9.1759L28.5626 9.27761C27.2554 10.021 24.3104 11.8489 22.7677 12.8355C22.8694 11.1773 23.1757 8.81884 23.5537 6.85278L23.5117 6.61787C23.5073 6.61013 23.352 6.3205 23.352 6.3205L23.2315 6.1077L23.1967 6.0983C22.8888 5.94298 22.6373 6.00599 22.4527 6.05187L22.1448 6.16573L21.7336 6.31497C21.6529 6.331 21.5954 6.3813 21.5639 6.45979C20.8277 8.23958 20.2136 11.1668 20.0677 13.5088C18.5963 12.573 17.236 11.8998 16.5689 11.5748L16.5506 11.5643L16.4716 11.5471C16.2317 11.5162 15.9393 11.3398 15.6585 11.1696C15.6281 11.1514 15.0981 10.8065 15.0981 10.8065L14.2435 10.2587C14.2496 10.2642 14.0175 10.2073 14.0175 10.2073C13.6505 10.2709 12.9457 10.7446 12.7362 11.0673C12.7092 11.1105 12.6975 11.1563 12.6975 11.2044C12.6975 11.273 12.7191 11.3409 12.7362 11.4078L12.7738 11.5819L12.8136 11.6864C13.2237 12.1065 14.2579 12.8062 15.2716 13.3518L16.4473 13.9747L18.247 14.9575C18.247 14.9658 18.5537 15.2012 18.5537 15.2012L18.7654 15.3228C18.7654 15.3228 18.7903 15.3372 18.8041 15.3466C18.3249 15.6677 15.5308 17.5326 15.5308 17.5326L13.8102 18.6729C13.6471 18.7835 12.9684 19.0875 12.818 19.1477C12.4455 19.2997 12.1625 19.533 12.0464 19.7861L12 19.8862L12.0464 19.9519L12.178 20.052C12.1713 20.052 12.3537 20.167 12.3537 20.167L12.5439 20.2968C12.5483 20.2985 12.723 20.3256 12.723 20.3256C13.0253 20.3372 13.473 20.1647 14.311 19.7977C15.0809 19.4572 17.1708 18.1959 18.0646 17.6576L18.4454 17.4293C18.6029 17.442 18.7759 17.3088 18.9312 17.1922C19.1103 17.049 19.5 16.8097 19.7377 16.7046C19.7454 16.7024 19.8803 16.6267 20.0085 16.5554C20.0074 16.5947 20.0063 16.6577 20.0063 16.6577C20.0461 19.3915 20.2025 21.3785 20.5015 22.9107L20.506 22.9367L20.5353 22.9986C20.6823 23.2142 20.8492 23.8625 20.9985 24.4335L21.3384 25.5743C21.3461 25.5881 21.4346 25.6815 21.4346 25.6815C21.6291 25.8136 22.2216 26.0408 22.6168 25.9938L22.7152 25.9822L22.7782 25.8429C22.812 25.6721 22.8236 25.5047 22.8236 25.3201C22.8236 25.1117 22.8086 24.8823 22.7899 24.6004L22.7628 24.1892C22.6373 22.2811 22.5124 19.5258 22.5124 17.694C22.5124 17.6426 22.5124 17.5962 22.5124 17.5481C22.8374 17.751 24.2546 18.6447 24.2546 18.6447C26.6684 20.2106 30.3142 22.5758 32.5174 23.2009C32.6318 23.2357 32.7528 23.2092 32.8368 23.1279C32.8402 23.1235 33.1757 22.9102 33.1757 22.9102L33.2392 22.8842C33.3658 22.8239 33.4498 22.6111 33.4647 22.3801C35.3214 22.2867 37.9115 21.5714 39.2977 19.8292C39.8344 19.1532 40.0748 18.3264 40.0748 17.6183C40.0759 17.039 39.9151 16.5383 39.6227 16.263Z" fill="#FCAF16"/>
<path d="M46.4517 8.77783H48.6184V14.8507L55.9084 8.77783H58.9766L51.271 14.9054L59.6156 22.3452H56.5512L48.6184 15.0756V22.3452H46.4517V8.77783Z" fill="#776C61"/>
<path d="M61.1262 8.80566H67.7954C70.967 8.80566 72.6263 9.86027 72.6263 12.1646C72.6263 13.804 71.4821 14.9316 69.9599 15.2345V15.292C72.1426 15.5506 73.1757 16.985 73.1757 18.5984C73.1757 20.623 71.6911 22.3752 68.0066 22.3752H61.1262V8.80566ZM63.2873 14.522H67.6887C69.322 14.522 70.5303 13.9007 70.5303 12.4531C70.5303 11.1924 69.9356 10.3517 67.4383 10.3517H63.2873V14.522ZM63.2873 20.8353H67.5528C70.202 20.8353 70.9045 19.8 70.9045 18.4867C70.9045 16.9264 69.825 16.063 67.4383 16.063H63.2873V20.8353Z" fill="#776C61"/>
</g>
<defs>
<clipPath id="clip0_2283_15964">
<rect width="61.1762" height="20" fill="white" transform="translate(12 6)"/>
</clipPath>
</defs>
</svg>
