<svg width="41" height="32" viewBox="0 0 41 32" fill="none" xmlns="http://www.w3.org/2000/svg">
<rect width="40.1913" height="32" rx="8" fill="white"/>
<g clip-path="url(#clip0_2283_16009)">
<path d="M24.0396 6L20.0957 7.97972L16.1539 6L20.0957 13.4978L24.0396 6Z" fill="#FDB811"/>
<path d="M25.4193 11.7945L25.359 11.7415L28.1736 10.5593V6.604L23.2846 8.68667C23.2846 8.68667 20.6363 13.7036 20.576 13.819C22.6504 14.0664 24.2069 15.806 24.2069 17.9001C24.2069 20.1689 22.3644 22.0165 20.0957 22.0165C17.8269 22.0165 15.9823 20.1689 15.9823 17.9001C15.9823 15.806 17.5389 14.0664 19.6132 13.819C19.5529 13.7036 16.9077 8.68667 16.9077 8.68667L12.026 6.604V10.5593L14.8375 11.7415L14.7751 11.7945C13.0117 13.3365 12 15.5616 12 17.9001C12 22.3659 15.6319 25.9999 20.0957 25.9999C24.5594 25.9999 28.1913 22.3659 28.1913 17.9001C28.1913 15.5637 27.1827 13.3386 25.4193 11.7945Z" fill="#FDB811"/>
</g>
<defs>
<clipPath id="clip0_2283_16009">
<rect width="16.1913" height="20" fill="white" transform="translate(12 6)"/>
</clipPath>
</defs>
</svg>
