<svg width="70" height="32" viewBox="0 0 70 32" fill="none" xmlns="http://www.w3.org/2000/svg">
<rect width="69.5026" height="32" rx="8" fill="white"/>
<g clip-path="url(#clip0_2283_15992)">
<mask id="mask0_2283_15992" style="mask-type:luminance" maskUnits="userSpaceOnUse" x="12" y="6" width="46" height="20">
<path d="M57.4286 6H12V25.9365H57.4286V6Z" fill="white"/>
</mask>
<g mask="url(#mask0_2283_15992)">
<path d="M16.5608 8.1164H18.1587C18.1587 8.1164 17.9259 6 15.3227 6C12.7196 6 12.6243 7.79894 12.6243 8.2963C12.6243 8.79365 12.9524 9.78836 14.3175 10.2646C15.6825 10.7407 16.7619 10.9841 16.7196 11.9788C16.6772 12.9735 13.9894 12.9418 13.9894 11.873H12.4233C12.4233 11.873 12.6878 14.1164 15.291 14.1164C17.8095 14.1164 18.328 12.5185 18.328 11.545C18.328 10.5714 17.3122 9.83069 16.2116 9.51323C15.1111 9.19577 14.2011 8.86773 14.2011 7.91534C14.2011 7.46032 14.7196 7.06878 15.3757 7.06878C16.0317 7.06878 16.5608 7.44974 16.5608 8.1164Z" fill="black"/>
<path d="M23.0582 8.11626V8.61361C23.0582 8.61361 22.8254 7.92578 21.1322 7.92578C20.4444 7.92578 18.7513 8.66651 18.7513 10.9311C18.7513 13.185 20.2433 14.1162 21.0687 14.1162C21.8941 14.1162 22.7301 13.9469 23.0582 13.4284V13.8411H24.4656V8.11626H23.0582ZM21.5873 13.0792C20.7301 13.0792 20.0423 12.148 20.0423 11.0051C20.0423 9.86228 20.7301 8.93107 21.5873 8.93107C22.4444 8.93107 23.1323 9.86228 23.1323 11.0051C23.1217 12.1586 22.4338 13.0792 21.5873 13.0792Z" fill="black"/>
<path d="M23.5344 19.9366V20.4339C23.5344 20.4339 23.3016 19.7461 21.6084 19.7461C20.9206 19.7461 19.2275 20.4868 19.2275 22.7514C19.2275 25.0054 20.7195 25.9366 21.5449 25.9366C22.3703 25.9366 23.2063 25.7673 23.5344 25.2487V25.6614H24.9418V19.926H23.5344V19.9366ZM22.0529 24.9101C21.1957 24.9101 20.5079 23.9789 20.5079 22.836C20.5079 21.6932 21.1957 20.762 22.0529 20.762C22.91 20.762 23.5979 21.6932 23.5979 22.836C23.5979 23.9789 22.8995 24.9101 22.0529 24.9101Z" fill="black"/>
<path d="M25.4391 8.13742V13.82H26.8148V10.2856C26.8148 10.2856 26.8571 9.01571 27.9577 9.01571C29.1746 9.01571 29.1217 10.2432 29.1217 10.2432V13.82H30.4868V10.2856C30.4868 10.2856 30.4127 9.01571 31.7884 9.01571C32.9841 9.01571 32.8466 10.3385 32.8466 10.3385V13.82H34.2222V10.1163C34.2222 10.1163 34.3069 7.98926 31.9894 7.98926C30.7196 7.98926 30.127 8.80407 30.127 8.80407C30.127 8.80407 29.7672 7.98926 28.3598 7.98926C27.3227 7.98926 26.8042 8.59243 26.8042 8.59243V8.12682H25.4391V8.13742Z" fill="black"/>
<path d="M38.2751 9.74588H39.6296C39.6296 9.74588 39.5979 7.98926 37.2804 7.98926C34.963 7.98926 34.8677 9.2591 34.8677 9.92577C34.8677 10.5924 35.672 11.111 36.5079 11.3438C37.3545 11.5766 38.2646 11.7353 38.2646 12.4231C38.2646 12.9099 37.7249 13.0051 37.2487 13.0051C36.7725 13.0051 36.1482 12.5607 36.1482 12.1797H34.7302C34.7302 12.1797 34.7725 14.0528 37.2698 14.0528C39.7672 14.0528 39.7143 12.3702 39.7143 12.0739C39.7143 11.7882 39.4497 10.9522 38.1693 10.5924C36.8889 10.2327 36.3069 10.2326 36.3069 9.54481C36.3069 8.82524 38.2751 8.73001 38.2751 9.74588Z" fill="black"/>
<path d="M40.2857 8.14827V12.1483C40.2857 12.1483 40.2857 14.053 42.2857 14.053C43.545 14.053 43.9577 13.3335 43.9577 13.3335V13.8202H45.3333V8.14827H43.9153V11.5133C43.9153 11.5133 44.0106 12.9737 42.6455 12.9737C41.7354 12.9737 41.6508 11.9261 41.6508 11.4922C41.6508 11.0583 41.6508 8.1377 41.6508 8.1377H40.2857V8.14827Z" fill="black"/>
<path d="M46.3598 8.14799V13.8305H47.6826V10.476C47.6826 10.476 47.6085 8.99455 49.0265 8.99455C49.9365 8.99455 50.0212 10.1374 50.0212 10.5501C50.0212 10.9628 50.0212 13.82 50.0212 13.82H51.3968V9.97868C51.3968 9.97868 51.5662 7.98926 49.3016 7.98926C48.2963 7.98926 47.6826 8.58185 47.6826 8.58185V8.13742H46.3598V8.14799Z" fill="black"/>
<path d="M56.0423 8.14799V8.59245C56.0423 8.59245 55.6931 7.92578 54.2751 7.92578C52.8571 7.92578 51.9788 9.15328 51.9788 10.9734C51.9788 12.7935 53.1428 13.7247 54.2328 13.7247C55.6508 13.7247 56.0423 13.0157 56.0423 13.0157C56.0423 13.0157 56.254 14.7935 54.8148 14.7935C53.8518 14.7935 53.5132 14.0528 53.5132 14.0528H52.1693C52.1693 14.0528 52.4762 15.9681 54.7619 15.9681C57.0476 15.9681 57.4074 13.9681 57.4074 13.0369C57.4074 12.1057 57.4074 8.13742 57.4074 8.13742H56.0423V8.14799ZM54.6984 12.6453C53.9047 12.6453 53.2592 11.8305 53.2592 10.8252C53.2592 9.81995 53.9047 9.00515 54.6984 9.00515C55.492 9.00515 56.1376 9.81995 56.1376 10.8252C56.1376 11.8305 55.492 12.6453 54.6984 12.6453Z" fill="black"/>
<path d="M18.7513 20.5713H17.2275C17.2275 20.5713 16.9947 19.0369 15.5026 19.0369C14.0106 19.0369 13.5132 20.7724 13.5132 21.7036C13.5132 22.6242 13.9577 24.656 15.3651 24.656C16.7725 24.656 17.2381 23.2803 17.2381 23.0793H18.7513C18.7513 23.0793 18.4868 25.8941 15.3439 25.8941C12.2011 25.8941 12 22.6771 12 21.566C12 20.4549 12.6455 17.7671 15.4497 17.7671C18.254 17.7671 18.7513 20.2962 18.7513 20.5713Z" fill="black"/>
<path d="M25.9259 19.9366V25.7038H27.2804V22.6985C27.2804 22.6985 27.3333 21.0371 29.1957 21.0371V19.9366C29.1957 19.9366 28.0317 19.672 27.2804 20.6244V19.9048L25.9259 19.9366Z" fill="black"/>
<path d="M33.7143 18.0952V20.4444C33.7143 20.4444 33.4285 19.746 31.9788 19.746C30.5291 19.746 29.3651 20.9418 29.3651 22.7936C29.3651 24.6455 30.582 25.9365 31.9047 25.9365C33.2275 25.9365 33.7143 25.2169 33.7143 25.2169V25.7037H35.0793V18.0952H33.7143ZM32.2116 24.8042C31.3651 24.8042 30.6878 23.9047 30.6878 22.7936C30.6878 21.6825 31.3756 20.783 32.2116 20.783C33.0582 20.783 33.7354 21.6825 33.7354 22.7936C33.7354 23.9047 33.0582 24.8042 32.2116 24.8042Z" fill="black"/>
</g>
</g>
<defs>
<clipPath id="clip0_2283_15992">
<rect width="45.5026" height="20" fill="white" transform="translate(12 6)"/>
</clipPath>
</defs>
</svg>
