<svg width="45" height="32" viewBox="0 0 45 32" fill="none" xmlns="http://www.w3.org/2000/svg">
<rect width="44.0259" height="32" rx="8" fill="white"/>
<g clip-path="url(#clip0_2283_15971)">
<path fill-rule="evenodd" clip-rule="evenodd" d="M32.0233 15.9987C32.0233 20.6231 28.8804 24.5133 24.6167 25.6561C23.916 25.8397 23.1946 25.956 22.4732 25.9832C22.256 25.997 22.0384 26.0013 21.8203 25.9961C16.7537 25.894 12.6115 22.0375 12.0737 17.1002C12.0513 16.8821 12.0358 16.6667 12.0272 16.4538C12.0177 16.309 12.0129 16.1638 12.0129 16.0181V15.9987C12.0129 10.4758 16.4952 6 22.0181 6C26.7318 6 30.6826 9.25792 31.744 13.638C31.894 14.2637 31.9897 14.9101 32.0168 15.5566C32.0211 15.7014 32.0233 15.8462 32.0233 15.991V15.9987ZM26.2146 10.0957C26.3025 10.0271 26.4254 10.0543 26.5689 10.1228L26.7046 10.1913C26.8817 10.2793 27.0782 10.3814 27.2347 10.3943C27.8061 10.4693 27.6975 9.59276 26.6697 9.08209C26.0647 8.78216 25.4661 8.65417 24.6632 8.68778C24.3711 8.70071 24.0853 8.68778 23.841 8.64641C23.616 8.6128 23.3575 8.54428 23.1274 8.47705C22.9696 8.43568 22.821 8.3956 22.6917 8.36846C22.4538 8.31286 22.3168 8.32062 22.2625 8.40207C22.2082 8.47705 22.2288 8.58565 22.3723 8.76923C22.4034 8.80543 22.4348 8.84378 22.4667 8.88429C22.7524 9.22431 23.0924 9.6393 22.8817 10.49C22.3038 12.8507 23.0989 13.9315 23.9095 14.1086C24.3581 14.2107 24.7796 14.1021 25.0317 13.8358C25.276 13.585 25.3782 13.1558 25.1467 12.7951C24.786 12.2379 24.6632 11.7557 24.9839 11.5579C25.2696 11.3743 25.6846 11.5436 25.9974 12.2443C26.5003 13.3743 27.1597 13.6729 27.8126 12.8701C28.3504 12.2107 28.3297 11.2657 27.3032 10.98C26.7175 10.8171 26.2831 10.68 26.1539 10.4085C26.0918 10.2857 26.1332 10.1564 26.2146 10.0957ZM20.318 14.0814C18.5016 12.7886 18.2159 11.8229 18.1552 11.1493C18.0595 9.9457 18.9709 8.8649 19.8966 8.35423C19.9703 8.3064 20.0931 8.21202 20.0388 8.07498C19.9845 7.93277 19.8216 7.95992 19.7531 7.97285C17.6781 8.415 15.6652 10.2379 15.978 12.6736C16.1009 13.6393 16.7201 15.2721 19.8966 17.1416C20.4809 17.4816 21.0188 17.7815 21.6173 18.1151C22.1409 18.4008 22.7124 18.7136 23.3924 19.108C25.3846 20.2431 26.3025 21.713 25.0653 23.3109C24.9761 23.4195 24.8946 23.5359 24.9296 23.638C24.9632 23.7531 25.1196 23.7738 25.2618 23.7117C26.2082 23.2773 26.9903 22.6167 27.3639 22.0116C28.0168 20.9438 28.3439 18.8559 25.4803 17.1351C24.3232 16.4486 23.4195 15.9315 22.6775 15.51C21.6639 14.9386 20.9502 14.5365 20.318 14.0814ZM20.5146 22.808C20.4124 22.7059 20.3995 22.5895 20.4745 22.4745C20.936 21.8151 21.0653 21.5566 21.1946 21.2437C21.4674 20.5908 21.1946 20.5223 20.7731 20.6451C20.3103 20.7809 19.9509 20.9101 19.6652 21.0187C19.2709 21.1687 19.0252 21.2566 18.883 21.1894C18.7395 21.1144 18.7124 20.8688 18.6581 20.4615C18.6581 20.4477 18.6559 20.434 18.6516 20.4202C18.6167 20.1138 18.5495 19.7673 18.468 19.4273C18.2974 18.7408 18.0052 18.8701 17.7673 19.148C17.5359 19.4273 17.3859 19.7466 17.2773 19.9922C17.236 20.0737 17.2023 20.1487 17.1687 20.2094C17.108 20.3323 17.0252 20.3801 16.9373 20.3594C16.7266 20.3116 16.4473 19.9922 16.1487 19.6044C16.0052 19.4208 15.8837 19.2502 15.788 19.1002C15.5773 18.8016 15.4415 18.6037 15.2851 18.5844C14.8016 18.5301 15.0123 19.6794 15.4687 20.6244C15.9173 21.5488 16.6038 22.468 17.7608 23.1959C19.0795 24.0323 21.0317 24.331 22.2288 24.1616C22.6102 24.1138 22.6852 23.7324 22.3038 23.6238C22.0659 23.5553 21.6988 23.4402 21.3924 23.3109C21.011 23.1416 20.6645 22.9567 20.5146 22.808Z" fill="#0046FF"/>
</g>
<defs>
<clipPath id="clip0_2283_15971">
<rect width="20.0259" height="20" fill="white" transform="translate(12 6)"/>
</clipPath>
</defs>
</svg>
