<svg width="32" height="32" viewBox="0 0 32 32" fill="none" xmlns="http://www.w3.org/2000/svg">
<g clip-path="url(#clip0_3785_4303)">
<path d="M28 16C28 9.37264 22.6274 4 16 4C9.37264 4 4 9.37264 4 16C4 21.6275 7.87456 26.3498 13.1013 27.6467V19.6672H10.6269V16H13.1013V14.4198C13.1013 10.3355 14.9498 8.4424 18.9597 8.4424C19.72 8.4424 21.0318 8.59168 21.5685 8.74048V12.0645C21.2853 12.0347 20.7933 12.0198 20.1822 12.0198C18.2147 12.0198 17.4544 12.7653 17.4544 14.703V16H21.3741L20.7006 19.6672H17.4544V27.9122C23.3963 27.1946 28.0005 22.1354 28.0005 16H28Z" fill="#0866FF"/>
<path d="M20.7002 19.6672L21.3736 16H17.4539V14.703C17.4539 12.7653 18.2142 12.0198 20.1818 12.0198C20.7928 12.0198 21.2848 12.0347 21.568 12.0645V8.74046C21.0314 8.59118 19.7195 8.44238 18.9592 8.44238C14.9493 8.44238 13.1008 10.3355 13.1008 14.4198V16H10.6264V19.6672H13.1008V27.6467C14.0291 27.8771 15.0002 28 15.9995 28C16.4915 28 16.9768 27.9697 17.4534 27.9121V19.6672H20.6997H20.7002Z" fill="white"/>
</g>
<defs>
<clipPath id="clip0_3785_4303">
<rect width="24" height="24" fill="white" transform="translate(4 4)"/>
</clipPath>
</defs>
</svg>
