<svg width="32" height="32" viewBox="0 0 32 32" fill="none" xmlns="http://www.w3.org/2000/svg">
<g clip-path="url(#clip0_3785_4317)">
<path d="M12.0001 28C14.2081 28 16.0001 26.208 16.0001 24V19.9999H12.0001C9.79205 19.9999 8 21.792 8 24C8 26.208 9.79205 28 12.0001 28Z" fill="#0ACF83"/>
<path d="M8 16C8 13.792 9.79205 11.9999 12.0001 11.9999H16.0001V19.9999H12.0001C9.79205 20 8 18.208 8 16Z" fill="#A259FF"/>
<path d="M8 8.00003C8 5.79203 9.79205 4 12.0001 4H16.0001V12H12.0001C9.79205 12 8 10.208 8 8.00003Z" fill="#F24E1E"/>
<path d="M15.9999 4H19.9999C22.208 4 24 5.79203 24 8.00003C24 10.208 22.208 12 19.9999 12H15.9999V4Z" fill="#FF7262"/>
<path d="M24 16C24 18.208 22.208 20 19.9999 20C17.7919 20 15.9999 18.208 15.9999 16C15.9999 13.792 17.7919 11.9999 19.9999 11.9999C22.208 11.9999 24 13.792 24 16Z" fill="#1ABCFE"/>
</g>
<defs>
<clipPath id="clip0_3785_4317">
<rect width="24" height="24" fill="white" transform="translate(4 4)"/>
</clipPath>
</defs>
</svg>
