<svg width="32" height="32" viewBox="0 0 32 32" fill="none" xmlns="http://www.w3.org/2000/svg">
<g clip-path="url(#clip0_3785_4376)">
<path d="M16 28C22.6274 28 28 22.6274 28 16C28 9.37258 22.6274 4 16 4C9.37258 4 4 9.37258 4 16C4 22.6274 9.37258 28 16 28Z" fill="white"/>
<path d="M16 4C9.37284 4 4 9.37284 4 16C4 21.0864 7.16049 25.4321 11.6247 27.1802C11.516 26.2321 11.4272 24.7704 11.6642 23.7333C11.8815 22.7951 13.0667 17.7679 13.0667 17.7679C13.0667 17.7679 12.7111 17.0469 12.7111 15.9901C12.7111 14.321 13.679 13.0765 14.884 13.0765C15.9111 13.0765 16.4049 13.8469 16.4049 14.7654C16.4049 15.7926 15.7531 17.3333 15.4074 18.7654C15.121 19.9605 16.0099 20.9383 17.1852 20.9383C19.3185 20.9383 20.958 18.6864 20.958 15.4469C20.958 12.5728 18.8938 10.5679 15.9407 10.5679C12.5235 10.5679 10.5185 13.1259 10.5185 15.7728C10.5185 16.8 10.9136 17.9062 11.4074 18.5086C11.5062 18.6272 11.516 18.7358 11.4864 18.8543C11.3975 19.2296 11.1901 20.0494 11.1506 20.2173C11.1012 20.4346 10.9728 20.484 10.7457 20.3753C9.24444 19.6741 8.30617 17.4914 8.30617 15.7235C8.30617 11.9407 11.0519 8.4642 16.237 8.4642C20.3951 8.4642 23.6346 11.4272 23.6346 15.3975C23.6346 19.5358 21.0272 22.8642 17.4123 22.8642C16.1975 22.8642 15.0519 22.2321 14.6667 21.4815C14.6667 21.4815 14.0642 23.7728 13.916 24.3358C13.6494 25.3827 12.9185 26.6864 12.4247 27.4864C13.5506 27.8321 14.7358 28.0198 15.9802 28.0198C22.6074 28.0198 27.9802 22.6469 27.9802 16.0198C28 9.37284 22.6272 4 16 4Z" fill="#E60019"/>
</g>
<defs>
<clipPath id="clip0_3785_4376">
<rect width="24" height="24" fill="white" transform="translate(4 4)"/>
</clipPath>
</defs>
</svg>
