<svg width="32" height="32" viewBox="0 0 32 32" fill="none" xmlns="http://www.w3.org/2000/svg">
<path d="M4 28L5.687 21.837C4.646 20.033 4.099 17.988 4.1 15.891C4.103 9.335 9.438 4 15.993 4C19.174 4.001 22.16 5.24 24.406 7.488C26.651 9.736 27.887 12.724 27.886 15.902C27.883 22.459 22.548 27.794 15.993 27.794C14.003 27.793 12.042 27.294 10.305 26.346L4 28ZM10.597 24.193C12.273 25.188 13.873 25.784 15.989 25.785C21.437 25.785 25.875 21.351 25.878 15.9C25.88 10.438 21.463 6.01 15.997 6.008C10.545 6.008 6.11 10.442 6.108 15.892C6.107 18.117 6.759 19.783 7.854 21.526L6.855 25.174L10.597 24.193ZM21.984 18.729C21.91 18.605 21.712 18.531 21.414 18.382C21.117 18.233 19.656 17.514 19.383 17.415C19.111 17.316 18.913 17.266 18.714 17.564C18.516 17.861 17.946 18.531 17.773 18.729C17.6 18.927 17.426 18.952 17.129 18.803C16.832 18.654 15.874 18.341 14.739 17.328C13.856 16.54 13.259 15.567 13.086 15.269C12.913 14.972 13.068 14.811 13.216 14.663C13.35 14.53 13.513 14.316 13.662 14.142C13.813 13.97 13.862 13.846 13.962 13.647C14.061 13.449 14.012 13.275 13.937 13.126C13.862 12.978 13.268 11.515 13.021 10.92C12.779 10.341 12.534 10.419 12.352 10.41L11.782 10.4C11.584 10.4 11.262 10.474 10.99 10.772C10.718 11.07 9.95 11.788 9.95 13.251C9.95 14.714 11.015 16.127 11.163 16.325C11.312 16.523 13.258 19.525 16.239 20.812C16.948 21.118 17.502 21.301 17.933 21.438C18.645 21.664 19.293 21.632 19.805 21.556C20.376 21.471 21.563 20.837 21.811 20.143C22.059 19.448 22.059 18.853 21.984 18.729Z" fill="#25D366"/>
</svg>
