<svg width="32" height="32" viewBox="0 0 32 32" fill="none" xmlns="http://www.w3.org/2000/svg">
<g clip-path="url(#clip0_3785_4394)">
<path d="M27.522 10.1855C27.3863 9.67489 27.1189 9.20889 26.7465 8.83413C26.3741 8.45936 25.9099 8.18897 25.4002 8.05002C23.5238 7.54547 16.0238 7.54547 16.0238 7.54547C16.0238 7.54547 8.5238 7.54547 6.64744 8.05002C6.13773 8.18897 5.67346 8.45936 5.30109 8.83413C4.92872 9.20889 4.66131 9.67489 4.52562 10.1855C4.0238 12.07 4.0238 16 4.0238 16C4.0238 16 4.0238 19.93 4.52562 21.8146C4.66131 22.3251 4.92872 22.7911 5.30109 23.1659C5.67346 23.5407 6.13773 23.8111 6.64744 23.95C8.5238 24.4546 16.0238 24.4546 16.0238 24.4546C16.0238 24.4546 23.5238 24.4546 25.4002 23.95C25.9099 23.8111 26.3741 23.5407 26.7465 23.1659C27.1189 22.7911 27.3863 22.3251 27.522 21.8146C28.0238 19.93 28.0238 16 28.0238 16C28.0238 16 28.0238 12.07 27.522 10.1855Z" fill="#FF0302"/>
<path d="M13.5693 19.5687V12.4314L19.8421 16L13.5693 19.5687Z" fill="#FEFEFE"/>
</g>
<defs>
<clipPath id="clip0_3785_4394">
<rect width="24" height="24" fill="white" transform="translate(4 4)"/>
</clipPath>
</defs>
</svg>
