<svg xmlns="http://www.w3.org/2000/svg" style="display:none">

  <symbol id="icon-light-arrow-level-left" viewBox="0 0 32 32">
    <path d="M10.7277 22.4833L5.51698 17.2763C5.27217 17.0317 5.27217 16.6351 5.51698 16.3905L10.7277 11.1835C10.9725 10.9389 11.3693 10.9389 11.6141 11.1835L12.0573 11.6263C12.3021 11.871 12.3021 12.2675 12.0573 12.5121L8.67123 15.8959H24.7904V10.5846C24.7904 10.5026 24.8066 10.4213 24.838 10.3454C24.8694 10.2696 24.9155 10.2007 24.9736 10.1427L25.599 9.5177C25.993 9.12395 26.6667 9.4028 26.6667 9.95963V16.5209C26.6667 17.2112 26.1067 17.7709 25.4158 17.7709H8.67123L12.0573 21.1546C12.3021 21.3992 12.3021 21.7958 12.0573 22.0404L11.6141 22.4832C11.3693 22.7279 10.9725 22.7279 10.7277 22.4833Z" fill="currentColor"/>
  </symbol>
  <symbol id="icon-light-arrow-right" viewBox="0 0 32 32">
    <path d="M7.99995 14.1656C7.99995 13.9353 8.09025 13.7144 8.25098 13.5515C8.41172 13.3886 8.62972 13.2971 8.85703 13.2971H15.9999V8.35709C15.9998 8.29024 16.0194 8.22489 16.056 8.16929C16.0926 8.11369 16.1447 8.07036 16.2056 8.04477C16.2666 8.01918 16.3336 8.01249 16.3983 8.02555C16.463 8.0386 16.5224 8.07082 16.5691 8.11811L23.7498 15.3846C23.8296 15.4652 23.8929 15.561 23.9361 15.6665C23.9792 15.7719 24.0015 15.885 24.0015 15.9991C24.0015 16.1133 23.9792 16.2264 23.9361 16.3318C23.8929 16.4373 23.8296 16.533 23.7498 16.6137L16.5691 23.8793C16.5225 23.9265 16.4632 23.9587 16.3986 23.9718C16.3341 23.9849 16.2671 23.9783 16.2062 23.9529C16.1453 23.9275 16.0932 23.8843 16.0565 23.8289C16.0198 23.7735 16.0001 23.7083 15.9999 23.6416V18.7016H8.85703C8.74444 18.7016 8.63295 18.6791 8.52894 18.6354C8.42493 18.5918 8.33043 18.5277 8.25083 18.4471C8.17124 18.3664 8.10812 18.2706 8.06507 18.1651C8.02202 18.0597 7.9999 17.9467 7.99995 17.8326V14.1656ZM6.66663 14.1656V17.8326C6.66718 18.4212 6.89811 18.9855 7.30876 19.4017C7.71941 19.8179 8.27623 20.052 8.85703 20.0527H14.6666V23.6416C14.6666 25.1409 16.4582 25.9005 17.5111 24.8365L24.6903 17.5709C24.8941 17.3648 25.0558 17.12 25.1662 16.8504C25.2765 16.5809 25.3333 16.292 25.3333 16.0002C25.3333 15.7084 25.2765 15.4195 25.1662 15.15C25.0558 14.8804 24.8941 14.6356 24.6903 14.4295L17.5111 7.16262C16.4645 6.10326 14.6666 6.85228 14.6666 8.35709V11.946H8.85703C8.2763 11.9467 7.71955 12.1807 7.30891 12.5969C6.89827 13.013 6.66729 13.5772 6.66663 14.1656Z" fill="currentColor"/>
  </symbol>
  <symbol id="icon-light-box-full" viewBox="0 0 32 32">
    <path d="M29.2625 15.3255L27.1168 11.0424C27.0002 10.8091 26.7627 10.6675 26.5086 10.6675C26.4669 10.6675 26.6877 10.6383 24.1629 10.9591L25.2545 7.96762C25.5044 7.276 25.1503 6.50938 24.4587 6.2594L22.138 5.41362C21.4505 5.16363 20.6839 5.51778 20.4298 6.2094L18.6465 11.1133C18.5299 7.90513 15.9051 5.33446 12.6678 5.33446C9.53046 5.33446 6.98895 7.75097 6.7223 10.8174C5.49321 10.6591 5.54321 10.6675 5.49321 10.6675C5.23906 10.6675 5.00158 10.8133 4.88492 11.0424L2.73922 15.3255C2.54756 15.7088 2.75172 16.1671 3.16003 16.2838L5.33489 16.9046V23.0417C5.33489 23.6541 5.75153 24.1874 6.34316 24.3333L15.3509 26.5873C15.9176 26.7289 16.3925 26.6498 16.6425 26.5873L25.6586 24.3333C26.2502 24.1833 26.6669 23.65 26.6669 23.0417V16.9046L28.8376 16.2838C29.25 16.1671 29.45 15.7088 29.2625 15.3255ZM21.6839 6.6677L24.0004 7.50932L22.6755 11.1466L19.9256 11.4966L21.6839 6.6677ZM4.28495 15.2213L5.86819 12.0549L13.801 13.0673L11.297 17.2254L4.28495 15.2213ZM15.3343 25.2082L6.66814 23.0417V17.2879C11.8053 18.7544 11.4595 18.6669 11.597 18.6669C11.8303 18.6669 12.0553 18.5461 12.1803 18.3378L15.3343 13.1048V25.2082ZM16.0009 12.0007C12.0136 11.4924 9.55962 11.1799 8.03888 10.9841C8.21804 8.57592 10.2137 6.6677 12.6678 6.6677C15.2426 6.6677 17.3341 8.75924 17.3341 11.3341C17.3341 11.5049 17.3091 11.6716 17.2883 11.8382L16.0009 12.0007ZM25.3336 23.0417L16.6675 25.2082V13.1048L19.8215 18.3336C19.9465 18.542 20.1715 18.6628 20.4048 18.6628C20.5423 18.6628 20.1881 18.7503 25.3336 17.2837V23.0417ZM20.7048 17.2212L18.2007 13.0631L26.1336 12.0507L27.7168 15.2172L20.7048 17.2212Z" fill="currentColor"/>
  </symbol>
  <symbol id="icon-light-check" viewBox="0 0 32 32">
    <path d="M23.9922 9.14682L12.1828 20.8445L8.00771 16.709C7.81008 16.5132 7.48964 16.5132 7.29197 16.709L6.81485 17.1816C6.61722 17.3773 6.61722 17.6947 6.81485 17.8905L11.8249 22.8532C12.0225 23.0489 12.343 23.0489 12.5406 22.8532L25.1851 10.3284C25.3827 10.1327 25.3827 9.81526 25.1851 9.61946L24.7079 9.14682C24.5103 8.95106 24.1898 8.95106 23.9922 9.14682Z" fill="currentColor"/>
  </symbol>
  <symbol id="icon-light-comments" viewBox="0 0 32 32">
    <path d="M27.7391 23.7081C27.7183 23.6915 26.7978 22.7001 26.1604 21.4213C27.3059 20.2925 27.9932 18.8762 27.9932 17.3308C27.9932 13.9985 24.8067 11.2451 20.6537 10.7536C19.3458 8.3543 16.2592 6.6673 12.6644 6.6673C7.87831 6.6673 4.00028 9.64976 4.00028 13.332C4.00028 14.8732 4.68758 16.2895 5.83308 17.4225C5.19576 18.7013 4.27937 19.6926 4.2627 19.7093C4.00028 19.9884 3.9253 20.3966 4.07942 20.7507C4.22938 21.1047 4.57928 21.3338 4.9625 21.3338C7.19101 21.3338 8.99048 20.4924 10.1776 19.7176C10.5567 19.8051 10.9441 19.8718 11.344 19.9176C12.6561 22.3127 15.7385 23.9997 19.3333 23.9997C20.1997 23.9997 21.0328 23.8997 21.8242 23.7165C23.0114 24.4871 24.8067 25.3327 27.0394 25.3327C27.4226 25.3327 27.7683 25.1036 27.9224 24.7495C28.0724 24.3954 28.0016 23.9872 27.7391 23.7081ZM10.4734 18.4138L9.92354 18.2889L9.44868 18.5971C8.61143 19.1428 7.34513 19.7718 5.79559 19.9509C6.16215 19.4802 6.63701 18.8012 7.02439 18.0181L7.4576 17.1517L6.7703 16.4728C6.11216 15.8271 5.33322 14.7566 5.33322 13.332C5.33322 10.3912 8.62392 8.00024 12.6644 8.00024C16.7049 8.00024 19.9956 10.3912 19.9956 13.332C19.9956 16.2728 16.7049 18.6638 12.6644 18.6638C11.9271 18.6638 11.1898 18.5805 10.4734 18.4138ZM22.5448 22.596L22.07 22.2877L21.5201 22.4168C20.8037 22.5835 20.0664 22.6668 19.3291 22.6668C16.6174 22.6668 14.2473 21.5879 12.981 19.9884C17.6171 19.8551 21.3285 16.931 21.3285 13.332C21.3285 12.9363 21.2744 12.5531 21.1911 12.1782C24.3318 12.7822 26.6603 14.8607 26.6603 17.3308C26.6603 18.7554 25.8814 19.8259 25.2232 20.4716L24.5359 21.1505L24.965 22.0128C25.3565 22.8001 25.8314 23.479 26.1938 23.9456C24.6484 23.7706 23.3821 23.1375 22.5448 22.596Z" fill="currentColor"/>
  </symbol>
  <symbol id="icon-light-file-details" viewBox="0 0 32 32">
    <path d="M23.4125 9.41457L19.9167 5.91874C19.5417 5.54374 19.0333 5.33124 18.5042 5.33124H10C8.89583 5.3354 8 6.23124 8 7.3354V24.6687C8 25.7729 8.89583 26.6687 10 26.6687H22C23.1042 26.6687 24 25.7729 24 24.6687V10.8312C24 10.3021 23.7875 9.78957 23.4125 9.41457ZM22.4708 10.3604C22.5583 10.4479 22.6167 10.5521 22.6458 10.6687H18.6667V6.68957C18.7833 6.71874 18.8875 6.77707 18.975 6.86457L22.4708 10.3604ZM22 25.3354H10C9.63333 25.3354 9.33333 25.0354 9.33333 24.6687V7.3354C9.33333 6.96874 9.63333 6.66874 10 6.66874H17.3333V11.0021C17.3333 11.5562 17.7792 12.0021 18.3333 12.0021H22.6667V24.6687C22.6667 25.0354 22.3667 25.3354 22 25.3354ZM20 15.1687V15.5021C20 15.7771 19.775 16.0021 19.5 16.0021H12.5C12.225 16.0021 12 15.7771 12 15.5021V15.1687C12 14.8937 12.225 14.6687 12.5 14.6687H19.5C19.775 14.6687 20 14.8937 20 15.1687ZM20 17.8354V18.1687C20 18.4437 19.775 18.6687 19.5 18.6687H12.5C12.225 18.6687 12 18.4437 12 18.1687V17.8354C12 17.5604 12.225 17.3354 12.5 17.3354H19.5C19.775 17.3354 20 17.5604 20 17.8354ZM20 20.5021V20.8354C20 21.1104 19.775 21.3354 19.5 21.3354H12.5C12.225 21.3354 12 21.1104 12 20.8354V20.5021C12 20.2271 12.225 20.0021 12.5 20.0021H19.5C19.775 20.0021 20 20.2271 20 20.5021Z" fill="currentColor"/>
  </symbol>
  <symbol id="icon-light-home" viewBox="0 0 32 32">
    <path d="M26.5421 14.8809L16.8388 6.96321C16.6005 6.77102 16.3036 6.6662 15.9974 6.6662C15.6913 6.6662 15.3944 6.77102 15.1561 6.96321L5.45614 14.8809C5.38772 14.9366 5.3442 15.0172 5.33514 15.1051C5.32607 15.1929 5.35221 15.2807 5.4078 15.3492L5.82869 15.8664C5.88423 15.9345 5.96444 15.9779 6.05185 15.9872C6.13925 15.9965 6.22679 15.9709 6.29541 15.916L7.99812 14.525V24.6512C7.99812 24.8281 8.06837 24.9976 8.19341 25.1227C8.31845 25.2477 8.48804 25.318 8.66487 25.318H13.9989C14.1757 25.318 14.3453 25.2477 14.4703 25.1227C14.5954 24.9976 14.6656 24.8281 14.6656 24.6512V19.3172L17.3326 19.3297V24.6671C17.3326 24.8439 17.4029 25.0135 17.5279 25.1385C17.6529 25.2636 17.8225 25.3338 17.9994 25.3338L23.3333 25.3201C23.5102 25.3201 23.6798 25.2498 23.8048 25.1248C23.9298 24.9997 24.0001 24.8301 24.0001 24.6533V14.525L25.7028 15.916C25.7714 15.9717 25.8593 15.9979 25.9472 15.9889C26.0351 15.9798 26.1158 15.9362 26.1716 15.8676L26.5925 15.3505C26.6201 15.3164 26.6407 15.2771 26.6531 15.2351C26.6655 15.193 26.6695 15.1488 26.6648 15.1052C26.6601 15.0616 26.6469 15.0193 26.6258 14.9808C26.6047 14.9423 26.5763 14.9083 26.5421 14.8809ZM22.662 23.9899H22.6662L18.6657 24.0024V18.6613C18.6651 18.485 18.595 18.3161 18.4705 18.1912C18.3461 18.0663 18.1773 17.9957 18.001 17.9946L14.0005 17.9833C13.9128 17.983 13.8259 18.0001 13.7447 18.0335C13.6636 18.0669 13.5899 18.1159 13.5277 18.1779C13.4656 18.2398 13.4163 18.3134 13.3826 18.3944C13.349 18.4755 13.3317 18.5623 13.3317 18.6501V23.9899H9.33162V13.4369L15.9991 7.99584L22.6666 13.4369L22.662 23.9899Z" fill="currentColor"/>
  </symbol>
  <symbol id="icon-light-image" viewBox="0 0 32 32">
    <path d="M24.6667 8H7.33337C6.22879 8 5.33337 8.89542 5.33337 10V22C5.33337 23.1046 6.22879 24 7.33337 24H24.6667C25.7713 24 26.6667 23.1046 26.6667 22V10C26.6667 8.89542 25.7713 8 24.6667 8ZM25.3334 22C25.3334 22.3676 25.0343 22.6667 24.6667 22.6667H7.33337C6.96579 22.6667 6.66671 22.3676 6.66671 22V10C6.66671 9.63242 6.96579 9.33333 7.33337 9.33333H24.6667C25.0343 9.33333 25.3334 9.63242 25.3334 10V22ZM10 15C11.2887 15 12.3334 13.9553 12.3334 12.6667C12.3334 11.378 11.2887 10.3333 10 10.3333C8.71137 10.3333 7.66671 11.378 7.66671 12.6667C7.66671 13.9553 8.71137 15 10 15ZM10 11.6667C10.5515 11.6667 11 12.1153 11 12.6667C11 13.2181 10.5515 13.6667 10 13.6667C9.44862 13.6667 9.00004 13.2181 9.00004 12.6667C9.00004 12.1153 9.44862 11.6667 10 11.6667ZM18.6262 12.6262L14.6667 16.5858L13.3738 15.2929C12.9833 14.9024 12.3501 14.9024 11.9596 15.2929L8.29296 18.9596C8.20009 19.0524 8.12643 19.1627 8.07617 19.284C8.02591 19.4053 8.00004 19.5353 8.00004 19.6667V20.8333C8.00004 21.1095 8.22392 21.3333 8.50004 21.3333H23.5C23.7762 21.3333 24 21.1095 24 20.8333V17C24 16.7348 23.8947 16.4804 23.7072 16.2929L20.0405 12.6262C19.65 12.2357 19.0168 12.2357 18.6262 12.6262ZM22.6667 20H9.33337V19.8048L12.6667 16.4714L14.6667 18.4714L19.3334 13.8047L22.6667 17.1381V20Z" fill="currentColor"/>
  </symbol>
  <symbol id="icon-light-info-circle" viewBox="0 0 32 32">
    <path d="M15.9999 6.70969C21.1019 6.70969 25.2902 10.8419 25.2902 16C25.2902 21.1308 21.135 25.2903 15.9999 25.2903C10.8711 25.2903 6.7096 21.1371 6.7096 16C6.7096 10.873 10.8645 6.70969 15.9999 6.70969ZM15.9999 5.33334C10.1093 5.33334 5.33325 10.1111 5.33325 16C5.33325 21.8924 10.1093 26.6667 15.9999 26.6667C21.8905 26.6667 26.6666 21.8924 26.6666 16C26.6666 10.1111 21.8905 5.33334 15.9999 5.33334ZM14.4515 20.129H14.9677V14.9678H14.4515C14.1665 14.9678 13.9354 14.7367 13.9354 14.4516V14.1075C13.9354 13.8225 14.1665 13.5914 14.4515 13.5914H16.516C16.8011 13.5914 17.0322 13.8225 17.0322 14.1075V20.129H17.5483C17.8333 20.129 18.0644 20.3601 18.0644 20.6452V20.9893C18.0644 21.2743 17.8333 21.5054 17.5483 21.5054H14.4515C14.1665 21.5054 13.9354 21.2743 13.9354 20.9893V20.6452C13.9354 20.3601 14.1665 20.129 14.4515 20.129ZM15.9999 9.80646C15.2398 9.80646 14.6236 10.4227 14.6236 11.1828C14.6236 11.9429 15.2398 12.5591 15.9999 12.5591C16.76 12.5591 17.3763 11.9429 17.3763 11.1828C17.3763 10.4227 16.76 9.80646 15.9999 9.80646Z" fill="currentColor"/>
  </symbol>
  <symbol id="icon-light-long-arrow-down" viewBox="0 0 32 32">
    <path d="M21.1868 19.6263L20.8922 19.3317C20.697 19.1364 20.3804 19.1364 20.1851 19.3317L16.7083 22.8287V7.16669C16.7083 6.89056 16.4844 6.66669 16.2083 6.66669H15.7916C15.5155 6.66669 15.2916 6.89056 15.2916 7.16669V22.8287L11.8148 19.3317C11.6195 19.1364 11.3029 19.1364 11.1076 19.3317L10.8131 19.6263C10.6178 19.8215 10.6178 20.1381 10.8131 20.3334L15.6464 25.1869C15.8417 25.3822 16.1582 25.3822 16.3535 25.1869L21.1869 20.3334C21.3821 20.1381 21.3821 19.8215 21.1868 19.6263Z" fill="currentColor"/>
  </symbol>
  <symbol id="icon-light-long-arrow-up" viewBox="0 0 32 32">
    <path d="M10.8131 12.3738L11.1077 12.6684C11.3029 12.8636 11.6195 12.8636 11.8148 12.6684L15.2916 9.17138V24.8334C15.2916 25.1095 15.5155 25.3334 15.7916 25.3334H16.2083C16.4844 25.3334 16.7083 25.1095 16.7083 24.8334V9.17138L20.1851 12.6684C20.3804 12.8636 20.697 12.8636 20.8923 12.6684L21.1869 12.3738C21.3821 12.1785 21.3821 11.8619 21.1869 11.6667L16.3535 6.81312C16.1583 6.61787 15.8417 6.61787 15.6464 6.81312L10.8131 11.6667C10.6178 11.8619 10.6178 12.1785 10.8131 12.3738Z" fill="currentColor"/>
  </symbol>
  <symbol id="icon-light-plus" viewBox="0 0 32 32">
    <path d="M23.6667 15H17V8.33333C17 8.14917 16.8508 8 16.6667 8H15.3333C15.1492 8 15 8.14917 15 8.33333V15H8.33333C8.14917 15 8 15.1492 8 15.3333V16.6667C8 16.8508 8.14917 17 8.33333 17H15V23.6667C15 23.8508 15.1492 24 15.3333 24H16.6667C16.8508 24 17 23.8508 17 23.6667V17H23.6667C23.8508 17 24 16.8508 24 16.6667V15.3333C24 15.1492 23.8508 15 23.6667 15Z" fill="currentColor"/>
  </symbol>
  <symbol id="icon-light-sign-out" viewBox="0 0 32 32">
    <path d="M7.33276 8.00195H12.8314C13.1064 8.00195 13.3313 8.2269 13.3313 8.50183V8.83508C13.3313 9.11002 13.1064 9.33496 12.8314 9.33496H7.33276C6.96619 9.33496 6.66626 9.63489 6.66626 10.0015V21.9985C6.66626 22.3651 6.96619 22.665 7.33276 22.665H12.8314C13.1064 22.665 13.3313 22.89 13.3313 23.1649V23.4982C13.3313 23.7731 13.1064 23.998 12.8314 23.998H7.33276C6.22887 23.998 5.33325 23.1024 5.33325 21.9985V10.0015C5.33325 8.89757 6.22887 8.00195 7.33276 8.00195ZM18.9549 8.81425L18.6592 9.11002C18.4634 9.3058 18.4634 9.62239 18.6592 9.81818L24.1578 15.2918H12.4982C12.2232 15.2918 11.9983 15.5168 11.9983 15.7917V16.2083C11.9983 16.4832 12.2232 16.7082 12.4982 16.7082H24.1578L18.6633 22.1818C18.4675 22.3776 18.4675 22.6942 18.6633 22.89L18.9591 23.1857C19.1549 23.3815 19.4715 23.3815 19.6673 23.1857L26.5197 16.3541C26.7155 16.1583 26.7155 15.8417 26.5197 15.6459L19.6631 8.81425C19.4673 8.61847 19.1507 8.61847 18.9549 8.81425Z" fill="currentColor"/>
  </symbol>
  <symbol id="icon-light-star" viewBox="0 0 32 32">
    <path d="M25.574 12.4788L19.7482 11.5914L17.1443 6.07545C16.6778 5.09223 15.326 5.07974 14.8555 6.07545L12.2516 11.5914L6.42585 12.4788C5.38112 12.6371 4.96243 13.9828 5.72006 14.7535L9.93488 19.0447L8.938 25.1064C8.75856 26.2021 9.86311 27.0229 10.7882 26.5104L15.9999 23.6483L21.2116 26.5104C22.1367 27.0187 23.2413 26.2021 23.0618 25.1064L22.065 19.0447L26.2798 14.7535C27.0374 13.9828 26.6187 12.6371 25.574 12.4788ZM20.6972 18.5781L21.8058 25.3272L15.9999 22.1443L10.1981 25.3314L11.3066 18.5822L6.60928 13.7953L13.097 12.8121L15.9999 6.66704L18.9028 12.8121L25.3906 13.7953L20.6972 18.5781Z" fill="currentColor"/>
  </symbol>
  <symbol id="icon-light-ticket" viewBox="0 0 32 32">
    <path d="M21.6667 12H10.3333C9.78104 12 9.33333 12.4477 9.33333 13V19C9.33333 19.5523 9.78104 20 10.3333 20H21.6667C22.219 20 22.6667 19.5523 22.6667 19V13C22.6667 12.4477 22.219 12 21.6667 12ZM21.3333 18.6667H10.6667V13.3333H21.3333V18.6667ZM26.6667 14.6667H28V10C28 8.89542 27.1046 8 26 8H6C4.89542 8 4 8.89542 4 10V14.6667H5.33333C6.06971 14.6667 6.66667 15.2636 6.66667 16C6.66667 16.7364 6.06971 17.3333 5.33333 17.3333H4V22C4 23.1046 4.89542 24 6 24H26C27.1046 24 28 23.1046 28 22V17.3333H26.6667C25.9303 17.3333 25.3333 16.7364 25.3333 16C25.3333 15.2636 25.9303 14.6667 26.6667 14.6667ZM26.6667 18.6667V22C26.6667 22.3676 26.3676 22.6667 26 22.6667H6C5.63238 22.6667 5.33333 22.3676 5.33333 22V18.6667C6.80375 18.6667 8 17.4704 8 16C8 14.5296 6.80375 13.3333 5.33333 13.3333V10C5.33333 9.63238 5.63238 9.33333 6 9.33333H26C26.3676 9.33333 26.6667 9.63238 26.6667 10V13.3333C25.1963 13.3333 24 14.5296 24 16C24 17.4704 25.1963 18.6667 26.6667 18.6667Z" fill="currentColor"/>
  </symbol>
  <symbol id="icon-light-user" viewBox="0 0 32 32">
    <path d="M19.7333 17.3333C18.5375 17.3333 17.9625 18 16 18C14.0375 18 13.4666 17.3333 12.2666 17.3333C9.17496 17.3333 6.66663 19.8416 6.66663 22.9333V24.6666C6.66663 25.7708 7.56246 26.6666 8.66663 26.6666H23.3333C24.4375 26.6666 25.3333 25.7708 25.3333 24.6666V22.9333C25.3333 19.8416 22.825 17.3333 19.7333 17.3333ZM24 24.6666C24 25.0333 23.7 25.3333 23.3333 25.3333H8.66663C8.29996 25.3333 7.99996 25.0333 7.99996 24.6666V22.9333C7.99996 20.5791 9.91246 18.6666 12.2666 18.6666C13.0833 18.6666 13.8958 19.3333 16 19.3333C18.1 19.3333 18.9166 18.6666 19.7333 18.6666C22.0875 18.6666 24 20.5791 24 22.9333V24.6666ZM16 16C18.9458 16 21.3333 13.6125 21.3333 10.6666C21.3333 7.72081 18.9458 5.33331 16 5.33331C13.0541 5.33331 10.6666 7.72081 10.6666 10.6666C10.6666 13.6125 13.0541 16 16 16ZM16 6.66665C18.2041 6.66665 20 8.46248 20 10.6666C20 12.8708 18.2041 14.6666 16 14.6666C13.7958 14.6666 12 12.8708 12 10.6666C12 8.46248 13.7958 6.66665 16 6.66665Z" fill="currentColor"/>
  </symbol>
  <symbol id="icon-regular-eye-slash" viewBox="0 0 32 32">
    <path d="M29.0828 24.9583L4.16687 5.47956C4.09853 5.42485 4.02008 5.38413 3.936 5.35973C3.85192 5.33533 3.76386 5.32773 3.67685 5.33736C3.58984 5.347 3.50557 5.37367 3.42887 5.41588C3.35217 5.45808 3.28453 5.51497 3.22981 5.58331L2.81316 6.10373C2.75831 6.1721 2.71749 6.2506 2.69302 6.33477C2.66855 6.41893 2.66091 6.50709 2.67055 6.5942C2.68018 6.68132 2.7069 6.76568 2.74917 6.84246C2.79145 6.91923 2.84844 6.98692 2.9169 7.04165L27.8328 26.5204C27.9011 26.5751 27.9796 26.6158 28.0637 26.6402C28.1477 26.6646 28.2358 26.6722 28.3228 26.6626C28.4098 26.653 28.4941 26.6263 28.5708 26.5841C28.6475 26.5419 28.7151 26.485 28.7699 26.4166L29.1865 25.8962C29.2414 25.8279 29.2822 25.7494 29.3067 25.6652C29.3311 25.581 29.3388 25.4929 29.3291 25.4058C29.3195 25.3186 29.2928 25.2343 29.2505 25.1575C29.2082 25.0807 29.1512 25.013 29.0828 24.9583ZM15.0328 11.4362L20.6489 15.8271C20.5564 13.3296 18.5198 11.3333 15.9998 11.3333C15.6748 11.3339 15.3507 11.3684 15.0328 11.4362ZM16.9669 20.5641L11.3508 16.1733C11.4437 18.6704 13.4803 20.6666 15.9998 20.6666C16.3249 20.666 16.6489 20.6316 16.9669 20.5641ZM15.9998 9.99998C20.1101 9.99998 23.8783 12.2916 25.9133 16C25.4145 16.9126 24.7981 17.7559 24.08 18.5083L25.6525 19.7375C26.5279 18.8009 27.2697 17.7477 27.8566 16.6079C27.9519 16.4194 28.0015 16.211 28.0015 15.9998C28.0015 15.7885 27.9519 15.5802 27.8566 15.3916C25.595 10.9829 21.1218 7.99998 15.9998 7.99998C14.4707 7.99998 13.012 8.29165 11.6404 8.78373L13.5741 10.2958C14.3632 10.1166 15.1715 9.99998 15.9998 9.99998ZM15.9998 22C11.8895 22 8.12174 19.7083 6.08639 16C6.58587 15.0873 7.20292 14.2442 7.92175 13.4921L6.3493 12.2629C5.47397 13.1993 4.73238 14.2524 4.14562 15.3921C4.0503 15.5806 4.00064 15.7889 4.00064 16.0002C4.00064 16.2115 4.0503 16.4198 4.14562 16.6083C6.40513 21.0171 10.8783 24 15.9998 24C17.529 24 18.9877 23.7062 20.3593 23.2162L18.4256 21.7046C17.6365 21.8833 16.8286 22 15.9998 22Z" fill="currentColor"/>
  </symbol>
  <symbol id="icon-regular-eye" viewBox="0 0 32 32">
    <path d="M16 11.3333C15.5584 11.3402 15.12 11.4104 14.6983 11.5417C14.8934 11.8847 14.9973 12.2721 15 12.6667C15 12.9731 14.9396 13.2765 14.8224 13.5596C14.7051 13.8427 14.5332 14.0999 14.3166 14.3166C14.0999 14.5333 13.8427 14.7051 13.5596 14.8224C13.2765 14.9397 12.9731 15 12.6667 15C12.272 14.9973 11.8847 14.8934 11.5417 14.6983C11.271 15.637 11.3025 16.637 11.6318 17.5568C11.9611 18.4765 12.5714 19.2694 13.3763 19.823C14.1812 20.3766 15.1399 20.6629 16.1166 20.6414C17.0932 20.6199 18.0384 20.2916 18.8181 19.7031C19.5979 19.1145 20.1727 18.2956 20.4611 17.3623C20.7496 16.4289 20.737 15.4285 20.4253 14.5026C20.1136 13.5768 19.5184 12.7725 18.7242 12.2037C17.93 11.6349 16.9769 11.3304 16 11.3333ZM27.855 15.3917C25.5954 10.9829 21.1221 8 16 8C10.8779 8 6.40332 10.985 4.14498 15.3921C4.04966 15.5806 4 15.789 4 16.0002C4 16.2115 4.04966 16.4198 4.14498 16.6083C6.40457 21.0171 10.8779 24 16 24C21.1221 24 25.5967 21.015 27.855 16.6079C27.9503 16.4194 28 16.2111 28 15.9998C28 15.7885 27.9503 15.5802 27.855 15.3917ZM16 22C11.8896 22 8.12123 19.7084 6.08623 16C8.12123 12.2917 11.8892 10 16 10C20.1108 10 23.8788 12.2917 25.9138 16C23.8792 19.7084 20.1108 22 16 22Z" fill="currentColor"/>
  </symbol>
  <symbol id="icon-regular-times" viewBox="0 0 32 32">
    <path d="M17.9833 15.9999L22.4717 11.5116C22.7313 11.252 22.7313 10.8308 22.4717 10.5708L21.4288 9.52785C21.1692 9.26826 20.7479 9.26826 20.4879 9.52785L16 14.0166L11.5116 9.52826C11.252 9.26868 10.8307 9.26868 10.5707 9.52826L9.52819 10.5708C9.2686 10.8303 9.2686 11.2516 9.52819 11.5116L14.0166 15.9999L9.52819 20.4883C9.2686 20.7478 9.2686 21.1691 9.52819 21.4291L10.5711 22.472C10.8307 22.7316 11.252 22.7316 11.512 22.472L16 17.9833L20.4884 22.4716C20.7479 22.7312 21.1692 22.7312 21.4292 22.4716L22.4721 21.4287C22.7317 21.1691 22.7317 20.7478 22.4721 20.4878L17.9833 15.9999Z" fill="currentColor"/>
  </symbol>
  <symbol id="icon-strong-angle-down" viewBox="0 0 32 32">
    <path d="M15.2958 20.0376L9.62734 14.3325C9.23555 13.9382 9.23555 13.3005 9.62734 12.9104L10.5693 11.9624C10.9611 11.568 11.5946 11.568 11.9822 11.9624L16.0002 16.0063L20.0181 11.9624C20.4099 11.568 21.0434 11.568 21.431 11.9624L22.373 12.9104C22.7648 13.3047 22.7648 13.9424 22.373 14.3325L16.7045 20.0376C16.3211 20.4319 15.6876 20.4319 15.2958 20.0376Z" fill="currentColor"/>
  </symbol>
  <symbol id="icon-strong-angle-up" viewBox="0 0 32 32">
    <path d="M16.7083 11.9617L22.3732 17.6644C22.7647 18.0585 22.7647 18.6959 22.3732 19.0858L21.4318 20.0335C21.0403 20.4276 20.4071 20.4276 20.0197 20.0335L16.0002 15.9955L11.9848 20.0377C11.5932 20.4318 10.9601 20.4318 10.5727 20.0377L9.62715 19.09C9.23561 18.6959 9.23561 18.0585 9.62715 17.6686L15.2921 11.9659C15.6836 11.5676 16.3167 11.5676 16.7083 11.9617Z" fill="currentColor"/>
  </symbol>
  <symbol id="icon-strong-arrow-right" viewBox="0 0 32 32">
    <path d="M6.6665 18.0039V14.0002C6.6665 13.4455 7.11229 12.9993 7.66639 12.9993H15.9988V8.67029C15.9988 7.7778 17.0737 7.33155 17.7069 7.9613L25.0395 15.2931C25.4311 15.6851 25.4311 16.319 25.0395 16.711L17.7069 24.0386C17.0778 24.6684 15.9988 24.2221 15.9988 23.3296V19.0048H7.66639C7.11229 19.0048 6.6665 18.5586 6.6665 18.0039Z" fill="currentColor"/>
  </symbol>
  <symbol id="icon-strong-bell" viewBox="0 0 32 32">
    <path d="M15.9998 26.6666C17.4715 26.6666 18.6652 25.4729 18.6652 24H13.3344C13.3344 25.4729 14.5282 26.6666 15.9998 26.6666ZM24.9744 20.4287C24.1694 19.5637 22.6632 18.2625 22.6632 14C22.6632 10.7625 20.3932 8.17087 17.3323 7.53503V6.6667C17.3323 5.93046 16.7357 5.33337 15.9998 5.33337C15.264 5.33337 14.6673 5.93046 14.6673 6.6667V7.53503C11.6065 8.17087 9.33652 10.7625 9.33652 14C9.33652 18.2625 7.83028 19.5637 7.02528 20.4287C6.77528 20.6975 6.66445 21.0187 6.66653 21.3333C6.67112 22.0167 7.20736 22.6667 8.00403 22.6667H23.9956C24.7923 22.6667 25.329 22.0167 25.3331 21.3333C25.3352 21.0187 25.2244 20.6971 24.9744 20.4287Z" fill="currentColor"/>
  </symbol>
  <symbol id="icon-strong-check-circle" viewBox="0 0 32 32">
    <path d="M26.6668 16C26.6668 21.8911 21.8912 26.6667 16.0002 26.6667C10.1091 26.6667 5.3335 21.8911 5.3335 16C5.3335 10.109 10.1091 5.33337 16.0002 5.33337C21.8912 5.33337 26.6668 10.109 26.6668 16ZM14.7664 21.648L22.6803 13.734C22.9491 13.4652 22.9491 13.0295 22.6803 12.7608L21.7071 11.7876C21.4384 11.5188 21.0027 11.5188 20.7339 11.7876L14.2797 18.2417L11.2664 15.2284C10.9977 14.9597 10.562 14.9597 10.2932 15.2284L9.31999 16.2016C9.05126 16.4703 9.05126 16.9061 9.31999 17.1748L13.7931 21.6479C14.0619 21.9167 14.4976 21.9167 14.7664 21.648Z" fill="currentColor"/>
  </symbol>
  <symbol id="icon-strong-check" viewBox="0 0 32 32">
    <path d="M12.5792 23.6858L5.6459 16.7126C5.22936 16.2936 5.22936 15.6144 5.6459 15.1954L7.15436 13.6782C7.5709 13.2592 8.24632 13.2592 8.66286 13.6782L13.3335 18.3756L23.3375 8.3142C23.754 7.89527 24.4294 7.89527 24.846 8.3142L26.3544 9.83138C26.771 10.2503 26.771 10.9296 26.3544 11.3486L14.0877 23.6858C13.6712 24.1047 12.9958 24.1047 12.5792 23.6858Z" fill="currentColor"/>
  </symbol>
  <symbol id="icon-strong-cloud-upload" viewBox="0 0 32 32">
    <path d="M25.0665 14.775C25.2373 14.3292 25.3332 13.8417 25.3332 13.3334C25.3332 11.125 23.5415 9.33335 21.3332 9.33335C20.5123 9.33335 19.7457 9.58335 19.1123 10.0084C17.9582 8.00835 15.804 6.66669 13.3332 6.66669C9.64984 6.66669 6.6665 9.65002 6.6665 13.3334C6.6665 13.4459 6.67067 13.5584 6.67484 13.6709C4.3415 14.4917 2.6665 16.7167 2.6665 19.3334C2.6665 22.6459 5.354 25.3334 8.6665 25.3334H23.9998C26.9457 25.3334 29.3332 22.9459 29.3332 20C29.3332 17.4209 27.4998 15.2667 25.0665 14.775ZM19.2373 17.4292L18.7873 17.8792C18.3873 18.2792 17.7373 18.2667 17.3498 17.8584L15.9998 16.4209V21.6667C15.9998 22.2209 15.554 22.6667 14.9998 22.6667H14.3332C13.779 22.6667 13.3332 22.2209 13.3332 21.6667V16.4209L11.9832 17.8584C11.5957 18.2709 10.9457 18.2792 10.5457 17.8792L10.0957 17.4292C9.704 17.0375 9.704 16.4042 10.0957 16.0167L13.9582 12.1542C14.3498 11.7625 14.9832 11.7625 15.3707 12.1542L19.2332 16.0167C19.6248 16.4084 19.6248 17.0417 19.2373 17.4292Z" fill="currentColor"/>
  </symbol>
  <symbol id="icon-strong-cog" viewBox="0 0 32 32">
    <path d="M26.0692 18.5634L24.215 17.5054C24.4022 16.5075 24.4022 15.4839 24.215 14.486L26.0692 13.4279C26.2825 13.3075 26.3782 13.0581 26.3086 12.8258C25.8255 11.2946 25.0028 9.90968 23.9278 8.757C23.7624 8.58065 23.4925 8.53764 23.2836 8.65807L21.4294 9.71613C20.6503 9.05377 19.7537 8.54194 18.7831 8.20646V6.09464C18.7831 5.85378 18.6133 5.64303 18.3739 5.59142C16.7766 5.23873 15.14 5.25593 13.621 5.59142C13.3816 5.64303 13.2119 5.85378 13.2119 6.09464V8.21076C12.2456 8.55055 11.349 9.06237 10.5655 9.72043L8.71571 8.66237C8.50244 8.54194 8.23693 8.58065 8.07154 8.7613C6.99646 9.90968 6.17384 11.2946 5.69071 12.8301C5.61672 13.0624 5.71682 13.3118 5.9301 13.4322L7.78427 14.4903C7.59711 15.4882 7.59711 16.5118 7.78427 17.5097L5.9301 18.5677C5.71682 18.6881 5.62107 18.9376 5.69071 19.1699C6.17384 20.701 6.99646 22.086 8.07154 23.2387C8.23693 23.415 8.50679 23.458 8.71571 23.3376L10.5699 22.2795C11.349 22.9419 12.2456 23.4537 13.2162 23.7892V25.9053C13.2162 26.1462 13.386 26.3569 13.6253 26.4085C15.2227 26.7612 16.8593 26.744 18.3783 26.4085C18.6177 26.3569 18.7874 26.1462 18.7874 25.9053V23.7892C19.7537 23.4494 20.6503 22.9376 21.4338 22.2795L23.2879 23.3376C23.5012 23.458 23.7667 23.4193 23.9321 23.2387C25.0072 22.0903 25.8298 20.7053 26.3129 19.1699C26.3782 18.9333 26.2825 18.6838 26.0692 18.5634ZM15.9975 19.4365C14.078 19.4365 12.5155 17.8924 12.5155 15.9957C12.5155 14.0989 14.078 12.5548 15.9975 12.5548C17.9169 12.5548 19.4795 14.0989 19.4795 15.9957C19.4795 17.8924 17.9169 19.4365 15.9975 19.4365Z" fill="currentColor"/>
  </symbol>
  <symbol id="icon-strong-edit" viewBox="0 0 32 32">
    <path d="M20.775 8.79789L24.5333 12.5562C24.6917 12.7146 24.6917 12.9729 24.5333 13.1312L15.4333 22.2312L11.5667 22.6604C11.05 22.7187 10.6125 22.2812 10.6708 21.7646L11.1 17.8979L20.2 8.79789C20.3583 8.63955 20.6167 8.63955 20.775 8.79789ZM27.525 7.84372L25.4917 5.81039C24.8583 5.17705 23.8292 5.17705 23.1917 5.81039L21.7167 7.28539C21.5583 7.44372 21.5583 7.70205 21.7167 7.86039L25.475 11.6187C25.6333 11.7771 25.8917 11.7771 26.05 11.6187L27.525 10.1437C28.1583 9.50622 28.1583 8.47706 27.525 7.84372ZM20 19.7562V23.9979H6.66667V10.6646H16.2417C16.375 10.6646 16.5 10.6104 16.5958 10.5187L18.2625 8.85206C18.5792 8.53539 18.3542 7.99789 17.9083 7.99789H6C4.89583 7.99789 4 8.89372 4 9.99789V24.6646C4 25.7687 4.89583 26.6646 6 26.6646H20.6667C21.7708 26.6646 22.6667 25.7687 22.6667 24.6646V18.0896C22.6667 17.6437 22.1292 17.4229 21.8125 17.7354L20.1458 19.4021C20.0542 19.4979 20 19.6229 20 19.7562Z" fill="currentColor"/>
  </symbol>
  <symbol id="icon-strong-envelope" viewBox="0 0 32 32">
    <path d="M26.2627 13.2833C26.4252 13.1542 26.6668 13.275 26.6668 13.4792V22C26.6668 23.1042 25.771 24 24.6668 24H7.3335C6.22933 24 5.3335 23.1042 5.3335 22V13.4833C5.3335 13.275 5.571 13.1583 5.73766 13.2875C6.671 14.0125 7.9085 14.9333 12.1585 18.0208C13.0377 18.6625 14.521 20.0125 16.0002 20.0042C17.4877 20.0167 19.0002 18.6375 19.846 18.0208C24.096 14.9333 25.3293 14.0083 26.2627 13.2833ZM16.0002 18.6667C16.9668 18.6833 18.3585 17.45 19.0585 16.9417C24.5877 12.9292 25.0085 12.5792 26.2835 11.5792C26.5252 11.3917 26.6668 11.1 26.6668 10.7917V10C26.6668 8.89583 25.771 8 24.6668 8H7.3335C6.22933 8 5.3335 8.89583 5.3335 10V10.7917C5.3335 11.1 5.47516 11.3875 5.71683 11.5792C6.99183 12.575 7.41266 12.9292 12.9418 16.9417C13.6418 17.45 15.0335 18.6833 16.0002 18.6667Z" fill="currentColor"/>
  </symbol>
  <symbol id="icon-strong-file-image" viewBox="0 0 32 32">
    <path d="M24 10.4142V10.6667H18.6667V5.33334H18.9191C19.1843 5.33334 19.4387 5.43869 19.6262 5.62622L23.7071 9.70709C23.8946 9.89464 24 10.149 24 10.4142ZM18.3333 12C17.7833 12 17.3333 11.55 17.3333 11V5.33334H9C8.44771 5.33334 8 5.78105 8 6.33334V25.6667C8 26.219 8.44771 26.6667 9 26.6667H23C23.5523 26.6667 24 26.219 24 25.6667V12H18.3333ZM12.6894 12.6667C13.794 12.6667 14.6894 13.5621 14.6894 14.6667C14.6894 15.7713 13.794 16.6667 12.6894 16.6667C11.5848 16.6667 10.6894 15.7713 10.6894 14.6667C10.6894 13.5621 11.5848 12.6667 12.6894 12.6667ZM21.356 22.6667H10.6894L10.7096 20.6465L12.356 19C12.5513 18.8048 12.8477 18.825 13.0429 19.0202L14.6894 20.6667L19.0025 16.3536C19.1978 16.1583 19.5143 16.1583 19.7096 16.3536L21.356 18V22.6667Z" fill="currentColor"/>
  </symbol>
  <symbol id="icon-strong-long-arrow-left" viewBox="0 0 32 32">
    <path d="M14.7272 20.2451L11.9949 17.5045H24.3332C24.8855 17.5045 25.3332 17.0555 25.3332 16.5015V15.4985C25.3332 14.9445 24.8855 14.4954 24.3332 14.4954H11.9949L14.7272 11.7549C15.1177 11.3632 15.1177 10.7281 14.7272 10.3364L14.0201 9.62711C13.6295 9.23538 12.9964 9.23538 12.6059 9.62711L6.95941 15.2907C6.56887 15.6824 6.56887 16.3175 6.95941 16.7092L12.6059 22.3728C12.9964 22.7646 13.6296 22.7646 14.0201 22.3728L14.7272 21.6636C15.1177 21.2719 15.1177 20.6368 14.7272 20.2451Z" fill="currentColor"/>
  </symbol>
  <symbol id="icon-strong-long-arrow-right" viewBox="0 0 32 32">
    <path d="M17.2725 11.7549L20.0048 14.4954H7.6665C7.11421 14.4954 6.6665 14.9445 6.6665 15.4985V16.5015C6.6665 17.0555 7.11421 17.5045 7.6665 17.5045H20.0048L17.2725 20.2451C16.882 20.6368 16.882 21.2719 17.2725 21.6636L17.9796 22.3728C18.3702 22.7646 19.0033 22.7646 19.3938 22.3728L25.0403 16.7092C25.4308 16.3175 25.4308 15.6824 25.0403 15.2907L19.3938 9.62711C19.0033 9.23538 18.3701 9.23538 17.9796 9.62711L17.2725 10.3364C16.882 10.7281 16.882 11.3632 17.2725 11.7549Z" fill="currentColor"/>
  </symbol>
  <symbol id="icon-strong-paper-plane" viewBox="0 0 32 32">
    <path d="M25.1685 5.46468L5.85397 16.6075C5.09972 17.0409 5.19556 18.091 5.94564 18.4077L10.3753 20.2663L22.3474 9.71513C22.5766 9.51094 22.9016 9.82348 22.7058 10.061L12.6672 22.2915V25.646C12.6672 26.6294 13.8548 27.017 14.4382 26.3044L17.0843 23.0832L22.2766 25.2585C22.8683 25.5085 23.5434 25.1376 23.6517 24.5L26.652 6.49812C26.7937 5.65636 25.8894 5.04796 25.1685 5.46468Z" fill="currentColor"/>
  </symbol>
  <symbol id="icon-strong-search" viewBox="0 0 32 32">
    <path d="M26.3746 23.7774L22.2208 19.6236C22.0333 19.4361 21.7792 19.332 21.5125 19.332H20.8334C21.9833 17.8613 22.6666 16.0115 22.6666 13.9991C22.6666 9.21212 18.7878 5.33333 14.0008 5.33333C9.21375 5.33333 5.33496 9.21212 5.33496 13.9991C5.33496 18.7862 9.21375 22.665 14.0008 22.665C16.0131 22.665 17.8629 21.9817 19.3336 20.8318V21.5109C19.3336 21.7776 19.4378 22.0317 19.6252 22.2192L23.779 26.3729C24.1706 26.7646 24.8039 26.7646 25.1914 26.3729L26.3704 25.1939C26.762 24.8023 26.762 24.169 26.3746 23.7774ZM14.0008 19.332C11.0552 19.332 8.66797 16.9489 8.66797 13.9991C8.66797 11.0536 11.0511 8.66634 14.0008 8.66634C16.9463 8.66634 19.3336 11.0494 19.3336 13.9991C19.3336 16.9447 16.9505 19.332 14.0008 19.332Z" fill="currentColor"/>
  </symbol>
  <symbol id="icon-strong-shield" viewBox="0 0 32 32">
    <path d="M25.4373 9.48646L17.4373 6.15313C17.1936 6.05204 16.9324 6 16.6686 6C16.4048 6 16.1435 6.05204 15.8998 6.15313L7.89984 9.48646C7.154 9.79479 6.6665 10.524 6.6665 11.3323C6.6665 19.6031 11.4373 25.3198 15.8957 27.1781C16.3873 27.3823 16.9415 27.3823 17.4332 27.1781C21.004 25.6906 26.6665 20.5531 26.6665 11.3323C26.6665 10.524 26.179 9.79479 25.4373 9.48646ZM16.6707 24.5948L16.6665 8.71979L23.9957 11.774C23.8582 18.0823 20.5748 22.6531 16.6707 24.5948Z" fill="currentColor"/>
  </symbol>
  <symbol id="icon-strong-ship" viewBox="0 0 32 32">
    <path d="M23.3588 20.86L26.276 17.9428C26.9801 17.2386 26.6903 16.0357 25.7412 15.7306L23.9998 15.1709V9.33333C23.9998 8.59695 23.4029 7.99999 22.6665 7.99999H19.9998V6.33333C19.9998 5.78104 19.5521 5.33333 18.9998 5.33333H12.9998C12.4475 5.33333 11.9998 5.78104 11.9998 6.33333V7.99999H9.33317C8.5968 7.99999 7.99984 8.59695 7.99984 9.33333V15.1709L6.2585 15.7306C5.31046 16.0353 5.01875 17.2378 5.72367 17.9428L8.64084 20.86C7.90934 22.6786 6.23263 24 3.6665 24C3.11421 24 2.6665 24.4477 2.6665 25V25.6667C2.6665 26.219 3.11421 26.6667 3.6665 26.6667C6.20913 26.6667 8.14563 25.8079 9.63559 24.1918C10.2364 25.643 11.6674 26.6667 13.3332 26.6667H18.6665C20.3323 26.6667 21.7633 25.643 22.3641 24.1918C23.8538 25.8077 25.7902 26.6667 28.3332 26.6667C28.8855 26.6667 29.3332 26.219 29.3332 25.6667V25C29.3332 24.4477 28.8855 24 28.3332 24C25.7991 24 24.1023 22.7083 23.3588 20.86ZM10.6665 10.6667H21.3332V14.3138L16.4078 12.7307C16.1425 12.6454 15.8572 12.6454 15.5918 12.7307L10.6665 14.3138V10.6667Z" fill="currentColor"/>
  </symbol>
  <symbol id="icon-strong-shop-cart" viewBox="0 0 32 32">
    <path d="M26.005 17.8883L27.9747 9.22164C28.1169 8.59589 27.6413 8.00001 26.9996 8.00001H10.6337L10.2518 6.13293C10.1566 5.66755 9.74708 5.33334 9.27204 5.33334H5C4.44771 5.33334 4 5.78105 4 6.33334V7.00001C4 7.5523 4.44771 8.00001 5 8.00001H7.91179L10.8388 22.3098C10.1385 22.7125 9.66667 23.4676 9.66667 24.3333C9.66667 25.622 10.7113 26.6667 12 26.6667C13.2887 26.6667 14.3333 25.622 14.3333 24.3333C14.3333 23.6803 14.0647 23.0902 13.6323 22.6667H22.3676C21.9353 23.0902 21.6667 23.6803 21.6667 24.3333C21.6667 25.622 22.7113 26.6667 24 26.6667C25.2887 26.6667 26.3333 25.622 26.3333 24.3333C26.3333 23.4095 25.7963 22.6112 25.0175 22.2331L25.2474 21.2216C25.3896 20.5959 24.914 20 24.2723 20H13.0882L12.8155 18.6667H25.0299C25.4968 18.6667 25.9015 18.3436 26.005 17.8883Z" fill="currentColor"/>
  </symbol>
  <symbol id="icon-strong-star" viewBox="0 0 32 32">
    <path d="M14.8557 6.07545L12.2519 11.5914L6.4261 12.4788C5.38137 12.6371 4.96267 13.9828 5.72031 14.7535L9.93513 19.0447L8.93824 25.1064C8.75881 26.2021 9.86335 27.0229 10.7885 26.5104L16.0002 23.6483L21.2119 26.5104C22.137 27.0187 23.2415 26.2021 23.0621 25.1064L22.0652 19.0447L26.28 14.7535C27.0377 13.9828 26.619 12.6371 25.5742 12.4788L19.7484 11.5914L17.1446 6.07545C16.678 5.09223 15.3263 5.07974 14.8557 6.07545Z" fill="currentColor"/>
  </symbol>
  <symbol id="icon-strong-stars" viewBox="0 0 32 32">
    <path d="M16.1539 8.9152L18.2225 9.77769L19.0851 11.8461C19.1081 11.8924 19.1435 11.9313 19.1874 11.9586C19.2313 11.9858 19.282 12.0002 19.3336 12.0002C19.3852 12.0002 19.4359 11.9858 19.4798 11.9586C19.5237 11.9313 19.5591 11.8924 19.5821 11.8461L20.4446 9.77769L22.5132 8.9152C22.5593 8.89214 22.5981 8.85668 22.6253 8.8128C22.6524 8.76892 22.6668 8.71835 22.6668 8.66676C22.6668 8.61518 22.6524 8.56461 22.6253 8.52073C22.5981 8.47685 22.5593 8.44139 22.5132 8.41833L20.4446 7.55576L19.5821 5.48738C19.5591 5.44112 19.5237 5.40219 19.4798 5.37498C19.4359 5.34776 19.3852 5.33334 19.3336 5.33334C19.282 5.33334 19.2313 5.34776 19.1874 5.37498C19.1435 5.40219 19.1081 5.44112 19.0851 5.48738L18.2225 7.55576L16.1539 8.41833C16.1078 8.44139 16.069 8.47685 16.0419 8.52073C16.0147 8.56461 16.0004 8.61518 16.0004 8.66676C16.0004 8.71835 16.0147 8.76892 16.0419 8.8128C16.069 8.85668 16.1078 8.89214 16.1539 8.9152ZM20.5124 16.4706L16.1458 15.8332L14.1913 11.8667C13.8417 11.1584 12.8293 11.15 12.4751 11.8667L10.5207 15.8332L6.15406 16.4706C5.37084 16.5832 5.05378 17.5499 5.62475 18.1039L8.78758 21.187L8.03756 25.5448C7.9041 26.3325 8.73289 26.9243 9.42496 26.5532L13.3332 24.4954L17.2415 26.5532C17.3995 26.6362 17.5775 26.6733 17.7555 26.6604C17.9334 26.6475 18.1042 26.585 18.2486 26.4801C18.3929 26.3752 18.505 26.232 18.5722 26.0667C18.6395 25.9015 18.6591 25.7207 18.6289 25.5448L17.8835 21.187L21.0456 18.1039C21.6127 17.5499 21.2956 16.5832 20.5124 16.4706ZM26.544 14.4679L24.8893 13.778L24.1993 12.1234C24.181 12.0864 24.1526 12.0552 24.1175 12.0335C24.0824 12.0117 24.0419 12.0002 24.0006 12.0002C23.9592 12.0002 23.9187 12.0117 23.8836 12.0335C23.8485 12.0552 23.8202 12.0864 23.8018 12.1234L23.1117 13.778L21.4571 14.4679C21.4202 14.4863 21.3892 14.5147 21.3675 14.5498C21.3458 14.5849 21.3343 14.6254 21.3343 14.6666C21.3343 14.7079 21.3458 14.7483 21.3675 14.7834C21.3892 14.8185 21.4202 14.8469 21.4571 14.8654L23.1117 15.5554L23.8018 17.2099C23.8201 17.2469 23.8485 17.278 23.8836 17.2998C23.9187 17.3216 23.9592 17.3331 24.0006 17.3331C24.0419 17.3331 24.0824 17.3216 24.1175 17.2998C24.1526 17.278 24.181 17.2469 24.1993 17.2099L24.8893 15.5554L26.544 14.8654C26.5809 14.8469 26.612 14.8185 26.6337 14.7834C26.6553 14.7483 26.6668 14.7079 26.6668 14.6666C26.6668 14.6254 26.6553 14.5849 26.6337 14.5498C26.612 14.5147 26.5809 14.4863 26.544 14.4679Z" fill="currentColor"/>
  </symbol>
  <symbol id="icon-strong-times" viewBox="0 0 32 32">
    <path d="M19.0327 16L23.5814 11.4514C24.1395 10.8932 24.1395 9.98818 23.5814 9.42955L22.5705 8.41864C22.0123 7.86045 21.1073 7.86045 20.5486 8.41864L16 12.9673L11.4514 8.41864C10.8932 7.86045 9.98818 7.86045 9.42955 8.41864L8.41864 9.42955C7.86045 9.98773 7.86045 10.8927 8.41864 11.4514L12.9673 16L8.41864 20.5486C7.86045 21.1068 7.86045 22.0118 8.41864 22.5705L9.42955 23.5814C9.98773 24.1395 10.8932 24.1395 11.4514 23.5814L16 19.0327L20.5486 23.5814C21.1068 24.1395 22.0123 24.1395 22.5705 23.5814L23.5814 22.5705C24.1395 22.0123 24.1395 21.1073 23.5814 20.5486L19.0327 16Z" fill="currentColor"/>
  </symbol>
  <symbol id="icon-strong-trash" viewBox="0 0 32 32">
    <path d="M7.99984 24.6667C7.99984 25.1971 8.21055 25.7058 8.58562 26.0809C8.9607 26.456 9.4694 26.6667 9.99984 26.6667H21.9998C22.5303 26.6667 23.039 26.456 23.414 26.0809C23.7891 25.7058 23.9998 25.1971 23.9998 24.6667V10.6667H7.99984V24.6667ZM19.3332 14C19.3332 13.8232 19.4034 13.6536 19.5284 13.5286C19.6535 13.4036 19.823 13.3334 19.9998 13.3334C20.1766 13.3334 20.3462 13.4036 20.4712 13.5286C20.5963 13.6536 20.6665 13.8232 20.6665 14V23.3334C20.6665 23.5102 20.5963 23.6797 20.4712 23.8048C20.3462 23.9298 20.1766 24 19.9998 24C19.823 24 19.6535 23.9298 19.5284 23.8048C19.4034 23.6797 19.3332 23.5102 19.3332 23.3334V14ZM15.3332 14C15.3332 13.8232 15.4034 13.6536 15.5284 13.5286C15.6535 13.4036 15.823 13.3334 15.9998 13.3334C16.1766 13.3334 16.3462 13.4036 16.4712 13.5286C16.5963 13.6536 16.6665 13.8232 16.6665 14V23.3334C16.6665 23.5102 16.5963 23.6797 16.4712 23.8048C16.3462 23.9298 16.1766 24 15.9998 24C15.823 24 15.6535 23.9298 15.5284 23.8048C15.4034 23.6797 15.3332 23.5102 15.3332 23.3334V14ZM11.3332 14C11.3332 13.8232 11.4034 13.6536 11.5284 13.5286C11.6535 13.4036 11.823 13.3334 11.9998 13.3334C12.1766 13.3334 12.3462 13.4036 12.4712 13.5286C12.5963 13.6536 12.6665 13.8232 12.6665 14V23.3334C12.6665 23.5102 12.5963 23.6797 12.4712 23.8048C12.3462 23.9298 12.1766 24 11.9998 24C11.823 24 11.6535 23.9298 11.5284 23.8048C11.4034 23.6797 11.3332 23.5102 11.3332 23.3334V14ZM24.6665 6.66668H19.6665L19.2748 5.88752C19.1919 5.72094 19.0641 5.58082 18.9058 5.48292C18.7475 5.38502 18.5651 5.33322 18.379 5.33335H13.6165C13.4308 5.33264 13.2487 5.38424 13.091 5.48225C12.9333 5.58026 12.8064 5.72072 12.7248 5.88752L12.3332 6.66668H7.33317C7.15636 6.66668 6.98679 6.73692 6.86177 6.86195C6.73674 6.98697 6.6665 7.15654 6.6665 7.33335V8.66668C6.6665 8.8435 6.73674 9.01306 6.86177 9.13809C6.98679 9.26311 7.15636 9.33335 7.33317 9.33335H24.6665C24.8433 9.33335 25.0129 9.26311 25.1379 9.13809C25.2629 9.01306 25.3332 8.8435 25.3332 8.66668V7.33335C25.3332 7.15654 25.2629 6.98697 25.1379 6.86195C25.0129 6.73692 24.8433 6.66668 24.6665 6.66668Z" fill="currentColor"/>
  </symbol>
  <symbol id="icon-strong-truck" viewBox="0 0 32 32">
    <path d="M28.6665 20H27.9998V15.4958C27.9998 14.9666 27.7873 14.4583 27.4123 14.0833L23.2498 9.92081C22.8748 9.54581 22.3665 9.33331 21.8373 9.33331H19.9998V7.33331C19.9998 6.22915 19.104 5.33331 17.9998 5.33331H4.6665C3.56234 5.33331 2.6665 6.22915 2.6665 7.33331V20.6666C2.6665 21.7708 3.56234 22.6666 4.6665 22.6666H5.33317C5.33317 24.875 7.12484 26.6666 9.33317 26.6666C11.5415 26.6666 13.3332 24.875 13.3332 22.6666H18.6665C18.6665 24.875 20.4582 26.6666 22.6665 26.6666C24.8748 26.6666 26.6665 24.875 26.6665 22.6666H28.6665C29.0332 22.6666 29.3332 22.3666 29.3332 22V20.6666C29.3332 20.3 29.0332 20 28.6665 20ZM9.33317 24.6666C8.229 24.6666 7.33317 23.7708 7.33317 22.6666C7.33317 21.5625 8.229 20.6666 9.33317 20.6666C10.4373 20.6666 11.3332 21.5625 11.3332 22.6666C11.3332 23.7708 10.4373 24.6666 9.33317 24.6666ZM22.6665 24.6666C21.5623 24.6666 20.6665 23.7708 20.6665 22.6666C20.6665 21.5625 21.5623 20.6666 22.6665 20.6666C23.7707 20.6666 24.6665 21.5625 24.6665 22.6666C24.6665 23.7708 23.7707 24.6666 22.6665 24.6666ZM25.9998 16H19.9998V11.3333H21.8373L25.9998 15.4958V16Z" fill="currentColor"/>
  </symbol>
  <symbol id="icon-strong-user-plus" viewBox="0 0 32 32">
    <path d="M28.6665 14H25.9998V11.3333C25.9998 10.9666 25.6998 10.6666 25.3332 10.6666H23.9998C23.6332 10.6666 23.3332 10.9666 23.3332 11.3333V14H20.6665C20.2998 14 19.9998 14.3 19.9998 14.6666V16C19.9998 16.3666 20.2998 16.6666 20.6665 16.6666H23.3332V19.3333C23.3332 19.7 23.6332 20 23.9998 20H25.3332C25.6998 20 25.9998 19.7 25.9998 19.3333V16.6666H28.6665C29.0332 16.6666 29.3332 16.3666 29.3332 16V14.6666C29.3332 14.3 29.0332 14 28.6665 14ZM11.9998 16C14.9457 16 17.3332 13.6125 17.3332 10.6666C17.3332 7.72081 14.9457 5.33331 11.9998 5.33331C9.054 5.33331 6.6665 7.72081 6.6665 10.6666C6.6665 13.6125 9.054 16 11.9998 16ZM15.7332 17.3333H15.0373C14.1123 17.7583 13.0832 18 11.9998 18C10.9165 18 9.8915 17.7583 8.96234 17.3333H8.2665C5.17484 17.3333 2.6665 19.8416 2.6665 22.9333V24.6666C2.6665 25.7708 3.56234 26.6666 4.6665 26.6666H19.3332C20.4373 26.6666 21.3332 25.7708 21.3332 24.6666V22.9333C21.3332 19.8416 18.8248 17.3333 15.7332 17.3333Z" fill="currentColor"/>
  </symbol>
  <symbol id="icon-strong-user" viewBox="0 0 32 32">
    <path d="M15.9998 16C18.9457 16 21.3332 13.6125 21.3332 10.6666C21.3332 7.72081 18.9457 5.33331 15.9998 5.33331C13.054 5.33331 10.6665 7.72081 10.6665 10.6666C10.6665 13.6125 13.054 16 15.9998 16ZM19.7332 17.3333H19.0373C18.1123 17.7583 17.0832 18 15.9998 18C14.9165 18 13.8915 17.7583 12.9623 17.3333H12.2665C9.17484 17.3333 6.6665 19.8416 6.6665 22.9333V24.6666C6.6665 25.7708 7.56234 26.6666 8.6665 26.6666H23.3332C24.4373 26.6666 25.3332 25.7708 25.3332 24.6666V22.9333C25.3332 19.8416 22.8248 17.3333 19.7332 17.3333Z" fill="currentColor"/>
  </symbol>
</svg>