<svg width="114" height="131" viewBox="0 0 114 131" fill="none" xmlns="http://www.w3.org/2000/svg">
<g filter="url(#filter0_f_513_14610)">
<ellipse cx="59" cy="106" rx="40" ry="10" fill="#262933" fill-opacity="0.2"/>
</g>
<mask id="mask0_513_14610" style="mask-type:alpha" maskUnits="userSpaceOnUse" x="17" y="25" width="86" height="83">
<path d="M54.5305 66.2703L54.0667 25.6074L102.692 48.8765L96.0438 86.6018L94.343 90.3125L91.6373 92.5543L64.5803 106.16L55.149 107.242L19.7429 89.9259L17.7329 82.1953L54.5305 66.2703Z" fill="#D9D9D9"/>
</mask>
<g mask="url(#mask0_513_14610)">
<path d="M102.692 48.877L96.0435 86.6016L94.3433 90.3125L91.6372 92.5547L64.5806 106.16L55.1489 107.242L19.7427 89.9258L17.7329 82.1953L54.5308 66.2705L54.0669 25.6074L102.692 48.877ZM92.2358 52.8193C91.3909 52.4416 91.1241 53.2027 91.0962 53.6309C90.452 61.4637 89.1404 77.4767 89.0474 78.8711C88.9546 80.2623 89.3693 80.8298 89.5884 80.9395C89.6721 80.9781 90.1106 81.2066 91.1929 81.8096C92.2747 82.4121 92.5201 81.4937 92.5073 80.959C93.158 73.1897 94.486 57.2914 94.5942 55.8535C94.7024 54.4163 94.0471 53.6701 93.7056 53.4766L92.2358 52.8193ZM86.3999 49.8818C85.5544 49.5036 85.2871 50.2652 85.2593 50.6934C84.6151 58.527 83.3032 74.542 83.2104 75.9336C83.1177 77.3247 83.5324 77.8922 83.7515 78.002C83.8352 78.0406 84.2737 78.2681 85.356 78.8711C86.4382 79.4741 86.6833 78.5552 86.6704 78.0205C87.321 70.2515 88.649 54.3553 88.7573 52.916C88.8655 51.4786 88.2102 50.7326 87.8687 50.5391L86.3999 49.8818ZM80.5249 47.2148C79.6794 46.8366 79.4121 47.5982 79.3843 48.0264C78.7401 55.8601 77.4282 71.8751 77.3354 73.2666C77.2427 74.6578 77.6574 75.2253 77.8765 75.335C77.9602 75.3736 78.3987 75.6011 79.481 76.2041C80.5632 76.8071 80.8083 75.8882 80.7954 75.3535C81.446 67.5847 82.7739 51.6888 82.8823 50.249C82.9906 48.8111 82.3351 48.0644 81.9937 47.8711L80.5249 47.2148ZM74.688 44.5098C73.8425 44.1315 73.5752 44.8931 73.5474 45.3213C72.9031 53.1551 71.5923 69.17 71.4995 70.5615C71.4068 71.953 71.8215 72.5194 72.0405 72.6289C72.1246 72.6677 72.5624 72.8964 73.644 73.499C74.7263 74.102 74.9714 73.1831 74.9585 72.6484C75.6091 64.8798 76.937 48.9844 77.0454 47.5439C77.1536 46.1061 76.4982 45.3593 76.1567 45.166L74.688 44.5098ZM68.5806 41.6865C67.7356 41.3088 67.4689 42.0699 67.4409 42.498C66.7967 50.3317 65.4849 66.3478 65.3921 67.7393C65.2995 69.1302 65.7141 69.697 65.9331 69.8066C66.0169 69.8453 66.4553 70.0738 67.5376 70.6768C68.6195 71.2793 68.8639 70.3608 68.8511 69.8262C69.5017 62.0569 70.8307 46.1586 70.939 44.7207C71.0471 43.283 70.3907 42.537 70.0493 42.3438L68.5806 41.6865ZM62.4741 38.8643C61.6287 38.486 61.3613 39.2476 61.3335 39.6758C60.6893 47.5091 59.3775 63.5233 59.2847 64.916C59.1919 66.3072 59.6066 66.8747 59.8257 66.9844C59.9094 67.023 60.3479 67.2506 61.4302 67.8535C62.5122 68.4563 62.7574 67.5387 62.7446 67.0039C63.3953 59.2348 64.7233 43.3366 64.8315 41.8984C64.9397 40.4611 64.2844 39.7151 63.9429 39.5215L62.4741 38.8643Z" fill="#D4D4D6"/>
<path d="M63.9425 39.5216L62.4737 38.8645C61.6282 38.4862 61.3612 39.248 61.3334 39.6762C60.6892 47.5098 59.3776 63.525 59.2848 64.9165C59.192 66.308 59.6069 66.875 59.8259 66.9845C59.9097 67.0231 60.3477 67.2512 61.43 67.8542C62.5123 68.4571 62.7571 67.5385 62.7442 67.0038C63.3949 59.2346 64.7233 43.3366 64.8315 41.8987C64.9397 40.4608 64.2839 39.7148 63.9425 39.5216Z" stroke="#262933" stroke-width="0.5"/>
<path d="M70.0494 42.3439L68.5806 41.6868C67.7351 41.3086 67.4681 42.0704 67.4403 42.4986C66.7961 50.3322 65.4845 66.3474 65.3917 67.7389C65.299 69.1304 65.7138 69.6973 65.9329 69.8069C66.0166 69.8455 66.4547 70.0736 67.537 70.6765C68.6192 71.2795 68.864 70.3609 68.8512 69.8262C69.5018 62.0569 70.8302 46.159 70.9384 44.7211C71.0467 43.2832 70.3908 42.5372 70.0494 42.3439Z" stroke="#262933" stroke-width="0.5"/>
<path d="M76.1568 45.1644L74.688 44.5073C73.8425 44.129 73.5755 44.8908 73.5477 45.319C72.9035 53.1527 71.5919 69.1679 71.4991 70.5594C71.4064 71.9509 71.8213 72.5178 72.0403 72.6273C72.124 72.6659 72.5621 72.894 73.6444 73.497C74.7267 74.1 74.9715 73.1813 74.9586 72.6466C75.6092 64.8774 76.9376 48.9794 77.0458 47.5415C77.1541 46.1036 76.4983 45.3576 76.1568 45.1644Z" stroke="#262933" stroke-width="0.5"/>
<path d="M81.9933 47.8707L80.5244 47.2136C79.6789 46.8353 79.412 47.5971 79.3842 48.0253C78.74 55.859 77.4283 71.8742 77.3356 73.2657C77.2428 74.6572 77.6577 75.2241 77.8767 75.3336C77.9605 75.3722 78.3985 75.6003 79.4808 76.2033C80.5631 76.8063 80.8079 75.8876 80.795 75.3529C81.4457 67.5837 82.774 51.6857 82.8823 50.2478C82.9905 48.8099 82.3347 48.0639 81.9933 47.8707Z" stroke="#262933" stroke-width="0.5"/>
<path d="M87.8687 50.5377L86.3999 49.8806C85.5544 49.5023 85.2874 50.2641 85.2596 50.6923C84.6154 58.5259 83.3038 74.5411 83.2111 75.9326C83.1183 77.3242 83.5332 77.8911 83.7522 78.0006C83.836 78.0392 84.274 78.2673 85.3563 78.8703C86.4386 79.4733 86.6834 78.5546 86.6705 78.0199C87.3212 70.2507 88.6495 54.3527 88.7578 52.9148C88.866 51.4769 88.2102 50.7309 87.8687 50.5377Z" stroke="#262933" stroke-width="0.5"/>
<path d="M93.7057 53.4757L92.2368 52.8186C91.3913 52.4403 91.1244 53.2021 91.0966 53.6303C90.4524 61.4639 89.1407 77.4791 89.048 78.8706C88.9552 80.2621 89.3701 80.8291 89.5891 80.9386C89.6729 80.9772 90.1109 81.2053 91.1932 81.8083C92.2755 82.4112 92.5203 81.4926 92.5074 80.9579C93.1581 73.1887 94.4864 57.2907 94.5947 55.8528C94.7029 54.4149 94.0471 53.6689 93.7057 53.4757Z" stroke="#262933" stroke-width="0.5"/>
</g>
<path d="M55.3032 26.0728L55.3804 26.7681L56.1147 62.7544C56.1147 64.7643 55.914 66.7206 53.1001 68.0503C50.2852 69.3804 27.5243 80.2514 16.4956 85.521L13.2485 68.6685L10.8521 55.1401L9.69287 46.0181L51.438 25.7632L55.3032 26.0728ZM21.1733 52.6274C21.1347 51.7384 21.0049 50.5067 19.7817 51.0815L18.4478 51.6802C18.1385 51.7898 17.5475 52.4306 17.6558 54.1157C17.764 55.8012 19.0402 71.4574 19.6265 79.3169C19.6458 79.8065 19.7359 80.497 20.7964 80.0425C21.4728 79.7526 22.0238 79.4813 22.6519 79.1528C23.2438 78.8428 23.09 77.804 23.0288 77.2886C22.8742 75.9589 21.7145 60.3967 21.1733 52.6274ZM26.6226 49.9614C26.5839 49.0724 26.455 47.8409 25.2319 48.4155L23.8979 49.0142C23.5887 49.1237 22.9977 49.7644 23.106 51.4497C23.2142 53.1353 24.4328 69.0044 25.019 76.8638C25.0384 77.3534 25.1807 78.0366 26.2271 77.5503C26.913 77.2315 27.7137 76.9359 28.188 76.5737C28.7193 76.168 28.5393 75.1381 28.478 74.6226C28.3234 73.2929 27.1637 57.7307 26.6226 49.9614ZM32.3823 46.9849C32.3437 46.0958 32.2139 44.8632 30.9907 45.438L29.6567 46.0376C29.3474 46.1475 28.7567 46.788 28.8647 48.4722C28.973 50.1574 30.1721 66.2983 30.7583 74.1577C30.7776 74.6473 30.8458 75.4811 31.8892 74.9595C32.3931 74.7075 33.5408 74.2875 34.0151 73.9253C34.5466 73.5194 34.299 72.1604 34.2378 71.645C34.0832 70.3153 32.9235 54.7542 32.3823 46.9849ZM37.7935 43.9692C37.7548 43.0802 37.6252 41.8483 36.4019 42.4233L35.0688 43.022C34.7596 43.1315 34.1677 43.7723 34.2759 45.4575C34.3841 47.1429 35.5842 63.2826 36.1704 71.1421C36.1897 71.6317 36.2974 72.8851 37.3687 72.4565C37.9002 72.2439 39.1452 71.7269 39.6196 71.3647C40.151 70.959 39.7103 69.1463 39.6489 68.6304C39.4943 67.3007 38.3346 51.7385 37.7935 43.9692ZM43.437 41.0317C43.3984 40.1427 43.2686 38.9101 42.0454 39.4849L40.7114 40.0845C40.4021 40.1944 39.8113 40.8355 39.9194 42.52C40.0278 44.2076 41.2268 60.3458 41.813 68.2046C41.8324 68.6942 42.1154 69.5183 43.0894 68.8999C43.4856 68.6422 44.4022 68.0452 44.8765 67.6831C45.4079 67.2773 45.3537 66.2073 45.2925 65.6919C45.1378 64.3616 43.9781 48.8009 43.437 41.0317Z" fill="#8D8D8F"/>
<path d="M35.0681 43.0214L36.4017 42.4223C37.625 41.8473 37.7545 43.0794 37.7932 43.9684C38.3343 51.7377 39.4939 67.2994 39.6485 68.629C39.7097 69.1444 40.151 70.9578 39.6195 71.3637C39.1452 71.7259 37.8995 72.243 37.368 72.4556C36.2967 72.8841 36.1891 71.6311 36.1698 71.1415C35.5835 63.282 34.384 47.1419 34.2757 45.4566C34.1675 43.7713 34.7589 43.131 35.0681 43.0214Z" stroke="#262933" stroke-width="0.5"/>
<path d="M29.6565 46.0366L30.99 45.4375C32.2134 44.8624 32.3429 46.0945 32.3816 46.9836C32.9227 54.7528 34.0823 70.3145 34.2369 71.6442C34.2981 72.1595 34.5461 73.5188 34.0146 73.9246C33.5403 74.2868 32.3927 74.7066 31.8887 74.9586C30.8451 75.4804 30.7775 74.6462 30.7581 74.1566C30.1719 66.2972 28.9724 50.157 28.8641 48.4717C28.7559 46.7865 29.3473 46.1461 29.6565 46.0366Z" stroke="#262933" stroke-width="0.5"/>
<path d="M23.8972 49.0114L25.2308 48.4123C26.4541 47.8373 26.5836 49.0694 26.6223 49.9584C27.1634 57.7277 28.323 73.2893 28.4776 74.619C28.5388 75.1344 28.7192 76.1651 28.1877 76.5709C27.7134 76.9331 26.9122 77.228 26.2261 77.5469C25.1798 78.0332 25.0375 77.3504 25.0182 76.8608C24.4319 69.0014 23.2131 53.1318 23.1048 51.4466C22.9966 49.7613 23.588 49.121 23.8972 49.0114Z" stroke="#262933" stroke-width="0.5"/>
<path d="M18.4475 51.6797L19.7811 51.0805C21.0044 50.5055 21.1339 51.7376 21.1726 52.6266C21.7137 60.3959 22.8733 75.9576 23.0279 77.2872C23.0891 77.8026 23.2436 78.8423 22.651 79.1522C22.0229 79.4807 21.4721 79.7513 20.7957 80.0412C19.7352 80.4957 19.6458 79.806 19.6265 79.3164C19.0402 71.457 17.7634 55.8001 17.6551 54.1148C17.5469 52.4295 18.1383 51.7892 18.4475 51.6797Z" stroke="#262933" stroke-width="0.5"/>
<path d="M40.7112 40.0835L42.0447 39.4843C43.2681 38.9093 43.3976 40.1414 43.4362 41.0305C43.9774 48.7997 45.137 64.3614 45.2916 65.691C45.3528 66.2064 45.4075 67.2758 44.8761 67.6817C44.4017 68.0439 43.4846 68.6415 43.0884 68.8992C42.1143 69.5177 41.8321 68.6931 41.8128 68.2035C41.2266 60.344 40.027 44.2039 39.9188 42.5186C39.8106 40.8333 40.402 40.193 40.7112 40.0835Z" stroke="#262933" stroke-width="0.5"/>
<mask id="mask1_513_14610" style="mask-type:alpha" maskUnits="userSpaceOnUse" x="10" y="53" width="92" height="56">
<path fill-rule="evenodd" clip-rule="evenodd" d="M55.7671 74.3104L60.4054 74.9289L97.8215 56.5301L101.339 57.7669L95.9661 85.5584C95.224 89.4237 94.1108 91.3563 90.864 93.0571L62.3767 107.088C59.6247 108.511 57.004 108.132 54.7621 106.895L22.1777 91.0085C17.7249 88.813 16.6503 86.9886 16.1092 84.2056L10.9297 55.6797L11.7027 53.2832L55.7671 74.3104ZM68.8318 76.9968C68.8898 76.243 68.8291 75.46 67.9428 75.9145L66.4353 76.6876C66.139 76.8228 65.5347 77.3602 65.4883 78.4269C65.4419 79.4938 64.1161 94.9897 63.459 102.604C63.4461 102.926 63.602 103.466 64.3287 103.049C65.0554 102.631 65.6751 102.295 65.8942 102.179C66.2163 101.954 66.8682 101.275 66.8991 100.362C66.9301 99.4497 68.2005 84.4051 68.8318 76.9968ZM49.3314 76.0305C48.2047 75.4034 48.076 76.2073 48.1525 76.6876C48.8611 84.1412 50.29 99.2841 50.3364 100.227C50.3828 101.17 50.8453 101.651 51.0708 101.773C51.3349 101.928 52.0642 102.357 52.8681 102.836C53.6721 103.316 53.8344 102.637 53.8151 102.237C53.055 94.6034 51.5269 79.1117 51.4959 78.2143C51.465 77.3176 50.6971 76.7198 50.317 76.5329L49.3314 76.0305ZM74.9389 74.0978C74.9969 73.3441 74.9363 72.561 74.0499 73.0155L72.5425 73.7886C72.2461 73.9239 71.6419 74.4612 71.5955 75.528C71.5491 76.5948 70.2233 92.0907 69.5662 99.7054C69.5533 100.027 69.7092 100.567 70.4359 100.15C71.1625 99.7325 71.7823 99.3962 72.0013 99.2802C72.3234 99.0547 72.9754 98.3757 73.0063 97.4635C73.0373 96.5507 74.3076 81.5061 74.9389 74.0978ZM43.4175 73.2861C42.2908 72.6591 42.1621 73.4629 42.2386 73.9432C42.9472 81.3968 44.3761 96.5397 44.4225 97.4828C44.4689 98.4259 44.9314 98.9066 45.1569 99.029C45.421 99.1836 46.1503 99.6126 46.9542 100.092C47.7582 100.571 47.9205 99.8922 47.9012 99.4928C47.1411 91.859 45.613 76.3674 45.582 75.47C45.5511 74.5733 44.7832 73.9754 44.4031 73.7886L43.4175 73.2861ZM37.4649 70.3485C36.3382 69.7214 36.2095 70.5253 36.286 71.0056C36.9947 78.4592 38.4235 93.6021 38.4699 94.5452C38.5163 95.4883 38.9788 95.9689 39.2043 96.0913C39.4685 96.246 40.1977 96.675 41.0017 97.1543C41.8056 97.6335 41.968 96.9546 41.9487 96.5552C41.1885 88.9214 39.6605 73.4298 39.6295 72.5324C39.5986 71.6356 38.8307 71.0378 38.4506 70.851L37.4649 70.3485ZM81.1234 71.0442C81.1814 70.2905 81.1207 69.5075 80.2344 69.9619L78.7269 70.735C78.4306 70.8703 77.8263 71.4076 77.7799 72.4744C77.7336 73.5412 76.4078 89.0372 75.7507 96.6518C75.7378 96.9739 75.8937 97.5138 76.6204 97.0963C77.347 96.6789 77.9668 96.3426 78.1858 96.2266C78.5079 96.0011 79.1599 95.3221 79.1908 94.4099C79.2218 93.4971 80.4921 78.4525 81.1234 71.0442ZM31.5124 67.4882C30.3857 66.8611 30.257 67.665 30.3335 68.1453C31.0421 75.5989 32.471 90.7418 32.5174 91.6849C32.5638 92.628 33.0263 93.1086 33.2518 93.231C33.5159 93.3856 34.2452 93.8147 35.0491 94.294C35.853 94.7732 36.0154 94.0943 35.9961 93.6949C35.236 86.0611 33.7079 70.5694 33.6769 69.6721C33.646 68.7753 32.8781 68.1775 32.498 67.9906L31.5124 67.4882ZM87.2692 67.9906C87.3272 67.2369 87.2666 66.4539 86.3802 66.9084L84.8728 67.6814C84.5764 67.8167 83.9722 68.354 83.9258 69.4208C83.8794 70.4876 82.5536 85.9836 81.8965 93.5982C81.8836 93.9203 82.0395 94.4602 82.7662 94.0427C83.4928 93.6253 84.1126 93.289 84.3316 93.173C84.6537 92.9475 85.3057 92.2685 85.3366 91.3563C85.3676 90.4435 86.6379 75.399 87.2692 67.9906ZM25.4439 64.3573C24.3172 63.7302 24.1885 64.5341 24.265 65.0144C24.9736 72.468 26.4025 87.6109 26.4488 88.554C26.4952 89.4971 26.9578 89.9777 27.1832 90.1001C27.4474 90.2547 28.1766 90.6838 28.9806 91.1631C29.7845 91.6423 29.9469 90.9634 29.9276 90.564C29.1674 82.9302 27.6394 67.4386 27.6084 66.5412C27.5775 65.6444 26.8096 65.0466 26.4295 64.8598L25.4439 64.3573ZM93.4924 65.053C93.5503 64.2993 93.4897 63.5162 92.6033 63.9707L91.0959 64.7438C90.7995 64.8791 90.1953 65.4164 90.1489 66.4832C90.1025 67.55 88.7767 83.0459 88.1196 90.6606C88.1067 90.9827 88.2626 91.5226 88.9893 91.1051C89.716 90.6877 90.3357 90.3514 90.5547 90.2354C90.8769 90.0099 91.5288 89.3309 91.5597 88.4187C91.5907 87.5059 92.861 72.4613 93.4924 65.053ZM19.4527 61.4196C18.326 60.7926 18.1973 61.5965 18.2737 62.0767C18.9824 69.5303 20.4113 84.6733 20.4576 85.6164C20.504 86.5595 20.9666 87.0401 21.192 87.1625C21.4562 87.3171 22.1854 87.7462 22.9894 88.2255C23.7933 88.7047 23.9557 88.0258 23.9364 87.6263C23.1762 79.9926 21.6482 64.5009 21.6172 63.6035C21.5863 62.7068 20.8184 62.109 20.4383 61.9221L19.4527 61.4196Z" fill="#D9D9D9"/>
</mask>
<g mask="url(#mask1_513_14610)">
<path fill-rule="evenodd" clip-rule="evenodd" d="M55.7671 74.3104L60.4054 74.9289L97.8215 56.5301L101.339 57.7669L95.9661 85.5584C95.224 89.4237 94.1108 91.3563 90.864 93.0571L62.3767 107.088C59.6247 108.511 57.004 108.132 54.7621 106.895L22.1777 91.0085C17.7249 88.813 16.6503 86.9886 16.1092 84.2056L10.9297 55.6797L11.7027 53.2832L55.7671 74.3104ZM68.8318 76.9968C68.8898 76.243 68.8291 75.46 67.9428 75.9145L66.4353 76.6876C66.139 76.8228 65.5347 77.3602 65.4883 78.4269C65.4419 79.4938 64.1161 94.9897 63.459 102.604C63.4461 102.926 63.602 103.466 64.3287 103.049C65.0554 102.631 65.6751 102.295 65.8942 102.179C66.2163 101.954 66.8682 101.275 66.8991 100.362C66.9301 99.4497 68.2005 84.4051 68.8318 76.9968ZM49.3314 76.0305C48.2047 75.4034 48.076 76.2073 48.1525 76.6876C48.8611 84.1412 50.29 99.2841 50.3364 100.227C50.3828 101.17 50.8453 101.651 51.0708 101.773C51.3349 101.928 52.0642 102.357 52.8681 102.836C53.6721 103.316 53.8344 102.637 53.8151 102.237C53.055 94.6034 51.5269 79.1117 51.4959 78.2143C51.465 77.3176 50.6971 76.7198 50.317 76.5329L49.3314 76.0305ZM74.9389 74.0978C74.9969 73.3441 74.9363 72.561 74.0499 73.0155L72.5425 73.7886C72.2461 73.9239 71.6419 74.4612 71.5955 75.528C71.5491 76.5948 70.2233 92.0907 69.5662 99.7054C69.5533 100.027 69.7092 100.567 70.4359 100.15C71.1625 99.7325 71.7823 99.3962 72.0013 99.2802C72.3234 99.0547 72.9754 98.3757 73.0063 97.4635C73.0373 96.5507 74.3076 81.5061 74.9389 74.0978ZM43.4175 73.2861C42.2908 72.6591 42.1621 73.4629 42.2386 73.9432C42.9472 81.3968 44.3761 96.5397 44.4225 97.4828C44.4689 98.4259 44.9314 98.9066 45.1569 99.029C45.421 99.1836 46.1503 99.6126 46.9542 100.092C47.7582 100.571 47.9205 99.8922 47.9012 99.4928C47.1411 91.859 45.613 76.3674 45.582 75.47C45.5511 74.5733 44.7832 73.9754 44.4031 73.7886L43.4175 73.2861ZM37.4649 70.3485C36.3382 69.7214 36.2095 70.5253 36.286 71.0056C36.9947 78.4592 38.4235 93.6021 38.4699 94.5452C38.5163 95.4883 38.9788 95.9689 39.2043 96.0913C39.4685 96.246 40.1977 96.675 41.0017 97.1543C41.8056 97.6335 41.968 96.9546 41.9487 96.5552C41.1885 88.9214 39.6605 73.4298 39.6295 72.5324C39.5986 71.6356 38.8307 71.0378 38.4506 70.851L37.4649 70.3485ZM81.1234 71.0442C81.1814 70.2905 81.1207 69.5075 80.2344 69.9619L78.7269 70.735C78.4306 70.8703 77.8263 71.4076 77.7799 72.4744C77.7336 73.5412 76.4078 89.0372 75.7507 96.6518C75.7378 96.9739 75.8937 97.5138 76.6204 97.0963C77.347 96.6789 77.9668 96.3426 78.1858 96.2266C78.5079 96.0011 79.1599 95.3221 79.1908 94.4099C79.2218 93.4971 80.4921 78.4525 81.1234 71.0442ZM31.5124 67.4882C30.3857 66.8611 30.257 67.665 30.3335 68.1453C31.0421 75.5989 32.471 90.7418 32.5174 91.6849C32.5638 92.628 33.0263 93.1086 33.2518 93.231C33.5159 93.3856 34.2452 93.8147 35.0491 94.294C35.853 94.7732 36.0154 94.0943 35.9961 93.6949C35.236 86.0611 33.7079 70.5694 33.6769 69.6721C33.646 68.7753 32.8781 68.1775 32.498 67.9906L31.5124 67.4882ZM87.2692 67.9906C87.3272 67.2369 87.2666 66.4539 86.3802 66.9084L84.8728 67.6814C84.5764 67.8167 83.9722 68.354 83.9258 69.4208C83.8794 70.4876 82.5536 85.9836 81.8965 93.5982C81.8836 93.9203 82.0395 94.4602 82.7662 94.0427C83.4928 93.6253 84.1126 93.289 84.3316 93.173C84.6537 92.9475 85.3057 92.2685 85.3366 91.3563C85.3676 90.4435 86.6379 75.399 87.2692 67.9906ZM25.4439 64.3573C24.3172 63.7302 24.1885 64.5341 24.265 65.0144C24.9736 72.468 26.4025 87.6109 26.4488 88.554C26.4952 89.4971 26.9578 89.9777 27.1832 90.1001C27.4474 90.2547 28.1766 90.6838 28.9806 91.1631C29.7845 91.6423 29.9469 90.9634 29.9276 90.564C29.1674 82.9302 27.6394 67.4386 27.6084 66.5412C27.5775 65.6444 26.8096 65.0466 26.4295 64.8598L25.4439 64.3573ZM93.4924 65.053C93.5503 64.2993 93.4897 63.5162 92.6033 63.9707L91.0959 64.7438C90.7995 64.8791 90.1953 65.4164 90.1489 66.4832C90.1025 67.55 88.7767 83.0459 88.1196 90.6606C88.1067 90.9827 88.2626 91.5226 88.9893 91.1051C89.716 90.6877 90.3357 90.3514 90.5547 90.2354C90.8769 90.0099 91.5288 89.3309 91.5597 88.4187C91.5907 87.5059 92.861 72.4613 93.4924 65.053ZM19.4527 61.4196C18.326 60.7926 18.1973 61.5965 18.2737 62.0767C18.9824 69.5303 20.4113 84.6733 20.4576 85.6164C20.504 86.5595 20.9666 87.0401 21.192 87.1625C21.4562 87.3171 22.1854 87.7462 22.9894 88.2255C23.7933 88.7047 23.9557 88.0258 23.9364 87.6263C23.1762 79.9926 21.6482 64.5009 21.6172 63.6035C21.5863 62.7068 20.8184 62.109 20.4383 61.9221L19.4527 61.4196Z" fill="#D4D4D6"/>
<path d="M59.3232 89.7719L8.76514 67.9717L9.22897 72.3008L59.3232 93.6372V89.7719Z" fill="#F6F6F7"/>
<path d="M59.3232 94.5644L8.76514 72.7642L9.15167 74.1557L59.2459 95.4921L59.3232 94.5644Z" fill="#F6F6F7"/>
<path d="M53.7185 78.4071L11.3548 57.8824L10.4658 53.8239L55.5352 75.3149L59.0139 76.3199L99.0584 56.5296L102.769 57.2253L96.9711 87.5292L95.6569 91.6264L61.1785 109.098L58.8593 108.556V79.76C57.1972 79.76 55.4578 79.2575 53.7185 78.4071Z" fill="#8D8D8F"/>
</g>
<path d="M16.1092 84.2056L10.9297 55.6797L11.7027 53.2832L55.7671 74.3104L60.4054 74.9289L97.8215 56.5301L101.339 57.7669L95.9661 85.5584C95.224 89.4237 94.1108 91.3563 90.864 93.0571L62.3767 107.088C59.6247 108.511 57.004 108.132 54.7621 106.895L22.1777 91.0085C17.7249 88.813 16.6503 86.9886 16.1092 84.2056Z" stroke="#262933" stroke-width="0.5"/>
<path d="M20.4383 61.9225L19.4527 61.42C18.326 60.793 18.1973 61.5969 18.2738 62.0771C18.9824 69.5307 20.4113 84.6737 20.4577 85.6168C20.504 86.5599 20.9666 87.0405 21.1921 87.1629C21.4562 87.3175 22.1854 87.7466 22.9894 88.2259C23.7934 88.7052 23.9558 88.0262 23.9364 87.6267C23.1763 79.9928 21.6482 64.5007 21.6172 63.6039C21.5863 62.7072 20.8184 62.1094 20.4383 61.9225Z" stroke="#262933" stroke-width="0.5"/>
<path d="M26.4295 64.8593L25.4439 64.3568C24.3172 63.7298 24.1885 64.5336 24.265 65.0139C24.9736 72.4675 26.4025 87.6104 26.4489 88.5536C26.4953 89.4967 26.9578 89.9773 27.1833 90.0997C27.4474 90.2543 28.1767 90.6833 28.9806 91.1626C29.7846 91.6419 29.947 90.9629 29.9276 90.5635C29.1675 82.9296 27.6394 67.4375 27.6085 66.5407C27.5775 65.644 26.8096 65.0461 26.4295 64.8593Z" stroke="#262933" stroke-width="0.5"/>
<path d="M32.4979 67.9909L31.5123 67.4884C30.3856 66.8614 30.2569 67.6652 30.3333 68.1455C31.042 75.5991 32.4708 90.742 32.5172 91.6852C32.5636 92.6283 33.0262 93.1089 33.2516 93.2313C33.5158 93.3859 34.245 93.8149 35.049 94.2942C35.853 94.7735 36.0153 94.0945 35.996 93.6951C35.2358 86.0611 33.7077 70.569 33.6768 69.6723C33.6459 68.7756 32.878 68.1777 32.4979 67.9909Z" stroke="#262933" stroke-width="0.5"/>
<path d="M38.4505 70.8505L37.4649 70.348C36.3382 69.721 36.2095 70.5248 36.286 71.0051C36.9946 78.4587 38.4235 93.6016 38.4699 94.5448C38.5163 95.4879 38.9788 95.9685 39.2043 96.0909C39.4684 96.2455 40.1977 96.6745 41.0016 97.1538C41.8056 97.6331 41.968 96.9541 41.9486 96.5547C41.1885 88.9208 39.6604 73.4287 39.6295 72.5319C39.5985 71.6352 38.8306 71.0373 38.4505 70.8505Z" stroke="#262933" stroke-width="0.5"/>
<path d="M44.4032 73.7884L43.4175 73.2859C42.2908 72.6589 42.1621 73.4627 42.2386 73.943C42.9472 81.3966 44.3761 96.5395 44.4225 97.4826C44.4689 98.4258 44.9314 98.9064 45.1569 99.0288C45.421 99.1834 46.1503 99.6124 46.9543 100.092C47.7583 100.571 47.9206 99.892 47.9013 99.4926C47.1411 91.8586 45.613 76.3665 45.5821 75.4698C45.5512 74.573 44.7833 73.9752 44.4032 73.7884Z" stroke="#262933" stroke-width="0.5"/>
<path d="M50.3168 76.5326L49.3311 76.0302C48.2044 75.4031 48.0757 76.207 48.1522 76.6873C48.8608 84.1408 50.2897 99.2838 50.3361 100.227C50.3825 101.17 50.845 101.651 51.0705 101.773C51.3346 101.928 52.0639 102.357 52.8678 102.836C53.6718 103.315 53.8342 102.636 53.8148 102.237C53.0547 94.6029 51.5266 79.1108 51.4957 78.214C51.4647 77.3173 50.6968 76.7195 50.3168 76.5326Z" stroke="#262933" stroke-width="0.5"/>
<path d="M66.4355 76.6879L67.943 75.9148C68.8294 75.4603 68.89 76.2433 68.832 76.9971C68.2007 84.4056 66.9303 99.4506 66.8994 100.363C66.8684 101.275 66.2165 101.954 65.8944 102.18C65.6753 102.295 65.0556 102.632 64.3289 103.049C63.6022 103.467 63.4463 102.927 63.4592 102.605C64.1163 94.9901 65.4421 79.4941 65.4885 78.4273C65.5349 77.3605 66.1392 76.8232 66.4355 76.6879Z" stroke="#262933" stroke-width="0.5"/>
<path d="M72.5424 73.788L74.0499 73.0149C74.9363 72.5604 74.9969 73.3434 74.9389 74.0972C74.3076 81.5057 73.0372 96.5507 73.0063 97.4629C72.9754 98.3751 72.3234 99.0541 72.0013 99.2796C71.7823 99.3956 71.1625 99.7318 70.4358 100.149C69.7092 100.567 69.5533 100.027 69.5661 99.7048C70.2232 92.0902 71.549 76.5942 71.5954 75.5274C71.6418 74.4606 72.2461 73.9233 72.5424 73.788Z" stroke="#262933" stroke-width="0.5"/>
<path d="M78.727 70.7348L80.2345 69.9617C81.1209 69.5071 81.1815 70.2902 81.1235 71.044C80.4922 78.4525 79.2218 93.4975 79.1909 94.4097C79.1599 95.3219 78.508 96.0009 78.1859 96.2264C77.9668 96.3423 77.3471 96.6786 76.6204 97.0961C75.8937 97.5135 75.7378 96.9737 75.7507 96.6516C76.4078 89.0369 77.7336 73.541 77.78 72.4742C77.8264 71.4073 78.4307 70.8701 78.727 70.7348Z" stroke="#262933" stroke-width="0.5"/>
<path d="M84.8725 67.6815L86.38 66.9085C87.2664 66.4539 87.327 67.237 87.269 67.9908C86.6377 75.3993 85.3673 90.4443 85.3364 91.3565C85.3055 92.2687 84.6535 92.9477 84.3314 93.1732C84.1124 93.2891 83.4926 93.6254 82.7659 94.0429C82.0392 94.4603 81.8833 93.9205 81.8962 93.5983C82.5533 85.9837 83.8791 70.4878 83.9255 69.4209C83.9719 68.3541 84.5762 67.8168 84.8725 67.6815Z" stroke="#262933" stroke-width="0.5"/>
<path d="M91.0956 64.7448L92.6031 63.9717C93.4895 63.5172 93.5501 64.3002 93.4922 65.054C92.8608 72.4625 91.5904 87.5075 91.5595 88.4197C91.5286 89.3319 90.8767 90.0109 90.5545 90.2364C90.3355 90.3524 89.7157 90.6886 88.9891 91.1061C88.2624 91.5235 88.1065 90.9837 88.1194 90.6616C88.7765 83.0469 90.1023 67.551 90.1486 66.4842C90.195 65.4173 90.7993 64.8801 91.0956 64.7448Z" stroke="#262933" stroke-width="0.5"/>
<mask id="mask2_513_14610" style="mask-type:alpha" maskUnits="userSpaceOnUse" x="6" y="47" width="100" height="31">
<path d="M6.871 52.1609V47.6771L18.5829 52.6634L56.4627 71.0622L60.0961 71.2941L95.8887 53.5137L105.339 49.7451V54.0742C105.339 55.5121 104.437 56.3483 103.987 56.5866C91.1473 62.9322 64.7808 75.9556 62.0288 77.2853C59.2767 78.6149 55.9345 77.5816 54.6074 76.8988C39.9322 69.7866 10.1758 55.3884 8.5524 54.6926C6.92898 53.9969 6.75504 52.7149 6.871 52.1609Z" fill="#D9D9D9"/>
</mask>
<g mask="url(#mask2_513_14610)">
<path d="M6.871 52.1609V47.6771L18.5829 52.6634L56.4627 71.0622L60.0961 71.2941L95.8887 53.5137L105.339 49.7451V54.0742C105.339 55.5121 104.437 56.3483 103.987 56.5866C91.1473 62.9322 64.7808 75.9556 62.0288 77.2853C59.2767 78.6149 55.9345 77.5816 54.6074 76.8988C39.9322 69.7866 10.1758 55.3884 8.5524 54.6926C6.92898 53.9969 6.75504 52.7149 6.871 52.1609Z" fill="#D4D4D6"/>
<rect x="58.8594" y="46.4785" width="48.0843" height="34.3238" fill="#8D8D8F"/>
</g>
<path d="M6.871 52.1614V47.6776L18.5829 52.6638L56.4627 71.0626L60.0961 71.2946L95.8887 53.5142L105.339 49.7455V54.0747C105.339 55.5126 104.437 56.3488 103.987 56.5871C91.1473 62.9326 64.7808 75.9561 62.0288 77.2858C59.2767 78.6154 55.9345 77.5821 54.6074 76.8992C39.9322 69.7871 10.1758 55.3889 8.5524 54.6931C6.92898 53.9974 6.75504 52.7154 6.871 52.1614Z" stroke="#262933" stroke-width="0.5"/>
<path d="M56.7358 24.8228L102.665 47.1636L105.243 48.8394L104.985 50.4292L102.793 51.9331L62.3638 71.8687L58.7554 72.6421L55.2319 71.8257L52.3101 70.3647L14.3726 51.9761C11.9666 50.7731 7.19834 48.3842 7.36963 48.4526C7.54149 48.5214 6.95423 47.6505 6.63916 47.2065L7.28369 45.8315L49.4751 24.9946L53.0835 24.2212L56.7358 24.8228ZM50.1235 27.3462L12.1665 46.0923L11.5864 47.3296C11.8699 47.729 12.3983 48.5125 12.2437 48.4507C12.093 48.3908 16.3808 50.5378 18.5444 51.6196L52.6753 68.1636L55.3032 69.4771L58.4731 70.2124L61.7202 69.5161L98.0923 51.5815L100.064 50.228L100.295 48.7983L97.9761 47.2905L56.6558 27.1909L53.3706 26.6499L50.1235 27.3462Z" fill="#D4D4D6"/>
<path d="M61.8354 69.4796L98.2465 51.4673C102.139 49.5419 99.8893 48.2012 98.2465 47.4474C85.8003 41.5142 60.2236 29.2496 57.487 27.6571C54.7503 26.0646 51.5409 26.7616 50.2782 27.3092L13.8091 45.3408C10.7942 46.8405 11.3354 48.0465 13.4806 49.1095L53.8729 68.7065C57.8619 70.9638 60.0574 70.2526 61.8354 69.4796Z" stroke="#262933" stroke-width="0.5"/>
<path d="M63.5751 71.3352L101.648 52.4339C103.251 51.6383 105.61 50.5784 105.34 49.2449C105.123 48.178 103.536 47.3444 102.769 47.061C89.3437 40.6768 61.5922 27.4177 57.9897 25.4541C54.3873 23.4906 50.4073 24.6102 48.8676 25.4155L8.64924 45.2444C5.77346 46.6823 6.71661 48.3365 8.49463 49.2257L54.6462 71.6444C57.924 73.3142 61.2559 72.5334 63.5751 71.3352Z" stroke="#262933" stroke-width="0.5"/>
<mask id="mask3_513_14610" style="mask-type:alpha" maskUnits="userSpaceOnUse" x="20" y="4" width="58" height="56">
<path d="M34.1213 59.1197L28.7099 56.4526C26.5647 49.4178 22.0771 34.722 21.2885 32.2172C20.3029 29.0864 20.4382 26.7672 21.5011 24.1001C22.3515 21.9665 25.1796 20.1575 26.4874 19.5198C35.2745 15.1584 53.0265 6.34283 53.7377 5.97176C54.6267 5.50793 57.9315 3.42067 61.3523 4.15507C64.6456 4.88175 66.7315 8.117 67.3629 9.64379L77.8378 37.6625L72.7018 35.1839C70.2666 28.7353 64.9934 14.9162 63.4009 11.1127C61.8084 7.30929 58.5371 7.69839 57.1005 8.36838C48.8932 12.5042 31.6321 21.1818 28.2461 22.8052C24.8601 24.4287 24.8768 28.3648 25.3085 30.13L34.1213 59.1197Z" fill="#D9D9D9"/>
</mask>
<g mask="url(#mask3_513_14610)">
<path d="M34.1213 59.1197L28.7099 56.4526C26.5647 49.4178 22.0771 34.722 21.2885 32.2172C20.3029 29.0864 20.4382 26.7672 21.5011 24.1001C22.3515 21.9665 25.1796 20.1575 26.4874 19.5198C35.2745 15.1584 53.0265 6.34283 53.7377 5.97176C54.6267 5.50793 57.9315 3.42067 61.3523 4.15507C64.6456 4.88175 66.7315 8.117 67.3629 9.64379L77.8378 37.6625L72.7018 35.1839C70.2666 28.7353 64.9934 14.9162 63.4009 11.1127C61.8084 7.30929 58.5371 7.69839 57.1005 8.36838C48.8932 12.5042 31.6321 21.1818 28.2461 22.8052C24.8601 24.4287 24.8768 28.3648 25.3085 30.13L34.1213 59.1197Z" fill="#D4D4D6"/>
<path d="M24.9316 29.8781C23.2599 21.9736 26.8804 19.5256 28.7873 18.6881L57.777 4L62.0675 4.23192L65.7782 6.82166L67.5562 10.0299L76.3304 33.3376L77.7219 37.6667L72.6197 35.1156C69.9784 27.9906 64.3944 13.0911 63.1884 10.4936C61.9824 7.89616 58.9495 7.78793 57.5837 8.0585C50.3685 11.7821 34.7785 19.7781 30.1401 21.9736C25.5018 24.169 24.9606 26.1867 25.2699 26.9211C25.2183 27.3206 25.4264 29.2597 24.9316 29.8781Z" fill="#8D8D8F"/>
</g>
<path d="M34.1213 59.1197L28.7099 56.4526C26.5647 49.4178 22.0771 34.722 21.2885 32.2172C20.3029 29.0864 20.4382 26.7672 21.5011 24.1001C22.3515 21.9665 25.1796 20.1575 26.4874 19.5198C35.2745 15.1584 53.0265 6.34283 53.7377 5.97176C54.6267 5.50793 57.9315 3.42067 61.3523 4.15507C64.6456 4.88175 66.7315 8.117 67.3629 9.64379L77.8378 37.6625L72.7018 35.1839C70.2666 28.7353 64.9934 14.9162 63.4009 11.1127C61.8084 7.30929 58.5371 7.69839 57.1005 8.36838C48.8932 12.5042 31.6321 21.1818 28.2461 22.8052C24.8601 24.4287 24.8768 28.3648 25.3085 30.13L34.1213 59.1197Z" stroke="#262933" stroke-width="0.5"/>
<path d="M80.4857 21.7233C80.4857 20.0844 79.9703 19.1722 79.7127 18.9209C79.6998 18.6632 80.1688 18.2174 82.1478 18.4957C84.1268 18.774 84.7891 20.5701 84.8728 21.4334L85.0081 26.7868L85.3076 41.2429L80.7949 39.0784C80.6919 33.9762 80.4857 23.3622 80.4857 21.7233Z" fill="#8D8D8F" stroke="#262933" stroke-width="0.5"/>
<path d="M47.186 39.0591L41.0595 62.4877L36.9526 60.4922L42.5863 38.1701C44.0706 32.264 46.9154 30.8647 50.5488 28.9321C57.1971 25.5692 71.3364 18.4029 74.7069 16.6404C78.9201 14.4371 83.829 16.5244 84.7567 20.583C83.5816 17.8309 80.6079 18.4571 79.2679 19.1142C72.2073 22.6703 57.0657 30.2926 52.9839 32.3335C48.9022 34.3744 47.4179 37.6676 47.186 39.0591Z" fill="#DBDBDD" stroke="#262933" stroke-width="0.5"/>
<defs>
<filter id="filter0_f_513_14610" x="4" y="81" width="110" height="50" filterUnits="userSpaceOnUse" color-interpolation-filters="sRGB">
<feFlood flood-opacity="0" result="BackgroundImageFix"/>
<feBlend mode="normal" in="SourceGraphic" in2="BackgroundImageFix" result="shape"/>
<feGaussianBlur stdDeviation="7.5" result="effect1_foregroundBlur_513_14610"/>
</filter>
</defs>
</svg>
