<svg width="48" height="48" viewBox="0 0 48 48" fill="none" xmlns="http://www.w3.org/2000/svg">
<path d="M38.5 31C43.5 31.3333 43.5 35.5 43.5 38H31H28.5L14.3816 23.5L10 19L14.1905 15L21 8.5C21.1201 8.68016 21.2911 8.90576 21.5 9.16393C22.4508 10.3388 24.1883 12.1883 25.5 13.5C27.1 15.1 30.5 15 31.5 14.5L31.6731 19L31.8077 22.5L32 27.5L38.5 31Z" fill="#F8EA88"/>
<path d="M38.5 31C43.5 31.3333 43.5 35.5 43.5 38H31M38.5 31L32 27.5L31.8077 22.5M38.5 31C36 30.8333 31 32 31 38M31.5 14.5C30.5 15 27.1 15.1 25.5 13.5C24.1883 12.1883 22.4508 10.3388 21.5 9.16393M31.5 14.5L31.6731 19M31.5 14.5L34 12M14.1905 15L21 8.5C21.1201 8.68016 21.2911 8.90576 21.5 9.16393M14.1905 15L10 19L14.3816 23.5M14.1905 15C16 17 19 19.5 14.3816 23.5M14.3816 23.5L28.5 38H31M31.6731 19H25.5M31.6731 19L31.8077 22.5M31.8077 22.5H26.5M21.5 9.16393L25.5 5" stroke="#262933" stroke-width="1.5" stroke-linecap="round" stroke-linejoin="round"/>
<path d="M28.5 38L9.99998 19C9.33332 18.5 7.69998 17.8 6.49998 19C5.29998 20.2 5.99998 21.8333 6.49998 22.5L27 42.5H43.5C44.5 42.5 46 42 46 40.5C46 38.5 44.3333 38 43.5 38H28.5Z" fill="white"/>
<path d="M27 42.5H43.5C44.5 42.5 46 42 46 40.5C46 38.5 44.3333 38 43.5 38H28.5L9.99998 19C9.33332 18.5 7.69998 17.8 6.49998 19C5.29998 20.2 5.99998 21.8333 6.49998 22.5L27 42.5ZM27 42.5H8" stroke="#262933" stroke-width="1.5" stroke-linecap="round" stroke-linejoin="round"/>
<path d="M11 38H7" stroke="#262933" stroke-width="1.5" stroke-linecap="round" stroke-linejoin="round"/>
<path d="M13 35H3" stroke="#262933" stroke-width="1.5" stroke-linecap="round" stroke-linejoin="round"/>
<path d="M8.5 32H2" stroke="#262933" stroke-width="1.5" stroke-linecap="round" stroke-linejoin="round"/>
</svg>
