<svg width="48" height="48" viewBox="0 0 48 48" fill="none" xmlns="http://www.w3.org/2000/svg">
<rect x="3.75" y="5.42346" width="40.5" height="16.5" rx="3.25" fill="white" stroke="#262933" stroke-width="1.5"/>
<path d="M7 5.42346H30.75V21.9235H7C5.20507 21.9235 3.75 20.4684 3.75 18.6735V8.67346C3.75 6.87854 5.20507 5.42346 7 5.42346Z" fill="#F8EA88" stroke="#262933" stroke-width="1.5"/>
<rect x="30.1934" y="28.4309" width="7.15158" height="1.5" rx="0.75" transform="rotate(45 30.1934 28.4309)" fill="#262933"/>
<circle cx="23.25" cy="22.5485" r="11.25" fill="#F8EA88" stroke="#262933" stroke-width="1.5"/>
<path d="M42.0855 38.9074C42.5735 39.3956 42.5736 40.1871 42.0855 40.6752L41.3784 41.3823C40.8903 41.8704 40.0988 41.8702 39.6106 41.3823L32.9187 34.6903L35.3936 32.2154L42.0855 38.9074Z" fill="white" stroke="#262933" stroke-width="1.5"/>
<path d="M28.6996 20.9254C28.7554 21.3358 29.0858 21.6735 29.5 21.6735C29.9142 21.6735 30.2542 21.3365 30.2104 20.9246C29.8629 17.6568 27.2667 15.0606 23.9988 14.713C23.5869 14.6692 23.25 15.0092 23.25 15.4235C23.25 15.8377 23.5876 16.1681 23.9981 16.2239C26.4372 16.5556 28.3679 18.4863 28.6996 20.9254Z" fill="#262933"/>
<circle cx="29.5" cy="24.5521" r="0.75" transform="rotate(90 29.5 24.5521)" fill="#262933"/>
<circle cx="8.5" cy="13.6735" r="0.75" transform="rotate(90 8.5 13.6735)" fill="#262933"/>
<circle cx="11" cy="13.6735" r="0.75" transform="rotate(90 11 13.6735)" fill="#262933"/>
<circle cx="13.5" cy="13.6735" r="0.75" transform="rotate(90 13.5 13.6735)" fill="#262933"/>
</svg>
