<svg width="40" height="27" viewBox="0 0 40 27" fill="none" xmlns="http://www.w3.org/2000/svg">
<g clip-path="url(#clip0_6065_2303)">
<path d="M0 0H40V27H0V0Z" fill="#0052B4"/>
<path d="M34.3158 14.2974C34.308 17.3921 33.8168 20.7237 29.8402 22.3105C25.8557 20.7237 25.3723 17.3921 25.3645 14.2974H34.3158Z" fill="white"/>
<path d="M34.2768 15.6079C34.0585 18.3632 33.3099 20.9289 29.8324 22.3184C26.3704 20.9289 25.5828 18.2763 25.3957 15.6158" fill="#29DBFF"/>
<path d="M34.1364 16.9026C33.8869 18.8211 32.8343 21.1263 29.8402 22.3184C26.846 21.1263 25.9025 18.9632 25.5439 16.9184" fill="white"/>
<path d="M33.8558 18.1816C33.4113 19.5789 32.3509 21.2921 29.8558 22.35C27.3606 21.3553 26.3314 19.6816 25.848 18.1658" fill="#29DBFF"/>
<path d="M33.271 19.4921C32.7641 20.3842 31.8908 21.4974 29.8402 22.3263C27.6959 21.4184 26.924 20.3289 26.4094 19.4763" fill="white"/>
<path d="M32.1559 20.9289C31.5244 21.4974 31.2203 21.8132 29.848 22.3421C28.2807 21.7184 28.0858 21.4263 27.5712 20.9605" fill="#29DBFF"/>
<path d="M29.8869 18.2842C29.8713 18.2684 27.7115 21.1026 27.7115 21.1026C27.5712 21 26.9318 20.3526 26.6745 19.9184L29.8947 15.9632L33.0292 19.8868C32.7252 20.4 32.1404 20.9605 32 21.0711L29.8869 18.2842ZM29.8324 6.73421L27.7661 10.2868H31.8986L29.8324 6.73421Z" fill="#5CC85C"/>
<path d="M23.9376 17.986C24.2185 15.8817 23.9032 14.1015 23.2332 14.0098C22.5632 13.9181 21.7923 15.5496 21.5113 17.6538C21.2303 19.7581 21.5456 21.5382 22.2156 21.63C22.8856 21.7217 23.6566 20.0902 23.9376 17.986Z" fill="#F7A226"/>
<path d="M24.156 13.2122C24.3439 12.7389 24.263 12.2603 23.9754 12.1432C23.6877 12.0261 23.3021 12.3149 23.1142 12.7882C22.9262 13.2615 23.0071 13.7401 23.2948 13.8572C23.5825 13.9743 23.968 13.6855 24.156 13.2122Z" fill="#DDC7AB"/>
<path d="M22.9993 21.487C23.0699 20.9951 23.013 20.5796 22.8724 20.5589C22.7318 20.5382 22.5606 20.9202 22.49 21.4121C22.4195 21.904 22.4763 22.3195 22.6169 22.3402C22.7576 22.3609 22.9288 21.9789 22.9993 21.487Z" fill="#DDC7AB"/>
<path d="M23.4073 22.1364C23.5492 22.1287 23.6437 21.7342 23.6183 21.2552C23.593 20.7763 23.4574 20.3942 23.3155 20.4019C23.1735 20.4096 23.0791 20.8042 23.1044 21.2831C23.1298 21.762 23.2654 22.1441 23.4073 22.1364Z" fill="#DDC7AB"/>
<path d="M24.9156 16.8835C25.0798 16.8179 25.0376 16.3142 24.8212 15.7585C24.6048 15.2028 24.2962 14.8055 24.132 14.8711C23.9677 14.9366 24.01 15.4403 24.2264 15.996C24.4428 16.5517 24.7513 16.949 24.9156 16.8835Z" fill="#DDC7AB"/>
<path d="M24.8743 14.3618C25.4232 14.1427 25.8156 13.8303 25.7508 13.664C25.6861 13.4977 25.1886 13.5405 24.6398 13.7596C24.091 13.9787 23.6985 14.2911 23.7633 14.4574C23.828 14.6237 24.3255 14.5809 24.8743 14.3618Z" fill="#DDC7AB"/>
<path d="M37.4372 21.6462C38.1072 21.5544 38.4226 19.7743 38.1416 17.67C37.8606 15.5658 37.0897 13.9343 36.4197 14.026C35.7497 14.1177 35.4343 15.8979 35.7153 18.0022C35.9963 20.1064 36.7672 21.7379 37.4372 21.6462Z" fill="#F7A226"/>
<path d="M36.365 13.8769C36.6527 13.7598 36.7335 13.2812 36.5456 12.8079C36.3577 12.3346 35.9721 12.0458 35.6844 12.1629C35.3967 12.28 35.3159 12.7586 35.5038 13.2319C35.6917 13.7052 36.0773 13.994 36.365 13.8769Z" fill="#DDC7AB"/>
<path d="M37.0399 22.355C37.1806 22.3343 37.2373 21.9187 37.1667 21.4268C37.0961 20.935 36.9249 20.553 36.7842 20.5737C36.6436 20.5944 36.5868 21.0099 36.6575 21.5018C36.7281 21.9937 36.8993 22.3757 37.0399 22.355Z" fill="#DDC7AB"/>
<path d="M36.5518 21.2967C36.5771 20.8177 36.4826 20.4232 36.3407 20.4155C36.1988 20.4078 36.0632 20.7899 36.0379 21.2688C36.0125 21.7477 36.107 22.1422 36.2489 22.1499C36.3908 22.1576 36.5264 21.7756 36.5518 21.2967Z" fill="#DDC7AB"/>
<path d="M35.4261 16.0018C35.6425 15.4461 35.6848 14.9424 35.5205 14.8768C35.3563 14.8113 35.0477 15.2086 34.8313 15.7643C34.6149 16.32 34.5727 16.8237 34.7369 16.8892C34.9012 16.9548 35.2097 16.5575 35.4261 16.0018Z" fill="#DDC7AB"/>
<path d="M35.8959 14.4698C35.9607 14.3035 35.5682 13.9911 35.0194 13.772C34.4706 13.5529 33.9731 13.5101 33.9084 13.6764C33.8436 13.8427 34.236 14.1551 34.7849 14.3742C35.3337 14.5933 35.8312 14.6361 35.8959 14.4698Z" fill="#DDC7AB"/>
<path d="M29.1072 10.2868L27.7661 12.2368L29.154 14.2974H30.8772L31.2437 12.2921L30.8226 10.2868H29.1072Z" fill="#B0C6CC"/>
<path d="M19.961 0V9.26842H16.3665L19.961 11.6921V13.4763H18.1988L12.4756 9.61579V13.4763H7.48538V9.61579L1.76218 13.4763H0V11.6921L3.59454 9.26842H0V4.21579H3.59454L0 1.79211V0H1.76218L7.48538 3.86053V0H12.4756V3.86053L18.1988 0H19.961Z" fill="white"/>
<path d="M11.2281 0H8.73294V5.47895H0V8.00526H8.73294V13.4763H11.2281V8.00526H19.961V5.47895H11.2281V0Z" fill="#D80027"/>
<path d="M19.961 1.7921V4.21579H16.3665L19.961 1.7921Z" fill="#2E52B2"/>
<path d="M0 13.4763V12.6079L4.87329 9.26842H6.63548L0.569201 13.4763H0Z" fill="#D80027"/>
<path d="M0.569201 0.00789452L6.63548 4.20789H4.87329L0 0.876316V0.00789452H0.569201ZM19.961 0.00789452V0.876316L15.0877 4.21579H13.3255L19.3918 0.00789452H19.961ZM19.3918 13.4763L13.3255 9.26842H15.0877L19.961 12.6079V13.4763H19.3918Z" fill="#D80027"/>
</g>
<defs>
<clipPath id="clip0_6065_2303">
<rect width="40" height="27" fill="white"/>
</clipPath>
</defs>
</svg>
