<svg width="40" height="27" viewBox="0 0 40 27" fill="none" xmlns="http://www.w3.org/2000/svg">
<g clip-path="url(#clip0_6065_2290)">
<path d="M0 0H40V27H0V0Z" fill="#FFDA44"/>
<path d="M0 0H13.3333V27H0V0Z" fill="#0052B4"/>
<path d="M26.6667 0H40V27H26.6667V0ZM15.5088 8.96842H19.961V14.0842H15.5088V8.96842Z" fill="#D80027"/>
<path d="M20.8655 8.96842V14.0763V8.96842ZM22.1599 8.96842V14.0763V8.96842ZM23.4542 8.96842V14.0763V8.96842Z" fill="black"/>
<path fill-rule="evenodd" clip-rule="evenodd" d="M21.1384 8.96842V14.0763H20.5926V8.96842H21.1384ZM22.4327 8.96842V14.0763H21.8869V8.96842H22.4327ZM23.1813 14.0763V8.96842H23.7271V14.0763H23.1813Z" fill="#D80027"/>
<path d="M19.2905 14.0842V19.1921V14.0842ZM18.2534 14.0842V19.1921V14.0842ZM17.2164 14.0921V18.3474V14.0921ZM16.1482 14.0921V17.8105V14.0921Z" fill="black"/>
<path fill-rule="evenodd" clip-rule="evenodd" d="M18.4483 14.0842V19.1921H18.0585V14.0842H18.4483ZM19.4854 14.0842V19.1921H19.0955V14.0842H19.4854ZM15.9532 17.8105V14.0921H16.3431V17.8105H15.9532ZM17.4113 14.0921V18.3474H17.0214V14.0921H17.4113Z" fill="#D80027"/>
<path d="M15.5867 11.5263L17.7388 8.96842L19.961 11.5184L17.77 14.0763L15.5867 11.5263Z" fill="#FFDA44"/>
<path d="M14.2066 7.57105V14.85C14.2066 17.5579 16.3353 19.1289 17.9961 19.9421C17.9337 20.0526 19.9532 20.5974 19.9532 20.5974C19.9532 20.5974 21.9727 20.0526 21.9103 19.9421C23.579 19.1289 25.6998 17.5658 25.6998 14.85V7.57105H14.2066ZM24.3353 14.85C24.3353 16.1842 23.5556 17.1711 21.7778 18.3158C21.1072 18.75 20.4133 19.0263 19.961 19.1842C19.5088 19.0263 18.8148 18.75 18.1443 18.3158C16.3665 17.1711 15.5868 16.1053 15.5868 14.85V8.96842H24.3353V14.85Z" fill="#BC8B00"/>
<path d="M20.616 14.9132H22.9162V15.5921H20.616V14.9132ZM20.616 16.3026H22.9162V16.9816H20.616V16.3026Z" fill="#D80027"/>
</g>
<defs>
<clipPath id="clip0_6065_2290">
<rect width="40" height="27" fill="white"/>
</clipPath>
</defs>
</svg>
