<svg width="40" height="27" viewBox="0 0 40 27" fill="none" xmlns="http://www.w3.org/2000/svg">
<g clip-path="url(#clip0_6065_2279)">
<path d="M0 0H40V27H0V0Z" fill="#DB3E00"/>
<path d="M25.809 0H40V27H25.809V0Z" fill="#479900"/>
<path d="M0 0H14.1754V27H0V0Z" fill="black"/>
<path d="M19.961 10.0026C18.4483 10.0026 17.2164 11.25 17.2164 12.7816V16.95H22.7056V12.7816C22.7056 11.2421 21.4737 10.0026 19.961 10.0026Z" fill="white"/>
<path d="M19.961 6.65526C16.2417 6.65526 13.2242 9.71052 13.2242 13.4763C13.2242 17.2421 16.2417 20.2895 19.961 20.2895C23.6803 20.2895 26.6979 17.2342 26.6979 13.4684C26.6979 9.70263 23.6803 6.65526 19.961 6.65526ZM19.961 19.1053C16.8889 19.1053 14.3938 16.5789 14.3938 13.4684C14.3938 10.3579 16.8889 7.83157 19.961 7.83157C23.0331 7.83157 25.5283 10.3579 25.5283 13.4684C25.5283 16.5868 23.0331 19.1053 19.961 19.1053Z" fill="white"/>
</g>
<defs>
<clipPath id="clip0_6065_2279">
<rect width="40" height="27" fill="white"/>
</clipPath>
</defs>
</svg>
