<svg width="40" height="27" viewBox="0 0 40 27" fill="none" xmlns="http://www.w3.org/2000/svg">
<g clip-path="url(#clip0_6065_2271)">
<path d="M0 0H40V27H0V0Z" fill="black"/>
<path d="M6.92398 10.7763C6.75244 11.7947 6.65887 12.8447 6.65887 13.9184C6.65887 14.9921 6.75244 16.05 6.92398 17.0605L19.961 18.0237L32.9981 17.0684C33.1696 16.05 33.2632 15 33.2632 13.9263C33.2632 12.8526 33.1696 11.7947 32.9981 10.7842" fill="#0072C6"/>
<path d="M32.998 17.2895H6.92395C8.15592 22.8 13.5282 26.9448 19.961 26.9448C26.3937 26.9448 31.7661 22.8 32.998 17.2895Z" fill="white"/>
<path d="M28.5302 10.7763H11.3918L14.8928 9.11052L13.0292 5.67631L16.8343 6.41841L17.3099 2.52631L19.961 5.3842L22.6121 2.52631L23.0877 6.41841L26.8928 5.67631L25.0292 9.11052L28.5302 10.7763Z" fill="#FFDA44"/>
<path d="M20 27L0 0V27H20Z" fill="#CE1126"/>
<path d="M40 27V0L19.961 27H40Z" fill="#CE1126"/>
</g>
<defs>
<clipPath id="clip0_6065_2271">
<rect width="40" height="27" fill="white"/>
</clipPath>
</defs>
</svg>
