<svg width="40" height="27" viewBox="0 0 40 27" fill="none" xmlns="http://www.w3.org/2000/svg">
<g clip-path="url(#clip0_6065_2261)">
<path d="M0 0H40V27H0V0Z" fill="#00318B"/>
<path d="M35.462 20.9511C36.0811 20.0882 36.4944 19.035 36.4944 17.76V8.2808C35.6849 8.89762 34.6989 9.23048 33.6858 9.22896C32.1544 9.22896 30.7953 8.48449 29.9408 7.33344C29.087 8.48449 27.7271 9.22896 26.1957 9.22896C25.1415 9.22896 24.1692 8.87607 23.3871 8.28159V17.76C23.3871 19.0358 23.8004 20.089 24.4195 20.9511H35.462Z" fill="white"/>
<path d="M24.1895 20.6037C25.9376 23.4442 29.9415 24.3948 29.9415 24.3948C29.9415 24.3948 33.9454 23.4442 35.6935 20.6037H24.1895Z" fill="#8DCCFF"/>
<path d="M30.9287 13.5955C30.9536 13.7076 31.6086 14.3984 32.2979 15.1863C32.4062 15.3102 31.6164 16.1834 31.7591 16.1802C32.1294 16.1708 33.2616 14.8176 33.2671 16.7053C33.271 17.9637 30.9279 18.8771 30.9279 18.8771H32.2901L32.3407 20.0581C32.3407 20.0581 32.7283 19.005 32.9326 18.75C33.5641 17.9629 34.5061 16.376 35.6296 16.6105C36.7532 16.845 34.5645 15.5116 34.5645 15.5116C34.5645 15.5116 34.1591 14.3124 33.2678 14.1718C32.4834 14.0479 32.1536 13.9737 31.1907 13.5955C31.0597 13.5442 30.8881 13.4124 30.9287 13.5955Z" fill="#D87B00"/>
<path d="M28.046 15.6861C28.1295 15.6079 28.3938 14.689 28.7236 13.6903C28.7758 13.5332 29.9174 13.7905 29.8425 13.6666C29.6499 13.3461 27.9259 13.0287 29.5384 12.0813C30.6137 11.4498 32.5653 13.05 32.5653 13.05L31.8854 11.8548L32.871 11.2208C32.871 11.2208 31.7755 11.4063 31.4565 11.3542C30.4679 11.1932 28.6394 11.1584 28.2792 10.0555C27.9189 8.95265 27.8698 11.539 27.8698 11.539C27.8698 11.539 27.0464 12.4926 27.3708 13.3453C27.6562 14.0953 27.7575 14.4221 27.9142 15.4555C27.9369 15.5969 27.9096 15.8132 28.046 15.6861Z" fill="#D87B00"/>
<path d="M30.8515 17.3582C30.7431 17.3242 29.8254 17.5548 28.807 17.7671C28.6464 17.8003 28.2932 16.6713 28.2246 16.7992C28.0476 17.1284 28.6425 18.7974 27.023 17.8611C25.9439 17.2366 26.3298 14.7245 26.3298 14.7245L25.6507 15.9198L24.6144 15.375C24.6144 15.375 25.3232 16.2403 25.4386 16.5466C25.7973 17.4932 26.6862 19.1116 25.9252 19.98C25.1641 20.8492 27.3973 19.5932 27.3973 19.5932C27.3973 19.5932 28.6261 19.8355 29.1907 19.1226C29.6881 18.4958 29.9158 18.2432 30.7197 17.5871C30.8312 17.4987 31.0293 17.4142 30.8515 17.3582Z" fill="#D87B00"/>
<path d="M20 0H18.1988L12.4756 3.86053V0H7.48538V3.86053L1.76218 0H0V1.79211L3.59454 4.21579H0V9.26842H3.59454L0 11.6921V13.5H1.76218L7.48538 9.61579V13.5H12.4756V9.61579L18.1988 13.5H20V11.6921L16.3665 9.26842H20V4.21579H16.3665L20 1.79211V0Z" fill="white"/>
<path d="M11.2281 0H8.73294V5.47895H0V8.00526H8.73294V13.5H11.2281V8.00526H20V5.47895H11.2281V0Z" fill="#D80027"/>
<path d="M0 13.5V12.6079L4.87329 9.26843H6.63548L0.569201 13.5H0ZM0.569201 0.00790405L6.63548 4.2079H4.87329L0 0.876325V0.00790405H0.569201ZM20 0.00790405V0.876325L15.0877 4.2158H13.3255L19.3918 0.00790405H20ZM19.3918 13.5L13.3255 9.26843H15.0877L20 12.6079V13.5H19.3918Z" fill="#D80027"/>
</g>
<defs>
<clipPath id="clip0_6065_2261">
<rect width="40" height="27" fill="white"/>
</clipPath>
</defs>
</svg>
