<svg width="40" height="27" viewBox="0 0 40 27" fill="none" xmlns="http://www.w3.org/2000/svg">
<g clip-path="url(#clip0_6065_2253)">
<path d="M0 0H40V27H0V0Z" fill="#ED2024"/>
<path d="M14.4445 5.48999V12.69L17.6 13.815L15.3778 16.02L16.4445 17.37L18.8 14.895L19.3333 15.93L18 18.135L19.6 20.655L18.8 21.825L20.0445 23.445L21.2445 21.78L20.5778 20.61L21.9111 18L20.7111 15.93L21.2445 14.895L23.5556 17.37L24.6667 16.065L22.3556 13.77L25.5556 12.6V5.48999L23.2445 6.34499L23.2 8.05499L21.7333 8.18999V7.01999L22.4889 5.98499L24.9778 4.99499L23.9556 4.81499L24.5778 4.27499L24.9778 4.45499L24.6222 3.82499L24 4.04999L23.5556 3.55499L21.1111 4.04999L21.7333 4.54499L20.0445 6.74999L18.3556 4.58999L18.9333 4.09499L16.7111 3.55499L16.0889 4.04999L15.4222 3.86999L15.0667 4.49999L15.4667 4.22999L16.1778 4.72499L15.1556 4.94999L17.6 5.84999L18.3111 6.88499V8.18999L16.8445 8.05499V6.43499L14.4445 5.48999Z" fill="#212121"/>
<path d="M11.6444 11.25H14.4889V12.375H11.6444V11.25ZM11.6444 9.40497H14.4889V10.62H11.6444V9.40497ZM11.6444 7.51497H14.4889V8.68497H11.6444V7.51497ZM11.6444 5.71497H14.4889V6.83997H11.6444V5.71497Z" fill="#212121"/>
<path d="M25.5111 11.25H28.3556V12.375H25.5111V11.25ZM25.5111 9.40497H28.3556V10.62H25.5111V9.40497ZM25.5111 7.51497H28.3556V8.68497H25.5111V7.51497ZM25.5111 5.71497H28.3556V6.83997H25.5111V5.71497Z" fill="#212121"/>
<path d="M23.7333 16.2451H26.5778V17.1001H23.7333V16.2451ZM13.4222 16.2451H16.2667V17.1001H13.4222V16.2451Z" fill="#212121"/>
</g>
<defs>
<clipPath id="clip0_6065_2253">
<rect width="40" height="27" fill="white"/>
</clipPath>
</defs>
</svg>
