<svg width="40" height="27" viewBox="0 0 40 27" fill="none" xmlns="http://www.w3.org/2000/svg">
<g clip-path="url(#clip0_6065_2241)">
<path d="M0 13.5H40V27H0V13.5Z" fill="black"/>
<path d="M0 0H40V13.5H0V0Z" fill="#D80027"/>
<path d="M25.9415 10.7053L27.306 10.0263L26.729 8.5263L25.2709 9.01578L25.9415 10.7053ZM22.3859 6.2842L22.8148 4.79999L21.3255 4.23157L20.7017 5.65262L22.3859 6.2842ZM24.6783 8.11578L25.6296 6.90788L24.4678 5.81051L23.3606 6.8842L24.6783 8.11578ZM26.191 13.5553L27.7115 13.4921V11.8105L25.9259 11.8263L26.191 13.5553ZM25.2085 16.5631L26.6744 16.9974L27.2436 15.4974L25.8401 14.8658L25.2085 16.5631ZM22.9473 19.121L24.1091 20.1237L25.2319 18.9868L24.2105 17.8263L22.9473 19.121ZM19.2826 7.46051L20.0468 9.03157L21.7544 9.29209L20.5146 10.5158L20.7953 12.2447L19.267 11.4237L17.731 12.2289L18.0273 10.5L16.7953 9.2763L18.5107 9.03157L19.2826 7.46051Z" fill="#FFDA44"/>
<path d="M19.5555 4.83945L19.345 6.28418C22.7056 6.53682 25.3489 9.37892 25.3489 12.8447C25.3489 16.4763 22.4405 19.3894 18.846 19.4289C16.5692 19.4526 14.846 18.2605 13.6218 16.7684L12.538 17.7394C13.7076 19.2394 15.7193 20.8894 18.846 20.8894C23.2358 20.8894 26.7914 17.2894 26.7914 12.8447C26.7992 8.64471 23.6179 5.19471 19.5555 4.83945Z" fill="#FFDA44"/>
<path d="M22.7602 17.6368L21.8401 18.7421C21.8401 18.7421 25.8869 21.8132 26.0194 21.9316C26.152 22.05 26.4249 22.0895 26.729 21.7184C27.0175 21.3632 26.9473 21.0789 26.7992 20.9526C26.6432 20.8342 22.7602 17.6368 22.7602 17.6368Z" fill="black"/>
<path d="M16.0702 12.4105C15.4698 13.2237 15.4854 14.2342 16.2885 14.85C16.2885 14.85 26.8304 22.8632 26.9629 22.9816C27.0955 23.1 27.3684 23.1395 27.6725 22.7684C27.961 22.4132 27.8908 22.1289 27.7427 22.0026C27.5945 21.8842 16.0702 12.4105 16.0702 12.4105ZM19.7895 20.2342L20.3587 21.671L21.8791 21.1974L21.5049 19.6895L19.7895 20.2342ZM16.6394 19.9421L16.4834 21.4816L18.0507 21.7658L18.4015 20.2579L16.6394 19.9421ZM13.8557 18.2684L13.0526 19.5789L14.3314 20.5342L15.306 19.3342L13.8557 18.2684Z" fill="#FFDA44"/>
</g>
<defs>
<clipPath id="clip0_6065_2241">
<rect width="40" height="27" fill="white"/>
</clipPath>
</defs>
</svg>
