<svg width="40" height="27" viewBox="0 0 40 27" fill="none" xmlns="http://www.w3.org/2000/svg">
<g clip-path="url(#clip0_6065_2233)">
<path d="M0 0H39.922V27H0V0Z" fill="white"/>
<path d="M0 0H39.922V9H0V0ZM0 18H39.922V27H0V18Z" fill="#338AF3"/>
<path d="M20 16.6579C21.7225 16.6579 23.1189 15.2441 23.1189 13.5C23.1189 11.7559 21.7225 10.3421 20 10.3421C18.2775 10.3421 16.8811 11.7559 16.8811 13.5C16.8811 15.2441 18.2775 16.6579 20 16.6579Z" fill="#FFDA44"/>
<path fill-rule="evenodd" clip-rule="evenodd" d="M20 10.5395C18.3851 10.5395 17.076 11.8649 17.076 13.5C17.076 15.135 18.3851 16.4605 20 16.4605C21.6149 16.4605 22.924 15.135 22.924 13.5C22.924 11.8649 21.6149 10.5395 20 10.5395ZM16.6862 13.5C16.6862 11.6469 18.1698 10.1447 20 10.1447C21.8302 10.1447 23.3138 11.6469 23.3138 13.5C23.3138 15.353 21.8302 16.8552 20 16.8552C18.1698 16.8552 16.6862 15.353 16.6862 13.5Z" fill="#D6AB00"/>
</g>
<defs>
<clipPath id="clip0_6065_2233">
<rect width="40" height="27" fill="white"/>
</clipPath>
</defs>
</svg>
