<svg width="40" height="27" viewBox="0 0 40 27" fill="none" xmlns="http://www.w3.org/2000/svg">
<g clip-path="url(#clip0_6065_2226)">
<path d="M0 0H40V27H0V0Z" fill="#10338C"/>
<path d="M40 2.60526L7.4308 13.5L40 24.5337V26.9471L0 13.5L40 0V2.60526Z" fill="#D80027"/>
<path d="M40 22.6721V24.6126L6.37195 13.5L40 2.36841V4.27578" fill="white"/>
<path d="M37.1914 11.0692L35.4846 11.9124L35.2366 10.7029L37.6686 8.35263C37.6686 8.35263 36.9341 5.14342 36.5965 4.80157L27.8386 9.20842L27.3053 12.1105L24.8179 14.3676L24.7867 17.0676L27.4604 15.2708L32.7025 15.0608L32.5848 18.0695H34.3181L35.246 14.5453L37.706 12.6024L37.1914 11.0692Z" fill="#A2001D"/>
<path d="M24.7867 18.8218L23.0526 17.9447L24.7867 17.0676H36.0507V18.8218H24.7867Z" fill="#EFC100"/>
<path fill-rule="evenodd" clip-rule="evenodd" d="M24.7776 17.0281H36.0897V18.8613H24.7776L22.9654 17.9447L24.7776 17.0281ZM24.7959 17.1071L23.1399 17.9447L24.7959 18.7823H36.0117V17.1071H24.7959Z" fill="#231F20"/>
</g>
<defs>
<clipPath id="clip0_6065_2226">
<rect width="40" height="27" fill="white"/>
</clipPath>
</defs>
</svg>
