<svg width="40" height="27" viewBox="0 0 40 27" fill="none" xmlns="http://www.w3.org/2000/svg">
<g clip-path="url(#clip0_6065_2209)">
<path d="M0 0H40V27H0V0Z" fill="#10338C"/>
<path d="M17.3254 13.4763C17.3488 13.4527 17.3644 13.429 17.3878 13.4053C17.3722 13.429 17.3488 13.4527 17.3254 13.4763ZM14.6588 16.7842L15.5165 18.5921L17.4424 18.1421L16.5847 19.9421L18.1363 21.1895L16.2026 21.6316L16.2104 23.6369L14.6588 22.3816L13.1149 23.6369L13.1227 21.6316L11.189 21.1895L12.7406 19.9421L11.8751 18.1421L13.8088 18.5921L14.6588 16.7842ZM30.0896 19.0342L30.495 19.8948L31.4151 19.6816L31.0018 20.5421L31.7426 21.1342L30.8225 21.3395V22.3027L30.0896 21.7027L29.3488 22.3027L29.3566 21.3395L28.4365 21.1342L29.1773 20.5421L28.764 19.6816L29.6841 19.8948L30.0896 19.0342ZM26.3001 9.87634L26.7055 10.7369L27.6256 10.5237L27.2124 11.3842L27.9531 11.9763L27.033 12.1895V13.1448L26.3001 12.5448L25.5593 13.1448L25.5671 12.1895L24.6393 11.9763L25.38 11.3842L24.9667 10.5237L25.8868 10.7369L26.3001 9.87634ZM30.0896 4.65002L30.495 5.51055L31.4151 5.29739L31.0018 6.15792L31.7426 6.75002L30.8225 6.96318V7.91845L30.0896 7.31844L29.3488 7.91845L29.3566 6.96318L28.4365 6.75002L29.1773 6.15792L28.764 5.29739L29.6841 5.51055L30.0896 4.65002ZM33.4034 8.57371L33.8088 9.43423L34.7289 9.22108L34.3157 10.0816L35.0564 10.6737L34.1363 10.879V11.8421L33.4034 11.2421L32.6626 11.8421V10.879L31.7426 10.6737L32.4833 10.0816L32.0701 9.22108L32.9901 9.43423L33.4034 8.57371ZM31.033 13.1448L31.3527 14.1474H32.3897L31.5476 14.7632L31.8751 15.7658L31.033 15.1421L30.1909 15.7658L30.5106 14.7632L29.6763 14.1474H30.7133L31.033 13.1448Z" fill="white"/>
<path d="M19.8674 0V2.41579L16.3508 4.39737H19.8674V9.07895H15.2592L19.8674 11.6684V13.4763H17.7855L12.0545 10.2474V13.4763H7.71924V9.63947L0.904423 13.4763H-0.0936279V11.0605L3.43074 9.07895H-0.0936279V4.39737H4.51456L-0.0936279 1.8V0H1.98824L7.71924 3.22105V0H12.0545V3.83684L18.8771 0H19.8674Z" fill="white"/>
<path d="M11.1344 0H8.63932V5.47105H-0.0936279V7.99737H8.63932V13.4763H11.1344V7.99737H19.8674V5.47105H11.1344V0Z" fill="#D80027"/>
<path d="M12.0546 9.07892L19.8674 13.4763V12.2289L14.269 9.07892H12.0546Z" fill="#0052B4"/>
<path d="M12.0546 9.07892L19.8674 13.4763V12.2289L14.269 9.07892H12.0546Z" fill="white"/>
<path d="M12.0545 9.07892L19.8674 13.4763V12.2289L14.2689 9.07892H12.0545ZM5.51261 9.07892L-0.0936279 12.2289V13.4763L7.71924 9.07892H5.51261Z" fill="#D80027"/>
<path d="M7.71924 4.39737L-0.0936279 0V1.23947L5.51261 4.39737H7.71924Z" fill="#0052B4"/>
<path d="M7.71924 4.39737L-0.0936279 0V1.23947L5.51261 4.39737H7.71924Z" fill="white"/>
<path d="M7.71924 4.39737L-0.0936279 0V1.23947L5.51261 4.39737H7.71924ZM14.2689 4.39737L19.8674 1.23947V0L12.0545 4.39737H14.2689Z" fill="#D80027"/>
</g>
<defs>
<clipPath id="clip0_6065_2209">
<rect width="40" height="27" fill="white"/>
</clipPath>
</defs>
</svg>
