<svg width="40" height="27" viewBox="0 0 40 27" fill="none" xmlns="http://www.w3.org/2000/svg">
<g clip-path="url(#clip0_6065_2192)">
<path d="M0 0H40V27H0V0Z" fill="#EF3340"/>
<path d="M0 0H40V9H0V0Z" fill="#00B5E2"/>
<path d="M0 18H40V27H0V18Z" fill="#509E2F"/>
<path d="M20.7096 16.7842C18.9162 16.7842 17.4659 15.3158 17.4659 13.5C17.4659 11.6842 18.9162 10.2158 20.7096 10.2158C21.271 10.2158 21.7934 10.3579 22.2534 10.6105C21.5361 9.9 20.5458 9.45789 19.462 9.45789C17.2554 9.45789 15.4698 11.2658 15.4698 13.5C15.4698 15.7342 17.2554 17.5421 19.462 17.5421C20.5458 17.5421 21.5361 17.1 22.2534 16.3895C21.7934 16.6421 21.271 16.7842 20.7096 16.7842Z" fill="white"/>
<path d="M23.2047 11.2263L23.6335 12.45L24.7953 11.8895L24.2417 13.0658L25.4503 13.5L24.2417 13.9342L24.7953 15.1105L23.6335 14.55L23.2047 15.7737L22.7758 14.55L21.614 15.1105L22.1676 13.9342L20.9591 13.5L22.1676 13.0658L21.614 11.8895L22.7758 12.45L23.2047 11.2263Z" fill="white"/>
</g>
<defs>
<clipPath id="clip0_6065_2192">
<rect width="40" height="27" fill="white"/>
</clipPath>
</defs>
</svg>
