<svg width="40" height="27" viewBox="0 0 40 27" fill="none" xmlns="http://www.w3.org/2000/svg">
<g clip-path="url(#clip0_6065_2179)">
<path d="M0 0H40.0078V27H0V0Z" fill="#10338C"/>
<path d="M7.78946 0H34.4561V27" fill="#F6C500"/>
<path d="M1.55167 1.66579L3.14231 0.489474L4.74855 1.65789L4.21054 0H2.08188L1.55167 1.66579Z" fill="white"/>
<path d="M7.19688 2.01316L6.5809 0.102631L5.97271 2.01316H4L5.59844 3.18158L4.99025 5.07631L6.5809 3.90789L8.18713 5.07631L7.57115 3.18158L9.16959 2.00526L7.19688 2.01316Z" fill="white"/>
<path d="M10.6277 5.46316L10.0195 3.56842L9.41132 5.46316H7.44641L9.03705 6.63947L8.42887 8.53421L10.0195 7.36579L11.6257 8.53421L11.0176 6.63947L12.6082 5.46316H10.6277Z" fill="white"/>
<path d="M13.9883 8.86579L13.3801 6.96316L12.7719 8.86579H10.7992L12.3977 10.0421L11.7895 11.9368L13.3801 10.7684L14.9864 11.9368L14.3704 10.0421L15.9688 8.85789L13.9883 8.86579Z" fill="white"/>
<path d="M17.349 12.2605L16.7408 10.3658L16.1326 12.2605H14.1521L15.7583 13.4447L15.1501 15.3395L16.7408 14.1632L18.3314 15.3395L17.7232 13.4447L19.3295 12.2605H17.349Z" fill="white"/>
<path d="M20.7096 15.6632L20.1014 13.7684L19.4932 15.6632H17.5127L19.1189 16.8395L18.5107 18.7421L20.1014 17.5658L21.692 18.7421L21.0838 16.8316L22.6823 15.6632H20.7096Z" fill="white"/>
<path d="M24.0702 19.0658L23.4542 17.1711L22.846 19.0658H20.8733L22.4717 20.2342L21.8557 22.1447L23.462 20.9684L25.0526 22.1368L24.4444 20.2342L26.0429 19.0658H24.0702Z" fill="white"/>
<path d="M27.423 22.4684L26.8148 20.5579L26.2066 22.4684H24.2339L25.8246 23.6368L25.2164 25.5395L26.8148 24.3632L28.4133 25.5395L27.8051 23.6368L29.3957 22.4684H27.423Z" fill="white"/>
<path d="M30.1755 23.9605L29.5595 25.8632L27.5868 25.8711L29.1306 27H31.2047L32.7564 25.8632H30.7836L30.1755 23.9605Z" fill="white"/>
</g>
<defs>
<clipPath id="clip0_6065_2179">
<rect width="40" height="27" fill="white"/>
</clipPath>
</defs>
</svg>
