<svg width="40" height="27" viewBox="0 0 40 27" fill="none" xmlns="http://www.w3.org/2000/svg">
<g clip-path="url(#clip0_6065_2174)">
<path d="M0 0H40V27H0V0Z" fill="#FFC726"/>
<path d="M0 0H13.3333V27H0V0ZM26.6667 0H40V27H26.6667V0Z" fill="#00267F"/>
<path d="M25.3988 7.97526L22.906 8.95421C22.853 9.06079 22.4546 9.54947 22.2682 13.1432H20.9388V8.37316L19.961 6.21158L18.9832 8.34316V13.1432H17.653C17.4666 9.54868 17.0448 9 16.9926 8.89263L14.5224 7.97447C14.5341 7.99895 15.7232 10.4487 15.7232 14.1332V15.1232H18.9832V20.7339H20.9388V15.1232H24.1988V14.1332C24.1988 12.2282 24.524 10.6579 24.7976 9.67579C25.0955 8.60447 25.398 7.97921 25.4012 7.97289L25.3988 7.97526Z" fill="black"/>
</g>
<defs>
<clipPath id="clip0_6065_2174">
<rect width="40" height="27" fill="white"/>
</clipPath>
</defs>
</svg>
