<svg width="40" height="27" viewBox="0 0 40 27" fill="none" xmlns="http://www.w3.org/2000/svg">
<g clip-path="url(#clip0_6065_2146)">
<path d="M0 0H40V27H0V0Z" fill="#D80027"/>
<path d="M16.8343 13.4763L0 24.8368V2.11578L16.8343 13.4763ZM40 2.11578V24.8368L23.1657 13.4763L40 2.11578Z" fill="#47A644"/>
<path d="M39.922 2.11579L23.0877 13.4763L39.922 24.8368V26.9447H36.7953L19.961 15.5842L3.12671 26.9447H0V24.8368L16.8343 13.4763L0 2.11579V0H3.12671L19.961 11.3605L36.7953 0H39.922V2.11579Z" fill="#0052B4"/>
<path d="M40 2.11579L23.1657 13.4763L40 24.8368V27H36.8811L19.961 15.5842L3.04094 27H0V24.8368L16.8343 13.4763L0 2.11579V0H3.12671L19.961 11.3605L36.7953 0H40V2.11579Z" fill="white"/>
<path d="M19.6179 21.3868C23.9328 21.3868 27.4308 17.8452 27.4308 13.4763C27.4308 9.10746 23.9328 5.5658 19.6179 5.5658C15.303 5.5658 11.8051 9.10746 11.8051 13.4763C11.8051 17.8452 15.303 21.3868 19.6179 21.3868Z" fill="white"/>
<path d="M19.6023 8.17896L20.1793 9.19738H21.3333L20.7563 10.2079L21.3333 11.2184H20.1793L19.6023 12.2368L19.0253 11.2184H17.8713L18.4483 10.2079L17.8713 9.19738H19.0253L19.6023 8.17896ZM22.6277 13.4447L23.2047 14.4632H24.3587L23.7817 15.4737L24.3587 16.4842H23.2047L22.6277 17.5026L22.0507 16.4842H20.8889L21.4659 15.4737L20.8889 14.4632H22.0507L22.6277 13.4447ZM16.6082 13.4447L17.1852 14.4632H18.347L17.77 15.4737L18.347 16.4842H17.1852L16.6082 17.5026L16.0312 16.4842H14.8772L15.4542 15.4737L14.8772 14.4632H16.0312L16.6082 13.4447Z" fill="#D80027"/>
<path fill-rule="evenodd" clip-rule="evenodd" d="M19.6024 7.94098L20.2471 9.07897H21.5361L20.8915 10.2079L21.5361 11.3369H20.2471L19.6024 12.4749L18.9576 11.3369H17.6687L18.3133 10.2079L17.6687 9.07897H18.9576L19.6024 7.94098ZM19.6024 8.41696L19.0931 9.31581H18.0741L18.5835 10.2079L18.0741 11.1H19.0931L19.6024 11.9989L20.1116 11.1H21.1306L20.6213 10.2079L21.1306 9.31581H20.1116L19.6024 8.41696ZM16.6082 13.2068L17.2529 14.3448H18.5497L17.9051 15.4737L18.5497 16.6027H17.2529L16.6082 17.7406L15.9635 16.6027H14.6745L15.3191 15.4737L14.6745 14.3448H15.9635L16.6082 13.2068ZM22.6277 13.2068L23.2724 14.3448H24.5614L23.9168 15.4737L24.5614 16.6027H23.2724L22.6277 17.7406L21.983 16.6027H20.6862L21.3308 15.4737L20.6862 14.3448H21.983L22.6277 13.2068ZM22.6277 13.6828L22.1184 14.5816H21.0916L21.601 15.4737L21.0916 16.3658H22.1184L22.6277 17.2647L23.137 16.3658H24.156L23.6466 15.4737L24.156 14.5816H23.137L22.6277 13.6828ZM16.6082 13.6828L16.099 14.5816H15.0799L15.5893 15.4737L15.0799 16.3658H16.099L16.6082 17.2647L17.1175 16.3658H18.1443L17.6349 15.4737L18.1443 14.5816H17.1175L16.6082 13.6828Z" fill="#47A644"/>
</g>
<defs>
<clipPath id="clip0_6065_2146">
<rect width="40" height="27" fill="white"/>
</clipPath>
</defs>
</svg>
