<svg width="40" height="27" viewBox="0 0 40 27" fill="none" xmlns="http://www.w3.org/2000/svg">
<g clip-path="url(#clip0_6065_2130)">
<path d="M0 0H40V27H0V0Z" fill="white"/>
<path d="M12.2899 15.8015C12.2899 15.8015 11.5836 19.2764 10.7813 18.9964C9.95161 18.7164 9.41177 17.5125 9.41177 17.5125L8.27739 19.1926C8.27739 19.1926 11.2602 19.8634 11.4813 19.6253C11.5766 19.5351 12.1227 18.4308 12.2891 17.5647V15.8015H12.2899ZM7.90474 20.5927C7.90474 20.5927 7.71099 22.189 7.82192 22.3852C7.9188 22.5671 10.9063 23.2814 10.9063 23.2814C10.9063 23.2814 8.9563 24.5834 8.58286 24.9062L7.17192 22.5394L7.11646 20.5927H7.90474ZM8.78989 7.48624C8.78989 7.48624 11.8875 10.7769 11.943 11.0854C11.9985 11.3797 11.611 11.3377 11.611 11.3377C11.611 11.3377 8.11177 8.36902 7.71099 8.089C7.29614 7.80818 8.78989 7.48624 8.78989 7.48624Z" fill="#E6BC00"/>
<path d="M7.76643 8.28439C7.76643 8.28439 9.09378 8.22823 9.06643 7.37392C9.03909 6.53385 8.19534 6.19767 7.57268 6.39384C6.95003 6.57578 5.77503 7.45777 6.50784 9.16638C7.24065 10.8608 8.33362 11.4912 8.55471 12.9475C8.55471 12.9475 8.12815 13.7274 7.06096 12.9752C5.74065 12.0441 6.57659 9.95028 6.24534 9.41872C5.91331 8.85867 3.04612 6.34005 3.04612 6.34005C3.04612 6.34005 0.683621 9.45431 1.63987 12.2664C2.96409 16.159 5.68206 14.7961 6.68753 15.1742C6.68753 15.1742 3.39612 20.0754 2.81487 20.4812C2.81487 20.4812 4.69612 21.1393 6.54925 18.9972C6.54925 18.9972 7.0055 19.7677 7.10237 20.5935H7.90471C8.27815 18.521 11.9289 15.5104 11.8047 14.0818C11.6664 12.4009 7.96018 10.1749 7.76643 8.28439Z" fill="#ADADAD"/>
<path d="M28.0602 15.9209C28.0602 15.9209 28.7602 19.2772 29.5625 18.9972C30.3922 18.7172 30.932 17.5132 30.932 17.5132L32.0664 19.1934C32.0664 19.1934 29.1758 19.8642 28.9547 19.6261C28.8602 19.5359 28.2266 18.5353 28.0547 17.6754L28.0602 15.9209ZM32.4391 20.5927C32.4391 20.5927 32.6328 22.189 32.5219 22.3852C32.425 22.5671 29.4375 23.2814 29.4375 23.2814C29.4375 23.2814 31.3875 24.5834 31.7609 24.9062L33.1719 22.5394L33.2273 20.5927H32.4391ZM31.5539 7.48624C31.5539 7.48624 28.4562 10.7769 28.4008 11.0854C28.3453 11.3797 28.7328 11.3377 28.7328 11.3377C28.7328 11.3377 32.232 8.36902 32.6328 8.089C33.0344 7.80818 31.5539 7.48624 31.5539 7.48624Z" fill="#E6BC00"/>
<path d="M12.2898 6.88666H28.0546V18.3929C28.0546 19.6633 27.2976 20.0849 26.3429 20.9123L22.7554 24.0297C21.3296 25.2653 19.0125 25.2613 17.5937 24.0297L13.9992 20.9107C13.0554 20.092 12.2898 19.668 12.2898 18.3937V6.88666Z" fill="#125ECC"/>
<path d="M15.668 11.6842C15.0461 11.6842 14.5422 11.174 14.5422 10.5443C14.5422 9.91469 15.0461 9.40448 15.668 9.40448C16.2899 9.40448 16.7938 9.91469 16.7938 10.5443C16.7938 11.174 16.2899 11.6842 15.668 11.6842ZM20.1719 11.4469C19.5501 11.4469 19.0461 10.9367 19.0461 10.307C19.0461 9.67739 19.5501 9.16718 20.1719 9.16718C20.7938 9.16718 21.2977 9.67739 21.2977 10.307C21.2977 10.9367 20.7938 11.4469 20.1719 11.4469ZM24.6758 11.6842C24.054 11.6842 23.5501 11.174 23.5501 10.5443C23.5501 9.91469 24.054 9.40448 24.6758 9.40448C25.2977 9.40448 25.8016 9.91469 25.8016 10.5443C25.8016 11.174 25.2977 11.6842 24.6758 11.6842ZM16.7938 21.7081C16.1719 21.7081 15.668 21.1978 15.668 20.5682C15.668 19.9385 16.1719 19.4283 16.7938 19.4283C17.4157 19.4283 17.9196 19.9385 17.9196 20.5682C17.9204 21.1978 17.4157 21.7081 16.7938 21.7081ZM20.1719 22.8487C19.5501 22.8487 19.0461 22.3385 19.0461 21.7088C19.0461 21.0792 19.5501 20.569 20.1719 20.569C20.7938 20.569 21.2977 21.0792 21.2977 21.7088C21.2977 22.3377 20.7938 22.8487 20.1719 22.8487ZM23.5501 21.7081C22.9282 21.7081 22.4243 21.1978 22.4243 20.5682C22.4243 19.9385 22.9282 19.4283 23.5501 19.4283C24.1719 19.4283 24.6758 19.9385 24.6758 20.5682C24.6758 21.1978 24.1719 21.7081 23.5501 21.7081Z" fill="#FFE600"/>
<path d="M12.2898 13.8714H28.0546V18.4316H12.2898V13.8714Z" fill="#D60537"/>
<path d="M11.1641 3.46625C11.1641 3.46625 15.668 2.32639 20.1727 2.32639C24.6773 2.32639 29.1812 3.46625 29.1812 3.46625L28.0555 8.0265C28.0555 8.0265 24.1141 6.88664 20.1734 6.88664C16.2328 6.88664 12.2914 8.0265 12.2914 8.0265L11.1641 3.46625Z" fill="#EACE00"/>
<path d="M20.1719 5.74677C19.5501 5.74677 19.0461 5.23656 19.0461 4.60691C19.0461 3.97725 19.5501 3.46704 20.1719 3.46704C20.7938 3.46704 21.2977 3.97725 21.2977 4.60691C21.2977 5.23656 20.7938 5.74677 20.1719 5.74677ZM24.6758 6.14228C24.054 6.14228 23.5501 5.63207 23.5501 5.00242C23.5501 4.37276 24.054 3.86255 24.6758 3.86255C25.2977 3.86255 25.8016 4.37276 25.8016 5.00242C25.8016 5.63207 25.2977 6.14228 24.6758 6.14228ZM15.668 6.14228C15.0461 6.14228 14.5422 5.63207 14.5422 5.00242C14.5422 4.37276 15.0461 3.86255 15.668 3.86255C16.2899 3.86255 16.7938 4.37276 16.7938 5.00242C16.7938 5.63207 16.2899 6.14228 15.668 6.14228Z" fill="#7A6920"/>
<path d="M28.5219 14.0818C28.3977 15.5104 32.0485 18.521 32.4219 20.5935H33.2242C33.3211 19.7677 33.7774 18.9972 33.7774 18.9972C35.6305 21.1401 37.5117 20.4812 37.5117 20.4812C36.9305 20.0754 33.6391 15.1742 33.6391 15.1742C34.6453 14.7961 37.3633 16.159 38.6867 12.2664C39.643 9.45431 37.2805 6.34005 37.2805 6.34005C37.2805 6.34005 34.4133 8.85867 34.0813 9.41872C33.7492 9.95108 34.586 12.0449 33.2656 12.9752C32.1985 13.7274 31.7719 12.9475 31.7719 12.9475C31.993 11.4912 33.086 10.8608 33.8188 9.16638C34.5516 7.45777 33.3766 6.57578 32.7539 6.39384C32.1313 6.19767 31.2883 6.53385 31.2602 7.37392C31.2328 8.22823 32.5602 8.28439 32.5602 8.28439C32.3664 10.1749 28.6602 12.4009 28.5219 14.0818Z" fill="#ADADAD"/>
<path d="M20.1719 17.4911C20.9024 17.4911 21.4946 16.8915 21.4946 16.1519C21.4946 15.4123 20.9024 14.8127 20.1719 14.8127C19.4414 14.8127 18.8492 15.4123 18.8492 16.1519C18.8492 16.8915 19.4414 17.4911 20.1719 17.4911Z" fill="white"/>
</g>
<defs>
<clipPath id="clip0_6065_2130">
<rect width="40" height="27" fill="white"/>
</clipPath>
</defs>
</svg>
