<svg width="40" height="27" viewBox="0 0 40 27" fill="none" xmlns="http://www.w3.org/2000/svg">
<g clip-path="url(#clip0_6065_2117)">
<path d="M0 0H40V27H0V0Z" fill="#C8102E"/>
<path d="M0 0.00787354H20V13.5079H0V0.00787354Z" fill="#012169"/>
<path d="M19.961 0H18.1988L12.4756 3.86053V0H7.48538V3.86053L1.76218 0H0V1.79211L3.59454 4.21579H0V9.26842H3.59454L0 11.6921V13.4763H1.76218L7.48538 9.61579V13.4763H12.4756V9.61579L18.1988 13.4763H19.961V11.6921L16.3665 9.26842H19.961V4.21579H16.3665L19.961 1.79211V0Z" fill="white"/>
<path d="M11.2281 0H8.73294V5.47895H0V8.00526H8.73294V13.4763H11.2281V8.00526H19.961V5.47895H11.2281V0Z" fill="#C8102E"/>
<path d="M0 13.4763V12.6079L4.87329 9.2684H6.63548L0.569201 13.4763H0ZM0.569201 0.00787354L6.63548 4.20787H4.87329L0 0.876295V0.00787354H0.569201ZM19.961 0.00787354V0.876295L15.0877 4.21577H13.3255L19.3918 0.00787354H19.961ZM19.3918 13.4763L13.3255 9.2684H15.0877L19.961 12.6079V13.4763H19.3918Z" fill="#C8102E"/>
<path d="M24.7096 7.89001V15.7603C24.7096 20.4821 30.9279 23.6305 30.9279 23.6305C30.9279 23.6305 37.1462 20.4821 37.1462 15.7603V7.89001H24.7096Z" fill="white"/>
<path d="M35.0386 20.4821H26.8171C28.6206 22.4621 30.9279 23.6305 30.9279 23.6305C30.9279 23.6305 33.2351 22.4621 35.0386 20.4821Z" fill="#2F8F22"/>
<path d="M30.9279 20.4821C32.6453 20.4821 34.0375 19.0725 34.0375 17.3337C34.0375 15.5949 32.6453 14.1853 30.9279 14.1853C29.2106 14.1853 27.8184 15.5949 27.8184 17.3337C27.8184 19.0725 29.2106 20.4821 30.9279 20.4821Z" fill="#65B5D2"/>
<path d="M27.8183 17.3345C28.677 17.3345 29.3731 16.6297 29.3731 15.7603C29.3731 14.8909 28.677 14.1861 27.8183 14.1861C26.9596 14.1861 26.2635 14.8909 26.2635 15.7603C26.2635 16.6297 26.9596 17.3345 27.8183 17.3345Z" fill="#C8102E"/>
<path d="M34.0367 17.3345C34.8954 17.3345 35.5915 16.6297 35.5915 15.7603C35.5915 14.8909 34.8954 14.1861 34.0367 14.1861C33.178 14.1861 32.4819 14.8909 32.4819 15.7603C32.4819 16.6297 33.178 17.3345 34.0367 17.3345Z" fill="#C8102E"/>
<path d="M30.9279 14.1861C31.7866 14.1861 32.4827 13.4813 32.4827 12.6119C32.4827 11.7425 31.7866 11.0377 30.9279 11.0377C30.0693 11.0377 29.3732 11.7425 29.3732 12.6119C29.3732 13.4813 30.0693 14.1861 30.9279 14.1861Z" fill="#C8102E"/>
</g>
<defs>
<clipPath id="clip0_6065_2117">
<rect width="40" height="27" fill="white"/>
</clipPath>
</defs>
</svg>
