<svg width="40" height="27" viewBox="0 0 40 27" fill="none" xmlns="http://www.w3.org/2000/svg">
<g clip-path="url(#clip0_6065_2108)">
<path d="M0 0H40V27H0V0Z" fill="#FFDA44"/>
<path d="M0 15.3253L40 25.3863V16.9485L0 7.67926V15.3253Z" fill="black"/>
<path d="M40 18.5305V11.6747L0 1.6145V8.4703" fill="white"/>
<path d="M23.9375 10.6005C24.2496 11.1839 24.4127 11.8371 24.4117 12.5005C24.4117 14.2052 23.3563 15.6599 21.8711 16.2334V11.526C22.3164 11.4319 22.6524 11.0221 22.6524 10.5301C23.1914 10.5301 23.6289 10.0753 23.6289 9.51363H23.5961C24.1352 9.51363 24.6047 9.05879 24.6047 8.49716H21.8711V6.05765L20.7 3.86572L19.5281 6.05765V8.49716H16.7945C16.7945 9.05879 17.2641 9.51363 17.8031 9.51363H17.7703C17.7703 10.0753 18.2078 10.5301 18.7469 10.5301C18.7469 11.0221 19.082 11.4319 19.5274 11.526V16.3805C17.8016 15.9541 16.5211 14.3792 16.5211 12.5005C16.5211 11.8123 16.693 11.1653 16.9953 10.6005C16.1391 11.4872 15.6109 12.6991 15.6109 14.0367C15.6109 16.7515 17.7844 18.9529 20.4664 18.9529C23.1484 18.9529 25.3219 16.7515 25.3219 14.0367C25.3219 12.6991 24.793 11.4864 23.9375 10.6005Z" fill="#D80027"/>
<path fill-rule="evenodd" clip-rule="evenodd" d="M20.7 3.61688L21.9881 6.02766V8.37873H24.7217V8.49715C24.7217 9.075 24.2795 9.54905 23.7409 9.62223C23.6918 10.1579 23.283 10.5882 22.764 10.6427C22.72 11.1056 22.4076 11.4883 21.9881 11.6178V16.0573C23.3454 15.4611 24.2948 14.093 24.2948 12.5005V12.5004C24.2957 11.8566 24.1375 11.2229 23.8347 10.6569L23.9375 10.6005L24.0211 10.5177C24.8971 11.4248 25.4388 12.6668 25.4388 14.0367C25.4388 16.8169 23.2131 19.0713 20.4664 19.0713C17.7198 19.0713 15.494 16.8169 15.494 14.0367C15.494 12.6668 16.035 11.4256 16.9117 10.5177L17.4974 9.91118L17.0981 10.6569C16.8048 11.2048 16.6381 11.8325 16.6381 12.5005C16.6381 14.2704 17.8094 15.7628 19.4104 16.2266V11.6178C18.9909 11.4882 18.6791 11.1055 18.6352 10.6427C18.1162 10.5882 17.7075 10.1579 17.6583 9.62223C17.1198 9.54905 16.6776 9.07501 16.6776 8.49715V8.37873H19.4112V6.02764L20.7 3.61688ZM17.8031 9.39519V9.51361H17.8873C17.8873 10.0129 18.2754 10.4117 18.7469 10.4117H18.8638V10.5301C18.8638 10.9672 19.1612 11.3276 19.5513 11.4101L19.6443 11.4297V16.5313L19.4996 16.4955C17.7227 16.0565 16.4041 14.4351 16.4041 12.5005C16.4041 12.078 16.4671 11.6704 16.584 11.2868C16.0445 12.0656 15.7279 13.0134 15.7279 14.0367C15.7279 16.6861 17.849 18.8345 20.4664 18.8345C23.0838 18.8345 25.2049 16.6861 25.2049 14.0367C25.2049 13.0135 24.8879 12.0653 24.3487 11.2868C24.4681 11.6785 24.5293 12.0877 24.5287 12.5007C24.5286 14.2561 23.4417 15.7536 21.9128 16.344L21.7541 16.4053V11.4297L21.8472 11.4101C22.2373 11.3276 22.5354 10.967 22.5354 10.5301V10.4117H22.6524C23.1238 10.4117 23.512 10.0129 23.512 9.51361H23.5961V9.39519C24.0338 9.39519 24.4199 9.05436 24.4797 8.61557H21.7541V6.08761L20.7 4.11453L19.6451 6.08763V8.61557H16.9195C16.9793 9.05436 17.3654 9.39519 17.8031 9.39519Z" fill="#231F20"/>
<path d="M15.5047 17.9412C15.5047 17.9412 17.1211 20.1331 20.7 20.1331C24.2789 20.1331 25.8953 17.9412 25.8953 17.9412L26.9477 20.1853C26.9477 20.1853 25.3047 22.3773 20.7 22.3773C16.0953 22.3773 14.4523 20.1853 14.4523 20.1853L15.5047 17.9412ZM10.0969 10.5349H11.7281L13.6758 12.6912V18.5012H11.6227V13.093L10.0969 10.5349ZM31.25 10.5349H29.6187L27.6711 12.6912V18.5012H29.7234V13.093L31.25 10.5349Z" fill="#D80027"/>
<path fill-rule="evenodd" clip-rule="evenodd" d="M9.88962 10.4164H11.7797L13.7927 12.6451V18.6196H11.5057V13.126L9.88962 10.4164ZM10.3041 10.6532L11.7396 13.06V18.3828H13.5588V12.7371L11.6766 10.6532H10.3041ZM29.5672 10.4164H31.4573L29.8404 13.126V18.6196H27.5541V12.6451L29.5672 10.4164ZM29.6703 10.6532L27.7881 12.7371V18.3828H29.6065V13.06L31.0427 10.6532H29.6703ZM25.9177 17.7128L27.0838 20.1995L27.0408 20.2569L26.9477 20.1853C27.0408 20.2569 27.0408 20.257 27.0407 20.257L27.0406 20.2572L27.0401 20.2578L27.0389 20.2595C27.0378 20.2609 27.0363 20.2628 27.0344 20.2652C27.0307 20.27 27.0252 20.2768 27.0181 20.2855C27.0038 20.3029 26.9827 20.3279 26.9545 20.3592C26.8981 20.4219 26.8132 20.5104 26.6971 20.6159C26.465 20.827 26.1085 21.1064 25.6069 21.3851C24.6029 21.9429 23.0215 22.4956 20.7 22.4956C18.3785 22.4956 16.7971 21.9429 15.7932 21.3851C15.2915 21.1064 14.935 20.827 14.7029 20.6159C14.5868 20.5104 14.5019 20.4219 14.4455 20.3592C14.4173 20.3279 14.3962 20.3029 14.3819 20.2855C14.3748 20.2768 14.3693 20.27 14.3656 20.2652C14.3644 20.2637 14.3635 20.2625 14.3626 20.2614C14.3621 20.2607 14.3616 20.26 14.3611 20.2595L14.3599 20.2578L14.3594 20.2572L14.3593 20.257C14.3592 20.257 14.3592 20.2569 14.4523 20.1853L14.3592 20.2569L14.3162 20.1995L15.399 17.8904L15.5047 17.9412C15.5984 17.8703 15.5984 17.8703 15.5984 17.8702L15.5984 17.8703L15.599 17.8711C15.5993 17.8715 15.5998 17.8721 15.6003 17.8728C15.6008 17.8734 15.6013 17.8742 15.602 17.875C15.6037 17.8772 15.6059 17.8802 15.6088 17.8839C15.6106 17.8862 15.6127 17.8888 15.615 17.8917C15.6268 17.9066 15.645 17.9291 15.6696 17.9579C15.7188 18.0155 15.7937 18.0987 15.895 18.199C16.0975 18.3996 16.4051 18.6682 16.823 18.9372C17.6582 19.4747 18.9355 20.0147 20.7 20.0147C22.4645 20.0147 23.7418 19.4747 24.577 18.9372C24.9949 18.6682 25.3025 18.3996 25.505 18.199C25.6063 18.0987 25.6812 18.0155 25.7304 17.9579C25.755 17.9291 25.7732 17.9066 25.785 17.8917C25.791 17.8842 25.7953 17.8786 25.798 17.875C25.7994 17.8732 25.8004 17.8719 25.801 17.8711L25.8016 17.8703L25.8017 17.8702L25.9177 17.7128ZM25.8677 18.1584C25.8173 18.2153 25.7511 18.2866 25.6686 18.3683C25.4562 18.5787 25.136 18.8581 24.7025 19.1371C23.8347 19.6955 22.5144 20.2515 20.7 20.2515C18.8856 20.2515 17.5653 19.6955 16.6975 19.1371C16.264 18.8581 15.9438 18.5787 15.7314 18.3683C15.6489 18.2866 15.5827 18.2153 15.5323 18.1584L14.5901 20.1677C14.5983 20.1772 14.6078 20.1879 14.6184 20.1997C14.6698 20.2569 14.7492 20.3397 14.8592 20.4397C15.079 20.6396 15.421 20.9081 15.9057 21.1774C16.8744 21.7156 18.4169 22.2588 20.7 22.2588C22.9832 22.2588 24.5257 21.7156 25.4943 21.1774C25.979 20.9081 26.321 20.6396 26.5408 20.4397C26.6508 20.3397 26.7302 20.2569 26.7816 20.1997C26.7922 20.1879 26.8017 20.1772 26.8099 20.1677L25.8677 18.1584Z" fill="#231F20"/>
</g>
<defs>
<clipPath id="clip0_6065_2108">
<rect width="40" height="27" fill="white"/>
</clipPath>
</defs>
</svg>
