<svg width="40" height="27" viewBox="0 0 40 27" fill="none" xmlns="http://www.w3.org/2000/svg">
<g clip-path="url(#clip0_6065_2098)">
<path d="M0 0H40V27H0V0Z" fill="white"/>
<path d="M0 27H40V0L0 27Z" fill="#012A87"/>
<path d="M19.5625 0H0V13.2033L19.5625 0Z" fill="#F9D90F"/>
<path d="M10.9688 9.35863L11.9219 11.0357H13.8359L12.875 12.705L13.8359 14.3821H11.9219L10.9688 16.0592L10.0156 14.3821H8.10156L9.0625 12.705L8.10156 11.0357H10.0156L10.9688 9.35863Z" fill="#DC171D"/>
<path fill-rule="evenodd" clip-rule="evenodd" d="M10.9687 8.49565C8.67292 8.49565 6.8118 10.3802 6.8118 12.705C6.8118 15.0297 8.67292 16.9143 10.9687 16.9143C13.2645 16.9143 15.1257 15.0297 15.1257 12.705C15.1257 10.3802 13.2645 8.49565 10.9687 8.49565ZM6.11005 12.705C6.11005 9.98777 8.28536 7.78505 10.9687 7.78505C13.6521 7.78505 15.8274 9.98777 15.8274 12.705C15.8274 15.4221 13.6521 17.6249 10.9687 17.6249C8.28536 17.6249 6.11005 15.4221 6.11005 12.705Z" fill="black"/>
</g>
<defs>
<clipPath id="clip0_6065_2098">
<rect width="40" height="27" fill="white"/>
</clipPath>
</defs>
</svg>
