<svg width="40" height="27" viewBox="0 0 40 27" fill="none" xmlns="http://www.w3.org/2000/svg">
<g clip-path="url(#clip0_6065_2093)">
<path d="M0 0H40V27H0V0Z" fill="#009B3A"/>
<path d="M20 1.52368L35.9766 13.4763L20 25.4211L3.94543 13.4763L20 1.52368Z" fill="#FEDF00"/>
<path d="M20 19.8474C23.4622 19.8474 26.269 17.0055 26.269 13.5C26.269 9.99443 23.4622 7.15262 20 7.15262C16.5377 7.15262 13.731 9.99443 13.731 13.5C13.731 17.0055 16.5377 19.8474 20 19.8474Z" fill="white"/>
<path d="M16.8343 13.0816C15.7505 13.0816 14.6979 13.2474 13.7076 13.5553C13.7544 17.0211 16.5381 19.8158 19.9689 19.8158C22.0897 19.8158 23.9688 18.7421 25.0995 17.1079C23.1579 14.6605 20.1716 13.0816 16.8343 13.0816ZM26.1131 14.6842C26.1833 14.2895 26.2301 13.8869 26.2301 13.4684C26.2301 9.96317 23.423 7.12106 19.9611 7.12106C17.3802 7.12106 15.1657 8.70791 14.1989 10.9579C15.0488 10.7842 15.9221 10.6895 16.8188 10.6895C20.4679 10.6974 23.7583 12.229 26.1131 14.6842Z" fill="#002776"/>
</g>
<defs>
<clipPath id="clip0_6065_2093">
<rect width="40" height="27" fill="white"/>
</clipPath>
</defs>
</svg>
