<svg width="40" height="27" viewBox="0 0 40 27" fill="none" xmlns="http://www.w3.org/2000/svg">
<g clip-path="url(#clip0_6065_2084)">
<path d="M0 0H40V27H0V0Z" fill="#FF7415"/>
<path d="M40 0H0V27" fill="#FFDA44"/>
<path fill-rule="evenodd" clip-rule="evenodd" d="M26.6302 5.19982C26.4266 5.14692 26.2572 5.15574 26.0248 5.3118C25.7098 5.52462 25.6466 5.67287 25.6301 5.71859C25.6092 5.77627 25.5804 5.90897 25.6449 6.19479C25.7972 6.87077 26.2788 7.69694 26.9815 8.8775C26.9938 8.89808 27.0061 8.91881 27.0185 8.93967C27.6207 9.95098 28.417 11.2882 28.6674 12.6291C28.8053 13.3674 28.7999 14.1954 28.4664 15.0218C28.1319 15.8505 27.5308 16.5204 26.7448 17.0508C26.7446 17.0509 26.7444 17.051 26.7442 17.0511C26.7441 17.0513 26.7439 17.0514 26.7437 17.0515C25.9462 17.5901 25.0995 17.9034 24.2129 17.9145C23.3249 17.9257 22.5555 17.6316 21.9177 17.2276C20.7674 16.4987 19.8354 15.2565 19.1323 14.3193C19.1142 14.2951 19.0962 14.271 19.0783 14.2472C18.2547 13.1501 17.6774 12.4012 17.1084 12.017C16.8705 11.8563 16.7244 11.827 16.6342 11.8256C16.5493 11.8242 16.3489 11.8442 15.9934 12.0836C15.9934 12.0837 15.9933 12.0837 15.9932 12.0838C15.5339 12.394 15.3518 12.6518 15.2735 12.8167C15.1991 12.9736 15.1637 13.161 15.1968 13.4373C15.2765 14.1041 15.6892 14.9292 16.3513 16.0925C16.4025 16.1825 16.4558 16.2754 16.5107 16.371C17.0622 17.3321 17.7692 18.564 18.0271 19.7602C18.1813 20.4752 18.2087 21.2962 17.8992 22.1251C17.5867 22.9623 16.9963 23.6317 16.2218 24.1545C15.1582 24.8743 14.0239 24.9653 13.0161 24.7011C12.0718 24.4536 11.2744 23.9092 10.6808 23.4015C10.0733 22.882 9.57899 22.3139 9.24356 21.89C9.07327 21.6748 8.93775 21.4888 8.84276 21.3536C8.79514 21.2858 8.75738 21.2303 8.73019 21.1896C8.71659 21.1693 8.7056 21.1526 8.69732 21.1399C8.69318 21.1336 8.68972 21.1283 8.68694 21.124L8.68328 21.1183L8.68184 21.1161L8.68122 21.1151C8.68094 21.1147 8.68066 21.1142 10.0547 20.2124C11.4288 19.3106 11.4285 19.3102 11.4283 19.3098L11.4279 19.3093C11.4302 19.3127 11.4348 19.3198 11.4419 19.3303C11.456 19.3514 11.4794 19.386 11.5115 19.4317C11.5759 19.5234 11.6737 19.6578 11.7992 19.8164C12.0553 20.1401 12.4023 20.5332 12.7939 20.8681C13.1993 21.2148 13.5586 21.4179 13.8367 21.4908C14.0511 21.547 14.2045 21.5312 14.4023 21.3973L14.4036 21.3964L14.4048 21.3956C14.7409 21.1689 14.8152 21.0081 14.836 20.9525C14.86 20.8881 14.8892 20.753 14.8277 20.4676C14.6847 19.8044 14.2356 19.0157 13.5809 17.8659C13.5588 17.8272 13.5365 17.788 13.514 17.7484C12.9193 16.7036 12.1196 15.2905 11.9456 13.8359C11.8518 13.0515 11.9293 12.2075 12.3217 11.3805C12.7102 10.5617 13.3487 9.88354 14.1777 9.3239L14.1788 9.32317C14.9619 8.79544 15.8024 8.49572 16.6861 8.5099C17.5644 8.524 18.3145 8.84551 18.9256 9.25823C19.992 9.97849 20.8826 11.1682 21.567 12.0824C21.6072 12.1361 21.6467 12.1889 21.6854 12.2405C22.4988 13.324 23.0842 14.0548 23.6548 14.4164C23.8924 14.567 24.0522 14.6002 24.1723 14.5987C24.2935 14.5972 24.5335 14.5582 24.9272 14.2923L24.9277 14.292L24.9282 14.2916C25.294 14.0449 25.3988 13.8566 25.4349 13.7673C25.4721 13.6752 25.5018 13.5247 25.4496 13.2453C25.3251 12.5786 24.8685 11.7515 24.1767 10.5893C24.1409 10.5291 24.1042 10.4676 24.0668 10.405C23.4831 9.42774 22.7304 8.16737 22.4521 6.93265C22.2923 6.22355 22.2559 5.40613 22.5545 4.57949C22.8574 3.74091 23.4406 3.07082 24.2089 2.55214L24.2108 2.55087C25.2825 1.82957 26.4205 1.72182 27.4441 1.98774C28.4013 2.23643 29.1996 2.79201 29.7895 3.30989C30.3927 3.83945 30.8781 4.41883 31.2056 4.85049C31.372 5.06976 31.504 5.2593 31.5964 5.39726C31.6427 5.46643 31.6794 5.52313 31.7059 5.56472C31.7191 5.58553 31.7298 5.6026 31.7379 5.6156C31.7419 5.62211 31.7453 5.62759 31.748 5.63203L31.7516 5.63789L31.7536 5.64123C31.7539 5.64169 31.7542 5.64214 30.3594 6.51069C28.9646 7.37924 28.9649 7.37966 28.9651 7.38005L28.9655 7.38077L28.9657 7.38101C28.9636 7.37772 28.9592 7.37066 28.9525 7.36014C28.9391 7.33909 28.9167 7.30437 28.886 7.25842C28.8242 7.16617 28.7301 7.03074 28.6089 6.87103C28.3613 6.54472 28.0254 6.15007 27.6441 5.81535C27.2496 5.46897 26.9005 5.27005 26.6302 5.19982Z" fill="white"/>
</g>
<defs>
<clipPath id="clip0_6065_2084">
<rect width="40" height="27" fill="white"/>
</clipPath>
</defs>
</svg>
