<svg width="40" height="27" viewBox="0 0 40 27" fill="none" xmlns="http://www.w3.org/2000/svg">
<g clip-path="url(#clip0_6065_2067)">
<path d="M0 0H40V27H0V0Z" fill="#007C30"/>
<path d="M0 18.1579H40V0H0" fill="#CE1720"/>
<path d="M7.79727 18.1579V0H0V27H40H7.79727V18.1579Z" fill="white"/>
<path d="M2.18323 12.6L0.670563 10.121L2.18323 7.68945L3.68811 10.121L2.18323 12.6ZM5.66082 12.6L4.15594 10.121L5.66082 7.68945L7.17349 10.121L5.66082 12.6ZM2.18323 19.0421L0.670563 16.5631L2.18323 14.1316L3.68811 16.5631L2.18323 19.0421ZM5.66082 19.0421L4.15594 16.5631L5.66082 14.1316L7.17349 16.5631L5.66082 19.0421Z" fill="#CE1720"/>
<path fill-rule="evenodd" clip-rule="evenodd" d="M2.18397 1.23242L3.75193 3.77253L2.18397 6.35232L0.606201 3.77253L2.18397 1.23242ZM5.66011 1.23242L7.23787 3.77253L5.6601 6.35232L4.09214 3.77253L5.66011 1.23242ZM1.24957 3.77479L2.18252 5.30026L3.10968 3.77479L2.18253 2.27279L1.24957 3.77479ZM5.66155 2.27279L4.73439 3.77479L5.66155 5.30026L6.5945 3.77479L5.66155 2.27279ZM2.18397 20.5035L3.75176 23.0433L2.18397 25.6327L0.606374 23.0433L2.18397 20.5035ZM5.66011 20.5035L7.2377 23.0433L5.6601 25.6327L4.09231 23.0433L5.66011 20.5035ZM1.2494 23.0461L2.18252 24.5777L3.10985 23.0461L2.18253 21.5438L1.2494 23.0461ZM5.66155 21.5438L4.73422 23.0461L5.66155 24.5777L6.59468 23.0461L5.66155 21.5438Z" fill="#CE1720"/>
</g>
<defs>
<clipPath id="clip0_6065_2067">
<rect width="40" height="27" fill="white"/>
</clipPath>
</defs>
</svg>
