<svg width="40" height="27" viewBox="0 0 40 27" fill="none" xmlns="http://www.w3.org/2000/svg">
<g clip-path="url(#clip0_6065_2056)">
<path d="M0 0H40V27H0V0Z" fill="#003E87"/>
<path d="M20.3828 22.9259C25.513 22.9259 29.6719 18.7146 29.6719 13.5198C29.6719 8.32493 25.513 4.11368 20.3828 4.11368C15.2526 4.11368 11.0938 8.32493 11.0938 13.5198C11.0938 18.7146 15.2526 22.9259 20.3828 22.9259Z" fill="white"/>
<path fill-rule="evenodd" clip-rule="evenodd" d="M20.4609 6.92859C16.7711 6.92859 13.7799 9.95749 13.7799 13.6938C13.7799 17.4302 16.7711 20.4591 20.4609 20.4591C24.1508 20.4591 27.142 17.4302 27.142 13.6938C27.142 9.95749 24.1508 6.92859 20.4609 6.92859ZM12.3763 13.6938C12.3763 9.17259 15.9959 5.5074 20.4609 5.5074C24.9259 5.5074 28.5455 9.17259 28.5455 13.6938C28.5455 18.2151 24.9259 21.8802 20.4609 21.8802C15.9959 21.8802 12.3763 18.2151 12.3763 13.6938Z" fill="#6DA544"/>
<path d="M20.4609 11.9851L16.5078 13.8362V15.4184C16.5078 16.3519 16.9844 17.2221 17.7734 17.7047L20.4688 18.9071L23.1641 17.7047C23.9453 17.2142 24.4297 16.3519 24.4297 15.4184V13.8362L20.4609 11.9851Z" fill="#003E87"/>
<path fill-rule="evenodd" clip-rule="evenodd" d="M20.4609 11.9416L24.4687 13.8109V15.4184C24.4687 16.3658 23.9771 17.2407 23.1846 17.7382L23.1823 17.7397L20.4687 18.9503L17.7554 17.7398L17.7533 17.7384C16.9523 17.2486 16.4688 16.3655 16.4688 15.4184V13.811L20.4609 11.9416ZM20.461 12.0285L16.5468 13.8614V15.4184C16.5468 16.3375 17.0156 17.194 17.7914 17.6696L20.4687 18.864L23.1458 17.6696C23.9145 17.186 24.3907 16.337 24.3907 15.4184V13.8615L20.461 12.0285Z" fill="black"/>
<path d="M16.5078 10.1339H24.4219V13.8283H16.5078V10.1339Z" fill="#FFDA44"/>
<path fill-rule="evenodd" clip-rule="evenodd" d="M16.4688 10.0944H24.4608V13.8678H16.4688V10.0944ZM16.5468 10.1734V13.7888H24.3829V10.1734H16.5468Z" fill="black"/>
<path d="M0 0H40V2.76883H0V0ZM0 24.2074H40V26.9763H0V24.2074Z" fill="#CE1127"/>
</g>
<defs>
<clipPath id="clip0_6065_2056">
<rect width="40" height="27" fill="white"/>
</clipPath>
</defs>
</svg>
