<svg width="40" height="27" viewBox="0 0 40 27" fill="none" xmlns="http://www.w3.org/2000/svg">
<g clip-path="url(#clip0_6065_2046)">
<path d="M0 0H40V27H0V0Z" fill="#008000"/>
<path d="M33.0234 19.9672L33.5078 20.9798L34.5859 20.7266L34.1016 21.7392L34.9766 22.4354L33.8906 22.6885V23.8119L33.0234 23.1078L32.1562 23.8119V22.6885L31.0781 22.4354L31.9453 21.7392L31.4609 20.7266L32.5469 20.9798L33.0234 19.9672ZM29.3828 9.18458L29.8672 10.2051L30.9453 9.95194L30.4609 10.9645L31.3359 11.6607L30.25 11.9059V13.0372L29.3828 12.3331L28.5156 13.0372L28.5234 11.9059L27.4375 11.6607L28.3047 10.9645L27.8203 9.95194L28.9062 10.2051L29.3828 9.18458ZM32.2734 3.02988L32.7578 4.04248L33.8359 3.78933L33.3516 4.80192L34.2266 5.506L33.1406 5.75124V6.87459L32.2734 6.17052L31.4062 6.87459L31.4141 5.75124L30.3281 5.506L31.1953 4.80192L30.7109 3.78933L31.7969 4.04248L32.2734 3.02988ZM36.3203 7.64986L36.8047 8.66246L37.8906 8.40931L37.3984 9.42191L38.2734 10.126L37.1875 10.3712L37.1953 11.4946L36.3203 10.7905L35.4531 11.4946L35.4609 10.3712L34.375 10.126L35.25 9.42191L34.7578 8.40931L35.8437 8.66246L36.3203 7.64986ZM34.1328 13.0372L34.5156 14.208H35.7344L34.75 14.9358L35.125 16.1146L34.1328 15.3867L33.1484 16.1146L33.5234 14.9358L32.5391 14.208H33.7578L34.1328 13.0372Z" fill="#FFDA44"/>
<path d="M23.9687 20.1491C20.125 20.1491 17.0078 16.9927 17.0078 13.1005C17.0078 9.20831 20.125 6.05185 23.9687 6.05185C25.1641 6.05185 26.2969 6.36037 27.2812 6.89832C25.7344 5.37151 23.6172 4.43011 21.2891 4.43011C16.5625 4.43011 12.7266 8.31437 12.7266 13.1005C12.7266 17.8866 16.5625 21.7788 21.2891 21.7788C23.6172 21.7788 25.7344 20.8374 27.2734 19.3027C26.2891 19.8406 25.1641 20.1491 23.9687 20.1491ZM10.9687 4.70699C10.1328 3.24347 8.57031 2.26251 6.78125 2.26251C4.99219 2.26251 3.4375 3.24347 2.60156 4.70699H10.9687ZM10.9844 4.73863L6.78125 8.99471L2.58594 4.73863C2.1875 5.45062 1.95312 6.27335 1.95312 7.15938C1.95312 9.86492 4.11719 12.0562 6.78906 12.0562C9.46094 12.0562 11.625 9.86492 11.625 7.15938C11.6172 6.27335 11.3828 5.45062 10.9844 4.73863Z" fill="#FFDA44"/>
<path d="M5.57812 7.76852V11.898C5.96094 12.0009 6.36719 12.0483 6.78906 12.0483C7.21094 12.0483 7.60938 11.993 8 11.898V7.76852H5.57812Z" fill="#A2001D"/>
</g>
<defs>
<clipPath id="clip0_6065_2046">
<rect width="40" height="27" fill="white"/>
</clipPath>
</defs>
</svg>
