<svg width="40" height="27" viewBox="0 0 40 27" fill="none" xmlns="http://www.w3.org/2000/svg">
<g clip-path="url(#clip0_6065_2032)">
<path d="M0 0H40V27H0V0Z" fill="#D21034"/>
<path d="M0 13.504H16.5234V20.252H0V13.504ZM23.4766 13.504H40V20.252H23.4766V13.504Z" fill="#3A9927"/>
<path d="M0 0V6.74802H16.5234V0H23.4766V6.74802H40V0H0Z" fill="#003082"/>
<path d="M23.4766 6.74805H40V13.4961H23.4766V6.74805ZM0 6.74805H16.5234V13.4961H0V6.74805Z" fill="white"/>
<path d="M23.4766 27H16.5234V20.252H0V27H40V20.252H23.4766V27ZM8.25781 0.680359L8.92969 2.75302H11.0781L9.33594 4.03459L10.0078 6.10726L8.25781 4.82569L6.51562 6.10726L7.17969 4.03459L5.4375 2.75302H7.59375L8.25781 0.680359Z" fill="#FFCE00"/>
</g>
<defs>
<clipPath id="clip0_6065_2032">
<rect width="40" height="27" fill="white"/>
</clipPath>
</defs>
</svg>
