<svg width="40" height="27" viewBox="0 0 40 27" fill="none" xmlns="http://www.w3.org/2000/svg">
<g clip-path="url(#clip0_6065_2014)">
<path d="M0 -7.62939e-05H40V26.9999H0V-7.62939e-05Z" fill="#01237A"/>
<path d="M29.9415 5.63463L30.3534 6.91784H31.6859L30.6079 7.71087L31.0196 8.99408L29.9415 8.20089L28.8635 8.99408L29.2752 7.71087L28.1973 6.91784H29.5297L29.9415 5.63463ZM24.4671 7.9305L25.6545 8.54297L26.5967 7.58905L26.3883 8.9216L27.5756 9.53415L26.2595 9.74518L26.051 11.0778L25.4459 9.87568L24.1299 10.0867L25.0723 9.13271L24.4671 7.9305ZM22.1996 13.4733L23.467 13.0564L23.4671 11.7073L24.2502 12.7987L25.5176 12.3817L24.7343 13.4733L25.5176 14.5648L24.2502 14.148L23.4671 15.2394V13.8902L22.1996 13.4733ZM24.4671 19.0161L25.0721 17.8138L24.1299 16.8598L25.4462 17.0709L26.051 15.8688L26.2595 17.2014L27.5756 17.4123L26.3883 18.0249L26.5967 19.3577L25.6545 18.4034L24.4671 19.0161ZM29.9415 21.3119L29.5297 20.0288H28.1971L29.2752 19.2358L28.8635 17.9525L29.9415 18.7455L31.0196 17.9525L30.6079 19.2358L31.6859 20.0288H30.3534L29.9415 21.3119ZM35.4159 19.0161L34.2285 18.4037L33.2863 19.3577L33.4947 18.0249L32.3074 17.4125L33.6235 17.2014L33.8321 15.8688L34.4369 17.0709L35.7531 16.8598L34.8108 17.8139L35.4159 19.0161ZM37.6834 13.4733L36.4161 13.8902V15.2394L35.6328 14.1479L34.3655 14.5648L35.1488 13.4733L34.3655 12.3817L35.6328 12.7987L36.4161 11.7073V13.0564L37.6834 13.4733ZM35.4159 7.93065L34.8111 9.13271L35.7531 10.0867L34.4369 9.87568L33.8321 11.0778L33.6235 9.74518L32.3074 9.534L33.4947 8.9216L33.2863 7.58913L34.2285 8.54297L35.4159 7.93065ZM0 7.99989V9.26305H3.59212L0 11.6877V12.2829L4.47384 9.26297H6.23782L0 13.4735H8.73294V7.99981H0V7.99989ZM7.48538 13.4734H1.76437L7.48538 9.61184V13.4734ZM13.7232 4.21042L19.961 -0.000160217H11.2281V5.47358H19.961V4.21042H16.3689L19.961 1.78563V1.19045L15.4872 4.21026H13.7232V4.21042ZM12.4756 -2.40929e-06H18.1966L12.4756 3.86155V-2.40929e-06ZM11.2281 13.4735H19.961L13.7232 9.26297H15.4872L19.961 12.2829V11.6878L16.3689 9.26305H19.961V7.99989H11.2281V13.4735ZM12.4756 9.61184L18.1966 13.4734H12.4756V9.61184ZM8.73294 -0.000160217H0L6.23782 4.21042H4.47384L0 1.19052V1.78571L3.59212 4.21034H0V5.4735H8.73294V-0.000160217ZM7.48538 3.86155L1.76437 -2.40929e-06H7.48538V3.86155Z" fill="white"/>
<path d="M11.2281 -0.000160217H8.73294V5.47358H0V7.99989H8.73294V13.4736H11.2281V7.99989H19.961V5.47358H11.2281V-0.000160217Z" fill="#D80027"/>
<path d="M6.23782 4.21042L0 -0.000160217V1.19052L4.47384 4.21042H6.23782ZM13.7232 4.21042H15.4872L19.961 1.19052V-0.000160217L13.7232 4.21042ZM4.47384 9.26305L0 12.2829V13.4736L6.23782 9.26305H4.47384ZM13.7232 9.26305L19.961 13.4736V12.2829L15.4872 9.26305H13.7232Z" fill="#D80027"/>
</g>
<defs>
<clipPath id="clip0_6065_2014">
<rect width="40" height="27" fill="white"/>
</clipPath>
</defs>
</svg>
