<svg width="40" height="27" viewBox="0 0 40 27" fill="none" xmlns="http://www.w3.org/2000/svg">
<g clip-path="url(#clip0_6065_2000)">
<path d="M0 0H40V27H0V0Z" fill="#D80027"/>
<path d="M17.6842 18.8842L16.9278 17.6526L15.5321 18L16.46 16.8868L15.7037 15.6553L17.037 16.2L17.9571 15.0868L17.8557 16.5395L19.189 17.0842L17.7933 17.4316L17.6842 18.8842ZM22.6588 6.47367L21.8713 7.68946L22.7758 8.81841L21.3957 8.43946L20.6081 9.66314L20.5302 8.21051L19.1501 7.83156L20.4912 7.31051L20.4132 5.85788L21.3177 6.98683L22.6588 6.47367ZM18.4171 2.00525L18.2612 3.44999L19.5711 4.04999L18.1676 4.34999L18.0117 5.79472L17.2943 4.53156L15.8986 4.83157L16.8577 3.74999L16.1403 2.49472L17.4502 3.08683L18.4171 2.00525ZM22.8304 12.7737L21.6686 13.6342L22.1208 15.0158L20.959 14.1631L19.7972 15.0316L20.2339 13.6421L19.0721 12.7974L20.5068 12.7895L20.9434 11.4L21.3957 12.7816L22.8304 12.7737ZM8.96682 3.65525L10.3157 7.87893H14.6978L11.1579 10.4763L12.5068 14.7L8.96682 12.0947L5.41906 14.7L6.77579 10.4763L3.22803 7.87893H7.61789L8.96682 3.65525Z" fill="#FFDA44"/>
</g>
<defs>
<clipPath id="clip0_6065_2000">
<rect width="40" height="27" fill="white"/>
</clipPath>
</defs>
</svg>
