<svg width="40" height="27" viewBox="0 0 40 27" fill="none" xmlns="http://www.w3.org/2000/svg">
<g clip-path="url(#clip0_6065_1977)">
<path d="M0 0H40V27H0V0Z" fill="#003893"/>
<path d="M0 14.3842H40V17.6526H0V14.3842Z" fill="#CF2027"/>
<path d="M0 11.1158H40V14.3842H0V11.1158ZM0 17.6526H40V20.921H0V17.6526Z" fill="white"/>
<path d="M11.7271 5.52631L12.2651 7.1921H13.9961L12.5926 8.22631L13.1306 9.8921L11.7271 8.85789L10.3314 9.8921L10.8616 8.22631L9.46591 7.1921H11.1969L11.7271 5.52631ZM11.7271 22.0816L12.2651 23.7474H13.9961L12.5926 24.7737L13.1306 26.4474L11.7271 25.4131L10.3314 26.4474L10.8616 24.7737L9.46591 23.7474H11.1969L11.7271 22.0816ZM4.11698 16.4842L4.65499 18.15H6.38599L4.98248 19.1763L5.52049 20.85L4.11698 19.8158L2.72127 20.85L3.25149 19.1763L1.85577 18.15H3.58677L4.11698 16.4842ZM7.02536 7.1842L7.56338 8.84999H9.29437L7.89086 9.87631L8.42887 11.55L7.02536 10.5158L5.62965 11.55L6.15987 9.87631L4.75636 8.84999H6.49515L7.02536 7.1842ZM1.85577 12.7895H3.58677L4.11698 11.1237L4.65499 12.7895H6.38599L4.98248 13.8237L5.52049 15.4895L4.11698 14.4631L2.72127 15.4895L3.25149 13.8237L1.85577 12.7895ZM5.62965 24.5447L6.15987 22.8789L4.75636 21.8526H6.49515L7.02536 20.1789L7.56338 21.8526H9.29437L7.89086 22.8789L8.42887 24.5447L7.02536 23.5184L5.62965 24.5447ZM19.3373 16.4842L18.7992 18.15H17.0682L18.4718 19.1763L17.9337 20.85L19.3373 19.8158L20.7408 20.85L20.2028 19.1763L21.6063 18.15H19.8753L19.3373 16.4842ZM16.4289 7.1842L15.8987 8.84999H14.1677L15.5634 9.87631L15.0332 11.55L16.4289 10.5158L17.8324 11.55L17.2944 9.87631L18.6979 8.84999H16.9669L16.4289 7.1842ZM21.6063 12.7895H19.8753L19.3373 11.1237L18.7992 12.7895H17.0682L18.4718 13.8237L17.9337 15.4895L19.3373 14.4631L20.7408 15.4895L20.2028 13.8237L21.6063 12.7895ZM17.8324 24.5447L17.2944 22.8789L18.6979 21.8526H16.9669L16.4289 20.1789L15.8987 21.8526H14.1677L15.5634 22.8789L15.0332 24.5447L16.4289 23.5184L17.8324 24.5447Z" fill="#F7D116"/>
<path fill-rule="evenodd" clip-rule="evenodd" d="M11.7268 5.3985L12.2934 7.15265H14.1159L12.6385 8.24136L13.2051 9.99586L11.7272 8.90678L10.2574 9.99586L10.8158 8.24136L9.3466 7.15265H11.1685L11.7268 5.3985ZM11.7274 5.65417L11.2253 7.2316H9.58517L10.9073 8.21131L10.4054 9.78839L11.727 8.80905L13.0561 9.78839L12.5467 8.21131L13.8763 7.2316H12.2368L11.7274 5.65417ZM7.02506 7.05639L7.59161 8.81055H9.41491L7.9367 9.89149L8.50313 11.6536L7.0254 10.5647L5.55587 11.6536L6.11407 9.89156L4.63576 8.81055H6.46672L7.02506 7.05639ZM16.4286 7.05639L16.9951 8.81055H18.8184L17.3402 9.89149L17.9066 11.6536L16.4289 10.5647L14.9594 11.6536L15.5176 9.89149L14.0476 8.81055H15.8702L16.4286 7.05639ZM7.02561 7.31207L6.52352 8.88949H4.8769L6.2056 9.86111L5.70337 11.4465L7.02527 10.4669L8.35455 11.4465L7.84496 9.86119L9.17377 8.88949H7.53508L7.02561 7.31207ZM16.4291 7.31207L15.927 8.88949H14.2877L15.6091 9.86119L15.1069 11.4465L16.4288 10.4669L17.7581 11.4465L17.2485 9.86119L18.5773 8.88949H16.9386L16.4291 7.31207ZM4.11668 10.9959L4.68323 12.75H6.50578L5.02832 13.8387L5.59475 15.5925L4.11702 14.5119L2.64749 15.5925L3.20571 13.8387L1.73646 12.75H3.55834L4.11668 10.9959ZM19.3372 10.9967L19.9035 12.75H21.7261L20.2486 13.8387L20.815 15.5925L19.3372 14.5119L17.8594 15.5925L18.4259 13.8387L16.9484 12.75H18.7709L19.3372 10.9967ZM4.11722 11.2515L3.61513 12.829H1.97503L3.2972 13.8087L2.79499 15.3865L4.11689 14.4144L5.44617 15.3865L4.93658 13.8087L6.26613 12.829H4.62669L4.11722 11.2515ZM19.3372 11.2507L18.8275 12.829H17.188L18.5176 13.8087L18.008 15.3865L19.3372 14.4145L20.6664 15.3865L20.1569 13.8087L21.4864 12.829H19.847L19.3372 11.2507ZM4.11668 16.3564L4.68323 18.1105H6.50653L5.02832 19.1915L5.59475 20.9536L4.11702 19.8647L2.64749 20.9536L3.20571 19.1915L1.73572 18.1105H3.55834L4.11668 16.3564ZM19.3372 16.3572L19.9035 18.1105H21.7268L20.2486 19.1915L20.815 20.9536L19.3372 19.8646L17.8594 20.9536L18.4259 19.1915L16.9476 18.1105H18.7709L19.3372 16.3572ZM4.11722 16.6121L3.61513 18.1895H1.97577L3.2972 19.1612L2.79499 20.7465L4.11689 19.7669L5.44617 20.7465L4.93658 19.1612L6.26539 18.1895H4.62669L4.11722 16.6121ZM19.3372 16.6112L18.8275 18.1895H17.1888L18.5176 19.1612L18.008 20.7465L19.3372 19.767L20.6664 20.7465L20.1569 19.1612L21.4857 18.1895H19.847L19.3372 16.6112ZM7.02506 20.0506L7.59166 21.8132H9.41491L7.93673 22.8941L8.50313 24.6478L7.0254 23.5672L5.55587 24.6478L6.11404 22.8942L4.63576 21.8132H6.46668L7.02506 20.0506ZM16.4286 20.0506L16.9952 21.8132H18.8184L17.3402 22.8941L17.9066 24.6478L16.4289 23.5672L14.9594 24.6478L15.5176 22.8941L14.0476 21.8132H15.8702L16.4286 20.0506ZM7.02561 20.3074L6.52356 21.8921H4.8769L6.20564 22.8638L5.70337 24.4417L7.02527 23.4697L8.35455 24.4417L7.84493 22.8638L9.17377 21.8921H7.53504L7.02561 20.3074ZM16.4291 20.3074L15.9271 21.8921H14.2877L15.6091 22.8638L15.1069 24.4417L16.4288 23.4697L17.7581 24.4417L17.2484 22.8638L18.5773 21.8921H16.9385L16.4291 20.3074ZM11.7268 21.9538L12.2934 23.7079H14.1167L12.6385 24.7889L13.2049 26.551L11.7272 25.462L10.2576 26.551L10.8158 24.7889L9.34585 23.7079H11.1685L11.7268 21.9538ZM11.7274 22.2094L11.2253 23.7869H9.58591L10.9073 24.7586L10.4051 26.3438L11.727 25.3643L13.0563 26.3438L12.5467 24.7586L13.8755 23.7869H12.2368L11.7274 22.2094Z" fill="black"/>
</g>
<defs>
<clipPath id="clip0_6065_1977">
<rect width="40" height="27" fill="white"/>
</clipPath>
</defs>
</svg>
