<svg width="40" height="27" viewBox="0 0 40 27" fill="none" xmlns="http://www.w3.org/2000/svg">
<g clip-path="url(#clip0_6065_1964)">
<path d="M0 0H40V27H0V0Z" fill="#0021AD"/>
<path d="M0 0H40V27" fill="#1C8A42"/>
<path d="M6.0625 21.5177L6.50781 22.4591L7.50781 22.2218L7.0625 23.1632L7.86719 23.804L6.86719 24.0334V25.0777L6.0625 24.421L5.26562 25.0777V24.0334L4.26562 23.804L5.07031 23.1632L4.61719 22.2218L5.625 22.4591L6.0625 21.5177ZM3.16406 13.6938L3.60937 14.6352L4.60937 14.3979L4.16406 15.3314L4.96875 15.9801L3.96094 16.2095L3.96875 17.2537L3.16406 16.5971L2.35938 17.2537L2.36719 16.2095L1.35938 15.9801L2.17187 15.3314L1.71875 14.3979L2.71875 14.6352L3.16406 13.6938ZM6.0625 7.29388L6.50781 8.22737L7.50781 7.99796L7.0625 8.93145L7.86719 9.58014L6.86719 9.80956V10.8459L6.0625 10.1972L5.26562 10.8459V9.80956L4.26562 9.58014L5.07031 8.93145L4.61719 7.99796L5.625 8.22737L6.0625 7.29388ZM9.66406 12.2699L10.1094 13.2113L11.1094 12.9739L10.6641 13.9153L11.4687 14.5561L10.4687 14.7855V15.8298L9.66406 15.1811L8.86719 15.8298V14.7855L7.86719 14.5561L8.67187 13.9153L8.22656 12.9739L9.22656 13.2113L9.66406 12.2699ZM7.09375 16.5418L7.4375 17.6256H8.57031L7.65625 18.298L8.00781 19.3818L7.09375 18.7173L6.17969 19.3818L6.53125 18.298L5.61719 17.6256H6.74219L7.09375 16.5418Z" fill="white"/>
<path d="M20.8672 19.3976C24.0817 19.3976 26.6875 16.7589 26.6875 13.504C26.6875 10.249 24.0817 7.61032 20.8672 7.61032C17.6527 7.61032 15.0469 10.249 15.0469 13.504C15.0469 16.7589 17.6527 19.3976 20.8672 19.3976Z" fill="#FFC639"/>
<path d="M20.8672 17.4278H22.8047C22.8047 17.4278 23.6484 15.9247 22.8047 14.4849L24.7422 12.523L23.7734 10.5611H22.8047C22.8047 10.5611 22.3203 12.0325 20.3828 12.0325C18.4453 12.0325 17.9609 10.5611 17.9609 10.5611H16.9922L17.9609 12.523L16.9922 14.4849L17.9609 15.4659C17.9609 15.4659 18.9297 13.504 20.8672 14.4849C20.8672 14.4849 21.6875 15.7111 20.8672 17.4278Z" fill="#1C8A42"/>
<path d="M36.2812 7.29387C36.3281 7.06446 36.2656 5.90155 36.2656 5.65631C36.2656 3.97128 35.1797 2.5394 33.6719 2.04102C34.1328 2.99033 34.3906 4.05039 34.3906 5.18165C34.3906 5.56138 34.3594 5.93319 34.3047 6.2971C34.0781 5.92528 33.7891 5.59302 33.4297 5.30032C32.0937 4.22443 30.2578 4.19279 28.9062 5.10255C29.9531 5.33196 30.9609 5.80662 31.8516 6.52651C32.5547 7.08819 33.1172 7.85555 33.5469 8.59127C33.5469 8.59127 32.1562 9.45356 31.125 9.78582C30.0937 10.1181 27.8203 10.4108 27.8203 10.4108C33.4453 11.3601 38.1328 7.56284 38.1328 7.56284C37.625 6.50278 36.8984 7.24641 36.2812 7.29387Z" fill="#FFC639"/>
</g>
<defs>
<clipPath id="clip0_6065_1964">
<rect width="40" height="27" fill="white"/>
</clipPath>
</defs>
</svg>
