<svg width="40" height="27" viewBox="0 0 40 27" fill="none" xmlns="http://www.w3.org/2000/svg">
<g clip-path="url(#clip0_6065_1957)">
<path d="M0 0H40V27H0V0Z" fill="white"/>
<path d="M11.0487 12.2132C11.0487 12.2132 11.0643 17.5105 16.8732 17.3684L17.2241 18.4658H17.9181C17.9181 18.4658 17.3411 15.221 22.6042 15.1895C22.6042 15.1895 22.6042 13.0105 24.7563 13.0105H27.9922C27.9922 13.0105 22.846 8.92105 32.5848 3.69473L32.7251 2.66052C32.7251 2.66052 22.5964 8.26579 17.2163 7.17631C17.2163 7.17631 18.0506 10.5316 16.3742 10.5316C15.5321 10.5316 15.6179 9.8921 13.8557 9.8921C12.3976 9.8921 12.5068 11.4474 11.805 11.4316C11.1111 11.4158 10.3391 10.4605 10.2768 10.6263C10.2222 10.7921 11.0487 12.2132 11.0487 12.2132Z" fill="#DB7D00"/>
<path d="M18.4951 24.3237C19.0331 23.929 19.5088 23.8027 20.2417 23.6684C20.9747 23.5342 21.7544 23.3211 22.1598 23.2105C22.5653 23.1 20.7797 23.7316 20.3275 23.8658C19.8752 23.9921 18.4951 24.3237 18.4951 24.3237ZM21.4503 23.1632C21.3021 22.2237 21.6686 21.2448 22.5029 20.85C22.6978 21.529 22.0975 22.6816 21.4503 23.1632ZM22.8694 22.6737C22.4171 21.9 23.1813 20.8895 23.7349 20.4C23.9922 20.8737 23.54 22.2711 22.8694 22.6737ZM24.1871 22.0737C23.7037 21.4105 24.2729 20.2421 24.8733 19.7842C25.115 20.4316 24.8811 21.6158 24.1871 22.0737ZM25.5049 21.2369C25.0682 20.6053 25.3723 19.6263 25.9961 18.9948C26.4483 19.5158 26.0663 20.6527 25.5049 21.2369ZM26.5575 20.3921C26.191 19.8 26.6433 18.3869 27.2281 17.9921C27.4854 18.5132 27.2904 19.9974 26.5575 20.3921ZM27.3996 20.1711C27.2904 19.3184 28.7563 18.379 29.3645 18.4027C29.2943 19.1053 28.6706 19.8711 27.3996 20.1711ZM26.5809 21.1342C27.267 20.4158 28.6082 20.4158 29.0838 20.5658C28.9513 20.9842 27.3762 21.9 26.5809 21.1342Z" fill="#006651"/>
<path d="M25.6297 21.8527C26.5965 21.5921 27.2281 21.3711 27.8051 21.9869C27.3996 22.5079 25.8246 22.3579 25.6297 21.8527ZM24.2495 22.4842C25.1774 21.979 26.3002 22.7211 26.4718 23.1632C25.4347 23.5974 24.2339 22.5948 24.2495 22.4842ZM22.9786 23.2105C23.8207 22.8869 24.7875 23.3211 25.1774 23.8027C24.7252 24.0158 23.54 24.2527 22.9786 23.2105ZM21.8168 23.5816C22.7836 23.4711 23.7193 24.2132 23.922 24.6395C22.6823 24.7579 22.2066 24.3869 21.8168 23.5816ZM21.5049 24.3237C20.9669 23.929 20.4912 23.8027 19.7583 23.6684C19.0254 23.5342 18.2456 23.3211 17.8402 23.2105C17.4269 23.1 19.2203 23.7316 19.6725 23.8658C20.1248 23.9921 21.5049 24.3237 21.5049 24.3237ZM18.5497 23.1632C18.6979 22.2237 18.3314 21.2448 17.4971 20.85C17.3022 21.529 17.9026 22.6816 18.5497 23.1632ZM17.1306 22.6737C17.5829 21.9 16.8187 20.8895 16.2651 20.4C16.0078 20.8737 16.4601 22.2711 17.1306 22.6737ZM15.8129 22.0737C16.2963 21.4105 15.7271 20.2421 15.1267 19.7842C14.885 20.4316 15.1189 21.6158 15.8129 22.0737ZM14.4951 21.2369C14.9318 20.6053 14.6277 19.6263 14.0039 18.9948C13.5517 19.5158 13.9337 20.6527 14.4951 21.2369ZM13.4425 20.3921C13.809 19.8 13.3567 18.3869 12.772 17.9921C12.5146 18.5132 12.7096 19.9974 13.4425 20.3921ZM12.6004 20.1711C12.7096 19.3184 11.2437 18.379 10.6355 18.4027C10.7057 19.1053 11.3295 19.8711 12.6004 20.1711ZM13.4191 21.1342C12.733 20.4158 11.3918 20.4158 10.9162 20.5658C11.0488 20.9842 12.6238 21.9 13.4191 21.1342Z" fill="#006651"/>
<path d="M14.3704 21.8526C13.4035 21.5921 12.7719 21.3711 12.1949 21.9869C12.6004 22.5079 14.1755 22.3579 14.3704 21.8526ZM15.7505 22.4842C14.8226 21.979 13.6998 22.7211 13.5283 23.1632C14.5653 23.5974 15.7661 22.5947 15.7505 22.4842ZM17.0215 23.2105C16.1794 22.8869 15.2125 23.3211 14.8226 23.8026C15.2749 24.0158 16.4601 24.2526 17.0215 23.2105ZM18.1833 23.5816C17.2164 23.4711 16.2807 24.2132 16.078 24.6395C17.3178 24.7579 17.7934 24.3869 18.1833 23.5816Z" fill="#006651"/>
</g>
<defs>
<clipPath id="clip0_6065_1957">
<rect width="40" height="27" fill="white"/>
</clipPath>
</defs>
</svg>
