<svg width="40" height="27" viewBox="0 0 40 27" fill="none" xmlns="http://www.w3.org/2000/svg">
<g clip-path="url(#clip0_6065_1929)">
<path d="M0 0H40V27H0V0Z" fill="#496E2D"/>
<path d="M0 8.7574V18.2505H40V8.7574H0Z" fill="black"/>
<path d="M0 8.7574H40V11.9218H0V8.7574Z" fill="#FFDA44"/>
<path d="M0 15.0861H40V18.2505H0V15.0861Z" fill="white"/>
<path d="M15.3125 0H24.6875V27H15.3125V0Z" fill="black"/>
<path d="M15.3125 0H18.4375V27H15.3125V0Z" fill="#FFDA44"/>
<path d="M21.4609 0H24.5859V27H21.4609V0Z" fill="white"/>
<path d="M20 23.2423C25.3114 23.2423 29.6172 18.8823 29.6172 13.504C29.6172 8.12561 25.3114 3.7656 20 3.7656C14.6886 3.7656 10.3828 8.12561 10.3828 13.504C10.3828 18.8823 14.6886 23.2423 20 23.2423Z" fill="#D80027"/>
<path d="M20 4.6358L20.3594 5.75916H21.5313L20.5859 6.46323L20.9453 7.58658L20 6.89042L19.0547 7.58658L19.4141 6.46323L18.4688 5.75916H19.6406L20 4.6358ZM14.8516 6.32874L15.8047 7.0249L16.75 6.32874L16.3906 7.46001L17.3359 8.15617H16.1641L15.8047 9.27952L15.4375 8.15617H14.2656L15.2109 7.46001L14.8516 6.32874ZM11.6719 10.7589H12.8438L13.2031 9.63551L13.5703 10.7589H14.7422L13.7891 11.455L14.1563 12.5863L13.2031 11.8901L12.2578 12.5863L12.6172 11.455L11.6719 10.7589ZM11.6719 16.2411L12.6172 15.545L12.2578 14.4137L13.2031 15.1099L14.1563 14.4137L13.7891 15.545L14.7422 16.2411H13.5703L13.2031 17.3724L12.8438 16.2411H11.6719ZM14.8516 20.6792L15.2109 19.5479L14.2656 18.8517H15.4375L15.8047 17.7205L16.1641 18.8517H17.3359L16.3906 19.5479L16.75 20.6792L15.8047 19.9751L14.8516 20.6792ZM20 22.3721L19.6406 21.2408H18.4688L19.4141 20.5447L19.0547 19.4134L20 20.1096L20.9453 19.4134L20.5859 20.5447L21.5313 21.2408H20.3594L20 22.3721ZM25.1484 20.6792L24.1953 19.9751L23.25 20.6792L23.6094 19.5479L22.6641 18.8517H23.8359L24.1953 17.7205L24.5625 18.8517H25.7344L24.7891 19.5479L25.1484 20.6792ZM28.3281 16.2411H27.1563L26.7969 17.3724L26.4297 16.2411H25.2578L26.2109 15.545L25.8437 14.4137L26.7969 15.1099L27.7422 14.4137L27.3828 15.545L28.3281 16.2411ZM28.3281 10.7589L27.3828 11.455L27.7422 12.5863L26.7969 11.8901L25.8437 12.5863L26.2109 11.455L25.2578 10.7589H26.4297L26.7969 9.63551L27.1563 10.7589H28.3281ZM25.1484 6.32874L24.7891 7.46001L25.7344 8.15617H24.5625L24.1953 9.27952L23.8359 8.15617H22.6641L23.6094 7.46001L23.25 6.32874L24.1953 7.0249L25.1484 6.32874Z" fill="#496E2D"/>
<path d="M21.8203 13.3457C20.9609 11.6765 20.6875 11.3601 20.6875 11.3601C20.6875 11.3601 20.7188 10.5927 20.7188 10.126C20.7188 9.42983 20.1406 8.87606 19.4297 8.87606C18.7578 8.87606 18.2031 9.10548 18.1406 9.74626C17.8125 9.81746 17.4688 10.0706 17.4688 10.5927C17.4688 10.9725 17.5469 11.1702 17.875 11.3284C18.0391 10.9645 18.2109 10.9487 18.6016 10.8221C18.6641 10.8696 18.7344 11.0595 18.8047 11.0911L18.8281 11.1702C18.8281 11.1702 17.7891 11.6924 17.7891 13.6147C17.7891 15.9484 19.5078 17.2063 19.5078 17.2063L19.3672 17.23L19.2187 17.7917H20.9375V17.2221L21.7969 18.6065C21.8203 18.5828 22.5937 14.8409 21.8203 13.3457Z" fill="#496E2D"/>
</g>
<defs>
<clipPath id="clip0_6065_1929">
<rect width="40" height="27" fill="white"/>
</clipPath>
</defs>
</svg>
