<svg width="40" height="27" viewBox="0 0 40 27" fill="none" xmlns="http://www.w3.org/2000/svg">
<g clip-path="url(#clip0_6065_1914)">
<path d="M0 0H40V27H0V0Z" fill="white"/>
<path d="M0 17.0243H16.5234V27H0V17.0243Z" fill="#D80027"/>
<path d="M0 0H16.5234V9.98359H0V0Z" fill="#0052B4"/>
<path d="M23.4766 0H40V9.98359H23.4766V0Z" fill="#D80027"/>
<path d="M23.4766 17.0243H40V27H23.4766V17.0243Z" fill="#0052B4"/>
<path d="M20 10.2842H16.1016V14.1922C16.1016 14.1922 17.625 14.6669 20 14.6669V10.2842Z" fill="#0052B4"/>
<path fill-rule="evenodd" clip-rule="evenodd" d="M15.9066 10.0868H20.1949V14.8643H20C18.7998 14.8643 17.814 14.7443 17.1269 14.624C16.7834 14.5639 16.5144 14.5036 16.3304 14.4581C16.2385 14.4354 16.1678 14.4163 16.1196 14.4028C16.0956 14.3961 16.0771 14.3907 16.0645 14.387C16.0582 14.3851 16.0533 14.3837 16.05 14.3826L16.046 14.3814L16.0448 14.3811L16.0443 14.3809C16.0443 14.3809 16.0442 14.3809 16.1015 14.1922L16.0442 14.3809L15.9066 14.338V10.0868ZM16.2965 14.0422C16.332 14.0517 16.3742 14.0626 16.4229 14.0746C16.5989 14.1181 16.8592 14.1765 17.1934 14.235C17.8244 14.3455 18.7185 14.4564 19.8051 14.4684V10.4816H16.2965V14.0422Z" fill="white"/>
<path d="M16.1016 14.1922V14.6669C16.1016 16.8424 17.8437 18.6144 20 18.6144V14.6669C17.625 14.6669 16.1016 14.1922 16.1016 14.1922Z" fill="#D80027"/>
<path fill-rule="evenodd" clip-rule="evenodd" d="M16.2965 14.4496V14.6669C16.2965 16.6676 17.8477 18.3092 19.8051 18.4119V14.8632C18.6929 14.8511 17.7764 14.7377 17.1269 14.624C16.7834 14.5639 16.5144 14.5036 16.3304 14.4581C16.3188 14.4552 16.3075 14.4524 16.2965 14.4496ZM16.1589 14.0035L16.1593 14.0037L16.162 14.0045C16.1645 14.0053 16.1685 14.0065 16.174 14.0081C16.1848 14.0113 16.2014 14.0161 16.2237 14.0224C16.2681 14.0348 16.335 14.0529 16.4229 14.0746C16.5989 14.1181 16.8592 14.1765 17.1934 14.235C17.8618 14.3521 18.8252 14.4695 20 14.4695H20.1949V18.8118H20C17.7358 18.8118 15.9066 16.9511 15.9066 14.6669V13.9249L16.1589 14.0035Z" fill="white"/>
<path d="M20 18.6144C22.1484 18.6144 23.8984 16.8503 23.8984 14.6669V14.1922C23.8984 14.1922 22.375 14.6669 20 14.6669V18.6144Z" fill="#0052B4"/>
<path fill-rule="evenodd" clip-rule="evenodd" d="M24.0934 13.9249V14.6669C24.0934 16.9595 22.2558 18.8118 20 18.8118V18.6144H19.8051V14.4695H20C21.1748 14.4695 22.1382 14.3521 22.8066 14.235C23.1408 14.1765 23.4011 14.1181 23.577 14.0746C23.665 14.0529 23.7319 14.0348 23.7763 14.0224C23.7985 14.0161 23.8152 14.0113 23.826 14.0081C23.8314 14.0065 23.8354 14.0053 23.8379 14.0045L23.8406 14.0037L23.8411 14.0035L23.8412 14.0035L24.0934 13.9249ZM20.1949 18.4119C22.1458 18.3092 23.7035 16.6746 23.7035 14.6669V14.4496C23.6925 14.4524 23.6812 14.4552 23.6695 14.4581C23.4856 14.5036 23.2166 14.5639 22.873 14.624C22.2236 14.7377 21.3071 14.8511 20.1949 14.8632V18.4119Z" fill="white"/>
<path d="M20 10.2842V14.6669C22.375 14.6669 23.8984 14.1922 23.8984 14.1922V10.2842H20Z" fill="#D80027"/>
<path fill-rule="evenodd" clip-rule="evenodd" d="M19.8051 10.0868H24.0934V14.338L23.9557 14.3809L23.8984 14.1922C23.9557 14.3809 23.9557 14.3809 23.9557 14.3809L23.9552 14.3811L23.954 14.3814L23.95 14.3826C23.9466 14.3837 23.9418 14.3851 23.9355 14.387C23.9228 14.3907 23.9044 14.3961 23.8803 14.4028C23.8322 14.4163 23.7615 14.4354 23.6695 14.4581C23.4856 14.5036 23.2166 14.5639 22.873 14.624C22.186 14.7443 21.2002 14.8643 20 14.8643H19.8051V10.0868ZM23.7035 14.0422V10.4816H20.1949V14.4684C21.2815 14.4564 22.1755 14.3455 22.8066 14.235C23.1408 14.1765 23.4011 14.1181 23.577 14.0746C23.6257 14.0626 23.668 14.0517 23.7035 14.0422Z" fill="white"/>
</g>
<defs>
<clipPath id="clip0_6065_1914">
<rect width="40" height="27" fill="white"/>
</clipPath>
</defs>
</svg>
