<svg width="40" height="27" viewBox="0 0 40 27" fill="none" xmlns="http://www.w3.org/2000/svg">
<g clip-path="url(#clip0_6065_1908)">
<path d="M0 0H40V27H0V0Z" fill="#41662E"/>
<path d="M20 0H40V27H20V0Z" fill="white"/>
<path d="M26.6797 8.3302L24.3828 11.5262L20.6719 10.3079L22.9687 13.5039L20.6719 16.7L24.3828 15.4817L26.6797 18.6777V14.7222L30.3906 13.496L26.6797 12.2778V8.3302Z" fill="#D80027"/>
<path d="M24.2109 21.8895C19.6406 21.8895 15.9297 18.1318 15.9297 13.504C15.9297 8.87606 19.6406 5.11837 24.2109 5.11837C25.6406 5.11837 26.9766 5.48227 28.1484 6.12306C26.3125 4.30354 23.7969 3.18019 21.0234 3.18019C15.3984 3.18019 10.8359 7.80017 10.8359 13.496C10.8359 19.1919 15.3984 23.8119 21.0234 23.8119C23.7969 23.8119 26.3125 22.6885 28.1484 20.869C26.9844 21.5177 25.6406 21.8895 24.2109 21.8895Z" fill="#D80027"/>
</g>
<defs>
<clipPath id="clip0_6065_1908">
<rect width="40" height="27" fill="white"/>
</clipPath>
</defs>
</svg>
