<svg width="40" height="27" viewBox="0 0 40 27" fill="none" xmlns="http://www.w3.org/2000/svg">
<g clip-path="url(#clip0_6065_1900)">
<path d="M0 0H40V27H0V0Z" fill="#FFDA44"/>
<path d="M0 13.504H40V20.252H0V13.504Z" fill="#0052B4"/>
<path d="M0 20.252H40V27H0V20.252Z" fill="#D80027"/>
<path d="M20 18.2031C22.5629 18.2031 24.6406 16.0992 24.6406 13.504C24.6406 10.9087 22.5629 8.80487 20 8.80487C17.4371 8.80487 15.3594 10.9087 15.3594 13.504C15.3594 16.0992 17.4371 18.2031 20 18.2031Z" fill="#FFDA44"/>
<path d="M28.8438 6.32083C28.8438 6.32083 26.7187 5.22912 26.1953 5.05508C25.6719 4.88104 22.3594 4.01084 22.3594 4.50132C22.3594 5.31614 21.3047 5.45063 21.1484 5.45063C20.9922 5.45063 20.9922 5.03135 19.9922 5.03135C18.9922 5.03135 18.9219 5.41107 18.7578 5.41107C18.5859 5.41107 17.625 5.33197 17.625 4.50132C17.625 4.08995 14.2734 4.81776 13.7891 5.05508C13.3125 5.30032 11.1406 6.32083 11.1406 6.32083C11.1406 6.32083 14.7187 6.53443 15.3516 6.81131C15.9844 7.08819 18.7734 8.11661 18.7734 8.11661L18.5547 9.16877H21.5078L21.2109 8.11661C21.2109 8.11661 23.9531 7.11192 24.6328 6.81131C25.3125 6.51069 28.8438 6.32083 28.8438 6.32083Z" fill="#4C1F00"/>
<path d="M17.0078 13.5831C17.0078 15.2523 18.3516 16.613 20 16.613C21.6484 16.613 22.9922 15.2523 22.9922 13.5831V12.6733H17.0156V13.5831H17.0078Z" fill="#57BA17"/>
<path d="M20 8.74158C18.3516 8.74158 17.0078 10.1023 17.0078 11.7715V12.6812H22.9844V11.7715C22.9922 10.1023 21.6484 8.74158 20 8.74158Z" fill="#338AF3"/>
</g>
<defs>
<clipPath id="clip0_6065_1900">
<rect width="40" height="27" fill="white"/>
</clipPath>
</defs>
</svg>
