<svg width="40" height="27" viewBox="0 0 40 27" fill="none" xmlns="http://www.w3.org/2000/svg">
<g clip-path="url(#clip0_6065_1891)">
<path d="M0 0H40V27H0V0Z" fill="white"/>
<path d="M0 0H40V9.00264H0V0Z" fill="#D80027"/>
<path d="M0 18.0053H40V27.0079H0V18.0053Z" fill="black"/>
<path d="M17.2109 16.1699C17.2109 16.1699 17.2109 11.5499 17.5625 11.0516C17.8047 10.7114 18.875 11.4629 19.3359 11.4075C19.3359 11.4075 19.6641 10.8142 19.6875 10.4582C19.7109 10.0943 19.6016 9.857 19.3047 9.96776C19.3047 9.96776 19.2109 9.80163 19.3438 9.7067C19.4688 9.61176 19.7812 9.71461 19.7812 9.71461C19.7812 9.71461 19.7422 9.6355 19.9062 9.64341C20.1328 9.65923 20.4688 9.75416 20.4844 10.0864C20.5 10.3317 20.5078 10.6956 20.5156 10.7747C20.5703 11.3126 20.7266 11.4629 20.7266 11.4629C20.7266 11.4629 22.1641 10.7351 22.4453 11.0516C22.7031 11.3522 22.7969 16.1699 22.7969 16.1699L21.3828 14.8409L22.3281 17.1746C22.3281 17.1746 21.2031 17.3645 20.0703 17.3645C18.9375 17.3645 17.6406 17.0322 17.6406 17.0322L18.7188 14.8013L17.2109 16.1699Z" fill="#C09300"/>
</g>
<defs>
<clipPath id="clip0_6065_1891">
<rect width="40" height="27" fill="white"/>
</clipPath>
</defs>
</svg>
