<svg width="40" height="27" viewBox="0 0 40 27" fill="none" xmlns="http://www.w3.org/2000/svg">
<g clip-path="url(#clip0_6065_1884)">
<path d="M0 0H40V27H0V0Z" fill="white"/>
<path d="M0 0H40V9.00264H0V0Z" fill="black"/>
<path d="M0 18.0053H40V27.0079H0V18.0053Z" fill="#428823"/>
<path d="M20 13.504L0 27V0L20 13.504ZM24.1484 13.504C24.1484 11.6924 25.1719 10.1735 26.8516 9.80164C26.5938 9.74626 26.3281 9.71462 26.0469 9.71462C23.9844 9.71462 22.3047 11.4076 22.3047 13.504C22.3047 15.6004 23.9766 17.2933 26.0469 17.2933C26.3203 17.2933 26.5938 17.2616 26.8516 17.2063C25.1719 16.8265 24.1484 15.3156 24.1484 13.504Z" fill="#D80027"/>
<path d="M28.5156 10.2209L29.3203 12.7287H31.9219L29.8125 14.2792L30.6172 16.787L28.5156 15.2364L26.4063 16.787L27.2109 14.2792L25.1016 12.7287H27.7109L28.5156 10.2209Z" fill="#D80027"/>
</g>
<defs>
<clipPath id="clip0_6065_1884">
<rect width="40" height="27" fill="white"/>
</clipPath>
</defs>
</svg>
