<svg width="40" height="27" viewBox="0 0 40 27" fill="none" xmlns="http://www.w3.org/2000/svg">
<g clip-path="url(#clip0_6065_1871)">
<path d="M0 0H40V27H0V0Z" fill="#338AF3"/>
<path d="M0 0H40V13.504H0V0Z" fill="#56AF35"/>
<path d="M0 27L40 13.496L0 0V27Z" fill="#D80027"/>
<path d="M10.5234 18.3138C13.1484 18.3138 15.2734 16.162 15.2734 13.5039C15.2734 10.8459 13.1484 8.6941 10.5234 8.6941C7.89844 8.6941 5.77344 10.8459 5.77344 13.5039C5.77344 16.162 7.89844 18.3138 10.5234 18.3138ZM10.5234 20.2361C6.85156 20.2361 3.86719 17.2221 3.86719 13.496C3.86719 9.76998 6.84375 6.75592 10.5234 6.75592C14.2031 6.75592 17.1797 9.76998 17.1797 13.496C17.1797 17.2221 14.1953 20.2361 10.5234 20.2361Z" fill="#FFC945"/>
<path d="M9.33594 13.1163C10.091 13.1163 10.7031 12.4965 10.7031 11.7319C10.7031 10.9673 10.091 10.3475 9.33594 10.3475C8.58086 10.3475 7.96875 10.9673 7.96875 11.7319C7.96875 12.4965 8.58086 13.1163 9.33594 13.1163Z" fill="#FFC945"/>
<path d="M11.6328 13.9232C12.3879 13.9232 13 13.3034 13 12.5388C13 11.7742 12.3879 11.1544 11.6328 11.1544C10.8777 11.1544 10.2656 11.7742 10.2656 12.5388C10.2656 13.3034 10.8777 13.9232 11.6328 13.9232Z" fill="#FFC945"/>
<path d="M10.5234 12.08C11.2785 12.08 11.8906 11.4602 11.8906 10.6956C11.8906 9.93098 11.2785 9.31116 10.5234 9.31116C9.76836 9.31116 9.15625 9.93098 9.15625 10.6956C9.15625 11.4602 9.76836 12.08 10.5234 12.08Z" fill="#FFC945"/>
<path d="M9.33594 15.0466C10.091 15.0466 10.7031 14.4267 10.7031 13.6622C10.7031 12.8976 10.091 12.2777 9.33594 12.2777C8.58086 12.2777 7.96875 12.8976 7.96875 13.6622C7.96875 14.4267 8.58086 15.0466 9.33594 15.0466Z" fill="#FFC945"/>
<path d="M11.7109 15.8456C12.466 15.8456 13.0781 15.2258 13.0781 14.4612C13.0781 13.6966 12.466 13.0768 11.7109 13.0768C10.9559 13.0768 10.3438 13.6966 10.3438 14.4612C10.3438 15.2258 10.9559 15.8456 11.7109 15.8456Z" fill="#FFC945"/>
<path d="M9.57031 17.0481C10.3254 17.0481 10.9375 16.4282 10.9375 15.6636C10.9375 14.8991 10.3254 14.2792 9.57031 14.2792C8.81524 14.2792 8.20312 14.8991 8.20312 15.6636C8.20312 16.4282 8.81524 17.0481 9.57031 17.0481Z" fill="#FFC945"/>
<path d="M11.3984 17.6176C12.1535 17.6176 12.7656 16.9978 12.7656 16.2332C12.7656 15.4686 12.1535 14.8488 11.3984 14.8488C10.6434 14.8488 10.0312 15.4686 10.0312 16.2332C10.0312 16.9978 10.6434 17.6176 11.3984 17.6176Z" fill="#FFC945"/>
</g>
<defs>
<clipPath id="clip0_6065_1871">
<rect width="40" height="27" fill="white"/>
</clipPath>
</defs>
</svg>
