<svg width="40" height="26" viewBox="0 0 40 26" fill="none" xmlns="http://www.w3.org/2000/svg">
<g clip-path="url(#clip0_6065_1864)">
<path d="M0 0.0182495H39.922V26.0183H0V0.0182495Z" fill="white"/>
<path d="M0 0.0182495H39.922V6.95159H0V0.0182495ZM0 19.0849H39.922V26.0183H0V19.0849Z" fill="#D03433"/>
<path d="M0 6.9364H39.922V19.1002H0V6.9364Z" fill="#FBCA46"/>
<path d="M13.8397 12.1516H15.614V13.0183H13.8397V12.1516Z" fill="white"/>
<path d="M12.775 14.7516C12.775 15.2716 13.3073 15.6182 13.8396 15.6182C14.3719 15.6182 14.9042 15.2716 14.9042 14.7516L15.0816 12.1516H12.5976L12.775 14.7516ZM11.7104 12.1516C11.7104 11.6316 12.0653 11.2849 12.4202 11.2849H15.0816C15.6139 11.2849 15.9688 11.6316 15.9688 11.9782V12.1516L15.7914 14.7516C15.6139 15.7916 14.9042 16.4849 13.8396 16.4849C12.775 16.4849 12.0653 15.7916 11.8879 14.7516L11.7104 12.1516Z" fill="#A41517"/>
<path d="M12.0653 13.0183H15.614V13.8849H14.7268L13.8397 15.6183L12.9525 13.8849H12.0653V13.0183ZM9.40387 10.4183H11.1782V16.4849H9.40387V10.4183ZM16.5011 10.4183H18.2754V16.4849H16.5011V10.4183ZM12.0653 9.5516C12.0653 9.0316 12.4202 8.68494 12.9525 8.68494H14.7268C15.2591 8.68494 15.614 9.0316 15.614 9.5516V9.89827C15.614 10.2449 15.4365 10.4183 15.0817 10.4183H12.4202C12.2428 10.4183 12.0653 10.2449 12.0653 10.0716V9.5516Z" fill="#A41517"/>
</g>
<defs>
<clipPath id="clip0_6065_1864">
<rect width="40" height="26" fill="white"/>
</clipPath>
</defs>
</svg>
