<svg width="40" height="26" viewBox="0 0 40 26" fill="none" xmlns="http://www.w3.org/2000/svg">
<g clip-path="url(#clip0_6065_1856)">
<path d="M0 6.10352e-05H40V8.66673H0V6.10352e-05Z" fill="#20AA46"/>
<path d="M0 17.3333H40V26H0V17.3333Z" fill="#E92F3B"/>
<path d="M0 8.66669H40V17.3334H0V8.66669Z" fill="#FADF50"/>
<path d="M20.0882 22.013C25.1938 22.013 29.3326 17.9776 29.3326 12.9997C29.3326 8.02173 25.1938 3.98633 20.0882 3.98633C14.9826 3.98633 10.8438 8.02173 10.8438 12.9997C10.8438 17.9776 14.9826 22.013 20.0882 22.013Z" fill="#205CCA"/>
<path fill-rule="evenodd" clip-rule="evenodd" d="M20.0889 5.78735L21.8271 10.6597H27.5202L22.9254 13.8597L24.676 18.9802L20.0889 15.7856L15.5017 18.9802L17.2548 13.8523L12.8889 10.6597H18.3463L18.4228 10.436L18.4297 10.4383L20.0889 5.78735ZM18.05 11.5264L17.5511 12.9857L15.5555 11.5264H18.05ZM18.0127 14.376L17.2094 16.7259L19.2505 15.3044L18.0127 14.376ZM20.8553 15.2543L22.9683 16.7259L22.1651 14.3764L20.8553 15.2543ZM22.692 12.9572L24.7464 11.5264H22.1213L22.692 12.9572ZM20.8859 10.6597L20.0889 8.42544L19.2918 10.6597H20.8859ZM18.987 11.5264L18.3103 13.5058L20.002 14.7746L21.9439 13.4729L21.1675 11.5264H18.987Z" fill="#FFDB3D"/>
<path fill-rule="evenodd" clip-rule="evenodd" d="M22.5671 9.24459L24.3448 6.47125L24.7217 6.70092L22.9439 9.47425L22.5671 9.24459ZM17.239 9.6555L15.2835 6.88217L15.6497 6.63667L17.6053 9.41L17.239 9.6555ZM12.5416 15.3975L15.7416 14.1842L15.9027 14.588L12.7027 15.8014L12.5416 15.3975ZM24.436 14.1842L27.636 15.3975L27.475 15.8014L24.275 14.588L24.436 14.1842ZM19.8666 20.7994V17.5061H20.3111V20.7994H19.8666Z" fill="#FFDB3D"/>
</g>
<defs>
<clipPath id="clip0_6065_1856">
<rect width="40" height="26" fill="white"/>
</clipPath>
</defs>
</svg>
