<svg width="40" height="26" viewBox="0 0 40 26" fill="none" xmlns="http://www.w3.org/2000/svg">
<g clip-path="url(#clip0_6065_1853)">
<path d="M0 0H40V26H0V0Z" fill="#003399"/>
<path d="M19.9976 2.88239L20.3302 3.87992H21.4114L20.5406 4.49679L20.8684 5.49538L19.9976 4.87851L19.1268 5.49538L19.4594 4.49732L18.5887 3.88045H19.665L19.9976 2.88239ZM15.5531 4.03794L15.8857 5.03547H16.9669L16.0962 5.65235L16.424 6.65094L15.5531 6.03407L14.6823 6.65094L15.015 5.65288L14.1442 5.036H15.2206L15.5531 4.03794ZM12.2939 7.21572L12.6265 8.21325H13.7077L12.8369 8.83012L13.1647 9.82872L12.2939 9.21184L11.4231 9.82872L11.7557 8.83065L10.885 8.21378H11.9613L12.2939 7.21572ZM11.1087 11.549L11.4413 12.5466H12.5225L11.6517 13.1635L11.9795 14.1621L11.1087 13.5452L10.2379 14.1621L10.5705 13.1639L9.69977 12.5471H10.7761L11.1087 11.549ZM12.2939 15.8824L12.6265 16.88H13.7077L12.8369 17.4968L13.1647 18.4954L12.2939 17.8786L11.4231 18.4954L11.7557 17.4973L10.885 16.8804H11.9613L12.2939 15.8824ZM15.5531 19.0602L15.8857 20.0577H16.9669L16.0962 20.6746L16.424 21.6732L15.5531 21.0563L14.6823 21.6732L15.015 20.6751L14.1442 20.0582H15.2206L15.5531 19.0602ZM24.442 4.03794L24.7746 5.03547H25.8558L24.9851 5.65235L25.3128 6.65094L24.442 6.03407L23.5712 6.65094L23.9039 5.65288L23.0331 5.036H24.1094L24.442 4.03794ZM27.7013 7.21572L28.0339 8.21325H29.1151L28.2443 8.83012L28.5721 9.82872L27.7013 9.21184L26.8304 9.82872L27.1631 8.83065L26.2924 8.21378H27.3687L27.7013 7.21572ZM28.8865 11.5491L29.2191 12.5466H30.3003L29.4295 13.1635L29.7573 14.1621L28.8865 13.5452L28.0157 14.1621L28.3483 13.1639L27.4775 12.5471H28.5539L28.8865 11.5491ZM27.7013 15.8824L28.0339 16.88H29.1151L28.2443 17.4968L28.5721 18.4954L27.7013 17.8786L26.8305 18.4954L27.1631 17.4973L26.2924 16.8804H27.3687L27.7013 15.8824ZM19.9976 20.2157L20.3302 21.2133H21.4114L20.5406 21.8301L20.8684 22.8287L19.9976 22.2119L19.1268 22.8287L19.4594 21.8307L18.5887 21.2138H19.665L19.9976 20.2157ZM24.442 19.0601L24.7746 20.0577H25.8558L24.9851 20.6746L25.3129 21.6732L24.442 21.0563L23.5713 21.6732L23.9039 20.675L23.0331 20.0582H24.1095L24.442 19.0601Z" fill="#FFCC00"/>
</g>
<defs>
<clipPath id="clip0_6065_1853">
<rect width="40" height="26" fill="white"/>
</clipPath>
</defs>
</svg>
