<svg width="40" height="26" viewBox="0 0 40 26" fill="none" xmlns="http://www.w3.org/2000/svg">
<g clip-path="url(#clip0_6065_1841)">
<path d="M0 0H40V26H0V0Z" fill="#2E52B2"/>
<path d="M20 0V1.72165L16.3984 4.06036H20V8.93583H16.3984L20 11.2745V13.0038H18.2344L12.5 9.27102V13.0038H7.5V9.27102L1.76562 13.0038H0V11.2745L3.60156 8.93583H0V4.06036H3.60156L0 1.72165V0H1.76562L7.5 3.72517V0H12.5V3.72517L18.2344 0H20Z" fill="white"/>
<path d="M11.25 0H8.75V5.27923H0V7.71697H8.75V13.0038H11.25V7.71697H20V5.27923H11.25V0Z" fill="#D80027"/>
<path d="M0 0V1.15031L4.48438 4.06036H6.25L0 0ZM20 0V1.15031L15.5156 4.06036H13.75L20 0Z" fill="#D80027"/>
<path d="M0 0V1.15031L4.48438 4.06036H6.25L0 0ZM20 0V1.15031L15.5156 4.06036H13.75L20 0ZM0 13.0038V11.8535L4.48438 8.93583H6.25L0 13.0038ZM20 13.0038V11.8535L15.5156 8.93583H13.75L20 13.0038Z" fill="#D80027"/>
<path d="M23.9922 9.68241V16.6909C23.9922 21.3836 30.2813 22.8233 30.2813 22.8233C30.2813 22.8233 36.5625 21.3759 36.5625 16.6833V9.67479L30.2734 7.92267L23.9922 9.68241Z" fill="#F3F3F3"/>
<path d="M36.5625 10.1166V7.4884H23.9922V10.1166H29.3828V15.373H23.9922V17.1251H29.3828V22.5491C29.9219 22.7395 30.2812 22.8157 30.2812 22.8157C30.2812 22.8157 30.6406 22.7319 31.1797 22.5491V17.1251H36.5703V15.373H31.1797V10.1166H36.5625Z" fill="#D80027"/>
</g>
<defs>
<clipPath id="clip0_6065_1841">
<rect width="40" height="26" fill="white"/>
</clipPath>
</defs>
</svg>
