<svg width="40" height="26" viewBox="0 0 40 26" fill="none" xmlns="http://www.w3.org/2000/svg">
<g clip-path="url(#clip0_6065_1825)">
<path d="M0 0H40V26H0V0Z" fill="#0052B4"/>
<path d="M20 0V2.33109L16.4688 4.24319H20V8.76062H15.3828L20 11.2593V13.0038H17.9141L12.1719 9.88807V13.0038H7.82812V9.30149L0.992188 13.0038H0V10.6727L3.53125 8.76062H0V4.24319H4.61719L0 1.73689V0H2.08594L7.82812 3.10812V0H12.1719V3.70231L19.0078 0H20Z" fill="white"/>
<path d="M11.25 0H8.75V5.27923H0V7.71697H8.75V13.0038H11.25V7.71697H20V5.27923H11.25V0Z" fill="#D80027"/>
<path d="M12.1719 8.76062L20 13.0038V11.8002L14.3906 8.76062H12.1719Z" fill="#0052B4"/>
<path d="M12.1719 8.76062L20 13.0038V11.8002L14.3906 8.76062H12.1719Z" fill="white"/>
<path d="M12.1719 8.76062L20 13.0038V11.8002L14.3906 8.76062H12.1719ZM5.60938 8.76062L0 11.8002V13.0038L7.82812 8.76062H5.60938Z" fill="#D80027"/>
<path d="M7.82812 4.23557L0 0V1.19602L5.60938 4.23557H7.82812Z" fill="#0052B4"/>
<path d="M7.82812 4.23557L0 0V1.19602L5.60938 4.23557H7.82812Z" fill="white"/>
<path d="M7.82812 4.23557L0 0V1.19602L5.60938 4.23557H7.82812ZM14.3906 4.23557L20 1.19602V0L12.1719 4.23557H14.3906Z" fill="#D80027"/>
<path d="M24.3906 14.794V7.93788C24.3906 7.29036 24.8984 6.77234 25.5625 6.77234H34.9766C35.625 6.77234 36.1484 7.29036 36.1484 7.93788V14.794C36.1484 20.5227 30.2734 22.8157 30.2734 22.8157C30.2734 22.8157 24.3906 20.5227 24.3906 14.794Z" fill="#1F8BDE"/>
<path d="M24.3906 14.794V7.93788C24.3906 7.29036 24.8984 6.77234 25.5625 6.77234H34.9766C35.625 6.77234 36.1484 7.29036 36.1484 7.93788V14.794C36.1484 20.5227 30.2734 22.8157 30.2734 22.8157C30.2734 22.8157 24.3906 20.5227 24.3906 14.794ZM30.6094 21.3683C31.2266 21.0255 31.8516 20.6065 32.4219 20.0961C34.0234 18.6868 34.9687 16.9423 34.9687 14.7864V7.93026C34.9687 7.90741 25.5625 7.90741 25.5625 7.90741V14.7864C25.5625 16.9423 26.5078 18.6868 28.1094 20.0961C28.7578 20.6674 29.4844 21.155 30.2656 21.5435C30.375 21.4978 30.4844 21.4369 30.6094 21.3683Z" fill="white"/>
<path d="M27.1172 14.733C26.9141 14.1312 27.25 13.6437 27.9062 13.6437H32.6328C33.2734 13.6437 33.6328 14.1236 33.4219 14.733L32.9922 15.99C32.7891 16.5918 32.2969 16.6908 31.7578 16.2947C31.7578 16.2947 31.9609 15.9291 30.2656 15.9291C28.5703 15.9291 28.7734 16.2947 28.7734 16.2947C28.2969 16.7289 27.75 16.5994 27.5391 15.99C27.5469 15.9976 27.1172 14.733 27.1172 14.733Z" fill="#187536"/>
<path d="M27.9219 13.6437C28.5547 13.7656 29.3125 12.501 30.2734 12.501C31.2969 12.501 31.9766 13.8037 32.625 13.6437C33.2031 13.5066 33.7969 11.9526 33.7969 11.3507C33.7969 10.0862 32.2187 9.05774 30.2734 9.05774C28.3281 9.05774 26.75 10.0862 26.75 11.3507C26.7422 11.9983 27.2656 13.5218 27.9219 13.6437ZM27.8125 20.6218C28.2969 20.6522 28.7891 20.4846 29.1562 20.1266L29.8594 19.441C30.0859 19.2201 30.4453 19.2201 30.6719 19.441L31.375 20.1266C31.7422 20.4846 32.2344 20.6522 32.7109 20.6218C33.125 20.5989 35.25 18.0698 34.7187 18.1383C34.3594 18.184 34.0078 18.3516 33.7266 18.6182L33.7187 18.6259L33.0156 19.3115C32.7891 19.5324 32.4297 19.5324 32.2031 19.3115L31.5 18.6259C30.8203 17.9555 29.7109 17.9555 29.0234 18.6182L29.0156 18.6259L28.3125 19.3115C28.0859 19.5324 27.7266 19.5324 27.5 19.3115L26.7969 18.6259C26.5234 18.3592 26.1875 18.1993 25.8359 18.1459C25.3125 18.0621 27.4062 20.5989 27.8125 20.6218ZM25.1641 15.9977C25.3906 15.7768 25.75 15.7768 25.9766 15.9977L26.6797 16.6833C27.3672 17.346 28.4687 17.346 29.1562 16.6833L29.8594 15.9977C30.0859 15.7768 30.4453 15.7768 30.6719 15.9977L31.375 16.6833C32.0625 17.346 33.1641 17.346 33.8516 16.6833L34.5547 15.9977C34.7812 15.7768 35.1406 15.7768 35.3672 15.9977C35.3672 15.9977 35.7969 14.8702 35.5625 14.7864C34.9453 14.5655 34.2187 14.695 33.7266 15.1826L33.7187 15.1902L33.0156 15.8758C32.7891 16.0967 32.4297 16.0967 32.2031 15.8758L31.5 15.1902C30.8203 14.5198 29.7109 14.5198 29.0234 15.1826L29.0156 15.1902L28.3125 15.8758C28.0859 16.0967 27.7266 16.0967 27.5 15.8758L26.7969 15.1902C26.3125 14.7179 25.6172 14.5807 25.0156 14.7712C24.7734 14.855 25.1641 15.9977 25.1641 15.9977Z" fill="white"/>
</g>
<defs>
<clipPath id="clip0_6065_1825">
<rect width="40" height="26" fill="white"/>
</clipPath>
</defs>
</svg>
