<svg width="40" height="26" viewBox="0 0 40 26" fill="none" xmlns="http://www.w3.org/2000/svg">
<g clip-path="url(#clip0_6065_1821)">
<path d="M0 0H40V26H0V0Z" fill="#338AF3"/>
<path d="M20 2.88721L20.7891 5.264H23.3594L21.2812 6.73426L22.0781 9.11106L20 7.6408L17.9219 9.11106L18.7188 6.73426L16.6406 5.264H19.2109L20 2.88721ZM9.625 13.0038L12.0625 12.2268V9.72811L13.5703 11.7545L16.0078 10.9775L14.5 13.0038L16.0078 15.0226L13.5703 14.2532L12.0625 16.2719V13.7732L9.625 13.0038ZM20 23.1204L19.2109 20.7436H16.6406L18.7188 19.2734L17.9219 16.889L20 18.3592L22.0781 16.889L21.2812 19.2734L23.3594 20.7436H20.7891L20 23.1204ZM30.375 13.0038L27.9375 13.7732V16.2719L26.4297 14.2532L23.9922 15.0226L25.5 13.0038L23.9922 10.9775L26.4297 11.7545L27.9375 9.72811V12.2268L30.375 13.0038Z" fill="white"/>
</g>
<defs>
<clipPath id="clip0_6065_1821">
<rect width="40" height="26" fill="white"/>
</clipPath>
</defs>
</svg>
