<svg width="40" height="27" viewBox="0 0 40 27" fill="none" xmlns="http://www.w3.org/2000/svg">
<g clip-path="url(#clip0_6065_1792)">
<path d="M0 0H40V27.0003H0V0Z" fill="white"/>
<path d="M22.5 -0.000152588H17.5V10.9686H0V16.0311H17.5V26.9998H22.5V16.0311H40V10.9686H22.5V-0.000152588Z" fill="#D80027"/>
<path d="M30.7644 18.1953L40 23.3904V18.1953H30.7644ZM24.3478 18.1953L40 26.9997V24.51L28.774 18.1953H24.3478ZM35.8307 26.9997L24.3478 20.5399V26.9997H35.8307Z" fill="#0052B4"/>
<path d="M24.3478 18.1953L40 26.9997V24.51L28.774 18.1953H24.3478Z" fill="white"/>
<path d="M24.3478 18.1953L40 26.9997V24.51L28.774 18.1953H24.3478Z" fill="#D80027"/>
<path d="M7.05789 18.1952L0 22.1653V18.1952H7.05789ZM15.6522 19.3148V26.9996H1.99148L15.6522 19.3148Z" fill="#0052B4"/>
<path d="M11.226 18.1953L0 24.51V26.9997L15.6522 18.1953H11.226Z" fill="#D80027"/>
<path d="M9.23555 8.80418L0 3.6091V8.80418H9.23555ZM15.6522 8.80418L0 -0.000152588V2.48949L11.226 8.80418H15.6522ZM4.16922 -0.000152588L15.6522 6.4596V-0.000152588H4.16922Z" fill="#0052B4"/>
<path d="M15.6522 8.80418L0 -0.000152588V2.48949L11.226 8.80418H15.6522Z" fill="white"/>
<path d="M15.6522 8.80418L0 -0.000152588V2.48949L11.226 8.80418H15.6522Z" fill="#D80027"/>
<path d="M32.9421 8.80426L40 4.83414V8.80426H32.9421ZM24.3478 7.68465V-0.000152588H38.0085L24.3478 7.68465Z" fill="#0052B4"/>
<path d="M28.774 8.80408L40 2.4894V-0.000244141L24.3478 8.80408H28.774Z" fill="#D80027"/>
</g>
<defs>
<clipPath id="clip0_6065_1792">
<rect width="40" height="27" fill="white"/>
</clipPath>
</defs>
</svg>
