<svg width="40" height="27" viewBox="0 0 40 27" fill="none" xmlns="http://www.w3.org/2000/svg">
<g clip-path="url(#clip0_6065_1781)">
<path d="M0 0H40V27H0V0Z" fill="#C60A0A"/>
<path d="M20 13.504L3.47656 23.4796V3.52036L20 13.504Z" fill="#3E8446"/>
<path d="M20 13.504L36.5234 23.4796H3.47656L20 13.504ZM36.5234 3.52036L20 13.504L3.47656 3.52036H36.5234Z" fill="#FFDA44"/>
<path d="M36.5234 3.52036V23.4796L20 13.504L36.5234 3.52036Z" fill="#3E8446"/>
<path d="M20 0.822739L20.2578 1.62965H21.0937L20.4219 2.12804L20.6797 2.93496L20 2.43657L19.3203 2.93496L19.5781 2.12804L18.9062 1.62965H19.7422L20 0.822739ZM13.2891 0.822739L13.5469 1.62965H14.3828L13.7109 2.12804L13.9687 2.93496L13.2891 2.43657L12.6094 2.93496L12.8672 2.12804L12.1953 1.62965H13.0312L13.2891 0.822739ZM26.7109 0.822739L26.9688 1.62965H27.8125L27.1328 2.12804L27.3906 2.93496L26.7109 2.43657L26.0313 2.93496L26.2891 2.12804L25.6172 1.62965H26.4531L26.7109 0.822739ZM20 24.0651L20.2578 24.872H21.0937L20.4219 25.3704L20.6797 26.1773L20 25.6789L19.3203 26.1773L19.5781 25.3704L18.9062 24.872H19.7422L20 24.0651ZM13.2891 24.0651L13.5469 24.872H14.3828L13.7109 25.3704L13.9687 26.1773L13.2891 25.6789L12.6094 26.1773L12.8672 25.3704L12.1953 24.872H13.0312L13.2891 24.0651ZM26.7109 24.0651L26.9688 24.872H27.8125L27.1328 25.3704L27.3906 26.1773L26.7109 25.6789L26.0313 26.1773L26.2891 25.3704L25.6172 24.872H26.4531L26.7109 24.0651Z" fill="#FFDA44"/>
<path d="M19.1016 19.5321C22.3894 19.5321 25.0547 16.8332 25.0547 13.504C25.0547 10.1747 22.3894 7.47583 19.1016 7.47583C15.8137 7.47583 13.1484 10.1747 13.1484 13.504C13.1484 16.8332 15.8137 19.5321 19.1016 19.5321Z" fill="#C60A0A"/>
<path d="M19.1016 8.70993L20.1641 12.0167H23.6016L20.8203 14.0577L21.8828 17.3645L19.1016 15.3235L16.3281 17.3645L17.3906 14.0577L14.6094 12.0167H18.0469L19.1016 8.70993ZM8.41408 13.2745C8.75783 13.8204 8.59377 14.5482 8.05471 14.8963C7.51564 15.2444 6.79689 15.0782 6.45314 14.5324C5.83596 13.5435 6.19533 11.9218 6.19533 11.9218C6.19533 11.9218 7.78908 12.2857 8.41408 13.2745Z" fill="#FFDA44"/>
<path d="M7.74219 14.9912C8.06148 14.9912 8.32031 14.7291 8.32031 14.4058C8.32031 14.0825 8.06148 13.8204 7.74219 13.8204C7.4229 13.8204 7.16406 14.0825 7.16406 14.4058C7.16406 14.7291 7.4229 14.9912 7.74219 14.9912Z" fill="#A2001D"/>
</g>
<defs>
<clipPath id="clip0_6065_1781">
<rect width="40" height="27" fill="white"/>
</clipPath>
</defs>
</svg>
