<svg width="40" height="27" viewBox="0 0 40 27" fill="none" xmlns="http://www.w3.org/2000/svg">
<g clip-path="url(#clip0_6065_1764)">
<path d="M0 0H40V27H0V0Z" fill="white"/>
<path d="M0 0H40V3.86053H0V0ZM0 7.71316H40V11.5737H0V7.71316ZM0 15.4263H40V19.2868H0V15.4263ZM0 23.1474H40V27.0079H0V23.1474Z" fill="#6DA544"/>
<path d="M0 0H20V11.5737H0V0Z" fill="#D80027"/>
<path d="M9.13281 9.05011L8.54688 7.87929V5.52974L10 4.66745L11.4531 5.52974V7.29388L12.0313 6.70847L12.3594 6.9458L12.0313 7.87929L10.8672 9.05011H9.13281Z" fill="white"/>
<path d="M6.40625 6.97743C6.63924 6.97743 6.82812 6.78617 6.82812 6.55024C6.82812 6.31431 6.63924 6.12305 6.40625 6.12305C6.17325 6.12305 5.98438 6.31431 5.98438 6.55024C5.98438 6.78617 6.17325 6.97743 6.40625 6.97743Z" fill="white"/>
<path d="M7.09375 5.30824C7.32675 5.30824 7.51562 5.11698 7.51562 4.88105C7.51562 4.64512 7.32675 4.45386 7.09375 4.45386C6.86076 4.45386 6.67188 4.64512 6.67188 4.88105C6.67188 5.11698 6.86076 5.30824 7.09375 5.30824Z" fill="white"/>
<path d="M8.32813 4.08204C8.56112 4.08204 8.75 3.89078 8.75 3.65485C8.75 3.41892 8.56112 3.22766 8.32813 3.22766C8.09513 3.22766 7.90625 3.41892 7.90625 3.65485C7.90625 3.89078 8.09513 4.08204 8.32813 4.08204Z" fill="white"/>
<path d="M10 3.65486C10.233 3.65486 10.4219 3.4636 10.4219 3.22767C10.4219 2.99174 10.233 2.80048 10 2.80048C9.767 2.80048 9.57812 2.99174 9.57812 3.22767C9.57812 3.4636 9.767 3.65486 10 3.65486Z" fill="white"/>
<path d="M11.6719 4.08204C11.9049 4.08204 12.0937 3.89078 12.0937 3.65485C12.0937 3.41892 11.9049 3.22766 11.6719 3.22766C11.4389 3.22766 11.25 3.41892 11.25 3.65485C11.25 3.89078 11.4389 4.08204 11.6719 4.08204Z" fill="white"/>
<path d="M12.9062 5.30824C13.1392 5.30824 13.3281 5.11698 13.3281 4.88105C13.3281 4.64512 13.1392 4.45386 12.9062 4.45386C12.6733 4.45386 12.4844 4.64512 12.4844 4.88105C12.4844 5.11698 12.6733 5.30824 12.9062 5.30824Z" fill="white"/>
<path d="M13.5937 6.97743C13.8267 6.97743 14.0156 6.78617 14.0156 6.55024C14.0156 6.31431 13.8267 6.12305 13.5937 6.12305C13.3608 6.12305 13.1719 6.31431 13.1719 6.55024C13.1719 6.78617 13.3608 6.97743 13.5937 6.97743Z" fill="white"/>
</g>
<defs>
<clipPath id="clip0_6065_1764">
<rect width="40" height="27" fill="white"/>
</clipPath>
</defs>
</svg>
