<svg width="40" height="27" viewBox="0 0 40 27" fill="none" xmlns="http://www.w3.org/2000/svg">
<g clip-path="url(#clip0_6065_1777)">
<path d="M0 0.00842285H40V27.0084H0V0.00842285Z" fill="white"/>
<path d="M17.4222 10.8H0V16.2H17.4222V27H22.7556V16.2H40.1778V10.8H22.7556V0H17.4222V10.8Z" fill="#EB000E"/>
<path d="M30.7556 4.85995L30.4001 2.69995H32.1778L31.8223 4.85995L33.9556 4.49995V6.29995L31.8223 5.93995L32.1778 8.09995H30.4001L30.7556 5.93995L28.6223 6.29995V4.49995L30.7556 4.85995ZM8.17783 4.85995L7.82227 2.69995H9.60005L9.24449 4.85995L11.3778 4.49995V6.29995L9.24449 5.93995L9.60005 8.09995H7.82227L8.17783 5.93995L6.04449 6.29995V4.49995L8.17783 4.85995ZM8.17783 21.0599L7.82227 18.9H9.60005L9.24449 21.0599L11.3778 20.6999V22.5L9.24449 22.1399L9.60005 24.2999H7.82227L8.17783 22.1399L6.04449 22.5V20.6999L8.17783 21.0599ZM30.7556 21.0599L30.4001 18.9H32.1778L31.8223 21.0599L33.9556 20.6999V22.5L31.8223 22.1399L32.1778 24.2999H30.4001L30.7556 22.1399L28.6223 22.5V20.6999L30.7556 21.0599Z" fill="#EB000E"/>
</g>
<defs>
<clipPath id="clip0_6065_1777">
<rect width="40" height="27" fill="white"/>
</clipPath>
</defs>
</svg>
