<svg width="40" height="27" viewBox="0 0 40 27" fill="none" xmlns="http://www.w3.org/2000/svg">
<g clip-path="url(#clip0_6065_1738)">
<path d="M0 0H40V27H0V0Z" fill="white"/>
<path d="M0 18.1579H40V27H0V18.1579Z" fill="#D80027"/>
<path d="M28.3119 10.4053V7.82368H29.1618V6.10263H27.4542V6.96315H25.7544V6.10263H24.0546V7.82368H24.9045V10.4053H23.2047V4.38157H24.0546V2.66052H22.3548V3.52105H21.5049V2.66052H19.8051V3.52105H18.9552V2.66052H17.2553V4.38157H18.1053V10.4053H16.4054V7.82368H17.2553V6.10263H15.5555V6.96315H13.8557V6.10263H12.1559V7.82368H13.0058V10.4053H11.306V17.2895H30.0117V10.4053H28.3119Z" fill="#D80027"/>
<path fill-rule="evenodd" clip-rule="evenodd" d="M17.2163 2.62103H18.9941V3.48156H19.7661V2.62103H21.5438V3.48156H22.3158V2.62103H24.0935V4.42103H23.2436V10.3658H24.8655V7.86314H24.0156V6.06314H25.7933V6.92366H27.4152V6.06314H29.2008V7.86314H28.3508V10.3658H30.0507V17.3289H11.267V10.3658H12.9668V7.86314H12.1169V6.06314H13.8947V6.92366H15.5165V6.06314H17.2943V7.86314H16.4444V10.3658H18.0662V4.42103H17.2163V2.62103ZM17.2943 2.69998V4.34209H18.1442V10.4447H16.3664V7.78419H17.2163V6.14209H15.5945V7.00261H13.8167V6.14209H12.1949V7.78419H13.0448V10.4447H11.345V17.25H29.9727V10.4447H28.2729V7.78419H29.1228V6.14209H27.4932V7.00261H25.7154V6.14209H24.0935V7.78419H24.9434V10.4447H23.1657V4.34209H24.0156V2.69998H22.3937V3.56051H21.4659V2.69998H19.844V3.56051H18.9162V2.69998H17.2943Z" fill="black"/>
<path d="M20.655 18.5921L18.7681 20.0289L20.2573 21.1579V23.6289H18.4484V24.3395H20.2417V24.9632H18.4484V25.6974H21.0527V21.1579L22.5419 20.0289L20.655 18.5921ZM20.655 20.5895L19.8675 20.0289L20.655 19.4684L21.4425 20.0289L20.655 20.5895Z" fill="#FFDA44"/>
<path fill-rule="evenodd" clip-rule="evenodd" d="M20.6784 18.5605L22.6069 20.029L21.0916 21.1776V25.7368H18.4094V24.9237H20.2027V24.3789H18.4094V23.5895H20.2183V21.1776L18.7031 20.029L20.6315 18.5605L20.655 18.5921L20.6784 18.5605ZM20.655 18.6415L18.833 20.0289L20.2963 21.1381V23.6684H18.4873V24.3H20.2807V25.0026H18.4873V25.6579H21.0137V21.1381L22.477 20.0289L20.655 18.6415ZM20.655 19.4202L21.5103 20.0289L20.655 20.6377L19.7997 20.0289L20.655 19.4202ZM19.9352 20.0289L20.655 20.5412L21.3747 20.0289L20.655 19.5167L19.9352 20.0289Z" fill="black"/>
<path d="M18.6823 16.5553V14.3526C18.6823 14.3526 18.6901 12.5921 20.6316 12.5921C22.5653 12.5921 22.6355 14.3289 22.6355 14.3289V16.5553H18.6823ZM13.2944 16.5553V14.6368C13.2944 14.6368 13.3022 13.1605 14.8226 13.1605C16.3431 13.1605 16.3977 14.6132 16.3977 14.6132V16.5474H13.2944V16.5553Z" fill="black"/>
<path d="M13.1852 16.5553V14.6369C13.1852 14.6369 13.193 13.1605 14.7134 13.1605C16.2339 13.1605 16.2885 14.6132 16.2885 14.6132V16.5474H13.1852V16.5553ZM25.0214 16.5553V14.6369C25.0214 14.6369 25.0292 13.1605 26.5497 13.1605C28.0702 13.1605 28.1248 14.6132 28.1248 14.6132V16.5474H25.0214V16.5553ZM25.6764 10.4211V9.1816C25.6764 9.1816 25.6842 8.22634 26.5575 8.22634C27.4386 8.22634 27.4698 9.16581 27.4698 9.16581V10.4211H25.6764ZM19.5322 10.4211V8.55002C19.5322 8.55002 19.54 7.10529 20.6472 7.10529C21.7544 7.10529 21.7934 8.52634 21.7934 8.52634V10.4211H19.5322ZM13.8402 10.4211V9.1816C13.8402 9.1816 13.8479 8.22634 14.7212 8.22634C15.5945 8.22634 15.6335 9.16581 15.6335 9.16581V10.4211H13.8402Z" fill="black"/>
</g>
<defs>
<clipPath id="clip0_6065_1738">
<rect width="40" height="27" fill="white"/>
</clipPath>
</defs>
</svg>
