<svg width="40" height="27" viewBox="0 0 40 27" fill="none" xmlns="http://www.w3.org/2000/svg">
<g clip-path="url(#clip0_6065_1709)">
<path d="M0 0H40V27H0V0Z" fill="white"/>
<path d="M0 0H40V8.98421H0V0Z" fill="#6DA544"/>
<path d="M0 17.9684H40V27H0V17.9684Z" fill="#D80027"/>
<path d="M9.82456 13.4763L0 26.9447V0L9.82456 13.4763Z" fill="#0070C8"/>
<path fill-rule="evenodd" clip-rule="evenodd" d="M18.23 10.9658H23.8207V14.1947C23.8207 14.9042 23.6454 15.439 23.3804 15.8414C23.1156 16.2436 22.7628 16.5112 22.4112 16.6892C22.0598 16.8671 21.7088 16.9559 21.446 17.0003C21.3145 17.0224 21.2048 17.0336 21.1279 17.0391C21.0894 17.0419 21.0591 17.0433 21.0383 17.044C21.0279 17.0443 21.0199 17.0445 21.0144 17.0446C21.0117 17.0447 21.0096 17.0447 21.0082 17.0447L21.0065 17.0447L21.0061 17.0447H21.0059C21.0059 17.0447 21.0059 17.0447 21.0059 17.0052C21.0059 17.0447 21.0058 17.0447 21.0058 17.0447H21.0057L21.0052 17.0447L21.0035 17.0447C21.0021 17.0447 21 17.0447 20.9973 17.0446C20.9918 17.0445 20.9838 17.0443 20.9734 17.044C20.9526 17.0433 20.9223 17.0419 20.8838 17.0391C20.8069 17.0336 20.6972 17.0224 20.5657 17.0003C20.3029 16.9559 19.952 16.8671 19.6005 16.6892C19.2489 16.5112 18.8961 16.2436 18.6313 15.8414C18.3663 15.439 18.191 14.9042 18.191 14.1947V11.0052H18.23V10.9658ZM18.269 11.0447V14.1947C18.269 14.8904 18.4407 15.4096 18.6962 15.7976C18.9519 16.1859 19.293 16.4453 19.6354 16.6186C19.9779 16.792 20.3209 16.8789 20.5785 16.9224C20.7073 16.9441 20.8145 16.955 20.8894 16.9604C20.9268 16.9631 20.9561 16.9644 20.976 16.9651C20.9859 16.9654 20.9935 16.9656 20.9985 16.9657C21.001 16.9657 21.0029 16.9657 21.0042 16.9657L21.0055 16.9658L21.0058 16.9658H21.0059L21.0062 16.9658L21.0076 16.9657C21.0088 16.9657 21.0107 16.9657 21.0132 16.9657C21.0182 16.9656 21.0258 16.9654 21.0357 16.9651C21.0556 16.9644 21.0849 16.9631 21.1224 16.9604C21.1972 16.955 21.3044 16.9441 21.4332 16.9224C21.6908 16.8789 22.0338 16.792 22.3763 16.6186C22.7187 16.4453 23.0599 16.1859 23.3155 15.7976C23.571 15.4096 23.7427 14.8904 23.7427 14.1947V11.0447H18.269Z" fill="black"/>
<path d="M20.6238 14.1948H21.3879L21.6998 16.2316H20.3119L20.6238 14.1948Z" fill="#786145"/>
<path d="M22.3937 12.7895C22.3937 12.0158 21.77 11.621 21.0058 11.621C20.2417 11.621 19.6179 12.0158 19.6179 12.7895C19.2358 12.7895 18.924 13.1052 18.924 13.4921C18.924 13.8789 19.2358 14.1947 19.6179 14.1947H22.3937C22.7758 14.1947 23.0877 13.8789 23.0877 13.4921C23.0877 13.1052 22.7758 12.7895 22.3937 12.7895Z" fill="#6DA544"/>
<path d="M17.9883 9.47369L18.1364 9.73422H18.4327L18.2846 9.99475L18.4327 10.2474H18.1364L17.9883 10.5079L17.8401 10.2474H17.5438L17.692 9.99475L17.5438 9.73422H17.8401L17.9883 9.47369ZM19.1813 9.47369L19.3294 9.73422H19.6179L19.4697 9.99475L19.6179 10.2474H19.3294L19.1813 10.5079L19.0331 10.2474H18.7368L18.885 9.99475L18.7368 9.73422H19.0331L19.1813 9.47369ZM20.3742 9.47369L20.5224 9.73422H20.8109L20.6627 9.99475L20.8109 10.2474H20.5224L20.3742 10.5079L20.2261 10.2474H19.9298L20.0779 9.99475L19.9298 9.73422H20.2261L20.3742 9.47369ZM21.6062 9.47369L21.7543 9.73422H22.0506L21.9025 9.99475L22.0506 10.2474H21.7543L21.6062 10.5079L21.4581 10.2474H21.1696L21.3099 9.99475L21.1696 9.73422H21.4581L21.6062 9.47369ZM22.8538 9.47369L23.0019 9.73422H23.2982L23.1501 9.99475L23.2982 10.2474H23.0019L22.8538 10.5079L22.7056 10.2474H22.4171L22.5575 9.99475L22.4171 9.73422H22.7056L22.8538 9.47369ZM24.0234 9.47369L24.1715 9.73422H24.46L24.3119 9.99475L24.46 10.2474H24.1715L24.0234 10.5079L23.8752 10.2474H23.5789L23.7271 9.99475L23.5789 9.73422H23.8752L24.0234 9.47369Z" fill="#FFDA00"/>
<path fill-rule="evenodd" clip-rule="evenodd" d="M19.1813 9.39459L19.3519 9.69476H19.6853L19.5149 9.99445L19.6864 10.2869H19.3519L19.1813 10.587L19.0106 10.2869H18.6683L18.8398 9.99445L18.6694 9.69476H19.0106L19.1813 9.39459ZM21.6062 9.39459L21.7769 9.69476H22.1181L21.9477 9.99445L22.1191 10.2869H21.7769L21.6062 10.587L21.4355 10.2869H21.1029L21.2653 9.99446L21.1039 9.69476H21.4355L21.6062 9.39459ZM22.8538 9.39459L23.0245 9.69476H23.3656L23.1952 9.99445L23.3667 10.2869H23.0245L22.8538 10.587L22.6831 10.2869H22.3505L22.5129 9.99446L22.3515 9.69476H22.6831L22.8538 9.39459ZM24.0234 9.39459L24.1941 9.69476H24.5274L24.357 9.99445L24.5285 10.2869H24.1941L24.0234 10.587L23.8527 10.2869H23.5104L23.6819 9.99445L23.5115 9.69476H23.8527L24.0234 9.39459ZM17.9883 9.39459L18.159 9.69476H18.5002L18.3297 9.99445L18.5012 10.2869H18.159L17.9883 10.587L17.8176 10.2869H17.4753L17.6468 9.99445L17.4764 9.69476H17.8176L17.9883 9.39459ZM20.3742 9.39459L20.5449 9.69476H20.8783L20.7079 9.99445L20.8794 10.2869H20.5449L20.3742 10.587L20.2036 10.2869H19.8613L20.0328 9.99445L19.8624 9.69476H20.2036L20.3742 9.39459ZM20.3742 9.55281L20.2486 9.7737H19.9972L20.1231 9.99506L19.9983 10.2079H20.2486L20.3742 10.4288L20.4998 10.2079H20.7424L20.6176 9.99506L20.7435 9.7737H20.4998L20.3742 9.55281ZM17.9883 9.55281L17.8627 9.7737H17.6113L17.7371 9.99506L17.6123 10.2079H17.8627L17.9883 10.4288L18.1139 10.2079H18.3642L18.2394 9.99506L18.3653 9.7737H18.1139L17.9883 9.55281ZM19.1813 9.55282L19.0556 9.7737H18.8042L18.9301 9.99506L18.8053 10.2079H19.0556L19.1813 10.4288L19.3069 10.2079H19.5494L19.4246 9.99506L19.5505 9.7737H19.3069L19.1813 9.55282ZM21.6062 9.55282L21.4806 9.7737H21.2352L21.3545 9.99505L21.2362 10.2079H21.4806L21.6062 10.4288L21.7318 10.2079H21.9822L21.8573 9.99506L21.9832 9.7737H21.7318L21.6062 9.55282ZM22.8538 9.55282L22.7282 9.7737H22.4828L22.602 9.99505L22.4838 10.2079H22.7282L22.8538 10.4288L22.9794 10.2079H23.2297L23.1049 9.99506L23.2308 9.7737H22.9794L22.8538 9.55282ZM24.0234 9.55282L23.8978 9.7737H23.6464L23.7722 9.99506L23.6474 10.2079H23.8978L24.0234 10.4288L24.149 10.2079H24.3915L24.2667 9.99506L24.3926 9.7737H24.149L24.0234 9.55282Z" fill="black"/>
</g>
<defs>
<clipPath id="clip0_6065_1709">
<rect width="40" height="27" fill="white"/>
</clipPath>
</defs>
</svg>
