<svg width="40" height="27" viewBox="0 0 40 27" fill="none" xmlns="http://www.w3.org/2000/svg">
<g clip-path="url(#clip0_6065_1678)">
<path d="M0 0H40V27H0V0Z" fill="#0052B4"/>
<path d="M20 0V9.28743H16.3984L20 11.7161V13.504H18.2344L12.5 9.63551V13.504H7.5V9.63551L1.76562 13.504H0V11.7161L3.60156 9.28743H0V4.22444H3.60156L0 1.79578V0H1.76562L7.5 3.86844V0H12.5V3.86844L18.2344 0H20Z" fill="white"/>
<path d="M11.25 0H8.75V5.49018H0V8.02168H8.75V13.504H11.25V8.02168H20V5.49018H11.25V0Z" fill="#D80027"/>
<path d="M20 1.79578V4.22444H16.3984L20 1.79578Z" fill="#2E52B2"/>
<path d="M0 13.5039V12.6337L4.88281 9.28742H6.64844L0.570312 13.5039H0ZM0.570312 0.00789642L6.64844 4.21651H4.88281L0 0.878099V0.00789642H0.570312ZM20 0.00789642V0.878099L15.1172 4.22442H13.3516L19.4297 0.00789642H20ZM19.4297 13.5039L13.3516 9.28742H15.1172L20 12.6337V13.5039H19.4297Z" fill="#D80027"/>
<path d="M34.6406 21.9212C35.8919 21.9212 36.9062 20.3805 36.9062 18.4799C36.9062 16.5794 35.8919 15.0387 34.6406 15.0387C33.3894 15.0387 32.375 16.5794 32.375 18.4799C32.375 20.3805 33.3894 21.9212 34.6406 21.9212Z" fill="white"/>
<path d="M31.7891 25.8687C32.7383 25.8687 33.5078 25.5393 33.5078 25.133C33.5078 24.7267 32.7383 24.3973 31.7891 24.3973C30.8398 24.3973 30.0703 24.7267 30.0703 25.133C30.0703 25.5393 30.8398 25.8687 31.7891 25.8687Z" fill="#FFCE00"/>
<path d="M28.4375 25.8687C29.3867 25.8687 30.1562 25.5393 30.1562 25.133C30.1562 24.7267 29.3867 24.3973 28.4375 24.3973C27.4883 24.3973 26.7188 24.7267 26.7188 25.133C26.7188 25.5393 27.4883 25.8687 28.4375 25.8687Z" fill="#FFCE00"/>
<path d="M26.7188 15.0387L30.1094 21.9133L33.5078 15.0387H26.7188Z" fill="#39B200"/>
<path d="M25.5859 21.9212C26.8372 21.9212 27.8516 20.3805 27.8516 18.4799C27.8516 16.5794 26.8372 15.0387 25.5859 15.0387C24.3347 15.0387 23.3203 16.5794 23.3203 18.4799C23.3203 20.3805 24.3347 21.9212 25.5859 21.9212Z" fill="#9B9B9B"/>
<path d="M28.9844 13.8916L27.8516 15.0387H32.375L31.2422 13.8916L32.375 10.4503C32.375 10.4503 31.3594 8.15617 30.1094 8.15617C28.8594 8.15617 27.8438 10.4503 27.8438 10.4503L28.9844 13.8916Z" fill="#757575"/>
<path d="M30.1094 7.59449C31.3606 7.59449 32.375 6.56735 32.375 5.30032C32.375 4.03328 31.3606 3.00615 30.1094 3.00615C28.8581 3.00615 27.8438 4.03328 27.8438 5.30032C27.8438 6.56735 28.8581 7.59449 30.1094 7.59449Z" fill="#C6B56F"/>
<path d="M30.1562 9.31116C31.4075 9.31116 32.4219 8.28403 32.4219 7.01699C32.4219 5.74996 31.4075 4.72282 30.1562 4.72282C28.905 4.72282 27.8906 5.74996 27.8906 7.01699C27.8906 8.28403 28.905 9.31116 30.1562 9.31116Z" fill="#A54A00"/>
<path d="M34.6406 11.6053C35.8919 11.6053 36.9062 10.5782 36.9062 9.31116C36.9062 8.04413 35.8919 7.01699 34.6406 7.01699C33.3894 7.01699 32.375 8.04413 32.375 9.31116C32.375 10.5782 33.3894 11.6053 34.6406 11.6053Z" fill="white"/>
<path d="M26.7344 13.8995C27.9856 13.8995 29 12.8724 29 11.6053C29 10.3383 27.9856 9.31116 26.7344 9.31116C25.4831 9.31116 24.4688 10.3383 24.4688 11.6053C24.4688 12.8724 25.4831 13.8995 26.7344 13.8995Z" fill="#0049FF"/>
<path d="M33.5781 13.8995C34.8294 13.8995 35.8438 12.8724 35.8438 11.6053C35.8438 10.3383 34.8294 9.31116 33.5781 9.31116C32.3269 9.31116 31.3125 10.3383 31.3125 11.6053C31.3125 12.8724 32.3269 13.8995 33.5781 13.8995Z" fill="#0041F9"/>
<path d="M30.1562 20.7741C31.4075 20.7741 32.4219 19.747 32.4219 18.4799C32.4219 17.2129 31.4075 16.1858 30.1562 16.1858C28.905 16.1858 27.8906 17.2129 27.8906 18.4799C27.8906 19.747 28.905 20.7741 30.1562 20.7741Z" fill="#F7D71E"/>
<path d="M35.7734 17.3328C37.0247 17.3328 38.0391 16.3057 38.0391 15.0387C38.0391 13.7716 37.0247 12.7445 35.7734 12.7445C34.5222 12.7445 33.5078 13.7716 33.5078 15.0387C33.5078 16.3057 34.5222 17.3328 35.7734 17.3328Z" fill="#CEC851"/>
<path d="M30.1094 25.1963C31.3606 25.1963 32.375 24.1692 32.375 22.9021C32.375 21.6351 31.3606 20.608 30.1094 20.608C28.8581 20.608 27.8438 21.6351 27.8438 22.9021C27.8438 24.1692 28.8581 25.1963 30.1094 25.1963Z" fill="white"/>
<path d="M28.9844 10.7351L30.1172 10.4582L31.25 10.7351C31.25 11.3284 30.1172 11.6053 30.1172 11.6053C30.1172 11.6053 28.9844 11.3284 28.9844 10.7351Z" fill="#7C0B29"/>
<path d="M25.5859 11.5816C26.8372 11.5816 27.8516 10.5545 27.8516 9.28743C27.8516 8.02039 26.8372 6.99326 25.5859 6.99326C24.3347 6.99326 23.3203 8.02039 23.3203 9.28743C23.3203 10.5545 24.3347 11.5816 25.5859 11.5816Z" fill="white"/>
</g>
<defs>
<clipPath id="clip0_6065_1678">
<rect width="40" height="27" fill="white"/>
</clipPath>
</defs>
</svg>
