<svg width="40" height="27" viewBox="0 0 40 27" fill="none" xmlns="http://www.w3.org/2000/svg">
<g clip-path="url(#clip0_6065_1672)">
<path d="M0 0H40V27H0V0Z" fill="white"/>
<path d="M0 0H13.3333V27H0V0ZM26.6667 0H40V27H26.6667V0Z" fill="#338AF3"/>
<path d="M19.961 14.3132C21.0591 14.3132 21.9493 13.4118 21.9493 12.3C21.9493 11.1882 21.0591 10.2868 19.961 10.2868C18.8629 10.2868 17.9727 11.1882 17.9727 12.3C17.9727 13.4118 18.8629 14.3132 19.961 14.3132Z" fill="#DCC26D"/>
<path d="M15.1423 12.3079C15.1423 14.0526 16.0624 15.6632 17.5439 16.5316C18.0039 16.8 18.5965 16.6421 18.8616 16.1763C19.1267 15.7105 18.9708 15.1105 18.5107 14.8421C17.614 14.3211 17.0682 13.35 17.0682 12.3079C17.0682 11.7711 16.6394 11.3289 16.1014 11.3289C15.5634 11.3289 15.1423 11.7632 15.1423 12.3079ZM22.5575 16.4211C23.9454 15.5211 24.7875 13.9737 24.7797 12.3079C24.7797 11.7711 24.3509 11.3289 23.8129 11.3289C23.2827 11.3289 22.846 11.7632 22.846 12.3079C22.846 13.3105 22.3392 14.2421 21.5127 14.7789C21.0604 15.0632 20.9123 15.6632 21.193 16.1211C21.4737 16.5789 22.0663 16.7289 22.5185 16.4447C22.5341 16.4368 22.5419 16.4289 22.5575 16.4211Z" fill="#628A40"/>
</g>
<defs>
<clipPath id="clip0_6065_1672">
<rect width="40" height="27" fill="white"/>
</clipPath>
</defs>
</svg>
