<svg width="40" height="27" viewBox="0 0 40 27" fill="none" xmlns="http://www.w3.org/2000/svg">
<g clip-path="url(#clip0_6065_1662)">
<path d="M0 0H39.922V26.9447H0V0Z" fill="#D80027"/>
<path d="M0.865494 0.876312H39.0487V26.0684H0.865494V0.876312Z" fill="#0052B4"/>
<path d="M19.961 22.5237C19.961 22.5237 25.9181 18.4737 25.9181 13.4763C25.9181 8.47895 19.961 4.42105 19.961 4.42105C19.961 4.42105 14.0039 8.47105 14.0039 13.4684C14.0039 18.4658 19.961 22.5237 19.961 22.5237Z" fill="#7DBEF1"/>
<path d="M14.0195 14.2658H25.9181L23.6335 19.3895H16.2105L14.0195 14.2658Z" fill="#1C8AE6"/>
<path d="M14.9942 16.2552C14.9942 16.2552 18.1521 19.271 18.9708 19.271C19.9376 19.271 19.9532 17.8184 20.9591 17.2579C22.5341 16.3816 24.9357 16.2552 24.9357 16.2552L23.1579 19.6342L19.961 22.5237L16.3119 19.3895L14.9942 16.2552Z" fill="#FFF042"/>
<path d="M19.961 12.4342L18.2066 13.6658L18.8226 11.5974L17.1228 10.2948L19.2593 10.2553L19.961 8.21054L20.6628 10.2553L22.7992 10.2948L21.0994 11.6053L21.7154 13.6737L19.961 12.4342Z" fill="#259C7B"/>
<path d="M19.4698 11.4158C19.3996 12.1421 19.3528 12.8684 19.3372 13.5947C19.3138 14.5342 19.3606 15.2289 19.4932 15.6474C19.6647 16.1684 20.0546 16.6658 20.6004 17.1395C21.0136 17.5026 21.4269 17.7789 21.7076 17.9368C21.9493 18.071 22.2534 17.9842 22.386 17.7474C22.5185 17.5026 22.4327 17.1947 22.1988 17.0605C21.8635 16.8631 21.5439 16.6342 21.2476 16.3737C20.8265 16.0105 20.538 15.6474 20.4366 15.3237C20.3509 15.0553 20.3119 14.4316 20.3275 13.6105C20.3431 12.9079 20.3899 12.2053 20.46 11.5105C20.4912 11.2342 20.2885 10.9895 20.0156 10.9579C19.7349 10.9342 19.4932 11.1395 19.4698 11.4158Z" fill="#8E5715"/>
<path d="M16.9825 13.4763L18.9708 16.4921H16.9825V13.4763Z" fill="white"/>
<path fill-rule="evenodd" clip-rule="evenodd" d="M20.2222 4.02803L19.961 4.42105L19.7002 4.02779L19.9613 3.85031L20.2222 4.02803ZM19.961 22.5237C19.6999 22.9167 19.6997 22.9166 19.6996 22.9165L19.6979 22.9154L19.6938 22.9125C19.6903 22.9102 19.6855 22.9068 19.6792 22.9025C19.6707 22.8965 19.6595 22.8887 19.6459 22.8792C19.6397 22.8748 19.633 22.87 19.6257 22.8649C19.5796 22.8321 19.5129 22.7842 19.4287 22.7218C19.2603 22.597 19.0215 22.4142 18.7356 22.1795C18.1645 21.7106 17.402 21.0315 16.6381 20.1908C15.1258 18.5262 13.5361 16.1495 13.5361 13.4684C13.5361 10.7873 15.1259 8.41245 16.6383 6.74981C17.4022 5.91003 18.1647 5.23192 18.7358 4.76378C19.0218 4.52942 19.2607 4.34693 19.429 4.22236C19.5133 4.16006 19.5799 4.11219 19.6261 4.07953C19.6491 4.06319 19.6671 4.05065 19.6796 4.04199C19.6858 4.03767 19.6907 4.03431 19.6941 4.03194L19.6983 4.02912L19.6999 4.02798C19.7001 4.02788 19.7002 4.02779 19.961 4.42105C20.2222 4.02803 20.2223 4.02812 20.2224 4.02822L20.2229 4.02851L20.2241 4.02936L20.2282 4.03219C20.2317 4.03456 20.2365 4.03792 20.2428 4.04226C20.2553 4.05092 20.2732 4.06349 20.2963 4.07985C20.3424 4.11258 20.4091 4.16053 20.4933 4.22294C20.6617 4.34772 20.9006 4.53052 21.1865 4.76525C21.7576 5.23412 22.52 5.91322 23.2839 6.75397C24.7962 8.41851 26.386 10.7953 26.386 13.4763C26.386 16.1575 24.7961 18.5323 23.2837 20.1949C22.5198 21.0347 21.7573 21.7128 21.1862 22.1809C20.9003 22.4153 20.6614 22.5978 20.493 22.7224C20.4088 22.7847 20.3421 22.8325 20.296 22.8652C20.2729 22.8815 20.2549 22.8941 20.2424 22.9027C20.2362 22.9071 20.2313 22.9104 20.2279 22.9128L20.2238 22.9156L20.2225 22.9165L20.2221 22.9167C20.2219 22.9168 20.2218 22.9169 19.961 22.5237ZM19.961 22.5237L19.6999 22.9167L19.9608 23.0944L20.2218 22.9169L19.961 22.5237ZM19.9613 21.9424C20.1176 21.8263 20.3364 21.6586 20.5974 21.4446C21.1433 20.9972 21.8701 20.3505 22.5954 19.5531C24.0616 17.9414 25.4503 15.7925 25.4503 13.4763C25.4503 11.16 24.0615 9.00911 22.5953 7.39536C21.8699 6.59696 21.143 5.94925 20.5972 5.5011C20.336 5.28668 20.1171 5.11863 19.9608 5.00233C19.8045 5.11841 19.5856 5.28612 19.3246 5.50011C18.7787 5.94751 18.0519 6.59423 17.3266 7.39162C15.8605 9.00332 14.4717 11.1522 14.4717 13.4684C14.4717 15.7847 15.8606 17.9356 17.3268 19.5494C18.0522 20.3478 18.779 20.9955 19.3249 21.4436C19.586 21.658 19.8049 21.8261 19.9613 21.9424Z" fill="#D80027"/>
</g>
<defs>
<clipPath id="clip0_6065_1662">
<rect width="40" height="27" fill="white"/>
</clipPath>
</defs>
</svg>
