<svg width="40" height="27" viewBox="0 0 40 27" fill="none" xmlns="http://www.w3.org/2000/svg">
<g clip-path="url(#clip0_6065_1647)">
<path d="M0 0H40V27H0V0Z" fill="#D80027"/>
<path d="M21.3801 9.45788C20.9825 11.1237 20.2807 10.8079 19.9376 12.2605C17.9025 11.7631 16.655 9.69473 17.1384 7.6342C17.6296 5.57367 19.6725 4.31052 21.6998 4.79999C21.0214 7.71315 21.7388 7.96578 21.3801 9.45788ZM16.1092 10.6895C17.5517 11.5816 17.037 12.1658 18.2924 12.9474C17.2008 14.7553 14.8694 15.3158 13.0838 14.2105C11.2982 13.1053 10.7446 10.7447 11.8363 8.93683C14.3548 10.5 14.8148 9.89209 16.1092 10.6895ZM15.6413 16.1526C16.9279 15.0395 17.3099 15.7184 18.4327 14.7474C19.7895 16.3579 19.6023 18.7737 18.0117 20.1474C16.4211 21.521 14.0351 21.3316 12.6784 19.721C14.9162 17.7789 14.4873 17.1474 15.6413 16.1526ZM20.6238 18.2921C19.9766 16.7053 20.7329 16.5474 20.1637 15.1658C22.0975 14.3526 24.3119 15.2842 25.1072 17.2421C25.9103 19.2 24.9903 21.4421 23.0565 22.2474C21.9259 19.4842 21.2008 19.7053 20.6238 18.2921ZM24.1715 14.1553C22.4873 14.2895 22.5653 13.5158 21.0916 13.6342C20.9279 11.5263 22.4873 9.67894 24.5692 9.51315C26.6511 9.34736 28.4756 10.9263 28.6394 13.0342C25.6998 13.2631 25.6842 14.0368 24.1715 14.1553Z" fill="white"/>
</g>
<defs>
<clipPath id="clip0_6065_1647">
<rect width="40" height="27" fill="white"/>
</clipPath>
</defs>
</svg>
