<svg width="40" height="27" viewBox="0 0 40 27" fill="none" xmlns="http://www.w3.org/2000/svg">
<g clip-path="url(#clip0_6065_1633)">
<path d="M0 0H40V27.0003H0V0Z" fill="#0052B4"/>
<path d="M17.4528 13.4997C17.4742 13.4757 17.4953 13.4515 17.5164 13.4273C17.4953 13.4516 17.4737 13.4755 17.4523 13.4997H17.4528ZM14.7825 16.8162L15.6386 18.6287L17.572 18.1764L16.7061 19.9841L18.2608 21.2324L16.3252 21.6742L16.3306 23.6832L14.7825 22.4263L13.2346 23.6832L13.2399 21.6742L11.3043 21.2324L12.859 19.9841L11.9931 18.1764L13.9264 18.6287L14.7825 16.8162ZM30.2403 19.0678L30.6486 19.9323L31.5707 19.7165L31.1578 20.5787L31.8993 21.1742L30.976 21.3848L30.9785 22.343L30.2403 21.7436L29.502 22.343L29.5045 21.3848L28.5813 21.1742L29.3228 20.5787L28.9099 19.7165L29.832 19.9323L30.2403 19.0678ZM26.4416 9.89679L26.8499 10.7614L27.7721 10.5455L27.3591 11.4078L28.1006 12.0033L27.1774 12.2139L27.1799 13.1722L26.4416 12.5726L25.7032 13.1722L25.7058 12.2139L24.7825 12.0033L25.524 11.4078L25.1112 10.5455L26.0332 10.7614L26.4416 9.89679ZM30.2403 4.65631L30.6486 5.52089L31.5707 5.30494L31.1578 6.16731L31.8992 6.76271L30.976 6.97344L30.9785 7.93167L30.2403 7.33208L29.502 7.93167L29.5045 6.97344L28.5813 6.76271L29.3228 6.16731L28.9099 5.30494L29.832 5.52089L30.2403 4.65631ZM33.5583 8.58671L33.9667 9.45121L34.8887 9.23543L34.4759 10.0976L35.2174 10.693L34.2941 10.9038L34.2967 11.862L33.5583 11.2626L32.82 11.862L32.8225 10.9038L31.8993 10.693L32.6408 10.0976L32.2278 9.23543L33.1499 9.45121L33.5583 8.58671ZM31.1858 13.1722L31.5069 14.173H32.5463L31.7054 14.7916L32.0267 15.7924L31.1858 15.1739L30.3448 15.7924L30.666 14.7916L29.8252 14.173H30.8646L31.1858 13.1722Z" fill="white"/>
<path d="M20 0V2.41679L16.4713 4.40216H20V9.09756H15.3826L20 11.6949V13.4997H17.9156L12.1739 10.2703V13.4997H7.82609V9.65752L0.995625 13.4997H0V11.0829L3.52867 9.09756H0V4.40216H4.61742L0 1.80399V0H2.08437L7.82609 3.22948V0H12.1739V3.8422L19.0044 0H20Z" fill="white"/>
<path d="M11.25 -0.000244141H8.75V5.48403H0V8.01528H8.75V13.4997H11.25V8.01528H20V5.48403H11.25V-0.000244141Z" fill="#D80027"/>
<path d="M12.174 9.09756L20 13.4997V12.2549L14.387 9.09756H12.174Z" fill="#0052B4"/>
<path d="M12.174 9.09756L20 13.4997V12.2549L14.387 9.09756H12.174Z" fill="white"/>
<path d="M12.1739 9.09756L20 13.4997V12.2549L14.387 9.09756H12.1739ZM5.61297 9.09756L0 12.2549V13.4997L7.82609 9.09756H5.61297Z" fill="#D80027"/>
<path d="M7.82609 4.40192L0 -0.000244141V1.24458L5.61305 4.40192H7.82609Z" fill="#0052B4"/>
<path d="M7.82609 4.40192L0 -0.000244141V1.24458L5.61305 4.40192H7.82609Z" fill="white"/>
<path d="M7.82609 4.40192L0 -0.000244141V1.24458L5.61305 4.40192H7.82609ZM14.387 4.40192L20 1.24458V-0.000244141L12.1739 4.40192H14.387Z" fill="#D80027"/>
</g>
<defs>
<clipPath id="clip0_6065_1633">
<rect width="40" height="27" fill="white"/>
</clipPath>
</defs>
</svg>
