<svg width="40" height="27" viewBox="0 0 40 27" fill="none" xmlns="http://www.w3.org/2000/svg">
<g clip-path="url(#clip0_6065_1629)">
<path d="M0 0H40V27H0V0Z" fill="white"/>
<path d="M0 0H40V9H0V0ZM0 18H40V27H0V18ZM15.8674 9.30789L16.3899 10.6184L17.7622 10.6974L16.6706 11.5579L17.037 12.9553L15.8674 12.1737L14.6979 12.9553L15.0643 11.5579L13.9727 10.6974L15.345 10.6184L15.8674 9.30789ZM24.0546 9.30789L24.577 10.6184L25.9493 10.6974L24.8577 11.5579L25.2242 12.9553L24.0546 12.1737L22.885 12.9553L23.2515 11.5579L22.1598 10.6974L23.5322 10.6184L24.0546 9.30789ZM19.961 11.6526L20.4834 12.9632L21.8557 13.0421L20.7641 13.9026L21.1306 15.3L19.961 14.5184L18.7914 15.3L19.1579 13.9026L18.0663 13.0421L19.4386 12.9632L19.961 11.6526ZM15.8674 13.9974L16.3899 15.3079L17.7622 15.3868L16.6706 16.2474L17.037 17.6368L15.8674 16.8553L14.6979 17.6368L15.0643 16.2474L13.9727 15.3868L15.345 15.3079L15.8674 13.9974ZM24.0546 13.9974L24.577 15.3079L25.9493 15.3868L24.8577 16.2474L25.2242 17.6368L24.0546 16.8553L22.885 17.6368L23.2515 16.2474L22.1598 15.3868L23.5322 15.3079L24.0546 13.9974Z" fill="#338AF3"/>
</g>
<defs>
<clipPath id="clip0_6065_1629">
<rect width="40" height="27" fill="white"/>
</clipPath>
</defs>
</svg>
