<svg width="40" height="27" viewBox="0 0 40 27" fill="none" xmlns="http://www.w3.org/2000/svg">
<g clip-path="url(#clip0_6065_1617)">
<path d="M0 0H40V27H0V0Z" fill="white"/>
<path d="M0 0H40V9H0V0Z" fill="#D80027"/>
<path d="M0 18H40V27H0V18Z" fill="#0052B4"/>
<path d="M24.117 8.93682V5.46314L25.4815 4.32629L26.8616 5.46314V8.93682H24.117ZM15.883 8.93682V5.46314L14.5341 4.32629L13.1384 5.46314V8.93682H15.883ZM18.6277 8.93682V5.46314L20 4.32629L21.3723 5.46314V8.93682H18.6277Z" fill="#338AF3"/>
<path d="M24.1169 8.93682H21.3723V5.46314L22.7368 4.32629L24.1169 5.46314V8.93682ZM18.6277 8.93682H15.883V5.46314L17.2475 4.32629L18.6277 5.46314V8.93682Z" fill="#0052B4"/>
<path d="M13.1384 8.93689V16.9816C13.1384 18.9 14.2612 20.629 15.8986 21.6711C17.5594 22.729 19.1813 22.8316 20 22.8316C20.8187 22.8316 22.4483 22.6974 24.1014 21.6632C25.7388 20.6369 26.8616 18.8922 26.8616 16.9816V8.93689H13.1384Z" fill="white"/>
<path fill-rule="evenodd" clip-rule="evenodd" d="M13.0994 8.89734H26.9006V16.9816C26.9006 18.9081 25.7687 20.6645 24.1219 21.6967C22.4604 22.7362 20.8226 22.871 20 22.871C19.1779 22.871 17.5476 22.768 15.8779 21.7044C14.2315 20.6566 13.0994 18.9161 13.0994 16.9816V8.89734ZM13.1774 8.97629V16.9816C13.1774 18.8838 14.291 20.6012 15.9194 21.6376C17.5713 22.6898 19.1847 22.7921 20 22.7921C20.8148 22.7921 22.4363 22.6585 24.0809 21.6296C25.7089 20.6091 26.8226 18.876 26.8226 16.9816V8.97629H13.1774Z" fill="#D80027"/>
<path d="M13.1384 8.93689H15.883V11.7158H13.1384V8.93689ZM18.6277 8.93689H21.3723V11.7158H18.6277V8.93689ZM24.117 8.93689H26.8616V11.7158H24.117V8.93689ZM15.883 11.7158H18.6277V14.4948H15.883V11.7158ZM21.3723 11.7158H24.117V14.4948H21.3723V11.7158ZM13.1384 14.4948H15.883V17.2737H13.1384V14.4948ZM15.883 17.2737H18.6277V20.0527H15.883V17.2737ZM18.6277 14.4948H21.3723V17.2737H18.6277V14.4948ZM24.117 14.4948H26.8616V17.2737H24.117V14.4948ZM21.3723 17.2737H24.117V20.0527H21.3723V17.2737ZM24.117 21.6553C24.7875 21.229 25.3801 20.6843 25.8324 20.0527H24.117V21.6553ZM14.1676 20.0527C14.6199 20.6843 15.2047 21.229 15.883 21.6632V20.0527H14.1676ZM18.6277 20.0527V22.7132C19.1891 22.8079 19.6647 22.8316 20 22.8316C20.3353 22.8316 20.8109 22.8079 21.3723 22.7053V20.0527H18.6277Z" fill="#D80027"/>
</g>
<defs>
<clipPath id="clip0_6065_1617">
<rect width="40" height="27" fill="white"/>
</clipPath>
</defs>
</svg>
