<svg width="40" height="27" viewBox="0 0 40 27" fill="none" xmlns="http://www.w3.org/2000/svg">
<g clip-path="url(#clip0_6065_1608)">
<path d="M0 0H40V13.5789H0V0Z" fill="#A2001D"/>
<path d="M0 13.5789H40V27.1579H0V13.5789Z" fill="#0052B4"/>
<path d="M29.7388 19.8553L21.1072 18.7658L12.4678 19.8553V6.7421H29.7388V19.8553Z" fill="white"/>
<path d="M21.1072 18.7658C23.4929 18.7658 25.4269 16.8076 25.4269 14.3921C25.4269 11.9766 23.4929 10.0184 21.1072 10.0184C18.7215 10.0184 16.7875 11.9766 16.7875 14.3921C16.7875 16.8076 18.7215 18.7658 21.1072 18.7658Z" fill="#0052B4"/>
<path d="M21.1072 16.5789C22.3001 16.5789 23.2671 15.5999 23.2671 14.3921C23.2671 13.1843 22.3001 12.2053 21.1072 12.2053C19.9144 12.2053 18.9474 13.1843 18.9474 14.3921C18.9474 15.5999 19.9144 16.5789 21.1072 16.5789Z" fill="#A2001D"/>
<path d="M17.8635 8.92895H24.3431L21.1072 12.2053L17.8635 8.92895Z" fill="#6DA544"/>
<path d="M20.0234 11.1158H22.1832V17.6684H20.0234V11.1158Z" fill="#FFDA44"/>
<path d="M24.5536 17.0132H17.653L12.4678 19.8553H29.7388L24.5536 17.0132Z" fill="#6DA544"/>
</g>
<defs>
<clipPath id="clip0_6065_1608">
<rect width="40" height="27" fill="white"/>
</clipPath>
</defs>
</svg>
