<svg width="40" height="27" viewBox="0 0 40 27" fill="none" xmlns="http://www.w3.org/2000/svg">
<g clip-path="url(#clip0_6065_1593)">
<path d="M0 0H40V27H0V0Z" fill="white"/>
<path d="M26.5575 9.66316H22.1832L20 5.82632L17.8168 9.66316H13.4425L15.6257 13.5L13.4425 17.3368H17.8168L20 21.1737L22.1832 17.3368H26.5575L24.3743 13.5L26.5575 9.66316ZM22.8616 13.5L21.5205 16.1211H18.4873L17.1384 13.5L18.4795 10.8789H21.5127L22.8616 13.5ZM20 7.83158L20.9279 9.67105H19.0643L20 7.83158ZM15.4542 10.8789H17.3177L16.4756 12.5368L15.4542 10.8789ZM15.4542 16.1211L16.4678 14.3763L17.3957 16.1211H15.4542ZM20 19.0816L19.0721 17.3368H20.9357L20 19.0816ZM24.6316 16.1211H22.6823L23.6101 14.3763L24.6316 16.1211ZM22.5965 10.8789H24.6316L23.6179 12.6237L22.5965 10.8789ZM0 1.68158H39.922V5.05263H0V1.68158ZM0 21.8921H39.922V25.2632H0V21.8921Z" fill="#2E52B2"/>
</g>
<defs>
<clipPath id="clip0_6065_1593">
<rect width="40" height="27" fill="white"/>
</clipPath>
</defs>
</svg>
