<svg width="40" height="27" viewBox="0 0 40 27" fill="none" xmlns="http://www.w3.org/2000/svg">
<g clip-path="url(#clip0_6065_1589)">
<path d="M0 0H40V27H0V0Z" fill="#E52D42"/>
<path d="M30.6667 5.3842H27.0955L24.46 11.7158L21.7778 9.90789C21.7778 9.90789 19.8519 5.2421 19.0955 4.52368C18.3392 3.75789 17.6374 4.47631 15.2827 5.13947C12.9747 5.80262 12.8811 6.61578 11.9922 6.61578C11.6179 6.61578 10.4406 5.2342 9.83236 4.85526C8.88889 4.23947 8.51462 4.52368 8.74854 5.42368C8.84211 5.80262 9.59845 6.2842 10.0663 6.99473C10.6745 7.90262 11.0565 9.03947 11.0565 9.03947C11.0565 9.03947 11.9064 8.22631 12.3743 8.0842C13.076 7.89473 13.8791 8.22631 14.8226 8.0842C16 7.89473 17.271 7.22368 17.271 7.22368L17.5984 10.65C17.5984 10.65 13.3645 14.6526 13.7388 16.2237C14.1131 17.7947 18.1131 19.7447 19.0565 21.1737C20 22.5553 18.4951 23.0763 18.4951 23.7474C18.4951 24.4184 18.3548 25.3184 19.0565 25.0342C19.7583 24.75 19.8597 23.6053 20.5146 22.5553C20.9825 21.8447 21.3177 21.4579 21.4113 21.1737C21.5517 20.4632 19.579 18.6474 18.4951 17.3132C17.9805 16.6974 16.9435 15.8368 16.9435 15.8368L20 13.5C20 13.5 25.271 15.6868 26.4406 14.9763C27.6179 14.2658 27.9454 7.21578 27.9454 7.21578L31.6101 6.30789L30.6667 5.3842Z" fill="white"/>
<path d="M21.7778 20.7158C21.31 20.7158 20.8811 20.3368 20.8811 19.8079C20.8811 19.2789 21.2554 18.9 21.7778 18.9C22.2456 18.9 22.6745 19.2789 22.6745 19.8079C22.6745 20.3368 22.2456 20.7158 21.7778 20.7158ZM25.349 6.2842C24.8811 6.2842 24.4523 5.90526 24.4523 5.37631C24.4523 4.84736 24.8265 4.46841 25.349 4.46841C25.8168 4.46841 26.2456 4.84736 26.2456 5.37631C26.2456 5.90526 25.8168 6.2842 25.349 6.2842ZM25.349 13.4763C24.8811 13.4763 24.4523 13.0974 24.4523 12.5684C24.4523 12.0947 24.8265 11.6605 25.349 11.6605C25.8168 11.6605 26.2456 12.0395 26.2456 12.5684C26.1989 13.0974 25.8168 13.4763 25.349 13.4763ZM14.6745 17.0921C14.2066 17.0921 13.7778 16.7132 13.7778 16.1842C13.7778 15.7105 14.1521 15.2763 14.6745 15.2763C15.1891 15.2763 15.5712 15.6553 15.5712 16.1842C15.5712 16.7132 15.1423 17.0921 14.6745 17.0921ZM18.1989 6.2842C17.731 6.2842 17.3022 5.90526 17.3022 5.37631C17.3022 4.84736 17.6764 4.46841 18.1989 4.46841C18.6667 4.46841 19.0955 4.84736 19.0955 5.37631C19.0955 5.90526 18.7213 6.2842 18.1989 6.2842ZM19.9844 13.4763C19.5166 13.4763 19.0877 12.6632 19.0877 11.6684C19.0877 10.6737 19.462 9.86052 19.9844 9.86052C20.4523 9.86052 20.8811 10.6737 20.8811 11.6684C20.8811 12.6632 20.5068 13.4763 19.9844 13.4763ZM11.0955 9.90789C10.6277 9.90789 10.1989 9.52894 10.1989 8.99999C10.1989 8.47894 10.5731 8.0921 11.0955 8.0921C11.6102 8.0921 11.9922 8.47105 11.9922 8.99999C11.9922 9.52105 11.618 9.90789 11.0955 9.90789Z" fill="#F8DD4E"/>
</g>
<defs>
<clipPath id="clip0_6065_1589">
<rect width="40" height="27" fill="white"/>
</clipPath>
</defs>
</svg>
