<svg width="40" height="27" viewBox="0 0 40 27" fill="none" xmlns="http://www.w3.org/2000/svg">
<g clip-path="url(#clip0_6065_1581)">
<path d="M1.34888 0H38.651V27H1.34888V0Z" fill="#181A93"/>
<path d="M0 0H40V9H0V0Z" fill="#FFA44A"/>
<path d="M0 18H40V27H0V18Z" fill="#1A9F0B"/>
<path d="M0 9H40V18H0V9Z" fill="white"/>
<path d="M20 16.2C21.4728 16.2 22.6667 14.9912 22.6667 13.5C22.6667 12.0088 21.4728 10.8 20 10.8C18.5273 10.8 17.3334 12.0088 17.3334 13.5C17.3334 14.9912 18.5273 16.2 20 16.2Z" fill="white"/>
<path d="M20 17.1C18.0429 17.1 16.4445 15.4816 16.4445 13.5C16.4445 11.5184 18.0429 9.89999 20 9.89999C21.9571 9.89999 23.5556 11.5184 23.5556 13.5C23.5556 15.4816 21.9571 17.1 20 17.1ZM20 16.2C21.4191 16.2 22.6667 14.9368 22.6667 13.5C22.6667 12.0632 21.4269 10.8 20 10.8C18.5731 10.8 17.3333 12.0632 17.3333 13.5C17.3333 14.9368 18.5809 16.2 20 16.2Z" fill="#181A93"/>
<path d="M19.9999 15.3C20.9818 15.3 21.7777 14.4941 21.7777 13.5C21.7777 12.5059 20.9818 11.7 19.9999 11.7C19.0181 11.7 18.2222 12.5059 18.2222 13.5C18.2222 14.4941 19.0181 15.3 19.9999 15.3Z" fill="#181A93"/>
</g>
<defs>
<clipPath id="clip0_6065_1581">
<rect width="40" height="27" fill="white"/>
</clipPath>
</defs>
</svg>
