<svg width="40" height="27" viewBox="0 0 40 27" fill="none" xmlns="http://www.w3.org/2000/svg">
<g clip-path="url(#clip0_6065_1565)">
<path d="M0 -0.0236816H40V27H0V-0.0236816Z" fill="white"/>
<path d="M36.0936 15.6395C35.7817 15.6395 35.0019 15.2447 34.4561 14.9289C33.5984 14.4553 32.8187 13.9816 32.0312 13.9816C31.2437 13.9816 30.4717 14.4553 29.6062 14.9289C29.0604 15.2447 28.3587 15.6395 28.0468 15.6395C27.7349 15.6395 26.9552 15.2447 26.4873 14.9289C25.6296 14.4553 24.7719 13.9816 23.9844 13.9816C23.2827 13.9816 22.425 14.4553 21.5595 14.9289C21.0136 15.2447 20.3119 15.6395 20 15.6395C19.6881 15.6395 18.9864 15.2447 18.4405 14.9289C17.5828 14.4553 16.7251 13.9816 16.0156 13.9816C15.2359 13.9816 14.3782 14.4553 13.5127 14.9289C13.0448 15.2447 12.2651 15.6395 11.9532 15.6395C11.6413 15.6395 10.9396 15.2447 10.3938 14.9289C9.53606 14.4553 8.75634 13.9816 7.96881 13.9816C7.18129 13.9816 6.40936 14.4553 5.54386 14.9289C4.99805 15.2447 4.21832 15.6395 3.90643 15.6395C3.59454 15.6395 2.89279 15.2447 2.34698 14.9289C1.56725 14.4553 0.787524 13.9816 0 13.9816V15.7184L1.48148 16.5079C2.33918 16.9816 3.11891 17.4553 3.90643 17.4553C4.69396 17.4553 5.54386 16.9816 6.40936 16.5079C6.87719 16.1921 7.65692 15.7184 7.96881 15.7184C8.2807 15.7184 8.98246 16.1921 9.52826 16.5079C10.386 16.9816 11.1657 17.4553 11.9532 17.4553C12.7407 17.4553 13.5127 16.9816 14.3782 16.5079C14.924 16.1921 15.7037 15.7184 16.0156 15.7184C16.3275 15.7184 17.0292 16.1921 17.575 16.5079C18.4327 16.9816 19.2125 17.4553 20 17.4553C20.7875 17.4553 21.5595 16.9816 22.425 16.5079C22.9708 16.1921 23.6725 15.7184 23.9844 15.7184C24.2963 15.7184 25.076 16.1921 25.6218 16.5079C26.4795 16.9816 27.2593 17.4553 28.0468 17.4553C28.8343 17.4553 29.6062 16.9816 30.4717 16.5079C31.0175 16.1921 31.7193 15.7184 32.0312 15.7184C32.3431 15.7184 33.1228 16.1921 33.5906 16.5079C34.4483 16.9816 35.306 17.4553 36.0936 17.4553C36.8811 17.4553 37.653 16.9816 38.5185 16.5079L40 15.7184V13.9816C39.2203 13.9816 38.4405 14.4553 37.653 14.9289C37.1072 15.2447 36.4055 15.6395 36.0936 15.6395ZM0 2.50262L1.48148 3.29209C2.33918 3.76578 3.11891 4.23946 3.90643 4.23946C4.69396 4.23946 5.54386 3.76578 6.40936 3.29209C6.87719 2.9763 7.65692 2.50262 7.96881 2.50262C8.2807 2.50262 8.98246 2.9763 9.52826 3.29209C10.386 3.76578 11.1657 4.23946 11.9532 4.23946C12.7407 4.23946 13.5127 3.76578 14.3782 3.29209C14.924 2.9763 15.7037 2.50262 16.0156 2.50262C16.3275 2.50262 17.0292 2.9763 17.575 3.29209C18.4327 3.76578 19.2125 4.23946 20 4.23946C20.7875 4.23946 21.5595 3.76578 22.425 3.29209C22.9708 2.9763 23.6725 2.50262 23.9844 2.50262C24.2963 2.50262 25.076 2.9763 25.6218 3.29209C26.4795 3.76578 27.2593 4.23946 28.0468 4.23946C28.8343 4.23946 29.6062 3.76578 30.4717 3.29209C31.0175 2.9763 31.7193 2.50262 32.0312 2.50262C32.3431 2.50262 33.1228 2.9763 33.5906 3.29209C34.4483 3.76578 35.306 4.23946 36.0936 4.23946C36.8811 4.23946 37.653 3.76578 38.5185 3.29209L40 2.50262V0.765778C39.2203 0.844725 38.4405 1.23946 37.653 1.71315C37.1072 2.02894 36.4055 2.42367 36.0936 2.42367C35.7817 2.42367 35.0019 2.02894 34.4561 1.71315C33.5984 1.23946 32.8187 0.765778 32.0312 0.765778C31.2437 0.765778 30.4717 1.23946 29.6062 1.71315C29.0604 2.02894 28.3587 2.42367 28.0468 2.42367C27.7349 2.42367 26.9552 2.02894 26.4873 1.71315C25.6296 1.23946 24.7719 0.765778 23.9844 0.765778C23.1969 0.765778 22.425 1.23946 21.5595 1.71315C21.0136 2.02894 20.3119 2.42367 20 2.42367C19.6881 2.42367 18.9864 2.02894 18.4405 1.71315C17.5828 1.23946 16.7251 0.765778 16.0156 0.765778C15.306 0.765778 14.3782 1.23946 13.5127 1.71315C13.0448 2.02894 12.2651 2.42367 11.9532 2.42367C11.6413 2.42367 10.9396 2.02894 10.3938 1.71315C9.53606 1.23946 8.75634 0.765778 7.96881 0.765778C7.18129 0.765778 6.40936 1.23946 5.54386 1.71315C4.99805 2.02894 4.21832 2.42367 3.90643 2.42367C3.59454 2.42367 2.89279 2.02894 2.34698 1.71315C1.56725 1.23946 0.787524 0.844725 0 0.765778V2.50262H0ZM36.0936 6.86051C35.7817 6.86051 35.0019 6.46578 34.4561 6.14999C33.5984 5.6763 32.8187 5.20262 32.0312 5.20262C31.2437 5.20262 30.4717 5.6763 29.6062 6.14999C29.0604 6.46578 28.3587 6.86051 28.0468 6.86051C27.7349 6.86051 26.9552 6.46578 26.4873 6.14999C25.6296 5.6763 24.7719 5.20262 23.9844 5.20262C23.2827 5.20262 22.425 5.6763 21.5595 6.14999C21.0136 6.46578 20.3119 6.86051 20 6.86051C19.6881 6.86051 18.9864 6.46578 18.4405 6.14999C17.5828 5.6763 16.7251 5.20262 16.0156 5.20262C15.2359 5.20262 14.3782 5.6763 13.5127 6.14999C13.0448 6.46578 12.2651 6.86051 11.9532 6.86051C11.6413 6.86051 10.9396 6.46578 10.3938 6.14999C9.53606 5.6763 8.75634 5.20262 7.96881 5.20262C7.18129 5.20262 6.40936 5.6763 5.54386 6.14999C4.99805 6.46578 4.21832 6.86051 3.90643 6.86051C3.59454 6.86051 2.89279 6.46578 2.34698 6.14999C1.56725 5.6763 0.787524 5.20262 0 5.20262V6.93946L1.48148 7.64999C2.33918 8.12367 3.11891 8.59736 3.90643 8.59736C4.69396 8.59736 5.54386 8.12367 6.40936 7.64999C6.87719 7.3342 7.65692 6.93946 7.96881 6.93946C8.2807 6.93946 8.98246 7.3342 9.52826 7.64999C10.386 8.12367 11.1657 8.59736 11.9532 8.59736C12.7407 8.59736 13.5127 8.12367 14.3782 7.64999C14.924 7.3342 15.7037 6.93946 16.0156 6.93946C16.3275 6.93946 17.0292 7.3342 17.575 7.64999C18.4327 8.12367 19.2125 8.59736 20 8.59736C20.7875 8.59736 21.5595 8.12367 22.425 7.64999C22.9708 7.3342 23.6725 6.93946 23.9844 6.93946C24.2963 6.93946 25.076 7.3342 25.6218 7.64999C26.4795 8.12367 27.2593 8.59736 28.0468 8.59736C28.8343 8.59736 29.6062 8.12367 30.4717 7.64999C31.0175 7.3342 31.7193 6.93946 32.0312 6.93946C32.3431 6.93946 33.1228 7.3342 33.5906 7.64999C34.4483 8.12367 35.306 8.59736 36.0936 8.59736C36.8811 8.59736 37.653 8.12367 38.5185 7.64999L40 6.93946V5.20262C39.2203 5.20262 38.4405 5.6763 37.653 6.14999C37.1072 6.45788 36.4055 6.86051 36.0936 6.86051ZM40 9.54473C39.2203 9.62367 38.4405 10.0184 37.653 10.4921C37.1072 10.8079 36.4055 11.2816 36.0936 11.2816C35.7817 11.2816 35.0019 10.8079 34.4561 10.4921C33.5984 10.0184 32.8187 9.54473 32.0312 9.54473C31.2437 9.54473 30.4717 10.0184 29.6062 10.4921C29.0604 10.8079 28.3587 11.2816 28.0468 11.2816C27.7349 11.2816 26.9552 10.8079 26.4873 10.4921C25.6296 10.0184 24.7719 9.54473 23.9844 9.54473C23.1969 9.54473 22.425 10.0184 21.5595 10.4921C21.0136 10.8079 20.3119 11.2816 20 11.2816C19.6881 11.2816 18.9864 10.8079 18.4405 10.4921C17.5828 10.0184 16.7251 9.54473 16.0156 9.54473C15.306 9.54473 14.3782 10.0184 13.5127 10.4921C13.0448 10.8079 12.2651 11.2816 11.9532 11.2816C11.6413 11.2816 10.9396 10.8079 10.3938 10.4921C9.53606 10.0184 8.75634 9.54473 7.96881 9.54473C7.18129 9.54473 6.40936 10.0184 5.54386 10.4921C4.99805 10.8079 4.21832 11.2816 3.90643 11.2816C3.59454 11.2816 2.89279 10.8079 2.34698 10.4921C1.56725 10.0184 0.787524 9.62367 0 9.54473V11.3605C0.311891 11.4395 1.01365 11.7553 1.48148 12.071C2.33918 12.5447 3.11891 13.0184 3.90643 13.0184C4.69396 13.0184 5.54386 12.5447 6.40936 12.071C6.87719 11.7553 7.65692 11.3605 7.96881 11.3605C8.2807 11.3605 8.98246 11.7553 9.52826 12.071C10.386 12.5447 11.1657 13.0184 11.9532 13.0184C12.7407 13.0184 13.5127 12.5447 14.3782 12.071C14.924 11.7553 15.7037 11.3605 16.0156 11.3605C16.3275 11.3605 17.0292 11.7553 17.575 12.071C18.4327 12.5447 19.2125 13.0184 20 13.0184C20.7875 13.0184 21.5595 12.5447 22.425 12.071C22.9708 11.7553 23.6725 11.3605 23.9844 11.3605C24.2963 11.3605 25.076 11.7553 25.6218 12.071C26.4795 12.5447 27.2593 13.0184 28.0468 13.0184C28.8343 13.0184 29.6062 12.5447 30.4717 12.071C31.0175 11.7553 31.7193 11.3605 32.0312 11.3605C32.3431 11.3605 33.1228 11.7553 33.5906 12.071C34.4483 12.5447 35.306 13.0184 36.0936 13.0184C36.8811 13.0184 37.653 12.5447 38.5185 12.071C38.9864 11.7553 39.6881 11.4395 40 11.3605V9.54473ZM36.0936 20.0684C35.7817 20.0684 35.0019 19.6737 34.4561 19.3579C33.5984 18.8842 32.8187 18.4105 32.0312 18.4105C31.2437 18.4105 30.4717 18.8842 29.6062 19.3579C29.0604 19.6737 28.3587 20.0684 28.0468 20.0684C27.7349 20.0684 26.9552 19.6737 26.4873 19.3579C25.6296 18.8842 24.7719 18.4105 23.9844 18.4105C23.2827 18.4105 22.425 18.8842 21.5595 19.3579C21.0136 19.6737 20.3119 20.0684 20 20.0684C19.6881 20.0684 18.9864 19.6737 18.4405 19.3579C17.5828 18.8842 16.7251 18.4105 16.0156 18.4105C15.2359 18.4105 14.3782 18.8842 13.5127 19.3579C13.0448 19.6737 12.2651 20.0684 11.9532 20.0684C11.6413 20.0684 10.9396 19.6737 10.3938 19.3579C9.53606 18.8842 8.75634 18.4105 7.96881 18.4105C7.18129 18.4105 6.40936 18.8842 5.54386 19.3579C4.99805 19.6737 4.21832 20.0684 3.90643 20.0684C3.59454 20.0684 2.89279 19.6737 2.34698 19.3579C1.56725 18.8842 0.787524 18.4105 0 18.4105V20.1474L1.48148 20.8579C2.33918 21.3316 3.11891 21.8053 3.90643 21.8053C4.69396 21.8053 5.54386 21.3316 6.40936 20.8579C6.87719 20.5421 7.65692 20.1474 7.96881 20.1474C8.2807 20.1474 8.98246 20.5421 9.52826 20.8579C10.386 21.3316 11.1657 21.8053 11.9532 21.8053C12.7407 21.8053 13.5127 21.3316 14.3782 20.8579C14.924 20.5421 15.7037 20.1474 16.0156 20.1474C16.3275 20.1474 17.0292 20.5421 17.575 20.8579C18.4327 21.3316 19.2125 21.8053 20 21.8053C20.7875 21.8053 21.5595 21.3316 22.425 20.8579C22.9708 20.5421 23.6725 20.1474 23.9844 20.1474C24.2963 20.1474 25.076 20.5421 25.6218 20.8579C26.4795 21.3316 27.2593 21.8053 28.0468 21.8053C28.8343 21.8053 29.6062 21.3316 30.4717 20.8579C31.0175 20.5421 31.7193 20.1474 32.0312 20.1474C32.3431 20.1474 33.1228 20.5421 33.5906 20.8579C34.4483 21.3316 35.306 21.8053 36.0936 21.8053C36.8811 21.8053 37.653 21.3316 38.5185 20.8579L40 20.1474V18.4105C39.2203 18.4105 38.4405 18.8842 37.653 19.3579C37.1072 19.6737 36.4055 20.0684 36.0936 20.0684ZM40 22.7526C39.2203 22.8316 38.4405 23.2263 37.653 23.7C37.1072 24.0158 36.4055 24.4895 36.0936 24.4895C35.7817 24.4895 35.0019 24.0158 34.4561 23.7C33.5984 23.2263 32.8187 22.7526 32.0312 22.7526C31.2437 22.7526 30.4717 23.2263 29.6062 23.7C29.0604 24.0158 28.3587 24.4895 28.0468 24.4895C27.7349 24.4895 26.9552 24.0158 26.4873 23.7C25.6296 23.2263 24.7719 22.7526 23.9844 22.7526C23.1969 22.7526 22.425 23.2263 21.5595 23.7C21.0136 24.0158 20.3119 24.4895 20 24.4895C19.6881 24.4895 18.9864 24.0158 18.4405 23.7C17.5828 23.2263 16.7251 22.7526 16.0156 22.7526C15.306 22.7526 14.3782 23.2263 13.5127 23.7C13.0448 24.0158 12.2651 24.4895 11.9532 24.4895C11.6413 24.4895 10.9396 24.0158 10.3938 23.7C9.53606 23.2263 8.75634 22.7526 7.96881 22.7526C7.18129 22.7526 6.40936 23.2263 5.54386 23.7C4.99805 24.0158 4.21832 24.4895 3.90643 24.4895C3.59454 24.4895 2.89279 24.0158 2.34698 23.7C1.56725 23.2263 0.787524 22.8316 0 22.7526V24.5684C0.311891 24.5684 1.01365 24.9631 1.48148 25.2789C2.33918 25.7526 3.11891 26.2263 3.90643 26.2263C4.69396 26.2263 5.54386 25.7526 6.40936 25.2789C6.87719 24.9631 7.65692 24.5684 7.96881 24.5684C8.2807 24.5684 8.98246 24.9631 9.52826 25.2789C10.386 25.7526 11.1657 26.2263 11.9532 26.2263C12.7407 26.2263 13.5127 25.7526 14.3782 25.2789C14.924 24.9631 15.7037 24.5684 16.0156 24.5684C16.3275 24.5684 17.0292 24.9631 17.575 25.2789C18.4327 25.7526 19.2125 26.2263 20 26.2263C20.7875 26.2263 21.5595 25.7526 22.425 25.2789C22.9708 24.9631 23.6725 24.5684 23.9844 24.5684C24.2963 24.5684 25.076 24.9631 25.6218 25.2789C26.4795 25.7526 27.2593 26.2263 28.0468 26.2263C28.8343 26.2263 29.6062 25.7526 30.4717 25.2789C31.0175 24.9631 31.7193 24.5684 32.0312 24.5684C32.3431 24.5684 33.1228 24.9631 33.5906 25.2789C34.4483 25.7526 35.306 26.2263 36.0936 26.2263C36.8811 26.2263 37.653 25.7526 38.5185 25.2789C38.9864 24.9631 39.6881 24.5684 40 24.5684V22.7526Z" fill="#0052B4"/>
<path d="M0 -0.0236816H19.961V13.4763H0V-0.0236816Z" fill="white"/>
<path d="M30.3938 9.46579H31.8129V15.6868H30.386L30.3938 9.46579ZM30.3938 18.7658H31.8129V24.6947H30.386L30.3938 18.7658Z" fill="#A2001D"/>
<path d="M11.2281 -0.0236816H8.73294V5.50263H0V8.02895H8.73294V13.4763H11.2281V8.02895H19.961V5.50263H11.2281V-0.0236816Z" fill="#D80027"/>
<path d="M0 -0.0236816V1.16053L4.44444 4.23948H6.23782L0 -0.0236816ZM19.961 -0.0236816V1.16053L15.5166 4.23948H13.7232L19.961 -0.0236816Z" fill="#D80027"/>
<path d="M0 -0.0236816V1.16053L4.44444 4.23948H6.23782L0 -0.0236816ZM19.961 -0.0236816V1.16053L15.5166 4.23948H13.7232L19.961 -0.0236816ZM0 13.4763V12.2921L4.44444 9.29211H6.23782L0 13.4763ZM19.961 13.4763V12.2921L15.5166 9.29211H13.7232L19.961 13.4763Z" fill="#D80027"/>
<path d="M0 1.79211V4.23948H3.58674L0 1.79211ZM7.48538 -0.0236816V3.84474L1.79337 -0.0236816H7.48538ZM19.961 1.79211V4.23948H16.3743L19.961 1.79211ZM12.4756 -0.0236816V3.84474L18.1676 -0.0236816H12.4756Z" fill="#2E52B2"/>
<path d="M0 1.79211V4.23948H3.58674L0 1.79211ZM7.48538 -0.0236816V3.84474L1.79337 -0.0236816H7.48538ZM19.961 1.79211V4.23948H16.3743L19.961 1.79211ZM12.4756 -0.0236816V3.84474L18.1676 -0.0236816H12.4756ZM0 11.6605V9.29211H3.58674L0 11.6605ZM7.48538 13.4763V9.6079L1.79337 13.4763H7.48538ZM19.961 11.6605V9.29211H16.3743L19.961 11.6605ZM12.4756 13.4763V9.6079L18.1676 13.4763H12.4756Z" fill="#2E52B2"/>
<path d="M36.0858 7.22367H33.8168L35.8207 5.19473C36.1715 4.84736 36.1715 4.29473 35.8207 3.94736L35.5555 3.67894C35.2125 3.33157 34.6667 3.33157 34.3236 3.67894L32.3041 5.72367V2.95262C32.3041 2.46315 31.9064 2.06052 31.423 2.06052H31.0565C30.5731 2.06052 30.1754 2.46315 30.1754 2.95262V5.45525L28.3431 3.57631C27.9766 3.20525 27.3918 3.20525 27.0253 3.57631L26.7446 3.86052C26.3782 4.23157 26.3782 4.83946 26.7446 5.21841L28.694 7.22367H26.308C25.8401 7.22367 25.4581 7.61052 25.4581 8.0842V8.44736C25.4581 8.92104 25.8401 9.30788 26.308 9.30788H28.7719L27.1579 10.9421C26.8148 11.2895 26.8148 11.8421 27.1579 12.1895L27.423 12.4579C27.7661 12.8053 28.3119 12.8053 28.655 12.4579L30.1832 10.9105V13.1842C30.1832 13.6658 30.5809 14.0605 31.0643 14.0763H31.4308C31.9142 14.0763 32.3119 13.6737 32.3119 13.1842V10.95L34.0429 12.7342C34.4094 13.1053 35.0097 13.1053 35.3762 12.7342L35.6569 12.45C36.0234 12.0789 36.0234 11.471 35.6569 11.0921L33.9337 9.31578H36.0858C36.5458 9.31578 36.9201 8.92894 36.9357 8.45525V8.0921C36.9357 7.61052 36.5536 7.22367 36.0858 7.22367Z" fill="#5DA51E"/>
<path fill-rule="evenodd" clip-rule="evenodd" d="M30.0195 2.95262C30.0195 2.37594 30.487 1.90262 31.0565 1.90262H31.423C31.9926 1.90262 32.46 2.37594 32.46 2.95262V5.34248L34.2133 3.56729C34.6173 3.15826 35.2618 3.15826 35.6658 3.56729L35.9297 3.83446C35.9299 3.83467 35.9301 3.83488 35.9303 3.83509C36.3429 4.24422 36.3429 4.89785 35.9303 5.30699C35.9301 5.3072 35.9299 5.30741 35.9297 5.30762L34.1932 7.06578H36.0858C36.6407 7.06578 37.0916 7.52425 37.0916 8.09209V8.45788L37.0915 8.46051C37.0733 9.01344 36.6356 9.47367 36.0858 9.47367H34.3055L35.7683 10.9816C36.1935 11.4213 36.1952 12.1283 35.7672 12.5616L35.4865 12.8458C35.0591 13.2786 34.36 13.2786 33.9326 12.8458L33.9321 12.8453L32.4678 11.336V13.1842C32.4678 13.7609 32.0004 14.2342 31.4308 14.2342H31.0618L31.0593 14.2341C30.4973 14.2158 30.0273 13.7566 30.0273 13.1842V11.2917L28.7652 12.5695C28.3613 12.9786 27.7167 12.9786 27.3127 12.5695L27.0476 12.3011C26.6436 11.8921 26.6436 11.2395 27.0476 10.8304L28.3954 9.46578H26.308C25.754 9.46578 25.3021 9.00824 25.3021 8.44736V8.0842C25.3021 7.52331 25.754 7.06578 26.308 7.06578H28.3217L26.6335 5.32917L26.6332 5.32888C26.208 4.8892 26.2064 4.18222 26.6344 3.74886L26.9151 3.46465C27.3424 3.03194 28.026 3.03194 28.4533 3.46465L28.454 3.46536L30.0195 5.07061V2.95262ZM31.0565 2.21841C30.6592 2.21841 30.3314 2.55035 30.3314 2.95262V5.83989L28.2328 3.68795C28.2327 3.68784 28.2326 3.68773 28.2325 3.68763C27.9269 3.37856 27.4411 3.37867 27.1356 3.68795L26.8549 3.97216C26.55 4.28087 26.5483 4.78959 26.8559 5.10781C26.856 5.10786 26.856 5.1079 26.8561 5.10794L29.0663 7.38157H26.308C25.9263 7.38157 25.614 7.69772 25.614 8.0842V8.44736C25.614 8.83384 25.9263 9.14999 26.308 9.14999H29.1484L27.2682 11.0537C26.986 11.3394 26.986 11.7921 27.2682 12.0778L27.5333 12.3462C27.8154 12.6319 28.2625 12.6319 28.5447 12.3462L30.3392 10.5293V13.1842C30.3392 13.5742 30.6632 13.904 31.067 13.9184H31.4308C31.8281 13.9184 32.1559 13.5865 32.1559 13.1842V10.5639L34.1532 12.6225C34.1533 12.6227 34.1535 12.6229 34.1536 12.623C34.4592 12.9319 34.9605 12.9318 35.2659 12.6225L35.5466 12.3383C35.8515 12.0296 35.8532 11.5209 35.5456 11.2027C35.5456 11.2027 35.5455 11.2026 35.5455 11.2026L33.562 9.15788H36.0858C36.4552 9.15788 36.7655 8.84576 36.7797 8.4525V8.09209C36.7797 7.69678 36.4665 7.38157 36.0858 7.38157H33.4403L35.711 5.08245L35.7116 5.08183C35.9999 4.7964 35.9999 4.34568 35.7116 4.06025L35.711 4.05963L35.4453 3.79058C35.1631 3.50488 34.716 3.50488 34.4339 3.79058L32.1481 6.10486V2.95262C32.1481 2.55035 31.8203 2.21841 31.423 2.21841H31.0565Z" fill="#45602C"/>
<path d="M34.2456 19.6658H28.0234C28.0234 19.6658 27.9532 18.6079 27.5556 17.9447C27.0721 17.1237 26.4717 15.7263 27.4464 15.0474C28.6862 14.1868 30.0741 15.1105 31.2047 15.1105C32.1248 15.1184 33.3021 14.0053 34.7135 15.0474C35.6647 15.75 35.0175 17.2737 34.6121 17.9447C34.0663 18.8526 34.2456 19.6658 34.2456 19.6658Z" fill="#E2DD24"/>
<path fill-rule="evenodd" clip-rule="evenodd" d="M31.204 15.2684C30.9026 15.2683 30.5895 15.2069 30.2792 15.1334C30.1769 15.1091 30.0754 15.0837 29.9743 15.0583C29.7627 15.0053 29.5524 14.9526 29.3374 14.9114C28.7098 14.791 28.1037 14.7826 27.5347 15.1775C27.1162 15.4691 27.0249 15.9137 27.108 16.4167C27.1918 16.9242 27.4508 17.4584 27.6892 17.8633C27.9022 18.2188 28.0233 18.6706 28.0916 19.0236C28.1262 19.202 28.1479 19.359 28.1611 19.4716C28.1625 19.4842 28.1639 19.4964 28.1652 19.5079H34.0682C34.0609 19.4125 34.0575 19.2851 34.0687 19.1339C34.0935 18.7971 34.1909 18.3417 34.4789 17.8626L34.479 17.8623C34.676 17.5363 34.9288 17.0069 35.0178 16.4812C35.107 15.9546 35.0274 15.4747 34.6216 15.1749C33.9644 14.6897 33.3688 14.7047 32.8124 14.8444C32.6036 14.8968 32.4056 14.9652 32.2085 15.0333C32.1361 15.0584 32.0638 15.0833 31.9912 15.1075C31.7289 15.1946 31.4617 15.2705 31.204 15.2684ZM34.2456 19.6658V19.8237H27.8776L27.8678 19.6764L27.8678 19.676L27.8676 19.6742C27.8675 19.6724 27.8673 19.6697 27.867 19.666C27.8665 19.6587 27.8656 19.6477 27.8643 19.6332C27.8617 19.6043 27.8575 19.5619 27.8513 19.5087C27.8389 19.4022 27.8183 19.2533 27.7856 19.0843C27.7194 18.7427 27.6067 18.3343 27.4222 18.0267L27.4219 18.0261L27.4216 18.0256C27.1766 17.6095 26.8939 17.0348 26.8004 16.4688C26.7061 15.8982 26.8019 15.3046 27.358 14.9173L27.3582 14.9171C28.0289 14.4516 28.7367 14.4748 29.3955 14.6011C29.6189 14.6439 29.8438 14.7003 30.06 14.7544C30.1589 14.7792 30.2561 14.8035 30.3504 14.8259C30.6569 14.8986 30.941 14.9526 31.2047 14.9526H31.2053L31.206 14.9526C31.4082 14.9544 31.6329 14.8941 31.894 14.8074C31.9593 14.7857 32.0271 14.7623 32.0968 14.7382C32.2974 14.6688 32.5144 14.5938 32.7373 14.5378C33.3524 14.3835 34.0512 14.3629 34.8053 14.9198C35.3507 15.3226 35.4232 15.9559 35.3252 16.5346C35.2271 17.1141 34.9536 17.682 34.7451 18.027C34.4874 18.4558 34.4016 18.8608 34.3797 19.1575C34.3687 19.306 34.3738 19.4271 34.3814 19.5099C34.3852 19.5514 34.3896 19.5831 34.3929 19.6038C34.3946 19.6142 34.3959 19.6218 34.3968 19.6264C34.3971 19.6278 34.3973 19.6289 34.3975 19.6298C34.3976 19.6304 34.3977 19.6308 34.3978 19.6312L34.3978 19.6315C34.3978 19.6314 34.3978 19.6314 34.2456 19.6658Z" fill="#525625"/>
</g>
<defs>
<clipPath id="clip0_6065_1565">
<rect width="40" height="27" fill="white"/>
</clipPath>
</defs>
</svg>
