<svg width="40" height="27" viewBox="0 0 40 27" fill="none" xmlns="http://www.w3.org/2000/svg">
<g clip-path="url(#clip0_6065_1559)">
<path d="M0 0H40V27H0V0Z" fill="white"/>
<path d="M0 0H40V9H0V0Z" fill="#CE1126"/>
<path d="M0 18H40V27H0V18Z" fill="black"/>
<path d="M17.0916 12.6869H14.807C14.924 12.2369 15.3216 11.9053 15.8051 11.9053V10.3342C14.3782 10.3342 13.2242 11.5105 13.2242 12.9474V14.25H17.0916C17.232 14.25 17.3489 14.3684 17.3489 14.5105V15.0316H12.1871V16.6027H18.9006V14.5105C18.9006 13.5079 18.0897 12.6869 17.0916 12.6869ZM20.9591 15.0395V10.3342H19.4152V16.6105H21.9961V15.0395H20.9591ZM26.1209 15.0395V10.3342H24.577V15.0395H24.0624V13.4763H22.5107V16.6105H27.1579V15.0395H26.1209Z" fill="#547C31"/>
</g>
<defs>
<clipPath id="clip0_6065_1559">
<rect width="40" height="27" fill="white"/>
</clipPath>
</defs>
</svg>
