<svg width="40" height="27" viewBox="0 0 40 27" fill="none" xmlns="http://www.w3.org/2000/svg">
<g clip-path="url(#clip0_6065_1552)">
<path d="M0 0H39.922V27H0V0Z" fill="white"/>
<path d="M0 0H40V9H0V0Z" fill="#6DA544"/>
<path d="M0 17.9921H40V26.9921H0V17.9921ZM21.7388 10.6421C21.7466 10.8 22.4172 12.7105 22.0819 13.7526C21.5673 15.3553 20.8499 15.4737 20.538 15.6868V10.579L20 10.2474L19.462 10.579V15.6868C19.1501 15.4737 18.4951 15.4974 17.9181 13.7526C17.5828 12.75 18.3626 10.8079 18.3704 10.6579C18.3704 10.6579 17.6296 11.2974 17.1384 12.5526C16.6784 13.7211 17.2866 16.4684 19.4386 16.879C19.6179 16.9105 19.8051 17.3211 20 17.3211C20.1637 17.3211 20.3197 16.9105 20.4678 16.8868C22.6823 16.5237 23.1969 13.5947 22.7992 12.4974C22.3782 11.3447 21.7388 10.6421 21.7388 10.6421Z" fill="#D80027"/>
<g opacity="0.5">
<path opacity="0.5" d="M3.47758 7.80792H5.21637V9.73424H3.47758V7.80792ZM0 7.80792H1.73879V9.73424H0V7.80792ZM6.95517 7.80792H8.69396V9.73424H6.95517V7.80792ZM10.4327 7.80792H12.1715V9.73424H10.4327V7.80792ZM13.9103 7.80792H15.6491V9.73424H13.9103V7.80792ZM17.3879 7.80792H19.1267V9.73424H17.3879V7.80792ZM20.8733 7.80792H22.6121V9.73424H20.8733V7.80792ZM24.3509 7.80792H26.0897V9.73424H24.3509V7.80792ZM27.8285 7.80792H29.5673V9.73424H27.8285V7.80792ZM31.306 7.80792H33.0448V9.73424H31.306V7.80792ZM34.7836 7.80792H36.5224V9.73424H34.7836V7.80792ZM38.2612 7.80792H40V9.73424H38.2612V7.80792ZM3.47758 17.1237H5.21637V19.1369H3.47758V17.1237ZM0 17.1237H1.73879V19.1369H0V17.1237ZM6.95517 17.1237H8.69396V19.1369H6.95517V17.1237ZM10.4327 17.1237H12.1715V19.1369H10.4327V17.1237ZM13.9103 17.1237H15.6491V19.1369H13.9103V17.1237ZM17.3879 17.1237H19.1267V19.1369H17.3879V17.1237ZM20.8733 17.1237H22.6121V19.1369H20.8733V17.1237ZM24.3509 17.1237H26.0897V19.1369H24.3509V17.1237ZM27.8285 17.1237H29.5673V19.1369H27.8285V17.1237ZM31.306 17.1237H33.0448V19.1369H31.306V17.1237ZM34.7836 17.1237H36.5224V19.1369H34.7836V17.1237ZM38.2612 17.1237H40V19.1369H38.2612V17.1237Z" fill="white"/>
</g>
</g>
<defs>
<clipPath id="clip0_6065_1552">
<rect width="40" height="27" fill="white"/>
</clipPath>
</defs>
</svg>
