<svg width="40" height="27" viewBox="0 0 40 27" fill="none" xmlns="http://www.w3.org/2000/svg">
<g clip-path="url(#clip0_6065_1539)">
<path d="M0 0H40V27H0V0Z" fill="white"/>
<path d="M23.5322 13.5L40 2.38421V0H36.4678L20 11.1158L3.53216 0H0V2.38421L16.4678 13.5L0 24.6158V27H3.53216L20 15.8842L36.4678 27H40V24.6158L23.5322 13.5Z" fill="#D80027"/>
<path d="M18.2222 3.52109L19.961 3.96319L21.6998 3.52109L22.0117 1.87109L20.8499 2.38425L19.961 1.16846L19.0721 2.38425L17.9103 1.87109L18.2222 3.52109Z" fill="#FFDA44"/>
<path d="M18.2222 3.52108C18.2222 3.52108 17.9103 4.5395 17.9103 5.88161C17.9103 8.08424 19.961 9.14213 19.961 9.14213C19.961 9.14213 22.0117 7.91845 22.0117 5.88161C22.0117 4.66582 21.6998 3.52108 21.6998 3.52108C21.6998 3.52108 21.0682 3.12634 19.961 3.12634C18.8538 3.12634 18.2222 3.52108 18.2222 3.52108Z" fill="#D80027"/>
</g>
<defs>
<clipPath id="clip0_6065_1539">
<rect width="40" height="27" fill="white"/>
</clipPath>
</defs>
</svg>
