<svg width="40" height="27" viewBox="0 0 40 27" fill="none" xmlns="http://www.w3.org/2000/svg">
<g clip-path="url(#clip0_6065_1534)">
<path d="M0 0.000305176H40V26.9997H0V0.000305176Z" fill="#6DA544"/>
<path d="M16.8644 13.5005L0 24.8836V2.11646L16.8644 13.5005ZM40 2.11646V24.8836L23.1356 13.5005L40 2.11646Z" fill="black"/>
<path d="M40 2.11642L23.1356 13.5005L40 24.8836V27.0001H36.8652L20 15.6161L3.13477 27.0001H0V24.8836L16.8644 13.5005L0 2.11642V-0.000183105H3.13477L20 11.3839L36.8652 -0.000183105H40V2.11642Z" fill="#0052B4"/>
<path d="M40 2.11642L23.1356 13.5005L40 24.8836V27.0001H36.8652L20 15.6161L3.13477 27.0001H0V24.8836L16.8644 13.5005L0 2.11642V-0.000183105H3.13477L20 11.3839L36.8652 -0.000183105H40V2.11642Z" fill="#FFDA44"/>
</g>
<defs>
<clipPath id="clip0_6065_1534">
<rect width="40" height="27" fill="white"/>
</clipPath>
</defs>
</svg>
