<svg width="40" height="27" viewBox="0 0 40 27" fill="none" xmlns="http://www.w3.org/2000/svg">
<g clip-path="url(#clip0_6065_1514)">
<path d="M0 -0.000183105H40V27.0001H0V-0.000183105Z" fill="white"/>
<path d="M0 -0.000183105H40V7.16476H0V-0.000183105Z" fill="black"/>
<path d="M0 19.8352H40V26.9993H0V19.8352Z" fill="#496E2D"/>
<path d="M0 8.96008H40V18.0409H0V8.96008Z" fill="#A2001D"/>
<path d="M25.255 4.30868L23.2564 3.37457L20 10.8403L16.7435 3.37457L14.7449 4.30868L18.7878 13.4996L14.7449 22.6906L16.7435 23.6246L20 16.1589L23.2564 23.6246L25.255 22.6906L21.2121 13.4996L25.255 4.30868Z" fill="white"/>
<path d="M21.3575 5.18895C20.5837 4.33339 20 3.84161 20 3.84161C20 3.84161 19.4162 4.33331 18.6425 5.18887V21.8103C19.4162 22.6658 20 23.1577 20 23.1577C20 23.1577 20.5837 22.666 21.3575 21.8103V5.18895Z" fill="white"/>
<path d="M16.3313 8.37629V18.6227C17.1489 20.0894 18.1496 21.2918 18.8994 22.0888V4.91022C18.1495 5.70725 17.1488 6.90951 16.3313 8.37629ZM23.6688 8.37629C22.8512 6.90951 21.8505 5.70725 21.1007 4.91022V22.0889C21.8506 21.2918 22.8512 20.0895 23.6688 18.6228V8.37629Z" fill="#A2001D"/>
<path d="M23.6688 8.37628V18.6227C24.4964 17.1377 25.1363 15.3817 25.1363 13.4995C25.1363 11.6174 24.4964 9.86142 23.6688 8.37628ZM16.3313 8.37628V18.6227C15.5036 17.1377 14.8638 15.3817 14.8638 13.4995C14.8638 11.6174 15.5036 9.86142 16.3313 8.37628Z" fill="black"/>
</g>
<defs>
<clipPath id="clip0_6065_1514">
<rect width="40" height="27" fill="white"/>
</clipPath>
</defs>
</svg>
