<svg width="40" height="27" viewBox="0 0 40 27" fill="none" xmlns="http://www.w3.org/2000/svg">
<g clip-path="url(#clip0_6065_1506)">
<path d="M0 0H40.0781V27H0V0Z" fill="#D80027"/>
<path d="M20 26.9526C27.3652 26.9526 33.3359 20.9191 33.3359 13.4763C33.3359 6.03355 27.3652 0 20 0C12.6348 0 6.66406 6.03355 6.66406 13.4763C6.66406 20.9191 12.6348 26.9526 20 26.9526Z" fill="#D80027"/>
<path d="M29.875 13.4764L25.8437 15.3948L27.9922 19.3422L23.6094 18.4974L23.0547 22.9658L20 19.6737L16.9453 22.9658L16.3906 18.4974L12.0078 19.3422L14.1562 15.3948L10.125 13.4764L14.1562 11.558L12.0078 7.60269L16.3906 8.45532L16.9453 3.979L20 7.27111L23.0547 3.979L23.6094 8.45532L27.9922 7.60269L25.8437 11.558L29.875 13.4764Z" fill="#FFDA44"/>
<path d="M20.1094 19.129C23.1987 19.129 25.7031 16.5982 25.7031 13.4764C25.7031 10.3545 23.1987 7.82373 20.1094 7.82373C17.02 7.82373 14.5156 10.3545 14.5156 13.4764C14.5156 16.5982 17.02 19.129 20.1094 19.129Z" fill="#D80027"/>
<path d="M16.7344 13.4763C16.5703 13.4763 16.4141 13.4842 16.25 13.5C16.2578 14.4473 16.5938 15.3079 17.1563 15.9868C17.4531 15.1737 17.8984 14.4395 18.4609 13.8C17.9219 13.5868 17.3437 13.4763 16.7344 13.4763ZM18.8125 17.1473C19.2188 17.2973 19.6562 17.3763 20.1094 17.3763C20.5625 17.3763 21 17.2973 21.4062 17.1473C21.1875 16.271 20.7266 15.4895 20.1094 14.8737C19.4922 15.4895 19.0312 16.271 18.8125 17.1473ZM23.4531 11.5263C22.7891 10.3579 21.5391 9.57629 20.1094 9.57629C18.6797 9.57629 17.4375 10.3579 16.7656 11.5263C17.9844 11.5342 19.125 11.8658 20.1094 12.4421C21.0937 11.8658 22.2344 11.5263 23.4531 11.5263ZM21.7578 13.8C22.3203 14.4316 22.7656 15.1737 23.0625 15.9868C23.625 15.3158 23.9609 14.4473 23.9687 13.5C23.8125 13.4842 23.6484 13.4763 23.4844 13.4763C22.8828 13.4763 22.2969 13.5868 21.7578 13.8Z" fill="#FFDA44"/>
</g>
<defs>
<clipPath id="clip0_6065_1506">
<rect width="40" height="27" fill="white"/>
</clipPath>
</defs>
</svg>
