<svg width="40" height="27" viewBox="0 0 40 27" fill="none" xmlns="http://www.w3.org/2000/svg">
<g clip-path="url(#clip0_6065_1493)">
<path d="M0 0H40V27H0V0Z" fill="#CE1126"/>
<path d="M20.2312 19.566C22.9901 19.566 25.2267 17.3015 25.2267 14.508C25.2267 11.7146 22.9901 9.45001 20.2312 9.45001C17.4722 9.45001 15.2356 11.7146 15.2356 14.508C15.2356 17.3015 17.4722 19.566 20.2312 19.566Z" fill="#FCD116"/>
<path d="M22.5867 6.60602L20.48 8.94602L23.0222 9.53102L22.5867 6.60602ZM18.0089 6.62402L17.5822 9.60302L20.1156 8.88302L18.0089 6.62402ZM26.3911 9.02702L23.3067 9.79202L25.0933 11.925L26.3911 9.02702ZM14.0978 8.86502L15.4756 11.808L17.2711 9.76502L14.0978 8.86502ZM28.2311 12.942L25.1733 12.051L25.6711 14.706L28.2311 12.942ZM12.0533 12.708L14.8889 14.49L15.3511 11.997L12.0533 12.708Z" fill="#FCD116"/>
<path d="M0 15.75H40V27H0V15.75Z" fill="#003F87"/>
<path d="M0 24.03C1.33333 24.03 2.66667 25.2 4 25.2C5.33333 25.2 6.66667 24.03 8 24.03C9.33333 24.03 10.6667 25.2 12 25.2C13.3333 25.2 14.6667 24.03 16 24.03C17.3333 24.03 18.6667 25.2 20 25.2C21.3333 25.2 22.6667 24.03 24 24.03C25.3333 24.03 26.6667 25.2 28 25.2C29.3333 25.2 30.6667 24.03 32 24.03C33.3333 24.03 34.6667 25.2 36 25.2C37.3333 25.2 38.6667 24.03 40 24.03V22.14C38.6667 22.14 37.3333 23.31 36 23.31C34.6667 23.31 33.3333 22.14 32 22.14C30.6667 22.14 29.3333 23.31 28 23.31C26.6667 23.31 25.3333 22.14 24 22.14C22.6667 22.14 21.3333 23.31 20 23.31C18.6667 23.31 17.3333 22.14 16 22.14C14.6667 22.14 13.3333 23.31 12 23.31C10.6667 23.31 9.33333 22.14 8 22.14C6.66667 22.14 5.33333 23.31 4 23.31C2.66667 23.31 1.33333 22.14 0 22.14V24.03ZM0 20.16C1.33333 20.16 2.66667 21.33 4 21.33C5.33333 21.33 6.66667 20.16 8 20.16C9.33333 20.16 10.6667 21.33 12 21.33C13.3333 21.33 14.6667 20.16 16 20.16C17.3333 20.16 18.6667 21.33 20 21.33C21.3333 21.33 22.6667 20.16 24 20.16C25.3333 20.16 26.6667 21.33 28 21.33C29.3333 21.33 30.6667 20.16 32 20.16C33.3333 20.16 34.6667 21.33 36 21.33C37.3333 21.33 38.6667 20.16 40 20.16V18.27C38.6667 18.27 37.3333 19.44 36 19.44C34.6667 19.44 33.3333 18.27 32 18.27C30.6667 18.27 29.3333 19.44 28 19.44C26.6667 19.44 25.3333 18.27 24 18.27C22.6667 18.27 21.3333 19.44 20 19.44C18.6667 19.44 17.3333 18.27 16 18.27C14.6667 18.27 13.3333 19.44 12 19.44C10.6667 19.44 9.33333 18.27 8 18.27C6.66667 18.27 5.33333 19.44 4 19.44C2.66667 19.44 1.33333 18.27 0 18.27V20.16ZM0 16.29C1.33333 16.29 2.66667 17.46 4 17.46C5.33333 17.46 6.66667 16.29 8 16.29C9.33333 16.29 10.6667 17.46 12 17.46C13.3333 17.46 14.6667 16.29 16 16.29C17.3333 16.29 18.6667 17.46 20 17.46C21.3333 17.46 22.6667 16.29 24 16.29C25.3333 16.29 26.6667 17.46 28 17.46C29.3333 17.46 30.6667 16.29 32 16.29C33.3333 16.29 34.6667 17.46 36 17.46C37.3333 17.46 38.6667 16.29 40 16.29V14.4C38.6667 14.4 37.3333 15.57 36 15.57C34.6667 15.57 33.3333 14.4 32 14.4C30.6667 14.4 29.3333 15.57 28 15.57C26.6667 15.57 25.3333 14.4 24 14.4C22.6667 14.4 21.3333 15.57 20 15.57C18.6667 15.57 17.3333 14.4 16 14.4C14.6667 14.4 13.3333 15.57 12 15.57C10.6667 15.57 9.33333 14.4 8 14.4C6.66667 14.4 5.33333 15.57 4 15.57C2.66667 15.57 1.33333 14.4 0 14.4V16.29Z" fill="white"/>
<path fill-rule="evenodd" clip-rule="evenodd" d="M16.2845 4.34701L16.1867 3.87001L18.1778 3.53701C18.1778 3.53701 15.5022 2.89801 14.6222 2.57401C13.3511 2.11501 13.1733 1.48501 13.1733 1.48501C13.1733 1.48501 17.1467 2.47501 18.9333 2.47501C19.3156 2.47501 20.0711 3.43801 20.0711 3.43801C20.0711 3.43801 21.3867 2.09701 22.0178 2.05201C24.8711 1.84501 27.9378 1.47601 27.9378 1.47601C27.9378 1.47601 27.0489 2.07901 26.5156 2.24101C25.0756 2.68201 22.0178 3.29401 22.0178 3.29401L21.5911 3.96901H24.6222L23.3422 4.35601L24 4.97701C24 4.97701 23.3067 4.60801 22.3911 4.78801C21.76 4.90501 21.0222 5.32801 20.3556 5.50801C18.6933 5.94001 17.6978 4.35601 17.6978 4.35601L16.2845 4.34701Z" fill="#FCD116"/>
</g>
<defs>
<clipPath id="clip0_6065_1493">
<rect width="40" height="27" fill="white"/>
</clipPath>
</defs>
</svg>
