<svg width="40" height="27" viewBox="0 0 40 27" fill="none" xmlns="http://www.w3.org/2000/svg">
<g clip-path="url(#clip0_6065_1484)">
<path d="M0 0.000320435H40V26.9998H0V0.000320435Z" fill="#0052B4"/>
<path d="M0 0.000320435H40V6.75062H0V0.000320435Z" fill="#FFDA44"/>
<path d="M0 6.74974H40V13.5H0V6.74974Z" fill="white"/>
<path d="M0 13.5H40V20.2503H0V13.5Z" fill="#D80027"/>
<path d="M20 13.5005L0 27.0002V-0.000152588L20 13.5005Z" fill="#6DA544"/>
<path d="M5.36235 13.5C5.36235 11.5332 6.72767 9.89 8.55079 9.4869C8.26518 9.42349 7.97365 9.39145 7.68126 9.39134C5.44001 9.39134 3.62329 11.2309 3.62329 13.5C3.62329 15.7692 5.44009 17.6087 7.68126 17.6087C7.97985 17.6087 8.27056 17.5751 8.55079 17.5132C6.72759 17.1101 5.36235 15.4669 5.36235 13.5Z" fill="white"/>
<path d="M8.50605 9.97827L8.72183 10.6509H9.42027L8.85527 11.0666L9.07105 11.7392L8.50605 11.3235L7.94089 11.7392L8.15683 11.0666L7.59167 10.6509H8.29011L8.50605 9.97827ZM8.50605 11.7392L8.72183 12.4118H9.42027L8.85527 12.8274L9.07105 13.5L8.50605 13.0844L7.94089 13.5L8.15683 12.8274L7.59167 12.4118H8.29011L8.50605 11.7392ZM8.50605 13.5L8.72183 14.1726H9.42027L8.85527 14.5883L9.07105 15.2609L8.50605 14.8452L7.94089 15.2609L8.15683 14.5883L7.59167 14.1726H8.29011L8.50605 13.5ZM8.50605 15.2609L8.72183 15.9334H9.42027L8.85527 16.3492L9.07105 17.0218L8.50605 16.6061L7.94089 17.0218L8.15683 16.3492L7.59167 15.9334H8.29011L8.50605 15.2609Z" fill="white"/>
</g>
<defs>
<clipPath id="clip0_6065_1484">
<rect width="40" height="27" fill="white"/>
</clipPath>
</defs>
</svg>
