<svg width="40" height="27" viewBox="0 0 40 27" fill="none" xmlns="http://www.w3.org/2000/svg">
<g clip-path="url(#clip0_6065_1477)">
<path d="M0 0H40V27H0V0Z" fill="#D80027"/>
<path d="M39.922 0H0V27" fill="#6DA544"/>
<path d="M23.9922 0L0 15.3553V27H16.1326L40 11.7237V0H23.9922Z" fill="#FFDA44"/>
<path d="M40 0H30.0351L0 19.6895V27H9.84016L40 7.23158V0Z" fill="black"/>
<path d="M11.002 14.7632L13.4347 16.6579L15.9532 14.9053L14.9318 17.8263L17.3567 19.7132L14.3002 19.6263L13.271 22.5474L12.4055 19.579L9.34894 19.4921L11.8675 17.7395L11.002 14.7632ZM24.2183 5.58948L26.6511 7.47632L29.1696 5.72369L28.1482 8.64474L30.5731 10.5316L27.5166 10.4447L26.4873 13.3658L25.6218 10.3974L22.5653 10.3105L25.0916 8.5579L24.2183 5.58948Z" fill="white"/>
</g>
<defs>
<clipPath id="clip0_6065_1477">
<rect width="40" height="27" fill="white"/>
</clipPath>
</defs>
</svg>
