<svg width="40" height="27" viewBox="0 0 40 27" fill="none" xmlns="http://www.w3.org/2000/svg">
<g clip-path="url(#clip0_6065_1469)">
<path d="M0 -0.000152588H40V27.0002H0V-0.000152588Z" fill="#91DC5A"/>
<path d="M0 -0.000152588H40V27.0002H0V-0.000152588Z" fill="white"/>
<path d="M0 -0.000152588H40V4.52351H0V-0.000152588ZM0 22.4765H40V26.9993H0V22.4765Z" fill="#0052B4"/>
<path d="M0 6.3188H40V20.6822H0V6.3188Z" fill="#D80027"/>
<path d="M14.8696 18.694C17.703 18.694 19.9999 16.3684 19.9999 13.4996C19.9999 10.6307 17.703 8.30511 14.8696 8.30511C12.0362 8.30511 9.73926 10.6307 9.73926 13.4996C9.73926 16.3684 12.0362 18.694 14.8696 18.694Z" fill="white"/>
<path d="M14.8697 8.30559L16.0208 11.8925H19.7518L16.7323 14.1096L17.8923 17.7072L14.8697 15.4797L11.8516 17.703L13.0071 14.1096L9.99023 11.8925H13.7185L14.8697 8.30559Z" fill="#D80027"/>
</g>
<defs>
<clipPath id="clip0_6065_1469">
<rect width="40" height="27" fill="white"/>
</clipPath>
</defs>
</svg>
