<svg width="40" height="27" viewBox="0 0 40 27" fill="none" xmlns="http://www.w3.org/2000/svg">
<g clip-path="url(#clip0_6065_1459)">
<path d="M0 0H40V27H0V0Z" fill="white"/>
<path fill-rule="evenodd" clip-rule="evenodd" d="M6.10699 8.17843L9.80499 2.56209L10.7781 3.21897L7.08015 8.83531L6.10699 8.17843ZM7.49375 9.11449L11.1917 3.49814L12.1649 4.15502L8.4669 9.77137L7.49375 9.11449ZM8.8805 10.0505L12.5785 4.4342L13.5517 5.09108L9.85366 10.7074L8.8805 10.0505ZM26.446 21.9072L30.144 16.2909L31.1172 16.9478L27.4192 22.5641L26.446 21.9072ZM27.8328 22.8433L31.5308 17.2269L32.5039 17.8838L28.8059 23.5002L27.8328 22.8433ZM33.8907 18.8199L30.1927 24.4362L29.2195 23.7793L32.9175 18.163L33.8907 18.8199Z" fill="black"/>
<path fill-rule="evenodd" clip-rule="evenodd" d="M32.2092 22.3342L27.5867 19.214L28.1274 18.3929L32.7499 21.5131L32.2092 22.3342Z" fill="white"/>
<path d="M25.5458 17.2434C27.5881 14.1416 26.7603 9.95068 23.6968 7.88281C20.6333 5.81493 16.4941 6.65311 14.4518 9.75493C12.4094 12.8568 13.2373 17.0476 16.3008 19.1155C19.3643 21.1834 23.5034 20.3452 25.5458 17.2434Z" fill="#CA163A"/>
<path d="M14.4518 9.75493C13.4311 11.305 13.8453 13.4018 15.3763 14.4352C16.9073 15.4686 18.9781 15.0493 19.9988 13.4992C21.0194 11.949 23.0903 11.5297 24.6213 12.5631C26.1523 13.5965 26.5664 15.6933 25.5458 17.2434C23.5045 20.3436 19.3627 21.1823 16.3008 19.1155C13.2388 17.0487 12.4105 12.8552 14.4518 9.75493Z" fill="#0E4896"/>
<path fill-rule="evenodd" clip-rule="evenodd" d="M30.1926 2.56209L33.8906 8.17845L32.9175 8.83533L29.2195 3.21897L30.1926 2.56209ZM28.8059 3.49818L32.5039 9.11449L31.5308 9.77138L27.8327 4.15506L28.8059 3.49818ZM27.4191 4.43422L31.1171 10.0505L30.144 10.7074L26.446 5.09111L27.4191 4.43422ZM9.85358 16.2909L13.5516 21.9073L12.5784 22.5642L8.88042 16.9478L9.85358 16.2909ZM8.46682 17.227L12.1648 22.8433L11.1917 23.5002L7.49366 17.8839L8.46682 17.227ZM7.08015 18.1631L10.7782 23.7794L9.80499 24.4363L6.10699 18.8199L7.08015 18.1631Z" fill="black"/>
<path d="M9.13776 20.8304L10.5245 19.8944L9.13776 20.8304ZM27.857 8.19486L29.4767 7.10154L27.857 8.19486ZM30.8635 6.1655L32.2502 5.22945L30.8635 6.1655Z" fill="black"/>
<path fill-rule="evenodd" clip-rule="evenodd" d="M32.5206 5.64L31.1339 6.57605L30.5932 5.75494L31.98 4.8189L32.5206 5.64ZM29.7471 7.51209L28.1274 8.60541L27.5867 7.78431L29.2065 6.69099L29.7471 7.51209ZM10.7949 20.3049L9.40811 21.2409L8.86749 20.4198L10.2542 19.4838L10.7949 20.3049Z" fill="white"/>
</g>
<defs>
<clipPath id="clip0_6065_1459">
<rect width="40" height="27" fill="white"/>
</clipPath>
</defs>
</svg>
