<svg width="40" height="27" viewBox="0 0 40 27" fill="none" xmlns="http://www.w3.org/2000/svg">
<g clip-path="url(#clip0_6065_1440)">
<path d="M0 7.62939e-05H40V27.0004H0V7.62939e-05Z" fill="#0052B4"/>
<path d="M30 9.9778C31.2807 9.9778 32.3189 8.92661 32.3189 7.62991C32.3189 6.3332 31.2807 5.28201 30 5.28201C28.7193 5.28201 27.6811 6.3332 27.6811 7.62991C27.6811 8.92661 28.7193 9.9778 30 9.9778Z" fill="#6DA544"/>
<path d="M25.9417 7.04353H34.0573V10.5653H25.9417V7.04353Z" fill="#D80027"/>
<path d="M25.942 15.8476V18.1955H27.162C27.8936 18.9213 28.8948 19.3694 30 19.3694C31.1052 19.3694 32.1064 18.9213 32.838 18.1955H34.058V15.8476H25.942Z" fill="#FFDA44"/>
<path d="M25.942 9.97804V13.4998C25.942 16.6448 30 17.6085 30 17.6085C30 17.6085 34.058 16.6449 34.058 13.4998V9.97804H25.942Z" fill="#338AF3"/>
<path d="M29.9998 11.8592C28.9853 11.8592 28.9853 12.7983 27.9709 12.7983C26.9564 12.7983 26.9564 11.8592 25.942 11.8592V13.5027C26.9564 13.5027 26.9564 14.4418 27.9709 14.4418C28.9853 14.4418 28.9853 13.5027 29.9998 13.5027C31.0143 13.5027 31.0143 14.4418 32.0289 14.4418C33.0434 14.4418 33.0434 13.5027 34.058 13.5027V11.8592C33.0435 11.8592 33.0435 12.7983 32.0289 12.7983C31.0144 12.7983 31.0144 11.8592 29.9998 11.8592ZM29.9998 8.56932C28.9853 8.56932 28.9853 9.50849 27.9709 9.50849C26.9564 9.50849 26.9564 8.56932 25.942 8.56932V10.2128C26.9564 10.2128 26.9564 11.152 27.9709 11.152C28.9853 11.152 28.9853 10.2128 29.9998 10.2128C31.0143 10.2128 31.0143 11.152 32.0289 11.152C33.0434 11.152 33.0434 10.2128 34.058 10.2128V8.56932C33.0435 8.56932 33.0435 9.50849 32.0289 9.50849C31.0144 9.50849 31.0144 8.56932 29.9998 8.56932Z" fill="#F3F3F3"/>
<path d="M20 7.62939e-05V1.78912L16.4009 4.21825H20V9.28076H16.4009L20 11.7108V13.4998H18.2322L12.5 9.63023V13.4998H7.5V9.63023L1.76781 13.4998H0V11.7108L3.59914 9.28076H0V4.21825H3.59914L0 1.78912V7.62939e-05H1.76781L7.5 3.8687V7.62939e-05H12.5V3.8687L18.2322 7.62939e-05H20Z" fill="white"/>
<path d="M11.25 -0.000312805H8.75V5.48412H0V8.01537H8.75V13.4998H11.25V8.01537H20V5.48412H11.25V-0.000312805Z" fill="#D80027"/>
<path d="M0 -0.000312805V1.1927L4.48258 4.21849H6.25L0 -0.000312805ZM20 -0.000312805V1.1927L15.5174 4.21849H13.75L20 -0.000312805Z" fill="#D80027"/>
<path d="M0 -0.000312805V1.1927L4.48258 4.21849H6.25L0 -0.000312805ZM20 -0.000312805V1.1927L15.5174 4.21849H13.75L20 -0.000312805ZM0 13.4998V12.3068L4.48258 9.281H6.25L0 13.4998ZM20 13.4998V12.3068L15.5174 9.281H13.75L20 13.4998Z" fill="#D80027"/>
</g>
<defs>
<clipPath id="clip0_6065_1440">
<rect width="40" height="27" fill="white"/>
</clipPath>
</defs>
</svg>
