<svg width="40" height="27" viewBox="0 0 40 27" fill="none" xmlns="http://www.w3.org/2000/svg">
<g clip-path="url(#clip0_6065_1436)">
<path d="M0 0H40V27H0V0Z" fill="#36B6CC"/>
<path d="M20 18.8921C22.9455 18.8921 25.3334 16.4744 25.3334 13.4921C25.3334 10.5098 22.9455 8.0921 20 8.0921C17.0545 8.0921 14.6667 10.5098 14.6667 13.4921C14.6667 16.4744 17.0545 18.8921 20 18.8921Z" fill="#FFD400"/>
<path d="M20 19.8553L17.8246 23.1474L17.2709 19.2237L13.9025 21.2369L15.0877 17.4632L11.1891 17.7948L13.8713 14.9132L10.2144 13.4921L13.8635 12.0711L11.1813 9.1895L15.0799 9.52108L13.8947 5.7474L17.2632 7.75266L17.8168 3.82898L19.9922 7.12108L22.1676 3.82898L22.7212 7.75266L26.0897 5.7474L24.9045 9.52108L28.8031 9.1895L26.1287 12.079L29.7778 13.4921L26.1287 14.9132L28.8109 17.7948L24.9123 17.4632L26.0975 21.2369L22.729 19.2316L22.1754 23.1553C22.1754 23.1474 20 19.8553 20 19.8553ZM20 19.7921C23.4386 19.7921 26.23 16.9658 26.23 13.4842C26.23 10.0027 23.4386 7.18424 20 7.18424C16.5614 7.18424 13.77 10.0106 13.77 13.4921C13.77 16.9737 16.5614 19.7921 20 19.7921ZM1.77777 2.23424C1.77777 1.98161 1.96491 1.78424 2.22222 1.78424H3.10331C3.35282 1.78424 3.54775 1.97371 3.54775 2.23424V3.12635C3.55555 3.37108 3.36062 3.57635 3.1111 3.57635H2.22222C1.9805 3.57635 1.77777 3.37898 1.77777 3.13424V2.23424ZM1.77777 5.84214C1.77777 5.5895 1.96491 5.39214 2.22222 5.39214H3.10331C3.35282 5.39214 3.54775 5.58161 3.54775 5.84214V6.73424C3.55555 6.97898 3.36062 7.18424 3.1111 7.18424H2.22222C1.9805 7.18424 1.77777 6.98687 1.77777 6.74214V5.84214ZM1.77777 9.44214C1.77777 9.1895 1.96491 8.99214 2.22222 8.99214H3.10331C3.35282 8.99214 3.54775 9.18161 3.54775 9.44214V10.3342C3.55555 10.579 3.36062 10.7842 3.1111 10.7842H2.22222C1.9805 10.7842 1.77777 10.5869 1.77777 10.3421V9.44214ZM1.77777 13.0421C1.77777 12.7895 1.96491 12.5921 2.22222 12.5921H3.10331C3.35282 12.5921 3.54775 12.7816 3.54775 13.0421V13.9342C3.55555 14.179 3.36062 14.3842 3.1111 14.3842H2.22222C1.9805 14.3842 1.77777 14.1869 1.77777 13.9421V13.0421ZM1.77777 16.65C1.77777 16.3974 1.96491 16.2 2.22222 16.2H3.10331C3.35282 16.2 3.54775 16.3895 3.54775 16.65V17.5421C3.55555 17.7869 3.36062 17.9921 3.1111 17.9921H2.22222C1.9805 17.9921 1.77777 17.7948 1.77777 17.55V16.65ZM1.77777 20.25C1.77777 19.9974 1.96491 19.8 2.22222 19.8H3.10331C3.35282 19.8 3.54775 19.9895 3.54775 20.25V21.1421C3.55555 21.3869 3.36062 21.5921 3.1111 21.5921H2.22222C1.9805 21.5921 1.77777 21.3948 1.77777 21.15V20.25ZM1.77777 23.85C1.77777 23.5974 1.96491 23.4 2.22222 23.4H3.10331C3.35282 23.4 3.54775 23.5895 3.54775 23.85V24.7421C3.55555 24.9869 3.36062 25.1921 3.1111 25.1921H2.22222C1.9805 25.1921 1.77777 24.9948 1.77777 24.75V23.85ZM3.55555 22.05C3.55555 21.7974 3.74268 21.6 3.99999 21.6H4.88108C5.1306 21.6 5.32553 21.7895 5.32553 22.05V22.9421C5.33333 23.1869 5.13839 23.3921 4.88888 23.3921H3.99999C3.75828 23.3921 3.55555 23.1948 3.55555 22.95V22.05ZM3.55555 18.45C3.55555 18.1974 3.74268 18 3.99999 18H4.88108C5.1306 18 5.32553 18.1895 5.32553 18.45V19.3421C5.33333 19.5869 5.13839 19.7921 4.88888 19.7921H3.99999C3.75828 19.7921 3.55555 19.5948 3.55555 19.35V18.45ZM3.55555 14.8421C3.55555 14.5895 3.74268 14.3921 3.99999 14.3921H4.88108C5.1306 14.3921 5.32553 14.5816 5.32553 14.8421V15.7342C5.33333 15.979 5.13839 16.1842 4.88888 16.1842H3.99999C3.75828 16.1842 3.55555 15.9869 3.55555 15.7421V14.8421ZM3.55555 11.2421C3.55555 10.9895 3.74268 10.7921 3.99999 10.7921H4.88108C5.1306 10.7921 5.32553 10.9816 5.32553 11.2421V12.1342C5.33333 12.379 5.13839 12.5842 4.88888 12.5842H3.99999C3.75828 12.5842 3.55555 12.3869 3.55555 12.1421V11.2421ZM3.55555 7.64214C3.55555 7.3895 3.74268 7.19214 3.99999 7.19214H4.88108C5.1306 7.19214 5.32553 7.38161 5.32553 7.64214V8.53424C5.33333 8.77898 5.13839 8.98424 4.88888 8.98424H3.99999C3.75828 8.98424 3.55555 8.78687 3.55555 8.54214V7.64214ZM3.55555 4.04214C3.55555 3.7895 3.74268 3.59214 3.99999 3.59214H4.88108C5.1306 3.59214 5.32553 3.78161 5.32553 4.04214V4.93424C5.33333 5.17898 5.13839 5.38424 4.88888 5.38424H3.99999C3.75828 5.38424 3.55555 5.18687 3.55555 4.94214V4.04214Z" fill="#FFD400"/>
</g>
<defs>
<clipPath id="clip0_6065_1436">
<rect width="40" height="27" fill="white"/>
</clipPath>
</defs>
</svg>
