<svg width="40" height="27" viewBox="0 0 40 27" fill="none" xmlns="http://www.w3.org/2000/svg">
<g clip-path="url(#clip0_6065_1425)">
<path d="M0 0H40V27H0V0Z" fill="white"/>
<path d="M0 0.0157471H40V7.17627H0V0.0157471ZM0.0389864 19.8394H40V27H0.0389864V19.8394Z" fill="#D80027"/>
<path d="M22.6355 15.2763L19.961 10.3184L17.2866 15.2763H19.2905V16.6341H20.6316V15.2763H22.6355Z" fill="#6DA544"/>
<path d="M18.8148 16.8237C19.1579 16.4763 19.1579 15.9079 18.807 15.5605L19.1735 15.9315C18.768 15.5605 18.2222 15.4105 17.6842 15.5131L15.8519 15.9789C15.3762 16.0973 15.3216 15.9473 15.7115 15.6473L17.8246 14.0447C18.2222 13.7447 18.152 13.5 17.6452 13.5H16.7875C16.2885 13.5 16.2417 13.3184 16.6706 13.0973L18.6433 12.0947C19.0799 11.8736 19.0409 11.6921 18.5263 11.6921H17.6686C17.1696 11.6921 17.0916 11.4473 17.4893 11.1473L19.6023 9.5447C20.039 9.2447 20.6082 9.2447 21.0448 9.5447L23.1579 11.1473C23.5556 11.4473 23.4854 11.6921 22.9786 11.6921H22.1209C21.6218 11.6921 21.575 11.8736 22.0039 12.0947L23.9766 13.0973C24.4133 13.3184 24.3743 13.5 23.8596 13.5H23.0019C22.5029 13.5 22.425 13.7447 22.8226 14.0447L24.9357 15.6473C25.3333 15.9473 25.2788 16.0973 24.7953 15.9789L22.963 15.5131C22.4327 15.4105 21.8791 15.5605 21.4737 15.9315L21.8402 15.5605C21.4971 15.9079 21.4893 16.4684 21.8324 16.8237L22.3626 17.3605C22.7057 17.7079 22.6043 17.9921 22.1053 17.9921H18.5341C18.0507 17.9921 17.9337 17.7079 18.2768 17.3605C18.2846 17.3684 18.8148 16.8237 18.8148 16.8237Z" fill="#14AF5A"/>
</g>
<defs>
<clipPath id="clip0_6065_1425">
<rect width="40" height="27" fill="white"/>
</clipPath>
</defs>
</svg>
