<svg width="40" height="27" viewBox="0 0 40 27" fill="none" xmlns="http://www.w3.org/2000/svg">
<g clip-path="url(#clip0_6065_1416)">
<path d="M0 0H40V27H0V0Z" fill="#D80027"/>
<path d="M0 0H40V13.5H0V0Z" fill="#0052B4"/>
<path d="M11.6413 7.74474C11.6413 6.63947 10.7602 5.74737 9.66862 5.74737C9.16179 5.74737 8.70176 5.93684 8.35088 6.25263V5.08421H9.00585V3.75H8.35088V3.08684H7.04094V3.75H6.38597V5.08421H7.04094V6.26053C6.69006 5.94474 6.23002 5.75526 5.7232 5.75526C4.63158 5.75526 3.75049 6.64737 3.75049 7.75263C3.75049 8.34474 4.0078 8.87368 4.40546 9.23684V10.4132H10.9786V9.23684C11.3918 8.86579 11.6413 8.32895 11.6413 7.74474Z" fill="#FFDA44"/>
</g>
<defs>
<clipPath id="clip0_6065_1416">
<rect width="40" height="27" fill="white"/>
</clipPath>
</defs>
</svg>
