<svg width="40" height="27" viewBox="0 0 40 27" fill="none" xmlns="http://www.w3.org/2000/svg">
<g clip-path="url(#clip0_6065_1407)">
<path d="M0 0H40V27H0V0Z" fill="#FFDA44"/>
<path d="M17.3567 1.76053H38.1832V25.1921H17.3567V1.76053Z" fill="#A2001D"/>
<path d="M1.73877 1.76053H17.3567V25.1921H1.73877V1.76053Z" fill="#D80027"/>
<path d="M15.6179 0H17.3567V27H15.6179V0Z" fill="#FFDA44"/>
<path d="M1.73877 1.76053H8.67834V25.1921H1.73877V1.76053Z" fill="#6DA544"/>
<path d="M8.67834 1.76053H15.6179V25.1921H8.67834V1.76053Z" fill="#FF9811"/>
<path d="M28.7095 12.3789C28.6004 12.2211 28.7095 9.38684 28.7095 9.38684C28.7797 8.80263 28.7173 8.72368 28.7875 8.48684C28.8577 8.25789 29.2085 7.57105 29.2085 7.57105C29.2085 7.57105 28.7407 7.38947 28.4054 7.52368C28.0701 7.6579 26.4795 6.93158 25.9727 7.79211C25.6296 8.34474 24.1325 9.07105 24.0545 8.89737C23.9766 8.72368 23.5945 8.50263 23.5165 8.66842C23.4386 8.83421 23.462 9.76579 23.5165 9.93158C23.5789 10.1368 24.2807 10.0895 24.4756 10.1763C24.7641 10.3184 25.4269 10.8237 25.4035 11.0211C25.3801 11.2184 23.6491 10.5474 23.5165 10.6658C23.4074 10.7605 23.3684 11.7079 23.4853 11.85C23.6257 12.0158 25.3099 12.2921 25.4347 12.4421C25.5594 12.5921 24.4132 13.0263 24.4756 14.4158C24.5302 15.5763 25.0994 15.7895 25.0994 15.7895C25.0994 15.7895 24.9122 16.0737 24.4912 16.0342C24.0078 15.9868 22.3547 14.6368 22.3547 14.6368C22.3547 14.6368 22.0818 6.03158 22.6354 5.05263C23.0175 4.38158 20.8655 5.85 20.8655 9.06316V11.9211C20.8655 12.4421 20.7563 13.6895 21.0682 14.6053C21.0682 14.6053 21.037 18.3079 21.1852 18.5211C21.3333 18.7342 22.1754 18.6947 22.3391 18.5211C22.5029 18.3474 22.3391 16.1526 22.3391 16.1526C22.9395 16.1684 23.766 17.5342 24.8733 17.4474C26.4795 17.3211 27.1111 16.6658 27.5477 17.0526C28.1793 17.6132 27.9766 18.8842 27.5789 19.5395C27.4074 19.8158 26.4639 19.9105 26.3547 20.1395C26.2456 20.3684 26.3937 20.5658 26.3937 20.5658H28.7095C28.7095 20.5658 28.8187 18.9474 28.92 18.5053C29.0214 18.0553 28.8733 17.6605 29.3801 17.6842C31.2124 17.7711 32.4834 16.4763 32.9278 17.0526C33.1774 17.3763 33.3645 19.4132 33.1852 19.6816C33.0136 19.95 32.1091 19.9026 32 20.2105C31.8908 20.5263 32.0623 20.5579 32.0623 20.5579H34.3781C34.3781 20.5579 34.3469 18.8842 34.5731 18.3711C34.7992 17.8579 34.9551 17.55 35.2982 17.0132C35.6413 16.4763 36.1793 15.7737 36.1793 14.1553C36.1793 13.0342 35.5477 12.3553 35.5477 12.3553H32.5146C31.4152 12.3711 28.8187 12.5368 28.7095 12.3789ZM18.1052 2.55C18.9395 1.71316 19.6803 2.33684 19.8362 2.71579C19.9844 3.09474 20 3.36316 20.0545 3.78947C20.1247 4.33421 20.4366 4.89474 20.4366 4.89474C20.4366 4.89474 19.883 4.59474 19.2904 4.56316C18.9239 4.53947 18.5887 4.51579 18.23 4.36579C17.7855 4.18421 17.3177 3.34737 18.1052 2.55ZM37.4737 2.54211C38.308 3.37895 37.692 4.13684 37.3177 4.29474C36.9434 4.45263 36.6783 4.46053 36.2573 4.51579C35.7193 4.58684 35.1657 4.91053 35.1657 4.91053C35.1657 4.91053 35.4542 4.35 35.4931 3.75C35.5165 3.37895 35.5399 3.03158 35.6803 2.67632C35.8518 2.22632 36.6783 1.74474 37.4737 2.54211ZM37.4814 24.4026C36.6471 25.2395 35.9064 24.6079 35.7505 24.2289C35.6023 23.85 35.5867 23.5816 35.5399 23.1553C35.4775 22.6105 35.1579 22.0421 35.1579 22.0421C35.1579 22.0421 35.7037 22.3421 36.3041 22.3816C36.6705 22.4053 37.0058 22.4289 37.3645 22.5789C37.8089 22.7684 38.2768 23.6132 37.4814 24.4026ZM18.1286 24.3947C17.3021 23.55 17.9181 22.8 18.2924 22.6421C18.6666 22.4921 18.9317 22.4763 19.3528 22.4211C19.8908 22.35 20.4444 22.0342 20.4444 22.0342C20.4444 22.0342 20.1481 22.5947 20.1169 23.1947C20.0935 23.5658 20.0701 23.9053 19.922 24.2684C19.7427 24.7184 18.9161 25.2 18.1286 24.3947Z" fill="#FFDA44"/>
<path fill-rule="evenodd" clip-rule="evenodd" d="M30.3345 8.71263C30.1671 8.85822 30.0429 9.09321 30.0429 9.48948C30.0429 9.82978 30.2477 10.1363 30.6566 10.3274C31.0688 10.5201 31.676 10.5842 32.4068 10.4115C33.1975 10.2239 34.0123 10.2834 34.6304 10.4825C34.9388 10.5819 35.2114 10.7202 35.4088 10.8923C35.6042 11.0627 35.7531 11.2927 35.7344 11.5661C35.6963 12.144 35.5162 12.5114 35.3254 12.7386C35.2311 12.8509 35.1374 12.9251 35.0638 12.9724C35.027 12.996 34.9953 13.0128 34.971 13.0244C34.9589 13.0302 34.9486 13.0347 34.9404 13.038C34.9364 13.0397 34.9328 13.0411 34.9298 13.0422C34.9283 13.0428 34.927 13.0433 34.9258 13.0437L34.9241 13.0443L34.9234 13.0446L34.923 13.0447C34.9228 13.0448 34.9226 13.0448 34.846 12.8211C34.7694 12.5973 34.7692 12.5973 34.7691 12.5974L34.7688 12.5975L34.7682 12.5977L34.7671 12.5981L34.7656 12.5987C34.7648 12.599 34.7646 12.5991 34.7648 12.599C34.7652 12.5988 34.7676 12.5978 34.7716 12.5959C34.7796 12.5921 34.7941 12.5846 34.8132 12.5723C34.8514 12.5478 34.9083 12.5041 34.969 12.4318C35.0881 12.2899 35.2355 12.0219 35.2676 11.5342L35.2676 11.5335C35.2722 11.4676 35.2399 11.3702 35.1035 11.2512C34.9689 11.1339 34.7591 11.0211 34.4886 10.9339C33.9488 10.76 33.2198 10.7051 32.5134 10.8727L32.5133 10.8727C31.708 11.0631 30.9897 11.0049 30.4605 10.7575C29.9278 10.5085 29.5751 10.0571 29.5751 9.48948C29.5751 8.98179 29.7403 8.60495 30.0296 8.35333C30.3107 8.10883 30.6792 8.00865 31.0409 7.98409C31.7593 7.93531 32.5608 8.17729 32.9521 8.38833L32.953 8.38884L32.953 8.38884C33.1128 8.47596 33.3129 8.61273 33.5202 8.75449C33.56 8.78173 33.6002 8.80914 33.6403 8.83643C33.8972 9.01107 34.1668 9.18852 34.4238 9.31931C34.6874 9.4535 34.9035 9.52018 35.0601 9.51108C35.1322 9.50689 35.1857 9.48695 35.2284 9.45423C35.2719 9.42088 35.3199 9.36212 35.3605 9.25477L35.7974 9.42418C35.7328 9.59512 35.6385 9.73398 35.5108 9.83188C35.3823 9.9304 35.2356 9.97535 35.0869 9.98399C34.8018 10.0005 34.4929 9.88466 34.2137 9.74253C33.9278 9.59701 33.6365 9.40439 33.3795 9.22969C33.3358 9.2 33.2934 9.17101 33.2522 9.1429C33.0441 9.00072 32.8688 8.88097 32.7317 8.80617C32.4055 8.6304 31.6908 8.41471 31.0722 8.45671C30.7653 8.47754 30.51 8.55993 30.3345 8.71263Z" fill="#FFDA44"/>
</g>
<defs>
<clipPath id="clip0_6065_1407">
<rect width="40" height="27" fill="white"/>
</clipPath>
</defs>
</svg>
