<svg width="40" height="27" viewBox="0 0 40 27" fill="none" xmlns="http://www.w3.org/2000/svg">
<g clip-path="url(#clip0_6065_1402)">
<path d="M0 0H39.922V2.45526H0V0ZM0 4.91053H39.922V7.36579H0V4.91053ZM0 9.82895H39.922V12.2842H0V9.82895ZM0 14.7474H39.922V17.2026H0V14.7474ZM0 19.6816H39.922V22.1368H0V19.6816ZM0 24.5447H39.922V27H0V24.5447Z" fill="#BF0A30"/>
<path d="M0 0H12.1326V12.2842H0V0Z" fill="#002868"/>
<path d="M6.06622 2.38422L6.90053 4.98158H9.59838L7.41515 6.59211L8.24946 9.18948L6.06622 7.58685L3.88299 9.18948L4.71729 6.59211L2.53406 4.98158H5.23191L6.06622 2.38422Z" fill="white"/>
</g>
<defs>
<clipPath id="clip0_6065_1402">
<rect width="40" height="27" fill="white"/>
</clipPath>
</defs>
</svg>
