<svg width="40" height="27" viewBox="0 0 40 27" fill="none" xmlns="http://www.w3.org/2000/svg">
<g clip-path="url(#clip0_6065_1396)">
<path d="M0 0H40V27H0V0Z" fill="white"/>
<path d="M0 0H40V9H0V0Z" fill="#0052B4"/>
<path d="M0 17.9684H40V26.9684H0V17.9684Z" fill="#6DA544"/>
<path d="M19.1189 13.5L19.7193 11.6763C19.8752 11.2105 20.117 11.2026 20.2729 11.6763L20.8733 13.5L22.386 15.7974C22.5185 16.0026 22.4873 16.2947 22.2924 16.4289C22.2924 16.4289 21.7544 17.0605 19.9922 17.0605C18.23 17.0605 17.692 16.4289 17.692 16.4289C17.5049 16.2711 17.4659 16.0026 17.5984 15.7974L19.1189 13.5Z" fill="black"/>
<path d="M20 13.5C19.0253 13.5 18.2378 12.7026 18.2378 11.7158C18.2378 10.7289 19.0253 9.93158 20 9.93158C20.9747 9.93158 21.7622 10.7289 21.7622 11.7158C21.7622 12.7026 20.9669 13.5 20 13.5ZM20 13.5C20.4834 13.5 20.8811 12.2132 20.8811 11.7158C20.8811 11.2263 20.4834 10.8237 20 10.8237C19.5166 10.8237 19.1189 11.2263 19.1189 11.7158C19.1189 12.2132 19.5088 13.5 20 13.5Z" fill="black"/>
</g>
<defs>
<clipPath id="clip0_6065_1396">
<rect width="40" height="27" fill="white"/>
</clipPath>
</defs>
</svg>
