<svg width="40" height="27" viewBox="0 0 40 27" fill="none" xmlns="http://www.w3.org/2000/svg">
<g clip-path="url(#clip0_6065_1377)">
<path d="M0 0.000305176H40V26.9997H0V0.000305176Z" fill="black"/>
<path d="M0 0.000305176H40V9.00009H0V0.000305176Z" fill="#D80027"/>
<path d="M0 18H40V26.9998H0V18Z" fill="#496E2D"/>
<path d="M21.9863 11.92L22.6864 12.8969L23.8202 12.5247L23.1191 13.5007L23.8191 14.4776L22.6856 14.1039L21.9844 15.08L21.9852 13.8731L20.8516 13.4993L21.9855 13.1271L21.9863 11.92Z" fill="white"/>
<path d="M20.0754 15.9417C18.7435 15.9417 17.6638 14.8485 17.6638 13.5C17.6638 12.1516 18.7436 11.0583 20.0754 11.0583C20.476 11.0577 20.8704 11.1586 21.2226 11.3518C20.6874 10.822 19.9556 10.4949 19.1479 10.4949C17.5087 10.4949 16.1798 11.8404 16.1798 13.5001C16.1798 15.1598 17.5087 16.5053 19.1479 16.5053C19.9556 16.5053 20.6874 16.1782 21.2226 15.6484C20.8703 15.8415 20.476 15.9424 20.0754 15.9417Z" fill="white"/>
</g>
<defs>
<clipPath id="clip0_6065_1377">
<rect width="40" height="27" fill="white"/>
</clipPath>
</defs>
</svg>
