<svg width="40" height="27" viewBox="0 0 40 27" fill="none" xmlns="http://www.w3.org/2000/svg">
<g clip-path="url(#clip0_6065_1374)">
<path d="M0 0.000305176V26.9997H40V0.000305176H0Z" fill="#D80027"/>
<path d="M27.5 11.1653H21.7705L20 5.64825L18.2295 11.1654H12.5L17.1352 14.5753L15.3647 20.0925L20 16.6825L24.6353 20.0923L22.8648 14.575L27.5 11.1653ZM18.4326 14.1483L19.0313 12.2827H20.9687L21.5674 14.1483V14.1484L20 15.3013L18.4326 14.1483ZM20.6102 11.1653H19.3899L20 9.26391L20.6102 11.1653ZM22.5062 13.4578L22.1291 12.2827H24.1036L22.5062 13.4578ZM17.8709 12.2827L17.4938 13.4578L15.8964 12.2827H17.8709ZM17.4638 17.167L18.074 15.2657L19.0612 15.992L17.4638 17.167ZM20.9387 15.9919L21.9259 15.2657L22.5361 17.167L20.9387 15.9919Z" fill="#20661B"/>
</g>
<defs>
<clipPath id="clip0_6065_1374">
<rect width="40" height="27" fill="white"/>
</clipPath>
</defs>
</svg>
