<svg width="40" height="27" viewBox="0 0 40 27" fill="none" xmlns="http://www.w3.org/2000/svg">
<g clip-path="url(#clip0_6065_1361)">
<path d="M0 0H40V27H0V0Z" fill="#E6BE53"/>
<path d="M1.55945 1.57892H38.4405V25.421H1.55945V1.57892Z" fill="#E01D24"/>
<path d="M19.3762 8.91315C19.7193 9.26052 20.2807 9.26052 20.6238 8.91315L20.2573 9.28421L22.0273 7.4921C22.4093 7.13684 22.9707 7.05 23.4464 7.27105L23.6101 7.35C24.0546 7.57894 24.1325 8.03684 23.7895 8.38421L24.1559 8.01315L22.3782 9.81315C22.0273 10.2 21.9415 10.7684 22.1598 11.25L22.2378 11.4158C22.4639 11.8658 22.6355 12.6316 22.6355 13.121V12.2289C22.6355 12.7184 22.9785 12.9474 23.4308 12.7184L23.5945 12.6395C24.039 12.4105 24.1169 11.9526 23.7739 11.6053L24.1403 11.9763C23.7973 11.6289 23.7973 11.0605 24.1403 10.7132L23.7739 11.0842C24.1793 10.65 24.5224 10.1684 24.7953 9.64736L24.8733 9.48158C25.0994 9.03158 25.3645 8.28947 25.4893 7.80789L25.9415 5.96842C26.0585 5.49473 26.4015 5.43158 26.69 5.82631L28.2651 7.95C28.5614 8.35263 28.8031 9.05526 28.8031 9.57631V11.3447C28.8031 11.8421 28.6316 12.5921 28.4054 13.0579L28.3275 13.2237C28.0546 13.7447 27.7115 14.2263 27.306 14.6605L26.7758 15.1974C26.3548 15.6079 25.8791 15.9553 25.3567 16.2316L25.193 16.3105C24.7485 16.5395 23.9844 16.7132 23.5088 16.7132C23.0253 16.7132 22.9707 16.8868 23.423 17.1158L23.5867 17.1947C24.0312 17.4237 24.6628 17.8816 25.0058 18.2289L24.6394 17.8579C24.9824 18.2053 25.5438 18.2053 25.8869 17.8579L25.5205 18.2289C25.8635 17.8816 26.4249 17.8816 26.768 18.2289L26.4327 17.8421C26.7914 18.2289 26.8772 18.7974 26.6589 19.2789L26.5809 19.4447C26.3548 19.8947 25.77 20.25 25.3021 20.25C24.7173 20.2263 24.1481 20.0921 23.6179 19.8474L23.4542 19.7684C22.9474 19.4842 22.5341 19.0658 22.2534 18.5526L22.1754 18.3868C21.9493 17.9368 21.4971 17.8579 21.154 18.2053L21.5205 17.8342C21.1774 18.2053 21.115 18.7658 21.3801 19.2L22.1832 20.4158C22.4483 20.8184 22.3392 21.371 21.9415 21.6395L20.7407 22.4526C20.2963 22.721 19.7427 22.721 19.2904 22.4526L18.0897 21.6395C17.692 21.371 17.5828 20.8263 17.8479 20.4158L18.6511 19.2C18.9162 18.7658 18.8538 18.2053 18.5107 17.8342L18.8772 18.2053C18.5341 17.8579 18.0819 17.921 17.8557 18.3868L17.7778 18.5526C17.5516 19.0026 17.037 19.5316 16.577 19.7684L16.4132 19.8474C15.9688 20.0763 15.2047 20.25 14.729 20.25C14.191 20.2263 13.7076 19.9184 13.4503 19.4447L13.3723 19.2789C13.154 18.7974 13.2476 18.2289 13.5984 17.8421L13.232 18.2132C13.575 17.8658 14.1364 17.8658 14.4795 18.2132L14.113 17.8421C14.4561 18.1895 15.0175 18.1895 15.3606 17.8421L14.9941 18.2132C15.423 17.8026 15.8986 17.4553 16.4132 17.1789L16.577 17.1C17.0214 16.871 16.9668 16.6974 16.4912 16.6974C15.9064 16.6737 15.3372 16.5395 14.807 16.2947L14.6433 16.2158C14.1286 15.9395 13.653 15.5921 13.2242 15.1816L12.6939 14.6447C12.2885 14.2184 11.9454 13.7368 11.6725 13.2079L11.5945 13.0421C11.3528 12.5053 11.2125 11.921 11.1969 11.3289V9.55263C11.1969 9.05526 11.4386 8.32105 11.7349 7.92631L13.3099 5.80263C13.6062 5.4 13.9415 5.46315 14.0585 5.94473L14.5107 7.78421C14.6667 8.36052 14.8694 8.92105 15.1267 9.45789L15.2047 9.62368C15.4308 10.0737 15.883 10.7132 16.2261 11.0605L15.8596 10.6895C16.2027 11.0368 16.2027 11.6053 15.8596 11.9526L16.2261 11.5816C15.883 11.9289 15.9454 12.3868 16.4054 12.6158L16.5692 12.6947C17.0136 12.9237 17.3645 12.6947 17.3645 12.2053V13.0974C17.3645 12.6079 17.536 11.8579 17.7622 11.3921L17.8401 11.2263C18.0585 10.7447 17.9727 10.1842 17.6218 9.78947L15.8518 7.99737L16.2183 8.36842C15.8752 8.02105 15.9376 7.56315 16.3976 7.33421L16.5614 7.25526C17.037 7.03421 17.5906 7.12105 17.9805 7.47631L19.7505 9.26842L19.3762 8.91315ZM17.9727 5.7C17.6296 5.35263 17.7232 4.95 18.191 4.7921L19.1579 4.46052C19.6257 4.30263 20.3665 4.30263 20.8343 4.46052L21.8012 4.7921C22.269 4.95 22.3626 5.35263 22.0195 5.7L21.4893 6.23684C21.076 6.60789 20.5458 6.82894 19.9922 6.86052C19.5088 6.86052 18.8382 6.58421 18.4951 6.23684C18.5029 6.23684 17.9727 5.7 17.9727 5.7Z" fill="#E6BE53"/>
<path d="M18.2378 15.8053C18.2378 16.2947 18.3704 16.3105 18.5653 15.8447C18.5653 15.8447 19.1189 14.0132 20 14.0132C20.8811 14.0132 21.4503 15.8763 21.4503 15.8763C21.6218 16.3263 21.7622 16.2947 21.7622 15.7895V14.9053C21.7622 13.4289 20.9747 12.2289 20 12.2289C19.0253 12.2289 18.2378 13.4289 18.2378 14.9053V15.8053Z" fill="#215F90"/>
</g>
<defs>
<clipPath id="clip0_6065_1361">
<rect width="40" height="27" fill="white"/>
</clipPath>
</defs>
</svg>
