<svg width="40" height="27" viewBox="0 0 40 27" fill="none" xmlns="http://www.w3.org/2000/svg">
<g clip-path="url(#clip0_6065_1346)">
<path d="M0 0H40V27H0V0Z" fill="#1E509C"/>
<path d="M40 13.9027V6.41846L0 27L40 13.9027Z" fill="white"/>
<path d="M40 0V6.41842L0 27L40 0Z" fill="#F18D36"/>
<path d="M9.87912 7.83953L9.27093 3.56848L8.67054 7.83953L7.04871 5.96848L7.88301 8.46322L5.42687 7.61848L7.26703 9.26059L3.04871 9.86848L7.26703 10.4764L5.42687 12.1185L7.88301 11.2737L7.04871 13.7685L8.67054 11.8974L9.27093 16.1685L9.87912 11.8974L11.4931 13.7685L10.6666 11.2737L13.1228 12.1185L11.2826 10.4764L15.4932 9.86848L11.2826 9.26059L13.1228 7.61848L10.6666 8.46322L11.4931 5.96848L9.87912 7.83953Z" fill="white"/>
</g>
<defs>
<clipPath id="clip0_6065_1346">
<rect width="40" height="27" fill="white"/>
</clipPath>
</defs>
</svg>
