<svg width="40" height="27" viewBox="0 0 40 27" fill="none" xmlns="http://www.w3.org/2000/svg">
<g clip-path="url(#clip0_6065_1340)">
<path d="M0 0H40V27.0003H0V0Z" fill="#FFDA44"/>
<path d="M29.9902 26.9997L20 13.2062L22.0959 26.9997H29.9902ZM10.4348 -0.000244141L20 13.2062L17.9933 -0.000244141H10.4348ZM17.904 26.9997L20 13.2062L10.0097 26.9997H17.904ZM0 -0.000244141V10.0908L20 13.2062L2.21352 -0.000244141H0ZM0 26.9997H1.42281L20 13.2062L0 16.3216V26.9997ZM20 13.2062L40 10.0908V-0.000244141H37.7866L20 13.2062ZM22.0067 -0.000244141L20 13.2062L29.5652 -0.000244141H22.0067ZM40 26.9997V16.3217L20 13.2062L38.5771 26.9997H40Z" fill="#D80027"/>
<path d="M20 17.902C22.5611 17.902 24.6374 15.7998 24.6374 13.2066C24.6374 10.6134 22.5611 8.51117 20 8.51117C17.4388 8.51117 15.3625 10.6134 15.3625 13.2066C15.3625 15.7998 17.4388 17.902 20 17.902Z" fill="#D80027"/>
<path d="M20 16.7283C21.921 16.7283 23.4783 15.1516 23.4783 13.2066C23.4783 11.2616 21.921 9.68481 20 9.68481C18.079 9.68481 16.5217 11.2616 16.5217 13.2066C16.5217 15.1516 18.079 16.7283 20 16.7283Z" fill="#FFDA44"/>
</g>
<defs>
<clipPath id="clip0_6065_1340">
<rect width="40" height="27" fill="white"/>
</clipPath>
</defs>
</svg>
