<svg width="40" height="27" viewBox="0 0 40 27" fill="none" xmlns="http://www.w3.org/2000/svg">
<g clip-path="url(#clip0_6065_1321)">
<path d="M0 0H40V27H0V0Z" fill="#095FAD"/>
<path d="M26.6667 0H40V27H26.6667V0ZM0 0H13.3333V27H0V0Z" fill="#BE1229"/>
<path d="M8.44445 13.1289H9.59844V18.9868H8.44445V13.1289ZM3.81287 13.1289H4.96686V18.9868H3.81287V13.1289Z" fill="#FFDA44"/>
<path d="M6.70563 17.2263C7.34297 17.2263 7.85963 16.7032 7.85963 16.0579C7.85963 15.4126 7.34297 14.8895 6.70563 14.8895C6.0683 14.8895 5.55164 15.4126 5.55164 16.0579C5.55164 16.7032 6.0683 17.2263 6.70563 17.2263Z" fill="#FFDA44"/>
<path d="M5.55164 17.8184H7.86743V18.9868H5.55164V17.8184ZM5.55164 13.1289H7.86743V14.2974H5.55164V13.1289Z" fill="#FFDA44"/>
<path d="M6.70563 12.5368C7.34297 12.5368 7.85963 12.0137 7.85963 11.3684C7.85963 10.7231 7.34297 10.2 6.70563 10.2C6.0683 10.2 5.55164 10.7231 5.55164 11.3684C5.55164 12.0137 6.0683 12.5368 6.70563 12.5368Z" fill="#FFDA44"/>
<path d="M5.94934 9.78157H7.46981L6.70568 8.54999L5.94934 9.78157Z" fill="#FFDA44"/>
</g>
<defs>
<clipPath id="clip0_6065_1321">
<rect width="40" height="27" fill="white"/>
</clipPath>
</defs>
</svg>
