<svg width="40" height="27" viewBox="0 0 40 27" fill="none" xmlns="http://www.w3.org/2000/svg">
<g clip-path="url(#clip0_6065_1314)">
<path d="M0 -0.000160217H40V27.0002H0V-0.000160217Z" fill="#00745A"/>
<path d="M22.319 12.9367C21.9916 12.9367 21.681 13.0028 21.3923 13.1079C21.5504 12.7512 21.6563 12.3543 21.6563 11.9304C21.6563 10.2534 20 8.99567 20 8.99567C20 8.99567 18.3436 10.2535 18.3436 11.9304C18.3436 12.3542 18.4496 12.7511 18.6076 13.1079C18.3191 13.0028 18.0083 12.9367 17.681 12.9367C16.0247 12.9367 14.7825 14.6137 14.7825 14.6137C14.7825 14.6137 16.0247 16.2907 17.681 16.2907C18.652 16.2907 19.4803 15.7144 19.9999 15.2375C20.5194 15.7145 21.3476 16.2907 22.3188 16.2907C23.9751 16.2907 25.2173 14.6137 25.2173 14.6137C25.2173 14.6137 23.9752 12.9367 22.319 12.9367Z" fill="white"/>
<path d="M20 5.28225L20.3422 6.34822H21.4493L20.5537 7.0073L20.8956 8.07327L20 7.41436L19.1045 8.07327L19.4464 7.0073L18.5507 6.34822H19.6579L20 5.28225ZM15.79 7.14683L16.4482 7.74682L17.2153 7.29855L16.8551 8.11765L17.5132 8.71787L16.6324 8.62414L16.2721 9.44323L16.0879 8.56615L15.2071 8.47242L15.9741 8.02399L15.79 7.14683ZM12.708 10.2673L13.5744 10.4538L14.0172 9.67722L14.1099 10.569L14.9762 10.7555L14.1671 11.1202L14.2597 12.012L13.667 11.3457L12.8579 11.7104L13.3007 10.9337L12.708 10.2673ZM24.2101 7.14683L23.5519 7.74682L22.7849 7.29855L23.1451 8.11765L22.4869 8.71787L23.3678 8.62414L23.7279 9.44323L23.9122 8.56615L24.7931 8.47242L24.0261 8.02399L24.2101 7.14683ZM27.2921 10.2673L26.4257 10.4538L25.9829 9.67722L25.8902 10.569L25.0239 10.7555L25.8331 11.1202L25.7405 12.012L26.3332 11.3457L27.1423 11.7104L26.6994 10.9337L27.2921 10.2673Z" fill="#FFDA44"/>
<path d="M20 20.9864C21.3156 20.9864 22.5283 20.5419 23.5012 19.7941H16.4989C17.4716 20.5419 18.6843 20.9864 20 20.9864ZM14.6857 17.4646C14.8689 17.8883 15.101 18.2885 15.3771 18.6569H24.6228C24.8989 18.2885 25.131 17.8883 25.3142 17.4646H14.6857Z" fill="white"/>
</g>
<defs>
<clipPath id="clip0_6065_1314">
<rect width="40" height="27" fill="white"/>
</clipPath>
</defs>
</svg>
