<svg width="40" height="27" viewBox="0 0 40 27" fill="none" xmlns="http://www.w3.org/2000/svg">
<g clip-path="url(#clip0_6065_1302)">
<path d="M0 0H40V27H0V0Z" fill="#0071BC"/>
<path d="M20 25.38C26.6274 25.38 32 19.9403 32 13.23C32 6.51974 26.6274 1.08 20 1.08C13.3726 1.08 8 6.51974 8 13.23C8 19.9403 13.3726 25.38 20 25.38Z" fill="white"/>
<path fill-rule="evenodd" clip-rule="evenodd" d="M20 1.155C13.4135 1.155 8.07405 6.56116 8.07405 13.23C8.07405 19.8988 13.4135 25.305 20 25.305C26.5865 25.305 31.9259 19.8988 31.9259 13.23C31.9259 6.56116 26.5865 1.155 20 1.155ZM7.9259 13.23C7.9259 6.47832 13.3316 1.005 20 1.005C26.6683 1.005 32.0741 6.47832 32.0741 13.23C32.0741 19.9817 26.6683 25.455 20 25.455C13.3316 25.455 7.9259 19.9817 7.9259 13.23Z" fill="black"/>
<path d="M20 22.14C24.8601 22.14 28.8 18.1509 28.8 13.23C28.8 8.30914 24.8601 4.32 20 4.32C15.1398 4.32 11.2 8.30914 11.2 13.23C11.2 18.1509 15.1398 22.14 20 22.14Z" fill="#0071BC"/>
<path fill-rule="evenodd" clip-rule="evenodd" d="M20 4.395C15.1808 4.395 11.2741 8.35056 11.2741 13.23C11.2741 18.1094 15.1808 22.065 20 22.065C24.8192 22.065 28.7259 18.1094 28.7259 13.23C28.7259 8.35056 24.8192 4.395 20 4.395ZM11.1259 13.23C11.1259 8.26772 15.099 4.245 20 4.245C24.901 4.245 28.8741 8.26772 28.8741 13.23C28.8741 18.1923 24.901 22.215 20 22.215C15.099 22.215 11.1259 18.1923 11.1259 13.23Z" fill="black"/>
<path d="M23.7173 24.3C23.7547 24.894 23.3013 25.38 22.7147 25.38H17.2587C16.672 25.38 16.2187 24.894 16.2453 24.3L17.136 6.75C17.168 6.156 17.6693 5.67 18.256 5.67H21.5307C22.1173 5.67 22.624 6.156 22.6613 6.75L23.7173 24.3Z" fill="#8C8A8C"/>
<path fill-rule="evenodd" clip-rule="evenodd" d="M17.2099 6.75395C17.2099 6.754 17.2099 6.75404 17.2099 6.75409L16.3193 24.3034C16.3193 24.3035 16.3193 24.3036 16.3193 24.3036C16.2946 24.8554 16.7148 25.305 17.2586 25.305H22.7146C23.2588 25.305 23.678 24.8553 23.6434 24.3048L23.6434 24.3046L22.5874 6.75476C22.5874 6.75473 22.5874 6.75469 22.5874 6.75465C22.5524 6.19974 22.0777 5.745 21.5306 5.745H18.256C17.7092 5.745 17.2399 6.19928 17.2099 6.75395ZM17.062 6.74592C17.0961 6.11265 17.6295 5.595 18.256 5.595H21.5306C22.1568 5.595 22.6954 6.1122 22.7352 6.74524L22.7352 6.74544L23.7912 24.2952C23.7912 24.2953 23.7912 24.2953 23.7912 24.2954C23.8312 24.9327 23.3438 25.455 22.7146 25.455H17.2586C16.6292 25.455 16.1427 24.9328 16.1713 24.2966L16.1713 24.2962H16.1713L17.062 6.74615L17.062 6.74592Z" fill="black"/>
<path d="M19.8933 6.156L21.4933 11.178H26.6667L22.5067 14.202L24.0533 19.17L19.8933 16.146L15.7333 19.224L17.3333 14.202L13.12 11.124H18.2933L19.8933 6.156Z" fill="white"/>
<path fill-rule="evenodd" clip-rule="evenodd" d="M19.8934 6.07705C19.9272 6.07711 19.9571 6.0992 19.9675 6.13176L21.5501 11.0991H26.6666C26.7005 11.0991 26.7305 11.1212 26.7409 11.1538C26.7512 11.1865 26.7396 11.2221 26.7121 11.2421L22.598 14.2328L24.1277 19.1463C24.1378 19.1787 24.1262 19.214 24.099 19.2339C24.0718 19.2539 24.0351 19.254 24.0078 19.2341L19.8937 16.2435L15.7793 19.2877C15.752 19.3079 15.715 19.308 15.6876 19.288C15.6602 19.2679 15.6487 19.2323 15.6591 19.1998L17.2417 14.2324L13.0743 11.188C13.0469 11.168 13.0354 11.1323 13.0458 11.0997C13.0562 11.0671 13.0861 11.0451 13.12 11.0451H18.2367L19.8192 6.13153C19.8296 6.09899 19.8596 6.077 19.8934 6.07705ZM19.8929 6.4119L18.3674 11.1485C18.357 11.181 18.3271 11.2029 18.2933 11.2029H13.3613L17.3789 14.138C17.4063 14.158 17.4179 14.1937 17.4075 14.2262L15.8813 19.0167L19.8473 16.0823C19.8745 16.0621 19.9114 16.062 19.9388 16.0819L23.9085 18.9676L22.4323 14.2257C22.4221 14.1932 22.4338 14.1578 22.4612 14.1379L26.4243 11.2569H21.4933C21.4595 11.2569 21.4295 11.2348 21.4191 11.2022L19.8929 6.4119Z" fill="black"/>
</g>
<defs>
<clipPath id="clip0_6065_1302">
<rect width="40" height="27" fill="white"/>
</clipPath>
</defs>
</svg>
