<svg width="40" height="27" viewBox="0 0 40 27" fill="none" xmlns="http://www.w3.org/2000/svg">
<g clip-path="url(#clip0_6065_1297)">
<path d="M0 0H40V27H0V0Z" fill="#0052B4"/>
<path d="M39.922 11.7158V15.2289H21.6998V26.9447H18.2222V15.2289H0V11.7158H18.2222V0H21.6998V11.7158H39.922Z" fill="white"/>
<path d="M7.87523 2.84999C8.20272 2.8342 8.5224 2.84209 8.84989 2.86578C9.27874 2.89736 9.58283 2.99209 9.55944 2.90525C9.52045 2.76315 9.55164 2.73157 9.49706 2.76315C9.3957 2.84209 9.55164 2.74736 8.92007 3.11051C7.99999 3.63946 7.60233 4.04209 7.80506 4.76841C7.98439 5.40788 8.44443 5.58157 9.54385 5.75525L9.692 5.77894C10.1286 5.84999 10.3236 5.88946 10.4561 5.95262C10.4873 5.96841 10.4327 5.87367 10.4483 5.81841C10.4327 5.86578 10.1442 5.9842 9.41129 6.1263L9.04482 6.19736C7.63352 6.48946 6.93176 6.86841 6.8226 7.85525C6.70564 8.93683 7.81285 9.69473 9.20856 9.8763C10.6277 10.0658 11.8674 9.59209 11.9922 8.42367C12.0702 7.68157 11.5633 7.23946 10.7524 7.07367C10.2066 6.96315 9.48147 6.96315 8.61597 7.04999C7.64911 7.15262 6.69005 7.31841 5.73878 7.54736C5.45808 7.60262 5.27874 7.87894 5.33332 8.16315C5.3879 8.44736 5.66081 8.62894 5.94151 8.57367C5.9571 8.57367 5.9649 8.56578 5.98049 8.56578C6.88498 8.35262 7.79726 8.19473 8.71734 8.09999C9.48927 8.02104 10.1208 8.02104 10.5419 8.10788C10.885 8.17894 10.9552 8.24209 10.9474 8.31315C10.9084 8.71578 10.2534 8.96052 9.33332 8.84209C8.42884 8.72367 7.81285 8.30525 7.84404 7.97367C7.88303 7.6342 8.2573 7.43683 9.23975 7.23157L9.59843 7.16051C10.807 6.92367 11.2437 6.74209 11.4308 6.11841C11.5789 5.60525 11.3294 5.20262 10.8694 4.99736C10.6199 4.88683 10.3782 4.83157 9.84014 4.75262L9.69979 4.72894C9.07601 4.6263 8.8109 4.52367 8.80311 4.49209C8.79531 4.46051 8.94346 4.31051 9.43469 4.0263L9.77777 3.82894C9.89472 3.76578 10.0039 3.68683 10.113 3.61578C10.4717 3.34736 10.6745 3.05525 10.5653 2.64473C10.4171 2.06841 9.86353 1.89473 8.93566 1.82367C8.56919 1.79999 8.21051 1.79209 7.84404 1.79999L7.6881 1.80788C7.3996 1.82367 7.18127 2.0763 7.19687 2.36051C7.21246 2.65262 7.46198 2.87367 7.74268 2.85788L7.87523 2.84999ZM30.0195 2.84999C30.347 2.8342 30.6667 2.84209 30.9941 2.86578C31.423 2.89736 31.7271 2.99209 31.7037 2.90525C31.6647 2.76315 31.6959 2.73157 31.6413 2.76315C31.5399 2.84209 31.6959 2.74736 31.0643 3.11051C30.1442 3.63946 29.7466 4.04209 29.9493 4.76841C30.1286 5.40788 30.5887 5.58157 31.6881 5.75525L31.8362 5.77894C32.2729 5.84999 32.4678 5.88946 32.6004 5.95262C32.6316 5.96841 32.577 5.87367 32.5926 5.81841C32.577 5.86578 32.2885 5.9842 31.5555 6.1263L31.1891 6.19736C29.7778 6.48946 29.076 6.86841 28.9668 7.85525C28.8499 8.93683 29.9571 9.69473 31.3528 9.8763C32.7719 10.0658 34.0117 9.59209 34.1364 8.42367C34.2144 7.68157 33.7076 7.23946 32.8967 7.07367C32.3509 6.96315 31.6257 6.96315 30.7602 7.04999C29.7934 7.15262 28.8343 7.31841 27.883 7.54736C27.6023 7.60262 27.423 7.87894 27.4776 8.16315C27.5322 8.44736 27.8051 8.62894 28.0858 8.57367C28.1014 8.57367 28.1091 8.56578 28.1247 8.56578C29.0292 8.35262 29.9415 8.19473 30.8616 8.09999C31.6335 8.02104 32.2651 8.02104 32.6861 8.10788C33.0292 8.17894 33.0994 8.24209 33.0916 8.31315C33.0526 8.71578 32.3976 8.96052 31.4776 8.84209C30.5731 8.72367 29.9571 8.30525 29.9883 7.97367C30.0273 7.6342 30.4015 7.43683 31.384 7.23157L31.7427 7.16051C32.9513 6.92367 33.3879 6.74209 33.575 6.11841C33.7232 5.60525 33.4737 5.20262 33.0136 4.99736C32.7641 4.88683 32.5224 4.83157 31.9844 4.75262L31.844 4.72894C31.2203 4.6263 30.9552 4.52367 30.9474 4.49209C30.9396 4.46051 31.0877 4.31051 31.5789 4.0263L31.922 3.82894C32.039 3.76578 32.1481 3.68683 32.2573 3.61578C32.616 3.34736 32.8187 3.05525 32.7095 2.64473C32.5614 2.06841 32.0078 1.89473 31.0799 1.82367C30.7134 1.79999 30.3548 1.79209 29.9883 1.79999L29.8323 1.80788C29.5438 1.82367 29.3255 2.0763 29.3411 2.36051C29.3567 2.65262 29.6062 2.87367 29.8869 2.85788L30.0195 2.84999ZM29.5984 18.5605C29.9259 18.5447 30.2456 18.5526 30.5731 18.5763C31.0019 18.6079 31.306 18.7026 31.2826 18.6158C31.2437 18.4737 31.2748 18.4421 31.2203 18.4737C31.1189 18.5526 31.2748 18.4579 30.6433 18.821C29.7232 19.35 29.3255 19.7526 29.5283 20.4789C29.7076 21.1184 30.1676 21.2921 31.267 21.4658L31.4152 21.4895C31.8518 21.5605 32.0468 21.6 32.1793 21.6631C32.2105 21.6789 32.1559 21.5842 32.1715 21.5289C32.1559 21.5763 31.8674 21.6947 31.1345 21.8368L30.768 21.9079C29.3567 22.2 28.655 22.5789 28.5458 23.5658C28.4288 24.6474 29.5361 25.4053 30.9318 25.5868C32.3509 25.7763 33.5906 25.3026 33.7154 24.1342C33.7934 23.3921 33.2865 22.95 32.4756 22.7842C31.9298 22.6737 31.2047 22.6737 30.3392 22.7605C29.3723 22.8631 28.4132 23.0289 27.462 23.2579C27.1813 23.3131 27.0019 23.5895 27.0565 23.8737C27.1111 24.1579 27.384 24.3395 27.6647 24.2842C27.6803 24.2842 27.6881 24.2763 27.7037 24.2763C28.6082 24.0631 29.5205 23.9053 30.4405 23.8105C31.2125 23.7316 31.844 23.7316 32.2651 23.8184C32.6082 23.8895 32.6784 23.9526 32.6706 24.0237C32.6316 24.4263 31.9766 24.671 31.0565 24.5526C30.152 24.4342 29.5361 24.0158 29.5672 23.6842C29.6062 23.3447 29.9805 23.1474 30.963 22.9421L31.3216 22.871C32.5302 22.6342 32.9669 22.4526 33.154 21.8289C33.3021 21.3158 33.0526 20.9131 32.5926 20.7079C32.3431 20.5974 32.1014 20.5421 31.5633 20.4631L31.423 20.4395C30.7992 20.3368 30.5341 20.2342 30.5263 20.2026C30.5185 20.171 30.6667 20.021 31.1579 19.7368L31.501 19.5395C31.6179 19.4763 31.7271 19.3974 31.8362 19.3263C32.1949 19.0579 32.3976 18.7658 32.2885 18.3553C32.1403 17.7789 31.5867 17.6053 30.6589 17.5342C30.2924 17.5105 29.9337 17.5026 29.5672 17.5105L29.4113 17.5184C29.1228 17.5342 28.9045 17.7868 28.9201 18.071C28.9357 18.3553 29.1852 18.5842 29.4659 18.5684L29.5984 18.5605ZM7.87523 18.5605C8.20272 18.5447 8.5224 18.5526 8.84989 18.5763C9.27874 18.6079 9.58283 18.7026 9.55944 18.6158C9.52045 18.4737 9.55164 18.4421 9.49706 18.4737C9.3957 18.5526 9.55164 18.4579 8.92007 18.821C7.99999 19.35 7.60233 19.7526 7.80506 20.4789C7.98439 21.1184 8.44443 21.2921 9.54385 21.4658L9.692 21.4895C10.1286 21.5605 10.3236 21.6 10.4561 21.6631C10.4873 21.6789 10.4327 21.5842 10.4483 21.5289C10.4327 21.5763 10.1442 21.6947 9.41129 21.8368L9.04482 21.9079C7.63352 22.2 6.93176 22.5789 6.8226 23.5658C6.70564 24.6474 7.81285 25.4053 9.20856 25.5868C10.6277 25.7763 11.8674 25.3026 11.9922 24.1342C12.0702 23.3921 11.5633 22.95 10.7524 22.7842C10.2066 22.6737 9.48147 22.6737 8.61597 22.7605C7.64911 22.8631 6.69005 23.0289 5.73878 23.2579C5.45808 23.3131 5.27874 23.5895 5.33332 23.8737C5.3879 24.1579 5.66081 24.3395 5.94151 24.2842C5.9571 24.2842 5.9649 24.2763 5.98049 24.2763C6.88498 24.0631 7.79726 23.9053 8.71734 23.8105C9.48927 23.7316 10.1208 23.7316 10.5419 23.8184C10.885 23.8895 10.9552 23.9526 10.9474 24.0237C10.9084 24.4263 10.2534 24.671 9.33332 24.5526C8.42884 24.4342 7.81285 24.0158 7.84404 23.6842C7.88303 23.3447 8.2573 23.1474 9.23975 22.9421L9.59843 22.871C10.807 22.6342 11.2437 22.4526 11.4308 21.8289C11.5789 21.3158 11.3294 20.9131 10.8694 20.7079C10.6199 20.5974 10.3782 20.5421 9.84014 20.4631L9.69979 20.4395C9.07601 20.3368 8.8109 20.2342 8.80311 20.2026C8.79531 20.171 8.94346 20.021 9.43469 19.7368L9.77777 19.5395C9.89472 19.4763 10.0039 19.3974 10.113 19.3263C10.4717 19.0579 10.6745 18.7658 10.5653 18.3553C10.4171 17.7789 9.86353 17.6053 8.93566 17.5342C8.56919 17.5105 8.21051 17.5026 7.84404 17.5105L7.6881 17.5184C7.3996 17.5342 7.18127 17.7868 7.19687 18.071C7.21246 18.3631 7.46198 18.5842 7.74268 18.5684L7.87523 18.5605Z" fill="white"/>
</g>
<defs>
<clipPath id="clip0_6065_1297">
<rect width="40" height="27" fill="white"/>
</clipPath>
</defs>
</svg>
