<svg width="40" height="27" viewBox="0 0 40 27" fill="none" xmlns="http://www.w3.org/2000/svg">
<g clip-path="url(#clip0_6065_1292)">
<path d="M0 -0.000152588H40V27.0002H0V-0.000152588Z" fill="#496E2D"/>
<path d="M20 16.8896C16.4097 16.8896 13.4103 14.3348 12.6745 10.9231C12.5587 11.4576 12.5002 12.0031 12.5 12.5503C12.5 16.7443 15.8577 20.1441 20 20.1441C24.1423 20.1441 27.5 16.7443 27.5 12.5503C27.5 11.9914 27.4387 11.4475 27.3255 10.9231C26.5897 14.3348 23.5903 16.8896 20 16.8896Z" fill="#FFDA44"/>
<path d="M20 6.85503L20.698 9.03048H22.9572L21.1296 10.3749L21.8277 12.5504L20 11.2059L18.1723 12.5504L18.8705 10.3749L17.0428 9.03048H19.3018L20 6.85503Z" fill="#FFDA44"/>
</g>
<defs>
<clipPath id="clip0_6065_1292">
<rect width="40" height="27" fill="white"/>
</clipPath>
</defs>
</svg>
