<svg width="40" height="27" viewBox="0 0 40 27" fill="none" xmlns="http://www.w3.org/2000/svg">
<g clip-path="url(#clip0_6065_1278)">
<path d="M0 0H40V27H0V0Z" fill="#1B4991"/>
<path d="M24.8109 8.42371V16.8316C24.8109 20.929 30.0975 22.1842 30.0975 22.1842C30.0975 22.1842 35.384 20.929 35.384 16.8316V8.42371H24.8109Z" fill="#00A2B8"/>
<path fill-rule="evenodd" clip-rule="evenodd" d="M24.694 8.30524H35.501V16.8316C35.501 18.9402 34.1387 20.3099 32.8022 21.1452C32.1326 21.5636 31.464 21.8518 30.9633 22.0354C30.7128 22.1272 30.5038 22.1931 30.3571 22.236C30.2838 22.2575 30.226 22.2733 30.1863 22.2837C30.1664 22.2889 30.1511 22.2928 30.1407 22.2954C30.1354 22.2967 30.1314 22.2977 30.1287 22.2984L30.1255 22.2992L30.1243 22.2994C30.1242 22.2995 30.1242 22.2995 30.0975 22.1842C30.0708 22.2995 30.0707 22.2995 30.0706 22.2994L30.0695 22.2992L30.0663 22.2984C30.0635 22.2977 30.0595 22.2967 30.0543 22.2954C30.0438 22.2928 30.0285 22.2889 30.0087 22.2837C29.969 22.2733 29.9112 22.2575 29.8378 22.236C29.6911 22.1931 29.4822 22.1272 29.2316 22.0354C28.731 21.8518 28.0623 21.5636 27.3928 21.1452C26.0563 20.3099 24.694 18.9402 24.694 16.8316V8.30524ZM30.0975 22.1842L30.0708 22.2995L30.0975 22.3058L30.1242 22.2995L30.0975 22.1842ZM30.0975 22.0622C30.1057 22.0602 30.1157 22.0576 30.1274 22.0545C30.1652 22.0445 30.2209 22.0293 30.2921 22.0085C30.4346 21.9668 30.6386 21.9025 30.8837 21.8127C31.3742 21.6328 32.0273 21.3511 32.6793 20.9436C33.9861 20.1269 35.2671 18.8202 35.2671 16.8316V8.54208H24.9279V16.8316C24.9279 18.8202 26.2089 20.1269 27.5156 20.9436C28.1677 21.3511 28.8207 21.6328 29.3113 21.8127C29.5564 21.9025 29.7604 21.9668 29.9028 22.0085C29.974 22.0293 30.0298 22.0445 30.0675 22.0545C30.0793 22.0576 30.0893 22.0602 30.0975 22.0622Z" fill="white"/>
<path d="M24.9279 16.7921C24.9279 20.8026 30.0974 22.0263 30.0974 22.0263C30.0974 22.0263 35.267 20.7947 35.267 16.7921H24.9279Z" fill="#A35023"/>
<path d="M32.3665 12.2447H30.8538V10.7131H29.3411V12.2447H27.8362V13.7763H29.3411V18.3631H30.8538V13.7763H32.3665V12.2447Z" fill="black"/>
<path d="M19.961 0V2.41579L16.4366 4.39737H19.961V9.07895H15.3528L19.961 11.6684V13.4763H17.8791L12.1481 10.2474V13.4763H7.81287V9.63947L0.990253 13.4763H0V11.0605L3.52437 9.07895H0V4.39737H4.60819L0 1.8V0H2.08187L7.81287 3.22105V0H12.1481V3.83684L18.9708 0H19.961Z" fill="white"/>
<path d="M11.2281 0H8.73294V5.47105H0V7.99737H8.73294V13.4763H11.2281V7.99737H19.961V5.47105H11.2281V0Z" fill="#D80027"/>
<path d="M12.1481 9.07892L19.961 13.4763V12.2289L14.3626 9.07892H12.1481Z" fill="#0052B4"/>
<path d="M12.1481 9.07892L19.961 13.4763V12.2289L14.3626 9.07892H12.1481Z" fill="white"/>
<path d="M12.1481 9.07892L19.961 13.4763V12.2289L14.3626 9.07892H12.1481ZM5.59844 9.07892L0 12.2289V13.4763L7.81287 9.07892H5.59844Z" fill="#D80027"/>
<path d="M7.81287 4.38947L0 0V1.23947L5.59844 4.38947H7.81287Z" fill="#0052B4"/>
<path d="M7.81287 4.38947L0 0V1.23947L5.59844 4.38947H7.81287Z" fill="white"/>
<path d="M7.81287 4.38947L0 0V1.23947L5.59844 4.38947H7.81287ZM14.3626 4.38947L19.961 1.23947V0L12.1481 4.38947H14.3626Z" fill="#D80027"/>
</g>
<defs>
<clipPath id="clip0_6065_1278">
<rect width="40" height="27" fill="white"/>
</clipPath>
</defs>
</svg>
