<svg width="40" height="27" viewBox="0 0 40 27" fill="none" xmlns="http://www.w3.org/2000/svg">
<g clip-path="url(#clip0_6065_1264)">
<path d="M0 -9.15527e-05H40V26.9999H0V-9.15527e-05Z" fill="#D01920"/>
<path d="M11.3044 7.04337H28.6957V19.9567H11.3044V7.04337Z" fill="#017C3B"/>
<path d="M22.1472 17.3148C20.0662 17.3148 18.3791 15.6067 18.3791 13.4996C18.3791 11.3924 20.0661 9.68432 22.1472 9.68432C22.7961 9.68432 23.4066 9.85044 23.9396 10.1429C23.1034 9.31492 21.9599 8.80392 20.6979 8.80392C18.1366 8.80392 16.0602 10.9062 16.0602 13.4996C16.0602 16.0929 18.1366 18.1952 20.6979 18.1952C21.9599 18.1952 23.1034 17.6841 23.9396 16.8562C23.4066 17.1487 22.7962 17.3148 22.1472 17.3148Z" fill="white"/>
</g>
<defs>
<clipPath id="clip0_6065_1264">
<rect width="40" height="27" fill="white"/>
</clipPath>
</defs>
</svg>
