<svg width="40" height="27" viewBox="0 0 40 27" fill="none" xmlns="http://www.w3.org/2000/svg">
<g clip-path="url(#clip0_6065_1253)">
<path d="M26.6667 0H0V26.9447H40V0H26.6667Z" fill="#DC2339"/>
<path d="M0 0H13.3333V27H0V0Z" fill="#11865D"/>
<path d="M13.3333 0H26.6666V27H13.3333V0Z" fill="white"/>
<path d="M15.267 13.5158C15.267 15.2211 16.1637 16.8079 17.6296 17.6605C18.0818 17.929 18.6588 17.7711 18.9239 17.3132C19.1891 16.8553 19.0331 16.2711 18.5809 16.0027C17.6998 15.4895 17.1618 14.5421 17.1618 13.5158C17.1618 12.9869 16.7407 12.5605 16.2183 12.5605C15.6959 12.5605 15.267 12.9869 15.267 13.5158ZM22.5497 17.55C23.9142 16.6737 24.7329 15.15 24.7329 13.5158C24.7329 12.9869 24.3119 12.5605 23.7894 12.5605C23.267 12.5605 22.846 12.9869 22.846 13.5158C22.846 14.4948 22.3547 15.4105 21.536 15.9395C21.0916 16.2158 20.9512 16.8 21.2163 17.2579C21.4815 17.7158 22.0662 17.85 22.5185 17.5816C22.5185 17.5658 22.5341 17.5579 22.5497 17.55Z" fill="#8C9157"/>
<path d="M20 15.4343C21.0465 15.4343 21.8948 14.1477 21.8948 12.5606C21.8948 10.9735 21.0465 9.68689 20 9.68689C18.9536 9.68689 18.1053 10.9735 18.1053 12.5606C18.1053 14.1477 18.9536 15.4343 20 15.4343Z" fill="#C59262"/>
</g>
<defs>
<clipPath id="clip0_6065_1253">
<rect width="40" height="27" fill="white"/>
</clipPath>
</defs>
</svg>
