<svg width="40" height="27" viewBox="0 0 40 27" fill="none" xmlns="http://www.w3.org/2000/svg">
<g clip-path="url(#clip0_6065_1247)">
<path d="M0 0H40V27H0V0Z" fill="white"/>
<path d="M0 0H40V1.92632H0V0ZM0 3.86053H40V5.78684H0V3.86053ZM0 7.71316H40V9.63947H0V7.71316ZM0 11.5737H40V13.5H0V11.5737ZM0 15.4263H40V17.3526H0V15.4263ZM0 19.2868H40V21.2132H0V19.2868ZM0 23.1395H40V25.0658H0V23.1395Z" fill="#CC0000"/>
<path d="M0 0H20V15.4263H0V0Z" fill="#000066"/>
<path d="M11.9533 3.32368C9.5595 2.42368 6.90063 3.65526 6.01175 6.07895C5.12286 8.50263 6.33923 11.1947 8.73299 12.0947C9.77003 12.4895 10.9162 12.4895 11.9611 12.0947C9.5673 14.0289 6.08192 13.6421 4.16379 11.2184C2.24566 8.79474 2.63553 5.26579 5.02929 3.32368C7.05658 1.68947 9.93377 1.68947 11.9533 3.32368ZM14.0351 9.24474L12.4289 11.0842L12.85 8.66842L10.4328 8.54211L12.5615 7.36579L11.1501 5.36842L13.3802 6.31579L14.0351 3.95526L14.6901 6.31579L16.9201 5.36842L15.5166 7.37368L17.6453 8.55L15.2281 8.67632L15.6492 11.0921L14.0351 9.24474Z" fill="#FFCC00"/>
</g>
<defs>
<clipPath id="clip0_6065_1247">
<rect width="40" height="27" fill="white"/>
</clipPath>
</defs>
</svg>
