<svg width="40" height="26" viewBox="0 0 40 26" fill="none" xmlns="http://www.w3.org/2000/svg">
<g clip-path="url(#clip0_6065_1234)">
<path d="M0 0.000305176H40V25.9998H0V0.000305176Z" fill="#496E2D"/>
<path d="M0 25.9998V0.000305176H40" fill="#0052B4"/>
<path d="M40 5.09507V0.000305176H32.1617L0 20.905V25.9998H7.83828L40 5.09507Z" fill="white"/>
<path d="M40 0.000305176V3.0567L4.70258 25.9998H0V22.9434L35.2974 0.000305176H40Z" fill="#A2001D"/>
<path d="M14.6669 7.91269L12.8903 8.72742L13.8364 10.405L11.9073 10.0452L11.6628 11.9453L10.3191 10.5478L8.97538 11.9453L8.73092 10.0452L6.80178 10.405L7.7478 8.72742L5.97131 7.91269L7.74788 7.09787L6.80178 5.42041L8.73092 5.7801L8.97545 3.88007L10.3191 5.27759L11.6629 3.88007L11.9073 5.7801L13.8364 5.42041L12.8905 7.09803L14.6669 7.91269Z" fill="#FFDA44"/>
</g>
<defs>
<clipPath id="clip0_6065_1234">
<rect width="40" height="26" fill="white"/>
</clipPath>
</defs>
</svg>
