<svg width="40" height="26" viewBox="0 0 40 26" fill="none" xmlns="http://www.w3.org/2000/svg">
<g clip-path="url(#clip0_6065_1222)">
<path d="M0 17.8533H40V26H0V17.8533Z" fill="#009543"/>
<path d="M0 8.04309H40V17.8715H0V8.04309Z" fill="#ED4135"/>
<path d="M0 0H40V8.12233H0V0Z" fill="#0035AD"/>
<path d="M15 22.5817C20.4296 22.5817 24.8312 18.2904 24.8312 12.997C24.8312 7.70346 20.4296 3.41223 15 3.41223C9.57035 3.41223 5.16875 7.70346 5.16875 12.997C5.16875 18.2904 9.57035 22.5817 15 22.5817Z" fill="#FAE600"/>
<path fill-rule="evenodd" clip-rule="evenodd" d="M15 3.61371C9.68447 3.61371 5.37538 7.81474 5.37538 12.997C5.37538 18.1792 9.68447 22.3803 15 22.3803C20.3155 22.3803 24.6246 18.1792 24.6246 12.997C24.6246 7.81474 20.3155 3.61371 15 3.61371ZM4.96212 12.997C4.96212 7.59223 9.45623 3.21082 15 3.21082C20.5438 3.21082 25.0379 7.59223 25.0379 12.997C25.0379 18.4017 20.5438 22.7831 15 22.7831C9.45623 22.7831 4.96212 18.4017 4.96212 12.997Z" fill="black"/>
<path d="M19.2438 21.6007L17.2563 22.3318L15 22.5878L12.6375 22.4415L10.3938 21.4971C10.3938 21.4971 12.1813 19.7117 12.9375 19.4558C13.475 19.273 14.3375 19.2304 14.3375 19.2304V7.43379L14.3188 3.41223H15.375L15.3438 7.52519V19.206C15.3438 19.206 16.3 19.2791 16.725 19.4558C17.4313 19.7544 19.2438 21.6007 19.2438 21.6007Z" fill="black"/>
<path d="M13.2954 6.23798L15.9801 4.93292L16.3287 5.61458L13.644 6.91957L13.2954 6.23798Z" fill="black"/>
<path d="M14.8625 18.7064C15.4424 18.7064 15.9125 17.9834 15.9125 17.0916C15.9125 16.1999 15.4424 15.4769 14.8625 15.4769C14.2826 15.4769 13.8125 16.1999 13.8125 17.0916C13.8125 17.9834 14.2826 18.7064 14.8625 18.7064Z" fill="black"/>
<path d="M14.8375 10.0112C15.5589 10.0112 16.1437 9.44106 16.1437 8.73773C16.1437 8.0344 15.5589 7.46423 14.8375 7.46423C14.1161 7.46423 13.5312 8.0344 13.5312 8.73773C13.5312 9.44106 14.1161 10.0112 14.8375 10.0112Z" fill="black"/>
<path d="M14.9 13.6002C15.5869 13.6002 16.1437 13.2701 16.1437 12.8629C16.1437 12.4557 15.5869 12.1256 14.9 12.1256C14.2131 12.1256 13.6562 12.4557 13.6562 12.8629C13.6562 13.2701 14.2131 13.6002 14.9 13.6002Z" fill="black"/>
<path d="M13.3625 10.7851H16.3V11.3944H13.3625V10.7851ZM13.3625 14.2583H16.3V14.8676H13.3625V14.2583Z" fill="black"/>
</g>
<defs>
<clipPath id="clip0_6065_1222">
<rect width="40" height="26" fill="white"/>
</clipPath>
</defs>
</svg>
