<svg width="40" height="27" viewBox="0 0 40 27" fill="none" xmlns="http://www.w3.org/2000/svg">
<g clip-path="url(#clip0_6065_1201)">
<path d="M0 0.000366211H40V26.9998H0V0.000366211Z" fill="white"/>
<path d="M0 0.000366211H40V9.00015H0V0.000366211ZM0 18H40V26.9998H0V18Z" fill="#338AF3"/>
<path d="M20 10.2131C18.2071 10.2131 16.7537 11.6847 16.7537 13.5C16.7537 15.3154 18.207 16.787 20 16.787C21.7929 16.787 23.2463 15.3154 23.2463 13.5C23.2463 11.6847 21.7929 10.2131 20 10.2131ZM20 15.3783C18.9755 15.3783 18.1449 14.5374 18.1449 13.5C18.1449 12.4627 18.9755 11.6218 20 11.6218C21.0245 11.6218 21.8551 12.4627 21.8551 13.5C21.8551 14.5374 21.0245 15.3783 20 15.3783Z" fill="#FFDA44"/>
<path d="M21.6065 13.9695L20 13.5L18.3935 13.9695L17.858 14.9087H22.142L21.6065 13.9695Z" fill="#0052B4"/>
<path d="M20 11.1523L18.929 13.0305L20 13.5001L21.071 13.0305L20 11.1523Z" fill="#338AF3"/>
<path d="M18.3935 13.9696H21.6065L21.071 13.0305H18.929L18.3935 13.9696Z" fill="#6DA544"/>
</g>
<defs>
<clipPath id="clip0_6065_1201">
<rect width="40" height="27" fill="white"/>
</clipPath>
</defs>
</svg>
