<svg width="40" height="27" viewBox="0 0 40 27" fill="none" xmlns="http://www.w3.org/2000/svg">
<g clip-path="url(#clip0_6065_1186)">
<path d="M0 0.000305176H40V26.9997H0V0.000305176Z" fill="white"/>
<path d="M0 26.9997V0.000305176L21.9077 13.8233H6.84453L21.1864 26.9997H0Z" fill="#0052B4"/>
<path d="M19.1226 13.0166L0.796814 1.45364V26.193H19.1226L4.78072 13.0166H19.1226Z" fill="#D80027"/>
<path d="M7.65649 18.9132L6.51672 18.3703L7.12375 17.2526L5.88594 17.4923L5.72907 16.2263L4.86696 17.1575L4.00477 16.2263L3.8479 17.4923L2.61016 17.2526L3.21719 18.3703L2.07727 18.9132L3.21719 19.456L2.61016 20.5737L3.84797 20.3341L4.00477 21.6001L4.86696 20.6689L5.72907 21.6001L5.88594 20.3341L7.12368 20.5738L6.51672 19.4561L7.65649 18.9132ZM6.89594 8.41081L6.06688 8.01601L6.50836 7.20301L5.60813 7.37743L5.49399 6.4566L4.86696 7.13379L4.23993 6.4566L4.12586 7.37743L3.22547 7.20301L3.66704 8.01601L2.8379 8.41081L4.86696 8.82166L6.89594 8.41081Z" fill="white"/>
<path d="M7.30172 8.4108C7.30172 9.77229 6.21164 10.876 4.86696 10.876C3.52227 10.876 2.43219 9.77229 2.43219 8.4108" fill="white"/>
</g>
<defs>
<clipPath id="clip0_6065_1186">
<rect width="40" height="27" fill="white"/>
</clipPath>
</defs>
</svg>
