<svg width="40" height="27" viewBox="0 0 40 27" fill="none" xmlns="http://www.w3.org/2000/svg">
<g clip-path="url(#clip0_6065_1156)">
<path d="M0 6.10352e-05H40V27.0004H0V6.10352e-05Z" fill="#FFDA44"/>
<path d="M0 6.10352e-05H20V13.4998H0V6.10352e-05Z" fill="white"/>
<path d="M11.25 -0.000244141H8.75V5.48411H0V8.01536H8.75V13.4998H11.25V8.01536H20V5.48411H11.25V-0.000244141Z" fill="#D80027"/>
<path d="M0 -0.000305176V1.19278L4.48258 4.2185H6.25L0 -0.000305176Z" fill="#D80027"/>
<path d="M0 1.7891V4.21846H3.59914L0 1.7891ZM7.5 -0.000183105V3.86892L1.76781 -0.000183105H7.5Z" fill="#2E52B2"/>
<path d="M20 -0.000305176V1.19278L15.5174 4.2185H13.75L20 -0.000305176Z" fill="#D80027"/>
<path d="M20 1.7891V4.21846H16.4009L20 1.7891ZM12.5 -0.000183105V3.86892L18.2322 -0.000183105H12.5Z" fill="#2E52B2"/>
<path d="M0 -0.000305176V1.19278L4.48258 4.2185H6.25L0 -0.000305176Z" fill="#D80027"/>
<path d="M0 1.7891V4.21846H3.59914L0 1.7891ZM7.5 -0.000183105V3.86892L1.76781 -0.000183105H7.5Z" fill="#2E52B2"/>
<path d="M20 -0.000305176V1.19278L15.5174 4.2185H13.75L20 -0.000305176Z" fill="#D80027"/>
<path d="M20 1.7891V4.21846H16.4009L20 1.7891ZM12.5 -0.000183105V3.86892L18.2322 -0.000183105H12.5Z" fill="#2E52B2"/>
<path d="M0 13.4998V12.3068L4.48258 9.28101H6.25L0 13.4998Z" fill="#D80027"/>
<path d="M0 11.7105V9.28101H3.59914L0 11.7105ZM7.5 13.4996V9.63056L1.76781 13.4996H7.5Z" fill="#2E52B2"/>
<path d="M20 13.4998V12.3068L15.5174 9.28101H13.75L20 13.4998Z" fill="#D80027"/>
<path d="M20 11.7105V9.28101H16.4009L20 11.7105ZM12.5 13.4996V9.63056L18.2322 13.4996H12.5Z" fill="#2E52B2"/>
<path d="M10 8.53932C10.9763 8.53932 11.7678 7.73799 11.7678 6.74949C11.7678 5.76099 10.9763 4.95966 10 4.95966C9.02374 4.95966 8.2323 5.76099 8.2323 6.74949C8.2323 7.73799 9.02374 8.53932 10 8.53932Z" fill="#2E52B2"/>
<path d="M10 5.4841L10.3102 6.45088H11.3144L10.5021 7.04857L10.8123 8.01535L10 7.41782L9.1877 8.01535L9.49801 7.04857L8.68567 6.45088H9.68981L10 5.4841ZM10 10.6368L10.1847 11.2125H10.7826L10.299 11.5683L10.4837 12.144L10 11.7882L9.51637 12.144L9.70106 11.5683L9.21747 11.2125H9.81528L10 10.6368ZM10 1.35547L10.1847 1.93117H10.7826L10.299 2.28697L10.4837 2.86267L10 2.50687L9.51637 2.86267L9.70106 2.28697L9.21747 1.93117H9.81528L10 1.35547ZM15.4634 5.99612L15.6482 6.57175H16.2461L15.7623 6.92763L15.9471 7.50341L15.4634 7.14761L14.9797 7.50341L15.1645 6.92763L14.6808 6.57175H15.2786L15.4634 5.99612ZM4.53668 5.99612L4.72137 6.57175H5.31926L4.83559 6.92763L5.02028 7.50341L4.53668 7.14761L4.05301 7.50341L4.23778 6.92763L3.75403 6.57175H4.35192L4.53668 5.99612Z" fill="#FFDA44"/>
</g>
<defs>
<clipPath id="clip0_6065_1156">
<rect width="40" height="27" fill="white"/>
</clipPath>
</defs>
</svg>
