<svg width="41" height="27" viewBox="0 0 41 27" fill="none" xmlns="http://www.w3.org/2000/svg">
<g clip-path="url(#clip0_6065_1142)">
<path d="M0 6.10352e-05H40.5V27.0004H0V6.10352e-05Z" fill="#0052B4"/>
<path d="M33.642 11.7396L33.91 12.5645H34.7772L34.0756 13.0742L34.3436 13.899L33.642 13.3893L32.9403 13.899L33.2083 13.0742L32.5067 12.5645H33.3739L33.642 11.7396ZM30.5417 17.678L30.9438 18.9153H32.2446L31.1922 19.6799L31.5942 20.9171L30.5417 20.1524L29.4893 20.9171L29.8914 19.6799L28.8389 18.9153H30.1397L30.5417 17.678ZM30.6589 7.96063L30.994 8.9918H32.078L31.2009 9.62889L31.5359 10.6599L30.6589 10.0227L29.7818 10.6599L30.1168 9.62889L29.2398 8.9918H30.3238L30.6589 7.96063ZM27.6758 11.7037L28.0778 12.941H29.3787L28.3262 13.7055L28.7283 14.9428L27.6758 14.1782L26.6234 14.9428L27.0253 13.7055L25.9729 12.941H27.2737L27.6758 11.7037Z" fill="#D80027"/>
<path d="M20.2503 -0.000305176V2.41736L16.6766 4.40186H20.2503V9.09725H15.5743L20.2503 11.6954V13.4994H18.139L12.3263 10.27V13.4994H7.92417V9.65721L1.00839 13.4994H0.000244141V11.0826L3.57311 9.09725H0.000244141V4.40186H4.67539L0.000244141 1.80464V-0.000305176H2.11068L7.92417 3.23005V-0.000305176H12.3263V3.8419L19.2422 -0.000305176H20.2503Z" fill="white"/>
<path d="M11.3906 -0.000244141H8.85938V5.48419H0V8.01544H8.85938V13.4999H11.3906V8.01544H20.25V5.48419H11.3906V-0.000244141Z" fill="#D80027"/>
<path d="M12.326 9.09753L20.25 13.4999V12.2549L14.5668 9.09753H12.326Z" fill="#0052B4"/>
<path d="M12.326 9.09753L20.25 13.4999V12.2549L14.5668 9.09753H12.326Z" fill="white"/>
<path d="M12.3261 9.09753L20.25 13.4999V12.2549L14.5668 9.09753H12.3261ZM5.68314 9.09753L0 12.2549V13.4999L7.92393 9.09753H5.68314Z" fill="#D80027"/>
<path d="M7.92393 4.402L0 -0.000244141V1.24466L5.68322 4.402H7.92393Z" fill="#0052B4"/>
<path d="M7.92393 4.402L0 -0.000244141V1.24466L5.68322 4.402H7.92393Z" fill="white"/>
<path d="M7.92393 4.402L0 -0.000244141V1.24466L5.68322 4.402H7.92393ZM14.5669 4.402L20.25 1.24466V-0.000244141L12.3261 4.402H14.5669Z" fill="#D80027"/>
</g>
<defs>
<clipPath id="clip0_6065_1142">
<rect width="40.5" height="27" fill="white"/>
</clipPath>
</defs>
</svg>
