<svg width="40" height="27" viewBox="0 0 40 27" fill="none" xmlns="http://www.w3.org/2000/svg">
<g clip-path="url(#clip0_6065_1135)">
<path d="M0 0H40V27H0V0Z" fill="#D80027"/>
<path d="M10.7603 0H40.156V9H10.7603V0Z" fill="white"/>
<path d="M10.7603 18.1578H40.156V27.1578H10.7603V18.1578Z" fill="#4A7C3A"/>
<path fill-rule="evenodd" clip-rule="evenodd" d="M2.83392 3.02046C2.83389 3.02042 2.83386 3.02038 3.14233 2.77899C3.45079 2.53759 3.45079 2.53759 3.4508 2.5376L3.45869 2.54791C3.46405 2.5549 3.47208 2.56537 3.48265 2.5791C3.50378 2.60657 3.53504 2.64709 3.57527 2.69894C3.65575 2.80265 3.77209 2.95162 3.9151 3.13207C4.20129 3.49321 4.59344 3.97941 5.0182 4.4809C5.44371 4.9833 5.89823 5.49664 6.30969 5.91396C6.73577 6.34611 7.07291 6.63008 7.27046 6.72499C7.78977 6.97445 8.09649 7.07526 8.26123 7.11513C8.34296 7.13491 8.38524 7.13858 8.39797 7.13922C8.40064 7.13936 8.40177 7.13935 8.40148 7.13935C8.4011 7.13935 8.39832 7.13937 8.39339 7.13975C8.389 7.14009 8.38285 7.14072 8.37513 7.14191C8.37127 7.1425 8.36701 7.14323 8.36238 7.14413C8.36006 7.14458 8.35765 7.14507 8.35515 7.14561L8.35133 7.14646L8.34937 7.14691L8.34838 7.14714C8.34788 7.14726 8.34738 7.14738 8.43668 7.53162C8.52597 7.91586 8.52547 7.91598 8.52496 7.9161L8.52395 7.91634L8.52192 7.9168L8.51781 7.91772C8.51504 7.91831 8.51224 7.91889 8.50939 7.91944C8.50369 7.92055 8.49781 7.92157 8.49174 7.9225C8.47962 7.92436 8.46673 7.92585 8.453 7.92691C8.42561 7.92904 8.39455 7.9295 8.35915 7.92772C8.28879 7.92416 8.19804 7.91155 8.07996 7.88297C7.84509 7.82613 7.48515 7.70194 6.93623 7.43825C6.59967 7.27657 6.17462 6.89443 5.75786 6.47172C5.32649 6.0342 4.85752 5.50395 4.42631 4.99483C3.99434 4.48482 3.59653 3.99158 3.30694 3.62615C3.16206 3.44332 3.04405 3.29223 2.96216 3.18669C2.92121 3.13392 2.88927 3.09253 2.86751 3.06424C2.85663 3.05009 2.84828 3.03922 2.84263 3.03184L2.83392 3.02046Z" fill="white"/>
<path fill-rule="evenodd" clip-rule="evenodd" d="M2.69787 7.53159L2.73202 7.92481L2.43384 7.24116L4.24839 5.55001H4.03121V4.76053H5.09547L5.12282 4.73503V2.77895H5.90255V4.00833L7.53325 2.48853L8.09918 3.02873L7.79729 2.77895C8.09918 3.02873 8.0992 3.0287 8.09918 3.02873L8.06609 3.06964C8.04457 3.09621 8.01297 3.13517 7.97252 3.18492C7.89163 3.28441 7.77532 3.42706 7.63343 3.59992C7.37648 3.91296 7.03534 4.32551 6.66862 4.76053H6.98637V5.55001H5.99463C5.76467 5.81542 5.5378 6.07255 5.32744 6.30373C4.95667 6.71121 4.60947 7.06951 4.38566 7.23475C3.96986 7.54172 3.56456 7.71309 3.26143 7.80803C3.10963 7.85558 2.98246 7.88428 2.89091 7.90131C2.8451 7.90984 2.80806 7.91547 2.78117 7.91909C2.76771 7.9209 2.75678 7.92221 2.74854 7.92312C2.74441 7.92358 2.74096 7.92394 2.7382 7.92422L2.73458 7.92457L2.73317 7.9247L2.73228 7.92478C2.73215 7.92479 2.73202 7.92481 2.69787 7.53159Z" fill="white"/>
</g>
<defs>
<clipPath id="clip0_6065_1135">
<rect width="40" height="27" fill="white"/>
</clipPath>
</defs>
</svg>
