<svg width="40" height="27" viewBox="0 0 40 27" fill="none" xmlns="http://www.w3.org/2000/svg">
<g clip-path="url(#clip0_6065_1129)">
<path d="M0 0.000305176H40V26.9997H0V0.000305176Z" fill="white"/>
<path d="M20 13.5001V26.9998H0V13.5001H20Z" fill="#0052B4"/>
<path d="M40 0.000305176V13.5H20V0.000305176H40Z" fill="#D80027"/>
<path d="M10 2.98224L10.9238 5.86067H13.9131L11.4947 7.63974L12.4184 10.5182L10 8.73918L7.58165 10.5182L8.50532 7.63974L6.08696 5.86067H9.07626L10 2.98224Z" fill="#0052B4"/>
<path d="M30 16.4819L30.9237 19.3604H33.913L31.4947 21.1394L32.4184 24.0179L30 22.2389L27.5816 24.0179L28.5053 21.1394L26.0869 19.3604H29.0762L30 16.4819Z" fill="#D80027"/>
</g>
<defs>
<clipPath id="clip0_6065_1129">
<rect width="40" height="27" fill="white"/>
</clipPath>
</defs>
</svg>
