<svg width="40" height="27" viewBox="0 0 40 27" fill="none" xmlns="http://www.w3.org/2000/svg">
<g clip-path="url(#clip0_6065_1117)">
<path d="M0 0.000305176H40V26.9997H0V0.000305176Z" fill="white"/>
<path d="M0 0.000305176H40V9.00009H0V0.000305176ZM0 18H40V26.9997H0V18Z" fill="#D80027"/>
<path d="M22.968 13.5C22.968 15.1598 21.6391 16.1296 19.9999 16.1296C18.3607 16.1296 17.0319 15.1598 17.0319 13.5C17.0319 11.8403 18.3608 10.4948 20 10.4948C21.6392 10.4948 22.968 11.8403 22.968 13.5Z" fill="#FFDA44"/>
<path d="M22.968 13.5001C22.968 15.1598 21.6391 16.5053 19.9999 16.5053C18.3607 16.5053 17.0318 15.1598 17.0318 13.5001" fill="#0052B4"/>
<path d="M18.1453 12.749H18.8873V14.252H18.1453V12.749ZM21.1131 12.749H21.8551V14.252H21.1131V12.749ZM19.6287 11.6221H20.3707V14.2516H19.6287V11.6221Z" fill="#D80027"/>
</g>
<defs>
<clipPath id="clip0_6065_1117">
<rect width="40" height="27" fill="white"/>
</clipPath>
</defs>
</svg>
