<svg width="40" height="27" viewBox="0 0 40 27" fill="none" xmlns="http://www.w3.org/2000/svg">
<g clip-path="url(#clip0_6065_1111)">
<path d="M0 0H40V27.0003H0V0Z" fill="black"/>
<path d="M0 -0.000244141H40V26.9997" fill="#A2001D"/>
<path d="M15.9868 19.0757L16.2026 19.7484H16.9011L16.336 20.1641L16.5519 20.8366L15.9868 20.421L15.4217 20.8366L15.6375 20.1641L15.0724 19.7484H15.7709L15.9868 19.0757ZM14.2029 12.6193L14.5627 13.7403H15.7268L14.7849 14.433L15.1447 15.554L14.2029 14.8612L13.2611 15.554L13.6209 14.433L12.6791 13.7403H13.8432L14.2029 12.6193ZM14.2029 20.8366L14.5626 21.9577H15.7268L14.7848 22.6504L15.1447 23.7715L14.2029 23.0786L13.2611 23.7715L13.6208 22.6504L12.6791 21.9577H13.843L14.2029 20.8366ZM17.6065 15.554L17.9663 16.675H19.1305L18.1886 17.3678L18.5484 18.4888L17.6065 17.796L16.6648 18.4888L17.0246 17.3678L16.0827 16.675H17.2469L17.6065 15.554ZM10.7992 15.554L11.1591 16.675H12.323L11.3813 17.3678L11.7409 18.4888L10.7992 17.796L9.85742 18.4888L10.2172 17.3678L9.27539 16.675H10.4395L10.7992 15.554Z" fill="white"/>
<path d="M29.4161 9.39966C28.8202 8.79627 28.046 8.43992 27.2139 8.37861L29.7045 6.41729C28.7124 5.41285 27.3831 4.95936 26.0858 5.05532C25.9257 4.47161 25.619 3.93987 25.1955 3.51196L24.2117 5.50422C24.1457 5.38227 24.0629 5.27048 23.9657 5.17223C23.3997 4.59914 22.4821 4.59921 21.9162 5.17223C21.3503 5.74524 21.3502 6.67437 21.9162 7.24738C22.0133 7.3457 22.1237 7.42955 22.2441 7.49639L20.2764 8.49252C20.6992 8.92152 21.2246 9.23219 21.8014 9.3942C21.7063 10.7078 22.1538 12.0535 23.1458 13.058L25.3219 10.2252C25.4841 10.0625 25.7034 9.9714 25.9318 9.97196C26.1641 9.97196 26.3824 10.0636 26.5467 10.2298C26.6277 10.3114 26.6919 10.4084 26.7356 10.5153C26.7793 10.6221 26.8017 10.7367 26.8014 10.8524C26.8014 11.0876 26.7109 11.3086 26.5467 11.4749L27.3665 12.305C27.7497 11.917 27.9608 11.401 27.9608 10.8524C27.9608 10.4035 27.8194 9.97662 27.5582 9.62359C27.951 9.72938 28.3092 9.93847 28.5963 10.2297C29.5005 11.145 29.5005 12.6346 28.5963 13.55L29.4162 14.3801C30.0731 13.7149 30.4349 12.8305 30.4349 11.8899C30.4348 10.9492 30.073 10.0648 29.4161 9.39966Z" fill="#FFDA44"/>
</g>
<defs>
<clipPath id="clip0_6065_1111">
<rect width="40" height="27" fill="white"/>
</clipPath>
</defs>
</svg>
