<svg width="40" height="27" viewBox="0 0 40 27" fill="none" xmlns="http://www.w3.org/2000/svg">
<g clip-path="url(#clip0_6065_1105)">
<path d="M0 0.000305176H40V26.9997H0V0.000305176Z" fill="white"/>
<path d="M40 0.000305176V13.5H20L0 0.000305176H40Z" fill="#0052B4"/>
<path d="M40 13.5V26.9998H0L20 13.5H40Z" fill="#D80027"/>
<path d="M12.6491 13.5L10.5172 12.4848L11.6525 10.3943L9.3375 10.8426L9.04414 8.47486L7.43164 10.2163L5.81922 8.47486L5.52586 10.8426L3.21093 10.3942L4.34617 12.4847L2.21429 13.5L4.34617 14.5153L3.21093 16.6058L5.52601 16.1574L5.81922 18.5252L7.43164 16.7838L9.04414 18.5252L9.3375 16.1574L11.6524 16.6059L10.5171 14.5155L12.6491 13.5ZM1.70226 2.55292L2.41172 3.55719L3.57414 3.18431L2.85008 4.17782L3.55953 5.18194L2.40258 4.79181L1.67851 5.78525L1.68765 4.55063L0.530701 4.16034L1.6932 3.78761L1.70226 2.55292ZM1.70226 21.2148L2.41172 22.2191L3.57414 21.8462L2.85008 22.8397L3.55953 23.8439L2.40258 23.4537L1.67851 24.4471L1.68765 23.2125L0.530701 22.8222L1.6932 22.4495L1.70226 21.2148ZM16.4371 11.8839L15.7277 12.8881L14.5652 12.5153L15.2893 13.5087L14.5798 14.513L15.7368 14.1228L16.4609 15.1162L16.4517 13.8816L17.6087 13.4913L16.4462 13.1185L16.4371 11.8839Z" fill="#FFDA44"/>
</g>
<defs>
<clipPath id="clip0_6065_1105">
<rect width="40" height="27" fill="white"/>
</clipPath>
</defs>
</svg>
