<svg width="40" height="27" viewBox="0 0 40 27" fill="none" xmlns="http://www.w3.org/2000/svg">
<g clip-path="url(#clip0_6065_1098)">
<path d="M30.7428 6.73812L32.111 8.23116L33.9362 7.37521L32.9564 9.15396L34.3246 10.6471L32.351 10.2533L31.3713 12.0322L31.1313 10.01L29.1576 9.61623L30.9828 8.76035L30.7428 6.73812Z" fill="white"/>
<path d="M0 0.000793457H40V27.0002H0V0.000793457Z" fill="white"/>
<path d="M10 -0.000160217H40V27.0002H10V-0.000160217Z" fill="#01411C"/>
<path d="M28.2741 16.885C25.8494 18.659 22.4634 18.1068 20.7113 15.6517C18.9592 13.1965 19.5046 9.76818 21.9295 7.99433C22.6855 7.44125 23.535 7.11432 24.3993 7.00057C22.7366 6.74879 20.9792 7.12816 19.5088 8.20379C16.5245 10.3872 15.8532 14.6066 18.0095 17.6284C20.1659 20.65 24.3333 21.3297 27.3177 19.1462C28.788 18.0706 29.6955 16.5004 29.9815 14.8229C29.6034 15.6179 29.0302 16.3319 28.2741 16.885ZM28.1703 6.92582L29.5362 8.41625L31.3583 7.5618L30.3802 9.33739L31.7461 10.828L29.7759 10.435L28.7978 12.2108L28.5582 10.1921L26.5879 9.79903L28.41 8.94458L28.1703 6.92582Z" fill="white"/>
</g>
<defs>
<clipPath id="clip0_6065_1098">
<rect width="40" height="27" fill="white"/>
</clipPath>
</defs>
</svg>
