<svg width="40" height="27" viewBox="0 0 40 27" fill="none" xmlns="http://www.w3.org/2000/svg">
<g clip-path="url(#clip0_6065_1072)">
<path d="M0 0H40V27.0003H0V0Z" fill="#0052B4"/>
<path d="M31.3044 10.6383L30 11.0785L28.6956 10.6383L28.2609 9.53777L28.6956 8.43723H31.3044L30.8695 9.53777L31.3044 10.6383Z" fill="#ACABB1"/>
<path d="M26.9565 10.6383V15.4807C26.9565 17.8396 30 18.5622 30 18.5622C30 18.5622 33.0435 17.8395 33.0435 15.4807V10.6383H26.9565Z" fill="#338AF3"/>
<path d="M27.2308 16.6278C27.979 18.0822 30 18.5622 30 18.5622C30 18.5622 32.021 18.0822 32.7691 16.6278L30 11.959L27.2308 16.6278Z" fill="#6DA544"/>
<path d="M33.0435 15.4318L30 10.6383L26.9565 15.4318V15.4807C26.9565 15.9172 27.0609 16.2976 27.2309 16.6279L30 12.2665L32.7691 16.6279C32.9391 16.2976 33.0435 15.9173 33.0435 15.4807V15.4318Z" fill="#FFDA44"/>
<path d="M20 0V2.41679L16.4713 4.40216H20V9.09756H15.3826L20 11.6949V13.4997H17.9156L12.1739 10.2703V13.4997H7.82609V9.65752L0.995625 13.4997H0V11.0829L3.52867 9.09756H0V4.40216H4.61742L0 1.80399V0H2.08437L7.82609 3.22932V0H12.1739V3.84212L19.0044 0H20Z" fill="white"/>
<path d="M11.25 -0.000152588H8.75V5.48412H0V8.01538H8.75V13.4998H11.25V8.01538H20V5.48412H11.25V-0.000152588Z" fill="#D80027"/>
<path d="M12.1739 9.09756L20 13.4997V12.2549L14.3869 9.09756H12.1739Z" fill="#0052B4"/>
<path d="M12.1739 9.09756L20 13.4997V12.2549L14.3869 9.09756H12.1739Z" fill="white"/>
<path d="M12.1739 9.09756L20 13.4997V12.2549L14.387 9.09756H12.1739ZM5.61297 9.09756L0 12.2549V13.4997L7.82609 9.09756H5.61297Z" fill="#D80027"/>
<path d="M7.82609 4.40201L0 -0.000152588V1.24467L5.61305 4.40201H7.82609Z" fill="#0052B4"/>
<path d="M7.82609 4.40201L0 -0.000152588V1.24467L5.61305 4.40201H7.82609Z" fill="white"/>
<path d="M7.82609 4.40201L0 -0.000152588V1.24467L5.61305 4.40201H7.82609ZM14.387 4.40201L20 1.24467V-0.000152588L12.1739 4.40201H14.387Z" fill="#D80027"/>
</g>
<defs>
<clipPath id="clip0_6065_1072">
<rect width="40" height="27" fill="white"/>
</clipPath>
</defs>
</svg>
