<svg width="40" height="27" viewBox="0 0 40 27" fill="none" xmlns="http://www.w3.org/2000/svg">
<g clip-path="url(#clip0_6065_1055)">
<path d="M0 0.000305176H40V26.9997H0V0.000305176Z" fill="#D80027"/>
<path d="M15.3626 0.000305176V26.9997H0V0.000305176H15.3626Z" fill="#6DA544"/>
<path d="M15.3625 18.5626C18.124 18.5626 20.3625 16.296 20.3625 13.5001C20.3625 10.7041 18.124 8.43756 15.3625 8.43756C12.6011 8.43756 10.3625 10.7041 10.3625 13.5001C10.3625 16.296 12.6011 18.5626 15.3625 18.5626Z" fill="#FFDA44"/>
<path d="M12.5498 10.9688V14.133C12.5498 15.7057 13.809 16.9806 15.3623 16.9806C16.9156 16.9806 18.1748 15.7057 18.1748 14.133V10.9688H12.5498Z" fill="#D80027"/>
<path d="M15.3623 15.0821C14.8454 15.0821 14.4248 14.6563 14.4248 14.1329V12.8672H16.2999V14.1329C16.2998 14.6562 15.8792 15.0821 15.3623 15.0821Z" fill="white"/>
</g>
<defs>
<clipPath id="clip0_6065_1055">
<rect width="40" height="27" fill="white"/>
</clipPath>
</defs>
</svg>
