<svg width="40" height="27" viewBox="0 0 40 27" fill="none" xmlns="http://www.w3.org/2000/svg">
<g clip-path="url(#clip0_6065_1046)">
<path d="M0 0.000305176H40V26.9997H0V0.000305176Z" fill="white"/>
<path d="M0 0.000305176H40V9.00009H0V0.000305176Z" fill="#D80027"/>
<path d="M0 18H40V26.9998H0V18Z" fill="#0052B4"/>
<path d="M22.6234 10.3943L21.6396 11.3904C22.0591 11.8153 22.3187 12.4023 22.3187 13.0506C22.3187 14.3472 21.2805 15.3983 20 15.3983C18.7194 15.3983 17.6812 14.3471 17.6812 13.0506C17.6812 12.4023 17.9408 11.8153 18.3604 11.3904L17.3766 10.3943C16.7052 11.0741 16.2899 12.0132 16.2899 13.0505C16.2899 15.1252 17.9509 16.807 20 16.807C22.0491 16.807 23.7101 15.1252 23.7101 13.0505C23.7101 12.0133 23.2948 11.0741 22.6234 10.3943Z" fill="#6DA544"/>
<path d="M20 11.642L20.3454 12.7181H21.4629L20.5588 13.3832L20.9041 14.4593L20 13.7942L19.0959 14.4593L19.4413 13.3832L18.5371 12.7181H19.6546L20 11.642Z" fill="#FFDA44"/>
</g>
<defs>
<clipPath id="clip0_6065_1046">
<rect width="40" height="27" fill="white"/>
</clipPath>
</defs>
</svg>
