<svg width="40" height="27" viewBox="0 0 40 27" fill="none" xmlns="http://www.w3.org/2000/svg">
<g clip-path="url(#clip0_6065_1026)">
<path d="M0 -0.000183105H40V27.0001H0V-0.000183105Z" fill="#0052B4"/>
<path d="M0 -0.000183105H40V8.99961H0V-0.000183105Z" fill="#D80027"/>
<path d="M0 17.9995H40V26.9993H0V17.9995Z" fill="white"/>
<path d="M10.1147 7.63013V14.3645C10.1147 18.1953 15.0574 19.369 15.0574 19.369C15.0574 19.369 20 18.1952 20 14.3645V7.63013H10.1147Z" fill="#D80027"/>
<path d="M12.1589 8.80409H17.9558V6.45628L16.7964 7.04321L15.0572 5.28241L13.3183 7.04321L12.1589 6.45628V8.80409ZM18.8406 15.3021L15.0726 11.487L11.3045 15.3021L12.5343 16.5472L15.0726 13.9772L17.6108 16.5472L18.8406 15.3021Z" fill="#FFDA44"/>
<path d="M18.8406 11.7387H17.0825C17.1849 11.5606 17.2388 11.3581 17.2388 11.152C17.2388 10.5036 16.7197 9.97809 16.0794 9.97809C15.637 9.97809 15.2528 10.229 15.0573 10.5979C14.8618 10.2291 14.4776 9.97809 14.0352 9.97809C13.395 9.97809 12.8758 10.5036 12.8758 11.152C12.8758 11.366 12.9333 11.5661 13.0322 11.7387H11.3045C11.3045 12.387 11.8622 12.9126 12.5025 12.9126H12.4639C12.4639 13.5609 12.9829 14.0865 13.6233 14.0865C13.6233 14.6605 14.0304 15.1374 14.5681 15.2395L13.6545 17.3278C14.1048 17.5133 14.5863 17.6085 15.0724 17.6082C15.5585 17.6085 16.04 17.5133 16.4903 17.3278L15.5767 15.2395C16.1144 15.1374 16.5215 14.6605 16.5215 14.0865C17.1618 14.0865 17.6809 13.5609 17.6809 12.9126H17.6423C18.2829 12.9126 18.8406 12.387 18.8406 11.7387Z" fill="white"/>
</g>
<defs>
<clipPath id="clip0_6065_1026">
<rect width="40" height="27" fill="white"/>
</clipPath>
</defs>
</svg>
