<svg width="40" height="27" viewBox="0 0 40 27" fill="none" xmlns="http://www.w3.org/2000/svg">
<g clip-path="url(#clip0_6065_1016)">
<path d="M0 -0.00012207H40V27.0002H0V-0.00012207Z" fill="#338AF3"/>
<path d="M0 13.4995H40V19.9557H0V13.4995Z" fill="#FFDA44"/>
<path d="M0 19.9558H40V26.9993H0V19.9558Z" fill="#496E2D"/>
<path d="M21.7391 7.9003L23.3676 8.67581L22.5005 10.2726L24.2686 9.93004L24.4927 11.7387L25.7243 10.4085L26.956 11.7387L27.18 9.93004L28.9482 10.2726L28.0811 8.67581L29.7094 7.9003L28.081 7.1247L28.9482 5.52804L27.18 5.87047L26.9559 4.06189L25.7243 5.39206L24.4926 4.06189L24.2686 5.87047L22.5003 5.52804L23.3675 7.12486L21.7391 7.9003Z" fill="#FFDA44"/>
</g>
<defs>
<clipPath id="clip0_6065_1016">
<rect width="40" height="27" fill="white"/>
</clipPath>
</defs>
</svg>
