<svg width="40" height="27" viewBox="0 0 40 27" fill="none" xmlns="http://www.w3.org/2000/svg">
<g clip-path="url(#clip0_6065_1010)">
<path d="M0 0H40V27H0V0Z" fill="#055E1C"/>
<path d="M14.3397 16.1409C14.3397 17.1135 15.0999 17.9018 16.0378 17.9018H21.1322C21.1322 18.7121 21.7658 19.3692 22.5473 19.3692H24.2455C25.027 19.3692 25.6606 18.7122 25.6606 17.9018V16.1409H14.3397ZM25.8019 7.62999V11.7387C25.8019 12.386 25.2941 12.9126 24.6698 12.9126V14.6734C26.2304 14.6734 27.4999 13.3569 27.4999 11.7387V7.62999H25.8019ZM13.6321 11.7388C13.6321 12.386 13.1243 12.9126 12.5 12.9126V14.6735C14.0606 14.6735 15.3302 13.357 15.3302 11.7388V7.63007H13.632V11.7388H13.6321Z" fill="white"/>
<path d="M23.2548 7.62975H24.9529V11.7384H23.2548V7.62975ZM20.7076 9.97788C20.7076 10.1397 20.5807 10.2713 20.4246 10.2713C20.2685 10.2713 20.1415 10.1397 20.1415 9.97788V7.62999H18.4434V9.97788C18.4434 10.1397 18.3165 10.2713 18.1604 10.2713C18.0043 10.2713 17.8773 10.1397 17.8773 9.97788V7.62999H16.1792V9.97788C16.1792 11.1106 17.0679 12.0322 18.1603 12.0322C18.581 12.0322 18.9712 11.8951 19.2924 11.6623C19.6135 11.8951 20.0038 12.0322 20.4245 12.0322C20.5092 12.0322 20.5925 12.0261 20.6745 12.0152C20.5542 12.5293 20.1077 12.9126 19.5754 12.9126V14.6735C21.1361 14.6735 22.4056 13.357 22.4056 11.7388V7.62999H20.7075L20.7076 9.97788Z" fill="white"/>
<path d="M16.1792 12.9123H18.7262V14.6732H16.1792V12.9123Z" fill="white"/>
</g>
<defs>
<clipPath id="clip0_6065_1010">
<rect width="40" height="27" fill="white"/>
</clipPath>
</defs>
</svg>
