<svg width="40" height="27" viewBox="0 0 40 27" fill="none" xmlns="http://www.w3.org/2000/svg">
<g clip-path="url(#clip0_6065_1004)">
<path d="M0 7.62939e-05H40V27.0004H0V7.62939e-05Z" fill="#496E2D"/>
<path d="M0 26.9998V-0.000320435H40" fill="#0052B4"/>
<path d="M0 24.6133V26.9998H3.53555L40 2.38618V-0.000320435H36.4645L0 24.6133Z" fill="#FFDA44"/>
<path d="M6.69438 1.85526L7.09437 3.10158H8.38859L7.34148 3.87179L7.74148 5.1182L6.69438 4.34791L5.64711 5.1182L6.04711 3.87179L5 3.10158H6.2943L6.69438 1.85526ZM13.3056 1.85526L13.7057 3.10158H15L13.9529 3.87179L14.3529 5.1182L13.3056 4.34791L12.2585 5.1182L12.6585 3.87179L11.6114 3.10158H12.9056L13.3056 1.85526ZM6.69438 8.3813L7.09437 9.62762H8.38859L7.34148 10.3979L7.74148 11.6443L6.69438 10.8739L5.64711 11.6443L6.04711 10.3979L5 9.62762H6.2943L6.69438 8.3813ZM13.3056 8.3813L13.7057 9.62762H15L13.9529 10.3979L14.3529 11.6443L13.3056 10.8739L12.2585 11.6443L12.6585 10.3979L11.6114 9.62762H12.9056L13.3056 8.3813ZM10 5.1182L10.4 6.36452H11.6944L10.6471 7.13482L11.0471 8.3813L10 7.61093L8.95289 8.3813L9.35289 7.13482L8.30562 6.36452H9.6L10 5.1182Z" fill="white"/>
</g>
<defs>
<clipPath id="clip0_6065_1004">
<rect width="40" height="27" fill="white"/>
</clipPath>
</defs>
</svg>
