<svg width="40" height="27" viewBox="0 0 40 27" fill="none" xmlns="http://www.w3.org/2000/svg">
<g clip-path="url(#clip0_6065_984)">
<path d="M0 0.000305176H40V26.9997H0V0.000305176Z" fill="white"/>
<path d="M0 0.000305176H40V13.5H0V0.000305176Z" fill="#D80027"/>
<path d="M6.52178 6.74999C6.52178 4.78313 7.88709 3.14003 9.71022 2.73685C9.42461 2.67345 9.13308 2.64141 8.84068 2.6413C6.59943 2.6413 4.78271 4.48073 4.78271 6.74991C4.78271 9.0191 6.59951 10.8586 8.84068 10.8586C9.13928 10.8586 9.42998 10.825 9.71022 10.7631C7.88709 10.36 6.52178 8.71694 6.52178 6.74999ZM11.7392 2.93484L12.027 3.83162H12.9583L12.2048 4.38588L12.4926 5.28266L11.7392 4.72847L10.9857 5.28266L11.2736 4.38588L10.5201 3.83162H11.4514L11.7392 2.93484Z" fill="white"/>
<path d="M9.48001 4.69574L9.76774 5.59252H10.6991L9.94555 6.14678L10.2334 7.04356L9.48001 6.48937L8.72649 7.04356L9.01438 6.14678L8.26086 5.59252H9.19219L9.48001 4.69574ZM13.9983 4.69574L14.2861 5.59252H15.2174L14.4639 6.14678L14.7517 7.04356L13.9983 6.48937L13.2448 7.04356L13.5327 6.14678L12.7792 5.59252H13.7106L13.9983 4.69574ZM13.1287 7.33702L13.4165 8.2338H14.3478L13.5944 8.78806L13.8822 9.68484L13.1287 9.13065L12.3753 9.68484L12.6631 8.78806L11.9097 8.2338H12.8409L13.1287 7.33702ZM10.3495 7.33702L10.6373 8.2338H11.5686L10.8152 8.78806L11.103 9.68484L10.3495 9.13065L9.5961 9.68484L9.88391 8.78806L9.13047 8.2338H10.0617L10.3495 7.33702Z" fill="white"/>
</g>
<defs>
<clipPath id="clip0_6065_984">
<rect width="40" height="27" fill="white"/>
</clipPath>
</defs>
</svg>
