<svg width="40" height="27" viewBox="0 0 40 27" fill="none" xmlns="http://www.w3.org/2000/svg">
<g clip-path="url(#clip0_6065_968)">
<path d="M0 0H40V27H0V0Z" fill="#0052B4"/>
<path d="M20 0V9.28743H16.3984L20 11.7161V13.504H18.2344L12.5 9.63551V13.504H7.5V9.63551L1.76562 13.504H0V11.7161L3.60156 9.28743H0V4.22444H3.60156L0 1.79578V0H1.76562L7.5 3.86844V0H12.5V3.86844L18.2344 0H20Z" fill="white"/>
<path d="M11.25 0H8.75V5.49018H0V8.02168H8.75V13.504H11.25V8.02168H20V5.49018H11.25V0Z" fill="#D80027"/>
<path d="M0 0V1.19455L4.48438 4.22444H6.25L0 0ZM20 0V1.19455L15.5156 4.22444H13.75L20 0Z" fill="#D80027"/>
<path d="M20 1.79578V4.22443H16.3984L20 1.79578Z" fill="#2E52B2"/>
<path d="M0 0V1.19455L4.48438 4.22444H6.25L0 0ZM20 0V1.19455L15.5156 4.22444H13.75L20 0Z" fill="#D80027"/>
<path d="M20 1.79578V4.22443H16.3984L20 1.79578Z" fill="#2E52B2"/>
<path d="M0 13.504V12.3094L4.48438 9.28745H6.25L0 13.504ZM20 13.504V12.3094L15.5156 9.28745H13.75L20 13.504Z" fill="#D80027"/>
<path d="M35.0781 11.0516C35.0703 14.564 34.5156 18.3375 30 20.1412C25.4844 18.3375 24.9297 14.564 24.9219 11.0516H35.0781Z" fill="#29DBFF"/>
<path d="M35.0781 11.0516C35.0781 9.73046 35.0078 8.44889 35.0391 7.32553C33.3516 6.56609 31.125 6.40787 29.9922 6.40787C28.8594 6.40787 26.6406 6.56609 24.9453 7.32553C24.9766 8.44889 24.9062 9.73046 24.9062 11.0516H35.0781Z" fill="#FFDA44"/>
<path d="M28.8672 16.1779L28.8906 16.9927L27.8906 17.0085L28.2734 18.0527H26.9219C25.5156 16.4547 25.0937 14.6985 24.9766 12.6654L25.6875 11.898L26.3359 13.0293L27.1797 12.0167L27.7266 12.6338L27.7891 13.8758L28.8672 16.1779Z" fill="#BF521B"/>
<path d="M34.1094 15.2285L33.4375 16.6762H29.7656L27.4844 15.1336L29.4922 15.9643H31.4531L31.7422 15.45L32.3047 15.4659L32.4609 15.2285H34.1094Z" fill="currentColor"/>
</g>
<defs>
<clipPath id="clip0_6065_968">
<rect width="40" height="27" fill="white"/>
</clipPath>
</defs>
</svg>
