<svg width="40" height="27" viewBox="0 0 40 27" fill="none" xmlns="http://www.w3.org/2000/svg">
<g clip-path="url(#clip0_6065_961)">
<path d="M0 0.000305176H40V26.9997H0V0.000305176Z" fill="white"/>
<path d="M0 9.00012H40V17.9999H0V9.00012Z" fill="#0052B4"/>
<path d="M0 18H40V26.9998H0V18Z" fill="#D80027"/>
<path d="M18.2505 8.80447V9.9781C18.2505 12.674 14.7722 13.4999 14.7722 13.4999C14.7722 13.4999 11.2939 12.674 11.2939 9.9781V8.80447L11.2826 5.30913L18.2391 5.28809L18.2505 8.80447Z" fill="white"/>
<path d="M18.2505 8.80447V9.9781C18.2505 12.674 14.7722 13.4999 14.7722 13.4999C14.7722 13.4999 11.2939 12.674 11.2939 9.9781V8.80447L11.2826 5.30913L18.2391 5.28809L18.2505 8.80447Z" fill="#0052B4"/>
<path d="M18.2505 8.80448V9.97811C18.2505 12.674 14.7722 13.4999 14.7722 13.4999C14.7722 13.4999 11.2939 12.674 11.2939 9.97811V8.80448L12.4539 9.97811L14.7722 8.21722L17.0914 9.97811L18.2505 8.80448Z" fill="white"/>
</g>
<defs>
<clipPath id="clip0_6065_961">
<rect width="40" height="27" fill="white"/>
</clipPath>
</defs>
</svg>
