<svg width="40" height="27" viewBox="0 0 40 27" fill="none" xmlns="http://www.w3.org/2000/svg">
<g clip-path="url(#clip0_6065_949)">
<path d="M0 0.000305176H40V26.9997H0V0.000305176Z" fill="white"/>
<path d="M0 8.80463H40V18.1953H0V8.80463Z" fill="#0052B4"/>
<path d="M0 18.1954H40V26.9998H0V18.1954Z" fill="#D80027"/>
<path d="M10.1147 7.63062V14.365C10.1147 18.1958 15.0574 19.3695 15.0574 19.3695C15.0574 19.3695 20 18.1957 20 14.365V7.63062H10.1147Z" fill="white"/>
<path d="M11.4161 7.828V14.3097C11.4161 14.7425 11.511 15.1513 11.6992 15.5346H18.4156C18.6037 15.1514 18.6986 14.7426 18.6986 14.3097V7.828H11.4161Z" fill="#D80027"/>
<path d="M17.2892 12.3473H15.6153V11.2175H16.7313V10.0877H15.6153V8.95776H14.4995V10.0877H13.3837V11.2175H14.4995V12.3473H12.8256V13.4772H14.4995V14.607H15.6153V13.4772H17.2892V12.3473Z" fill="white"/>
<path d="M13.2212 17.1117C13.9403 17.5691 14.6791 17.8349 15.0573 17.953C15.4356 17.8348 16.1744 17.5692 16.8934 17.1117C17.6186 16.6503 18.127 16.1224 18.4156 15.5344C18.0864 15.2981 17.6927 15.1714 17.2892 15.1719C17.1364 15.1719 16.988 15.1903 16.8453 15.2239C16.5429 14.5281 15.8564 14.0421 15.0575 14.0421C14.2585 14.0421 13.5721 14.5281 13.2697 15.2239C13.1242 15.1895 12.9752 15.172 12.8258 15.1719C12.4222 15.1714 12.0286 15.2981 11.6994 15.5344C11.9877 16.1224 12.4961 16.6503 13.2212 17.1117Z" fill="#0052B4"/>
</g>
<defs>
<clipPath id="clip0_6065_949">
<rect width="40" height="27" fill="white"/>
</clipPath>
</defs>
</svg>
