<svg width="40" height="27" viewBox="0 0 40 27" fill="none" xmlns="http://www.w3.org/2000/svg">
<g clip-path="url(#clip0_6065_937)">
<path d="M0 0.000549316H40V27H0V0.000549316Z" fill="#338AF3"/>
<path d="M40 6.10352e-05V13.1855L0 13.5139V6.10352e-05H40Z" fill="white"/>
<path d="M25.2925 9.31549L20 14.6742L14.7075 9.31549C13.9993 10.3782 13.6217 11.6313 13.6232 12.9133V14.6742C13.6232 17.5016 15.4276 19.9101 17.9316 20.7818C17.5975 21.4451 17.6538 22.2727 18.1435 22.8915L20.0386 21.3539L21.9338 22.8915C22.4293 22.2655 22.4815 21.4255 22.1341 20.7583C24.604 19.8676 26.3769 17.4768 26.3769 14.6742V12.9133C26.3783 11.6313 26.0006 10.3782 25.2925 9.31549Z" fill="#6DA544"/>
<path d="M20 19.3699C17.4428 19.3699 15.3624 17.2634 15.3624 14.6742V12.9134C15.3624 10.3241 17.4428 8.21765 20 8.21765C22.5572 8.21765 24.6377 10.3241 24.6377 12.9133V14.6742C24.6377 17.2634 22.5572 19.3699 20 19.3699Z" fill="#FFDA44"/>
<path d="M22.8985 14.6741V12.9133C22.8985 11.295 21.5983 9.97852 20 9.97852C18.4017 9.97852 17.1015 11.295 17.1015 12.9133V14.6741L20 15.2612L22.8985 14.6741Z" fill="#338AF3"/>
<path d="M17.1015 14.6741C17.1015 16.2924 18.4017 17.6089 20 17.6089C21.5983 17.6089 22.8985 16.2924 22.8985 14.6741H17.1015Z" fill="#6DA544"/>
<path d="M23.4783 8.2176C23.4783 7.24505 22.6997 6.45672 21.7391 6.45672C21.3112 6.45615 20.8982 6.61597 20.5798 6.90539V5.86971H21.1595V4.69584H20.5798V4.10883H19.4204V4.69584H18.8406V5.86971H19.4204V6.90539C19.1019 6.61598 18.6889 6.45616 18.2609 6.45672C17.3004 6.45672 16.5218 7.24505 16.5218 8.2176C16.5218 8.73896 16.7458 9.20732 17.1016 9.52982V10.5655H22.8987V9.52982C23.2543 9.20732 23.4783 8.73904 23.4783 8.2176Z" fill="#FFDA44"/>
</g>
<defs>
<clipPath id="clip0_6065_937">
<rect width="40" height="27" fill="white"/>
</clipPath>
</defs>
</svg>
