<svg width="40" height="27" viewBox="0 0 40 27" fill="none" xmlns="http://www.w3.org/2000/svg">
<g clip-path="url(#clip0_6065_910)">
<path d="M0 0.000320435H40V26.9998H0V0.000320435Z" fill="#FFDA44"/>
<path d="M0 0.000320435H40V9.00011H0V0.000320435ZM0 18H40V26.9998H0V18Z" fill="#6DA544"/>
<path d="M20 13.5005L0 27.0002V-0.000152588L20 13.5005Z" fill="#D80027"/>
<path d="M23.5976 11.1521L24.1732 12.9457H26.0358L24.529 14.0544L25.1044 15.8479L23.5976 14.7393L22.0908 15.8479L22.6662 14.0544L21.1594 12.9457H23.022L23.5976 11.1521ZM29.3947 11.1521L29.9702 12.9457H31.8329L30.326 14.0544L30.9016 15.8479L29.3947 14.7393L27.8878 15.8479L28.4633 14.0544L26.9565 12.9457H28.8191L29.3947 11.1521Z" fill="black"/>
</g>
<defs>
<clipPath id="clip0_6065_910">
<rect width="40" height="27" fill="white"/>
</clipPath>
</defs>
</svg>
