<svg width="40" height="27" viewBox="0 0 40 27" fill="none" xmlns="http://www.w3.org/2000/svg">
<g clip-path="url(#clip0_6065_903)">
<path d="M0 0.000305176H40V26.9997H0V0.000305176Z" fill="white"/>
<path d="M0 0.000305176H40V9.00009H0V0.000305176ZM0 18H40V26.9997H0V18Z" fill="#0052B4"/>
<path d="M17.858 13.9696L20 10.2131L22.142 13.9696H17.858Z" fill="#FFDA44"/>
<path d="M22.7825 15.2099L20 16.6186L17.2175 15.2099V13.3317H22.7825V15.2099Z" fill="#6DA544"/>
<path d="M22.6234 10.3743L21.6396 11.3704C22.0591 11.7953 22.3187 12.3822 22.3187 13.0306C22.3187 14.3272 21.2805 15.3783 20 15.3783C18.7194 15.3783 17.6812 14.3271 17.6812 13.0306C17.6812 12.3823 17.9408 11.7953 18.3604 11.3704L17.3766 10.3743C16.7052 11.0541 16.2899 11.9932 16.2899 13.0305C16.2899 15.1052 17.9509 16.7869 20 16.7869C22.0491 16.7869 23.7101 15.1052 23.7101 13.0305C23.7101 11.9931 23.2948 11.054 22.6234 10.3743Z" fill="#FFDA44"/>
</g>
<defs>
<clipPath id="clip0_6065_903">
<rect width="40" height="27" fill="white"/>
</clipPath>
</defs>
</svg>
