<svg width="40" height="27" viewBox="0 0 40 27" fill="none" xmlns="http://www.w3.org/2000/svg">
<g clip-path="url(#clip0_6065_893)">
<path d="M0 0.000183105H40V26.9996H0V0.000183105Z" fill="#0052B4"/>
<path d="M40 -9.15527e-05V13.1854L0 13.5138V-9.15527e-05H40Z" fill="#D80027"/>
<path d="M20 13.5006L0 27.0002V-9.15527e-05L20 13.5006Z" fill="white"/>
<path d="M4.6579 13.5001C4.6483 13.6203 4.64327 13.7409 4.64282 13.8616C4.64282 16.4578 6.72149 18.5625 9.28571 18.5625C11.8499 18.5625 13.9286 16.4578 13.9286 13.8616C13.9286 13.7398 13.9225 13.6194 13.9135 13.5001H4.6579Z" fill="#FFDA44"/>
<path d="M9.28608 11.3305C10.0751 11.3305 10.7147 10.6829 10.7147 9.88407C10.7147 9.08522 10.0751 8.43762 9.28608 8.43762C8.49709 8.43762 7.85748 9.08522 7.85748 9.88407C7.85748 10.6829 8.49709 11.3305 9.28608 11.3305Z" fill="#FFDA44"/>
<path d="M6.07147 9.52234V14.2233C6.07147 16.7145 9.28585 17.4777 9.28585 17.4777C9.28585 17.4777 12.5002 16.7145 12.5002 14.2233V9.52234H6.07147Z" fill="#D80027"/>
<path d="M9.28725 15.9639C8.691 15.7467 7.50006 15.1913 7.50006 14.2232V10.9686H11.0715V14.2232C11.0715 15.1946 9.88061 15.7485 9.28725 15.9639Z" fill="#338AF3"/>
<path d="M10.0001 12.7767V12.0536L9.28568 11.692L8.57146 12.0536V12.7767L8.21436 13.1385V14.5848H10.3572V13.1385L10.0001 12.7767Z" fill="#F3F3F3"/>
</g>
<defs>
<clipPath id="clip0_6065_893">
<rect width="40" height="27" fill="white"/>
</clipPath>
</defs>
</svg>
