<svg width="40" height="27" viewBox="0 0 40 27" fill="none" xmlns="http://www.w3.org/2000/svg">
<g clip-path="url(#clip0_6065_887)">
<path d="M0 -0.000152588H40V27.0002H0V-0.000152588Z" fill="white"/>
<path d="M0 -0.000152588H40V8.99964H0V-0.000152588Z" fill="#D80027"/>
<path d="M0 17.9995H40V26.9993H0V17.9995Z" fill="black"/>
<path d="M14.6336 10.2714L15.353 12.5132H17.6813L15.7977 13.8989L16.5171 16.1408L14.6336 14.7553L12.75 16.1408L13.4695 13.8989L11.5859 12.5132H13.9141L14.6336 10.2714ZM25.3664 10.2714L26.0859 12.5132H28.4141L26.5305 13.8989L27.25 16.1408L25.3664 14.7553L23.4829 16.1408L24.2023 13.8989L22.3187 12.5132H24.647L25.3664 10.2714Z" fill="#6DA544"/>
</g>
<defs>
<clipPath id="clip0_6065_887">
<rect width="40" height="27" fill="white"/>
</clipPath>
</defs>
</svg>
