<svg width="40" height="27" viewBox="0 0 40 27" fill="none" xmlns="http://www.w3.org/2000/svg">
<g clip-path="url(#clip0_6065_859)">
<path d="M0 0H40V27H0V0Z" fill="#0052B4"/>
<path d="M20 0V9.28743H16.3984L20 11.7161V13.504H18.2344L12.5 9.63551V13.504H7.5V9.63551L1.76562 13.504H0V11.7161L3.60156 9.28743H0V4.22444H3.60156L0 1.79578V0H1.76562L7.5 3.86844V0H12.5V3.86844L18.2344 0H20Z" fill="white"/>
<path d="M11.25 0H8.75V5.49018H0V8.02168H8.75V13.504H11.25V8.02168H20V5.49018H11.25V0Z" fill="#D80027"/>
<path d="M0 0V1.19455L4.48438 4.22444H6.25L0 0ZM20 0V1.19455L15.5156 4.22444H13.75L20 0Z" fill="#D80027"/>
<path d="M20 1.79578V4.22443H16.3984L20 1.79578Z" fill="#2E52B2"/>
<path d="M0 0V1.19455L4.48438 4.22444H6.25L0 0ZM20 0V1.19455L15.5156 4.22444H13.75L20 0Z" fill="#D80027"/>
<path d="M20 1.79578V4.22443H16.3984L20 1.79578Z" fill="#2E52B2"/>
<path d="M0 13.504V12.3094L4.48438 9.28743H6.25L0 13.504ZM20 13.504V12.3094L15.5156 9.28743H13.75L20 13.504Z" fill="#D80027"/>
<path d="M35.0703 13.409C35.0703 14.1685 35.0469 15.7507 34.9609 16.5101C34.6406 19.271 33.125 21.9528 30.1094 23.3056C26.5703 21.8895 25.3594 19.271 25.0391 16.5101C24.9531 15.7507 24.9219 14.9754 24.9219 14.2159L24.9453 10.4899H35.0391L35.0703 13.409Z" fill="#29DBFF"/>
<path d="M34.9609 16.5101C34.9453 16.6367 34.9297 16.7712 34.9141 16.8977C34.5391 19.5163 33.125 22.0715 30.1094 23.3056C26.7344 21.9607 25.4688 19.5163 25.0938 16.8977C25.0781 16.7712 25.0625 16.6446 25.0469 16.5101" fill="white"/>
<path d="M30.1094 19.9118L28.3203 16.5101H31.8984L30.1094 19.9118Z" fill="#29DBFF"/>
<path d="M30.1094 13.1163L28.3203 16.5101H31.8984L30.1094 13.1163Z" fill="white"/>
<path d="M37.0937 22.1585C37.8186 22.1585 38.4062 20.6249 38.4062 18.7331C38.4062 16.8413 37.8186 15.3076 37.0937 15.3076C36.3689 15.3076 35.7812 16.8413 35.7812 18.7331C35.7812 20.6249 36.3689 22.1585 37.0937 22.1585Z" fill="#FFBE57"/>
<path d="M23.0703 22.1585C23.7952 22.1585 24.3828 20.6249 24.3828 18.7331C24.3828 16.8413 23.7952 15.3076 23.0703 15.3076C22.3454 15.3076 21.7578 16.8413 21.7578 18.7331C21.7578 20.6249 22.3454 22.1585 23.0703 22.1585Z" fill="#FFBE57"/>
<path d="M30.1094 2.49194L27.5 5.97275H32.8516L30.1094 2.49194ZM24.6484 22.1506C24.6484 22.1506 27.2891 24.4843 30.1094 24.4843C32.9297 24.4843 35.3516 22.1506 35.3516 22.1506L36.0156 23.3056C36.0156 23.3056 34.3125 25.7896 30.1094 25.7896C25.9062 25.7896 23.9844 23.3056 23.9844 23.3056L24.6484 22.1506Z" fill="white"/>
<path d="M30.1797 10.0943C31.6596 10.0943 32.8594 9.2691 32.8594 8.2511C32.8594 7.2331 31.6596 6.40785 30.1797 6.40785C28.6997 6.40785 27.5 7.2331 27.5 8.2511C27.5 9.2691 28.6997 10.0943 30.1797 10.0943Z" fill="#A5A5A5"/>
</g>
<defs>
<clipPath id="clip0_6065_859">
<rect width="40" height="27" fill="white"/>
</clipPath>
</defs>
</svg>
