<svg width="40" height="27" viewBox="0 0 40 27" fill="none" xmlns="http://www.w3.org/2000/svg">
<g clip-path="url(#clip0_6065_842)">
<path d="M0 0H40V27.0003H0V0Z" fill="#0052B4"/>
<path d="M25.942 8.43719V14.6246C25.942 17.6386 30 18.5622 30 18.5622C30 18.5622 34.058 17.6387 34.058 14.6246V8.43719H25.942Z" fill="#FFDA44"/>
<path d="M29.4202 10.6872C29.4202 11.3085 28.9012 12.9372 28.2609 12.9372C27.6206 12.9372 27.1015 11.3086 27.1015 10.6872C27.1015 10.0658 28.2609 9.56219 28.2609 9.56219C28.2609 9.56219 29.4202 10.0658 29.4202 10.6872Z" fill="#FF9811"/>
<path d="M32.497 11.9125C32.684 11.4695 32.8295 10.822 32.8295 10.4997C32.8295 9.98191 32.1339 9.56219 32.1339 9.56219C32.1339 9.56219 31.4383 9.98191 31.4383 10.4997C31.4383 10.822 31.5837 11.4695 31.7709 11.9125L31.3692 12.7923C31.613 12.8884 31.8723 12.9375 32.1339 12.9371C32.4045 12.9371 32.6625 12.8854 32.8986 12.7923L32.497 11.9125Z" fill="#A2001D"/>
<path d="M29.1305 14.6246C29.1305 14.6246 28.5507 15.7496 28.5507 16.8747H31.4492C31.4492 15.7497 30.8695 14.6246 30.8695 14.6246L29.9999 14.0621L29.1305 14.6246Z" fill="#6DA544"/>
<path d="M30.8695 14.6246V14.3434C30.8695 13.8774 30.4802 13.4997 30 13.4997C29.5198 13.4997 29.1305 13.8775 29.1305 14.3434V14.6246H30.8695Z" fill="#D80027"/>
<path d="M20 0V2.41679L16.4713 4.40216H20V9.09756H15.3826L20 11.6949V13.4997H17.9156L12.1739 10.2703V13.4997H7.82609V9.65752L0.995625 13.4997H0V11.0829L3.52867 9.09756H0V4.40216H4.61742L0 1.80399V0H2.08437L7.82609 3.22932V0H12.1739V3.84212L19.0044 0H20Z" fill="white"/>
<path d="M11.25 -0.000244141H8.75V5.48403H0V8.01528H8.75V13.4997H11.25V8.01528H20V5.48403H11.25V-0.000244141Z" fill="#D80027"/>
<path d="M12.1739 9.09753L20 13.4997V12.2549L14.387 9.09753H12.1739Z" fill="#0052B4"/>
<path d="M12.1739 9.09753L20 13.4997V12.2549L14.387 9.09753H12.1739Z" fill="white"/>
<path d="M12.1739 9.09753L20 13.4997V12.2549L14.387 9.09753H12.1739ZM5.61297 9.09753L0 12.2549V13.4997L7.82609 9.09753H5.61297Z" fill="#D80027"/>
<path d="M7.82609 4.40192L0 -0.000244141V1.24458L5.61305 4.40192H7.82609Z" fill="#0052B4"/>
<path d="M7.82609 4.40192L0 -0.000244141V1.24458L5.61305 4.40192H7.82609Z" fill="white"/>
<path d="M7.82609 4.40192L0 -0.000244141V1.24458L5.61305 4.40192H7.82609ZM14.387 4.40192L20 1.24458V-0.000244141L12.1739 4.40192H14.387Z" fill="#D80027"/>
</g>
<defs>
<clipPath id="clip0_6065_842">
<rect width="40" height="27" fill="white"/>
</clipPath>
</defs>
</svg>
