<svg width="40" height="27" viewBox="0 0 40 27" fill="none" xmlns="http://www.w3.org/2000/svg">
<g clip-path="url(#clip0_6065_831)">
<path d="M0 0H37.3333V27H0V0Z" fill="white"/>
<path d="M0 0H40V27H0V0Z" fill="#073AB6"/>
<path d="M0 0H20.0889V13.5H0V0Z" fill="white"/>
<path d="M12.6222 0H19.0222V12.6H12.6222V0Z" fill="#F44653"/>
<path d="M0 0H6.4V12.6H0V0Z" fill="#1035BB"/>
<path d="M6.39996 0H12.8V12.6H6.39996V0ZM25.7777 10.8H34.6666L33.7777 12.6H31.1111V13.5H32.8888L32 15.3H31.1111V18H29.3333V12.6H26.6666L25.7777 10.8ZM32.8888 15.3L34.6666 18H31.1111L32.8888 15.3ZM27.5555 15.3L29.3333 18H25.7777L27.5555 15.3ZM30.2222 20.7L28.4444 18H32L30.2222 20.7ZM35.5555 14.4C35.0222 14.4 34.6666 14.04 34.6666 13.5C34.6666 12.96 35.0222 12.6 35.5555 12.6C36.0888 12.6 36.4444 12.96 36.4444 13.5C36.4444 14.04 36.0888 14.4 35.5555 14.4ZM24.8888 14.4C24.3555 14.4 24 14.04 24 13.5C24 12.96 24.3555 12.6 24.8888 12.6C25.4222 12.6 25.7777 12.96 25.7777 13.5C25.7777 14.04 25.4222 14.4 24.8888 14.4ZM26.6666 21.6C26.1333 21.6 25.7777 21.24 25.7777 20.7C25.7777 20.16 26.1333 19.8 26.6666 19.8C27.2 19.8 27.5555 20.16 27.5555 20.7C27.5555 21.24 27.2 21.6 26.6666 21.6ZM33.7777 21.6C33.2444 21.6 32.8888 21.24 32.8888 20.7C32.8888 20.16 33.2444 19.8 33.7777 19.8C34.3111 19.8 34.6666 20.16 34.6666 20.7C34.6666 21.24 34.3111 21.6 33.7777 21.6ZM30.2222 23.4C29.6888 23.4 29.3333 23.04 29.3333 22.5C29.3333 21.96 29.6888 21.6 30.2222 21.6C30.7555 21.6 31.1111 21.96 31.1111 22.5C31.1111 23.04 30.7555 23.4 30.2222 23.4Z" fill="white"/>
</g>
<defs>
<clipPath id="clip0_6065_831">
<rect width="40" height="27" fill="white"/>
</clipPath>
</defs>
</svg>
