<svg width="40" height="27" viewBox="0 0 40 27" fill="none" xmlns="http://www.w3.org/2000/svg">
<g clip-path="url(#clip0_6065_814)">
<path d="M0 0.000305176H40V26.9997H0V0.000305176Z" fill="white"/>
<path d="M0 0.000305176H40V9.00009H0V0.000305176Z" fill="#D80027"/>
<path d="M0 18H40V26.9998H0V18Z" fill="#6DA544"/>
<path d="M17.6811 17.0218H22.3189V15.0261L21.3913 15.4957L20 14.0871L18.6087 15.4957L17.6811 15.0261V17.0218ZM15.0277 14.6739L15.2436 15.3466H15.942L15.3769 15.7623L15.5928 16.4348L15.0277 16.0191L14.4626 16.4348L14.6784 15.7623L14.1133 15.3466H14.8118L15.0277 14.6739ZM15.6969 12.3262L15.9128 12.9987H16.6112L16.0462 13.4144L16.262 14.0871L15.6969 13.6713L15.1318 14.0871L15.3476 13.4144L14.7826 12.9987H15.481L15.6969 12.3262ZM17.6101 10.5653L17.8259 11.2378H18.5244L17.9593 11.6535L18.1751 12.3262L17.6101 11.9104L17.0449 12.3262L17.2608 11.6535L16.6957 11.2378H17.3941L17.6101 10.5653ZM24.9722 14.6739L24.7564 15.3466H24.058L24.623 15.7623L24.4072 16.4348L24.9722 16.0191L25.5374 16.4348L25.3215 15.7623L25.8866 15.3466H25.1882L24.9722 14.6739ZM24.303 12.3262L24.0872 12.9987H23.3887L23.9538 13.4144L23.738 14.0871L24.303 13.6713L24.8682 14.0871L24.6523 13.4144L25.2174 12.9987H24.519L24.303 12.3262ZM22.3899 10.5653L22.174 11.2378H21.4756L22.0407 11.6535L21.8248 12.3262L22.3899 11.9104L22.9551 12.3262L22.7392 11.6535L23.3043 11.2378H22.6058L22.3899 10.5653ZM20 9.68475L20.2158 10.3574H20.9144L20.3492 10.7731L20.5651 11.4456L20 11.03L19.4349 11.4456L19.6508 10.7731L19.0856 10.3574H19.7841L20 9.68475Z" fill="#FFDA44"/>
</g>
<defs>
<clipPath id="clip0_6065_814">
<rect width="40" height="27" fill="white"/>
</clipPath>
</defs>
</svg>
