<svg width="40" height="27" viewBox="0 0 40 27" fill="none" xmlns="http://www.w3.org/2000/svg">
<g clip-path="url(#clip0_6065_808)">
<path d="M0 0.000366211H40V26.9998H0V0.000366211Z" fill="#0052B4"/>
<path d="M16.4621 7.0435L16.75 7.94035H17.6811L16.9278 8.49454L17.2156 9.39131L16.4621 8.83705L15.7087 9.39131L15.9965 8.49454L15.243 7.94035H16.1743L16.4621 7.0435ZM9.12628 15.5544L9.48604 16.6754H10.6501L9.70831 17.3681L10.0682 18.4892L9.12628 17.7963L8.18448 18.4892L8.54417 17.3681L7.60245 16.6754H8.76644L9.12628 15.5544ZM11.3044 2.7168L11.6641 3.83783H12.8282L11.8864 4.5306L12.2462 5.65155L11.3044 4.9587L10.3625 5.65155L10.7224 4.5306L9.78058 3.83783H10.9446L11.3044 2.7168ZM5.43276 7.11896L5.79245 8.23999H6.95651L6.01472 8.93276L6.37456 10.0537L5.43276 9.36094L4.49089 10.0537L4.85073 8.93276L3.90894 8.23999H5.073L5.43276 7.11896Z" fill="white"/>
<path d="M37.7645 21.2917H9.20322C9.20322 21.2917 17.7371 14.2863 33.4683 3.81519C33.4684 3.81519 26.5587 14.0142 37.7645 21.2917ZM9.20322 22.2082C8.33002 22.2082 8.32861 23.5822 9.20322 23.5822H37.7645C38.6378 23.5822 38.6392 22.2082 37.7645 22.2082H9.20322Z" fill="#FFDA44"/>
</g>
<defs>
<clipPath id="clip0_6065_808">
<rect width="40" height="27" fill="white"/>
</clipPath>
</defs>
</svg>
