<svg width="40" height="27" viewBox="0 0 40 27" fill="none" xmlns="http://www.w3.org/2000/svg">
<g clip-path="url(#clip0_6065_785)">
<path d="M0 0.000312805H40V26.9998H0V0.000312805Z" fill="#496E2D"/>
<path d="M27.9069 7.77933C28.5629 5.92804 27.8259 3.91458 26.2443 2.91173C26.5343 2.94974 26.8193 3.01924 27.0946 3.11906C29.2041 3.88539 30.3007 6.23788 29.5438 8.37386C28.787 10.5098 26.4635 11.62 24.3539 10.8537C24.0787 10.7536 23.815 10.6237 23.5673 10.4665C25.4177 10.7104 27.2509 9.6307 27.9069 7.77933ZM24.2685 2.40437L23.6984 3.15006L22.8219 2.8316L23.3462 3.61091L22.7762 4.3566L23.6702 4.09256L24.1946 4.87187L24.2228 3.92945L25.1169 3.66533L24.2402 3.34695L24.2685 2.40437Z" fill="white"/>
<path d="M25.8077 4.8343L25.2377 5.57999L24.361 5.26152L24.8854 6.04083L24.3154 6.78653L25.2094 6.52241L25.7338 7.30179L25.7619 6.3593L26.656 6.0951L25.7794 5.77679L25.8077 4.8343ZM21.5547 3.28928L20.9847 4.03498L20.1082 3.71667L20.6325 4.4959L20.0625 5.24151L20.9565 4.97747L21.4809 5.75678L21.5091 4.81428L22.4031 4.55032L21.5265 4.23178L21.5547 3.28928ZM21.4923 6.07279L20.9223 6.81848L20.0456 6.50002L20.57 7.27933L20 8.02502L20.8941 7.76098L21.4184 8.54029L21.4466 7.59779L22.3406 7.33375L21.4641 7.01529L21.4923 6.07279ZM24.1082 7.02304L23.5382 7.76873L22.6616 7.45027L23.186 8.22966L22.6159 8.97527L23.51 8.71123L24.0344 9.49054L24.0625 8.54804L24.9565 8.284L24.08 7.96561L24.1082 7.02304Z" fill="white"/>
<path d="M6.52171 0.000312805H13.4782V26.9998H6.52171V0.000312805Z" fill="#D80027"/>
<path d="M9.17641 7.10792L8.01172 6.22949V4.9872L9.17641 4.10878H10.8236L11.9883 4.9872V6.22949L10.8236 7.10792H9.17641Z" fill="white"/>
<path d="M10 4.10878H9.17641L8.01172 4.9872V5.59455H10V4.10878ZM10 7.10792H10.8236L11.9883 6.22949V5.59573H10V7.10792Z" fill="#FF9811"/>
<path d="M9.17641 22.8914L8.01172 22.0129V20.7707L9.17641 19.8922H10.8236L11.9883 20.7707V22.0129L10.8236 22.8914H9.17641Z" fill="white"/>
<path d="M10 19.8922H9.17641L8.01172 20.7707V21.378H10V19.8922ZM10 22.8914H10.8236L11.9883 22.0129V21.3792H10V22.8914Z" fill="#FF9811"/>
<path d="M9.1764 14.9996L8.01171 14.1211V12.879L9.1764 12.0005H10.8236L11.9883 12.879V14.1211L10.8236 14.9996H9.1764ZM12.029 16.9323H11.5217V16.4187H10.6302L9.99991 15.7805L9.36968 16.4187H8.47827V16.9323H7.97101V17.9596H8.47827V18.4731H9.36968L9.99999 19.1114L10.6303 18.4731H11.5217V17.9596H12.029V16.9323ZM12.029 9.04052H11.5217V8.527H10.6302L9.99991 7.88873L9.36968 8.527H8.47827V9.04052H7.97101V10.0677H8.47827V10.5813H9.36968L9.99999 11.2196L10.6303 10.5813H11.5217V10.0677H12.029V9.04052Z" fill="#496E2D"/>
<path d="M9.42 12.9128H10.5794V14.0867H9.42V12.9128Z" fill="#D80027"/>
<path d="M9.99999 10.1409C10.3202 10.1409 10.5798 9.87809 10.5798 9.55389C10.5798 9.2297 10.3202 8.96688 9.99999 8.96688C9.6798 8.96688 9.42023 9.2297 9.42023 9.55389C9.42023 9.87809 9.6798 10.1409 9.99999 10.1409Z" fill="#D80027"/>
<path d="M9.99999 18.0332C10.3202 18.0332 10.5798 17.7704 10.5798 17.4462C10.5798 17.122 10.3202 16.8592 9.99999 16.8592C9.6798 16.8592 9.42023 17.122 9.42023 17.4462C9.42023 17.7704 9.6798 18.0332 9.99999 18.0332Z" fill="#D80027"/>
</g>
<defs>
<clipPath id="clip0_6065_785">
<rect width="40" height="27" fill="white"/>
</clipPath>
</defs>
</svg>
