<svg width="40" height="27" viewBox="0 0 40 27" fill="none" xmlns="http://www.w3.org/2000/svg">
<g clip-path="url(#clip0_6065_779)">
<path d="M0 -0.000152588H40V27.0002H0V-0.000152588Z" fill="#D80027"/>
<path d="M20 21.0933C24.1421 21.0933 27.5 17.6935 27.5 13.4996C27.5 9.30565 24.1421 5.90581 20 5.90581C15.8579 5.90581 12.5 9.30565 12.5 13.4996C12.5 17.6935 15.8579 21.0933 20 21.0933Z" fill="white"/>
<path d="M20.9239 10.5963L22.2106 12.3915L24.2945 11.7074L23.0057 13.5011L24.2923 15.2963L22.2092 14.6096L20.9205 16.4033L20.9218 14.1853L18.8387 13.4985L20.9226 12.8145L20.9239 10.5963Z" fill="#D80027"/>
<path d="M21.7045 17.987C19.2569 17.987 17.2727 15.9781 17.2727 13.4998C17.2727 11.0215 19.2569 9.0126 21.7045 9.0126C22.4677 9.0126 23.1858 9.20798 23.8127 9.55199C22.8292 8.57825 21.4843 7.97716 20 7.97716C16.9877 7.97716 14.5455 10.4498 14.5455 13.4999C14.5455 16.55 16.9877 19.0226 20 19.0226C21.4843 19.0226 22.8293 18.4215 23.8127 17.4478C23.1857 17.7916 22.4677 17.987 21.7045 17.987Z" fill="#D80027"/>
</g>
<defs>
<clipPath id="clip0_6065_779">
<rect width="40" height="27" fill="white"/>
</clipPath>
</defs>
</svg>
