<svg width="40" height="27" viewBox="0 0 40 27" fill="none" xmlns="http://www.w3.org/2000/svg">
<g clip-path="url(#clip0_6065_772)">
<path d="M0 0H40V27H0V0Z" fill="#E30A17"/>
<path d="M20.2495 9.36314C19.2281 8.61314 17.9883 8.21051 16.7173 8.21841C13.5361 8.21841 10.963 10.65 10.963 13.6579C10.963 16.6658 13.5439 19.0974 16.7173 19.0974C18.0507 19.0974 19.2826 18.671 20.2495 17.9526C17.9103 21 13.5672 21.5526 10.5575 19.1763C7.54776 16.8 7.00195 12.4105 9.34893 9.36314C11.6959 6.31578 16.0312 5.76314 19.0409 8.13946C19.4932 8.49472 19.8986 8.91314 20.2495 9.36314ZM23.3606 14.5579L21.9493 16.2868L22.0429 14.0447L19.9844 13.2237L22.1131 12.6237L22.2534 10.3895L23.4698 12.2605L25.614 11.7L24.2495 13.4368L25.4425 15.3237L23.3606 14.5579Z" fill="white"/>
</g>
<defs>
<clipPath id="clip0_6065_772">
<rect width="40" height="27" fill="white"/>
</clipPath>
</defs>
</svg>
