<svg width="40" height="27" viewBox="0 0 40 27" fill="none" xmlns="http://www.w3.org/2000/svg">
<g clip-path="url(#clip0_6065_759)">
<path d="M0 0H40V27H0V0Z" fill="#0052B4"/>
<path d="M0 13.5H20V0H40V27H0V13.5Z" fill="#00B2EE"/>
<path d="M15.3467 21.6405L16.6534 25.7175L13.2267 23.1975H17.4667L14.04 25.7175L15.3467 21.6405ZM31.3956 15.3L32.7022 19.377L29.2756 16.857H33.5111L30.0845 19.377L31.3956 15.3ZM36.1245 11.7675L37.4311 15.8445L34.0045 13.3245H38.24L34.8134 15.8445L36.1245 11.7675ZM36.1245 1.68301L37.4311 5.76001L34.0045 3.24001H38.24L34.8134 5.76001L36.1245 1.68301Z" fill="#FFDA44"/>
<path d="M19.9956 0V9.2835H16.3956L19.9956 11.7135V13.5H18.2311L12.4978 9.6345V13.5H7.49778V9.6345L1.76444 13.5H0V11.7135L3.6 9.2835H0V4.221H3.6L0 1.7955V0H1.76444L7.49778 3.8655V0H12.4978V3.8655L18.2311 0H19.9956Z" fill="white"/>
<path d="M11.2489 0H8.74667V5.49H0V8.019H8.74667V13.5H11.2489V8.019H19.9956V5.49H11.2489V0Z" fill="#D80027"/>
<path d="M19.9956 1.7955V4.221H16.3956L19.9956 1.7955Z" fill="#2E52B2"/>
<path d="M0 13.5V12.6315L4.88444 9.28349H6.64889L0.568889 13.5H0ZM0.568889 0.00448608L6.64889 4.22099H4.88444L0 0.872986V0.00448608H0.568889ZM19.9956 0.00898608V0.877486L15.1111 4.22099H13.3467L19.4267 0.00898608H19.9956ZM19.4267 13.5L13.3467 9.28349H15.1111L19.9956 12.6315V13.5H19.4267Z" fill="#D80027"/>
<path d="M31.9956 5.922L33.3022 9.999L29.8756 7.479H34.1111L30.6845 9.999L31.9956 5.922ZM25.9556 8.4465L27.2622 12.5235L23.8356 10.0035H28.0711L24.6445 12.5235L25.9556 8.4465ZM27.2889 19.377L28.5956 23.454L25.1689 20.934H29.4045L25.9778 23.454L27.2889 19.377ZM21.6889 14.94L22.9956 19.017L19.5689 16.497H23.8045L20.3778 19.017L21.6889 14.94ZM21.6889 20.88L22.9956 24.957L19.5689 22.437H23.8045L20.3778 24.957L21.6889 20.88Z" fill="#FFDA44"/>
</g>
<defs>
<clipPath id="clip0_6065_759">
<rect width="40" height="27" fill="white"/>
</clipPath>
</defs>
</svg>
