<svg width="40" height="27" viewBox="0 0 40 27" fill="none" xmlns="http://www.w3.org/2000/svg">
<g clip-path="url(#clip0_6065_753)">
<path d="M0 0.000305176H40V26.9997H0V0.000305176Z" fill="#D80027"/>
<path d="M0 0.000305176H20V13.5H0V0.000305176Z" fill="#0052B4"/>
<path d="M14.5653 6.75019L12.6999 7.63858L13.6932 9.4678L11.6676 9.07538L11.4109 11.1472L10 9.62348L8.58911 11.1472L8.33247 9.07538L6.30692 9.46773L7.3002 7.6385L5.43481 6.75019L7.3002 5.8618L6.30692 4.03257L8.33247 4.42492L8.58919 2.35309L10 3.87682L11.411 2.35309L11.6676 4.42492L13.6933 4.03257L12.6999 5.8618L14.5653 6.75019Z" fill="white"/>
<path d="M9.99998 9.04502C11.2515 9.04502 12.2661 8.01777 12.2661 6.7506C12.2661 5.48342 11.2515 4.45618 9.99998 4.45618C8.74845 4.45618 7.73389 5.48342 7.73389 6.7506C7.73389 8.01777 8.74845 9.04502 9.99998 9.04502Z" fill="#0052B4"/>
<path d="M10 8.28409C9.16472 8.28409 8.48511 7.59591 8.48511 6.75023C8.48511 5.90448 9.16479 5.21637 10 5.21637C10.8353 5.21637 11.515 5.90455 11.515 6.75023C11.515 7.59591 10.8353 8.28409 10 8.28409Z" fill="white"/>
</g>
<defs>
<clipPath id="clip0_6065_753">
<rect width="40" height="27" fill="white"/>
</clipPath>
</defs>
</svg>
