<svg width="40" height="27" viewBox="0 0 40 27" fill="none" xmlns="http://www.w3.org/2000/svg">
<g clip-path="url(#clip0_6065_737)">
<path d="M0 0H40V27H0V0Z" fill="#232323"/>
<path d="M0 4.50131H40V9.00263H0V4.50131Z" fill="#FFDA44"/>
<path d="M0 9.00262H40V13.5039H0V9.00262Z" fill="#D32300"/>
<path d="M0 18.0052H40V22.5066H0V18.0052Z" fill="#FFDA44"/>
<path d="M0 22.4987H40V27H0V22.4987Z" fill="#D32300"/>
<path d="M20 19.8881C23.482 19.8881 26.3047 17.0298 26.3047 13.504C26.3047 9.97811 23.482 7.11984 20 7.11984C16.518 7.11984 13.6953 9.97811 13.6953 13.504C13.6953 17.0298 16.518 19.8881 20 19.8881Z" fill="white"/>
<path d="M18.3203 10.0864C18.3907 9.97567 16.7891 9.92821 16.7891 9.92821C16.9219 9.73043 18.2266 9.09756 18.2266 9.09756C18.2266 9.09756 18.1563 8.6229 18.4375 8.32229L18.086 7.54702C18.086 7.54702 18.6328 7.27805 19.5235 7.27805C20.4141 7.27805 21.0782 7.83181 21.1641 8.31438L20.6641 8.58335C20.6563 8.95516 20.7969 9.50102 20.3282 9.95194C19.8672 10.4029 19.6797 10.4978 19.6641 11.4392C19.6641 11.7477 19.8438 12.0879 20.3516 12.3648C21.711 13.1005 23.3672 14.5957 23.836 15.0466C24.3125 15.4975 24.2344 16.5655 24.0391 17.0401C23.8438 17.5148 23.0938 18.1714 22.9219 18.116C22.75 18.0686 23.0157 17.3882 22.6485 17.1983C22.6485 17.1983 21.9532 16.5971 21.336 17.2458C20.7188 17.8945 21.3203 19.2394 21.6407 19.4609C21.961 19.6824 21.7735 19.8564 21.4922 19.8564H19.2969C19 19.8564 18.875 19.6745 19.1485 19.4609C19.7422 19.1603 20.1172 18.2505 19.7266 17.855C19.3438 17.4673 18.2969 17.9736 18.0469 18.3533C17.8282 18.5749 17.3594 18.6381 17.0391 18.2426C16.7188 17.847 16.7188 17.4199 16.9532 17.2537C17.5 16.874 16.9532 17.2537 16.961 17.2458C16.961 17.2458 17.8907 16.5655 19.2969 16.5338C19.6016 16.5338 19.6719 16.3598 19.4688 16.1541C19.4688 16.1541 17.0547 13.9865 17.2735 12.6575C17.5078 11.2098 18.836 10.5769 18.3203 10.0864C18.3203 10.0864 18.2188 9.94403 18.3203 10.0864Z" fill="black"/>
</g>
<defs>
<clipPath id="clip0_6065_737">
<rect width="40" height="27" fill="white"/>
</clipPath>
</defs>
</svg>
