<svg width="40" height="27" viewBox="0 0 40 27" fill="none" xmlns="http://www.w3.org/2000/svg">
<g clip-path="url(#clip0_6065_730)">
<path d="M0 0H40V27H0V0Z" fill="white"/>
<path d="M0 0H40V2.07632H0V0ZM0 4.15263H40V6.22895H0V4.15263ZM0 8.30526H40V10.3816H0V8.30526ZM0 12.4579H40V14.5342H0V12.4579ZM0 16.6184H40V18.6947H0V16.6184ZM0 20.7711H40V22.8474H0V20.7711ZM0 24.9237H40V27H0V24.9237Z" fill="#D80027"/>
<path d="M0 0H20V14.5342H0V0Z" fill="#2E52B2"/>
<path d="M3.72712 10.9658L3.41523 9.95528L3.07215 10.9658H2.04291L2.87722 11.5737L2.56532 12.5842L3.41523 11.9605L4.24174 12.5842L3.92205 11.5737L4.77195 10.9658H3.72712ZM8.11698 10.9658L7.79729 9.95528L7.46981 10.9658H6.44057L7.27488 11.5737L6.96299 12.5842L7.79729 11.9605L8.6394 12.5842L8.32751 11.5737L9.16182 10.9658H8.11698ZM12.5224 10.9658L12.1872 9.95528L11.8753 10.9658H10.8226L11.6803 11.5737L11.3528 12.5842L12.1872 11.9605L13.0449 12.5842L12.7174 11.5737L13.5517 10.9658H12.5224ZM16.9045 10.9658L16.5926 9.95528L16.2651 10.9658H15.2281L16.0702 11.5737L15.7583 12.5842L16.5926 11.9605L17.4347 12.5842L17.0994 11.5737L17.9571 10.9658H16.9045ZM7.79729 5.94475L7.46981 6.95528H6.44057L7.27488 7.57896L6.96299 8.5737L7.79729 7.95791L8.6394 8.5737L8.32751 7.57896L9.16182 6.95528H8.11698L7.79729 5.94475ZM3.41523 5.94475L3.07215 6.95528H2.04291L2.87722 7.57896L2.56532 8.5737L3.41523 7.95791L4.24174 8.5737L3.92205 7.57896L4.77195 6.95528H3.72712L3.41523 5.94475ZM12.1872 5.94475L11.8753 6.95528H10.8226L11.6803 7.57896L11.3528 8.5737L12.1872 7.95791L13.0449 8.5737L12.7174 7.57896L13.5517 6.95528H12.5224L12.1872 5.94475ZM16.5926 5.94475L16.2651 6.95528H15.2281L16.0702 7.57896L15.7583 8.5737L16.5926 7.95791L17.4347 8.5737L17.0994 7.57896L17.9571 6.95528H16.9045L16.5926 5.94475ZM3.41523 1.95001L3.07215 2.94475H2.04291L2.87722 3.56843L2.56532 4.57106L3.41523 3.94738L4.24174 4.57106L3.92205 3.56843L4.77195 2.94475H3.72712L3.41523 1.95001ZM7.79729 1.95001L7.46981 2.94475H6.44057L7.27488 3.56843L6.96299 4.57106L7.79729 3.94738L8.6394 4.57106L8.32751 3.56843L9.16182 2.94475H8.11698L7.79729 1.95001ZM12.1872 1.95001L11.8753 2.94475H10.8226L11.6803 3.56843L11.3528 4.57106L12.1872 3.94738L13.0449 4.57106L12.7174 3.56843L13.5517 2.94475H12.5224L12.1872 1.95001ZM16.5926 1.95001L16.2651 2.94475H15.2281L16.0702 3.56843L15.7583 4.57106L16.5926 3.94738L17.4347 4.57106L17.0994 3.56843L17.9571 2.94475H16.9045L16.5926 1.95001Z" fill="white"/>
</g>
<defs>
<clipPath id="clip0_6065_730">
<rect width="40" height="27" fill="white"/>
</clipPath>
</defs>
</svg>
