<svg width="40" height="27" viewBox="0 0 40 27" fill="none" xmlns="http://www.w3.org/2000/svg">
<g clip-path="url(#clip0_6065_723)">
<path d="M0 0H40V27H0V0Z" fill="white"/>
<path d="M0 0H40V2.07632H0V0ZM0 4.15263H40V6.22895H0V4.15263ZM0 8.30526H40V10.3816H0V8.30526ZM0 12.4579H40V14.5342H0V12.4579ZM0 16.6184H40V18.6947H0V16.6184ZM0 20.7711H40V22.8474H0V20.7711ZM0 24.9237H40V27H0V24.9237Z" fill="#D80027"/>
<path d="M0 0H20V14.5342H0V0Z" fill="#2E52B2"/>
<path d="M3.72706 10.9657L3.41517 9.95521L3.07209 10.9657H2.04285L2.87715 11.5736L2.56526 12.5842L3.41517 11.9605L4.24168 12.5842L3.92199 11.5736L4.77189 10.9657H3.72706ZM8.11692 10.9657L7.79723 9.95521L7.46975 10.9657H6.44051L7.27482 11.5736L6.96292 12.5842L7.79723 11.9605L8.63934 12.5842L8.32745 11.5736L9.16176 10.9657H8.11692ZM12.5224 10.9657L12.1871 9.95521L11.8752 10.9657H10.8226L11.6803 11.5736L11.3528 12.5842L12.1871 11.9605L13.0448 12.5842L12.7173 11.5736L13.5516 10.9657H12.5224ZM16.9044 10.9657L16.5926 9.95521L16.2651 10.9657H15.228L16.0701 11.5736L15.7582 12.5842L16.5926 11.9605L17.4347 12.5842L17.0994 11.5736L17.9571 10.9657H16.9044ZM7.79723 5.94469L7.46975 6.95521H6.44051L7.27482 7.5789L6.96292 8.57364L7.79723 7.95785L8.63934 8.57364L8.32745 7.5789L9.16176 6.95521H8.11692L7.79723 5.94469ZM3.41517 5.94469L3.07209 6.95521H2.04285L2.87715 7.5789L2.56526 8.57364L3.41517 7.95785L4.24168 8.57364L3.92199 7.5789L4.77189 6.95521H3.72706L3.41517 5.94469ZM12.1871 5.94469L11.8752 6.95521H10.8226L11.6803 7.5789L11.3528 8.57364L12.1871 7.95785L13.0448 8.57364L12.7173 7.5789L13.5516 6.95521H12.5224L12.1871 5.94469ZM16.5926 5.94469L16.2651 6.95521H15.228L16.0701 7.5789L15.7582 8.57364L16.5926 7.95785L17.4347 8.57364L17.0994 7.5789L17.9571 6.95521H16.9044L16.5926 5.94469ZM3.41517 1.94995L3.07209 2.94469H2.04285L2.87715 3.56837L2.56526 4.571L3.41517 3.94732L4.24168 4.571L3.92199 3.56837L4.77189 2.94469H3.72706L3.41517 1.94995ZM7.79723 1.94995L7.46975 2.94469H6.44051L7.27482 3.56837L6.96292 4.571L7.79723 3.94732L8.63934 4.571L8.32745 3.56837L9.16176 2.94469H8.11692L7.79723 1.94995ZM12.1871 1.94995L11.8752 2.94469H10.8226L11.6803 3.56837L11.3528 4.571L12.1871 3.94732L13.0448 4.571L12.7173 3.56837L13.5516 2.94469H12.5224L12.1871 1.94995ZM16.5926 1.94995L16.2651 2.94469H15.228L16.0701 3.56837L15.7582 4.571L16.5926 3.94732L17.4347 4.571L17.0994 3.56837L17.9571 2.94469H16.9044L16.5926 1.94995Z" fill="white"/>
</g>
<defs>
<clipPath id="clip0_6065_723">
<rect width="40" height="27" fill="white"/>
</clipPath>
</defs>
</svg>
