<svg width="40" height="27" viewBox="0 0 40 27" fill="none" xmlns="http://www.w3.org/2000/svg">
<g clip-path="url(#clip0_6065_717)">
<path d="M0 0H40V27H0V0Z" fill="white"/>
<path d="M0 3H40V6H0V3ZM0 9H40V12H0V9ZM0 15H40V18H0V15ZM0 21H40V24H0V21Z" fill="#0038A8"/>
<path d="M0 0H20V15H0V0Z" fill="white"/>
<path d="M10.0039 10.95L8.82654 12.7342L8.53024 10.6105L6.70568 11.7L7.34506 9.65526L5.2242 9.82894L6.67449 8.26579L4.70178 7.5L6.68229 6.73421L5.2242 5.17105L7.33726 5.35263L6.69788 3.30789L8.52245 4.39737L8.82654 2.27368L10.0039 4.05789L11.1813 2.27368L11.4776 4.39737L13.3022 3.30789L12.6628 5.35263L14.7759 5.17894L13.3256 6.7421L15.3061 7.50789L13.3256 8.27368L14.7759 9.83684L12.6628 9.66316L13.3022 11.7079L11.4776 10.6184L11.1735 12.7421L10.0039 10.95ZM10.0039 10.9105C11.8675 10.9816 13.4347 9.52105 13.5049 7.63421C13.5751 5.74737 12.1326 4.16052 10.269 4.08947H10.0039C8.14038 4.15263 6.68229 5.73158 6.74467 7.61052C6.79145 9.41052 8.22615 10.8553 10.0039 10.9105ZM10.0039 10.0737C8.53804 10.0737 7.35285 8.87368 7.35285 7.38947C7.35285 5.90526 8.53804 4.70526 10.0039 4.70526C11.4698 4.70526 12.655 5.90526 12.655 7.38947C12.655 8.87368 11.462 10.0737 10.0039 10.0737Z" fill="#FED443"/>
</g>
<defs>
<clipPath id="clip0_6065_717">
<rect width="40" height="27" fill="white"/>
</clipPath>
</defs>
</svg>
