<svg width="40" height="27" viewBox="0 0 40 27" fill="none" xmlns="http://www.w3.org/2000/svg">
<g clip-path="url(#clip0_6065_709)">
<path d="M0 0.000305176H40V26.9997H0V0.000305176Z" fill="#D80027"/>
<path d="M0 18.7827H40V26.9998H0V18.7827Z" fill="#6DA544"/>
<path d="M0 0.000305176H40V8.26761H0V0.000305176Z" fill="#338AF3"/>
<path d="M0 9.93073H40V17.0227H0V9.93073Z" fill="white"/>
<path d="M0 0.000305176H40V8.26761H0V0.000305176Z" fill="#338AF3"/>
<path d="M14.7413 4.13353C14.7413 2.86917 15.6189 1.81277 16.7909 1.55371C16.6073 1.51298 16.4199 1.49237 16.232 1.49225C14.7912 1.49225 13.6233 2.67474 13.6233 4.13353C13.6233 5.59232 14.7912 6.77481 16.232 6.77481C16.424 6.77481 16.6109 6.75322 16.7909 6.71335C15.6189 6.45429 14.7413 5.39789 14.7413 4.13353ZM18.3327 5.33406L18.5093 5.88437H19.0808L18.6184 6.22458L18.7951 6.77481L18.3327 6.43468L17.8703 6.77481L18.047 6.22458L17.5846 5.88437H18.1561L18.3327 5.33406ZM20.1567 5.33406L20.3333 5.88437H20.9048L20.4424 6.22458L20.6191 6.77481L20.1567 6.43468L19.6944 6.77481L19.8709 6.22458L19.4087 5.88437H19.9801L20.1567 5.33406ZM21.9807 5.33406L22.1573 5.88437H22.7288L22.2665 6.22458L22.4431 6.77481L21.9807 6.43468L21.5184 6.77481L21.6949 6.22458L21.2326 5.88437H21.8041L21.9807 5.33406ZM23.8047 5.33406L23.9814 5.88437H24.5529L24.0905 6.22458L24.2671 6.77481L23.8047 6.43468L23.3424 6.77481L23.5191 6.22458L23.0567 5.88437H23.6281L23.8047 5.33406ZM25.6288 5.33406L25.8053 5.88437H26.3768L25.9145 6.22458L26.0911 6.77481L25.6288 6.43468L25.1664 6.77481L25.343 6.22458L24.8807 5.88437H25.4521L25.6288 5.33406ZM20.1567 3.41315L20.3333 3.96338H20.9048L20.4424 4.30352L20.6191 4.85383L20.1567 4.51377L19.6944 4.85383L19.8709 4.30352L19.4087 3.96338H19.9801L20.1567 3.41315ZM21.9807 3.41315L22.1573 3.96338H22.7288L22.2665 4.30352L22.4431 4.85383L21.9807 4.51377L21.5184 4.85383L21.6949 4.30352L21.2326 3.96338H21.8041L21.9807 3.41315ZM23.8047 3.41315L23.9814 3.96338H24.5529L24.0905 4.30352L24.2671 4.85383L23.8047 4.51377L23.3424 4.85383L23.5191 4.30352L23.0567 3.96338H23.6281L23.8047 3.41315ZM25.6288 3.41315L25.8053 3.96338H26.3768L25.9145 4.30352L26.0911 4.85383L25.6288 4.51377L25.1664 4.85383L25.343 4.30352L24.8807 3.96338H25.4521L25.6288 3.41315ZM21.9807 1.49225L22.1573 2.04248H22.7288L22.2665 2.38262L22.4431 2.93293L21.9807 2.59279L21.5184 2.93293L21.6949 2.38262L21.2326 2.04248H21.8041L21.9807 1.49225ZM23.8047 1.49225L23.9814 2.04248H24.5529L24.0905 2.38262L24.2671 2.93293L23.8047 2.59279L23.3424 2.93293L23.5191 2.38262L23.0567 2.04248H23.6281L23.8047 1.49225ZM25.6288 1.49225L25.8053 2.04248H26.3768L25.9145 2.38262L26.0911 2.93293L25.6288 2.59279L25.1664 2.93293L25.343 2.38262L24.8807 2.04248H25.4521L25.6288 1.49225Z" fill="white"/>
</g>
<defs>
<clipPath id="clip0_6065_709">
<rect width="40" height="27" fill="white"/>
</clipPath>
</defs>
</svg>
