<svg width="40" height="27" viewBox="0 0 40 27" fill="none" xmlns="http://www.w3.org/2000/svg">
<g clip-path="url(#clip0_6065_704)">
<path d="M0 -0.000152588H40V26.9993H0V-0.000152588Z" fill="#FFDA44"/>
<path d="M20 -0.000152588H40V27.0002H20V-0.000152588Z" fill="white"/>
<path d="M25.1057 11.7469L27.6114 15.1032C27.2166 15.7084 27.2187 16.5239 27.6752 17.1355C28.2544 17.9112 29.3451 18.0648 30.1113 17.4784C30.8775 16.8919 31.0291 15.7877 30.4499 15.0118C29.9934 14.4003 29.219 14.1759 28.5362 14.3952L24.6309 9.16432L23.7061 9.8722L22.3187 10.9341L23.717 12.807L25.1057 11.7469ZM28.7131 15.6055C28.7739 15.559 28.843 15.5251 28.9167 15.5057C28.9904 15.4863 29.0671 15.4817 29.1426 15.4923C29.218 15.503 29.2906 15.5285 29.3562 15.5675C29.4219 15.6066 29.4793 15.6583 29.5252 15.7198C29.5711 15.7813 29.6046 15.8513 29.6238 15.9259C29.643 16.0005 29.6475 16.0782 29.637 16.1546C29.6265 16.2309 29.6013 16.3045 29.5627 16.3709C29.5242 16.4374 29.4731 16.4956 29.4123 16.5421C29.2897 16.6359 29.1352 16.6766 28.9829 16.6552C28.8306 16.6338 28.693 16.5519 28.6002 16.4278C28.5075 16.3036 28.4673 16.1472 28.4885 15.9929C28.5097 15.8387 28.5905 15.6994 28.7131 15.6055Z" fill="#ACABB1"/>
<path d="M29.4037 12.8071L30.802 10.9342L29.4146 9.87236L28.4898 9.16447L24.5845 14.3954C23.9017 14.1759 23.1274 14.4004 22.6708 15.012C22.0916 15.7878 22.2432 16.8921 23.0094 17.4785C23.7756 18.065 24.8663 17.9115 25.4455 17.1356C25.9021 16.5241 25.9042 15.7086 25.5093 15.1033L28.015 11.7471L29.4037 12.8071ZM24.5206 16.4277C24.4278 16.5519 24.2902 16.6337 24.1379 16.6551C23.9856 16.6765 23.8311 16.6358 23.7084 16.542C23.5858 16.4481 23.505 16.3087 23.4838 16.1545C23.4626 16.0003 23.5028 15.8439 23.5956 15.7197C23.6415 15.6582 23.6989 15.6065 23.7646 15.5674C23.8302 15.5284 23.9028 15.5029 23.9782 15.4923C24.0536 15.4816 24.1304 15.4862 24.2041 15.5056C24.2777 15.525 24.3469 15.5589 24.4077 15.6054C24.4684 15.6519 24.5195 15.71 24.558 15.7765C24.5966 15.843 24.6218 15.9165 24.6323 15.9929C24.6428 16.0692 24.6383 16.1469 24.6191 16.2215C24.6 16.2961 24.5665 16.3662 24.5206 16.4277Z" fill="#FFDA44"/>
</g>
<defs>
<clipPath id="clip0_6065_704">
<rect width="40" height="27" fill="white"/>
</clipPath>
</defs>
</svg>
