<svg width="40" height="27" viewBox="0 0 40 27" fill="none" xmlns="http://www.w3.org/2000/svg">
<g clip-path="url(#clip0_6065_694)">
<path d="M0 0H40V9H0V0Z" fill="#FFCE00"/>
<path d="M0 9H40V18H0V9Z" fill="#203899"/>
<path d="M0 18H40V27H0V18Z" fill="#D82B2B"/>
<path d="M21.5645 9.68378L21.8133 10.5118L22.6133 10.7638L21.92 11.2498L21.9378 12.1138L21.2622 11.5918L20.4622 11.8618L20.7289 11.0698L20.2311 10.3858H21.0667L21.5645 9.68378ZM18.4178 9.68378L18.8978 10.3858H19.7333L19.2356 11.0698L19.5022 11.8798L18.7022 11.5918L18.0267 12.0958L18.0445 11.2498L17.3511 10.7458L18.1511 10.5118L18.4178 9.68378ZM24.5333 10.6918L24.5156 11.5558L25.2089 12.0418L24.3911 12.2938L24.1422 13.1038L23.6622 12.4198H22.8089L23.3245 11.7358L23.0578 10.9258L23.8578 11.2138L24.5333 10.6918ZM15.4489 10.7278L16.16 11.2138L16.9422 10.8898L16.7111 11.7178L17.2445 12.3658L16.4089 12.4018L15.9467 13.1218L15.6622 12.3298L14.8445 12.1138L15.5022 11.5738L15.4489 10.7278ZM27.0933 12.8338L26.7378 13.6258L27.1822 14.3458L26.3467 14.2558L25.7956 14.9038L25.6178 14.0758L24.8533 13.7518L25.5822 13.3198L25.6356 12.4738L26.2578 13.0318L27.0933 12.8338ZM27.4311 14.8498L27.8045 15.6238L28.64 15.7498L28.0356 16.3438L28.1778 17.1718L27.4311 16.7758L26.6845 17.1718L26.8267 16.3438L26.2222 15.7498L27.0578 15.6238L27.4311 14.8498ZM12.4445 14.7598L12.8178 15.5338L13.6533 15.6418L13.0489 16.2358L13.1911 17.0818L12.4445 16.6858L11.6978 17.0818L11.84 16.2358L11.2356 15.6418L12.0711 15.5338L12.4445 14.7598ZM12.9956 12.6898L13.7956 12.9418L14.4711 12.4198V13.2838L15.1645 13.7518L14.3645 14.0218L14.1333 14.8498L13.6356 14.1658L12.8 14.1838L13.28 13.4998L12.9956 12.6898Z" fill="white"/>
</g>
<defs>
<clipPath id="clip0_6065_694">
<rect width="40" height="27" fill="white"/>
</clipPath>
</defs>
</svg>
