<svg width="40" height="27" viewBox="0 0 40 27" fill="none" xmlns="http://www.w3.org/2000/svg">
<g clip-path="url(#clip0_6065_676)">
<path d="M0 6.10352e-05H40V27.0004H0V6.10352e-05Z" fill="#0052B4"/>
<path d="M20 6.10352e-05V9.28074H16.4009L20 11.7107V13.4998H18.2322L12.5 9.63021V13.4998H7.5V9.63021L1.76781 13.4998H0V11.7107L3.59914 9.28074H0V4.21824H3.59914L0 1.7891V6.10352e-05H1.76781L7.5 3.86868V6.10352e-05H12.5V3.86868L18.2322 6.10352e-05H20Z" fill="white"/>
<path d="M11.25 -0.00012207H8.75V5.48423H0V8.01548H8.75V13.4999H11.25V8.01548H20V5.48423H11.25V-0.00012207Z" fill="#D80027"/>
<path d="M0 -0.000183105V1.19291L4.48258 4.21862H6.25L0 -0.000183105ZM20 -0.000183105V1.19291L15.5174 4.21862H13.75L20 -0.000183105Z" fill="#D80027"/>
<path d="M20 1.78912V4.21849H16.4009L20 1.78912Z" fill="#2E52B2"/>
<path d="M0 -0.000183105V1.19291L4.48258 4.21862H6.25L0 -0.000183105ZM20 -0.000183105V1.19291L15.5174 4.21862H13.75L20 -0.000183105Z" fill="#D80027"/>
<path d="M20 1.78912V4.21849H16.4009L20 1.78912Z" fill="#2E52B2"/>
<path d="M0 13.4998V12.3068L4.48258 9.28101H6.25L0 13.4998ZM20 13.4998V12.3068L15.5174 9.28101H13.75L20 13.4998Z" fill="#D80027"/>
<path d="M30 13.7932L26.3962 17.4421C27.0716 18.7611 28.4314 19.6628 30 19.6628C31.5686 19.6628 32.9284 18.761 33.6038 17.4421L30 13.7932Z" fill="#FFDA44"/>
<path d="M25.942 7.33676V13.7934C25.9421 16.9384 30 17.902 30 17.902C30 17.902 34.0579 16.9384 34.058 13.7933V7.33676H25.942Z" fill="#6DA544"/>
<path d="M29.1305 10.2712H30.8696V14.9666H29.1305V10.2712Z" fill="white"/>
<path d="M30 11.1516C30.4803 11.1516 30.8696 10.7574 30.8696 10.2712C30.8696 9.78495 30.4803 9.39078 30 9.39078C29.5198 9.39078 29.1305 9.78495 29.1305 10.2712C29.1305 10.7574 29.5198 11.1516 30 11.1516Z" fill="#A2001D"/>
<path d="M27.1017 8.51031H28.2611V9.68418H27.1017V8.51031ZM27.1017 11.1517H28.2611V12.3255H27.1017V11.1517ZM27.1017 13.793H28.2611V14.9668H27.1017V13.793ZM31.7392 8.51031H32.8985V9.68418H31.7392V8.51031ZM31.7392 11.1517H32.8985V12.3255H31.7392V11.1517ZM31.7392 13.793H32.8985V14.9668H31.7392V13.793Z" fill="#FFDA44"/>
</g>
<defs>
<clipPath id="clip0_6065_676">
<rect width="40" height="27" fill="white"/>
</clipPath>
</defs>
</svg>
