<svg width="40" height="27" viewBox="0 0 40 27" fill="none" xmlns="http://www.w3.org/2000/svg">
<g clip-path="url(#clip0_6065_659)">
<path d="M0 0H40V27H0V0Z" fill="white"/>
<path d="M31.0703 13.1559L27.0859 20.8849C27 21.0431 27.0625 21.2408 27.2266 21.3279C27.3828 21.4149 27.5781 21.3516 27.6641 21.1855L31.6484 13.4565C31.7266 13.2904 31.6562 13.0926 31.4922 13.0214C31.3359 12.9502 31.1562 13.0056 31.0703 13.1559Z" fill="#1583C4"/>
<path d="M31.6328 14.8725L27.1172 20.8374C27.0156 20.9877 27.0547 21.1934 27.2031 21.2962C27.3359 21.3912 27.5234 21.3674 27.6328 21.2408L32.1484 15.276C32.2578 15.1336 32.2344 14.9279 32.0859 14.8172C31.9453 14.6985 31.7422 14.7301 31.6328 14.8725Z" fill="#1583C4"/>
<path d="M29.6094 14.3425L27.0703 20.9165C27.0078 21.0826 27.0859 21.2804 27.2578 21.3437C27.4219 21.407 27.6172 21.3279 27.6797 21.1538L30.2188 14.5798C30.2734 14.4058 30.1875 14.2238 30.0156 14.1606C29.8516 14.1131 29.6797 14.1922 29.6094 14.3425Z" fill="#1583C4"/>
<path d="M9.53906 13.5989C9.57031 13.7334 9.63281 13.9707 9.71094 14.2713C9.84375 14.7776 9.99219 15.2839 10.1484 15.7507C10.3281 16.2965 11.2969 18.2347 11.7266 18.8438C12.2656 19.6112 12.8281 20.3706 13.4063 21.1064C13.5313 21.2567 13.7578 21.2725 13.9062 21.1459C14.0469 21.0193 14.0703 20.8057 13.9609 20.6554C13.3906 19.9276 12.8359 19.184 12.3047 18.4246C11.9766 17.9657 10.9609 15.9643 10.8203 15.5212C10.5938 14.833 10.3984 14.1289 10.2266 13.4248C10.1875 13.235 10 13.1084 9.8125 13.148C9.625 13.1875 9.5 13.3774 9.53906 13.5672C9.53125 13.5831 9.53906 13.591 9.53906 13.5989Z" fill="#409347"/>
<path d="M23.2109 9.08966C23.2109 9.08966 21.8359 3.38588 20.3906 3.38588C19.8516 3.38588 19.4609 3.33842 19.1875 3.89218C19.1172 4.02667 17.5703 3.76561 17.6953 5.53765C17.7344 6.08351 17.7812 4.76238 18.8594 5.26868C19.3516 5.50601 17.5781 9.08175 17.5781 9.08175H23.2109V9.08966Z" fill="#FFD836"/>
<path fill-rule="evenodd" clip-rule="evenodd" d="M20.2737 3.34586C20.3121 3.34613 20.3511 3.3464 20.3906 3.3464C20.5844 3.3464 20.7728 3.44194 20.9525 3.60126C21.1323 3.76074 21.3069 3.98706 21.474 4.25608C21.8083 4.79422 22.1168 5.51017 22.3793 6.22399C22.642 6.93824 22.8593 7.65226 23.011 8.18756C23.0868 8.45525 23.1463 8.67835 23.1867 8.83456C23.207 8.91266 23.2225 8.97405 23.2329 9.01593C23.2354 9.02581 23.2376 9.0346 23.2395 9.04227H23.2499V9.41786L23.1784 9.12123H17.5149L17.5433 9.06403L17.5781 9.08175C17.5433 9.06403 17.5433 9.06406 17.5433 9.06403L17.5434 9.06388L17.5483 9.05385C17.5517 9.0471 17.5566 9.03707 17.563 9.02398C17.5758 8.99779 17.5946 8.95932 17.6184 8.91027C17.6658 8.81216 17.7331 8.67172 17.8123 8.50243C17.9707 8.1638 18.1768 7.71001 18.3674 7.24897C18.5581 6.78756 18.7328 6.32035 18.8292 5.95443C18.8774 5.77111 18.9053 5.61573 18.9067 5.5002C18.9073 5.44239 18.9013 5.39709 18.8894 5.36407C18.8779 5.33174 18.8618 5.31361 18.8428 5.3044C18.5794 5.18075 18.384 5.17093 18.2386 5.21191C18.0928 5.25298 17.9912 5.34679 17.9186 5.44211C17.8823 5.48976 17.8536 5.53739 17.8304 5.57851C17.8234 5.59087 17.8167 5.60313 17.8103 5.6148C17.7965 5.64004 17.7841 5.66251 17.7741 5.67715C17.7702 5.68293 17.7657 5.68897 17.7606 5.69421C17.756 5.6989 17.7479 5.70625 17.7364 5.70986C17.7219 5.71439 17.7063 5.71167 17.6941 5.70198C17.6843 5.69423 17.6792 5.68406 17.6764 5.67739C17.6707 5.66362 17.6671 5.64503 17.6644 5.62436C17.6614 5.60269 17.6589 5.57489 17.6564 5.54051C17.6248 5.09184 17.6987 4.76754 17.832 4.53223C17.9655 4.29667 18.1565 4.15397 18.3522 4.06483C18.5473 3.97595 18.7478 3.93999 18.9016 3.91775C18.9277 3.91398 18.9521 3.91064 18.9748 3.90752C19.0203 3.90131 19.0591 3.896 19.0909 3.89C19.1147 3.88553 19.132 3.88109 19.1438 3.87651C19.1499 3.87412 19.1529 3.8723 19.1541 3.87149C19.2949 3.58799 19.4686 3.45392 19.6788 3.3934C19.8541 3.34293 20.0541 3.34433 20.2737 3.34586ZM17.6411 9.04227H23.1591C23.1585 9.04 23.1579 9.03767 23.1573 9.03527C23.147 8.99361 23.1315 8.93245 23.1113 8.8546C23.071 8.69888 23.0117 8.47637 22.936 8.20933C22.7847 7.67518 22.568 6.96324 22.3062 6.25155C22.0443 5.53943 21.7381 4.82943 21.408 4.29811C21.243 4.0324 21.0731 3.81312 20.9011 3.66067C20.729 3.50806 20.5582 3.42536 20.3906 3.42536C20.3497 3.42536 20.3098 3.4251 20.271 3.42485C20.0507 3.42343 19.8638 3.42223 19.7001 3.46934C19.5127 3.52331 19.3548 3.64165 19.2224 3.90983L19.222 3.91066C19.2106 3.93244 19.1886 3.94364 19.1718 3.9502C19.1532 3.95743 19.1303 3.9629 19.1052 3.96763C19.0715 3.97398 19.0294 3.97973 18.9826 3.98614C18.9602 3.9892 18.9368 3.99241 18.9126 3.99591C18.7605 4.01791 18.5689 4.05266 18.3842 4.13683C18.2 4.22074 18.0233 4.35344 17.8997 4.57153C17.7759 4.78986 17.7034 5.09747 17.7342 5.53482C17.7355 5.55341 17.7369 5.56958 17.7382 5.58356C17.7385 5.58295 17.7389 5.58234 17.7392 5.58172C17.746 5.56935 17.7537 5.55524 17.7627 5.53935C17.7867 5.49675 17.8174 5.44562 17.8568 5.39389C17.9356 5.29045 18.0502 5.18302 18.2177 5.13584C18.3855 5.08857 18.6002 5.10346 18.8758 5.23287L18.8761 5.23304C18.9186 5.25352 18.9463 5.29113 18.9628 5.33716C18.979 5.38259 18.9853 5.43845 18.9846 5.50112C18.9832 5.62657 18.9533 5.78949 18.9045 5.97477C18.8067 6.34604 18.6304 6.81726 18.4393 7.27946C18.2481 7.74202 18.0415 8.19699 17.8828 8.53623C17.8034 8.70588 17.736 8.84664 17.6884 8.94501C17.6692 8.98458 17.6533 9.0173 17.6411 9.04227ZM17.705 5.63885C17.7046 5.63918 17.7046 5.63921 17.705 5.63885V5.63885Z" fill="#231F20"/>
<path d="M36.4141 3.82889L29.3125 5.56929C23.4297 7.01699 26.0234 9.08175 26.0234 9.08175L20.3906 10.0311L14.7578 9.08175C14.7578 9.08175 17.3516 7.01699 11.4687 5.56929L4.36718 3.82889C3.36718 3.58365 2.97655 4.09786 3.53905 4.98388C3.53905 4.98388 11.8672 13.2112 13.4453 13.8441C15.0234 14.4849 16.6328 13.8441 16.6328 13.8441C16.6328 13.8441 15.4687 14.5324 14.7578 15.7427C14.0391 16.9531 14.3984 18.4878 11.7187 18.9229C11.2891 19.4451 11.3281 20.0305 11.9453 20.4972C12.5625 20.9561 17.5781 16.6921 17.5781 16.6921C17.5781 16.6921 15.7031 18.6223 15.7031 19.5479C15.7031 19.9514 19.1484 23.804 20.3984 23.804C21.6484 23.804 25.0937 19.9514 25.0937 19.5479C25.0937 18.6223 23.2187 16.6921 23.2187 16.6921C23.2187 16.6921 28.2344 20.9561 28.8516 20.4972C29.4687 20.0384 29.7422 18.9704 29.0703 18.9229C26.8828 18.7805 26.75 16.9531 26.0312 15.7427C25.3125 14.5324 24.1562 13.8441 24.1562 13.8441C24.1562 13.8441 25.7656 14.4849 27.3437 13.8441C28.9219 13.2033 37.2422 4.98388 37.2422 4.98388C37.8047 4.09786 37.4219 3.58365 36.4141 3.82889Z" fill="#FFD836"/>
<path fill-rule="evenodd" clip-rule="evenodd" d="M4.37636 3.79052C4.37636 3.79052 4.37636 3.79052 4.37636 3.79052L11.4779 5.53093C12.9507 5.89336 13.8967 6.29524 14.4862 6.69609C15.0762 7.09725 15.3127 7.49996 15.358 7.86347C15.4032 8.2258 15.2571 8.53907 15.103 8.75933C15.0257 8.86976 14.9458 8.95783 14.8851 9.01832C14.8708 9.0326 14.8576 9.04536 14.8457 9.05653L20.3906 9.99104L25.9356 9.05653C25.9237 9.04536 25.9104 9.0326 25.8961 9.01832C25.8355 8.95783 25.7555 8.86976 25.6783 8.75933C25.5242 8.53907 25.3781 8.2258 25.4232 7.86347C25.4686 7.49996 25.705 7.09725 26.295 6.69609C26.8846 6.29524 27.8305 5.89337 29.3033 5.53093L36.4049 3.79052C36.66 3.72845 36.8784 3.71367 37.0539 3.74233C37.2297 3.77102 37.365 3.84381 37.4484 3.95879C37.5319 4.0739 37.559 4.22517 37.5303 4.40155C37.5017 4.57757 37.4174 4.78094 37.275 5.00523L37.2726 5.00901L37.2694 5.01214L37.2422 4.98389C37.2694 5.01214 37.2694 5.01218 37.2693 5.01224L37.269 5.01252L37.2455 5.03577C37.2297 5.05135 37.2062 5.07447 37.1755 5.10466C37.1142 5.16504 37.024 5.25366 36.9087 5.36668C36.6781 5.59273 36.3469 5.91635 35.9445 6.3067C35.1397 7.08738 34.0501 8.135 32.9113 9.20268C31.7724 10.2703 30.584 11.3583 29.5814 12.2195C29.0801 12.6501 28.6249 13.0243 28.2455 13.3111C27.8671 13.597 27.5608 13.7985 27.3583 13.8808C26.5609 14.2045 25.7567 14.2042 25.1531 14.1236C24.8511 14.0832 24.5988 14.0227 24.4218 13.9722C24.4201 13.9717 24.4183 13.9712 24.4166 13.9708C24.5322 14.0532 24.6821 14.1666 24.8493 14.3094C25.2303 14.6344 25.7024 15.1123 26.0647 15.7224C26.2346 16.0085 26.3718 16.3285 26.5097 16.6498C26.5189 16.6714 26.5282 16.6929 26.5375 16.7145C26.6853 17.0585 26.8365 17.4021 27.0328 17.712C27.2289 18.0215 27.4692 18.2964 27.7944 18.5027C28.1195 18.709 28.5315 18.8483 29.0728 18.8835L29.073 18.8836C29.2528 18.8963 29.3747 18.9786 29.4409 19.106C29.5057 19.2309 29.5143 19.3932 29.4826 19.5631C29.4193 19.903 29.1914 20.2936 28.8746 20.529C28.8251 20.5658 28.7582 20.5758 28.6833 20.5694C28.6078 20.563 28.5187 20.5395 28.4189 20.5025C28.2193 20.4286 27.9703 20.2982 27.6911 20.1302C27.1323 19.7938 26.4462 19.3029 25.7804 18.7983C25.1143 18.2936 24.4677 17.7746 23.9876 17.3818C23.8623 17.2794 23.7484 17.1855 23.6484 17.1026C23.8072 17.2828 23.997 17.5061 24.1868 17.7484C24.4218 18.0482 24.6575 18.378 24.8346 18.6916C25.0109 19.0036 25.1327 19.3055 25.1327 19.5479C25.1327 19.5836 25.115 19.6299 25.0894 19.6802C25.0629 19.7326 25.0243 19.7962 24.9755 19.8688C24.8779 20.0142 24.7376 20.1989 24.5659 20.4083C24.2224 20.8274 23.7518 21.3478 23.2422 21.8554C22.7327 22.3629 22.1833 22.8586 21.6824 23.2276C21.4319 23.4121 21.1928 23.5656 20.9762 23.6731C20.7604 23.7802 20.5635 23.8435 20.3984 23.8435C20.2334 23.8435 20.0365 23.7802 19.8206 23.6731C19.6041 23.5656 19.3649 23.4121 19.1145 23.2276C18.6136 22.8586 18.0642 22.3629 17.5547 21.8554C17.0451 21.3478 16.5744 20.8274 16.231 20.4083C16.0593 20.1989 15.919 20.0142 15.8214 19.8688C15.7726 19.7962 15.734 19.7326 15.7074 19.6802C15.6819 19.6299 15.6641 19.5836 15.6641 19.5479C15.6641 19.3055 15.786 19.0036 15.9623 18.6916C16.1394 18.378 16.3751 18.0482 16.6101 17.7484C16.7999 17.5061 16.9897 17.2828 17.1485 17.1026C17.0485 17.1855 16.9346 17.2794 16.8093 17.3818C16.3292 17.7746 15.6826 18.2936 15.0165 18.7983C14.3507 19.3029 13.6646 19.7938 13.1057 20.1302C12.8265 20.2982 12.5775 20.4286 12.3779 20.5025C12.2782 20.5395 12.189 20.563 12.1136 20.5694C12.0387 20.5758 11.9717 20.5658 11.9222 20.529L11.922 20.5288C11.6076 20.2911 11.4356 20.0193 11.4008 19.7357C11.3659 19.4521 11.4691 19.1647 11.6888 18.8977L11.6982 18.8863L11.7126 18.884C12.379 18.7758 12.8536 18.5996 13.2024 18.3792C13.5506 18.1591 13.7751 17.8937 13.9398 17.6039C14.0999 17.3223 14.2034 17.0179 14.3093 16.7068C14.3128 16.6966 14.3162 16.6864 14.3197 16.6762C14.4288 16.3557 14.5423 16.0291 14.7243 15.7225C14.7243 15.7225 14.7244 15.7225 14.7244 15.7224L14.7577 15.7427L14.7243 15.7225C14.7243 15.7225 14.7243 15.7225 14.7243 15.7225C15.0828 15.1123 15.5549 14.6344 15.9368 14.3093C16.104 14.167 16.2542 14.0538 16.3702 13.9714C16.4573 13.9465 16.526 13.9241 16.5732 13.9078C16.597 13.8995 16.6154 13.8929 16.6278 13.8882C16.634 13.8859 16.6388 13.8841 16.642 13.8828L16.6457 13.8814L16.6467 13.881L16.647 13.8809L16.647 13.8809C16.6471 13.8809 16.6471 13.8809 16.6328 13.8441C16.6132 13.81 16.6131 13.81 16.6131 13.8101L16.6129 13.8102L16.6122 13.8106L16.6095 13.8122C16.6072 13.8136 16.6038 13.8157 16.5994 13.8184C16.5905 13.8238 16.5774 13.8319 16.5606 13.8427C16.527 13.8641 16.4783 13.896 16.4178 13.938C16.4027 13.9485 16.3868 13.9596 16.3702 13.9714C16.3692 13.9717 16.3682 13.972 16.3673 13.9722C16.1903 14.0227 15.9379 14.0832 15.636 14.1236C15.0324 14.2042 14.2282 14.2045 13.4309 13.8808C13.4309 13.8808 13.4309 13.8808 13.4309 13.8808L13.4453 13.8441L13.4308 13.8808C13.4308 13.8808 13.4309 13.8808 13.4309 13.8808C13.2283 13.7995 12.9218 13.5987 12.5433 13.3134C12.1636 13.0271 11.7081 12.6532 11.2065 12.2228C10.2032 11.362 9.01371 10.2738 7.87391 9.20565C6.73404 8.13747 5.64354 7.08911 4.83802 6.30781C4.43525 5.91716 4.10372 5.59325 3.87288 5.36701C3.75745 5.25389 3.6672 5.16518 3.6058 5.10475C3.5751 5.07453 3.55161 5.05139 3.5358 5.03579L3.51193 5.01224C3.51187 5.01218 3.51183 5.01214 3.53906 4.98389L3.57185 4.96254C3.57106 4.96128 3.57026 4.96003 3.56947 4.95877L3.5902 4.97923C3.606 4.9948 3.62947 5.01793 3.66015 5.04813C3.72151 5.10853 3.81172 5.1972 3.92711 5.31028C4.15787 5.53644 4.4893 5.86024 4.89196 6.25079C5.69728 7.0319 6.78744 8.07993 7.92687 9.1477C9.06636 10.2155 10.2548 11.3028 11.2569 12.1626C11.7579 12.5925 12.212 12.9652 12.5898 13.25C12.9688 13.5357 13.2678 13.7305 13.4597 13.8074L13.4598 13.8075C14.2406 14.1245 15.0301 14.1248 15.6258 14.0453C15.9234 14.0055 16.172 13.9459 16.3461 13.8962C16.4331 13.8714 16.5015 13.8491 16.548 13.833C16.5712 13.825 16.589 13.8186 16.6009 13.8141C16.6068 13.8119 16.6113 13.8102 16.6143 13.8091L16.6176 13.8078L16.6185 13.8074L16.6524 13.8782L16.6523 13.8783L16.6518 13.8786L16.6494 13.8801C16.648 13.8809 16.6461 13.882 16.6438 13.8834C16.6426 13.8842 16.6412 13.885 16.6398 13.8859C16.6312 13.8911 16.6186 13.899 16.6022 13.9095C16.5694 13.9304 16.5215 13.9617 16.4619 14.0031C16.3425 14.086 16.1758 14.209 15.987 14.3698C15.6091 14.6914 15.1438 15.1628 14.7913 15.7629L14.7912 15.7631C14.6139 16.0616 14.5028 16.3807 14.3934 16.702L14.3822 16.735C14.277 17.0442 14.1713 17.355 14.0074 17.6433C13.8372 17.9428 13.6041 18.2183 13.2437 18.4462C12.8863 18.6721 12.4054 18.85 11.7395 18.9595C11.7425 18.9558 11.7456 18.952 11.7487 18.9482L11.7187 18.9229L11.7249 18.9619C11.7298 18.9611 11.7346 18.9603 11.7395 18.9595C11.536 19.2112 11.4471 19.4735 11.4781 19.726C11.5097 19.9822 11.6658 20.2365 11.9684 20.4654C11.9684 20.4654 11.9685 20.4655 11.9684 20.4654L11.9453 20.4972L11.9686 20.4656C11.9686 20.4655 11.9685 20.4655 11.9684 20.4654C11.9961 20.486 12.0406 20.4964 12.107 20.4908C12.1728 20.4851 12.2547 20.4641 12.3512 20.4284C12.544 20.357 12.7881 20.2295 13.0659 20.0623C13.6211 19.7282 14.3046 19.2392 14.9698 18.7351C15.6348 18.2312 16.2806 17.7128 16.7603 17.3204C17.0001 17.1242 17.1983 16.9596 17.3366 16.8439C17.4057 16.7861 17.4598 16.7406 17.4967 16.7095C17.5151 16.694 17.5292 16.682 17.5387 16.674L17.5522 16.6626L17.5528 16.662L17.553 16.6619C17.553 16.6618 17.5531 16.6618 17.5781 16.6921C17.6059 16.7197 17.6059 16.7197 17.6059 16.7198L17.6046 16.7211L17.6006 16.7252C17.5971 16.7288 17.5919 16.7343 17.5851 16.7414C17.5714 16.7557 17.5514 16.7768 17.5258 16.804C17.4747 16.8584 17.4017 16.9372 17.314 17.0347C17.1386 17.2297 16.9048 17.4992 16.6712 17.7974C16.4374 18.0958 16.2043 18.4221 16.0299 18.7308C15.8546 19.0411 15.7421 19.3275 15.7421 19.5479C15.7421 19.5627 15.7512 19.5938 15.7768 19.6442C15.8013 19.6925 15.838 19.7531 15.8858 19.8244C15.9815 19.9669 16.1201 20.1494 16.291 20.3579C16.6326 20.7747 17.1014 21.2931 17.6094 21.7991C18.1174 22.3052 18.6637 22.7979 19.1604 23.1638C19.4087 23.3468 19.6439 23.4974 19.855 23.6022C20.0668 23.7073 20.251 23.7645 20.3984 23.7645C20.5459 23.7645 20.7301 23.7073 20.9419 23.6022C21.153 23.4974 21.3881 23.3468 21.6365 23.1638C22.1331 22.7979 22.6795 22.3052 23.1875 21.7991C23.6954 21.2931 24.1643 20.7747 24.5059 20.3579C24.6768 20.1494 24.8154 19.9669 24.911 19.8244C24.9589 19.7531 24.9956 19.6925 25.0201 19.6442C25.0456 19.5938 25.0548 19.5627 25.0548 19.5479C25.0548 19.3275 24.9422 19.0411 24.7669 18.7308C24.5925 18.4221 24.3595 18.0958 24.1257 17.7974C23.892 17.4992 23.6583 17.2297 23.4829 17.0347C23.3952 16.9372 23.3222 16.8584 23.2711 16.804C23.2617 16.794 23.253 16.7849 23.2452 16.7766C23.2316 16.7622 23.2204 16.7505 23.2118 16.7414C23.205 16.7343 23.1997 16.7288 23.1962 16.7252L23.1923 16.7211L23.191 16.7198C23.191 16.7198 23.191 16.7198 23.195 16.7157L23.191 16.7198L23.2438 16.6618L23.2421 16.664C23.2438 16.6619 23.2438 16.6618 23.2438 16.6618L23.244 16.662L23.2447 16.6626L23.2582 16.674C23.2677 16.682 23.2818 16.694 23.3002 16.7095C23.337 16.7406 23.3912 16.7861 23.4603 16.8439C23.5986 16.9596 23.7968 17.1242 24.0366 17.3204C24.5162 17.7128 25.1621 18.2312 25.8271 18.7351C26.4923 19.2392 27.1758 19.7282 27.731 20.0623C28.0088 20.2295 28.2529 20.357 28.4457 20.4284C28.5422 20.4641 28.6241 20.4851 28.6899 20.4908C28.7563 20.4964 28.8008 20.4859 28.8285 20.4654C29.1289 20.242 29.3463 19.8692 29.406 19.5485C29.4359 19.3881 29.4254 19.2459 29.3719 19.1428C29.3197 19.0424 29.2238 18.9734 29.0677 18.9623C28.5154 18.9264 28.0905 18.7838 27.753 18.5696C27.4156 18.3555 27.1676 18.0711 26.9672 17.7547C26.767 17.4387 26.6136 17.0895 26.466 16.746C26.4569 16.7249 26.4478 16.7037 26.4387 16.6826C26.3003 16.36 26.165 16.0446 25.9978 15.7631C25.6414 15.1628 25.176 14.6914 24.7991 14.3697C24.6108 14.209 24.4448 14.0859 24.326 14.0031C24.2667 13.9617 24.2191 13.9303 24.1865 13.9094C24.177 13.9033 24.1687 13.8981 24.1618 13.8938C24.1569 13.8907 24.1527 13.888 24.1491 13.8859C24.1449 13.8832 24.1417 13.8813 24.1396 13.88L24.1372 13.8786L24.1366 13.8782L24.1365 13.8782L24.1705 13.8074L24.1707 13.8075L24.1715 13.8078L24.1748 13.8091C24.1778 13.8102 24.1822 13.8119 24.1882 13.8141C24.2001 13.8186 24.2178 13.825 24.2411 13.833C24.2876 13.8491 24.3559 13.8714 24.4429 13.8962C24.617 13.9459 24.8657 14.0055 25.1633 14.0453C25.7589 14.1248 26.5485 14.1245 27.3292 13.8075C27.5212 13.7295 27.8201 13.534 28.1988 13.2478C28.5765 12.9624 29.0302 12.5894 29.5309 12.1593C30.5322 11.2991 31.7198 10.2121 32.8583 9.14474C33.9967 8.07746 35.0859 7.03017 35.8905 6.24968C36.2928 5.85944 36.6239 5.53591 36.8545 5.30995C36.9698 5.19697 37.0599 5.10838 37.1212 5.04804C37.1518 5.01787 37.1753 4.99477 37.1911 4.9792L37.2118 4.95877C37.3492 4.7416 37.4272 4.54973 37.4534 4.38873C37.4796 4.22717 37.4534 4.09908 37.3856 4.00554C37.3176 3.91187 37.2034 3.84671 37.0415 3.82028C36.8794 3.79381 36.672 3.80673 36.4232 3.86726M36.4232 3.86726L29.3217 5.60766C27.8531 5.96907 26.9172 6.36818 26.3385 6.76164C25.7603 7.15478 25.5422 7.5397 25.5006 7.87335C25.4589 8.20817 25.5935 8.50157 25.7419 8.71369C25.8159 8.81945 25.8926 8.904 25.9508 8.96208C25.9799 8.99109 26.0043 9.01342 26.0213 9.02843C26.0299 9.03593 26.0365 9.04159 26.041 9.04533C26.0432 9.0472 26.0449 9.04859 26.046 9.04949L26.0472 9.05048L26.0475 9.05069L26.117 9.106L20.3906 10.0711L14.6643 9.106L14.7337 9.05072L14.734 9.05048L14.7352 9.04949C14.7363 9.04859 14.738 9.0472 14.7403 9.04533C14.7447 9.04159 14.7514 9.03593 14.7599 9.02843C14.7769 9.01342 14.8013 8.99109 14.8304 8.96208C14.8886 8.904 14.9654 8.81945 15.0394 8.71369C15.1877 8.50157 15.3224 8.20817 15.2807 7.87335C15.2391 7.5397 15.021 7.15478 14.4427 6.76164C13.8641 6.36819 12.9282 5.96908 11.4596 5.60767M11.4596 5.60767L4.35801 3.86726C4.1112 3.80673 3.90478 3.79381 3.74303 3.82027C3.5815 3.84671 3.467 3.91187 3.39853 4.00564C3.33018 4.09925 3.30335 4.22738 3.32902 4.38887C3.3546 4.54981 3.43213 4.74164 3.56947 4.95877L3.56638 4.95572C3.56632 4.95566 3.56629 4.95563 3.53906 4.98389L3.51183 5.01214L3.50866 5.00901L3.50627 5.00523C3.36385 4.7809 3.28002 4.57748 3.25203 4.40141C3.22399 4.22496 3.25185 4.07373 3.33584 3.9587C3.41972 3.84381 3.55521 3.77103 3.73059 3.74233C3.90577 3.71367 4.12317 3.72843 4.37636 3.79052M17.5781 16.6921L17.6059 16.7198L17.553 16.6619L17.5781 16.6921Z" fill="#231F20"/>
<path d="M15.7266 8.84442V15.1969C15.7266 18.8122 20.3906 19.9197 20.3906 19.9197C20.3906 19.9197 25.0547 18.8122 25.0547 15.1969V8.84442H15.7266Z" fill="white"/>
<path fill-rule="evenodd" clip-rule="evenodd" d="M15.7266 8.80494H25.0937V15.1969C25.0937 17.0245 23.9141 18.2157 22.7431 18.9476C22.1572 19.3139 21.5716 19.5664 21.1327 19.7273C20.9131 19.8078 20.7301 19.8654 20.6019 19.903C20.5377 19.9218 20.4873 19.9355 20.4528 19.9446C20.4356 19.9491 20.4223 19.9525 20.4133 19.9548C20.4089 19.9559 20.4054 19.9567 20.4031 19.9573L20.4005 19.9579L20.3998 19.9581L20.3996 19.9581C20.3996 19.9581 20.3995 19.9582 20.3906 19.9197C20.3817 19.9582 20.3817 19.9581 20.3816 19.9581L20.3815 19.9581L20.3808 19.9579L20.3781 19.9573C20.3758 19.9567 20.3724 19.9559 20.3679 19.9548C20.3589 19.9525 20.3457 19.9491 20.3284 19.9446C20.294 19.9355 20.2435 19.9218 20.1794 19.903C20.0511 19.8654 19.8681 19.8078 19.6486 19.7273C19.2096 19.5664 18.624 19.3139 18.0381 18.9476C16.8671 18.2157 15.6876 17.0245 15.6876 15.1969V8.84442H15.7266V8.80494ZM15.7655 8.88389V15.1969C15.7655 16.9845 16.918 18.1548 18.0791 18.8804C18.6592 19.243 19.2396 19.4934 19.6751 19.6531C19.8929 19.7329 20.0742 19.79 20.201 19.8271C20.2645 19.8457 20.3142 19.8593 20.3481 19.8682C20.365 19.8726 20.3779 19.8759 20.3866 19.8781C20.3881 19.8785 20.3894 19.8788 20.3906 19.8791C20.3918 19.8788 20.3932 19.8785 20.3947 19.8781C20.4033 19.8759 20.4163 19.8726 20.4332 19.8682C20.467 19.8593 20.5168 19.8457 20.5802 19.8271C20.707 19.79 20.8884 19.7329 21.1061 19.6531C21.5417 19.4934 22.1221 19.243 22.7022 18.8804C23.8632 18.1548 25.0157 16.9845 25.0157 15.1969V8.88389H15.7655ZM20.3906 19.9197L20.3817 19.9582L20.3906 19.9603L20.3995 19.9582L20.3906 19.9197Z" fill="#231F20"/>
<path d="M17.5938 10.8933V18.5907C18.2344 19.0653 18.9219 19.3976 19.4609 19.6112V10.8933H17.5938ZM23.1875 10.8933V18.5907C22.5469 19.0653 21.8594 19.3976 21.3203 19.6112V10.8933H23.1875Z" fill="#D80027"/>
<path d="M15.7266 8.84442H25.0547V11.8427H15.7266V8.84442Z" fill="#0052B4"/>
<path d="M4.69531 16.6525L2.98438 12.0563H1.22656L3.71094 18.4483H5.67969L8.14063 12.0563H6.38281L4.69531 16.6525ZM35.2734 12.0167H36.75V18.4799H35.2734V12.0167Z" fill="#1583C4"/>
</g>
<defs>
<clipPath id="clip0_6065_659">
<rect width="40" height="27" fill="white"/>
</clipPath>
</defs>
</svg>
