<svg width="40" height="27" viewBox="0 0 40 27" fill="none" xmlns="http://www.w3.org/2000/svg">
<g clip-path="url(#clip0_6065_648)">
<path d="M0 0.000305176H40V26.9997H0V0.000305176Z" fill="black"/>
<path d="M40 13.5V26.9998H0L16.8113 13.5H40Z" fill="#6DA544"/>
<path d="M40 0.000305176V13.5H16.8113L0 0.000305176H40Z" fill="#D80027"/>
<path d="M17.2657 12.1793L2.09906 0.000305176H0.699688L16.9628 13.0598H40V12.1793H17.2657ZM0.699688 26.9997H2.09906L17.2657 14.8207H40V13.9402H16.9628L0.699688 26.9997ZM0 0.562164V1.68588L14.7123 13.5L0 25.3142V26.4378L16.1116 13.5L0 0.562164Z" fill="black"/>
<path d="M0.699688 0.000305176H0V0.562164L16.1116 13.5L0 26.4378V26.9997H0.699688L16.9628 13.9402H40V13.0598H16.9628L0.699688 0.000305176Z" fill="#FFDA44"/>
<path d="M4.97791 16.3779V15.2471C6.09237 15.2471 6.99901 14.3291 6.99901 13.2009C6.99901 12.4026 6.35752 11.7531 5.56901 11.7531C5.0319 11.7531 4.59487 12.1955 4.59487 12.7394C4.59487 13.0872 4.87432 13.3701 5.21784 13.3701C5.3112 13.37 5.40071 13.3324 5.46673 13.2656C5.53276 13.1987 5.5699 13.1081 5.57002 13.0135H6.68682C6.68682 13.8337 6.02784 14.501 5.21791 14.501C4.25862 14.5008 3.47815 13.7105 3.47815 12.7393C3.47815 11.5719 4.41612 10.6222 5.56909 10.6222C6.97338 10.6222 8.11588 11.7789 8.11588 13.2009C8.11588 14.9526 6.70823 16.3779 4.97791 16.3779Z" fill="#FFDA44"/>
</g>
<defs>
<clipPath id="clip0_6065_648">
<rect width="40" height="27" fill="white"/>
</clipPath>
</defs>
</svg>
