<svg width="40" height="27" viewBox="0 0 40 27" fill="none" xmlns="http://www.w3.org/2000/svg">
<g clip-path="url(#clip0_6065_637)">
<path d="M0 -0.000183105H40V27.0001H0V-0.000183105Z" fill="#D80027"/>
<path d="M0 -0.000183105H20V13.4995H0V-0.000183105Z" fill="#0052B4"/>
<path d="M12.9284 7.62993L13.1443 8.30261H13.8427L13.2777 8.71821L13.4935 9.39082L12.9284 8.97514L12.3633 9.39082L12.5791 8.71821L12.0141 8.30261H12.7125L12.9284 7.62993ZM9.42023 2.34729L9.78008 3.4684H10.9441L10.0023 4.16109L10.3621 5.28204L9.42023 4.58927L8.47851 5.28204L8.83828 4.16109L7.8964 3.4684H9.06054L9.42023 2.34729ZM12.8985 3.52124L13.2584 4.64227H14.4224L13.4806 5.33496L13.8403 6.45607L12.8985 5.76314L11.9568 6.45607L12.3165 5.33496L11.3747 4.64227H12.5387L12.8985 3.52124ZM10.1491 8.21695L10.509 9.33798H11.673L10.7312 10.0307L11.0909 11.1517L10.1491 10.4588L9.20742 11.1517L9.56711 10.0307L8.62531 9.33798H9.78937L10.1491 8.21695ZM7.10148 5.28204L7.46125 6.40315H8.62531L7.68351 7.09584L8.0432 8.21695L7.10148 7.52402L6.15969 8.21695L6.51937 7.09584L5.57758 6.40315H6.74164L7.10148 5.28204Z" fill="white"/>
</g>
<defs>
<clipPath id="clip0_6065_637">
<rect width="40" height="27" fill="white"/>
</clipPath>
</defs>
</svg>
