<svg width="40" height="27" viewBox="0 0 40 27" fill="none" xmlns="http://www.w3.org/2000/svg">
<g clip-path="url(#clip0_6065_632)">
<path d="M0 0H40V27.0008H0V0Z" fill="#0052B4"/>
<path d="M17.2438 3.37213L17.8649 4.64647L19.2531 4.85055L18.2485 5.8425L18.4859 7.24261L17.2438 6.58131L16.0016 7.24261L16.2383 5.8425L15.2336 4.85055L16.6227 4.64647L17.2438 3.37213ZM22.7563 3.36739L23.3774 4.64093L24.7664 4.84581L23.7617 5.83696L23.9984 7.23786L22.7563 6.57657L21.5141 7.23786L21.7516 5.83696L20.7469 4.84581L22.1352 4.64093L22.7563 3.36739ZM27.6063 4.26599L28.2274 5.54033L29.6156 5.74441L28.611 6.73635L28.8484 8.13647L27.6063 7.47596L26.3641 8.13647L26.6016 6.73635L25.5961 5.74441L26.9852 5.54033L27.6063 4.26599ZM32.5289 5.71356L33.15 6.9879L34.5383 7.19277L33.5336 8.18393L33.7711 9.58483L32.5289 8.92353L31.2867 9.58483L31.5235 8.18393L30.5188 7.19277L31.9078 6.9879L32.5289 5.71356ZM12.3938 4.26599L13.0149 5.54033L14.4039 5.74441L13.3984 6.73635L13.6359 8.13647L12.3938 7.47596L11.1516 8.13647L11.3891 6.73635L10.3844 5.74441L11.7727 5.54033L12.3938 4.26599ZM7.47111 5.71356L8.0922 6.9879L9.48126 7.19277L8.47657 8.18393L8.71329 9.58483L7.47111 8.92353L6.22892 9.58483L6.46642 8.18393L5.46173 7.19277L6.85001 6.9879L7.47111 5.71356Z" fill="white"/>
<path d="M16.9945 20.5136L14.868 19.437L12.7414 15.1315H14.868L16.9945 12.9783L18.0578 10.8251L20.1844 9.74857L21.2476 10.8251L23.3742 11.9017V12.9783L24.4375 14.0549L27.6273 16.2081L26.5625 19.4378L23.3726 22.6676L22.3094 20.5144L19.1195 22.6676V24.8207L18.0562 23.7441L16.9945 20.5136Z" fill="#FFDA44"/>
</g>
<defs>
<clipPath id="clip0_6065_632">
<rect width="40" height="27" fill="white"/>
</clipPath>
</defs>
</svg>
