<svg width="40" height="27" viewBox="0 0 40 27" fill="none" xmlns="http://www.w3.org/2000/svg">
<g clip-path="url(#clip0_6065_619)">
<path d="M0 0H40V27H0V0Z" fill="white"/>
<path d="M33.6001 17.82C33.1112 18.135 33.6001 18.63 33.3334 18.675C33.0667 18.72 32.6667 18.045 33.2445 17.55C33.9556 16.875 35.8223 17.55 35.8667 19.485C35.8667 20.475 35.4667 22.545 32.6667 22.545C29.289 22.545 27.6001 19.98 27.6001 17.415C27.6001 15.255 29.2445 11.34 30.4889 10.845C31.8667 10.305 33.4667 9.26996 33.5112 8.59496C33.5112 8.36996 32.889 8.54996 32.0445 8.99996C30.6667 9.76496 29.1112 10.125 29.1112 9.62996C29.1112 9.13496 30.4001 8.23496 30.889 7.55996C31.4223 6.83996 31.289 5.08496 32.2223 5.08496C35.6001 5.08496 36.6223 8.54996 35.3334 10.35C34.489 11.52 37.2445 10.8 37.2445 10.8C37.2445 10.8 37.2445 13.185 35.8223 14.085C34.489 14.895 33.689 15.84 33.689 15.84C33.689 15.84 33.7778 13.77 33.4667 14.085C33.2001 14.4 28.5334 16.11 28.8889 19.485C29.0223 20.835 30.889 21.915 32.6667 21.825C34.4445 21.735 35.2001 20.745 35.2445 19.62C35.289 17.865 33.9112 17.64 33.6001 17.82ZM4.75562 19.62C4.80006 20.745 5.55562 21.735 7.33339 21.825C9.11117 21.915 10.9778 20.835 11.1112 19.485C11.4667 16.11 6.80006 14.4 6.53339 14.085C6.22228 13.77 6.31117 15.84 6.31117 15.84C6.31117 15.84 5.51117 14.895 4.17784 14.085C2.75562 13.185 2.75562 10.8 2.75562 10.8C2.75562 10.8 5.51117 11.52 4.66673 10.35C3.37784 8.54996 4.40006 5.08496 7.77784 5.08496C8.71117 5.08496 8.57784 6.83996 9.11117 7.55996C9.60006 8.23496 10.8889 9.13496 10.8889 9.62996C10.8889 10.125 9.33339 9.76496 7.95562 8.99996C7.11117 8.54996 6.48895 8.36996 6.48895 8.59496C6.53339 9.26996 8.13339 10.305 9.51117 10.845C10.7556 11.34 12.4001 15.255 12.4001 17.415C12.4001 19.98 10.7112 22.545 7.33339 22.545C4.53339 22.545 4.13339 20.475 4.13339 19.485C4.17784 17.55 6.0445 16.875 6.75562 17.55C7.28895 18.045 6.93339 18.765 6.66673 18.675C6.40006 18.63 6.93339 18.135 6.40006 17.82C6.13339 17.64 4.75562 17.865 4.75562 19.62Z" fill="#ABABAB"/>
<path fill-rule="evenodd" clip-rule="evenodd" d="M4.48105 7.04671C3.96571 8.13516 4.03254 9.44747 4.6746 10.3441C4.78054 10.4909 4.83113 10.6095 4.83677 10.7046C4.84246 10.8007 4.8022 10.8717 4.72986 10.922C4.65816 10.9718 4.55511 11.0013 4.4343 11.0163C4.31329 11.0313 4.17342 11.032 4.02726 11.0235C3.73494 11.0066 3.41638 10.9531 3.17106 10.9038C3.04837 10.8792 2.94392 10.8556 2.87014 10.8382C2.83324 10.8295 2.80402 10.8223 2.784 10.8173C2.7765 10.8154 2.77029 10.8139 2.76545 10.8127C2.7655 10.8165 2.76558 10.8212 2.76569 10.8267C2.76603 10.8444 2.76673 10.8704 2.76811 10.9038C2.77088 10.9706 2.77643 11.0671 2.78752 11.1857C2.80971 11.423 2.85409 11.7488 2.94282 12.1025C3.12039 12.8104 3.47507 13.6285 4.1829 14.0765C4.85021 14.4819 5.38403 14.9211 5.75104 15.2589C5.93456 15.4278 6.07639 15.5714 6.17236 15.6728C6.22034 15.7235 6.25686 15.7636 6.2814 15.7911C6.2888 15.7994 6.29511 15.8066 6.30031 15.8125C6.29976 15.7976 6.29902 15.7772 6.2982 15.7519C6.29637 15.6959 6.29412 15.6162 6.29238 15.5216C6.28891 15.3324 6.28751 15.0833 6.29586 14.844C6.30419 14.6049 6.32226 14.3748 6.35792 14.224C6.36685 14.1862 6.37694 14.1532 6.38838 14.1261C6.39976 14.0991 6.41274 14.0773 6.42777 14.0628C6.44305 14.048 6.46085 14.0403 6.48085 14.043C6.50033 14.0455 6.52009 14.0575 6.54027 14.078L6.5408 14.0785C6.55636 14.0969 6.58896 14.1213 6.63778 14.152C6.68626 14.1825 6.74968 14.2186 6.82586 14.2603C6.89324 14.2972 6.97048 14.3385 7.05603 14.3842C7.06717 14.3902 7.07846 14.3962 7.08988 14.4023C7.18897 14.4553 7.29838 14.5139 7.41579 14.5783C7.88541 14.8357 8.48313 15.1848 9.06149 15.6296C10.2178 16.5189 11.2992 17.7931 11.1208 19.486M2.7556 10.7999L2.75803 10.7904L2.74585 10.7872L2.74585 10.7999H2.7556ZM7.95098 9.00863C8.64052 9.39148 9.3747 9.6731 9.93686 9.79708C10.2178 9.85904 10.4566 9.88183 10.6257 9.85768C10.7102 9.84561 10.7783 9.82167 10.8254 9.78412C10.873 9.74623 10.8987 9.69486 10.8987 9.62994C10.8987 9.56597 10.8779 9.49621 10.8413 9.42215C10.8047 9.34803 10.752 9.26904 10.6875 9.18648C10.5586 9.02137 10.3818 8.84096 10.1901 8.65531C10.1094 8.57713 10.026 8.49802 9.94247 8.41872C9.62854 8.12077 9.31154 7.81992 9.11901 7.5541L9.11895 7.55402C8.98672 7.37551 8.89544 7.13226 8.81842 6.86669C8.77994 6.734 8.74508 6.59601 8.71044 6.458L8.70571 6.43914C8.67267 6.30749 8.63969 6.17605 8.60385 6.04972C8.52881 5.78519 8.44094 5.54186 8.31277 5.36458C8.18423 5.18679 8.01486 5.07507 7.77782 5.07507C6.08514 5.07507 4.98175 5.94354 4.46347 7.03818C3.94548 8.13222 4.01199 9.4524 4.65882 10.3557C4.76397 10.5014 4.81201 10.6163 4.81731 10.7058C4.82255 10.7943 4.78608 10.859 4.71883 10.9057C4.65094 10.9529 4.55157 10.9818 4.43193 10.9967C4.31249 11.0115 4.17389 11.0123 4.02837 11.0038C3.73736 10.987 3.41981 10.9337 3.17485 10.8845C3.05241 10.8599 2.94818 10.8364 2.87456 10.819C2.83776 10.8103 2.80861 10.8031 2.78867 10.7982C2.7787 10.7957 2.77103 10.7937 2.76586 10.7924L2.76 10.7909L2.75852 10.7905L2.75815 10.7904L2.75803 10.7904C2.75801 10.7904 2.75803 10.7904 2.7556 10.7999M9.10332 7.56582C8.9689 7.38433 8.87685 7.13822 8.79972 6.87225C8.76112 6.73916 8.72618 6.60083 8.69155 6.46286L8.68683 6.44407C8.65378 6.31235 8.62087 6.18119 8.58512 6.05517C8.51016 5.79094 8.42303 5.55052 8.29704 5.37624C8.1714 5.20246 8.00744 5.09481 7.77782 5.09481C6.09272 5.09481 4.99611 5.95885 4.48105 7.04671M30.8968 7.56578C31.0312 7.38429 31.1232 7.1382 31.2004 6.87225L30.8968 7.56578ZM32.0491 9.00862C31.3596 9.39148 30.6254 9.6731 30.0632 9.79708C29.7823 9.85904 29.5435 9.88183 29.3744 9.85768C29.2899 9.84561 29.2218 9.82167 29.1747 9.78412C29.1271 9.74623 29.1014 9.69486 29.1014 9.62994C29.1014 9.56597 29.1222 9.49621 29.1588 9.42215C29.1954 9.34803 29.2481 9.26904 29.3125 9.18648C29.4415 9.02137 29.6183 8.84096 29.81 8.65531C29.8907 8.57713 29.974 8.49803 30.0576 8.41872C30.3715 8.12078 30.6885 7.81992 30.8811 7.55411L30.8811 7.55402C31.0134 7.37551 31.1046 7.13226 31.1817 6.86669C31.2201 6.734 31.255 6.59601 31.2896 6.458L31.2944 6.43918C31.3274 6.30752 31.3604 6.17606 31.3962 6.04972C31.4713 5.78519 31.5591 5.54186 31.6873 5.36458C31.8158 5.18679 31.9852 5.07507 32.2223 5.07507C33.9149 5.07507 35.0183 5.94354 35.5366 7.03818C36.0546 8.13222 35.9881 9.4524 35.3413 10.3557C35.2361 10.5014 35.1881 10.6163 35.1828 10.7058C35.1775 10.7943 35.214 10.859 35.2813 10.9057C35.3491 10.9529 35.4485 10.9818 35.5682 10.9967C35.6876 11.0115 35.8262 11.0123 35.9717 11.0038C36.2627 10.987 36.5803 10.9337 36.8252 10.8845C36.9477 10.8599 37.0519 10.8364 37.1255 10.819C37.1623 10.8103 37.1915 10.8031 37.2114 10.7982C37.2214 10.7957 37.2291 10.7937 37.2342 10.7924L37.2401 10.7909L37.242 10.7904C37.242 10.7904 37.2421 10.7904 37.2445 10.7999C37.2542 10.7999 37.2542 10.8 37.2542 10.8V10.8001L37.2542 10.8004L37.2542 10.8017L37.2542 10.8069C37.2542 10.8115 37.2541 10.8183 37.2539 10.8271C37.2535 10.8449 37.2528 10.871 37.2514 10.9046C37.2487 10.9717 37.2431 11.0686 37.232 11.1876C37.2097 11.4256 37.1652 11.7524 37.0762 12.1074C36.8982 12.8169 36.5418 13.6413 35.8274 14.0933L35.8273 14.0934C35.1613 14.498 34.6285 14.9363 34.2622 15.2735C34.079 15.4421 33.9375 15.5854 33.8418 15.6865C33.794 15.737 33.7576 15.777 33.7331 15.8044C33.7209 15.818 33.7117 15.8286 33.7056 15.8356C33.7025 15.8392 33.7002 15.8419 33.6986 15.8437L33.6969 15.8457L33.6965 15.8462L33.6964 15.8463C33.6964 15.8463 33.6963 15.8464 33.6889 15.8399C33.6792 15.8395 33.6792 15.8395 33.6792 15.8395L33.6793 15.838L33.6794 15.8336C33.6796 15.8297 33.6798 15.8239 33.6801 15.8164C33.6807 15.8013 33.6815 15.7793 33.6824 15.7513C33.6842 15.6953 33.6865 15.6158 33.6882 15.5212C33.6917 15.3322 33.6931 15.0835 33.6847 14.8447C33.6764 14.6056 33.6584 14.3773 33.6232 14.2286C33.6144 14.1914 33.6046 14.1595 33.5938 14.1338C33.5829 14.1079 33.5712 14.089 33.5588 14.077C33.5468 14.0654 33.5346 14.0609 33.5217 14.0625C33.5084 14.0643 33.4925 14.0729 33.4739 14.0917C33.456 14.1126 33.421 14.1383 33.3726 14.1688C33.3236 14.1996 33.2598 14.2359 33.1835 14.2777C33.116 14.3146 33.0386 14.356 32.953 14.4017L32.9193 14.4198C32.8202 14.4727 32.7109 14.5313 32.5936 14.5957C32.1243 14.8529 31.5276 15.2014 30.9504 15.6453C29.7956 16.5335 28.7214 17.8017 28.8986 19.4839C28.9649 20.1545 29.462 20.7598 30.1662 21.1865C30.8701 21.613 31.7793 21.86 32.6662 21.8151C33.5534 21.7702 34.1843 21.5008 34.5989 21.1034C35.0134 20.7061 35.2126 20.1799 35.2347 19.6196C35.2569 18.7452 34.9249 18.2536 34.5502 18.0025C34.3626 17.8769 34.1641 17.8113 33.9932 17.7882C33.822 17.7652 33.6802 17.785 33.6051 17.8284M33.6889 15.8399L33.6792 15.8395L33.678 15.8681L33.6964 15.8463L33.6889 15.8399ZM33.6998 15.8125C33.7001 15.8121 33.7005 15.8117 33.7009 15.8113C33.7058 15.8056 33.7118 15.7989 33.7187 15.7911C33.7432 15.7636 33.7797 15.7235 33.8277 15.6728C33.9237 15.5714 34.0655 15.4278 34.249 15.2589C34.6161 14.9211 35.1499 14.4819 35.8172 14.0765C36.525 13.6285 36.8797 12.8104 37.0573 12.1025C37.146 11.7488 37.1904 11.423 37.2126 11.1857C37.2237 11.0671 37.2292 10.9706 37.232 10.9038C37.2334 10.8704 37.2341 10.8444 37.2344 10.8267C37.2345 10.8212 37.2346 10.8165 37.2346 10.8127L37.2321 10.8133C37.2277 10.8144 37.2224 10.8158 37.2161 10.8173C37.1961 10.8223 37.1668 10.8295 37.1299 10.8382C37.0562 10.8556 36.9517 10.8792 36.829 10.9038C36.5837 10.9531 36.2651 11.0066 35.9728 11.0235C35.8267 11.032 35.6868 11.0313 35.5658 11.0163C35.445 11.0013 35.3419 10.9718 35.2702 10.922C35.1979 10.8717 35.1576 10.8007 35.1633 10.7046C35.169 10.6095 35.2195 10.4909 35.3255 10.3441C35.9675 9.44745 36.0344 8.13515 35.519 7.04671C35.004 5.95885 33.9074 5.09481 32.2223 5.09481C31.9926 5.09481 31.8287 5.20246 31.703 5.37624C31.577 5.55052 31.4899 5.79094 31.415 6.05517C31.3792 6.18116 31.3463 6.31229 31.3133 6.44398L31.3085 6.46286C31.2739 6.60083 31.239 6.73916 31.2004 6.87225M33.6998 15.8125C33.7 15.8052 33.7004 15.7965 33.7007 15.7866C33.7011 15.7763 33.7015 15.7647 33.7019 15.7519C33.7037 15.6959 33.706 15.6162 33.7077 15.5216C33.7112 15.3324 33.7126 15.0833 33.7042 14.844C33.6959 14.6049 33.6778 14.3748 33.6422 14.224C33.6332 14.1862 33.6231 14.1532 33.6117 14.1261C33.6003 14.0991 33.5873 14.0773 33.5723 14.0628C33.557 14.048 33.5392 14.0403 33.5192 14.043C33.4998 14.0455 33.48 14.0575 33.4598 14.078L33.4593 14.0785C33.4437 14.0969 33.4111 14.1213 33.3623 14.152C33.3138 14.1825 33.2504 14.2186 33.1742 14.2603C33.1068 14.2972 33.0295 14.3385 32.9439 14.3843L32.9102 14.4023C32.8111 14.4553 32.7017 14.5139 32.5843 14.5783C32.1147 14.8357 31.517 15.1848 30.9386 15.6296C29.7823 16.5189 28.7009 17.7931 28.8792 19.486C28.9464 20.1653 29.4492 20.7751 30.1561 21.2034C30.8633 21.6319 31.7763 21.8799 32.6672 21.8348C33.5578 21.7897 34.1935 21.5191 34.6123 21.1177C35.0311 20.7163 35.2319 20.185 35.2542 19.6203L35.2542 19.6202C35.2765 18.7397 34.9419 18.2413 34.561 17.9861C34.3708 17.8586 34.1694 17.7921 33.9958 17.7687C33.8227 17.7454 33.6757 17.7648 33.5952 17.8114M37.2445 10.7999L37.2542 10.8V10.7872L37.242 10.7904L37.2445 10.7999Z" fill="#7F7F7F"/>
<path d="M13.7778 12.96V19.26C13.7778 20.115 14.7112 19.98 14.7112 19.98H18.8445C19.3778 19.98 20.0001 21.015 20.0001 21.015C20.0001 21.015 20.6223 19.98 21.1112 19.98H25.3778C25.3778 19.98 26.2667 20.07 26.2667 19.17V12.915H13.7778V12.96Z" fill="#DE393A"/>
<path d="M13.7778 5.89502H26.2223V12.96H13.7778V5.89502Z" fill="#3951A3"/>
<path d="M22.2667 7.42505C22.0889 8.50505 21.1556 9.31505 20 9.31505C18.8889 9.31505 17.9556 8.50505 17.7334 7.42505C17.5111 7.83005 17.3778 8.28005 17.3778 8.77505C17.3778 10.26 18.5334 11.43 20 11.43C21.4667 11.43 22.6223 10.26 22.6223 8.77505C22.6223 8.28005 22.4889 7.83005 22.2667 7.42505Z" fill="white"/>
<path d="M17.3778 17.775C18.1141 17.775 18.7111 17.1705 18.7111 16.425C18.7111 15.6794 18.1141 15.075 17.3778 15.075C16.6414 15.075 16.0444 15.6794 16.0444 16.425C16.0444 17.1705 16.6414 17.775 17.3778 17.775Z" fill="#FEE05F"/>
<path d="M22.6223 17.775C23.3587 17.775 23.9556 17.1705 23.9556 16.425C23.9556 15.6794 23.3587 15.075 22.6223 15.075C21.8859 15.075 21.2889 15.6794 21.2889 16.425C21.2889 17.1705 21.8859 17.775 22.6223 17.775Z" fill="#FEE05F"/>
</g>
<defs>
<clipPath id="clip0_6065_619">
<rect width="40" height="27" fill="white"/>
</clipPath>
</defs>
</svg>
