<svg width="40" height="27" viewBox="0 0 40 27" fill="none" xmlns="http://www.w3.org/2000/svg">
<g clip-path="url(#clip0_6065_612)">
<path d="M0 0.000305176H40V26.9997H0V0.000305176Z" fill="white"/>
<path d="M8.90812 13.5001L0 4.47662V22.5252L8.90812 13.5001Z" fill="black"/>
<path d="M12.5931 13.5001L0 0.740967V4.47662L8.90812 13.5001L0 22.5252V26.2539L12.5931 13.5001Z" fill="#FFB915"/>
<path d="M39.8307 16.1413C39.8352 16.1065 39.8935 16.0719 40 16.0371V10.8587H17.3908L6.66641 0.000305176H0V0.740934L12.5931 13.5L0 26.2539V26.9997H6.66641L17.3908 16.1413H39.8307Z" fill="#007847"/>
<path d="M39.311 18.7827H18.4714L10.3557 26.9998H40V18.7827H39.311Z" fill="#000C8A"/>
<path d="M39.311 8.21738H40V0.000305176H10.3557L18.4714 8.21738H39.311Z" fill="#E1392D"/>
</g>
<defs>
<clipPath id="clip0_6065_612">
<rect width="40" height="27" fill="white"/>
</clipPath>
</defs>
</svg>
