<svg width="40" height="27" viewBox="0 0 40 27" fill="none" xmlns="http://www.w3.org/2000/svg">
<g clip-path="url(#clip0_6065_606)">
<path d="M0 -0.000183105H40V27.0001H0V-0.000183105Z" fill="#496E2D"/>
<path d="M38.3334 8.71246H34.5834C34.5834 8.01352 34.0237 7.44684 33.3334 7.44684C32.6431 7.44684 32.0834 8.01352 32.0834 8.71246H28.3334C28.3334 9.41141 28.9348 9.97809 29.6251 9.97809H29.5834C29.5834 10.677 30.143 11.2437 30.8334 11.2437C30.8334 11.9427 31.393 12.5093 32.0834 12.5093H34.5834C35.2737 12.5093 35.8334 11.9427 35.8334 11.2437C36.5237 11.2437 37.0834 10.677 37.0834 9.97809H37.0418C37.7322 9.97809 38.3334 9.41141 38.3334 8.71246Z" fill="#FF9811"/>
<path d="M26.6669 13.4996H31.1113V26.9993H26.6669V13.4996Z" fill="#D80027"/>
<path d="M35.5556 13.4996H40V26.9993H35.5556V13.4996Z" fill="#FF9811"/>
<path d="M31.1113 13.4996H35.5557V26.9993H31.1113V13.4996Z" fill="black"/>
</g>
<defs>
<clipPath id="clip0_6065_606">
<rect width="40" height="27" fill="white"/>
</clipPath>
</defs>
</svg>
