<svg width="40" height="27" viewBox="0 0 40 27" fill="none" xmlns="http://www.w3.org/2000/svg">
<g clip-path="url(#clip0_6065_594)">
<path d="M0 0H40V27.0003H0V0Z" fill="black"/>
<path d="M0 3.86511H40V7.73065H0V3.86511ZM0 19.3273H40V23.1928H0V19.3273Z" fill="#FFDA44"/>
<path d="M0 0H40V3.86554H0V0Z" fill="#057F44"/>
<path d="M0 7.73108H40V11.5966H0V7.73108ZM0 15.4622H40V19.3278H0V15.4622Z" fill="#D80027"/>
<path d="M0 23.1934H40V27.0004H0V23.1934Z" fill="#057F44"/>
<path d="M21.64 13.4997L8.30695 26.9994H0V0H8.30695L21.64 13.4997Z" fill="white"/>
<path d="M20 13.4997L6.66675 26.9997H8.30636L21.6397 13.4997L8.30636 -0.000244141H6.66675L20 13.4997Z" fill="black"/>
<path d="M8.00508 9.27368L9.04094 12.502H12.3938L9.68149 14.4974L10.7174 17.7259L8.00508 15.7306L5.29258 17.7259L6.32868 14.4974L3.61633 12.502H6.96907L8.00508 9.27368Z" fill="#D80027"/>
<path d="M10.8547 13.7638L8.15481 12.7954C8.15481 12.7954 7.95536 10.9005 7.94325 10.8364C7.85161 10.3475 7.42739 9.97803 6.91802 9.97803C6.34177 9.97803 5.8745 10.4511 5.8745 11.0346C5.8745 11.1313 5.88841 11.2246 5.91247 11.3137L5.15552 12.0853H6.50153C6.50153 13.4998 5.45903 13.4998 5.45903 14.9085L6.03731 16.3172H9.5156L10.0954 14.9085H10.0951C10.1517 14.777 10.1881 14.6374 10.203 14.4947C10.7028 14.2899 10.8547 13.7638 10.8547 13.7638Z" fill="#FFDA44"/>
</g>
<defs>
<clipPath id="clip0_6065_594">
<rect width="40" height="27" fill="white"/>
</clipPath>
</defs>
</svg>
