<svg width="32" height="32" viewBox="0 0 32 32" fill="none" xmlns="http://www.w3.org/2000/svg">
<path d="M9.33377 5.33337C8.27296 5.33337 7.2556 5.75478 6.50549 6.50488C5.75539 7.25499 5.33398 8.27235 5.33398 9.33316C5.33706 10.0915 5.55836 10.8329 5.97145 11.4689L12.0503 6.40332C11.3128 5.7158 10.342 5.33346 9.33377 5.33337ZM22.6664 5.33337C21.6585 5.33357 20.6882 5.71557 19.9507 6.40248L26.0291 11.4676C26.4417 10.8319 26.6629 10.091 26.6662 9.33316C26.6662 8.27235 26.2448 7.25499 25.4947 6.50488C24.7446 5.75478 23.7272 5.33337 22.6664 5.33337ZM16.0001 7.9999C10.8462 7.9999 6.66725 12.1784 6.66725 17.3327C6.66682 19.347 7.32185 21.3066 8.5334 22.9158L6.86265 24.5861C6.80073 24.648 6.75162 24.7215 6.71811 24.8024C6.68459 24.8833 6.66735 24.97 6.66735 25.0575C6.66735 25.1451 6.68459 25.2318 6.71811 25.3127C6.75162 25.3936 6.80073 25.467 6.86265 25.529L7.8051 26.4714C7.86701 26.5333 7.9405 26.5824 8.02139 26.6159C8.10228 26.6495 8.18898 26.6667 8.27653 26.6667C8.36409 26.6667 8.45079 26.6495 8.53168 26.6159C8.61257 26.5824 8.68606 26.5333 8.74797 26.4714L10.417 24.7998C12.0263 26.0111 13.9859 26.6662 16.0001 26.6662C18.0143 26.6662 19.9738 26.0111 21.5831 24.7998L23.2539 26.4702C23.3789 26.5951 23.5484 26.6652 23.7251 26.6652C23.9018 26.6652 24.0713 26.5951 24.1963 26.4702L25.1392 25.5277C25.2011 25.4658 25.2502 25.3923 25.2837 25.3114C25.3172 25.2305 25.3345 25.1438 25.3345 25.0563C25.3345 24.9687 25.3172 24.882 25.2837 24.8011C25.2502 24.7202 25.2011 24.6467 25.1392 24.5848L23.4684 22.9158C24.6794 21.3064 25.3338 19.3468 25.3329 17.3327C25.3329 12.1784 21.1556 7.9999 16.0001 7.9999ZM16.0001 22.6658C15.7364 22.6658 15.4786 22.5876 15.2594 22.4411C15.0401 22.2946 14.8692 22.0864 14.7683 21.8427C14.6674 21.5991 14.641 21.331 14.6924 21.0724C14.7439 20.8138 14.8709 20.5762 15.0573 20.3898C15.2438 20.2033 15.4813 20.0763 15.74 20.0249C15.9986 19.9734 16.2667 19.9998 16.5103 20.1007C16.7539 20.2017 16.9621 20.3725 17.1086 20.5918C17.2551 20.811 17.3333 21.0688 17.3333 21.3325C17.3333 21.6861 17.1929 22.0252 16.9428 22.2753C16.6928 22.5253 16.3537 22.6658 16.0001 22.6658ZM17.0584 18.066C17.0418 18.2303 16.9649 18.3826 16.8426 18.4935C16.7202 18.6043 16.561 18.6658 16.3959 18.666H15.6043C15.4391 18.6658 15.28 18.6043 15.1576 18.4935C15.0352 18.3826 14.9583 18.2303 14.9418 18.066L14.4085 12.733C14.3996 12.6404 14.41 12.547 14.4392 12.4587C14.4684 12.3705 14.5157 12.2892 14.578 12.2202C14.6404 12.1512 14.7164 12.096 14.8013 12.058C14.8861 12.02 14.978 12.0002 15.071 11.9997H16.9292C17.0223 11.9998 17.1143 12.0194 17.1994 12.0573C17.2844 12.0951 17.3606 12.1503 17.423 12.2194C17.4854 12.2885 17.5327 12.3699 17.5617 12.4583C17.5908 12.5468 17.601 12.6403 17.5917 12.733L17.0584 18.066Z" fill="#474747"/>
</svg>
