<svg width="32" height="32" viewBox="0 0 32 32" fill="none" xmlns="http://www.w3.org/2000/svg">
<path d="M9.3335 5.33276C8.27263 5.33276 7.25521 5.75419 6.50507 6.50434C5.75492 7.25448 5.3335 8.2719 5.3335 9.33276C5.33658 10.0911 5.55789 10.8326 5.971 11.4686L12.0502 6.40276C11.3126 5.71521 10.3418 5.33285 9.3335 5.33276ZM22.6668 5.33276C21.6589 5.33296 20.6885 5.71498 19.951 6.40193L26.0297 11.4673C26.4424 10.8316 26.6635 10.0907 26.6668 9.33276C26.6668 8.2719 26.2454 7.25448 25.4953 6.50434C24.7451 5.75419 23.7277 5.33276 22.6668 5.33276ZM16.0002 7.99943C10.846 7.99943 6.66683 12.1782 6.66683 17.3328C6.6664 19.3471 7.32146 21.3069 8.53308 22.9161L6.86225 24.5865C6.80032 24.6484 6.7512 24.7219 6.71769 24.8028C6.68418 24.8837 6.66693 24.9704 6.66693 25.058C6.66693 25.1455 6.68418 25.2322 6.71769 25.3131C6.7512 25.394 6.80032 25.4675 6.86225 25.5294L7.80475 26.4719C7.86665 26.5339 7.94015 26.583 8.02105 26.6165C8.10194 26.65 8.18864 26.6672 8.2762 26.6672C8.36377 26.6672 8.45047 26.65 8.53136 26.6165C8.61226 26.583 8.68576 26.5339 8.74766 26.4719L10.4168 24.8003C12.0262 26.0116 13.9859 26.6667 16.0002 26.6667C18.0145 26.6667 19.9741 26.0116 21.5835 24.8003L23.2543 26.4707C23.3793 26.5956 23.5488 26.6658 23.7256 26.6658C23.9023 26.6658 24.0718 26.5956 24.1968 26.4707L25.1397 25.5282C25.2017 25.4663 25.2508 25.3928 25.2843 25.3119C25.3178 25.231 25.3351 25.1443 25.3351 25.0567C25.3351 24.9692 25.3178 24.8825 25.2843 24.8016C25.2508 24.7207 25.2017 24.6472 25.1397 24.5853L23.4689 22.9161C24.68 21.3067 25.3344 19.3469 25.3335 17.3328C25.3335 12.1782 21.156 7.99943 16.0002 7.99943ZM19.7502 20.1457L18.9168 21.1873C18.8621 21.2557 18.7945 21.3127 18.7178 21.3549C18.6411 21.3971 18.5569 21.4238 18.4699 21.4335C18.3828 21.4432 18.2948 21.4356 18.2107 21.4113C18.1266 21.3869 18.0481 21.3462 17.9797 21.2915L15.2918 19.1407C15.0968 18.9845 14.9393 18.7865 14.8311 18.5612C14.723 18.336 14.6668 18.0893 14.6668 17.8394V12.6661C14.6668 12.4893 14.7371 12.3197 14.8621 12.1947C14.9871 12.0697 15.1567 11.9994 15.3335 11.9994H16.6668C16.8436 11.9994 17.0132 12.0697 17.1382 12.1947C17.2633 12.3197 17.3335 12.4893 17.3335 12.6661V17.3586L19.646 19.2086C19.7144 19.2633 19.7713 19.3309 19.8135 19.4076C19.8558 19.4843 19.8825 19.5685 19.8922 19.6556C19.9018 19.7426 19.8943 19.8307 19.8699 19.9147C19.8455 19.9988 19.8049 20.0773 19.7502 20.1457Z" fill="#474747"/>
</svg>
