<svg width="32" height="32" viewBox="0 0 32 32" fill="none" xmlns="http://www.w3.org/2000/svg">
<path d="M16.0002 5.33337C10.1077 5.33337 5.3335 10.1076 5.3335 16C5.3335 21.8925 10.1077 26.6667 16.0002 26.6667C21.8926 26.6667 26.6668 21.8925 26.6668 16C26.6668 10.1076 21.8926 5.33337 16.0002 5.33337ZM11.183 15.3119C11.183 14.9119 11.3593 14.5592 11.6346 14.3054L10.3012 13.9054C9.93565 13.7979 9.7292 13.4108 9.84102 13.0495C9.94855 12.6839 10.3313 12.4818 10.6969 12.5893L14.1378 13.6215C14.5034 13.7291 14.7098 14.1162 14.598 14.4775C14.5077 14.7742 14.2367 14.9678 13.9399 14.9678C13.9184 14.9678 13.8926 14.9592 13.8668 14.9592C13.8969 15.0753 13.9399 15.1871 13.9399 15.3119C13.9399 16.0732 13.3249 16.6882 12.5636 16.6882C11.8023 16.6882 11.183 16.0732 11.183 15.3119ZM18.4088 21.9441C17.2131 20.5076 14.7873 20.5076 13.5873 21.9441C13.0066 22.6452 11.9442 21.7635 12.5292 21.0624C13.3894 20.0301 14.6539 19.4366 15.9959 19.4366C17.3378 19.4366 18.6023 20.0301 19.4625 21.0624C20.0561 21.7721 18.9851 22.6366 18.4088 21.9441ZM21.7034 13.9054L20.3701 14.3054C20.641 14.5549 20.8217 14.9119 20.8217 15.3119C20.8217 16.0732 20.2066 16.6882 19.4453 16.6882C18.684 16.6882 18.069 16.0732 18.069 15.3119C18.069 15.1871 18.1077 15.071 18.1421 14.9592C18.1163 14.9635 18.0948 14.9678 18.069 14.9678C17.7722 14.9678 17.5012 14.7742 17.4109 14.4775C17.3034 14.1119 17.5098 13.7291 17.8711 13.6215L21.312 12.5893C21.6733 12.4818 22.0604 12.6882 22.1679 13.0495C22.2754 13.4151 22.069 13.7979 21.7034 13.9054Z" fill="currentColor"/>
</svg>
