<svg width="32" height="32" viewBox="0 0 32 32" fill="none" xmlns="http://www.w3.org/2000/svg">
<path d="M20.6665 23.0433L26.3707 17.3766C26.7651 16.9855 26.7651 16.3478 26.3707 15.9567L20.6665 10.29C20.2755 9.90217 19.6446 9.90342 19.2552 10.2928L18.3362 11.2118C17.9354 11.6126 17.9475 12.266 18.3628 12.6517L20.8815 15L8.66651 15L8.66651 11.501C8.66651 11.4353 8.65358 11.3703 8.62845 11.3096C8.60332 11.249 8.56648 11.1938 8.52005 11.1474L6.18671 8.81409C5.87175 8.49909 5.33317 8.72217 5.33317 9.16763L5.33317 17.3333C5.33317 17.8856 5.78088 18.3333 6.33317 18.3333L20.8815 18.3333L18.3628 20.6815C17.9475 21.0672 17.9354 21.7206 18.3362 22.1214L19.2552 23.0404C19.6446 23.4298 20.2755 23.4311 20.6665 23.0433Z" fill="currentColor"/>
</svg>
