<svg width="32" height="32" viewBox="0 0 32 32" fill="none" xmlns="http://www.w3.org/2000/svg">
<path d="M26.6668 11.3333V7.33333C26.6668 6.59708 26.0697 6 25.3335 6H21.3335C20.5972 6 20.0002 6.59708 20.0002 7.33333H12.0002C12.0002 6.59708 11.4031 6 10.6668 6H6.66683C5.93058 6 5.3335 6.59708 5.3335 7.33333V11.3333C5.3335 12.0696 5.93058 12.6667 6.66683 12.6667V20.6667C5.93058 20.6667 5.3335 21.2638 5.3335 22V26C5.3335 26.7362 5.93058 27.3333 6.66683 27.3333H10.6668C11.4031 27.3333 12.0002 26.7362 12.0002 26H20.0002C20.0002 26.7362 20.5972 27.3333 21.3335 27.3333H25.3335C26.0697 27.3333 26.6668 26.7362 26.6668 26V22C26.6668 21.2638 26.0697 20.6667 25.3335 20.6667V12.6667C26.0697 12.6667 26.6668 12.0696 26.6668 11.3333ZM22.6668 8.66667H24.0002V10H22.6668V8.66667ZM8.00016 8.66667H9.3335V10H8.00016V8.66667ZM9.3335 24.6667H8.00016V23.3333H9.3335V24.6667ZM24.0002 24.6667H22.6668V23.3333H24.0002V24.6667ZM22.6668 20.6667H21.3335C20.5972 20.6667 20.0002 21.2638 20.0002 22V23.3333H12.0002V22C12.0002 21.2638 11.4031 20.6667 10.6668 20.6667H9.3335V12.6667H10.6668C11.4031 12.6667 12.0002 12.0696 12.0002 11.3333V10H20.0002V11.3333C20.0002 12.0696 20.5972 12.6667 21.3335 12.6667H22.6668V20.6667Z" fill="#474747"/>
</svg>
