<svg width="32" height="32" viewBox="0 0 32 32" fill="none" xmlns="http://www.w3.org/2000/svg">
<path d="M11.3335 23.0433L5.62928 17.3766C5.2349 16.9855 5.2349 16.3478 5.62928 15.9567L11.3335 10.29C11.7245 9.90217 12.3554 9.90342 12.7448 10.2928L13.6638 11.2118C14.0646 11.6126 14.0525 12.266 13.6372 12.6517L11.1185 15L23.3335 15L23.3335 11.501C23.3335 11.4353 23.3464 11.3703 23.3716 11.3096C23.3967 11.249 23.4335 11.1938 23.48 11.1474L25.8133 8.81409C26.1282 8.49909 26.6668 8.72217 26.6668 9.16763L26.6668 17.3333C26.6668 17.8856 26.2191 18.3333 25.6668 18.3333L11.1185 18.3333L13.6372 20.6815C14.0525 21.0672 14.0646 21.7206 13.6638 22.1214L12.7448 23.0404C12.3554 23.4298 11.7245 23.4311 11.3335 23.0433Z" fill="currentColor"/>
</svg>
