<svg width="32" height="32" viewBox="0 0 32 32" fill="none" xmlns="http://www.w3.org/2000/svg">
<path d="M23 25.3333H9C8.44583 25.3333 8 24.8875 8 24.3333V23.3333C8 22.7791 8.44583 22.3333 9 22.3333H23C23.5542 22.3333 24 22.7791 24 23.3333V24.3333C24 24.8875 23.5542 25.3333 23 25.3333ZM20.2333 13.6458L17.5 16.3791V7.66663C17.5 7.11246 17.0542 6.66663 16.5 6.66663H15.5C14.9458 6.66663 14.5 7.11246 14.5 7.66663V16.3791L11.7667 13.6458C11.375 13.2541 10.7417 13.2541 10.3542 13.6458L9.64583 14.3541C9.25417 14.7458 9.25417 15.3791 9.64583 15.7666L15.2917 21.4125C15.6833 21.8041 16.3167 21.8041 16.7042 21.4125L22.35 15.7666C22.7417 15.375 22.7417 14.7416 22.35 14.3541L21.6417 13.6458C21.2542 13.2541 20.6208 13.2541 20.2333 13.6458Z" fill="#404041"/>
</svg>
