<svg width="32" height="32" viewBox="0 0 32 32" fill="none" xmlns="http://www.w3.org/2000/svg">
<path d="M12.0467 20.443C11.6846 20.0809 11.8734 20.183 11.0001 19.9493C10.6038 19.843 10.2555 19.6389 9.94048 19.3943L8.05008 24.0292C7.86717 24.478 8.20883 24.9655 8.69299 24.9471L10.8884 24.8634L12.3984 26.4584C12.7317 26.81 13.3167 26.7005 13.4996 26.2517L15.6683 20.9343C15.2167 21.1859 14.7154 21.3334 14.1971 21.3334C13.3846 21.3334 12.6213 21.0172 12.0467 20.443ZM23.9499 24.0292L22.0595 19.3943C21.7445 19.6393 21.3962 19.843 20.9999 19.9493C20.122 20.1843 20.3145 20.0818 19.9533 20.443C19.3787 21.0172 18.615 21.3334 17.8025 21.3334C17.2842 21.3334 16.7829 21.1855 16.3312 20.9343L18.5 26.2517C18.6829 26.7005 19.2683 26.81 19.6012 26.4584L21.1116 24.8634L23.307 24.9471C23.7912 24.9655 24.1328 24.4776 23.9499 24.0292ZM18.9583 19.5001C19.595 18.8522 19.6679 18.908 20.5745 18.661C21.1533 18.503 21.6058 18.0426 21.7608 17.4535C22.0724 16.2701 21.9916 16.4131 22.842 15.5472C23.2658 15.116 23.4312 14.4872 23.2762 13.8981C22.9649 12.7156 22.9645 12.8806 23.2762 11.6969C23.4312 11.1077 23.2658 10.479 22.842 10.0477C21.9916 9.18188 22.0724 9.32438 21.7608 8.14148C21.6058 7.55232 21.1533 7.0919 20.5745 6.93399C19.4129 6.61691 19.5529 6.69982 18.7016 5.83358C18.2779 5.40234 17.66 5.23359 17.0812 5.3915C15.92 5.70817 16.0821 5.70858 14.9188 5.3915C14.34 5.23359 13.7221 5.40192 13.2984 5.83358C12.448 6.69941 12.588 6.61691 11.4259 6.93399C10.8471 7.0919 10.3946 7.55232 10.2396 8.14148C9.9284 9.32438 10.0088 9.18188 9.1584 10.0477C8.73466 10.479 8.56883 11.1077 8.72424 11.6969C9.03549 12.8785 9.03591 12.7135 8.72424 13.8977C8.56924 14.4868 8.73466 15.1156 9.1584 15.5472C10.0088 16.4131 9.92798 16.2701 10.2396 17.4535C10.3946 18.0426 10.8471 18.503 11.4259 18.661C12.3584 18.9151 12.428 18.8751 13.0417 19.5001C13.5929 20.0614 14.4517 20.1618 15.1142 19.7426C15.3791 19.5744 15.6864 19.4851 16.0002 19.4851C16.314 19.4851 16.6213 19.5744 16.8862 19.7426C17.5483 20.1618 18.4071 20.0614 18.9583 19.5001ZM12.0692 12.6652C12.0692 10.4556 13.8292 8.66439 16 8.66439C18.1708 8.66439 19.9308 10.4556 19.9308 12.6652C19.9308 14.8747 18.1708 16.666 16 16.666C13.8292 16.666 12.0692 14.8747 12.0692 12.6652Z" fill="#474747"/>
</svg>
