<svg width="32" height="32" viewBox="0 0 32 32" fill="none" xmlns="http://www.w3.org/2000/svg">
<path d="M13.3332 19.3334H13.3323C13.3323 18.6592 13.3882 18.9696 9.78859 11.7705C9.05317 10.3 6.94734 10.2971 6.21067 11.7705C2.58067 19.0313 2.66734 18.6805 2.66734 19.3334H2.6665C2.6665 21.1742 5.05442 22.6667 7.99984 22.6667C10.9453 22.6667 13.3332 21.1742 13.3332 19.3334ZM7.99984 12.6667L10.9998 18.6667H4.99984L7.99984 12.6667ZM29.3323 19.3334C29.3323 18.6592 29.3882 18.9696 25.7886 11.7705C25.0532 10.3 22.9473 10.2971 22.2107 11.7705C18.5807 19.0313 18.6673 18.6805 18.6673 19.3334H18.6665C18.6665 21.1742 21.0544 22.6667 23.9998 22.6667C26.9453 22.6667 29.3332 21.1742 29.3332 19.3334H29.3323ZM20.9998 18.6667L23.9998 12.6667L26.9998 18.6667H20.9998ZM24.6665 24H17.3332V11.7188C18.3128 11.29 19.0482 10.4071 19.2661 9.33337H24.6665C25.0348 9.33337 25.3332 9.03504 25.3332 8.66671V7.33337C25.3332 6.96504 25.0348 6.66671 24.6665 6.66671H18.6515C18.0432 5.86171 17.0869 5.33337 15.9998 5.33337C14.9128 5.33337 13.9565 5.86171 13.3482 6.66671H7.33317C6.96484 6.66671 6.6665 6.96504 6.6665 7.33337V8.66671C6.6665 9.03504 6.96484 9.33337 7.33317 9.33337H12.7336C12.9515 10.4067 13.6865 11.29 14.6665 11.7188V24H7.33317C6.96484 24 6.6665 24.2984 6.6665 24.6667V26C6.6665 26.3684 6.96484 26.6667 7.33317 26.6667H24.6665C25.0348 26.6667 25.3332 26.3684 25.3332 26V24.6667C25.3332 24.2984 25.0348 24 24.6665 24Z" fill="currentColor"/>
</svg>
