<svg width="32" height="32" viewBox="0 0 32 32" fill="none" xmlns="http://www.w3.org/2000/svg">
<path d="M7.33317 10.7279H24.6665C25.0347 10.7279 25.3332 10.4234 25.3332 10.0476V8.34696C25.3332 7.97124 25.0347 7.66669 24.6665 7.66669H7.33317C6.96496 7.66669 6.6665 7.97124 6.6665 8.34696V10.0476C6.6665 10.4234 6.96496 10.7279 7.33317 10.7279ZM7.33317 17.5306H24.6665C25.0347 17.5306 25.3332 17.2261 25.3332 16.8504V15.1497C25.3332 14.774 25.0347 14.4694 24.6665 14.4694H7.33317C6.96496 14.4694 6.6665 14.774 6.6665 15.1497V16.8504C6.6665 17.2261 6.96496 17.5306 7.33317 17.5306ZM7.33317 24.3334H24.6665C25.0347 24.3334 25.3332 24.0288 25.3332 23.6531V21.9524C25.3332 21.5767 25.0347 21.2721 24.6665 21.2721H7.33317C6.96496 21.2721 6.6665 21.5767 6.6665 21.9524V23.6531C6.6665 24.0288 6.96496 24.3334 7.33317 24.3334Z" fill="#474747"/>
</svg>
