<svg width="32" height="32" viewBox="0 0 32 32" fill="none" xmlns="http://www.w3.org/2000/svg">
<path d="M7.80442 20.4708L11.8044 16.4708C11.9293 16.3458 11.9995 16.1763 11.9995 15.9995C11.9995 15.8228 11.9293 15.6533 11.8044 15.5283L7.80442 11.5283C7.38609 11.1108 6.6665 11.4075 6.6665 12V20C6.6665 20.5962 7.38859 20.8875 7.80442 20.4708ZM24.6665 22.6666H7.33317C7.15636 22.6666 6.98679 22.7369 6.86177 22.8619C6.73674 22.9869 6.6665 23.1565 6.6665 23.3333V24.6666C6.6665 24.8434 6.73674 25.013 6.86177 25.138C6.98679 25.2631 7.15636 25.3333 7.33317 25.3333H24.6665C24.8433 25.3333 25.0129 25.2631 25.1379 25.138C25.2629 25.013 25.3332 24.8434 25.3332 24.6666V23.3333C25.3332 23.1565 25.2629 22.9869 25.1379 22.8619C25.0129 22.7369 24.8433 22.6666 24.6665 22.6666ZM24.7986 17.3333H15.2011C15.1309 17.3332 15.0613 17.347 14.9964 17.3739C14.9316 17.4007 14.8726 17.4401 14.823 17.4897C14.7733 17.5394 14.7339 17.5984 14.7071 17.6632C14.6802 17.7281 14.6664 17.7977 14.6665 17.8679V19.4654C14.6664 19.5356 14.6802 19.6051 14.7071 19.67C14.7339 19.7349 14.7733 19.7939 14.823 19.8435C14.8726 19.8932 14.9316 19.9325 14.9964 19.9594C15.0613 19.9862 15.1309 20 15.2011 20H24.7986C24.8688 20 24.9383 19.9862 25.0032 19.9594C25.0681 19.9325 25.1271 19.8932 25.1767 19.8435C25.2264 19.7939 25.2657 19.7349 25.2926 19.67C25.3194 19.6051 25.3332 19.5356 25.3332 19.4654V17.8679C25.3332 17.7977 25.3194 17.7281 25.2926 17.6632C25.2657 17.5984 25.2264 17.5394 25.1767 17.4897C25.1271 17.4401 25.0681 17.4007 25.0032 17.3739C24.9383 17.347 24.8688 17.3332 24.7986 17.3333ZM24.7986 12H15.2011C15.1309 11.9999 15.0613 12.0137 14.9964 12.0405C14.9316 12.0674 14.8726 12.1068 14.823 12.1564C14.7733 12.2061 14.7339 12.265 14.7071 12.3299C14.6802 12.3948 14.6664 12.4643 14.6665 12.5345V14.132C14.6664 14.2023 14.6802 14.2718 14.7071 14.3367C14.7339 14.4016 14.7733 14.4605 14.823 14.5102C14.8726 14.5598 14.9316 14.5992 14.9964 14.626C15.0613 14.6529 15.1309 14.6667 15.2011 14.6666H24.7986C24.8688 14.6667 24.9383 14.6529 25.0032 14.626C25.0681 14.5992 25.1271 14.5598 25.1767 14.5102C25.2264 14.4605 25.2657 14.4016 25.2926 14.3367C25.3194 14.2718 25.3332 14.2023 25.3332 14.132V12.5345C25.3332 12.4643 25.3194 12.3948 25.2926 12.3299C25.2657 12.265 25.2264 12.2061 25.1767 12.1564C25.1271 12.1068 25.0681 12.0674 25.0032 12.0405C24.9383 12.0137 24.8688 11.9999 24.7986 12ZM24.6665 6.66663H7.33317C7.15636 6.66663 6.98679 6.73686 6.86177 6.86189C6.73674 6.98691 6.6665 7.15648 6.6665 7.33329V8.66663C6.6665 8.84344 6.73674 9.01301 6.86177 9.13803C6.98679 9.26305 7.15636 9.33329 7.33317 9.33329H24.6665C24.8433 9.33329 25.0129 9.26305 25.1379 9.13803C25.2629 9.01301 25.3332 8.84344 25.3332 8.66663V7.33329C25.3332 7.15648 25.2629 6.98691 25.1379 6.86189C25.0129 6.73686 24.8433 6.66663 24.6665 6.66663Z" fill="#474747"/>
</svg>
