<svg width="32" height="32" viewBox="0 0 32 32" fill="none" xmlns="http://www.w3.org/2000/svg">
<path d="M25.3332 20.3334V6.33337C25.3332 5.77921 24.8873 5.33337 24.3332 5.33337H10.6665C8.45817 5.33337 6.6665 7.12504 6.6665 9.33337V22.6667C6.6665 24.875 8.45817 26.6667 10.6665 26.6667H24.3332C24.8873 26.6667 25.3332 26.2209 25.3332 25.6667V25C25.3332 24.6875 25.1873 24.4042 24.9623 24.2209C24.7873 23.5792 24.7873 21.75 24.9623 21.1084C25.1873 20.9292 25.3332 20.6459 25.3332 20.3334ZM11.9998 10.9167C11.9998 10.7792 12.1123 10.6667 12.2498 10.6667H21.0832C21.2207 10.6667 21.3332 10.7792 21.3332 10.9167V11.75C21.3332 11.8875 21.2207 12 21.0832 12H12.2498C12.1123 12 11.9998 11.8875 11.9998 11.75V10.9167ZM11.9998 13.5834C11.9998 13.4459 12.1123 13.3334 12.2498 13.3334H21.0832C21.2207 13.3334 21.3332 13.4459 21.3332 13.5834V14.4167C21.3332 14.5542 21.2207 14.6667 21.0832 14.6667H12.2498C12.1123 14.6667 11.9998 14.5542 11.9998 14.4167V13.5834ZM22.5582 24H10.6665C9.929 24 9.33317 23.4042 9.33317 22.6667C9.33317 21.9334 9.93317 21.3334 10.6665 21.3334H22.5582C22.479 22.0459 22.479 23.2875 22.5582 24Z" fill="#474747"/>
</svg>
