<svg width="32" height="32" viewBox="0 0 32 32" fill="none" xmlns="http://www.w3.org/2000/svg">
<path d="M21.4999 15.25C22.1344 14.4749 22.5258 13.5296 22.6249 12.5329C22.9324 9.35371 20.4378 6.66663 17.3303 6.66663H9.02116C8.84435 6.66663 8.67478 6.73686 8.54975 6.86189C8.42473 6.98691 8.35449 7.15648 8.35449 7.33329V9.33329C8.35449 9.5101 8.42473 9.67967 8.54975 9.8047C8.67478 9.92972 8.84435 9.99996 9.02116 9.99996H10.3491V22H9.02116C8.84435 22 8.67478 22.0702 8.54975 22.1952C8.42473 22.3202 8.35449 22.4898 8.35449 22.6666V24.6666C8.35449 24.8434 8.42473 25.013 8.54975 25.138C8.67478 25.2631 8.84435 25.3333 9.02116 25.3333H17.7428C20.6928 25.3333 23.332 23.177 23.6178 20.2333C23.8153 18.2145 22.9349 16.3975 21.4999 15.25ZM13.6737 9.99996H17.3303C17.8608 9.99996 18.3695 10.2107 18.7445 10.5857C19.1196 10.9608 19.3303 11.4695 19.3303 12C19.3303 12.5304 19.1196 13.0391 18.7445 13.4142C18.3695 13.7892 17.8608 14 17.3303 14H13.6737V9.99996ZM17.3303 22H13.6737V17.3333H17.3303C17.9492 17.3333 18.5427 17.5791 18.9802 18.0167C19.4178 18.4543 19.6637 19.0478 19.6637 19.6666C19.6637 20.2855 19.4178 20.879 18.9802 21.3165C18.5427 21.7541 17.9492 22 17.3303 22Z" fill="currentColor"/>
</svg>
