<svg width="32" height="32" viewBox="0 0 32 32" fill="none" xmlns="http://www.w3.org/2000/svg">
<path d="M18.6798 20.3585L16.0008 15.9171L13.3259 20.3585C13.0593 20.8043 12.2385 21.6001 11.0469 21.2585L5.33477 19.6252V23.0417C5.33477 23.6542 5.75141 24.1875 6.34304 24.3333L15.3508 26.5873C15.7758 26.6915 16.2216 26.6915 16.6424 26.5873L25.6585 24.3333C26.2501 24.1833 26.6668 23.65 26.6668 23.0417V19.6252L20.9588 21.2543C19.7714 21.5959 18.9506 20.8085 18.6798 20.3585ZM10.7594 11.3216C10.7053 11.1091 10.6678 10.8925 10.6678 10.6675C10.6678 9.19673 11.8635 8.00097 13.3343 8.00097C14.805 8.00097 16.0008 9.19673 16.0008 10.6675C16.0008 11.1341 15.8716 11.5632 15.6591 11.9466L16.0008 11.9882L22.4712 11.1674L23.9586 7.07186C24.0836 6.72605 23.9044 6.34274 23.5586 6.21775L21.2463 5.37614C20.9004 5.25114 20.5171 5.4303 20.3921 5.77611L18.6548 10.5425C18.5839 7.65516 16.2382 5.33447 13.3343 5.33447C10.3886 5.33447 8.00126 7.72182 8.00126 10.6675C8.00126 10.7716 8.02626 10.8716 8.03043 10.9758L10.7594 11.3216ZM4.88479 12.3757L2.7391 16.6588C2.54744 17.0421 2.7516 17.5004 3.1599 17.617L11.4052 19.9711C11.701 20.0544 12.0177 19.9294 12.176 19.6669L16.0008 13.334L5.57642 12.0049C5.28894 11.9716 5.01395 12.1174 4.88479 12.3757ZM29.2624 16.6588L27.1167 12.3757C26.9876 12.1174 26.7084 11.9674 26.4209 12.0049L16.0008 13.334L19.8214 19.6711C19.9797 19.9336 20.2963 20.0585 20.5921 19.9752L28.8374 17.6212C29.2499 17.5004 29.4499 17.0421 29.2624 16.6588Z" fill="currentColor"/>
</svg>
