<svg width="32" height="32" viewBox="0 0 32 32" fill="none" xmlns="http://www.w3.org/2000/svg">
<path d="M19.9999 9.33342C19.9999 7.12429 18.2091 5.3335 16 5.3335C13.7908 5.3335 12 7.12429 12 9.33342C12 11.5425 13.7908 13.3333 16 13.3333C18.2091 13.3333 19.9999 11.5425 19.9999 9.33342ZM15.0662 15.3791C12.5942 13.8658 8.5901 13.45 6.57514 13.3354C5.89807 13.2971 5.3335 13.8129 5.3335 14.4642V23.7473C5.3335 24.3444 5.8164 24.8423 6.43722 24.8744C8.25636 24.9698 11.9367 25.3194 14.4804 26.6006C14.8708 26.7972 15.3337 26.5293 15.3337 26.106V15.8566C15.3333 15.662 15.2371 15.4837 15.0662 15.3791ZM25.4248 13.3354C23.4102 13.4496 19.4057 13.8658 16.9341 15.3791C16.7633 15.4837 16.667 15.6691 16.667 15.8637V26.1048C16.667 26.5293 17.1312 26.7977 17.5228 26.6006C20.0661 25.3206 23.7444 24.971 25.5631 24.8756C26.1839 24.8431 26.6668 24.3452 26.6668 23.7481V14.4642C26.6664 13.8129 26.1018 13.2971 25.4248 13.3354Z" fill="currentColor"/>
</svg>
