<svg width="32" height="32" viewBox="0 0 32 32" fill="none" xmlns="http://www.w3.org/2000/svg">
<path d="M14 17.3334H10.6667V21C10.6667 21.1834 10.5167 21.3334 10.3333 21.3334H8.33333C8.15 21.3334 8 21.1834 8 21V17.3334H4.66667C4.3 17.3334 4 17.6334 4 18V26C4 26.3667 4.3 26.6667 4.66667 26.6667H14C14.3667 26.6667 14.6667 26.3667 14.6667 26V18C14.6667 17.6334 14.3667 17.3334 14 17.3334ZM11.3333 14.6667H20.6667C21.0333 14.6667 21.3333 14.3667 21.3333 14V6.00004C21.3333 5.63337 21.0333 5.33337 20.6667 5.33337H17.3333V9.00004C17.3333 9.18337 17.1833 9.33337 17 9.33337H15C14.8167 9.33337 14.6667 9.18337 14.6667 9.00004V5.33337H11.3333C10.9667 5.33337 10.6667 5.63337 10.6667 6.00004V14C10.6667 14.3667 10.9667 14.6667 11.3333 14.6667ZM27.3333 17.3334H24V21C24 21.1834 23.85 21.3334 23.6667 21.3334H21.6667C21.4833 21.3334 21.3333 21.1834 21.3333 21V17.3334H18C17.6333 17.3334 17.3333 17.6334 17.3333 18V26C17.3333 26.3667 17.6333 26.6667 18 26.6667H27.3333C27.7 26.6667 28 26.3667 28 26V18C28 17.6334 27.7 17.3334 27.3333 17.3334Z" fill="currentColor"/>
</svg>
