<svg width="32" height="32" viewBox="0 0 32 32" fill="none" xmlns="http://www.w3.org/2000/svg">
<path d="M23.3332 14.6667C20.0169 14.6667 17.3332 17.3505 17.3332 20.6667C17.3332 23.983 20.0169 26.6667 23.3332 26.6667C26.6494 26.6667 29.3332 23.983 29.3332 20.6667C29.3332 17.3505 26.6494 14.6667 23.3332 14.6667ZM25.9998 20.9288C25.9998 21.1513 25.8178 21.3334 25.5953 21.3334H23.0715C22.849 21.3334 22.6669 21.1513 22.6669 20.9288V17.7384C22.6669 17.5159 22.849 17.3338 23.0715 17.3338H23.5953C23.8178 17.3338 23.9998 17.5159 23.9998 17.7384V20H25.5953C25.8178 20 25.9998 20.1821 25.9998 20.4046V20.9288ZM23.3332 13.3334C23.5582 13.3334 23.7798 13.3471 23.9998 13.3671V11.3334C23.9998 10.2667 23.0665 9.33337 21.9998 9.33337H18.6665V7.33337C18.6665 6.26671 17.7332 5.33337 16.6665 5.33337H9.99984C8.93317 5.33337 7.99984 6.26671 7.99984 7.33337V9.33337H4.6665C3.59984 9.33337 2.6665 10.2667 2.6665 11.3334V14.6667H19.1298C20.3215 13.8296 21.7694 13.3334 23.3332 13.3334ZM15.9998 9.33337H10.6665V8.00004H15.9998V9.33337ZM16.284 18.6667H11.3332C10.9648 18.6667 10.6665 18.3684 10.6665 18V16H2.6665V22C2.6665 23.0667 3.59984 24 4.6665 24H16.8094C16.2957 22.9984 15.9998 21.8675 15.9998 20.6667C15.9998 19.9725 16.1032 19.3034 16.284 18.6667Z" fill="currentColor"/>
</svg>
