<svg width="32" height="32" viewBox="0 0 32 32" fill="none" xmlns="http://www.w3.org/2000/svg">
<path d="M28 16C28 15.0154 27.4604 14.165 26.6667 13.7033V7.33375C26.6667 6.96917 26.3758 6 25.3333 6C25.0367 6 24.7421 6.09917 24.5008 6.2925L20.9579 9.12708C19.1783 10.5496 16.9442 11.3333 14.6667 11.3333H6.66667C5.19375 11.3333 4 12.5271 4 14V18C4 19.4729 5.19375 20.6667 6.66667 20.6667H8.07083C8.01292 21.1033 7.98 21.5475 7.98 22C7.98 23.6571 8.36583 25.2229 9.045 26.6225C9.26125 27.0679 9.73333 27.3333 10.2283 27.3333H13.3233C14.4087 27.3333 15.0604 26.09 14.4025 25.2267C13.7192 24.33 13.3129 23.2117 13.3129 22C13.3129 21.5371 13.3804 21.0921 13.4967 20.6667H14.6667C16.9442 20.6667 19.1783 21.4504 20.9575 22.8729L24.5004 25.7075C24.7367 25.8966 25.0303 25.9997 25.3329 26C26.3713 26 26.6663 25.0508 26.6663 24.6667V18.2971C27.4604 17.835 28 16.9846 28 16ZM24 21.8925L22.6229 20.7908C20.3729 18.9908 17.5467 18 14.6667 18V14C17.5467 14 20.3729 13.0092 22.6229 11.2092L24 10.1075V21.8925Z" fill="currentColor"/>
</svg>
