<svg width="32" height="32" viewBox="0 0 32 32" fill="none" xmlns="http://www.w3.org/2000/svg">
<path d="M24.8332 25.3334H23.9998V6.33337C23.9998 5.78108 23.5521 5.33337 22.9998 5.33337H8.99984C8.44755 5.33337 7.99984 5.78108 7.99984 6.33337V25.3334H7.1665C6.89038 25.3334 6.6665 25.5572 6.6665 25.8334V26.6667H25.3332V25.8334C25.3332 25.5572 25.1093 25.3334 24.8332 25.3334ZM11.9998 8.50004C11.9998 8.22392 12.2237 8.00004 12.4998 8.00004H14.1665C14.4426 8.00004 14.6665 8.22392 14.6665 8.50004V10.1667C14.6665 10.4428 14.4426 10.6667 14.1665 10.6667H12.4998C12.2237 10.6667 11.9998 10.4428 11.9998 10.1667V8.50004ZM11.9998 12.5C11.9998 12.2239 12.2237 12 12.4998 12H14.1665C14.4426 12 14.6665 12.2239 14.6665 12.5V14.1667C14.6665 14.4428 14.4426 14.6667 14.1665 14.6667H12.4998C12.2237 14.6667 11.9998 14.4428 11.9998 14.1667V12.5ZM14.1665 18.6667H12.4998C12.2237 18.6667 11.9998 18.4428 11.9998 18.1667V16.5C11.9998 16.2239 12.2237 16 12.4998 16H14.1665C14.4426 16 14.6665 16.2239 14.6665 16.5V18.1667C14.6665 18.4428 14.4426 18.6667 14.1665 18.6667ZM17.3332 25.3334H14.6665V21.8334C14.6665 21.5572 14.8904 21.3334 15.1665 21.3334H16.8332C17.1093 21.3334 17.3332 21.5572 17.3332 21.8334V25.3334ZM19.9998 18.1667C19.9998 18.4428 19.776 18.6667 19.4998 18.6667H17.8332C17.557 18.6667 17.3332 18.4428 17.3332 18.1667V16.5C17.3332 16.2239 17.557 16 17.8332 16H19.4998C19.776 16 19.9998 16.2239 19.9998 16.5V18.1667ZM19.9998 14.1667C19.9998 14.4428 19.776 14.6667 19.4998 14.6667H17.8332C17.557 14.6667 17.3332 14.4428 17.3332 14.1667V12.5C17.3332 12.2239 17.557 12 17.8332 12H19.4998C19.776 12 19.9998 12.2239 19.9998 12.5V14.1667ZM19.9998 10.1667C19.9998 10.4428 19.776 10.6667 19.4998 10.6667H17.8332C17.557 10.6667 17.3332 10.4428 17.3332 10.1667V8.50004C17.3332 8.22392 17.557 8.00004 17.8332 8.00004H19.4998C19.776 8.00004 19.9998 8.22392 19.9998 8.50004V10.1667Z" fill="currentColor"/>
</svg>
