<svg width="32" height="32" viewBox="0 0 32 32" fill="none" xmlns="http://www.w3.org/2000/svg">
<path d="M7.3335 7.33337C6.93793 7.33337 6.55125 7.45067 6.22236 7.67043C5.89346 7.8902 5.63711 8.20255 5.48574 8.56801C5.33436 8.93346 5.29476 9.33559 5.37193 9.72355C5.4491 10.1115 5.63958 10.4679 5.91928 10.7476C6.19899 11.0273 6.55535 11.2178 6.94332 11.2949C7.33128 11.3721 7.73341 11.3325 8.09886 11.1811C8.46432 11.0298 8.77667 10.7734 8.99644 10.4445C9.2162 10.1156 9.3335 9.72894 9.3335 9.33337C9.3335 8.80294 9.12278 8.29423 8.74771 7.91916C8.37264 7.54409 7.86393 7.33337 7.3335 7.33337ZM7.3335 14C6.93793 14 6.55125 14.1173 6.22236 14.3371C5.89346 14.5569 5.63711 14.8692 5.48574 15.2347C5.33436 15.6001 5.29476 16.0023 5.37193 16.3902C5.4491 16.7782 5.63958 17.1345 5.91928 17.4143C6.19899 17.694 6.55535 17.8844 6.94332 17.9616C7.33128 18.0388 7.73341 17.9992 8.09886 17.8478C8.46432 17.6964 8.77667 17.4401 8.99644 17.1112C9.2162 16.7823 9.3335 16.3956 9.3335 16C9.3335 15.4696 9.12278 14.9609 8.74771 14.5858C8.37264 14.2108 7.86393 14 7.3335 14ZM7.3335 20.6667C6.93793 20.6667 6.55125 20.784 6.22236 21.0038C5.89346 21.2235 5.63711 21.5359 5.48574 21.9013C5.33436 22.2668 5.29476 22.6689 5.37193 23.0569C5.4491 23.4448 5.63958 23.8012 5.91928 24.0809C6.19899 24.3606 6.55535 24.5511 6.94332 24.6283C7.33128 24.7054 7.73341 24.6658 8.09886 24.5145C8.46432 24.3631 8.77667 24.1067 8.99644 23.7778C9.2162 23.4489 9.3335 23.0623 9.3335 22.6667C9.3335 22.1363 9.12278 21.6276 8.74771 21.2525C8.37264 20.8774 7.86393 20.6667 7.3335 20.6667ZM26.0002 21.3334H12.6668C12.49 21.3334 12.3205 21.4036 12.1954 21.5286C12.0704 21.6537 12.0002 21.8232 12.0002 22V23.3334C12.0002 23.5102 12.0704 23.6798 12.1954 23.8048C12.3205 23.9298 12.49 24 12.6668 24H26.0002C26.177 24 26.3465 23.9298 26.4716 23.8048C26.5966 23.6798 26.6668 23.5102 26.6668 23.3334V22C26.6668 21.8232 26.5966 21.6537 26.4716 21.5286C26.3465 21.4036 26.177 21.3334 26.0002 21.3334ZM26.0002 8.00004H12.6668C12.49 8.00004 12.3205 8.07028 12.1954 8.1953C12.0704 8.32033 12.0002 8.4899 12.0002 8.66671V10C12.0002 10.1769 12.0704 10.3464 12.1954 10.4714C12.3205 10.5965 12.49 10.6667 12.6668 10.6667H26.0002C26.177 10.6667 26.3465 10.5965 26.4716 10.4714C26.5966 10.3464 26.6668 10.1769 26.6668 10V8.66671C26.6668 8.4899 26.5966 8.32033 26.4716 8.1953C26.3465 8.07028 26.177 8.00004 26.0002 8.00004ZM26.0002 14.6667H12.6668C12.49 14.6667 12.3205 14.7369 12.1954 14.862C12.0704 14.987 12.0002 15.1566 12.0002 15.3334V16.6667C12.0002 16.8435 12.0704 17.0131 12.1954 17.1381C12.3205 17.2631 12.49 17.3334 12.6668 17.3334H26.0002C26.177 17.3334 26.3465 17.2631 26.4716 17.1381C26.5966 17.0131 26.6668 16.8435 26.6668 16.6667V15.3334C26.6668 15.1566 26.5966 14.987 26.4716 14.862C26.3465 14.7369 26.177 14.6667 26.0002 14.6667Z" fill="currentColor"/>
</svg>
