<svg width="32" height="32" viewBox="0 0 32 32" fill="none" xmlns="http://www.w3.org/2000/svg">
<path d="M26.6668 11.3333V23.3333C26.6668 24.4375 25.771 25.3333 24.6668 25.3333H7.3335C6.22933 25.3333 5.3335 24.4375 5.3335 23.3333V11.3333C5.3335 10.2291 6.22933 9.33329 7.3335 9.33329H11.0002L11.5127 7.96246C11.8043 7.18329 12.5502 6.66663 13.3835 6.66663H18.6127C19.446 6.66663 20.1918 7.18329 20.4835 7.96246L21.0002 9.33329H24.6668C25.771 9.33329 26.6668 10.2291 26.6668 11.3333ZM21.0002 17.3333C21.0002 14.575 18.7585 12.3333 16.0002 12.3333C13.2418 12.3333 11.0002 14.575 11.0002 17.3333C11.0002 20.0916 13.2418 22.3333 16.0002 22.3333C18.7585 22.3333 21.0002 20.0916 21.0002 17.3333ZM19.6668 17.3333C19.6668 19.3541 18.021 21 16.0002 21C13.9793 21 12.3335 19.3541 12.3335 17.3333C12.3335 15.3125 13.9793 13.6666 16.0002 13.6666C18.021 13.6666 19.6668 15.3125 19.6668 17.3333Z" fill="currentColor"/>
</svg>
