<svg width="32" height="32" viewBox="0 0 32 32" fill="none" xmlns="http://www.w3.org/2000/svg">
<path d="M6.67206 7.33337C5.93279 7.33337 5.3335 7.93321 5.3335 8.67315V13.6554C5.3335 14.3954 5.93279 14.9952 6.67206 14.9952H13.6577C14.3969 14.9952 14.9962 14.3954 14.9962 13.6554V8.67315C14.9962 7.93321 14.3969 7.33337 13.6577 7.33337H6.67206Z" fill="#474747"/>
<path d="M6.67206 17.0049C5.93279 17.0049 5.3335 17.6047 5.3335 18.3446V23.3269C5.3335 24.0669 5.93279 24.6667 6.67206 24.6667H13.6577C14.3969 24.6667 14.9962 24.0669 14.9962 23.3269V18.3446C14.9962 17.6047 14.3969 17.0049 13.6577 17.0049H6.67206Z" fill="#474747"/>
<path d="M17.0041 8.67315C17.0041 7.93321 17.6034 7.33337 18.3426 7.33337H25.3283C26.0675 7.33337 26.6668 7.93321 26.6668 8.67315V13.6554C26.6668 14.3954 26.0675 14.9952 25.3283 14.9952H18.3426C17.6034 14.9952 17.0041 14.3954 17.0041 13.6554V8.67315Z" fill="#474747"/>
<path d="M18.3426 17.0049C17.6034 17.0049 17.0041 17.6047 17.0041 18.3446V23.3269C17.0041 24.0669 17.6034 24.6667 18.3426 24.6667H25.3283C26.0675 24.6667 26.6668 24.0669 26.6668 23.3269V18.3446C26.6668 17.6047 26.0675 17.0049 25.3283 17.0049H18.3426Z" fill="#474747"/>
</svg>
