<svg width="32" height="32" viewBox="0 0 32 32" fill="none" xmlns="http://www.w3.org/2000/svg">
<path d="M6.6665 24.6667C6.6665 25.7709 7.56234 26.6667 8.6665 26.6667H23.3332C24.4373 26.6667 25.3332 25.7709 25.3332 24.6667V13.3334H6.6665V24.6667ZM19.9998 16.5C19.9998 16.225 20.2248 16 20.4998 16H22.1665C22.4415 16 22.6665 16.225 22.6665 16.5V18.1667C22.6665 18.4417 22.4415 18.6667 22.1665 18.6667H20.4998C20.2248 18.6667 19.9998 18.4417 19.9998 18.1667V16.5ZM19.9998 21.8334C19.9998 21.5584 20.2248 21.3334 20.4998 21.3334H22.1665C22.4415 21.3334 22.6665 21.5584 22.6665 21.8334V23.5C22.6665 23.775 22.4415 24 22.1665 24H20.4998C20.2248 24 19.9998 23.775 19.9998 23.5V21.8334ZM14.6665 16.5C14.6665 16.225 14.8915 16 15.1665 16H16.8332C17.1082 16 17.3332 16.225 17.3332 16.5V18.1667C17.3332 18.4417 17.1082 18.6667 16.8332 18.6667H15.1665C14.8915 18.6667 14.6665 18.4417 14.6665 18.1667V16.5ZM14.6665 21.8334C14.6665 21.5584 14.8915 21.3334 15.1665 21.3334H16.8332C17.1082 21.3334 17.3332 21.5584 17.3332 21.8334V23.5C17.3332 23.775 17.1082 24 16.8332 24H15.1665C14.8915 24 14.6665 23.775 14.6665 23.5V21.8334ZM9.33317 16.5C9.33317 16.225 9.55817 16 9.83317 16H11.4998C11.7748 16 11.9998 16.225 11.9998 16.5V18.1667C11.9998 18.4417 11.7748 18.6667 11.4998 18.6667H9.83317C9.55817 18.6667 9.33317 18.4417 9.33317 18.1667V16.5ZM9.33317 21.8334C9.33317 21.5584 9.55817 21.3334 9.83317 21.3334H11.4998C11.7748 21.3334 11.9998 21.5584 11.9998 21.8334V23.5C11.9998 23.775 11.7748 24 11.4998 24H9.83317C9.55817 24 9.33317 23.775 9.33317 23.5V21.8334ZM23.3332 8.00004H21.3332V6.00004C21.3332 5.63337 21.0332 5.33337 20.6665 5.33337H19.3332C18.9665 5.33337 18.6665 5.63337 18.6665 6.00004V8.00004H13.3332V6.00004C13.3332 5.63337 13.0332 5.33337 12.6665 5.33337H11.3332C10.9665 5.33337 10.6665 5.63337 10.6665 6.00004V8.00004H8.6665C7.56234 8.00004 6.6665 8.89587 6.6665 10V12H25.3332V10C25.3332 8.89587 24.4373 8.00004 23.3332 8.00004Z" fill="#474747"/>
</svg>
