<svg width="32" height="32" viewBox="0 0 32 32" fill="none" xmlns="http://www.w3.org/2000/svg">
<path d="M26.0002 21.3333H8.00016V8.66667C8.00016 8.29833 7.70183 8 7.3335 8H6.00016C5.63183 8 5.3335 8.29833 5.3335 8.66667V22.6667C5.3335 23.4029 5.93058 24 6.66683 24H26.0002C26.3685 24 26.6668 23.7017 26.6668 23.3333V22C26.6668 21.6317 26.3685 21.3333 26.0002 21.3333ZM25.3335 18V13.0808C25.3335 12.19 24.2564 11.7438 23.6264 12.3738L22.2764 13.7238L18.2764 9.72375C17.7556 9.20292 16.9114 9.20292 16.391 9.72375L13.3335 12.7812L11.4143 10.8621C11.1539 10.6017 10.7318 10.6017 10.4714 10.8621L9.52891 11.8046C9.2685 12.065 9.2685 12.4871 9.52891 12.7475L12.391 15.6096C12.9118 16.1304 13.756 16.1304 14.2764 15.6096L17.3335 12.5521L20.391 15.6096L19.041 16.9596C18.411 17.5896 18.8572 18.6667 19.7481 18.6667H24.6668C25.0352 18.6667 25.3335 18.3679 25.3335 18Z" fill="#474747"/>
</svg>
