<svg width="32" height="32" viewBox="0 0 32 32" fill="none" xmlns="http://www.w3.org/2000/svg">
<path d="M19.2002 18.6667H20.8002C21.0668 18.6667 21.3335 18.4 21.3335 18.1333V12.5333C21.3335 12.2667 21.0668 12 20.8002 12H19.2002C18.9335 12 18.6668 12.2667 18.6668 12.5333V18.1333C18.6668 18.4 18.9335 18.6667 19.2002 18.6667ZM23.2002 18.6667H24.8002C25.0668 18.6667 25.3335 18.4 25.3335 18.1333V8.53333C25.3335 8.26667 25.0668 8 24.8002 8H23.2002C22.9335 8 22.6668 8.26667 22.6668 8.53333V18.1333C22.6668 18.4 22.9335 18.6667 23.2002 18.6667ZM11.2002 18.6667H12.8002C13.0668 18.6667 13.3335 18.4 13.3335 18.1333V15.2C13.3335 14.9333 13.0668 14.6667 12.8002 14.6667H11.2002C10.9335 14.6667 10.6668 14.9333 10.6668 15.2V18.1333C10.6668 18.4 10.9335 18.6667 11.2002 18.6667ZM15.2002 18.6667H16.8002C17.0668 18.6667 17.3335 18.4 17.3335 18.1333V9.86667C17.3335 9.6 17.0668 9.33333 16.8002 9.33333H15.2002C14.9335 9.33333 14.6668 9.6 14.6668 9.86667V18.1333C14.6668 18.4 14.9335 18.6667 15.2002 18.6667ZM26.0002 21.3333H8.00016V8.66667C8.00016 8.29833 7.70183 8 7.3335 8H6.00016C5.63183 8 5.3335 8.29833 5.3335 8.66667V22.6667C5.3335 23.4029 5.93058 24 6.66683 24H26.0002C26.3685 24 26.6668 23.7017 26.6668 23.3333V22C26.6668 21.6317 26.3685 21.3333 26.0002 21.3333Z" fill="#474747"/>
</svg>
