<svg width="32" height="32" viewBox="0 0 32 32" fill="none" xmlns="http://www.w3.org/2000/svg">
<path d="M26.6668 16C26.6668 21.8911 21.8912 26.6667 16.0002 26.6667C10.1091 26.6667 5.3335 21.8911 5.3335 16C5.3335 10.109 10.1091 5.33337 16.0002 5.33337C21.8912 5.33337 26.6668 10.109 26.6668 16ZM14.7664 21.648L22.6803 13.734C22.9491 13.4652 22.9491 13.0295 22.6803 12.7608L21.7071 11.7876C21.4384 11.5188 21.0027 11.5188 20.7339 11.7876L14.2797 18.2417L11.2664 15.2284C10.9977 14.9597 10.562 14.9597 10.2932 15.2284L9.31999 16.2016C9.05126 16.4703 9.05126 16.9061 9.31999 17.1748L13.7931 21.6479C14.0619 21.9167 14.4976 21.9167 14.7664 21.648Z" fill="#474747"/>
</svg>
