<svg width="32" height="32" viewBox="0 0 32 32" fill="none" xmlns="http://www.w3.org/2000/svg">
<path d="M26.0002 21.3333H8.00016V8.66667C8.00016 8.29833 7.70183 8 7.3335 8H6.00016C5.63183 8 5.3335 8.29833 5.3335 8.66667V22.6667C5.3335 23.4029 5.93058 24 6.66683 24H26.0002C26.3685 24 26.6668 23.7017 26.6668 23.3333V22C26.6668 21.6317 26.3685 21.3333 26.0002 21.3333ZM24.6668 9.33333H19.7477C18.8568 9.33333 18.4106 10.4104 19.0406 11.0404L20.3906 12.3904L17.3335 15.4479L14.2764 12.3908C13.7556 11.87 12.9114 11.87 12.391 12.3908L9.52891 15.2529C9.2685 15.5133 9.2685 15.9354 9.52891 16.1958L10.4714 17.1383C10.7318 17.3988 11.1539 17.3988 11.4143 17.1383L13.3335 15.2188L16.3906 18.2758C16.9114 18.7967 17.7556 18.7967 18.276 18.2758L22.276 14.2758L23.626 15.6258C24.256 16.2558 25.3331 15.8096 25.3331 14.9188V10C25.3335 9.63167 25.0352 9.33333 24.6668 9.33333Z" fill="#474747"/>
</svg>
