<svg width="32" height="32" viewBox="0 0 32 32" fill="none" xmlns="http://www.w3.org/2000/svg">
<path d="M22 7.99998H18.6667C18.6667 6.52915 17.4708 5.33331 16 5.33331C14.5292 5.33331 13.3333 6.52915 13.3333 7.99998H10C8.89583 7.99998 8 8.89581 8 9.99998V24.6666C8 25.7708 8.89583 26.6666 10 26.6666H22C23.1042 26.6666 24 25.7708 24 24.6666V9.99998C24 8.89581 23.1042 7.99998 22 7.99998ZM12 23C11.4458 23 11 22.5541 11 22C11 21.4458 11.4458 21 12 21C12.5542 21 13 21.4458 13 22C13 22.5541 12.5542 23 12 23ZM12 19C11.4458 19 11 18.5541 11 18C11 17.4458 11.4458 17 12 17C12.5542 17 13 17.4458 13 18C13 18.5541 12.5542 19 12 19ZM12 15C11.4458 15 11 14.5541 11 14C11 13.4458 11.4458 13 12 13C12.5542 13 13 13.4458 13 14C13 14.5541 12.5542 15 12 15ZM16 6.99998C16.5542 6.99998 17 7.44581 17 7.99998C17 8.55415 16.5542 8.99998 16 8.99998C15.4458 8.99998 15 8.55415 15 7.99998C15 7.44581 15.4458 6.99998 16 6.99998ZM21.3333 22.3333C21.3333 22.5166 21.1833 22.6666 21 22.6666H15C14.8167 22.6666 14.6667 22.5166 14.6667 22.3333V21.6666C14.6667 21.4833 14.8167 21.3333 15 21.3333H21C21.1833 21.3333 21.3333 21.4833 21.3333 21.6666V22.3333ZM21.3333 18.3333C21.3333 18.5166 21.1833 18.6666 21 18.6666H15C14.8167 18.6666 14.6667 18.5166 14.6667 18.3333V17.6666C14.6667 17.4833 14.8167 17.3333 15 17.3333H21C21.1833 17.3333 21.3333 17.4833 21.3333 17.6666V18.3333ZM21.3333 14.3333C21.3333 14.5166 21.1833 14.6666 21 14.6666H15C14.8167 14.6666 14.6667 14.5166 14.6667 14.3333V13.6666C14.6667 13.4833 14.8167 13.3333 15 13.3333H21C21.1833 13.3333 21.3333 13.4833 21.3333 13.6666V14.3333Z" fill="currentColor"/>
</svg>
