<svg width="32" height="32" viewBox="0 0 32 32" fill="none" xmlns="http://www.w3.org/2000/svg">
<path d="M26.081 16.7475C26.8621 15.9665 26.8621 14.7001 26.081 13.9191L19.4144 7.25242C18.6333 6.47138 17.3671 6.47134 16.5859 7.25242L5.91928 17.9191C5.13824 18.7001 5.13824 19.9664 5.91928 20.7475L9.91927 24.7475C10.2944 25.1225 10.8031 25.3333 11.3335 25.3333H26.1668C26.443 25.3333 26.6668 25.1094 26.6668 24.8333V23.1666C26.6668 22.8905 26.443 22.6666 26.1668 22.6666H20.162L26.081 16.7475ZM13.4716 14.138L19.1955 19.8619L16.3907 22.6666H11.6097L8.27636 19.3333L13.4716 14.138Z" fill="#474747"/>
</svg>
