<svg width="32" height="32" viewBox="0 0 32 32" fill="none" xmlns="http://www.w3.org/2000/svg">
<path fill-rule="evenodd" clip-rule="evenodd" d="M24 24.6666V9.99998C24 8.8954 23.1046 7.99998 22 7.99998H18.6667C18.6667 6.52956 17.4704 5.33331 16 5.33331C14.5296 5.33331 13.3333 6.52956 13.3333 7.99998H10C8.89542 7.99998 8 8.8954 8 9.99998V24.6666C8 25.7712 8.89542 26.6666 10 26.6666H22C23.1046 26.6666 24 25.7712 24 24.6666ZM15 7.99998C15 7.44769 15.4477 6.99998 16 6.99998C16.5523 6.99998 17 7.44769 17 7.99998C17 8.55227 16.5523 8.99998 16 8.99998C15.4477 8.99998 15 8.55227 15 7.99998ZM20 10.9166V11.75C20 11.8163 19.9737 11.8799 19.9268 11.9268C19.8799 11.9736 19.8163 12 19.75 12H12.25C12.1837 12 12.1201 11.9736 12.0732 11.9268C12.0263 11.8799 12 11.8163 12 11.75V10.9166C12 10.8503 12.0263 10.7868 12.0732 10.7399C12.1201 10.693 12.1837 10.6666 12.25 10.6666H19.75C19.8163 10.6666 19.8799 10.693 19.9268 10.7399C19.9737 10.7868 20 10.8503 20 10.9166ZM14.2534 14.6261C14.1237 14.4964 13.9135 14.4964 13.7838 14.6261L12.6389 15.7709C12.5092 15.9006 12.5092 16.1109 12.6389 16.2406L14.3855 17.9872L12.6389 19.7338C12.5092 19.8635 12.5092 20.0737 12.6389 20.2034L13.7838 21.3483C13.9135 21.478 14.1237 21.478 14.2534 21.3483L16 19.6017L17.7466 21.3483C17.8763 21.478 18.0866 21.478 18.2162 21.3483L19.3611 20.2034C19.4908 20.0737 19.4908 19.8635 19.3611 19.7338L17.6145 17.9872L19.3611 16.2406C19.4908 16.1109 19.4908 15.9006 19.3611 15.771L18.2162 14.6261C18.0866 14.4964 17.8763 14.4964 17.7466 14.6261L16 16.3727L14.2534 14.6261Z" fill="#474747"/>
</svg>
