<svg width="32" height="32" viewBox="0 0 32 32" fill="none" xmlns="http://www.w3.org/2000/svg">
<path d="M22 7.99998H18.6667C18.6667 6.52915 17.4708 5.33331 16 5.33331C14.5292 5.33331 13.3333 6.52915 13.3333 7.99998H10C8.89583 7.99998 8 8.89581 8 9.99998V24.6666C8 25.7708 8.89583 26.6666 10 26.6666H22C23.1042 26.6666 24 25.7708 24 24.6666V9.99998C24 8.89581 23.1042 7.99998 22 7.99998ZM16 6.99998C16.5542 6.99998 17 7.44581 17 7.99998C17 8.55415 16.5542 8.99998 16 8.99998C15.4458 8.99998 15 8.55415 15 7.99998C15 7.44581 15.4458 6.99998 16 6.99998ZM21.05 16.6583L15.0917 22.5666C14.8958 22.7625 14.5792 22.7583 14.3833 22.5625L10.9417 19.0916C10.7458 18.8958 10.75 18.5791 10.9458 18.3833L12.1292 17.2083C12.325 17.0125 12.6417 17.0166 12.8375 17.2125L14.7542 19.1458L19.1708 14.7625C19.3667 14.5666 19.6833 14.5708 19.8792 14.7666L21.0542 15.95C21.25 16.15 21.2458 16.4625 21.05 16.6583Z" fill="currentColor"/>
</svg>
