<svg width="32" height="32" viewBox="0 0 32 32" fill="none" xmlns="http://www.w3.org/2000/svg">
<path d="M25.0665 14.775C25.2373 14.3292 25.3332 13.8417 25.3332 13.3334C25.3332 11.125 23.5415 9.33335 21.3332 9.33335C20.5123 9.33335 19.7457 9.58335 19.1123 10.0084C17.9582 8.00835 15.804 6.66669 13.3332 6.66669C9.64984 6.66669 6.6665 9.65002 6.6665 13.3334C6.6665 13.4459 6.67067 13.5584 6.67484 13.6709C4.3415 14.4917 2.6665 16.7167 2.6665 19.3334C2.6665 22.6459 5.354 25.3334 8.6665 25.3334H23.9998C26.9457 25.3334 29.3332 22.9459 29.3332 20C29.3332 17.4209 27.4998 15.2667 25.0665 14.775ZM19.2373 17.4292L18.7873 17.8792C18.3873 18.2792 17.7373 18.2667 17.3498 17.8584L15.9998 16.4209V21.6667C15.9998 22.2209 15.554 22.6667 14.9998 22.6667H14.3332C13.779 22.6667 13.3332 22.2209 13.3332 21.6667V16.4209L11.9832 17.8584C11.5957 18.2709 10.9457 18.2792 10.5457 17.8792L10.0957 17.4292C9.704 17.0375 9.704 16.4042 10.0957 16.0167L13.9582 12.1542C14.3498 11.7625 14.9832 11.7625 15.3707 12.1542L19.2332 16.0167C19.6248 16.4084 19.6248 17.0417 19.2373 17.4292Z" fill="#474747"/>
</svg>
