<svg width="32" height="32" viewBox="0 0 32 32" fill="none" xmlns="http://www.w3.org/2000/svg">
<path d="M24.0002 5.3327H8.00016C6.52933 5.3327 5.3335 6.52854 5.3335 7.99937V19.9994C5.3335 21.4702 6.52933 22.666 8.00016 22.666H12.0002V26.166C12.0002 26.5744 12.4668 26.8119 12.796 26.5702L18.0002 22.666H24.0002C25.471 22.666 26.6668 21.4702 26.6668 19.9994V7.99937C26.6668 6.52854 25.471 5.3327 24.0002 5.3327ZM17.3335 16.3327C17.3335 16.516 17.1835 16.666 17.0002 16.666H11.0002C10.8168 16.666 10.6668 16.516 10.6668 16.3327V15.666C10.6668 15.4827 10.8168 15.3327 11.0002 15.3327H17.0002C17.1835 15.3327 17.3335 15.4827 17.3335 15.666V16.3327ZM21.3335 12.3327C21.3335 12.516 21.1835 12.666 21.0002 12.666H11.0002C10.8168 12.666 10.6668 12.516 10.6668 12.3327V11.666C10.6668 11.4827 10.8168 11.3327 11.0002 11.3327H21.0002C21.1835 11.3327 21.3335 11.4827 21.3335 11.666V12.3327Z" fill="currentColor"/>
</svg>
