<svg width="32" height="32" viewBox="0 0 32 32" fill="none" xmlns="http://www.w3.org/2000/svg">
<path d="M26.0692 18.5634L24.215 17.5054C24.4022 16.5075 24.4022 15.4839 24.215 14.486L26.0692 13.4279C26.2825 13.3075 26.3782 13.0581 26.3086 12.8258C25.8255 11.2946 25.0028 9.90968 23.9278 8.757C23.7624 8.58065 23.4925 8.53764 23.2836 8.65807L21.4294 9.71613C20.6503 9.05377 19.7537 8.54194 18.7831 8.20646V6.09464C18.7831 5.85378 18.6133 5.64303 18.3739 5.59142C16.7766 5.23873 15.14 5.25593 13.621 5.59142C13.3816 5.64303 13.2119 5.85378 13.2119 6.09464V8.21076C12.2456 8.55055 11.349 9.06237 10.5655 9.72043L8.71571 8.66237C8.50244 8.54194 8.23693 8.58065 8.07154 8.7613C6.99646 9.90968 6.17384 11.2946 5.69071 12.8301C5.61672 13.0624 5.71682 13.3118 5.9301 13.4322L7.78427 14.4903C7.59711 15.4882 7.59711 16.5118 7.78427 17.5097L5.9301 18.5677C5.71682 18.6881 5.62107 18.9376 5.69071 19.1699C6.17384 20.701 6.99646 22.086 8.07154 23.2387C8.23693 23.415 8.50679 23.458 8.71571 23.3376L10.5699 22.2795C11.349 22.9419 12.2456 23.4537 13.2162 23.7892V25.9053C13.2162 26.1462 13.386 26.3569 13.6253 26.4085C15.2227 26.7612 16.8593 26.744 18.3783 26.4085C18.6177 26.3569 18.7874 26.1462 18.7874 25.9053V23.7892C19.7537 23.4494 20.6503 22.9376 21.4338 22.2795L23.2879 23.3376C23.5012 23.458 23.7667 23.4193 23.9321 23.2387C25.0072 22.0903 25.8298 20.7053 26.3129 19.1699C26.3782 18.9333 26.2825 18.6838 26.0692 18.5634ZM15.9975 19.4365C14.078 19.4365 12.5155 17.8924 12.5155 15.9957C12.5155 14.0989 14.078 12.5548 15.9975 12.5548C17.9169 12.5548 19.4795 14.0989 19.4795 15.9957C19.4795 17.8924 17.9169 19.4365 15.9975 19.4365Z" fill="currentColor"/>
</svg>
