<svg width="32" height="32" viewBox="0 0 32 32" fill="none" xmlns="http://www.w3.org/2000/svg">
<path d="M24.0062 13.3138L23.6645 13.9117C23.5395 14.1333 23.2728 14.2253 23.0352 14.1375C22.5435 13.9535 22.0935 13.6901 21.6976 13.3598C21.506 13.201 21.4559 12.9209 21.581 12.7035L21.9227 12.1056C21.6351 11.7712 21.4101 11.3823 21.2601 10.9601H20.5725C20.3225 10.9601 20.1058 10.7803 20.0642 10.5295C19.9808 10.0278 19.9767 9.501 20.0642 8.97841C20.1058 8.72756 20.3225 8.54361 20.5725 8.54361H21.2601C21.4101 8.12136 21.6351 7.73255 21.9227 7.39809L21.581 6.80024C21.4559 6.58284 21.5018 6.30273 21.6976 6.14386C22.0935 5.81358 22.5477 5.55019 23.0352 5.36624C23.2728 5.27845 23.5395 5.37042 23.6645 5.592L24.0062 6.18985C24.4437 6.11041 24.8896 6.11041 25.3271 6.18985L25.6688 5.592C25.7938 5.37042 26.0605 5.27845 26.298 5.36624C26.7897 5.55019 27.2398 5.81358 27.6356 6.14386C27.8273 6.30273 27.8773 6.58284 27.7523 6.80024L27.4106 7.39809C27.6981 7.73255 27.9231 8.12136 28.0732 8.54361H28.7607C29.0107 8.54361 29.2274 8.72338 29.2691 8.97423C29.3524 9.47592 29.3566 10.0027 29.2691 10.5253C29.2274 10.7761 29.0107 10.9601 28.7607 10.9601H28.0732C27.9231 11.3823 27.6981 11.7712 27.4106 12.1056L27.7523 12.7035C27.8773 12.9209 27.8315 13.201 27.6356 13.3598C27.2398 13.6901 26.7856 13.9535 26.298 14.1375C26.0605 14.2253 25.7938 14.1333 25.6688 13.9117L25.3271 13.3138C24.8937 13.3933 24.4437 13.3933 24.0062 13.3138ZM23.5686 10.8556C25.1729 12.0931 27.0022 10.2577 25.7688 8.64813C24.1645 7.40645 22.3352 9.24598 23.5686 10.8556ZM18.7641 17.2897L20.1683 17.9921C20.5892 18.2346 20.7726 18.7488 20.6059 19.2087C20.235 20.2204 19.5058 21.1486 18.8307 21.9596C18.5224 22.3317 17.989 22.4237 17.5681 22.1812L16.3555 21.4789C15.6888 22.0516 14.9137 22.5073 14.0678 22.8041V24.2089C14.0678 24.6938 13.722 25.1119 13.2469 25.1955C12.2219 25.3711 11.1468 25.3795 10.0842 25.1955C9.60497 25.1119 9.25077 24.698 9.25077 24.2089V22.8041C8.40487 22.5031 7.62981 22.0516 6.96308 21.4789L5.75048 22.177C5.33378 22.4195 4.79624 22.3275 4.48788 21.9555C3.81282 21.1444 3.10026 20.2163 2.7294 19.2087C2.56272 18.753 2.74607 18.2388 3.16694 17.9921L4.55455 17.2897C4.39204 16.416 4.39204 15.5171 4.55455 14.6391L3.16694 13.9326C2.74607 13.6901 2.55855 13.1759 2.7294 12.7202C3.10026 11.7084 3.81282 10.7803 4.48788 9.96925C4.79624 9.59716 5.32962 9.50518 5.75048 9.74767L6.96308 10.45C7.62981 9.87727 8.40487 9.42157 9.25077 9.12474V7.71582C9.25077 7.23504 9.59247 6.81696 10.0675 6.73335C11.0926 6.55776 12.1718 6.54939 13.2344 6.72917C13.7136 6.81278 14.0678 7.22668 14.0678 7.71582V9.12055C14.9137 9.42157 15.6888 9.87309 16.3555 10.4459L17.5681 9.74349C17.9848 9.501 18.5224 9.59298 18.8307 9.96507C19.5058 10.7761 20.2142 11.7043 20.585 12.716C20.7517 13.1717 20.5892 13.6859 20.1683 13.9326L18.7641 14.635C18.9266 15.5129 18.9266 16.4118 18.7641 17.2897ZM13.8637 18.1719C16.3305 14.9527 12.6677 11.2778 9.45912 13.7528C6.99225 16.972 10.6551 20.6469 13.8637 18.1719ZM24.0062 25.8101L23.6645 26.408C23.5395 26.6295 23.2728 26.7215 23.0352 26.6337C22.5435 26.4498 22.0935 26.1864 21.6976 25.8561C21.506 25.6972 21.4559 25.4171 21.581 25.1997L21.9227 24.6019C21.6351 24.2674 21.4101 23.8786 21.2601 23.4563H20.5725C20.3225 23.4563 20.1058 23.2766 20.0642 23.0257C19.9808 22.524 19.9767 21.9973 20.0642 21.4747C20.1058 21.2238 20.3225 21.0399 20.5725 21.0399H21.2601C21.4101 20.6176 21.6351 20.2288 21.9227 19.8943L21.581 19.2965C21.4559 19.0791 21.5018 18.799 21.6976 18.6401C22.0935 18.3098 22.5477 18.0465 23.0352 17.8625C23.2728 17.7747 23.5395 17.8667 23.6645 18.0883L24.0062 18.6861C24.4437 18.6067 24.8896 18.6067 25.3271 18.6861L25.6688 18.0883C25.7938 17.8667 26.0605 17.7747 26.298 17.8625C26.7897 18.0465 27.2398 18.3098 27.6356 18.6401C27.8273 18.799 27.8773 19.0791 27.7523 19.2965L27.4106 19.8943C27.6981 20.2288 27.9231 20.6176 28.0732 21.0399H28.7607C29.0107 21.0399 29.2274 21.2196 29.2691 21.4705C29.3524 21.9722 29.3566 22.499 29.2691 23.0215C29.2274 23.2724 29.0107 23.4563 28.7607 23.4563H28.0732C27.9231 23.8786 27.6981 24.2674 27.4106 24.6019L27.7523 25.1997C27.8773 25.4171 27.8315 25.6972 27.6356 25.8561C27.2398 26.1864 26.7856 26.4498 26.298 26.6337C26.0605 26.7215 25.7938 26.6295 25.6688 26.408L25.3271 25.8101C24.8937 25.8895 24.4437 25.8895 24.0062 25.8101ZM23.5686 23.3476C25.1729 24.5851 27.0022 22.7498 25.7688 21.1402C24.1645 19.9027 22.3352 21.7381 23.5686 23.3476Z" fill="currentColor"/>
</svg>
