<svg width="32" height="32" viewBox="0 0 32 32" fill="none" xmlns="http://www.w3.org/2000/svg">
<path d="M6.86175 23.138L10.9998 19L9.62809 17.7071C8.99809 17.0771 9.44425 16 10.3352 16H15.0018C15.5541 16 15.9998 16.4477 15.9998 17V21.6666C15.9998 22.5575 14.9247 23.0037 14.2948 22.3738L12.9998 21L8.86175 25.138C8.60142 25.3984 8.1793 25.3984 7.91896 25.138L6.86175 24.0808C6.60142 23.8205 6.60142 23.3984 6.86175 23.138ZM25.1379 8.86188L20.9998 13L22.3716 14.2928C23.0016 14.9228 22.5554 16 21.6645 16H16.9978C16.4455 16 15.9998 15.5523 15.9998 15V10.3333C15.9998 9.44238 17.075 8.99621 17.7049 9.62617L18.9998 11L23.1379 6.86188C23.3983 6.60154 23.8204 6.60154 24.0807 6.86188L25.1379 7.91908C25.3983 8.17942 25.3983 8.60154 25.1379 8.86188Z" fill="#474747"/>
</svg>
