<svg width="32" height="32" viewBox="0 0 32 32" fill="none" xmlns="http://www.w3.org/2000/svg">
<path d="M5.3335 22.2208V24C5.3335 25.4708 8.91683 26.6666 13.3335 26.6666C17.7502 26.6666 21.3335 25.4708 21.3335 24V22.2208C19.6127 23.4333 16.4668 24 13.3335 24C10.2002 24 7.05433 23.4333 5.3335 22.2208ZM18.6668 10.6666C23.0835 10.6666 26.6668 9.47081 26.6668 7.99998C26.6668 6.52915 23.0835 5.33331 18.6668 5.33331C14.2502 5.33331 10.6668 6.52915 10.6668 7.99998C10.6668 9.47081 14.2502 10.6666 18.6668 10.6666ZM5.3335 17.85V20C5.3335 21.4708 8.91683 22.6666 13.3335 22.6666C17.7502 22.6666 21.3335 21.4708 21.3335 20V17.85C19.6127 19.2666 16.4627 20 13.3335 20C10.2043 20 7.05433 19.2666 5.3335 17.85ZM22.6668 18.3083C25.0543 17.8458 26.6668 16.9875 26.6668 16V14.2208C25.7002 14.9041 24.2793 15.3708 22.6668 15.6583V18.3083ZM13.3335 12C8.91683 12 5.3335 13.4916 5.3335 15.3333C5.3335 17.175 8.91683 18.6666 13.3335 18.6666C17.7502 18.6666 21.3335 17.175 21.3335 15.3333C21.3335 13.4916 17.7502 12 13.3335 12ZM22.471 14.3458C24.971 13.8958 26.6668 13.0125 26.6668 12V10.2208C25.1877 11.2666 22.646 11.8291 19.971 11.9625C21.2002 12.5583 22.1043 13.3583 22.471 14.3458Z" fill="currentColor"/>
</svg>
