<svg width="32" height="32" viewBox="0 0 32 32" fill="none" xmlns="http://www.w3.org/2000/svg">
<path d="M14.2875 26.6442L11.746 25.9068C11.4794 25.8318 11.3294 25.5527 11.4044 25.286L17.0914 5.69588C17.1664 5.42924 17.4456 5.27925 17.7122 5.35424L20.2537 6.09169C20.5203 6.16668 20.6703 6.44583 20.5953 6.71247L14.9083 26.3026C14.8291 26.5693 14.5541 26.7234 14.2875 26.6442ZM9.53784 21.9696L11.3502 20.0364C11.5419 19.8323 11.5294 19.5073 11.3169 19.3198L7.54216 15.9992L11.3169 12.6787C11.5294 12.4912 11.546 12.1662 11.3502 11.9621L9.53784 10.0289C9.35036 9.82889 9.03371 9.81639 8.82956 10.008L2.82587 15.6326C2.61338 15.8284 2.61338 16.1659 2.82587 16.3617L8.82956 21.9904C9.03371 22.1821 9.35036 22.1738 9.53784 21.9696ZM23.1701 21.9946L29.1738 16.3659C29.3863 16.1701 29.3863 15.8326 29.1738 15.6368L23.1701 10.0039C22.9701 9.81639 22.6535 9.82473 22.4618 10.0247L20.6495 11.9579C20.4578 12.162 20.4703 12.487 20.6828 12.6745L24.4575 15.9992L20.6828 19.3198C20.4703 19.5073 20.4537 19.8323 20.6495 20.0364L22.4618 21.9696C22.6493 22.1738 22.966 22.1821 23.1701 21.9946Z" fill="#474747"/>
</svg>
