<svg width="32" height="32" viewBox="0 0 32 32" fill="none" xmlns="http://www.w3.org/2000/svg">
<path d="M21.3333 13.3334C21.3333 9.65002 17.4542 6.66669 12.6667 6.66669C7.87917 6.66669 4 9.65002 4 13.3334C4 14.7625 4.5875 16.0792 5.58333 17.1667C5.025 18.425 4.10417 19.425 4.09167 19.4375C4 19.5334 3.975 19.675 4.02917 19.8C4.08333 19.925 4.2 20 4.33333 20C5.85833 20 7.12083 19.4875 8.02917 18.9584C9.37083 19.6125 10.9583 20 12.6667 20C17.4542 20 21.3333 17.0167 21.3333 13.3334ZM26.4167 22.5C27.4125 21.4167 28 20.0959 28 18.6667C28 15.8792 25.7708 13.4917 22.6125 12.4959C22.65 12.7709 22.6667 13.05 22.6667 13.3334C22.6667 17.7459 18.1792 21.3334 12.6667 21.3334C12.2167 21.3334 11.7792 21.3 11.3458 21.2542C12.6583 23.65 15.7417 25.3334 19.3333 25.3334C21.0417 25.3334 22.6292 24.95 23.9708 24.2917C24.8792 24.8209 26.1417 25.3334 27.6667 25.3334C27.8 25.3334 27.9208 25.2542 27.9708 25.1334C28.025 25.0125 28 24.8709 27.9083 24.7709C27.8958 24.7584 26.975 23.7625 26.4167 22.5Z" fill="#474747"/>
</svg>
