<svg width="32" height="32" viewBox="0 0 32 32" fill="none" xmlns="http://www.w3.org/2000/svg">
<path d="M24.0002 5.3327H8.00016C6.52933 5.3327 5.3335 6.52854 5.3335 7.99937V19.9994C5.3335 21.4702 6.52933 22.666 8.00016 22.666H12.0002V26.166C12.0002 26.5744 12.4668 26.8119 12.796 26.5702L18.0002 22.666H24.0002C25.471 22.666 26.6668 21.4702 26.6668 19.9994V7.99937C26.6668 6.52854 25.471 5.3327 24.0002 5.3327ZM14.3085 18.2744L12.3002 18.4994C12.0293 18.5285 11.8043 18.2994 11.8335 18.0327L12.0585 16.0244L16.071 12.0119L18.321 14.2619L14.3085 18.2744ZM20.5877 11.9952L19.2627 13.3202L17.0127 11.0702L18.3377 9.7452C18.6668 9.41604 19.2002 9.41604 19.5293 9.7452L20.5877 10.8035C20.9168 11.1327 20.9168 11.666 20.5877 11.9952Z" fill="#474747"/>
</svg>
