<svg width="32" height="32" viewBox="0 0 32 32" fill="none" xmlns="http://www.w3.org/2000/svg">
<path d="M19.9998 24V25.6667C19.9998 26.219 19.5521 26.6667 18.9998 26.6667H7.6665C7.11421 26.6667 6.6665 26.219 6.6665 25.6667V10.3334C6.6665 9.78108 7.11421 9.33337 7.6665 9.33337H10.6665V21.6667C10.6665 22.9533 11.7132 24 12.9998 24H19.9998ZM19.9998 9.66671V5.33337H12.9998C12.4475 5.33337 11.9998 5.78108 11.9998 6.33337V21.6667C11.9998 22.219 12.4475 22.6667 12.9998 22.6667H24.3332C24.8855 22.6667 25.3332 22.219 25.3332 21.6667V10.6667H20.9998C20.4498 10.6667 19.9998 10.2167 19.9998 9.66671ZM25.0403 8.37383L22.2927 5.62625C22.1052 5.43873 21.8508 5.33338 21.5856 5.33337H21.3332V9.33337H25.3332V9.08092C25.3332 8.81571 25.2278 8.56137 25.0403 8.37383Z" fill="#474747"/>
</svg>
