<svg width="32" height="32" viewBox="0 0 32 32" fill="none" xmlns="http://www.w3.org/2000/svg">
<path d="M4 23.3334C4 24.4375 4.89583 25.3334 6 25.3334H26C27.1042 25.3334 28 24.4375 28 23.3334V16H4V23.3334ZM12 20.5C12 20.225 12.225 20 12.5 20H18.1667C18.4417 20 18.6667 20.225 18.6667 20.5V22.1667C18.6667 22.4417 18.4417 22.6667 18.1667 22.6667H12.5C12.225 22.6667 12 22.4417 12 22.1667V20.5ZM6.66667 20.5C6.66667 20.225 6.89167 20 7.16667 20H10.1667C10.4417 20 10.6667 20.225 10.6667 20.5V22.1667C10.6667 22.4417 10.4417 22.6667 10.1667 22.6667H7.16667C6.89167 22.6667 6.66667 22.4417 6.66667 22.1667V20.5ZM28 8.66669V10.6667H4V8.66669C4 7.56252 4.89583 6.66669 6 6.66669H26C27.1042 6.66669 28 7.56252 28 8.66669Z" fill="#474747"/>
</svg>
