<svg width="32" height="32" viewBox="0 0 32 32" fill="none" xmlns="http://www.w3.org/2000/svg">
<path d="M26.2753 15.0548L16.945 5.72456C16.4233 5.2029 15.5771 5.2029 15.055 5.72456L5.72474 15.0548C5.20308 15.5769 5.20308 16.4227 5.72474 16.9448L15.055 26.2751C15.5767 26.7972 16.4229 26.7972 16.945 26.2751L26.2753 16.9448C26.7969 16.4227 26.7969 15.5769 26.2753 15.0548ZM22.0678 15.5782L18.5591 18.8169C18.3458 19.0139 17.9996 18.8627 17.9996 18.5719V16.3332H13.9996V18.9998C13.9996 19.1839 13.8505 19.3331 13.6663 19.3331H12.333C12.1488 19.3331 11.9996 19.1839 11.9996 18.9998V15.6665C11.9996 14.9303 12.5967 14.3332 13.333 14.3332H17.9996V12.0945C17.9996 11.8041 18.3454 11.6524 18.5591 11.8495L22.0678 15.0882C22.2107 15.2203 22.2107 15.4461 22.0678 15.5782Z" fill="#474747"/>
</svg>
