<svg width="32" height="32" viewBox="0 0 32 32" fill="none" xmlns="http://www.w3.org/2000/svg">
<path d="M14.3335 5.33331H17.6668C18.221 5.33331 18.6668 5.77915 18.6668 6.33331V13.3333H22.321C23.0627 13.3333 23.4335 14.2291 22.9085 14.7541L16.571 21.0958C16.2585 21.4083 15.746 21.4083 15.4335 21.0958L9.08766 14.7541C8.56266 14.2291 8.9335 13.3333 9.67516 13.3333H13.3335V6.33331C13.3335 5.77915 13.7793 5.33331 14.3335 5.33331ZM26.6668 21V25.6666C26.6668 26.2208 26.221 26.6666 25.6668 26.6666H6.3335C5.77933 26.6666 5.3335 26.2208 5.3335 25.6666V21C5.3335 20.4458 5.77933 20 6.3335 20H12.446L14.4877 22.0416C15.3252 22.8791 16.6752 22.8791 17.5127 22.0416L19.5543 20H25.6668C26.221 20 26.6668 20.4458 26.6668 21ZM21.5002 24.6666C21.5002 24.2083 21.1252 23.8333 20.6668 23.8333C20.2085 23.8333 19.8335 24.2083 19.8335 24.6666C19.8335 25.125 20.2085 25.5 20.6668 25.5C21.1252 25.5 21.5002 25.125 21.5002 24.6666ZM24.1668 24.6666C24.1668 24.2083 23.7918 23.8333 23.3335 23.8333C22.8752 23.8333 22.5002 24.2083 22.5002 24.6666C22.5002 25.125 22.8752 25.5 23.3335 25.5C23.7918 25.5 24.1668 25.125 24.1668 24.6666Z" fill="currentColor"/>
</svg>
