<svg width="32" height="32" viewBox="0 0 32 32" fill="none" xmlns="http://www.w3.org/2000/svg">
<path d="M20.775 8.79789L24.5333 12.5562C24.6917 12.7146 24.6917 12.9729 24.5333 13.1312L15.4333 22.2312L11.5667 22.6604C11.05 22.7187 10.6125 22.2812 10.6708 21.7646L11.1 17.8979L20.2 8.79789C20.3583 8.63955 20.6167 8.63955 20.775 8.79789ZM27.525 7.84372L25.4917 5.81039C24.8583 5.17705 23.8292 5.17705 23.1917 5.81039L21.7167 7.28539C21.5583 7.44372 21.5583 7.70205 21.7167 7.86039L25.475 11.6187C25.6333 11.7771 25.8917 11.7771 26.05 11.6187L27.525 10.1437C28.1583 9.50622 28.1583 8.47706 27.525 7.84372ZM20 19.7562V23.9979H6.66667V10.6646H16.2417C16.375 10.6646 16.5 10.6104 16.5958 10.5187L18.2625 8.85206C18.5792 8.53539 18.3542 7.99789 17.9083 7.99789H6C4.89583 7.99789 4 8.89372 4 9.99789V24.6646C4 25.7687 4.89583 26.6646 6 26.6646H20.6667C21.7708 26.6646 22.6667 25.7687 22.6667 24.6646V18.0896C22.6667 17.6437 22.1292 17.4229 21.8125 17.7354L20.1458 19.4021C20.0542 19.4979 20 19.6229 20 19.7562Z" fill="#474747"/>
</svg>
