<svg width="32" height="32" viewBox="0 0 32 32" fill="none" xmlns="http://www.w3.org/2000/svg">
<path d="M16 13C17.6583 13 19 14.3417 19 16C19 17.6584 17.6583 19 16 19C14.3417 19 13 17.6584 13 16C13 14.3417 14.3417 13 16 13ZM13 8.66669C13 10.325 14.3417 11.6667 16 11.6667C17.6583 11.6667 19 10.325 19 8.66669C19 7.00835 17.6583 5.66669 16 5.66669C14.3417 5.66669 13 7.00835 13 8.66669ZM13 23.3334C13 24.9917 14.3417 26.3334 16 26.3334C17.6583 26.3334 19 24.9917 19 23.3334C19 21.675 17.6583 20.3334 16 20.3334C14.3417 20.3334 13 21.675 13 23.3334Z" fill="#474747"/>
</svg>
