<svg width="32" height="32" viewBox="0 0 32 32" fill="none" xmlns="http://www.w3.org/2000/svg">
<path d="M18.9998 16C18.9998 17.6583 17.6582 19 15.9998 19C14.3415 19 12.9998 17.6583 12.9998 16C12.9998 14.3417 14.3415 13 15.9998 13C17.6582 13 18.9998 14.3417 18.9998 16ZM23.3332 13C21.6748 13 20.3332 14.3417 20.3332 16C20.3332 17.6583 21.6748 19 23.3332 19C24.9915 19 26.3332 17.6583 26.3332 16C26.3332 14.3417 24.9915 13 23.3332 13ZM8.6665 13C7.00817 13 5.6665 14.3417 5.6665 16C5.6665 17.6583 7.00817 19 8.6665 19C10.3248 19 11.6665 17.6583 11.6665 16C11.6665 14.3417 10.3248 13 8.6665 13Z" fill="#474747"/>
</svg>
