<svg width="32" height="32" viewBox="0 0 32 32" fill="none" xmlns="http://www.w3.org/2000/svg">
<path d="M12.6668 14.3334H19.3335C19.7018 14.3334 20.0002 14.035 20.0002 13.6667V13C20.0002 12.6317 19.7018 12.3334 19.3335 12.3334H12.6668C12.2985 12.3334 12.0002 12.6317 12.0002 13V13.6667C12.0002 14.035 12.2985 14.3334 12.6668 14.3334ZM12.0002 17.6667C12.0002 18.035 12.2985 18.3334 12.6668 18.3334H19.3335C19.7018 18.3334 20.0002 18.035 20.0002 17.6667V17C20.0002 16.6317 19.7018 16.3334 19.3335 16.3334H12.6668C12.2985 16.3334 12.0002 16.6317 12.0002 17V17.6667ZM16.0002 22.7138C15.316 22.7138 14.6318 22.503 14.0477 22.0809L5.3335 15.7859V24.6667C5.3335 25.7713 6.22891 26.6667 7.3335 26.6667H24.6668C25.7714 26.6667 26.6668 25.7713 26.6668 24.6667V15.7859L17.9527 22.0809C17.3685 22.5025 16.6843 22.7138 16.0002 22.7138ZM25.9006 12.123C25.5318 11.8338 25.1822 11.5617 24.6668 11.1725V9.33338C24.6668 8.2288 23.7714 7.33338 22.6668 7.33338H19.4356C19.3089 7.24171 19.191 7.15588 19.0589 7.06005C18.3585 6.5488 16.9668 5.3188 16.0002 5.33338C15.0335 5.3188 13.6422 6.5488 12.9414 7.06005C12.8093 7.15588 12.6914 7.24171 12.5647 7.33338H9.3335C8.22891 7.33338 7.3335 8.2288 7.3335 9.33338V11.1725C6.81808 11.5613 6.4685 11.8338 6.09975 12.123C5.86106 12.31 5.66804 12.5489 5.53529 12.8216C5.40254 13.0942 5.33354 13.3935 5.3335 13.6967V14.1405L9.3335 17.03V9.33338H22.6668V17.03L26.6668 14.1405V13.6967C26.6668 13.0825 26.3843 12.5021 25.9006 12.123Z" fill="currentColor"/>
</svg>
