<svg width="32" height="32" viewBox="0 0 32 32" fill="none" xmlns="http://www.w3.org/2000/svg">
<path d="M26.2627 13.2833C26.4252 13.1542 26.6668 13.275 26.6668 13.4792V22C26.6668 23.1042 25.771 24 24.6668 24H7.3335C6.22933 24 5.3335 23.1042 5.3335 22V13.4833C5.3335 13.275 5.571 13.1583 5.73766 13.2875C6.671 14.0125 7.9085 14.9333 12.1585 18.0208C13.0377 18.6625 14.521 20.0125 16.0002 20.0042C17.4877 20.0167 19.0002 18.6375 19.846 18.0208C24.096 14.9333 25.3293 14.0083 26.2627 13.2833ZM16.0002 18.6667C16.9668 18.6833 18.3585 17.45 19.0585 16.9417C24.5877 12.9292 25.0085 12.5792 26.2835 11.5792C26.5252 11.3917 26.6668 11.1 26.6668 10.7917V10C26.6668 8.89583 25.771 8 24.6668 8H7.3335C6.22933 8 5.3335 8.89583 5.3335 10V10.7917C5.3335 11.1 5.47516 11.3875 5.71683 11.5792C6.99183 12.575 7.41266 12.9292 12.9418 16.9417C13.6418 17.45 15.0335 18.6833 16.0002 18.6667Z" fill="currentColor"/>
</svg>
