<svg width="32" height="32" viewBox="0 0 32 32" fill="none" xmlns="http://www.w3.org/2000/svg">
<path d="M19.3332 23.3333C19.3332 25.1713 17.8378 26.6666 15.9998 26.6666C14.1618 26.6666 12.6665 25.1713 12.6665 23.3333C12.6665 21.4953 14.1618 20 15.9998 20C17.8378 20 19.3332 21.4953 19.3332 23.3333ZM13.0523 6.38327L13.619 17.7166C13.6456 18.2488 14.0849 18.6666 14.6178 18.6666H17.3819C17.9148 18.6666 18.354 18.2488 18.3807 17.7166L18.9473 6.38327C18.9759 5.81206 18.5205 5.33331 17.9486 5.33331H14.0511C13.4792 5.33331 13.0238 5.81206 13.0523 6.38327Z" fill="currentColor"/>
</svg>
