<svg width="32" height="32" viewBox="0 0 32 32" fill="none" xmlns="http://www.w3.org/2000/svg">
<path d="M26.6668 16C26.6668 21.8923 21.8908 26.6666 16.0002 26.6666C10.1095 26.6666 5.3335 21.8923 5.3335 16C5.3335 10.1111 10.1095 5.33331 16.0002 5.33331C21.8908 5.33331 26.6668 10.1111 26.6668 16ZM16.0002 18.1505C14.9075 18.1505 14.0217 19.0363 14.0217 20.129C14.0217 21.2217 14.9075 22.1075 16.0002 22.1075C17.0929 22.1075 17.9787 21.2217 17.9787 20.129C17.9787 19.0363 17.0929 18.1505 16.0002 18.1505ZM14.1218 11.0389L14.4408 16.8883C14.4557 17.162 14.6821 17.3763 14.9562 17.3763H17.0442C17.3183 17.3763 17.5446 17.162 17.5595 16.8883L17.8786 11.0389C17.8947 10.7432 17.6593 10.4946 17.3632 10.4946H14.6371C14.341 10.4946 14.1056 10.7432 14.1218 11.0389Z" fill="#474747"/>
</svg>
