<svg width="32" height="32" viewBox="0 0 32 32" fill="none" xmlns="http://www.w3.org/2000/svg">
<path d="M23.3332 6.66669H8.6665C7.56192 6.66669 6.6665 7.5621 6.6665 8.66669V23.3334C6.6665 24.4379 7.56192 25.3334 8.6665 25.3334H23.3332C24.4378 25.3334 25.3332 24.4379 25.3332 23.3334V8.66669C25.3332 7.5621 24.4378 6.66669 23.3332 6.66669ZM14.6794 10.6667H17.3203C17.6071 10.6667 17.8352 10.9075 17.8195 11.1939L17.5105 16.8606C17.496 17.1258 17.2768 17.3334 17.0112 17.3334H14.9885C14.7229 17.3334 14.5037 17.1258 14.4892 16.8606L14.1801 11.1939C14.1645 10.9075 14.3925 10.6667 14.6794 10.6667ZM15.9998 21.9167C14.9413 21.9167 14.0832 21.0586 14.0832 20C14.0832 18.9415 14.9413 18.0834 15.9998 18.0834C17.0584 18.0834 17.9165 18.9415 17.9165 20C17.9165 21.0586 17.0584 21.9167 15.9998 21.9167Z" fill="currentColor"/>
</svg>
