<svg width="32" height="32" viewBox="0 0 32 32" fill="none" xmlns="http://www.w3.org/2000/svg">
<path d="M15.5284 18.4714L11.6665 22.3334L13.0383 23.6262C13.6683 24.2562 13.2221 25.3334 12.3312 25.3334H7.6645C7.11221 25.3334 6.6665 24.8856 6.6665 24.3334V19.6667C6.6665 18.7758 7.74163 18.3296 8.37159 18.9596L9.6665 20.3334L13.5284 16.4714C13.7888 16.2111 14.2109 16.2111 14.4712 16.4714L15.5284 17.5286C15.7888 17.789 15.7888 18.2111 15.5284 18.4714ZM16.4713 13.5286L20.3332 9.66669L18.9614 8.37381C18.3314 7.74381 18.7776 6.66669 19.6685 6.66669H24.3352C24.8875 6.66669 25.3332 7.1144 25.3332 7.66669V12.3334C25.3332 13.2243 24.258 13.6704 23.6281 13.0405L22.3332 11.6667L18.4713 15.5286C18.2109 15.7889 17.7888 15.7889 17.5285 15.5286L16.4713 14.4714C16.2109 14.2111 16.2109 13.789 16.4713 13.5286Z" fill="currentColor"/>
</svg>
