<svg width="32" height="32" viewBox="0 0 32 32" fill="none" xmlns="http://www.w3.org/2000/svg">
<path d="M27.7299 23.6672C28.499 25.0003 27.5336 26.6667 25.9975 26.6667H6.00226C4.46322 26.6667 3.5023 24.9977 4.26989 23.6672L14.2676 6.33275C15.0371 4.99904 16.9643 5.00146 17.7324 6.33275L27.7299 23.6672ZM16 20.0834C14.9415 20.0834 14.0833 20.9415 14.0833 22C14.0833 23.0586 14.9415 23.9167 16 23.9167C17.0585 23.9167 17.9167 23.0586 17.9167 22C17.9167 20.9415 17.0585 20.0834 16 20.0834ZM14.1803 13.194L14.4894 18.8606C14.5038 19.1258 14.7231 19.3334 14.9886 19.3334H17.0114C17.2769 19.3334 17.4962 19.1258 17.5106 18.8606L17.8197 13.194C17.8353 12.9075 17.6073 12.6667 17.3205 12.6667H14.6795C14.3927 12.6667 14.1647 12.9075 14.1803 13.194Z" fill="#474747"/>
</svg>
