<svg width="32" height="32" viewBox="0 0 32 32" fill="none" xmlns="http://www.w3.org/2000/svg">
<path d="M23.3335 18.6666H22.0002C21.8234 18.6666 21.6538 18.7369 21.5288 18.8619C21.4037 18.9869 21.3335 19.1565 21.3335 19.3333V24H8.00016V10.6666H14.0002C14.177 10.6666 14.3465 10.5964 14.4716 10.4714C14.5966 10.3464 14.6668 10.1768 14.6668 9.99998V8.66665C14.6668 8.48984 14.5966 8.32027 14.4716 8.19524C14.3465 8.07022 14.177 7.99998 14.0002 7.99998H7.3335C6.80306 7.99998 6.29436 8.21069 5.91928 8.58577C5.54421 8.96084 5.3335 9.46955 5.3335 9.99998V24.6666C5.3335 25.1971 5.54421 25.7058 5.91928 26.0809C6.29436 26.4559 6.80306 26.6666 7.3335 26.6666H22.0002C22.5306 26.6666 23.0393 26.4559 23.4144 26.0809C23.7894 25.7058 24.0002 25.1971 24.0002 24.6666V19.3333C24.0002 19.1565 23.9299 18.9869 23.8049 18.8619C23.6799 18.7369 23.5103 18.6666 23.3335 18.6666ZM25.1114 5.33331H18.5002C18.1907 5.33331 17.894 5.45623 17.6752 5.67502C17.4564 5.89381 17.3335 6.19056 17.3335 6.49998V7.27956C17.3379 7.43272 17.3724 7.58352 17.435 7.72334C17.4977 7.86316 17.5872 7.98928 17.6986 8.09448C17.81 8.19968 17.9411 8.28191 18.0842 8.33648C18.2274 8.39104 18.3799 8.41687 18.5331 8.41248L21.3335 8.33331L10.961 18.6287L10.9585 18.6312C10.771 18.8188 10.6656 19.0731 10.6656 19.3383C10.6656 19.6035 10.771 19.8579 10.9585 20.0454L11.956 21.0391L11.9585 21.0416C12.1465 21.2283 12.4008 21.3327 12.6657 21.332C12.9306 21.3313 13.1844 21.2255 13.3714 21.0379L23.6668 10.6666L23.5885 13.4675V13.5C23.5885 13.8094 23.7114 14.1061 23.9302 14.3249C24.149 14.5437 24.4457 14.6666 24.7552 14.6666H25.5002C25.8096 14.6666 26.1063 14.5437 26.3251 14.3249C26.5439 14.1061 26.6668 13.8094 26.6668 13.5V6.88873C26.6668 6.47621 26.503 6.08058 26.2113 5.78888C25.9196 5.49719 25.5239 5.33331 25.1114 5.33331Z" fill="currentColor"/>
</svg>
