<svg width="32" height="32" viewBox="0 0 32 32" fill="none" xmlns="http://www.w3.org/2000/svg">
<path d="M7.44806 19.2189C6.94806 19.7189 6.66682 20.3972 6.66682 21.1047V23.0001L5.3335 25.3334L6.66682 26.6667L9.00013 25.3334H10.8955C11.6026 25.3334 12.2809 25.0526 12.7809 24.5526L18.0575 19.2768L12.7243 13.9435L7.44806 19.2189ZM25.495 6.50524C23.9337 4.94275 21.4 4.94275 19.8388 6.50524L16.6267 9.71729L16.0809 9.17146C15.6876 8.77813 15.0538 8.78355 14.6667 9.17146L12.9597 10.8785C12.5693 11.2689 12.5693 11.9023 12.9597 12.2927L19.7071 19.0401C20.1004 19.4334 20.7342 19.428 21.1213 19.0401L22.8283 17.3335C23.2187 16.9431 23.2187 16.3097 22.8283 15.9193L22.2825 15.3735L25.4946 12.1614C27.0575 10.5998 27.0575 8.06731 25.495 6.50524Z" fill="currentColor"/>
</svg>
