<svg width="32" height="32" viewBox="0 0 32 32" fill="none" xmlns="http://www.w3.org/2000/svg">
<path d="M27.855 15.3917C25.5954 10.9829 21.1221 8 16 8C10.8779 8 6.40332 10.985 4.14498 15.3921C4.04966 15.5806 4 15.789 4 16.0002C4 16.2115 4.04966 16.4198 4.14498 16.6083C6.40457 21.0171 10.8779 24 16 24C21.1221 24 25.5967 21.015 27.855 16.6079C27.9503 16.4194 28 16.2111 28 15.9998C28 15.7885 27.9503 15.5802 27.855 15.3917ZM16 22C14.8133 22 13.6533 21.6481 12.6666 20.9888C11.6799 20.3296 10.9108 19.3925 10.4567 18.2961C10.0026 17.1998 9.88377 15.9934 10.1153 14.8295C10.3468 13.6656 10.9182 12.5965 11.7574 11.7574C12.5965 10.9182 13.6656 10.3468 14.8295 10.1153C15.9933 9.88378 17.1997 10.0026 18.2961 10.4567C19.3925 10.9109 20.3295 11.6799 20.9888 12.6666C21.6481 13.6533 22 14.8133 22 16C22.0004 16.7881 21.8455 17.5684 21.5441 18.2966C21.2427 19.0247 20.8007 19.6863 20.2435 20.2435C19.6863 20.8007 19.0247 21.2427 18.2966 21.5441C17.5684 21.8455 16.788 22.0004 16 22ZM16 12C15.643 12.005 15.2882 12.0581 14.9454 12.1579C15.228 12.542 15.3636 13.0145 15.3276 13.49C15.2917 13.9654 15.0865 14.4122 14.7494 14.7494C14.4122 15.0865 13.9654 15.2917 13.49 15.3277C13.0145 15.3636 12.5419 15.228 12.1579 14.9454C11.9392 15.7511 11.9787 16.605 12.2708 17.3871C12.5629 18.1692 13.0928 18.8399 13.7861 19.305C14.4793 19.7701 15.301 20.006 16.1354 19.9797C16.9698 19.9533 17.7749 19.666 18.4375 19.1581C19.1 18.6502 19.5866 17.9473 19.8287 17.1483C20.0708 16.3494 20.0563 15.4947 19.7872 14.7044C19.5181 13.9142 19.008 13.2282 18.3286 12.7431C17.6492 12.2579 16.8348 11.998 16 12Z" fill="currentColor"/>
</svg>
