<svg width="32" height="32" viewBox="0 0 32 32" fill="none" xmlns="http://www.w3.org/2000/svg">
<path d="M15.9997 22C12.8393 22 10.281 19.5537 10.0456 16.4537L5.67474 13.0758C5.10016 13.7967 4.57141 14.5587 4.14474 15.3921C4.04943 15.5806 3.99977 15.7889 3.99977 16.0002C3.99977 16.2115 4.04943 16.4198 4.14474 16.6083C6.40432 21.0171 10.8776 24 15.9997 24C17.121 24 18.2026 23.8333 19.2451 23.5641L17.083 21.8912C16.726 21.9602 16.3634 21.9966 15.9997 22ZM29.0755 24.4208L24.4693 20.8608C25.8685 19.6816 27.0193 18.2359 27.8547 16.6079C27.95 16.4194 27.9996 16.2111 27.9996 15.9998C27.9996 15.7885 27.95 15.5802 27.8547 15.3917C25.5951 10.9829 21.1218 8.00002 15.9997 8.00002C13.8545 8.00262 11.7441 8.54267 9.86139 9.57085L4.56057 5.47378C4.49145 5.41999 4.41241 5.38035 4.32796 5.35712C4.24351 5.33389 4.15531 5.32754 4.0684 5.33841C3.98149 5.34928 3.89758 5.37717 3.82145 5.42049C3.74533 5.46381 3.67849 5.5217 3.62474 5.59086L2.80683 6.64377C2.69833 6.78335 2.64971 6.96031 2.67167 7.13573C2.69362 7.31114 2.78436 7.47066 2.92391 7.57919L27.4388 26.5262C27.508 26.58 27.587 26.6196 27.6715 26.6429C27.7559 26.6661 27.8441 26.6725 27.931 26.6616C28.0179 26.6507 28.1018 26.6228 28.178 26.5795C28.2541 26.5362 28.3209 26.4783 28.3747 26.4091L29.193 25.3562C29.3015 25.2166 29.35 25.0396 29.328 24.8642C29.3059 24.6888 29.2151 24.5293 29.0755 24.4208ZM21.4205 18.5042L19.783 17.2383C19.9209 16.8398 19.9941 16.4217 19.9997 16C20.0078 15.3826 19.871 14.7719 19.6003 14.217C19.3296 13.662 18.9326 13.1783 18.441 12.8047C17.9495 12.431 17.3771 12.1779 16.77 12.0656C16.1628 11.9532 15.5378 11.9849 14.9451 12.1579C15.1964 12.4984 15.3323 12.9102 15.333 13.3333C15.3268 13.4741 15.3053 13.6139 15.2689 13.75L12.2018 11.3796C13.2672 10.4893 14.6113 10.001 15.9997 10C16.7878 9.99958 17.5682 10.1545 18.2963 10.4558C19.0245 10.7572 19.6861 11.1992 20.2433 11.7564C20.8005 12.3136 21.2425 12.9752 21.5439 13.7034C21.8452 14.4315 22.0001 15.2119 21.9997 16C21.9997 16.9012 21.7793 17.7412 21.4205 18.5046V18.5042Z" fill="#474747"/>
</svg>
