<svg width="32" height="32" viewBox="0 0 32 32" fill="none" xmlns="http://www.w3.org/2000/svg">
<path d="M4.61905 7.33334C4.27716 7.33334 4 7.61133 4 7.95424V10.1274C4 10.4703 4.27716 10.7483 4.61905 10.7483H27.381C27.7228 10.7483 28 10.4703 28 10.1274V7.95424C28 7.61133 27.7228 7.33334 27.381 7.33334H4.61905Z" fill="#474747"/>
<path d="M7.82291 11.9728C7.48102 11.9728 7.20387 12.2508 7.20387 12.5937V14.7668C7.20387 15.1098 7.48102 15.3877 7.82291 15.3877H24.1771C24.519 15.3877 24.7961 15.1098 24.7961 14.7668V12.5937C24.7961 12.2508 24.519 11.9728 24.1771 11.9728H7.82291Z" fill="#474747"/>
<path d="M10.4152 17.2332C10.4152 16.8903 10.6923 16.6123 11.0342 16.6123H20.9658C21.3077 16.6123 21.5848 16.8903 21.5848 17.2332V19.4063C21.5848 19.7492 21.3077 20.0272 20.9658 20.0272H11.0342C10.6923 20.0272 10.4152 19.7492 10.4152 19.4063V17.2332Z" fill="#474747"/>
<path d="M14.2068 21.2518C13.865 21.2518 13.5878 21.5297 13.5878 21.8726V24.0458C13.5878 24.3887 13.865 24.6667 14.2068 24.6667H17.7932C18.135 24.6667 18.4122 24.3887 18.4122 24.0458V21.8726C18.4122 21.5297 18.135 21.2518 17.7932 21.2518H14.2068Z" fill="#474747"/>
</svg>
