<svg width="32" height="32" viewBox="0 0 32 32" fill="none" xmlns="http://www.w3.org/2000/svg">
<path d="M24 10.4125V10.6666H18.6667V5.33331H18.9208C19.1875 5.33331 19.4417 5.43748 19.6292 5.62498L23.7083 9.70831C23.8958 9.89581 24 10.15 24 10.4125ZM18.3333 12H24V25.6666C24 26.2208 23.5542 26.6666 23 26.6666H9C8.44583 26.6666 8 26.2208 8 25.6666V6.33331C8 5.77915 8.44583 5.33331 9 5.33331H17.3333V11C17.3333 11.55 17.7833 12 18.3333 12ZM15.85 16.5666L11.8917 20.525L11.6667 22.5333C11.6375 22.8 11.8625 23.0291 12.1333 23L14.1417 22.775L18.1 18.8166C18.1833 18.7333 18.1833 18.6 18.1 18.5166L16.15 16.5666C16.0667 16.4833 15.9333 16.4833 15.85 16.5666ZM20.4208 15.3041L19.3625 14.2458C19.0333 13.9166 18.5 13.9166 18.1708 14.2458L17.0875 15.3291C17.0042 15.4125 17.0042 15.5458 17.0875 15.6291L19.0375 17.5791C19.1208 17.6625 19.2542 17.6625 19.3375 17.5791L20.4208 16.4958C20.75 16.1666 20.75 15.6333 20.4208 15.3041Z" fill="currentColor"/>
</svg>
