<svg width="32" height="32" viewBox="0 0 32 32" fill="none" xmlns="http://www.w3.org/2000/svg">
<path d="M17.3333 11V5.33331H9C8.44583 5.33331 8 5.77915 8 6.33331V25.6666C8 26.2208 8.44583 26.6666 9 26.6666H23C23.5542 26.6666 24 26.2208 24 25.6666V12H18.3333C17.7833 12 17.3333 11.55 17.3333 11ZM20 20.8333C20 21.1083 19.775 21.3333 19.5 21.3333H12.5C12.225 21.3333 12 21.1083 12 20.8333V20.5C12 20.225 12.225 20 12.5 20H19.5C19.775 20 20 20.225 20 20.5V20.8333ZM20 18.1666C20 18.4416 19.775 18.6666 19.5 18.6666H12.5C12.225 18.6666 12 18.4416 12 18.1666V17.8333C12 17.5583 12.225 17.3333 12.5 17.3333H19.5C19.775 17.3333 20 17.5583 20 17.8333V18.1666ZM20 15.1666V15.5C20 15.775 19.775 16 19.5 16H12.5C12.225 16 12 15.775 12 15.5V15.1666C12 14.8916 12.225 14.6666 12.5 14.6666H19.5C19.775 14.6666 20 14.8916 20 15.1666ZM24 10.4125V10.6666H18.6667V5.33331H18.9208C19.1875 5.33331 19.4417 5.43748 19.6292 5.62498L23.7083 9.70831C23.8958 9.89581 24 10.15 24 10.4125Z" fill="#474747"/>
</svg>
