<svg width="32" height="32" viewBox="0 0 32 32" fill="none" xmlns="http://www.w3.org/2000/svg">
<path d="M23.7083 9.70834L19.6292 5.62501C19.4417 5.43751 19.1875 5.33334 18.9208 5.33334H18.6667V10.6667H24V10.4125C24 10.15 23.8958 9.89584 23.7083 9.70834ZM17.3333 11V5.33334H9C8.44583 5.33334 8 5.77918 8 6.33334V25.6667C8 26.2208 8.44583 26.6667 9 26.6667H23C23.5542 26.6667 24 26.2208 24 25.6667V12H18.3333C17.7833 12 17.3333 11.55 17.3333 11ZM10.6667 8.33334C10.6667 8.14918 10.8158 8.00001 11 8.00001H14.3333C14.5175 8.00001 14.6667 8.14918 14.6667 8.33334V9.00001C14.6667 9.18418 14.5175 9.33334 14.3333 9.33334H11C10.8158 9.33334 10.6667 9.18418 10.6667 9.00001V8.33334ZM10.6667 11.6667V11C10.6667 10.8158 10.8158 10.6667 11 10.6667H14.3333C14.5175 10.6667 14.6667 10.8158 14.6667 11V11.6667C14.6667 11.8508 14.5175 12 14.3333 12H11C10.8158 12 10.6667 11.8508 10.6667 11.6667ZM16.6667 22.6617V23.6667C16.6667 23.8508 16.5175 24 16.3333 24H15.6667C15.4825 24 15.3333 23.8508 15.3333 23.6667V22.6546C14.8629 22.6304 14.4054 22.4663 14.0263 22.1817C13.8638 22.0596 13.8554 21.8163 14.0025 21.6758L14.4921 21.2088C14.6075 21.0988 14.7792 21.0938 14.9142 21.1783C15.0754 21.2792 15.2583 21.3333 15.4483 21.3333H16.6196C16.8904 21.3333 17.1112 21.0867 17.1112 20.7838C17.1112 20.5358 16.9608 20.3175 16.7458 20.2533L14.8708 19.6908C14.0963 19.4583 13.555 18.715 13.555 17.8829C13.555 16.8613 14.3488 16.0313 15.3329 16.005V15C15.3329 14.8158 15.4821 14.6667 15.6663 14.6667H16.3329C16.5171 14.6667 16.6663 14.8158 16.6663 15V16.0121C17.1367 16.0363 17.5942 16.2 17.9733 16.485C18.1358 16.6071 18.1442 16.8504 17.9971 16.9908L17.5075 17.4579C17.3921 17.5679 17.2204 17.5729 17.0854 17.4883C16.9242 17.3871 16.7413 17.3333 16.5513 17.3333H15.38C15.1092 17.3333 14.8883 17.58 14.8883 17.8829C14.8883 18.1308 15.0388 18.3492 15.2537 18.4133L17.1287 18.9758C17.9033 19.2083 18.4446 19.9517 18.4446 20.7838C18.4446 21.8058 17.6508 22.6354 16.6667 22.6617Z" fill="currentColor"/>
</svg>
