<svg width="32" height="32" viewBox="0 0 32 32" fill="none" xmlns="http://www.w3.org/2000/svg">
<path d="M23.7083 9.70834L19.6292 5.62501C19.4417 5.43751 19.1875 5.33334 18.9208 5.33334H18.6667V10.6667H24V10.4125C24 10.15 23.8958 9.89584 23.7083 9.70834ZM13.35 19.3333C12.6042 19.3333 12 19.8375 12 20.4583C12 21.0833 12.6083 21.5833 13.3542 21.5833C14.1 21.5833 14.7042 21.0792 14.7042 20.4583C14.7042 19.8375 14.0958 19.3333 13.35 19.3333ZM17.3333 11V5.33334H14.6833V6.66668H13.35V5.33334H9C8.44583 5.33334 8 5.77918 8 6.33334V25.6667C8 26.2208 8.44583 26.6667 9 26.6667H23C23.5542 26.6667 24 26.2208 24 25.6667V12H18.3333C17.7833 12 17.3333 11.55 17.3333 11ZM11.9958 6.66668H13.3292V8.00001H11.9958V6.66668ZM13.3417 22.6667C11.9583 22.6667 10.925 21.4 11.2 20.0458L12.0167 16V14.6667H13.35V13.3333H12.0167V12H13.35V10.6667H12.0167V9.33334H13.35V8.00001H14.6833V9.33334H13.35V10.6667H14.6833V12H13.35V13.3333H14.6833V14.6667H13.35V16H14.2708C14.5083 16 14.7167 16.1708 14.7625 16.4042L15.4833 20.0583C15.75 21.4083 14.7167 22.6667 13.3417 22.6667Z" fill="#474747"/>
</svg>
