<svg width="32" height="32" viewBox="0 0 32 32" fill="none" xmlns="http://www.w3.org/2000/svg">
<path d="M23.7083 9.70831L19.6292 5.62498C19.4417 5.43748 19.1875 5.33331 18.9208 5.33331H18.6667V10.6666H24V10.4125C24 10.15 23.8958 9.89581 23.7083 9.70831ZM17.3333 11V5.33331H9C8.44583 5.33331 8 5.77915 8 6.33331V25.6666C8 26.2208 8.44583 26.6666 9 26.6666H23C23.5542 26.6666 24 26.2208 24 25.6666V12H18.3333C17.7833 12 17.3333 11.55 17.3333 11ZM13.3333 23.4666C13.3333 23.7333 13.0667 24 12.8 24H11.2C10.9333 24 10.6667 23.7333 10.6667 23.4666V20.5333C10.6667 20.2666 10.9333 20 11.2 20H12.8C13.0667 20 13.3333 20.2666 13.3333 20.5333V23.4666ZM17.3333 23.4666C17.3333 23.7333 17.0667 24 16.8 24H15.2C14.9333 24 14.6667 23.7333 14.6667 23.4666V15.2C14.6667 14.9333 14.9333 14.6666 15.2 14.6666H16.8C17.0667 14.6666 17.3333 14.9333 17.3333 15.2V23.4666ZM18.6667 17.8666C18.6667 17.6 18.9333 17.3333 19.2 17.3333H20.8C21.0667 17.3333 21.3333 17.6 21.3333 17.8666V23.4666C21.3333 23.7333 21.0667 24 20.8 24H19.2C18.9333 24 18.6667 23.7333 18.6667 23.4666V17.8666Z" fill="#474747"/>
</svg>
