<svg width="32" height="32" viewBox="0 0 32 32" fill="none" xmlns="http://www.w3.org/2000/svg">
<path d="M15.5792 16.0042C15.3708 15.3375 15.375 14.05 15.4958 14.05C15.8458 14.05 15.8125 15.5875 15.5792 16.0042ZM15.5083 17.9709C15.1875 18.8125 14.7875 19.775 14.325 20.5834C15.0875 20.2917 15.95 19.8667 16.9458 19.6709C16.4167 19.2709 15.9083 18.6959 15.5083 17.9709ZM11.5875 23.1709C11.5875 23.2042 12.1375 22.9459 13.0417 21.4959C12.7625 21.7584 11.8292 22.5167 11.5875 23.1709ZM18.3333 12H24V25.6667C24 26.2209 23.5542 26.6667 23 26.6667H9C8.44583 26.6667 8 26.2209 8 25.6667V6.33337C8 5.77921 8.44583 5.33337 9 5.33337H17.3333V11C17.3333 11.55 17.7833 12 18.3333 12ZM18 19.1584C17.1667 18.65 16.6125 17.95 16.2208 16.9167C16.4083 16.1459 16.7042 14.975 16.4792 14.2417C16.2833 13.0167 14.7125 13.1375 14.4875 13.9584C14.2792 14.7209 14.4708 15.7959 14.825 17.1667C14.3417 18.3167 13.6292 19.8584 13.125 20.7417C13.1208 20.7417 13.1208 20.7459 13.1167 20.7459C11.9875 21.325 10.05 22.6 10.8458 23.5792C11.0792 23.8667 11.5125 23.9959 11.7417 23.9959C12.4875 23.9959 13.2292 23.2459 14.2875 21.4209C15.3625 21.0667 16.5417 20.625 17.5792 20.4542C18.4833 20.9459 19.5417 21.2667 20.2458 21.2667C21.4625 21.2667 21.5458 19.9334 21.0667 19.4584C20.4875 18.8917 18.8042 19.0542 18 19.1584ZM23.7083 9.70837L19.625 5.62504C19.4375 5.43754 19.1833 5.33337 18.9167 5.33337H18.6667V10.6667H24V10.4125C24 10.15 23.8958 9.89587 23.7083 9.70837ZM20.6208 20.3459C20.7917 20.2334 20.5167 19.85 18.8375 19.9709C20.3833 20.6292 20.6208 20.3459 20.6208 20.3459Z" fill="#474747"/>
</svg>
