<svg width="32" height="32" viewBox="0 0 32 32" fill="none" xmlns="http://www.w3.org/2000/svg">
<path d="M20.0014 10.412C20.0014 10.1495 19.8972 9.89529 19.7097 9.70778L15.6302 5.62409C15.4427 5.43657 15.1885 5.3324 14.9218 5.3324H14.6676V10.6662H20.0014V10.412ZM27.7937 18.1668L23.8059 14.1498C23.385 13.729 22.6641 14.0248 22.6641 14.6207V17.3334H19.9972V20.0003H22.6641V22.7172C22.6641 23.3131 23.385 23.609 23.8059 23.1881L27.7937 19.1669C28.0688 18.8919 28.0688 18.4419 27.7937 18.1668ZM12.0007 19.3336V18.0002C12.0007 17.6335 12.3007 17.3334 12.6674 17.3334H20.0014V11.9996H14.3342C13.7842 11.9996 13.3341 11.5496 13.3341 10.9996V5.3324H5.00009C4.44587 5.3324 4 5.77827 4 6.33248V25.6675C4 26.2217 4.44587 26.6676 5.00009 26.6676H19.0013C19.5555 26.6676 20.0014 26.2217 20.0014 25.6675V20.0003H12.6674C12.3007 20.0003 12.0007 19.7003 12.0007 19.3336Z" fill="#474747"/>
</svg>
