<svg width="32" height="32" viewBox="0 0 32 32" fill="none" xmlns="http://www.w3.org/2000/svg">
<path d="M17.3333 11V5.33335H9C8.86859 5.33302 8.7384 5.35866 8.61693 5.4088C8.49546 5.45893 8.38509 5.53258 8.29216 5.6255C8.19924 5.71843 8.12559 5.8288 8.07545 5.95027C8.02531 6.07175 7.99967 6.20193 8 6.33335V25.6667C7.99967 25.7981 8.02531 25.9283 8.07545 26.0497C8.12559 26.1712 8.19924 26.2816 8.29216 26.3745C8.38509 26.4674 8.49546 26.5411 8.61693 26.5912C8.7384 26.6414 8.86859 26.667 9 26.6667H23C23.1314 26.667 23.2616 26.6414 23.3831 26.5912C23.5045 26.5411 23.6149 26.4674 23.7078 26.3745C23.8008 26.2816 23.8744 26.1712 23.9245 26.0497C23.9747 25.9283 24.0003 25.7981 24 25.6667V12H18.3333C18.0684 11.9992 17.8144 11.8936 17.6271 11.7063C17.4397 11.5189 17.3341 11.265 17.3333 11ZM18.8283 15.3667L19.3 15.8383C19.3619 15.9002 19.411 15.9737 19.4446 16.0546C19.4781 16.1355 19.4953 16.2222 19.4953 16.3098C19.4953 16.3974 19.4781 16.4841 19.4446 16.565C19.411 16.6459 19.3619 16.7193 19.3 16.7813L17.4142 18.6667L19.3 20.5521C19.3619 20.614 19.411 20.6875 19.4446 20.7684C19.4781 20.8493 19.4953 20.936 19.4953 21.0235C19.4953 21.1111 19.4781 21.1978 19.4446 21.2787C19.411 21.3596 19.3619 21.4331 19.3 21.495L18.8283 21.9667C18.7664 22.0286 18.6929 22.0777 18.612 22.1112C18.5311 22.1447 18.4444 22.162 18.3569 22.162C18.2693 22.162 18.1826 22.1447 18.1017 22.1112C18.0208 22.0777 17.9473 22.0286 17.8854 21.9667L16 20.0808L14.1146 21.9667C14.0527 22.0286 13.9792 22.0777 13.8983 22.1112C13.8174 22.1447 13.7307 22.162 13.6431 22.162C13.5556 22.162 13.4689 22.1447 13.388 22.1112C13.3071 22.0777 13.2336 22.0286 13.1717 21.9667L12.7 21.495C12.6381 21.4331 12.589 21.3596 12.5554 21.2787C12.5219 21.1978 12.5047 21.1111 12.5047 21.0235C12.5047 20.936 12.5219 20.8493 12.5554 20.7684C12.589 20.6875 12.6381 20.614 12.7 20.5521L14.5858 18.6667L12.7 16.7813C12.6381 16.7193 12.589 16.6459 12.5554 16.565C12.5219 16.4841 12.5047 16.3974 12.5047 16.3098C12.5047 16.2222 12.5219 16.1355 12.5554 16.0546C12.589 15.9737 12.6381 15.9002 12.7 15.8383L13.1717 15.3667C13.2336 15.3048 13.3071 15.2556 13.388 15.2221C13.4689 15.1886 13.5556 15.1714 13.6431 15.1714C13.7307 15.1714 13.8174 15.1886 13.8983 15.2221C13.9792 15.2556 14.0527 15.3048 14.1146 15.3667L16 17.2525L17.8854 15.3667C17.9473 15.3048 18.0208 15.2556 18.1017 15.2221C18.1826 15.1886 18.2693 15.1714 18.3569 15.1714C18.4444 15.1714 18.5311 15.1886 18.612 15.2221C18.6929 15.2556 18.7664 15.3048 18.8283 15.3667ZM23.7083 9.70834L19.6292 5.62501C19.5361 5.53223 19.4256 5.45871 19.304 5.40867C19.1825 5.35862 19.0523 5.33302 18.9208 5.33335H18.6667V10.6667H24V10.4125C23.9999 10.1484 23.895 9.89515 23.7083 9.70834Z" fill="currentColor"/>
</svg>
