<svg width="32" height="32" viewBox="0 0 32 32" fill="none" xmlns="http://www.w3.org/2000/svg">
<path d="M24 10.4142V10.6666H18.6667V5.33331H18.9191C19.1843 5.33331 19.4387 5.43869 19.6263 5.62619L23.7071 9.70706C23.8946 9.89462 24 10.149 24 10.4142ZM18.3333 12H24V25.6666C24 26.2189 23.5523 26.6666 23 26.6666H9C8.44771 26.6666 8 26.2189 8 25.6666V6.33331C8 5.78102 8.44771 5.33331 9 5.33331H17.3333V11C17.3333 11.55 17.7833 12 18.3333 12ZM21.054 16.5721L19.8803 15.3889C19.6858 15.1929 19.3693 15.1916 19.1732 15.3861L14.755 19.7687L12.8392 17.8374C12.6447 17.6414 12.3281 17.6401 12.132 17.8346L10.9488 19.0083C10.7528 19.2028 10.7515 19.5194 10.946 19.7154L14.3877 23.1849C14.5822 23.381 14.8987 23.3823 15.0948 23.1878L21.0512 17.2792C21.2472 17.0848 21.2485 16.7682 21.054 16.5721Z" fill="currentColor"/>
</svg>
