<svg width="32" height="32" viewBox="0 0 32 32" fill="none" xmlns="http://www.w3.org/2000/svg">
<path d="M24 10.4142V10.6666H18.6667V5.33331H18.9191C19.1843 5.33331 19.4387 5.43869 19.6263 5.62619L23.7071 9.70706C23.8946 9.89462 24 10.149 24 10.4142ZM18.3333 12C17.7833 12 17.3333 11.55 17.3333 11V5.33331H9C8.44771 5.33331 8 5.78102 8 6.33331V25.6666C8 26.2189 8.44771 26.6666 9 26.6666H23C23.5523 26.6666 24 26.2189 24 25.6666V12H18.3333ZM13.1336 22.021C13.1134 22.0426 13.0891 22.0599 13.0622 22.0721C13.0353 22.0843 13.0062 22.0911 12.9767 22.092C12.9472 22.093 12.9177 22.0881 12.8901 22.0777C12.8624 22.0672 12.8371 22.0515 12.8155 22.0313L10.1128 19.4974C10.0903 19.4764 10.0725 19.451 10.0602 19.4227C10.048 19.3945 10.0417 19.3641 10.0417 19.3333C10.0417 19.3025 10.048 19.2721 10.0602 19.2438C10.0725 19.2156 10.0903 19.1902 10.1128 19.1691L12.8155 16.6353C12.8371 16.6151 12.8624 16.5993 12.8901 16.5889C12.9177 16.5785 12.9472 16.5736 12.9767 16.5746C13.0062 16.5755 13.0353 16.5823 13.0622 16.5945C13.0891 16.6066 13.1134 16.624 13.1336 16.6456L13.9494 17.5158C13.97 17.5378 13.986 17.5637 13.9964 17.592C14.0068 17.6202 14.0114 17.6503 14.01 17.6804C14.0085 17.7106 14.001 17.7401 13.988 17.7672C13.9749 17.7944 13.9565 17.8186 13.9339 17.8386L12.2354 19.3333L13.9339 20.8281C13.9565 20.848 13.9749 20.8722 13.988 20.8994C14.001 20.9266 14.0085 20.9561 14.01 20.9862C14.0114 21.0163 14.0068 21.0464 13.9964 21.0747C13.986 21.103 13.97 21.1289 13.9494 21.1509L13.1336 22.021ZM15.2709 24.1243L14.127 23.7922C14.0697 23.7756 14.0213 23.7369 13.9926 23.6846C13.9638 23.6323 13.957 23.5707 13.9736 23.5134L16.5336 14.6956C16.5503 14.6383 16.589 14.59 16.6413 14.5612C16.6936 14.5325 16.7551 14.5257 16.8125 14.5423L17.9563 14.8744C17.9847 14.8826 18.0111 14.8963 18.0342 14.9148C18.0573 14.9333 18.0765 14.9561 18.0907 14.982C18.1049 15.0079 18.1139 15.0363 18.1172 15.0657C18.1204 15.0951 18.1179 15.1248 18.1096 15.1532L15.5496 23.9709C15.5414 23.9993 15.5277 24.0258 15.5092 24.0489C15.4907 24.0719 15.4679 24.0911 15.442 24.1054C15.4161 24.1196 15.3877 24.1286 15.3583 24.1319C15.329 24.1351 15.2992 24.1326 15.2709 24.1243ZM21.9705 19.4974L19.2678 22.0313C19.2462 22.0515 19.2209 22.0672 19.1933 22.0777C19.1656 22.0881 19.1362 22.093 19.1066 22.092C19.0771 22.0911 19.0481 22.0843 19.0211 22.0721C18.9942 22.0599 18.97 22.0426 18.9498 22.021L18.1339 21.1508C18.1133 21.1288 18.0973 21.1029 18.0869 21.0746C18.0765 21.0463 18.0719 21.0162 18.0733 20.9861C18.0748 20.956 18.0822 20.9265 18.0953 20.8994C18.1084 20.8722 18.1268 20.8479 18.1494 20.828L19.8479 19.3333L18.1495 17.8386C18.1268 17.8186 18.1084 17.7944 18.0954 17.7672C18.0823 17.7401 18.0748 17.7106 18.0734 17.6804C18.0719 17.6503 18.0765 17.6202 18.0869 17.592C18.0974 17.5637 18.1133 17.5378 18.134 17.5158L18.9498 16.6456C18.97 16.624 18.9943 16.6066 19.0212 16.5945C19.0481 16.5823 19.0772 16.5755 19.1067 16.5746C19.1362 16.5736 19.1657 16.5785 19.1933 16.5889C19.221 16.5993 19.2463 16.6151 19.2678 16.6353L21.9706 19.1691C21.993 19.1902 22.0109 19.2156 22.0231 19.2439C22.0354 19.2721 22.0417 19.3025 22.0417 19.3333C22.0417 19.3641 22.0354 19.3945 22.0231 19.4227C22.0109 19.451 21.993 19.4764 21.9705 19.4974Z" fill="#474747"/>
</svg>
