<svg width="32" height="32" viewBox="0 0 32 32" fill="none" xmlns="http://www.w3.org/2000/svg">
<path d="M24 10.4142V10.6667H18.6667V5.33334H18.9191C19.1843 5.33334 19.4387 5.43869 19.6262 5.62622L23.7071 9.70709C23.8946 9.89464 24 10.149 24 10.4142ZM18.3333 12C17.7833 12 17.3333 11.55 17.3333 11V5.33334H9C8.44771 5.33334 8 5.78105 8 6.33334V25.6667C8 26.219 8.44771 26.6667 9 26.6667H23C23.5523 26.6667 24 26.219 24 25.6667V12H18.3333ZM12.6894 12.6667C13.794 12.6667 14.6894 13.5621 14.6894 14.6667C14.6894 15.7713 13.794 16.6667 12.6894 16.6667C11.5848 16.6667 10.6894 15.7713 10.6894 14.6667C10.6894 13.5621 11.5848 12.6667 12.6894 12.6667ZM21.356 22.6667H10.6894L10.7096 20.6465L12.356 19C12.5513 18.8048 12.8477 18.825 13.0429 19.0202L14.6894 20.6667L19.0025 16.3536C19.1978 16.1583 19.5143 16.1583 19.7096 16.3536L21.356 18V22.6667Z" fill="currentColor"/>
</svg>
