<svg width="32" height="32" viewBox="0 0 32 32" fill="none" xmlns="http://www.w3.org/2000/svg">
<path d="M17.3333 11V5.33331H9C8.44583 5.33331 8 5.77915 8 6.33331V25.6666C8 26.2208 8.44583 26.6666 9 26.6666H23C23.5542 26.6666 24 26.2208 24 25.6666V12H18.3333C17.7833 12 17.3333 11.55 17.3333 11ZM20.5188 19.8066L16.5013 23.7941C16.2242 24.0696 15.7767 24.0696 15.4996 23.7941L11.4821 19.8066C11.0592 19.3871 11.3558 18.6666 11.9508 18.6666H14.6667V15.3333C14.6667 14.965 14.965 14.6666 15.3333 14.6666H16.6667C17.035 14.6666 17.3333 14.965 17.3333 15.3333V18.6666H20.0492C20.6442 18.6666 20.9408 19.3871 20.5188 19.8066ZM23.7083 9.70831L19.6292 5.62498C19.4417 5.43748 19.1875 5.33331 18.9208 5.33331H18.6667V10.6666H24V10.4125C24 10.15 23.8958 9.89581 23.7083 9.70831Z" fill="currentColor"/>
</svg>
