<svg width="32" height="32" viewBox="0 0 32 32" fill="none" xmlns="http://www.w3.org/2000/svg">
<path d="M19.7319 9.44932C17.4991 9.44932 15.655 8.00003 12.8478 8.00003C11.808 8.00003 10.8766 8.18269 10.0126 8.50057C10.1324 8.18785 10.1833 7.853 10.162 7.51882C10.0882 6.33399 9.11692 5.38361 7.93075 5.33536C6.59771 5.28111 5.5 6.34569 5.5 7.66669C5.5 8.45944 5.89571 9.1594 6.5 9.58107V25.6667C6.5 26.219 6.94771 26.6667 7.5 26.6667H8.16667C8.71896 26.6667 9.16667 26.219 9.16667 25.6667V21.7334C10.3463 21.2307 11.8159 20.8116 13.9348 20.8116C16.1676 20.8116 18.0116 22.2609 20.8188 22.2609C22.8259 22.2609 24.43 21.582 25.9232 20.5585C26.285 20.3105 26.5 19.8988 26.5 19.4602V9.33107C26.5 8.35636 25.4888 7.71149 24.6048 8.12207C23.1741 8.78657 21.4192 9.44932 19.7319 9.44932Z" fill="#474747"/>
</svg>
