<svg width="32" height="32" viewBox="0 0 32 32" fill="none" xmlns="http://www.w3.org/2000/svg">
<path d="M24.6665 20.517H23.6911L18.2448 6.19101C18.1551 5.94086 17.9851 5.72363 17.7587 5.56982C17.5323 5.416 17.2608 5.33332 16.9823 5.33337H15.0173C14.7389 5.33332 14.4674 5.416 14.241 5.56982C14.0145 5.72363 13.8446 5.94086 13.7548 6.19101L8.30859 20.517H7.33317C7.15636 20.517 6.98679 20.5837 6.86177 20.7023C6.73674 20.821 6.6665 20.9819 6.6665 21.1497V22.415C6.6665 22.5828 6.73674 22.7437 6.86177 22.8624C6.98679 22.981 7.15636 23.0477 7.33317 23.0477H12.6665C12.8433 23.0477 13.0129 22.981 13.1379 22.8624C13.2629 22.7437 13.3332 22.5828 13.3332 22.415V21.1497C13.3332 20.9819 13.2629 20.821 13.1379 20.7023C13.0129 20.5837 12.8433 20.517 12.6665 20.517H11.8507L12.8215 17.9864H19.1782L20.149 20.517H19.3332C19.1564 20.517 18.9868 20.5837 18.8618 20.7023C18.7367 20.821 18.6665 20.9819 18.6665 21.1497V22.415C18.6665 22.5828 18.7367 22.7437 18.8618 22.8624C18.9868 22.981 19.1564 23.0477 19.3332 23.0477H24.6665C24.8433 23.0477 25.0129 22.981 25.1379 22.8624C25.2629 22.7437 25.3332 22.5828 25.3332 22.415V21.1497C25.3332 20.9819 25.2629 20.821 25.1379 20.7023C25.0129 20.5837 24.8433 20.517 24.6665 20.517ZM14.0353 14.8232L15.9998 9.70303L17.9644 14.8232H14.0353Z" fill="#474747"/>
<path d="M6.6665 24.7619C6.6665 24.3412 7.01292 24 7.44025 24H24.5594C24.9868 24 25.3332 24.3412 25.3332 24.7619V25.9048C25.3332 26.3256 24.9868 26.6667 24.5594 26.6667H7.44025C7.01292 26.6667 6.6665 26.3256 6.6665 25.9048V24.7619Z" fill="#474747"/>
</svg>
