<svg width="32" height="32" viewBox="0 0 32 32" fill="none" xmlns="http://www.w3.org/2000/svg">
<path d="M6.6665 19.3333V10.6667H4.6665C3.56192 10.6667 2.6665 11.5621 2.6665 12.6667V24.6667C2.6665 25.7713 3.56192 26.6667 4.6665 26.6667H21.9998C23.1044 26.6667 23.9998 25.7713 23.9998 24.6667V22.6667H9.99984C8.16192 22.6667 6.6665 21.1713 6.6665 19.3333ZM27.3332 8.00001H19.3332L16.6665 5.33334H9.99984C8.89525 5.33334 7.99984 6.22876 7.99984 7.33334V19.3333C7.99984 20.4379 8.89525 21.3333 9.99984 21.3333H27.3332C28.4378 21.3333 29.3332 20.4379 29.3332 19.3333V10C29.3332 8.89543 28.4378 8.00001 27.3332 8.00001Z" fill="#474747"/>
</svg>
