<svg width="32" height="32" viewBox="0 0 32 32" fill="none" xmlns="http://www.w3.org/2000/svg">
<path d="M19.8086 11.871C19.1849 8.03015 17.7139 5.33337 16.0021 5.33337C14.2903 5.33337 12.8193 8.03015 12.1957 11.871H19.8086ZM11.8731 16C11.8731 16.9549 11.9247 17.871 12.015 18.7527H19.9849C20.0752 17.871 20.1268 16.9549 20.1268 16C20.1268 15.0452 20.0752 14.1291 19.9849 13.2474H12.015C11.9247 14.1291 11.8731 15.0452 11.8731 16ZM25.8387 11.871C24.6086 8.95058 22.1182 6.69251 19.043 5.78069C20.0924 7.23445 20.815 9.4237 21.1935 11.871H25.8387ZM12.957 5.78069C9.88599 6.69251 7.39136 8.95058 6.16556 11.871H10.8107C11.1849 9.4237 11.9075 7.23445 12.957 5.78069ZM26.2989 13.2474H21.3656C21.4559 14.1506 21.5075 15.0753 21.5075 16C21.5075 16.9248 21.4559 17.8495 21.3656 18.7527H26.2946C26.5311 17.871 26.6645 16.9549 26.6645 16C26.6645 15.0452 26.5311 14.1291 26.2989 13.2474ZM10.4967 16C10.4967 15.0753 10.5484 14.1506 10.6387 13.2474H5.70534C5.47308 14.1291 5.33545 15.0452 5.33545 16C5.33545 16.9549 5.47308 17.871 5.70534 18.7527H10.6344C10.5484 17.8495 10.4967 16.9248 10.4967 16ZM12.1957 20.1291C12.8193 23.9699 14.2903 26.6667 16.0021 26.6667C17.7139 26.6667 19.1849 23.9699 19.8086 20.1291H12.1957ZM19.0473 26.2194C22.1182 25.3076 24.6129 23.0495 25.843 20.1291H21.1978C20.8193 22.5764 20.0967 24.7656 19.0473 26.2194ZM6.16556 20.1291C7.39566 23.0495 9.88599 25.3076 12.9613 26.2194C11.9118 24.7656 11.1892 22.5764 10.8107 20.1291H6.16556Z" fill="#474747"/>
</svg>
