<svg width="32" height="32" viewBox="0 0 32 32" fill="none" xmlns="http://www.w3.org/2000/svg">
<path d="M8.66641 16H23.3323C23.6989 16 23.9989 15.7 23.9989 15.3334V6.00055C23.9989 5.63391 23.6989 5.33392 23.3323 5.33392H18.6659V10.667L15.9993 9.3337L13.3328 10.667V5.33392H8.66641C8.29976 5.33392 7.99978 5.63391 7.99978 6.00055V15.3334C7.99978 15.7 8.29976 16 8.66641 16ZM27.5529 19.004C27.0612 18.5582 26.2946 18.5874 25.778 19.004L21.9282 22.083C21.4574 22.4621 20.8699 22.6663 20.2616 22.6663H15.3327C14.9661 22.6663 14.6661 22.3663 14.6661 21.9997C14.6661 21.633 14.9661 21.333 15.3327 21.333H18.595C19.2575 21.333 19.8741 20.8789 19.9825 20.2248C20.1199 19.3915 19.4783 18.6665 18.6659 18.6665H11.9996C10.8746 18.6665 9.78718 19.054 8.91223 19.7623L6.97484 21.333H4.66663C4.29998 21.333 4 21.633 4 21.9997V25.9994C4 26.3661 4.29998 26.6661 4.66663 26.6661H19.5325C20.1366 26.6661 20.7241 26.4619 21.199 26.0828L27.4987 21.0414C28.132 20.5373 28.182 19.5706 27.5529 19.004Z" fill="currentColor"/>
</svg>
