<svg width="32" height="32" viewBox="0 0 32 32" fill="none" xmlns="http://www.w3.org/2000/svg">
<path d="M14.15 16C14.0427 16 13.9365 16.0211 13.8374 16.0621C13.7383 16.1031 13.6483 16.1633 13.5724 16.2391C13.4966 16.315 13.4364 16.405 13.3954 16.5041C13.3544 16.6032 13.3333 16.7094 13.3333 16.8167V17.85C13.3333 17.9573 13.3544 18.0635 13.3954 18.1626C13.4364 18.2617 13.4966 18.3518 13.5724 18.4276C13.6483 18.5035 13.7383 18.5636 13.8374 18.6047C13.9365 18.6457 14.0427 18.6668 14.15 18.6667H17.85C17.9573 18.6668 18.0635 18.6457 18.1626 18.6047C18.2617 18.5636 18.3517 18.5035 18.4276 18.4276C18.5034 18.3518 18.5636 18.2617 18.6046 18.1626C18.6456 18.0635 18.6667 17.9573 18.6667 17.85V16.8167C18.6667 16.7094 18.6456 16.6032 18.6046 16.5041C18.5636 16.405 18.5034 16.315 18.4276 16.2391C18.3517 16.1633 18.2617 16.1031 18.1626 16.0621C18.0635 16.0211 17.9573 16 17.85 16H14.15ZM10.6667 8.00004H18V10.6667C18 10.8435 18.0702 11.0131 18.1953 11.1381C18.3203 11.2631 18.4899 11.3334 18.6667 11.3334H21.3333V14H24V10.8309C23.9996 10.2996 23.7884 9.79008 23.4129 9.41421L19.9167 5.92046C19.5421 5.54523 19.0339 5.33406 18.5037 5.33337H10C9.46954 5.33492 8.96128 5.54653 8.58646 5.92189C8.21164 6.29726 8.00077 6.80583 8 7.33629V14H10.6667V8.00004ZM27.3333 16H22C21.8232 16 21.6536 16.0703 21.5286 16.1953C21.4036 16.3203 21.3333 16.4899 21.3333 16.6667V18C21.3333 18.1769 21.4036 18.3464 21.5286 18.4714C21.6536 18.5965 21.8232 18.6667 22 18.6667H27.3333C27.5101 18.6667 27.6797 18.5965 27.8047 18.4714C27.9298 18.3464 28 18.1769 28 18V16.6667C28 16.4899 27.9298 16.3203 27.8047 16.1953C27.6797 16.0703 27.5101 16 27.3333 16ZM21.3333 24H10.6667V20.6667H8V24.6667C8 25.1971 8.21071 25.7058 8.58579 26.0809C8.96086 26.456 9.46957 26.6667 10 26.6667H22C22.5304 26.6667 23.0391 26.456 23.4142 26.0809C23.7893 25.7058 24 25.1971 24 24.6667V20.6667H21.3333V24ZM10.6667 18V16.6667C10.6667 16.4899 10.5964 16.3203 10.4714 16.1953C10.3464 16.0703 10.1768 16 10 16H4.66667C4.48986 16 4.32029 16.0703 4.19526 16.1953C4.07024 16.3203 4 16.4899 4 16.6667V18C4 18.1769 4.07024 18.3464 4.19526 18.4714C4.32029 18.5965 4.48986 18.6667 4.66667 18.6667H10C10.1768 18.6667 10.3464 18.5965 10.4714 18.4714C10.5964 18.3464 10.6667 18.1769 10.6667 18Z" fill="#474747"/>
</svg>
