<svg width="32" height="32" viewBox="0 0 32 32" fill="none" xmlns="http://www.w3.org/2000/svg">
<path d="M19.054 11.975C18.9332 11.0167 18.1915 10.2542 17.2665 9.98754L15.179 9.39171C15.029 9.35004 14.9248 9.20837 14.9248 9.05421C14.9248 8.86254 15.0832 8.70421 15.2748 8.70421H16.6415C16.7915 8.70421 16.9373 8.73754 17.0707 8.79587C17.2707 8.88754 17.504 8.86671 17.6582 8.71254L18.3873 7.98337C18.6082 7.76254 18.5832 7.38754 18.3248 7.21671C17.929 6.95421 17.4748 6.79587 16.9998 6.73754V6.00004C16.9998 5.63337 16.6998 5.33337 16.3332 5.33337H15.6665C15.2998 5.33337 14.9998 5.63337 14.9998 6.00004V6.73337C13.7373 6.88337 12.7748 8.02504 12.9457 9.35837C13.0665 10.3167 13.8082 11.0792 14.7332 11.3459L16.8207 11.9417C16.9707 11.9834 17.0748 12.125 17.0748 12.2792C17.0748 12.4709 16.9165 12.6292 16.7248 12.6292H15.3582C15.2082 12.6292 15.0623 12.5959 14.929 12.5375C14.729 12.4459 14.4957 12.4667 14.3415 12.6209L13.6123 13.35C13.3915 13.5709 13.4165 13.9459 13.6748 14.1167C14.0707 14.3792 14.5248 14.5375 14.9998 14.5959V15.3334C14.9998 15.7 15.2998 16 15.6665 16H16.3332C16.6998 16 16.9998 15.7 16.9998 15.3334V14.6C18.2623 14.45 19.2248 13.3125 19.054 11.975ZM11.1998 14.9334C10.7582 14.3459 9.92067 14.225 9.33317 14.6667C8.74567 15.1084 8.62484 15.9459 9.0665 16.5334L10.654 18.65C10.854 18.9167 10.8248 19.2875 10.5915 19.5209L10.0582 20.0542C9.779 20.3334 9.32484 20.3125 9.07484 20.0084L5.33317 15.5167V9.33337C5.33317 8.59587 4.73734 8.00004 3.99984 8.00004C3.26234 8.00004 2.6665 8.59587 2.6665 9.33337V18.4334C2.6665 18.8875 2.82067 19.3292 3.104 19.6834L7.4415 25.2792C7.64984 25.55 7.7915 25.8584 7.87484 26.1834C7.94984 26.4709 8.21234 26.6667 8.51234 26.6667H13.9998C14.3665 26.6667 14.6665 26.3667 14.6665 26V21.3334C14.6665 20.1792 14.2915 19.0584 13.5998 18.1334L11.1998 14.9334ZM27.9998 8.00004C27.2623 8.00004 26.6665 8.59587 26.6665 9.33337V15.5167L22.9248 20.0084C22.6748 20.3084 22.2165 20.3292 21.9415 20.0542L21.4082 19.5209C21.1748 19.2875 21.1457 18.9167 21.3457 18.65L22.9332 16.5334C23.3748 15.9459 23.254 15.1084 22.6665 14.6667C22.079 14.225 21.2415 14.3459 20.7998 14.9334L18.3998 18.1334C17.7082 19.0584 17.3332 20.1792 17.3332 21.3334V26C17.3332 26.3667 17.6332 26.6667 17.9998 26.6667H23.4873C23.7832 26.6667 24.0498 26.4709 24.1248 26.1834C24.2082 25.8584 24.3498 25.55 24.5582 25.2792L28.8957 19.6834C29.179 19.3292 29.3332 18.8875 29.3332 18.4334V9.33337C29.3332 8.59587 28.7373 8.00004 27.9998 8.00004Z" fill="#404041"/>
</svg>
