<svg width="32" height="32" viewBox="0 0 32 32" fill="none" xmlns="http://www.w3.org/2000/svg">
<path d="M11.1998 14.9333C10.7582 14.3458 9.92067 14.225 9.33317 14.6667C8.74567 15.1083 8.62484 15.9458 9.0665 16.5333L10.654 18.65C10.854 18.9167 10.8248 19.2875 10.5915 19.5208L10.0582 20.0542C9.779 20.3333 9.32484 20.3125 9.07484 20.0083L5.33317 15.5167V9.33334C5.33317 8.59584 4.73734 8.00001 3.99984 8.00001C3.26234 8.00001 2.6665 8.59584 2.6665 9.33334V18.4333C2.6665 18.8875 2.82067 19.3292 3.104 19.6833L7.4415 25.2792C7.64984 25.55 7.7915 25.8583 7.87484 26.1833C7.94984 26.4708 8.21234 26.6667 8.51234 26.6667H13.9998C14.3665 26.6667 14.6665 26.3667 14.6665 26V21.3333C14.6665 20.1792 14.2915 19.0583 13.5998 18.1333L11.1998 14.9333ZM27.9998 8.00001C27.2623 8.00001 26.6665 8.59584 26.6665 9.33334V15.5167L22.9248 20.0083C22.6748 20.3083 22.2165 20.3292 21.9415 20.0542L21.4082 19.5208C21.1748 19.2875 21.1457 18.9167 21.3457 18.65L22.9332 16.5333C23.3748 15.9458 23.254 15.1083 22.6665 14.6667C22.079 14.225 21.2415 14.3458 20.7998 14.9333L18.3998 18.1333C17.7082 19.0583 17.3332 20.1792 17.3332 21.3333V26C17.3332 26.3667 17.6332 26.6667 17.9998 26.6667H23.4873C23.7832 26.6667 24.0498 26.4708 24.1248 26.1833C24.2082 25.8583 24.3498 25.55 24.5582 25.2792L28.8957 19.6833C29.179 19.3292 29.3332 18.8875 29.3332 18.4333V9.33334C29.3332 8.59584 28.7373 8.00001 27.9998 8.00001ZM20.9457 9.73334L16.9332 5.72084C16.4165 5.20418 15.5832 5.20418 15.0665 5.72084L11.0498 9.73751C10.5332 10.25 10.5332 11.0875 11.0498 11.6L15.0665 15.6167C15.579 16.1292 16.4165 16.1292 16.929 15.6167L20.9457 11.6C21.4623 11.0833 21.4623 10.25 20.9457 9.73334Z" fill="currentColor"/>
</svg>
