<svg width="32" height="32" viewBox="0 0 32 32" fill="none" xmlns="http://www.w3.org/2000/svg">
<path d="M16.6667 9.33337H12.5442C12.3998 9.33337 12.2614 9.39071 12.1594 9.49276C12.0573 9.59481 12 9.73322 12 9.87754V11.4559C12 11.6002 12.0573 11.7386 12.1594 11.8407C12.2614 11.9427 12.3998 12 12.5442 12H13.3333V14.6667H8V12H8.78917C8.93349 12 9.0719 11.9427 9.17395 11.8407C9.276 11.7386 9.33333 11.6002 9.33333 11.4559V10C9.33333 9.82323 9.2631 9.65366 9.13807 9.52864C9.01305 9.40361 8.84348 9.33337 8.66667 9.33337H4.66667C4.48986 9.33337 4.32029 9.40361 4.19526 9.52864C4.07024 9.65366 4 9.82323 4 10V11.4559C4 11.6002 4.05733 11.7386 4.15938 11.8407C4.26143 11.9427 4.39984 12 4.54417 12H5.33333V20H4.54417C4.39984 20 4.26143 20.0574 4.15938 20.1594C4.05733 20.2615 4 20.3999 4 20.5442V22C4 22.1769 4.07024 22.3464 4.19526 22.4714C4.32029 22.5965 4.48986 22.6667 4.66667 22.6667H8.78917C8.93349 22.6667 9.0719 22.6094 9.17395 22.5073C9.276 22.4053 9.33333 22.2669 9.33333 22.1225V20.5442C9.33333 20.3999 9.276 20.2615 9.17395 20.1594C9.0719 20.0574 8.93349 20 8.78917 20H8V17.3334H13.3333V20H12.5442C12.3998 20 12.2614 20.0574 12.1594 20.1594C12.0573 20.2615 12 20.3999 12 20.5442V22C12 22.1769 12.0702 22.3464 12.1953 22.4714C12.3203 22.5965 12.4899 22.6667 12.6667 22.6667H16.6667C16.8435 22.6667 17.013 22.5965 17.1381 22.4714C17.2631 22.3464 17.3333 22.1769 17.3333 22V20.5442C17.3333 20.3999 17.276 20.2615 17.174 20.1594C17.0719 20.0574 16.9335 20 16.7892 20H16V12H16.7892C16.9335 12 17.0719 11.9427 17.174 11.8407C17.276 11.7386 17.3333 11.6002 17.3333 11.4559V10C17.3333 9.82323 17.2631 9.65366 17.1381 9.52864C17.013 9.40361 16.8435 9.33337 16.6667 9.33337ZM27.3333 14.6667H26.6667V10C26.6667 9.82323 26.5964 9.65366 26.4714 9.52864C26.3464 9.40361 26.1768 9.33337 26 9.33337H24.6667C24.4899 9.33337 24.3203 9.40361 24.1953 9.52864C24.0702 9.65366 24 9.82323 24 10V14.6667H21.3333V10C21.3333 9.82323 21.2631 9.65366 21.1381 9.52864C21.013 9.40361 20.8435 9.33337 20.6667 9.33337H19.3333C19.1565 9.33337 18.987 9.40361 18.8619 9.52864C18.7369 9.65366 18.6667 9.82323 18.6667 10V16C18.6667 16.3537 18.8071 16.6928 19.0572 16.9428C19.3072 17.1929 19.6464 17.3334 20 17.3334H24V22C24 22.1769 24.0702 22.3464 24.1953 22.4714C24.3203 22.5965 24.4899 22.6667 24.6667 22.6667H26C26.1768 22.6667 26.3464 22.5965 26.4714 22.4714C26.5964 22.3464 26.6667 22.1769 26.6667 22V17.3334H27.3333C27.5101 17.3334 27.6797 17.2631 27.8047 17.1381C27.9298 17.0131 28 16.8435 28 16.6667V15.3334C28 15.1566 27.9298 14.987 27.8047 14.862C27.6797 14.7369 27.5101 14.6667 27.3333 14.6667Z" fill="currentColor"/>
</svg>
