<svg width="32" height="32" viewBox="0 0 32 32" fill="none" xmlns="http://www.w3.org/2000/svg">
<path d="M27.3333 20H22.3663C23.0746 18.2105 28 17.2263 28 13.3492C28 10.8563 26.0138 9.33337 23.5475 9.33337C21.7213 9.33337 20.1554 10.2242 19.2383 11.7084C19.1481 11.8533 19.1183 12.0279 19.1553 12.1946C19.1923 12.3613 19.2931 12.5069 19.4363 12.6L20.6138 13.375C20.7572 13.4699 20.9315 13.5062 21.1009 13.4765C21.2703 13.4468 21.4219 13.3534 21.5246 13.2155C21.9733 12.5963 22.5638 12.1321 23.3517 12.1321C24.1396 12.1321 24.9442 12.568 24.9442 13.5421C24.9442 15.7163 19.0233 16.5925 19.0233 21.2321C19.0279 21.5203 19.0517 21.8079 19.0946 22.093C19.1165 22.2525 19.1957 22.3987 19.3173 22.5042C19.4389 22.6097 19.5948 22.6675 19.7558 22.6667H27.3333C27.5101 22.6667 27.6797 22.5965 27.8047 22.4714C27.9298 22.3464 28 22.1769 28 22V20.6667C28 20.4899 27.9298 20.3203 27.8047 20.1953C27.6797 20.0703 27.5101 20 27.3333 20ZM16.6667 9.33337H12.5442C12.3998 9.33337 12.2614 9.39071 12.1594 9.49276C12.0573 9.59481 12 9.73322 12 9.87754V11.4559C12 11.6002 12.0573 11.7386 12.1594 11.8407C12.2614 11.9427 12.3998 12 12.5442 12H13.3333V14.6667H8V12H8.78917C8.93349 12 9.0719 11.9427 9.17395 11.8407C9.276 11.7386 9.33333 11.6002 9.33333 11.4559V10C9.33333 9.82323 9.2631 9.65366 9.13807 9.52864C9.01305 9.40361 8.84348 9.33337 8.66667 9.33337H4.66667C4.48986 9.33337 4.32029 9.40361 4.19526 9.52864C4.07024 9.65366 4 9.82323 4 10V11.4559C4 11.6002 4.05733 11.7386 4.15938 11.8407C4.26143 11.9427 4.39984 12 4.54417 12H5.33333V20H4.54417C4.39984 20 4.26143 20.0574 4.15938 20.1594C4.05733 20.2615 4 20.3999 4 20.5442V22C4 22.1769 4.07024 22.3464 4.19526 22.4714C4.32029 22.5965 4.48986 22.6667 4.66667 22.6667H8.78917C8.93349 22.6667 9.0719 22.6094 9.17395 22.5073C9.276 22.4053 9.33333 22.2669 9.33333 22.1225V20.5442C9.33333 20.3999 9.276 20.2615 9.17395 20.1594C9.0719 20.0574 8.93349 20 8.78917 20H8V17.3334H13.3333V20H12.5442C12.3998 20 12.2614 20.0574 12.1594 20.1594C12.0573 20.2615 12 20.3999 12 20.5442V22C12 22.1769 12.0702 22.3464 12.1953 22.4714C12.3203 22.5965 12.4899 22.6667 12.6667 22.6667H16.6667C16.8435 22.6667 17.013 22.5965 17.1381 22.4714C17.2631 22.3464 17.3333 22.1769 17.3333 22V20.5442C17.3333 20.3999 17.276 20.2615 17.174 20.1594C17.0719 20.0574 16.9335 20 16.7892 20H16V12H16.7892C16.9335 12 17.0719 11.9427 17.174 11.8407C17.276 11.7386 17.3333 11.6002 17.3333 11.4559V10C17.3333 9.82323 17.2631 9.65366 17.1381 9.52864C17.013 9.40361 16.8435 9.33337 16.6667 9.33337Z" fill="currentColor"/>
</svg>
