<svg width="32" height="32" viewBox="0 0 32 32" fill="none" xmlns="http://www.w3.org/2000/svg">
<path d="M24.7917 14.4038L27.475 11.3909C27.5816 11.2731 27.6409 11.1201 27.6417 10.9613V9.98961C27.6403 9.90195 27.6217 9.81542 27.5868 9.73497C27.552 9.65452 27.5016 9.58174 27.4386 9.52078C27.3756 9.45982 27.3012 9.41189 27.2196 9.37973C27.1381 9.34757 27.051 9.33181 26.9633 9.33336H20C19.8232 9.33336 19.6536 9.40359 19.5286 9.52862C19.4036 9.65364 19.3333 9.82321 19.3333 10V11.3334C19.3333 11.5102 19.4036 11.6797 19.5286 11.8048C19.6536 11.9298 19.8232 12 20 12H23.5492C23.4538 12.1021 23.3554 12.2084 23.2496 12.3292L21.0371 14.875C20.9415 14.9965 20.8858 15.1445 20.8775 15.2988C20.8808 15.3895 20.9003 15.479 20.935 15.5629L21.2854 16.3375C21.3833 16.5546 21.6604 16.73 21.9038 16.73H22.5683C23.7742 16.73 24.9762 17.16 24.9762 18.3334C24.9762 19.2217 24.1458 19.8663 23.0017 19.8663C22.0817 19.8663 21.2858 19.4842 20.5975 18.915C20.5244 18.8556 20.4398 18.8119 20.349 18.7866C20.2582 18.7613 20.1632 18.755 20.0699 18.768C19.9766 18.7811 19.887 18.8132 19.8066 18.8625C19.7263 18.9117 19.6569 18.977 19.6029 19.0542L18.78 20.2542C18.6909 20.384 18.6525 20.5419 18.6719 20.6981C18.6913 20.8544 18.7673 20.9981 18.8854 21.1021C20.0375 22.1338 21.5833 22.6667 23.1463 22.6667C26.1046 22.6667 28 20.6309 28 18.2475C28 16.2767 26.6363 14.8771 24.7917 14.4038ZM16.6667 9.33336H12.5442C12.3998 9.33336 12.2614 9.39069 12.1594 9.49274C12.0573 9.59479 12 9.7332 12 9.87752V11.4559C12 11.6002 12.0573 11.7386 12.1594 11.8406C12.2614 11.9427 12.3998 12 12.5442 12H13.3333V14.6667H8V12H8.78917C8.93349 12 9.0719 11.9427 9.17395 11.8406C9.276 11.7386 9.33333 11.6002 9.33333 11.4559V10C9.33333 9.82321 9.2631 9.65364 9.13807 9.52862C9.01305 9.40359 8.84348 9.33336 8.66667 9.33336H4.66667C4.48986 9.33336 4.32029 9.40359 4.19526 9.52862C4.07024 9.65364 4 9.82321 4 10V11.4559C4 11.6002 4.05733 11.7386 4.15938 11.8406C4.26143 11.9427 4.39984 12 4.54417 12H5.33333V20H4.54417C4.39984 20 4.26143 20.0574 4.15938 20.1594C4.05733 20.2615 4 20.3999 4 20.5442V22C4 22.1768 4.07024 22.3464 4.19526 22.4714C4.32029 22.5964 4.48986 22.6667 4.66667 22.6667H8.78917C8.93349 22.6667 9.0719 22.6094 9.17395 22.5073C9.276 22.4053 9.33333 22.2668 9.33333 22.1225V20.5442C9.33333 20.3999 9.276 20.2615 9.17395 20.1594C9.0719 20.0574 8.93349 20 8.78917 20H8V17.3334H13.3333V20H12.5442C12.3998 20 12.2614 20.0574 12.1594 20.1594C12.0573 20.2615 12 20.3999 12 20.5442V22C12 22.1768 12.0702 22.3464 12.1953 22.4714C12.3203 22.5964 12.4899 22.6667 12.6667 22.6667H16.6667C16.8435 22.6667 17.013 22.5964 17.1381 22.4714C17.2631 22.3464 17.3333 22.1768 17.3333 22V20.5442C17.3333 20.3999 17.276 20.2615 17.174 20.1594C17.0719 20.0574 16.9335 20 16.7892 20H16V12H16.7892C16.9335 12 17.0719 11.9427 17.174 11.8406C17.276 11.7386 17.3333 11.6002 17.3333 11.4559V10C17.3333 9.82321 17.2631 9.65364 17.1381 9.52862C17.013 9.40359 16.8435 9.33336 16.6667 9.33336Z" fill="#474747"/>
</svg>
