<svg width="32" height="32" viewBox="0 0 32 32" fill="none" xmlns="http://www.w3.org/2000/svg">
<path d="M24.6665 9.33329V22.6666H25.9998C26.1766 22.6666 26.3462 22.7369 26.4712 22.8619C26.5963 22.9869 26.6665 23.1565 26.6665 23.3333V24.6666C26.6665 24.8434 26.5963 25.013 26.4712 25.138C26.3462 25.2631 26.1766 25.3333 25.9998 25.3333H19.3332C19.1564 25.3333 18.9868 25.2631 18.8618 25.138C18.7367 25.013 18.6665 24.8434 18.6665 24.6666V23.3333C18.6665 23.1565 18.7367 22.9869 18.8618 22.8619C18.9868 22.7369 19.1564 22.6666 19.3332 22.6666H20.6665V17.3333H12.6665V22.6666H13.9998C14.1766 22.6666 14.3462 22.7369 14.4712 22.8619C14.5963 22.9869 14.6665 23.1565 14.6665 23.3333V24.6666C14.6665 24.8434 14.5963 25.013 14.4712 25.138C14.3462 25.2631 14.1766 25.3333 13.9998 25.3333H7.33317C7.15636 25.3333 6.98679 25.2631 6.86177 25.138C6.73674 25.013 6.6665 24.8434 6.6665 24.6666V23.3333C6.6665 23.1565 6.73674 22.9869 6.86177 22.8619C6.98679 22.7369 7.15636 22.6666 7.33317 22.6666H8.6665V9.33329H7.33317C7.15636 9.33329 6.98679 9.26305 6.86177 9.13803C6.73674 9.01301 6.6665 8.84344 6.6665 8.66663V7.33329C6.6665 7.15648 6.73674 6.98691 6.86177 6.86189C6.98679 6.73686 7.15636 6.66663 7.33317 6.66663H13.9998C14.1766 6.66663 14.3462 6.73686 14.4712 6.86189C14.5963 6.98691 14.6665 7.15648 14.6665 7.33329V8.66663C14.6665 8.84344 14.5963 9.01301 14.4712 9.13803C14.3462 9.26305 14.1766 9.33329 13.9998 9.33329H12.6665V14.6666H20.6665V9.33329H19.3332C19.1564 9.33329 18.9868 9.26305 18.8618 9.13803C18.7367 9.01301 18.6665 8.84344 18.6665 8.66663V7.33329C18.6665 7.15648 18.7367 6.98691 18.8618 6.86189C18.9868 6.73686 19.1564 6.66663 19.3332 6.66663H25.9998C26.1766 6.66663 26.3462 6.73686 26.4712 6.86189C26.5963 6.98691 26.6665 7.15648 26.6665 7.33329V8.66663C26.6665 8.84344 26.5963 9.01301 26.4712 9.13803C26.3462 9.26305 26.1766 9.33329 25.9998 9.33329H24.6665Z" fill="#474747"/>
</svg>
