<svg width="32" height="32" viewBox="0 0 32 32" fill="none" xmlns="http://www.w3.org/2000/svg">
<path d="M5.3335 25.4159L9.25191 26.6666L10.6421 25.2819L8.01309 22.6631L5.3335 25.4159ZM10.2201 16.0405C10.0137 16.222 9.86404 16.4589 9.78901 16.7227C9.71398 16.9866 9.71676 17.2665 9.79701 17.5288L10.3088 19.2018L8.31152 21.1917L12.0852 24.9506L14.0797 22.9639L15.7558 23.4749C16.2942 23.6389 16.8793 23.4745 17.2519 23.0538L18.646 21.4272L11.8484 14.6562L10.2201 16.0405ZM26.0362 9.76326L23.5577 7.29453C22.7542 6.49415 21.4644 6.45391 20.6119 7.20273L12.806 13.8417L19.4636 20.4737L26.1283 12.698C26.8805 11.8488 26.8401 10.564 26.0362 9.76326Z" fill="#474747"/>
</svg>
