<svg width="32" height="32" viewBox="0 0 32 32" fill="none" xmlns="http://www.w3.org/2000/svg">
<path d="M26.6669 15.9799C26.6777 21.8569 21.8849 26.6625 16.0079 26.6667C13.4696 26.6685 11.1381 25.7837 9.30589 24.3049C8.82946 23.9204 8.79385 23.2064 9.22679 22.7734L9.7114 22.2888C10.0817 21.9185 10.6728 21.878 11.0831 22.2035C12.433 23.2747 14.1413 23.914 16.0002 23.914C20.3746 23.914 23.9142 20.3738 23.9142 16C23.9142 11.6256 20.3739 8.08604 16.0002 8.08604C13.9007 8.08604 11.9938 8.90191 10.5779 10.2337L12.7609 12.4166C13.1944 12.8502 12.8874 13.5914 12.2743 13.5914H6.02167C5.64158 13.5914 5.3335 13.2833 5.3335 12.9033V6.65064C5.3335 6.03756 6.07474 5.73051 6.50829 6.16401L8.63182 8.28754C10.5468 6.45747 13.1422 5.33334 16.0002 5.33334C21.8845 5.33334 26.656 10.0981 26.6669 15.9799ZM18.8857 19.3684L19.3082 18.8252C19.6582 18.3752 19.5771 17.7266 19.1271 17.3766L17.3765 16.015V11.5269C17.3765 10.9568 16.9144 10.4946 16.3443 10.4946H15.6561C15.086 10.4946 14.6238 10.9568 14.6238 11.5269V17.3614L17.4371 19.5495C17.8872 19.8995 18.5357 19.8184 18.8857 19.3684Z" fill="currentColor"/>
</svg>
