<svg width="32" height="32" viewBox="0 0 32 32" fill="none" xmlns="http://www.w3.org/2000/svg">
<path d="M15.6818 11.5099L8.00032 17.8364V24.6647C8.00032 24.8415 8.07055 25.011 8.19556 25.136C8.32058 25.2611 8.49013 25.3313 8.66693 25.3313L13.3357 25.3192C13.512 25.3183 13.6807 25.2477 13.805 25.1228C13.9292 24.9979 13.999 24.8288 13.999 24.6526V20.665C13.999 20.4882 14.0693 20.3186 14.1943 20.1936C14.3193 20.0686 14.4888 19.9984 14.6656 19.9984H17.3321C17.5089 19.9984 17.6785 20.0686 17.8035 20.1936C17.9285 20.3186 17.9987 20.4882 17.9987 20.665V24.6497C17.9984 24.7374 18.0155 24.8243 18.0489 24.9054C18.0822 24.9865 18.1313 25.0603 18.1932 25.1224C18.2552 25.1845 18.3287 25.2338 18.4097 25.2674C18.4908 25.3011 18.5776 25.3184 18.6653 25.3184L23.3325 25.3313C23.5093 25.3313 23.6788 25.2611 23.8038 25.136C23.9289 25.011 23.9991 24.8415 23.9991 24.6647V17.8319L16.3193 11.5099C16.229 11.4371 16.1165 11.3974 16.0005 11.3974C15.8846 11.3974 15.7721 11.4371 15.6818 11.5099ZM27.8155 15.8099L17.2692 7.12436C16.9112 6.82979 16.462 6.66873 15.9985 6.66873C15.5349 6.66873 15.0857 6.82979 14.7277 7.12436L4.18144 15.8099C4.13082 15.8518 4.08893 15.9032 4.05818 15.9612C4.02743 16.0193 4.00842 16.0828 4.00223 16.1482C3.99604 16.2136 4.00279 16.2795 4.0221 16.3423C4.04142 16.4051 4.07291 16.4634 4.11478 16.5141L5.1772 17.8056C5.21896 17.8564 5.27033 17.8984 5.32835 17.9293C5.38638 17.9602 5.44994 17.9794 5.51538 17.9857C5.58082 17.992 5.64686 17.9854 5.70973 17.9661C5.77259 17.9469 5.83104 17.9154 5.88173 17.8735L15.6818 9.80165C15.7721 9.72888 15.8846 9.68919 16.0005 9.68919C16.1165 9.68919 16.229 9.72888 16.3193 9.80165L26.1198 17.8735C26.1704 17.9154 26.2287 17.9469 26.2915 17.9662C26.3543 17.9855 26.4202 17.9923 26.4856 17.9861C26.551 17.9799 26.6145 17.9609 26.6726 17.9301C26.7306 17.8994 26.782 17.8575 26.8239 17.8069L27.8863 16.5153C27.9281 16.4644 27.9595 16.4057 27.9786 16.3427C27.9976 16.2796 28.0041 16.2134 27.9975 16.1479C27.9909 16.0823 27.9714 16.0187 27.9402 15.9607C27.909 15.9028 27.8666 15.8515 27.8155 15.8099Z" fill="#474747"/>
</svg>
