<svg width="32" height="32" viewBox="0 0 32 32" fill="none" xmlns="http://www.w3.org/2000/svg">
<path d="M26 6.66666H6C4.89583 6.66666 4 7.56249 4 8.66666V9.33332H28V8.66666C28 7.56249 27.1042 6.66666 26 6.66666ZM4 23.3333C4 24.4375 4.89583 25.3333 6 25.3333H26C27.1042 25.3333 28 24.4375 28 23.3333V10.6667H4V23.3333ZM18.6667 13.6667C18.6667 13.4833 18.8167 13.3333 19 13.3333H25C25.1833 13.3333 25.3333 13.4833 25.3333 13.6667V14.3333C25.3333 14.5167 25.1833 14.6667 25 14.6667H19C18.8167 14.6667 18.6667 14.5167 18.6667 14.3333V13.6667ZM18.6667 16.3333C18.6667 16.15 18.8167 16 19 16H25C25.1833 16 25.3333 16.15 25.3333 16.3333V17C25.3333 17.1833 25.1833 17.3333 25 17.3333H19C18.8167 17.3333 18.6667 17.1833 18.6667 17V16.3333ZM18.6667 19C18.6667 18.8167 18.8167 18.6667 19 18.6667H25C25.1833 18.6667 25.3333 18.8167 25.3333 19V19.6667C25.3333 19.85 25.1833 20 25 20H19C18.8167 20 18.6667 19.85 18.6667 19.6667V19ZM11.3333 13.3333C12.8042 13.3333 14 14.5292 14 16C14 17.4708 12.8042 18.6667 11.3333 18.6667C9.8625 18.6667 8.66667 17.4708 8.66667 16C8.66667 14.5292 9.8625 13.3333 11.3333 13.3333ZM6.79583 21.8417C7.14583 20.7708 8.15 20 9.33333 20H9.675C10.1875 20.2125 10.7458 20.3333 11.3333 20.3333C11.9208 20.3333 12.4833 20.2125 12.9917 20H13.3333C14.5167 20 15.5208 20.7708 15.8708 21.8417C16.0042 22.2542 15.6542 22.6667 15.2208 22.6667H7.44583C7.0125 22.6667 6.6625 22.25 6.79583 21.8417Z" fill="#474747"/>
</svg>
