<svg width="32" height="32" viewBox="0 0 32 32" fill="none" xmlns="http://www.w3.org/2000/svg">
<path d="M24.6668 24H7.3335C6.22891 24 5.3335 23.1046 5.3335 22V10C5.3335 8.89542 6.22891 8 7.3335 8H24.6668C25.7714 8 26.6668 8.89542 26.6668 10V22C26.6668 23.1046 25.7714 24 24.6668 24ZM10.0002 10.3333C8.7115 10.3333 7.66683 11.378 7.66683 12.6667C7.66683 13.9553 8.7115 15 10.0002 15C11.2888 15 12.3335 13.9553 12.3335 12.6667C12.3335 11.378 11.2888 10.3333 10.0002 10.3333ZM8.00016 21.3333H24.0002V16.6667L20.3537 13.0202C20.1585 12.825 19.8419 12.825 19.6466 13.0202L14.0002 18.6667L11.687 16.3535C11.4918 16.1583 11.1752 16.1583 10.9799 16.3535L8.00016 19.3333V21.3333Z" fill="currentColor"/>
</svg>
