<svg width="32" height="32" viewBox="0 0 32 32" fill="none" xmlns="http://www.w3.org/2000/svg">
<path d="M11.9998 13.3333C12.2635 13.3333 12.5213 13.2551 12.7406 13.1086C12.9599 12.9621 13.1308 12.7539 13.2317 12.5102C13.3326 12.2666 13.359 11.9985 13.3076 11.7399C13.2561 11.4812 13.1291 11.2437 12.9426 11.0572C12.7562 10.8707 12.5186 10.7437 12.26 10.6923C12.0013 10.6408 11.7332 10.6672 11.4896 10.7681C11.246 10.8691 11.0377 11.04 10.8912 11.2592C10.7447 11.4785 10.6665 11.7363 10.6665 12C10.6665 12.3536 10.807 12.6927 11.057 12.9428C11.3071 13.1928 11.6462 13.3333 11.9998 13.3333ZM23.9998 6.66666H7.99984C7.64622 6.66666 7.30708 6.80713 7.05703 7.05718C6.80698 7.30723 6.6665 7.64637 6.6665 7.99999V24C6.6665 24.3536 6.80698 24.6927 7.05703 24.9428C7.30708 25.1928 7.64622 25.3333 7.99984 25.3333H23.9998C24.3535 25.3333 24.6926 25.1928 24.9426 24.9428C25.1927 24.6927 25.3332 24.3536 25.3332 24V7.99999C25.3332 7.64637 25.1927 7.30723 24.9426 7.05718C24.6926 6.80713 24.3535 6.66666 23.9998 6.66666ZM22.6665 20H9.33317V9.33332H22.6665V20ZM17.8665 14.0446C17.8044 13.9618 17.7239 13.8946 17.6313 13.8483C17.5387 13.802 17.4367 13.7779 17.3332 13.7779C17.2297 13.7779 17.1276 13.802 17.035 13.8483C16.9425 13.8946 16.8619 13.9618 16.7998 14.0446L14.7448 16.7842L13.8878 15.5C13.8269 15.4087 13.7444 15.3339 13.6476 15.2821C13.5509 15.2304 13.4429 15.2033 13.3332 15.2033C13.2235 15.2033 13.1154 15.2304 13.0187 15.2821C12.9219 15.3339 12.8395 15.4087 12.7786 15.5L10.6665 18.6667H21.3332L17.8665 14.0446Z" fill="#474747"/>
</svg>
