<svg width="32" height="32" viewBox="0 0 32 32" fill="none" xmlns="http://www.w3.org/2000/svg">
<path d="M23.3332 6.66666H8.6665C7.56192 6.66666 6.6665 7.56207 6.6665 8.66666V23.3333C6.6665 24.4379 7.56192 25.3333 8.6665 25.3333H23.3332C24.4378 25.3333 25.3332 24.4379 25.3332 23.3333V8.66666C25.3332 7.56207 24.4378 6.66666 23.3332 6.66666ZM15.9998 10.25C16.9663 10.25 17.7498 11.0335 17.7498 12C17.7498 12.9665 16.9663 13.75 15.9998 13.75C15.0333 13.75 14.2498 12.9665 14.2498 12C14.2498 11.0335 15.0333 10.25 15.9998 10.25ZM18.3332 20.8333C18.3332 21.1094 18.1093 21.3333 17.8332 21.3333H14.1665C13.8904 21.3333 13.6665 21.1094 13.6665 20.8333V19.8333C13.6665 19.5572 13.8904 19.3333 14.1665 19.3333H14.6665V16.6667H14.1665C13.8904 16.6667 13.6665 16.4428 13.6665 16.1667V15.1667C13.6665 14.8905 13.8904 14.6667 14.1665 14.6667H16.8332C17.1093 14.6667 17.3332 14.8905 17.3332 15.1667V19.3333H17.8332C18.1093 19.3333 18.3332 19.5572 18.3332 19.8333V20.8333Z" fill="currentColor"/>
</svg>
