<svg width="32" height="32" viewBox="0 0 32 32" fill="none" xmlns="http://www.w3.org/2000/svg">
<path d="M7.99984 10.6667C6.94501 10.6667 5.91386 10.9795 5.0368 11.5655C4.15974 12.1515 3.47615 12.9845 3.07248 13.959C2.66881 14.9336 2.5632 16.0059 2.76898 17.0405C2.97477 18.0751 3.48272 19.0254 4.2286 19.7712C4.97449 20.5171 5.92479 21.0251 6.95936 21.2309C7.99393 21.4366 9.06628 21.331 10.0408 20.9274C11.0154 20.5237 11.8483 19.8401 12.4344 18.963C13.0204 18.086 13.3332 17.0548 13.3332 16C13.3332 14.5855 12.7713 13.229 11.7711 12.2288C10.7709 11.2286 9.41433 10.6667 7.99984 10.6667ZM10.6665 16.6667C10.6665 16.7256 10.6431 16.7821 10.6015 16.8237C10.5598 16.8654 10.5033 16.8888 10.4444 16.8888H8.88859V18.4446C8.88859 18.5035 8.8652 18.56 8.82355 18.6016C8.7819 18.6433 8.72541 18.6667 8.66651 18.6667H7.33318C7.27428 18.6667 7.21779 18.6433 7.17614 18.6016C7.13449 18.56 7.11109 18.5035 7.11109 18.4446V16.8888H5.55526C5.52609 16.8888 5.49722 16.883 5.47027 16.8718C5.44333 16.8607 5.41884 16.8443 5.39822 16.8237C5.3776 16.8031 5.36124 16.7786 5.35008 16.7517C5.33892 16.7247 5.33317 16.6958 5.33317 16.6667V15.3333C5.33317 15.2744 5.35657 15.2179 5.39822 15.1763C5.43987 15.1347 5.49636 15.1113 5.55526 15.1113H7.11109V13.5554C7.11109 13.4965 7.13449 13.44 7.17614 13.3984C7.21779 13.3567 7.27428 13.3333 7.33318 13.3333H8.66651C8.69567 13.3333 8.72455 13.3391 8.7515 13.3502C8.77844 13.3614 8.80292 13.3778 8.82355 13.3984C8.84417 13.419 8.86053 13.4435 8.87169 13.4704C8.88285 13.4974 8.88859 13.5263 8.88859 13.5554V15.1113H10.4444C10.5033 15.1113 10.5598 15.1347 10.6015 15.1763C10.6431 15.2179 10.6665 15.2744 10.6665 15.3333V16.6667ZM5.33317 25.3333C5.33317 25.687 5.47365 26.0261 5.7237 26.2762C5.97375 26.5262 6.31289 26.6667 6.66651 26.6667H9.33318C9.6868 26.6667 10.0259 26.5262 10.276 26.2762C10.526 26.0261 10.6665 25.687 10.6665 25.3333V22.6667H5.33317V25.3333ZM10.6665 6.66666C10.6665 6.31304 10.526 5.9739 10.276 5.72385C10.0259 5.4738 9.6868 5.33333 9.33318 5.33333H6.66651C6.31289 5.33333 5.97375 5.4738 5.7237 5.72385C5.47365 5.9739 5.33317 6.31304 5.33317 6.66666V9.33333H10.6665V6.66666ZM29.2961 23.8021L24.5628 6.1275C24.4249 5.6125 23.9003 5.20083 23.2561 5.37499L22.6124 5.54583C22.3549 5.615 22.1318 5.81277 21.9432 6.13916C21.3599 6.42833 19.764 6.85625 19.1099 6.89833C18.7832 6.70944 18.4915 6.64972 18.2349 6.71916L17.5894 6.89166C17.4886 6.91875 17.4144 6.975 17.3332 7.02V6.66666C17.3332 6.31304 17.1927 5.9739 16.9427 5.72385C16.6926 5.4738 16.3535 5.33333 15.9998 5.33333H13.3332C12.9796 5.33333 12.6404 5.4738 12.3904 5.72385C12.1403 5.9739 11.9998 6.31304 11.9998 6.66666V9.33333H17.3332L21.569 25.8725C21.7082 26.3875 22.2315 26.7992 22.8749 26.625L23.5186 26.4525C23.7761 26.3833 23.9992 26.1856 24.1878 25.8592C24.7674 25.5725 26.3619 25.1425 27.0211 25.1C27.3478 25.2889 27.6394 25.3486 27.8961 25.2792L28.5415 25.1083C29.1861 24.9358 29.4344 24.3171 29.2961 23.8021ZM23.6961 23.5079L19.8599 9.18208L22.4357 8.49208L26.2719 22.8179L23.6961 23.5079ZM11.9998 10.7004C13.609 11.9187 14.6665 13.8304 14.6665 16C14.6665 18.1696 13.609 20.0833 11.9998 21.2996V21.3333H17.3332V10.6667H11.9998V10.7004ZM11.9998 25.3333C11.9998 25.687 12.1403 26.0261 12.3904 26.2762C12.6404 26.5262 12.9796 26.6667 13.3332 26.6667H15.9998C16.3535 26.6667 16.6926 26.5262 16.9427 26.2762C17.1927 26.0261 17.3332 25.687 17.3332 25.3333V22.6667H11.9998V25.3333Z" fill="currentColor"/>
</svg>
