<svg width="32" height="32" viewBox="0 0 32 32" fill="none" xmlns="http://www.w3.org/2000/svg">
<path fill-rule="evenodd" clip-rule="evenodd" d="M20.0029 12.565C17.6525 13.5967 16.0029 15.9396 16.0029 18.6667C16.0029 21.3937 17.6525 23.7371 20.0029 24.7683V25.6667C20.0033 25.7981 19.9776 25.9283 19.9275 26.0497C19.8773 26.1712 19.8037 26.2816 19.7108 26.3745C19.6178 26.4674 19.5075 26.5411 19.386 26.5912C19.2645 26.6414 19.1343 26.667 19.0029 26.6667H5.00293C4.87152 26.667 4.74133 26.6414 4.61986 26.5912C4.49838 26.5411 4.38801 26.4674 4.29509 26.3745C4.20217 26.2816 4.12852 26.1712 4.07838 26.0497C4.02824 25.9283 4.0026 25.7981 4.00293 25.6667V6.33333C4.0026 6.20192 4.02824 6.07173 4.07838 5.95026C4.12852 5.82878 4.20217 5.71841 4.29509 5.62549C4.38801 5.53257 4.49838 5.45892 4.61986 5.40878C4.74133 5.35864 4.87152 5.333 5.00293 5.33333H13.3363V11C13.337 11.265 13.4426 11.5189 13.63 11.7063C13.8174 11.8936 14.0713 11.9992 14.3363 12H20.0029V12.565ZM7.08994 10.0208C6.85617 10.0208 6.66666 10.2074 6.66666 10.4375V11.5833C6.66666 11.8134 6.85617 12 7.08994 12H10.2434C10.4772 12 10.6667 11.8134 10.6667 11.5833V10.4375C10.6667 10.2074 10.4772 10.0208 10.2434 10.0208H7.08994ZM6.66666 20.4167C6.66666 20.1865 6.85617 20 7.08994 20H10.2434C10.4772 20 10.6667 20.1865 10.6667 20.4167V21.5625C10.6667 21.7926 10.4772 21.9792 10.2434 21.9792H7.08994C6.85617 21.9792 6.66666 21.7926 6.66666 21.5625V20.4167Z" fill="currentColor"/>
<path d="M19.7113 9.70833C19.8979 9.89514 20.0028 10.1484 20.0029 10.4125V10.6667H14.6696V5.33333H14.9238C15.0552 5.33301 15.1854 5.3586 15.307 5.40865C15.4285 5.4587 15.539 5.53221 15.6321 5.625L19.7113 9.70833Z" fill="currentColor"/>
<path fill-rule="evenodd" clip-rule="evenodd" d="M27.9971 18.6667C27.9971 21.6122 25.6092 24 22.6637 24C19.7182 24 17.3304 21.6122 17.3304 18.6667C17.3304 15.7211 19.7182 13.3333 22.6637 13.3333C25.6092 13.3333 27.9971 15.7211 27.9971 18.6667ZM20.2744 18.948C20.1443 18.8178 20.1443 18.6067 20.2744 18.4766L20.7975 17.9535C20.9277 17.8233 21.1387 17.8233 21.2689 17.9535L22.0898 18.7744L24.0585 16.8056C24.1887 16.6755 24.3998 16.6755 24.5299 16.8056L25.053 17.3287C25.1832 17.4589 25.1832 17.6699 25.053 17.8001L22.3255 20.5277C22.1953 20.6579 21.9842 20.6579 21.854 20.5277L20.2744 18.948Z" fill="currentColor"/>
</svg>
