<svg width="32" height="32" viewBox="0 0 32 32" fill="none" xmlns="http://www.w3.org/2000/svg">
<path d="M20.001 10.4125C20.001 10.15 19.8968 9.89583 19.7093 9.70833L15.6301 5.62499C15.4426 5.43749 15.1885 5.33333 14.9218 5.33333H14.6676V10.6667H20.001V10.4125Z" fill="#474747"/>
<path fill-rule="evenodd" clip-rule="evenodd" d="M27.7926 18.1667L23.8051 14.15C23.3843 13.7292 22.6635 14.025 22.6635 14.6208V17.3333H20.001V12H14.3343C13.7843 12 13.3343 11.55 13.3343 11V5.33333H5.00098C4.44681 5.33333 4.00098 5.77916 4.00098 6.33333V25.6667C4.00098 26.2208 4.44681 26.6667 5.00098 26.6667H19.001C19.5551 26.6667 20.001 26.2208 20.001 25.6667V20H22.6635V22.7167C22.6635 23.3125 23.3843 23.6083 23.8051 23.1875L27.7926 19.1667C28.0676 18.8917 28.0676 18.4417 27.7926 18.1667ZM19.9968 17.3333V20H12.6676C12.301 20 12.001 19.7 12.001 19.3333V18C12.001 17.6333 12.301 17.3333 12.6676 17.3333H19.9968ZM6.69889 10.4375C6.69889 10.2074 6.88544 10.0208 7.11556 10.0208H10.2197C10.4498 10.0208 10.6364 10.2074 10.6364 10.4375V11.5833C10.6364 11.8134 10.4498 12 10.2197 12H7.11556C6.88544 12 6.69889 11.8134 6.69889 11.5833V10.4375ZM13.9583 21.4167C13.7281 21.4167 13.5416 21.6032 13.5416 21.8333V22.9792C13.5416 23.2093 13.7281 23.3958 13.9583 23.3958H17.0624C17.2925 23.3958 17.4791 23.2093 17.4791 22.9792V21.8333C17.4791 21.6032 17.2925 21.4167 17.0624 21.4167H13.9583Z" fill="#474747"/>
</svg>
