<svg width="32" height="32" viewBox="0 0 32 32" fill="none" xmlns="http://www.w3.org/2000/svg">
<path d="M22.6668 7.33329V8.66663C22.6668 8.84344 22.5966 9.01301 22.4716 9.13803C22.3465 9.26305 22.177 9.33329 22.0002 9.33329H19.3852L16.0518 22.6666H18.0002C18.177 22.6666 18.3465 22.7369 18.4716 22.8619C18.5966 22.9869 18.6668 23.1565 18.6668 23.3333V24.6666C18.6668 24.8434 18.5966 25.013 18.4716 25.138C18.3465 25.2631 18.177 25.3333 18.0002 25.3333H10.0002C9.82335 25.3333 9.65378 25.2631 9.52876 25.138C9.40373 25.013 9.3335 24.8434 9.3335 24.6666V23.3333C9.3335 23.1565 9.40373 22.9869 9.52876 22.8619C9.65378 22.7369 9.82335 22.6666 10.0002 22.6666H12.6152L15.9485 9.33329H14.0002C13.8234 9.33329 13.6538 9.26305 13.5288 9.13803C13.4037 9.01301 13.3335 8.84344 13.3335 8.66663V7.33329C13.3335 7.15648 13.4037 6.98691 13.5288 6.86189C13.6538 6.73686 13.8234 6.66663 14.0002 6.66663H22.0002C22.177 6.66663 22.3465 6.73686 22.4716 6.86189C22.5966 6.98691 22.6668 7.15648 22.6668 7.33329Z" fill="#474747"/>
</svg>
