<svg width="32" height="32" viewBox="0 0 32 32" fill="none" xmlns="http://www.w3.org/2000/svg">
<path d="M26 24H6C4.89542 24 4 23.1046 4 22V10C4 8.89542 4.89542 8 6 8H26C27.1046 8 28 8.89542 28 10V22C28 23.1046 27.1046 24 26 24ZM9.33333 12.8333V11.1667C9.33333 10.8905 9.10946 10.6667 8.83333 10.6667H7.16667C6.89054 10.6667 6.66667 10.8905 6.66667 11.1667V12.8333C6.66667 13.1095 6.89054 13.3333 7.16667 13.3333H8.83333C9.10946 13.3333 9.33333 13.1095 9.33333 12.8333ZM13.3333 12.8333V11.1667C13.3333 10.8905 13.1095 10.6667 12.8333 10.6667H11.1667C10.8905 10.6667 10.6667 10.8905 10.6667 11.1667V12.8333C10.6667 13.1095 10.8905 13.3333 11.1667 13.3333H12.8333C13.1095 13.3333 13.3333 13.1095 13.3333 12.8333ZM17.3333 12.8333V11.1667C17.3333 10.8905 17.1095 10.6667 16.8333 10.6667H15.1667C14.8905 10.6667 14.6667 10.8905 14.6667 11.1667V12.8333C14.6667 13.1095 14.8905 13.3333 15.1667 13.3333H16.8333C17.1095 13.3333 17.3333 13.1095 17.3333 12.8333ZM21.3333 12.8333V11.1667C21.3333 10.8905 21.1095 10.6667 20.8333 10.6667H19.1667C18.8905 10.6667 18.6667 10.8905 18.6667 11.1667V12.8333C18.6667 13.1095 18.8905 13.3333 19.1667 13.3333H20.8333C21.1095 13.3333 21.3333 13.1095 21.3333 12.8333ZM25.3333 12.8333V11.1667C25.3333 10.8905 25.1095 10.6667 24.8333 10.6667H23.1667C22.8905 10.6667 22.6667 10.8905 22.6667 11.1667V12.8333C22.6667 13.1095 22.8905 13.3333 23.1667 13.3333H24.8333C25.1095 13.3333 25.3333 13.1095 25.3333 12.8333ZM11.3333 16.8333V15.1667C11.3333 14.8905 11.1095 14.6667 10.8333 14.6667H9.16667C8.89054 14.6667 8.66667 14.8905 8.66667 15.1667V16.8333C8.66667 17.1095 8.89054 17.3333 9.16667 17.3333H10.8333C11.1095 17.3333 11.3333 17.1095 11.3333 16.8333ZM15.3333 16.8333V15.1667C15.3333 14.8905 15.1095 14.6667 14.8333 14.6667H13.1667C12.8905 14.6667 12.6667 14.8905 12.6667 15.1667V16.8333C12.6667 17.1095 12.8905 17.3333 13.1667 17.3333H14.8333C15.1095 17.3333 15.3333 17.1095 15.3333 16.8333ZM19.3333 16.8333V15.1667C19.3333 14.8905 19.1095 14.6667 18.8333 14.6667H17.1667C16.8905 14.6667 16.6667 14.8905 16.6667 15.1667V16.8333C16.6667 17.1095 16.8905 17.3333 17.1667 17.3333H18.8333C19.1095 17.3333 19.3333 17.1095 19.3333 16.8333ZM23.3333 16.8333V15.1667C23.3333 14.8905 23.1095 14.6667 22.8333 14.6667H21.1667C20.8905 14.6667 20.6667 14.8905 20.6667 15.1667V16.8333C20.6667 17.1095 20.8905 17.3333 21.1667 17.3333H22.8333C23.1095 17.3333 23.3333 17.1095 23.3333 16.8333ZM9.33333 20.8333V19.1667C9.33333 18.8905 9.10946 18.6667 8.83333 18.6667H7.16667C6.89054 18.6667 6.66667 18.8905 6.66667 19.1667V20.8333C6.66667 21.1095 6.89054 21.3333 7.16667 21.3333H8.83333C9.10946 21.3333 9.33333 21.1095 9.33333 20.8333ZM21.3333 20.8333V19.1667C21.3333 18.8905 21.1095 18.6667 20.8333 18.6667H11.1667C10.8905 18.6667 10.6667 18.8905 10.6667 19.1667V20.8333C10.6667 21.1095 10.8905 21.3333 11.1667 21.3333H20.8333C21.1095 21.3333 21.3333 21.1095 21.3333 20.8333ZM25.3333 20.8333V19.1667C25.3333 18.8905 25.1095 18.6667 24.8333 18.6667H23.1667C22.8905 18.6667 22.6667 18.8905 22.6667 19.1667V20.8333C22.6667 21.1095 22.8905 21.3333 23.1667 21.3333H24.8333C25.1095 21.3333 25.3333 21.1095 25.3333 20.8333Z" fill="#474747"/>
</svg>
