<svg width="32" height="32" viewBox="0 0 32 32" fill="none" xmlns="http://www.w3.org/2000/svg">
<path d="M5.85068 11.501L15.5564 15.9039C15.8397 16.0327 16.1602 16.0327 16.4435 15.9039L26.1492 11.501C26.8388 11.1881 26.8388 10.146 26.1492 9.83313L16.4439 5.42984C16.3047 5.36621 16.1534 5.33328 16.0004 5.33328C15.8473 5.33328 15.696 5.36621 15.5568 5.42984L5.85068 9.83272C5.1611 10.1456 5.1611 11.1881 5.85068 11.501ZM26.1496 15.1793L23.7293 14.0823L16.9943 17.1351C16.6793 17.2781 16.3447 17.3506 16.0002 17.3506C15.6556 17.3506 15.3214 17.2781 15.006 17.1351L8.27149 14.0823L5.85068 15.1793C5.1611 15.4918 5.1611 16.5335 5.85068 16.846L15.5564 21.2455C15.8397 21.3739 16.1602 21.3739 16.4435 21.2455L26.1496 16.846C26.8392 16.5335 26.8392 15.4918 26.1496 15.1793ZM26.1496 20.5043L23.7384 19.4114L16.9943 22.4684C16.6793 22.6113 16.3447 22.6838 16.0002 22.6838C15.6556 22.6838 15.3214 22.6113 15.006 22.4684L8.26232 19.4114L5.85068 20.5043C5.1611 20.8168 5.1611 21.8584 5.85068 22.1709L15.5564 26.5705C15.8397 26.6988 16.1602 26.6988 16.4435 26.5705L26.1496 22.1709C26.8392 21.8584 26.8392 20.8168 26.1496 20.5043Z" fill="#474747"/>
</svg>
