<svg width="32" height="32" viewBox="0 0 32 32" fill="none" xmlns="http://www.w3.org/2000/svg">
<path d="M18.9423 13.058C21.4318 15.55 21.3976 19.5454 18.9573 21.9992C18.9527 22.0042 18.9473 22.0097 18.9423 22.0147L16.1423 24.8146C13.6728 27.2842 9.65488 27.2839 7.18568 24.8146C4.7161 22.3455 4.7161 18.3272 7.18568 15.858L8.73176 14.3119C9.14176 13.9019 9.84784 14.1744 9.86901 14.7538C9.89601 15.4923 10.0284 16.2341 10.2728 16.9505C10.3555 17.1931 10.2964 17.4615 10.1151 17.6427L9.56984 18.188C8.40209 19.3557 8.36547 21.2572 9.52172 22.4363C10.6894 23.6271 12.6086 23.6342 13.7853 22.4576L16.5852 19.658C17.7599 18.4834 17.755 16.5848 16.5852 15.4151C16.431 15.2612 16.2757 15.1416 16.1544 15.058C16.0685 14.9991 15.9977 14.9209 15.9474 14.8297C15.8972 14.7385 15.8689 14.6368 15.8649 14.5328C15.8484 14.0925 16.0044 13.6388 16.3523 13.2909L17.2296 12.4136C17.4596 12.1835 17.8205 12.1553 18.0872 12.3415C18.3927 12.5548 18.6789 12.7945 18.9423 13.058ZM24.8146 7.18543C22.3454 4.71619 18.3275 4.71585 15.858 7.18543L13.058 9.98543C13.053 9.99043 13.0475 9.99584 13.043 10.0008C10.6027 12.4547 10.5685 16.45 13.058 18.9421C13.3214 19.2055 13.6075 19.4453 13.913 19.6586C14.1798 19.8447 14.5407 19.8165 14.7707 19.5865L15.6479 18.7092C15.9958 18.3612 16.1518 17.9075 16.1353 17.4672C16.1313 17.3632 16.1031 17.2615 16.0528 17.1703C16.0026 17.0791 15.9317 17.0009 15.8459 16.942C15.7245 16.8585 15.5692 16.7389 15.415 16.585C14.2453 15.4153 14.2404 13.5167 15.415 12.342L18.215 9.54247C19.3916 8.36585 21.3108 8.37293 22.4785 9.56372C23.6348 10.7429 23.5982 12.6443 22.4304 13.812L21.8851 14.3573C21.7039 14.5386 21.6447 14.8069 21.7275 15.0495C21.9718 15.7659 22.1042 16.5078 22.1312 17.2462C22.1524 17.8256 22.8585 18.0981 23.2685 17.6881L24.8146 16.142C27.2842 13.6729 27.2842 9.6546 24.8146 7.18543Z" fill="currentColor"/>
</svg>
