<svg width="32" height="32" viewBox="0 0 32 32" fill="none" xmlns="http://www.w3.org/2000/svg">
<path d="M14.7272 20.2451L11.9949 17.5045H24.3332C24.8855 17.5045 25.3332 17.0555 25.3332 16.5015V15.4985C25.3332 14.9445 24.8855 14.4954 24.3332 14.4954H11.9949L14.7272 11.7549C15.1177 11.3632 15.1177 10.7281 14.7272 10.3364L14.0201 9.62711C13.6295 9.23538 12.9964 9.23538 12.6059 9.62711L6.95941 15.2907C6.56887 15.6824 6.56887 16.3175 6.95941 16.7092L12.6059 22.3728C12.9964 22.7646 13.6296 22.7646 14.0201 22.3728L14.7272 21.6636C15.1177 21.2719 15.1177 20.6368 14.7272 20.2451Z" fill="#474747"/>
</svg>
