<svg width="32" height="32" viewBox="0 0 32 32" fill="none" xmlns="http://www.w3.org/2000/svg">
<path d="M11.7551 14.7274L14.4956 11.9951V24.3334C14.4956 24.8856 14.9447 25.3334 15.4986 25.3334H16.5017C17.0557 25.3334 17.5047 24.8856 17.5047 24.3334V11.9951L20.2452 14.7274C20.637 15.1179 21.2721 15.1179 21.6638 14.7274L22.373 14.0202C22.7648 13.6297 22.7648 12.9965 22.373 12.606L16.7094 6.95959C16.3177 6.56905 15.6827 6.56905 15.2909 6.95959L9.62729 12.606C9.23556 12.9966 9.23556 13.6297 9.62729 14.0202L10.3366 14.7274C10.7283 15.1179 11.3634 15.1179 11.7551 14.7274Z" fill="#474747"/>
</svg>
