<svg width="32" height="32" viewBox="0 0 32 32" fill="none" xmlns="http://www.w3.org/2000/svg">
<path d="M17.2725 11.7549L20.0048 14.4954H7.6665C7.11421 14.4954 6.6665 14.9445 6.6665 15.4985V16.5015C6.6665 17.0555 7.11421 17.5045 7.6665 17.5045H20.0048L17.2725 20.2451C16.882 20.6368 16.882 21.2719 17.2725 21.6636L17.9796 22.3728C18.3702 22.7646 19.0033 22.7646 19.3938 22.3728L25.0403 16.7092C25.4308 16.3175 25.4308 15.6824 25.0403 15.2907L19.3938 9.62711C19.0033 9.23538 18.3701 9.23538 17.9796 9.62711L17.2725 10.3364C16.882 10.7281 16.882 11.3632 17.2725 11.7549Z" fill="#474747"/>
</svg>
