<svg width="32" height="32" viewBox="0 0 32 32" fill="none" xmlns="http://www.w3.org/2000/svg">
<path d="M20.2452 17.2727L17.5047 20.0049V7.66669C17.5047 7.1144 17.0556 6.66669 16.5017 6.66669H15.4986C14.9447 6.66669 14.4956 7.1144 14.4956 7.66669V20.0049L11.7551 17.2727C11.3633 16.8822 10.7283 16.8822 10.3366 17.2727L9.62729 17.9798C9.23556 18.3704 9.23556 19.0035 9.62729 19.394L15.2909 25.0404C15.6826 25.431 16.3177 25.431 16.7094 25.0404L22.373 19.394C22.7648 19.0035 22.7648 18.3703 22.373 17.9798L21.6638 17.2727C21.272 16.8822 20.6369 16.8822 20.2452 17.2727Z" fill="#474747"/>
</svg>
