<svg width="32" height="32" viewBox="0 0 32 32" fill="none" xmlns="http://www.w3.org/2000/svg">
<path d="M15.1778 26.2362C9.12375 17.4596 8 16.5589 8 13.3333C8 8.91504 11.5817 5.33333 16 5.33333C20.4183 5.33333 24 8.91504 24 13.3333C24 16.5589 22.8763 17.4596 16.8222 26.2362C16.4249 26.8102 15.5751 26.8101 15.1778 26.2362ZM16 16.6667C17.841 16.6667 19.3333 15.1743 19.3333 13.3333C19.3333 11.4924 17.841 9.99999 16 9.99999C14.159 9.99999 12.6667 11.4924 12.6667 13.3333C12.6667 15.1743 14.159 16.6667 16 16.6667Z" fill="currentColor"/>
</svg>
