<svg width="32" height="32" viewBox="0 0 32 32" fill="none" xmlns="http://www.w3.org/2000/svg">
<path fill-rule="evenodd" clip-rule="evenodd" d="M7.3335 6.66667H24.6668C25.771 6.66667 26.6668 7.56251 26.6668 8.66667V23.3333C26.6668 24.4375 25.771 25.3333 24.6668 25.3333H7.3335C6.22933 25.3333 5.3335 24.4375 5.3335 23.3333V8.66667C5.3335 7.56251 6.22933 6.66667 7.3335 6.66667ZM9.3335 12C10.071 12 10.6668 11.4042 10.6668 10.6667C10.6668 9.92917 10.071 9.33334 9.3335 9.33334C8.596 9.33334 8.00016 9.92917 8.00016 10.6667C8.00016 11.4042 8.596 12 9.3335 12ZM13.3335 12C14.071 12 14.6668 11.4042 14.6668 10.6667C14.6668 9.92917 14.071 9.33334 13.3335 9.33334C12.596 9.33334 12.0002 9.92917 12.0002 10.6667C12.0002 11.4042 12.596 12 13.3335 12ZM17.3335 12C18.071 12 18.6668 11.4042 18.6668 10.6667C18.6668 9.92917 18.071 9.33334 17.3335 9.33334C16.596 9.33334 16.0002 9.92917 16.0002 10.6667C16.0002 11.4042 16.596 12 17.3335 12ZM14.7072 20.5975L14.236 21.0688C13.9756 21.3292 13.5531 21.3292 13.2927 21.0688L10.8618 18.6379C10.6014 18.3775 10.6014 17.9554 10.8618 17.695L13.2927 15.2642C13.5531 15.0038 13.9752 15.0038 14.2356 15.2642L14.7068 15.7354C14.9672 15.9958 14.9672 16.4179 14.7068 16.6783L13.2189 18.1667L14.7072 19.6546C14.9677 19.915 14.9677 20.3371 14.7072 20.5975ZM17.7647 21.0692L17.2935 20.5979C17.0331 20.3375 17.0331 19.9154 17.2935 19.655L18.7814 18.1667L17.2935 16.6788C17.0331 16.4183 17.0331 15.9963 17.2935 15.7358L17.7647 15.2646C18.0252 15.0042 18.4472 15.0042 18.7077 15.2646L21.1385 17.6954C21.3989 17.9558 21.3989 18.3779 21.1385 18.6383L18.7077 21.0692C18.4472 21.3296 18.0252 21.3296 17.7647 21.0692Z" fill="currentColor"/>
</svg>
