<svg width="32" height="32" viewBox="0 0 32 32" fill="none" xmlns="http://www.w3.org/2000/svg">
<path d="M16.0002 6.66667C10.1085 6.66667 5.3335 10.5458 5.3335 15.3333C5.3335 17.4 6.22516 19.2917 7.7085 20.7792C7.18766 22.8792 5.446 24.75 5.42516 24.7708C5.3335 24.8667 5.3085 25.0083 5.36266 25.1333C5.41683 25.2583 5.5335 25.3333 5.66683 25.3333C8.42933 25.3333 10.5002 24.0083 11.5252 23.1917C12.8877 23.7042 14.4002 24 16.0002 24C21.8918 24 26.6668 20.1208 26.6668 15.3333C26.6668 10.5458 21.8918 6.66667 16.0002 6.66667ZM17.3335 17.6667C17.3335 17.85 17.1835 18 17.0002 18H11.0002C10.8168 18 10.6668 17.85 10.6668 17.6667V17C10.6668 16.8167 10.8168 16.6667 11.0002 16.6667H17.0002C17.1835 16.6667 17.3335 16.8167 17.3335 17V17.6667ZM21.3335 13.6667C21.3335 13.85 21.1835 14 21.0002 14H11.0002C10.8168 14 10.6668 13.85 10.6668 13.6667V13C10.6668 12.8167 10.8168 12.6667 11.0002 12.6667H21.0002C21.1835 12.6667 21.3335 12.8167 21.3335 13V13.6667Z" fill="#474747"/>
</svg>
