<svg width="32" height="32" viewBox="0 0 32 32" fill="none" xmlns="http://www.w3.org/2000/svg">
<path d="M14.6564 10.7812L11.776 5.98083C11.6575 5.78335 11.49 5.61992 11.2896 5.50645C11.0892 5.39297 10.8629 5.33333 10.6326 5.33333H6.00138C5.4618 5.33333 5.14597 5.94041 5.45513 6.38249L10.0914 13.0058C11.3297 11.8487 12.9047 11.0546 14.6564 10.7812ZM25.9989 5.33333H21.3676C20.8993 5.33333 20.4651 5.57916 20.2243 5.98083L17.3439 10.7812C19.0955 11.0546 20.6705 11.8487 21.9089 13.0054L26.5451 6.38249C26.8543 5.94041 26.5385 5.33333 25.9989 5.33333ZM16.0001 12C11.9501 12 8.6668 15.2833 8.6668 19.3333C8.6668 23.3833 11.9501 26.6667 16.0001 26.6667C20.0501 26.6667 23.3335 23.3833 23.3335 19.3333C23.3335 15.2833 20.0501 12 16.0001 12ZM19.8551 18.5525L18.2747 20.0925L18.6485 22.2683C18.7151 22.6583 18.3043 22.9562 17.9547 22.7721L16.0001 21.745L14.046 22.7721C13.696 22.9575 13.2855 22.6579 13.3522 22.2683L13.726 20.0925L12.1455 18.5525C11.8614 18.2758 12.0185 17.7929 12.4101 17.7362L14.5947 17.4179L15.571 15.4379C15.6589 15.2596 15.8289 15.1717 15.9993 15.1717C16.1705 15.1717 16.3418 15.2608 16.4297 15.4379L17.406 17.4179L19.5905 17.7362C19.9822 17.7929 20.1393 18.2758 19.8551 18.5525Z" fill="#474747"/>
</svg>
