<svg width="32" height="32" viewBox="0 0 32 32" fill="none" xmlns="http://www.w3.org/2000/svg">
<path d="M23.3332 6.66666H8.6665C7.56234 6.66666 6.6665 7.5625 6.6665 8.66666V23.3333C6.6665 24.4375 7.56234 25.3333 8.6665 25.3333H23.3332C24.4373 25.3333 25.3332 24.4375 25.3332 23.3333V8.66666C25.3332 7.5625 24.4373 6.66666 23.3332 6.66666ZM10.4998 17.6667C10.2248 17.6667 9.99984 17.4417 9.99984 17.1667V14.8333C9.99984 14.5583 10.2248 14.3333 10.4998 14.3333H21.4998C21.7748 14.3333 21.9998 14.5583 21.9998 14.8333V17.1667C21.9998 17.4417 21.7748 17.6667 21.4998 17.6667H10.4998Z" fill="currentColor"/>
</svg>
