<svg width="32" height="32" viewBox="0 0 32 32" fill="none" xmlns="http://www.w3.org/2000/svg">
<path d="M16.0001 22.7138C15.3159 22.7138 14.6318 22.503 14.0476 22.0809L5.3335 15.7859V24.6667C5.3335 25.7713 6.22891 26.6667 7.33348 26.6667H24.6667C25.7713 26.6667 26.6667 25.7713 26.6667 24.6667V15.7859L17.9526 22.0809C17.3684 22.5026 16.6843 22.7138 16.0001 22.7138ZM25.9005 12.123C25.5317 11.8339 25.1821 11.5618 24.6667 11.1726V9.33348C24.6667 8.2289 23.7713 7.33349 22.6667 7.33349H19.4355C19.3088 7.24182 19.1909 7.15599 19.0588 7.06016C18.3584 6.54933 16.9668 5.31892 16.0001 5.3335C15.0334 5.31892 13.6422 6.54891 12.9414 7.06016C12.8093 7.15599 12.6914 7.24182 12.5647 7.33349H9.33347C8.2289 7.33349 7.33348 8.2289 7.33348 9.33348V11.1726C6.81807 11.5614 6.46849 11.8339 6.09974 12.123C5.86106 12.3101 5.66804 12.549 5.53529 12.8216C5.40254 13.0943 5.33354 13.3935 5.3335 13.6968V14.1405L9.33347 17.0301V9.33348H22.6667V17.0301L26.6667 14.1405V13.6968C26.6667 13.0826 26.3842 12.5022 25.9005 12.123ZM16.3334 11.0001H15.6668C15.4826 11.0001 15.3334 11.1493 15.3334 11.3335V12.0051C14.3493 12.0314 13.5555 12.8614 13.5555 13.883C13.5555 14.7151 14.0964 15.4584 14.8714 15.6909L16.7463 16.2534C16.9613 16.318 17.1118 16.5359 17.1118 16.7838C17.1118 17.0868 16.8909 17.3334 16.6201 17.3334H15.4489C15.2589 17.3334 15.0755 17.2797 14.9147 17.1784C14.7797 17.0938 14.608 17.0988 14.4926 17.2088L14.003 17.6759C13.8559 17.8163 13.8643 18.0597 14.0268 18.1818C14.4059 18.4663 14.8634 18.6305 15.3339 18.6547V19.3334C15.3339 19.5176 15.483 19.6667 15.6672 19.6667H16.3338C16.518 19.6667 16.6672 19.5176 16.6672 19.3334V18.6618C17.6513 18.6355 18.4451 17.8059 18.4451 16.7838C18.4451 15.9518 17.9043 15.2084 17.1293 14.9759L15.2543 14.4134C15.0393 14.3489 14.8889 14.1309 14.8889 13.883C14.8889 13.5801 15.1097 13.3335 15.3805 13.3335H16.5518C16.7418 13.3335 16.9251 13.3872 17.0859 13.4885C17.2209 13.573 17.3926 13.568 17.508 13.458L17.9976 12.991C18.1447 12.8505 18.1363 12.6072 17.9738 12.4851C17.5947 12.2005 17.1372 12.0364 16.6668 12.0122V11.3335C16.6668 11.1493 16.5176 11.0001 16.3334 11.0001Z" fill="#474747"/>
</svg>
