<svg width="32" height="32" viewBox="0 0 32 32" fill="none" xmlns="http://www.w3.org/2000/svg">
<path d="M11.199 10.1856L11.3698 10.3564L14.3569 7.36473L12.6157 5.62432C12.4277 5.43831 12.1739 5.33398 11.9094 5.33398C11.645 5.33398 11.3912 5.43831 11.2032 5.62432L9.62484 7.20223C9.43909 7.38952 9.33487 7.64262 9.33487 7.9064C9.33487 8.17018 9.43909 8.42327 9.62484 8.61057L11.199 10.1856ZM27.9998 11.9993H20.8748L25.8853 17.011C26.1329 17.2586 26.3294 17.5526 26.4635 17.8762C26.5975 18.1998 26.6665 18.5466 26.6665 18.8968V21.9993C26.6665 22.1761 26.5963 22.3457 26.4712 22.4707C26.3462 22.5957 26.1766 22.666 25.9998 22.666H13.6665C13.5781 22.666 13.4933 22.6309 13.4308 22.5684C13.3683 22.5058 13.3332 22.4211 13.3332 22.3326V21.666C13.3332 21.5776 13.3683 21.4928 13.4308 21.4303C13.4933 21.3678 13.5781 21.3326 13.6665 21.3326H20.4582L17.7915 18.666H13.6665C13.5781 18.666 13.4933 18.6309 13.4308 18.5684C13.3683 18.5058 13.3332 18.4211 13.3332 18.3326V17.666C13.3332 17.5776 13.3683 17.4928 13.4308 17.4303C13.4933 17.3678 13.5781 17.3326 13.6665 17.3326H16.4582L11.1248 11.9993H3.99984C3.64622 11.9993 3.30708 12.1398 3.05703 12.3898C2.80698 12.6399 2.6665 12.979 2.6665 13.3326L2.6665 25.3326C2.6665 25.6863 2.80698 26.0254 3.05703 26.2755C3.30708 26.5255 3.64622 26.666 3.99984 26.666H27.9998C28.3535 26.666 28.6926 26.5255 28.9426 26.2755C29.1927 26.0254 29.3332 25.6863 29.3332 25.3326V13.3326C29.3332 12.979 29.1927 12.6399 28.9426 12.3898C28.6926 12.1398 28.3535 11.9993 27.9998 11.9993ZM8.6665 22.661V23.3326C8.6665 23.4211 8.63138 23.5058 8.56887 23.5684C8.50636 23.6309 8.42158 23.666 8.33317 23.666H7.6665C7.5781 23.666 7.49331 23.6309 7.4308 23.5684C7.36829 23.5058 7.33317 23.4211 7.33317 23.3326V22.6539C6.86019 22.6295 6.40519 22.4649 6.02609 22.181C5.98811 22.1514 5.95699 22.114 5.93484 22.0713C5.9127 22.0286 5.90007 21.9816 5.89781 21.9335C5.89555 21.8855 5.90373 21.8375 5.92177 21.7929C5.93981 21.7483 5.9673 21.7081 6.00234 21.6751L6.49192 21.2076C6.54866 21.156 6.62114 21.1249 6.69769 21.1193C6.77425 21.1138 6.85044 21.1342 6.914 21.1772C7.07385 21.2784 7.25903 21.3322 7.44817 21.3326H8.61942C8.89025 21.3326 9.11109 21.086 9.11109 20.7831C9.11109 20.5351 8.96067 20.3168 8.74567 20.2526L6.87067 19.6901C6.09609 19.4576 5.55484 18.7143 5.55484 17.8822C5.55484 16.8606 6.34859 16.0306 7.33275 16.0043V15.3326C7.33275 15.2442 7.36787 15.1595 7.43038 15.0969C7.4929 15.0344 7.57768 14.9993 7.66609 14.9993H8.33275C8.42116 14.9993 8.50594 15.0344 8.56846 15.0969C8.63097 15.1595 8.66609 15.2442 8.66609 15.3326V16.0114C9.1391 16.0356 9.59417 16.2003 9.97317 16.4843C10.0111 16.5139 10.0423 16.5513 10.0644 16.594C10.0866 16.6367 10.0992 16.6837 10.1014 16.7318C10.1037 16.7798 10.0955 16.8278 10.0775 16.8724C10.0594 16.917 10.032 16.9572 9.99692 16.9901L9.50734 17.4576C9.45053 17.5094 9.37798 17.5405 9.30135 17.546C9.22473 17.5515 9.14847 17.5311 9.08484 17.4881C8.92525 17.3867 8.74014 17.3328 8.55109 17.3326H7.37984C7.109 17.3326 6.88817 17.5793 6.88817 17.8822C6.88817 18.1301 7.03859 18.3485 7.25359 18.4126L9.12859 18.9751C9.90317 19.2076 10.444 19.951 10.444 20.7831C10.444 21.8051 9.65067 22.6347 8.6665 22.661ZM21.9528 20.9422C22.2027 21.1922 22.5418 21.3326 22.8953 21.3326H24.6665C24.8433 21.3326 25.0129 21.2624 25.1379 21.1374C25.2629 21.0124 25.3332 20.8428 25.3332 20.666V18.8968C25.3332 18.7217 25.2987 18.5483 25.2317 18.3865C25.1648 18.2247 25.0666 18.0777 24.9428 17.9539L15.2986 8.31057L12.3111 11.2981L21.9528 20.9422Z" fill="#474747"/>
</svg>
