<svg width="32" height="32" viewBox="0 0 32 32" fill="none" xmlns="http://www.w3.org/2000/svg">
<path d="M20.6668 5.33334H11.3335C10.2293 5.33334 9.3335 6.22917 9.3335 7.33334V24.6667C9.3335 25.7708 10.2293 26.6667 11.3335 26.6667H20.6668C21.771 26.6667 22.6668 25.7708 22.6668 24.6667V7.33334C22.6668 6.22917 21.771 5.33334 20.6668 5.33334ZM16.0002 25.3333C15.2627 25.3333 14.6668 24.7375 14.6668 24C14.6668 23.2625 15.2627 22.6667 16.0002 22.6667C16.7377 22.6667 17.3335 23.2625 17.3335 24C17.3335 24.7375 16.7377 25.3333 16.0002 25.3333ZM20.6668 20.8333C20.6668 21.1083 20.4418 21.3333 20.1668 21.3333H11.8335C11.5585 21.3333 11.3335 21.1083 11.3335 20.8333V7.83334C11.3335 7.55834 11.5585 7.33334 11.8335 7.33334H20.1668C20.4418 7.33334 20.6668 7.55834 20.6668 7.83334V20.8333Z" fill="#474747"/>
</svg>
