<svg width="32" height="32" viewBox="0 0 32 32" fill="none" xmlns="http://www.w3.org/2000/svg">
<path fill-rule="evenodd" clip-rule="evenodd" d="M25.3332 18.6667H19.6665C19.1165 18.6667 18.6665 19.1167 18.6665 19.6667V25.3333H7.6665C7.11234 25.3333 6.6665 24.8875 6.6665 24.3333V7.66666C6.6665 7.1125 7.11234 6.66666 7.6665 6.66666H24.3332C24.8873 6.66666 25.3332 7.1125 25.3332 7.66666V18.6667ZM19.9998 14.375V13.2082C19.9998 12.9332 19.7748 12.7082 19.4998 12.7082H12.4998C12.2248 12.7082 11.9998 12.9332 11.9998 13.2082V14.375C11.9998 14.65 12.2248 14.875 12.4998 14.875H19.4998C19.7748 14.875 19.9998 14.65 19.9998 14.375ZM12.4998 16.2083H14.7498C15.0248 16.2083 15.2498 16.4333 15.2498 16.7083V17.875C15.2498 18.1501 15.0248 18.3751 14.7498 18.3751H12.4998C12.2248 18.3751 11.9998 18.1501 11.9998 17.875V16.7083C11.9998 16.4333 12.2248 16.2083 12.4998 16.2083Z" fill="currentColor"/>
<path d="M20.9582 25.0417L25.0415 20.9583C25.229 20.7708 25.3332 20.5167 25.3332 20.2542V20H19.9998V25.3333H20.2498C20.5165 25.3333 20.7707 25.2292 20.9582 25.0417Z" fill="currentColor"/>
</svg>
