<svg width="32" height="32" viewBox="0 0 32 32" fill="none" xmlns="http://www.w3.org/2000/svg">
<path d="M25.3335 10.6667V9.33333H26.1668C26.443 9.33333 26.6668 9.10946 26.6668 8.83333V7.16666C26.6668 6.89054 26.443 6.66666 26.1668 6.66666H24.5002C24.224 6.66666 24.0002 6.89054 24.0002 7.16666V8H8.00016V7.16666C8.00016 6.89054 7.77629 6.66666 7.50016 6.66666H5.8335C5.55737 6.66666 5.3335 6.89054 5.3335 7.16666V8.83333C5.3335 9.10946 5.55737 9.33333 5.8335 9.33333H6.66683V22.6667H5.8335C5.55737 22.6667 5.3335 22.8905 5.3335 23.1667V24.8333C5.3335 25.1095 5.55737 25.3333 5.8335 25.3333H7.50016C7.77629 25.3333 8.00016 25.1095 8.00016 24.8333V24H24.0002V24.8333C24.0002 25.1095 24.224 25.3333 24.5002 25.3333H26.1668C26.443 25.3333 26.6668 25.1095 26.6668 24.8333V23.1667C26.6668 22.8905 26.443 22.6667 26.1668 22.6667H25.3335V10.6667ZM9.3335 16.8333V11.1667C9.3335 10.8905 9.55737 10.6667 9.8335 10.6667H16.8335C17.1096 10.6667 17.3335 10.8905 17.3335 11.1667V16.8333C17.3335 17.1095 17.1096 17.3333 16.8335 17.3333H9.8335C9.55737 17.3333 9.3335 17.1095 9.3335 16.8333ZM22.6668 20.8333C22.6668 21.1095 22.443 21.3333 22.1668 21.3333H15.1668C14.8907 21.3333 14.6668 21.1095 14.6668 20.8333V18.6667H17.6668C18.2191 18.6667 18.6668 18.219 18.6668 17.6667V14.6667H22.1668C22.443 14.6667 22.6668 14.8905 22.6668 15.1667V20.8333Z" fill="#474747"/>
</svg>
