<svg width="32" height="32" viewBox="0 0 32 32" fill="none" xmlns="http://www.w3.org/2000/svg">
<path d="M7.90725 22.0416L8.63641 21.202C8.78153 21.0402 8.85738 20.8279 8.84766 20.6108V20.4729C8.84766 20.1666 8.68766 20 8.37516 20H6.00016C5.91176 20 5.82697 20.0351 5.76446 20.0976C5.70195 20.1601 5.66683 20.2449 5.66683 20.3333V21C5.66683 21.0884 5.70195 21.1731 5.76446 21.2357C5.82697 21.2982 5.91176 21.3333 6.00016 21.3333H6.95141C6.78977 21.4961 6.63678 21.6673 6.49308 21.8462L6.25933 22.1379C6.09266 22.3491 6.04058 22.56 6.14266 22.7579L6.18641 22.8383C6.31141 23.0783 6.4485 23.1666 6.69683 23.1666H6.89391C7.32433 23.1666 7.55808 23.2683 7.55808 23.5454C7.55808 23.742 7.38308 23.8879 6.95975 23.8879C6.73855 23.8861 6.51974 23.842 6.31516 23.7579C6.04475 23.5962 5.826 23.612 5.66516 23.8879L5.43225 24.2758C5.27725 24.5312 5.29933 24.7641 5.54183 24.94C5.86308 25.1354 6.391 25.3333 7.0835 25.3333C8.50683 25.3333 9.10433 24.3854 9.10433 23.495C9.10308 22.8958 8.72433 22.255 7.90725 22.0416ZM26.0002 14.6666H12.6668C12.49 14.6666 12.3204 14.7369 12.1954 14.8619C12.0704 14.9869 12.0002 15.1565 12.0002 15.3333V16.6666C12.0002 16.8434 12.0704 17.013 12.1954 17.138C12.3204 17.2631 12.49 17.3333 12.6668 17.3333H26.0002C26.177 17.3333 26.3465 17.2631 26.4716 17.138C26.5966 17.013 26.6668 16.8434 26.6668 16.6666V15.3333C26.6668 15.1565 26.5966 14.9869 26.4716 14.8619C26.3465 14.7369 26.177 14.6666 26.0002 14.6666ZM26.0002 7.99996H12.6668C12.49 7.99996 12.3204 8.0702 12.1954 8.19522C12.0704 8.32025 12.0002 8.48981 12.0002 8.66663V9.99996C12.0002 10.1768 12.0704 10.3463 12.1954 10.4714C12.3204 10.5964 12.49 10.6666 12.6668 10.6666H26.0002C26.177 10.6666 26.3465 10.5964 26.4716 10.4714C26.5966 10.3463 26.6668 10.1768 26.6668 9.99996V8.66663C26.6668 8.48981 26.5966 8.32025 26.4716 8.19522C26.3465 8.0702 26.177 7.99996 26.0002 7.99996ZM26.0002 21.3333H12.6668C12.49 21.3333 12.3204 21.4035 12.1954 21.5286C12.0704 21.6536 12.0002 21.8231 12.0002 22V23.3333C12.0002 23.5101 12.0704 23.6797 12.1954 23.8047C12.3204 23.9297 12.49 24 12.6668 24H26.0002C26.177 24 26.3465 23.9297 26.4716 23.8047C26.5966 23.6797 26.6668 23.5101 26.6668 23.3333V22C26.6668 21.8231 26.5966 21.6536 26.4716 21.5286C26.3465 21.4035 26.177 21.3333 26.0002 21.3333ZM6.00016 12H8.66683C8.75523 12 8.84002 11.9648 8.90253 11.9023C8.96504 11.8398 9.00016 11.755 9.00016 11.6666V11C9.00016 10.9116 8.96504 10.8268 8.90253 10.7643C8.84002 10.7017 8.75523 10.6666 8.66683 10.6666H8.00016V6.99996C8.00016 6.91155 7.96504 6.82677 7.90253 6.76426C7.84002 6.70174 7.75523 6.66663 7.66683 6.66663H6.66683C6.60504 6.66674 6.54451 6.68402 6.49197 6.71654C6.43944 6.74906 6.39698 6.79554 6.36933 6.85079L6.036 7.51746C6.01059 7.56823 5.99857 7.62466 6.00108 7.68138C6.0036 7.7381 6.02056 7.79324 6.05036 7.84157C6.08015 7.8899 6.1218 7.92982 6.17136 7.95754C6.22091 7.98526 6.27672 7.99986 6.3335 7.99996H6.66683V10.6666H6.00016C5.91176 10.6666 5.82697 10.7017 5.76446 10.7643C5.70195 10.8268 5.66683 10.9116 5.66683 11V11.6666C5.66683 11.755 5.70195 11.8398 5.76446 11.9023C5.82697 11.9648 5.91176 12 6.00016 12ZM5.83725 18.6666H8.66683C8.75523 18.6666 8.84002 18.6315 8.90253 18.569C8.96504 18.5065 9.00016 18.4217 9.00016 18.3333V17.6666C9.00016 17.5782 8.96504 17.4934 8.90253 17.4309C8.84002 17.3684 8.75523 17.3333 8.66683 17.3333H7.05516C7.19225 16.9045 9.06933 16.555 9.06933 14.9816C9.06933 13.7708 8.02766 13.3333 7.21641 13.3333C6.32641 13.3333 5.80808 13.75 5.53058 14.1145C5.3485 14.3475 5.40558 14.5662 5.64725 14.755L6.00475 15.0416C6.2385 15.2316 6.46308 15.1445 6.67641 14.94C6.78164 14.8369 6.92326 14.7794 7.07058 14.78C7.20933 14.78 7.45725 14.845 7.45725 15.1445C7.4585 15.6745 5.3335 16.0545 5.3335 18.0245V18.1912C5.3335 18.5 5.54516 18.6666 5.83725 18.6666Z" fill="#474747"/>
</svg>
