<svg width="32" height="32" viewBox="0 0 32 32" fill="none" xmlns="http://www.w3.org/2000/svg">
<path d="M24.6668 7.33329V8.66663C24.6668 8.84344 24.5966 9.01301 24.4716 9.13803C24.3465 9.26305 24.177 9.33329 24.0002 9.33329H22.0002V24.6666C22.0002 24.8434 21.9299 25.013 21.8049 25.138C21.6799 25.2631 21.5103 25.3333 21.3335 25.3333H20.0002C19.8234 25.3333 19.6538 25.2631 19.5288 25.138C19.4037 25.013 19.3335 24.8434 19.3335 24.6666V9.33329H18.0002V24.6666C18.0002 24.8434 17.9299 25.013 17.8049 25.138C17.6799 25.2631 17.5103 25.3333 17.3335 25.3333H16.0002C15.8234 25.3333 15.6538 25.2631 15.5288 25.138C15.4037 25.013 15.3335 24.8434 15.3335 24.6666V20H14.0002C12.2321 20 10.5364 19.2976 9.28612 18.0473C8.03588 16.7971 7.3335 15.1014 7.3335 13.3333C7.3335 11.5652 8.03588 9.86949 9.28612 8.61925C10.5364 7.369 12.2321 6.66663 14.0002 6.66663H24.0002C24.177 6.66663 24.3465 6.73686 24.4716 6.86189C24.5966 6.98691 24.6668 7.15648 24.6668 7.33329Z" fill="currentColor"/>
</svg>
