<svg width="32" height="32" viewBox="0 0 32 32" fill="none" xmlns="http://www.w3.org/2000/svg">
<path d="M8.46841 24.7559C6.03383 22.2439 6.0792 18.193 8.52616 15.69L17.2662 6.75001C19.1127 4.86117 22.1141 4.86101 23.9608 6.75001C25.7895 8.62059 25.7917 11.6387 23.9608 13.5115L16.3421 21.297C15.0981 22.5694 13.0657 22.5516 11.8428 21.2554C10.6647 20.0067 10.7025 18.0274 11.9033 16.799L17.8926 10.6809C18.1502 10.4178 18.5723 10.4133 18.8354 10.6709L19.7879 11.6033C20.051 11.8609 20.0555 12.283 19.7979 12.5461L13.8093 18.6636C13.6038 18.8738 13.5911 19.2231 13.7823 19.4258C13.9644 19.6189 14.2508 19.6221 14.4359 19.4327L22.0547 11.6472C22.8719 10.8113 22.8719 9.45034 22.0542 8.61397C21.2547 7.79617 19.9727 7.79576 19.1728 8.61397L10.4327 17.554C8.98429 19.0356 8.96195 21.434 10.3831 22.9003C11.8002 24.3625 14.0908 24.3644 15.5105 22.9123L22.6797 15.579C22.9371 15.3157 23.3592 15.3109 23.6224 15.5683L24.5757 16.5001C24.8389 16.7575 24.8437 17.1796 24.5863 17.4429L17.4172 24.7761C14.9348 27.3152 10.9195 27.2851 8.46841 24.7559Z" fill="#474747"/>
</svg>
