<svg width="32" height="32" viewBox="0 0 32 32" fill="none" xmlns="http://www.w3.org/2000/svg">
<path d="M26.0584 20.4082L21.3917 18.4082C21.1923 18.3232 20.9708 18.3053 20.7604 18.3572C20.5499 18.409 20.3621 18.5278 20.225 18.6957L18.1583 21.2207C14.9148 19.6915 12.3045 17.0812 10.7753 13.8377L13.3003 11.771C13.4685 11.6342 13.5876 11.4463 13.6394 11.2358C13.6913 11.0253 13.6732 10.8036 13.5878 10.6043L11.5878 5.93755C11.4941 5.72272 11.3283 5.54731 11.1192 5.44158C10.91 5.33585 10.6705 5.30642 10.4419 5.35837L6.10851 6.35839C5.88816 6.40927 5.69156 6.53334 5.55081 6.71035C5.41005 6.88735 5.33345 7.10684 5.3335 7.33299C5.3335 18.0207 13.9961 26.6667 24.6672 26.6667C24.8934 26.6668 25.113 26.5903 25.2901 26.4495C25.4672 26.3087 25.5913 26.1121 25.6422 25.8917L26.6422 21.5582C26.6938 21.3286 26.6638 21.0881 26.5572 20.8782C26.4507 20.6683 26.2743 20.5021 26.0584 20.4082Z" fill="#474747"/>
</svg>
