<svg width="32" height="32" viewBox="0 0 32 32" fill="none" xmlns="http://www.w3.org/2000/svg">
<path d="M16.0002 5.33333C10.1077 5.33333 5.3335 10.1075 5.3335 16C5.3335 21.8925 10.1077 26.6667 16.0002 26.6667C21.8926 26.6667 26.6668 21.8925 26.6668 16C26.6668 10.1075 21.8926 5.33333 16.0002 5.33333ZM22.1937 17.2043C22.1937 17.4882 21.9615 17.7204 21.6776 17.7204H17.7206V21.6774C17.7206 21.9613 17.4883 22.1935 17.2045 22.1935H14.7959C14.512 22.1935 14.2797 21.9613 14.2797 21.6774V17.7204H10.3227C10.0389 17.7204 9.80661 17.4882 9.80661 17.2043V14.7957C9.80661 14.5118 10.0389 14.2796 10.3227 14.2796H14.2797V10.3226C14.2797 10.0387 14.512 9.80645 14.7959 9.80645H17.2045C17.4883 9.80645 17.7206 10.0387 17.7206 10.3226V14.2796H21.6776C21.9615 14.2796 22.1937 14.5118 22.1937 14.7957V17.2043Z" fill="currentColor"/>
</svg>
