<svg width="32" height="32" viewBox="0 0 32 32" fill="none" xmlns="http://www.w3.org/2000/svg">
<path d="M23.9998 14H17.9998V8C17.9998 7.26375 17.4028 6.66667 16.6665 6.66667H15.3332C14.5969 6.66667 13.9998 7.26375 13.9998 8V14H7.99984C7.26359 14 6.6665 14.5971 6.6665 15.3333V16.6667C6.6665 17.4029 7.26359 18 7.99984 18H13.9998V24C13.9998 24.7362 14.5969 25.3333 15.3332 25.3333H16.6665C17.4028 25.3333 17.9998 24.7362 17.9998 24V18H23.9998C24.7361 18 25.3332 17.4029 25.3332 16.6667V15.3333C25.3332 14.5971 24.7361 14 23.9998 14Z" fill="#474747"/>
</svg>
