<svg width="32" height="32" viewBox="0 0 32 32" fill="none" xmlns="http://www.w3.org/2000/svg">
<path d="M23.3332 6.66667H8.6665C7.56234 6.66667 6.6665 7.5625 6.6665 8.66667V23.3333C6.6665 24.4375 7.56234 25.3333 8.6665 25.3333H23.3332C24.4373 25.3333 25.3332 24.4375 25.3332 23.3333V8.66667C25.3332 7.5625 24.4373 6.66667 23.3332 6.66667ZM21.9998 17.1667C21.9998 17.4417 21.7748 17.6667 21.4998 17.6667H17.6665V21.5C17.6665 21.775 17.4415 22 17.1665 22H14.8332C14.5582 22 14.3332 21.775 14.3332 21.5V17.6667H10.4998C10.2248 17.6667 9.99984 17.4417 9.99984 17.1667V14.8333C9.99984 14.5583 10.2248 14.3333 10.4998 14.3333H14.3332V10.5C14.3332 10.225 14.5582 10 14.8332 10H17.1665C17.4415 10 17.6665 10.225 17.6665 10.5V14.3333H21.4998C21.7748 14.3333 21.9998 14.5583 21.9998 14.8333V17.1667Z" fill="currentColor"/>
</svg>
