<svg width="32" height="32" viewBox="0 0 32 32" fill="none" xmlns="http://www.w3.org/2000/svg">
<path d="M24.0002 13.3333V8.55208C24.0002 8.19833 23.8597 7.85958 23.6097 7.60917L21.7239 5.72375C21.4739 5.47375 21.1347 5.33333 20.781 5.33333H9.3335C8.59725 5.33333 8.00016 5.93042 8.00016 6.66667V13.3333C6.52725 13.3333 5.3335 14.5271 5.3335 16V20.6667C5.3335 21.035 5.63183 21.3333 6.00016 21.3333H8.00016V25.3333C8.00016 26.0696 8.59725 26.6667 9.3335 26.6667H22.6668C23.4031 26.6667 24.0002 26.0696 24.0002 25.3333V21.3333H26.0002C26.3685 21.3333 26.6668 21.035 26.6668 20.6667V16C26.6668 14.5271 25.4731 13.3333 24.0002 13.3333ZM21.3335 24H10.6668V20H21.3335V24ZM21.3335 14.6667H10.6668V8H18.6668V10C18.6668 10.3683 18.9652 10.6667 19.3335 10.6667H21.3335V14.6667ZM23.3335 17.6667C22.7814 17.6667 22.3335 17.2188 22.3335 16.6667C22.3335 16.1142 22.7814 15.6667 23.3335 15.6667C23.8856 15.6667 24.3335 16.1142 24.3335 16.6667C24.3335 17.2188 23.8856 17.6667 23.3335 17.6667Z" fill="currentColor"/>
</svg>
