<svg width="32" height="32" viewBox="0 0 32 32" fill="none" xmlns="http://www.w3.org/2000/svg">
<path d="M23.3332 6.66667H8.6665C7.56192 6.66667 6.6665 7.56209 6.6665 8.66667V23.3333C6.6665 24.4379 7.56192 25.3333 8.6665 25.3333H23.3332C24.4378 25.3333 25.3332 24.4379 25.3332 23.3333V8.66667C25.3332 7.56209 24.4378 6.66667 23.3332 6.66667ZM15.9998 23.25C14.943 23.25 14.0832 22.3902 14.0832 21.3333C14.0832 20.2765 14.943 19.4167 15.9998 19.4167C17.0567 19.4167 17.9165 20.2765 17.9165 21.3333C17.9165 22.3902 17.0567 23.25 15.9998 23.25ZM17.6665 17.7778V17.8333C17.6665 18.1095 17.4426 18.3333 17.1665 18.3333H14.8332C14.557 18.3333 14.3332 18.1095 14.3332 17.8333V17.6667C14.3332 15.9559 15.6302 15.272 16.6103 14.7225C17.4508 14.2513 17.9659 13.9308 17.9659 13.3068C17.9659 12.4814 16.913 11.9336 16.0618 11.9336C14.9289 11.9336 14.4186 12.481 13.6742 13.4251C13.5057 13.6389 13.1967 13.678 12.9798 13.5135L11.534 12.4173C11.3229 12.2572 11.2736 11.9601 11.4209 11.7399C12.5582 10.0399 14.0064 9.08334 16.2771 9.08334C18.6257 9.08334 21.1326 10.9166 21.1326 13.3333C21.1326 16.5425 17.6665 16.5919 17.6665 17.7778Z" fill="#474747"/>
</svg>
