<svg width="32" height="32" viewBox="0 0 32 32" fill="none" xmlns="http://www.w3.org/2000/svg">
<path d="M16.0195 5.33048C12.6928 5.33048 10.5381 6.69347 8.84642 9.12424C8.53954 9.56519 8.63415 10.1698 9.06223 10.4944L10.8601 11.8576C11.2924 12.1854 11.9076 12.1087 12.246 11.6847C13.29 10.3768 14.0644 9.62379 15.6952 9.62379C16.9773 9.62379 18.5633 10.449 18.5633 11.6923C18.5633 12.6322 17.7874 13.1149 16.5213 13.8247C15.045 14.6524 13.0913 15.6825 13.0913 18.2594V18.6674C13.0913 19.2198 13.5391 19.6676 14.0916 19.6676H17.112C17.6644 19.6676 18.1123 19.2198 18.1123 18.6674V18.4268C18.1123 16.6405 23.3332 16.5661 23.3332 11.7322C23.3332 8.09188 19.5571 5.33048 16.0195 5.33048ZM15.6018 20.8954C14.0099 20.8954 12.7147 22.1906 12.7147 23.7825C12.7147 25.3744 14.0099 26.6695 15.6018 26.6695C17.1937 26.6695 18.4889 25.3744 18.4889 23.7825C18.4889 22.1905 17.1937 20.8954 15.6018 20.8954Z" fill="currentColor"/>
</svg>
