<svg width="32" height="32" viewBox="0 0 32 32" fill="none" xmlns="http://www.w3.org/2000/svg">
<path d="M26.6668 16C26.6668 21.8923 21.8908 26.6667 16.0002 26.6667C10.1095 26.6667 5.3335 21.8923 5.3335 16C5.3335 10.1111 10.1095 5.33333 16.0002 5.33333C21.8908 5.33333 26.6668 10.1111 26.6668 16ZM16.2864 8.86022C13.9424 8.86022 12.4475 9.84761 11.2735 11.6025C11.1215 11.8298 11.1723 12.1365 11.3903 12.3018L12.8827 13.4334C13.1066 13.6031 13.4256 13.5628 13.5995 13.3421C14.3679 12.3676 14.8947 11.8025 16.0642 11.8025C16.9428 11.8025 18.0297 12.368 18.0297 13.22C18.0297 13.8641 17.4979 14.1949 16.6304 14.6813C15.6186 15.2485 14.2797 15.9545 14.2797 17.7204V17.8925C14.2797 18.1775 14.5108 18.4086 14.7959 18.4086H17.2045C17.4895 18.4086 17.7206 18.1775 17.7206 17.8925V17.8351C17.7206 16.611 21.2985 16.56 21.2985 13.2473C21.2985 10.7526 18.7107 8.86022 16.2864 8.86022ZM16.0002 19.5269C14.9092 19.5269 14.0217 20.4144 14.0217 21.5054C14.0217 22.5963 14.9092 23.4839 16.0002 23.4839C17.0911 23.4839 17.9787 22.5963 17.9787 21.5054C17.9787 20.4144 17.0911 19.5269 16.0002 19.5269Z" fill="#474747"/>
</svg>
