<svg width="32" height="32" viewBox="0 0 32 32" fill="none" xmlns="http://www.w3.org/2000/svg">
<path d="M16.0197 5.33339C18.87 5.33851 21.4579 6.46169 23.3685 8.28758L24.9046 6.75145C25.5549 6.10118 26.6668 6.56173 26.6668 7.48139V13.2474C26.6668 13.8175 26.2047 14.2796 25.6346 14.2796H19.8686C18.9489 14.2796 18.4884 13.1678 19.1386 12.5174L20.9343 10.7217C19.6069 9.47877 17.8891 8.79025 16.0642 8.77451C12.0901 8.74018 8.74025 11.9563 8.77461 16.0623C8.80721 19.9574 11.9651 23.2259 16.0002 23.2259C17.7691 23.2259 19.4409 22.5945 20.7584 21.4385C20.9624 21.2595 21.2705 21.2704 21.4624 21.4623L23.1683 23.1682C23.3778 23.3777 23.3675 23.7194 23.1475 23.918C21.2562 25.6264 18.7497 26.6667 16.0002 26.6667C10.1091 26.6667 5.33354 21.8911 5.3335 16.0001C5.33345 10.1159 10.1355 5.32285 16.0197 5.33339Z" fill="currentColor"/>
</svg>
