<svg width="32" height="32" viewBox="0 0 32 32" fill="none" xmlns="http://www.w3.org/2000/svg">
<path d="M24.7474 10.7475L21.2523 7.25246C20.8772 6.87739 20.3685 6.66667 19.8381 6.66667H8.6665C7.56192 6.66667 6.6665 7.56209 6.6665 8.66667V23.3333C6.6665 24.4379 7.56192 25.3333 8.6665 25.3333H23.3332C24.4378 25.3333 25.3332 24.4379 25.3332 23.3333V12.1618C25.3332 11.6313 25.1225 11.1226 24.7474 10.7475ZM15.9998 22.6667C14.5271 22.6667 13.3332 21.4728 13.3332 20C13.3332 18.5273 14.5271 17.3333 15.9998 17.3333C17.4726 17.3333 18.6665 18.5273 18.6665 20C18.6665 21.4728 17.4726 22.6667 15.9998 22.6667ZM19.9998 9.97834V14.1667C19.9998 14.4428 19.776 14.6667 19.4998 14.6667H9.83317C9.55705 14.6667 9.33317 14.4428 9.33317 14.1667V9.83334C9.33317 9.55721 9.55705 9.33334 9.83317 9.33334H19.3548C19.4875 9.33334 19.6146 9.386 19.7084 9.4798L19.8534 9.6248C19.8998 9.67122 19.9367 9.72633 19.9618 9.787C19.9869 9.84766 19.9998 9.91268 19.9998 9.97834Z" fill="#474747"/>
</svg>
