<svg width="32" height="32" viewBox="0 0 32 32" fill="none" xmlns="http://www.w3.org/2000/svg">
<path d="M26.3746 23.7774L22.2208 19.6236C22.0333 19.4361 21.7792 19.332 21.5125 19.332H20.8334C21.9833 17.8613 22.6666 16.0115 22.6666 13.9991C22.6666 9.21212 18.7878 5.33333 14.0008 5.33333C9.21375 5.33333 5.33496 9.21212 5.33496 13.9991C5.33496 18.7862 9.21375 22.665 14.0008 22.665C16.0131 22.665 17.8629 21.9817 19.3336 20.8318V21.5109C19.3336 21.7776 19.4378 22.0317 19.6252 22.2192L23.779 26.3729C24.1706 26.7646 24.8039 26.7646 25.1914 26.3729L26.3704 25.1939C26.762 24.8023 26.762 24.169 26.3746 23.7774ZM14.0008 19.332C11.0552 19.332 8.66797 16.9489 8.66797 13.9991C8.66797 11.0536 11.0511 8.66634 14.0008 8.66634C16.9463 8.66634 19.3336 11.0494 19.3336 13.9991C19.3336 16.9447 16.9505 19.332 14.0008 19.332Z" fill="currentColor"/>
</svg>
