<svg width="32" height="32" viewBox="0 0 32 32" fill="none" xmlns="http://www.w3.org/2000/svg">
<path d="M25.0299 18.6667H12.8155L13.0882 20H24.2723C24.914 20 25.3896 20.5959 25.2474 21.2216L25.0175 22.2331C25.7963 22.6112 26.3333 23.4095 26.3333 24.3333C26.3333 25.6334 25.27 26.6852 23.9657 26.6664C22.723 26.6486 21.7011 25.6401 21.6675 24.3978C21.6492 23.7192 21.9211 23.1041 22.3677 22.6666H13.6323C14.0647 23.0902 14.3333 23.6803 14.3333 24.3333C14.3333 25.6589 13.228 26.7263 11.8888 26.6641C10.6996 26.6089 9.73246 25.6481 9.66996 24.4592C9.62171 23.5411 10.1048 22.7319 10.8388 22.3098L7.91179 8.00001H5C4.44771 8.00001 4 7.5523 4 7.00001V6.33334C4 5.78105 4.44771 5.33334 5 5.33334H9.27204C9.74708 5.33334 10.1565 5.66755 10.2518 6.13293L10.6337 8.00001H26.9996C27.6413 8.00001 28.1169 8.59589 27.9747 9.22164L26.005 17.8883C25.9015 18.3436 25.4968 18.6667 25.0299 18.6667ZM21 12.3333H19V10.6667C19 10.2985 18.7015 10 18.3333 10H17.6667C17.2985 10 17 10.2985 17 10.6667V12.3333H15C14.6318 12.3333 14.3333 12.6318 14.3333 13V13.6667C14.3333 14.0349 14.6318 14.3333 15 14.3333H17V16C17 16.3682 17.2985 16.6667 17.6667 16.6667H18.3333C18.7015 16.6667 19 16.3682 19 16V14.3333H21C21.3682 14.3333 21.6667 14.0349 21.6667 13.6667V13C21.6667 12.6318 21.3682 12.3333 21 12.3333Z" fill="#474747"/>
</svg>
