<svg width="32" height="32" viewBox="0 0 32 32" fill="none" xmlns="http://www.w3.org/2000/svg">
<path d="M25.4373 9.48646L17.4373 6.15313C17.1936 6.05204 16.9324 6 16.6686 6C16.4048 6 16.1435 6.05204 15.8998 6.15313L7.89984 9.48646C7.154 9.79479 6.6665 10.524 6.6665 11.3323C6.6665 19.6031 11.4373 25.3198 15.8957 27.1781C16.3873 27.3823 16.9415 27.3823 17.4332 27.1781C21.004 25.6906 26.6665 20.5531 26.6665 11.3323C26.6665 10.524 26.179 9.79479 25.4373 9.48646ZM16.6707 24.5948L16.6665 8.71979L23.9957 11.774C23.8582 18.0823 20.5748 22.6531 16.6707 24.5948Z" fill="currentColor"/>
</svg>
