<svg width="32" height="32" viewBox="0 0 32 32" fill="none" xmlns="http://www.w3.org/2000/svg">
<path d="M10.6668 16C9.61199 16 8.58085 16.3128 7.70379 16.8988C6.82673 17.4848 6.14314 18.3178 5.73947 19.2923C5.33581 20.2669 5.23019 21.3392 5.43598 22.3738C5.64176 23.4083 6.14971 24.3587 6.89559 25.1045C7.64147 25.8504 8.59178 26.3584 9.62634 26.5641C10.6609 26.7699 11.7333 26.6643 12.7078 26.2607C13.6823 25.857 14.5153 25.1734 15.1013 24.2963C15.6873 23.4193 16.0001 22.3881 16.0001 21.3333C16.0001 19.9188 15.4382 18.5623 14.438 17.5621C13.4379 16.5619 12.0813 16 10.6668 16ZM26.4585 13.7142L22.003 6.09542C21.8657 5.86325 21.6703 5.67086 21.436 5.53722C21.2016 5.40358 20.9365 5.3333 20.6668 5.3333C20.3971 5.3333 20.132 5.40358 19.8976 5.53722C19.6633 5.67086 19.4679 5.86325 19.3306 6.09542L14.8751 13.7142C14.2818 14.73 15.0243 16 16.2122 16H25.1214C26.3093 16 27.0518 14.73 26.4585 13.7142ZM25.3335 17.3333H18.6668C18.3132 17.3333 17.974 17.4738 17.724 17.7238C17.4739 17.9739 17.3335 18.313 17.3335 18.6666V25.3333C17.3335 25.6869 17.4739 26.0261 17.724 26.2761C17.974 26.5262 18.3132 26.6666 18.6668 26.6666H25.3335C25.6871 26.6666 26.0262 26.5262 26.2763 26.2761C26.5263 26.0261 26.6668 25.6869 26.6668 25.3333V18.6666C26.6668 18.313 26.5263 17.9739 26.2763 17.7238C26.0262 17.4738 25.6871 17.3333 25.3335 17.3333Z" fill="currentColor"/>
</svg>
