<svg width="32" height="32" viewBox="0 0 32 32" fill="none" xmlns="http://www.w3.org/2000/svg">
<path d="M21.3332 12V10.6667C21.3332 7.72584 18.9406 5.33334 15.9998 5.33334C13.059 5.33334 10.6665 7.72584 10.6665 10.6667V12H6.6665V23.3333C6.6665 25.1743 8.15888 26.6667 9.99984 26.6667H21.9998C23.8408 26.6667 25.3332 25.1743 25.3332 23.3333V12H21.3332ZM13.3332 10.6667C13.3332 9.19626 14.5294 8.00001 15.9998 8.00001C17.4703 8.00001 18.6665 9.19626 18.6665 10.6667V12H13.3332V10.6667ZM19.9998 15.6667C19.4475 15.6667 18.9998 15.219 18.9998 14.6667C18.9998 14.1144 19.4475 13.6667 19.9998 13.6667C20.5521 13.6667 20.9998 14.1144 20.9998 14.6667C20.9998 15.219 20.5521 15.6667 19.9998 15.6667ZM11.9998 15.6667C11.4475 15.6667 10.9998 15.219 10.9998 14.6667C10.9998 14.1144 11.4475 13.6667 11.9998 13.6667C12.5521 13.6667 12.9998 14.1144 12.9998 14.6667C12.9998 15.219 12.5521 15.6667 11.9998 15.6667Z" fill="currentColor"/>
</svg>
