<svg width="32" height="32" viewBox="0 0 32 32" fill="none" xmlns="http://www.w3.org/2000/svg">
<path d="M25.0299 18.6667H12.8155L13.0882 20H24.2723C24.914 20 25.3896 20.5959 25.2474 21.2216L25.0175 22.2331C25.7963 22.6112 26.3333 23.4095 26.3333 24.3333C26.3333 25.6334 25.27 26.6852 23.9657 26.6664C22.723 26.6486 21.7011 25.6401 21.6675 24.3978C21.6492 23.7192 21.9211 23.1041 22.3677 22.6666H13.6323C14.0647 23.0902 14.3333 23.6803 14.3333 24.3333C14.3333 25.6589 13.228 26.7263 11.8888 26.6641C10.6996 26.6089 9.73246 25.6481 9.66996 24.4592C9.62171 23.5411 10.1048 22.7319 10.8388 22.3098L7.91179 8.00001H5C4.44771 8.00001 4 7.5523 4 7.00001V6.33334C4 5.78105 4.44771 5.33334 5 5.33334H9.27204C9.74708 5.33334 10.1565 5.66755 10.2518 6.13293L10.6337 8.00001H26.9996C27.6413 8.00001 28.1169 8.59589 27.9747 9.22164L26.005 17.8883C25.9015 18.3436 25.4968 18.6667 25.0299 18.6667ZM20.7929 13.3333H19V10.8333C19 10.5572 18.7761 10.3333 18.5 10.3333H17.5C17.2239 10.3333 17 10.5572 17 10.8333V13.3333H15.2071C14.7617 13.3333 14.5386 13.8719 14.8536 14.1869L17.6465 16.9798C17.8417 17.175 18.1583 17.175 18.3536 16.9798L21.1465 14.1869C21.4614 13.8719 21.2383 13.3333 20.7929 13.3333Z" fill="currentColor"/>
</svg>
