<svg width="32" height="32" viewBox="0 0 32 32" fill="none" xmlns="http://www.w3.org/2000/svg">
<path d="M23.3588 20.86L26.276 17.9428C26.9801 17.2386 26.6903 16.0357 25.7412 15.7306L23.9998 15.1709V9.33333C23.9998 8.59695 23.4029 7.99999 22.6665 7.99999H19.9998V6.33333C19.9998 5.78104 19.5521 5.33333 18.9998 5.33333H12.9998C12.4475 5.33333 11.9998 5.78104 11.9998 6.33333V7.99999H9.33317C8.5968 7.99999 7.99984 8.59695 7.99984 9.33333V15.1709L6.2585 15.7306C5.31046 16.0353 5.01875 17.2378 5.72367 17.9428L8.64084 20.86C7.90934 22.6786 6.23263 24 3.6665 24C3.11421 24 2.6665 24.4477 2.6665 25V25.6667C2.6665 26.219 3.11421 26.6667 3.6665 26.6667C6.20913 26.6667 8.14563 25.8079 9.63559 24.1918C10.2364 25.643 11.6674 26.6667 13.3332 26.6667H18.6665C20.3323 26.6667 21.7633 25.643 22.3641 24.1918C23.8538 25.8077 25.7902 26.6667 28.3332 26.6667C28.8855 26.6667 29.3332 26.219 29.3332 25.6667V25C29.3332 24.4477 28.8855 24 28.3332 24C25.7991 24 24.1023 22.7083 23.3588 20.86ZM10.6665 10.6667H21.3332V14.3138L16.4078 12.7307C16.1425 12.6454 15.8572 12.6454 15.5918 12.7307L10.6665 14.3138V10.6667Z" fill="currentColor"/>
</svg>
