<svg width="32" height="32" viewBox="0 0 32 32" fill="none" xmlns="http://www.w3.org/2000/svg">
<path d="M26.005 17.8883L27.9747 9.22164C28.1169 8.59589 27.6413 8.00001 26.9996 8.00001H10.6337L10.2518 6.13293C10.1566 5.66755 9.74708 5.33334 9.27204 5.33334H5C4.44771 5.33334 4 5.78105 4 6.33334V7.00001C4 7.5523 4.44771 8.00001 5 8.00001H7.91179L10.8388 22.3098C10.1385 22.7125 9.66667 23.4676 9.66667 24.3333C9.66667 25.622 10.7113 26.6667 12 26.6667C13.2887 26.6667 14.3333 25.622 14.3333 24.3333C14.3333 23.6803 14.0647 23.0902 13.6323 22.6667H22.3676C21.9353 23.0902 21.6667 23.6803 21.6667 24.3333C21.6667 25.622 22.7113 26.6667 24 26.6667C25.2887 26.6667 26.3333 25.622 26.3333 24.3333C26.3333 23.4095 25.7963 22.6112 25.0175 22.2331L25.2474 21.2216C25.3896 20.5959 24.914 20 24.2723 20H13.0882L12.8155 18.6667H25.0299C25.4968 18.6667 25.9015 18.3436 26.005 17.8883Z" fill="#474747"/>
</svg>
