<svg width="32" height="32" viewBox="0 0 32 32" fill="none" xmlns="http://www.w3.org/2000/svg">
<path d="M26.3739 20.2929C26.7645 20.6834 26.7645 21.3166 26.3739 21.7071L23.0406 25.0397C22.4152 25.6651 21.3335 25.2268 21.3335 24.3326V22.6666H18.8841C18.8155 22.6666 18.7477 22.6525 18.6848 22.6252C18.6219 22.5979 18.5654 22.5579 18.5186 22.5078L15.5787 19.358L17.8009 16.977L20.0001 19.3333H21.3335V17.6674C21.3335 16.7742 22.4144 16.3342 23.0406 16.9603L26.3739 20.2929ZM5.8335 12.6667H9.33349L11.5327 15.0229L13.7549 12.642L10.8151 9.49217C10.7683 9.44204 10.7117 9.40207 10.6488 9.37475C10.5859 9.34742 10.5181 9.33333 10.4495 9.33333H5.8335C5.55737 9.33333 5.3335 9.55721 5.3335 9.83333V12.1667C5.3335 12.4428 5.55737 12.6667 5.8335 12.6667ZM21.3335 12.6667V14.3327C21.3335 15.2268 22.4152 15.6652 23.0406 15.0398L26.3739 11.7071C26.7645 11.3166 26.7645 10.6834 26.3739 10.2929L23.0406 6.96038C22.4144 6.33421 21.3335 6.77425 21.3335 7.66746V9.33333H18.8841C18.8155 9.33334 18.7477 9.34744 18.6848 9.37477C18.6219 9.40209 18.5654 9.44205 18.5186 9.49217L9.33349 19.3333H5.8335C5.55737 19.3333 5.3335 19.5572 5.3335 19.8333V22.1666C5.3335 22.4428 5.55737 22.6666 5.8335 22.6666H10.4495C10.5881 22.6666 10.7205 22.6091 10.8151 22.5078L20.0001 12.6667H21.3335Z" fill="#474747"/>
</svg>
