<svg width="32" height="32" viewBox="0 0 32 32" fill="none" xmlns="http://www.w3.org/2000/svg">
<path d="M13.3332 14.6667V6.66666C13.3332 6.31304 13.1927 5.9739 12.9426 5.72385C12.6926 5.4738 12.3535 5.33333 11.9998 5.33333H3.99984C3.64622 5.33333 3.30708 5.4738 3.05703 5.72385C2.80698 5.9739 2.6665 6.31304 2.6665 6.66666L2.6665 14.6667C2.6665 15.0203 2.80698 15.3594 3.05703 15.6095C3.30708 15.8595 3.64622 16 3.99984 16H11.9998C12.3535 16 12.6926 15.8595 12.9426 15.6095C13.1927 15.3594 13.3332 15.0203 13.3332 14.6667ZM10.6665 13.3333H5.33317V7.99999H10.6665V13.3333ZM27.9998 16H19.9998C19.6462 16 19.3071 16.1405 19.057 16.3905C18.807 16.6406 18.6665 16.9797 18.6665 17.3333V25.3333C18.6665 25.687 18.807 26.0261 19.057 26.2761C19.3071 26.5262 19.6462 26.6667 19.9998 26.6667H27.9998C28.3535 26.6667 28.6926 26.5262 28.9426 26.2761C29.1927 26.0261 29.3332 25.687 29.3332 25.3333V17.3333C29.3332 16.9797 29.1927 16.6406 28.9426 16.3905C28.6926 16.1405 28.3535 16 27.9998 16ZM26.6665 24H21.3332V18.6667H26.6665V24ZM22.6665 14.6667V11.3333C22.6665 10.8029 22.4558 10.2942 22.0807 9.91912C21.7056 9.54404 21.1969 9.33333 20.6665 9.33333H14.6665V14.6667C14.6657 15.3737 14.3845 16.0515 13.8846 16.5514C13.3847 17.0514 12.7068 17.3326 11.9998 17.3333H9.33317V20.6667C9.33317 21.1971 9.54388 21.7058 9.91896 22.0809C10.294 22.4559 10.8027 22.6667 11.3332 22.6667H17.3332V17.3333C17.3339 16.6263 17.6151 15.9485 18.1151 15.4486C18.615 14.9486 19.2928 14.6674 19.9998 14.6667H22.6665Z" fill="currentColor"/>
</svg>
