<svg width="32" height="32" viewBox="0 0 32 32" fill="none" xmlns="http://www.w3.org/2000/svg">
<path d="M12.8331 23.9996H9.3333C7.12508 23.9996 5.3335 22.208 5.3335 19.9998V12.0002C5.3335 9.79198 7.12508 8.0004 9.3333 8.0004H12.8331C13.1081 8.0004 13.3331 8.22539 13.3331 8.50037V10.167C13.3331 10.4419 13.1081 10.6669 12.8331 10.6669H9.3333C8.59584 10.6669 8.00003 11.2627 8.00003 12.0002V19.9998C8.00003 20.7373 8.59584 21.3331 9.3333 21.3331H12.8331C13.1081 21.3331 13.3331 21.5581 13.3331 21.8331V23.4996C13.3331 23.7746 13.1081 23.9996 12.8331 23.9996ZM17.7454 11.3711L20.9786 14.3334H12.9998C12.4456 14.3334 11.9998 14.7792 11.9998 15.3334V16.6666C11.9998 17.2208 12.4456 17.6666 12.9998 17.6666H20.9786L17.7454 20.6289C17.3246 21.0123 17.3121 21.6706 17.7121 22.0747L18.6245 22.9872C19.012 23.3746 19.6453 23.3788 20.0369 22.9913L26.37 16.7083C26.7658 16.3167 26.7658 15.6792 26.37 15.2875L20.0411 9.01285C19.6495 8.62537 19.0203 8.62537 18.6287 9.01701L17.7162 9.92947C17.3121 10.3294 17.3287 10.9878 17.7454 11.3711Z" fill="#474747"/>
</svg>
