<svg width="32" height="32" viewBox="0 0 32 32" fill="none" xmlns="http://www.w3.org/2000/svg">
<path d="M11.0502 9.92917L11.9627 9.01667C12.3502 8.62917 12.9835 8.625 13.3752 9.0125L19.7043 15.2917C20.1002 15.6833 20.1002 16.3208 19.7043 16.7125L13.3752 22.9875C12.9835 23.375 12.3543 23.375 11.9627 22.9833L11.0502 22.0708C10.646 21.6667 10.6627 21.0125 11.0835 20.625L14.3168 17.6625H6.3335C5.77933 17.6625 5.3335 17.2167 5.3335 16.6625V15.3292C5.3335 14.775 5.77933 14.3292 6.3335 14.3292H14.3127L11.0793 11.3667C10.6627 10.9875 10.646 10.3292 11.0502 9.92917ZM26.6668 20V12C26.6668 9.79167 24.8752 8 22.6668 8H19.1668C18.8918 8 18.6668 8.225 18.6668 8.5V10.1667C18.6668 10.4417 18.8918 10.6667 19.1668 10.6667H22.6668C23.4043 10.6667 24.0002 11.2625 24.0002 12V20C24.0002 20.7375 23.4043 21.3333 22.6668 21.3333H19.1668C18.8918 21.3333 18.6668 21.5583 18.6668 21.8333V23.5C18.6668 23.775 18.8918 24 19.1668 24H22.6668C24.8752 24 26.6668 22.2083 26.6668 20Z" fill="currentColor"/>
</svg>
