<svg width="32" height="32" viewBox="0 0 32 32" fill="none" xmlns="http://www.w3.org/2000/svg">
<path d="M26.0002 21.3334H12.0002V20.6667C12.0002 20.3 11.7002 20 11.3335 20H10.0002C9.6335 20 9.3335 20.3 9.3335 20.6667V21.3334H6.00016C5.6335 21.3334 5.3335 21.6334 5.3335 22V23.3334C5.3335 23.7 5.6335 24 6.00016 24H9.3335V24.6667C9.3335 25.0334 9.6335 25.3334 10.0002 25.3334H11.3335C11.7002 25.3334 12.0002 25.0334 12.0002 24.6667V24H26.0002C26.3668 24 26.6668 23.7 26.6668 23.3334V22C26.6668 21.6334 26.3668 21.3334 26.0002 21.3334ZM26.0002 14.6667H22.6668V14C22.6668 13.6334 22.3668 13.3334 22.0002 13.3334H20.6668C20.3002 13.3334 20.0002 13.6334 20.0002 14V14.6667H6.00016C5.6335 14.6667 5.3335 14.9667 5.3335 15.3334V16.6667C5.3335 17.0334 5.6335 17.3334 6.00016 17.3334H20.0002V18C20.0002 18.3667 20.3002 18.6667 20.6668 18.6667H22.0002C22.3668 18.6667 22.6668 18.3667 22.6668 18V17.3334H26.0002C26.3668 17.3334 26.6668 17.0334 26.6668 16.6667V15.3334C26.6668 14.9667 26.3668 14.6667 26.0002 14.6667ZM26.0002 8.00002H17.3335V7.33335C17.3335 6.96669 17.0335 6.66669 16.6668 6.66669H15.3335C14.9668 6.66669 14.6668 6.96669 14.6668 7.33335V8.00002H6.00016C5.6335 8.00002 5.3335 8.30002 5.3335 8.66669V10C5.3335 10.3667 5.6335 10.6667 6.00016 10.6667H14.6668V11.3334C14.6668 11.7 14.9668 12 15.3335 12H16.6668C17.0335 12 17.3335 11.7 17.3335 11.3334V10.6667H26.0002C26.3668 10.6667 26.6668 10.3667 26.6668 10V8.66669C26.6668 8.30002 26.3668 8.00002 26.0002 8.00002Z" fill="#474747"/>
</svg>
