<svg width="32" height="32" viewBox="0 0 32 32" fill="none" xmlns="http://www.w3.org/2000/svg">
<path d="M26.0002 14.6666H17.5793L13.9472 13.5487C13.5321 13.4208 13.1765 13.1482 12.9453 12.7804C12.714 12.4126 12.6224 11.9741 12.6871 11.5444C12.7518 11.1148 12.9684 10.7227 13.2977 10.4393C13.6269 10.1558 14.047 9.99997 14.4814 9.99996H17.2643C17.6506 9.99968 18.0294 10.1071 18.3581 10.31C18.6868 10.513 18.9524 10.8036 19.1252 11.1491C19.2043 11.3072 19.3429 11.4273 19.5106 11.4832C19.6782 11.539 19.8612 11.526 20.0193 11.447L21.8085 10.5525C21.9666 10.4734 22.0869 10.3348 22.1428 10.1671C22.1987 9.99947 22.1858 9.81643 22.1068 9.65829L22.0847 9.61663C21.6419 8.73018 20.9609 7.98462 20.1181 7.46356C19.2753 6.9425 18.304 6.66654 17.3131 6.66663H14.4797C13.7613 6.66721 13.051 6.818 12.3943 7.10931C11.7376 7.40063 11.149 7.82603 10.6664 8.35822C10.1838 8.8904 9.81786 9.51762 9.59197 10.1996C9.36608 10.8816 9.28527 11.6032 9.35475 12.3183C9.43808 13.1887 9.77558 13.9779 10.2622 14.6666H6.00016C5.82335 14.6666 5.65378 14.7369 5.52876 14.8619C5.40373 14.9869 5.3335 15.1565 5.3335 15.3333V16.6666C5.3335 16.8434 5.40373 17.013 5.52876 17.138C5.65378 17.2631 5.82335 17.3333 6.00016 17.3333H26.0002C26.177 17.3333 26.3465 17.2631 26.4716 17.138C26.5966 17.013 26.6668 16.8434 26.6668 16.6666V15.3333C26.6668 15.1565 26.5966 14.9869 26.4716 14.8619C26.3465 14.7369 26.177 14.6666 26.0002 14.6666ZM18.4902 18.6666C18.748 18.8275 18.9607 19.0513 19.1082 19.317C19.2557 19.5826 19.3333 19.8815 19.3335 20.1854C19.3331 20.6665 19.1417 21.1278 18.8015 21.468C18.4613 21.8082 18 21.9995 17.5189 22H14.736C14.3497 22.0002 13.9709 21.8929 13.6422 21.6899C13.3135 21.4869 13.0479 21.1963 12.8752 20.8508C12.7961 20.6928 12.6574 20.5726 12.4898 20.5167C12.3221 20.4609 12.1391 20.4739 11.981 20.5529L10.1918 21.4475C10.0337 21.5265 9.91347 21.6651 9.85753 21.8328C9.80158 22.0005 9.81452 22.1835 9.8935 22.3416L9.91558 22.3833C10.3584 23.2697 11.0394 24.0153 11.8822 24.5364C12.725 25.0574 13.6964 25.3334 14.6872 25.3333H17.5206C18.239 25.3327 18.9494 25.1819 19.6061 24.8906C20.2628 24.5993 20.8513 24.1739 21.3339 23.6417C21.8165 23.1095 22.1825 22.4823 22.4084 21.8003C22.6342 21.1183 22.7151 20.3967 22.6456 19.6816C22.6087 19.3362 22.5341 18.9958 22.4231 18.6666H18.4902Z" fill="#474747"/>
</svg>
