<svg width="32" height="32" viewBox="0 0 32 32" fill="none" xmlns="http://www.w3.org/2000/svg">
<path d="M16.1539 8.9152L18.2225 9.77769L19.0851 11.8461C19.1081 11.8924 19.1435 11.9313 19.1874 11.9586C19.2313 11.9858 19.282 12.0002 19.3336 12.0002C19.3852 12.0002 19.4359 11.9858 19.4798 11.9586C19.5237 11.9313 19.5591 11.8924 19.5821 11.8461L20.4446 9.77769L22.5132 8.9152C22.5593 8.89214 22.5981 8.85668 22.6253 8.8128C22.6524 8.76892 22.6668 8.71835 22.6668 8.66676C22.6668 8.61518 22.6524 8.56461 22.6253 8.52073C22.5981 8.47685 22.5593 8.44139 22.5132 8.41833L20.4446 7.55576L19.5821 5.48738C19.5591 5.44112 19.5237 5.40219 19.4798 5.37498C19.4359 5.34776 19.3852 5.33334 19.3336 5.33334C19.282 5.33334 19.2313 5.34776 19.1874 5.37498C19.1435 5.40219 19.1081 5.44112 19.0851 5.48738L18.2225 7.55576L16.1539 8.41833C16.1078 8.44139 16.069 8.47685 16.0419 8.52073C16.0147 8.56461 16.0004 8.61518 16.0004 8.66676C16.0004 8.71835 16.0147 8.76892 16.0419 8.8128C16.069 8.85668 16.1078 8.89214 16.1539 8.9152ZM20.5124 16.4706L16.1458 15.8332L14.1913 11.8667C13.8417 11.1584 12.8293 11.15 12.4751 11.8667L10.5207 15.8332L6.15406 16.4706C5.37084 16.5832 5.05378 17.5499 5.62475 18.1039L8.78758 21.187L8.03756 25.5448C7.9041 26.3325 8.73289 26.9243 9.42496 26.5532L13.3332 24.4954L17.2415 26.5532C17.3995 26.6362 17.5775 26.6733 17.7555 26.6604C17.9334 26.6475 18.1042 26.585 18.2486 26.4801C18.3929 26.3752 18.505 26.232 18.5722 26.0667C18.6395 25.9015 18.6591 25.7207 18.6289 25.5448L17.8835 21.187L21.0456 18.1039C21.6127 17.5499 21.2956 16.5832 20.5124 16.4706ZM26.544 14.4679L24.8893 13.778L24.1993 12.1234C24.181 12.0864 24.1526 12.0552 24.1175 12.0335C24.0824 12.0117 24.0419 12.0002 24.0006 12.0002C23.9592 12.0002 23.9187 12.0117 23.8836 12.0335C23.8485 12.0552 23.8202 12.0864 23.8018 12.1234L23.1117 13.778L21.4571 14.4679C21.4202 14.4863 21.3892 14.5147 21.3675 14.5498C21.3458 14.5849 21.3343 14.6254 21.3343 14.6666C21.3343 14.7079 21.3458 14.7483 21.3675 14.7834C21.3892 14.8185 21.4202 14.8469 21.4571 14.8654L23.1117 15.5554L23.8018 17.2099C23.8201 17.2469 23.8485 17.278 23.8836 17.2998C23.9187 17.3216 23.9592 17.3331 24.0006 17.3331C24.0419 17.3331 24.0824 17.3216 24.1175 17.2998C24.1526 17.278 24.181 17.2469 24.1993 17.2099L24.8893 15.5554L26.544 14.8654C26.5809 14.8469 26.612 14.8185 26.6337 14.7834C26.6553 14.7483 26.6668 14.7079 26.6668 14.6666C26.6668 14.6254 26.6553 14.5849 26.6337 14.5498C26.612 14.5147 26.5809 14.4863 26.544 14.4679Z" fill="currentColor"/>
</svg>
