<svg width="32" height="32" viewBox="0 0 32 32" fill="none" xmlns="http://www.w3.org/2000/svg">
<path d="M23.6939 5.85709L23.8606 9.30584C22.8925 8.16386 21.6871 7.24666 20.3284 6.61816C18.9696 5.98966 17.4902 5.66495 15.9931 5.66668C10.9472 5.66668 6.74641 9.28834 5.84558 14.0758C5.83225 14.148 5.83496 14.2222 5.85351 14.2931C5.87207 14.3641 5.90601 14.4301 5.95293 14.4865C5.99985 14.5429 6.0586 14.5883 6.12502 14.6194C6.19144 14.6505 6.26389 14.6667 6.33725 14.6667H8.381C8.49366 14.6666 8.60299 14.6284 8.69124 14.5584C8.7795 14.4883 8.84152 14.3905 8.86725 14.2808C9.20055 12.8976 9.92927 11.6412 10.9645 10.6651C11.9997 9.68895 13.2966 9.03523 14.6971 8.78368C16.0975 8.53213 17.5409 8.69363 18.8511 9.24848C20.1613 9.80333 21.2817 10.7275 22.0756 11.9083L17.8481 11.7058C17.7804 11.7026 17.7129 11.7132 17.6494 11.7369C17.586 11.7605 17.528 11.7969 17.4791 11.8436C17.4301 11.8904 17.3911 11.9466 17.3645 12.0089C17.3379 12.0711 17.3243 12.1381 17.3243 12.2058V14.1813C17.3243 14.3139 17.377 14.441 17.4708 14.5348C17.5645 14.6286 17.6917 14.6813 17.8243 14.6813H26.1668C26.2994 14.6813 26.4266 14.6286 26.5204 14.5348C26.6142 14.441 26.6668 14.3139 26.6668 14.1813V5.83334C26.6668 5.70074 26.6142 5.57356 26.5204 5.47979C26.4266 5.38602 26.2994 5.33334 26.1668 5.33334H24.1931C24.1254 5.33338 24.0585 5.34714 23.9963 5.37379C23.9342 5.40044 23.8781 5.43942 23.8314 5.48839C23.7847 5.53735 23.7485 5.59527 23.7249 5.65865C23.7012 5.72202 23.6907 5.78953 23.6939 5.85709ZM15.9931 23.3333C14.7908 23.3344 13.6068 23.0391 12.5458 22.4737C11.4847 21.9083 10.5794 21.0902 9.90975 20.0917L14.1514 20.2946C14.219 20.2978 14.2866 20.2873 14.3501 20.2636C14.4135 20.2399 14.4714 20.2036 14.5204 20.1568C14.5694 20.1101 14.6084 20.0539 14.635 19.9916C14.6616 19.9293 14.6752 19.8623 14.6752 19.7946V17.8196C14.6752 17.687 14.6225 17.5598 14.5287 17.466C14.4349 17.3723 14.3078 17.3196 14.1752 17.3196H5.8335C5.70089 17.3196 5.57371 17.3723 5.47994 17.466C5.38617 17.5598 5.3335 17.687 5.3335 17.8196V26.1667C5.3335 26.2993 5.38617 26.4265 5.47994 26.5202C5.57371 26.614 5.70089 26.6667 5.8335 26.6667H7.80641C7.87423 26.6668 7.94136 26.653 8.00371 26.6264C8.06606 26.5997 8.12234 26.5606 8.16911 26.5115C8.21588 26.4624 8.25217 26.4043 8.27578 26.3407C8.29938 26.2771 8.3098 26.2094 8.30641 26.1417L8.1335 22.7013C9.10137 23.8409 10.3058 24.7561 11.6631 25.3834C13.0203 26.0106 14.4979 26.3348 15.9931 26.3333C21.0393 26.3333 25.2402 22.7117 26.141 17.9242C26.1543 17.852 26.1516 17.7779 26.1331 17.7069C26.1145 17.6359 26.0806 17.5699 26.0336 17.5135C25.9867 17.4571 25.928 17.4118 25.8616 17.3806C25.7951 17.3495 25.7227 17.3333 25.6493 17.3333H23.6056C23.4929 17.3335 23.3836 17.3716 23.2953 17.4417C23.2071 17.5117 23.1451 17.6095 23.1193 17.7192C22.7345 19.3193 21.8223 20.7433 20.5295 21.7617C19.2368 22.7802 17.6388 23.3338 15.9931 23.3333Z" fill="#474747"/>
</svg>
