<svg width="32" height="32" viewBox="0 0 32 32" fill="none" xmlns="http://www.w3.org/2000/svg">
<path d="M5.3335 15.8383V7.33334C5.3335 6.22876 6.22891 5.33334 7.3335 5.33334H15.8384C16.3688 5.33335 16.8776 5.54406 17.2526 5.91914L26.081 14.7476C26.8621 15.5286 26.8621 16.7949 26.081 17.576L17.5761 26.0809C16.7951 26.8619 15.5288 26.8619 14.7477 26.0809L5.91929 17.2525C5.54421 16.8774 5.3335 16.3687 5.3335 15.8383ZM10.0002 8.00001C8.89558 8.00001 8.00016 8.89543 8.00016 10C8.00016 11.1046 8.89558 12 10.0002 12C11.1047 12 12.0002 11.1046 12.0002 10C12.0002 8.89543 11.1047 8.00001 10.0002 8.00001Z" fill="currentColor"/>
</svg>
