<svg width="32" height="32" viewBox="0 0 32 32" fill="none" xmlns="http://www.w3.org/2000/svg">
<path d="M23.4141 14.7476L14.5856 5.91914C14.2106 5.54406 13.7019 5.33335 13.1714 5.33334H4.6665C3.56192 5.33334 2.6665 6.22876 2.6665 7.33334V15.8383C2.66651 16.3687 2.87722 16.8774 3.2523 17.2525L12.0807 26.0809C12.8617 26.8619 14.128 26.862 14.9091 26.0809L23.4141 17.576C24.1951 16.7949 24.1951 15.5286 23.4141 14.7476ZM7.33317 12C6.22859 12 5.33317 11.1046 5.33317 10C5.33317 8.89543 6.22859 8.00001 7.33317 8.00001C8.43776 8.00001 9.33317 8.89543 9.33317 10C9.33317 11.1046 8.43776 12 7.33317 12ZM28.7474 17.576L20.2425 26.0809C19.4614 26.8619 18.1951 26.8619 17.4141 26.0809L17.3991 26.0659L24.6515 18.8134C25.3598 18.1051 25.7498 17.1634 25.7498 16.1618C25.7498 15.1601 25.3598 14.2184 24.6515 13.5101L16.4747 5.33334H18.5048C19.0352 5.33335 19.5439 5.54406 19.919 5.91914L28.7474 14.7476C29.5284 15.5286 29.5284 16.7949 28.7474 17.576Z" fill="#474747"/>
</svg>
