<svg width="32" height="32" viewBox="0 0 32 32" fill="none" xmlns="http://www.w3.org/2000/svg">
<path d="M9.66683 14.6667H6.3335C5.7812 14.6667 5.3335 15.1144 5.3335 15.6667V25.6667C5.3335 26.219 5.7812 26.6667 6.3335 26.6667H9.66683C10.2191 26.6667 10.6668 26.219 10.6668 25.6667V15.6667C10.6668 15.1144 10.2191 14.6667 9.66683 14.6667ZM8.00016 25C7.44787 25 7.00016 24.5523 7.00016 24C7.00016 23.4478 7.44787 23 8.00016 23C8.55245 23 9.00016 23.4478 9.00016 24C9.00016 24.5523 8.55245 25 8.00016 25ZM21.3335 8.72721C21.3335 10.4945 20.2514 11.4859 19.947 12.6667H24.1854C25.577 12.6667 26.6603 13.8228 26.6668 15.0875C26.6703 15.8349 26.3524 16.6395 25.8568 17.1373L25.8522 17.1419C26.2621 18.1143 26.1955 19.4768 25.4644 20.4531C25.8261 21.5321 25.4615 22.8575 24.7818 23.568C24.9609 24.3013 24.8753 24.9253 24.5257 25.4277C23.6752 26.6495 21.5675 26.6667 19.7851 26.6667L19.6666 26.6667C17.6546 26.666 16.008 25.9334 14.6849 25.3448C14.02 25.049 13.1507 24.6828 12.4911 24.6707C12.2186 24.6657 12.0002 24.4433 12.0002 24.1708V15.2637C12.0002 15.1304 12.0536 15.0024 12.1484 14.9087C13.799 13.2777 14.5087 11.5509 15.8616 10.1957C16.4785 9.57771 16.7028 8.64421 16.9197 7.74146C17.105 6.97058 17.4925 5.33337 18.3335 5.33337C19.3335 5.33337 21.3335 5.66671 21.3335 8.72721Z" fill="#474747"/>
</svg>
