<svg width="32" height="32" viewBox="0 0 32 32" fill="none" xmlns="http://www.w3.org/2000/svg">
<path d="M5.3335 7.66671V17.6667C5.3335 18.219 5.7812 18.6667 6.3335 18.6667H9.66683C10.2191 18.6667 10.6668 18.219 10.6668 17.6667V7.66671C10.6668 7.11442 10.2191 6.66671 9.66683 6.66671H6.3335C5.7812 6.66671 5.3335 7.11442 5.3335 7.66671ZM7.00016 16C7.00016 15.4477 7.44787 15 8.00016 15C8.55245 15 9.00016 15.4477 9.00016 16C9.00016 16.5523 8.55245 17 8.00016 17C7.44787 17 7.00016 16.5523 7.00016 16ZM18.3335 26.6667C17.4925 26.6667 17.105 25.0295 16.9197 24.2586C16.7028 23.3558 16.4785 22.4223 15.8617 21.8043C14.5088 20.4492 13.799 18.7224 12.1485 17.0914C12.1015 17.0449 12.0642 16.9897 12.0387 16.9287C12.0133 16.8678 12.0002 16.8024 12.0002 16.7363V7.82925C12.0002 7.55671 12.2187 7.33433 12.4912 7.32933C13.1508 7.31725 14.0201 6.95104 14.685 6.65525C16.008 6.06662 17.6547 5.33408 19.6666 5.33337H19.7851C21.5675 5.33337 23.6752 5.35058 24.5257 6.57242C24.8754 7.07479 24.961 7.69883 24.7819 8.43208C25.4615 9.14262 25.8262 10.468 25.4645 11.547C26.1955 12.5233 26.2621 13.8858 25.8523 14.8582L25.8569 14.8627C26.3524 15.3606 26.6703 16.1652 26.6668 16.9126C26.6603 18.1773 25.577 19.3334 24.1855 19.3334H19.947C20.2514 20.5142 21.3335 21.5055 21.3335 23.2729C21.3335 26.3334 19.3335 26.6667 18.3335 26.6667Z" fill="#474747"/>
</svg>
