<svg width="32" height="32" viewBox="0 0 32 32" fill="none" xmlns="http://www.w3.org/2000/svg">
<path d="M9.33333 12H22.6667V20H9.33333V12ZM26 16C26 17.1046 26.8954 18 28 18V22C28 23.1046 27.1046 24 26 24H6C4.89542 24 4 23.1046 4 22V18C5.10458 18 6 17.1046 6 16C6 14.8954 5.10458 14 4 14V10C4 8.89542 4.89542 8 6 8H26C27.1046 8 28 8.89542 28 10V14C26.8954 14 26 14.8954 26 16ZM24 11.6667C24 11.1144 23.5523 10.6667 23 10.6667H9C8.44771 10.6667 8 11.1144 8 11.6667V20.3333C8 20.8856 8.44771 21.3333 9 21.3333H23C23.5523 21.3333 24 20.8856 24 20.3333V11.6667Z" fill="#474747"/>
</svg>
