<svg width="32" height="32" viewBox="0 0 32 32" fill="none" xmlns="http://www.w3.org/2000/svg">
<path d="M16.0002 5.33331C10.1077 5.33331 5.3335 10.1075 5.3335 16C5.3335 21.8925 10.1077 26.6666 16.0002 26.6666C21.8926 26.6666 26.6668 21.8925 26.6668 16C26.6668 10.1075 21.8926 5.33331 16.0002 5.33331ZM21.2303 18.8C21.4324 19.0021 21.4324 19.329 21.2303 19.5312L19.527 21.2301C19.3249 21.4322 18.998 21.4322 18.7959 21.2301L16.0002 18.4086L13.2002 21.2301C12.998 21.4322 12.6711 21.4322 12.469 21.2301L10.7701 19.5269C10.5679 19.3247 10.5679 18.9978 10.7701 18.7957L13.5916 16L10.7701 13.2C10.5679 12.9978 10.5679 12.6709 10.7701 12.4688L12.4733 10.7656C12.6754 10.5634 13.0023 10.5634 13.2045 10.7656L16.0002 13.5914L18.8002 10.7699C19.0023 10.5677 19.3292 10.5677 19.5313 10.7699L21.2346 12.4731C21.4367 12.6752 21.4367 13.0021 21.2346 13.2043L18.4088 16L21.2303 18.8Z" fill="#474747"/>
</svg>
