<svg width="32" height="32" viewBox="0 0 32 32" fill="none" xmlns="http://www.w3.org/2000/svg">
<path d="M23.3332 6.66669H8.6665C7.56234 6.66669 6.6665 7.56252 6.6665 8.66669V23.3334C6.6665 24.4375 7.56234 25.3334 8.6665 25.3334H23.3332C24.4373 25.3334 25.3332 24.4375 25.3332 23.3334V8.66669C25.3332 7.56252 24.4373 6.66669 23.3332 6.66669ZM21.0665 18.7125C21.2623 18.9084 21.2623 19.225 21.0665 19.4209L19.4165 21.0667C19.2207 21.2625 18.904 21.2625 18.7082 21.0667L15.9998 18.3334L13.2873 21.0667C13.0915 21.2625 12.7748 21.2625 12.579 21.0667L10.9332 19.4167C10.7373 19.2209 10.7373 18.9042 10.9332 18.7084L13.6665 16L10.9332 13.2875C10.7373 13.0917 10.7373 12.775 10.9332 12.5792L12.5832 10.9292C12.779 10.7334 13.0957 10.7334 13.2915 10.9292L15.9998 13.6667L18.7123 10.9334C18.9082 10.7375 19.2248 10.7375 19.4207 10.9334L21.0707 12.5834C21.2665 12.7792 21.2665 13.0959 21.0707 13.2917L18.3332 16L21.0665 18.7125Z" fill="#474747"/>
</svg>
