<svg width="32" height="32" viewBox="0 0 32 32" fill="none" xmlns="http://www.w3.org/2000/svg">
<path d="M4.75819 20.9833C4.85402 21.3375 5.22069 21.55 5.57486 21.4541L14.5915 19.0375C14.9457 18.9416 15.1582 18.575 15.0623 18.2208L12.9915 10.4916C12.8957 10.1375 12.529 9.92498 12.1749 10.0208L8.95819 10.8875L9.99152 14.75L7.41652 15.4375L6.38319 11.575L3.16236 12.4375C2.80819 12.5333 2.59569 12.9 2.69153 13.2541L4.75819 20.9833ZM18.6665 5.33331C17.929 5.33331 17.3332 5.92915 17.3332 6.66665V20.15L2.91236 24.0833C2.73319 24.1333 2.62903 24.3166 2.67903 24.4916L3.20403 26.4208C3.25403 26.6 3.43736 26.7041 3.61236 26.6541L20.0165 22.1791C20.1165 24.6708 22.1498 26.6666 24.6665 26.6666C27.2457 26.6666 29.3332 24.5791 29.3332 22V5.33331H18.6665ZM24.6665 24C23.5623 24 22.6665 23.1041 22.6665 22C22.6665 20.8958 23.5623 20 24.6665 20C25.7707 20 26.6665 20.8958 26.6665 22C26.6665 23.1041 25.7707 24 24.6665 24Z" fill="currentColor"/>
</svg>
