<svg width="32" height="32" viewBox="0 0 32 32" fill="none" xmlns="http://www.w3.org/2000/svg">
<path d="M28.6665 20H27.9998V15.4958C27.9998 14.9666 27.7873 14.4583 27.4123 14.0833L23.2498 9.92081C22.8748 9.54581 22.3665 9.33331 21.8373 9.33331H19.9998V7.33331C19.9998 6.22915 19.104 5.33331 17.9998 5.33331H4.6665C3.56234 5.33331 2.6665 6.22915 2.6665 7.33331V20.6666C2.6665 21.7708 3.56234 22.6666 4.6665 22.6666H5.33317C5.33317 24.875 7.12484 26.6666 9.33317 26.6666C11.5415 26.6666 13.3332 24.875 13.3332 22.6666H18.6665C18.6665 24.875 20.4582 26.6666 22.6665 26.6666C24.8748 26.6666 26.6665 24.875 26.6665 22.6666H28.6665C29.0332 22.6666 29.3332 22.3666 29.3332 22V20.6666C29.3332 20.3 29.0332 20 28.6665 20ZM9.33317 24.6666C8.229 24.6666 7.33317 23.7708 7.33317 22.6666C7.33317 21.5625 8.229 20.6666 9.33317 20.6666C10.4373 20.6666 11.3332 21.5625 11.3332 22.6666C11.3332 23.7708 10.4373 24.6666 9.33317 24.6666ZM22.6665 24.6666C21.5623 24.6666 20.6665 23.7708 20.6665 22.6666C20.6665 21.5625 21.5623 20.6666 22.6665 20.6666C23.7707 20.6666 24.6665 21.5625 24.6665 22.6666C24.6665 23.7708 23.7707 24.6666 22.6665 24.6666ZM25.9998 16H19.9998V11.3333H21.8373L25.9998 15.4958V16Z" fill="currentColor"/>
</svg>
