<svg width="32" height="32" viewBox="0 0 32 32" fill="none" xmlns="http://www.w3.org/2000/svg">
<path d="M7.99984 24.6667C7.99984 25.1971 8.21055 25.7058 8.58562 26.0809C8.9607 26.456 9.4694 26.6667 9.99984 26.6667H21.9998C22.5303 26.6667 23.039 26.456 23.414 26.0809C23.7891 25.7058 23.9998 25.1971 23.9998 24.6667V10.6667H7.99984V24.6667ZM19.3332 14C19.3332 13.8232 19.4034 13.6536 19.5284 13.5286C19.6535 13.4036 19.823 13.3334 19.9998 13.3334C20.1766 13.3334 20.3462 13.4036 20.4712 13.5286C20.5963 13.6536 20.6665 13.8232 20.6665 14V23.3334C20.6665 23.5102 20.5963 23.6797 20.4712 23.8048C20.3462 23.9298 20.1766 24 19.9998 24C19.823 24 19.6535 23.9298 19.5284 23.8048C19.4034 23.6797 19.3332 23.5102 19.3332 23.3334V14ZM15.3332 14C15.3332 13.8232 15.4034 13.6536 15.5284 13.5286C15.6535 13.4036 15.823 13.3334 15.9998 13.3334C16.1766 13.3334 16.3462 13.4036 16.4712 13.5286C16.5963 13.6536 16.6665 13.8232 16.6665 14V23.3334C16.6665 23.5102 16.5963 23.6797 16.4712 23.8048C16.3462 23.9298 16.1766 24 15.9998 24C15.823 24 15.6535 23.9298 15.5284 23.8048C15.4034 23.6797 15.3332 23.5102 15.3332 23.3334V14ZM11.3332 14C11.3332 13.8232 11.4034 13.6536 11.5284 13.5286C11.6535 13.4036 11.823 13.3334 11.9998 13.3334C12.1766 13.3334 12.3462 13.4036 12.4712 13.5286C12.5963 13.6536 12.6665 13.8232 12.6665 14V23.3334C12.6665 23.5102 12.5963 23.6797 12.4712 23.8048C12.3462 23.9298 12.1766 24 11.9998 24C11.823 24 11.6535 23.9298 11.5284 23.8048C11.4034 23.6797 11.3332 23.5102 11.3332 23.3334V14ZM24.6665 6.66668H19.6665L19.2748 5.88752C19.1919 5.72094 19.0641 5.58082 18.9058 5.48292C18.7475 5.38502 18.5651 5.33322 18.379 5.33335H13.6165C13.4308 5.33264 13.2487 5.38424 13.091 5.48225C12.9333 5.58026 12.8064 5.72072 12.7248 5.88752L12.3332 6.66668H7.33317C7.15636 6.66668 6.98679 6.73692 6.86177 6.86195C6.73674 6.98697 6.6665 7.15654 6.6665 7.33335V8.66668C6.6665 8.8435 6.73674 9.01306 6.86177 9.13809C6.98679 9.26311 7.15636 9.33335 7.33317 9.33335H24.6665C24.8433 9.33335 25.0129 9.26311 25.1379 9.13809C25.2629 9.01306 25.3332 8.8435 25.3332 8.66668V7.33335C25.3332 7.15654 25.2629 6.98697 25.1379 6.86195C25.0129 6.73692 24.8433 6.66668 24.6665 6.66668Z" fill="currentColor"/>
</svg>
