<svg width="32" height="32" viewBox="0 0 32 32" fill="none" xmlns="http://www.w3.org/2000/svg">
<path d="M7.47395 11.0377L11.7285 12.5868C13.1947 9.18934 15.3205 6.57479 17.5201 5.34938C13.5251 5.14564 9.65435 6.88937 7.16479 10.0077C6.88604 10.3577 7.05396 10.8847 7.47395 11.0377ZM12.9843 13.0443L22.9209 16.6622C24.4109 11.6047 23.7 7.00978 21.1446 6.07979C20.8363 5.96729 20.5142 5.91313 20.1826 5.91313C17.7651 5.91354 14.838 8.79518 12.9843 13.0443ZM24.3946 7.85436C24.6538 8.53352 24.8458 9.29601 24.9446 10.1539C25.1838 12.2326 24.8854 14.6635 24.155 17.1113L28.4308 18.668C28.8512 18.8209 29.3187 18.5251 29.3295 18.0776C29.4262 14.0905 27.5833 10.2677 24.3946 7.85436ZM25.9996 23.9992H16.0439L18.7497 16.5626L16.2439 15.6501L13.2064 23.9988H3.33316C2.96483 23.9988 2.6665 24.2971 2.6665 24.6658V25.9996C2.6665 26.3679 2.96483 26.6667 3.33316 26.6667H25.9996C26.3679 26.6667 26.6662 26.3679 26.6662 25.9996V24.6658C26.6662 24.2975 26.3679 23.9992 25.9996 23.9992Z" fill="currentColor"/>
</svg>
