<svg width="32" height="32" viewBox="0 0 32 32" fill="none" xmlns="http://www.w3.org/2000/svg">
<path d="M7.99984 8.00004H9.33317V14.6667C9.33317 18.3425 12.324 21.3334 15.9998 21.3334C19.6757 21.3334 22.6665 18.3425 22.6665 14.6667V8.00004H23.9998C24.1766 8.00004 24.3462 7.9298 24.4712 7.80478C24.5963 7.67975 24.6665 7.51019 24.6665 7.33337V6.00004C24.6665 5.82323 24.5963 5.65366 24.4712 5.52864C24.3462 5.40361 24.1766 5.33337 23.9998 5.33337H17.9998C17.823 5.33337 17.6535 5.40361 17.5284 5.52864C17.4034 5.65366 17.3332 5.82323 17.3332 6.00004V7.33337C17.3332 7.51019 17.4034 7.67975 17.5284 7.80478C17.6535 7.9298 17.823 8.00004 17.9998 8.00004H19.3332V14.6667C19.3332 15.5508 18.982 16.3986 18.3569 17.0237C17.7317 17.6489 16.8839 18 15.9998 18C15.1158 18 14.2679 17.6489 13.6428 17.0237C13.0177 16.3986 12.6665 15.5508 12.6665 14.6667V8.00004H13.9998C14.1766 8.00004 14.3462 7.9298 14.4712 7.80478C14.5963 7.67975 14.6665 7.51019 14.6665 7.33337V6.00004C14.6665 5.82323 14.5963 5.65366 14.4712 5.52864C14.3462 5.40361 14.1766 5.33337 13.9998 5.33337H7.99984C7.82303 5.33337 7.65346 5.40361 7.52843 5.52864C7.40341 5.65366 7.33317 5.82323 7.33317 6.00004V7.33337C7.33317 7.51019 7.40341 7.67975 7.52843 7.80478C7.65346 7.9298 7.82303 8.00004 7.99984 8.00004ZM24.6665 24H7.33317C7.15636 24 6.98679 24.0703 6.86177 24.1953C6.73674 24.3203 6.6665 24.4899 6.6665 24.6667V26C6.6665 26.1769 6.73674 26.3464 6.86177 26.4714C6.98679 26.5965 7.15636 26.6667 7.33317 26.6667H24.6665C24.8433 26.6667 25.0129 26.5965 25.1379 26.4714C25.2629 26.3464 25.3332 26.1769 25.3332 26V24.6667C25.3332 24.4899 25.2629 24.3203 25.1379 24.1953C25.0129 24.0703 24.8433 24 24.6665 24Z" fill="#474747"/>
</svg>
