<svg width="32" height="32" viewBox="0 0 32 32" fill="none" xmlns="http://www.w3.org/2000/svg">
<path d="M15.9806 5.33339C13.1303 5.33851 10.5424 6.46169 8.63177 8.28758L7.09569 6.7515C6.44537 6.10118 5.3335 6.56173 5.3335 7.48139V13.2474C5.3335 13.8175 5.79565 14.2796 6.36575 14.2796H12.1317C13.0514 14.2796 13.5119 13.1678 12.8617 12.5174L11.066 10.7217C12.3934 9.47877 14.1112 8.79025 15.9361 8.77451C19.9102 8.74018 23.2601 11.9563 23.2257 16.0623C23.1931 19.9574 20.0352 23.2259 16.0002 23.2259C14.2313 23.2259 12.5594 22.5945 11.2419 21.4385C11.0379 21.2595 10.7298 21.2704 10.5379 21.4623L8.83199 23.1682C8.62244 23.3777 8.63281 23.7194 8.85272 23.918C10.7442 25.6264 13.2507 26.6667 16.0002 26.6667C21.8912 26.6667 26.6668 21.8911 26.6668 16.0001C26.6669 10.1159 21.8648 5.32285 15.9806 5.33339Z" fill="#474747"/>
</svg>
