<svg width="32" height="32" viewBox="0 0 32 32" fill="none" xmlns="http://www.w3.org/2000/svg">
<path d="M17.6667 21.3325H14.3329C13.7786 21.3325 13.3327 20.8866 13.3327 20.3324V13.3314H9.67801C8.93624 13.3314 8.56535 12.4354 9.09043 11.9103L15.4289 5.56772C15.7414 5.25518 16.254 5.25518 16.5665 5.56772L22.9091 11.9103C23.4342 12.4354 23.0633 13.3314 22.3215 13.3314H18.6668V20.3324C18.6668 20.8866 18.2209 21.3325 17.6667 21.3325ZM26.668 20.9992V25.6665C26.668 26.2207 26.2221 26.6666 25.6679 26.6666H6.33169C5.77744 26.6666 5.33154 26.2207 5.33154 25.6665V20.9992C5.33154 20.4449 5.77744 19.999 6.33169 19.999H11.9992V20.3324C11.9992 21.6201 13.0452 22.6661 14.3329 22.6661H17.6667C18.9544 22.6661 20.0004 21.6201 20.0004 20.3324V19.999H25.6679C26.2221 19.999 26.668 20.4449 26.668 20.9992ZM21.5006 24.6664C21.5006 24.208 21.1255 23.8329 20.6671 23.8329C20.2087 23.8329 19.8337 24.208 19.8337 24.6664C19.8337 25.1248 20.2087 25.4998 20.6671 25.4998C21.1255 25.4998 21.5006 25.1248 21.5006 24.6664ZM24.1676 24.6664C24.1676 24.208 23.7926 23.8329 23.3342 23.8329C22.8758 23.8329 22.5007 24.208 22.5007 24.6664C22.5007 25.1248 22.8758 25.4998 23.3342 25.4998C23.7926 25.4998 24.1676 25.1248 24.1676 24.6664Z" fill="currentColor"/>
</svg>
