<svg width="32" height="32" viewBox="0 0 32 32" fill="none" xmlns="http://www.w3.org/2000/svg">
<path d="M15.9998 16C18.9457 16 21.3332 13.6125 21.3332 10.6666C21.3332 7.72081 18.9457 5.33331 15.9998 5.33331C13.054 5.33331 10.6665 7.72081 10.6665 10.6666C10.6665 13.6125 13.054 16 15.9998 16ZM19.7332 17.3333H19.0373C18.1123 17.7583 17.0832 18 15.9998 18C14.9165 18 13.8915 17.7583 12.9623 17.3333H12.2665C9.17484 17.3333 6.6665 19.8416 6.6665 22.9333V24.6666C6.6665 25.7708 7.56234 26.6666 8.6665 26.6666H23.3332C24.4373 26.6666 25.3332 25.7708 25.3332 24.6666V22.9333C25.3332 19.8416 22.8248 17.3333 19.7332 17.3333Z" fill="#474747"/>
</svg>
