<svg width="32" height="32" viewBox="0 0 32 32" fill="none" xmlns="http://www.w3.org/2000/svg">
<path d="M11.9998 16C14.9457 16 17.3332 13.6125 17.3332 10.6666C17.3332 7.72081 14.9457 5.33331 11.9998 5.33331C9.054 5.33331 6.6665 7.72081 6.6665 10.6666C6.6665 13.6125 9.054 16 11.9998 16ZM15.7332 17.3333H15.0373C14.1123 17.7583 13.0832 18 11.9998 18C10.9165 18 9.8915 17.7583 8.96233 17.3333H8.2665C5.17484 17.3333 2.6665 19.8416 2.6665 22.9333V24.6666C2.6665 25.7708 3.56234 26.6666 4.6665 26.6666H19.3332C20.4373 26.6666 21.3332 25.7708 21.3332 24.6666V22.9333C21.3332 19.8416 18.8248 17.3333 15.7332 17.3333ZM29.1915 11.9833L28.0332 10.8125C27.8415 10.6166 27.529 10.6166 27.3332 10.8083L22.9665 15.1416L21.0707 13.2333C20.879 13.0375 20.5665 13.0375 20.3707 13.2291L19.1998 14.3916C19.004 14.5833 19.004 14.8958 19.1957 15.0916L22.5998 18.5208C22.7915 18.7166 23.104 18.7166 23.2998 18.525L29.1873 12.6833C29.379 12.4875 29.3832 12.175 29.1915 11.9833Z" fill="#474747"/>
</svg>
