<svg width="32" height="32" viewBox="0 0 32 32" fill="none" xmlns="http://www.w3.org/2000/svg">
<path d="M16.0002 5.33331C10.1077 5.33331 5.3335 10.1075 5.3335 16C5.3335 21.8925 10.1077 26.6666 16.0002 26.6666C21.8926 26.6666 26.6668 21.8925 26.6668 16C26.6668 10.1075 21.8926 5.33331 16.0002 5.33331ZM16.0002 9.46235C18.0905 9.46235 19.7851 11.157 19.7851 13.2473C19.7851 15.3376 18.0905 17.0322 16.0002 17.0322C13.9098 17.0322 12.2152 15.3376 12.2152 13.2473C12.2152 11.157 13.9098 9.46235 16.0002 9.46235ZM16.0002 24.258C13.4754 24.258 11.2131 23.114 9.69909 21.3247C10.5077 19.8021 12.0905 18.7527 13.9356 18.7527C14.0389 18.7527 14.1421 18.7699 14.241 18.8C14.8002 18.9806 15.3851 19.0968 16.0002 19.0968C16.6152 19.0968 17.2045 18.9806 17.7593 18.8C17.8582 18.7699 17.9615 18.7527 18.0647 18.7527C19.9098 18.7527 21.4926 19.8021 22.3012 21.3247C20.7873 23.114 18.5249 24.258 16.0002 24.258Z" fill="currentColor"/>
</svg>
