<svg width="32" height="32" viewBox="0 0 32 32" fill="none" xmlns="http://www.w3.org/2000/svg">
<path d="M23.3332 6.66669H8.6665C7.56234 6.66669 6.6665 7.56252 6.6665 8.66669V23.3334C6.6665 24.4375 7.56234 25.3334 8.6665 25.3334H23.3332C24.4373 25.3334 25.3332 24.4375 25.3332 23.3334V8.66669C25.3332 7.56252 24.4373 6.66669 23.3332 6.66669ZM16.9998 21.3334V22C16.9998 22.3667 16.6998 22.6667 16.3332 22.6667H15.6665C15.2998 22.6667 14.9998 22.3667 14.9998 22V21.325C14.3123 21.3 13.6415 21.0834 13.0665 20.6959C12.704 20.45 12.6498 19.9417 12.9707 19.6459L13.4707 19.175C13.6957 18.9625 14.0248 18.95 14.2915 19.1084C14.5457 19.2584 14.829 19.3334 15.1207 19.3334H16.9957C17.4665 19.3334 17.8498 18.8959 17.8498 18.3584C17.8498 17.9167 17.5873 17.5292 17.2165 17.4125L14.2082 16.5C12.9998 16.1334 12.1582 14.9584 12.1582 13.6417C12.1582 12.0042 13.4332 10.6709 14.9998 10.6667V10C14.9998 9.63335 15.2998 9.33335 15.6665 9.33335H16.3332C16.6998 9.33335 16.9998 9.63335 16.9998 10V10.675C17.6873 10.7 18.3582 10.9167 18.9332 11.3042C19.2957 11.55 19.3498 12.0584 19.029 12.3542L18.529 12.825C18.304 13.0375 17.9748 13.05 17.7082 12.8917C17.454 12.7417 17.1707 12.6667 16.879 12.6667H15.004C14.5332 12.6667 14.1498 13.1042 14.1498 13.6417C14.1498 14.0834 14.4123 14.4709 14.7832 14.5875L17.7832 15.5C18.9915 15.8667 19.8332 17.0417 19.8332 18.3584C19.8415 19.9959 18.5665 21.325 16.9998 21.3334Z" fill="currentColor"/>
</svg>
