<svg width="32" height="32" viewBox="0 0 32 32" fill="none" xmlns="http://www.w3.org/2000/svg">
<path d="M16.0002 5.33331C10.1077 5.33331 5.3335 10.1075 5.3335 16C5.3335 21.8925 10.1077 26.6666 16.0002 26.6666C21.8926 26.6666 26.6668 21.8925 26.6668 16C26.6668 10.1075 21.8926 5.33331 16.0002 5.33331ZM17.0324 21.5054V22.1935C17.0324 22.572 16.7227 22.8817 16.3442 22.8817H15.6561C15.2776 22.8817 14.9679 22.572 14.9679 22.1935V21.4968C14.2582 21.4709 13.5658 21.2473 12.9722 20.8473C12.598 20.5935 12.5421 20.0688 12.8733 19.7634L13.3894 19.2774C13.6217 19.058 13.9615 19.0451 14.2367 19.2086C14.4991 19.3634 14.7916 19.4408 15.0926 19.4408H17.0281C17.5141 19.4408 17.9098 18.9892 17.9098 18.4344C17.9098 17.9785 17.6389 17.5785 17.2561 17.458L14.1507 16.5161C12.9034 16.1376 12.0346 14.9247 12.0346 13.5656C12.0346 11.8752 13.3507 10.4989 14.9679 10.4946V9.80643C14.9679 9.42794 15.2776 9.11826 15.6561 9.11826H16.3442C16.7227 9.11826 17.0324 9.42794 17.0324 9.80643V10.5032C17.7421 10.529 18.4346 10.7527 19.0281 11.1527C19.4023 11.4064 19.4582 11.9312 19.127 12.2365L18.6109 12.7226C18.3787 12.9419 18.0389 12.9548 17.7636 12.7914C17.5012 12.6365 17.2088 12.5591 16.9077 12.5591H14.9722C14.4862 12.5591 14.0905 13.0107 14.0905 13.5656C14.0905 14.0215 14.3615 14.4215 14.7442 14.5419L17.841 15.4839C19.0883 15.8623 19.9572 17.0752 19.9572 18.4344C19.9658 20.1247 18.6496 21.4968 17.0324 21.5054Z" fill="#474747"/>
</svg>
