<svg width="32" height="32" viewBox="0 0 32 32" fill="none" xmlns="http://www.w3.org/2000/svg">
<path d="M18.717 15.0581L14.2161 13.7412C13.6951 13.5912 13.3325 13.1036 13.3325 12.5618C13.3325 11.8825 13.8826 11.3323 14.562 11.3323H17.3251C17.8335 11.3323 18.3336 11.4865 18.7504 11.7699C19.0046 11.9408 19.3463 11.8991 19.563 11.6866L21.0133 10.2696C21.3092 9.98205 21.2676 9.50278 20.9383 9.24856C19.9173 8.44839 18.642 8.00246 17.3334 7.99829V5.99786C17.3334 5.63112 17.0333 5.33105 16.6666 5.33105H15.333C14.9662 5.33105 14.6662 5.63112 14.6662 5.99786V7.99829H14.562C11.9072 7.99829 9.77343 10.278 10.0193 12.9827C10.1944 14.9039 11.6613 16.4668 13.5117 17.0086L17.7835 18.2588C18.3044 18.413 18.667 18.8965 18.667 19.4383C18.667 20.1176 18.1169 20.6677 17.4376 20.6677H14.6745C14.166 20.6677 13.6659 20.5135 13.2492 20.2301C12.995 20.0592 12.6532 20.1009 12.4365 20.3134L10.9862 21.7304C10.6903 22.018 10.732 22.4972 11.0612 22.7515C12.0823 23.5516 13.3575 23.9976 14.6662 24.0017V26.0022C14.6662 26.3689 14.9662 26.669 15.333 26.669H16.6666C17.0333 26.669 17.3334 26.3689 17.3334 26.0022V23.9934C19.2755 23.9559 21.0967 22.8015 21.7385 20.9636C22.6345 18.3964 21.13 15.7625 18.717 15.0581Z" fill="currentColor"/>
</svg>
