<svg width="32" height="32" viewBox="0 0 32 32" fill="none" xmlns="http://www.w3.org/2000/svg">
<path d="M13.3336 9.33332H18.6669L20.6419 6.36998C20.7089 6.26959 20.7474 6.15289 20.7532 6.03235C20.7591 5.9118 20.7321 5.79192 20.6752 5.68551C20.6183 5.57909 20.5335 5.49012 20.43 5.4281C20.3265 5.36607 20.208 5.33331 20.0873 5.33331H11.9144C11.7937 5.33331 11.6753 5.36607 11.5718 5.4281C11.4682 5.49012 11.3835 5.57909 11.3266 5.68551C11.2696 5.79192 11.2427 5.9118 11.2485 6.03235C11.2544 6.15289 11.2929 6.26959 11.3598 6.36998L13.3336 9.33332ZM18.6669 10.6667H13.3336C4.90108 15.475 5.33733 21.86 5.33733 22.6667C5.33733 24.875 7.38358 26.6667 9.90734 26.6667H22.094C24.6182 26.6667 26.664 24.875 26.664 22.6667C26.664 21.875 27.0536 15.4483 18.6669 10.6667ZM16.7261 22.25V22.9725C16.7253 23.0681 16.6868 23.1595 16.6189 23.2268C16.551 23.2941 16.4592 23.3318 16.3636 23.3317H15.6382C15.5425 23.3319 15.4506 23.2942 15.3826 23.2269C15.3146 23.1596 15.276 23.0682 15.2753 22.9725V22.2429C14.7615 22.2166 14.2666 22.0403 13.8519 21.7358C13.811 21.7044 13.7774 21.6645 13.7535 21.6188C13.7295 21.5732 13.7157 21.5228 13.7131 21.4713C13.7105 21.4198 13.7191 21.3684 13.7383 21.3205C13.7575 21.2727 13.7869 21.2296 13.8244 21.1942L14.3594 20.6917C14.4212 20.6358 14.5 20.6023 14.5831 20.5965C14.6662 20.5908 14.7489 20.6131 14.8178 20.66C14.9922 20.768 15.193 20.8256 15.3982 20.8267H16.6723C16.9669 20.8267 17.2073 20.5621 17.2073 20.2342C17.2073 19.965 17.044 19.7317 16.8082 19.6646L14.7665 19.0587C13.9232 18.8087 13.3336 18.0087 13.3336 17.1112C13.3336 16.0121 14.1953 15.1187 15.2694 15.0875V14.3592C15.2702 14.2633 15.309 14.1716 15.3772 14.1043C15.4455 14.0369 15.5377 13.9994 15.6336 14H16.359C16.4546 13.9998 16.5465 14.0374 16.6144 14.1047C16.6823 14.172 16.7208 14.2635 16.7215 14.3592V15.0904C17.2355 15.1165 17.7305 15.2928 18.1453 15.5975C18.1861 15.6289 18.2197 15.6689 18.2436 15.7146C18.2676 15.7602 18.2813 15.8106 18.2839 15.8621C18.2864 15.9136 18.2778 15.965 18.2585 16.0129C18.2393 16.0607 18.2099 16.1038 18.1723 16.1392L17.6419 16.6475C17.5801 16.7033 17.5013 16.7367 17.4182 16.7424C17.335 16.7481 17.2524 16.7257 17.1836 16.6787C17.0091 16.5709 16.8083 16.5132 16.6032 16.5121H15.3298C15.0353 16.5121 14.7948 16.7767 14.7948 17.1042C14.7948 17.3733 14.9582 17.6067 15.1936 17.6742L17.2353 18.28C18.0786 18.53 18.6678 19.33 18.6678 20.2275C18.6619 21.3275 17.7961 22.225 16.7261 22.25Z" fill="#474747"/>
</svg>
