<svg width="32" height="32" viewBox="0 0 32 32" fill="none" xmlns="http://www.w3.org/2000/svg">
<path d="M28.6665 14H25.9998V11.3333C25.9998 10.9666 25.6998 10.6666 25.3332 10.6666H23.9998C23.6332 10.6666 23.3332 10.9666 23.3332 11.3333V14H20.6665C20.2998 14 19.9998 14.3 19.9998 14.6666V16C19.9998 16.3666 20.2998 16.6666 20.6665 16.6666H23.3332V19.3333C23.3332 19.7 23.6332 20 23.9998 20H25.3332C25.6998 20 25.9998 19.7 25.9998 19.3333V16.6666H28.6665C29.0332 16.6666 29.3332 16.3666 29.3332 16V14.6666C29.3332 14.3 29.0332 14 28.6665 14ZM11.9998 16C14.9457 16 17.3332 13.6125 17.3332 10.6666C17.3332 7.72081 14.9457 5.33331 11.9998 5.33331C9.054 5.33331 6.6665 7.72081 6.6665 10.6666C6.6665 13.6125 9.054 16 11.9998 16ZM15.7332 17.3333H15.0373C14.1123 17.7583 13.0832 18 11.9998 18C10.9165 18 9.8915 17.7583 8.96234 17.3333H8.2665C5.17484 17.3333 2.6665 19.8416 2.6665 22.9333V24.6666C2.6665 25.7708 3.56234 26.6666 4.6665 26.6666H19.3332C20.4373 26.6666 21.3332 25.7708 21.3332 24.6666V22.9333C21.3332 19.8416 18.8248 17.3333 15.7332 17.3333Z" fill="currentColor"/>
</svg>
