<svg width="32" height="32" viewBox="0 0 32 32" fill="none" xmlns="http://www.w3.org/2000/svg">
<path d="M10.6665 16C13.2457 16 15.3332 13.9125 15.3332 11.3334C15.3332 8.75419 13.2457 6.66669 10.6665 6.66669C8.08734 6.66669 5.99984 8.75419 5.99984 11.3334C5.99984 13.9125 8.08734 16 10.6665 16ZM13.8665 17.3334H13.5207C12.654 17.75 11.6915 18 10.6665 18C9.6415 18 8.68317 17.75 7.81234 17.3334H7.4665C4.8165 17.3334 2.6665 19.4834 2.6665 22.1334V23.3334C2.6665 24.4375 3.56234 25.3334 4.6665 25.3334H16.6665C17.7707 25.3334 18.6665 24.4375 18.6665 23.3334V22.1334C18.6665 19.4834 16.5165 17.3334 13.8665 17.3334ZM22.6665 16C24.8748 16 26.6665 14.2084 26.6665 12C26.6665 9.79169 24.8748 8.00002 22.6665 8.00002C20.4582 8.00002 18.6665 9.79169 18.6665 12C18.6665 14.2084 20.4582 16 22.6665 16ZM24.6665 17.3334H24.5082C23.929 17.5334 23.3165 17.6667 22.6665 17.6667C22.0165 17.6667 21.404 17.5334 20.8248 17.3334H20.6665C19.8165 17.3334 19.0332 17.5792 18.3457 17.975C19.3623 19.0709 19.9998 20.525 19.9998 22.1334V23.7334C19.9998 23.825 19.979 23.9125 19.9748 24H27.3332C28.4373 24 29.3332 23.1042 29.3332 22C29.3332 19.4209 27.2457 17.3334 24.6665 17.3334Z" fill="currentColor"/>
</svg>
