<svg width="32" height="32" viewBox="0 0 32 32" fill="none" xmlns="http://www.w3.org/2000/svg">
<path d="M6.6665 14.6667C8.13734 14.6667 9.33317 13.4709 9.33317 12C9.33317 10.5292 8.13734 9.33335 6.6665 9.33335C5.19567 9.33335 3.99984 10.5292 3.99984 12C3.99984 13.4709 5.19567 14.6667 6.6665 14.6667ZM25.3332 14.6667C26.804 14.6667 27.9998 13.4709 27.9998 12C27.9998 10.5292 26.804 9.33335 25.3332 9.33335C23.8623 9.33335 22.6665 10.5292 22.6665 12C22.6665 13.4709 23.8623 14.6667 25.3332 14.6667ZM26.6665 16H23.9998C23.2665 16 22.604 16.2959 22.1207 16.775C23.7998 17.6959 24.9915 19.3584 25.2498 21.3334H27.9998C28.7373 21.3334 29.3332 20.7375 29.3332 20V18.6667C29.3332 17.1959 28.1373 16 26.6665 16ZM15.9998 16C18.579 16 20.6665 13.9125 20.6665 11.3334C20.6665 8.75419 18.579 6.66669 15.9998 6.66669C13.4207 6.66669 11.3332 8.75419 11.3332 11.3334C11.3332 13.9125 13.4207 16 15.9998 16ZM19.1998 17.3334H18.854C17.9873 17.75 17.0248 18 15.9998 18C14.9748 18 14.0165 17.75 13.1457 17.3334H12.7998C10.1498 17.3334 7.99984 19.4834 7.99984 22.1334V23.3334C7.99984 24.4375 8.89567 25.3334 9.99984 25.3334H21.9998C23.104 25.3334 23.9998 24.4375 23.9998 23.3334V22.1334C23.9998 19.4834 21.8498 17.3334 19.1998 17.3334ZM9.879 16.775C9.39567 16.2959 8.73317 16 7.99984 16H5.33317C3.86234 16 2.6665 17.1959 2.6665 18.6667V20C2.6665 20.7375 3.26234 21.3334 3.99984 21.3334H6.74567C7.00817 19.3584 8.19984 17.6959 9.879 16.775Z" fill="#474747"/>
</svg>
