<svg width="32" height="32" viewBox="0 0 32 32" fill="none" xmlns="http://www.w3.org/2000/svg">
<path d="M24.5502 10.6667H8.66683C8.2985 10.6667 8.00016 10.3684 8.00016 10C8.00016 9.63169 8.2985 9.33335 8.66683 9.33335H24.6668C25.0352 9.33335 25.3335 9.03502 25.3335 8.66669C25.3335 7.5621 24.4381 6.66669 23.3335 6.66669H8.00016C6.52725 6.66669 5.3335 7.86044 5.3335 9.33335V22.6667C5.3335 24.1396 6.52725 25.3334 8.00016 25.3334H24.5502C25.7177 25.3334 26.6668 24.4363 26.6668 23.3334V12.6667C26.6668 11.5638 25.7177 10.6667 24.5502 10.6667ZM22.6668 19.3334C21.9306 19.3334 21.3335 18.7363 21.3335 18C21.3335 17.2638 21.9306 16.6667 22.6668 16.6667C23.4031 16.6667 24.0002 17.2638 24.0002 18C24.0002 18.7363 23.4031 19.3334 22.6668 19.3334Z" fill="#474747"/>
</svg>
