<svg width="32" height="32" viewBox="0 0 32 32" fill="none" xmlns="http://www.w3.org/2000/svg">
<path d="M16.0002 5.33337C10.1138 5.33337 5.3335 10.1137 5.3335 16C5.3335 21.8864 10.1138 26.6667 16.0002 26.6667C21.8865 26.6667 26.6668 21.8864 26.6668 16V5.33337H16.0002ZM20.9398 12.8694C21.6053 12.8694 22.1396 13.4037 22.1396 14.0692C22.1396 14.7347 21.6053 15.2689 20.9398 15.2689C20.2743 15.2689 19.7401 14.7347 19.7401 14.0692C19.7401 13.4037 20.2743 12.8694 20.9398 12.8694ZM11.2573 12.8694C11.9228 12.8694 12.4571 13.4037 12.4571 14.0692C12.4571 14.7347 11.9228 15.2689 11.2573 15.2689C10.5918 15.2689 10.0576 14.7347 10.0576 14.0692C10.0669 13.4037 10.6012 12.8694 11.2573 12.8694ZM16.0002 23.5549C12.354 23.5549 9.37333 20.7147 9.14837 17.1248H22.8614C22.627 20.7147 19.6463 23.5549 16.0002 23.5549Z" fill="#474747"/>
</svg>
