<svg width="32" height="32" viewBox="0 0 32 32" fill="none" xmlns="http://www.w3.org/2000/svg">
<path d="M17.9999 13.3326V14.6658C17.9999 14.9408 17.7749 15.1657 17.5 15.1657H10.5006C10.2257 15.1657 10.0007 14.9408 10.0007 14.6658V13.3326C10.0007 13.0576 10.2257 12.8326 10.5006 12.8326H17.5C17.7749 12.8326 17.9999 13.0576 17.9999 13.3326ZM26.3741 25.1939L25.195 26.373C24.8034 26.7646 24.1701 26.7646 23.7827 26.373L19.6247 22.2192C19.4373 22.0317 19.3331 21.7776 19.3331 21.511V20.8319C17.8624 21.9817 16.0126 22.665 14.0003 22.665C9.21326 22.665 5.33447 18.7862 5.33447 13.9992C5.33447 9.21216 9.21326 5.33337 14.0003 5.33337C18.7873 5.33337 22.6661 9.21216 22.6661 13.9992C22.6661 16.0115 21.9828 17.8613 20.833 19.332H21.5121C21.7787 19.332 22.0328 19.4362 22.2203 19.6236L26.3741 23.7774C26.7615 24.169 26.7615 24.8023 26.3741 25.1939ZM19.6664 13.9992C19.6664 10.8662 17.1333 8.33308 14.0003 8.33308C10.8673 8.33308 8.33418 10.8662 8.33418 13.9992C8.33418 17.1322 10.8673 19.6653 14.0003 19.6653C17.1333 19.6653 19.6664 17.1322 19.6664 13.9992Z" fill="#474747"/>
</svg>
