<svg width="32" height="32" viewBox="0 0 32 32" fill="none" xmlns="http://www.w3.org/2000/svg">
<path d="M18.0004 13.3326V14.6658C18.0004 14.9408 17.7754 15.1657 17.5004 15.1657H15.1673V17.4989C15.1673 17.7738 14.9424 17.9988 14.6674 17.9988H13.3342C13.0592 17.9988 12.8342 17.7738 12.8342 17.4989V15.1657H10.5011C10.2262 15.1657 10.0012 14.9408 10.0012 14.6658V13.3326C10.0012 13.0576 10.2262 12.8326 10.5011 12.8326H12.8342V10.4995C12.8342 10.2246 13.0592 9.99959 13.3342 9.99959H14.6674C14.9424 9.99959 15.1673 10.2246 15.1673 10.4995V12.8326H17.5004C17.7754 12.8326 18.0004 13.0576 18.0004 13.3326ZM26.3746 25.1939L25.1955 26.373C24.8039 26.7646 24.1706 26.7646 23.7832 26.373L19.6252 22.2192C19.4378 22.0317 19.3336 21.7776 19.3336 21.511V20.8319C17.8629 21.9817 16.0131 22.665 14.0008 22.665C9.21375 22.665 5.33496 18.7862 5.33496 13.9992C5.33496 9.21216 9.21375 5.33337 14.0008 5.33337C18.7878 5.33337 22.6666 9.21216 22.6666 13.9992C22.6666 16.0115 21.9833 17.8613 20.8334 19.332H21.5125C21.7792 19.332 22.0333 19.4362 22.2208 19.6236L26.3746 23.7774C26.762 24.169 26.762 24.8023 26.3746 25.1939ZM19.6669 13.9992C19.6669 10.8662 17.1338 8.33308 14.0008 8.33308C10.8678 8.33308 8.33467 10.8662 8.33467 13.9992C8.33467 17.1322 10.8678 19.6653 14.0008 19.6653C17.1338 19.6653 19.6669 17.1322 19.6669 13.9992Z" fill="#474747"/>
</svg>
