<svg width="32" height="32" viewBox="0 0 32 32" fill="none" xmlns="http://www.w3.org/2000/svg">
<g clip-path="url(#clip0_3789_353)">
<path d="M25.792 22.7035C25.429 23.542 24.9994 24.3139 24.5016 25.0235C23.8231 25.9908 23.2676 26.6605 22.8395 27.0323C22.1758 27.6426 21.4647 27.9552 20.7032 27.973C20.1566 27.973 19.4973 27.8175 18.73 27.5019C17.9601 27.1878 17.2525 27.0323 16.6056 27.0323C15.9271 27.0323 15.1994 27.1878 14.4211 27.5019C13.6415 27.8175 13.0136 27.9819 12.5334 27.9982C11.8032 28.0293 11.0754 27.7078 10.3489 27.0323C9.88521 26.6279 9.30523 25.9345 8.61043 24.9524C7.86498 23.9035 7.25211 22.6872 6.77198 21.3006C6.25777 19.8029 6 18.3526 6 16.9484C6 15.3401 6.34754 13.9528 7.04367 12.7904C7.59076 11.8566 8.31859 11.12 9.22953 10.5793C10.1405 10.0386 11.1247 9.76304 12.1847 9.74541C12.7647 9.74541 13.5252 9.92481 14.4704 10.2774C15.4129 10.6312 16.0181 10.8106 16.2834 10.8106C16.4817 10.8106 17.154 10.6008 18.2937 10.1826C19.3714 9.79474 20.281 9.63415 21.0262 9.69741C23.0454 9.86037 24.5624 10.6563 25.5712 12.0904C23.7654 13.1846 22.8721 14.7171 22.8898 16.6831C22.9061 18.2145 23.4617 19.4888 24.5535 20.5006C25.0483 20.9703 25.6009 21.3332 26.2156 21.591C26.0823 21.9776 25.9416 22.348 25.792 22.7035ZM21.161 4.48038C21.161 5.68066 20.7225 6.80135 19.8484 7.83865C18.7937 9.0718 17.5179 9.78437 16.1343 9.67193C16.1167 9.52793 16.1065 9.37638 16.1065 9.21713C16.1065 8.06487 16.6081 6.83172 17.4989 5.82345C17.9436 5.31295 18.5092 4.88847 19.1951 4.54986C19.8796 4.2163 20.5269 4.03183 21.1358 4.00024C21.1536 4.1607 21.161 4.32117 21.161 4.48037V4.48038Z" fill="white"/>
</g>
<defs>
<clipPath id="clip0_3789_353">
<rect width="24" height="24" fill="white" transform="translate(4 4)"/>
</clipPath>
</defs>
</svg>
