<svg width="32" height="32" viewBox="0 0 32 32" fill="none" xmlns="http://www.w3.org/2000/svg">
<path fill-rule="evenodd" clip-rule="evenodd" d="M12.1601 4H19.8399C22.2247 4 24.16 5.93525 24.16 8.32003C24.16 9.99123 23.2096 11.4416 21.8202 12.16C23.2096 12.8783 24.16 14.3288 24.16 16C24.16 18.3848 22.2247 20.32 19.8399 20.32C18.4834 20.32 17.2723 19.6938 16.4801 18.7149V23.68C16.4801 26.0648 14.5448 28 12.1601 28C9.77527 28 7.84 26.0648 7.84 23.68C7.84 22.0088 8.79039 20.5583 10.1799 19.84C8.79038 19.1216 7.84 17.6712 7.84 16C7.84 14.3288 8.79037 12.8783 10.1798 12.16C8.79038 11.4416 7.84 9.99123 7.84 8.32003C7.84 5.93525 9.77527 4 12.1601 4ZM8.8 8.32003C8.8 6.46545 10.3055 4.96 12.1601 4.96H15.5199V11.6799H12.1601L12.1496 11.68C10.2998 11.6743 8.8 10.1711 8.8 8.32003ZM15.5201 15.9543C15.52 15.9695 15.5199 15.9847 15.5199 16C15.5199 16.0152 15.52 16.0304 15.5201 16.0457V19.3599H12.16C10.3055 19.36 8.8 17.8546 8.8 16C8.8 14.1488 10.2999 12.6455 12.1497 12.64L12.1601 12.64H15.5199L15.5201 15.9543ZM16.4801 16.0402V15.9597C16.5017 14.1282 17.9913 12.6473 19.8262 12.64H19.8399C19.8434 12.64 19.8468 12.64 19.8503 12.64C21.7001 12.6455 23.2 14.1488 23.2 16C23.2 17.8546 21.6945 19.36 19.8399 19.36C17.9988 19.36 16.5017 17.8763 16.4801 16.0402ZM17.1253 12.64C16.8882 12.8317 16.6719 13.0481 16.4801 13.2851V12.64H17.1253ZM19.8504 11.68C19.8469 11.6799 19.8434 11.6799 19.8399 11.6799C19.8347 11.6799 19.8294 11.6799 19.8242 11.68H16.4801V4.96H19.8399C21.6945 4.96 23.2 6.46545 23.2 8.32003C23.2 10.1711 21.7002 11.6743 19.8504 11.68ZM12.1601 20.3199C10.3055 20.3199 8.8 21.8254 8.8 23.68C8.8 25.5345 10.3055 27.04 12.1601 27.04C14.0147 27.04 15.5201 25.5345 15.5201 23.68V20.3199H12.1601Z" fill="white"/>
</svg>
