<svg width="32" height="32" viewBox="0 0 32 32" fill="none" xmlns="http://www.w3.org/2000/svg">
<g clip-path="url(#clip0_3789_357)">
<path fill-rule="evenodd" clip-rule="evenodd" d="M16.0099 4C9.36875 4 4 9.40833 4 16.0992C4 21.4475 7.43994 25.9748 12.2121 27.5771C12.8087 27.6976 13.0272 27.3168 13.0272 26.9965C13.0272 26.716 13.0076 25.7545 13.0076 24.7527C9.6667 25.474 8.97099 23.3104 8.97099 23.3104C8.43409 21.9082 7.63858 21.5478 7.63858 21.5478C6.54511 20.8066 7.71823 20.8066 7.71823 20.8066C8.93117 20.8868 9.56763 22.0486 9.56763 22.0486C10.6412 23.8913 12.3711 23.3707 13.0671 23.0501C13.1664 22.2688 13.4847 21.728 13.8228 21.4276C11.1582 21.1471 8.35469 20.1055 8.35469 15.458C8.35469 14.1359 8.8316 13.0543 9.58729 12.213C9.46807 11.9126 9.0504 10.6704 9.70677 9.00787C9.70677 9.00787 10.7208 8.6873 13.0073 10.2498C13.9863 9.98497 14.9958 9.85024 16.0099 9.84911C17.024 9.84911 18.0577 9.98948 19.0123 10.2498C21.299 8.6873 22.3131 9.00787 22.3131 9.00787C22.9695 10.6704 22.5515 11.9126 22.4323 12.213C23.2079 13.0543 23.6652 14.1359 23.6652 15.458C23.6652 20.1055 20.8617 21.1269 18.1772 21.4276C18.6148 21.8081 18.9924 22.5292 18.9924 23.6711C18.9924 25.2936 18.9727 26.5957 18.9727 26.9962C18.9727 27.3168 19.1915 27.6976 19.7879 27.5774C24.56 25.9745 27.9999 21.4475 27.9999 16.0992C28.0196 9.40833 22.6312 4 16.0099 4Z" fill="white"/>
</g>
<defs>
<clipPath id="clip0_3789_357">
<rect width="24" height="24" fill="white" transform="translate(4 4)"/>
</clipPath>
</defs>
</svg>
