<svg width="32" height="32" viewBox="0 0 32 32" fill="none" xmlns="http://www.w3.org/2000/svg">
<g clip-path="url(#clip0_3789_358)">
<path d="M15.9998 13.8181V18.4654H22.458C22.1744 19.9599 21.3234 21.2254 20.047 22.0763L23.9416 25.0982C26.2107 23.0037 27.5198 19.9273 27.5198 16.2728C27.5198 15.4219 27.4434 14.6036 27.3015 13.8182L15.9998 13.8181Z" fill="white"/>
<path d="M9.27468 18.284L8.39631 18.9564L5.28717 21.3782C7.26171 25.2945 11.3087 28 15.9996 28C19.2395 28 21.9558 26.9309 23.9413 25.0982L20.0468 22.0764C18.9777 22.7963 17.614 23.2328 15.9996 23.2328C12.8796 23.2328 10.2287 21.1273 9.27958 18.2909L9.27468 18.284Z" fill="white"/>
<path d="M5.28718 10.6218C4.46904 12.2363 4 14.0581 4 15.9999C4 17.9417 4.46904 19.7636 5.28718 21.378C5.28718 21.3889 9.27997 18.2799 9.27997 18.2799C9.03998 17.5599 8.89812 16.7963 8.89812 15.9998C8.89812 15.2033 9.03998 14.4398 9.27997 13.7198L5.28718 10.6218Z" fill="white"/>
<path d="M15.9998 8.77818C17.7671 8.77818 19.338 9.38907 20.5925 10.5673L24.0289 7.13095C21.9452 5.18917 19.2398 4 15.9998 4C11.3089 4 7.26171 6.69454 5.28717 10.6218L9.27984 13.72C10.2289 10.8836 12.8798 8.77818 15.9998 8.77818Z" fill="white"/>
</g>
<defs>
<clipPath id="clip0_3789_358">
<rect width="24" height="24" fill="white" transform="translate(4 4)"/>
</clipPath>
</defs>
</svg>
