<svg width="32" height="32" viewBox="0 0 32 32" fill="none" xmlns="http://www.w3.org/2000/svg">
<g clip-path="url(#clip0_3789_359)">
<path d="M16 4C19.2578 4 19.6658 4.01426 20.9502 4.0752C22.2251 4.13146 23.0973 4.33752 23.8613 4.63281C24.6487 4.93749 25.3188 5.3501 25.9844 6.01562C26.6547 6.68121 27.0621 7.35162 27.3574 8.14844C27.6527 8.90781 27.8598 9.78457 27.916 11.0596C27.9723 12.3391 27.9863 12.7472 27.9863 16.0049C27.9863 19.2625 27.9723 19.6705 27.916 20.9502C27.8598 22.2251 27.6527 23.0973 27.3574 23.8613C27.0528 24.6486 26.6401 25.3189 25.9746 25.9844C25.309 26.6499 24.639 27.0625 23.8516 27.3672C23.0922 27.6625 22.2154 27.8686 20.9404 27.9248C19.6609 27.981 19.2528 27.9951 15.9951 27.9951C12.7375 27.9951 12.3295 27.9811 11.0498 27.9248C9.77492 27.8685 8.90269 27.6625 8.13867 27.3672C7.35132 27.0625 6.68115 26.6499 6.01562 25.9844C5.34534 25.3188 4.9373 24.6486 4.62793 23.8564C4.33262 23.0971 4.12656 22.2203 4.07031 20.9453C4.01406 19.6656 4 19.2578 4 16C4 12.7422 4.01406 12.3342 4.07031 11.0498C4.12657 9.77491 4.33263 8.9027 4.62793 8.13867C4.93729 7.35129 5.34539 6.68117 6.01562 6.01562C6.68122 5.34534 7.35141 4.9373 8.14355 4.62793C8.90293 4.33262 9.77969 4.12656 11.0547 4.07031C12.3344 4.01406 12.7422 4 16 4ZM16 6.16113C12.7939 6.16113 12.4141 6.1752 11.1533 6.23145C9.98635 6.283 9.34863 6.47951 8.92676 6.64355C8.36903 6.85915 7.97063 7.1173 7.54883 7.53906C7.1317 7.95619 6.86893 8.3593 6.65332 8.91699C6.48927 9.33885 6.29181 9.97179 6.24023 11.1436C6.18399 12.4044 6.16992 12.7843 6.16992 15.9902C6.16992 19.1918 6.18398 19.5723 6.24023 20.8379C6.29182 22.0048 6.48928 22.6426 6.65332 23.0645C6.86891 23.6221 7.12705 24.0206 7.54883 24.4424C7.96591 24.8594 8.36908 25.1223 8.92676 25.3379C9.34863 25.5019 9.98172 25.6985 11.1533 25.75C12.4141 25.8062 12.7939 25.8203 16 25.8203C19.2014 25.8203 19.5812 25.8062 20.8467 25.75C22.0136 25.6985 22.6514 25.5019 23.0732 25.3379C23.6309 25.1223 24.0294 24.8641 24.4512 24.4424C24.8683 24.0253 25.1311 23.6221 25.3467 23.0645C25.5107 22.6426 25.7082 22.0095 25.7598 20.8379C25.816 19.577 25.8301 19.1965 25.8301 15.9902C25.8301 12.789 25.816 12.4091 25.7598 11.1436C25.7082 9.97648 25.5107 9.33885 25.3467 8.91699C25.1311 8.3593 24.873 7.96088 24.4512 7.53906C24.0341 7.12199 23.631 6.85915 23.0732 6.64355C22.6514 6.47951 22.0183 6.283 20.8467 6.23145C19.5859 6.1752 19.2061 6.16113 16 6.16113ZM16 9.83594C19.4031 9.83594 22.1641 12.5969 22.1641 16C22.1641 19.4031 19.4031 22.1641 16 22.1641C12.5969 22.1641 9.83594 19.4031 9.83594 16C9.83594 12.5969 12.5969 9.83594 16 9.83594ZM16 12.002C13.7922 12.002 12.002 13.7922 12.002 16C12.002 18.2078 13.7922 19.998 16 19.998C18.2078 19.998 19.998 18.2078 19.998 16C19.998 13.7922 18.2078 12.002 16 12.002ZM22.4082 8.15332C23.2001 8.15353 23.8465 8.79992 23.8467 9.5918C23.8467 10.3885 23.2002 11.031 22.4082 11.0312C21.6113 11.0312 20.9688 10.384 20.9688 9.5918C20.969 8.79511 21.6161 8.15332 22.4082 8.15332Z" fill="white"/>
</g>
<defs>
<clipPath id="clip0_3789_359">
<rect width="24" height="24" fill="white" transform="translate(4 4)"/>
</clipPath>
</defs>
</svg>
