<svg width="32" height="32" viewBox="0 0 32 32" fill="none" xmlns="http://www.w3.org/2000/svg">
<path d="M21.6921 15.1235C21.5887 15.074 21.4837 15.0263 21.3774 14.9806C21.1921 11.5673 19.327 9.61312 16.1952 9.59312C16.181 9.59304 16.1669 9.59304 16.1528 9.59304C14.2795 9.59304 12.7216 10.3926 11.7628 11.8476L13.4851 13.0291C14.2014 11.9423 15.3257 11.7106 16.1536 11.7106C16.1631 11.7106 16.1727 11.7106 16.1822 11.7107C17.2134 11.7173 17.9915 12.0171 18.4951 12.6018C18.8616 13.0274 19.1067 13.6156 19.2281 14.358C18.3139 14.2026 17.3251 14.1548 16.2681 14.2154C13.2906 14.3869 11.3764 16.1235 11.505 18.5365C11.5702 19.7605 12.18 20.8135 13.2219 21.5014C14.1028 22.0829 15.2374 22.3673 16.4165 22.3029C17.9738 22.2175 19.1954 21.6234 20.0476 20.537C20.6949 19.712 21.1042 18.6429 21.285 17.2957C22.0271 17.7436 22.5771 18.333 22.8809 19.0415C23.3974 20.2459 23.4275 22.225 21.8126 23.8385C20.3978 25.252 18.697 25.8635 16.1267 25.8824C13.2755 25.8612 11.1192 24.9469 9.71726 23.1646C8.40444 21.4958 7.72596 19.0852 7.70065 16C7.72596 12.9147 8.40444 10.5042 9.71726 8.83534C11.1192 7.05311 13.2755 6.13875 16.1266 6.11756C18.9985 6.13891 21.1924 7.05767 22.648 8.8485C23.3618 9.7267 23.8999 10.8311 24.2546 12.1188L26.273 11.5803C25.843 9.99528 25.1664 8.62946 24.2456 7.49675C22.3795 5.20084 19.6503 4.02439 16.1337 4H16.1196C12.6102 4.02431 9.91151 5.20522 8.09854 7.50991C6.48524 9.5608 5.65305 12.4145 5.62509 15.9916L5.625 16L5.62509 16.0084C5.65305 19.5855 6.48524 22.4393 8.09854 24.4901C9.91151 26.7948 12.6102 27.9757 16.1196 28H16.1337C19.2538 27.9784 21.453 27.1615 23.2647 25.3514C25.6351 22.9832 25.5637 20.0149 24.7825 18.1926C24.222 16.8859 23.1534 15.8245 21.6921 15.1235ZM16.3051 20.1884C15.0001 20.2619 13.6443 19.6761 13.5774 18.4215C13.5279 17.4913 14.2395 16.4532 16.3851 16.3296C16.6309 16.3154 16.872 16.3085 17.1089 16.3085C17.8883 16.3085 18.6174 16.3842 19.2802 16.5291C19.033 19.6169 17.5828 20.1182 16.3051 20.1884Z" fill="white"/>
</svg>
