<svg width="32" height="32" viewBox="0 0 32 32" fill="none" xmlns="http://www.w3.org/2000/svg">
<g clip-path="url(#clip0_3789_363)">
<path d="M16.0234 7.5459C16.0234 7.5459 23.524 7.54526 25.4004 8.0498C25.9099 8.18874 26.3738 8.45939 26.7461 8.83398C27.1185 9.20875 27.3868 9.67496 27.5225 10.1855C28.0242 12.0702 28.0234 16 28.0234 16C28.0234 16.0153 28.0233 19.9335 27.5225 21.8145C27.3868 22.325 27.1185 22.7913 26.7461 23.166C26.3738 23.5406 25.9099 23.8113 25.4004 23.9502C23.524 24.4547 16.0234 24.4541 16.0234 24.4541C15.9633 24.4541 8.51638 24.4527 6.64746 23.9502C6.13775 23.8112 5.67315 23.5408 5.30078 23.166C4.92844 22.7913 4.66107 22.325 4.52539 21.8145C4.02458 19.9335 4.02344 16.0153 4.02344 16C4.02344 16 4.02362 12.0702 4.52539 10.1855C4.66106 9.67501 4.92847 9.20873 5.30078 8.83398C5.67315 8.45922 6.13775 8.18876 6.64746 8.0498C8.51634 7.54731 15.9633 7.54591 16.0234 7.5459ZM13.5693 19.5684L19.8418 16L13.5693 12.4316V19.5684Z" fill="white"/>
</g>
<defs>
<clipPath id="clip0_3789_363">
<rect width="24" height="24" fill="white" transform="translate(4 4)"/>
</clipPath>
</defs>
</svg>
