<svg width="163" height="152" viewBox="0 0 163 152" fill="none" xmlns="http://www.w3.org/2000/svg">
<g filter="url(#filter0_d_9_13055)">
<path d="M110.531 121.491C84.1583 135.54 51.2725 125.514 37.2234 99.1406C23.1742 72.7675 33.2003 39.8818 59.5733 25.8327C85.9463 11.7836 118.832 21.8098 132.881 48.1829C146.931 74.5558 136.904 107.441 110.531 121.491Z" fill="white"/>
<path d="M85.0523 121.771C111.623 121.771 133.162 100.232 133.162 73.6616C133.162 47.0914 111.623 25.552 85.0523 25.552C58.4821 25.552 36.9426 47.0914 36.9426 73.6616C36.9426 100.232 58.4821 121.771 85.0523 121.771Z" fill="url(#paint0_linear_9_13055)"/>
<path d="M85.0147 27.6706C102.061 27.6706 117.626 37.0095 125.634 52.0425C131.408 62.8822 132.616 75.3217 129.034 87.0697C125.452 98.8177 117.51 108.468 106.671 114.242C100.029 117.78 92.5675 119.651 85.0939 119.651C68.0449 119.651 52.479 110.312 44.4708 95.2787C38.6963 84.4391 37.4887 71.9994 41.0705 60.2516C44.6522 48.5036 52.5944 38.8537 63.4342 33.0793C70.075 29.5415 77.5362 27.6713 85.014 27.6706H85.0147ZM85.0108 25.5415C77.3811 25.5421 69.6368 27.3626 62.4331 31.2001C38.9827 43.6923 30.0993 72.8294 42.5916 96.2798C51.2463 112.526 67.8866 121.78 85.0939 121.78C92.7236 121.78 100.468 119.959 107.672 116.121C131.122 103.629 140.005 74.4918 127.513 51.0415C118.858 34.7949 102.218 25.5401 85.0108 25.5415Z" fill="#262933"/>
</g>
<g filter="url(#filter1_d_9_13055)">
<path d="M56.8568 114.304C28.0406 106.397 11.0303 76.5193 18.9382 47.7031C26.8461 18.8867 56.7234 1.87652 85.5397 9.78435C114.356 17.6922 131.366 47.5694 123.458 76.3858C115.55 105.202 85.6731 122.212 56.8568 114.304Z" fill="white"/>
<path d="M71.1983 110.155C97.7686 110.155 119.308 88.6155 119.308 62.0453C119.308 35.4752 97.7686 13.9358 71.1983 13.9358C44.6281 13.9358 23.0886 35.4752 23.0886 62.0453C23.0886 88.6155 44.6281 110.155 71.1983 110.155Z" fill="url(#paint1_linear_9_13055)"/>
<path d="M71.1726 16.0513C75.2707 16.0513 79.3734 16.6068 83.3665 17.7027C95.2105 20.9529 105.08 28.621 111.156 39.2941C117.233 49.9673 118.79 62.368 115.539 74.2121C112.819 84.1237 107.05 92.6188 98.8551 98.779C90.9136 104.749 81.1015 108.036 71.2262 108.036C67.1266 108.036 63.0231 107.481 59.0299 106.385C47.186 103.135 37.3167 95.4665 31.24 84.7934C25.1633 74.1202 23.6067 61.7194 26.857 49.8755C29.5769 39.964 35.3463 31.4691 43.5414 25.309C51.4827 19.3396 61.295 16.0518 71.1718 16.0513L71.1726 16.0513ZM71.1703 13.9222C50.0416 13.9231 30.6658 27.9508 24.8038 49.3121C17.7722 74.9349 32.8435 101.407 58.4665 108.438C62.7281 109.608 67.0109 110.165 71.2262 110.165C92.355 110.165 111.731 96.1367 117.593 74.7755C124.624 49.1525 109.553 22.6809 83.93 15.6494C79.6683 14.48 75.3856 13.9218 71.1703 13.9222Z" fill="#262933"/>
<path d="M91.6458 62.0348C94.2501 57.9889 95.9921 54.217 96.8276 50.8123C97.7666 46.9857 97.5462 43.6982 96.1725 41.0412C94.429 37.6689 91.091 35.8135 86.7733 35.8167C82.3881 35.8215 77.0124 37.8056 71.1735 41.5684C65.3258 37.8142 59.9438 35.8363 55.5645 35.8396C51.2467 35.846 47.9134 37.7035 46.1752 41.0789C44.6966 43.9504 44.5724 47.5619 45.806 51.8132C46.7216 54.9688 48.3743 58.4089 50.723 62.0497C48.1231 66.0907 46.3843 69.8585 45.5508 73.2603C44.6137 77.0844 44.835 80.3706 46.2084 83.0274C47.9517 86.3999 51.2888 88.2554 55.605 88.2521C59.9805 88.248 65.3438 86.2704 71.1716 82.5215C75.6582 85.3895 81.963 88.261 87.1191 88.2573C87.1211 88.2573 87.1232 88.2573 87.1253 88.2573C87.1916 88.2572 87.2571 88.2567 87.3228 88.2557C90.1506 88.2139 92.4835 87.3442 94.2584 85.669C96.2398 83.7987 97.3006 81.1186 97.4113 77.7024L97.4151 77.5826C97.4164 77.5406 97.4159 77.4985 97.4136 77.4565L97.4072 77.3362C97.2309 74.0929 96.4052 69.4454 91.6458 62.0348Z" fill="#262933"/>
<path d="M77.8837 73.6427C82.0864 73.592 85.4303 68.3178 85.3525 61.8625C85.2746 55.4072 81.8045 50.2152 77.6017 50.2659C73.399 50.3166 70.0551 55.5907 70.1329 62.0461C70.2108 68.5014 73.6809 73.6934 77.8837 73.6427Z" fill="white"/>
<path d="M77.663 52.3948C79.3944 52.3948 80.6661 53.922 81.2702 54.8322C82.4794 56.655 83.1914 59.2268 83.2235 61.8884C83.2557 64.5635 82.6003 67.1608 81.4251 69.0143C80.839 69.9387 79.5961 71.4929 77.8584 71.5138L77.8227 71.514C76.091 71.514 74.8192 69.9869 74.2152 69.0766C73.006 67.254 72.294 64.6821 72.2619 62.0203C72.2296 59.3452 72.8851 56.7479 74.0603 54.8944C74.6464 53.9698 75.8892 52.416 77.627 52.3949L77.663 52.3948ZM77.6627 50.2656C77.6425 50.2656 77.622 50.2656 77.6017 50.2659C73.399 50.3168 70.055 55.5908 70.1329 62.0461C70.2104 68.4703 73.6473 73.6431 77.8227 73.6431C77.8429 73.6431 77.8634 73.6432 77.8837 73.6428C82.0865 73.592 85.4304 68.3179 85.3525 61.8627C85.275 55.4384 81.8381 50.2653 77.6627 50.2656Z" fill="#262933"/>
<path d="M64.7789 73.8355C68.9817 73.7848 72.3256 68.5107 72.2478 62.0554C72.1699 55.6 68.6998 50.4081 64.497 50.4588C60.2942 50.5094 56.9503 55.7836 57.0282 62.2389C57.106 68.6942 60.5762 73.8862 64.7789 73.8355Z" fill="white"/>
<path d="M64.5582 52.5876C66.2896 52.5876 67.5614 54.1147 68.1654 55.0251C69.3747 56.8477 70.0866 59.4195 70.1187 62.0811C70.151 64.7562 69.4955 67.3535 68.3204 69.2072C67.7342 70.1316 66.4915 71.6856 64.7528 71.7065L64.7177 71.7067C62.9861 71.7067 61.7144 70.1796 61.1104 69.2694C59.9012 67.4469 59.1893 64.875 59.1571 62.2132C59.1249 59.5381 59.7803 56.9408 60.9555 55.0871C61.5416 54.1627 62.7844 52.6087 64.5222 52.5878L64.5582 52.5876ZM64.558 50.4585C64.5377 50.4585 64.5172 50.4585 64.497 50.4588C60.2942 50.5095 56.9503 55.7836 57.0282 62.239C57.1057 68.6632 60.5423 73.8359 64.7178 73.8359C64.738 73.8359 64.7587 73.8359 64.779 73.8355C68.9817 73.7849 72.3256 68.5107 72.2478 62.0554C72.1703 55.6313 68.7334 50.4582 64.558 50.4585Z" fill="#262933"/>
<path d="M80.1108 55.9197C78.3112 55.9414 76.8047 57.7451 76.2876 60.232C76.1943 60.6811 76.4042 61.1393 76.7982 61.374L78.2954 62.2662C78.8367 62.5887 78.9911 63.3027 78.6313 63.82L77.4274 65.5512C77.1699 65.9216 77.1633 66.416 77.4224 66.7853C78.1689 67.8499 79.1692 68.4974 80.2624 68.4842C82.5213 68.457 84.3186 65.6222 84.2768 62.1526C84.2349 58.683 82.3698 55.8924 80.1108 55.9197Z" fill="#262933"/>
<path d="M67.6074 56.105C65.8078 56.1267 64.3013 57.9304 63.7842 60.4173C63.6909 60.8664 63.9007 61.3246 64.2948 61.5593L65.792 62.4515C66.3333 62.774 66.4876 63.488 66.1279 64.0053L64.924 65.7365C64.6665 66.1069 64.6599 66.6013 64.9189 66.9707C65.6655 68.0352 66.6658 68.6827 67.759 68.6695C70.0179 68.6423 71.8152 65.8075 71.7734 62.3379C71.7315 58.8683 69.8663 56.0777 67.6074 56.105Z" fill="#262933"/>
</g>
<defs>
<filter id="filter0_d_9_13055" x="23.0215" y="11.6309" width="139.754" height="139.754" filterUnits="userSpaceOnUse" color-interpolation-filters="sRGB">
<feFlood flood-opacity="0" result="BackgroundImageFix"/>
<feColorMatrix in="SourceAlpha" type="matrix" values="0 0 0 0 0 0 0 0 0 0 0 0 0 0 0 0 0 0 127 0" result="hardAlpha"/>
<feOffset dx="7.8462" dy="7.8462"/>
<feGaussianBlur stdDeviation="7.8462"/>
<feColorMatrix type="matrix" values="0 0 0 0 0 0 0 0 0 0 0 0 0 0 0 0 0 0 0.25 0"/>
<feBlend mode="normal" in2="BackgroundImageFix" result="effect1_dropShadow_9_13055"/>
<feBlend mode="normal" in="SourceGraphic" in2="effect1_dropShadow_9_13055" result="shape"/>
</filter>
<filter id="filter1_d_9_13055" x="9.1538" y="-8.58307e-06" width="139.781" height="139.781" filterUnits="userSpaceOnUse" color-interpolation-filters="sRGB">
<feFlood flood-opacity="0" result="BackgroundImageFix"/>
<feColorMatrix in="SourceAlpha" type="matrix" values="0 0 0 0 0 0 0 0 0 0 0 0 0 0 0 0 0 0 127 0" result="hardAlpha"/>
<feOffset dx="7.8462" dy="7.8462"/>
<feGaussianBlur stdDeviation="7.8462"/>
<feColorMatrix type="matrix" values="0 0 0 0 0 0 0 0 0 0 0 0 0 0 0 0 0 0 0.25 0"/>
<feBlend mode="normal" in2="BackgroundImageFix" result="effect1_dropShadow_9_13055"/>
<feBlend mode="normal" in="SourceGraphic" in2="effect1_dropShadow_9_13055" result="shape"/>
</filter>
<linearGradient id="paint0_linear_9_13055" x1="41.7257" y1="83.9684" x2="137.964" y2="83.9684" gradientUnits="userSpaceOnUse">
<stop stop-color="#EACE47"/>
<stop offset="1" stop-color="#F4DF4C"/>
</linearGradient>
<linearGradient id="paint1_linear_9_13055" x1="27.869" y1="72.3522" x2="124.113" y2="72.3522" gradientUnits="userSpaceOnUse">
<stop stop-color="#EACE47"/>
<stop offset="1" stop-color="#F4DF4C"/>
</linearGradient>
</defs>
</svg>
