<svg width="170" height="144" viewBox="0 0 170 144" fill="none" xmlns="http://www.w3.org/2000/svg">
<path d="M61.8044 8.94434L12.0256 57.33C13.0416 82.148 33.4793 101.957 58.547 101.957C84.2639 101.957 105.111 81.1098 105.111 55.3932C105.111 30.7718 86.0011 10.6167 61.8044 8.94434Z" fill="url(#paint0_linear_9_13528)"/>
<path d="M58.5468 102.939C46.1913 102.939 34.4856 98.2223 25.5857 89.6577C16.7111 81.1174 11.5466 69.6506 11.044 57.3697C11.0327 57.0905 11.1404 56.8198 11.3408 56.6251L61.1196 8.23939C61.3197 8.0449 61.5954 7.94434 61.872 7.96381C73.8614 8.79245 85.0043 14.0935 93.2484 22.8906C101.532 31.7296 106.094 43.2724 106.094 55.3926C106.094 81.6099 84.7644 102.939 58.5468 102.939ZM13.027 57.726C13.6122 69.3333 18.5454 80.1559 26.9481 88.242C35.4802 96.4525 46.7021 100.974 58.5468 100.974C83.6808 100.974 104.129 80.5264 104.129 55.3926C104.129 43.7733 99.7558 32.7076 91.8149 24.2341C84.0111 15.9069 73.4992 10.8472 62.1724 9.95603L13.027 57.726Z" fill="#DBDBDD"/>
<path d="M77.3907 48.8394C78.1378 44.4156 78.2463 40.5433 77.7126 37.3184C77.1128 33.694 75.7172 30.9572 73.5645 29.1842C70.8322 26.9337 67.2901 26.5687 63.5906 28.1563C59.8338 29.7701 55.9545 33.444 52.3312 38.8123C45.9409 37.741 40.602 38.0214 36.8497 39.6317C33.1513 41.2221 30.9761 44.0377 30.7252 47.5687C30.512 50.5726 31.7312 53.7137 34.349 56.9046C36.2922 59.2733 38.9715 61.6151 42.321 63.8735C41.576 68.2914 41.4687 72.1591 42.003 75.3806C42.6035 79.0023 43.9994 81.7377 46.1519 83.5107C48.884 85.7614 52.4253 86.1268 56.1236 84.5395C59.8724 82.9299 63.7434 79.2662 67.3623 73.9139C72.2606 74.7252 78.7185 74.8721 83.1365 72.9763C83.1382 72.9755 83.14 72.9747 83.1418 72.974C83.1985 72.9496 83.2545 72.9251 83.3105 72.9001C85.7189 71.8263 87.3991 70.2245 88.3055 68.1372C89.3173 65.8069 89.2427 63.1204 88.0836 60.1518L88.0428 60.0477C88.0285 60.0111 88.0127 59.9752 87.9953 59.9401L87.9456 59.8393C86.604 57.1243 84.1903 53.4439 77.3907 48.8394Z" fill="#262933"/>
<path d="M69.8557 63.8401C73.4394 62.2539 74.3695 56.506 71.9332 51.0017C69.4969 45.4975 64.6168 42.3212 61.0332 43.9073C57.4495 45.4935 56.5194 51.2414 58.9557 56.7457C61.392 62.2499 66.2721 65.4262 69.8557 63.8401Z" fill="white"/>
<path d="M70.3797 64.9838C70.3746 64.9861 70.3697 64.9882 70.3646 64.9904C68.2297 65.9355 65.7172 65.5859 63.2902 64.0062C61.0299 62.5351 59.0824 60.1376 57.8068 57.2555C56.5311 54.3734 56.0658 51.3199 56.4966 48.6576C56.9581 45.8059 58.3832 43.714 60.5098 42.7659C60.5149 42.7637 60.5197 42.7615 60.5248 42.7593C62.6598 41.8143 65.1722 42.1639 67.5993 43.7435C69.8596 45.2147 71.807 47.6122 73.0827 50.4943C74.3583 53.3764 74.8236 56.4298 74.3928 59.0921C73.9314 61.944 72.5064 64.0357 70.3797 64.9838ZM61.5337 45.0614C58.6463 46.3487 57.9917 51.4632 60.1052 56.2382C62.2206 61.0176 66.453 63.9731 69.3474 62.6921L69.3558 62.6883C70.6826 62.0968 71.5901 60.6776 71.9116 58.6907C72.2656 56.5033 71.8652 53.9537 70.7843 51.5116C68.6688 46.7322 64.4364 43.7767 61.5421 45.0577L61.5337 45.0614Z" fill="#262933"/>
<path d="M65.2593 47.8344C63.7248 48.5136 63.0957 50.6125 63.5654 52.9339C63.6502 53.353 63.9983 53.6687 64.4222 53.7253L66.0329 53.9404C66.6153 54.0182 67.0096 54.5734 66.8912 55.1489L66.4948 57.0746C66.41 57.4866 66.5859 57.9128 66.9435 58.1343C67.9741 58.7726 69.0692 58.9605 70.0013 58.5479C71.9274 57.6954 72.4274 54.6059 71.1179 51.6475C69.8084 48.6891 67.1855 46.9819 65.2593 47.8344Z" fill="#262933"/>
<path d="M58.6944 68.8166C62.278 67.2305 63.2081 61.4826 60.7718 55.9783C58.3355 50.474 53.4554 47.2978 49.8718 48.8839C46.2882 50.47 45.3581 56.218 47.7943 61.7222C50.2306 67.2265 55.1107 70.4028 58.6944 68.8166Z" fill="white"/>
<path d="M59.2184 69.9589C59.2133 69.9611 59.2084 69.9633 59.2033 69.9655C57.0683 70.9106 54.5559 70.561 52.1288 68.9813C49.8685 67.5102 47.9211 65.1127 46.6454 62.2306C45.3698 59.3485 44.9045 56.2951 45.3352 53.6328C45.7967 50.781 47.2218 48.6892 49.3484 47.7411C49.3535 47.7388 49.3583 47.7367 49.3634 47.7344C51.4984 46.7894 54.0108 47.139 56.4379 48.7186C58.6982 50.1898 60.6456 52.5873 61.9213 55.4694C63.1969 58.3515 63.6622 61.4049 63.2314 64.0672C62.77 66.9191 61.345 69.0108 59.2184 69.9589ZM50.3723 50.0365C47.485 51.3237 46.8304 56.4383 48.9438 61.2133C51.0593 65.9927 55.2917 68.9482 58.186 67.6671L58.1944 67.6634C59.5213 67.0719 60.4287 65.6527 60.7502 63.6657C61.1042 61.4784 60.7038 58.9288 59.6229 56.4866C57.5074 51.7072 53.275 48.7517 50.3807 50.0328L50.3723 50.0365Z" fill="#262933"/>
<path d="M54.6104 52.5815C53.0759 53.2607 52.4468 55.3596 52.9164 57.681C53.0012 58.1001 53.3493 58.4158 53.7732 58.4724L55.384 58.6875C55.9664 58.7653 56.3607 59.3205 56.2423 59.896L55.8459 61.8217C55.7611 62.2337 55.9369 62.6598 56.2945 62.8813C57.3251 63.5197 58.4202 63.7075 59.3524 63.295C61.2785 62.4424 61.7784 59.353 60.4689 56.3946C59.1595 53.4361 56.5365 51.729 54.6104 52.5815Z" fill="#262933"/>
<g filter="url(#filter0_d_9_13528)">
<path d="M15.2398 57.33C40.9567 57.33 61.8043 36.4825 61.8043 10.7659C61.8043 10.1168 61.7875 9.47169 61.7611 8.8291L11.9824 57.2148C13.0588 57.2891 14.1445 57.33 15.2398 57.33Z" fill="url(#paint1_linear_9_13528)"/>
<path d="M15.2399 58.3118C14.162 58.3118 13.0435 58.2723 11.9147 58.1944C11.5282 58.1677 11.1933 57.9161 11.06 57.5523C10.9267 57.1883 11.0196 56.78 11.2976 56.51L61.0764 8.1242C61.3541 7.85432 61.7652 7.77244 62.1248 7.91605C62.4849 8.05952 62.7268 8.40112 62.7427 8.78827C62.7723 9.50849 62.7868 10.1552 62.7868 10.7654C62.7868 36.9826 41.4575 58.3118 15.2399 58.3118ZM14.2948 56.3367C14.6128 56.3437 14.9284 56.3471 15.2399 56.3471C40.2573 56.3471 60.6321 36.0864 60.8206 11.1128L14.2948 56.3367Z" fill="#DBDBDD"/>
</g>
<g filter="url(#filter1_d_9_13528)">
<path d="M127.343 118.864C120.024 118.861 112.344 115.185 107.826 112.583C100.933 116.639 94.6246 118.732 89.0447 118.809L88.7243 118.812C81.7702 118.808 76.1205 115.582 73.2227 109.96C71.0315 105.708 70.6412 100.627 72.0627 94.8566C73.0325 90.9173 74.8587 86.6687 77.5009 82.1969C75.1751 78.246 73.4812 74.4547 72.4534 70.8955C70.6179 64.5437 70.8845 59.0046 73.2461 54.433C76.0969 48.9122 81.6345 45.6919 88.4392 45.5969L88.7513 45.5947C94.3279 45.5969 100.894 47.7534 107.872 51.8544C114.773 47.79 121.09 45.6928 126.681 45.6148L126.999 45.6125C133.955 45.6158 139.606 48.8416 142.503 54.4633C144.695 58.715 145.085 63.7989 143.66 69.5736C142.687 73.5174 140.857 77.771 138.21 82.2483C143.298 90.8819 144.237 96.6411 144.456 100.764L144.464 100.92C144.474 101.091 144.476 101.286 144.468 101.48L144.465 101.59C144.283 107.016 142.504 111.349 139.179 114.48C136.159 117.324 132.285 118.798 127.663 118.862L127.343 118.864Z" fill="url(#paint2_linear_9_13528)"/>
<path d="M127.342 119.846C120.24 119.843 112.899 116.577 107.831 113.717C100.983 117.669 94.6691 119.713 89.058 119.791L88.7312 119.794C81.3898 119.79 75.4214 116.37 72.3493 110.409C70.0463 105.941 69.6287 100.629 71.1085 94.6212C72.063 90.7444 73.8299 86.5667 76.3631 82.1954C74.1466 78.3556 72.5147 74.6479 71.5096 71.1676C69.6017 64.5662 69.8922 58.7841 72.3728 53.9817C75.3956 48.1287 81.2463 44.7143 88.4253 44.6142L88.7439 44.6118C94.3371 44.6141 100.938 46.7233 107.871 50.7169C114.725 46.7573 121.047 44.7105 126.667 44.632L126.991 44.6296C134.335 44.633 140.304 48.053 143.376 54.0126C145.68 58.4812 146.097 63.7956 144.614 69.8083C143.656 73.6901 141.886 77.8727 139.348 82.2485C144.325 90.8527 145.22 96.626 145.437 100.711L145.445 100.871C145.456 101.068 145.458 101.295 145.449 101.519L145.447 101.615C145.255 107.313 143.373 111.879 139.852 115.195C136.648 118.212 132.552 119.776 127.677 119.844L127.349 119.846H127.342ZM107.826 111.6C107.995 111.6 108.164 111.644 108.316 111.732C112.302 114.026 120.073 117.876 127.339 117.881L127.656 117.879C132.018 117.818 135.67 116.434 138.505 113.765C141.635 110.817 143.31 106.71 143.483 101.556L143.486 101.454C143.493 101.283 143.491 101.118 143.483 100.976L143.475 100.811C143.265 96.8752 142.381 91.2609 137.364 82.7465C137.182 82.4384 137.183 82.0558 137.364 81.7478C139.961 77.3559 141.758 73.1806 142.707 69.3377C144.072 63.8002 143.71 58.9469 141.63 54.9129C138.907 49.6293 133.573 46.5974 126.998 46.5943L126.688 46.5965C121.284 46.672 115.119 48.7256 108.37 52.7003C108.063 52.8812 107.681 52.8814 107.374 52.7007C100.561 48.6964 94.1208 46.5786 88.7508 46.5765L88.4461 46.5788C82.0223 46.6684 76.7977 49.6953 74.1187 54.8832C71.8762 59.2244 71.6335 64.5196 73.397 70.6223C74.4001 74.0955 76.0655 77.8218 78.3472 81.6981C78.5285 82.006 78.5283 82.3884 78.3463 82.6961C75.7545 87.083 73.9612 91.2533 73.0164 95.0909C71.6534 100.624 72.0166 105.475 74.0957 109.509C76.8193 114.793 82.1513 117.826 88.7246 117.829L89.0373 117.827C94.4307 117.751 100.587 115.702 107.327 111.736C107.481 111.646 107.653 111.6 107.826 111.6Z" fill="#DBDBDD"/>
<path d="M132.931 82.2419C136.128 77.2876 138.268 72.6678 139.297 68.4967C140.454 63.8087 140.188 59.7797 138.509 56.5217C136.377 52.3864 132.289 50.1078 126.998 50.1053C121.624 50.1049 115.033 52.5284 107.872 57.131C100.712 52.5217 94.1191 50.09 88.7524 50.0876C83.461 50.0892 79.3734 52.3606 77.2383 56.4944C75.4221 60.0111 75.2645 64.4367 76.7701 69.6483C77.8875 73.5168 79.9079 77.735 82.7807 82.2001C79.5888 87.1483 77.4524 91.7632 76.4259 95.9306C75.2719 100.616 75.5382 104.643 77.2174 107.901C79.3488 112.036 83.4356 114.315 88.7251 114.317C94.0871 114.319 100.663 111.903 107.81 107.318C113.304 110.839 121.026 114.367 127.345 114.37C127.347 114.37 127.35 114.37 127.352 114.37C127.434 114.37 127.514 114.37 127.594 114.368C131.06 114.321 133.92 113.259 136.097 111.209C138.528 108.92 139.832 105.637 139.973 101.451L139.978 101.304C139.98 101.252 139.979 101.201 139.976 101.149L139.969 101.002C139.757 97.027 138.752 91.3303 132.931 82.2419Z" fill="#262933"/>
<path d="M116.049 96.4452C121.199 96.3892 125.305 89.9309 125.219 82.02C125.133 74.1091 120.888 67.7414 115.737 67.7974C110.587 67.8533 106.481 74.3117 106.567 82.2226C106.653 90.1334 110.898 96.5011 116.049 96.4452Z" fill="white"/>
<path d="M116.088 98.0971C116.081 98.0971 116.074 98.0973 116.066 98.0973C112.998 98.1307 110.145 96.4049 108.034 93.2381C106.068 90.2887 104.96 86.3832 104.915 82.241C104.87 78.0987 105.893 74.1701 107.795 71.1788C109.832 67.9745 112.638 66.1879 115.698 66.1464C115.705 66.1463 115.712 66.1462 115.719 66.1462C118.788 66.1128 121.64 67.8386 123.752 71.0054C125.718 73.9548 126.825 77.8603 126.87 82.0025C126.915 86.1447 125.893 90.0734 123.991 93.0647C121.954 96.2691 119.148 98.0556 116.088 98.0971ZM115.743 69.4496C111.589 69.5059 108.144 75.3424 108.219 82.2051C108.293 89.0741 111.871 94.8392 116.031 94.794L116.043 94.7938C117.952 94.768 119.784 93.5251 121.203 91.2925C122.766 88.8348 123.605 85.5482 123.567 82.0384C123.492 75.1693 119.915 69.4043 115.755 69.4494L115.743 69.4496Z" fill="#262933"/>
<path d="M118.804 74.7319C116.598 74.7558 114.75 76.964 114.112 80.0109C113.997 80.5611 114.254 81.1229 114.736 81.4112L116.57 82.5067C117.233 82.9028 117.421 83.7779 116.979 84.4114L115.501 86.5311C115.185 86.9846 115.176 87.5905 115.493 88.0435C116.406 89.3491 117.631 90.1441 118.971 90.1296C121.739 90.0995 123.946 86.6282 123.9 82.3763C123.854 78.1244 121.572 74.7018 118.804 74.7319Z" fill="#262933"/>
<path d="M99.9885 96.6632C105.139 96.6072 109.245 90.1489 109.159 82.238C109.073 74.3271 104.828 67.9595 99.6773 68.0154C94.5268 68.0713 90.4212 74.5297 90.5071 82.4406C90.5931 90.3515 94.838 96.7191 99.9885 96.6632Z" fill="white"/>
<path d="M100.028 98.3151C100.021 98.3152 100.014 98.3153 100.006 98.3153C96.9378 98.3487 94.0853 96.6229 91.9742 93.4561C90.008 90.5067 88.9004 86.6012 88.8554 82.459C88.8104 78.3168 89.8329 74.3882 91.7345 71.3968C93.7715 68.1925 96.5778 66.4059 99.6377 66.3644C99.645 66.3644 99.6519 66.3642 99.6593 66.3642C102.728 66.3309 105.58 68.0566 107.691 71.2234C109.658 74.1728 110.765 78.0783 110.81 82.2205C110.855 86.3628 109.833 90.2914 107.931 93.2827C105.894 96.4871 103.088 98.2736 100.028 98.3151ZM99.6831 69.6676C95.5286 69.7239 92.0842 75.5604 92.1587 82.4231C92.2334 89.2921 95.8107 95.0572 99.9705 95.012L99.9826 95.0119C101.892 94.986 103.724 93.7431 105.143 91.5105C106.706 89.0528 107.545 85.7662 107.507 82.2564C107.432 75.3873 103.855 69.6223 99.6951 69.6674L99.6831 69.6676Z" fill="#262933"/>
<path d="M103.481 74.9389C101.275 74.9629 99.4263 77.171 98.789 80.2179C98.6739 80.7681 98.9305 81.3299 99.413 81.6182L101.246 82.7137C101.909 83.1098 102.097 83.9849 101.656 84.6184L100.178 86.7382C99.8618 87.1916 99.853 87.7975 100.17 88.2505C101.083 89.5562 102.308 90.3512 103.648 90.3366C106.416 90.3066 108.623 86.8353 108.577 82.5833C108.53 78.3314 106.249 74.9088 103.481 74.9389Z" fill="#262933"/>
</g>
<defs>
<filter id="filter0_d_9_13528" x="3.1538" y="-8.58307e-06" width="83.1717" height="81.8504" filterUnits="userSpaceOnUse" color-interpolation-filters="sRGB">
<feFlood flood-opacity="0" result="BackgroundImageFix"/>
<feColorMatrix in="SourceAlpha" type="matrix" values="0 0 0 0 0 0 0 0 0 0 0 0 0 0 0 0 0 0 127 0" result="hardAlpha"/>
<feOffset dx="7.8462" dy="7.8462"/>
<feGaussianBlur stdDeviation="7.8462"/>
<feColorMatrix type="matrix" values="0 0 0 0 0 0 0 0 0 0 0 0 0 0 0 0 0 0 0.25 0"/>
<feBlend mode="normal" in2="BackgroundImageFix" result="effect1_dropShadow_9_13528"/>
<feBlend mode="normal" in="SourceGraphic" in2="effect1_dropShadow_9_13528" result="shape"/>
</filter>
<filter id="filter1_d_9_13528" x="62.396" y="36.7656" width="106.626" height="106.619" filterUnits="userSpaceOnUse" color-interpolation-filters="sRGB">
<feFlood flood-opacity="0" result="BackgroundImageFix"/>
<feColorMatrix in="SourceAlpha" type="matrix" values="0 0 0 0 0 0 0 0 0 0 0 0 0 0 0 0 0 0 127 0" result="hardAlpha"/>
<feOffset dx="7.8462" dy="7.8462"/>
<feGaussianBlur stdDeviation="7.8462"/>
<feColorMatrix type="matrix" values="0 0 0 0 0 0 0 0 0 0 0 0 0 0 0 0 0 0 0.25 0"/>
<feBlend mode="normal" in2="BackgroundImageFix" result="effect1_dropShadow_9_13528"/>
<feBlend mode="normal" in="SourceGraphic" in2="effect1_dropShadow_9_13528" result="shape"/>
</filter>
<linearGradient id="paint0_linear_9_13528" x1="31.2709" y1="83.8253" x2="106.132" y2="26.1568" gradientUnits="userSpaceOnUse">
<stop stop-color="#F2F2F2" stop-opacity="0.8"/>
<stop offset="0.2898" stop-color="#F2F2F2" stop-opacity="0.7881"/>
<stop offset="0.4827" stop-color="#F3F3F3" stop-opacity="0.7494"/>
<stop offset="0.6474" stop-color="#F5F5F5" stop-opacity="0.6836"/>
<stop offset="0.7962" stop-color="#F8F8F8" stop-opacity="0.5906"/>
<stop offset="0.933" stop-color="#FCFCFC" stop-opacity="0.4714"/>
<stop offset="1" stop-color="white" stop-opacity="0.4"/>
</linearGradient>
<linearGradient id="paint1_linear_9_13528" x1="80.0997" y1="-39.5813" x2="39.7706" y2="34.6251" gradientUnits="userSpaceOnUse">
<stop stop-color="#EBEBEB"/>
<stop offset="0.2542" stop-color="#EBEBEB" stop-opacity="0.9877"/>
<stop offset="0.4234" stop-color="#ECECEC" stop-opacity="0.9477"/>
<stop offset="0.5678" stop-color="#EFEFEF" stop-opacity="0.8797"/>
<stop offset="0.6983" stop-color="#F2F2F2" stop-opacity="0.7835"/>
<stop offset="0.8195" stop-color="#F6F6F6" stop-opacity="0.659"/>
<stop offset="0.9321" stop-color="#FBFBFB" stop-opacity="0.5085"/>
<stop offset="1" stop-color="white" stop-opacity="0.4"/>
</linearGradient>
<linearGradient id="paint2_linear_9_13528" x1="61.0717" y1="159.406" x2="101.171" y2="93.2822" gradientUnits="userSpaceOnUse">
<stop stop-color="white"/>
<stop offset="0.2419" stop-color="white" stop-opacity="0.9893"/>
<stop offset="0.403" stop-color="white" stop-opacity="0.9545"/>
<stop offset="0.5404" stop-color="white" stop-opacity="0.8954"/>
<stop offset="0.6647" stop-color="white" stop-opacity="0.8118"/>
<stop offset="0.78" stop-color="white" stop-opacity="0.7036"/>
<stop offset="0.8888" stop-color="white" stop-opacity="0.5706"/>
<stop offset="0.9906" stop-color="white" stop-opacity="0.4159"/>
<stop offset="1" stop-color="white" stop-opacity="0.4"/>
</linearGradient>
</defs>
</svg>
