<svg width="174" height="152" viewBox="0 0 174 152" fill="none" xmlns="http://www.w3.org/2000/svg">
<g filter="url(#filter0_d_9_13026)">
<path d="M79.0824 127.389C72.5189 127.389 66.7819 124.66 62.9289 119.705C59.2739 115.003 57.6338 108.85 58.0547 101.416C58.3384 96.3965 59.5838 90.7786 61.7562 84.7182L62.0455 83.9109L61.485 83.2618C57.7778 78.9702 54.855 74.7202 52.7965 70.6289C49.0683 63.2188 48.1117 56.3497 49.9545 50.2114C52.1675 42.8429 58.192 37.6603 66.4825 35.9925L66.8642 35.9179C68.7295 35.5702 70.7392 35.3922 72.8269 35.3922C78.4128 35.3922 84.7715 36.6539 91.7267 39.142L92.534 39.4309L93.1826 38.8703C100.734 32.3436 108.019 28.3395 114.835 26.9682C114.961 26.9424 115.086 26.918 115.21 26.895C116.825 26.5937 118.43 26.4412 119.983 26.4412C126.548 26.4412 132.285 29.1698 136.138 34.1243C139.794 38.8263 141.433 44.9828 141.009 52.4221C140.723 57.4479 139.474 63.073 137.297 69.1415L137.007 69.9498L137.569 70.5993C145.795 80.1085 148.221 86.9777 149.415 91.8997L149.462 92.092C149.51 92.2895 149.55 92.4966 149.582 92.7066L149.61 92.8888C150.628 99.5647 149.453 105.266 146.117 109.837C143.134 113.924 138.622 116.675 133.07 117.792L132.678 117.869C130.842 118.211 128.834 118.385 126.718 118.385C119.488 118.385 112.166 116.382 107.299 114.701L106.499 114.425L105.858 114.978C98.3121 121.495 91.036 125.493 84.2324 126.861L83.845 126.937C82.239 127.237 80.6349 127.389 79.0824 127.389Z" fill="white"/>
<path d="M131.233 71.024C134.103 64.0038 135.716 57.6568 136.03 52.1398C136.383 45.9392 135.094 40.9081 132.2 37.1864C128.527 32.4624 122.82 30.5486 116.13 31.7973C109.335 33.0681 101.576 37.6914 93.6117 45.2044C83.4681 41.071 74.5581 39.5562 67.7726 40.8228C61.0833 42.0765 56.4528 45.9153 54.7314 51.6467C53.2672 56.5226 54.1149 62.1551 57.2513 68.388C59.5791 73.0145 63.1314 77.8695 67.8197 82.8351C64.9549 89.8463 63.3457 96.1862 63.0338 101.698C62.6832 107.894 63.9727 112.923 66.8663 116.645C70.5393 121.369 76.2453 123.283 82.9331 122.035C89.7126 120.768 97.4543 116.158 105.406 108.67C113.185 111.822 123.782 114.456 131.771 112.965C131.775 112.964 131.778 112.964 131.781 112.963C131.884 112.944 131.985 112.924 132.087 112.904C136.457 112.024 139.821 110.005 142.089 106.897C144.621 103.428 145.493 98.9692 144.681 93.6433L144.652 93.4565C144.642 93.3909 144.629 93.3258 144.613 93.2614L144.569 93.0769C143.361 88.1016 140.743 81.1371 131.233 71.024Z" fill="#262933"/>
<path d="M120.011 33.6288C124.349 33.6288 127.963 35.3269 130.46 38.5393C133.018 41.8279 134.152 46.3617 133.83 52.0145C133.53 57.2833 131.97 63.3983 129.193 70.1898C128.866 70.9887 129.036 71.905 129.627 72.5338C138.812 82.301 141.292 88.9208 142.427 93.5971L142.473 93.7911L142.502 93.9757C143.223 98.7053 142.486 102.616 140.309 105.598C138.377 108.245 135.464 109.976 131.652 110.743C131.561 110.761 131.471 110.779 131.379 110.796C131.375 110.797 131.371 110.798 131.367 110.798C129.977 111.058 128.428 111.19 126.765 111.19C120.872 111.19 113.389 109.527 106.233 106.627C105.965 106.519 105.685 106.466 105.406 106.466C104.854 106.466 104.311 106.673 103.895 107.065C96.2594 114.256 88.8711 118.683 82.5286 119.868C81.338 120.09 80.1689 120.203 79.0542 120.203C74.7171 120.203 71.1042 118.505 68.6061 115.292C66.0489 112.003 64.9145 107.471 65.2341 101.822C65.5319 96.5597 67.0882 90.4519 69.8599 83.6688C70.1869 82.8685 70.0158 81.9508 69.4223 81.3222C64.8819 76.5134 61.4495 71.8284 59.22 67.3973C56.3454 61.6848 55.5454 56.5989 56.8422 52.2807C58.3131 47.3833 62.3391 44.0834 68.177 42.9893C69.5889 42.7257 71.1318 42.5923 72.7629 42.5923C78.4683 42.5923 85.2032 44.1579 92.7799 47.2456C93.049 47.3552 93.3312 47.4085 93.6112 47.4085C94.1634 47.4085 94.7072 47.2009 95.124 46.8078C102.771 39.5948 110.174 35.1534 116.534 33.9639C117.725 33.7415 118.895 33.6288 120.011 33.6288ZM120.011 31.4248C118.762 31.4248 117.466 31.5481 116.13 31.7974C109.335 33.0681 101.576 37.6915 93.6117 45.2045C85.7936 42.0187 78.7075 40.3884 72.7629 40.3884C70.9949 40.3884 69.3282 40.5325 67.7727 40.8228C61.0833 42.0766 56.4527 45.9154 54.7314 51.6467C53.2672 56.5227 54.1149 62.1551 57.2513 68.388C59.5791 73.0146 63.1315 77.8697 67.8197 82.8352C64.9548 89.8464 63.3456 96.1862 63.0337 101.698C62.6832 107.894 63.9726 112.923 66.8664 116.645C69.806 120.426 74.0489 122.407 79.0543 122.407C80.3027 122.407 81.5979 122.284 82.9331 122.035C89.7126 120.768 97.4542 116.158 105.406 108.67C111.645 111.198 119.699 113.393 126.765 113.393C128.508 113.393 130.191 113.26 131.771 112.965C131.775 112.964 131.778 112.964 131.781 112.963C131.884 112.944 131.985 112.924 132.087 112.904C136.457 112.024 139.821 110.005 142.089 106.897C144.621 103.428 145.493 98.9692 144.681 93.6433L144.652 93.4565C144.642 93.3909 144.629 93.3259 144.613 93.2613L144.569 93.0769C143.361 88.1016 140.743 81.1371 131.233 71.0239C134.103 64.0038 135.716 57.6567 136.03 52.1398C136.383 45.9392 135.094 40.9081 132.2 37.1864C129.261 33.4057 125.017 31.4248 120.011 31.4248Z" fill="#262933"/>
<path d="M113.25 92.9789C119.748 91.6897 123.411 82.5531 121.431 72.5717C119.451 62.5904 112.577 55.544 106.079 56.8332C99.5807 58.1224 95.918 67.259 97.8981 77.2403C99.8783 87.2217 106.751 94.2681 113.25 92.9789Z" fill="white"/>
<path d="M111.596 64.8748C108.813 65.4268 106.998 68.6559 106.913 72.6589C106.898 73.3817 107.355 74.0313 108.034 74.2816L110.611 75.2329C111.543 75.5769 111.987 76.6387 111.579 77.5441L110.212 80.5737C109.92 81.2219 110.052 81.99 110.56 82.4877C112.023 83.9224 113.76 84.6377 115.45 84.3024C118.943 83.6095 120.912 78.6987 119.847 73.3339C118.783 67.9692 115.089 64.1819 111.596 64.8748Z" fill="#262933"/>
<path d="M92.9971 97.0528C99.4955 95.7636 103.158 86.6271 101.178 76.6457C99.1979 66.6644 92.3247 59.618 85.8264 60.9072C79.328 62.1964 75.6653 71.3329 77.6454 81.3143C79.6256 91.2956 86.4988 98.342 92.9971 97.0528Z" fill="white"/>
<path d="M92.2728 68.761C89.4902 69.313 87.6751 72.5422 87.5902 76.5451C87.5749 77.2679 88.0321 77.9175 88.7104 78.1679L91.2876 79.1191C92.2194 79.4631 92.6642 80.525 92.2557 81.4303L90.8888 84.46C90.5963 85.1081 90.7286 85.8762 91.2364 86.374C92.7 87.8086 94.4367 88.524 96.1269 88.1886C99.6197 87.4957 101.588 82.5849 100.524 77.2202C99.4598 71.8554 95.7655 68.0681 92.2728 68.761Z" fill="#262933"/>
</g>
<g filter="url(#filter1_d_9_13026)">
<path d="M52.16 112.926C46.5507 112.926 41.5661 110.834 37.7446 106.875C33.6089 102.591 31.3217 96.6471 30.9468 89.2103C30.6938 84.1897 31.3327 78.4709 32.8455 72.2135L33.0469 71.3798L32.4204 70.7944C28.2775 66.9236 24.9181 63.0093 22.4343 59.1606C17.9366 52.1905 16.253 45.4625 17.4305 39.1625C18.8443 31.6004 24.2814 25.8045 32.3472 23.2615L32.7183 23.1472C35.7846 22.2274 39.2555 21.7592 43.0238 21.7592C47.4786 21.7592 52.4441 22.4125 57.7831 23.7L58.6163 23.9014L59.2013 23.2749C66.0129 15.9796 72.8289 11.2206 79.4603 9.13005L79.8296 9.01623C82.2468 8.29115 84.6559 7.92334 86.9895 7.92334C92.5992 7.92334 97.5843 10.0149 101.405 13.9727C105.542 18.2576 107.828 24.2041 108.201 31.6468C108.453 36.6745 107.811 42.401 106.293 48.667L106.092 49.5016L106.719 50.087C115.914 58.6646 119.058 65.2358 120.77 70.0023L120.836 70.186C120.907 70.3812 120.969 70.5835 121.023 70.7867L121.07 70.9656C122.795 77.4942 122.235 83.2886 119.405 88.1887C116.875 92.5707 112.683 95.7872 107.281 97.4903L106.9 97.6075C103.82 98.5311 100.246 99.0008 96.2839 99.0008C90.5292 99.0008 84.974 98.0031 81.3271 97.1665L80.5025 96.9771L79.9252 97.5951C73.1169 104.88 66.3085 109.632 59.6896 111.718L59.3117 111.835C56.9003 112.558 54.4921 112.926 52.16 112.926Z" fill="white"/>
<path d="M100.465 51.1844C102.57 43.898 103.496 37.4151 103.22 31.8961C102.909 25.6933 101.091 20.8284 97.8167 17.4366C93.6604 13.1315 87.7816 11.8376 81.2628 13.7929C74.6429 15.7812 67.4214 21.2059 60.3038 29.5258C49.7771 26.4982 40.7564 25.9426 34.1447 27.9259C27.6273 29.8861 23.4328 34.197 22.3327 40.0793C21.397 45.0836 22.8408 50.5936 26.6242 56.4562C29.4324 60.808 33.4823 65.2563 38.6736 69.6934C36.5731 76.9702 35.6494 83.4456 35.9274 88.9592C36.2399 95.1575 38.0584 100.02 41.3327 103.412C45.4887 107.717 51.3663 109.012 57.8828 107.057C64.4884 105.074 71.6941 99.6647 78.8012 91.3708C86.8721 93.6751 97.6901 95.1632 105.475 92.8285C105.478 92.8275 105.481 92.8265 105.484 92.8257C105.584 92.7955 105.683 92.7651 105.782 92.734C110.033 91.3934 113.163 89.0262 115.086 85.6946C117.234 81.9752 117.625 77.4486 116.249 72.2399L116.2 72.0572C116.184 71.9931 116.164 71.9297 116.141 71.8673L116.077 71.6886C114.346 66.8706 110.999 60.2252 100.465 51.1844Z" fill="#262933"/>
<path d="M84.9264 74.9299C91.2501 72.9548 93.9172 63.4796 90.8835 53.7664C87.8498 44.0533 80.2641 37.7804 73.9403 39.7555C67.6166 41.7306 64.9495 51.2058 67.9833 60.919C71.017 70.6321 78.6027 76.905 84.9264 74.9299Z" fill="white"/>
<path d="M85.5862 76.9503C85.5773 76.9531 85.5686 76.9558 85.5597 76.9585C81.7923 78.1353 77.6396 77.0652 73.867 73.9455C70.3536 71.0401 67.5437 66.6389 65.9553 61.553C64.3668 56.4672 64.1723 51.2492 65.4077 46.8606C66.7308 42.1596 69.5266 38.9201 73.2805 37.7365C73.2895 37.7337 73.298 37.731 73.307 37.7283C77.0744 36.5515 81.227 37.6216 84.9996 40.7413C88.513 43.6468 91.323 48.0479 92.9114 53.1338C94.4998 58.2197 94.6943 63.4376 93.4589 67.8263C92.1357 72.5274 89.3403 75.7666 85.5862 76.9503ZM74.559 41.7887C69.462 43.3957 67.3793 51.8601 70.011 60.2863C72.6453 68.7202 79.1856 74.4979 84.2929 72.9027L84.3078 72.898C86.65 72.1596 88.447 69.9504 89.369 66.675C90.3839 63.0692 90.2016 58.71 88.8556 54.4005C86.2214 45.9666 79.6811 40.1889 74.5737 41.7841L74.559 41.7887Z" fill="#262933"/>
<path d="M80.2836 47.1609C77.5758 48.0067 76.1157 51.411 76.4583 55.4002C76.5201 56.1205 77.0441 56.7176 77.7451 56.8942L80.4091 57.5651C81.3723 57.8076 81.9279 58.816 81.6183 59.7598L80.5824 62.918C80.3607 63.5936 80.5742 64.3432 81.1322 64.784C82.7404 66.0543 84.5436 66.5803 86.1884 66.0665C89.5873 65.0049 91.0208 59.9122 89.3903 54.6915C87.7597 49.4709 83.6826 46.0993 80.2836 47.1609Z" fill="#262933"/>
<path d="M65.224 81.1411C71.5477 79.1659 74.2148 69.6907 71.1811 59.9776C68.1474 50.2645 60.5617 43.9916 54.238 45.9667C47.9142 47.9418 45.2471 57.417 48.2809 67.1301C51.3146 76.8433 58.9003 83.1162 65.224 81.1411Z" fill="white"/>
<path d="M65.8839 83.1614C65.8749 83.1642 65.8663 83.167 65.8573 83.1697C62.0898 84.3465 57.9373 83.2764 54.1647 80.1567C50.6511 77.2512 47.8413 72.8501 46.2529 67.7642C44.6644 62.6783 44.4699 57.4605 45.7052 53.0718C47.0285 48.3707 49.8241 45.1313 53.578 43.9477C53.587 43.9449 53.5955 43.9422 53.6045 43.9395C57.372 42.7627 61.5245 43.8328 65.2971 46.9525C68.8106 49.858 71.6205 54.2591 73.2089 59.345C74.7974 64.4309 74.9918 69.6488 73.7565 74.0374C72.4333 78.7386 69.6378 81.9778 65.8839 83.1614ZM54.8565 47.9999C49.7597 49.6069 47.677 58.0712 50.3087 66.4974C52.9429 74.9314 59.4832 80.709 64.5906 79.1139L64.6054 79.1092C66.9476 78.3707 68.7445 76.1616 69.6665 72.8862C70.6814 69.2804 70.4992 64.9212 69.1532 60.6117C66.5189 52.1778 59.9787 46.4001 54.8713 47.9953L54.8565 47.9999Z" fill="#262933"/>
<path d="M61.485 53.0884C58.7772 53.9341 57.3171 57.3385 57.6597 61.3277C57.7215 62.048 58.2455 62.6451 58.9465 62.8217L61.6105 63.4926C62.5737 63.7351 63.1293 64.7435 62.8197 65.6873L61.7838 68.8455C61.5621 69.5211 61.7756 70.2707 62.3336 70.7115C63.9418 71.9818 65.745 72.5077 67.3898 71.994C70.7887 70.9324 72.2222 65.8396 70.5917 60.619C68.9612 55.3984 64.884 52.0268 61.485 53.0884Z" fill="#262933"/>
</g>
<defs>
<filter id="filter0_d_9_13026" x="41.1203" y="18.5178" width="132.615" height="132.642" filterUnits="userSpaceOnUse" color-interpolation-filters="sRGB">
<feFlood flood-opacity="0" result="BackgroundImageFix"/>
<feColorMatrix in="SourceAlpha" type="matrix" values="0 0 0 0 0 0 0 0 0 0 0 0 0 0 0 0 0 0 127 0" result="hardAlpha"/>
<feOffset dx="7.9234" dy="7.9234"/>
<feGaussianBlur stdDeviation="7.9234"/>
<feColorMatrix type="matrix" values="0 0 0 0 0 0 0 0 0 0 0 0 0 0 0 0 0 0 0.25 0"/>
<feBlend mode="normal" in2="BackgroundImageFix" result="effect1_dropShadow_9_13026"/>
<feBlend mode="normal" in="SourceGraphic" in2="effect1_dropShadow_9_13026" result="shape"/>
</filter>
<filter id="filter1_d_9_13026" x="9.14325" y="-6.00815e-05" width="136.675" height="136.696" filterUnits="userSpaceOnUse" color-interpolation-filters="sRGB">
<feFlood flood-opacity="0" result="BackgroundImageFix"/>
<feColorMatrix in="SourceAlpha" type="matrix" values="0 0 0 0 0 0 0 0 0 0 0 0 0 0 0 0 0 0 127 0" result="hardAlpha"/>
<feOffset dx="7.9234" dy="7.9234"/>
<feGaussianBlur stdDeviation="7.9234"/>
<feColorMatrix type="matrix" values="0 0 0 0 0 0 0 0 0 0 0 0 0 0 0 0 0 0 0.25 0"/>
<feBlend mode="normal" in2="BackgroundImageFix" result="effect1_dropShadow_9_13026"/>
<feBlend mode="normal" in="SourceGraphic" in2="effect1_dropShadow_9_13026" result="shape"/>
</filter>
</defs>
</svg>
