<svg width="160" height="141" viewBox="0 0 160 141" fill="none" xmlns="http://www.w3.org/2000/svg">
<g filter="url(#filter0_d_1001_10539)">
<path d="M75.1691 118.684C52.6014 130.687 24.4607 122.121 12.4387 99.5898C0.416574 77.0581 8.99607 48.9624 31.5637 36.9597C54.1314 24.9569 82.2722 33.5227 94.2943 56.0544C106.316 78.5859 97.7367 106.682 75.1691 118.684Z" fill="white"/>
<path d="M53.3667 118.924C76.1032 118.924 94.5347 100.522 94.5347 77.822C94.5347 55.122 76.1032 36.72 53.3667 36.72C30.6303 36.72 12.1987 55.122 12.1987 77.822C12.1987 100.522 30.6303 118.924 53.3667 118.924Z" fill="url(#paint0_linear_1001_10539)"/>
<path d="M53.3345 38.8441C67.8052 38.8441 81.0176 46.759 87.8157 59.5C92.7176 68.687 93.7427 79.23 90.7022 89.1867C87.6617 99.1435 80.9196 107.322 71.7179 112.216C66.0796 115.215 59.7461 116.8 53.4021 116.8C38.9294 116.8 25.7155 108.885 18.9174 96.1442C14.0156 86.957 12.9905 76.414 16.0309 66.4573C19.0714 56.5007 25.8134 48.3219 35.0151 43.428C40.6526 40.4297 46.9862 38.8446 53.334 38.844L53.3345 38.8441ZM53.3311 36.7118C46.8023 36.7124 40.1753 38.2677 34.011 41.5461C13.9443 52.2187 6.3427 77.1119 17.0325 97.1466C24.4384 111.027 38.6777 118.932 53.4021 118.932C59.9309 118.932 66.5577 117.376 72.722 114.098C92.7888 103.425 100.39 78.5321 89.7006 58.4975C82.2947 44.6173 68.0555 36.7106 53.3311 36.7118Z" fill="#262933"/>
<path d="M71.7579 68.3672C72.2301 63.5319 72.0534 59.3407 71.231 55.8976C70.3067 52.0279 68.5888 49.1773 66.1251 47.4254C62.998 45.2015 59.1379 45.0759 55.2558 47.0714C51.3137 49.0996 47.3957 53.3624 43.8832 59.4362C36.8879 58.7636 31.1328 59.4713 27.1953 61.4953C23.3146 63.4938 21.1751 66.7003 21.1719 70.5336C21.1693 73.7947 22.727 77.0953 25.8017 80.3437C28.084 82.7549 31.1608 85.0814 34.9563 87.267C34.4858 92.0958 34.6636 96.2819 35.4863 99.7214C36.4112 103.588 38.1292 106.437 40.5927 108.189C43.7196 110.413 47.579 110.539 51.4597 108.544C55.3934 106.521 59.3033 102.27 62.8123 96.2139C68.1736 96.7188 75.1718 96.3878 79.8078 94.0048C79.8097 94.0039 79.8115 94.0029 79.8134 94.002C79.873 93.9713 79.9317 93.9406 79.9903 93.9094C82.5145 92.5668 84.2107 90.7091 85.0328 88.3856C85.9505 85.7916 85.6658 82.8951 84.1861 79.7763L84.1342 79.6669C84.116 79.6285 84.0961 79.5909 84.0746 79.5543L84.0131 79.4493C82.3554 76.6181 79.4643 72.8256 71.7579 68.3672Z" fill="#262933"/>
<path d="M64.7452 85.1423C68.502 83.1572 69.0717 76.8776 66.0177 71.1165C62.9636 65.3554 57.4424 62.2944 53.6856 64.2796C49.9288 66.2647 49.3591 72.5443 52.4131 78.3054C55.4671 84.0665 60.9884 87.1275 64.7452 85.1423Z" fill="white"/>
<path d="M65.3988 86.3369C65.3935 86.3397 65.3884 86.3425 65.3831 86.3452C63.1449 87.5279 60.4 87.3409 57.6541 85.8185C55.0968 84.4007 52.8077 81.9586 51.2086 78.942C49.6095 75.9255 48.8742 72.6623 49.138 69.7538C49.4206 66.6383 50.8037 64.2705 53.0325 63.0851C53.0378 63.0823 53.0429 63.0796 53.0482 63.0768C55.2864 61.8941 58.0313 62.0811 60.7772 63.6035C63.3345 65.0213 65.6236 67.4634 67.2227 70.48C68.8218 73.4965 69.5571 76.7597 69.2933 79.6682C69.0106 82.7838 67.6278 85.1514 65.3988 86.3369ZM54.3147 65.4871C51.2885 67.0966 50.9687 72.6711 53.6181 77.6688C56.2699 82.6712 61.0737 85.5429 64.1079 83.9396L64.1167 83.9349C65.5073 83.1953 66.3814 81.5934 66.5783 79.4227C66.7951 77.033 66.1682 74.3092 64.8133 71.7532C62.1614 66.7508 57.3576 63.8791 54.3235 65.4824L54.3147 65.4871Z" fill="#262933"/>
<path d="M58.5565 68.2001C56.9479 69.0501 56.4266 71.3651 57.1111 73.8371C57.2347 74.2835 57.6353 74.5981 58.0982 74.6271L59.8573 74.7372C60.4933 74.7771 60.9621 75.347 60.8777 75.9776L60.5951 78.0879C60.5346 78.5393 60.7573 78.9863 61.161 79.1985C62.3246 79.8099 63.5237 79.9297 64.5009 79.4134C66.5201 78.3464 66.8263 74.9712 65.1848 71.8748C63.5433 68.7783 60.5757 67.1331 58.5565 68.2001Z" fill="#262933"/>
<path d="M53.0474 91.364C56.8042 89.3789 57.3739 83.0993 54.3199 77.3382C51.2659 71.5771 45.7446 68.5161 41.9878 70.5013C38.231 72.4864 37.6613 78.766 40.7154 84.5271C43.7694 90.2882 49.2907 93.3492 53.0474 91.364Z" fill="white"/>
<path d="M53.7007 92.5586C53.6953 92.5614 53.6902 92.5641 53.6849 92.5669C51.4467 93.7496 48.7018 93.5625 45.9559 92.0402C43.3986 90.6225 41.1095 88.1803 39.5104 85.1637C37.9113 82.1471 37.1759 78.8841 37.4398 75.9755C37.7224 72.8599 39.1054 70.4922 41.3343 69.3068C41.3396 69.304 41.3446 69.3013 41.35 69.2985C43.5882 68.1157 46.333 68.3028 49.0789 69.8252C51.6362 71.243 53.9254 73.6851 55.5244 76.7017C57.1235 79.7183 57.8589 82.9814 57.595 85.8899C57.3124 89.0055 55.9295 91.3731 53.7007 92.5586ZM42.6164 71.7088C39.5903 73.3182 39.2705 78.8927 41.9199 83.8905C44.5717 88.8929 49.3755 91.7646 52.4096 90.1613L52.4184 90.1566C53.8091 89.417 54.6831 87.8151 54.88 85.6444C55.0968 83.2547 54.47 80.5309 53.115 77.9749C50.4631 72.9725 45.6594 70.1008 42.6252 71.7041L42.6164 71.7088Z" fill="#262933"/>
<path d="M47.3949 74.1363C45.7862 74.9864 45.265 77.3014 45.9495 79.7734C46.0731 80.2198 46.4737 80.5343 46.9366 80.5633L48.6957 80.6735C49.3317 80.7133 49.8005 81.2833 49.7161 81.9139L49.4335 84.0241C49.373 84.4756 49.5957 84.9226 49.9994 85.1348C51.163 85.7462 52.3621 85.866 53.3392 85.3497C55.3585 84.2827 55.6647 80.9075 54.0232 77.811C52.3817 74.7145 49.4141 73.0693 47.3949 74.1363Z" fill="#262933"/>
</g>
<g filter="url(#filter1_d_1001_10539)">
<path d="M133.953 36.381L87.4352 10.4341C79.1975 5.83917 68.7886 8.78155 64.1864 17.0061L38.1979 63.449C33.5956 71.6735 36.5427 82.0657 44.7804 86.6606L91.2977 112.607C99.5355 117.202 109.944 114.26 114.547 106.035L140.535 59.5926C145.137 51.3681 142.19 40.9759 133.953 36.381Z" fill="white"/>
<path d="M111.153 101.447L134.842 59.1127C138.677 52.259 136.221 43.5988 129.356 39.7697L86.9547 16.1185C80.0899 12.2894 71.4159 14.7414 67.5806 21.5951L43.8915 63.929C40.0562 70.7827 42.5122 79.4429 49.3769 83.272L91.7786 106.923C98.6434 110.752 107.317 108.3 111.153 101.447Z" fill="url(#paint1_linear_1001_10539)"/>
<path d="M79.5509 16.0016C81.3927 16.0016 83.2226 16.4793 84.8428 17.383L129.385 42.2282C131.921 43.6429 133.754 45.9589 134.545 48.7498C135.337 51.5406 134.992 54.472 133.575 57.0043L108.69 101.475C106.769 104.908 103.127 107.04 99.1834 107.04C97.3411 107.04 95.5109 106.563 93.8907 105.659L49.3484 80.8137C44.1128 77.8933 42.233 71.2647 45.158 66.0375L70.0431 21.5666C71.9637 18.1343 75.6066 16.0019 79.5505 16.0016H79.5509ZM79.55 13.8693C74.9887 13.8696 70.5614 16.2686 68.1786 20.5267L43.2936 64.9976C39.7886 71.2612 42.0331 79.1756 48.3067 82.6751L92.849 107.52C94.8578 108.641 97.0351 109.173 99.1834 109.173C103.745 109.173 108.172 106.773 110.555 102.515L135.44 58.0442C138.945 51.7806 136.7 43.8661 130.427 40.3668L85.8845 15.5215C83.8757 14.4011 81.6983 13.8691 79.55 13.8693Z" fill="#262933"/>
<path d="M107.283 71.8448C111.611 69.6245 115.046 67.208 117.501 64.6542C120.26 61.784 121.731 58.7991 121.873 55.7824C122.054 51.9535 120.071 48.6448 116.289 46.4655C112.448 44.2535 106.737 43.271 99.7203 43.609C96.5011 37.3721 92.7905 32.9233 88.9548 30.7129C85.1714 28.5364 81.3129 28.4754 78.0825 30.5472C75.3345 32.3098 73.3975 35.4038 72.3255 39.7432C71.5298 42.9642 71.2353 46.8065 71.4485 51.1758C67.1269 53.3941 63.6973 55.8087 61.2456 58.3608C58.4894 61.2299 57.0196 64.2141 56.8771 67.2305C56.6961 71.0594 58.6785 74.3678 62.459 76.5463C66.2917 78.7541 71.9882 79.736 78.988 79.4045C81.4642 84.1789 85.5304 89.8752 90.0463 92.4778C90.0481 92.4788 90.0499 92.4798 90.0517 92.4809C90.1098 92.5143 90.1675 92.547 90.2255 92.5793C92.7223 93.9719 95.205 94.3907 97.6068 93.8234C100.288 93.1901 102.574 91.3835 104.4 88.4534L104.464 88.3506C104.486 88.3145 104.507 88.2775 104.526 88.2396L104.582 88.1312C106.069 85.2073 107.699 80.7276 107.283 71.8448Z" fill="#262933"/>
<path d="M101.861 68.5137C105.061 62.8318 104.651 56.5399 100.946 54.4601C97.2405 52.3804 91.6432 55.3005 88.4437 60.9823C85.2441 66.6641 85.654 72.9561 89.3591 75.0358C93.0642 77.1156 98.6615 74.1955 101.861 68.5137Z" fill="white"/>
<path d="M88.7064 76.2307C88.7012 76.2278 88.6961 76.225 88.6909 76.222C86.4835 74.983 85.1556 72.5772 84.9517 69.448C84.7619 66.5337 85.58 63.2902 87.2554 60.3152C88.9307 57.3401 91.2811 54.9568 93.8736 53.6043C96.6507 52.1556 99.3934 52.0353 101.598 53.265C101.603 53.268 101.608 53.2708 101.614 53.2738C103.821 54.5127 105.149 56.9185 105.353 60.0477C105.542 62.962 104.724 66.2055 103.049 69.1805C101.374 72.1556 99.0233 74.5389 96.4308 75.8914C93.6536 77.3402 90.9112 77.4605 88.7064 76.2307ZM100.269 55.6414C97.2755 53.9717 92.4073 56.72 89.6316 61.6491C86.8535 66.5826 87.0345 72.1698 90.0269 73.8495L90.0356 73.8543C91.4111 74.6216 93.2333 74.4885 95.1682 73.4791C97.2983 72.3678 99.2532 70.3675 100.673 67.8466C103.451 62.9131 103.27 57.3259 100.277 55.6462L100.269 55.6414Z" fill="#262933"/>
<path d="M100.279 60.6709C98.6928 59.7804 96.4609 60.5956 94.7493 62.508C94.4403 62.8534 94.3921 63.36 94.6182 63.7643L95.4774 65.3008C95.788 65.8563 95.5618 66.5584 94.9849 66.8288L93.0546 67.7335C92.6416 67.9271 92.3856 68.356 92.4254 68.8097C92.5401 70.1175 93.0882 71.189 94.0519 71.73C96.0433 72.8478 99.0518 71.2783 100.771 68.2244C102.491 65.1706 102.271 61.7888 100.279 60.6709Z" fill="#262933"/>
<path d="M90.2902 62.0594C93.4898 56.3776 93.0799 50.0856 89.3748 48.0059C85.6697 45.9262 80.0724 48.8462 76.8729 54.5281C73.6733 60.2099 74.0832 66.5019 77.7883 68.5816C81.4934 70.6613 87.0907 67.7413 90.2902 62.0594Z" fill="white"/>
<path d="M77.1356 69.7765C77.1304 69.7736 77.1253 69.7708 77.1201 69.7678C74.9127 68.5288 73.5848 66.123 73.381 62.9938C73.1911 60.0795 74.0092 56.836 75.6846 53.861C77.3599 50.8859 79.7102 48.5026 82.3028 47.1501C85.0799 45.7014 87.8225 45.5811 90.0272 46.8108C90.0324 46.8137 90.0374 46.8165 90.0427 46.8195C92.2501 48.0585 93.578 50.4642 93.7818 53.5935C93.9716 56.5077 93.1536 59.7513 91.4782 62.7263C89.8029 65.7013 87.4525 68.0846 84.8599 69.4371C82.0829 70.886 79.3403 71.0062 77.1356 69.7765ZM88.698 49.1872C85.7047 47.5175 80.8365 50.2659 78.0608 55.1949C75.2827 60.1284 75.4637 65.7156 78.4561 67.3953L78.4648 67.4001C79.8403 68.1674 81.6625 68.0343 83.5974 67.0249C85.7274 65.9136 87.6823 63.9133 89.1019 61.3924C91.88 56.4588 91.699 50.8717 88.7066 49.192L88.698 49.1872Z" fill="#262933"/>
<path d="M89.2398 54.5129C87.6533 53.6224 85.4213 54.4376 83.7098 56.3501C83.4007 56.6954 83.3525 57.202 83.5786 57.6063L84.4378 59.1428C84.7485 59.6984 84.5222 60.4004 83.9454 60.6708L82.0151 61.5756C81.6021 61.7692 81.3461 62.198 81.3859 62.6517C81.5006 63.9595 82.0486 65.0311 83.0123 65.572C85.0038 66.6898 88.0123 65.1204 89.732 62.0665C91.4517 59.0126 91.2313 55.6308 89.2398 54.5129Z" fill="#262933"/>
</g>
<g filter="url(#filter2_d_1001_10539)">
<path d="M97.1698 79.9792C89.925 82.1484 81.2917 80.8713 75.9429 79.6457C70.3106 85.6626 64.6622 89.5889 59.1214 91.333C59.016 91.3662 58.9099 91.3988 58.8049 91.4305C51.6966 93.5594 44.9237 91.9915 40.222 87.1289C36.6835 83.4688 34.7282 78.429 34.4111 72.1494C34.2009 67.9861 34.7261 63.2825 35.9735 58.1318C32.5605 54.9481 29.7967 51.7329 27.7366 48.5454C23.9409 42.6729 22.5269 36.9687 23.5336 31.5918C24.7567 25.0618 29.4342 20.0652 36.3667 17.883L36.6731 17.7888C42.3212 16.0973 49.3161 16.2422 57.5059 18.2143C63.1413 12.189 68.7963 8.25661 74.3468 6.5094C74.451 6.47657 74.5554 6.44439 74.6593 6.41324C81.7705 4.28364 88.5441 5.85126 93.2457 10.7134C96.7852 14.3739 98.74 19.4163 99.055 25.7005C99.2644 29.8699 98.7366 34.5794 97.4856 39.7368C105.02 46.7541 107.666 52.1907 109.12 56.2304L109.173 56.3781C109.241 56.5652 109.302 56.7615 109.354 56.9596L109.392 57.1044C110.865 62.6704 110.373 67.6345 107.93 71.8586C105.74 75.6462 102.128 78.4205 97.4868 79.8816C97.3955 79.9103 97.1698 79.9792 97.1698 79.9792Z" fill="white"/>
<path d="M91.6356 41.4846C93.3326 35.6202 94.0797 30.4024 93.8568 25.9605C93.6064 20.9681 92.1409 17.0526 89.501 14.3228C86.1505 10.8578 81.4113 9.8164 76.1562 11.3902C70.8196 12.9904 64.998 17.3565 59.2602 24.0528C50.7742 21.616 43.5021 21.1688 38.1722 22.7651C32.9182 24.3428 29.5368 27.8124 28.6499 32.5468C27.8956 36.5744 29.0596 41.0091 32.1095 45.7277C34.3733 49.2302 37.6382 52.8104 41.8231 56.3816C40.1298 62.2383 39.3852 67.45 39.6093 71.8876C39.8612 76.8763 41.3272 80.7899 43.9667 83.5197C47.3171 86.9849 52.0552 88.0267 57.3085 86.4534C62.6335 84.8576 68.4424 80.5039 74.1717 73.8286C80.678 75.6832 89.3989 76.881 95.6744 75.0018C95.6769 75.001 95.6794 75.0002 95.6819 74.9995C95.7626 74.9753 95.8422 74.9508 95.9218 74.9258C99.3491 73.8468 101.872 71.9415 103.423 69.2601C105.154 66.2666 105.469 62.6233 104.36 58.4311L104.321 58.2841C104.307 58.2325 104.291 58.1815 104.273 58.1313L104.222 57.9874C102.826 54.1096 100.128 48.7611 91.6356 41.4846Z" fill="#262933"/>
<path d="M79.1097 60.5963C84.2076 59.0067 86.3576 51.3806 83.912 43.563C81.4664 35.7454 75.3512 30.6966 70.2534 32.2863C65.1556 33.876 63.0055 41.5021 65.4511 49.3197C67.8967 57.1373 74.0119 62.186 79.1097 60.5963Z" fill="white"/>
<path d="M79.6415 62.2218C79.6343 62.2241 79.6273 62.2263 79.6201 62.2284C76.5831 63.1755 73.2355 62.3143 70.1942 59.8034C67.3618 57.465 65.0966 53.9228 63.8162 49.8294C62.5356 45.736 62.3788 41.5364 63.3747 38.0042C64.4414 34.2206 66.6951 31.6133 69.7214 30.6607C69.7286 30.6584 69.7354 30.6563 69.7427 30.6541C72.7798 29.707 76.1273 30.5682 79.1686 33.0791C82.001 35.4176 84.2662 38.9598 85.5467 43.0532C86.8272 47.1465 86.984 51.3462 85.9881 54.8784C84.9214 58.6621 82.6679 61.2692 79.6415 62.2218ZM70.752 33.9221C66.6431 35.2155 64.9642 42.028 67.0857 48.8098C69.2093 55.5979 74.4817 60.248 78.599 58.9641L78.6109 58.9604C80.4991 58.366 81.9477 56.588 82.691 53.9518C83.5091 51.0497 83.3622 47.5412 82.2771 44.0727C80.1535 37.2847 74.8811 32.6345 70.7638 33.9184L70.752 33.9221Z" fill="#262933"/>
<path d="M75.3672 38.2475C73.1843 38.9282 72.0072 41.6682 72.2834 44.8788C72.3333 45.4586 72.7557 45.9391 73.3208 46.0812L75.4684 46.6212C76.2448 46.8164 76.6927 47.628 76.4431 48.3876L75.608 50.9295C75.4294 51.4733 75.6014 52.0766 76.0513 52.4313C77.3477 53.4537 78.8013 53.8771 80.1273 53.4636C82.8673 52.6092 84.023 48.5103 82.7085 44.3084C81.394 40.1066 78.1072 37.393 75.3672 38.2475Z" fill="#262933"/>
<path d="M63.2264 65.596C68.3243 64.0063 70.4743 56.3802 68.0287 48.5626C65.5831 40.745 59.4679 35.6963 54.3701 37.286C49.2723 38.8756 47.1222 46.5017 49.5678 54.3193C52.0134 62.1369 58.1286 67.1857 63.2264 65.596Z" fill="white"/>
<path d="M63.7587 67.2215C63.7515 67.2238 63.7446 67.226 63.7374 67.2282C60.7002 68.1753 57.3527 67.314 54.3114 64.8032C51.479 62.4647 49.2139 58.9225 47.9334 54.8291C46.6529 50.7357 46.496 46.5362 47.4918 43.0039C48.5586 39.2203 50.8123 36.6131 53.8385 35.6605C53.8457 35.6582 53.8526 35.6561 53.8598 35.6539C56.897 34.7067 60.2445 35.568 63.2858 38.0789C66.1181 40.4173 68.3833 43.9596 69.6638 48.0529C70.9443 52.1463 71.1011 56.3459 70.1052 59.8781C69.0386 63.6618 66.785 66.2689 63.7587 67.2215ZM54.8691 38.9219C50.7603 40.2153 49.0814 47.0277 51.2029 53.8096C53.3265 60.5976 58.5989 65.2478 62.7162 63.9639L62.7281 63.9601C64.6163 63.3658 66.0648 61.5878 66.8081 58.9516C67.6262 56.0494 67.4793 52.541 66.3942 49.0725C64.2706 42.2844 58.9982 37.6343 54.8809 38.9182L54.8691 38.9219Z" fill="#262933"/>
<path d="M60.2129 43.0175C58.03 43.6982 56.8529 46.4382 57.1291 49.6489C57.179 50.2286 57.6014 50.7092 58.1665 50.8513L60.3141 51.3912C61.0905 51.5865 61.5384 52.3981 61.2888 53.1577L60.4537 55.6995C60.2751 56.2433 60.4471 56.8466 60.897 57.2013C62.1934 58.2238 63.647 58.6471 64.973 58.2336C67.713 57.3792 68.8687 53.2803 67.5542 49.0785C66.2397 44.8767 62.9529 42.1631 60.2129 43.0175Z" fill="#262933"/>
</g>
<defs>
<filter id="filter0_d_1001_10539" x="1.5166" y="26.0464" width="114.667" height="114.518" filterUnits="userSpaceOnUse" color-interpolation-filters="sRGB">
<feFlood flood-opacity="0" result="BackgroundImageFix"/>
<feColorMatrix in="SourceAlpha" type="matrix" values="0 0 0 0 0 0 0 0 0 0 0 0 0 0 0 0 0 0 127 0" result="hardAlpha"/>
<feOffset dx="5.4834" dy="5.4834"/>
<feGaussianBlur stdDeviation="5.4834"/>
<feColorMatrix type="matrix" values="0 0 0 0 0 0 0 0 0 0 0 0 0 0 0 0 0 0 0.25 0"/>
<feBlend mode="normal" in2="BackgroundImageFix" result="effect1_dropShadow_1001_10539"/>
<feBlend mode="normal" in="SourceGraphic" in2="effect1_dropShadow_1001_10539" result="shape"/>
</filter>
<filter id="filter1_d_1001_10539" x="30.5415" y="2.78113" width="128.617" height="128.446" filterUnits="userSpaceOnUse" color-interpolation-filters="sRGB">
<feFlood flood-opacity="0" result="BackgroundImageFix"/>
<feColorMatrix in="SourceAlpha" type="matrix" values="0 0 0 0 0 0 0 0 0 0 0 0 0 0 0 0 0 0 127 0" result="hardAlpha"/>
<feOffset dx="5.4834" dy="5.4834"/>
<feGaussianBlur stdDeviation="5.4834"/>
<feColorMatrix type="matrix" values="0 0 0 0 0 0 0 0 0 0 0 0 0 0 0 0 0 0 0.25 0"/>
<feBlend mode="normal" in2="BackgroundImageFix" result="effect1_dropShadow_1001_10539"/>
<feBlend mode="normal" in="SourceGraphic" in2="effect1_dropShadow_1001_10539" result="shape"/>
</filter>
<filter id="filter2_d_1001_10539" x="17.7358" y="-1.43051e-06" width="108.936" height="108.81" filterUnits="userSpaceOnUse" color-interpolation-filters="sRGB">
<feFlood flood-opacity="0" result="BackgroundImageFix"/>
<feColorMatrix in="SourceAlpha" type="matrix" values="0 0 0 0 0 0 0 0 0 0 0 0 0 0 0 0 0 0 127 0" result="hardAlpha"/>
<feOffset dx="5.4834" dy="5.4834"/>
<feGaussianBlur stdDeviation="5.4834"/>
<feColorMatrix type="matrix" values="0 0 0 0 0 0 0 0 0 0 0 0 0 0 0 0 0 0 0.25 0"/>
<feBlend mode="normal" in2="BackgroundImageFix" result="effect1_dropShadow_1001_10539"/>
<feBlend mode="normal" in="SourceGraphic" in2="effect1_dropShadow_1001_10539" result="shape"/>
</filter>
<linearGradient id="paint0_linear_1001_10539" x1="62.4853" y1="68.1211" x2="32.6545" y2="99.959" gradientUnits="userSpaceOnUse">
<stop stop-color="#EACE47"/>
<stop offset="1" stop-color="#F4DF4C"/>
</linearGradient>
<linearGradient id="paint1_linear_1001_10539" x1="70.4377" y1="49.8036" x2="107.094" y2="72.5673" gradientUnits="userSpaceOnUse">
<stop stop-color="#EACE47"/>
<stop offset="1" stop-color="#F4DF4C"/>
</linearGradient>
</defs>
</svg>
