<svg width="156" height="133" viewBox="0 0 156 133" fill="none" xmlns="http://www.w3.org/2000/svg">
<g filter="url(#filter0_d_9_13750)">
<path d="M76.6031 108.796C56.3473 119.587 31.0892 111.886 20.2988 91.6303C9.50821 71.3743 17.2088 46.1163 37.4647 35.3258C57.7205 24.5353 82.9786 32.236 93.7691 52.492C104.56 72.7478 96.8589 98.0059 76.6031 108.796Z" fill="white"/>
<path d="M57.034 109.013C77.4414 109.013 93.9848 92.4692 93.9848 72.0619C93.9848 51.6545 77.4414 35.1111 57.034 35.1111C36.6267 35.1111 20.0833 51.6545 20.0833 72.0619C20.0833 92.4692 36.6267 109.013 57.034 109.013Z" fill="url(#paint0_linear_9_13750)"/>
<path d="M57.005 36.9953C70.0027 36.9953 81.8703 44.1158 87.9764 55.5783C92.3793 63.8434 93.3001 73.3282 90.5691 82.2857C87.8381 91.2433 81.7823 98.6012 73.5173 103.004C68.4529 105.702 62.7641 107.128 57.0659 107.128C44.0663 107.128 32.1977 100.007 26.0916 88.545C21.6887 80.2799 20.7679 70.7951 23.4989 61.8376C26.2298 52.88 32.2856 45.5221 40.5507 41.1191C45.6142 38.4218 51.3031 36.9958 57.0046 36.9953H57.005ZM57.0021 35.1035C51.1421 35.1041 45.1941 36.5022 39.6613 39.4496C21.6501 49.0443 14.8272 71.4233 24.422 89.4344C31.0692 101.913 43.8498 109.02 57.0659 109.02C62.9259 109.02 68.8739 107.621 74.4067 104.674C92.4179 95.079 99.2408 72.7 89.646 54.6889C82.9988 42.2106 70.2182 35.1025 57.0021 35.1035Z" fill="#383838"/>
<path d="M73.5415 63.5616C73.9653 59.2146 73.8067 55.4468 73.0686 52.3514C72.239 48.8725 70.6971 46.3099 68.4857 44.7348C65.6789 42.7356 62.2143 42.6226 58.7298 44.4167C55.1916 46.24 51.6749 50.0722 48.5222 55.5325C42.2435 54.9279 37.078 55.5641 33.5439 57.3837C30.0607 59.1804 28.1403 62.063 28.1375 65.5091C28.1351 68.4408 29.5333 71.4081 32.293 74.3284C34.3415 76.4961 37.1032 78.5876 40.5098 80.5525C40.0875 84.8936 40.2471 88.6568 40.9855 91.749C41.8156 95.2252 43.3577 97.7863 45.5688 99.3614C48.3754 101.361 51.8394 101.474 55.3226 99.6808C58.8534 97.8621 62.3627 94.0403 65.5122 88.5958C70.3244 89.0497 76.6057 88.752 80.7668 86.6098C80.7684 86.6089 80.7701 86.6081 80.7718 86.6072C80.8252 86.5796 80.8779 86.552 80.9305 86.524C83.1962 85.317 84.7187 83.6469 85.4565 81.5581C86.2802 79.2261 86.0246 76.6222 84.6966 73.8183L84.6499 73.72C84.6336 73.6855 84.6157 73.6517 84.5965 73.6187L84.5413 73.5243C83.0534 70.9791 80.4585 67.5696 73.5415 63.5616Z" fill="#262933"/>
<path d="M67.247 78.6438C70.6189 76.8592 71.1303 71.2139 68.3891 66.0346C65.6479 60.8554 60.6922 58.1036 57.3203 59.8882C53.9483 61.6729 53.437 67.3182 56.1782 72.4974C58.9194 77.6767 63.875 80.4285 67.247 78.6438Z" fill="white"/>
<path d="M67.8334 79.7176C67.8287 79.7201 67.8241 79.7226 67.8193 79.7251C65.8104 80.7883 63.3467 80.6202 60.8821 79.2516C58.5868 77.977 56.5321 75.7815 55.0968 73.0696C53.6615 70.3577 53.0015 67.4242 53.2384 64.8094C53.492 62.0085 54.7334 59.8799 56.7339 58.8142C56.7387 58.8117 56.7432 58.8093 56.748 58.8068C58.7569 57.7435 61.2206 57.9117 63.6852 59.2803C65.9805 60.5549 68.0352 62.7503 69.4704 65.4622C70.9057 68.1741 71.5658 71.1077 71.3289 73.7225C71.0752 76.5234 69.834 78.6519 67.8334 79.7176ZM57.8848 60.9736C55.1685 62.4205 54.8815 67.432 57.2595 71.925C59.6397 76.4222 63.9513 79.0038 66.6747 77.5624L66.6826 77.5582C67.9308 76.8933 68.7153 75.4532 68.8921 73.5017C69.0866 71.3534 68.524 68.9047 67.3078 66.6068C64.9276 62.1097 60.616 59.5281 57.8926 60.9694L57.8848 60.9736Z" fill="#262933"/>
<path d="M61.692 63.4117C60.2482 64.1759 59.7803 66.2571 60.3947 68.4794C60.5056 68.8807 60.8652 69.1635 61.2807 69.1896L62.8596 69.2886C63.4304 69.3245 63.8512 69.8368 63.7754 70.4037L63.5218 72.3009C63.4675 72.7067 63.6674 73.1086 64.0297 73.2993C65.0741 73.849 66.1504 73.9567 67.0274 73.4925C68.8398 72.5333 69.1147 69.499 67.6413 66.7153C66.168 63.9315 63.5044 62.4525 61.692 63.4117Z" fill="#262933"/>
<path d="M56.7475 84.2361C60.1194 82.4515 60.6308 76.8061 57.8896 71.6269C55.1484 66.4477 50.1927 63.6959 46.8208 65.4805C43.4488 67.2652 42.9375 72.9105 45.6787 78.0897C48.4199 83.2689 53.3755 86.0208 56.7475 84.2361Z" fill="white"/>
<path d="M57.334 85.3099C57.3292 85.3124 57.3246 85.3149 57.3198 85.3173C55.3109 86.3807 52.8472 86.2125 50.3826 84.8439C48.0872 83.5693 46.0326 81.3738 44.5974 78.6619C43.1621 75.95 42.502 73.0165 42.7388 70.4017C42.9925 67.6008 44.2338 65.4722 46.2344 64.4065C46.2391 64.404 46.2437 64.4016 46.2485 64.3991C48.2574 63.3358 50.7211 63.504 53.1857 64.8726C55.481 66.1472 57.5357 68.3426 58.9709 71.0545C60.4062 73.7664 61.0662 76.7 60.8294 79.3148C60.5758 82.1157 59.3345 84.2442 57.334 85.3099ZM47.3852 66.5659C44.669 68.0128 44.382 73.0243 46.76 77.5173C49.1402 82.0144 53.4518 84.5961 56.1752 83.1547L56.1831 83.1505C57.4313 82.4856 58.2157 81.0455 58.3925 79.094C58.5871 76.9457 58.0245 74.497 56.8083 72.1991C54.4281 67.702 50.1164 65.1204 47.393 66.5617L47.3852 66.5659Z" fill="#262933"/>
<path d="M51.6744 68.7479C50.2306 69.5121 49.7627 71.5933 50.3771 73.8156C50.488 74.2169 50.8476 74.4997 51.2631 74.5258L52.842 74.6248C53.4129 74.6606 53.8336 75.173 53.7579 75.7399L53.5042 77.637C53.4499 78.0429 53.6498 78.4448 54.0122 78.6355C55.0565 79.1852 56.1328 79.2929 57.0099 78.8287C58.8223 77.8695 59.0971 74.8352 57.6238 72.0515C56.1504 69.2677 53.4868 67.7887 51.6744 68.7479Z" fill="#262933"/>
</g>
<g filter="url(#filter1_d_9_13750)">
<mask id="mask0_9_13750" style="mask-type:luminance" maskUnits="userSpaceOnUse" x="41" y="9" width="97" height="97">
<path d="M129.365 34.8058L87.6131 11.4795C80.2192 7.34869 70.8766 9.99389 66.7458 17.3877L43.4196 59.1399C39.2887 66.5337 41.9339 75.8763 49.3278 80.0071L91.0799 103.333C98.4738 107.464 107.816 104.819 111.947 97.4252L135.273 55.673C139.404 48.2792 136.759 38.9366 129.365 34.8058Z" fill="white"/>
</mask>
<g mask="url(#mask0_9_13750)">
<path d="M144.518 6.97632H37.395V111.569H144.518V6.97632Z" fill="url(#paint1_linear_9_13750)"/>
</g>
<g filter="url(#filter2_d_9_13750)">
<path d="M105.427 66.6875C109.312 64.6914 112.395 62.519 114.598 60.2231C117.075 57.6428 118.395 54.9594 118.523 52.2474C118.685 48.8052 116.905 45.8307 113.511 43.8714C110.063 41.8829 104.937 40.9996 98.6391 41.3035C95.7497 35.6965 92.4192 31.697 88.9765 29.7099C85.5807 27.7532 82.1174 27.6983 79.2179 29.5609C76.7514 31.1455 75.0129 33.927 74.0507 37.8282C73.3364 40.7239 73.0722 44.178 73.2635 48.1061C69.3845 50.1003 66.3063 52.271 64.1057 54.5654C61.6319 57.1447 60.3127 59.8275 60.1848 62.5392C60.0223 65.9814 61.8016 68.9556 65.1948 70.9141C68.6349 72.8989 73.7479 73.7817 80.0307 73.4836C82.2532 77.7758 85.9028 82.8968 89.9562 85.2365C89.9578 85.2374 89.9594 85.2383 89.961 85.2393C90.0132 85.2693 90.0649 85.2987 90.117 85.3278C92.358 86.5798 94.5863 86.9562 96.7422 86.4463C99.149 85.8769 101.2 84.2528 102.839 81.6186L102.897 81.5262C102.917 81.4938 102.936 81.4604 102.953 81.4264L103.003 81.329C104.338 78.7003 105.8 74.6731 105.427 66.6875Z" fill="#262933"/>
<path d="M100.561 63.6928C103.433 58.5849 103.065 52.9284 99.7392 51.0587C96.4136 49.189 91.3897 51.8142 88.5179 56.9221C85.6462 62.0301 86.014 67.6866 89.3396 69.5563C92.6651 71.4259 97.6891 68.8008 100.561 63.6928Z" fill="white"/>
<path d="M88.7539 70.6318C88.7491 70.6291 88.7446 70.6266 88.7399 70.6239C86.7587 69.5101 85.5667 67.3473 85.3838 64.5341C85.2134 61.9142 85.9477 58.9983 87.4514 56.3237C88.9551 53.6492 91.0648 51.5066 93.3917 50.2907C95.8843 48.9882 98.346 48.8801 100.325 49.9856C100.33 49.9883 100.334 49.9908 100.339 49.9935C102.32 51.1073 103.512 53.2701 103.695 56.0833C103.865 58.7032 103.131 61.6191 101.627 64.2937C100.124 66.9682 98.0139 69.1108 95.6869 70.3267C93.1943 71.6292 90.7327 71.7373 88.7539 70.6318ZM99.1318 52.122C96.4451 50.621 92.0756 53.0917 89.5843 57.5229C87.0907 61.9582 87.2532 66.981 89.9391 68.491L89.9469 68.4954C91.1815 69.1852 92.817 69.0655 94.5537 68.1581C96.4656 67.159 98.2202 65.3608 99.4943 63.0945C101.988 58.6592 101.825 53.6364 99.1396 52.1263L99.1318 52.122Z" fill="#262933"/>
<path d="M99.1411 56.6435C97.7171 55.8429 95.7138 56.5758 94.1776 58.2951C93.9002 58.6056 93.857 59.061 94.0599 59.4245L94.8311 60.8058C95.1099 61.3052 94.9068 61.9364 94.389 62.1795L92.6565 62.9929C92.2858 63.1669 92.0561 63.5524 92.0918 63.9603C92.1947 65.136 92.6866 66.0993 93.5516 66.5856C95.339 67.5906 98.0393 66.1796 99.5829 63.4342C101.126 60.6887 100.929 57.6485 99.1411 56.6435Z" fill="#262933"/>
<path d="M90.1751 57.8911C93.0469 52.7831 92.679 47.1266 89.3535 45.2569C86.0279 43.3873 81.004 46.0124 78.1322 51.1204C75.2604 56.2283 75.6283 61.8848 78.9538 63.7545C82.2794 65.6242 87.3033 62.999 90.1751 57.8911Z" fill="white"/>
<path d="M78.3681 64.8283C78.3634 64.8257 78.3589 64.8232 78.3542 64.8205C76.3729 63.7066 75.181 61.5439 74.9981 58.7307C74.8276 56.1107 75.562 53.1948 77.0657 50.5203C78.5694 47.8457 80.679 45.7031 83.006 44.4872C85.4986 43.1848 87.9603 43.0766 89.9391 44.1822C89.9438 44.1848 89.9483 44.1873 89.953 44.19C91.9343 45.3039 93.1261 47.4666 93.3091 50.2798C93.4794 52.8997 92.7452 55.8156 91.2414 58.4902C89.7377 61.1648 87.6281 63.3073 85.3011 64.5232C82.8086 65.8258 80.3469 65.9338 78.3681 64.8283ZM88.746 46.3185C86.0594 44.8175 81.6899 47.2883 79.1986 51.7194C76.705 56.1547 76.8675 61.1775 79.5533 62.6876L79.5611 62.692C80.7958 63.3817 82.4312 63.2621 84.1679 62.3546C86.0798 61.3556 87.8344 59.5573 89.1086 57.291C91.6021 52.8557 91.4397 47.8329 88.7538 46.3228L88.746 46.3185Z" fill="#262933"/>
<path d="M89.2322 51.1077C87.8082 50.3071 85.8049 51.0399 84.2687 52.7592C83.9913 53.0697 83.948 53.5251 84.151 53.8886L84.9221 55.2699C85.201 55.7694 84.9979 56.4005 84.4801 56.6436L82.7476 57.457C82.3769 57.631 82.1471 58.0165 82.1828 58.4244C82.2858 59.6001 82.7777 60.5635 83.6427 61.0498C85.4301 62.0547 88.1304 60.6437 89.6739 57.8983C91.2175 55.1529 91.0196 52.1126 89.2322 51.1077Z" fill="#262933"/>
</g>
</g>
<g filter="url(#filter3_d_9_13750)">
<path d="M96.3505 74.0007C89.8478 75.9509 82.0989 74.8028 77.298 73.701C72.2427 79.1101 67.1729 82.6399 62.1997 84.2079C62.1051 84.2377 62.0098 84.267 61.9156 84.2955C55.5355 86.2094 49.4564 84.7998 45.2364 80.4284C42.0603 77.1379 40.3054 72.6071 40.0207 66.9618C39.8321 63.219 40.3034 58.9904 41.4231 54.36C38.3597 51.4978 35.879 48.6073 34.03 45.7418C30.6231 40.4624 29.3539 35.3344 30.2575 30.5005C31.3553 24.6301 35.5537 20.1381 41.776 18.1763L42.051 18.0916C47.1205 16.571 53.3989 16.7012 60.7497 18.4742C65.8078 13.0574 70.8835 9.52217 75.8654 7.95142C75.9589 7.92192 76.0526 7.89298 76.1459 7.86498C82.5286 5.95047 88.6083 7.35976 92.8283 11.7309C96.0052 15.0216 97.7598 19.5548 98.0425 25.2043C98.2305 28.9525 97.7568 33.1864 96.6339 37.8229C103.396 44.1314 105.771 49.0189 107.076 52.6506L107.124 52.7834C107.185 52.9516 107.239 53.128 107.286 53.3062L107.321 53.4363C108.643 58.4402 108.201 62.9029 106.008 66.7004C104.042 70.1054 100.801 72.5995 96.635 73.913C96.553 73.9389 96.3505 74.0007 96.3505 74.0007Z" fill="white"/>
<path d="M91.3832 39.3938C92.9064 34.1217 93.5769 29.4309 93.3769 25.4376C93.1522 20.9495 91.8368 17.4294 89.4673 14.9753C86.46 11.8603 82.2063 10.9241 77.4895 12.3389C72.6996 13.7775 67.4744 17.7026 62.3244 23.7226C54.7076 21.5319 48.1805 21.1299 43.3966 22.5649C38.6808 23.9833 35.6458 27.1025 34.8498 31.3587C34.1728 34.9796 35.2175 38.9663 37.955 43.2083C39.9869 46.357 42.9173 49.5757 46.6735 52.7861C45.1537 58.0514 44.4853 62.7367 44.6865 66.7261C44.9125 71.2109 46.2284 74.7293 48.5975 77.1833C51.6047 80.2985 55.8574 81.2352 60.5725 79.8207C65.3521 78.3861 70.5659 74.4722 75.7083 68.4711C81.5482 70.1383 89.3757 71.2151 95.0083 69.5257C95.0106 69.525 95.0128 69.5243 95.0151 69.5237C95.0875 69.5019 95.1589 69.4799 95.2304 69.4574C98.3065 68.4874 100.571 66.7745 101.963 64.364C103.517 61.6728 103.8 58.3975 102.804 54.6287L102.769 54.4965C102.757 54.4501 102.743 54.4043 102.726 54.3591L102.68 54.2298C101.427 50.7437 99.0059 45.9353 91.3832 39.3938Z" fill="#262933"/>
<path d="M80.1402 56.5757C84.7158 55.1466 86.6456 48.2907 84.4506 41.2627C82.2555 34.2347 76.7667 29.6959 72.1911 31.125C67.6155 32.5541 65.6857 39.41 67.8808 46.438C70.0759 53.466 75.5646 58.0048 80.1402 56.5757Z" fill="white"/>
<path d="M80.6178 58.0375C80.6113 58.0395 80.6051 58.0415 80.5986 58.0434C77.8726 58.8949 74.868 58.1206 72.1382 55.8633C69.596 53.7611 67.5629 50.5766 66.4136 46.8967C65.2642 43.2167 65.1235 39.4413 66.0174 36.2658C66.9748 32.8643 68.9976 30.5204 71.7139 29.664C71.7203 29.662 71.7265 29.6601 71.733 29.6581C74.4589 28.8067 77.4636 29.5809 80.1933 31.8382C82.7355 33.9405 84.7687 37.1249 85.918 40.8049C87.0674 44.4848 87.2081 48.2603 86.3142 51.4357C85.3568 54.8373 83.3341 57.181 80.6178 58.0375ZM72.6389 32.5961C68.9509 33.7588 67.444 39.8832 69.3481 45.9801C71.2542 52.0826 75.9865 56.263 79.682 55.1088L79.6928 55.1054C81.3875 54.5711 82.6877 52.9727 83.3548 50.6027C84.0892 47.9937 83.9573 44.8396 82.9834 41.7214C81.0773 35.619 76.345 31.4385 72.6495 32.5927L72.6389 32.5961Z" fill="#262933"/>
<path d="M76.7811 36.4832C74.8219 37.0951 73.7653 39.5584 74.0132 42.4448C74.058 42.966 74.4371 43.398 74.9443 43.5257L76.8719 44.0112C77.5688 44.1867 77.9708 44.9163 77.7468 45.5992L76.9973 47.8843C76.8369 48.3732 76.9914 48.9156 77.3951 49.2344C78.5588 50.1536 79.8635 50.5342 81.0536 50.1625C83.5129 49.3943 84.5502 45.7094 83.3704 41.932C82.1905 38.1546 79.2405 35.715 76.7811 36.4832Z" fill="#262933"/>
<path d="M65.8844 61.0703C70.46 59.6412 72.3898 52.7854 70.1947 45.7573C67.9996 38.7293 62.5109 34.1905 57.9353 35.6196C53.3597 37.0487 51.4299 43.9046 53.6249 50.9326C55.82 57.9607 61.3087 62.4995 65.8844 61.0703Z" fill="white"/>
<path d="M66.3617 62.5321C66.3552 62.5341 66.349 62.5361 66.3425 62.538C63.6165 63.3895 60.6119 62.6152 57.8822 60.3579C55.3399 58.2557 53.3068 55.0712 52.1575 51.3913C51.0081 47.7114 50.8674 43.936 51.7612 40.7605C52.7187 37.359 54.7415 35.0151 57.4577 34.1587C57.4642 34.1566 57.4703 34.1547 57.4768 34.1527C60.2029 33.3013 63.2075 34.0756 65.9372 36.3329C68.4794 38.4351 70.5126 41.6196 71.6619 45.2995C72.8112 48.9794 72.9519 52.7549 72.0581 55.9304C71.1007 59.3319 69.078 61.6757 66.3617 62.5321ZM58.3827 37.0907C54.6948 38.2534 53.1879 44.3779 55.0921 50.4747C56.9981 56.5772 61.7304 60.7577 65.426 59.6034L65.4367 59.6001C67.1314 59.0657 68.4316 57.4673 69.0987 55.0974C69.833 52.4883 69.7012 49.3342 68.7272 46.2161C66.8212 40.1136 62.0889 35.9331 58.3934 37.0874L58.3827 37.0907Z" fill="#262933"/>
<path d="M63.1793 40.7715C61.22 41.3834 60.1635 43.8467 60.4114 46.7331C60.4562 47.2543 60.8353 47.6863 61.3425 47.8141L63.2701 48.2995C63.967 48.475 64.369 49.2046 64.145 49.8875L63.3955 52.1726C63.2351 52.6615 63.3896 53.2039 63.7933 53.5228C64.9569 54.4419 66.2617 54.8225 67.4518 54.4508C69.9111 53.6827 70.9484 49.9978 69.7685 46.2203C68.5887 42.4429 65.6387 40.0034 63.1793 40.7715Z" fill="#262933"/>
</g>
<g filter="url(#filter4_d_9_13750)">
<mask id="mask1_9_13750" style="mask-type:luminance" maskUnits="userSpaceOnUse" x="14" y="31" width="85" height="86">
<path d="M75.8533 111.066C55.3765 121.974 29.843 114.19 18.9348 93.713C8.02651 73.2361 15.8112 47.7025 36.2879 36.7943C56.7647 25.8862 82.2982 33.6708 93.2065 54.1477C104.115 74.6245 96.3301 100.158 75.8533 111.066Z" fill="white"/>
</mask>
<g mask="url(#mask1_9_13750)">
<path d="M102.625 31.9995H7.8728V123.096H102.625V31.9995Z" fill="url(#paint2_linear_9_13750)"/>
</g>
<path d="M72.7582 65.337C73.1867 60.9427 73.0263 57.1337 72.2801 54.0045C71.4415 50.4877 69.8828 47.8971 67.6472 46.3049C64.8099 44.2838 61.3074 44.1696 57.785 45.9832C54.2081 47.8264 50.6531 51.7005 47.466 57.2203C41.1189 56.6091 35.897 57.2522 32.3243 59.0917C28.8031 60.9079 26.8618 63.822 26.8589 67.3057C26.8565 70.2694 28.2699 73.269 31.0598 76.2212C33.1306 78.4126 35.9224 80.5269 39.3662 82.5132C38.9393 86.9016 39.1006 90.706 39.8471 93.8318C40.6863 97.3459 42.2451 99.9351 44.4804 101.527C47.3176 103.549 50.8194 103.663 54.3406 101.85C57.9098 100.012 61.4575 96.1481 64.6413 90.6442C69.506 91.103 75.8558 90.8022 80.0623 88.6365C80.064 88.6357 80.0656 88.6348 80.0673 88.6339C80.1214 88.606 80.1747 88.5781 80.2279 88.5498C82.5182 87.3296 84.0573 85.6413 84.8032 83.5297C85.6359 81.1723 85.3775 78.54 84.035 75.7056L83.9878 75.6062C83.9713 75.5713 83.9532 75.5371 83.9337 75.5038L83.878 75.4084C82.3739 72.8354 79.7506 69.3887 72.7582 65.337Z" fill="#262933"/>
<path d="M66.3953 80.5835C69.804 78.7794 70.3209 73.0724 67.5498 67.8367C64.7787 62.601 59.769 59.8191 56.3603 61.6232C52.9516 63.4274 52.4346 69.1343 55.2057 74.37C57.9768 79.6057 62.9865 82.3876 66.3953 80.5835Z" fill="white"/>
<path d="M66.988 81.6688C66.9832 81.6714 66.9786 81.6739 66.9737 81.6764C64.9429 82.7512 62.4524 82.5813 59.9608 81.1977C57.6405 79.9093 55.5634 77.6898 54.1125 74.9483C52.6615 72.2069 51.9943 69.2413 52.2337 66.598C52.4902 63.7666 53.7451 61.6148 55.7674 60.5374C55.7722 60.5349 55.7768 60.5324 55.7817 60.5299C57.8125 59.455 60.303 59.625 62.7946 61.0085C65.1149 62.297 67.192 64.5165 68.6429 67.258C70.0939 69.9994 70.7611 72.965 70.5216 75.6083C70.2652 78.4398 69.0105 80.5915 66.988 81.6688ZM56.9308 62.7203C54.185 64.1831 53.8948 69.2492 56.2987 73.7913C58.7049 78.3374 63.0636 80.9472 65.8166 79.4901L65.8246 79.4859C67.0864 78.8137 67.8795 77.3579 68.0582 75.3851C68.2549 73.2134 67.6862 70.738 66.4567 68.415C64.0505 63.8688 59.6918 61.259 56.9388 62.7161L56.9308 62.7203Z" fill="#262933"/>
<path d="M60.7796 65.1871C59.32 65.9596 58.847 68.0635 59.4681 70.3101C59.5803 70.7158 59.9437 71.0016 60.3638 71.028L61.9599 71.1281C62.537 71.1643 62.9624 71.6822 62.8858 72.2554L62.6294 74.1732C62.5745 74.5835 62.7766 74.9898 63.1429 75.1826C64.1986 75.7382 65.2866 75.8471 66.1732 75.3779C68.0054 74.4082 68.2832 71.3408 66.7938 68.5267C65.3044 65.7126 62.6118 64.2174 60.7796 65.1871Z" fill="#262933"/>
<path d="M55.781 86.237C59.1897 84.4329 59.7066 78.726 56.9356 73.4903C54.1645 68.2546 49.1547 65.4727 45.746 67.2768C42.3373 69.0809 41.8204 74.7878 44.5915 80.0236C47.3626 85.2593 52.3723 88.0412 55.781 86.237Z" fill="white"/>
<path d="M56.3738 87.3223C56.369 87.3249 56.3644 87.3274 56.3595 87.3299C54.3287 88.4048 51.8381 88.2348 49.3466 86.8513C47.0262 85.5628 44.9492 83.3433 43.4983 80.6019C42.0473 77.8604 41.3801 74.8949 41.6195 72.2516C41.8759 69.4201 43.1308 67.2683 45.1532 66.191C45.158 66.1885 45.1626 66.186 45.1674 66.1835C47.1982 65.1086 49.6888 65.2786 52.1803 66.6621C54.5006 67.9506 56.5777 70.17 58.0286 72.9115C59.4796 75.653 60.1468 78.6185 59.9074 81.2619C59.651 84.0933 58.3962 86.245 56.3738 87.3223ZM46.3166 68.3739C43.5708 69.8366 43.2806 74.9027 45.6845 79.4448C48.0907 83.9909 52.4494 86.6007 55.2024 85.1436L55.2105 85.1394C56.4722 84.4672 57.2653 83.0114 57.444 81.0387C57.6406 78.8669 57.0719 76.3915 55.8424 74.0685C53.4363 69.5223 49.0776 66.9125 46.3245 68.3696L46.3166 68.3739Z" fill="#262933"/>
<path d="M50.6527 70.5797C49.193 71.3522 48.7201 73.4561 49.3412 75.7027C49.4533 76.1083 49.8168 76.3942 50.2368 76.4206L51.8329 76.5207C52.41 76.5569 52.8354 77.0748 52.7588 77.648L52.5024 79.5658C52.4476 79.9761 52.6496 80.3823 53.0159 80.5751C54.0717 81.1308 55.1597 81.2397 56.0463 80.7705C57.8784 79.8008 58.1563 76.7334 56.6669 73.9193C55.1775 71.1052 52.4848 69.61 50.6527 70.5797Z" fill="#262933"/>
</g>
<g filter="url(#filter5_d_9_13750)">
<mask id="mask2_9_13750" style="mask-type:luminance" maskUnits="userSpaceOnUse" x="29" y="6" width="81" height="81">
<path d="M97.8757 74.1147C91.3066 76.2144 83.415 75.1899 78.5186 74.1586C73.4829 79.7451 68.398 83.4231 63.3754 85.1066C63.2798 85.1386 63.1836 85.1701 63.0884 85.2008C56.6431 87.2614 50.4429 85.9409 46.0766 81.578C42.7905 78.294 40.9252 73.7242 40.5328 67.9954C40.2727 64.1973 40.6742 59.8937 41.7267 55.17C38.5629 52.3189 35.9904 49.4285 34.0599 46.5518C30.503 41.2518 29.1201 36.0665 29.9495 31.1403C30.9572 25.1575 35.1394 20.5182 41.4235 18.4119L41.7013 18.3208C46.8226 16.6836 53.2019 16.7011 60.7006 18.3674C65.739 12.7731 70.8297 9.08955 75.8611 7.40305C75.9556 7.37138 76.0502 7.34026 76.1444 7.31013C82.5924 5.24882 88.7933 6.56909 93.1594 10.9316C96.4465 14.2159 98.3114 18.7882 98.7019 24.5212C98.9614 28.3248 98.5577 32.6338 97.502 37.3636C104.486 43.6475 106.988 48.5684 108.379 52.2332L108.43 52.3672C108.495 52.537 108.554 52.7152 108.605 52.8952L108.642 53.0268C110.077 58.085 109.71 62.6259 107.552 66.5231C105.617 70.0176 102.371 72.6101 98.163 74.0204C98.0803 74.0482 97.8757 74.1147 97.8757 74.1147Z" fill="white"/>
</mask>
<g mask="url(#mask2_9_13750)">
<path d="M130.085 -1.83667H10.6846V108.566H130.085V-1.83667Z" fill="url(#paint3_linear_9_13750)"/>
</g>
<path d="M92.1977 39.0573C93.6484 33.6746 94.2436 28.8979 93.9675 24.8456C93.6571 20.2911 92.2567 16.7399 89.8052 14.2906C86.6936 11.1817 82.356 10.3085 77.5911 11.8318C72.7523 13.3806 67.5168 17.4629 62.396 23.6715C54.6196 21.5857 47.9827 21.2968 43.1499 22.8419C38.386 24.3687 35.3604 27.5924 34.6298 31.93C34.0083 35.6201 35.1424 39.6503 38.0004 43.9088C40.1218 47.0699 43.1571 50.2855 47.031 53.4776C45.5836 58.8533 44.9905 63.6244 45.2677 67.6728C45.5793 72.2239 46.9802 75.7734 49.4314 78.2227C52.5427 81.3318 56.8794 82.2053 61.6427 80.6825C66.4711 79.1379 71.6952 75.0672 76.8086 68.8778C82.7706 70.4644 90.7407 71.4149 96.4309 69.5961C96.4331 69.5953 96.4353 69.5946 96.4377 69.5939C96.5108 69.5704 96.583 69.5468 96.6551 69.5226C99.7618 68.4812 102.031 66.7 103.4 64.2261C104.929 61.4642 105.157 58.1324 104.077 54.3226L104.039 54.189C104.025 54.1421 104.01 54.0958 103.993 54.0502L103.943 53.9197C102.607 50.4017 100.06 45.5622 92.1977 39.0573Z" fill="#262933"/>
<path d="M81.0925 56.7151C85.7138 55.1799 87.5486 48.1811 85.1905 41.0829C82.8324 33.9847 77.1745 29.475 72.5532 31.0103C67.9319 32.5455 66.0971 39.5443 68.4552 46.6425C70.8133 53.7407 76.4712 58.2504 81.0925 56.7151Z" fill="white"/>
<path d="M81.604 58.1911C81.5975 58.1933 81.5912 58.1954 81.5846 58.1975C78.8314 59.1122 75.7654 58.3807 72.9516 56.1379C70.331 54.0491 68.2077 50.8519 66.973 47.1351C65.7383 43.4185 65.5264 39.5863 66.3762 36.3446C67.2864 32.8722 69.2982 30.4545 72.0414 29.535C72.0479 29.5329 72.0541 29.5307 72.0607 29.5286C74.8139 28.614 77.8799 29.3454 80.6937 31.5883C83.3143 33.677 85.4376 36.8743 86.6723 40.591C87.907 44.3077 88.1189 48.1399 87.2691 51.3815C86.3588 54.854 84.3473 57.2716 81.604 58.1911ZM73.0346 32.4962C69.31 33.7446 67.8914 39.9928 69.937 46.1505C71.9845 52.3139 76.8676 56.4735 80.6 55.2336L80.6108 55.2299C82.3224 54.6562 83.6138 53.0089 84.2481 50.5895C84.9462 47.9261 84.7546 44.7249 83.7084 41.5756C81.6608 35.4122 76.7777 31.2526 73.0453 32.4926L73.0346 32.4962Z" fill="#262933"/>
<path d="M77.313 36.3685C75.3341 37.0259 74.3061 39.5471 74.6107 42.4743C74.6657 43.0028 75.0586 43.4347 75.5762 43.5552L77.5429 44.013C78.2539 44.1785 78.6756 44.9123 78.4605 45.61L77.741 47.9447C77.5871 48.4441 77.7539 48.9922 78.1698 49.3087C79.3686 50.2211 80.7007 50.5837 81.9027 50.1844C84.3866 49.3593 85.3728 45.5975 84.1053 41.7824C82.8379 37.9672 79.7969 35.5433 77.313 36.3685Z" fill="#262933"/>
<path d="M66.6953 61.5406C71.3166 60.0054 73.1513 53.0066 70.7933 45.9084C68.4352 38.8102 62.7773 34.3005 58.156 35.8357C53.5347 37.3709 51.6999 44.3697 54.058 51.4679C56.4161 58.5661 62.074 63.0758 66.6953 61.5406Z" fill="white"/>
<path d="M67.2068 63.0165C67.2003 63.0187 67.194 63.0208 67.1874 63.0229C64.4342 63.9376 61.3682 63.2061 58.5544 60.9633C55.9338 58.8746 53.8105 55.6773 52.5759 51.9606C51.3411 48.2439 51.1291 44.4118 51.9789 41.1701C52.8892 37.6977 54.9009 35.28 57.6441 34.3605C57.6507 34.3583 57.6569 34.3562 57.6634 34.3541C60.4167 33.4394 63.4826 34.1709 66.2965 36.4137C68.917 38.5025 71.0404 41.6997 72.275 45.4165C73.5097 49.1331 73.7217 52.9653 72.8719 56.207C71.9617 59.6794 69.9501 62.097 67.2068 63.0165ZM58.6373 37.3216C54.9128 38.57 53.4942 44.8182 55.5398 50.9759C57.5873 57.1393 62.4704 61.2989 66.2028 60.059L66.2137 60.0554C67.9252 59.4817 69.2166 57.8343 69.8508 55.415C70.549 52.7516 70.3573 49.5503 69.3111 46.4011C67.2636 40.2377 62.3805 36.0781 58.6481 37.318L58.6373 37.3216Z" fill="#262933"/>
<path d="M63.5764 40.9732C61.5976 41.6306 60.5695 44.1518 60.8741 47.079C60.9291 47.6076 61.322 48.0395 61.8396 48.1599L63.8063 48.6177C64.5174 48.7833 64.939 49.517 64.724 50.2147L64.0045 52.5494C63.8505 53.0489 64.0173 53.5969 64.4333 53.9135C65.632 54.8258 66.9641 55.1885 68.1662 54.7892C70.6501 53.964 71.6362 50.2023 70.3688 46.3871C69.1014 42.5719 66.0603 40.1481 63.5764 40.9732Z" fill="#262933"/>
</g>
<defs>
<filter id="filter0_d_9_13750" x="9.93384" y="24.9609" width="105.167" height="105.167" filterUnits="userSpaceOnUse" color-interpolation-filters="sRGB">
<feFlood flood-opacity="0" result="BackgroundImageFix"/>
<feColorMatrix in="SourceAlpha" type="matrix" values="0 0 0 0 0 0 0 0 0 0 0 0 0 0 0 0 0 0 127 0" result="hardAlpha"/>
<feOffset dx="5.4834" dy="5.4834"/>
<feGaussianBlur stdDeviation="5.4834"/>
<feColorMatrix type="matrix" values="0 0 0 0 0 0 0 0 0 0 0 0 0 0 0 0 0 0 0.25 0"/>
<feBlend mode="normal" in2="BackgroundImageFix" result="effect1_dropShadow_9_13750"/>
<feBlend mode="normal" in="SourceGraphic" in2="effect1_dropShadow_9_13750" result="shape"/>
</filter>
<filter id="filter1_d_9_13750" x="35.9858" y="4.04565" width="117.688" height="117.688" filterUnits="userSpaceOnUse" color-interpolation-filters="sRGB">
<feFlood flood-opacity="0" result="BackgroundImageFix"/>
<feColorMatrix in="SourceAlpha" type="matrix" values="0 0 0 0 0 0 0 0 0 0 0 0 0 0 0 0 0 0 127 0" result="hardAlpha"/>
<feOffset dx="5.4834" dy="5.4834"/>
<feGaussianBlur stdDeviation="5.4834"/>
<feColorMatrix type="matrix" values="0 0 0 0 0 0 0 0 0 0 0 0 0 0 0 0 0 0 0.25 0"/>
<feBlend mode="normal" in2="BackgroundImageFix" result="effect1_dropShadow_9_13750"/>
<feBlend mode="normal" in="SourceGraphic" in2="effect1_dropShadow_9_13750" result="shape"/>
</filter>
<filter id="filter2_d_9_13750" x="54.6912" y="22.7187" width="80.292" height="80.398" filterUnits="userSpaceOnUse" color-interpolation-filters="sRGB">
<feFlood flood-opacity="0" result="BackgroundImageFix"/>
<feColorMatrix in="SourceAlpha" type="matrix" values="0 0 0 0 0 0 0 0 0 0 0 0 0 0 0 0 0 0 127 0" result="hardAlpha"/>
<feOffset dx="5.4834" dy="5.4834"/>
<feGaussianBlur stdDeviation="5.4834"/>
<feColorMatrix type="matrix" values="0 0 0 0 0 0 0 0 0 0 0 0 0 0 0 0 0 0 0.25 0"/>
<feBlend mode="normal" in2="BackgroundImageFix" result="effect1_dropShadow_9_13750"/>
<feBlend mode="normal" in="SourceGraphic" in2="effect1_dropShadow_9_13750" result="shape"/>
</filter>
<filter id="filter3_d_9_13750" x="24.4919" y="1.54565" width="100.023" height="100.035" filterUnits="userSpaceOnUse" color-interpolation-filters="sRGB">
<feFlood flood-opacity="0" result="BackgroundImageFix"/>
<feColorMatrix in="SourceAlpha" type="matrix" values="0 0 0 0 0 0 0 0 0 0 0 0 0 0 0 0 0 0 127 0" result="hardAlpha"/>
<feOffset dx="5.4834" dy="5.4834"/>
<feGaussianBlur stdDeviation="5.4834"/>
<feColorMatrix type="matrix" values="0 0 0 0 0 0 0 0 0 0 0 0 0 0 0 0 0 0 0.25 0"/>
<feBlend mode="normal" in2="BackgroundImageFix" result="effect1_dropShadow_9_13750"/>
<feBlend mode="normal" in="SourceGraphic" in2="effect1_dropShadow_9_13750" result="shape"/>
</filter>
<filter id="filter4_d_9_13750" x="8.4568" y="26.4563" width="106.314" height="106.174" filterUnits="userSpaceOnUse" color-interpolation-filters="sRGB">
<feFlood flood-opacity="0" result="BackgroundImageFix"/>
<feColorMatrix in="SourceAlpha" type="matrix" values="0 0 0 0 0 0 0 0 0 0 0 0 0 0 0 0 0 0 127 0" result="hardAlpha"/>
<feOffset dx="5.5432" dy="5.5432"/>
<feGaussianBlur stdDeviation="5.5432"/>
<feColorMatrix type="matrix" values="0 0 0 0 0 0 0 0 0 0 0 0 0 0 0 0 0 0 0.25 0"/>
<feBlend mode="normal" in2="BackgroundImageFix" result="effect1_dropShadow_9_13750"/>
<feBlend mode="normal" in="SourceGraphic" in2="effect1_dropShadow_9_13750" result="shape"/>
</filter>
<filter id="filter5_d_9_13750" x="24.6254" y="1.26721" width="100.146" height="100.157" filterUnits="userSpaceOnUse" color-interpolation-filters="sRGB">
<feFlood flood-opacity="0" result="BackgroundImageFix"/>
<feColorMatrix in="SourceAlpha" type="matrix" values="0 0 0 0 0 0 0 0 0 0 0 0 0 0 0 0 0 0 127 0" result="hardAlpha"/>
<feOffset dx="5.0907" dy="5.0907"/>
<feGaussianBlur stdDeviation="5.0907"/>
<feColorMatrix type="matrix" values="0 0 0 0 0 0 0 0 0 0 0 0 0 0 0 0 0 0 0.25 0"/>
<feBlend mode="normal" in2="BackgroundImageFix" result="effect1_dropShadow_9_13750"/>
<feBlend mode="normal" in="SourceGraphic" in2="effect1_dropShadow_9_13750" result="shape"/>
</filter>
<linearGradient id="paint0_linear_9_13750" x1="65.2185" y1="63.3407" x2="38.3978" y2="91.9201" gradientUnits="userSpaceOnUse">
<stop stop-color="#EACE47"/>
<stop offset="1" stop-color="#F4DF4C"/>
</linearGradient>
<linearGradient id="paint1_linear_9_13750" x1="126.796" y1="22.6241" x2="70.7046" y2="79.9813" gradientUnits="userSpaceOnUse">
<stop stop-color="#F9A5D3"/>
<stop offset="0.3725" stop-color="#F5F7A1"/>
<stop offset="0.4356" stop-color="#DAF7B3"/>
<stop offset="0.5155" stop-color="#C0F7C4"/>
<stop offset="0.5976" stop-color="#ADF7D1"/>
<stop offset="0.6826" stop-color="#A2F7D9"/>
<stop offset="0.7746" stop-color="#9FF7DC"/>
<stop offset="1" stop-color="#BAC0F7"/>
</linearGradient>
<linearGradient id="paint2_linear_9_13750" x1="76.7295" y1="120.509" x2="30.7594" y2="28.5693" gradientUnits="userSpaceOnUse">
<stop offset="0.0887" stop-color="#F9A5D3"/>
<stop offset="0.3725" stop-color="#F5F7A1"/>
<stop offset="0.708" stop-color="#9FF7DC"/>
<stop offset="1" stop-color="#53E0FF"/>
</linearGradient>
<linearGradient id="paint3_linear_9_13750" x1="74.9111" y1="77.2757" x2="61.9776" y2="8.95315" gradientUnits="userSpaceOnUse">
<stop stop-color="#F9A5D3"/>
<stop offset="0.0043" stop-color="#F8A6D1"/>
<stop offset="0.0909" stop-color="#F7C9BC"/>
<stop offset="0.1727" stop-color="#F5E2AD"/>
<stop offset="0.2471" stop-color="#F5F1A4"/>
<stop offset="0.3075" stop-color="#F5F7A1"/>
<stop offset="0.3262" stop-color="#EAF7A8"/>
<stop offset="0.382" stop-color="#CEF7BB"/>
<stop offset="0.4427" stop-color="#B9F7C9"/>
<stop offset="0.5099" stop-color="#AAF7D4"/>
<stop offset="0.5888" stop-color="#A1F7DA"/>
<stop offset="0.708" stop-color="#9FF7DC"/>
<stop offset="1" stop-color="#BAC0F7"/>
</linearGradient>
</defs>
</svg>
