<svg width="156" height="134" viewBox="0 0 156 134" fill="none" xmlns="http://www.w3.org/2000/svg">
<g filter="url(#filter0_d_9_12903)">
<path d="M129.031 111.067L129.067 22.6541L40.6544 22.6176L40.6179 111.03L129.031 111.067Z" fill="#EDEDED"/>
<path d="M129.031 112H129.03L40.6176 111.964C40.37 111.963 40.1327 111.865 39.9578 111.69C39.7828 111.515 39.6848 111.278 39.6848 111.03L39.7212 22.6177C39.7215 22.1026 40.1392 21.6851 40.6543 21.6851H40.6545L129.067 21.7211C129.315 21.7212 129.552 21.8196 129.727 21.9947C129.902 22.1697 130 22.407 130 22.6545L129.964 111.067C129.963 111.583 129.546 112 129.031 112ZM41.5511 110.098L128.098 110.134L128.134 23.5867L41.587 23.5515L41.5511 110.098Z" fill="#262933"/>
<path d="M103.346 67.1092C105.757 63.485 107.385 60.0969 108.187 57.0285C109.089 53.5799 108.935 50.6031 107.729 48.1808C106.198 45.1063 103.204 43.3821 99.2982 43.3258C95.3314 43.2701 90.4414 44.9911 85.1081 48.3148C79.8698 44.8385 75.0286 42.9756 71.0671 42.9185C67.1613 42.8651 64.1205 44.4996 62.5019 47.5291C61.125 50.1063 60.9631 53.3715 62.0207 57.234C62.8056 60.1011 64.2535 63.2357 66.3281 66.5613C63.9209 70.181 62.2963 73.5655 61.4957 76.6312C60.5955 80.0777 60.7506 83.0533 61.9565 85.4754C63.4872 88.5501 66.4804 90.2743 70.3849 90.3305C74.3429 90.3868 79.2215 88.6715 84.5447 85.3602C88.5638 88.0161 94.2276 90.7001 98.8917 90.7675C98.8936 90.7675 98.8954 90.7675 98.8973 90.7676C98.9573 90.7684 99.0166 90.7688 99.076 90.7688C101.635 90.7698 103.757 90.015 105.385 88.524C107.203 86.8594 108.2 84.4495 108.347 81.3609L108.352 81.2526C108.353 81.2145 108.354 81.1764 108.352 81.1384L108.348 81.0295C108.233 78.0933 107.55 73.8779 103.346 67.1092Z" fill="#262933"/>
<path d="M97.6556 66.8669C97.6738 61.0264 94.606 56.2823 90.8036 56.2705C87.0011 56.2587 83.904 60.9837 83.8858 66.8241C83.8677 72.6646 86.9355 77.4087 90.7379 77.4205C94.5403 77.4323 97.6375 72.7073 97.6556 66.8669Z" fill="white"/>
<path d="M90.75 78.64C90.7446 78.64 90.7394 78.64 90.734 78.6399C88.4687 78.6329 86.3808 77.3296 84.8551 74.9702C83.4342 72.7728 82.6568 69.8784 82.6663 66.8203C82.6758 63.7622 83.4711 60.8728 84.9057 58.6843C86.4422 56.34 88.5322 55.0501 90.7914 55.051C90.7967 55.051 90.8019 55.051 90.8073 55.0511C93.0726 55.0581 95.1605 56.3614 96.6862 58.7208C98.1071 60.9182 98.8845 63.8126 98.8749 66.8707C98.8654 69.9288 98.0702 72.8183 96.6356 75.0068C95.099 77.3511 93.0092 78.6409 90.75 78.64ZM90.7908 57.4898C87.7234 57.4886 85.1208 61.7613 85.1051 66.8279C85.0894 71.8992 87.6705 76.1917 90.7416 76.2012H90.7505C92.1601 76.2018 93.5254 75.3032 94.596 73.6699C95.7746 71.8717 96.4282 69.4544 96.4362 66.8631C96.4519 61.7918 93.8707 57.4994 90.7997 57.4898H90.7908Z" fill="#262933"/>
<path d="M92.9953 61.4199C91.3671 61.4149 89.9797 63.0258 89.4778 65.2684C89.3872 65.6733 89.5708 66.0907 89.924 66.3084L91.2661 67.136C91.7513 67.4352 91.8811 68.0831 91.5486 68.5462L90.4359 70.0957C90.1978 70.4272 90.1851 70.8744 90.4144 71.212C91.075 72.1852 91.971 72.7847 92.9601 72.7878C95.0038 72.7941 96.6685 70.2545 96.6783 67.1153C96.688 63.9762 95.0391 61.4263 92.9953 61.4199Z" fill="#262933"/>
<path d="M85.7985 66.8639C85.8166 61.0235 82.7488 56.2793 78.9464 56.2675C75.144 56.2557 72.0468 60.9808 72.0287 66.8212C72.0105 72.6616 75.0783 77.4058 78.8807 77.4176C82.6832 77.4294 85.7803 72.7044 85.7985 66.8639Z" fill="white"/>
<path d="M78.8928 78.6373C78.8874 78.6373 78.8822 78.6373 78.8768 78.6372C76.6114 78.6302 74.5236 77.3269 72.9979 74.9675C71.577 72.7701 70.7996 69.8757 70.8092 66.8176C70.8187 63.7595 71.6139 60.8702 73.0484 58.6816C74.5851 56.3373 76.6749 55.0474 78.9341 55.0483C78.9395 55.0483 78.9446 55.0483 78.95 55.0484C81.2154 55.0554 83.3032 56.3587 84.8289 58.7181C86.2498 60.9155 87.0272 63.8099 87.0177 66.868C87.0082 69.9261 86.2129 72.8156 84.7784 75.0041C83.2418 77.3484 81.152 78.6382 78.8928 78.6373ZM78.9336 57.4871C75.8663 57.4859 73.2636 61.7586 73.2479 66.8252C73.2322 71.8965 75.8134 76.189 78.8844 76.1985H78.8933C80.3029 76.1991 81.6681 75.3005 82.7388 73.6672C83.9173 71.869 84.5709 69.4517 84.5789 66.8604C84.5947 61.7891 82.0135 57.4967 78.9424 57.4871H78.9336Z" fill="#262933"/>
<path d="M81.6823 61.417C80.0542 61.4119 78.6667 63.0229 78.1648 65.2655C78.0742 65.6704 78.2578 66.0877 78.611 66.3055L79.9531 67.1331C80.4383 67.4323 80.5681 68.0802 80.2356 68.5433L79.1229 70.0928C78.8848 70.4243 78.8721 70.8714 79.1014 71.2091C79.7621 72.1823 80.6581 72.7818 81.6471 72.7848C83.6908 72.7912 85.3555 70.2515 85.3653 67.1124C85.375 63.9733 83.7261 61.4233 81.6823 61.417Z" fill="#262933"/>
</g>
<g filter="url(#filter1_d_9_12903)">
<path d="M115.346 97.3817L115.382 8.96899L26.9695 8.93258L26.9331 97.3453L115.346 97.3817Z" fill="white"/>
<path d="M115.346 98.315L26.9327 98.2785C26.6852 98.2784 26.4479 98.1801 26.2729 98.005C26.098 97.8299 26 97.5926 26 97.3451L26.0364 8.93261C26.0367 8.4175 26.4543 8 26.9695 8H26.9697L115.382 8.03605C115.63 8.0361 115.867 8.13452 116.042 8.3096C116.217 8.48467 116.315 8.72198 116.315 8.96949L116.279 97.3824C116.279 97.8975 115.861 98.315 115.346 98.315ZM27.8663 96.4129L114.413 96.4485L114.449 9.90165L27.9022 9.86643L27.8663 96.4129Z" fill="#262933"/>
<g filter="url(#filter2_d_9_12903)">
<path d="M97.9447 41.895C98.9796 37.9378 98.8026 34.5221 97.4184 31.7426C95.6619 28.2148 92.2263 26.2363 87.7446 26.1718C83.1929 26.1078 77.5818 28.0826 71.4621 31.8964C65.4513 27.9075 59.8963 25.7698 55.3507 25.7043C50.8688 25.643 47.3797 27.5187 45.5223 30.9947C43.9424 33.952 43.7565 37.6987 44.9702 42.1309C45.8708 45.4206 47.5323 49.0175 49.9127 52.8334C47.1507 56.9871 45.2864 60.8706 44.3678 64.3884C43.3349 68.343 43.5127 71.7574 44.8965 74.5367C46.653 78.0647 50.0876 80.0433 54.5677 80.1078C59.1095 80.1723 64.7074 78.2041 70.8156 74.4045C74.3041 76.7099 78.8174 79.0077 83.1522 80.0364L97.7082 66.057C97.1419 62.9752 95.8081 58.9667 92.3895 53.4621C95.1563 49.3036 97.0238 45.4159 97.9447 41.895Z" fill="#262933"/>
<path d="M70.8156 74.4045C64.7074 78.204 59.1095 80.1723 54.5677 80.1077C50.0876 80.0432 46.653 78.0647 44.8965 74.5367C43.5127 71.7573 43.335 68.3429 44.3678 64.3883C45.2864 60.8705 47.1507 56.987 49.9127 52.8333C47.5323 49.0174 45.8708 45.4206 44.9702 42.1308C43.7565 37.6986 43.9424 33.9519 45.5223 30.9946C47.3797 27.5186 50.8688 25.6429 55.3507 25.7043C59.8963 25.7698 65.4513 27.9075 71.4621 31.8963C77.5818 28.0825 83.1929 26.1077 87.7446 26.1717C92.2263 26.2363 95.662 28.2147 97.4185 31.7425C98.8026 34.522 98.9796 37.9377 97.9447 41.8949C97.0238 45.4158 95.1564 49.3035 92.3895 53.462C95.8082 58.9666 97.1965 62.9984 97.7629 66.0801L100.191 63.748C99.5169 61.1154 98.2946 57.9238 96.0511 53.9921C95.8827 53.6969 95.8879 53.3337 96.0649 53.0437C98.3112 49.3622 99.8792 45.8557 100.725 42.6221C101.941 37.9724 101.694 33.881 99.991 30.4616C97.7641 25.9892 93.3153 23.3785 87.7851 23.2987L87.5223 23.2967C82.9629 23.2967 77.7337 24.9586 71.9865 28.2367C71.6917 28.4048 71.3301 28.3999 71.0401 28.2242C65.3319 24.761 59.92 22.8962 55.3893 22.8314L55.131 22.8293C49.7288 22.8293 45.3002 25.3117 42.9879 29.6407C41.0498 33.2672 40.7845 37.7245 42.1986 42.889C43.0049 45.835 44.3684 49.0034 46.2515 52.3059C46.4195 52.6007 46.4143 52.9639 46.2373 53.2539C43.995 56.9305 42.4307 60.4321 41.5871 63.6621C40.3739 68.3086 40.6217 72.3983 42.3238 75.8169C44.5506 80.2901 48.9987 82.9013 54.5272 82.981L54.7908 82.9827C59.3429 82.9827 64.5645 81.3244 70.3047 78.0535C70.5967 77.8879 70.9551 77.8907 71.2438 78.0624C73.4112 79.3512 76.9199 81.2078 80.7909 82.3801L83.2069 80.0596C78.872 79.0309 74.3041 76.7098 70.8156 74.4045Z" fill="white"/>
<path d="M70.7665 78.8645C64.88 82.218 59.5121 83.9159 54.7851 83.9159L54.5138 83.914C48.6234 83.829 43.8763 81.0294 41.4885 76.233C39.6828 72.6058 39.4123 68.2973 40.6847 63.4266C41.5527 60.1014 43.1496 56.5244 45.4405 52.7679C43.5171 49.3939 42.1273 46.1626 41.299 43.1357C39.8194 37.7339 40.1106 33.0453 42.165 29.201C44.6449 24.5585 49.3734 21.8964 55.1382 21.8964L55.4026 21.8982C60.126 21.9661 65.6622 23.8704 71.524 27.4265C77.4169 24.0655 82.7927 22.3638 87.5291 22.3638L87.7982 22.3658C93.6903 22.4508 98.4382 25.25 100.826 30.0459C102.632 33.6731 102.902 37.9839 101.627 42.8582C100.757 46.1872 99.1562 49.7684 96.8611 53.5295C99.0054 57.2871 100.243 60.3966 100.962 63.0082L101.723 62.2768C101.004 59.8217 99.8426 56.9483 97.9418 53.5455C100.132 49.8782 101.675 46.3648 102.53 43.0943C103.863 37.9951 103.571 33.4652 101.661 29.6299C99.1125 24.5108 94.0647 21.523 87.8053 21.4327L87.5291 21.4307C82.764 21.4307 77.3861 23.0845 71.5385 26.3473C65.7164 22.8922 60.1511 21.0334 55.4099 20.9654L55.1382 20.9634C49.0176 20.9634 43.9893 23.8058 41.3421 28.7612C39.1715 32.823 38.8544 37.742 40.3989 43.3818C41.2068 46.3344 42.5391 49.4846 44.3606 52.7522C42.1743 56.4142 40.6346 59.924 39.7818 63.1908C38.4511 68.2864 38.7443 72.8142 40.6532 76.6488C43.202 81.7686 48.2494 84.7568 54.508 84.8471L54.785 84.8488C59.5429 84.8488 64.9142 83.1978 70.7566 79.9411C73.1191 81.3154 76.0668 82.7971 79.2475 83.8623L80.0163 83.1239C76.3857 81.9641 73.0802 80.2399 70.7665 78.8645Z" fill="#DBDBDD"/>
<path d="M101.627 42.8574C102.902 37.983 102.632 33.6722 100.826 30.045C98.4383 25.2491 93.6904 22.4499 87.7982 22.3649L87.5292 22.3629C82.7928 22.3629 77.417 24.0646 71.524 27.4256C65.6623 23.8695 60.1261 21.9651 55.4027 21.8973L55.1382 21.8955C49.3735 21.8955 44.645 24.5576 42.165 29.2002C40.1107 33.0444 39.8195 37.733 41.299 43.1348C42.1274 46.1617 43.5172 49.393 45.4405 52.767C43.1497 56.5235 41.5527 60.1005 40.6847 63.4257C39.4124 68.2964 39.6829 72.6049 41.4886 76.2321C43.8764 81.0285 48.6235 83.8281 54.5138 83.9131L54.7851 83.9151C59.5122 83.9151 64.8801 82.2171 70.7666 78.8636C73.0803 80.239 76.3858 81.9631 80.0164 83.1229L80.7909 82.3792C76.9199 81.207 73.4111 79.3503 71.2438 78.0616C70.9551 77.8898 70.5967 77.887 70.3047 78.0527C64.5644 81.3235 59.3429 82.9818 54.7908 82.9818L54.5271 82.9802C48.9987 82.9004 44.5506 80.2892 42.3237 75.8161C40.6217 72.3974 40.3739 68.3077 41.5871 63.6612C42.4306 60.4313 43.995 56.9296 46.2372 53.253C46.4142 52.9631 46.4195 52.5998 46.2514 52.305C44.3684 49.0026 43.0049 45.8342 42.1986 42.8881C40.7845 37.7236 41.0497 33.2663 42.9879 29.6399C45.3002 25.3109 49.7288 22.8285 55.1309 22.8285L55.3893 22.8305C59.92 22.8953 65.3318 24.7601 71.0401 28.2233C71.33 28.3991 71.6917 28.4039 71.9865 28.2359C77.7336 24.9577 82.9628 23.2958 87.5223 23.2958L87.7851 23.2978C93.3152 23.3776 97.7641 25.9883 99.9909 30.4607C101.694 33.8802 101.941 37.9715 100.725 42.6212C99.8792 45.8548 98.3112 49.3613 96.0649 53.0428C95.8879 53.3328 95.8826 53.696 96.0511 53.9912C98.2945 57.9229 99.5169 61.1146 100.191 63.7471L100.962 63.0072C100.243 60.3956 99.0055 57.2862 96.8612 53.5286C99.1563 49.7675 100.757 46.1863 101.627 42.8574Z" fill="#DBDBDD"/>
<path d="M78.1018 76.7516L78.1067 76.8893C78.1796 78.7477 78.4175 81.0246 79.2485 83.8623L101.724 62.2768C99.1606 61.4183 96.4464 60.8297 93.762 60.7906H93.7555L93.4769 60.7886C89.3208 60.7886 85.8098 62.0739 83.0411 64.6089C79.9995 67.3946 78.34 71.2636 78.1092 76.1162L78.1059 76.1952C78.0954 76.3924 78.0941 76.5897 78.1018 76.7516Z" fill="#D4D4D6"/>
<path d="M85.8602 53.1817C85.881 46.48 82.3608 41.0363 77.9977 41.0227C73.6345 41.0092 70.0807 46.431 70.0599 53.1326C70.0391 59.8343 73.5592 65.2781 77.9224 65.2916C82.2855 65.3051 85.8394 59.8833 85.8602 53.1817Z" fill="white"/>
<path d="M77.9364 66.6912C77.9302 66.6912 77.9242 66.6912 77.9181 66.6911C75.3187 66.6831 72.9229 65.1876 71.1722 62.4803C69.5418 59.9589 68.6498 56.6376 68.6607 53.1286C68.6716 49.6195 69.5842 46.304 71.2303 43.7928C72.9934 41.1028 75.3916 39.6227 77.9839 39.6238C77.9901 39.6238 77.9959 39.6238 78.0021 39.6239C80.6015 39.6319 82.9973 41.1273 84.748 43.8347C86.3784 46.3561 87.2704 49.6773 87.2594 53.1863C87.2486 56.6954 86.336 60.0109 84.6899 62.5222C82.9267 65.2122 80.5287 66.6922 77.9364 66.6912ZM77.9832 42.4222C74.4635 42.4207 71.4771 47.3236 71.459 53.1373C71.441 58.9564 74.4029 63.8818 77.9267 63.8928H77.937C79.5544 63.8934 81.121 62.8624 82.3496 60.9882C83.7019 58.9249 84.4519 56.151 84.4611 53.1777C84.4791 47.3586 81.5173 42.4332 77.9934 42.4222H77.9832Z" fill="#262933"/>
<path d="M80.5128 46.9336C78.6445 46.9278 77.0524 48.7763 76.4765 51.3495C76.3726 51.8142 76.5832 52.2931 76.9885 52.543L78.5285 53.4926C79.0853 53.8359 79.2343 54.5794 78.8527 55.1107L77.5759 56.8887C77.3027 57.2691 77.2882 57.7822 77.5512 58.1696C78.3093 59.2863 79.3375 59.9742 80.4723 59.9777C82.8175 59.985 84.7276 57.0708 84.7388 53.4688C84.75 49.8668 82.8579 46.9409 80.5128 46.9336Z" fill="#262933"/>
<path d="M72.255 53.1751C72.2758 46.4734 68.7556 41.0297 64.3925 41.0161C60.0293 41.0026 56.4754 46.4244 56.4546 53.1261C56.4339 59.8277 59.954 65.2715 64.3171 65.285C68.6803 65.2986 72.2342 59.8768 72.255 53.1751Z" fill="white"/>
<path d="M64.3311 66.6848C64.3249 66.6848 64.319 66.6848 64.3128 66.6847C61.7134 66.6767 59.3177 65.1813 57.567 62.4739C55.9365 59.9525 55.0445 56.6313 55.0555 53.1223C55.0664 49.6132 55.9789 46.2977 57.6249 43.7864C59.3882 41.0965 61.7862 39.6164 64.3786 39.6174C64.3847 39.6174 64.3906 39.6174 64.3968 39.6175C66.9963 39.6255 69.3919 41.121 71.1426 43.8283C72.7731 46.3497 73.6651 49.6709 73.6541 53.18C73.6433 56.6891 72.7307 60.0046 71.0846 62.5158C69.3214 65.2059 66.9234 66.6859 64.3311 66.6848ZM64.3779 42.4158C60.8583 42.4144 57.8719 47.3172 57.8538 53.131C57.8358 58.95 60.7976 63.8755 64.3215 63.8864H64.3318C65.9492 63.8871 67.5157 62.856 68.7442 60.9818C70.0966 58.9185 70.8466 56.1447 70.8558 53.1713C70.8738 47.3522 67.912 42.4268 64.3881 42.4158H64.3779Z" fill="#262933"/>
<path d="M67.5318 46.9275C65.6635 46.9217 64.0715 48.7702 63.4956 51.3434C63.3916 51.8081 63.6023 52.287 64.0075 52.5369L65.5476 53.4865C66.1044 53.8298 66.2533 54.5732 65.8718 55.1046L64.5949 56.8826C64.3218 57.263 64.3072 57.7761 64.5702 58.1635C65.3284 59.2802 66.3565 59.9681 67.4914 59.9716C69.8365 59.9789 71.7466 57.0647 71.7578 53.4627C71.769 49.8607 69.877 46.9348 67.5318 46.9275Z" fill="#262933"/>
</g>
</g>
<defs>
<filter id="filter0_d_9_12903" x="32.3927" y="14.393" width="119.484" height="119.483" filterUnits="userSpaceOnUse" color-interpolation-filters="sRGB">
<feFlood flood-opacity="0" result="BackgroundImageFix"/>
<feColorMatrix in="SourceAlpha" type="matrix" values="0 0 0 0 0 0 0 0 0 0 0 0 0 0 0 0 0 0 127 0" result="hardAlpha"/>
<feOffset dx="7.2921" dy="7.2921"/>
<feGaussianBlur stdDeviation="7.2921"/>
<feColorMatrix type="matrix" values="0 0 0 0 0 0 0 0 0 0 0 0 0 0 0 0 0 0 0.25 0"/>
<feBlend mode="normal" in2="BackgroundImageFix" result="effect1_dropShadow_9_12903"/>
<feBlend mode="normal" in="SourceGraphic" in2="effect1_dropShadow_9_12903" result="shape"/>
</filter>
<filter id="filter1_d_9_12903" x="18.7079" y="0.7079" width="119.484" height="119.483" filterUnits="userSpaceOnUse" color-interpolation-filters="sRGB">
<feFlood flood-opacity="0" result="BackgroundImageFix"/>
<feColorMatrix in="SourceAlpha" type="matrix" values="0 0 0 0 0 0 0 0 0 0 0 0 0 0 0 0 0 0 127 0" result="hardAlpha"/>
<feOffset dx="7.2921" dy="7.2921"/>
<feGaussianBlur stdDeviation="7.2921"/>
<feColorMatrix type="matrix" values="0 0 0 0 0 0 0 0 0 0 0 0 0 0 0 0 0 0 0.25 0"/>
<feBlend mode="normal" in2="BackgroundImageFix" result="effect1_dropShadow_9_12903"/>
<feBlend mode="normal" in="SourceGraphic" in2="effect1_dropShadow_9_12903" result="shape"/>
</filter>
<filter id="filter2_d_9_12903" x="37.4634" y="19.4634" width="70.3875" height="69.8855" filterUnits="userSpaceOnUse" color-interpolation-filters="sRGB">
<feFlood flood-opacity="0" result="BackgroundImageFix"/>
<feColorMatrix in="SourceAlpha" type="matrix" values="0 0 0 0 0 0 0 0 0 0 0 0 0 0 0 0 0 0 127 0" result="hardAlpha"/>
<feOffset dx="1.5" dy="1.5"/>
<feGaussianBlur stdDeviation="1.5"/>
<feColorMatrix type="matrix" values="0 0 0 0 0 0 0 0 0 0 0 0 0 0 0 0 0 0 0.3 0"/>
<feBlend mode="normal" in2="BackgroundImageFix" result="effect1_dropShadow_9_12903"/>
<feBlend mode="normal" in="SourceGraphic" in2="effect1_dropShadow_9_12903" result="shape"/>
</filter>
</defs>
</svg>
