<svg width="170" height="136" viewBox="0 0 170 136" fill="none" xmlns="http://www.w3.org/2000/svg">
<g filter="url(#filter0_d_9_12756)">
<path d="M83.7726 112C67.6512 112 52.4244 107.621 40.8966 99.6686C28.7429 91.2846 22.0498 79.9354 22.0498 67.7109C22.0498 55.4863 28.7429 44.1367 40.8966 35.7532C52.4244 27.8012 67.6512 23.4216 83.7726 23.4216C99.8939 23.4216 115.121 27.8012 126.649 35.7532C138.802 44.1367 145.495 55.4863 145.495 67.7109C145.495 79.9354 138.802 91.2846 126.649 99.6686C115.121 107.621 99.8939 112 83.7726 112Z" fill="white"/>
<path d="M83.7724 106.482C114.813 106.482 139.977 89.1233 139.977 67.7108C139.977 46.2982 114.813 28.9399 83.7724 28.9399C52.7316 28.9399 27.5681 46.2982 27.5681 67.7108C27.5681 89.1233 52.7316 106.482 83.7724 106.482Z" fill="url(#paint0_linear_9_12756)"/>
</g>
<path d="M83.7725 30.9529C98.381 30.9529 112.089 34.8593 122.372 41.9527C132.427 48.8885 137.964 58.0363 137.964 67.7109C137.964 77.3855 132.427 86.5334 122.372 93.4694C112.089 100.563 98.3809 104.469 83.7725 104.469C69.164 104.469 55.4556 100.563 45.1728 93.4694C35.1181 86.5334 29.5808 77.3856 29.5808 67.7109C29.5808 58.0362 35.1181 48.8885 45.1728 41.9527C55.4556 34.8592 69.1639 30.9529 83.7725 30.9529ZM83.7725 28.9402C52.7316 28.9402 27.5681 46.2984 27.5681 67.7109C27.5681 89.1233 52.7316 106.482 83.7725 106.482C114.813 106.482 139.977 89.1235 139.977 67.7109C139.977 46.2983 114.813 28.9402 83.7725 28.9402Z" fill="#262933"/>
<g filter="url(#filter1_d_9_12756)">
<path d="M72.7228 96.5781C56.6019 96.5781 41.3746 92.1985 29.8464 84.2465C17.6931 75.8626 11 64.5129 11 52.2888C11 40.0647 17.6931 28.7151 29.8464 20.3315C41.3746 12.3796 56.6018 8 72.7228 8C88.8437 8 104.071 12.3796 115.599 20.3315C127.752 28.715 134.445 40.0643 134.445 52.2888C134.445 64.5134 127.752 75.8626 115.599 84.2465C104.071 92.1985 88.8437 96.5781 72.7228 96.5781Z" fill="white"/>
<path d="M72.7226 91.06C103.763 91.06 128.927 73.7017 128.927 52.2892C128.927 30.8766 103.763 13.5183 72.7226 13.5183C41.6818 13.5183 16.5183 30.8766 16.5183 52.2892C16.5183 73.7017 41.6818 91.06 72.7226 91.06Z" fill="url(#paint1_linear_9_12756)"/>
</g>
<path d="M72.7226 15.531C87.3312 15.531 101.039 19.4375 111.322 26.5308C121.377 33.4667 126.914 42.6145 126.914 52.2892C126.914 61.9638 121.377 71.1115 111.322 78.0475C101.039 85.1408 87.3311 89.0473 72.7226 89.0473C58.1142 89.0473 44.4058 85.1408 34.123 78.0475C24.0683 71.1115 18.531 61.9638 18.531 52.2892C18.531 42.6145 24.0683 33.4667 34.123 26.5308C44.4058 19.4375 58.1141 15.531 72.7226 15.531ZM72.7226 13.5183C41.6818 13.5183 16.5183 30.8766 16.5183 52.2892C16.5183 73.7017 41.6818 91.06 72.7226 91.06C103.763 91.06 128.927 73.7016 128.927 52.2892C128.927 30.8767 103.763 13.5183 72.7226 13.5183Z" fill="#262933"/>
<path d="M90.9644 52.5515C93.3415 48.9786 94.946 45.6385 95.7371 42.6135C96.6262 39.2137 96.4741 36.279 95.285 33.891C93.7758 30.86 90.8242 29.1602 86.9737 29.1047C83.0631 29.0497 78.2423 30.7464 72.9845 34.023C67.8203 30.596 63.0476 28.7594 59.1423 28.7032C55.2917 28.6505 52.294 30.2619 50.6983 33.2485C49.3408 35.7892 49.1812 39.0082 50.2238 42.8161C50.9977 45.6426 52.425 48.7328 54.4703 52.0114C52.0971 55.5799 50.4956 58.9165 49.7063 61.9389C48.8189 65.3365 48.9717 68.2701 50.1606 70.6579C51.6696 73.6891 54.6205 75.3889 58.4696 75.4443C62.3716 75.4998 67.1812 73.8087 72.429 70.5444C76.3913 73.1627 81.9748 75.8087 86.573 75.8751C86.5748 75.8751 86.5766 75.8751 86.5785 75.8752C86.6376 75.876 86.696 75.8764 86.7546 75.8764C89.277 75.8774 91.3691 75.1333 92.9745 73.6634C94.7668 72.0223 95.7491 69.6466 95.8939 66.6016L95.899 66.4948C95.9007 66.4573 95.9009 66.4198 95.8994 66.3823L95.8952 66.2749C95.7819 63.3803 95.1084 59.2245 90.9644 52.5515Z" fill="#262933"/>
<path d="M85.3551 52.3135C85.3729 46.5557 82.3486 41.8787 78.6 41.867C74.8514 41.8554 71.798 46.5136 71.7802 52.2714C71.7623 58.0292 74.7866 62.7062 78.5353 62.7178C82.2839 62.7295 85.3372 58.0713 85.3551 52.3135Z" fill="white"/>
<path d="M78.5472 63.9197C78.5419 63.9197 78.5367 63.9197 78.5314 63.9196C76.2981 63.9128 74.2398 62.6279 72.7357 60.3019C71.3349 58.1356 70.5685 55.2822 70.578 52.2673C70.5873 49.2525 71.3713 46.4039 72.7856 44.2464C74.3004 41.9353 76.3608 40.6636 78.5879 40.6646C78.5933 40.6646 78.5983 40.6646 78.6036 40.6646C80.8369 40.6715 82.8952 41.9564 84.3993 44.2824C85.8001 46.4487 86.5665 49.3021 86.5571 52.3169C86.5477 55.3318 85.7637 58.1803 84.3495 60.3379C82.8345 62.6491 80.7744 63.9206 78.5472 63.9197ZM78.5874 43.0688C75.5635 43.0675 72.9977 47.2798 72.9821 52.2748C72.9667 57.2743 75.5113 61.506 78.5389 61.5154H78.5477C79.9373 61.516 81.2833 60.6302 82.3387 59.0199C83.5007 57.2472 84.145 54.8641 84.1529 52.3095C84.1683 47.3099 81.6237 43.0782 78.5961 43.0688H78.5874Z" fill="#262933"/>
<path d="M80.7606 46.9429C79.1555 46.9379 77.7876 48.526 77.2929 50.7369C77.2036 51.1361 77.3846 51.5475 77.7327 51.7622L79.0558 52.5781C79.5342 52.8731 79.6622 53.5118 79.3343 53.9683L78.2373 55.4959C78.0027 55.8227 77.9901 56.2635 78.2161 56.5964C78.8674 57.5558 79.7508 58.1468 80.7258 58.1498C82.7406 58.1561 84.3817 55.6524 84.3913 52.5577C84.4009 49.463 82.7755 46.9491 80.7606 46.9429Z" fill="#262933"/>
<path d="M73.6656 52.3059C73.6835 46.5481 70.6591 41.8711 66.9105 41.8595C63.1619 41.8478 60.1086 46.506 60.0907 52.2638C60.0728 58.0216 63.0972 62.6986 66.8458 62.7103C70.5944 62.7219 73.6477 58.0637 73.6656 52.3059Z" fill="white"/>
<path d="M66.8579 63.9121C66.8526 63.9121 66.8475 63.9121 66.8422 63.9121C64.6089 63.9052 62.5506 62.6203 61.0465 60.2943C59.6457 58.128 58.8793 55.2746 58.8888 52.2598C58.8981 49.2449 59.682 46.3964 61.0963 44.2388C62.6112 41.9277 64.6715 40.6561 66.8987 40.657C66.904 40.657 66.909 40.657 66.9143 40.657C69.1477 40.6639 71.2059 41.9488 72.71 44.2748C74.1108 46.4411 74.8772 49.2945 74.8678 52.3094C74.8585 55.3242 74.0744 58.1728 72.6602 60.3303C71.1454 62.6415 69.0851 63.9131 66.8579 63.9121ZM66.8981 43.0612C63.8743 43.06 61.3085 47.2723 61.2929 52.2672C61.2775 57.2667 63.8221 61.4985 66.8497 61.5079H66.8585C68.2481 61.5084 69.594 60.6226 70.6495 59.0123C71.8114 57.2396 72.4557 54.8565 72.4636 52.3019C72.4791 47.3024 69.9344 43.0706 66.9068 43.0612H66.8981Z" fill="#262933"/>
<path d="M69.608 46.9368C68.0029 46.9318 66.6351 48.5199 66.1403 50.7308C66.051 51.13 66.232 51.5414 66.5801 51.7561L67.9032 52.572C68.3816 52.8669 68.5096 53.5057 68.1818 53.9622L67.0848 55.4898C66.8501 55.8166 66.8375 56.2574 67.0635 56.5903C67.7149 57.5497 68.5982 58.1407 69.5732 58.1437C71.588 58.15 73.2291 55.6463 73.2387 52.5516C73.2483 49.4569 71.6229 46.943 69.608 46.9368Z" fill="#262933"/>
<defs>
<filter id="filter0_d_9_12756" x="14.2036" y="15.5754" width="154.83" height="119.963" filterUnits="userSpaceOnUse" color-interpolation-filters="sRGB">
<feFlood flood-opacity="0" result="BackgroundImageFix"/>
<feColorMatrix in="SourceAlpha" type="matrix" values="0 0 0 0 0 0 0 0 0 0 0 0 0 0 0 0 0 0 127 0" result="hardAlpha"/>
<feOffset dx="7.8462" dy="7.8462"/>
<feGaussianBlur stdDeviation="7.8462"/>
<feColorMatrix type="matrix" values="0 0 0 0 0 0 0 0 0 0 0 0 0 0 0 0 0 0 0.25 0"/>
<feBlend mode="normal" in2="BackgroundImageFix" result="effect1_dropShadow_9_12756"/>
<feBlend mode="normal" in="SourceGraphic" in2="effect1_dropShadow_9_12756" result="shape"/>
</filter>
<filter id="filter1_d_9_12756" x="3.1538" y="0.1538" width="154.83" height="119.963" filterUnits="userSpaceOnUse" color-interpolation-filters="sRGB">
<feFlood flood-opacity="0" result="BackgroundImageFix"/>
<feColorMatrix in="SourceAlpha" type="matrix" values="0 0 0 0 0 0 0 0 0 0 0 0 0 0 0 0 0 0 127 0" result="hardAlpha"/>
<feOffset dx="7.8462" dy="7.8462"/>
<feGaussianBlur stdDeviation="7.8462"/>
<feColorMatrix type="matrix" values="0 0 0 0 0 0 0 0 0 0 0 0 0 0 0 0 0 0 0.25 0"/>
<feBlend mode="normal" in2="BackgroundImageFix" result="effect1_dropShadow_9_12756"/>
<feBlend mode="normal" in="SourceGraphic" in2="effect1_dropShadow_9_12756" result="shape"/>
</filter>
<linearGradient id="paint0_linear_9_12756" x1="32.0974" y1="70.7572" x2="144.506" y2="70.7572" gradientUnits="userSpaceOnUse">
<stop stop-color="#EACE47"/>
<stop offset="1" stop-color="#F4DF4C"/>
</linearGradient>
<linearGradient id="paint1_linear_9_12756" x1="21.0476" y1="55.3356" x2="133.456" y2="55.3356" gradientUnits="userSpaceOnUse">
<stop stop-color="#EACE47"/>
<stop offset="1" stop-color="#F4DF4C"/>
</linearGradient>
</defs>
</svg>
