<svg width="161" height="134" viewBox="0 0 161 134" fill="none" xmlns="http://www.w3.org/2000/svg">
<g filter="url(#filter0_d_9_13075)">
<path d="M138.837 112L138.874 21.9719L31.9645 21.9279L31.9274 111.956L138.837 112Z" fill="white"/>
<path d="M133.329 106.488L133.362 27.4805L37.4731 27.4406L37.4402 106.448L133.329 106.488Z" fill="url(#paint0_linear_9_13075)"/>
<path d="M39.4798 29.4517L131.354 29.4831L131.323 104.476L39.4486 104.444L39.4798 29.4517ZM37.4732 27.4436L37.4404 106.451L133.329 106.484L133.362 27.4764L37.4732 27.4436Z" fill="#262933"/>
</g>
<g filter="url(#filter1_d_9_13075)">
<path d="M124.91 98.0725L124.947 8.04419L18.037 8.00015L17.9999 98.0285L124.91 98.0725Z" fill="white"/>
<path d="M119.402 92.5602L119.434 13.5527L23.5456 13.5129L23.5127 92.5204L119.402 92.5602Z" fill="url(#paint1_linear_9_13075)"/>
<path d="M25.5521 15.524L117.426 15.5553L117.395 90.5481L25.5209 90.5167L25.5521 15.524ZM23.5455 13.5159L23.5127 92.5234L119.401 92.5561L119.434 13.5487L23.5455 13.5159Z" fill="#262933"/>
<path d="M90.3052 53.3073C92.7593 49.6189 94.4156 46.1707 95.2323 43.0479C96.1502 39.5382 95.9932 36.5086 94.7656 34.0434C93.2076 30.9144 90.1605 29.1597 86.1855 29.1023C82.1484 29.0456 77.1717 30.7972 71.7438 34.1797C66.4126 30.6419 61.4855 28.7459 57.4539 28.6878C53.4787 28.6334 50.3841 30.297 48.7368 33.3801C47.3354 36.003 47.1706 39.3261 48.247 43.2572C49.0458 46.1751 50.5194 49.3652 52.6308 52.7497C50.1809 56.4337 48.5275 59.8781 47.7127 62.9982C46.7966 66.5057 46.9544 69.5341 48.1817 71.9992C49.7395 75.1284 52.7858 76.8832 56.7595 76.9403C60.7877 76.9977 65.7528 75.2519 71.1703 71.882C75.2608 74.585 81.0249 77.3165 85.7718 77.3851C85.7737 77.3851 85.7756 77.3851 85.7775 77.3852C85.8385 77.386 85.8989 77.3864 85.9594 77.3865C88.5633 77.3875 90.7231 76.6193 92.3805 75.1019C94.2307 73.4077 95.2448 70.9551 95.3943 67.8117L95.3995 67.7015C95.4013 67.6628 95.4015 67.624 95.4 67.5853L95.3956 67.4745C95.2787 64.4862 94.5833 60.196 90.3052 53.3073Z" fill="#262933"/>
<path d="M84.5142 53.0612C84.5326 47.1173 81.4104 42.289 77.5406 42.277C73.6707 42.265 70.5186 47.0738 70.5002 53.0178C70.4817 58.9617 73.6039 63.79 77.4738 63.802C81.3436 63.814 84.4957 59.0052 84.5142 53.0612Z" fill="white"/>
<path d="M77.4861 65.043C77.4806 65.043 77.4753 65.043 77.4698 65.043C75.1643 65.0359 73.0394 63.7095 71.4867 61.3082C70.0406 59.0719 69.2494 56.1262 69.2591 53.0139C69.2688 49.9015 70.0781 46.9608 71.5381 44.7335C73.1019 42.3477 75.229 41.0349 77.5282 41.0359C77.5337 41.0359 77.5389 41.0359 77.5444 41.0359C79.8499 41.0431 81.9748 42.3694 83.5275 44.7707C84.9736 47.0071 85.7648 49.9527 85.7551 53.0651C85.7454 56.1774 84.9361 59.1181 83.4761 61.3454C81.9122 63.7313 79.7854 65.044 77.4861 65.043ZM77.5276 43.5179C74.4058 43.5166 71.7571 47.8651 71.7411 53.0216C71.7251 58.1827 74.352 62.5513 77.4775 62.561H77.4866C78.9212 62.5616 80.3107 61.6471 81.4003 59.9848C82.5998 58.1548 83.2649 55.6946 83.2731 53.0574C83.2891 47.8962 80.6621 43.5276 77.5366 43.5179H77.5276Z" fill="#262933"/>
<path d="M79.7715 47.5176C78.1144 47.5124 76.7023 49.152 76.1916 51.4343C76.0994 51.8464 76.2862 52.2711 76.6456 52.4928L78.0115 53.335C78.5054 53.6395 78.6375 54.2989 78.2991 54.7702L77.1666 56.3472C76.9243 56.6846 76.9114 57.1396 77.1447 57.4832C77.8171 58.4737 78.729 59.0838 79.7356 59.0869C81.8156 59.0934 83.5098 56.5087 83.5197 53.3139C83.5296 50.1192 81.8515 47.524 79.7715 47.5176Z" fill="#262933"/>
<path d="M72.4468 53.0546C72.4652 47.1107 69.3431 42.2824 65.4732 42.2704C61.6033 42.2584 58.4513 47.0672 58.4328 53.0112C58.4144 58.9551 61.5366 63.7834 65.4064 63.7954C69.2763 63.8074 72.4283 58.9986 72.4468 53.0546Z" fill="white"/>
<path d="M65.4187 65.0365C65.4132 65.0365 65.4079 65.0365 65.4024 65.0364C63.0969 65.0293 60.972 63.7029 59.4193 61.3016C57.9731 59.0653 57.182 56.1196 57.1917 53.0073C57.2014 49.8949 58.0107 46.9543 59.4707 44.727C61.0346 42.3411 63.1615 41.0283 65.4607 41.0293C65.4662 41.0293 65.4714 41.0293 65.4769 41.0294C67.7825 41.0365 69.9073 42.3629 71.4601 44.7641C72.9062 47.0005 73.6973 49.9461 73.6876 53.0585C73.678 56.1708 72.8686 59.1115 71.4086 61.3388C69.8448 63.7247 67.7179 65.0374 65.4187 65.0365ZM65.4602 43.5113C62.3385 43.51 59.6897 47.8585 59.6737 53.015C59.6577 58.1761 62.2847 62.5447 65.4101 62.5544H65.4193C66.8538 62.555 68.2432 61.6405 69.3328 59.9782C70.5323 58.1482 71.1975 55.688 71.2057 53.0508C71.2216 47.8896 68.5947 43.521 65.4692 43.5113H65.4602Z" fill="#262933"/>
<path d="M68.2578 47.5127C66.6007 47.5076 65.1886 49.1471 64.6779 51.4294C64.5857 51.8415 64.7725 52.2662 65.132 52.4879L66.4979 53.3301C66.9917 53.6347 67.1238 54.294 66.7854 54.7653L65.653 56.3423C65.4107 56.6797 65.3978 57.1347 65.6311 57.4784C66.3035 58.4688 67.2154 59.0789 68.2219 59.082C70.3019 59.0885 71.9961 56.5038 72.006 53.309C72.0159 50.1143 70.3378 47.5192 68.2578 47.5127Z" fill="#262933"/>
</g>
<defs>
<filter id="filter0_d_9_13075" x="24.6354" y="14.6359" width="136.115" height="119.24" filterUnits="userSpaceOnUse" color-interpolation-filters="sRGB">
<feFlood flood-opacity="0" result="BackgroundImageFix"/>
<feColorMatrix in="SourceAlpha" type="matrix" values="0 0 0 0 0 0 0 0 0 0 0 0 0 0 0 0 0 0 127 0" result="hardAlpha"/>
<feOffset dx="7.2921" dy="7.2921"/>
<feGaussianBlur stdDeviation="7.2921"/>
<feColorMatrix type="matrix" values="0 0 0 0 0 0 0 0 0 0 0 0 0 0 0 0 0 0 0.25 0"/>
<feBlend mode="normal" in2="BackgroundImageFix" result="effect1_dropShadow_9_13075"/>
<feBlend mode="normal" in="SourceGraphic" in2="effect1_dropShadow_9_13075" result="shape"/>
</filter>
<filter id="filter1_d_9_13075" x="10.7079" y="0.708144" width="136.115" height="119.241" filterUnits="userSpaceOnUse" color-interpolation-filters="sRGB">
<feFlood flood-opacity="0" result="BackgroundImageFix"/>
<feColorMatrix in="SourceAlpha" type="matrix" values="0 0 0 0 0 0 0 0 0 0 0 0 0 0 0 0 0 0 127 0" result="hardAlpha"/>
<feOffset dx="7.2921" dy="7.2921"/>
<feGaussianBlur stdDeviation="7.2921"/>
<feColorMatrix type="matrix" values="0 0 0 0 0 0 0 0 0 0 0 0 0 0 0 0 0 0 0.25 0"/>
<feBlend mode="normal" in2="BackgroundImageFix" result="effect1_dropShadow_9_13075"/>
<feBlend mode="normal" in="SourceGraphic" in2="effect1_dropShadow_9_13075" result="shape"/>
</filter>
<linearGradient id="paint0_linear_9_13075" x1="52.2844" y1="73.0739" x2="106.393" y2="75.5606" gradientUnits="userSpaceOnUse">
<stop stop-color="#EACE47"/>
<stop offset="1" stop-color="#F4DF4C"/>
</linearGradient>
<linearGradient id="paint1_linear_9_13075" x1="38.357" y1="59.1463" x2="92.4655" y2="61.6329" gradientUnits="userSpaceOnUse">
<stop stop-color="#EACE47"/>
<stop offset="1" stop-color="#F4DF4C"/>
</linearGradient>
</defs>
</svg>
