<svg width="156" height="134" viewBox="0 0 156 134" fill="none" xmlns="http://www.w3.org/2000/svg">
<g filter="url(#filter0_d_9_12834)">
<path d="M129.968 99.3324L129.994 34.6397C129.997 27.6436 124.328 21.9698 117.332 21.967L52.6393 21.9403C45.6432 21.9374 39.9694 27.6065 39.9665 34.6027L39.9399 99.2953C39.937 106.291 45.6061 111.965 52.6022 111.968L117.295 111.995C124.291 111.998 129.965 106.328 129.968 99.3324Z" fill="white"/>
<path d="M124.479 98.0623L124.505 35.9031C124.506 31.239 120.727 27.4564 116.063 27.4545L53.9039 27.4287C49.2399 27.4267 45.4573 31.2061 45.4554 35.8702L45.4296 98.0294C45.4276 102.694 49.207 106.476 53.8711 106.478L116.03 106.504C120.694 106.506 124.477 102.726 124.479 98.0623Z" fill="url(#paint0_linear_9_12834)"/>
<path d="M53.9033 29.3298L116.062 29.3556C117.811 29.3564 119.454 30.0378 120.69 31.2745C121.925 32.5112 122.605 34.155 122.605 35.9033L122.579 98.0625C122.577 101.67 119.641 104.605 116.031 104.605L53.872 104.579C50.2632 104.577 47.3284 101.64 47.3298 98.0312L47.3557 35.872C47.3572 32.265 50.2932 29.3301 53.9005 29.3298H53.9033ZM53.9005 27.4297C49.2384 27.4301 45.4574 31.2086 45.4555 35.8712L45.4297 98.0304C45.4278 102.694 49.2072 106.477 53.8712 106.479L116.03 106.505H116.034C120.696 106.505 124.477 102.726 124.479 98.0633L124.505 35.904C124.507 31.2399 120.727 27.4574 116.063 27.4555L53.904 27.4297H53.9005Z" fill="#262933"/>
</g>
<g filter="url(#filter1_d_9_12834)">
<path d="M116.033 85.3973L116.059 20.7047C116.062 13.7086 110.393 8.03477 103.397 8.03189L38.7044 8.00524C31.7084 8.00236 26.0346 13.6715 26.0317 20.6676L26.005 85.3602C26.0022 92.3563 31.6713 98.0301 38.6674 98.033L103.36 98.0597C110.356 98.0625 116.03 92.3934 116.033 85.3973Z" fill="white"/>
<path d="M110.544 84.1285L110.57 21.9692C110.572 17.3051 106.792 13.5226 102.128 13.5207L39.9691 13.4948C35.305 13.4929 31.5225 17.2723 31.5206 21.9364L31.4947 84.0956C31.4928 88.7597 35.2722 92.5422 39.9363 92.5442L102.095 92.57C106.759 92.5719 110.542 88.7925 110.544 84.1285Z" fill="url(#paint1_linear_9_12834)"/>
<path d="M39.9682 15.3948L102.127 15.4205C105.736 15.4221 108.671 18.3593 108.669 21.9682L108.644 84.1275C108.642 87.7348 105.706 90.6696 102.096 90.6696L39.937 90.6438C36.3281 90.6423 33.3933 87.705 33.3948 84.0962L33.4206 21.937C33.4221 18.3299 36.3582 15.395 39.9654 15.3947L39.9682 15.3948ZM39.9654 13.4946C35.3033 13.4951 31.5224 17.2735 31.5204 21.9362L31.4946 84.0954C31.4927 88.7594 35.2721 92.542 39.9361 92.544L102.095 92.5697H102.099C106.761 92.5697 110.542 88.7908 110.544 84.1282L110.57 21.969C110.572 17.3049 106.792 13.5224 102.128 13.5204L39.969 13.4946H39.9654Z" fill="#262933"/>
<path d="M89.8741 53.304C92.3294 49.6136 93.9867 46.1637 94.8038 43.0392C95.7221 39.5276 95.5651 36.4964 94.3368 34.0299C92.778 30.8992 89.7293 29.1436 85.7522 29.0862C81.7129 29.0294 76.7336 30.782 71.3029 34.1663C65.9689 30.6266 61.0392 28.7296 57.0054 28.6715C53.0282 28.617 49.9319 30.2815 48.2837 33.3662C46.8817 35.9905 46.7168 39.3154 47.7937 43.2485C48.593 46.168 50.0673 49.3598 52.1798 52.7461C49.7287 56.432 48.0744 59.8783 47.2591 63C46.3425 66.5094 46.5004 69.5394 47.7284 72.0058C49.287 75.1366 52.3349 76.8923 56.3107 76.9495C60.341 77.0069 65.3088 75.2602 70.7291 71.8885C74.8217 74.5929 80.589 77.3259 85.3383 77.3946C85.3402 77.3946 85.342 77.3946 85.344 77.3946C85.405 77.3954 85.4654 77.3959 85.526 77.3959C88.1312 77.3969 90.2922 76.6283 91.9504 75.1101C93.8017 73.4151 94.8162 70.9612 94.9658 67.8161L94.971 67.7058C94.9729 67.6671 94.973 67.6283 94.9715 67.5896L94.9672 67.4787C94.8501 64.4888 94.1544 60.1964 89.8741 53.304Z" fill="#262933"/>
<path d="M84.0796 53.0602C84.0981 47.1131 80.9743 42.2822 77.1024 42.2702C73.2305 42.2582 70.0768 47.0696 70.0583 53.0167C70.0399 58.9638 73.1637 63.7947 77.0356 63.8067C80.9074 63.8187 84.0612 59.0073 84.0796 53.0602Z" fill="white"/>
<path d="M77.048 65.0477C77.0425 65.0477 77.0373 65.0477 77.0318 65.0476C74.725 65.0405 72.599 63.7134 71.0455 61.3109C69.5986 59.0734 68.807 56.1261 68.8167 53.0121C68.8264 49.8982 69.6362 46.9559 71.0969 44.7274C72.6616 42.3403 74.7897 41.0269 77.0902 41.0278C77.0956 41.0278 77.1009 41.0278 77.1064 41.0279C79.4131 41.035 81.5391 42.3621 83.0927 44.7647C84.5395 47.0022 85.3311 49.9494 85.3214 53.0634C85.3117 56.1774 84.5019 59.1196 83.0412 61.3481C81.4765 63.7353 79.3485 65.0487 77.048 65.0477ZM77.0896 43.5112C73.9662 43.5099 71.316 47.8607 71.3 53.0199C71.284 58.1838 73.9124 62.5547 77.0395 62.5644H77.0486C78.4839 62.565 79.8741 61.65 80.9643 59.9868C82.1644 58.1558 82.8299 55.6943 82.8381 53.0557C82.8541 47.8918 80.2258 43.5209 77.0986 43.5112H77.0896Z" fill="#262933"/>
<path d="M79.3344 47.5134C77.6765 47.5083 76.2637 49.1487 75.7526 51.4322C75.6603 51.8445 75.8473 52.2695 76.2069 52.4912L77.5736 53.3339C78.0677 53.6386 78.1999 54.2984 77.8613 54.7699L76.7282 56.3477C76.4858 56.6852 76.4728 57.1406 76.7063 57.4844C77.3791 58.4754 78.2914 59.0858 79.2985 59.0889C81.3796 59.0954 83.0747 56.5094 83.0846 53.3129C83.0945 50.1164 81.4155 47.5199 79.3344 47.5134Z" fill="#262933"/>
<path d="M72.0062 53.0561C72.0246 47.1089 68.9008 42.2781 65.0289 42.2661C61.157 42.2541 58.0033 47.0654 57.9848 53.0125C57.9664 58.9597 61.0902 63.7905 64.9621 63.8025C68.834 63.8145 71.9877 59.0032 72.0062 53.0561Z" fill="white"/>
<path d="M64.9745 65.0436C64.969 65.0436 64.9638 65.0436 64.9583 65.0435C62.6515 65.0364 60.5256 63.7093 58.972 61.3067C57.5251 59.0692 56.7335 56.122 56.7433 53.008C56.7529 49.894 57.5626 46.9518 59.0234 44.7233C60.5881 42.3362 62.7162 41.0227 65.0166 41.0237C65.0221 41.0237 65.0273 41.0237 65.0328 41.0238C67.3396 41.0309 69.4655 42.358 71.0191 44.7605C72.466 46.998 73.2575 49.9453 73.2478 53.0592C73.2382 56.1732 72.4284 59.1155 70.9676 61.3439C69.4029 63.7311 67.275 65.0445 64.9745 65.0436ZM65.016 43.507C61.8927 43.5057 59.2425 47.8566 59.2265 53.0157C59.2105 58.1796 61.8388 62.5505 64.966 62.5602H64.9751C66.4104 62.5608 67.8005 61.6458 68.8907 59.9826C70.0908 58.1516 70.7563 55.6901 70.7645 53.0515C70.7805 47.8876 68.1522 43.5167 65.025 43.507H65.016Z" fill="#262933"/>
<path d="M67.8149 47.5078C66.157 47.5027 64.7441 49.143 64.2331 51.4266C64.1408 51.8389 64.3278 52.2639 64.6874 52.4856L66.054 53.3283C66.5482 53.633 66.6803 54.2927 66.3417 54.7643L65.2087 56.3421C64.9663 56.6796 64.9533 57.1349 65.1868 57.4788C65.8595 58.4697 66.7719 59.0802 67.779 59.0833C69.8601 59.0898 71.5552 56.5037 71.5651 53.3073C71.575 50.1108 69.896 47.5143 67.8149 47.5078Z" fill="#262933"/>
</g>
<defs>
<filter id="filter0_d_9_12834" x="32.6478" y="14.6481" width="119.223" height="119.223" filterUnits="userSpaceOnUse" color-interpolation-filters="sRGB">
<feFlood flood-opacity="0" result="BackgroundImageFix"/>
<feColorMatrix in="SourceAlpha" type="matrix" values="0 0 0 0 0 0 0 0 0 0 0 0 0 0 0 0 0 0 127 0" result="hardAlpha"/>
<feOffset dx="7.2921" dy="7.2921"/>
<feGaussianBlur stdDeviation="7.2921"/>
<feColorMatrix type="matrix" values="0 0 0 0 0 0 0 0 0 0 0 0 0 0 0 0 0 0 0.25 0"/>
<feBlend mode="normal" in2="BackgroundImageFix" result="effect1_dropShadow_9_12834"/>
<feBlend mode="normal" in="SourceGraphic" in2="effect1_dropShadow_9_12834" result="shape"/>
</filter>
<filter id="filter1_d_9_12834" x="18.713" y="0.713027" width="119.223" height="119.223" filterUnits="userSpaceOnUse" color-interpolation-filters="sRGB">
<feFlood flood-opacity="0" result="BackgroundImageFix"/>
<feColorMatrix in="SourceAlpha" type="matrix" values="0 0 0 0 0 0 0 0 0 0 0 0 0 0 0 0 0 0 127 0" result="hardAlpha"/>
<feOffset dx="7.2921" dy="7.2921"/>
<feGaussianBlur stdDeviation="7.2921"/>
<feColorMatrix type="matrix" values="0 0 0 0 0 0 0 0 0 0 0 0 0 0 0 0 0 0 0.25 0"/>
<feBlend mode="normal" in2="BackgroundImageFix" result="effect1_dropShadow_9_12834"/>
<feBlend mode="normal" in="SourceGraphic" in2="effect1_dropShadow_9_12834" result="shape"/>
</filter>
<linearGradient id="paint0_linear_9_12834" x1="64.2622" y1="54.4071" x2="108.805" y2="56.4541" gradientUnits="userSpaceOnUse">
<stop stop-color="#EACE47"/>
<stop offset="1" stop-color="#F4DF4C"/>
</linearGradient>
<linearGradient id="paint1_linear_9_12834" x1="50.3275" y1="40.4733" x2="94.8698" y2="42.5204" gradientUnits="userSpaceOnUse">
<stop stop-color="#EACE47"/>
<stop offset="1" stop-color="#F4DF4C"/>
</linearGradient>
</defs>
</svg>
