<svg width="156" height="120" viewBox="0 0 156 120" fill="none" xmlns="http://www.w3.org/2000/svg">
<path d="M144.134 18.8523H21.7398C19.5924 18.8523 17.8516 20.5931 17.8516 22.7405V107.018C17.8516 109.166 19.5924 110.906 21.7398 110.906H144.134C146.281 110.906 148.022 109.166 148.022 107.018V22.7405C148.022 20.5931 146.281 18.8523 144.134 18.8523Z" fill="#EDEDED"/>
<path d="M144.134 112H21.7396C18.9927 112 16.7578 109.765 16.7578 107.018V22.7406C16.7578 19.9936 18.9927 17.7588 21.7396 17.7588H144.134C146.88 17.7588 149.115 19.9936 149.115 22.7406V107.018C149.115 109.765 146.88 112 144.134 112ZM21.7396 19.9459C20.1986 19.9459 18.945 21.1996 18.945 22.7406V107.018C18.945 108.559 20.1986 109.813 21.7396 109.813H144.134C145.675 109.813 146.928 108.559 146.928 107.018V22.7406C146.928 21.1996 145.675 19.9459 144.134 19.9459H21.7396Z" fill="#262933"/>
<g filter="url(#filter0_d_9_13240)">
<path d="M134.376 9.09351H11.9818C9.83434 9.09351 8.09351 10.8343 8.09351 12.9817V97.2595C8.09351 99.4069 9.83434 101.148 11.9818 101.148H134.376C136.523 101.148 138.264 99.4069 138.264 97.2595V12.9817C138.264 10.8343 136.523 9.09351 134.376 9.09351Z" fill="white"/>
<path d="M134.376 102.241H11.9818C9.23494 102.241 7 100.006 7 97.2595V12.9818C7 10.2348 9.23494 8 11.9818 8H134.376C137.123 8 139.358 10.2348 139.358 12.9818V97.2595C139.358 100.006 137.123 102.241 134.376 102.241ZM11.9818 10.1871C10.4408 10.1871 9.18714 11.4408 9.18714 12.9818V97.2595C9.18714 98.8005 10.4408 100.054 11.9818 100.054H134.376C135.917 100.054 137.17 98.8005 137.17 97.2595V12.9818C137.17 11.4408 135.917 10.1871 134.376 10.1871H11.9818Z" fill="#262933"/>
<g filter="url(#filter1_d_9_13240)">
<path d="M25.9878 50.2078C23.2184 50.2078 20.9655 48.9329 19.8073 46.7105C18.9166 45.0024 18.7538 42.9428 19.3228 40.5886C19.7363 38.8754 20.5402 37.0164 21.7154 35.0509C20.659 33.3135 19.8934 31.6499 19.4366 30.0956C18.6755 27.5042 18.7679 25.2542 19.7104 23.4075C20.8557 21.1659 23.1114 19.8725 25.8989 19.8595C28.2886 19.8595 31.0952 20.7969 34.0878 22.5777C37.0798 20.7631 39.8881 19.8032 42.2531 19.7925C45.0603 19.7925 47.3137 21.0668 48.4726 23.2886C49.3632 24.9973 49.5255 27.058 48.9554 29.4139C48.5413 31.1271 47.7357 32.9889 46.5577 34.9584C48.8252 38.6872 49.2432 41.1434 49.3441 42.8893L49.3474 42.945C49.3519 43.0323 49.3525 43.1033 49.3491 43.1749L49.3486 43.2025C49.2855 45.39 48.5835 47.1341 47.2619 48.3893C46.0665 49.5261 44.52 50.1199 42.666 50.1537L42.5359 50.1548C39.3434 50.1548 35.9024 48.4276 34.1796 47.4288C31.191 49.2394 28.3866 50.1971 26.0256 50.2078L25.9878 50.2078Z" fill="white"/>
<path d="M44.8585 34.9653C46.216 32.8406 47.1222 30.8611 47.554 29.0756C48.0393 27.0688 47.9181 25.3466 47.1936 23.9568C46.274 22.1927 44.5217 21.2264 42.2592 21.2357C39.9614 21.2459 37.148 22.295 34.095 24.277C31.0242 22.3201 28.2006 21.2931 25.9059 21.3026C23.6434 21.3135 21.9 22.2927 20.9951 24.0644C20.2254 25.5717 20.1666 27.4643 20.8205 29.6898C21.3058 31.3417 22.1779 33.1414 23.415 35.045C22.0598 37.167 21.1553 39.1444 20.7245 40.9284C20.2402 42.9339 20.3619 44.6554 21.0863 46.0451C22.0057 47.8092 23.7576 48.7757 26.0193 48.7663C28.312 48.7565 31.1189 47.7108 34.166 45.7362C36.5221 47.2311 39.8308 48.7246 42.5326 48.7137C42.5336 48.7137 42.5347 48.7136 42.5358 48.7137C42.5705 48.7135 42.6049 48.7131 42.6393 48.7125C44.121 48.6856 45.3419 48.2257 46.269 47.3448C47.3039 46.3613 47.8551 44.9551 47.9071 43.1649L47.9089 43.1021C47.9095 43.08 47.9091 43.058 47.9079 43.036L47.9043 42.9729C47.8062 41.2738 47.3654 38.84 44.8585 34.9653Z" fill="#262933"/>
<path d="M37.6674 41.0684C39.8696 41.0345 41.6125 38.265 41.5603 34.8826C41.5082 31.5001 39.6807 28.7857 37.4786 28.8196C35.2764 28.8536 33.5335 31.6231 33.5856 35.0055C33.6378 38.3879 35.4653 41.1024 37.6674 41.0684Z" fill="white"/>
<path d="M37.6875 41.775C37.6844 41.775 37.6814 41.7751 37.6783 41.7751C36.3663 41.7954 35.1432 41.063 34.2343 39.713C33.3879 38.4558 32.9067 36.788 32.8794 35.0169C32.8521 33.2458 33.2816 31.564 34.0889 30.2812C34.9537 28.9072 36.1501 28.1377 37.4584 28.1141C37.4615 28.114 37.4645 28.114 37.4676 28.1139C38.7796 28.0937 40.0027 28.826 40.9116 30.176C41.758 31.4333 42.2392 33.1011 42.2665 34.8722C42.2938 36.6432 41.8642 38.3251 41.0569 39.6078C40.1922 40.9819 38.9959 41.7513 37.6875 41.775ZM37.4843 29.5264C35.7079 29.5586 34.2465 32.0609 34.2917 34.9951C34.337 37.9321 35.8779 40.3902 37.6565 40.3627L37.6617 40.3626C38.4779 40.3479 39.259 39.8128 39.8615 38.8555C40.5247 37.8015 40.8773 36.3946 40.8541 34.8939C40.8088 31.9569 39.268 29.4988 37.4894 29.5263L37.4843 29.5264Z" fill="#262933"/>
<path d="M38.8031 31.7787C37.8601 31.7933 37.0739 32.7411 36.8073 34.0451C36.7592 34.2806 36.87 34.5203 37.0768 34.6426L37.8629 35.1075C38.1472 35.2756 38.2293 35.6494 38.0417 35.9211L37.4139 36.8304C37.2796 37.0249 37.277 37.284 37.4134 37.477C37.8064 38.0335 38.3318 38.3711 38.9045 38.3623C40.0881 38.344 41.025 36.8554 40.9969 35.0374C40.9689 33.2194 39.9867 31.7605 38.8031 31.7787Z" fill="#262933"/>
<path d="M30.8007 41.1944C33.0029 41.1605 34.7458 38.3909 34.6936 35.0085C34.6415 31.6261 32.814 28.9117 30.6119 28.9456C28.4097 28.9796 26.6668 31.7491 26.7189 35.1315C26.7711 38.5139 28.5986 41.2284 30.8007 41.1944Z" fill="white"/>
<path d="M30.821 41.9002C30.8179 41.9003 30.8149 41.9003 30.8118 41.9003C29.4998 41.9206 28.2768 41.1883 27.3679 39.8383C26.5214 38.581 26.0402 36.9132 26.0129 35.1421C25.9856 33.3711 26.4152 31.6893 27.2225 30.4065C28.0872 29.0324 29.2836 28.263 30.5919 28.2393C30.5951 28.2392 30.598 28.2392 30.6012 28.2392C31.9131 28.2189 33.1362 28.9513 34.0451 30.3013C34.8915 31.5585 35.3727 33.2263 35.4 34.9974C35.4273 36.7685 34.9978 38.4503 34.1905 39.7331C33.3257 41.1072 32.1294 41.8765 30.821 41.9002ZM30.6178 29.6516C28.8415 29.6838 27.3801 32.1861 27.4253 35.1203C27.4706 38.0573 29.0115 40.5154 30.7901 40.488L30.7952 40.4879C31.6115 40.4731 32.3925 39.9381 32.995 38.9807C33.6583 37.9268 34.0108 36.5199 33.9877 35.0191C33.9424 32.0822 32.4015 29.6241 30.623 29.6515L30.6178 29.6516Z" fill="#262933"/>
<path d="M32.2518 31.8976C31.3088 31.9122 30.5226 32.86 30.256 34.164C30.2079 34.3995 30.3187 34.6392 30.5255 34.7615L31.3117 35.2264C31.5959 35.3945 31.678 35.7683 31.4904 36.04L30.8626 36.9493C30.7283 37.1438 30.7257 37.4029 30.8621 37.5959C31.2551 38.1524 31.7805 38.49 32.3533 38.4812C33.5369 38.4629 34.4737 36.9743 34.4457 35.1563C34.4176 33.3383 33.4354 31.8794 32.2518 31.8976Z" fill="#262933"/>
</g>
<path d="M34.3875 90.4445C24.9345 90.5815 17.1325 83.0024 16.9955 73.5495C16.8585 64.0965 24.4376 56.2946 33.8906 56.1576C43.3436 56.0206 51.1457 63.5996 51.2827 73.0526C51.4197 82.5055 43.8405 90.3075 34.3875 90.4445Z" fill="url(#paint0_linear_9_13240)"/>
<g filter="url(#filter2_d_9_13240)">
<path d="M34.139 88.5227C42.5453 88.5227 49.36 81.7081 49.36 73.3019C49.36 64.8957 42.5453 58.0811 34.139 58.0811C25.7326 58.0811 18.918 64.8957 18.918 73.3019C18.918 81.7081 25.7326 88.5227 34.139 88.5227Z" fill="url(#paint1_linear_9_13240)"/>
</g>
<path d="M34.1443 58.8886C37.9494 58.8886 41.5394 60.3604 44.253 63.0328C46.9693 65.7079 48.4957 69.2807 48.551 73.093C48.6661 81.0396 42.2947 87.5983 34.348 87.7135C34.277 87.7144 34.2054 87.7151 34.1346 87.7151C30.3291 87.7151 26.7388 86.2434 24.0252 83.571C21.3088 80.8961 19.7824 77.3232 19.7272 73.5106C19.6714 69.6612 21.118 66.0204 23.8006 63.259C26.4832 60.4974 30.0806 58.946 33.9302 58.8901C34.0012 58.8892 34.0728 58.8885 34.1439 58.8885L34.1443 58.8886ZM34.1435 58.0811C34.0689 58.0811 33.9934 58.0815 33.9185 58.0826C25.513 58.2045 18.7978 65.1171 18.9196 73.5224C19.0403 81.853 25.8307 88.5226 34.1346 88.5226C34.2093 88.5226 34.2847 88.5221 34.3597 88.521C42.7651 88.3992 49.4803 81.4866 49.3585 73.0813C49.2377 64.7508 42.4473 58.0806 34.1435 58.0811Z" fill="white"/>
<path d="M41.7873 73.2969C42.7615 71.7843 43.4131 70.3742 43.7259 69.1012C44.0773 67.6706 43.9952 66.4414 43.4818 65.4478C42.8303 64.1867 41.5824 63.4926 39.968 63.4934C38.3283 63.4948 36.3181 64.2362 34.1346 65.6425C31.9485 64.2383 29.9363 63.4982 28.2989 63.499C26.6844 63.501 25.4379 64.1952 24.7877 65.4571C24.2346 66.5306 24.1878 67.881 24.6486 69.4707C24.9907 70.6506 25.6083 71.937 26.4861 73.2986C25.5137 74.8093 24.8632 76.2179 24.5512 77.4897C24.2004 78.9195 24.2829 80.1482 24.7961 81.1417C25.4477 82.4029 26.6952 83.097 28.3091 83.0961C29.9451 83.095 31.9506 82.3561 34.13 80.955C35.8073 82.0278 38.1644 83.102 40.0923 83.1011C40.0931 83.1011 40.0938 83.1011 40.0946 83.1011C40.1194 83.1011 40.1439 83.1009 40.1685 83.1006C41.2258 83.0852 42.0981 82.7602 42.7619 82.134C43.503 81.4349 43.8999 80.4329 43.9416 79.1556L43.943 79.1108C43.9435 79.0951 43.9433 79.0794 43.9425 79.0637L43.94 79.0187C43.8744 77.806 43.5661 76.0682 41.7873 73.2969Z" fill="#262933"/>
<path d="M36.6409 77.6372C38.2123 77.6186 39.4631 75.647 39.4346 73.2333C39.4061 70.8196 38.1091 68.878 36.5377 68.8966C34.9663 68.9151 33.7155 70.8868 33.744 73.3005C33.7725 75.7141 35.0695 77.6557 36.6409 77.6372Z" fill="white"/>
<path d="M36.6535 78.1414C36.6512 78.1414 36.6491 78.1415 36.6468 78.1415C35.7106 78.1525 34.8398 77.6268 34.1947 76.6612C33.594 75.7619 33.2549 74.5706 33.24 73.3068C33.2251 72.043 33.5359 70.844 34.1153 69.9308C34.7359 68.9525 35.5916 68.4066 36.5252 68.3931C36.5274 68.3931 36.5295 68.393 36.5318 68.393C37.468 68.3819 38.3388 68.9076 38.9839 69.8733C39.5846 70.7726 39.9237 71.9639 39.9386 73.2277C39.9535 74.4915 39.6427 75.6905 39.0633 76.6037C38.4427 77.582 37.5871 78.1278 36.6535 78.1414ZM36.54 69.4009C35.2724 69.4193 34.2232 71.201 34.2479 73.2949C34.2726 75.3907 35.3658 77.1486 36.635 77.1337L36.6386 77.1336C37.2211 77.1251 37.7798 76.7454 38.2122 76.0638C38.6882 75.3135 38.9434 74.3105 38.9307 73.2396C38.9059 71.1438 37.8128 69.3859 36.5436 69.4009L36.54 69.4009Z" fill="#262933"/>
<path d="M37.4753 71.0108C36.8024 71.0188 36.2389 71.693 36.0454 72.6228C36.0104 72.7907 36.0888 72.962 36.2361 73.0499L36.7959 73.3836C36.9983 73.5043 37.0559 73.7712 36.9213 73.9646L36.471 74.6118C36.3747 74.7503 36.3722 74.9351 36.469 75.0732C36.748 75.4713 37.122 75.7136 37.5308 75.7087C38.3754 75.6988 39.0477 74.639 39.0324 73.3417C39.0171 72.0444 38.3199 71.0009 37.4753 71.0108Z" fill="#262933"/>
<path d="M31.7408 77.706C33.3122 77.6875 34.563 75.7158 34.5345 73.3021C34.506 70.8885 33.209 68.9469 31.6376 68.9654C30.0661 68.984 28.8153 70.9557 28.8438 73.3693C28.8723 75.783 30.1693 77.7246 31.7408 77.706Z" fill="white"/>
<path d="M31.7533 78.2102C31.7511 78.2102 31.7489 78.2103 31.7467 78.2103C30.8105 78.2214 29.9396 77.6957 29.2946 76.73C28.6938 75.8307 28.3548 74.6394 28.3399 73.3756C28.3249 72.1118 28.6358 70.9128 29.2151 69.9996C29.8357 69.0213 30.6914 68.4754 31.625 68.4619C31.6273 68.4619 31.6294 68.4618 31.6316 68.4618C32.5678 68.4508 33.4387 68.9765 34.0837 69.9421C34.6844 70.8414 35.0235 72.0327 35.0384 73.2965C35.0534 74.5603 34.7425 75.7593 34.1631 76.6725C33.5426 77.6508 32.6869 78.1967 31.7533 78.2102ZM31.6398 69.4697C30.3723 69.4881 29.323 71.2698 29.3477 73.3637C29.3725 75.4595 30.4656 77.2174 31.7348 77.2025L31.7385 77.2024C32.321 77.194 32.8796 76.8142 33.312 76.1326C33.788 75.3823 34.0432 74.3793 34.0306 73.3084C34.0058 71.2127 32.9127 69.4547 31.6435 69.4697L31.6398 69.4697Z" fill="#262933"/>
<path d="M32.8 71.0775C32.1271 71.0854 31.5636 71.7597 31.3701 72.6895C31.3351 72.8574 31.4136 73.0287 31.5609 73.1165L32.1206 73.4503C32.323 73.5709 32.3806 73.8379 32.246 74.0313L31.7957 74.6785C31.6994 74.8169 31.6969 75.0018 31.7937 75.1399C32.0727 75.538 32.4467 75.7802 32.8555 75.7754C33.7001 75.7654 34.3724 74.7057 34.3571 73.4084C34.3418 72.1111 33.6446 71.0675 32.8 71.0775Z" fill="#262933"/>
<g filter="url(#filter3_d_9_13240)">
<path d="M65.0273 50.2078C62.2578 50.2078 60.0055 48.9329 58.8472 46.7105C57.9566 45.0024 57.7937 42.9428 58.3628 40.5886C58.7751 38.8776 59.579 37.018 60.7548 35.0508C59.6979 33.3129 58.9329 31.6493 58.4766 30.095C57.7155 27.5047 57.8073 25.2547 58.7504 23.4075C59.8951 21.1659 62.1508 19.8725 64.9388 19.8595C67.3286 19.8595 70.1347 20.7969 73.1272 22.5777C76.1192 20.7631 78.9276 19.8032 81.2925 19.7925C84.1003 19.7925 86.3537 21.0668 87.512 23.2892C88.4021 24.9967 88.5649 27.0574 87.9954 29.4134C87.5802 31.1288 86.7746 32.9907 85.5972 34.9584C87.8652 38.6878 88.2832 41.1434 88.3841 42.8893L88.3875 42.958C88.3908 43.02 88.392 43.0791 88.3903 43.1377L88.3886 43.2025C88.3244 45.3899 87.6224 47.1341 86.3025 48.3892C85.1059 49.5261 83.5589 50.1199 81.7055 50.1536L81.5754 50.1548C78.3834 50.1548 74.9419 48.4275 73.2191 47.4287C70.2305 49.2393 67.4261 50.197 65.0651 50.2077L65.0273 50.2078Z" fill="white"/>
<path d="M83.898 34.9643C85.2556 32.8397 86.1618 30.8601 86.5936 29.0746C87.0789 27.0678 86.9576 25.3456 86.2331 23.9558C85.3136 22.1918 83.5612 21.2254 81.2987 21.2347C79.0009 21.245 76.1875 22.2941 73.1346 24.276C70.0638 22.3191 67.2401 21.2922 64.9454 21.3016C62.6829 21.3125 60.9395 22.2917 60.0347 24.0634C59.2649 25.5707 59.2062 27.4633 59.86 29.6888C60.3454 31.3407 61.2175 33.1404 62.4546 35.044C61.0994 37.166 60.1949 39.1435 59.764 40.9274C59.2797 42.9329 59.4015 44.6544 60.1258 46.0442C61.0452 47.8083 62.7971 48.7747 65.0588 48.7653C67.3516 48.7555 70.1584 47.7098 73.2056 45.7352C75.5616 47.2301 78.8703 48.7237 81.5721 48.7127C81.5732 48.7127 81.5743 48.7126 81.5754 48.7127C81.6101 48.7125 81.6444 48.7121 81.6789 48.7115C83.1605 48.6846 84.3814 48.2248 85.3085 47.3438C86.3435 46.3603 86.8947 44.9541 86.9466 43.1639L86.9484 43.1011C86.949 43.079 86.9487 43.057 86.9474 43.035L86.9438 42.972C86.8458 41.2728 86.405 38.839 83.898 34.9643Z" fill="#262933"/>
<path d="M76.7072 41.0684C78.9094 41.0345 80.6523 38.265 80.6001 34.8826C80.548 31.5001 78.7205 28.7857 76.5184 28.8196C74.3162 28.8536 72.5733 31.6231 72.6254 35.0055C72.6776 38.3879 74.5051 41.1024 76.7072 41.0684Z" fill="white"/>
<path d="M76.7273 41.775C76.7242 41.775 76.7212 41.7751 76.718 41.7751C75.4061 41.7954 74.183 41.063 73.2741 39.713C72.4277 38.4558 71.9465 36.788 71.9192 35.0169C71.8919 33.2458 72.3214 31.564 73.1287 30.2812C73.9935 28.9072 75.1899 28.1377 76.4982 28.1141C76.5013 28.114 76.5043 28.114 76.5074 28.1139C77.8194 28.0937 79.0425 28.826 79.9514 30.176C80.7978 31.4333 81.279 33.1011 81.3063 34.8722C81.3336 36.6432 80.904 38.3251 80.0967 39.6078C79.232 40.9819 78.0356 41.7513 76.7273 41.775ZM76.5241 29.5264C74.7477 29.5586 73.2863 32.0609 73.3315 34.9951C73.3768 37.9321 74.9177 40.3902 76.6963 40.3627L76.7015 40.3626C77.5177 40.3479 78.2988 39.8128 78.9013 38.8555C79.5645 37.8015 79.9171 36.3946 79.8939 34.8939C79.8486 31.9569 78.3078 29.4988 76.5292 29.5263L76.5241 29.5264Z" fill="#262933"/>
<path d="M77.8429 31.7787C76.8999 31.7933 76.1137 32.7411 75.8471 34.0451C75.799 34.2806 75.9098 34.5203 76.1166 34.6426L76.9027 35.1075C77.187 35.2756 77.2691 35.6494 77.0815 35.9211L76.4537 36.8304C76.3194 37.0249 76.3168 37.284 76.4532 37.477C76.8462 38.0335 77.3715 38.3711 77.9443 38.3623C79.1279 38.344 80.0648 36.8554 80.0367 35.0374C80.0087 33.2194 79.0265 31.7605 77.8429 31.7787Z" fill="#262933"/>
<path d="M69.8407 41.1944C72.0429 41.1605 73.7858 38.3909 73.7337 35.0085C73.6815 31.6261 71.854 28.9117 69.6519 28.9456C67.4497 28.9796 65.7068 31.7491 65.759 35.1315C65.8111 38.5139 67.6386 41.2284 69.8407 41.1944Z" fill="white"/>
<path d="M69.8608 41.9002C69.8577 41.9003 69.8547 41.9003 69.8516 41.9003C68.5396 41.9206 67.3166 41.1883 66.4077 39.8383C65.5612 38.581 65.08 36.9132 65.0527 35.1421C65.0254 33.3711 65.4549 31.6893 66.2622 30.4065C67.127 29.0324 68.3234 28.263 69.6317 28.2393C69.6349 28.2392 69.6378 28.2392 69.641 28.2392C70.9529 28.2189 72.176 28.9513 73.0849 30.3013C73.9313 31.5585 74.4125 33.2263 74.4398 34.9974C74.4671 36.7685 74.0376 38.4503 73.2303 39.7331C72.3655 41.1072 71.1692 41.8765 69.8608 41.9002ZM69.6576 29.6516C67.8813 29.6838 66.4199 32.1861 66.4651 35.1203C66.5104 38.0573 68.0513 40.5154 69.8298 40.488L69.835 40.4879C70.6513 40.4731 71.4323 39.9381 72.0348 38.9807C72.6981 37.9268 73.0506 36.5199 73.0275 35.0191C72.9822 32.0822 71.4413 29.6241 69.6628 29.6515L69.6576 29.6516Z" fill="#262933"/>
<path d="M71.2916 31.8976C70.3486 31.9122 69.5624 32.86 69.2958 34.164C69.2477 34.3995 69.3585 34.6392 69.5654 34.7615L70.3515 35.2264C70.6357 35.3945 70.7178 35.7683 70.5302 36.04L69.9024 36.9493C69.7681 37.1438 69.7655 37.4029 69.9019 37.5959C70.2949 38.1524 70.8203 38.49 71.3931 38.4812C72.5767 38.4629 73.5135 36.9743 73.4855 35.1563C73.4574 33.3383 72.4752 31.8794 71.2916 31.8976Z" fill="#262933"/>
</g>
<path d="M73.4271 90.4445C63.9741 90.5815 56.172 83.0024 56.035 73.5495C55.898 64.0965 63.4771 56.2946 72.9301 56.1576C82.3831 56.0206 90.1852 63.5996 90.3222 73.0526C90.4592 82.5055 82.8801 90.3075 73.4271 90.4445Z" fill="url(#paint2_linear_9_13240)"/>
<g filter="url(#filter4_d_9_13240)">
<path d="M73.1785 88.5227C81.5848 88.5227 88.3995 81.7081 88.3995 73.3019C88.3995 64.8957 81.5848 58.0811 73.1785 58.0811C64.7722 58.0811 57.9575 64.8957 57.9575 73.3019C57.9575 81.7081 64.7722 88.5227 73.1785 88.5227Z" fill="url(#paint3_linear_9_13240)"/>
</g>
<path d="M73.1837 58.8886C76.9889 58.8886 80.5789 60.3604 83.2925 63.0328C86.0088 65.7079 87.5352 69.2807 87.5904 73.093C87.7056 81.0396 81.3342 87.5983 73.3875 87.7135C73.3165 87.7144 73.2449 87.7151 73.1741 87.7151C69.3686 87.7151 65.7783 86.2434 63.0647 83.571C60.3484 80.8961 58.822 77.3232 58.7667 73.5106C58.7109 69.6612 60.1576 66.0204 62.8401 63.259C65.5227 60.4974 69.1201 58.946 72.9697 58.8901C73.0407 58.8892 73.1123 58.8885 73.1833 58.8885L73.1837 58.8886ZM73.183 58.0811C73.1083 58.0811 73.0329 58.0815 72.958 58.0826C64.5525 58.2045 57.8374 65.1171 57.9592 73.5224C58.0799 81.853 64.8702 88.5226 73.1741 88.5226C73.2487 88.5226 73.3242 88.5221 73.3991 88.521C81.8045 88.3992 88.5197 81.4866 88.3979 73.0813C88.2772 64.7508 81.4868 58.0806 73.183 58.0811Z" fill="white"/>
<path d="M80.8271 73.2969C81.8013 71.7843 82.4529 70.3742 82.7656 69.1012C83.1171 67.6706 83.035 66.4414 82.5216 65.4478C81.87 64.1867 80.6222 63.4926 79.0078 63.4934C77.3681 63.4948 75.3579 64.2362 73.1744 65.6425C70.9883 64.2383 68.9761 63.4982 67.3387 63.499C65.7242 63.501 64.4777 64.1952 63.8275 65.4571C63.2744 66.5306 63.2276 67.881 63.6884 69.4707C64.0305 70.6506 64.6481 71.937 65.5259 73.2986C64.5535 74.8093 63.903 76.2179 63.591 77.4897C63.2402 78.9195 63.3227 80.1482 63.8359 81.1417C64.4875 82.4029 65.735 83.097 67.3489 83.0961C68.9849 83.095 70.9904 82.3561 73.1698 80.955C74.8471 82.0278 77.2042 83.102 79.1321 83.1011C79.1329 83.1011 79.1336 83.1011 79.1344 83.1011C79.1592 83.1011 79.1837 83.1009 79.2082 83.1006C80.2656 83.0852 81.1379 82.7602 81.8017 82.134C82.5428 81.4349 82.9397 80.4329 82.9814 79.1556L82.9828 79.1108C82.9833 79.0951 82.9831 79.0794 82.9823 79.0637L82.9798 79.0187C82.9142 77.806 82.6059 76.0682 80.8271 73.2969Z" fill="#262933"/>
<path d="M75.6805 77.6372C77.2519 77.6186 78.5027 75.647 78.4742 73.2333C78.4457 70.8196 77.1487 68.878 75.5773 68.8966C74.0058 68.9151 72.755 70.8868 72.7835 73.3005C72.812 75.7141 74.109 77.6557 75.6805 77.6372Z" fill="white"/>
<path d="M75.693 78.1414C75.6908 78.1414 75.6886 78.1415 75.6864 78.1415C74.7502 78.1525 73.8793 77.6268 73.2343 76.6612C72.6336 75.7619 72.2945 74.5706 72.2796 73.3068C72.2646 72.043 72.5755 70.844 73.1548 69.9308C73.7754 68.9525 74.6311 68.4066 75.5648 68.3931C75.567 68.3931 75.5691 68.393 75.5713 68.393C76.5075 68.3819 77.3784 68.9076 78.0234 69.8733C78.6242 70.7726 78.9633 71.9639 78.9782 73.2277C78.9931 74.4915 78.6822 75.6905 78.1029 76.6037C77.4823 77.582 76.6266 78.1278 75.693 78.1414ZM75.5796 69.4009C74.312 69.4193 73.2627 71.201 73.2874 73.2949C73.3122 75.3907 74.4053 77.1486 75.6745 77.1337L75.6782 77.1336C76.2607 77.1251 76.8194 76.7454 77.2517 76.0638C77.7277 75.3135 77.9829 74.3105 77.9703 73.2396C77.9455 71.1438 76.8524 69.3859 75.5832 69.4009L75.5796 69.4009Z" fill="#262933"/>
<path d="M76.5148 71.0108C75.8419 71.0188 75.2785 71.693 75.0849 72.6228C75.05 72.7907 75.1284 72.962 75.2757 73.0499L75.8354 73.3836C76.0378 73.5043 76.0954 73.7712 75.9609 73.9646L75.5106 74.6118C75.4142 74.7503 75.4118 74.9351 75.5086 75.0732C75.7876 75.4713 76.1616 75.7136 76.5703 75.7087C77.4149 75.6988 78.0872 74.639 78.0719 73.3417C78.0566 72.0444 77.3594 71.0009 76.5148 71.0108Z" fill="#262933"/>
<path d="M70.7805 77.706C72.352 77.6875 73.6028 75.7158 73.5743 73.3021C73.5458 70.8885 72.2488 68.9469 70.6774 68.9654C69.1059 68.984 67.8551 70.9557 67.8836 73.3693C67.9121 75.783 69.2091 77.7246 70.7805 77.706Z" fill="white"/>
<path d="M70.7929 78.2102C70.7906 78.2102 70.7885 78.2103 70.7863 78.2103C69.85 78.2214 68.9792 77.6957 68.3341 76.73C67.7334 75.8307 67.3943 74.6394 67.3794 73.3756C67.3645 72.1118 67.6753 70.9128 68.2547 69.9996C68.8753 69.0213 69.7309 68.4754 70.6646 68.4619C70.6668 68.4619 70.6689 68.4618 70.6712 68.4618C71.6074 68.4508 72.4782 68.9765 73.1233 69.9421C73.724 70.8414 74.0631 72.0327 74.078 73.2965C74.0929 74.5603 73.7821 75.7593 73.2027 76.6725C72.5821 77.6508 71.7265 78.1967 70.7929 78.2102ZM70.6794 69.4697C69.4118 69.4881 68.3626 71.2698 68.3873 73.3637C68.412 75.4595 69.5052 77.2174 70.7744 77.2025L70.7781 77.2024C71.3605 77.194 71.9192 76.8142 72.3516 76.1326C72.8276 75.3823 73.0828 74.3793 73.0701 73.3084C73.0454 71.2127 71.9522 69.4547 70.683 69.4697L70.6794 69.4697Z" fill="#262933"/>
<path d="M71.8395 71.0775C71.1666 71.0854 70.6032 71.7597 70.4096 72.6895C70.3747 72.8574 70.4531 73.0287 70.6004 73.1165L71.1602 73.4503C71.3625 73.5709 71.4201 73.8379 71.2856 74.0313L70.8353 74.6785C70.739 74.8169 70.7365 75.0018 70.8333 75.1399C71.1123 75.538 71.4863 75.7802 71.895 75.7754C72.7397 75.7654 73.4119 74.7057 73.3966 73.4084C73.3813 72.1111 72.6842 71.0675 71.8395 71.0775Z" fill="#262933"/>
<path d="M112.467 90.4445C103.014 90.5815 95.2118 83.0024 95.0748 73.5495C94.9378 64.0965 102.517 56.2946 111.97 56.1576C121.423 56.0206 129.225 63.5996 129.362 73.0526C129.499 82.5055 121.92 90.3075 112.467 90.4445Z" fill="url(#paint4_linear_9_13240)"/>
<g filter="url(#filter5_d_9_13240)">
<path d="M112.218 88.5227C120.625 88.5227 127.439 81.7081 127.439 73.3019C127.439 64.8957 120.625 58.0811 112.218 58.0811C103.812 58.0811 96.9973 64.8957 96.9973 73.3019C96.9973 81.7081 103.812 88.5227 112.218 88.5227Z" fill="url(#paint5_linear_9_13240)"/>
</g>
<path d="M112.224 58.8886C116.029 58.8886 119.619 60.3604 122.332 63.0328C125.049 65.7079 126.575 69.2807 126.63 73.093C126.686 76.9424 125.239 80.5832 122.557 83.3446C119.874 86.1062 116.277 87.6576 112.427 87.7135C112.356 87.7144 112.285 87.7151 112.214 87.7151C108.408 87.7151 104.818 86.2434 102.105 83.571C99.3882 80.8961 97.8618 77.3232 97.8065 73.5106C97.6913 65.564 104.063 59.0053 112.01 58.8901C112.081 58.8892 112.152 58.8885 112.223 58.8885L112.224 58.8886ZM112.223 58.0811C112.148 58.0811 112.073 58.0815 111.998 58.0826C103.592 58.2045 96.8771 65.1171 96.9989 73.5224C97.1197 81.853 103.91 88.5226 112.214 88.5226C112.289 88.5226 112.364 88.5221 112.439 88.521C120.844 88.3992 127.56 81.4866 127.438 73.0813C127.317 64.7508 120.527 58.0806 112.223 58.0811Z" fill="white"/>
<path d="M119.867 73.2969C120.841 71.7843 121.492 70.3742 121.805 69.1012C122.157 67.6706 122.075 66.4414 121.561 65.4478C120.91 64.1867 119.662 63.4926 118.047 63.4934C116.408 63.4948 114.397 64.2362 112.214 65.6425C110.028 64.2383 108.016 63.4982 106.378 63.499C104.764 63.501 103.517 64.1952 102.867 65.4571C102.314 66.5306 102.267 67.881 102.728 69.4707C103.07 70.6506 103.688 71.937 104.565 73.2986C103.593 74.8093 102.943 76.2179 102.631 77.4897C102.28 78.9195 102.362 80.1482 102.875 81.1417C103.527 82.4029 104.775 83.097 106.388 83.0961C108.024 83.095 110.03 82.3561 112.209 80.955C113.887 82.0278 116.244 83.102 118.172 83.1011C118.172 83.1011 118.173 83.1011 118.174 83.1011C118.199 83.1011 118.223 83.1009 118.248 83.1006C119.305 83.0852 120.177 82.7602 120.841 82.134C121.582 81.4349 121.979 80.4329 122.021 79.1556L122.022 79.1108C122.023 79.0951 122.023 79.0794 122.022 79.0637L122.019 79.0187C121.954 77.806 121.645 76.0682 119.867 73.2969Z" fill="#262933"/>
<path d="M114.72 77.6372C116.291 77.6186 117.542 75.647 117.514 73.2333C117.485 70.8196 116.188 68.878 114.617 68.8966C113.045 68.9151 111.795 70.8868 111.823 73.3005C111.852 75.7141 113.149 77.6557 114.72 77.6372Z" fill="white"/>
<path d="M114.733 78.1414C114.73 78.1414 114.728 78.1415 114.726 78.1415C113.79 78.1525 112.919 77.6268 112.274 76.6612C111.673 75.7619 111.334 74.5706 111.319 73.3068C111.304 72.043 111.615 70.844 112.194 69.9308C112.815 68.9525 113.671 68.4066 114.604 68.3931C114.607 68.3931 114.609 68.393 114.611 68.393C115.547 68.3819 116.418 68.9076 117.063 69.8733C117.664 70.7726 118.003 71.9639 118.018 73.2277C118.033 74.4915 117.722 75.6905 117.142 76.6037C116.522 77.582 115.666 78.1278 114.733 78.1414ZM114.619 69.4009C113.352 69.4193 112.302 71.201 112.327 73.2949C112.352 75.3907 113.445 77.1486 114.714 77.1337L114.718 77.1336C115.3 77.1251 115.859 76.7454 116.291 76.0638C116.767 75.3135 117.023 74.3105 117.01 73.2396C116.985 71.1438 115.892 69.3859 114.623 69.4009L114.619 69.4009Z" fill="#262933"/>
<path d="M115.554 71.0108C114.881 71.0188 114.318 71.693 114.124 72.6228C114.09 72.7907 114.168 72.962 114.315 73.0499L114.875 73.3836C115.077 73.5043 115.135 73.7712 115 73.9646L114.55 74.6118C114.454 74.7503 114.451 74.9351 114.548 75.0732C114.827 75.4713 115.201 75.7136 115.61 75.7087C116.455 75.6988 117.127 74.639 117.111 73.3417C117.096 72.0444 116.399 71.0009 115.554 71.0108Z" fill="#262933"/>
<path d="M109.82 77.706C111.392 77.6875 112.642 75.7158 112.614 73.3021C112.585 70.8885 111.288 68.9469 109.717 68.9654C108.145 68.984 106.895 70.9557 106.923 73.3693C106.952 75.783 108.249 77.7246 109.82 77.706Z" fill="white"/>
<path d="M109.832 78.2102C109.83 78.2102 109.828 78.2103 109.826 78.2103C108.89 78.2214 108.019 77.6957 107.374 76.73C106.773 75.8307 106.434 74.6394 106.419 73.3756C106.404 72.1118 106.715 70.9128 107.294 69.9996C107.915 69.0213 108.77 68.4754 109.704 68.4619C109.706 68.4619 109.708 68.4618 109.711 68.4618C110.647 68.4508 111.518 68.9765 112.163 69.9421C112.764 70.8414 113.103 72.0327 113.118 73.2965C113.132 74.5603 112.822 75.7593 112.242 76.6725C111.622 77.6508 110.766 78.1967 109.832 78.2102ZM109.719 69.4697C108.451 69.4881 107.402 71.2698 107.427 73.3637C107.452 75.4595 108.545 77.2174 109.814 77.2025L109.818 77.2024C110.4 77.194 110.959 76.8142 111.391 76.1326C111.867 75.3823 112.122 74.3793 112.11 73.3084C112.085 71.2127 110.992 69.4547 109.723 69.4697L109.719 69.4697Z" fill="#262933"/>
<path d="M110.879 71.0775C110.206 71.0854 109.643 71.7597 109.449 72.6895C109.414 72.8574 109.493 73.0287 109.64 73.1165L110.2 73.4503C110.402 73.5709 110.46 73.8379 110.325 74.0313L109.875 74.6785C109.779 74.8169 109.776 75.0018 109.873 75.1399C110.152 75.538 110.526 75.7802 110.935 75.7754C111.779 75.7654 112.452 74.7057 112.436 73.4084C112.421 72.1111 111.724 71.0675 110.879 71.0775Z" fill="#262933"/>
<g filter="url(#filter6_d_9_13240)">
<path d="M126.027 29.077C126.512 27.0703 126.391 25.3481 125.666 23.9582C124.747 22.1942 122.994 21.2279 120.732 21.2371C118.434 21.2474 115.621 22.2965 112.568 24.2785C109.497 22.3215 106.673 21.2946 104.379 21.3041C102.116 21.315 100.373 22.2942 99.468 24.0659C98.6984 25.5732 98.6395 27.4658 99.2933 29.6912C99.7786 31.3432 100.651 33.1429 101.888 35.0465C100.533 37.1685 99.6282 39.1459 99.1974 40.9298C98.713 42.9354 98.8348 44.6569 99.5591 46.0466C100.478 47.8108 102.23 48.7771 104.492 48.7678C106.785 48.758 109.592 47.7123 112.639 45.7377C113.88 46.5254 115.387 47.3105 116.929 47.8775L125.359 38.7281C124.91 37.6493 124.264 36.408 123.331 34.9667C124.689 32.842 125.595 30.8626 126.027 29.077Z" fill="#262933"/>
<path d="M116.141 41.0723C118.343 41.0384 120.086 38.2689 120.033 34.8865C119.981 31.504 118.154 28.7896 115.952 28.8235C113.75 28.8575 112.007 31.627 112.059 35.0094C112.111 38.3918 113.938 41.1063 116.141 41.0723Z" fill="white"/>
<path d="M116.161 41.7789C116.158 41.7789 116.155 41.779 116.151 41.779C114.839 41.7993 113.616 41.0669 112.707 39.7169C111.861 38.4597 111.38 36.7919 111.353 35.0208C111.325 33.2497 111.755 31.5679 112.562 30.2851C113.427 28.9111 114.623 28.1417 115.932 28.118C115.935 28.1179 115.938 28.1179 115.941 28.1178C117.253 28.0976 118.476 28.8299 119.385 30.1799C120.231 31.4372 120.712 33.105 120.74 34.8761C120.767 36.6471 120.337 38.329 119.53 39.6117C118.665 40.9858 117.469 41.7552 116.161 41.7789ZM115.957 29.5303C114.181 29.5625 112.72 32.0648 112.765 34.999C112.81 37.936 114.351 40.3941 116.13 40.3666L116.135 40.3665C116.951 40.3518 117.732 39.8168 118.335 38.8594C118.998 37.8054 119.35 36.3985 119.327 34.8978C119.282 31.9609 117.741 29.5028 115.963 29.5302L115.957 29.5303Z" fill="#262933"/>
<path d="M117.276 31.7819C116.333 31.7965 115.547 32.7442 115.28 34.0483C115.232 34.2837 115.343 34.5235 115.55 34.6458L116.336 35.1107C116.62 35.2787 116.702 35.6526 116.515 35.9243L115.887 36.8335C115.753 37.0281 115.75 37.2871 115.887 37.4802C116.28 38.0367 116.805 38.3743 117.378 38.3654C118.561 38.3472 119.498 36.8586 119.47 35.0406C119.442 33.2226 118.46 31.7637 117.276 31.7819Z" fill="#262933"/>
<path d="M109.274 41.1964C111.476 41.1624 113.219 38.3929 113.167 35.0105C113.115 31.6281 111.287 28.9136 109.085 28.9476C106.883 28.9815 105.14 31.751 105.192 35.1334C105.244 38.5159 107.072 41.2303 109.274 41.1964Z" fill="white"/>
<path d="M109.294 41.9019C109.291 41.902 109.288 41.902 109.285 41.9021C107.973 41.9223 106.75 41.19 105.841 39.84C104.994 38.5827 104.513 36.9149 104.486 35.1438C104.459 33.3728 104.888 31.691 105.695 30.4082C106.56 29.0341 107.757 28.2647 109.065 28.241C109.068 28.241 109.071 28.2409 109.074 28.2409C110.386 28.2206 111.609 28.953 112.518 30.303C113.364 31.5602 113.846 33.228 113.873 34.9991C113.9 36.7702 113.471 38.452 112.663 39.7348C111.799 41.1089 110.602 41.8782 109.294 41.9019ZM109.091 29.6533C107.314 29.6855 105.853 32.1878 105.898 35.1221C105.943 38.059 107.484 40.5171 109.263 40.4897L109.268 40.4896C110.084 40.4748 110.865 39.9398 111.468 38.9824C112.131 37.9285 112.484 36.5216 112.461 35.0209C112.415 32.0839 110.874 29.6258 109.096 29.6532L109.091 29.6533Z" fill="#262933"/>
<path d="M110.725 31.8998C109.782 31.9144 108.996 32.8622 108.729 34.1662C108.681 34.4017 108.792 34.6414 108.999 34.7637L109.785 35.2286C110.069 35.3967 110.151 35.7705 109.964 36.0422L109.336 36.9515C109.201 37.146 109.199 37.4051 109.335 37.5981C109.728 38.1546 110.254 38.4922 110.826 38.4833C112.01 38.4651 112.947 36.9765 112.919 35.1585C112.891 33.3405 111.909 31.8816 110.725 31.8998Z" fill="#262933"/>
<path d="M112.639 45.7369C109.592 47.7115 106.785 48.7572 104.492 48.767C102.23 48.7763 100.479 47.81 99.5591 46.0459C98.8348 44.6561 98.7131 42.9346 99.1975 40.9291C99.6282 39.1452 100.533 37.1677 101.888 35.0457C100.651 33.1421 99.7787 31.3424 99.2933 29.6904C98.6395 27.465 98.6984 25.5724 99.468 24.0651C100.373 22.2934 102.116 21.3142 104.379 21.3033C106.674 21.2938 109.497 22.3208 112.568 24.2777C115.621 22.2958 118.434 21.2466 120.732 21.2364C122.995 21.2271 124.747 22.1935 125.666 23.9574C126.391 25.3473 126.512 27.0695 126.027 29.0763C125.595 30.8618 124.689 32.8413 123.331 34.966C124.264 36.4073 124.91 37.6485 125.359 38.7274L126.427 37.5686C126.064 36.7751 125.608 35.9094 125.03 34.9602C126.208 32.9924 127.014 31.1305 127.429 29.4151C127.998 27.0592 127.835 24.9985 126.945 23.291C125.787 21.0685 123.534 19.7942 120.726 19.7942C118.361 19.8049 115.553 20.7648 112.56 22.5794C109.568 20.7986 106.762 19.8612 104.372 19.8612C101.584 19.8742 99.3284 21.1677 98.1836 23.4086C97.2407 25.2553 97.1481 27.5059 97.91 30.0967C98.3661 31.651 99.1312 33.3146 100.188 35.0525C99.013 37.0192 98.209 38.8788 97.7949 40.5908C97.227 42.9451 97.3905 45.0046 98.2807 46.7121C99.4388 48.9346 101.691 50.2095 104.46 50.2095H104.498C106.859 50.1988 109.664 49.2411 112.652 47.4305C113.435 47.8844 114.575 48.4878 115.883 49.0121L116.929 47.8768C115.387 47.3097 113.88 46.5246 112.639 45.7369Z" fill="white"/>
<path d="M114.495 43.6182L114.498 43.6869C114.573 44.9883 114.826 46.6852 115.889 49.0093L116.956 47.8505L125.386 38.7011L126.432 37.5658C124.862 36.9364 123.048 36.4214 121.307 36.4214L121.177 36.4225C119.323 36.4563 117.776 37.0501 116.58 38.187C115.26 39.4421 114.558 41.1862 114.494 43.3737L114.492 43.4385C114.49 43.4971 114.491 43.5562 114.495 43.6182Z" fill="#D4D4D6"/>
</g>
</g>
<defs>
<filter id="filter0_d_9_13240" x="1.5166" y="2.5166" width="154.291" height="116.175" filterUnits="userSpaceOnUse" color-interpolation-filters="sRGB">
<feFlood flood-opacity="0" result="BackgroundImageFix"/>
<feColorMatrix in="SourceAlpha" type="matrix" values="0 0 0 0 0 0 0 0 0 0 0 0 0 0 0 0 0 0 127 0" result="hardAlpha"/>
<feOffset dx="5.4834" dy="5.4834"/>
<feGaussianBlur stdDeviation="5.4834"/>
<feColorMatrix type="matrix" values="0 0 0 0 0 0 0 0 0 0 0 0 0 0 0 0 0 0 0.25 0"/>
<feBlend mode="normal" in2="BackgroundImageFix" result="effect1_dropShadow_9_13240"/>
<feBlend mode="normal" in="SourceGraphic" in2="effect1_dropShadow_9_13240" result="shape"/>
</filter>
<filter id="filter1_d_9_13240" x="17.9738" y="18.8391" width="34.2377" height="34.2289" filterUnits="userSpaceOnUse" color-interpolation-filters="sRGB">
<feFlood flood-opacity="0" result="BackgroundImageFix"/>
<feColorMatrix in="SourceAlpha" type="matrix" values="0 0 0 0 0 0 0 0 0 0 0 0 0 0 0 0 0 0 127 0" result="hardAlpha"/>
<feOffset dx="0.9534" dy="0.9534"/>
<feGaussianBlur stdDeviation="0.9534"/>
<feColorMatrix type="matrix" values="0 0 0 0 0 0 0 0 0 0 0 0 0 0 0 0 0 0 0.2 0"/>
<feBlend mode="normal" in2="BackgroundImageFix" result="effect1_dropShadow_9_13240"/>
<feBlend mode="normal" in="SourceGraphic" in2="effect1_dropShadow_9_13240" result="shape"/>
</filter>
<filter id="filter2_d_9_13240" x="17.9646" y="57.1277" width="34.2555" height="34.2553" filterUnits="userSpaceOnUse" color-interpolation-filters="sRGB">
<feFlood flood-opacity="0" result="BackgroundImageFix"/>
<feColorMatrix in="SourceAlpha" type="matrix" values="0 0 0 0 0 0 0 0 0 0 0 0 0 0 0 0 0 0 127 0" result="hardAlpha"/>
<feOffset dx="0.9534" dy="0.9534"/>
<feGaussianBlur stdDeviation="0.9534"/>
<feColorMatrix type="matrix" values="0 0 0 0 0 0 0 0 0 0 0 0 0 0 0 0 0 0 0.2 0"/>
<feBlend mode="normal" in2="BackgroundImageFix" result="effect1_dropShadow_9_13240"/>
<feBlend mode="normal" in="SourceGraphic" in2="effect1_dropShadow_9_13240" result="shape"/>
</filter>
<filter id="filter3_d_9_13240" x="57.0136" y="18.8391" width="34.2377" height="34.2289" filterUnits="userSpaceOnUse" color-interpolation-filters="sRGB">
<feFlood flood-opacity="0" result="BackgroundImageFix"/>
<feColorMatrix in="SourceAlpha" type="matrix" values="0 0 0 0 0 0 0 0 0 0 0 0 0 0 0 0 0 0 127 0" result="hardAlpha"/>
<feOffset dx="0.9534" dy="0.9534"/>
<feGaussianBlur stdDeviation="0.9534"/>
<feColorMatrix type="matrix" values="0 0 0 0 0 0 0 0 0 0 0 0 0 0 0 0 0 0 0.2 0"/>
<feBlend mode="normal" in2="BackgroundImageFix" result="effect1_dropShadow_9_13240"/>
<feBlend mode="normal" in="SourceGraphic" in2="effect1_dropShadow_9_13240" result="shape"/>
</filter>
<filter id="filter4_d_9_13240" x="57.0041" y="57.1277" width="34.2555" height="34.2553" filterUnits="userSpaceOnUse" color-interpolation-filters="sRGB">
<feFlood flood-opacity="0" result="BackgroundImageFix"/>
<feColorMatrix in="SourceAlpha" type="matrix" values="0 0 0 0 0 0 0 0 0 0 0 0 0 0 0 0 0 0 127 0" result="hardAlpha"/>
<feOffset dx="0.9534" dy="0.9534"/>
<feGaussianBlur stdDeviation="0.9534"/>
<feColorMatrix type="matrix" values="0 0 0 0 0 0 0 0 0 0 0 0 0 0 0 0 0 0 0.2 0"/>
<feBlend mode="normal" in2="BackgroundImageFix" result="effect1_dropShadow_9_13240"/>
<feBlend mode="normal" in="SourceGraphic" in2="effect1_dropShadow_9_13240" result="shape"/>
</filter>
<filter id="filter5_d_9_13240" x="96.0439" y="57.1277" width="34.2555" height="34.2553" filterUnits="userSpaceOnUse" color-interpolation-filters="sRGB">
<feFlood flood-opacity="0" result="BackgroundImageFix"/>
<feColorMatrix in="SourceAlpha" type="matrix" values="0 0 0 0 0 0 0 0 0 0 0 0 0 0 0 0 0 0 127 0" result="hardAlpha"/>
<feOffset dx="0.9534" dy="0.9534"/>
<feGaussianBlur stdDeviation="0.9534"/>
<feColorMatrix type="matrix" values="0 0 0 0 0 0 0 0 0 0 0 0 0 0 0 0 0 0 0.2 0"/>
<feBlend mode="normal" in2="BackgroundImageFix" result="effect1_dropShadow_9_13240"/>
<feBlend mode="normal" in="SourceGraphic" in2="effect1_dropShadow_9_13240" result="shape"/>
</filter>
<filter id="filter6_d_9_13240" x="96.4467" y="18.8408" width="34.1744" height="34.2289" filterUnits="userSpaceOnUse" color-interpolation-filters="sRGB">
<feFlood flood-opacity="0" result="BackgroundImageFix"/>
<feColorMatrix in="SourceAlpha" type="matrix" values="0 0 0 0 0 0 0 0 0 0 0 0 0 0 0 0 0 0 127 0" result="hardAlpha"/>
<feOffset dx="0.9534" dy="0.9534"/>
<feGaussianBlur stdDeviation="0.9534"/>
<feColorMatrix type="matrix" values="0 0 0 0 0 0 0 0 0 0 0 0 0 0 0 0 0 0 0.2 0"/>
<feBlend mode="normal" in2="BackgroundImageFix" result="effect1_dropShadow_9_13240"/>
<feBlend mode="normal" in="SourceGraphic" in2="effect1_dropShadow_9_13240" result="shape"/>
</filter>
<linearGradient id="paint0_linear_9_13240" x1="16.9937" y1="73.301" x2="51.2845" y2="73.301" gradientUnits="userSpaceOnUse">
<stop stop-color="#EACE47"/>
<stop offset="1" stop-color="#F4DF4C"/>
</linearGradient>
<linearGradient id="paint1_linear_9_13240" x1="38.7799" y1="71.6485" x2="23.571" y2="77.0654" gradientUnits="userSpaceOnUse">
<stop stop-color="#EACE47"/>
<stop offset="1" stop-color="#F4DF4C"/>
</linearGradient>
<linearGradient id="paint2_linear_9_13240" x1="56.0332" y1="-37.2061" x2="90.324" y2="-37.2061" gradientUnits="userSpaceOnUse">
<stop stop-color="#EACE47"/>
<stop offset="1" stop-color="#F4DF4C"/>
</linearGradient>
<linearGradient id="paint3_linear_9_13240" x1="77.8195" y1="71.6485" x2="62.6105" y2="77.0654" gradientUnits="userSpaceOnUse">
<stop stop-color="#EACE47"/>
<stop offset="1" stop-color="#F4DF4C"/>
</linearGradient>
<linearGradient id="paint4_linear_9_13240" x1="95.073" y1="-37.2061" x2="129.364" y2="-37.2061" gradientUnits="userSpaceOnUse">
<stop stop-color="#EACE47"/>
<stop offset="1" stop-color="#F4DF4C"/>
</linearGradient>
<linearGradient id="paint5_linear_9_13240" x1="116.859" y1="71.6485" x2="101.65" y2="77.0655" gradientUnits="userSpaceOnUse">
<stop stop-color="#EACE47"/>
<stop offset="1" stop-color="#F4DF4C"/>
</linearGradient>
</defs>
</svg>
