<svg width="156" height="134" viewBox="0 0 156 134" fill="none" xmlns="http://www.w3.org/2000/svg">
<g filter="url(#filter0_d_9_13098)">
<path d="M129.963 112L130 21.9724L39.9716 21.9353L39.9346 111.963L129.963 112Z" fill="white"/>
<path d="M124.476 106.508L124.509 27.4583L45.4591 27.4254L45.4263 106.475L124.476 106.508Z" fill="url(#paint0_linear_9_13098)"/>
<path d="M47.3584 29.3267L122.608 29.3579L122.576 104.607L47.3272 104.576L47.3584 29.3267ZM45.4591 27.4258L45.4263 106.475L124.476 106.508L124.509 27.4586L45.4591 27.4258Z" fill="#262933"/>
<path d="M103.809 67.2371C106.265 63.5467 107.922 60.0968 108.739 56.9723C109.657 53.4607 109.5 50.4295 108.272 47.963C106.713 44.8323 103.665 43.0767 99.6874 43.0193C95.6481 42.9625 90.6688 44.7151 85.238 48.0994C79.904 44.5597 74.9743 42.6627 70.9405 42.6046C66.9633 42.5502 63.867 44.2146 62.2188 47.2993C60.8167 49.9236 60.6519 53.2485 61.7288 57.1816C62.5281 60.1011 64.0024 63.2929 66.1149 66.6792C63.6637 70.3651 62.0095 73.8114 61.1942 76.9331C60.2776 80.4425 60.4355 83.4725 61.6635 85.9389C63.2221 89.0697 66.27 90.8254 70.2458 90.8826C74.2761 90.94 79.2439 89.1933 84.6643 85.8216C88.7569 88.526 94.5241 91.259 99.2735 91.3276C99.2754 91.3276 99.2772 91.3276 99.2792 91.3277C99.3402 91.3285 99.4006 91.3289 99.4612 91.3289C102.066 91.33 104.227 90.5614 105.886 89.0432C107.737 87.3481 108.751 84.8942 108.901 81.7492L108.906 81.6389C108.908 81.6002 108.908 81.5614 108.907 81.5226L108.902 81.4117C108.785 78.4219 108.09 74.1295 103.809 67.2371Z" fill="#262933"/>
<path d="M98.0152 66.9909C98.0337 61.0437 94.9099 56.2129 91.038 56.2009C87.1661 56.1889 84.0123 61.0002 83.9939 66.9474C83.9754 72.8945 87.0992 77.7253 90.9711 77.7373C94.843 77.7493 97.9968 72.938 98.0152 66.9909Z" fill="white"/>
<path d="M90.9834 78.9784C90.9779 78.9784 90.9726 78.9784 90.9671 78.9783C88.6604 78.9711 86.5344 77.6441 84.9808 75.2415C83.5339 73.004 82.7423 70.0568 82.752 66.9428C82.7617 63.8288 83.5715 60.8866 85.0323 58.6581C86.5969 56.271 88.7251 54.9575 91.0255 54.9585C91.031 54.9585 91.0362 54.9585 91.0417 54.9586C93.3484 54.9657 95.4744 56.2928 97.028 58.6953C98.4749 60.9328 99.2665 63.8801 99.2568 66.9941C99.2471 70.108 98.4373 73.0503 96.9765 75.2788C95.4118 77.6659 93.2839 78.9793 90.9834 78.9784ZM91.0249 57.4418C87.9015 57.4406 85.2513 61.7914 85.2353 66.9505C85.2193 72.1145 87.8476 76.4853 90.9748 76.495H90.9839C92.4192 76.4956 93.8094 75.5806 94.8996 73.9174C96.0998 72.0864 96.7653 69.6249 96.7735 66.9863C96.7894 61.8224 94.1611 57.4516 91.0339 57.4418H91.0249Z" fill="#262933"/>
<path d="M93.2697 61.4443C91.6118 61.4392 90.199 63.0796 89.6879 65.3631C89.5957 65.7754 89.7826 66.2004 90.1422 66.4221L91.5089 67.2648C92.003 67.5695 92.1352 68.2293 91.7966 68.7008L90.6635 70.2786C90.4211 70.6161 90.4081 71.0715 90.6416 71.4153C91.3144 72.4063 92.2267 73.0167 93.2338 73.0198C95.3149 73.0263 97.01 70.4403 97.0199 67.2438C97.0299 64.0473 95.3508 61.4508 93.2697 61.4443Z" fill="#262933"/>
<path d="M85.9415 66.9875C85.96 61.0403 82.8361 56.2095 78.9642 56.1975C75.0923 56.1855 71.9386 60.9968 71.9201 66.9439C71.9017 72.8911 75.0255 77.7219 78.8974 77.7339C82.7693 77.7459 85.9231 72.9346 85.9415 66.9875Z" fill="white"/>
<path d="M78.9096 78.9749C78.9041 78.9749 78.8989 78.9749 78.8934 78.9748C76.5866 78.9677 74.4606 77.6406 72.907 75.2381C71.4601 73.0006 70.6686 70.0533 70.6783 66.9394C70.688 63.8254 71.4977 60.8832 72.9585 58.6547C74.5232 56.2675 76.6512 54.9541 78.9517 54.9551C78.9572 54.9551 78.9624 54.9551 78.9679 54.9552C81.2747 54.9623 83.4006 56.2894 84.9542 58.6919C86.4011 60.9294 87.1926 63.8767 87.1829 66.9906C87.1733 70.1046 86.3635 73.0469 84.9027 75.2753C83.338 77.6625 81.2101 78.9759 78.9096 78.9749ZM78.9511 57.4384C75.8278 57.4371 73.1776 61.788 73.1616 66.9471C73.1456 72.111 75.7739 76.4819 78.9011 76.4916H78.9102C80.3454 76.4922 81.7356 75.5772 82.8258 73.914C84.0259 72.083 84.6914 69.6215 84.6996 66.9829C84.7156 61.819 82.0873 57.4481 78.9601 57.4384H78.9511Z" fill="#262933"/>
<path d="M81.7502 61.44C80.0923 61.4348 78.6794 63.0752 78.1684 65.3587C78.0761 65.771 78.2631 66.196 78.6227 66.4177L79.9893 67.2604C80.4835 67.5651 80.6156 68.2249 80.277 68.6964L79.144 70.2742C78.9016 70.6117 78.8886 71.0671 79.1221 71.4109C79.7948 72.4019 80.7072 73.0123 81.7143 73.0154C83.7954 73.0219 85.4905 70.4359 85.5004 67.2394C85.5103 64.0429 83.8313 61.4464 81.7502 61.44Z" fill="#262933"/>
</g>
<g filter="url(#filter1_d_9_13098)">
<path d="M116.028 98.0651L116.065 8.03735L26.0371 8.00027L26 98.028L116.028 98.0651Z" fill="white"/>
<path d="M110.541 92.5737L110.573 13.5244L31.524 13.4916L31.4912 92.5408L110.541 92.5737Z" fill="url(#paint1_linear_9_13098)"/>
<path d="M33.4236 15.3917L108.673 15.4229L108.642 90.672L33.3924 90.6407L33.4236 15.3917ZM31.5243 13.4907L31.4915 92.54L110.541 92.5729L110.574 13.5236L31.5243 13.4907Z" fill="#262933"/>
<path d="M89.8742 53.304C92.3296 49.6136 93.9869 46.1637 94.8039 43.0392C95.7223 39.5276 95.5652 36.4964 94.337 34.0299C92.7781 30.8992 89.7295 29.1436 85.7523 29.0862C81.713 29.0294 76.7337 30.782 71.3029 34.1663C65.969 30.6266 61.0393 28.7296 57.0055 28.6715C53.0282 28.617 49.9319 30.2815 48.2838 33.3662C46.8817 35.9905 46.7168 39.3154 47.7937 43.2485C48.593 46.1679 50.0673 49.3597 52.1798 52.7461C49.7287 56.432 48.0744 59.8783 47.2591 63C46.3425 66.5094 46.5004 69.5394 47.7284 72.0058C49.287 75.1366 52.335 76.8923 56.3107 76.9495C60.341 77.0069 65.3088 75.2602 70.7292 71.8885C74.8218 74.5929 80.5891 77.3259 85.3384 77.3945C85.3403 77.3945 85.3422 77.3945 85.3441 77.3946C85.4052 77.3954 85.4656 77.3958 85.5261 77.3958C88.1314 77.3969 90.2923 76.6283 91.9506 75.1101C93.8018 73.415 94.8164 70.9611 94.966 67.8161L94.9712 67.7057C94.973 67.667 94.9732 67.6282 94.9717 67.5895L94.9674 67.4786C94.8503 64.4888 94.1546 60.1964 89.8742 53.304Z" fill="#262933"/>
<path d="M84.0797 53.06C84.0981 47.1128 80.9743 42.282 77.1024 42.27C73.2305 42.258 70.0768 47.0693 70.0583 53.0165C70.0399 58.9636 73.1637 63.7944 77.0356 63.8064C80.9075 63.8184 84.0612 59.0071 84.0797 53.06Z" fill="white"/>
<path d="M77.048 65.0474C77.0426 65.0474 77.0373 65.0474 77.0318 65.0474C74.7251 65.0402 72.5991 63.7132 71.0455 61.3106C69.5986 59.0731 68.807 56.1259 68.8167 53.0119C68.8264 49.8979 69.6362 46.9557 71.097 44.7272C72.6616 42.3401 74.7898 41.0266 77.0902 41.0276C77.0957 41.0276 77.1009 41.0276 77.1064 41.0277C79.4131 41.0348 81.5391 42.3619 83.0927 44.7644C84.5396 47.0019 85.3312 49.9492 85.3214 53.0631C85.3118 56.1771 84.502 59.1194 83.0412 61.3478C81.4765 63.735 79.3486 65.0484 77.048 65.0474ZM77.0896 43.5109C73.9662 43.5096 71.3161 47.8605 71.3 53.0196C71.284 58.1835 73.9124 62.5544 77.0395 62.5641H77.0486C78.4839 62.5647 79.8742 61.6497 80.9644 59.9865C82.1645 58.1555 82.83 55.694 82.8382 53.0554C82.8542 47.8915 80.2258 43.5206 77.0987 43.5109H77.0896Z" fill="#262933"/>
<path d="M79.3344 47.5132C77.6765 47.508 76.2637 49.1484 75.7526 51.4319C75.6603 51.8443 75.8473 52.2692 76.2069 52.491L77.5736 53.3337C78.0677 53.6384 78.1999 54.2981 77.8613 54.7696L76.7282 56.3474C76.4858 56.685 76.4729 57.1403 76.7063 57.4841C77.3791 58.4751 78.2914 59.0855 79.2985 59.0887C81.3796 59.0951 83.0747 56.5091 83.0847 53.3126C83.0946 50.1162 81.4155 47.5196 79.3344 47.5132Z" fill="#262933"/>
<path d="M72.0062 53.0558C72.0247 47.1087 68.9008 42.2779 65.0289 42.2658C61.157 42.2538 58.0033 47.0652 57.9848 53.0123C57.9664 58.9594 61.0902 63.7903 64.9621 63.8023C68.834 63.8143 71.9878 59.0029 72.0062 53.0558Z" fill="white"/>
<path d="M64.9746 65.0433C64.9691 65.0433 64.9638 65.0433 64.9583 65.0432C62.6515 65.0361 60.5256 63.709 58.972 61.3065C57.5251 59.069 56.7335 56.1217 56.7433 53.0077C56.7529 49.8938 57.5626 46.9516 59.0234 44.723C60.5881 42.3359 62.7162 41.0225 65.0166 41.0234C65.0221 41.0234 65.0273 41.0234 65.0328 41.0235C67.3396 41.0306 69.4656 42.3577 71.0191 44.7603C72.466 46.9978 73.2576 49.945 73.2479 53.059C73.2382 56.173 72.4284 59.1152 70.9677 61.3437C69.403 63.7309 67.275 65.0443 64.9746 65.0433ZM65.0161 43.5068C61.8927 43.5055 59.2425 47.8563 59.2265 53.0155C59.2105 58.1794 61.8389 62.5503 64.966 62.56H64.9751C66.4104 62.5606 67.8006 61.6456 68.8908 59.9824C70.0909 58.1514 70.7564 55.6899 70.7646 53.0513C70.7806 47.8874 68.1522 43.5165 65.0251 43.5068H65.0161Z" fill="#262933"/>
<path d="M67.8151 47.5076C66.1572 47.5024 64.7444 49.1428 64.2333 51.4263C64.1411 51.8387 64.328 52.2636 64.6877 52.4854L66.0543 53.3281C66.5484 53.6327 66.6806 54.2925 66.342 54.764L65.2089 56.3418C64.9665 56.6794 64.9536 57.1347 65.187 57.4785C65.8598 58.4695 66.7721 59.0799 67.7792 59.0831C69.8603 59.0895 71.5554 56.5035 71.5654 53.307C71.5753 50.1105 69.8962 47.514 67.8151 47.5076Z" fill="#262933"/>
</g>
<defs>
<filter id="filter0_d_9_13098" x="32.6425" y="14.6432" width="119.234" height="119.233" filterUnits="userSpaceOnUse" color-interpolation-filters="sRGB">
<feFlood flood-opacity="0" result="BackgroundImageFix"/>
<feColorMatrix in="SourceAlpha" type="matrix" values="0 0 0 0 0 0 0 0 0 0 0 0 0 0 0 0 0 0 127 0" result="hardAlpha"/>
<feOffset dx="7.2921" dy="7.2921"/>
<feGaussianBlur stdDeviation="7.2921"/>
<feColorMatrix type="matrix" values="0 0 0 0 0 0 0 0 0 0 0 0 0 0 0 0 0 0 0.25 0"/>
<feBlend mode="normal" in2="BackgroundImageFix" result="effect1_dropShadow_9_13098"/>
<feBlend mode="normal" in="SourceGraphic" in2="effect1_dropShadow_9_13098" result="shape"/>
</filter>
<filter id="filter1_d_9_13098" x="18.7079" y="0.708144" width="119.234" height="119.233" filterUnits="userSpaceOnUse" color-interpolation-filters="sRGB">
<feFlood flood-opacity="0" result="BackgroundImageFix"/>
<feColorMatrix in="SourceAlpha" type="matrix" values="0 0 0 0 0 0 0 0 0 0 0 0 0 0 0 0 0 0 127 0" result="hardAlpha"/>
<feOffset dx="7.2921" dy="7.2921"/>
<feGaussianBlur stdDeviation="7.2921"/>
<feColorMatrix type="matrix" values="0 0 0 0 0 0 0 0 0 0 0 0 0 0 0 0 0 0 0.25 0"/>
<feBlend mode="normal" in2="BackgroundImageFix" result="effect1_dropShadow_9_13098"/>
<feBlend mode="normal" in="SourceGraphic" in2="effect1_dropShadow_9_13098" result="shape"/>
</filter>
<linearGradient id="paint0_linear_9_13098" x1="73.9962" y1="69.1527" x2="118.947" y2="71.2185" gradientUnits="userSpaceOnUse">
<stop stop-color="#EACE47"/>
<stop offset="1" stop-color="#F4DF4C"/>
</linearGradient>
<linearGradient id="paint1_linear_9_13098" x1="60.0612" y1="55.2189" x2="105.012" y2="57.2847" gradientUnits="userSpaceOnUse">
<stop stop-color="#EACE47"/>
<stop offset="1" stop-color="#F4DF4C"/>
</linearGradient>
</defs>
</svg>
