<svg width="156" height="127" viewBox="0 0 156 127" fill="none" xmlns="http://www.w3.org/2000/svg">
<path d="M92.2023 60.3956C95.7944 54.9968 98.2189 49.9496 99.4143 45.3786C100.758 40.2413 100.528 35.8068 98.7311 32.1984C96.4506 27.6184 91.9905 25.05 86.1722 24.9661C80.2629 24.883 72.9784 27.4469 65.0334 32.398C57.23 27.2195 50.0181 24.4443 44.1168 24.3593C38.2983 24.2797 33.7686 26.7147 31.3574 31.2275C29.3062 35.0668 29.065 39.9309 30.6404 45.6849C31.8098 49.9559 33.9667 54.6254 37.0571 59.5795C33.4712 64.9718 31.0511 70.0135 29.8584 74.5805C28.5175 79.7145 28.7485 84.1473 30.545 87.7555C32.8252 92.3357 37.2841 94.9043 43.1005 94.988C48.9967 95.0719 56.2643 92.5166 64.1941 87.5839C70.1814 91.5403 78.6185 95.5386 85.5667 95.639C85.5694 95.639 85.5722 95.639 85.575 95.6391C85.6643 95.6403 85.7527 95.641 85.8412 95.641C89.6526 95.6425 92.814 94.5181 95.2399 92.297C97.9482 89.8172 99.4325 86.2273 99.6514 81.6262L99.659 81.4648C99.6616 81.4081 99.6618 81.3514 99.6596 81.2948L99.6533 81.1326C99.4821 76.7586 98.4643 70.4788 92.2023 60.3956Z" fill="#262933"/>
<path d="M83.7256 60.0319C83.7526 51.3315 79.1826 44.2642 73.5182 44.2467C67.8538 44.2291 63.2399 51.2679 63.2129 59.9683C63.1859 68.6686 67.756 75.7359 73.4204 75.7535C79.0848 75.7711 83.6986 68.7323 83.7256 60.0319Z" fill="white"/>
<path d="M73.4384 77.5704C73.4304 77.5704 73.4226 77.5704 73.4146 77.5703C70.04 77.5599 66.9297 75.6184 64.6569 72.1036C62.5402 68.8303 61.3821 64.5185 61.3964 59.9629C61.4105 55.4073 62.5952 51.103 64.7322 47.8428C67.0212 44.3505 70.1346 42.429 73.5 42.4304C73.5081 42.4304 73.5157 42.4304 73.5237 42.4305C76.8983 42.4409 80.0086 44.3824 82.2814 47.8972C84.3981 51.1706 85.5562 55.4823 85.5419 60.0379C85.5278 64.5935 84.3431 68.8979 82.2061 72.1581C79.917 75.6504 76.8039 77.5718 73.4384 77.5704ZM73.4992 46.0634C68.9298 46.0615 65.0527 52.4266 65.0292 59.9742C65.0058 67.5288 68.851 73.9232 73.4259 73.9374H73.4392C75.5389 73.9383 77.5728 72.5997 79.1677 70.1665C80.9235 67.4878 81.8971 63.8868 81.909 60.0266C81.9324 52.472 78.0872 46.0776 73.5124 46.0634H73.4992Z" fill="#262933"/>
<path d="M76.7835 51.92C74.358 51.9124 72.2911 54.3122 71.5435 57.6529C71.4085 58.2561 71.682 58.8778 72.2081 59.2022L74.2074 60.4351C74.9303 60.8808 75.1237 61.846 74.6283 62.5358L72.9707 64.844C72.616 65.3379 72.5971 66.004 72.9386 66.507C73.9228 67.9567 75.2576 68.8498 76.731 68.8543C79.7755 68.8638 82.2553 65.0805 82.2698 60.4042C82.2844 55.7279 79.828 51.9294 76.7835 51.92Z" fill="#262933"/>
<path d="M66.0623 60.0285C66.0893 51.3281 61.5193 44.2608 55.8548 44.2433C50.1904 44.2257 45.5766 51.2645 45.5496 59.9648C45.5226 68.6652 50.0926 75.7325 55.7571 75.7501C61.4215 75.7677 66.0353 68.7289 66.0623 60.0285Z" fill="white"/>
<path d="M55.7753 77.567C55.7673 77.567 55.7595 77.567 55.7515 77.5669C52.3768 77.5565 49.2666 75.615 46.9938 72.1002C44.877 68.8268 43.7191 64.5151 43.7333 59.9595C43.7474 55.4039 44.932 51.0996 47.069 47.8394C49.3582 44.3471 52.4714 42.4256 55.8369 42.427C55.8449 42.427 55.8525 42.427 55.8605 42.4271C59.2353 42.4375 62.3454 44.379 64.6183 47.8938C66.735 51.1672 67.893 55.4789 67.8788 60.0345C67.8647 64.5901 66.68 68.8945 64.5429 72.1546C62.2539 75.647 59.1407 77.5684 55.7753 77.567ZM55.836 46.06C51.2667 46.0581 47.3896 52.4232 47.3661 59.9708C47.3427 67.5254 51.1879 73.9198 55.7628 73.934H55.7761C57.8758 73.9349 59.9096 72.5963 61.5045 70.1631C63.2603 67.4844 64.2339 63.8833 64.2458 60.0232C64.2692 52.4686 60.424 46.0742 55.8492 46.06H55.836Z" fill="#262933"/>
<path d="M59.9307 51.9146C57.5052 51.9071 55.4383 54.3068 54.6907 57.6475C54.5557 58.2507 54.8292 58.8724 55.3553 59.1969L57.3546 60.4297C58.0775 60.8754 58.2709 61.8406 57.7755 62.5304L56.1179 64.8387C55.7633 65.3325 55.7443 65.9986 56.0858 66.5016C57.07 67.9513 58.4048 68.8444 59.8782 68.849C62.9227 68.8584 65.4026 65.0752 65.4171 60.3989C65.4316 55.7226 62.9752 51.924 59.9307 51.9146Z" fill="#262933"/>
<g filter="url(#filter0_d_9_13890)">
<path opacity="0.4" d="M120.453 111.033H40.0853C34.7315 111.033 30.9837 105.743 32.7595 100.692L61.3293 19.4326C63.5336 13.163 69.4555 8.96777 76.1014 8.96777H120.453C123.402 8.96777 125.792 11.358 125.792 14.3065V105.694C125.792 108.643 123.402 111.033 120.453 111.033Z" fill="white"/>
</g>
<g filter="url(#filter1_d_9_13890)">
<path d="M83.3298 57.4623C85.7364 55.392 85.7789 51.6803 83.419 49.5569C80.1429 46.6091 74.5888 41.6327 65.3358 33.388C57.2528 26.1859 61.5568 18.7883 61.5568 18.7883L32.6663 101.045L83.3298 57.4623Z" fill="url(#paint0_linear_9_13890)"/>
</g>
<path opacity="0.3" d="M103.677 9.59546L69.6946 111.435H91.4431L123.457 9.59546H103.677Z" fill="white"/>
<path d="M120.526 112H40.2737C37.36 112 34.7233 110.636 33.0389 108.259C31.3547 105.882 30.943 102.942 31.9093 100.193L60.4168 19.1113C62.7533 12.4653 69.0564 8 76.1015 8H120.526C123.963 8 126.759 10.7962 126.759 14.2331V105.767C126.759 109.204 123.963 112 120.526 112ZM76.1015 9.93467C69.8762 9.93467 64.3065 13.8804 62.2419 19.7531L33.7344 100.835C32.979 102.984 33.301 105.282 34.6177 107.141C35.9344 108.999 37.996 110.065 40.2737 110.065H120.526C122.896 110.065 124.825 108.137 124.825 105.767V14.2331C124.825 11.8629 122.896 9.93467 120.526 9.93467H76.1015Z" fill="#262933"/>
<path d="M32.6661 102.008C32.4775 102.008 32.2878 101.953 32.1235 101.841C31.7636 101.595 31.6137 101.138 31.758 100.727L59.7831 20.9347C60.1477 19.328 60.7084 18.333 60.7249 18.3049C60.9744 17.8757 61.5101 17.7069 61.9602 17.915C62.4109 18.1229 62.6296 18.6397 62.4653 19.1081L61.5455 21.727C61.0488 24.2784 61.2664 28.4734 65.9761 32.67C73.7171 39.5671 79.8023 45.0082 84.063 48.8419C85.3931 50.0388 86.1443 51.7512 86.1246 53.5401C86.1045 55.3297 85.3148 57.0255 83.9577 58.1929L33.2943 101.775C33.1146 101.93 32.8908 102.008 32.6661 102.008ZM59.8359 26.5939L34.7675 97.9683L82.7019 56.7333C83.6398 55.9266 84.1855 54.755 84.1991 53.5186C84.2131 52.283 83.6939 51.1 82.7749 50.2731C78.5167 46.4415 72.4337 41.0026 64.6953 34.1075C61.8217 31.5471 60.4234 28.9365 59.8359 26.5939Z" fill="#262933"/>
<defs>
<filter id="filter0_d_9_13890" x="27.0626" y="3.71687" width="114.482" height="123.069" filterUnits="userSpaceOnUse" color-interpolation-filters="sRGB">
<feFlood flood-opacity="0" result="BackgroundImageFix"/>
<feColorMatrix in="SourceAlpha" type="matrix" values="0 0 0 0 0 0 0 0 0 0 0 0 0 0 0 0 0 0 127 0" result="hardAlpha"/>
<feOffset dx="5.2509" dy="5.2509"/>
<feGaussianBlur stdDeviation="5.2509"/>
<feColorMatrix type="matrix" values="0 0 0 0 0 0 0 0 0 0 0 0 0 0 0 0 0 0 0.25 0"/>
<feBlend mode="normal" in2="BackgroundImageFix" result="effect1_dropShadow_9_13890"/>
<feBlend mode="normal" in="SourceGraphic" in2="effect1_dropShadow_9_13890" result="shape"/>
</filter>
<filter id="filter1_d_9_13890" x="27.4154" y="13.5374" width="73.4994" height="103.26" filterUnits="userSpaceOnUse" color-interpolation-filters="sRGB">
<feFlood flood-opacity="0" result="BackgroundImageFix"/>
<feColorMatrix in="SourceAlpha" type="matrix" values="0 0 0 0 0 0 0 0 0 0 0 0 0 0 0 0 0 0 127 0" result="hardAlpha"/>
<feOffset dx="5.2509" dy="5.2509"/>
<feGaussianBlur stdDeviation="5.2509"/>
<feColorMatrix type="matrix" values="0 0 0 0 0 0 0 0 0 0 0 0 0 0 0 0 0 0 0.25 0"/>
<feBlend mode="normal" in2="BackgroundImageFix" result="effect1_dropShadow_9_13890"/>
<feBlend mode="normal" in="SourceGraphic" in2="effect1_dropShadow_9_13890" result="shape"/>
</filter>
<linearGradient id="paint0_linear_9_13890" x1="46.5475" y1="59.5916" x2="62.0323" y2="68.515" gradientUnits="userSpaceOnUse">
<stop stop-color="white" stop-opacity="0.7"/>
<stop offset="1" stop-color="white" stop-opacity="0.4"/>
</linearGradient>
</defs>
</svg>
