<svg width="156" height="121" viewBox="0 0 156 121" fill="none" xmlns="http://www.w3.org/2000/svg">
<path d="M44.9916 69.3717C44.9559 68.9502 44.3471 68.9207 44.2689 69.3364C44.2466 69.455 44.2303 69.5569 44.2181 69.6242C43.0859 75.8944 42.8334 82.5991 41.7133 88.7551C41.3878 90.5437 40.7174 91.3177 38.8521 91.5043C33.9072 91.9991 33.9106 87.2801 33.2244 83.6816C32.5233 80.0051 31.807 75.9114 31.0744 72.0919C30.9976 71.6909 30.4142 71.7215 30.3775 72.1281L30.0671 75.5685C29.7818 78.6227 29.8634 85.6374 28.782 88.0642C28.1181 89.554 23.0764 88.9208 21.8106 87.8875C21.0733 87.2856 21.1003 85.7902 21.0714 85.0124C20.8713 79.6336 21.1377 59.8019 21.3085 55.694C21.5185 50.6464 21.8873 48.4555 27.5971 48.1423C30.4489 47.9859 31.6891 47.9693 32.5643 50.7459C34.1792 55.8691 35.1572 62.2091 36.7702 67.4396C36.8445 67.6804 37.0776 67.835 37.3288 67.8143C37.5711 67.7944 37.7698 67.6144 37.8133 67.3753L41.8248 45.3882C41.9989 44.4339 42.6719 43.641 43.592 43.334C45.8638 42.5761 49.7693 42.2177 51.025 42.353C52.443 42.5059 53.3048 43.1107 53.5128 44.5828C53.7466 60.4781 54.4379 76.358 56.0171 92.1633C56.1131 93.1236 55.5726 94.0367 54.6806 94.405C52.2913 95.3918 47.7289 94.8898 46.8765 92.7871C46.3275 91.4329 46.1919 87.2899 46.0479 85.5806C45.5943 80.1941 45.4484 74.761 44.9916 69.3717Z" fill="#262933"/>
<path d="M110.793 38.0007C110.727 39.0671 113.621 78.0436 113.645 86.4126C113.652 88.8527 113.74 89.6943 111.309 90.6718C106.107 92.7643 104.502 91.5598 104.053 86.364C103.34 78.1142 103.574 69.3897 103.078 61.057C102.652 53.8974 101.936 46.7206 101.259 39.5856C100.219 38.597 83.5104 43.1683 80.9557 43.2861C78.2495 42.78 77.1338 35.0294 78.3245 33.0218C79.3312 31.3242 85.2184 28.8532 87.217 28.1128C94.8072 25.3014 103.957 24.0823 112.055 24.2847C114.328 24.3416 121.845 24.7291 123.346 26.0923C125.003 27.5967 124.237 36.4846 122.482 37.7539C121.309 38.6022 116.624 37.931 114.718 37.9474C114.171 37.9521 110.81 37.7313 110.793 38.0007Z" fill="#262933"/>
<path d="M67.9275 84.3236C70.0462 84.8712 69.9246 61.3902 71.0732 49.3951C71.1391 48.7063 71.5594 48.08 72.2004 47.8194C73.4198 47.3239 75.2848 47.5248 76.2803 47.6908C77.2924 47.8595 78.6493 48.0641 78.7685 49.3144C77.8277 59.8214 78.0576 70.8586 76.8711 81.3001C76.1163 87.942 73.9996 98.1634 65.1387 96.6413C58.7519 95.5442 57.5066 84.9011 57.2939 79.7586C56.8976 70.1785 56.9735 62.2459 57.1141 53.3505C57.1527 50.9072 56.9838 46.7601 57.2699 44.4695C57.6465 41.4539 61.7627 41.5771 64.167 41.93C67.7261 42.4524 67.4182 44.019 67.4275 47.2814C67.4558 57.2006 66.1146 67.5199 66.483 77.5187C66.5011 78.0109 66.8434 85.0295 67.9275 84.3236Z" fill="#262933"/>
<path d="M99.5235 61.4829C99.3119 62.1891 98.7095 62.7101 97.9793 62.8116C96.1524 63.0656 92.9593 62.9605 92.2633 62.6756C91.2811 62.2735 91.3297 58.9045 91.0901 57.8318C90.6872 56.028 89.9726 54.725 89.1714 57.2857C86.7304 65.0865 93.8827 67.031 97.5636 72.105C102.114 78.3772 102.412 89.9981 95.3608 94.5815C89.8479 98.165 82.7791 94.7705 80.2601 89.1603C79.2428 86.8946 78.3669 81.9128 79.2076 79.62C79.7488 78.1442 86.0026 77.8967 87.2529 78.5701C88.8046 79.4058 88.791 85.944 90.4535 86.0504C91.9741 86.1478 92.1661 82.0438 92.0855 81.0615C91.6592 75.8597 83.8487 71.9218 81.5733 66.2418C78.6284 58.8902 80.7229 44.8671 91.065 46.0927C98.0296 46.9181 101.36 55.3532 99.5235 61.4829Z" fill="#262933"/>
<g filter="url(#filter0_d_9_13914)">
<path opacity="0.4" d="M130.207 105.031H36.5911C31.8668 105.031 28.5598 100.363 30.1267 95.9061L55.3369 24.2021C57.2821 18.6696 62.5076 14.9678 68.3721 14.9678H130.207C132.099 14.9678 133.633 16.5017 133.633 18.3939V101.605C133.633 103.497 132.099 105.031 130.207 105.031Z" fill="white"/>
</g>
<g filter="url(#filter1_d_9_13914)">
<path d="M74.7506 57.7618C76.8743 55.935 76.9118 52.6597 74.8294 50.786C71.9385 48.1848 67.0375 43.7936 58.8726 36.5184C51.7401 30.1632 55.5379 23.6355 55.5379 23.6355L30.0447 96.2195L74.7506 57.7618Z" fill="url(#paint0_linear_9_13914)"/>
</g>
<path opacity="0.3" d="M106.26 15.3333L75.6899 104.897H94.881L123.714 15.3333H106.26Z" fill="white"/>
<path d="M128.986 106H36.7572C34.1486 106 31.7878 104.779 30.28 102.651C28.7718 100.522 28.4033 97.8897 29.2687 95.4288L54.4238 23.8815C56.5015 17.9711 62.1072 14 68.3722 14H128.986C132.082 14 134.601 16.5189 134.601 19.6149V100.385C134.601 103.481 132.082 106 128.986 106ZM68.3722 15.9365C62.9277 15.9365 58.0565 19.3875 56.2505 24.5238L31.0955 96.0712C30.4414 97.9318 30.7199 99.9218 31.86 101.531C33.0001 103.14 34.7851 104.063 36.7572 104.063H128.986C131.014 104.063 132.664 102.413 132.664 100.385V19.6149C132.664 17.5867 131.014 15.9366 128.986 15.9366L68.3722 15.9365Z" fill="#262933"/>
<path d="M30.0442 97.1831C29.8552 97.1831 29.6655 97.1276 29.5011 97.0153C29.1408 96.7692 28.9908 96.3118 29.1353 95.9001L53.8657 25.4884C54.1919 24.06 54.6905 23.1758 54.705 23.1508C54.9548 22.7212 55.4912 22.5523 55.9415 22.7604C56.3927 22.9686 56.6115 23.4859 56.447 23.9547L55.6404 26.2512C55.2096 28.474 55.4009 32.1343 59.5135 35.7989C66.3515 41.8916 71.7213 46.693 75.4739 50.0696C76.6717 51.1476 77.3487 52.6898 77.3308 54.3011C77.3127 55.913 76.6012 57.4406 75.3788 58.4923L30.673 96.95C30.4932 97.1046 30.2692 97.1831 30.0442 97.1831ZM54.0048 30.908L32.1476 93.1391L74.1218 57.0312C74.9246 56.3407 75.3919 55.3377 75.4036 54.2795C75.4153 53.222 74.9712 52.2098 74.1846 51.5022C70.4345 48.1276 65.0669 43.3284 58.2314 37.2377C55.8207 35.0898 54.5769 32.9005 54.0048 30.908Z" fill="#262933"/>
<defs>
<filter id="filter0_d_9_13914" x="24.4823" y="9.71687" width="124.903" height="111.067" filterUnits="userSpaceOnUse" color-interpolation-filters="sRGB">
<feFlood flood-opacity="0" result="BackgroundImageFix"/>
<feColorMatrix in="SourceAlpha" type="matrix" values="0 0 0 0 0 0 0 0 0 0 0 0 0 0 0 0 0 0 127 0" result="hardAlpha"/>
<feOffset dx="5.2509" dy="5.2509"/>
<feGaussianBlur stdDeviation="5.2509"/>
<feColorMatrix type="matrix" values="0 0 0 0 0 0 0 0 0 0 0 0 0 0 0 0 0 0 0.25 0"/>
<feBlend mode="normal" in2="BackgroundImageFix" result="effect1_dropShadow_9_13914"/>
<feBlend mode="normal" in="SourceGraphic" in2="effect1_dropShadow_9_13914" result="shape"/>
</filter>
<filter id="filter1_d_9_13914" x="24.7938" y="18.3846" width="67.3266" height="93.5876" filterUnits="userSpaceOnUse" color-interpolation-filters="sRGB">
<feFlood flood-opacity="0" result="BackgroundImageFix"/>
<feColorMatrix in="SourceAlpha" type="matrix" values="0 0 0 0 0 0 0 0 0 0 0 0 0 0 0 0 0 0 127 0" result="hardAlpha"/>
<feOffset dx="5.2509" dy="5.2509"/>
<feGaussianBlur stdDeviation="5.2509"/>
<feColorMatrix type="matrix" values="0 0 0 0 0 0 0 0 0 0 0 0 0 0 0 0 0 0 0.25 0"/>
<feBlend mode="normal" in2="BackgroundImageFix" result="effect1_dropShadow_9_13914"/>
<feBlend mode="normal" in="SourceGraphic" in2="effect1_dropShadow_9_13914" result="shape"/>
</filter>
<linearGradient id="paint0_linear_9_13914" x1="42.2936" y1="59.6407" x2="55.9575" y2="67.5148" gradientUnits="userSpaceOnUse">
<stop stop-color="white" stop-opacity="0.7"/>
<stop offset="1" stop-color="white" stop-opacity="0.4"/>
</linearGradient>
</defs>
</svg>
