<svg width="80" height="80" viewBox="0 0 80 80" fill="none" xmlns="http://www.w3.org/2000/svg">
<path d="M54.9641 75.3298C48.2001 74.1628 40.4552 68.4911 35.7892 64.0272C27.3019 67.7732 19.9487 69.243 14.4108 68.287C9.59836 67.4568 6.25382 64.7927 4.99025 60.7848C2.9195 54.2148 6.79195 45.3959 15.9196 35.791C13.4912 30.3098 12.0131 25.322 11.5261 20.9329C10.9437 15.6967 11.7849 11.539 14.0259 8.58235C16.5633 5.23102 20.6094 3.84626 25.4219 4.67643C30.97 5.6359 37.4138 9.50098 44.1642 15.894C52.6686 12.1344 60.0354 10.6578 65.5869 11.6139C70.4028 12.444 73.7473 15.1115 75.0108 19.1161C77.0816 25.6894 73.2024 34.5117 64.0645 44.1234C66.9799 50.758 69.2856 57.8519 68.4103 65.2486L68.3899 65.4052L68.3593 65.5583C67.5589 69.4097 65.873 72.2133 63.3424 73.8838C61.0435 75.4081 58.2235 75.8912 54.9641 75.3298Z" fill="#262933"/>
<path d="M10.4827 5.89908C14.0915 1.13269 19.6897 -0.647722 25.6039 0.206075L26.1777 0.296358L26.1794 0.297226C32.293 1.35455 38.7373 5.13291 45.0618 10.6962C52.888 7.57561 60.2256 6.18031 66.3409 7.23335L66.3418 7.23422C72.2831 8.25841 77.0853 11.6759 79.0663 17.2339L79.2495 17.779V17.7808C80.7111 22.4204 79.9351 27.4184 77.8111 32.265C75.9894 36.4217 73.0766 40.7093 69.2671 45.0218C71.7657 51.222 73.7126 58.2639 72.8243 65.7711L72.8208 65.7971L72.8173 65.8241L72.7974 65.9803L72.7774 66.1296L72.7479 66.2772L72.7175 66.4308L72.714 66.4465L72.7106 66.463C71.7469 71.1001 69.5733 75.0918 65.7975 77.5877C62.3672 79.862 58.344 80.4222 54.2101 79.7102H54.2083C50.0124 78.9862 45.8173 76.9427 42.2199 74.6743C39.5444 72.9873 37.0379 71.0717 34.898 69.2201C27.085 72.3305 19.7582 73.721 13.6545 72.6673V72.6664C7.52681 71.6091 2.60719 68.0058 0.751995 62.1216L0.751127 62.1207C-0.710232 57.4838 0.063468 52.4881 2.18426 47.6434C4.00343 43.4878 6.91261 39.2008 10.7188 34.8902C8.81563 30.13 7.57343 25.6119 7.10863 21.4242C6.4535 15.5336 7.31147 10.0841 10.4827 5.89908ZM25.4216 4.67679C20.6093 3.84672 16.5633 5.23116 14.026 8.58238L13.8203 8.86277C11.7339 11.7996 10.9619 15.8601 11.5261 20.9328C12.0131 25.3219 13.4917 30.31 15.9201 35.7912C6.79246 45.3961 2.91991 54.2148 4.99062 60.7847C6.25416 64.7926 9.5983 67.4566 14.4106 68.2868C19.9485 69.2429 27.3021 67.7731 35.7895 64.0271C40.4555 68.491 48.2004 74.1627 54.9644 75.3298C58.2237 75.8911 61.0438 75.4086 63.3427 73.8844C65.715 72.3183 67.3445 69.756 68.1985 66.2685L68.3591 65.5584L68.3903 65.4056L68.4103 65.2485C69.2855 57.8519 66.9803 50.7578 64.0649 44.1233C73.2026 34.5117 77.0816 25.6892 75.0109 19.1159C73.7472 15.1115 70.4023 12.4439 65.5866 11.6138C60.0351 10.6579 52.6684 12.1349 44.1643 15.8944L43.5323 15.3023C37.012 9.26247 30.7964 5.60628 25.4216 4.67679Z" fill="white"/>
<path d="M56.9089 42.6772C55.6657 50.3768 50.5876 55.9635 45.5708 55.1537C40.554 54.3439 37.4922 47.4474 38.7353 39.7478C39.9784 32.0483 45.0565 26.4616 50.0733 27.2714C55.0935 28.0777 58.1554 34.9743 56.9089 42.6772Z" fill="white"/>
<path d="M41.8394 29.2761C44.1094 26.7784 47.1221 25.2248 50.3194 25.7402L50.3197 25.7399C53.5191 26.2538 55.8917 28.6744 57.2608 31.7594C58.6368 34.8601 59.1061 38.8205 58.4419 42.9251C57.7793 47.0278 56.0867 50.6386 53.8047 53.1495C51.5344 55.6476 48.5209 57.2015 45.3231 56.6854C42.1258 56.1693 39.7548 53.7476 38.386 50.6631C37.0102 47.5628 36.5398 43.6037 37.2023 39.5008C37.8647 35.398 39.5574 31.7871 41.8394 29.2761ZM49.8255 28.803C48.0066 28.5094 45.9726 29.3439 44.139 31.3614C42.3171 33.3662 40.8489 36.3983 40.2682 39.9949C39.6875 43.5915 40.1266 46.9306 41.2251 49.4059C42.3306 51.897 43.9992 53.3286 45.8186 53.6223C47.6376 53.9158 49.6715 53.0814 51.5051 51.0639C53.3271 49.0591 54.7949 46.027 55.3756 42.4304L55.3759 42.4297C55.9582 38.8314 55.5197 35.492 54.4214 33.0171C53.3161 30.5265 51.6476 29.0954 49.8268 28.803H49.8255Z" fill="#262933"/>
<path d="M51.6371 37.3968C49.5119 36.9273 47.2402 38.6387 45.9494 41.4218C45.7178 41.9254 45.837 42.5208 46.2355 42.9053L47.7545 44.3649C48.3028 44.8922 48.2892 45.7734 47.7238 46.2838L45.8302 47.9918C45.4249 48.3558 45.2818 48.9376 45.4862 49.4412C46.072 50.8974 47.0733 51.9351 48.3641 52.2209C51.0309 52.8095 53.9293 49.9652 54.8318 45.8721C55.7344 41.7825 54.3039 37.9854 51.6371 37.3968Z" fill="#262933"/>
<path d="M41.2556 40.1973C40.0124 47.8968 34.9343 53.4835 29.9175 52.6737C24.9007 51.864 21.8389 44.9674 23.082 37.2678C24.3251 29.5683 29.4032 23.9816 34.42 24.7914C39.4402 25.5977 42.4987 32.4977 41.2556 40.1973Z" fill="white"/>
<path d="M26.1861 26.7959C28.4561 24.2981 31.4688 22.7446 34.6661 23.26L34.6664 23.2596C37.8663 23.7736 40.2377 26.1958 41.6061 29.2809C42.9815 32.3817 43.4509 36.3416 42.7885 40.4442C42.1261 44.5471 40.4335 48.1582 38.1514 50.6692C35.881 53.1674 32.8676 54.7213 29.6698 54.2052C26.4724 53.6891 24.1015 51.2674 22.7327 48.1829C21.3569 45.0826 20.8865 41.1235 21.549 37.0206C22.2114 32.9178 23.9041 29.3069 26.1861 26.7959ZM34.1722 26.3228C32.3533 26.0292 30.3193 26.8637 28.4857 28.8812C26.6637 30.8859 25.1956 33.9181 24.6149 37.5147C24.0342 41.1113 24.4733 44.4504 25.5718 46.9256C26.6773 49.4167 28.3458 50.8484 30.1653 51.142C31.9842 51.4356 34.0182 50.6012 35.8518 48.5836C37.6738 46.5789 39.1416 43.5467 39.7223 39.9501C40.303 36.3533 39.8648 33.0135 38.7667 30.5378C37.6617 28.0465 35.9938 26.6151 34.1735 26.3228H34.1722Z" fill="#262933"/>
<path d="M35.9053 34.5768C33.78 34.1072 31.5083 35.8186 30.2175 38.6018C29.9859 39.1053 30.1051 39.7007 30.5036 40.0852L32.0226 41.5448C32.5709 42.0722 32.5573 42.9534 31.9919 43.4637L30.0983 45.1717C29.693 45.5358 29.55 46.1176 29.7543 46.6211C30.3401 48.0773 31.3414 49.1151 32.6322 49.4009C35.299 49.9895 38.1974 47.1451 39.0999 43.052C40.0025 38.959 38.572 35.1654 35.9053 34.5768Z" fill="#262933"/>
</svg>
