<svg width="56" height="80" viewBox="0 0 56 80" fill="none" xmlns="http://www.w3.org/2000/svg">
<path d="M37.9269 24.1461H55.1742V10.3314H34.4945V0H27.4426C12.3195 0 0 12.3025 0 27.4426C0 34.8683 2.90569 41.8012 8.24129 47.0518L9.3288 48.0543L11.7587 50.4843L2.05607 60.2039C0.747664 61.5123 0.0339847 63.2455 0.0339847 65.0807C0.0339847 66.9329 0.747664 68.6661 2.05607 69.9575L12.0986 80L19.4053 72.6933L23.9592 77.2472C26.661 79.932 31.028 79.932 33.7298 77.2472L50.4163 60.5607L53.1181 57.825C55.8029 55.1232 55.8029 50.7561 53.1181 48.0543L49.8216 44.7579L55.1572 44.8258V30.9771H37.9099C36.0238 30.9771 34.4945 29.4478 34.4945 27.5616C34.4945 25.6924 36.0408 24.1461 37.9269 24.1461ZM12.0986 75.0892L4.51997 67.5106C3.87426 66.8649 3.51742 65.9983 3.51742 65.0977C3.51742 64.1801 3.87426 63.3305 4.51997 62.6848C5.16568 62.0391 6.03229 61.6822 6.93288 61.6822C7.85047 61.6822 8.70008 62.0391 9.34579 62.6848L16.9244 70.2634L12.0986 75.0892ZM26.4401 74.8173L11.8267 60.2039C10.9601 59.3373 9.90654 58.7425 8.76805 58.4197L14.2566 52.9312L31.2829 69.9575C32.6253 71.2999 32.6253 73.4579 31.2829 74.8003C29.9405 76.1427 27.7655 76.1427 26.4401 74.8173ZM50.6712 50.5353C52.0136 51.8777 52.0136 54.0357 50.6542 55.3951L47.9524 58.1309L35.497 70.5862C35.1912 69.4647 34.6134 68.3942 33.7298 67.5106L11.7757 45.5395L10.6712 44.52C6.04928 39.983 3.50042 33.9167 3.50042 27.4426C3.50042 14.2396 14.2396 3.50042 27.4426 3.50042H30.9941V10.3483H20.6627V12.0985C20.6627 14.6474 19.949 16.6355 18.5217 18.0289C16.0408 20.4588 12.1325 20.4078 12.1155 20.4078L10.3314 20.3568V22.141C10.3314 34.4945 20.3738 44.537 32.7273 44.554L44.8258 44.7069L50.6712 50.5353ZM37.9269 34.4775H51.6737V41.3084L32.7783 41.0535H32.7613C22.8717 41.0535 14.7324 33.424 13.9167 23.7383C15.7859 23.4834 18.7086 22.7188 20.9686 20.5098C22.7358 18.7935 23.7723 16.5336 24.0782 13.7978H51.6737V20.6457H37.9269C34.1206 20.6457 31.011 23.7383 31.011 27.5616C31.011 31.3849 34.1037 34.4775 37.9269 34.4775Z" fill="#D42941"/>
</svg>
