<svg width="97" height="80" viewBox="0 0 97 80" fill="none" xmlns="http://www.w3.org/2000/svg">
<path d="M95.7984 66.9025C95.7984 74.1395 89.9381 79.9999 82.7011 79.9999C75.4641 79.9999 69.6038 74.1395 69.6038 66.9025C69.6038 59.6656 75.4641 53.8052 82.7011 53.8052C89.8988 53.8052 95.7984 59.6656 95.7984 66.9025Z" fill="#D42941"/>
<path d="M16.9125 20.8063C16.9125 14.7492 22.4975 11.76 31.1111 11.76C35.7915 11.76 42.5959 13.7266 42.5959 18.2498V22.0255H55.7326V14.7886C55.7326 3.14649 39.882 0 30.6391 0C15.0639 0 2.24189 6.80432 2.24189 21.4356C2.24189 46.057 43.9331 44.5624 43.9331 58.2891C43.9331 64.9361 37.7188 68.1219 30.6391 68.1219C23.4022 68.1219 17.5418 65.1327 13.4907 62.2222V51.3668H0V66.5093H0.0393314L0 66.5487C0 66.5487 10.1082 80 30.5211 80C46.529 80 58.6037 71.2291 58.6037 57.6597C58.6037 32.1337 16.9125 35.2802 16.9125 20.8063Z" fill="white"/>
</svg>
