<svg width="67" height="80" viewBox="0 0 67 80" fill="none" xmlns="http://www.w3.org/2000/svg">
<path d="M48.625 15.7002C48.625 14.597 49.52 13.7002 50.625 13.7002C51.73 13.7002 52.625 14.5947 52.625 15.7002C52.625 16.8057 51.73 17.7002 50.625 17.7002C49.5222 17.7002 48.625 16.8034 48.625 15.7002Z" fill="#3DD7D5"/>
<path d="M23.3906 53.3848C23.3906 50.3509 25.8519 47.8848 28.8906 47.8848C31.9293 47.8848 34.3906 50.3446 34.3906 53.3848C34.3906 56.4249 31.9293 58.8848 28.8906 58.8848C25.8519 58.8848 23.3906 56.4186 23.3906 53.3848Z" fill="#3DD7D5"/>
<path d="M54.3531 48.5892C54.5309 50.0416 54.634 51.5275 54.643 53.0452C54.5897 56.6721 53.8646 62.6985 50.1882 68.4374C50.1617 68.4789 50.1358 68.5201 50.1106 68.5613C45.5823 75.3887 37.9233 80 28.338 80C12.4622 80 0 69.9901 0 54.9662C0 44.5303 7.13776 35.6888 16.9347 35.6888C19.3443 35.6888 21.5958 36.5346 23.2996 38.2566C25.2773 40.2586 27.62 43.9705 24.2245 45.8508C23.7447 46.1157 23.2307 46.3137 22.7169 46.5116C22.1687 46.7228 21.6208 46.9339 21.1151 47.226C19.0827 48.4004 18.1091 50.7796 18.1091 53.0494C18.1091 59.7612 22.6911 63.5947 29.1899 63.5947C38.4574 62.9558 41.2261 54.3272 41.2261 47.4025C41.2261 43.3155 39.7203 38.9186 38.1352 34.29C36.3737 29.1467 34.5143 23.7172 34.5143 18.1091C34.5143 8.4156 40.6906 0 51.449 0C59.7612 0 66.26 5.43394 66.26 14.4885C66.26 20.8778 62.8524 25.3564 58.1608 25.3564C56.0554 25.3564 53.5544 24.547 52.1366 22.9041C51.2847 21.9183 50.7736 20.7926 51.7167 19.6668C52.1183 19.1922 52.6478 18.8028 53.1528 18.4438C55.6599 16.6426 54.3365 12.125 50.8438 12.125C48.6105 12.125 45.3822 13.4236 45.3822 19.2835C45.3822 22.1384 46.9104 25.8026 48.7253 30.1542C49.2203 31.3412 49.7367 32.5794 50.2492 33.8662L50.2469 33.875C50.271 33.9303 50.2958 33.9877 50.3211 34.0471C50.7501 35.1288 51.1755 36.2446 51.5826 37.393C52.5872 40.339 53.7399 44.4003 54.3531 48.5892Z" fill="white"/>
</svg>
