<svg width="32" height="32" viewBox="0 0 32 32" fill="none" xmlns="http://www.w3.org/2000/svg">
<path d="M6.33333 9.99998C6.33433 9.11624 6.68583 8.26898 7.31074 7.64409C7.93565 7.01919 8.78292 6.66768 9.66667 6.66669C10.4267 6.6694 11.1626 6.93431 11.75 7.41668C12.217 7.23274 12.6966 7.08236 13.185 6.96669C12.3288 5.97587 11.0775 5.33337 9.66667 5.33337C8.42946 5.33492 7.24338 5.82707 6.36854 6.7019C5.4937 7.57672 5.00154 8.7628 5 9.99998C5 11.0775 5.38208 12.0587 6 12.8495C6.21033 12.3936 6.4526 11.953 6.725 11.5312C6.47193 11.0602 6.33749 10.5346 6.33333 9.99998ZM21.6667 5.33337C20.2558 5.33337 19.0046 5.97587 18.1483 6.96877C18.6368 7.08444 19.1163 7.23482 19.5833 7.41877C20.1707 6.93639 20.9066 6.67149 21.6667 6.66877C22.5504 6.66977 23.3977 7.02127 24.0226 7.64617C24.6475 8.27107 24.999 9.11833 25 10.0021C24.9964 10.5366 24.8625 11.0622 24.61 11.5333C24.8817 11.9545 25.1235 12.3943 25.3333 12.8495C25.9496 12.0579 26.3333 11.0775 26.3333 9.99998C26.3318 8.7628 25.8396 7.57672 24.9648 6.7019C24.09 5.82707 22.9039 5.33492 21.6667 5.33337ZM15.6667 8.00001C10.5121 8.00001 6.33333 12.1787 6.33333 17.3332C6.33214 19.5777 7.14385 21.7467 8.61833 23.439L6.43083 25.6248C6.39984 25.6558 6.37525 25.6925 6.35848 25.733C6.34171 25.7734 6.33307 25.8168 6.33307 25.8606C6.33307 25.9044 6.34171 25.9478 6.35848 25.9883C6.37525 26.0287 6.39984 26.0655 6.43083 26.0965L6.90208 26.5677C6.93304 26.5987 6.9698 26.6233 7.01027 26.6401C7.05074 26.6568 7.09411 26.6655 7.13792 26.6655C7.18172 26.6655 7.2251 26.6568 7.26556 26.6401C7.30603 26.6233 7.34279 26.5987 7.37375 26.5677L9.56083 24.3802C11.2537 25.8536 13.4224 26.6652 15.6667 26.6652C17.911 26.6652 20.0796 25.8536 21.7725 24.3802L23.9583 26.5689C23.9893 26.5999 24.0261 26.6245 24.0665 26.6413C24.107 26.6581 24.1504 26.6667 24.1942 26.6667C24.238 26.6667 24.2813 26.6581 24.3218 26.6413C24.3623 26.6245 24.399 26.5999 24.43 26.5689L24.9013 26.0977C24.9322 26.0667 24.9568 26.03 24.9736 25.9895C24.9904 25.9491 24.999 25.9057 24.999 25.8619C24.999 25.8181 24.9904 25.7747 24.9736 25.7342C24.9568 25.6938 24.9322 25.657 24.9013 25.626L22.7138 23.439C24.1887 21.7469 25.0009 19.5779 25 17.3332C25 12.1787 20.8212 8.00001 15.6667 8.00001ZM15.6667 25.3331C11.2554 25.3331 7.66667 21.7444 7.66667 17.3332C7.66667 12.922 11.2554 9.33333 15.6667 9.33333C20.0779 9.33333 23.6667 12.922 23.6667 17.3332C23.6667 21.7444 20.0779 25.3331 15.6667 25.3331ZM16.2658 17.6795V12.3333C16.2658 12.2449 16.2307 12.1601 16.1682 12.0976C16.1057 12.0351 16.0209 12 15.9325 12H15.2658C15.1774 12 15.0926 12.0351 15.0301 12.0976C14.9676 12.1601 14.9325 12.2449 14.9325 12.3333V17.9999C14.9326 18.0998 14.9551 18.1983 14.9983 18.2883C15.0416 18.3783 15.1045 18.4575 15.1825 18.5199L18.2554 20.9782C18.2896 21.0056 18.3289 21.0259 18.3709 21.0381C18.413 21.0503 18.4571 21.0541 18.5006 21.0493C18.5441 21.0445 18.5863 21.0311 18.6246 21.0099C18.663 20.9888 18.6968 20.9603 18.7242 20.9261L19.1408 20.4053C19.1682 20.3711 19.1886 20.3318 19.2008 20.2898C19.213 20.2477 19.2168 20.2036 19.2119 20.1601C19.2071 20.1166 19.1937 20.0744 19.1726 20.0361C19.1515 19.9977 19.123 19.9639 19.0888 19.9365L16.2658 17.6795Z" fill="#474747"/>
</svg>
