<svg width="32" height="32" viewBox="0 0 32 32" fill="none" xmlns="http://www.w3.org/2000/svg">
<path d="M6.66671 9.99998C6.6677 9.11624 7.01921 8.26898 7.64411 7.64409C8.26902 7.01919 9.11629 6.66768 10 6.66669C10.7601 6.6694 11.496 6.93431 12.0834 7.41668C12.5504 7.23274 13.0299 7.08236 13.5184 6.96669C12.6621 5.97587 11.4109 5.33337 10 5.33337C8.76284 5.33492 7.57675 5.82707 6.70191 6.7019C5.82708 7.57672 5.33492 8.7628 5.33337 9.99998C5.33337 11.0775 5.71546 12.0587 6.33337 12.8495C6.5437 12.3936 6.78597 11.953 7.05837 11.5312C6.8053 11.0602 6.67086 10.5346 6.66671 9.99998ZM22 5.33337C20.5892 5.33337 19.338 5.97587 18.4817 6.96877C18.9701 7.08444 19.4497 7.23482 19.9167 7.41877C20.5041 6.93639 21.24 6.67149 22 6.66877C22.8838 6.66977 23.7311 7.02127 24.356 7.64617C24.9809 8.27107 25.3324 9.11833 25.3334 10.0021C25.3297 10.5366 25.1959 11.0622 24.9434 11.5333C25.2151 11.9545 25.4568 12.3943 25.6667 12.8495C26.283 12.0579 26.6667 11.0775 26.6667 9.99998C26.6652 8.7628 26.173 7.57672 25.2982 6.7019C24.4233 5.82707 23.2372 5.33492 22 5.33337ZM16 8.00001C10.8455 8.00001 6.66671 12.1787 6.66671 17.3332C6.66551 19.5777 7.47723 21.7467 8.95171 23.439L6.76421 25.6248C6.73322 25.6558 6.70863 25.6925 6.69185 25.733C6.67508 25.7734 6.66645 25.8168 6.66645 25.8606C6.66645 25.9044 6.67508 25.9478 6.69185 25.9883C6.70863 26.0287 6.73322 26.0655 6.76421 26.0965L7.23546 26.5677C7.26642 26.5987 7.30318 26.6233 7.34364 26.6401C7.38411 26.6568 7.42749 26.6655 7.47129 26.6655C7.5151 26.6655 7.55847 26.6568 7.59894 26.6401C7.6394 26.6233 7.67617 26.5987 7.70712 26.5677L9.89421 24.3802C11.5871 25.8536 13.7557 26.6652 16 26.6652C18.2443 26.6652 20.413 25.8536 22.1059 24.3802L24.2917 26.5689C24.3227 26.5999 24.3594 26.6245 24.3999 26.6413C24.4404 26.6581 24.4837 26.6667 24.5275 26.6667C24.5713 26.6667 24.6147 26.6581 24.6552 26.6413C24.6957 26.6245 24.7324 26.5999 24.7634 26.5689L25.2346 26.0977C25.2656 26.0667 25.2902 26.03 25.307 25.9895C25.3238 25.9491 25.3324 25.9057 25.3324 25.8619C25.3324 25.8181 25.3238 25.7747 25.307 25.7342C25.2902 25.6938 25.2656 25.657 25.2346 25.626L23.0471 23.439C24.5221 21.7469 25.3342 19.5779 25.3334 17.3332C25.3334 12.1787 21.1546 8.00001 16 8.00001ZM16 25.3331C11.5888 25.3331 8.00004 21.7444 8.00004 17.3332C8.00004 12.922 11.5888 9.33333 16 9.33333C20.4113 9.33333 24 12.922 24 17.3332C24 21.7444 20.4113 25.3331 16 25.3331ZM16.5992 17.6795V12.3333C16.5992 12.2449 16.5641 12.1601 16.5016 12.0976C16.4391 12.0351 16.3543 12 16.2659 12H15.5992C15.5108 12 15.426 12.0351 15.3635 12.0976C15.301 12.1601 15.2659 12.2449 15.2659 12.3333V17.9999C15.2659 18.0998 15.2884 18.1983 15.3317 18.2883C15.375 18.3783 15.4379 18.4575 15.5159 18.5199L18.5888 20.9782C18.623 21.0056 18.6622 21.0259 18.7043 21.0381C18.7464 21.0503 18.7904 21.0541 18.834 21.0493C18.8775 21.0445 18.9196 21.0311 18.958 21.0099C18.9964 20.9888 19.0302 20.9603 19.0575 20.9261L19.4742 20.4053C19.5016 20.3711 19.522 20.3318 19.5342 20.2898C19.5464 20.2477 19.5502 20.2036 19.5453 20.1601C19.5405 20.1166 19.5271 20.0744 19.506 20.0361C19.4848 19.9977 19.4563 19.9639 19.4221 19.9365L16.5992 17.6795Z" fill="currentColor"/>
</svg>
