<svg width="32" height="32" viewBox="0 0 32 32" fill="none" xmlns="http://www.w3.org/2000/svg">
<path d="M16 19.9999C15.8023 19.9999 15.6089 20.0585 15.4445 20.1684C15.28 20.2783 15.1518 20.4344 15.0762 20.6172C15.0005 20.7999 14.9807 21.001 15.0193 21.1949C15.0578 21.3889 15.1531 21.5671 15.2929 21.7069C15.4328 21.8468 15.611 21.942 15.805 21.9806C15.9989 22.0192 16.2 21.9994 16.3827 21.9237C16.5654 21.848 16.7216 21.7199 16.8315 21.5554C16.9414 21.391 17 21.1976 17 20.9998C17 20.7346 16.8947 20.4803 16.7071 20.2928C16.5196 20.1052 16.2653 19.9999 16 19.9999ZM15.6459 18.9999H16.3542C16.4387 18.9987 16.5197 18.966 16.5814 18.9082C16.6431 18.8504 16.6809 18.7716 16.6875 18.6874L16.9792 13.0208C16.9821 12.9753 16.9755 12.9297 16.9601 12.8868C16.9446 12.8439 16.9205 12.8047 16.8893 12.7715C16.858 12.7383 16.8203 12.7119 16.7784 12.6938C16.7366 12.6758 16.6915 12.6665 16.6459 12.6666H15.3542C15.3086 12.6665 15.2635 12.6758 15.2216 12.6938C15.1798 12.7119 15.1421 12.7383 15.1108 12.7715C15.0796 12.8047 15.0555 12.8439 15.04 12.8868C15.0245 12.9297 15.018 12.9753 15.0209 13.0208L15.3125 18.6874C15.3178 18.7721 15.3553 18.8516 15.4172 18.9097C15.4792 18.9678 15.561 19 15.6459 18.9999ZM6.66671 9.99998C6.6677 9.11624 7.01921 8.26898 7.64411 7.64409C8.26902 7.01919 9.11629 6.66768 10 6.66669C10.7601 6.6694 11.496 6.93431 12.0834 7.41668C12.5504 7.23274 13.0299 7.08236 13.5184 6.96669C12.6621 5.97587 11.4109 5.33337 10 5.33337C8.76284 5.33492 7.57675 5.82707 6.70191 6.7019C5.82708 7.57672 5.33492 8.7628 5.33337 9.99998C5.33337 11.0775 5.71546 12.0587 6.33337 12.8495C6.5437 12.3936 6.78597 11.953 7.05837 11.5312C6.8053 11.0602 6.67086 10.5346 6.66671 9.99998ZM22 5.33337C20.5892 5.33337 19.338 5.97587 18.4817 6.96877C18.9701 7.08444 19.4497 7.23482 19.9167 7.41877C20.5041 6.93639 21.24 6.67149 22 6.66877C22.8838 6.66977 23.7311 7.02127 24.356 7.64617C24.9809 8.27107 25.3324 9.11833 25.3334 10.0021C25.3297 10.5366 25.1959 11.0622 24.9434 11.5333C25.2151 11.9545 25.4568 12.3943 25.6667 12.8495C26.283 12.0579 26.6667 11.0775 26.6667 9.99998C26.6652 8.7628 26.173 7.57672 25.2982 6.7019C24.4233 5.82707 23.2372 5.33492 22 5.33337ZM16 8.00001C10.8455 8.00001 6.66671 12.1787 6.66671 17.3332C6.66551 19.5777 7.47723 21.7467 8.95171 23.439L6.76421 25.6248C6.73322 25.6558 6.70863 25.6925 6.69185 25.733C6.67508 25.7734 6.66645 25.8168 6.66645 25.8606C6.66645 25.9044 6.67508 25.9478 6.69185 25.9883C6.70863 26.0287 6.73322 26.0655 6.76421 26.0965L7.23546 26.5677C7.26642 26.5987 7.30318 26.6233 7.34364 26.6401C7.38411 26.6568 7.42749 26.6655 7.47129 26.6655C7.5151 26.6655 7.55847 26.6568 7.59894 26.6401C7.6394 26.6233 7.67617 26.5987 7.70712 26.5677L9.89421 24.3802C11.5871 25.8536 13.7557 26.6652 16 26.6652C18.2443 26.6652 20.413 25.8536 22.1059 24.3802L24.2917 26.5689C24.3227 26.5999 24.3594 26.6245 24.3999 26.6413C24.4404 26.6581 24.4837 26.6667 24.5275 26.6667C24.5713 26.6667 24.6147 26.6581 24.6552 26.6413C24.6957 26.6245 24.7324 26.5999 24.7634 26.5689L25.2346 26.0977C25.2656 26.0667 25.2902 26.03 25.307 25.9895C25.3238 25.9491 25.3324 25.9057 25.3324 25.8619C25.3324 25.8181 25.3238 25.7747 25.307 25.7342C25.2902 25.6938 25.2656 25.657 25.2346 25.626L23.0471 23.439C24.5221 21.7469 25.3342 19.5779 25.3334 17.3332C25.3334 12.1787 21.1546 8.00001 16 8.00001ZM16 25.3331C11.5888 25.3331 8.00004 21.7444 8.00004 17.3332C8.00004 12.922 11.5888 9.33333 16 9.33333C20.4113 9.33333 24 12.922 24 17.3332C24 21.7444 20.4113 25.3331 16 25.3331Z" fill="currentColor"/>
</svg>
