<svg width="32" height="32" viewBox="0 0 32 32" fill="none" xmlns="http://www.w3.org/2000/svg">
<path d="M16 5.33337C10.1076 5.33337 5.33337 10.1076 5.33337 16C5.33337 21.8925 10.1076 26.6667 16 26.6667C21.8925 26.6667 26.6667 21.8925 26.6667 16C26.6667 10.1076 21.8925 5.33337 16 5.33337ZM16 25.2904C10.8775 25.2904 6.70972 21.1226 6.70972 16C6.70972 10.8775 10.8775 6.70972 16 6.70972C21.1226 6.70972 25.2904 10.8775 25.2904 16C25.2904 21.1226 21.1226 25.2904 16 25.2904ZM16 19.4409C14.6581 19.4409 13.3936 20.0344 12.5334 21.0667C12.2882 21.3592 12.3269 21.7936 12.6194 22.0344C12.9119 22.2753 13.3463 22.2409 13.5871 21.9484C14.7871 20.5119 17.2086 20.5119 18.4086 21.9484C18.6366 22.2237 19.071 22.2925 19.3764 22.0344C19.6689 21.7893 19.7076 21.3549 19.4624 21.0667C18.6065 20.0344 17.342 19.4409 16 19.4409ZM13.9355 15.3119C13.9355 15.1871 13.8968 15.071 13.8624 14.9592C13.8882 14.9635 13.9097 14.9678 13.9355 14.9678C14.2323 14.9678 14.5033 14.7742 14.5936 14.4775C14.7054 14.1119 14.499 13.7291 14.1334 13.6215L10.6925 12.5893C10.3312 12.4818 9.94413 12.6882 9.8366 13.0495C9.72477 13.4151 9.93122 13.7979 10.2968 13.9054L11.6301 14.3054C11.3592 14.5549 11.1785 14.9119 11.1785 15.3119C11.1785 16.0732 11.7936 16.6882 12.5549 16.6882C13.3162 16.6882 13.9355 16.0732 13.9355 15.3119ZM21.3076 12.5893L17.8667 13.6215C17.5011 13.7291 17.2947 14.1162 17.4065 14.4775C17.4968 14.7742 17.7678 14.9678 18.0646 14.9678C18.0904 14.9678 18.1119 14.9592 18.1377 14.9592C18.1076 15.0753 18.0646 15.1871 18.0646 15.3119C18.0646 16.0732 18.6796 16.6882 19.4409 16.6882C20.2022 16.6882 20.8172 16.0732 20.8172 15.3119C20.8172 14.9119 20.6409 14.5592 20.3656 14.3054L21.699 13.9054C22.0646 13.7979 22.271 13.4108 22.1592 13.0495C22.056 12.6839 21.6689 12.4818 21.3076 12.5893Z" fill="#474747"/>
</svg>
