<svg width="32" height="32" viewBox="0 0 32 32" fill="none" xmlns="http://www.w3.org/2000/svg">
<path d="M17.834 7.99993C18.3138 7.99993 18.7027 8.38371 18.7027 8.85707V16.0001H23.6422C23.943 16.0001 24.0938 16.3589 23.8812 16.569L16.6149 23.7481C16.2756 24.0833 15.725 24.0833 15.3856 23.7481L8.11933 16.569C7.90673 16.3589 8.05751 16.0001 8.35833 16.0001H13.2979V8.85707C13.2979 8.38371 13.6868 7.99993 14.1666 7.99993H17.834ZM17.834 6.66663H14.1665C12.9425 6.66663 11.9466 7.64927 11.9466 8.85707V14.6668H8.35837C6.85907 14.6668 6.09944 16.4601 7.16331 17.5111L14.4296 24.6902C15.2973 25.5476 16.7031 25.5477 17.571 24.6902L24.8373 17.5111C25.8967 16.4644 25.1477 14.6668 23.6422 14.6668H20.0539V8.85707C20.0539 7.64927 19.0581 6.66663 17.834 6.66663Z" fill="#474747"/>
</svg>
