<svg width="32" height="32" viewBox="0 0 32 32" fill="none" xmlns="http://www.w3.org/2000/svg">
<path d="M25.5999 11.3333C26.1891 11.3333 26.6666 10.8558 26.6666 10.2667V7.06667C26.6666 6.4775 26.1891 6 25.5999 6H22.3999C21.8108 6 21.3333 6.4775 21.3333 7.06667V8H10.6666V7.06667C10.6666 6.4775 10.1891 6 9.59992 6H6.39992C5.81075 6 5.33325 6.4775 5.33325 7.06667V10.2667C5.33325 10.8558 5.81075 11.3333 6.39992 11.3333H7.33325V22H6.39992C5.81075 22 5.33325 22.4775 5.33325 23.0667V26.2667C5.33325 26.8558 5.81075 27.3333 6.39992 27.3333H9.59992C10.1891 27.3333 10.6666 26.8558 10.6666 26.2667V25.3333H21.3333V26.2667C21.3333 26.8558 21.8108 27.3333 22.3999 27.3333H25.5999C26.1891 27.3333 26.6666 26.8558 26.6666 26.2667V23.0667C26.6666 22.4775 26.1891 22 25.5999 22H24.6666V11.3333H25.5999ZM22.6666 7.33333H25.3333V10H22.6666V7.33333ZM6.66659 10V7.33333H9.33325V10H6.66659ZM9.33325 26H6.66659V23.3333H9.33325V26ZM25.3333 23.3333V26H22.6666V23.3333H25.3333ZM23.3333 22H22.3999C21.8108 22 21.3333 22.4775 21.3333 23.0667V24H10.6666V23.0667C10.6666 22.4775 10.1891 22 9.59992 22H8.66659V11.3333H9.59992C10.1891 11.3333 10.6666 10.8558 10.6666 10.2667V9.33333H21.3333V10.2667C21.3333 10.8558 21.8108 11.3333 22.3999 11.3333H23.3333V22Z" fill="currentColor"/>
</svg>
