<svg width="32" height="32" viewBox="0 0 32 32" fill="none" xmlns="http://www.w3.org/2000/svg">
<path d="M10.7277 22.4833L5.51698 17.2763C5.27217 17.0317 5.27217 16.6351 5.51698 16.3905L10.7277 11.1835C10.9725 10.9389 11.3693 10.9389 11.6141 11.1835L12.0573 11.6263C12.3021 11.871 12.3021 12.2675 12.0573 12.5121L8.67123 15.8959H24.7904V10.5846C24.7904 10.5026 24.8066 10.4213 24.838 10.3454C24.8694 10.2696 24.9155 10.2007 24.9736 10.1427L25.599 9.5177C25.993 9.12395 26.6667 9.4028 26.6667 9.95963V16.5209C26.6667 17.2112 26.1067 17.7709 25.4158 17.7709H8.67123L12.0573 21.1546C12.3021 21.3992 12.3021 21.7958 12.0573 22.0404L11.6141 22.4832C11.3693 22.7279 10.9725 22.7279 10.7277 22.4833Z" fill="currentColor"/>
</svg>
