<svg width="32" height="32" viewBox="0 0 32 32" fill="none" xmlns="http://www.w3.org/2000/svg">
<path d="M23.1419 11.9426H17.3342V8.35813C17.3342 6.85931 15.5427 6.09935 14.4887 7.1633L7.3103 14.4294C6.45207 15.2991 6.45207 16.7009 7.3103 17.5706L14.4887 24.8367C15.5344 25.8964 17.3342 25.1491 17.3342 23.6419V20.0531H23.1419C24.3501 20.0531 25.3333 19.0567 25.3333 17.8324V14.1634C25.3333 12.939 24.3501 11.9426 23.1419 11.9426ZM24.0001 17.8324C24.0001 18.3137 23.6168 18.7021 23.1419 18.7021H16.001V23.6419C16.001 23.9416 15.6427 24.0936 15.4302 23.8825L8.25187 16.6164C7.91857 16.2787 7.91857 15.7256 8.25187 15.3878L15.4302 8.1217C15.6385 7.9106 16.001 8.05837 16.001 8.36235V13.3021H23.1419C23.6168 13.3021 24.0001 13.6906 24.0001 14.1719V17.8324Z" fill="currentColor"/>
</svg>
