<svg width="32" height="32" viewBox="0 0 32 32" fill="none" xmlns="http://www.w3.org/2000/svg">
<path d="M7.99995 14.1656C7.99995 13.9353 8.09025 13.7144 8.25098 13.5515C8.41172 13.3886 8.62972 13.2971 8.85703 13.2971H15.9999V8.35709C15.9998 8.29024 16.0194 8.22489 16.056 8.16929C16.0926 8.11369 16.1447 8.07036 16.2056 8.04477C16.2666 8.01918 16.3336 8.01249 16.3983 8.02555C16.463 8.0386 16.5224 8.07082 16.5691 8.11811L23.7498 15.3846C23.8296 15.4652 23.8929 15.561 23.9361 15.6665C23.9792 15.7719 24.0015 15.885 24.0015 15.9991C24.0015 16.1133 23.9792 16.2264 23.9361 16.3318C23.8929 16.4373 23.8296 16.533 23.7498 16.6137L16.5691 23.8793C16.5225 23.9265 16.4632 23.9587 16.3986 23.9718C16.3341 23.9849 16.2671 23.9783 16.2062 23.9529C16.1453 23.9275 16.0932 23.8843 16.0565 23.8289C16.0198 23.7735 16.0001 23.7083 15.9999 23.6416V18.7016H8.85703C8.74444 18.7016 8.63295 18.6791 8.52894 18.6354C8.42493 18.5918 8.33043 18.5277 8.25083 18.4471C8.17124 18.3664 8.10812 18.2706 8.06507 18.1651C8.02202 18.0597 7.9999 17.9467 7.99995 17.8326V14.1656ZM6.66663 14.1656V17.8326C6.66718 18.4212 6.89811 18.9855 7.30876 19.4017C7.71941 19.8179 8.27623 20.052 8.85703 20.0527H14.6666V23.6416C14.6666 25.1409 16.4582 25.9005 17.5111 24.8365L24.6903 17.5709C24.8941 17.3648 25.0558 17.12 25.1662 16.8504C25.2765 16.5809 25.3333 16.292 25.3333 16.0002C25.3333 15.7084 25.2765 15.4195 25.1662 15.15C25.0558 14.8804 24.8941 14.6356 24.6903 14.4295L17.5111 7.16262C16.4645 6.10326 14.6666 6.85228 14.6666 8.35709V11.946H8.85703C8.2763 11.9467 7.71955 12.1807 7.30891 12.5969C6.89827 13.013 6.66729 13.5772 6.66663 14.1656Z" fill="currentColor"/>
</svg>
