<svg width="32" height="32" viewBox="0 0 32 32" fill="none" xmlns="http://www.w3.org/2000/svg">
<path d="M22.5208 16.3333L16.3542 22.5208C16.1583 22.7166 15.8417 22.7166 15.6458 22.5208L9.47917 16.3333C9.28333 16.1375 9.28333 15.8208 9.47917 15.625L9.775 15.3291C9.97083 15.1333 10.2875 15.1333 10.4833 15.3291L15.2917 20.1625V7.16663C15.2917 6.89163 15.5167 6.66663 15.7917 6.66663H16.2083C16.4833 6.66663 16.7083 6.89163 16.7083 7.16663V20.1625L21.5167 15.3333C21.7125 15.1375 22.0292 15.1375 22.225 15.3333L22.5208 15.6291C22.7167 15.8208 22.7167 16.1375 22.5208 16.3333ZM24 24.8333V24.5C24 24.225 23.775 24 23.5 24H8.5C8.225 24 8 24.225 8 24.5V24.8333C8 25.1083 8.225 25.3333 8.5 25.3333H23.5C23.775 25.3333 24 25.1083 24 24.8333Z" fill="#474747"/>
</svg>
