<svg width="32" height="32" viewBox="0 0 32 32" fill="none" xmlns="http://www.w3.org/2000/svg">
<path d="M21.2724 22.4833L26.4831 17.2763C26.7279 17.0317 26.7279 16.6351 26.4831 16.3905L21.2724 11.1835C21.0276 10.9389 20.6308 10.9389 20.386 11.1835L19.9428 11.6263C19.698 11.871 19.698 12.2675 19.9428 12.5121L23.3289 15.8959H7.20972V10.5846C7.20973 10.5026 7.19355 10.4213 7.16212 10.3455C7.13069 10.2696 7.08461 10.2007 7.02652 10.1427L6.40108 9.5177C6.00711 9.12395 5.33341 9.4028 5.33341 9.95963V16.5209C5.33341 17.2112 5.89344 17.7709 6.58429 17.7709H23.3289L19.9429 21.1546C19.6981 21.3992 19.6981 21.7958 19.9429 22.0404L20.386 22.4832C20.6308 22.7279 21.0276 22.7279 21.2724 22.4833Z" fill="currentColor"/>
</svg>
