<svg width="32" height="32" viewBox="0 0 32 32" fill="none" xmlns="http://www.w3.org/2000/svg">
<path d="M14.1659 24C13.6861 24 13.2972 23.6162 13.2972 23.1428V15.9998H8.35773C8.05687 15.9998 7.90612 15.641 8.11873 15.431L15.385 8.25186C15.7243 7.91661 16.2749 7.91657 16.6143 8.25186L23.8806 15.431C24.0932 15.641 23.9424 15.9998 23.6416 15.9998H18.7021V23.1428C18.7021 23.6163 18.3131 24 17.8334 24H14.1659ZM14.1659 25.3333H17.8334C19.0574 25.3333 20.0533 24.3507 20.0533 23.1428V17.3331H23.6416C25.1408 17.3331 25.9005 15.5398 24.8366 14.4888L17.5703 7.30967C16.7026 6.45236 15.2968 6.45219 14.4289 7.30967L7.16266 14.4887C6.10318 15.5355 6.85226 17.3331 8.35773 17.3331H11.946V23.1428C11.946 24.3507 12.9418 25.3333 14.1659 25.3333Z" fill="currentColor"/>
</svg>
