<svg width="32" height="32" viewBox="0 0 32 32" fill="none" xmlns="http://www.w3.org/2000/svg">
<path d="M16 9.33136C13.7946 9.33136 12 11.1259 12 13.3313C12 15.5368 13.7946 17.3313 16 17.3313C18.2053 17.3313 19.9999 15.5368 19.9999 13.3313C19.9999 11.1259 18.2058 9.33136 16 9.33136ZM16 15.998C14.5296 15.998 13.3333 14.8018 13.3333 13.3313C13.3333 11.8609 14.5296 10.6647 16 10.6647C17.4704 10.6647 18.6666 11.8609 18.6666 13.3313C18.6666 14.8018 17.4704 15.998 16 15.998ZM23.3178 16.6805C23.9036 16.0842 24.134 15.2084 23.9207 14.3947C23.6544 13.3863 23.6544 13.5426 23.9207 12.5326C24.1344 11.7193 23.9036 10.8439 23.3178 10.2468C22.5853 9.50844 22.669 9.63469 22.4049 8.63886C22.1903 7.82095 21.5561 7.1772 20.7499 6.95804C19.7791 6.69471 19.8907 6.76721 19.177 6.03221C18.5845 5.43138 17.7137 5.19555 16.905 5.41471C15.9258 5.68596 16.0675 5.68179 15.0937 5.41471C14.2917 5.19346 13.4154 5.43138 12.8229 6.03346C12.1021 6.76971 12.2309 6.69054 11.2513 6.95804C10.4442 7.1772 9.81007 7.82095 9.59508 8.63803C9.33008 9.63969 9.41258 9.50761 8.68218 10.2472C8.09635 10.8439 7.86594 11.7197 8.07969 12.5334C8.34593 13.5405 8.34593 13.3843 8.07969 14.3955C7.86594 15.2088 8.09677 16.0843 8.68259 16.6813C9.41508 17.4197 9.33133 17.2934 9.59549 18.2892C9.67924 18.6076 9.84174 18.8876 10.038 19.1384L8.0501 24.0292C7.87052 24.4696 8.19635 24.9475 8.66634 24.9475C8.68926 24.9475 8.54509 24.9525 10.888 24.863L12.3984 26.4584C12.5325 26.6 12.7075 26.6667 12.8809 26.6667C13.1379 26.6667 13.3904 26.5196 13.5 26.2517L15.6854 20.8755C15.8894 20.8056 16.1109 20.8054 16.315 20.8751L18.4999 26.2517C18.6091 26.5196 18.862 26.6667 19.1191 26.6667C19.2924 26.6667 19.4674 26.6 19.6016 26.4584L21.112 24.8634C23.4548 24.953 23.3107 24.948 23.3336 24.948C23.8036 24.948 24.1294 24.47 23.9498 24.0296L21.9624 19.1392C22.1586 18.8884 22.3211 18.6084 22.4049 18.2905C22.6699 17.288 22.5874 17.4201 23.3178 16.6805ZM12.655 24.7896C11.7138 23.7955 11.965 24.0609 11.4413 23.5076C10.6788 23.5367 11.0476 23.5226 9.67424 23.5755L11.1555 19.9305C11.1884 19.9413 11.2167 19.9617 11.2505 19.9709C12.1617 20.2151 12.103 20.1626 12.5667 20.6338C12.9809 21.0563 13.5163 21.2826 14.065 21.3213L12.655 24.7896ZM22.3261 23.5751C20.9549 23.5226 21.3207 23.5367 20.5591 23.5076C20.0357 24.0605 20.2866 23.7955 19.3453 24.7896L17.9329 21.3146C18.4833 21.2767 19.0187 21.0559 19.4337 20.6334C19.9091 20.1497 19.8432 20.2088 20.7499 19.9705C20.7836 19.9613 20.812 19.9409 20.8449 19.9305L22.3261 23.5751ZM21.1157 17.9505C21.022 18.308 20.7474 18.5892 20.3982 18.6842C19.4141 18.9447 19.2153 18.953 18.4828 19.6997C18.1495 20.0376 17.6416 20.1001 17.2433 19.8447C16.4879 19.368 15.5116 19.3676 14.7562 19.8455C14.3604 20.0967 13.85 20.038 13.5167 19.6988C12.7925 18.9622 12.595 18.9509 11.6013 18.6838C11.2521 18.5888 10.9776 18.3076 10.8838 17.9497C10.548 16.6734 10.5701 16.6917 9.63258 15.7468C9.37466 15.4838 9.273 15.0959 9.36841 14.7338C9.70799 13.4643 9.71008 13.4638 9.36841 12.1943C9.27342 11.8322 9.37508 11.4443 9.63258 11.1818C10.5667 10.2359 10.5467 10.2626 10.8838 8.9772C10.9776 8.6197 11.2521 8.33845 11.6013 8.24428C12.8842 7.89387 12.8379 7.91928 13.7733 6.96846C13.99 6.74721 14.3492 6.59512 14.7433 6.70137C16.0125 7.05054 15.9871 7.05137 17.2549 6.70137C17.5962 6.60679 17.9712 6.70929 18.2262 6.96679C19.1549 7.9197 19.1374 7.90178 20.3995 8.24428C20.747 8.33887 21.022 8.62012 21.1157 8.97803C21.4515 10.2543 21.4295 10.2359 22.3669 11.1809C22.6249 11.4439 22.7265 11.8318 22.6311 12.1938C22.2899 13.4655 22.2911 13.4663 22.6311 14.7334C22.7261 15.0955 22.6244 15.4834 22.3669 15.7459C21.4332 16.6922 21.4528 16.6651 21.1157 17.9505Z" fill="#474747"/>
</svg>
