<svg width="32" height="32" viewBox="0 0 32 32" fill="none" xmlns="http://www.w3.org/2000/svg">
<path d="M29.1 16.9621L24.5563 9.63002C24.4242 9.43252 24.2121 9.33336 24 9.33336C23.788 9.33336 23.5759 9.43252 23.4438 9.63002L18.9001 16.9621C18.7388 17.2029 18.6463 17.4921 18.6705 17.7804C18.8984 20.5166 21.1976 22.6666 24 22.6666C26.8025 22.6666 29.1017 20.5166 29.3296 17.7804C29.3538 17.4921 29.2613 17.2029 29.1 16.9621ZM24 21.3333C22.2676 21.3333 20.7688 20.2029 20.2176 18.6666H27.7675C27.2084 20.2179 25.72 21.3333 24 21.3333ZM20.2388 17.3333L24.0017 11.26L27.7909 17.3333H20.2388ZM25 25.3333H16.6667V10.5725C17.8151 10.275 18.6667 9.24127 18.6667 8.00003H25C25.1842 8.00003 25.3334 7.85086 25.3334 7.6667V7.00003C25.3334 6.81587 25.1842 6.6667 25 6.6667H18.2872C18.2809 6.65587 18.1051 6.20379 17.4909 5.78879C17.0655 5.50129 16.5522 5.33337 16.0001 5.33337C15.448 5.33337 14.9347 5.50129 14.5093 5.78879C13.8951 6.20379 13.7193 6.65587 13.713 6.6667H7.00012C6.81596 6.6667 6.66679 6.81587 6.66679 7.00003V7.6667C6.66679 7.85086 6.81596 8.00003 7.00012 8.00003H13.3334C13.3334 9.24127 14.1851 10.275 15.3334 10.5725V25.3333H7.00012C6.81596 25.3333 6.66679 25.4825 6.66679 25.6666V26.3333C6.66679 26.5174 6.81596 26.6666 7.00012 26.6666H25C25.1842 26.6666 25.3334 26.5174 25.3334 26.3333V25.6666C25.3334 25.4825 25.1842 25.3333 25 25.3333ZM14.6668 8.00003C14.6668 7.26378 15.2638 6.6667 16.0001 6.6667C16.7363 6.6667 17.3334 7.26378 17.3334 8.00003C17.3334 8.73628 16.7363 9.33336 16.0001 9.33336C15.2638 9.33336 14.6668 8.73628 14.6668 8.00003ZM13.3297 17.7804C13.3538 17.4921 13.2613 17.2029 13.1001 16.9621L8.55637 9.63002C8.42428 9.43252 8.2122 9.33336 8.00012 9.33336C7.78803 9.33336 7.57595 9.43252 7.44387 9.63002L2.90014 16.9621C2.73889 17.2029 2.64639 17.4921 2.67056 17.7804C2.89847 20.5166 5.19763 22.6666 8.00012 22.6666C10.8026 22.6666 13.1018 20.5166 13.3297 17.7804ZM8.00178 11.26L11.7909 17.3333H4.23888L8.00178 11.26ZM4.21763 18.6666H11.7676C11.2084 20.2179 9.72011 21.3333 8.00012 21.3333C6.26763 21.3333 4.76888 20.2029 4.21763 18.6666Z" fill="currentColor"/>
</svg>
