<svg width="32" height="32" viewBox="0 0 32 32" fill="none" xmlns="http://www.w3.org/2000/svg">
<path d="M25.0834 10.1498H6.91675C6.85044 10.1498 6.78686 10.1238 6.73997 10.0774C6.69309 10.0311 6.66675 9.9682 6.66675 9.90264V8.91388C6.66675 8.84832 6.69309 8.78545 6.73997 8.73909C6.78686 8.69273 6.85044 8.66669 6.91675 8.66669H25.0834C25.1497 8.66669 25.2133 8.69273 25.2602 8.73909C25.3071 8.78545 25.3334 8.84832 25.3334 8.91388V9.90264C25.3334 9.9682 25.3071 10.0311 25.2602 10.0774C25.2133 10.1238 25.1497 10.1498 25.0834 10.1498ZM25.0834 16.7416H6.91675C6.85044 16.7416 6.78686 16.7156 6.73997 16.6692C6.69309 16.6228 6.66675 16.56 6.66675 16.4944V15.5056C6.66675 15.4401 6.69309 15.3772 6.73997 15.3308C6.78686 15.2845 6.85044 15.2584 6.91675 15.2584H25.0834C25.1497 15.2584 25.2133 15.2845 25.2602 15.3308C25.3071 15.3772 25.3334 15.4401 25.3334 15.5056V16.4944C25.3334 16.56 25.3071 16.6228 25.2602 16.6692C25.2133 16.7156 25.1497 16.7416 25.0834 16.7416ZM25.0834 23.3334H6.91675C6.85044 23.3334 6.78686 23.3073 6.73997 23.261C6.69309 23.2146 6.66675 23.1517 6.66675 23.0862V22.0974C6.66675 22.0318 6.69309 21.969 6.73997 21.9226C6.78686 21.8763 6.85044 21.8502 6.91675 21.8502H25.0834C25.1497 21.8502 25.2133 21.8763 25.2602 21.9226C25.3071 21.969 25.3334 22.0318 25.3334 22.0974V23.0862C25.3334 23.1517 25.3071 23.2146 25.2602 23.261C25.2133 23.3073 25.1497 23.3334 25.0834 23.3334Z" fill="#474747"/>
</svg>
