<svg width="32" height="32" viewBox="0 0 32 32" fill="none" xmlns="http://www.w3.org/2000/svg">
<path d="M16.0001 25.3334C15.2643 25.3334 14.6668 24.7342 14.6668 23.9988H13.3335C13.3335 25.47 14.5302 26.6667 16.0001 26.6667C17.4701 26.6667 18.6668 25.47 18.6668 23.9988H17.3334C17.3334 24.7342 16.736 25.3334 16.0001 25.3334ZM24.7242 19.2838C23.5592 18.1746 22.6684 17.0138 22.6684 13.0792C22.6684 9.76296 20.0271 7.05837 16.6668 6.73129V6.00004C16.6668 5.63171 16.3685 5.33337 16.0001 5.33337C15.6318 5.33337 15.3335 5.63171 15.3335 6.00004V6.73171C11.9731 7.05879 9.3319 9.76296 9.3319 13.0792C9.3319 17.0134 8.44067 18.1746 7.27569 19.2838C6.69361 19.838 6.50987 20.6759 6.80695 21.4184C7.11027 22.1767 7.84026 22.6667 8.66691 22.6667H23.3333C24.16 22.6667 24.89 22.1763 25.1933 21.418C25.4904 20.6755 25.3062 19.838 24.7242 19.2838ZM23.3333 21.3334H8.66691C8.07401 21.3334 7.77776 20.6471 8.19526 20.2496C9.64773 18.8667 10.6652 17.3188 10.6652 13.0796C10.6652 10.2721 13.0514 8.00004 16.0001 8.00004C18.9484 8.00004 21.335 10.2717 21.335 13.0792C21.335 17.3021 22.3438 18.8584 23.805 20.2492C24.2242 20.6488 23.9238 21.3334 23.3333 21.3334Z" fill="#474747"/>
</svg>
