<svg width="32" height="32" viewBox="0 0 32 32" fill="none" xmlns="http://www.w3.org/2000/svg">
<path d="M7.80466 11.5292C7.74403 11.4672 7.67163 11.418 7.59171 11.3843C7.51179 11.3507 7.42596 11.3334 7.33925 11.3334C7.25121 11.3326 7.16389 11.3493 7.08233 11.3824C7.00078 11.4156 6.92659 11.4646 6.86407 11.5266C6.80154 11.5885 6.75191 11.6623 6.71805 11.7436C6.68418 11.8248 6.66674 11.912 6.66675 12V20C6.66675 20.088 6.68417 20.1752 6.71801 20.2564C6.75185 20.3377 6.80144 20.4114 6.86392 20.4734C6.9264 20.5353 7.00054 20.5843 7.08205 20.6175C7.16356 20.6507 7.25083 20.6674 7.33883 20.6667C7.42563 20.6669 7.51157 20.6496 7.59159 20.616C7.6716 20.5823 7.74405 20.533 7.80466 20.4709L11.8047 16.4709C11.9296 16.3459 11.9998 16.1764 11.9998 15.9996C11.9998 15.8229 11.9296 15.6534 11.8047 15.5284L7.80466 11.5292ZM8.00008 18.39V13.61L10.3905 16L8.00008 18.39ZM25.0001 7.33337H7.00008C6.91168 7.33337 6.82689 7.36849 6.76438 7.43101C6.70187 7.49352 6.66675 7.5783 6.66675 7.66671V8.33337C6.66675 8.42178 6.70187 8.50656 6.76438 8.56908C6.82689 8.63159 6.91168 8.66671 7.00008 8.66671H25.0001C25.0885 8.66671 25.1733 8.63159 25.2358 8.56908C25.2983 8.50656 25.3334 8.42178 25.3334 8.33337V7.66671C25.3334 7.5783 25.2983 7.49352 25.2358 7.43101C25.1733 7.36849 25.0885 7.33337 25.0001 7.33337ZM25.0001 23.3334H7.00008C6.91168 23.3334 6.82689 23.3685 6.76438 23.431C6.70187 23.4935 6.66675 23.5783 6.66675 23.6667V24.3334C6.66675 24.4218 6.70187 24.5066 6.76438 24.5691C6.82689 24.6316 6.91168 24.6667 7.00008 24.6667H25.0001C25.0885 24.6667 25.1733 24.6316 25.2358 24.5691C25.2983 24.5066 25.3334 24.4218 25.3334 24.3334V23.6667C25.3334 23.5783 25.2983 23.4935 25.2358 23.431C25.1733 23.3685 25.0885 23.3334 25.0001 23.3334ZM25.0001 18H15.0001C14.9117 18 14.8269 18.0352 14.7644 18.0977C14.7019 18.1602 14.6667 18.245 14.6667 18.3334V19C14.6667 19.0884 14.7019 19.1732 14.7644 19.2357C14.8269 19.2983 14.9117 19.3334 15.0001 19.3334H25.0001C25.0885 19.3334 25.1733 19.2983 25.2358 19.2357C25.2983 19.1732 25.3334 19.0884 25.3334 19V18.3334C25.3334 18.245 25.2983 18.1602 25.2358 18.0977C25.1733 18.0352 25.0885 18 25.0001 18ZM25.0001 12.6667H15.0001C14.9117 12.6667 14.8269 12.7018 14.7644 12.7643C14.7019 12.8269 14.6667 12.9116 14.6667 13V13.6667C14.6667 13.7551 14.7019 13.8399 14.7644 13.9024C14.8269 13.9649 14.9117 14 15.0001 14H25.0001C25.0885 14 25.1733 13.9649 25.2358 13.9024C25.2983 13.8399 25.3334 13.7551 25.3334 13.6667V13C25.3334 12.9116 25.2983 12.8269 25.2358 12.7643C25.1733 12.7018 25.0885 12.6667 25.0001 12.6667Z" fill="#474747"/>
</svg>
