<svg width="32" height="32" viewBox="0 0 32 32" fill="none" xmlns="http://www.w3.org/2000/svg">
<path d="M28.6666 14.6667H22.6666V6.00004C22.6666 5.63337 22.3666 5.33337 22 5.33337H9.99996C9.63329 5.33337 9.33329 5.63337 9.33329 6.00004V14.6667H3.33329C2.96663 14.6667 2.66663 14.9667 2.66663 15.3334V26C2.66663 26.3667 2.96663 26.6667 3.33329 26.6667H28.6666C29.0333 26.6667 29.3333 26.3667 29.3333 26V15.3334C29.3333 14.9667 29.0333 14.6667 28.6666 14.6667ZM24 16V18.6667H21.3333V16H24ZM14.6666 6.66671H17.3333V9.33337H14.6666V6.66671ZM10.6666 6.66671H13.3333V9.33337C13.3333 10.0709 13.9291 10.6667 14.6666 10.6667H17.3333C18.0708 10.6667 18.6666 10.0709 18.6666 9.33337V6.66671H21.3333V14.6667H10.6666V6.66671ZM7.99996 16H10.6666V18.6667H7.99996V16ZM15.3333 25.3334H3.99996V16H6.66663V18.6667C6.66663 19.4042 7.26246 20 7.99996 20H10.6666C11.4041 20 12 19.4042 12 18.6667V16H15.3333V25.3334ZM28 25.3334H16.6666V16H20V18.6667C20 19.4042 20.5958 20 21.3333 20H24C24.7375 20 25.3333 19.4042 25.3333 18.6667V16H28V25.3334Z" fill="#474747"/>
</svg>
