<svg width="32" height="32" viewBox="0 0 32 32" fill="none" xmlns="http://www.w3.org/2000/svg">
<path d="M21.5 12H14.5C14.225 12 14 11.775 14 11.5V11.1667C14 10.8917 14.225 10.6667 14.5 10.6667H21.5C21.775 10.6667 22 10.8917 22 11.1667V11.5C22 11.775 21.775 12 21.5 12ZM22 14.1667V13.8334C22 13.5584 21.775 13.3334 21.5 13.3334H14.5C14.225 13.3334 14 13.5584 14 13.8334V14.1667C14 14.4417 14.225 14.6667 14.5 14.6667H21.5C21.775 14.6667 22 14.4417 22 14.1667ZM24.6958 25.3334H24.8333C25.1083 25.3334 25.3333 25.5584 25.3333 25.8334V26.1667C25.3333 26.4417 25.1083 26.6667 24.8333 26.6667H9.99996C8.15829 26.6667 6.66663 25.175 6.66663 23.3334V8.66671C6.66663 6.82504 8.15829 5.33337 9.99996 5.33337H24.3333C24.8875 5.33337 25.3333 5.77921 25.3333 6.33337V21.6667C25.3333 22.0834 25.075 22.4417 24.7125 22.5917C24.5625 23.2625 24.5291 24.4917 24.6958 25.3334ZM12 21.3334H24V6.66671H12V21.3334ZM7.99996 22C8.55829 21.5834 9.24996 21.3334 9.99996 21.3334H10.6666V6.66671H9.99996C8.89579 6.66671 7.99996 7.56254 7.99996 8.66671V22ZM23.5125 25.3334C23.3833 24.4834 23.3916 23.45 23.5125 22.6667H9.99996C7.33329 22.6667 7.33329 25.3334 9.99996 25.3334H23.5125Z" fill="#474747"/>
</svg>
