<svg width="32" height="32" viewBox="0 0 32 32" fill="none" xmlns="http://www.w3.org/2000/svg">
<path d="M24.4962 13.3341C24.467 13.3341 24.4383 13.335 24.4103 13.3362C22.3353 13.4546 18.5558 13.8779 16.0003 15.3183C13.4449 13.8779 9.66492 13.4546 7.59034 13.3362C7.56242 13.3346 7.53367 13.3341 7.5045 13.3341C6.6545 13.3337 5.33325 13.9316 5.33325 15.4258V22.8446C5.33325 23.9566 6.21867 24.8737 7.34742 24.9329C8.78117 25.0083 12.3708 25.3112 14.7224 26.4941C14.9174 26.5929 15.1249 26.64 15.3333 26.6541V26.6654H15.4278C15.4316 26.6654 15.4353 26.6666 15.4387 26.6666H16.5612C16.5649 26.6666 16.5687 26.6654 16.572 26.6654H16.6666V26.6541C16.8749 26.64 17.0824 26.5925 17.2774 26.4941C19.6291 25.3112 23.2187 25.0087 24.6524 24.9329C25.7812 24.8737 26.6666 23.9562 26.6666 22.8446V15.4258C26.6666 13.9316 25.3453 13.3341 24.4962 13.3341ZM15.3333 25.3062C15.3295 25.3046 15.3258 25.3054 15.3216 25.3033C12.8387 24.0546 9.30367 23.7012 7.41742 23.6016C6.99659 23.5796 6.66659 23.2471 6.66659 22.8446V15.4258C6.66659 15.1737 6.74034 15.0091 6.91367 14.8758C7.09992 14.7325 7.34992 14.6671 7.51367 14.6671C9.05575 14.755 12.8999 15.1079 15.3333 16.4737V25.3062ZM25.3333 22.8446C25.3333 23.2471 25.0033 23.5796 24.582 23.6016C22.6958 23.7008 19.1608 24.0541 16.6753 25.3046C16.6724 25.3062 16.6695 25.3054 16.6662 25.3066V16.4737C19.0991 15.1075 22.9437 14.755 24.4791 14.6675L24.4953 14.6671C24.5037 14.6671 25.3324 14.6875 25.3324 15.4258V22.8446H25.3333ZM15.9999 13.3329C18.2091 13.3329 19.9999 11.5421 19.9999 9.33331C19.9999 7.12456 18.2091 5.33331 15.9999 5.33331C13.7908 5.33331 11.9999 7.12415 11.9999 9.3329C11.9999 11.5416 13.7908 13.3329 15.9999 13.3329ZM15.9999 6.66665C17.4703 6.66665 18.6666 7.8629 18.6666 9.33331C18.6666 10.8037 17.4703 12 15.9999 12C14.5295 12 13.3333 10.8037 13.3333 9.33331C13.3333 7.8629 14.5295 6.66665 15.9999 6.66665Z" fill="currentColor"/>
</svg>
