<svg width="32" height="32" viewBox="0 0 32 32" fill="none" xmlns="http://www.w3.org/2000/svg">
<path d="M20.0808 15.0883C21.2367 14.2391 21.9975 12.8795 21.9975 11.3333C21.9975 10.0956 21.5058 8.90863 20.6307 8.03346C19.7555 7.15829 18.5685 6.66663 17.3308 6.66663H8.99752C8.90911 6.66663 8.82433 6.70174 8.76182 6.76426C8.6993 6.82677 8.66418 6.91155 8.66418 6.99996V7.66663C8.66418 7.75503 8.6993 7.83982 8.76182 7.90233C8.82433 7.96484 8.90911 7.99996 8.99752 7.99996H9.99752V24H8.99752C8.90911 24 8.82433 24.0351 8.76182 24.0976C8.6993 24.1601 8.66418 24.2449 8.66418 24.3333V25C8.66418 25.0884 8.6993 25.1731 8.76182 25.2357C8.82433 25.2982 8.90911 25.3333 8.99752 25.3333H17.9975C19.2283 25.3344 20.4217 24.9098 21.3751 24.1314C22.3286 23.3531 22.9835 22.2689 23.2288 21.0627C23.474 19.8566 23.2946 18.6028 22.7208 17.5138C22.1471 16.4249 21.2144 15.568 20.0808 15.0883ZM11.3309 7.99996H17.3308C18.2149 7.99996 19.0627 8.35115 19.6879 8.97627C20.313 9.60139 20.6642 10.4492 20.6642 11.3333C20.6642 12.2173 20.313 13.0652 19.6879 13.6903C19.0627 14.3154 18.2149 14.6666 17.3308 14.6666H11.3309V7.99996ZM17.9975 24H11.3309V16H17.9975C19.0584 16 20.0758 16.4214 20.8259 17.1715C21.5761 17.9217 21.9975 18.9391 21.9975 20C21.9975 21.0608 21.5761 22.0782 20.8259 22.8284C20.0758 23.5785 19.0584 24 17.9975 24Z" fill="currentColor"/>
</svg>
