<svg width="32" height="32" viewBox="0 0 32 32" fill="none" xmlns="http://www.w3.org/2000/svg">
<path d="M29.2625 15.3255L27.1168 11.0424C27.0002 10.8091 26.7627 10.6675 26.5086 10.6675C26.4669 10.6675 26.6877 10.6383 24.1629 10.9591L25.2545 7.96762C25.5044 7.276 25.1503 6.50938 24.4587 6.2594L22.138 5.41362C21.4505 5.16363 20.6839 5.51778 20.4298 6.2094L18.6465 11.1133C18.5299 7.90513 15.9051 5.33446 12.6678 5.33446C9.53046 5.33446 6.98895 7.75097 6.7223 10.8174C5.49321 10.6591 5.54321 10.6675 5.49321 10.6675C5.23906 10.6675 5.00158 10.8133 4.88492 11.0424L2.73922 15.3255C2.54756 15.7088 2.75172 16.1671 3.16003 16.2838L5.33489 16.9046V23.0417C5.33489 23.6541 5.75153 24.1874 6.34316 24.3333L15.3509 26.5873C15.9176 26.7289 16.3925 26.6498 16.6425 26.5873L25.6586 24.3333C26.2502 24.1833 26.6669 23.65 26.6669 23.0417V16.9046L28.8376 16.2838C29.25 16.1671 29.45 15.7088 29.2625 15.3255ZM21.6839 6.6677L24.0004 7.50932L22.6755 11.1466L19.9256 11.4966L21.6839 6.6677ZM4.28495 15.2213L5.86819 12.0549L13.801 13.0673L11.297 17.2254L4.28495 15.2213ZM15.3343 25.2082L6.66814 23.0417V17.2879C11.8053 18.7544 11.4595 18.6669 11.597 18.6669C11.8303 18.6669 12.0553 18.5461 12.1803 18.3378L15.3343 13.1048V25.2082ZM16.0009 12.0007C12.0136 11.4924 9.55962 11.1799 8.03888 10.9841C8.21804 8.57592 10.2137 6.6677 12.6678 6.6677C15.2426 6.6677 17.3341 8.75924 17.3341 11.3341C17.3341 11.5049 17.3091 11.6716 17.2883 11.8382L16.0009 12.0007ZM25.3336 23.0417L16.6675 25.2082V13.1048L19.8215 18.3336C19.9465 18.542 20.1715 18.6628 20.4048 18.6628C20.5423 18.6628 20.1881 18.7503 25.3336 17.2837V23.0417ZM20.7048 17.2212L18.2007 13.0631L26.1336 12.0507L27.7168 15.2172L20.7048 17.2212Z" fill="#474747"/>
</svg>
