<svg width="32" height="32" viewBox="0 0 32 32" fill="none" xmlns="http://www.w3.org/2000/svg">
<path d="M4.66663 22.6667C4.29913 22.6667 3.99996 22.3675 3.99996 22V16H10.6666V17.6667C10.6666 18.2188 11.1145 18.6667 11.6666 18.6667H15C15.552 18.6667 16 18.2188 16 17.6667V16H17.6762C18.0954 15.4921 18.585 15.0459 19.125 14.6667H3.99996V11.3334C3.99996 10.9659 4.29913 10.6667 4.66663 10.6667H22C22.3675 10.6667 22.6666 10.9659 22.6666 11.3334V13.3671C22.8866 13.3471 23.1083 13.3334 23.3333 13.3334C23.5583 13.3334 23.78 13.3471 24 13.3671V11.3334C24 10.2288 23.1045 9.33337 22 9.33337H17.3333V6.33337C17.3333 5.78087 16.8858 5.33337 16.3333 5.33337H10.3333C9.78079 5.33337 9.33329 5.78087 9.33329 6.33337V9.33337H4.66663C3.56204 9.33337 2.66663 10.2288 2.66663 11.3334V22C2.66663 23.1046 3.56204 24 4.66663 24H16.807C16.589 23.5739 16.4136 23.1273 16.2833 22.6667H4.66663ZM12 16H14.6666V17.3334H12V16ZM10.6666 6.66671H16V9.33337H10.6666V6.66671ZM25.5954 20H24V17.738C24 17.5155 23.8179 17.3334 23.5954 17.3334H23.0716C22.8491 17.3334 22.667 17.5155 22.667 17.738V20.9284C22.667 21.1509 22.8491 21.333 23.0716 21.333H25.5954C25.8179 21.333 26 21.1509 26 20.9284V20.4046C26 20.1821 25.8179 20 25.5954 20ZM23.3333 14.6667C20.017 14.6667 17.3333 17.3505 17.3333 20.6667C17.3333 23.983 20.017 26.6667 23.3333 26.6667C26.6495 26.6667 29.3333 23.983 29.3333 20.6667C29.3333 17.3505 26.6495 14.6667 23.3333 14.6667ZM23.3333 25.3334C20.76 25.3334 18.6666 23.24 18.6666 20.6667C18.6666 18.0934 20.76 16 23.3333 16C25.9066 16 28 18.0934 28 20.6667C28 23.24 25.9066 25.3334 23.3333 25.3334Z" fill="currentColor"/>
</svg>
