<svg width="32" height="32" viewBox="0 0 32 32" fill="none" xmlns="http://www.w3.org/2000/svg">
<path d="M14.6666 9.79171V11.4584C14.6666 11.7345 14.4428 11.9584 14.1666 11.9584H12.5C12.2238 11.9584 12 11.7345 12 11.4584V9.79171C12 9.51558 12.2238 9.29171 12.5 9.29171H14.1666C14.4428 9.29171 14.6666 9.51558 14.6666 9.79171ZM19.5 9.29171H17.8333C17.5572 9.29171 17.3333 9.51558 17.3333 9.79171V11.4584C17.3333 11.7345 17.5572 11.9584 17.8333 11.9584H19.5C19.7761 11.9584 20 11.7345 20 11.4584V9.79171C20 9.51558 19.7761 9.29171 19.5 9.29171ZM14.1666 13.2917H12.5C12.2238 13.2917 12 13.5156 12 13.7917V15.4584C12 15.7345 12.2238 15.9584 12.5 15.9584H14.1666C14.4428 15.9584 14.6666 15.7345 14.6666 15.4584V13.7917C14.6666 13.5156 14.4428 13.2917 14.1666 13.2917ZM19.5 13.2917H17.8333C17.5572 13.2917 17.3333 13.5156 17.3333 13.7917V15.4584C17.3333 15.7345 17.5572 15.9584 17.8333 15.9584H19.5C19.7761 15.9584 20 15.7345 20 15.4584V13.7917C20 13.5156 19.7761 13.2917 19.5 13.2917ZM14.1666 17.2917H12.5C12.2238 17.2917 12 17.5156 12 17.7917V19.4584C12 19.7345 12.2238 19.9584 12.5 19.9584H14.1666C14.4428 19.9584 14.6666 19.7345 14.6666 19.4584V17.7917C14.6666 17.5156 14.4428 17.2917 14.1666 17.2917ZM19.5 17.2917H17.8333C17.5572 17.2917 17.3333 17.5156 17.3333 17.7917V19.4584C17.3333 19.7345 17.5572 19.9584 17.8333 19.9584H19.5C19.7761 19.9584 20 19.7345 20 19.4584V17.7917C20 17.5156 19.7761 17.2917 19.5 17.2917ZM25.3333 25.8334V26.6667H6.66663V25.8334C6.66663 25.5572 6.8905 25.3334 7.16663 25.3334H7.99996V6.33337C7.99996 5.78108 8.44767 5.33337 8.99996 5.33337H23C23.5522 5.33337 24 5.78108 24 6.33337V25.3334H24.8333C25.1094 25.3334 25.3333 25.5572 25.3333 25.8334ZM22.6666 25.3334V6.66671H9.33329V25.3334H14.6666V21.7917C14.6666 21.5156 14.8905 21.2917 15.1666 21.2917H16.8333C17.1094 21.2917 17.3333 21.5156 17.3333 21.7917V25.3334H22.6666Z" fill="#474747"/>
</svg>
