<svg width="32" height="32" viewBox="0 0 32 32" fill="none" xmlns="http://www.w3.org/2000/svg">
<path d="M26.6671 12.3701V5.99998C26.6671 5.63581 26.3762 4.66663 25.3341 4.66663H25.3337C25.037 4.66663 24.7424 4.76579 24.5012 4.95913L20.9582 7.79376C19.1786 9.21629 16.9444 10.0001 14.6669 10.0001H6.66671C5.19377 10.0001 4 11.1938 4 12.6668V16.6668C4 18.1398 5.19377 19.3335 6.66671 19.3335L6.64671 20.6669C6.64671 22.324 7.03255 23.8899 7.71173 25.2895C7.92798 25.7349 8.40008 26.0003 8.89509 26.0003H13.3235C14.4089 26.0003 15.0606 24.757 14.4027 23.8936C13.7193 22.9969 13.3131 21.8786 13.3131 20.6669C13.3131 20.204 13.3806 19.759 13.4968 19.3335H14.6669C16.9444 19.3335 19.1786 20.1173 20.9578 21.5398L24.5008 24.3745C24.7371 24.5636 25.0306 24.6667 25.3333 24.667C26.3716 24.667 26.6666 23.7178 26.6666 23.3336V16.9635C27.4604 16.5014 28 15.6514 28 14.6668C28.0004 13.6822 27.4608 12.8322 26.6671 12.3701ZM13.3235 24.667L8.91134 24.6657C8.29341 23.3924 7.98007 22.0744 7.97965 20.6869L7.99965 19.3535L8.00007 19.3335H12.1389C12.0426 19.7794 11.9801 20.2265 11.9801 20.6669C11.9801 22.1373 12.451 23.5328 13.3235 24.667ZM6.66671 18.0002C5.9317 18.0002 5.33336 17.4018 5.33336 16.6668V12.6668C5.33336 11.9318 5.9317 11.3334 6.66671 11.3334H14.6669V18.0002H6.66671ZM25.3358 23.289C25.3341 23.2994 25.3304 23.3132 25.3254 23.3265L21.7907 20.4986C20.1249 19.1669 18.1061 18.3394 16.0002 18.0889V11.2447C18.1061 10.9942 20.1249 10.1667 21.7911 8.83462L25.3275 6.0054C25.3287 6.00665 25.33 6.00748 25.3308 6.00748C25.3325 6.00748 25.3333 6.0054 25.3337 6.0004L25.3358 23.289Z" fill="currentColor"/>
</svg>
