<svg width="32" height="32" viewBox="0 0 32 32" fill="none" xmlns="http://www.w3.org/2000/svg">
<path d="M6.68284 14.6667C5.947 14.6667 5.33325 15.2638 5.33325 16C5.33325 16.7362 5.947 17.3333 6.68284 17.3333C7.03646 17.3333 7.3756 17.1929 7.62564 16.9428C7.87569 16.6928 8.01617 16.3536 8.01617 16C8.01617 15.6464 7.87569 15.3072 7.62564 15.0572C7.3756 14.8071 7.03646 14.6667 6.68284 14.6667ZM6.68284 8C5.947 8 5.33325 8.59708 5.33325 9.33333C5.33325 10.0696 5.947 10.6667 6.68284 10.6667C7.03646 10.6667 7.3756 10.5262 7.62564 10.2761C7.87569 10.0261 8.01617 9.68696 8.01617 9.33333C8.01617 8.97971 7.87569 8.64057 7.62564 8.39052C7.3756 8.14048 7.03646 8 6.68284 8ZM6.68284 21.3333C5.947 21.3333 5.33325 21.9304 5.33325 22.6667C5.33325 23.4029 5.947 24 6.68284 24C7.03646 24 7.3756 23.8595 7.62564 23.6095C7.87569 23.3594 8.01617 23.0203 8.01617 22.6667C8.01617 22.313 7.87569 21.9739 7.62564 21.7239C7.3756 21.4738 7.03646 21.3333 6.68284 21.3333ZM26.3333 8.66667H10.9999C10.9115 8.66667 10.8267 8.70179 10.7642 8.7643C10.7017 8.82681 10.6666 8.91159 10.6666 9V9.66667C10.6666 9.75507 10.7017 9.83986 10.7642 9.90237C10.8267 9.96488 10.9115 10 10.9999 10H26.3333C26.4217 10 26.5064 9.96488 26.569 9.90237C26.6315 9.83986 26.6666 9.75507 26.6666 9.66667V9C26.6666 8.91159 26.6315 8.82681 26.569 8.7643C26.5064 8.70179 26.4217 8.66667 26.3333 8.66667ZM26.3333 15.3333H10.9999C10.9115 15.3333 10.8267 15.3685 10.7642 15.431C10.7017 15.4935 10.6666 15.5783 10.6666 15.6667V16.3333C10.6666 16.4217 10.7017 16.5065 10.7642 16.569C10.8267 16.6315 10.9115 16.6667 10.9999 16.6667H26.3333C26.4217 16.6667 26.5064 16.6315 26.569 16.569C26.6315 16.5065 26.6666 16.4217 26.6666 16.3333V15.6667C26.6666 15.5783 26.6315 15.4935 26.569 15.431C26.5064 15.3685 26.4217 15.3333 26.3333 15.3333ZM26.3333 22H10.9999C10.9115 22 10.8267 22.0351 10.7642 22.0976C10.7017 22.1601 10.6666 22.2449 10.6666 22.3333V23C10.6666 23.0884 10.7017 23.1732 10.7642 23.2357C10.8267 23.2982 10.9115 23.3333 10.9999 23.3333H26.3333C26.4217 23.3333 26.5064 23.2982 26.569 23.2357C26.6315 23.1732 26.6666 23.0884 26.6666 23V22.3333C26.6666 22.2449 26.6315 22.1601 26.569 22.0976C26.5064 22.0351 26.4217 22 26.3333 22Z" fill="currentColor"/>
</svg>
