<svg width="32" height="32" viewBox="0 0 32 32" fill="none" xmlns="http://www.w3.org/2000/svg">
<path d="M23.3334 8.00004H21.3334V5.83337C21.3334 5.55837 21.1084 5.33337 20.8334 5.33337H20.5001C20.2251 5.33337 20.0001 5.55837 20.0001 5.83337V8.00004H12.0001V5.83337C12.0001 5.55837 11.7751 5.33337 11.5001 5.33337H11.1667C10.8917 5.33337 10.6667 5.55837 10.6667 5.83337V8.00004H8.66675C7.56258 8.00004 6.66675 8.89587 6.66675 10V24.6667C6.66675 25.7709 7.56258 26.6667 8.66675 26.6667H23.3334C24.4376 26.6667 25.3334 25.7709 25.3334 24.6667V10C25.3334 8.89587 24.4376 8.00004 23.3334 8.00004ZM8.66675 9.33337H23.3334C23.7001 9.33337 24.0001 9.63337 24.0001 10V12H8.00008V10C8.00008 9.63337 8.30008 9.33337 8.66675 9.33337ZM23.3334 25.3334H8.66675C8.30008 25.3334 8.00008 25.0334 8.00008 24.6667V13.3334H24.0001V24.6667C24.0001 25.0334 23.7001 25.3334 23.3334 25.3334ZM12.8334 18.6667H11.1667C10.8917 18.6667 10.6667 18.4417 10.6667 18.1667V16.5C10.6667 16.225 10.8917 16 11.1667 16H12.8334C13.1084 16 13.3334 16.225 13.3334 16.5V18.1667C13.3334 18.4417 13.1084 18.6667 12.8334 18.6667ZM16.8334 18.6667H15.1667C14.8917 18.6667 14.6667 18.4417 14.6667 18.1667V16.5C14.6667 16.225 14.8917 16 15.1667 16H16.8334C17.1084 16 17.3334 16.225 17.3334 16.5V18.1667C17.3334 18.4417 17.1084 18.6667 16.8334 18.6667ZM20.8334 18.6667H19.1667C18.8917 18.6667 18.6667 18.4417 18.6667 18.1667V16.5C18.6667 16.225 18.8917 16 19.1667 16H20.8334C21.1084 16 21.3334 16.225 21.3334 16.5V18.1667C21.3334 18.4417 21.1084 18.6667 20.8334 18.6667ZM16.8334 22.6667H15.1667C14.8917 22.6667 14.6667 22.4417 14.6667 22.1667V20.5C14.6667 20.225 14.8917 20 15.1667 20H16.8334C17.1084 20 17.3334 20.225 17.3334 20.5V22.1667C17.3334 22.4417 17.1084 22.6667 16.8334 22.6667ZM12.8334 22.6667H11.1667C10.8917 22.6667 10.6667 22.4417 10.6667 22.1667V20.5C10.6667 20.225 10.8917 20 11.1667 20H12.8334C13.1084 20 13.3334 20.225 13.3334 20.5V22.1667C13.3334 22.4417 13.1084 22.6667 12.8334 22.6667ZM20.8334 22.6667H19.1667C18.8917 22.6667 18.6667 22.4417 18.6667 22.1667V20.5C18.6667 20.225 18.8917 20 19.1667 20H20.8334C21.1084 20 21.3334 20.225 21.3334 20.5V22.1667C21.3334 22.4417 21.1084 22.6667 20.8334 22.6667Z" fill="currentColor"/>
</svg>
