<svg width="32" height="32" viewBox="0 0 32 32" fill="none" xmlns="http://www.w3.org/2000/svg">
<path d="M18.8458 7.99996C18.9833 7.99996 19.1083 8.08746 19.1583 8.21663L20.0791 10.6666H24.6666C25.0333 10.6666 25.3333 10.9666 25.3333 11.3333V23.3333C25.3333 23.7 25.0333 24 24.6666 24H7.33325C6.96659 24 6.66659 23.7 6.66659 23.3333V11.3333C6.66659 10.9666 6.96659 10.6666 7.33325 10.6666H11.9249L12.7624 8.43329C12.8583 8.17496 13.1083 7.99996 13.3874 7.99996H18.8458ZM18.8458 6.66663H13.3874C12.5541 6.66663 11.8083 7.18329 11.5166 7.96246L10.9999 9.33329H7.33325C6.22909 9.33329 5.33325 10.2291 5.33325 11.3333V23.3333C5.33325 24.4375 6.22909 25.3333 7.33325 25.3333H24.6666C25.7708 25.3333 26.6666 24.4375 26.6666 23.3333V11.3333C26.6666 10.2291 25.7708 9.33329 24.6666 9.33329H20.9999L20.4041 7.74996C20.1624 7.09579 19.5416 6.66663 18.8458 6.66663ZM15.9999 22.3333C13.2416 22.3333 10.9999 20.0916 10.9999 17.3333C10.9999 14.575 13.2416 12.3333 15.9999 12.3333C18.7583 12.3333 20.9999 14.575 20.9999 17.3333C20.9999 20.0916 18.7583 22.3333 15.9999 22.3333ZM15.9999 13.6666C13.9791 13.6666 12.3333 15.3125 12.3333 17.3333C12.3333 19.3541 13.9791 21 15.9999 21C18.0208 21 19.6666 19.3541 19.6666 17.3333C19.6666 15.3125 18.0208 13.6666 15.9999 13.6666Z" fill="currentColor"/>
</svg>
