<svg width="32" height="32" viewBox="0 0 32 32" fill="none" xmlns="http://www.w3.org/2000/svg">
<path fill-rule="evenodd" clip-rule="evenodd" d="M5.3335 9.34304C5.3335 8.23313 6.23244 7.33337 7.34134 7.33337H24.659C25.7679 7.33337 26.6668 8.23313 26.6668 9.34304V22.657C26.6668 23.767 25.7679 24.6667 24.659 24.6667H7.34134C6.23244 24.6667 5.3335 23.767 5.3335 22.657V9.34304ZM6.67206 9.51051C6.67206 9.14054 6.97171 8.84062 7.34134 8.84062H14.6616C15.0312 8.84062 15.3309 9.14054 15.3309 9.51051V14.8277C15.3309 15.1977 15.0312 15.4976 14.6616 15.4976H7.34134C6.97171 15.4976 6.67206 15.1977 6.67206 14.8277V9.51051ZM17.3387 8.84062C16.9691 8.84062 16.6694 9.14054 16.6694 9.51051V14.8277C16.6694 15.1977 16.9691 15.4976 17.3387 15.4976H24.659C25.0286 15.4976 25.3283 15.1977 25.3283 14.8277V9.51051C25.3283 9.14054 25.0286 8.84062 24.659 8.84062H17.3387ZM6.67206 17.5073C6.67206 17.1373 6.97171 16.8374 7.34134 16.8374H14.6616C15.0312 16.8374 15.3309 17.1373 15.3309 17.5073V22.8245C15.3309 23.1945 15.0312 23.4944 14.6616 23.4944H7.34134C6.97171 23.4944 6.67206 23.1945 6.67206 22.8245V17.5073ZM17.3387 16.8374C16.9691 16.8374 16.6694 17.1373 16.6694 17.5073V22.8245C16.6694 23.1945 16.9691 23.4944 17.3387 23.4944H24.659C25.0286 23.4944 25.3283 23.1945 25.3283 22.8245V17.5073C25.3283 17.1373 25.0286 16.8374 24.659 16.8374H17.3387Z" fill="#474747"/>
</svg>
