<svg width="32" height="32" viewBox="0 0 32 32" fill="none" xmlns="http://www.w3.org/2000/svg">
<path d="M26.3334 22.6667H6.66671V8.33333C6.66671 8.14917 6.51754 8 6.33337 8H5.66671C5.48254 8 5.33337 8.14917 5.33337 8.33333V23.3333C5.33337 23.7017 5.63171 24 6.00004 24H26.3334C26.5175 24 26.6667 23.8508 26.6667 23.6667V23C26.6667 22.8158 26.5175 22.6667 26.3334 22.6667ZM9.43087 16.2929C9.30087 16.4229 9.30087 16.6342 9.43087 16.7642L9.90212 17.2354C10.0321 17.3654 10.2434 17.3654 10.3734 17.2354L13.4021 14.235L16.9309 17.7638C17.1913 18.0242 17.6134 18.0242 17.8738 17.7638L21.7709 13.8667L23.6059 15.7017C23.8121 15.9079 24.0655 16 24.3142 16C24.8342 16 25.3334 15.5958 25.3334 14.9858V10.0079C25.3334 9.63542 25.0313 9.33333 24.6588 9.33333H19.6809C18.7792 9.33333 18.328 10.4233 18.9655 11.0608L20.8284 12.9237L17.4025 16.3496L13.8763 12.8233C13.6167 12.5637 13.1963 12.5629 12.9359 12.8213L9.43087 16.2929ZM20.4567 10.6667H24V14.21L20.4567 10.6667Z" fill="#474747"/>
</svg>
