<svg width="32" height="32" viewBox="0 0 32 32" fill="none" xmlns="http://www.w3.org/2000/svg">
<path d="M26.3334 22.6667H6.66671V8.33333C6.66671 8.14917 6.51754 8 6.33337 8H5.66671C5.48254 8 5.33337 8.14917 5.33337 8.33333V23.3333C5.33337 23.7017 5.63171 24 6.00004 24H26.3334C26.5175 24 26.6667 23.8508 26.6667 23.6667V23C26.6667 22.8158 26.5175 22.6667 26.3334 22.6667ZM12.9355 15.1788C13.1963 15.4371 13.6167 15.4363 13.8759 15.1767L17.4021 11.6504L20.828 15.0763L18.965 16.9392C18.3275 17.5767 18.7792 18.6667 19.6805 18.6667H24.6584C25.0309 18.6667 25.333 18.3646 25.333 17.9921V13.0142C25.333 12.4042 24.8338 12 24.3138 12C24.065 12 23.8117 12.0921 23.6055 12.2983L21.7709 14.1333L17.8738 10.2362C17.6134 9.97583 17.1913 9.97583 16.9309 10.2362L13.4021 13.765L10.3734 10.7646C10.2434 10.6346 10.0321 10.6346 9.90212 10.7646L9.43087 11.2358C9.30087 11.3658 9.30087 11.5771 9.43087 11.7071L12.9355 15.1788ZM24 13.79V17.3333H20.4567L24 13.79Z" fill="#474747"/>
</svg>
