<svg width="32" height="32" viewBox="0 0 32 32" fill="none" xmlns="http://www.w3.org/2000/svg">
<path d="M23 20H23.6667C23.85 20 24 19.85 24 19.6667V9.66667C24 9.48333 23.85 9.33333 23.6667 9.33333H23C22.8167 9.33333 22.6667 9.48333 22.6667 9.66667V19.6667C22.6667 19.85 22.8167 20 23 20ZM19 20H19.6667C19.85 20 20 19.85 20 19.6667V13.6667C20 13.4833 19.85 13.3333 19.6667 13.3333H19C18.8167 13.3333 18.6667 13.4833 18.6667 13.6667V19.6667C18.6667 19.85 18.8167 20 19 20ZM11 20H11.6667C11.85 20 12 19.85 12 19.6667V16.3333C12 16.15 11.85 16 11.6667 16H11C10.8167 16 10.6667 16.15 10.6667 16.3333V19.6667C10.6667 19.85 10.8167 20 11 20ZM15 20H15.6667C15.85 20 16 19.85 16 19.6667V11C16 10.8167 15.85 10.6667 15.6667 10.6667H15C14.8167 10.6667 14.6667 10.8167 14.6667 11V19.6667C14.6667 19.85 14.8167 20 15 20ZM26.3334 22.6667H6.66671V8.33333C6.66671 8.14917 6.51754 8 6.33337 8H5.66671C5.48254 8 5.33337 8.14917 5.33337 8.33333V23.3333C5.33337 23.7017 5.63171 24 6.00004 24H26.3334C26.5175 24 26.6667 23.8508 26.6667 23.6667V23C26.6667 22.8158 26.5175 22.6667 26.3334 22.6667Z" fill="#474747"/>
</svg>
