<svg width="32" height="32" viewBox="0 0 32 32" fill="none" xmlns="http://www.w3.org/2000/svg">
<path d="M15.9999 5.33337C10.1089 5.33337 5.33325 10.109 5.33325 16C5.33325 21.8911 10.1089 26.6667 15.9999 26.6667C21.891 26.6667 26.6666 21.8911 26.6666 16C26.6666 10.109 21.891 5.33337 15.9999 5.33337ZM15.9999 25.2904C10.8961 25.2904 6.7096 21.159 6.7096 16C6.7096 10.8963 10.841 6.70972 15.9999 6.70972C21.1037 6.70972 25.2902 10.8411 25.2902 16C25.2902 21.1038 21.1588 25.2904 15.9999 25.2904ZM22.0915 13.4641L14.329 21.1644C14.1266 21.3651 13.7998 21.3638 13.5991 21.1615L9.90538 17.4379C9.70465 17.2356 9.70594 16.9088 9.90831 16.708L10.2748 16.3446C10.4771 16.1438 10.8039 16.1451 11.0046 16.3475L13.9714 19.3381L21.0011 12.3648C21.2034 12.1641 21.5302 12.1654 21.731 12.3677L22.0945 12.7342C22.2952 12.9366 22.2939 13.2634 22.0915 13.4641Z" fill="#474747"/>
</svg>
