<svg width="32" height="32" viewBox="0 0 32 32" fill="none" xmlns="http://www.w3.org/2000/svg">
<path d="M16.7956 17.7918L19.6952 20.6913C19.7683 20.7644 19.7683 20.8833 19.6952 20.9564L19.1647 21.4868C19.0916 21.5599 18.9728 21.5599 18.8997 21.4868L16.0001 18.5872L13.1003 21.4868C13.0272 21.5599 12.9084 21.5599 12.8353 21.4868L12.3048 20.9564C12.2317 20.8833 12.2317 20.7644 12.3048 20.6913L15.2046 17.7918L12.3048 14.892C12.2317 14.8188 12.2317 14.7 12.3048 14.6269L12.8355 14.0965C12.9086 14.0234 13.0274 14.0234 13.1006 14.0965L16.0001 16.9963L18.8997 14.0967C18.9728 14.0236 19.0916 14.0236 19.1647 14.0967L19.6952 14.6271C19.7683 14.7003 19.7683 14.8191 19.6952 14.8922L16.7956 17.7918Z" fill="#474747"/>
<path fill-rule="evenodd" clip-rule="evenodd" d="M18.3083 7.99998H22C23.1042 7.99998 24 8.89581 24 9.99998V24.6666C24 25.7708 23.1042 26.6666 22 26.6666H10C8.89583 26.6666 8 25.7708 8 24.6666V9.99998C8 8.89581 8.89583 7.99998 10 7.99998H13.6917C13.675 7.89165 13.6667 7.77915 13.6667 7.66665C13.6667 6.37915 14.7125 5.33331 16 5.33331C17.2875 5.33331 18.3333 6.37915 18.3333 7.66665C18.3333 7.77915 18.325 7.89165 18.3083 7.99998ZM17 7.66665C17 7.11248 16.5542 6.66665 16 6.66665C15.4458 6.66665 15 7.11248 15 7.66665C15 8.22081 15.4458 8.66665 16 8.66665C16.5542 8.66665 17 8.22081 17 7.66665ZM22 25.3333C22.3667 25.3333 22.6667 25.0333 22.6667 24.6666V9.99998C22.6667 9.63331 22.3667 9.33331 22 9.33331H20V10.1666C20 10.4416 19.775 10.6666 19.5 10.6666H12.5C12.225 10.6666 12 10.4416 12 10.1666V9.33331H10C9.63333 9.33331 9.33333 9.63331 9.33333 9.99998V24.6666C9.33333 25.0333 9.63333 25.3333 10 25.3333H22Z" fill="#474747"/>
</svg>
