<svg width="32" height="32" viewBox="0 0 32 32" fill="none" xmlns="http://www.w3.org/2000/svg">
<path d="M22 7.99998H18.3083C18.325 7.89165 18.3333 7.77915 18.3333 7.66665C18.3333 6.37915 17.2875 5.33331 16 5.33331C14.7125 5.33331 13.6667 6.37915 13.6667 7.66665C13.6667 7.77915 13.675 7.89165 13.6917 7.99998H10C8.89583 7.99998 8 8.89581 8 9.99998V24.6666C8 25.7708 8.89583 26.6666 10 26.6666H22C23.1042 26.6666 24 25.7708 24 24.6666V9.99998C24 8.89581 23.1042 7.99998 22 7.99998ZM16 6.66665C16.5542 6.66665 17 7.11248 17 7.66665C17 8.22081 16.5542 8.66665 16 8.66665C15.4458 8.66665 15 8.22081 15 7.66665C15 7.11248 15.4458 6.66665 16 6.66665ZM22.6667 24.6666C22.6667 25.0333 22.3667 25.3333 22 25.3333H10C9.63333 25.3333 9.33333 25.0333 9.33333 24.6666V9.99998C9.33333 9.63331 9.63333 9.33331 10 9.33331H12V10.1666C12 10.4416 12.225 10.6666 12.5 10.6666H19.5C19.775 10.6666 20 10.4416 20 10.1666V9.33331H22C22.3667 9.33331 22.6667 9.63331 22.6667 9.99998V24.6666ZM20.2125 14.8166C20.0167 14.6208 19.7 14.6208 19.5042 14.8125L14.6 19.6791L12.5 17.5708C12.3042 17.375 11.9875 17.375 11.7917 17.5708L11.4375 17.925C11.2417 18.1208 11.2417 18.4375 11.4375 18.6333L14.2458 21.45C14.4417 21.6458 14.7583 21.6458 14.9542 21.45L20.5708 15.8791C20.7667 15.6833 20.7667 15.3666 20.575 15.1708L20.2125 14.8166Z" fill="currentColor"/>
</svg>
