<svg width="32" height="32" viewBox="0 0 32 32" fill="none" xmlns="http://www.w3.org/2000/svg">
<path d="M15.6876 12.3542C15.4917 12.1584 15.1751 12.1584 14.9792 12.3542L10.8834 16.45C10.6876 16.6459 10.6876 16.9625 10.8834 17.1584L11.1209 17.3959C11.3167 17.5917 11.6334 17.5917 11.8292 17.3959L14.6709 14.5542V20.8334C14.6709 21.1084 14.8959 21.3334 15.1709 21.3334H15.5042C15.7792 21.3334 16.0042 21.1084 16.0042 20.8334V14.5542L18.8459 17.3959C19.0417 17.5917 19.3584 17.5917 19.5542 17.3959L19.7917 17.1584C19.9876 16.9625 19.9876 16.6459 19.7917 16.45L15.6876 12.3542ZM26.4876 15.2834C26.6042 14.8709 26.6667 14.4417 26.6667 14C26.6667 11.4209 24.5792 9.33335 22.0001 9.33335C21.3042 9.33335 20.6292 9.48335 20.0001 9.78335C18.6834 7.90835 16.4876 6.66669 14.0001 6.66669C10.0667 6.66669 6.84591 9.77085 6.67508 13.675C4.30008 14.5084 2.66675 16.7625 2.66675 19.3334C2.66675 22.65 5.35008 25.3334 8.66675 25.3334H24.0001C26.9459 25.3334 29.3334 22.95 29.3334 20C29.3334 18.0417 28.2584 16.2167 26.4876 15.2834ZM24.0001 24H8.66675C6.08758 24 4.00008 21.9125 4.00008 19.3334C4.00008 16.9667 5.75841 15.0125 8.04175 14.7084C8.01258 14.475 8.00008 14.2375 8.00008 14C8.00008 10.6875 10.6876 8.00002 14.0001 8.00002C16.5126 8.00002 18.6626 9.54169 19.5584 11.7334C20.1667 11.0792 21.0334 10.6667 22.0001 10.6667C23.8417 10.6667 25.3334 12.1584 25.3334 14C25.3334 14.7709 25.0709 15.4834 24.6292 16.05C26.5417 16.35 28.0001 18.0042 28.0001 20C28.0001 22.2084 26.2084 24 24.0001 24Z" fill="currentColor"/>
</svg>
