<svg width="32" height="32" viewBox="0 0 32 32" fill="none" xmlns="http://www.w3.org/2000/svg">
<path d="M19.6667 15.3333H15C14.8167 15.3333 14.6667 15.4833 14.6667 15.6666V16.3333C14.6667 16.5166 14.8167 16.6666 15 16.6666H19.6667C19.85 16.6666 20 16.5166 20 16.3333V15.6666C20 15.4833 19.85 15.3333 19.6667 15.3333ZM19.6667 19.3333H15C14.8167 19.3333 14.6667 19.4833 14.6667 19.6666V20.3333C14.6667 20.5166 14.8167 20.6666 15 20.6666H19.6667C19.85 20.6666 20 20.5166 20 20.3333V19.6666C20 19.4833 19.85 19.3333 19.6667 19.3333ZM12.6667 15C12.1125 15 11.6667 15.4458 11.6667 16C11.6667 16.5541 12.1125 17 12.6667 17C13.2208 17 13.6667 16.5541 13.6667 16C13.6667 15.4458 13.2208 15 12.6667 15ZM12.6667 19C12.1125 19 11.6667 19.4458 11.6667 20C11.6667 20.5541 12.1125 21 12.6667 21C13.2208 21 13.6667 20.5541 13.6667 20C13.6667 19.4458 13.2208 19 12.6667 19ZM22 7.99998H18.3083C18.325 7.89165 18.3333 7.77915 18.3333 7.66665C18.3333 6.37915 17.2875 5.33331 16 5.33331C14.7125 5.33331 13.6667 6.37915 13.6667 7.66665C13.6667 7.77915 13.675 7.89165 13.6917 7.99998H10C8.89583 7.99998 8 8.89581 8 9.99998V24.6666C8 25.7708 8.89583 26.6666 10 26.6666H22C23.1042 26.6666 24 25.7708 24 24.6666V9.99998C24 8.89581 23.1042 7.99998 22 7.99998ZM16 6.66665C16.5542 6.66665 17 7.11248 17 7.66665C17 8.22081 16.5542 8.66665 16 8.66665C15.4458 8.66665 15 8.22081 15 7.66665C15 7.11248 15.4458 6.66665 16 6.66665ZM22.6667 24.6666C22.6667 25.0333 22.3667 25.3333 22 25.3333H10C9.63333 25.3333 9.33333 25.0333 9.33333 24.6666V9.99998C9.33333 9.63331 9.63333 9.33331 10 9.33331H12V10.1666C12 10.4416 12.225 10.6666 12.5 10.6666H19.5C19.775 10.6666 20 10.4416 20 10.1666V9.33331H22C22.3667 9.33331 22.6667 9.63331 22.6667 9.99998V24.6666Z" fill="#474747"/>
</svg>
