<svg width="32" height="32" viewBox="0 0 32 32" fill="none" xmlns="http://www.w3.org/2000/svg">
<path d="M26.0807 16.7474C26.4558 16.3723 26.6665 15.8636 26.6665 15.3332C26.6665 14.8028 26.4558 14.2941 26.0807 13.9191L19.4141 7.25237C19.039 6.87732 18.5303 6.66663 17.9999 6.66663C17.4695 6.66663 16.9608 6.87732 16.5857 7.25237L5.91899 17.9191C5.54395 18.2942 5.33325 18.8028 5.33325 19.3333C5.33325 19.8637 5.54395 20.3724 5.91899 20.7474L9.91901 24.7474C10.2941 25.1225 10.8028 25.3333 11.3332 25.3333H26.1666C26.2992 25.3333 26.4264 25.2806 26.5201 25.1868C26.6139 25.0931 26.6666 24.9659 26.6666 24.8333V24.4999C26.6666 24.3673 26.6139 24.2402 26.5201 24.1464C26.4264 24.0526 26.2992 23.9999 26.1666 23.9999H18.8282L26.0807 16.7474ZM17.5286 8.19529C17.6536 8.07036 17.8231 8.00018 17.9999 8.00018C18.1766 8.00018 18.3461 8.07036 18.4711 8.19529L25.1378 14.862C25.2628 14.987 25.3329 15.1565 25.3329 15.3332C25.3329 15.51 25.2628 15.6795 25.1378 15.8045L20.2761 20.6666L12.6665 13.057L17.5286 8.19529ZM11.3332 23.9999C11.2456 24.0002 11.1589 23.983 11.078 23.9495C10.9971 23.9159 10.9236 23.8667 10.8619 23.8045L6.86191 19.8045C6.73698 19.6795 6.66681 19.51 6.66681 19.3333C6.66681 19.1565 6.73698 18.987 6.86191 18.862L11.7236 13.9999L19.3332 21.6095L17.1378 23.8045C17.0761 23.8667 17.0027 23.9159 16.9218 23.9495C16.8409 23.983 16.7541 24.0002 16.6665 23.9999H11.3332Z" fill="currentColor"/>
</svg>
