<svg width="32" height="32" viewBox="0 0 32 32" fill="none" xmlns="http://www.w3.org/2000/svg">
<path d="M19.3334 6.66669C17.3084 6.66669 15.475 7.04169 14.1459 7.64169C14.1084 7.65835 12 8.51669 12 10V10.6959C8.50421 10.8417 5.33337 12.1417 5.33337 14V22C5.33337 23.8417 8.61671 25.3334 12.6667 25.3334C16.7167 25.3334 20 23.8417 20 22V21.3167C23.7375 21.1625 26.6667 19.7375 26.6667 18V10C26.6667 8.45835 24.0792 6.66669 19.3334 6.66669ZM18.6667 22C18.6667 22.5792 16.5625 24 12.6667 24C8.77087 24 6.66671 22.5792 6.66671 22V19.9125C7.99171 20.7709 10.1834 21.3334 12.6667 21.3334C15.15 21.3334 17.3417 20.7709 18.6667 19.9125V22ZM18.6667 18C18.6667 18.5792 16.5625 20 12.6667 20C8.77087 20 6.66671 18.5792 6.66671 18V15.9125C7.99171 16.7709 10.1834 17.3334 12.6667 17.3334C15.15 17.3334 17.3417 16.7709 18.6667 15.9125V18ZM12.6667 16C9.29171 16 6.55421 15.1042 6.55421 14C6.55421 12.8959 9.29171 12 12.6667 12C16.0417 12 18.7792 12.8959 18.7792 14C18.7792 15.1042 16.0417 16 12.6667 16ZM25.3334 18C25.3334 18.5459 23.4584 19.8167 20 19.9709V17.3C22.2 17.2084 24.1292 16.6917 25.3334 15.9125V18ZM25.3334 14C25.3334 14.5459 23.4542 15.8084 20 15.9667V14C20 13.7667 19.9292 13.5417 19.8292 13.3209C22.1042 13.25 24.0959 12.7167 25.3334 11.9125V14ZM19.3334 12C19.0292 12 18.75 11.9792 18.4625 11.9625C16.925 11.0584 14.9209 10.7875 13.6459 10.7125C13.3834 10.4917 13.225 10.2542 13.225 10C13.225 8.89585 15.9625 8.00002 19.3375 8.00002C22.7125 8.00002 25.45 8.89585 25.45 10C25.45 11.1042 22.7084 12 19.3334 12Z" fill="#474747"/>
</svg>
