<svg width="32" height="32" viewBox="0 0 32 32" fill="none" xmlns="http://www.w3.org/2000/svg">
<path d="M25.1058 13.5167L25.0017 13.3543C24.8309 13.3668 24.6642 13.3668 24.4934 13.3543L24.3893 13.5209C24.1477 13.9042 23.6769 14.0791 23.2436 13.9417C22.6687 13.7625 22.2854 13.5751 21.8147 13.1876C21.4397 12.8793 21.3481 12.3419 21.5897 11.9211L21.6939 11.742C21.5981 11.6004 21.5147 11.4546 21.4397 11.3004H21.0606C20.5774 11.3004 20.1691 10.9588 20.0775 10.4839C19.9691 9.91313 19.965 9.4757 20.0816 8.87996C20.1691 8.4092 20.5857 8.06759 21.0648 8.06759H21.4397C21.5147 7.91345 21.5981 7.76764 21.6939 7.62599L21.5856 7.43852C21.3439 7.02192 21.4356 6.49284 21.8022 6.17622C22.2438 5.79712 22.6229 5.58048 23.1978 5.38468C23.6477 5.23054 24.1435 5.41384 24.3851 5.82628L24.4934 6.00958C24.6642 5.99708 24.8309 5.99708 25.0017 6.00958L25.11 5.82628C25.3516 5.41384 25.8474 5.23054 26.3015 5.38885C26.8556 5.57632 27.2305 5.78878 27.6971 6.18455C28.0637 6.497 28.1512 7.02609 27.9096 7.44269L27.8012 7.62599C27.8971 7.76764 27.9804 7.91345 28.0554 8.06759H28.2678C28.7511 8.06759 29.1594 8.4092 29.251 8.88413C29.3593 9.45487 29.3635 9.8923 29.2468 10.488C29.1594 10.9588 28.7428 11.3004 28.2637 11.3004H28.0554C27.9804 11.4546 27.8971 11.6004 27.8012 11.742L27.9054 11.9211C28.1512 12.3461 28.0512 12.8835 27.6763 13.1918C27.2305 13.5584 26.8472 13.75 26.2598 13.9375C25.8224 14.075 25.3475 13.9042 25.1058 13.5167ZM25.6141 12.0795L26.0557 12.8418C26.3348 12.7252 26.5931 12.5752 26.8347 12.3919L26.3931 11.6295L26.6598 11.3171C26.8597 11.0796 27.018 10.813 27.118 10.5214L27.2555 10.1339H28.1345C28.172 9.83814 28.172 9.53403 28.1345 9.23824H27.2555L27.118 8.8508C27.0139 8.55918 26.8597 8.29256 26.6598 8.05509L26.3931 7.74264L26.8306 6.9761C26.5931 6.79279 26.3306 6.64282 26.0515 6.52617L25.6099 7.28855L25.2058 7.21356C24.9017 7.15523 24.5893 7.15523 24.2851 7.21356L23.881 7.28855L23.4394 6.52617C23.1645 6.63865 22.902 6.79279 22.6646 6.9761L23.1061 7.73848L22.8395 8.05093C22.6396 8.28839 22.4812 8.55501 22.3813 8.84663L22.2438 9.23407H21.3648C21.3273 9.52986 21.3273 9.83398 21.3648 10.1298H22.2438L22.3813 10.5172C22.4854 10.8088 22.6396 11.0754 22.8395 11.3129L23.1061 11.6254L22.6646 12.3919C22.902 12.5752 23.1645 12.7252 23.4436 12.8418L23.8852 12.0795L24.2893 12.1544C24.5934 12.2128 24.9059 12.2128 25.21 12.1544L25.6141 12.0795ZM8.72092 24.265V22.9486C8.1835 22.7194 7.67525 22.4237 7.20449 22.0695L6.05884 22.7319C5.65057 22.9652 5.13815 22.8861 4.82154 22.5403C3.81336 21.4446 3.21762 20.4781 2.71353 18.8701C2.57189 18.4243 2.75936 17.941 3.16346 17.7036L4.30078 17.0412C4.22996 16.4579 4.22996 15.8705 4.30078 15.2873L3.16346 14.6291C2.75936 14.3958 2.57189 13.9083 2.71353 13.4626C3.21762 11.8628 3.80503 10.8963 4.82154 9.79232C5.13815 9.44654 5.65474 9.36739 6.05884 9.60068L7.20033 10.2631C7.67109 9.90897 8.17934 9.61735 8.71675 9.38405V8.06759C8.71675 7.59683 9.0417 7.19273 9.49996 7.09274C10.9456 6.7678 12.0829 6.7303 13.7368 7.09274C14.1951 7.19273 14.5242 7.601 14.5242 8.06759V9.38405C15.0616 9.61318 15.5698 9.90897 16.0406 10.2589L17.1821 9.60068C17.5904 9.36739 18.1069 9.44654 18.4236 9.79232C19.5442 11.0255 20.1524 12.1211 20.594 13.4792C20.7357 13.9167 20.5607 14.3916 20.1691 14.6332L19.1276 15.2915C19.1984 15.8747 19.1984 16.4621 19.1276 17.0453L20.2983 17.7744C20.6565 17.9994 20.8398 18.4243 20.7482 18.8367C20.4607 20.1407 19.3734 21.528 18.4194 22.5528C18.1028 22.8944 17.5904 22.9694 17.1863 22.7361L16.0406 22.0737C15.5698 22.4278 15.0616 22.7194 14.5242 22.9527V24.2692C14.5242 24.7358 14.1992 25.1441 13.741 25.244C12.1787 25.5898 11.0372 25.5857 9.4958 25.244C9.04587 25.1399 8.72092 24.7316 8.72092 24.265ZM10.054 24.0067C11.0872 24.215 12.1579 24.215 13.191 24.0067V22.0196L13.6368 21.8612C14.3367 21.6155 14.9824 21.2405 15.549 20.7573L15.9073 20.449L17.632 21.4446C18.3319 20.6489 19.0485 19.7241 19.3859 18.7284L17.6612 17.7327L17.7487 17.2703C17.882 16.5371 17.882 15.7914 17.7487 15.0582L17.6612 14.5957L19.3859 13.6C19.0485 12.6044 18.3319 11.6754 17.632 10.8838L15.9073 11.8795L15.549 11.5712C14.9824 11.0838 14.3409 10.713 13.6368 10.4672L13.191 10.3089V8.32588C12.1579 8.11758 11.0872 8.11758 10.054 8.32588V10.3131L9.60828 10.4714C8.90839 10.7172 8.26266 11.0921 7.69608 11.5754L7.3378 11.8837L5.61308 10.888C4.91553 11.6809 4.38175 12.6041 4.04249 13.6042L5.76722 14.5999L5.67973 15.0623C5.54642 15.7955 5.54642 16.5413 5.67973 17.2745L5.76722 17.7369L4.04249 18.7326C4.37994 19.7283 4.91319 20.6573 5.61308 21.4488L7.3378 20.4531L7.69608 20.7614C8.26266 21.2488 8.90422 21.6196 9.60828 21.8654L10.054 22.0237V24.0067ZM11.6538 19.6199C9.74992 19.6199 8.20017 18.0702 8.20017 16.1663C8.20017 14.2624 9.74992 12.7127 11.6538 12.7127C13.5577 12.7127 15.1074 14.2624 15.1074 16.1663C15.1074 18.0702 13.5577 19.6199 11.6538 19.6199ZM11.6538 14.0458C10.4873 14.0458 9.53329 14.9957 9.53329 16.1663C9.53329 17.337 10.4831 18.2868 11.6538 18.2868C12.8203 18.2868 13.7743 17.337 13.7743 16.1663C13.7743 14.9957 12.8244 14.0458 11.6538 14.0458ZM25.1058 26.1981L25.0017 26.0356C24.8309 26.0481 24.6642 26.0481 24.4934 26.0356L24.3893 26.2022C24.1477 26.5855 23.6769 26.7605 23.2436 26.623C22.6687 26.4439 22.2854 26.2564 21.8147 25.8689C21.4397 25.5607 21.3481 25.0232 21.5897 24.6025L21.6939 24.4233C21.5981 24.2817 21.5147 24.1359 21.4397 23.9817H21.0606C20.5774 23.9817 20.1691 23.6401 20.0775 23.1652C19.9691 22.5945 19.965 22.157 20.0816 21.5613C20.1691 21.0905 20.5857 20.7489 21.0648 20.7489H21.4397C21.5147 20.5948 21.5981 20.449 21.6939 20.3073L21.5856 20.1199C21.3439 19.7033 21.4356 19.1742 21.8022 18.8576C22.2438 18.4784 22.6229 18.2618 23.1978 18.066C23.6477 17.9119 24.1435 18.0952 24.3851 18.5076L24.4934 18.6909C24.6642 18.6784 24.8309 18.6784 25.0017 18.6909L25.11 18.5076C25.3516 18.0952 25.8474 17.9119 26.3015 18.0702C26.8556 18.2576 27.2305 18.4701 27.6971 18.8659C28.0637 19.1783 28.1512 19.7074 27.9096 20.124L27.8012 20.3073C27.8971 20.449 27.9804 20.5948 28.0554 20.7489H28.2678C28.7511 20.7489 29.1594 21.0905 29.251 21.5655C29.3593 22.1362 29.3635 22.5736 29.2468 23.1694C29.1594 23.6401 28.7428 23.9817 28.2637 23.9817H28.0554C27.9804 24.1359 27.8971 24.2817 27.8012 24.4233L27.9054 24.6025C28.1512 25.0274 28.0512 25.5648 27.6763 25.8731C27.2305 26.2397 26.8472 26.4314 26.2598 26.6188C25.8224 26.7521 25.3475 26.5813 25.1058 26.1981ZM25.6141 24.7566L26.0557 25.519C26.3348 25.4024 26.5931 25.2524 26.8347 25.0691L26.3931 24.3067L26.6598 23.9942C26.8597 23.7568 27.018 23.4902 27.118 23.1985L27.2555 22.8111H28.1345C28.172 22.5153 28.172 22.2112 28.1345 21.9154H27.2555L27.118 21.528C27.0139 21.2363 26.8597 20.9697 26.6598 20.7323L26.3931 20.4198L26.8347 19.6574C26.5973 19.4741 26.3348 19.3241 26.0557 19.2075L25.6141 19.9699L25.21 19.8949C24.9059 19.8366 24.5934 19.8366 24.2893 19.8949L23.8852 19.9699L23.4436 19.2075C23.1645 19.3241 22.9062 19.4741 22.6646 19.6574L23.1061 20.4198L22.8395 20.7323C22.6396 20.9697 22.4812 21.2363 22.3813 21.528L22.2438 21.9154H21.3648C21.3273 22.2112 21.3273 22.5153 21.3648 22.8111H22.2438L22.3813 23.1985C22.4854 23.4902 22.6396 23.7568 22.8395 23.9942L23.1061 24.3067L22.6646 25.0691C22.902 25.2524 23.1645 25.4024 23.4436 25.519L23.8852 24.7566L24.2893 24.8316C24.5934 24.8899 24.9059 24.8899 25.21 24.8316L25.6141 24.7566ZM25.9974 22.332C25.9974 21.5946 25.4016 20.9989 24.6642 20.9989C23.9269 20.9989 23.3311 21.5946 23.3311 22.332C23.3311 23.0694 23.9269 23.6651 24.6642 23.6651C25.4016 23.6651 25.9974 23.0694 25.9974 22.332ZM25.9974 9.65484C25.9974 8.91746 25.4016 8.32172 24.6642 8.32172C23.9269 8.32172 23.3311 8.91746 23.3311 9.65484C23.3311 10.3922 23.9269 10.988 24.6642 10.988C25.4016 10.988 25.9974 10.3881 25.9974 9.65484Z" fill="#474747"/>
</svg>
