<svg width="32" height="32" viewBox="0 0 32 32" fill="none" xmlns="http://www.w3.org/2000/svg">
<path d="M13.521 26.6555L12.4795 26.3597C12.3462 26.3222 12.2712 26.1847 12.3087 26.0514L18.1706 5.51566C18.2081 5.38234 18.3456 5.30735 18.479 5.34485L19.5205 5.64065C19.6538 5.67815 19.7288 5.81564 19.6913 5.94896L13.8294 26.4805C13.7919 26.6138 13.6502 26.693 13.521 26.6555ZM10.3713 21.4351L11.1421 20.5644C11.2212 20.4769 11.2087 20.3435 11.1213 20.2686L6.08003 15.9981L11.1213 11.7276C11.2087 11.6526 11.2212 11.5193 11.1421 11.4318L10.3713 10.5611C10.2963 10.4736 10.163 10.4652 10.0755 10.5444L4.07187 15.8439C3.97604 15.9273 3.97604 16.0731 4.07187 16.1564L10.0755 21.4559C10.163 21.5309 10.2963 21.5226 10.3713 21.4351ZM21.9245 21.4518L27.9281 16.1522C28.024 16.0689 28.024 15.9231 27.9281 15.8398L21.9245 10.5444C21.837 10.4694 21.7078 10.4777 21.6287 10.5611L20.8579 11.4318C20.7788 11.5193 20.7913 11.6526 20.8787 11.7276L25.92 15.9981L20.8787 20.2686C20.7913 20.3435 20.7788 20.4769 20.8579 20.5644L21.6287 21.4351C21.7037 21.5226 21.837 21.5309 21.9245 21.4518Z" fill="#474747"/>
</svg>
