<svg width="32" height="32" viewBox="0 0 32 32" fill="none" xmlns="http://www.w3.org/2000/svg">
<path d="M24.7476 8.08092L22.5859 5.91917C22.2108 5.54409 21.7021 5.33338 21.1717 5.33337H14.0001C12.8955 5.33337 12.0001 6.22879 12.0001 7.33337V9.33337H8.66675C7.56216 9.33337 6.66675 10.2288 6.66675 11.3334V24.6667C6.66675 25.7713 7.56216 26.6667 8.66675 26.6667H18.0001C19.1047 26.6667 20.0001 25.7713 20.0001 24.6667V22.6667H23.3334C24.438 22.6667 25.3334 21.7713 25.3334 20.6667V9.49512C25.3334 8.96469 25.1227 8.45599 24.7476 8.08092ZM21.3334 6.68717C21.4506 6.71609 21.5577 6.77654 21.643 6.86196L23.8048 9.02375C23.8902 9.10908 23.9506 9.21616 23.9796 9.33337H21.3334V6.68717ZM18.6667 24.6667C18.6667 25.0343 18.3677 25.3334 18.0001 25.3334H8.66675C8.29916 25.3334 8.00008 25.0343 8.00008 24.6667V11.3334C8.00008 10.9658 8.29916 10.6667 8.66675 10.6667H12.0001V20.6667C12.0001 21.7713 12.8955 22.6667 14.0001 22.6667H18.6667V24.6667ZM24.0001 20.6667C24.0001 21.0343 23.701 21.3334 23.3334 21.3334H14.0001C13.6325 21.3334 13.3334 21.0343 13.3334 20.6667V7.33337C13.3334 6.96579 13.6325 6.66671 14.0001 6.66671H20.0001V9.66671C20.0001 10.2167 20.4501 10.6667 21.0001 10.6667H24.0001V20.6667Z" fill="#474747"/>
</svg>
