<svg width="32" height="32" viewBox="0 0 32 32" fill="none" xmlns="http://www.w3.org/2000/svg">
<path d="M26.1291 17.8612L24.6721 17.0515C24.7637 16.3532 24.7637 15.6466 24.6721 14.9483L26.1291 14.1385C26.557 13.9007 26.7634 13.4115 26.6227 12.9557C26.1216 11.332 25.2297 9.87058 24.0519 8.672C23.7108 8.3249 23.1665 8.24894 22.7366 8.48782L21.2817 9.29634C20.6997 8.87001 20.0641 8.51623 19.3899 8.24344V6.62563C19.3899 6.14692 19.048 5.73083 18.564 5.62059C16.882 5.23741 15.1182 5.23737 13.4358 5.62059C12.9519 5.73083 12.6099 6.14688 12.6099 6.62563V8.24344C11.9358 8.51622 11.3001 8.87 10.7182 9.29634L9.26322 8.48782C8.83333 8.24894 8.28897 8.3249 7.94792 8.672C6.7701 9.87058 5.8782 11.3321 5.37714 12.9557C5.23644 13.4115 5.44282 13.9007 5.8707 14.1385L7.32778 14.9483C7.23618 15.6466 7.23618 16.3532 7.32778 17.0515L5.8707 17.8612C5.44282 18.099 5.23644 18.5882 5.37714 19.0441C5.8782 20.6676 6.7701 22.1291 7.94792 23.3277C8.28902 23.6748 8.83338 23.7508 9.26322 23.5119L10.7182 22.7034C11.3001 23.1298 11.9357 23.4835 12.6099 23.7563V25.3741C12.6099 25.8528 12.9518 26.2689 13.4358 26.3791C15.1179 26.7623 16.8816 26.7623 18.564 26.3791C19.0479 26.2689 19.3899 25.8528 19.3899 25.3741V23.7563C20.0641 23.4835 20.6997 23.1297 21.2817 22.7034L22.7366 23.5119C23.1665 23.7508 23.7108 23.6749 24.0519 23.3277C25.2297 22.1291 26.1216 20.6676 26.6227 19.0441C26.7634 18.5882 26.557 18.099 26.1291 17.8612ZM23.2034 22.1821L21.1342 21.032C19.9284 22.0243 19.5007 22.274 17.9601 22.798V25.0982C16.6669 25.3549 15.3329 25.3549 14.0398 25.0982V22.798C12.5375 22.2871 12.1026 22.0498 10.8656 21.032L8.79643 22.1821C7.91574 21.232 7.24645 20.1181 6.83359 18.9151L8.90366 17.765C8.61167 16.2417 8.61153 15.7588 8.90366 14.2347L6.83359 13.0846C7.24645 11.8816 7.91579 10.7677 8.79643 9.81712L10.8656 10.9681C12.0889 9.96017 12.5217 9.71798 14.0398 9.20168V6.90154C15.3329 6.64434 16.667 6.64434 17.9601 6.90154V9.20172C19.4783 9.71806 19.9111 9.9603 21.1342 10.9681L23.2034 9.81716C24.084 10.7677 24.7534 11.8816 25.1662 13.0846L23.0962 14.2348C23.3882 15.7585 23.3883 16.241 23.0962 17.765L25.1662 18.9152C24.7534 20.1181 24.0841 21.2321 23.2034 22.1821ZM15.9999 11.8708C13.6347 11.8708 11.7105 13.7231 11.7105 15.9999C11.7105 18.2767 13.6347 20.1289 15.9999 20.1289C18.3652 20.1289 20.2894 18.2767 20.2894 15.9999C20.2894 13.7231 18.3652 11.8708 15.9999 11.8708ZM15.9999 18.7526C14.4231 18.7526 13.1403 17.5177 13.1403 15.9999C13.1403 14.482 14.4231 13.2472 15.9999 13.2472C17.5767 13.2472 18.8596 14.482 18.8596 15.9999C18.8596 17.5177 17.5767 18.7526 15.9999 18.7526Z" fill="currentColor"/>
</svg>
