<svg width="32" height="32" viewBox="0 0 32 32" fill="none" xmlns="http://www.w3.org/2000/svg">
<path d="M24 5.33331H8.00004C6.52921 5.33331 5.33337 6.52915 5.33337 7.99998V20C5.33337 21.4708 6.52921 22.6666 8.00004 22.6666H12V26.1666C12 26.4625 12.2417 26.6666 12.5 26.6666C12.6 26.6666 12.7042 26.6375 12.7959 26.5666L18 22.6666H24C25.4709 22.6666 26.6667 21.4708 26.6667 20V7.99998C26.6667 6.52915 25.4709 5.33331 24 5.33331ZM25.3334 20C25.3334 20.7333 24.7334 21.3333 24 21.3333H17.5542L17.2 21.6L13.3334 24.5V21.3333H8.00004C7.26671 21.3333 6.66671 20.7333 6.66671 20V7.99998C6.66671 7.26665 7.26671 6.66665 8.00004 6.66665H24C24.7334 6.66665 25.3334 7.26665 25.3334 7.99998V20ZM19.3334 9.72498C18.8125 9.20415 17.9667 9.20415 17.45 9.72498L12.1959 14.975C12.1125 15.0583 12.0542 15.1625 12.0209 15.2791L11.3542 17.8291C11.2959 18.0583 11.3584 18.3 11.5292 18.4708C11.6542 18.5958 11.825 18.6666 12 18.6666C12.0542 18.6666 12.1125 18.6583 12.1667 18.6458L14.7167 17.9791C14.8334 17.95 14.9375 17.8875 15.0209 17.8041L20.275 12.55C20.7959 12.0291 20.7959 11.1833 20.275 10.6666L19.3334 9.72498ZM14.2084 16.7333L12.9334 17.0666L13.2667 15.7916L16.3917 12.6666L17.3334 13.6083L14.2084 16.7333ZM18.275 12.6666L17.3334 11.725L18.3917 10.6666L19.3334 11.6083L18.275 12.6666Z" fill="#474747"/>
</svg>
