<svg width="32" height="32" viewBox="0 0 32 32" fill="none" xmlns="http://www.w3.org/2000/svg">
<path d="M27.7391 23.7081C27.7183 23.6915 26.7978 22.7001 26.1604 21.4213C27.3059 20.2925 27.9932 18.8762 27.9932 17.3308C27.9932 13.9985 24.8067 11.2451 20.6537 10.7536C19.3458 8.3543 16.2592 6.6673 12.6644 6.6673C7.87831 6.6673 4.00028 9.64976 4.00028 13.332C4.00028 14.8732 4.68758 16.2895 5.83308 17.4225C5.19576 18.7013 4.27937 19.6926 4.2627 19.7093C4.00028 19.9884 3.9253 20.3966 4.07942 20.7507C4.22938 21.1047 4.57928 21.3338 4.9625 21.3338C7.19101 21.3338 8.99048 20.4924 10.1776 19.7176C10.5567 19.8051 10.9441 19.8718 11.344 19.9176C12.6561 22.3127 15.7385 23.9997 19.3333 23.9997C20.1997 23.9997 21.0328 23.8997 21.8242 23.7165C23.0114 24.4871 24.8067 25.3327 27.0394 25.3327C27.4226 25.3327 27.7683 25.1036 27.9224 24.7495C28.0724 24.3954 28.0016 23.9872 27.7391 23.7081ZM10.4734 18.4138L9.92354 18.2889L9.44868 18.5971C8.61143 19.1428 7.34513 19.7718 5.79559 19.9509C6.16215 19.4802 6.63701 18.8012 7.02439 18.0181L7.4576 17.1517L6.7703 16.4728C6.11216 15.8271 5.33322 14.7566 5.33322 13.332C5.33322 10.3912 8.62392 8.00024 12.6644 8.00024C16.7049 8.00024 19.9956 10.3912 19.9956 13.332C19.9956 16.2728 16.7049 18.6638 12.6644 18.6638C11.9271 18.6638 11.1898 18.5805 10.4734 18.4138ZM22.5448 22.596L22.07 22.2877L21.5201 22.4168C20.8037 22.5835 20.0664 22.6668 19.3291 22.6668C16.6174 22.6668 14.2473 21.5879 12.981 19.9884C17.6171 19.8551 21.3285 16.931 21.3285 13.332C21.3285 12.9363 21.2744 12.5531 21.1911 12.1782C24.3318 12.7822 26.6603 14.8607 26.6603 17.3308C26.6603 18.7554 25.8814 19.8259 25.2232 20.4716L24.5359 21.1505L24.965 22.0128C25.3565 22.8001 25.8314 23.479 26.1938 23.9456C24.6484 23.7706 23.3821 23.1375 22.5448 22.596Z" fill="#474747"/>
</svg>
