<svg width="32" height="32" viewBox="0 0 32 32" fill="none" xmlns="http://www.w3.org/2000/svg">
<path d="M24 5.33331H8.00004C6.52921 5.33331 5.33337 6.52915 5.33337 7.99998V20C5.33337 21.4708 6.52921 22.6666 8.00004 22.6666H12V26.1666C12 26.4625 12.2417 26.6666 12.5 26.6666C12.6 26.6666 12.7042 26.6375 12.7959 26.5666L18 22.6666H24C25.4709 22.6666 26.6667 21.4708 26.6667 20V7.99998C26.6667 6.52915 25.4709 5.33331 24 5.33331ZM25.3334 20C25.3334 20.7333 24.7334 21.3333 24 21.3333H17.5542L17.2 21.6L13.3334 24.5V21.3333H8.00004C7.26671 21.3333 6.66671 20.7333 6.66671 20V7.99998C6.66671 7.26665 7.26671 6.66665 8.00004 6.66665H24C24.7334 6.66665 25.3334 7.26665 25.3334 7.99998V20ZM17 15.3333H11C10.8167 15.3333 10.6667 15.4833 10.6667 15.6666V16.3333C10.6667 16.5166 10.8167 16.6666 11 16.6666H17C17.1834 16.6666 17.3334 16.5166 17.3334 16.3333V15.6666C17.3334 15.4833 17.1834 15.3333 17 15.3333ZM21 11.3333H11C10.8167 11.3333 10.6667 11.4833 10.6667 11.6666V12.3333C10.6667 12.5166 10.8167 12.6666 11 12.6666H21C21.1834 12.6666 21.3334 12.5166 21.3334 12.3333V11.6666C21.3334 11.4833 21.1834 11.3333 21 11.3333Z" fill="currentColor"/>
</svg>
