<svg width="32" height="32" viewBox="0 0 32 32" fill="none" xmlns="http://www.w3.org/2000/svg">
<path d="M7.04873 25.1868L6.81306 24.9512C6.61781 24.7559 6.61781 24.4393 6.81306 24.244L13.7238 17.3333H11.1666C10.8905 17.3333 10.6666 17.1094 10.6666 16.8333V16.4999C10.6666 16.2238 10.8905 15.9999 11.1666 15.9999H15.3333C15.7015 15.9999 15.9999 16.2984 15.9999 16.6666V20.8333C15.9999 21.1094 15.7761 21.3333 15.4999 21.3333H15.1666C14.8905 21.3333 14.6666 21.1094 14.6666 20.8333V18.2761L7.75586 25.1868C7.56056 25.3821 7.24398 25.3821 7.04873 25.1868ZM16.6666 15.9999H20.8333C21.1094 15.9999 21.3333 15.7761 21.3333 15.4999V15.1666C21.3333 14.8905 21.1094 14.6666 20.8333 14.6666H18.2761L25.1868 7.75586C25.3821 7.56061 25.3821 7.24402 25.1868 7.04873L24.9512 6.81306C24.7559 6.61781 24.4393 6.61781 24.244 6.81306L17.3333 13.7238V11.1666C17.3333 10.8905 17.1094 10.6666 16.8333 10.6666H16.4999C16.2238 10.6666 15.9999 10.8905 15.9999 11.1666V15.3333C15.9999 15.7015 16.2984 15.9999 16.6666 15.9999Z" fill="#474747"/>
</svg>
