<svg width="32" height="32" viewBox="0 0 32 32" fill="none" xmlns="http://www.w3.org/2000/svg">
<path d="M26 6.66669H6C4.89583 6.66669 4 7.56252 4 8.66669V23.3334C4 24.4375 4.89583 25.3334 6 25.3334H26C27.1042 25.3334 28 24.4375 28 23.3334V8.66669C28 7.56252 27.1042 6.66669 26 6.66669ZM6 8.00002H26C26.3667 8.00002 26.6667 8.30002 26.6667 8.66669V10.6667H5.33333V8.66669C5.33333 8.30002 5.63333 8.00002 6 8.00002ZM26 24H6C5.63333 24 5.33333 23.7 5.33333 23.3334V14.6667H26.6667V23.3334C26.6667 23.7 26.3667 24 26 24ZM12 20.5V20.8334C12 21.1084 11.775 21.3334 11.5 21.3334H8.5C8.225 21.3334 8 21.1084 8 20.8334V20.5C8 20.225 8.225 20 8.5 20H11.5C11.775 20 12 20.225 12 20.5ZM20 20.5V20.8334C20 21.1084 19.775 21.3334 19.5 21.3334H13.8333C13.5583 21.3334 13.3333 21.1084 13.3333 20.8334V20.5C13.3333 20.225 13.5583 20 13.8333 20H19.5C19.775 20 20 20.225 20 20.5Z" fill="currentColor"/>
</svg>
