<svg width="32" height="32" viewBox="0 0 32 32" fill="none" xmlns="http://www.w3.org/2000/svg">
<path d="M26.2753 15.055L16.9449 5.72456C16.6841 5.46373 16.342 5.33331 15.9999 5.33331C15.6578 5.33331 15.3158 5.46373 15.0549 5.72456L5.7245 15.055C5.20284 15.5771 5.20284 16.4229 5.7245 16.945L15.0549 26.2754C15.3158 26.5362 15.6578 26.6666 15.9999 26.6666C16.342 26.6666 16.6841 26.5362 16.9449 26.2754L26.2753 16.945C26.797 16.4229 26.797 15.5771 26.2753 15.055ZM15.9978 25.3325L6.66742 15.9979L15.9978 6.66706C15.9983 6.66706 15.9987 6.66665 15.9999 6.66665L16.002 6.66748L25.3324 16.0021L15.9978 25.3325ZM19.1203 14.6666H13.9999C12.8953 14.6666 11.9999 15.5621 11.9999 16.6666V18.3333C11.9999 18.5175 12.1491 18.6666 12.3333 18.6666H12.9999C13.1841 18.6666 13.3333 18.5175 13.3333 18.3333V16.6666C13.3333 16.2983 13.6316 16 13.9999 16H19.1203L16.8441 18.1012C16.7087 18.2262 16.7003 18.4371 16.8253 18.5721L17.277 19.0612C17.402 19.1966 17.6128 19.205 17.7478 19.08L21.0145 16.065C21.2174 15.8766 21.3337 15.6091 21.3337 15.3325C21.3337 15.0558 21.2178 14.7883 21.012 14.5983L17.7478 11.5854C17.6124 11.4604 17.4016 11.4691 17.277 11.6041L16.8253 12.0933C16.7003 12.2287 16.7091 12.4396 16.8441 12.5641L19.1203 14.6666Z" fill="#474747"/>
</svg>
