<svg width="32" height="32" viewBox="0 0 32 32" fill="none" xmlns="http://www.w3.org/2000/svg">
<path d="M24.1666 23.3333C24.1666 23.7916 23.7916 24.1666 23.3333 24.1666C22.8749 24.1666 22.4999 23.7916 22.4999 23.3333C22.4999 22.875 22.8749 22.5 23.3333 22.5C23.7916 22.5 24.1666 22.875 24.1666 23.3333ZM20.6666 22.5C20.2083 22.5 19.8333 22.875 19.8333 23.3333C19.8333 23.7916 20.2083 24.1666 20.6666 24.1666C21.1249 24.1666 21.4999 23.7916 21.4999 23.3333C21.4999 22.875 21.1249 22.5 20.6666 22.5ZM26.6666 20.5V24.8333C26.6666 25.8458 25.8458 26.6666 24.8333 26.6666H7.16659C6.15409 26.6666 5.33325 25.8458 5.33325 24.8333V20.5C5.33325 19.4875 6.15409 18.6666 7.16659 18.6666H11.3083L8.95825 16.3166C7.90825 15.2666 8.65409 13.4708 10.1374 13.4708H12.3333V6.99998C12.3333 6.07915 13.0791 5.33331 13.9999 5.33331H17.9999C18.9208 5.33331 19.6666 6.07915 19.6666 6.99998V13.4708H21.8624C23.3458 13.4708 24.0874 15.2666 23.0416 16.3166L20.6916 18.6666H24.8333C25.8458 18.6666 26.6666 19.4875 26.6666 20.5ZM15.7624 21.2375C15.8916 21.3666 16.1041 21.3666 16.2333 21.2375L22.0958 15.375C22.3041 15.1666 22.1583 14.8041 21.8583 14.8041H18.3333V6.99998C18.3333 6.81665 18.1833 6.66665 17.9999 6.66665H13.9999C13.8166 6.66665 13.6666 6.81665 13.6666 6.99998V14.8041H10.1374C9.84159 14.8041 9.69159 15.1625 9.89992 15.375L15.7624 21.2375ZM25.3333 20.5C25.3333 20.225 25.1083 20 24.8333 20H19.3583L17.1791 22.1791C16.5291 22.8291 15.4708 22.8291 14.8208 22.1791L12.6416 20H7.16659C6.89159 20 6.66659 20.225 6.66659 20.5V24.8333C6.66659 25.1083 6.89159 25.3333 7.16659 25.3333H24.8333C25.1083 25.3333 25.3333 25.1083 25.3333 24.8333V20.5Z" fill="#474747"/>
</svg>
