<svg width="32" height="32" viewBox="0 0 32 32" fill="none" xmlns="http://www.w3.org/2000/svg">
<path d="M21.4083 18.4791L22.2417 17.6458C22.4 17.4875 22.6667 17.6 22.6667 17.8208V24.6666C22.6667 25.7708 21.7708 26.6666 20.6667 26.6666H6C4.89583 26.6666 4 25.7708 4 24.6666V9.99998C4 8.89581 4.89583 7.99998 6 7.99998H18.1792C18.4 7.99998 18.5125 8.27081 18.3542 8.42498L17.5208 9.25831C17.475 9.30415 17.4083 9.33331 17.3458 9.33331H6C5.63333 9.33331 5.33333 9.63331 5.33333 9.99998V24.6666C5.33333 25.0333 5.63333 25.3333 6 25.3333H20.6667C21.0333 25.3333 21.3333 25.0333 21.3333 24.6666V18.6541C21.3333 18.5875 21.3583 18.525 21.4083 18.4791ZM27.4875 10.5125L14.4667 23.5333L10.3042 23.9958C9.74583 24.0583 9.275 23.5875 9.3375 23.0291L9.8 18.8666L22.8208 5.84581C23.5042 5.16248 24.6125 5.16248 25.2958 5.84581L27.4875 8.03748C28.1708 8.72081 28.1708 9.82915 27.4875 10.5125ZM23.5875 12.5291L20.8083 9.74998L11.075 19.4791L10.7292 22.6083L13.8583 22.2625L23.5875 12.5291ZM26.5458 8.97915L24.3542 6.78748C24.1958 6.62915 23.9292 6.62081 23.7667 6.78748L21.75 8.80415L24.5292 11.5833L26.5458 9.56665C26.7083 9.40831 26.7083 9.14165 26.5458 8.97915Z" fill="currentColor"/>
</svg>
