<svg width="32" height="32" viewBox="0 0 32 32" fill="none" xmlns="http://www.w3.org/2000/svg">
<path d="M17.3333 16C17.3333 16.7375 16.7375 17.3334 16 17.3334C15.2625 17.3334 14.6666 16.7375 14.6666 16C14.6666 15.2625 15.2625 14.6667 16 14.6667C16.7375 14.6667 17.3333 15.2625 17.3333 16ZM21 14.6667C20.2625 14.6667 19.6666 15.2625 19.6666 16C19.6666 16.7375 20.2625 17.3334 21 17.3334C21.7375 17.3334 22.3333 16.7375 22.3333 16C22.3333 15.2625 21.7375 14.6667 21 14.6667ZM11 14.6667C10.2625 14.6667 9.66663 15.2625 9.66663 16C9.66663 16.7375 10.2625 17.3334 11 17.3334C11.7375 17.3334 12.3333 16.7375 12.3333 16C12.3333 15.2625 11.7375 14.6667 11 14.6667Z" fill="#474747"/>
</svg>
