<svg width="24" height="24" viewBox="0 0 24 24" fill="none" xmlns="http://www.w3.org/2000/svg">
<path d="M12 11C12.5531 11 13 11.4469 13 12C13 12.5531 12.5531 13 12 13C11.4469 13 11 12.5531 11 12C11 11.4469 11.4469 11 12 11ZM11 8.25C11 8.80313 11.4469 9.25 12 9.25C12.5531 9.25 13 8.80313 13 8.25C13 7.69687 12.5531 7.25 12 7.25C11.4469 7.25 11 7.69687 11 8.25ZM11 15.75C11 16.3031 11.4469 16.75 12 16.75C12.5531 16.75 13 16.3031 13 15.75C13 15.1969 12.5531 14.75 12 14.75C11.4469 14.75 11 15.1969 11 15.75Z" fill="currentColor"/>
</svg>
