<svg width="32" height="32" viewBox="0 0 32 32" fill="none" xmlns="http://www.w3.org/2000/svg">
<path d="M16 14.6667C16.7375 14.6667 17.3333 15.2625 17.3333 16C17.3333 16.7375 16.7375 17.3334 16 17.3334C15.2625 17.3334 14.6666 16.7375 14.6666 16C14.6666 15.2625 15.2625 14.6667 16 14.6667ZM14.6666 11C14.6666 11.7375 15.2625 12.3334 16 12.3334C16.7375 12.3334 17.3333 11.7375 17.3333 11C17.3333 10.2625 16.7375 9.66669 16 9.66669C15.2625 9.66669 14.6666 10.2625 14.6666 11ZM14.6666 21C14.6666 21.7375 15.2625 22.3334 16 22.3334C16.7375 22.3334 17.3333 21.7375 17.3333 21C17.3333 20.2625 16.7375 19.6667 16 19.6667C15.2625 19.6667 14.6666 20.2625 14.6666 21Z" fill="#474747"/>
</svg>
