<svg width="32" height="32" viewBox="0 0 32 32" fill="none" xmlns="http://www.w3.org/2000/svg">
<path d="M24.6667 8H7.33337C6.22921 8 5.33337 8.89583 5.33337 10V22C5.33337 23.1042 6.22921 24 7.33337 24H24.6667C25.7709 24 26.6667 23.1042 26.6667 22V10C26.6667 8.89583 25.7709 8 24.6667 8ZM7.33337 9.33333H24.6667C25.0334 9.33333 25.3334 9.63333 25.3334 10V11.725C24.4209 12.4958 23.1167 13.5583 19.0584 16.7792C18.3542 17.3375 16.9667 18.6833 16 18.6667C15.0334 18.6833 13.6417 17.3375 12.9417 16.7792C8.88337 13.5583 7.57921 12.4958 6.66671 11.725V10C6.66671 9.63333 6.96671 9.33333 7.33337 9.33333ZM24.6667 22.6667H7.33337C6.96671 22.6667 6.66671 22.3667 6.66671 22V13.4583C7.61671 14.2375 9.11671 15.4417 12.1125 17.8208C12.9667 18.5042 14.475 20.0083 16 20C17.5167 20.0125 19.0125 18.5208 19.8875 17.8208C22.8834 15.4417 24.3834 14.2375 25.3334 13.4583V22C25.3334 22.3667 25.0334 22.6667 24.6667 22.6667Z" fill="#474747"/>
</svg>
