<svg width="32" height="32" viewBox="0 0 32 32" fill="none" xmlns="http://www.w3.org/2000/svg">
<path d="M20 15.6666V15C20 14.8158 19.8509 14.6666 19.6667 14.6666H12.3334C12.1492 14.6666 12 14.8158 12 15V15.6666C12 15.8508 12.1492 16 12.3334 16H19.6667C19.8509 16 20 15.8508 20 15.6666ZM12.3334 13.3333H19.6667C19.8509 13.3333 20 13.1841 20 13V12.3333C20 12.1491 19.8509 12 19.6667 12H12.3334C12.1492 12 12 12.1491 12 12.3333V13C12 13.1841 12.1492 13.3333 12.3334 13.3333ZM25.9413 12.1883C25.8588 12.1204 25.0167 11.4421 24 10.6246V9.33331C24 8.59706 23.403 7.99998 22.6667 7.99998H20.7305C20.5584 7.86206 20.4092 7.74331 20.3055 7.66081C19.3846 6.92456 17.81 5.33331 16 5.33331C14.1996 5.33331 12.64 6.90498 11.6942 7.66081C11.5888 7.74456 11.44 7.86373 11.2692 7.99998H9.33337C8.59712 7.99998 8.00004 8.59706 8.00004 9.33331V10.6241C6.97837 11.4454 6.13546 12.1246 6.06337 12.1837C5.83519 12.3713 5.65138 12.6071 5.52516 12.8742C5.39894 13.1412 5.33344 13.4329 5.33337 13.7283V24.6666C5.33337 25.7712 6.22879 26.6666 7.33337 26.6666H24.6667C25.7713 26.6666 26.6667 25.7712 26.6667 24.6666V13.7296C26.6667 13.1333 26.4009 12.5679 25.9413 12.1883ZM16 6.66665C16.9071 6.66665 17.86 7.36331 18.6309 7.99998H13.3709C14.143 7.36373 15.0967 6.66665 16 6.66665ZM9.33337 9.33331H22.6667V16.5562C21.3196 17.6396 19.9459 18.7412 19.0588 19.4454C18.3567 20.005 16.9675 21.3487 16 21.3333C15.033 21.3491 13.6434 20.005 12.9413 19.445C12.0542 18.7408 10.6813 17.6396 9.33337 16.5558V9.33331ZM6.66671 13.7283C6.66671 13.5283 6.75546 13.3404 6.91004 13.2133C6.96171 13.1708 7.39421 12.8225 8.00004 12.335V15.4829C7.51962 15.0962 7.06212 14.7275 6.66671 14.4087V13.7283ZM25.3334 24.6666C25.3334 25.0341 25.0342 25.3333 24.6667 25.3333H7.33337C6.96587 25.3333 6.66671 25.0341 6.66671 24.6666V16.1212C8.44796 17.5562 10.8046 19.4512 12.1117 20.4887C12.9655 21.1704 14.4759 22.6775 16 22.6662C17.5188 22.6771 19.0113 21.1887 19.888 20.4887C21.1967 19.45 23.5517 17.5558 25.3334 16.1208V24.6666ZM25.3334 14.4087C24.9325 14.7316 24.4888 15.0896 24 15.4833V12.3358C24.6017 12.82 25.0334 13.1679 25.0917 13.2158C25.2455 13.3429 25.3334 13.53 25.3334 13.7296V14.4087Z" fill="#474747"/>
</svg>
