<svg width="32" height="32" viewBox="0 0 32 32" fill="none" xmlns="http://www.w3.org/2000/svg">
<path d="M17.8048 6.66665C18.0918 6.66665 18.32 6.90777 18.304 7.1944L17.6929 18.1944C17.6782 18.4594 17.459 18.6666 17.1937 18.6666H14.8063C14.541 18.6666 14.3218 18.4594 14.3071 18.1944L13.696 7.1944C13.68 6.90777 13.9082 6.66665 14.1952 6.66665H17.8048ZM16 20C17.4704 20 18.6667 21.1962 18.6667 22.6666C18.6667 24.1371 17.4704 25.3333 16 25.3333C14.5296 25.3333 13.3333 24.1371 13.3333 22.6666C13.3333 21.1962 14.5296 20 16 20ZM17.8048 5.33331H14.1952C13.144 5.33331 12.3064 6.21856 12.3647 7.26835L12.9758 18.2684C13.003 18.757 13.2202 19.1924 13.5531 19.5044C12.6089 20.2367 12 21.382 12 22.6666C12 24.8723 13.7944 26.6666 16 26.6666C18.2056 26.6666 20 24.8723 20 22.6666C20 21.382 19.3911 20.2367 18.4469 19.5044C18.7799 19.1924 18.997 18.757 19.0242 18.2684L19.6353 7.26835C19.6936 6.21877 18.8562 5.33331 17.8048 5.33331Z" fill="#474747"/>
</svg>
