<svg width="32" height="32" viewBox="0 0 32 32" fill="none" xmlns="http://www.w3.org/2000/svg">
<path d="M15.2577 12.0003H16.7369C16.8786 12.0003 16.9911 12.117 16.9869 12.2587L16.6744 20.4257C16.6702 20.559 16.5577 20.6673 16.4244 20.6673H15.5702C15.4369 20.6673 15.3244 20.5632 15.3202 20.4257L15.0077 12.2587C15.0035 12.117 15.116 12.0003 15.2577 12.0003ZM15.9994 21.5007C15.3535 21.5007 14.8327 22.0216 14.8327 22.6674C14.8327 23.3133 15.3535 23.8341 15.9994 23.8341C16.6452 23.8341 17.1661 23.3133 17.1661 22.6674C17.1661 22.0216 16.6452 21.5007 15.9994 21.5007ZM27.729 23.6675L17.7328 6.33342C16.9661 5.00003 15.0368 5.00003 14.266 6.33342L4.26972 23.6675C3.50303 24.9967 4.4614 26.6676 6.00313 26.6676H25.9998C27.5332 26.6676 28.4999 25.0009 27.729 23.6675ZM25.9998 25.3342H5.99896C5.48644 25.3342 5.16559 24.78 5.41977 24.3342L15.4202 7.00011C15.6744 6.55842 16.3202 6.55426 16.5744 7.00011L26.5748 24.3342C26.8332 24.7759 26.5123 25.3342 25.9998 25.3342Z" fill="#474747"/>
</svg>
