<svg width="32" height="32" viewBox="0 0 32 32" fill="none" xmlns="http://www.w3.org/2000/svg">
<path d="M15.8126 18.6667H16.1876C16.4542 18.6667 16.6751 18.4542 16.6876 18.1875L16.9792 11.1875C16.9917 10.9042 16.7626 10.6667 16.4792 10.6667H15.5209C15.2376 10.6667 15.0084 10.9042 15.0209 11.1875L15.3126 18.1875C15.3251 18.4542 15.5459 18.6667 15.8126 18.6667ZM23.3334 6.66669H8.66675C7.56258 6.66669 6.66675 7.56252 6.66675 8.66669V23.3334C6.66675 24.4375 7.56258 25.3334 8.66675 25.3334H23.3334C24.4376 25.3334 25.3334 24.4375 25.3334 23.3334V8.66669C25.3334 7.56252 24.4376 6.66669 23.3334 6.66669ZM24.0001 23.3334C24.0001 23.7 23.7001 24 23.3334 24H8.66675C8.30008 24 8.00008 23.7 8.00008 23.3334V8.66669C8.00008 8.30002 8.30008 8.00002 8.66675 8.00002H23.3334C23.7001 8.00002 24.0001 8.30002 24.0001 8.66669V23.3334ZM16.0001 19.5C15.3542 19.5 14.8334 20.0209 14.8334 20.6667C14.8334 21.3125 15.3542 21.8334 16.0001 21.8334C16.6459 21.8334 17.1667 21.3125 17.1667 20.6667C17.1667 20.0209 16.6459 19.5 16.0001 19.5Z" fill="currentColor"/>
</svg>
