<svg width="32" height="32" viewBox="0 0 32 32" fill="none" xmlns="http://www.w3.org/2000/svg">
<path d="M23.6667 16H23C22.9116 16 22.8269 16.0351 22.7643 16.0976C22.7018 16.1601 22.6667 16.2449 22.6667 16.3333V24.6666C22.6667 24.8435 22.5965 25.013 22.4714 25.1381C22.3464 25.2631 22.1769 25.3333 22 25.3333H7.33337C7.15656 25.3333 6.98699 25.2631 6.86197 25.1381C6.73695 25.013 6.66671 24.8435 6.66671 24.6666V9.99998C6.66671 9.82317 6.73695 9.6536 6.86197 9.52858C6.98699 9.40355 7.15656 9.33331 7.33337 9.33331H15.6667C15.7551 9.33331 15.8399 9.29819 15.9024 9.23568C15.9649 9.17317 16 9.08839 16 8.99998V8.33331C16 8.24491 15.9649 8.16012 15.9024 8.09761C15.8399 8.0351 15.7551 7.99998 15.6667 7.99998H7.33337C6.80294 7.99998 6.29423 8.21069 5.91916 8.58577C5.54409 8.96084 5.33337 9.46955 5.33337 9.99998V24.6666C5.33337 25.1971 5.54409 25.7058 5.91916 26.0809C6.29423 26.4559 6.80294 26.6666 7.33337 26.6666H22C22.5305 26.6666 23.0392 26.4559 23.4143 26.0809C23.7893 25.7058 24 25.1971 24 24.6666V16.3333C24 16.2449 23.9649 16.1601 23.9024 16.0976C23.8399 16.0351 23.7551 16 23.6667 16ZM26.1667 5.33331L20.5 5.34748C20.3674 5.34748 20.2403 5.40016 20.1465 5.49393C20.0527 5.58769 20 5.71487 20 5.84748V6.26415C20 6.39675 20.0527 6.52393 20.1465 6.6177C20.2403 6.71147 20.3674 6.76415 20.5 6.76415L24.25 6.74998L24.2792 6.77956L10.813 20.2441C10.7663 20.2906 10.7294 20.3458 10.7041 20.4066C10.6789 20.4673 10.6659 20.5325 10.6659 20.5983C10.6659 20.6641 10.6789 20.7293 10.7041 20.7901C10.7294 20.8508 10.7663 20.906 10.813 20.9525L11.0488 21.1883C11.0952 21.2349 11.1504 21.2719 11.2112 21.2971C11.272 21.3224 11.3372 21.3354 11.403 21.3354C11.4688 21.3354 11.5339 21.3224 11.5947 21.2971C11.6555 21.2719 11.7107 21.2349 11.7571 21.1883L25.2205 7.72248L25.25 7.75165L25.2359 11.5016C25.2359 11.6343 25.2886 11.7614 25.3823 11.8552C25.4761 11.949 25.6033 12.0016 25.7359 12.0016H26.1525C26.2852 12.0016 26.4123 11.949 26.5061 11.8552C26.5999 11.7614 26.6525 11.6343 26.6525 11.5016L26.6667 5.83331C26.6667 5.7007 26.614 5.57353 26.5203 5.47976C26.4265 5.38599 26.2993 5.33331 26.1667 5.33331Z" fill="#474747"/>
</svg>
