<svg width="32" height="32" viewBox="0 0 32 32" fill="none" xmlns="http://www.w3.org/2000/svg">
<path d="M14.9512 16.8131L15.1868 17.0488C15.3821 17.2441 15.3821 17.5606 15.1868 17.7559L8.94275 24H11.5C11.7761 24 12 24.2239 12 24.5V24.8334C12 25.1095 11.7761 25.3334 11.5 25.3334H7.16663C6.8905 25.3334 6.66663 25.1095 6.66663 24.8334V20.5C6.66663 20.2239 6.8905 20 7.16663 20H7.49996C7.77608 20 7.99996 20.2239 7.99996 20.5V23.0572L14.244 16.8131C14.4393 16.6179 14.7559 16.6179 14.9512 16.8131ZM24.8333 6.66669H20.5C20.2238 6.66669 20 6.89056 20 7.16669V7.50002C20 7.77615 20.2238 8.00002 20.5 8.00002H23.0572L16.8131 14.2441C16.6178 14.4394 16.6178 14.7559 16.8131 14.9512L17.0488 15.1869C17.244 15.3821 17.5606 15.3821 17.7559 15.1869L24 8.94281V11.5C24 11.7761 24.2238 12 24.5 12H24.8333C25.1094 12 25.3333 11.7761 25.3333 11.5V7.16669C25.3333 6.89056 25.1094 6.66669 24.8333 6.66669Z" fill="#474747"/>
</svg>
