<svg width="32" height="32" viewBox="0 0 32 32" fill="none" xmlns="http://www.w3.org/2000/svg">
<path d="M16 6.70966C21.102 6.70966 25.2904 10.8419 25.2904 16C25.2904 21.1308 21.1351 25.2903 16 25.2903C10.8713 25.2903 6.70972 21.1371 6.70972 16C6.70972 10.873 10.8646 6.70966 16 6.70966ZM16 5.33331C10.1094 5.33331 5.33337 10.1111 5.33337 16C5.33337 21.8923 10.1094 26.6666 16 26.6666C21.8907 26.6666 26.6667 21.8923 26.6667 16C26.6667 10.1111 21.8907 5.33331 16 5.33331ZM15.5058 10.4946H16.4942C16.7877 10.4946 17.0221 10.739 17.0099 11.0322L16.7088 18.258C16.6973 18.5345 16.4698 18.7527 16.1931 18.7527H15.8069C15.5302 18.7527 15.3028 18.5345 15.2912 18.258L14.9901 11.0322C14.978 10.739 15.2124 10.4946 15.5058 10.4946ZM16 19.6129C15.3349 19.6129 14.7957 20.1521 14.7957 20.8172C14.7957 21.4823 15.3349 22.0215 16 22.0215C16.6652 22.0215 17.2043 21.4823 17.2043 20.8172C17.2043 20.1521 16.6652 19.6129 16 19.6129Z" fill="currentColor"/>
</svg>
