<svg width="32" height="32" viewBox="0 0 32 32" fill="none" xmlns="http://www.w3.org/2000/svg">
<path d="M29.2084 25.5521L3.62486 5.40607C3.55584 5.35091 3.46773 5.32541 3.37991 5.33517C3.29209 5.34494 3.21174 5.38918 3.15652 5.45816L2.73985 5.97941C2.68464 6.04838 2.65907 6.13646 2.66876 6.22427C2.67845 6.31209 2.7226 6.39247 2.79152 6.44775L28.375 26.5937C28.4092 26.6211 28.4485 26.6415 28.4906 26.6537C28.5326 26.6659 28.5767 26.6697 28.6202 26.6648C28.6638 26.66 28.7059 26.6466 28.7443 26.6255C28.7826 26.6044 28.8165 26.5759 28.8438 26.5416L29.2605 26.0204C29.3156 25.9514 29.3411 25.8633 29.3314 25.7754C29.3216 25.6876 29.2774 25.6073 29.2084 25.5521ZM16 9.33319C17.414 9.33473 18.7696 9.89713 19.7695 10.897C20.7694 11.8969 21.3318 13.2525 21.3333 14.6666C21.3333 15.5674 21.0875 16.4037 20.6917 17.1487L21.7521 17.982C22.3188 17.0037 22.6667 15.8807 22.6667 14.6666C22.6667 13.132 22.1287 11.737 21.2592 10.6111C23.5889 11.7873 25.4837 13.6747 26.6688 15.9999C25.9605 17.3749 25.003 18.6063 23.845 19.6316L24.9 20.4624C26.0863 19.3674 27.103 18.0766 27.8555 16.6078C27.9508 16.4193 28.0004 16.211 28.0004 15.9997C28.0004 15.7884 27.9508 15.5801 27.8555 15.3916C25.5959 10.9828 21.1225 7.99984 16 7.99984C14.1284 7.99885 12.2788 8.40297 10.5782 9.18444L12.4853 10.6844C13.4266 9.85486 14.6483 9.33319 16 9.33319ZM18.5358 15.4511C18.6664 15.0531 18.7001 14.6297 18.634 14.216C18.568 13.8024 18.4041 13.4105 18.1561 13.0729C17.908 12.7353 17.583 12.4619 17.208 12.2752C16.833 12.0886 16.4188 11.9942 16 11.9999C15.9583 11.9999 15.9212 12.0099 15.8812 12.012C16.0429 12.4451 16.0394 12.9226 15.8712 13.3532L18.5358 15.4511ZM9.46824 13.4028C9.38161 13.8186 9.33639 14.2419 9.33324 14.6666C9.32896 15.7835 9.60647 16.8835 10.1401 17.8648C10.6737 18.8461 11.4462 19.6769 12.3861 20.2804C13.326 20.8839 14.4029 21.2407 15.5173 21.3176C16.6316 21.3944 17.7473 21.189 18.7612 20.7204L17.5287 19.7499C17.0412 19.897 16.535 19.9999 16.0004 19.9999C14.5863 19.9984 13.2306 19.436 12.2307 18.4361C11.2307 17.4363 10.6682 16.0806 10.6666 14.6666C10.6666 14.5649 10.6912 14.4699 10.6966 14.3699L9.46824 13.4028ZM16 22.6666C11.5266 22.6666 7.43864 20.112 5.33321 15.9999C6.05946 14.5832 7.0453 13.3865 8.17948 12.3865L7.10197 11.5378C5.9153 12.6328 4.89904 13.9232 4.14653 15.392C4.05122 15.5805 4.00155 15.7888 4.00155 16.0001C4.00155 16.2114 4.05122 16.4197 4.14653 16.6082C6.40447 21.017 10.8778 24 16 24C17.8715 24.0009 19.7211 23.5968 21.4217 22.8154L20.2029 21.857C18.8775 22.3683 17.4645 22.6666 16 22.6666Z" fill="#474747"/>
</svg>
