<svg width="32" height="32" viewBox="0 0 32 32" fill="none" xmlns="http://www.w3.org/2000/svg">
<path d="M16 17.3334C16.7072 17.3334 17.3855 17.0524 17.8856 16.5523C18.3857 16.0522 18.6667 15.3739 18.6667 14.6667C18.6667 13.9594 18.3857 13.2812 17.8856 12.7811C17.3855 12.281 16.7072 12 16 12C15.9583 12 15.9217 12.01 15.8812 12.0121C16.0098 12.366 16.0347 12.7492 15.953 13.1167C15.8714 13.4842 15.6866 13.8209 15.4204 14.0871C15.1542 14.3533 14.8176 14.5381 14.45 14.6197C14.0825 14.7013 13.6993 14.6764 13.3454 14.5479C13.3454 14.5896 13.3333 14.6263 13.3333 14.6667C13.3333 15.0169 13.4023 15.3636 13.5363 15.6872C13.6703 16.0107 13.8668 16.3047 14.1144 16.5523C14.6145 17.0524 15.2928 17.3334 16 17.3334ZM27.855 15.3917C25.5954 10.9829 21.1221 8 16 8C10.8779 8 6.40332 10.985 4.14498 15.3921C4.04966 15.5806 4 15.789 4 16.0002C4 16.2115 4.04966 16.4198 4.14498 16.6083C6.40457 21.0171 10.8779 24 16 24C21.1221 24 25.5967 21.015 27.855 16.6079C27.9503 16.4194 28 16.2111 28 15.9998C28 15.7885 27.9503 15.5802 27.855 15.3917ZM16 9.33334C17.0548 9.33334 18.086 9.64613 18.963 10.2322C19.8401 10.8182 20.5237 11.6512 20.9274 12.6257C21.331 13.6002 21.4367 14.6726 21.2309 15.7072C21.0251 16.7417 20.5171 17.692 19.7712 18.4379C19.0254 19.1838 18.0751 19.6918 17.0405 19.8975C16.0059 20.1033 14.9336 19.9977 13.959 19.594C12.9845 19.1904 12.1515 18.5068 11.5655 17.6297C10.9795 16.7527 10.6667 15.7215 10.6667 14.6667C10.6682 13.2527 11.2306 11.897 12.2305 10.8971C13.2303 9.89728 14.586 9.33488 16 9.33334ZM16 22.6667C11.5267 22.6667 7.43915 20.1121 5.33331 16C6.51766 13.675 8.41168 11.7875 10.7408 10.6113C9.87124 11.7371 9.33332 13.1321 9.33332 14.6667C9.33332 16.4348 10.0357 18.1305 11.2859 19.3807C12.5362 20.631 14.2319 21.3334 16 21.3334C17.7681 21.3334 19.4638 20.631 20.7141 19.3807C21.9643 18.1305 22.6667 16.4348 22.6667 14.6667C22.6667 13.1321 22.1288 11.7371 21.2592 10.6113C23.5883 11.7875 25.4823 13.675 26.6667 16C24.5613 20.1121 20.4733 22.6667 16 22.6667Z" fill="currentColor"/>
</svg>
