<svg width="32" height="32" viewBox="0 0 32 32" fill="none" xmlns="http://www.w3.org/2000/svg">
<path d="M25.4842 6.44247C24.0046 4.95702 21.6158 4.97035 20.1491 6.44247L16.706 9.8984L15.9977 9.18755C15.6073 8.79545 14.9739 8.79545 14.5831 9.18755L12.8755 10.9018C12.4851 11.2939 12.4847 11.9297 12.8755 12.3218L13.583 13.0322L7.44538 19.2757C6.94462 19.7786 6.66355 20.4594 6.66369 21.1691V22.575L5.53866 24.2329C5.20615 24.7621 5.28324 25.4517 5.72367 25.8938L6.10326 26.2747C6.54369 26.7168 7.23079 26.7938 7.75789 26.4605L9.41001 25.3313H10.8109C11.1614 25.3312 11.5085 25.2619 11.8322 25.1273C12.1559 24.9927 12.4499 24.7956 12.6972 24.5471L18.9186 18.3865L19.6253 19.0966C20.0161 19.4887 20.6495 19.4887 21.0399 19.0966L22.7475 17.3823C23.1383 16.9903 23.1379 16.3544 22.7475 15.9623L22.0412 15.2531L25.4842 11.7972C26.7205 10.5567 27.3692 8.33461 25.4842 6.44247ZM11.7538 23.6842C11.5017 23.9371 11.1671 23.9929 10.8109 23.9929H9.02459L7.04662 25.3284L6.66702 24.9476L7.99789 22.9621V21.1691C7.99789 20.8116 8.13665 20.4753 8.38874 20.2224L14.5264 13.9785L17.9752 17.4403L11.7538 23.6842ZM24.5413 10.8509L20.1549 15.2531L21.5687 16.6723L20.3324 17.9132L14.0543 11.6114L15.2906 10.3709L16.706 11.7918L21.0924 7.38916C22.0433 6.43455 23.5904 6.43455 24.5413 7.38916C26.1825 9.03629 24.8292 10.5617 24.5413 10.8509Z" fill="#474747"/>
</svg>
