<svg width="32" height="32" viewBox="0 0 32 32" fill="none" xmlns="http://www.w3.org/2000/svg">
<path d="M17.1287 18.9758L15.2537 18.4133C15.0388 18.3488 14.8883 18.1308 14.8883 17.8829C14.8883 17.58 15.1092 17.3333 15.38 17.3333H16.5513C16.7413 17.3333 16.9246 17.3871 17.0854 17.4883C17.2204 17.5729 17.3921 17.5679 17.5075 17.4579L17.9971 16.9908C18.1442 16.8504 18.1358 16.6071 17.9733 16.485C17.5942 16.2004 17.1367 16.0363 16.6663 16.0121V15C16.6663 14.8158 16.5171 14.6667 16.3329 14.6667H15.6663C15.4821 14.6667 15.3329 14.8158 15.3329 15V16.005C14.3488 16.0313 13.555 16.8613 13.555 17.8829C13.555 18.715 14.0958 19.4583 14.8708 19.6908L16.7458 20.2533C16.9608 20.3179 17.1112 20.5358 17.1112 20.7838C17.1112 21.0867 16.8904 21.3333 16.6196 21.3333H15.4483C15.2583 21.3333 15.075 21.2796 14.9142 21.1783C14.7792 21.0938 14.6075 21.0988 14.4921 21.2088L14.0025 21.6758C13.8554 21.8163 13.8638 22.0596 14.0263 22.1817C14.4054 22.4663 14.8629 22.6304 15.3333 22.6546V23.6667C15.3333 23.8508 15.4825 24 15.6667 24H16.3333C16.5175 24 16.6667 23.8508 16.6667 23.6667V22.6617C17.6508 22.6354 18.4446 21.8058 18.4446 20.7838C18.4446 19.9517 17.9038 19.2083 17.1287 18.9758ZM11 9.33334H15.6667C15.8508 9.33334 16 9.18418 16 9.00001V8.33334C16 8.14918 15.8508 8.00001 15.6667 8.00001H11C10.8158 8.00001 10.6667 8.14918 10.6667 8.33334V9.00001C10.6667 9.18418 10.8158 9.33334 11 9.33334ZM16 11.6667V11C16 10.8158 15.8508 10.6667 15.6667 10.6667H11C10.8158 10.6667 10.6667 10.8158 10.6667 11V11.6667C10.6667 11.8508 10.8158 12 11 12H15.6667C15.8508 12 16 11.8508 16 11.6667ZM23.4125 9.41584L19.9175 5.92084C19.5425 5.54584 19.0342 5.33334 18.5054 5.33334H9.99958C8.89583 5.33751 8 6.23334 8 7.33709V24.6671C8 25.7708 8.89583 26.6667 9.99958 26.6667H22.0004C23.1042 26.6667 24 25.7708 24 24.6671V10.8321C24 10.3033 23.7875 9.79084 23.4125 9.41584ZM18.6679 6.69126C18.7846 6.72043 18.8888 6.77876 18.9762 6.86626L22.4713 10.3613C22.5588 10.4488 22.6171 10.5529 22.6463 10.6696H18.6679V6.69126ZM22.6671 24.6671C22.6671 25.0338 22.3671 25.3338 22.0004 25.3338H9.99958C9.63292 25.3338 9.33292 25.0338 9.33292 24.6671V7.33709C9.33292 6.97043 9.63292 6.66668 9.99958 6.66668H17.3346V11.0029C17.3346 11.5571 17.7804 12 18.3346 12H22.6671V24.6671Z" fill="currentColor"/>
</svg>
