<svg width="32" height="32" viewBox="0 0 32 32" fill="none" xmlns="http://www.w3.org/2000/svg">
<path d="M23.4125 9.41457L19.9167 5.91874C19.5417 5.54374 19.0333 5.33124 18.5042 5.33124H10C8.89583 5.3354 8 6.23124 8 7.3354V24.6687C8 25.7729 8.89583 26.6687 10 26.6687H22C23.1042 26.6687 24 25.7729 24 24.6687V10.8312C24 10.3021 23.7875 9.78957 23.4125 9.41457ZM22.4708 10.3604C22.5583 10.4479 22.6167 10.5521 22.6458 10.6687H18.6667V6.68957C18.7833 6.71874 18.8875 6.77707 18.975 6.86457L22.4708 10.3604ZM22 25.3354H10C9.63333 25.3354 9.33333 25.0354 9.33333 24.6687V7.3354C9.33333 6.96874 9.63333 6.66874 10 6.66874H17.3333V11.0021C17.3333 11.5562 17.7792 12.0021 18.3333 12.0021H22.6667V24.6687C22.6667 25.0354 22.3667 25.3354 22 25.3354ZM17.1333 15.6354L18.3667 16.8687C18.4417 16.9437 18.4417 17.0604 18.3667 17.1354L13.6833 21.8187L12.4292 21.9979C12.1833 22.0312 11.9708 21.8229 12.0042 21.5729L12.1833 20.3187L16.8667 15.6354C16.9417 15.5604 17.0583 15.5604 17.1333 15.6354ZM19.8167 15.6854L19.1333 16.3687C19.0583 16.4437 18.9417 16.4437 18.8667 16.3687L17.6333 15.1354C17.5583 15.0604 17.5583 14.9437 17.6333 14.8687L18.3167 14.1854C18.5625 13.9396 18.9583 13.9396 19.2 14.1854L19.8167 14.8021C20.0625 15.0437 20.0625 15.4396 19.8167 15.6854Z" fill="#474747"/>
</svg>
