<svg width="32" height="32" viewBox="0 0 32 32" fill="none" xmlns="http://www.w3.org/2000/svg">
<path d="M23.4142 9.41419L19.9191 5.9191C19.5441 5.54403 19.0353 5.33332 18.5049 5.33331H10C8.89542 5.33331 8 6.22873 8 7.33331V24.6666C8 25.7712 8.89542 26.6666 10 26.6666H22C23.1046 26.6666 24 25.7712 24 24.6666V10.8284C24 10.298 23.7893 9.78926 23.4142 9.41419ZM22.4714 10.357C22.5568 10.4424 22.6173 10.5494 22.6462 10.6666H18.6667V6.6871C18.7839 6.71603 18.891 6.77647 18.9763 6.8619L22.4714 10.357ZM22 25.3333H10C9.63179 25.3333 9.33333 25.0349 9.33333 24.6666V7.33331C9.33333 6.9651 9.63179 6.66665 10 6.66665H17.3333V11C17.3333 11.5523 17.781 12 18.3333 12H22.6667V24.6666C22.6667 25.0349 22.3682 25.3333 22 25.3333ZM15.272 22.5248L14.1917 22.2112C14.1649 22.2034 14.1399 22.1904 14.1181 22.173C14.0963 22.1555 14.0782 22.134 14.0648 22.1095C14.0513 22.0851 14.0428 22.0582 14.0397 22.0305C14.0367 22.0027 14.0391 21.9747 14.0469 21.9479L16.4647 13.62C16.4724 13.5932 16.4854 13.5682 16.5029 13.5464C16.5203 13.5246 16.5419 13.5065 16.5663 13.493C16.5908 13.4796 16.6177 13.4711 16.6454 13.468C16.6731 13.4649 16.7012 13.4674 16.728 13.4751L17.8083 13.7888C17.8351 13.7966 17.8601 13.8095 17.8819 13.827C17.9037 13.8444 17.9218 13.866 17.9353 13.8904C17.9487 13.9149 17.9572 13.9418 17.9603 13.9695C17.9633 13.9972 17.9609 14.0253 17.9531 14.0521L15.5354 22.38C15.5276 22.4068 15.5146 22.4318 15.4972 22.4536C15.4797 22.4754 15.4582 22.4935 15.4337 22.5069C15.4093 22.5204 15.3824 22.5289 15.3547 22.532C15.3269 22.535 15.2988 22.5326 15.272 22.5248ZM13.2535 20.5384L14.024 19.7166C14.0434 19.6958 14.0585 19.6713 14.0684 19.6446C14.0782 19.6179 14.0825 19.5895 14.0812 19.561C14.0798 19.5326 14.0728 19.5047 14.0604 19.4791C14.0481 19.4534 14.0307 19.4305 14.0093 19.4117L12.4052 18L14.0093 16.5883C14.0307 16.5695 14.048 16.5466 14.0604 16.5209C14.0727 16.4952 14.0798 16.4674 14.0812 16.4389C14.0825 16.4105 14.0782 16.3821 14.0683 16.3554C14.0585 16.3286 14.0434 16.3042 14.0239 16.2834L13.2534 15.4616C13.2343 15.4412 13.2114 15.4248 13.186 15.4133C13.1606 15.4018 13.1331 15.3954 13.1052 15.3945C13.0773 15.3936 13.0496 15.3982 13.0234 15.408C12.9973 15.4179 12.9734 15.4328 12.953 15.4519L10.4004 17.8449C10.3792 17.8648 10.3623 17.8888 10.3508 17.9155C10.3392 17.9422 10.3333 17.9709 10.3333 18C10.3333 18.029 10.3392 18.0578 10.3508 18.0844C10.3623 18.1111 10.3792 18.1351 10.4004 18.155L12.953 20.5481C12.9734 20.5672 12.9973 20.5821 13.0234 20.5919C13.0496 20.6018 13.0774 20.6064 13.1053 20.6055C13.1332 20.6046 13.1606 20.5982 13.186 20.5867C13.2115 20.5752 13.2344 20.5588 13.2535 20.5384ZM19.0469 20.5481L21.5995 18.155C21.6207 18.1351 21.6376 18.1111 21.6491 18.0844C21.6607 18.0578 21.6667 18.029 21.6667 18C21.6667 17.9709 21.6607 17.9422 21.6491 17.9155C21.6376 17.8888 21.6207 17.8648 21.5995 17.8449L19.0469 15.4519C19.0266 15.4328 19.0026 15.4179 18.9765 15.408C18.9504 15.3982 18.9226 15.3936 18.8947 15.3945C18.8668 15.3954 18.8394 15.4018 18.814 15.4133C18.7885 15.4248 18.7656 15.4412 18.7465 15.4616L17.976 16.2834C17.9566 16.3042 17.9415 16.3286 17.9316 16.3554C17.9218 16.3821 17.9175 16.4105 17.9188 16.4389C17.9202 16.4674 17.9272 16.4952 17.9396 16.5209C17.9519 16.5465 17.9693 16.5695 17.9907 16.5883L19.5948 18L17.9907 19.4117C17.9693 19.4305 17.9519 19.4534 17.9396 19.4791C17.9272 19.5047 17.9202 19.5326 17.9188 19.561C17.9174 19.5895 17.9218 19.6179 17.9316 19.6446C17.9415 19.6713 17.9566 19.6958 17.976 19.7166L18.7465 20.5384C18.7656 20.5588 18.7885 20.5752 18.814 20.5867C18.8394 20.5982 18.8668 20.6045 18.8947 20.6054C18.9226 20.6063 18.9504 20.6017 18.9765 20.5919C19.0026 20.582 19.0266 20.5672 19.0469 20.5481Z" fill="#474747"/>
</svg>
