<svg width="32" height="32" viewBox="0 0 32 32" fill="none" xmlns="http://www.w3.org/2000/svg">
<path d="M23.4125 9.41457L19.9167 5.91874C19.5423 5.54346 19.0343 5.33215 18.5042 5.33124H10C9.46939 5.333 8.96107 5.54485 8.58626 5.92044C8.21145 6.29603 8.00066 6.80479 8 7.3354V24.6687C8 25.1992 8.21071 25.7079 8.58579 26.083C8.96086 26.458 9.46957 26.6687 10 26.6687H22C22.5304 26.6687 23.0391 26.458 23.4142 26.083C23.7893 25.7079 24 25.1992 24 24.6687V10.8312C23.9991 10.2999 23.7879 9.79056 23.4125 9.41457ZM22.4708 10.3604C22.5564 10.4452 22.6169 10.5518 22.6458 10.6687H18.6667V6.68957C18.7836 6.71847 18.8903 6.77902 18.975 6.86457L22.4708 10.3604ZM22 25.3354H10C9.82319 25.3354 9.65362 25.2652 9.5286 25.1401C9.40357 25.0151 9.33333 24.8456 9.33333 24.6687V7.3354C9.33333 7.15859 9.40357 6.98902 9.5286 6.864C9.65362 6.73898 9.82319 6.66874 10 6.66874H17.3333V11.0021C17.333 11.1335 17.3586 11.2637 17.4088 11.3851C17.4589 11.5066 17.5326 11.617 17.6255 11.7099C17.7184 11.8028 17.8288 11.8765 17.9503 11.9266C18.0717 11.9768 18.2019 12.0024 18.3333 12.0021H22.6667V24.6687C22.6667 24.8456 22.5964 25.0151 22.4714 25.1401C22.3464 25.2652 22.1768 25.3354 22 25.3354ZM18.9462 20.7125L18.7104 20.9483C18.664 20.9949 18.6088 21.0319 18.548 21.0572C18.4872 21.0824 18.4221 21.0954 18.3563 21.0954C18.2904 21.0954 18.2253 21.0824 18.1645 21.0572C18.1037 21.0319 18.0485 20.9949 18.0021 20.9483L16 18.945L13.9967 20.9483C13.9502 20.9949 13.895 21.0319 13.8342 21.0572C13.7735 21.0824 13.7083 21.0954 13.6425 21.0954C13.5767 21.0954 13.5115 21.0824 13.4508 21.0572C13.39 21.0319 13.3348 20.9949 13.2883 20.9483L13.0525 20.7125C13.0059 20.666 12.9689 20.6108 12.9437 20.5501C12.9184 20.4893 12.9054 20.4241 12.9054 20.3583C12.9054 20.2925 12.9184 20.2274 12.9437 20.1666C12.9689 20.1058 13.0059 20.0506 13.0525 20.0042L15.0571 18.0021L13.0538 15.9987C13.0071 15.9523 12.9702 15.8971 12.9449 15.8363C12.9197 15.7755 12.9067 15.7104 12.9067 15.6446C12.9067 15.5788 12.9197 15.5136 12.9449 15.4528C12.9702 15.3921 13.0071 15.3369 13.0538 15.2904L13.2896 15.0546C13.336 15.008 13.3912 14.971 13.452 14.9457C13.5128 14.9205 13.5779 14.9075 13.6438 14.9075C13.7096 14.9075 13.7747 14.9205 13.8355 14.9457C13.8963 14.971 13.9515 15.008 13.9979 15.0546L16 17.0592L18.0033 15.0558C18.0498 15.0092 18.105 14.9722 18.1658 14.947C18.2265 14.9218 18.2917 14.9088 18.3575 14.9088C18.4233 14.9088 18.4885 14.9218 18.5492 14.947C18.61 14.9722 18.6652 15.0092 18.7117 15.0558L18.9475 15.2917C18.9941 15.3381 19.0311 15.3933 19.0563 15.4541C19.0816 15.5149 19.0946 15.58 19.0946 15.6458C19.0946 15.7116 19.0816 15.7768 19.0563 15.8376C19.0311 15.8983 18.9941 15.9535 18.9475 16L16.9429 18.0021L18.9462 20.0054C19.04 20.0992 19.0927 20.2263 19.0927 20.3589C19.0927 20.4915 19.04 20.6187 18.9462 20.7125Z" fill="currentColor"/>
</svg>
