<svg width="32" height="32" viewBox="0 0 32 32" fill="none" xmlns="http://www.w3.org/2000/svg">
<path d="M23.4125 9.41463L19.9167 5.9188C19.5417 5.5438 19.0333 5.3313 18.5042 5.3313H10C8.89583 5.33547 8 6.2313 8 7.33547V24.6688C8 25.773 8.89583 26.6688 10 26.6688H22C23.1042 26.6688 24 25.773 24 24.6688V10.8313C24 10.3021 23.7875 9.78963 23.4125 9.41463ZM22.4708 10.3605C22.5583 10.448 22.6167 10.5521 22.6458 10.6688H18.6667V6.68963C18.7833 6.7188 18.8875 6.77713 18.975 6.86463L22.4708 10.3605ZM22 25.3355H10C9.63333 25.3355 9.33333 25.0355 9.33333 24.6688V7.33547C9.33333 6.9688 9.63333 6.6688 10 6.6688H17.3333V11.0021C17.3333 11.5563 17.7792 12.0021 18.3333 12.0021H22.6667V24.6688C22.6667 25.0355 22.3667 25.3355 22 25.3355ZM21.0833 18.2021C20.5208 17.648 18.7917 17.8188 18.0125 17.923C17.1292 17.3896 16.5458 16.6563 16.1333 15.5646C16.3125 14.8146 16.6333 13.598 16.4 12.8605C16.2167 11.6896 14.7458 11.8313 14.5417 12.5771C14.3333 13.3396 14.5292 14.4271 14.8917 15.8188C14.3958 17.0021 13.6542 18.6063 13.1375 19.5105C12.2708 19.9563 10.8833 20.7313 10.6875 21.6938C10.5417 22.3938 11.6417 23.3355 12.9 21.9605C13.2792 21.548 13.7042 20.9271 14.2042 20.0646C15.3167 19.698 16.5417 19.2396 17.6208 19.0646C18.5333 19.5646 19.6042 19.8938 20.3125 19.8938C21.4667 19.898 21.5167 18.6355 21.0833 18.2021ZM11.5333 21.9105C11.7792 21.248 12.725 20.4771 13.0125 20.2105C12.0917 21.6813 11.5333 21.9396 11.5333 21.9105ZM15.5 12.648C15.8625 12.648 15.825 14.2105 15.5875 14.6313C15.3708 13.9521 15.3792 12.648 15.5 12.648ZM14.3167 19.2855C14.7875 18.4605 15.1917 17.4855 15.5167 16.6313C15.9208 17.3688 16.4375 17.9521 16.9792 18.3605C15.9667 18.5563 15.0875 18.9896 14.3167 19.2855ZM20.7083 19.0396C20.7083 19.0396 20.4667 19.3313 18.8958 18.6605C20.6042 18.5355 20.8833 18.9271 20.7083 19.0396Z" fill="#474747"/>
</svg>
