<svg width="32" height="32" viewBox="0 0 32 32" fill="none" xmlns="http://www.w3.org/2000/svg">
<path d="M14.625 19.3354L12.9792 17.6896C12.7833 17.4937 12.4667 17.4937 12.2708 17.6896L10.6458 19.3146L10.625 24.0021H21.2917V18.0021L18.9792 15.6896C18.7833 15.4937 18.4667 15.4937 18.2708 15.6896L14.625 19.3354ZM18.625 17.2229L19.9583 18.5562V22.6687H11.9625L11.975 19.8687L12.625 19.2187L14.625 21.2187C15.4708 20.3729 17.8625 17.9854 18.625 17.2229ZM13.2917 16.0021C14.7625 16.0021 15.9583 14.8062 15.9583 13.3354C15.9583 11.8646 14.7625 10.6687 13.2917 10.6687C11.8208 10.6687 10.625 11.8646 10.625 13.3354C10.625 14.8062 11.8208 16.0021 13.2917 16.0021ZM13.2917 12.0021C14.025 12.0021 14.625 12.6021 14.625 13.3354C14.625 14.0687 14.025 14.6687 13.2917 14.6687C12.5583 14.6687 11.9583 14.0687 11.9583 13.3354C11.9583 12.6021 12.5583 12.0021 13.2917 12.0021ZM23.4125 9.41457L19.9167 5.91874C19.5417 5.54374 19.0333 5.33124 18.5042 5.33124H10C8.89583 5.3354 8 6.23124 8 7.3354V24.6687C8 25.7729 8.89583 26.6687 10 26.6687H22C23.1042 26.6687 24 25.7729 24 24.6687V10.8312C24 10.3021 23.7875 9.78957 23.4125 9.41457ZM18.6667 6.68957C18.7833 6.71874 18.8875 6.77707 18.975 6.86457L22.4708 10.3604C22.5583 10.4479 22.6167 10.5521 22.6458 10.6687H18.6667V6.68957ZM22.6667 24.6687C22.6667 25.0354 22.3667 25.3354 22 25.3354H10C9.63333 25.3354 9.33333 25.0354 9.33333 24.6687V7.3354C9.33333 6.96874 9.63333 6.66874 10 6.66874H17.3333V11.0021C17.3333 11.5562 17.7792 12.0021 18.3333 12.0021H22.6667V24.6687Z" fill="currentColor"/>
</svg>
