<svg width="32" height="32" viewBox="0 0 32 32" fill="none" xmlns="http://www.w3.org/2000/svg">
<path d="M13.3333 9.3354V10.6687H14.6667V9.3354H13.3333ZM16.0792 16.4021C16.0333 16.1687 15.8292 16.0021 15.5875 16.0021H14.6667V14.6687H13.3333V16.0021L12.525 20.0521C12.2542 21.4062 13.2875 22.6687 14.6667 22.6687C16.0458 22.6687 17.0792 21.4062 16.8083 20.0521L16.0792 16.4021ZM14.6792 21.5896C13.9333 21.5896 13.3292 21.0854 13.3292 20.4646C13.3292 19.8437 13.9333 19.3396 14.6792 19.3396C15.425 19.3396 16.0292 19.8437 16.0292 20.4646C16.0292 21.0854 15.425 21.5896 14.6792 21.5896ZM13.3333 12.0021V13.3354H14.6667V12.0021H13.3333ZM16 8.00207H14.6667V9.3354H16V8.00207ZM23.4125 9.41457L19.9167 5.91874C19.5417 5.54374 19.0333 5.33124 18.5042 5.33124H10C8.89583 5.3354 8 6.23124 8 7.3354V24.6687C8 25.7729 8.89583 26.6687 10 26.6687H22C23.1042 26.6687 24 25.7729 24 24.6687V10.8312C24 10.3021 23.7875 9.78957 23.4125 9.41457ZM18.6667 6.68957C18.7833 6.71874 18.8917 6.77707 18.975 6.86457L22.4708 10.3604C22.5542 10.4437 22.6167 10.5521 22.6458 10.6687H18.6667V6.68957ZM22.6667 24.6687C22.6667 25.0354 22.3667 25.3354 22 25.3354H10C9.63333 25.3354 9.33333 25.0354 9.33333 24.6687V7.3354C9.33333 6.96874 9.63333 6.66874 10 6.66874H13.3208V8.00207H14.6542V6.66874H17.3333V11.0021C17.3333 11.5562 17.7792 12.0021 18.3333 12.0021H22.6667V24.6687ZM16 13.3354H14.6667V14.6687H16V13.3354ZM16 10.6687H14.6667V12.0021H16V10.6687Z" fill="currentColor"/>
</svg>
