<svg width="32" height="32" viewBox="0 0 32 32" fill="none" xmlns="http://www.w3.org/2000/svg">
<path d="M23.4125 9.41581L19.9175 5.92081C19.5425 5.54581 19.0342 5.33331 18.5054 5.33331H9.99958C8.89583 5.33748 8 6.23331 8 7.33706V24.6671C8 25.7708 8.89583 26.6666 9.99958 26.6666H22.0004C23.1042 26.6666 24 25.7708 24 24.6671V10.8321C24 10.3033 23.7875 9.79081 23.4125 9.41581ZM18.6679 6.69123C18.7846 6.7204 18.8888 6.77873 18.9762 6.86623L22.4713 10.3612C22.5588 10.4487 22.6171 10.5529 22.6463 10.6696H18.6679V6.69123ZM22.6671 24.6671C22.6671 25.0337 22.3671 25.3337 22.0004 25.3337H9.99958C9.63292 25.3337 9.33292 25.0337 9.33292 24.6671V7.33706C9.33292 6.9704 9.63292 6.66665 9.99958 6.66665H17.3346V11.0029C17.3346 11.5571 17.7804 12 18.3346 12H22.6671V24.6671ZM16.6667 14.3333C16.6667 14.1491 16.5175 14 16.3333 14H15.6667C15.4825 14 15.3333 14.1491 15.3333 14.3333V18.0008H13.1392C12.6808 18.0008 12.2812 18.2679 12.0975 18.6975C11.91 19.1358 11.9983 19.64 12.3242 19.9812L15.1625 22.9721C15.385 23.205 15.6821 23.3341 15.9996 23.3341C16.3171 23.3341 16.6142 23.2054 16.8367 22.9716L19.675 19.9821C20.0004 19.6404 20.0892 19.1358 19.9017 18.6975C19.7179 18.2679 19.3183 18.0008 18.86 18.0008H16.6667V14.3333ZM18.4517 19.3341L16 21.9175L13.5483 19.3341H18.4517Z" fill="#474747"/>
</svg>
