<svg width="32" height="32" viewBox="0 0 32 32" fill="none" xmlns="http://www.w3.org/2000/svg">
<path d="M20.3231 17.7333H11.6477C11.5266 17.7333 11.4104 17.779 11.3248 17.8603C11.2391 17.9415 11.191 18.0518 11.191 18.1667V19.0333C11.191 19.1483 11.2391 19.2585 11.3248 19.3398C11.4104 19.421 11.5266 19.4667 11.6477 19.4667H20.3231C20.4442 19.4667 20.5604 19.421 20.646 19.3398C20.7316 19.2585 20.7798 19.1483 20.7798 19.0333V18.1667C20.7798 18.0518 20.7316 17.9415 20.646 17.8603C20.5604 17.779 20.4442 17.7333 20.3231 17.7333ZM17.3551 22.9333H14.6154C14.4943 22.9333 14.3782 22.979 14.2926 23.0603C14.2069 23.1415 14.1588 23.2517 14.1588 23.3667V24.2333C14.1588 24.3483 14.2069 24.4585 14.2926 24.5398C14.3782 24.621 14.4943 24.6667 14.6154 24.6667H17.3551C17.4762 24.6667 17.5924 24.621 17.678 24.5398C17.7636 24.4585 17.8117 24.3483 17.8117 24.2333V23.3667C17.8117 23.2517 17.7636 23.1415 17.678 23.0603C17.5924 22.979 17.4762 22.9333 17.3551 22.9333ZM27.5434 7.33334H4.45662C4.33551 7.33334 4.21937 7.379 4.13374 7.46026C4.04811 7.54153 4 7.65175 4 7.76668V8.63334C4 8.74827 4.04811 8.85849 4.13374 8.93976C4.21937 9.02102 4.33551 9.06668 4.45662 9.06668H27.5434C27.6645 9.06668 27.7806 9.02102 27.8663 8.93976C27.9519 8.85849 28 8.74827 28 8.63334V7.76668C28 7.65175 27.9519 7.54153 27.8663 7.46026C27.7806 7.379 27.6645 7.33334 27.5434 7.33334ZM23.8619 12.5333H8.10865C7.98755 12.5333 7.87141 12.579 7.78578 12.6603C7.70015 12.7415 7.65204 12.8517 7.65204 12.9667V13.8333C7.65204 13.9483 7.70015 14.0585 7.78578 14.1398C7.87141 14.221 7.98755 14.2667 8.10865 14.2667H23.8619C23.983 14.2667 24.0992 14.221 24.1848 14.1398C24.2704 14.0585 24.3185 13.9483 24.3185 13.8333V12.9667C24.3185 12.8517 24.2704 12.7415 24.1848 12.6603C24.0992 12.579 23.983 12.5333 23.8619 12.5333Z" fill="#474747"/>
</svg>
