<svg width="32" height="32" viewBox="0 0 32 32" fill="none" xmlns="http://www.w3.org/2000/svg">
<path d="M23.4142 9.41419L19.9191 5.9191C19.5441 5.54403 19.0353 5.33332 18.5049 5.33331H10C8.89542 5.33331 8 6.22873 8 7.33331V24.6666C8 25.7712 8.89542 26.6666 10 26.6666H22C23.1046 26.6666 24 25.7712 24 24.6666V10.8284C24 10.298 23.7893 9.78926 23.4142 9.41419ZM22.4714 10.357C22.5568 10.4424 22.6173 10.5494 22.6462 10.6666H18.6667V6.6871C18.7839 6.71603 18.891 6.77647 18.9763 6.8619L22.4714 10.357ZM22 25.3333H10C9.63179 25.3333 9.33333 25.0349 9.33333 24.6666V7.33331C9.33333 6.9651 9.63179 6.66665 10 6.66665H17.3333V11C17.3333 11.5523 17.781 12 18.3333 12H22.6667V24.6666C22.6667 25.0349 22.3682 25.3333 22 25.3333ZM20.5639 16.5438L14.9476 22.115C14.7518 22.3093 14.4356 22.3084 14.2408 22.1131L11.4342 19.2984C11.2391 19.1027 11.2395 18.7859 11.4352 18.5907L11.7896 18.2374C11.9853 18.0423 12.3021 18.0427 12.4973 18.2384L14.599 20.3462L19.5066 15.478C19.7028 15.2834 20.0196 15.2846 20.2143 15.4808L20.5667 15.8361C20.7614 16.0323 20.7601 16.3491 20.5639 16.5438Z" fill="currentColor"/>
</svg>
