<svg width="32" height="32" viewBox="0 0 32 32" fill="none" xmlns="http://www.w3.org/2000/svg">
<path d="M23.4125 9.41457L19.9167 5.91874C19.5417 5.54374 19.0333 5.33124 18.5042 5.33124H10C8.89583 5.3354 8 6.23124 8 7.3354V24.6687C8 25.7729 8.89583 26.6687 10 26.6687H22C23.1042 26.6687 24 25.7729 24 24.6687V10.8312C24 10.3021 23.7875 9.78957 23.4125 9.41457ZM22.4708 10.3604C22.5583 10.4479 22.6167 10.5521 22.6458 10.6687H18.6667V6.68957C18.7833 6.71874 18.8875 6.77707 18.975 6.86457L22.4708 10.3604ZM22 25.3354H10C9.63333 25.3354 9.33333 25.0354 9.33333 24.6687V7.3354C9.33333 6.96874 9.63333 6.66874 10 6.66874H17.3333V11.0021C17.3333 11.5562 17.7792 12.0021 18.3333 12.0021H22.6667V24.6687C22.6667 25.0354 22.3667 25.3354 22 25.3354ZM20 15.1687V15.5021C20 15.7771 19.775 16.0021 19.5 16.0021H12.5C12.225 16.0021 12 15.7771 12 15.5021V15.1687C12 14.8937 12.225 14.6687 12.5 14.6687H19.5C19.775 14.6687 20 14.8937 20 15.1687ZM20 17.8354V18.1687C20 18.4437 19.775 18.6687 19.5 18.6687H12.5C12.225 18.6687 12 18.4437 12 18.1687V17.8354C12 17.5604 12.225 17.3354 12.5 17.3354H19.5C19.775 17.3354 20 17.5604 20 17.8354ZM20 20.5021V20.8354C20 21.1104 19.775 21.3354 19.5 21.3354H12.5C12.225 21.3354 12 21.1104 12 20.8354V20.5021C12 20.2271 12.225 20.0021 12.5 20.0021H19.5C19.775 20.0021 20 20.2271 20 20.5021Z" fill="#474747"/>
</svg>
