<svg width="32" height="32" viewBox="0 0 32 32" fill="none" xmlns="http://www.w3.org/2000/svg">
<path d="M27.6375 17.1619L24.6467 14.3219C24.3017 13.9969 23.7963 13.9102 23.3617 14.0977C22.9322 14.2819 22.6663 14.6802 22.6663 15.1381V17.3331H19.9997V10.832C19.9997 10.3028 19.7872 9.79032 19.4122 9.41574L15.9173 5.9208C15.5423 5.54581 15.034 5.33331 14.5052 5.33331H5.99955C4.89582 5.33748 4 6.2333 4 7.33703V24.6667C4 25.7705 4.89582 26.6663 5.99955 26.6663H18.0002C19.1039 26.6663 19.9997 25.7705 19.9997 24.6667V19.9997H18.6668V24.6667C18.6668 25.0334 18.3668 25.3334 18.0002 25.3334H5.99955C5.63289 25.3334 5.33289 25.0334 5.33289 24.6667V7.33703C5.33289 6.97037 5.63289 6.66662 5.99955 6.66662H13.3344V11.0028C13.3344 11.557 13.7802 11.9999 14.3344 11.9999H18.6668V17.3331H10.9999C10.8157 17.3331 10.6666 17.4823 10.6666 17.6664V18.3331C10.6666 18.5173 10.8157 18.6664 10.9999 18.6664H22.6663V20.861C22.6663 21.3185 22.9322 21.7172 23.3617 21.9014C23.9838 22.1701 24.4817 21.8343 24.6484 21.6768L27.6367 18.8385C27.8708 18.6164 28 18.3185 28 18.0002C28 17.6818 27.8708 17.3831 27.6375 17.1619ZM14.6677 10.6695V6.69121C14.7844 6.72037 14.8886 6.7787 14.9761 6.8662L18.471 10.3611C18.5585 10.4486 18.6168 10.5528 18.646 10.6695H14.6677ZM23.9997 20.453V15.5465L26.5829 17.9998L23.9997 20.453Z" fill="currentColor"/>
</svg>
