<svg width="32" height="32" viewBox="0 0 32 32" fill="none" xmlns="http://www.w3.org/2000/svg">
<path d="M19.6812 8.4445C17.3226 8.4445 15.4353 7.00004 12.5218 7.00004C11.3348 7.00004 10.2853 7.22179 9.3149 7.60208C9.4814 6.36308 8.49203 5.28641 7.25299 5.33495C6.23053 5.375 5.39307 6.19795 5.33653 7.21966C5.28561 8.1392 5.8564 8.93262 6.6667 9.21912V26.1667C6.6667 26.4428 6.89057 26.6667 7.1667 26.6667H7.50003C7.77615 26.6667 8.00003 26.4428 8.00003 26.1667V21.1C9.30932 20.4942 11.0028 19.889 13.6522 19.889C16.0108 19.889 17.8981 21.3334 20.8116 21.3334C22.9495 21.3334 24.6422 20.6152 26.2286 19.5437C26.5032 19.3583 26.6667 19.0475 26.6667 18.7162V7.81341C26.6667 7.0822 25.9081 6.59875 25.2449 6.90675C23.7124 7.61858 21.6507 8.4445 19.6812 8.4445ZM7.33336 6.50004C7.79286 6.50004 8.1667 6.87387 8.1667 7.33337C8.1667 7.79287 7.79286 8.1667 7.33336 8.1667C6.87386 8.1667 6.50003 7.79287 6.50003 7.33337C6.50003 6.87387 6.87386 6.50004 7.33336 6.50004ZM25.3334 18.5556C24.3702 19.2513 22.6439 20 20.8116 20C18.161 20 16.3013 18.5556 13.6522 18.5556C11.7349 18.5556 9.39057 18.98 8.00003 19.6389V9.77783C8.96324 9.08216 10.6895 8.33337 12.5218 8.33337C15.1724 8.33337 17.0321 9.77783 19.6812 9.77783C21.5945 9.77783 23.9402 8.99395 25.3334 8.33337V18.5556Z" fill="#474747"/>
</svg>
