<svg width="32" height="32" viewBox="0 0 32 32" fill="none" xmlns="http://www.w3.org/2000/svg">
<path d="M27.3334 8.00001H19.3334L17.0572 5.72376C16.8072 5.47376 16.468 5.33334 16.1142 5.33334H10.0001C8.8955 5.33334 8.00008 6.22876 8.00008 7.33334V10.6667H4.66675C3.56216 10.6667 2.66675 11.5621 2.66675 12.6667V24.6667C2.66675 25.7713 3.56216 26.6667 4.66675 26.6667H22.0001C23.1047 26.6667 24.0001 25.7713 24.0001 24.6667V21.3333H27.3334C28.438 21.3333 29.3334 20.4379 29.3334 19.3333V10C29.3334 8.89543 28.438 8.00001 27.3334 8.00001ZM22.6667 24.6667C22.6667 25.035 22.3684 25.3333 22.0001 25.3333H4.66675C4.29841 25.3333 4.00008 25.035 4.00008 24.6667V12.6667C4.00008 12.2983 4.29841 12 4.66675 12H8.00008V19.3333C8.00008 20.4379 8.8955 21.3333 10.0001 21.3333H22.6667V24.6667ZM28.0001 19.3333C28.0001 19.7017 27.7017 20 27.3334 20H10.0001C9.63175 20 9.33341 19.7017 9.33341 19.3333V7.33334C9.33341 6.96501 9.63175 6.66668 10.0001 6.66668H16.1142L18.3905 8.94293C18.6405 9.19293 18.9797 9.33334 19.3334 9.33334H27.3334C27.7017 9.33334 28.0001 9.63168 28.0001 10V19.3333Z" fill="#474747"/>
</svg>
