<svg width="32" height="32" viewBox="0 0 32 32" fill="none" xmlns="http://www.w3.org/2000/svg">
<path d="M8 24.3333C8 24.1492 8.14924 24 8.33333 24H25C25.1841 24 25.3333 24.1492 25.3333 24.3333V25C25.3333 25.1841 25.1841 25.3333 25 25.3333H8.33333C8.14924 25.3333 8 25.1841 8 25V24.3333Z" fill="#474747"/>
<path d="M25 21.9881H23.475L17.6304 7.06329C17.5851 6.94742 17.5 6.84693 17.387 6.77583C17.274 6.70473 17.1387 6.66656 17 6.66663H16.3333C16.1947 6.66663 16.0595 6.70485 15.9466 6.77594C15.8337 6.84704 15.7486 6.94748 15.7033 7.06329L9.85833 21.9881H8.33333C8.24493 21.9881 8.16014 22.0191 8.09763 22.0744C8.03512 22.1296 8 22.2046 8 22.2827V22.872C8 22.9501 8.03512 23.0251 8.09763 23.0803C8.16014 23.1356 8.24493 23.1666 8.33333 23.1666H13C13.0884 23.1666 13.1732 23.1356 13.2357 23.0803C13.2982 23.0251 13.3333 22.9501 13.3333 22.872V22.2827C13.3333 22.2046 13.2982 22.1296 13.2357 22.0744C13.1732 22.0191 13.0884 21.9881 13 21.9881H11.27L13.1158 17.2738H20.2175L22.0638 21.9881H20.3333C20.2449 21.9881 20.1601 22.0191 20.0976 22.0744C20.0351 22.1296 20 22.2046 20 22.2827V22.872C20 22.9501 20.0351 23.0251 20.0976 23.0803C20.1601 23.1356 20.2449 23.1666 20.3333 23.1666H25C25.0884 23.1666 25.1732 23.1356 25.2357 23.0803C25.2982 23.0251 25.3333 22.9501 25.3333 22.872V22.2827C25.3333 22.2046 25.2982 22.1296 25.2357 22.0744C25.1732 22.0191 25.0884 21.9881 25 21.9881ZM13.5775 16.0952L16.6667 8.20614L19.7558 16.0952H13.5775Z" fill="#474747"/>
</svg>
