<svg width="32" height="32" viewBox="0 0 32 32" fill="none" xmlns="http://www.w3.org/2000/svg">
<path d="M15.9999 5.33337C10.1074 5.33337 5.33325 10.1076 5.33325 16C5.33325 21.8925 10.1074 26.6667 15.9999 26.6667C21.8924 26.6667 26.6666 21.8925 26.6666 16C26.6666 10.1076 21.8924 5.33337 15.9999 5.33337ZM24.3096 11.871H20.7612C20.3741 9.96133 19.7246 8.33552 18.9031 7.17854C21.2687 7.96133 23.2128 9.66886 24.3096 11.871ZM19.7849 16C19.7849 16.985 19.716 17.9011 19.5999 18.7527H12.3999C12.2838 17.9011 12.215 16.985 12.215 16C12.215 15.0151 12.2838 14.099 12.3999 13.2474H19.5999C19.716 14.099 19.7849 15.0151 19.7849 16ZM15.9999 6.70972C17.1569 6.70972 18.6408 8.60649 19.3591 11.871H12.6408C13.3591 8.60649 14.8429 6.70972 15.9999 6.70972ZM13.0967 7.17854C12.2795 8.33122 11.6257 9.95703 11.2386 11.871H7.69024C8.78702 9.66886 10.7311 7.96133 13.0967 7.17854ZM6.7096 16C6.7096 15.0409 6.85583 14.1162 7.1268 13.2474H11.0193C10.9074 14.1291 10.8386 15.0452 10.8386 16C10.8386 16.9549 10.9031 17.871 11.0193 18.7527H7.1268C6.85583 17.8839 6.7096 16.9592 6.7096 16ZM7.69024 20.1291H11.2386C11.6257 22.0387 12.2752 23.6646 13.0967 24.8215C10.7311 24.0387 8.78702 22.3312 7.69024 20.1291ZM15.9999 25.2904C14.8429 25.2904 13.3591 23.3936 12.6408 20.1291H19.3591C18.6408 23.3936 17.1569 25.2904 15.9999 25.2904ZM18.9031 24.8215C19.7203 23.6689 20.3741 22.0431 20.7612 20.1291H24.3096C23.2128 22.3312 21.2687 24.0387 18.9031 24.8215ZM20.9806 18.7527C21.0924 17.871 21.1612 16.9549 21.1612 16C21.1612 15.0452 21.0967 14.1291 20.9806 13.2474H24.873C25.144 14.1162 25.2902 15.0409 25.2902 16C25.2902 16.9592 25.144 17.8839 24.873 18.7527H20.9806Z" fill="#474747"/>
</svg>
