<svg width="32" height="32" viewBox="0 0 32 32" fill="none" xmlns="http://www.w3.org/2000/svg">
<path d="M8.66645 15.9979H23.3324C23.6991 15.9979 23.9991 15.6979 23.9991 15.3313V5.99839C23.9991 5.63174 23.6991 5.33176 23.3324 5.33176H8.66645C8.2998 5.33176 7.99981 5.63174 7.99981 5.99839V15.3313C7.99981 15.6979 8.2998 15.9979 8.66645 15.9979ZM14.6662 6.66503H17.3327V9.83988L15.9994 9.17324L14.6662 9.83988V6.66503ZM9.33308 6.66503H13.3329V11.9981L15.9994 10.6648L18.666 11.9981V6.66503H22.6658V14.6647H9.33308V6.66503ZM27.2614 19.2311C26.8614 18.8728 26.3406 18.6728 25.7948 18.6728C25.274 18.6728 24.7615 18.852 24.3532 19.1811L21.7867 21.2352C21.7075 21.2977 21.6117 21.331 21.5075 21.331H19.7743C19.9659 20.931 20.0451 20.4686 19.9743 19.9852C19.8076 18.8228 18.741 17.9978 17.566 17.9978H11.5538C10.6872 17.9978 9.84556 18.277 9.15393 18.7978L7.554 19.9977H4.33332C4.14999 19.9977 4 20.1477 4 20.3311V20.9977C4 21.181 4.14999 21.331 4.33332 21.331H7.99981L9.95389 19.8644C10.4164 19.5186 10.9788 19.3311 11.5538 19.3311H17.666C18.2202 19.3311 18.666 19.7769 18.666 20.3311C18.666 20.8852 18.2202 21.331 17.666 21.331H13.9995C13.6329 21.331 13.3329 21.631 13.3329 21.9976C13.3329 22.3643 13.6329 22.6643 13.9995 22.6643H21.5075C21.9117 22.6643 22.3033 22.5268 22.62 22.2768L25.1865 20.2269C25.3615 20.0852 25.5823 20.0102 25.7948 20.0102C26.0031 20.0102 26.2073 20.0811 26.3698 20.2269C26.7906 20.606 26.7573 21.2477 26.3323 21.5852L22.1325 24.9475C21.8158 25.2017 21.4242 25.335 21.02 25.335H4.33332C4.14999 25.335 4 25.485 4 25.6683V26.3349C4 26.5183 4.14999 26.6683 4.33332 26.6683H21.02C21.7283 26.6683 22.4116 26.4266 22.9616 25.985L27.1656 22.6226C27.6739 22.2143 27.978 21.606 27.9989 20.956C28.0197 20.3061 27.7489 19.6728 27.2614 19.2311Z" fill="#474747"/>
</svg>
