<svg width="32" height="32" viewBox="0 0 32 32" fill="none" xmlns="http://www.w3.org/2000/svg">
<path d="M29.3291 11.3324C29.3291 10.2159 28.4168 9.31609 27.2961 9.33275C26.2129 9.34941 25.3298 10.3201 25.3298 11.4033V17.1149L22.7468 20.1686C22.451 20.5185 21.9095 20.0977 22.1802 19.7228L23.3717 18.0855C23.93 17.3148 23.9175 16.2275 23.2676 15.5318C22.2052 14.3903 20.743 14.8944 20.1639 15.6943L18.3975 18.1272C17.7059 19.0521 17.331 20.1769 17.331 21.3309V26.3301C17.331 26.5134 17.481 26.6634 17.6643 26.6634H18.3308C18.5141 26.6634 18.6641 26.5134 18.6641 26.3301V21.3309C18.6641 20.4727 18.9474 19.6186 19.4765 18.9146L21.2429 16.4816C21.4637 16.1775 21.8803 16.1192 22.1761 16.3358C22.501 16.5691 22.5219 16.9941 22.3219 17.2648L21.0471 19.0229C21.0388 19.0354 21.0304 19.0437 21.0263 19.0562C19.9389 20.7101 22.4385 22.6682 23.9758 20.8226L26.667 17.594V11.3574C26.667 10.4284 28.0002 10.4534 28.0002 11.3283V18.4272C28.0002 18.5771 27.9502 18.7271 27.8544 18.8438L23.3967 24.4137C23.0009 24.9095 22.751 25.6302 22.6843 26.2968C22.6635 26.4967 22.8176 26.6592 23.0176 26.6592H23.6842C23.8508 26.6592 23.9966 26.5384 24.0175 26.3718C24.0674 25.9718 24.2091 25.5302 24.4382 25.2469L28.8959 19.677C29.1791 19.3229 29.3333 18.8813 29.3333 18.4272L29.3291 11.3324ZM11.8319 15.6984C11.2486 14.8985 9.78635 14.3903 8.72818 15.5359C8.07828 16.2358 8.06578 17.319 8.62403 18.0897L9.81551 19.727C10.0863 20.0977 9.54472 20.5227 9.24893 20.1727L6.666 17.119V11.4074C6.666 10.3243 5.78281 9.35358 4.69964 9.33692C3.57898 9.31609 2.66663 10.2159 2.66663 11.3324V18.4313C2.66663 18.8854 2.82077 19.327 3.10406 19.6811L7.56169 25.2511C7.78666 25.5344 7.93247 25.9802 7.98246 26.3759C8.00329 26.5426 8.1491 26.6634 8.31574 26.6634H8.98231C9.18227 26.6634 9.33642 26.5009 9.31559 26.3009C9.24893 25.6344 9.00314 24.9136 8.6032 24.4179L4.14556 18.8479C4.04974 18.7313 3.99975 18.5813 3.99975 18.4313V11.3324C3.99975 10.4576 5.33288 10.4326 5.33288 11.3616V17.5981L8.02412 20.8268C9.56138 22.6682 12.0568 20.7143 10.9737 19.0604C10.9653 19.0479 10.957 19.0396 10.9528 19.0271L9.67803 17.269C9.48223 16.9982 9.50306 16.5733 9.82384 16.34C10.1155 16.1275 10.5362 16.1817 10.757 16.4858L12.5234 18.9188C13.0525 19.6228 13.3358 20.4768 13.3358 21.335V26.3343C13.3358 26.5176 13.4858 26.6675 13.6691 26.6675H14.3356C14.5189 26.6675 14.6689 26.5176 14.6689 26.3343V21.335C14.6689 20.1811 14.294 19.0604 13.6024 18.1355L11.8319 15.6984ZM18.8766 13.1988C19.2974 11.9657 18.5725 10.7075 17.4143 10.3743L14.9522 9.6702C14.5856 9.56605 14.3315 9.2286 14.3315 8.84949C14.3315 8.37873 14.7147 7.99546 15.1855 7.99546H16.7228C17.0644 7.99546 17.3935 8.10377 17.6643 8.29958C17.7893 8.39123 17.9642 8.36207 18.0726 8.24959L18.5475 7.77466C18.6933 7.62885 18.6683 7.39139 18.5058 7.26641C17.9976 6.87897 17.3768 6.6665 16.7228 6.6665H16.6644V5.66666C16.6644 5.48335 16.5145 5.33337 16.3312 5.33337H15.6646C15.4813 5.33337 15.3313 5.48335 15.3313 5.66666V6.6665H15.1855C13.9107 6.6665 12.89 7.76216 13.0108 9.06196C13.0983 9.98681 13.8066 10.7325 14.6981 10.9867L17.0477 11.6574C17.4143 11.7615 17.6684 12.099 17.6684 12.4781C17.6684 12.9489 17.2852 13.3321 16.8144 13.3321H15.2772C14.9355 13.3321 14.6064 13.2238 14.3356 13.028C14.2107 12.9364 14.0357 12.9655 13.9274 13.078L13.4524 13.5529C13.3066 13.6987 13.3316 13.9362 13.4941 14.0612C14.0065 14.4528 14.6273 14.6652 15.2813 14.6652H15.3396V15.6651C15.3396 15.8484 15.4896 15.9984 15.6729 15.9984H16.3395C16.5228 15.9984 16.6728 15.8484 16.6728 15.6651V14.6652H16.7311C17.6726 14.6652 18.5683 14.0987 18.8766 13.1988Z" fill="#404041"/>
</svg>
