<svg width="32" height="32" viewBox="0 0 32 32" fill="none" xmlns="http://www.w3.org/2000/svg">
<path d="M13.6667 16.6667C13.5783 16.6667 13.4935 16.7018 13.431 16.7644C13.3685 16.8269 13.3333 16.9117 13.3333 17.0001V17.6667C13.3333 17.7551 13.3685 17.8399 13.431 17.9024C13.4935 17.9649 13.5783 18.0001 13.6667 18.0001H18.3333C18.4217 18.0001 18.5065 17.9649 18.569 17.9024C18.6315 17.8399 18.6667 17.7551 18.6667 17.6667V17.0001C18.6667 16.9117 18.6315 16.8269 18.569 16.7644C18.5065 16.7018 18.4217 16.6667 18.3333 16.6667H13.6667ZM9.33333 6.66673H17.3333V11.3334C17.3333 11.5102 17.4036 11.6798 17.5286 11.8048C17.6536 11.9298 17.8232 12.0001 18 12.0001H22.6667V14.6667H24V11.218C24.0001 11.0431 23.9658 10.8699 23.8989 10.7084C23.8321 10.5468 23.7341 10.4 23.6104 10.2763C22.625 9.2884 20.0333 6.69923 19.0513 5.71798C18.9283 5.59512 18.7822 5.49787 18.6214 5.43186C18.4607 5.36584 18.2884 5.33238 18.1146 5.3334H9.33333C8.97971 5.3334 8.64057 5.47387 8.39052 5.72392C8.14048 5.97397 8 6.31311 8 6.66673V14.6667H9.33333V6.66673ZM18.6667 7.21881L22.1154 10.6667H18.6667V7.21881ZM27.6667 16.6667H21.6667C21.5783 16.6667 21.4935 16.7018 21.431 16.7644C21.3685 16.8269 21.3333 16.9117 21.3333 17.0001V17.6667C21.3333 17.7551 21.3685 17.8399 21.431 17.9024C21.4935 17.9649 21.5783 18.0001 21.6667 18.0001H27.6667C27.7551 18.0001 27.8399 17.9649 27.9024 17.9024C27.9649 17.8399 28 17.7551 28 17.6667V17.0001C28 16.9117 27.9649 16.8269 27.9024 16.7644C27.8399 16.7018 27.7551 16.6667 27.6667 16.6667ZM10.6667 17.6667V17.0001C10.6667 16.9117 10.6315 16.8269 10.569 16.7644C10.5065 16.7018 10.4217 16.6667 10.3333 16.6667H4.33333C4.24493 16.6667 4.16014 16.7018 4.09763 16.7644C4.03512 16.8269 4 16.9117 4 17.0001V17.6667C4 17.7551 4.03512 17.8399 4.09763 17.9024C4.16014 17.9649 4.24493 18.0001 4.33333 18.0001H10.3333C10.4217 18.0001 10.5065 17.9649 10.569 17.9024C10.6315 17.8399 10.6667 17.7551 10.6667 17.6667ZM22.6667 25.3334H9.33333V20.0001H8V25.3334C8 25.687 8.14048 26.0262 8.39052 26.2762C8.64057 26.5263 8.97971 26.6667 9.33333 26.6667H22.6667C23.0203 26.6667 23.3594 26.5263 23.6095 26.2762C23.8595 26.0262 24 25.687 24 25.3334V20.0001H22.6667V25.3334Z" fill="#474747"/>
</svg>
