<svg width="32" height="32" viewBox="0 0 32 32" fill="none" xmlns="http://www.w3.org/2000/svg">
<path d="M20.9638 9.73223L16.9519 5.72036C16.6936 5.46206 16.3562 5.33292 16.0187 5.33292C15.6813 5.33292 15.3438 5.46206 15.0855 5.72036L11.0695 9.73639C10.5571 10.2488 10.5571 11.0862 11.0695 11.5986L15.0855 15.6146C15.3438 15.8729 15.6813 16.0021 16.0187 16.0021C16.3562 16.0021 16.6936 15.8729 16.9519 15.6146L20.9679 11.5986C21.4804 11.082 21.4804 10.2488 20.9638 9.73223ZM16.0187 14.6815L12.0027 10.6654L16.0145 6.64938L20.0306 10.6654L16.0187 14.6815ZM11.8319 15.698C11.2486 14.8981 9.78635 14.3898 8.72818 15.5355C8.07828 16.2354 8.06578 17.3185 8.62403 18.0893L9.81551 19.7265C10.0863 20.0973 9.54472 20.5222 9.24893 20.1723L6.666 17.1186V11.407C6.666 10.3238 5.78281 9.35312 4.69964 9.33646C3.57898 9.31563 2.66663 10.2155 2.66663 11.332V18.4309C2.66663 18.885 2.82077 19.3266 3.10406 19.6807L7.56169 25.2506C7.78666 25.5339 7.93247 25.9797 7.98246 26.3755C8.00329 26.5421 8.1491 26.6629 8.31574 26.6629H8.98231C9.18227 26.6629 9.33642 26.5004 9.31559 26.3005C9.24893 25.6339 9.00314 24.9132 8.6032 24.4174L4.14556 18.8475C4.04974 18.7308 3.99975 18.5808 3.99975 18.4309V11.332C3.99975 10.4571 5.33288 10.4321 5.33288 11.3611V17.5977L8.02412 20.8263C9.56138 22.6677 12.0568 20.7138 10.9737 19.0599C10.9653 19.0474 10.957 19.0391 10.9528 19.0266L9.67803 17.2686C9.48223 16.9978 9.50306 16.5728 9.82384 16.3395C10.1155 16.1271 10.5362 16.1812 10.757 16.4853L12.5234 18.9183C13.0525 19.6224 13.3358 20.4764 13.3358 21.3346V26.3338C13.3358 26.5171 13.4858 26.6671 13.6691 26.6671H14.3356C14.5189 26.6671 14.6689 26.5171 14.6689 26.3338V21.3346C14.6689 20.1806 14.294 19.0599 13.6024 18.1351L11.8319 15.698ZM29.3291 11.332C29.3291 10.2155 28.4168 9.31563 27.2961 9.33229C26.2129 9.34896 25.3298 10.3196 25.3298 11.4028V17.1144L22.7468 20.1681C22.451 20.518 21.9095 20.0973 22.1802 19.7223L23.3717 18.0851C23.93 17.3144 23.9175 16.227 23.2676 15.5313C22.2052 14.3898 20.743 14.8939 20.1639 15.6938L18.3975 18.1268C17.7059 19.0516 17.331 20.1764 17.331 21.3304V26.3296C17.331 26.5129 17.481 26.6629 17.6643 26.6629H18.3308C18.5141 26.6629 18.6641 26.5129 18.6641 26.3296V21.3304C18.6641 20.4722 18.9474 19.6182 19.4765 18.9141L21.2429 16.4812C21.4637 16.1771 21.8803 16.1187 22.1761 16.3354C22.501 16.5687 22.5219 16.9936 22.3219 17.2644L21.0471 19.0224C21.0388 19.0349 21.0304 19.0433 21.0263 19.0558C19.9389 20.7097 22.4385 22.6677 23.9758 20.8222L26.667 17.5935V11.357C26.667 10.428 28.0002 10.4529 28.0002 11.3278V18.4267C28.0002 18.5767 27.9502 18.7267 27.8544 18.8433L23.3967 24.4133C23.0009 24.909 22.751 25.6297 22.6843 26.2963C22.6635 26.4963 22.8176 26.6588 23.0176 26.6588H23.6842C23.8508 26.6588 23.9966 26.5379 24.0175 26.3713C24.0674 25.9714 24.2091 25.5298 24.4382 25.2465L28.8959 19.6765C29.1791 19.3224 29.3333 18.8808 29.3333 18.4267L29.3291 11.332Z" fill="currentColor"/>
</svg>
