<svg width="32" height="32" viewBox="0 0 32 32" fill="none" xmlns="http://www.w3.org/2000/svg">
<path d="M24.5966 7.94571C22.3257 6.01236 18.9298 6.3332 16.8215 8.50822L16.0007 9.35823L15.1798 8.51238C13.4798 6.75404 10.0506 5.69569 7.40474 7.94571C4.78805 10.1791 4.65055 14.1874 6.99223 16.6041L15.0548 24.9292C15.3131 25.1959 15.6548 25.3334 15.9965 25.3334C16.3382 25.3334 16.6798 25.2 16.9382 24.9292L25.0007 16.6041C27.3508 14.1874 27.2133 10.1791 24.5966 7.94571ZM24.0507 15.6791L16.0173 24.0042L7.95058 15.6791C6.35056 14.0291 6.01722 10.8832 8.27141 8.96239C10.5548 7.01237 13.2381 8.42488 14.2215 9.44156L16.0007 11.2791L17.7798 9.44156C18.7465 8.44155 21.4549 7.02487 23.7299 8.96239C25.9799 10.8791 25.6507 14.0249 24.0507 15.6791Z" fill="#474747"/>
</svg>
