<svg width="32" height="32" viewBox="0 0 32 32" fill="none" xmlns="http://www.w3.org/2000/svg">
<path d="M23.9083 14.6516L27.6892 10.4325C27.7695 10.3431 27.8141 10.2272 27.8142 10.1071V9.82748C27.8115 9.69419 27.7562 9.56738 27.6603 9.47477C27.5644 9.38216 27.4358 9.3313 27.3025 9.33331H20.3333C20.2449 9.33331 20.1601 9.36843 20.0976 9.43094C20.0351 9.49345 20 9.57824 20 9.66664V10.3333C20 10.4217 20.0351 10.5065 20.0976 10.569C20.1601 10.6315 20.2449 10.6666 20.3333 10.6666H25.7654C25.6292 10.7971 25.4467 10.9816 25.2479 11.2062L22.0679 14.8079C22.0074 14.8766 21.9674 14.9609 21.9527 15.0513C21.938 15.1417 21.949 15.2344 21.9846 15.3187L22.0992 15.5862C22.1394 15.6776 22.2055 15.7551 22.2893 15.8093C22.3731 15.8634 22.471 15.8918 22.5708 15.8908H23.2004C24.9687 15.8908 26.4821 16.8454 26.4829 18.5696C26.4801 18.9308 26.4026 19.2875 26.2553 19.6173C26.108 19.9472 25.8941 20.243 25.6271 20.4862C24.0879 21.8887 21.7937 21.2525 20.4537 20.085C20.4013 20.04 20.3404 20.006 20.2747 19.9847C20.2089 19.9635 20.1396 19.9555 20.0708 19.9613C20.0019 19.9671 19.9349 19.9865 19.8736 20.0184C19.8123 20.0503 19.758 20.094 19.7137 20.1471L19.4454 20.4762C19.3653 20.5732 19.3263 20.6977 19.3367 20.823C19.3471 20.9484 19.4062 21.0647 19.5012 21.1471C20.4446 21.9804 21.9596 22.6662 23.5196 22.6662C26.0308 22.6666 28 20.8508 28 18.5296C28.0042 16.1421 26.1292 14.8371 23.9083 14.6516ZM17 9.33331H12.3333C12.2449 9.33331 12.1601 9.36843 12.0976 9.43094C12.0351 9.49345 12 9.57824 12 9.66664V10.3333C12 10.4217 12.0351 10.5065 12.0976 10.569C12.1601 10.6315 12.2449 10.6666 12.3333 10.6666H14V15.3333H7.33333V10.6666H9C9.0884 10.6666 9.17319 10.6315 9.2357 10.569C9.29821 10.5065 9.33333 10.4217 9.33333 10.3333V9.66664C9.33333 9.57824 9.29821 9.49345 9.2357 9.43094C9.17319 9.36843 9.0884 9.33331 9 9.33331H4.33333C4.24493 9.33331 4.16014 9.36843 4.09763 9.43094C4.03512 9.49345 4 9.57824 4 9.66664V10.3333C4 10.4217 4.03512 10.5065 4.09763 10.569C4.16014 10.6315 4.24493 10.6666 4.33333 10.6666H6V21.3333H4.33333C4.24493 21.3333 4.16014 21.3684 4.09763 21.4309C4.03512 21.4934 4 21.5782 4 21.6666V22.3333C4 22.4217 4.03512 22.5065 4.09763 22.569C4.16014 22.6315 4.24493 22.6666 4.33333 22.6666H9C9.0884 22.6666 9.17319 22.6315 9.2357 22.569C9.29821 22.5065 9.33333 22.4217 9.33333 22.3333V21.6666C9.33333 21.5782 9.29821 21.4934 9.2357 21.4309C9.17319 21.3684 9.0884 21.3333 9 21.3333H7.33333V16.6666H14V21.3333H12.3333C12.2449 21.3333 12.1601 21.3684 12.0976 21.4309C12.0351 21.4934 12 21.5782 12 21.6666V22.3333C12 22.4217 12.0351 22.5065 12.0976 22.569C12.1601 22.6315 12.2449 22.6666 12.3333 22.6666H17C17.0884 22.6666 17.1732 22.6315 17.2357 22.569C17.2982 22.5065 17.3333 22.4217 17.3333 22.3333V21.6666C17.3333 21.5782 17.2982 21.4934 17.2357 21.4309C17.1732 21.3684 17.0884 21.3333 17 21.3333H15.3333V10.6666H17C17.0884 10.6666 17.1732 10.6315 17.2357 10.569C17.2982 10.5065 17.3333 10.4217 17.3333 10.3333V9.66664C17.3333 9.57824 17.2982 9.49345 17.2357 9.43094C17.1732 9.36843 17.0884 9.33331 17 9.33331Z" fill="currentColor"/>
</svg>
