<svg width="32" height="32" viewBox="0 0 32 32" fill="none" xmlns="http://www.w3.org/2000/svg">
<path d="M22.6667 7.99996V24H25.0001C25.0885 24 25.1733 24.0351 25.2358 24.0976C25.2983 24.1601 25.3334 24.2449 25.3334 24.3333V25C25.3334 25.0884 25.2983 25.1731 25.2358 25.2357C25.1733 25.2982 25.0885 25.3333 25.0001 25.3333H19.0001C18.9117 25.3333 18.8269 25.2982 18.7644 25.2357C18.7019 25.1731 18.6667 25.0884 18.6667 25V24.3333C18.6667 24.2449 18.7019 24.1601 18.7644 24.0976C18.8269 24.0351 18.9117 24 19.0001 24H21.3334V16.6666H10.6667V24H13.0001C13.0885 24 13.1733 24.0351 13.2358 24.0976C13.2983 24.1601 13.3334 24.2449 13.3334 24.3333V25C13.3334 25.0884 13.2983 25.1731 13.2358 25.2357C13.1733 25.2982 13.0885 25.3333 13.0001 25.3333H7.00008C6.91168 25.3333 6.82689 25.2982 6.76438 25.2357C6.70187 25.1731 6.66675 25.0884 6.66675 25V24.3333C6.66675 24.2449 6.70187 24.1601 6.76438 24.0976C6.82689 24.0351 6.91168 24 7.00008 24H9.33341V7.99996H7.00008C6.91168 7.99996 6.82689 7.96484 6.76438 7.90233C6.70187 7.83982 6.66675 7.75503 6.66675 7.66663V6.99996C6.66675 6.91155 6.70187 6.82677 6.76438 6.76426C6.82689 6.70174 6.91168 6.66663 7.00008 6.66663H13.0001C13.0885 6.66663 13.1733 6.70174 13.2358 6.76426C13.2983 6.82677 13.3334 6.91155 13.3334 6.99996V7.66663C13.3334 7.75503 13.2983 7.83982 13.2358 7.90233C13.1733 7.96484 13.0885 7.99996 13.0001 7.99996H10.6667V15.3333H21.3334V7.99996H19.0001C18.9117 7.99996 18.8269 7.96484 18.7644 7.90233C18.7019 7.83982 18.6667 7.75503 18.6667 7.66663V6.99996C18.6667 6.91155 18.7019 6.82677 18.7644 6.76426C18.8269 6.70174 18.9117 6.66663 19.0001 6.66663H25.0001C25.0885 6.66663 25.1733 6.70174 25.2358 6.76426C25.2983 6.82677 25.3334 6.91155 25.3334 6.99996V7.66663C25.3334 7.75503 25.2983 7.83982 25.2358 7.90233C25.1733 7.96484 25.0885 7.99996 25.0001 7.99996H22.6667Z" fill="#474747"/>
</svg>
