<svg width="32" height="32" viewBox="0 0 32 32" fill="none" xmlns="http://www.w3.org/2000/svg">
<path d="M17 9.33337H12.3333C12.2449 9.33337 12.1601 9.36849 12.0976 9.43101C12.0351 9.49352 12 9.5783 12 9.66671V10.3334C12 10.4218 12.0351 10.5066 12.0976 10.5691C12.1601 10.6316 12.2449 10.6667 12.3333 10.6667H14V15.3334H7.33333V10.6667H9C9.08841 10.6667 9.17319 10.6316 9.2357 10.5691C9.29821 10.5066 9.33333 10.4218 9.33333 10.3334V9.66671C9.33333 9.5783 9.29821 9.49352 9.2357 9.43101C9.17319 9.36849 9.08841 9.33337 9 9.33337H4.33333C4.24493 9.33337 4.16014 9.36849 4.09763 9.43101C4.03512 9.49352 4 9.5783 4 9.66671V10.3334C4 10.4218 4.03512 10.5066 4.09763 10.5691C4.16014 10.6316 4.24493 10.6667 4.33333 10.6667H6V21.3334H4.33333C4.24493 21.3334 4.16014 21.3685 4.09763 21.431C4.03512 21.4935 4 21.5783 4 21.6667V22.3334C4 22.4218 4.03512 22.5066 4.09763 22.5691C4.16014 22.6316 4.24493 22.6667 4.33333 22.6667H9C9.08841 22.6667 9.17319 22.6316 9.2357 22.5691C9.29821 22.5066 9.33333 22.4218 9.33333 22.3334V21.6667C9.33333 21.5783 9.29821 21.4935 9.2357 21.431C9.17319 21.3685 9.08841 21.3334 9 21.3334H7.33333V16.6667H14V21.3334H12.3333C12.2449 21.3334 12.1601 21.3685 12.0976 21.431C12.0351 21.4935 12 21.5783 12 21.6667V22.3334C12 22.4218 12.0351 22.5066 12.0976 22.5691C12.1601 22.6316 12.2449 22.6667 12.3333 22.6667H17C17.0884 22.6667 17.1732 22.6316 17.2357 22.5691C17.2982 22.5066 17.3333 22.4218 17.3333 22.3334V21.6667C17.3333 21.5783 17.2982 21.4935 17.2357 21.431C17.1732 21.3685 17.0884 21.3334 17 21.3334H15.3333V10.6667H17C17.0884 10.6667 17.1732 10.6316 17.2357 10.5691C17.2982 10.5066 17.3333 10.4218 17.3333 10.3334V9.66671C17.3333 9.5783 17.2982 9.49352 17.2357 9.43101C17.1732 9.36849 17.0884 9.33337 17 9.33337ZM27.6667 15.3334H26.6667V9.66671C26.6667 9.5783 26.6315 9.49352 26.569 9.43101C26.5065 9.36849 26.4217 9.33337 26.3333 9.33337H25.6667C25.5783 9.33337 25.4935 9.36849 25.431 9.43101C25.3685 9.49352 25.3333 9.5783 25.3333 9.66671V15.3334H20V9.66671C20 9.5783 19.9649 9.49352 19.9024 9.43101C19.8399 9.36849 19.7551 9.33337 19.6667 9.33337H19C18.9116 9.33337 18.8268 9.36849 18.7643 9.43101C18.7018 9.49352 18.6667 9.5783 18.6667 9.66671V16C18.6667 16.1769 18.7369 16.3464 18.8619 16.4714C18.987 16.5965 19.1565 16.6667 19.3333 16.6667H25.3333V22.3334C25.3333 22.4218 25.3685 22.5066 25.431 22.5691C25.4935 22.6316 25.5783 22.6667 25.6667 22.6667H26.3333C26.4217 22.6667 26.5065 22.6316 26.569 22.5691C26.6315 22.5066 26.6667 22.4218 26.6667 22.3334V16.6667H27.6667C27.7551 16.6667 27.8399 16.6316 27.9024 16.5691C27.9649 16.5066 28 16.4218 28 16.3334V15.6667C28 15.5783 27.9649 15.4935 27.9024 15.431C27.8399 15.3685 27.7551 15.3334 27.6667 15.3334Z" fill="currentColor"/>
</svg>
