<svg width="32" height="32" viewBox="0 0 32 32" fill="none" xmlns="http://www.w3.org/2000/svg">
<path d="M17 9.33337H12.3333C12.2449 9.33337 12.1601 9.36849 12.0976 9.43101C12.0351 9.49352 12 9.5783 12 9.66671V10.3334C12 10.4218 12.0351 10.5066 12.0976 10.5691C12.1601 10.6316 12.2449 10.6667 12.3333 10.6667H14V15.3334H7.33333V10.6667H9C9.08841 10.6667 9.17319 10.6316 9.2357 10.5691C9.29821 10.5066 9.33333 10.4218 9.33333 10.3334V9.66671C9.33333 9.5783 9.29821 9.49352 9.2357 9.43101C9.17319 9.36849 9.08841 9.33337 9 9.33337H4.33333C4.24493 9.33337 4.16014 9.36849 4.09763 9.43101C4.03512 9.49352 4 9.5783 4 9.66671V10.3334C4 10.4218 4.03512 10.5066 4.09763 10.5691C4.16014 10.6316 4.24493 10.6667 4.33333 10.6667H6V21.3334H4.33333C4.24493 21.3334 4.16014 21.3685 4.09763 21.431C4.03512 21.4935 4 21.5783 4 21.6667V22.3334C4 22.4218 4.03512 22.5066 4.09763 22.5691C4.16014 22.6316 4.24493 22.6667 4.33333 22.6667H9C9.08841 22.6667 9.17319 22.6316 9.2357 22.5691C9.29821 22.5066 9.33333 22.4218 9.33333 22.3334V21.6667C9.33333 21.5783 9.29821 21.4935 9.2357 21.431C9.17319 21.3685 9.08841 21.3334 9 21.3334H7.33333V16.6667H14V21.3334H12.3333C12.2449 21.3334 12.1601 21.3685 12.0976 21.431C12.0351 21.4935 12 21.5783 12 21.6667V22.3334C12 22.4218 12.0351 22.5066 12.0976 22.5691C12.1601 22.6316 12.2449 22.6667 12.3333 22.6667H17C17.0884 22.6667 17.1732 22.6316 17.2357 22.5691C17.2982 22.5066 17.3333 22.4218 17.3333 22.3334V21.6667C17.3333 21.5783 17.2982 21.4935 17.2357 21.431C17.1732 21.3685 17.0884 21.3334 17 21.3334H15.3333V10.6667H17C17.0884 10.6667 17.1732 10.6316 17.2357 10.5691C17.2982 10.5066 17.3333 10.4218 17.3333 10.3334V9.66671C17.3333 9.5783 17.2982 9.49352 17.2357 9.43101C17.1732 9.36849 17.0884 9.33337 17 9.33337ZM27.6667 21.3334H24.7358V10C24.7358 9.82323 24.6656 9.65366 24.5406 9.52864C24.4155 9.40361 24.246 9.33337 24.0692 9.33337H23.4025C23.2257 9.33346 23.0562 9.40375 22.9313 9.52879L21.1667 11.2917C21.1042 11.3542 21.0691 11.439 21.0691 11.5273C21.0691 11.6157 21.1042 11.7005 21.1667 11.763L21.6379 12.2342C21.6689 12.2652 21.7056 12.2898 21.7461 12.3066C21.7866 12.3233 21.8299 12.332 21.8738 12.332C21.9176 12.332 21.9609 12.3233 22.0014 12.3066C22.0419 12.2898 22.0786 12.2652 22.1096 12.2342L23.4013 10.9425V21.3334H20.3333C20.2449 21.3334 20.1601 21.3685 20.0976 21.431C20.0351 21.4935 20 21.5783 20 21.6667V22.3334C20 22.4218 20.0351 22.5066 20.0976 22.5691C20.1601 22.6316 20.2449 22.6667 20.3333 22.6667H27.6667C27.7551 22.6667 27.8399 22.6316 27.9024 22.5691C27.9649 22.5066 28 22.4218 28 22.3334V21.6667C28 21.5783 27.9649 21.4935 27.9024 21.431C27.8399 21.3685 27.7551 21.3334 27.6667 21.3334Z" fill="#474747"/>
</svg>
