<svg width="32" height="32" viewBox="0 0 32 32" fill="none" xmlns="http://www.w3.org/2000/svg">
<path d="M17.2458 9.33337H12.4909C12.4008 9.33337 12.3145 9.36849 12.2508 9.431C12.1871 9.4935 12.1513 9.57828 12.1513 9.66668V10.3333C12.1513 10.4217 12.1871 10.5065 12.2508 10.569C12.3145 10.6315 12.4008 10.6666 12.4909 10.6666H14.1891V15.3328H7.39637V10.6666H9.09455C9.18463 10.6666 9.27101 10.6315 9.33471 10.569C9.3984 10.5065 9.43419 10.4217 9.43419 10.3333V9.66668C9.43419 9.57828 9.3984 9.4935 9.33471 9.431C9.27101 9.36849 9.18463 9.33337 9.09455 9.33337H4.33964C4.24956 9.33337 4.16317 9.36849 4.09948 9.431C4.03578 9.4935 4 9.57828 4 9.66668V10.3333C4 10.4217 4.03578 10.5065 4.09948 10.569C4.16317 10.6315 4.24956 10.6666 4.33964 10.6666H6.03782V21.3322H4.33964C4.24956 21.3322 4.16317 21.3674 4.09948 21.4299C4.03578 21.4924 4 21.5771 4 21.6655V22.3321C4 22.4205 4.03578 22.5053 4.09948 22.5678C4.16317 22.6303 4.24956 22.6654 4.33964 22.6654H9.09455C9.18463 22.6654 9.27101 22.6303 9.33471 22.5678C9.3984 22.5053 9.43419 22.4205 9.43419 22.3321V21.6655C9.43419 21.5771 9.3984 21.4924 9.33471 21.4299C9.27101 21.3674 9.18463 21.3322 9.09455 21.3322H7.39637V16.666H14.1891V21.3322H12.4909C12.4008 21.3322 12.3145 21.3674 12.2508 21.4299C12.1871 21.4924 12.1513 21.5771 12.1513 21.6655V22.3321C12.1513 22.4205 12.1871 22.5053 12.2508 22.5678C12.3145 22.6303 12.4008 22.6654 12.4909 22.6654H17.2458C17.3359 22.6654 17.4223 22.6303 17.486 22.5678C17.5497 22.5053 17.5855 22.4205 17.5855 22.3321V21.6655C17.5855 21.5771 17.5497 21.4924 17.486 21.4299C17.4223 21.3674 17.3359 21.3322 17.2458 21.3322H15.5476V10.6666H17.2458C17.3359 10.6666 17.4223 10.6315 17.486 10.569C17.5497 10.5065 17.5855 10.4217 17.5855 10.3333V9.66668C17.5855 9.57828 17.5497 9.4935 17.486 9.431C17.4223 9.36849 17.3359 9.33337 17.2458 9.33337ZM27.4349 21.3322H21.2395C21.4026 18.0509 28 17.3897 28 13.0439C28 10.9607 26.4322 9.33337 23.8501 9.33337C22.2156 9.33337 20.7509 10.1987 19.9523 11.3524C19.9148 11.4063 19.8885 11.4671 19.8751 11.5311C19.8618 11.5951 19.8615 11.6611 19.8743 11.7252C19.8871 11.7894 19.9129 11.8504 19.9499 11.9046C19.987 11.9589 20.0347 12.0054 20.0903 12.0415L20.3938 12.2393C20.5031 12.3102 20.6358 12.3374 20.7648 12.3154C20.8938 12.2934 21.0094 12.2239 21.088 12.121C21.7036 11.3294 22.6894 10.7145 23.7745 10.7145C25.3585 10.7145 26.4648 11.7027 26.4648 13.1184C26.4648 16.5489 19.6246 17.1597 19.6246 21.7555C19.6246 21.9314 19.6326 22.0809 19.6458 22.2213C19.6595 22.3442 19.7192 22.4578 19.8133 22.5401C19.9074 22.6223 20.0292 22.6674 20.1552 22.6667H27.4349C27.525 22.6667 27.6114 22.6316 27.6751 22.5691C27.7388 22.5066 27.7746 22.4218 27.7746 22.3334V21.6655C27.7746 21.5771 27.7388 21.4924 27.6751 21.4299C27.6114 21.3674 27.525 21.3322 27.4349 21.3322Z" fill="currentColor"/>
</svg>
