<svg width="32" height="32" viewBox="0 0 32 32" fill="none" xmlns="http://www.w3.org/2000/svg">
<path d="M26.0632 9.63186L23.691 7.2678C23.2906 6.86819 22.7628 6.66663 22.2346 6.66663C21.7326 6.66623 21.2478 6.84896 20.8718 7.1803L9.67024 16.8932C9.26671 17.2479 9.10828 17.8053 9.26514 18.3186L9.75495 19.9209L8.322 21.349C8.05769 21.6127 8.05769 22.0397 8.322 22.3033L8.33181 22.3135L5.33337 25.4158L9.25024 26.6666L10.9753 24.9475L10.9761 24.9483C11.2408 25.2119 11.6699 25.2119 11.9346 24.9483L13.3644 23.5237L14.9687 24.0131C15.675 24.2283 16.2004 23.8358 16.4004 23.61L26.1514 12.442C26.871 11.6287 26.8326 10.3983 26.0632 9.63186ZM8.90397 25.2428L7.64083 24.8393L9.21965 23.1975L10.0879 24.0627L8.90397 25.2428ZM15.4593 22.7823C15.4346 22.8104 15.4044 22.819 15.3683 22.819C15.3581 22.819 15.3471 22.8182 15.3357 22.817L13.7314 22.3276L13.0102 22.1076L11.4553 23.6573L9.61808 21.826L11.1753 20.2744L10.9557 19.5565L10.4659 17.9541C10.4526 17.91 10.4663 17.8619 10.4946 17.8369L12.2581 16.3076L16.993 21.0264L15.4593 22.7823ZM25.2048 11.6209L17.8181 20.0807L13.2063 15.4846L21.702 8.1178C21.8785 7.96272 22.3903 7.73967 22.804 8.15217L25.1757 10.5162C25.4757 10.8151 25.491 11.2975 25.2048 11.6209Z" fill="#474747"/>
</svg>
