<svg width="32" height="32" viewBox="0 0 32 32" fill="none" xmlns="http://www.w3.org/2000/svg">
<path d="M5.8495 6.02153H6.27961C6.56464 6.02153 6.79574 6.25262 6.79574 6.53765V10.6075C8.65363 7.4429 12.0963 5.3211 16.0341 5.3334C21.9002 5.35176 26.6759 10.1509 26.6667 16.017C26.6575 21.9003 21.8854 26.6667 16 26.6667C13.2505 26.6667 10.744 25.6264 8.8526 23.9179C8.63268 23.7193 8.62232 23.3777 8.83187 23.1681L9.13591 22.8641C9.32959 22.6704 9.64124 22.6613 9.84481 22.8446C11.4745 24.3113 13.6316 25.2043 16 25.2043C21.0643 25.2043 25.2043 21.1041 25.2043 16C25.2043 10.9358 21.1041 6.79572 16 6.79572C12.4361 6.79572 9.34468 8.82053 7.81557 11.785H12.043C12.3281 11.785 12.5592 12.0161 12.5592 12.3011V12.7312C12.5592 13.0162 12.3281 13.2473 12.043 13.2473H5.8495C5.56447 13.2473 5.33337 13.0162 5.33337 12.7312V6.53765C5.33337 6.25262 5.56447 6.02153 5.8495 6.02153ZM19.6838 19.58L19.8862 19.3017C20.0538 19.0712 20.0029 18.7484 19.7723 18.5807L16.6882 16.3378V9.97851C16.6882 9.69348 16.4571 9.46238 16.1721 9.46238H15.828C15.543 9.46238 15.3119 9.69348 15.3119 9.97851V17.0386L18.9628 19.6938C19.1933 19.8615 19.5161 19.8105 19.6838 19.58Z" fill="#474747"/>
</svg>
