<svg width="32" height="32" viewBox="0 0 32 32" fill="none" xmlns="http://www.w3.org/2000/svg">
<path d="M26.5421 14.8809L16.8388 6.96321C16.6005 6.77102 16.3036 6.6662 15.9974 6.6662C15.6913 6.6662 15.3944 6.77102 15.1561 6.96321L5.45614 14.8809C5.38772 14.9366 5.3442 15.0172 5.33514 15.1051C5.32607 15.1929 5.35221 15.2807 5.4078 15.3492L5.82869 15.8664C5.88423 15.9345 5.96444 15.9779 6.05185 15.9872C6.13925 15.9965 6.22679 15.9709 6.29541 15.916L7.99812 14.525V24.6512C7.99812 24.8281 8.06837 24.9976 8.19341 25.1227C8.31845 25.2477 8.48804 25.318 8.66487 25.318H13.9989C14.1757 25.318 14.3453 25.2477 14.4703 25.1227C14.5954 24.9976 14.6656 24.8281 14.6656 24.6512V19.3172L17.3326 19.3297V24.6671C17.3326 24.8439 17.4029 25.0135 17.5279 25.1385C17.6529 25.2636 17.8225 25.3338 17.9994 25.3338L23.3333 25.3201C23.5102 25.3201 23.6798 25.2498 23.8048 25.1248C23.9298 24.9997 24.0001 24.8301 24.0001 24.6533V14.525L25.7028 15.916C25.7714 15.9717 25.8593 15.9979 25.9472 15.9889C26.0351 15.9798 26.1158 15.9362 26.1716 15.8676L26.5925 15.3505C26.6201 15.3164 26.6407 15.2771 26.6531 15.2351C26.6655 15.193 26.6695 15.1488 26.6648 15.1052C26.6601 15.0616 26.6469 15.0193 26.6258 14.9808C26.6047 14.9423 26.5763 14.9083 26.5421 14.8809ZM22.662 23.9899H22.6662L18.6657 24.0024V18.6613C18.6651 18.485 18.595 18.3161 18.4705 18.1912C18.3461 18.0663 18.1773 17.9957 18.001 17.9946L14.0005 17.9833C13.9128 17.983 13.8259 18.0001 13.7447 18.0335C13.6636 18.0669 13.5899 18.1159 13.5277 18.1779C13.4656 18.2398 13.4163 18.3134 13.3826 18.3944C13.349 18.4755 13.3317 18.5623 13.3317 18.6501V23.9899H9.33162V13.4369L15.9991 7.99584L22.6666 13.4369L22.662 23.9899Z" fill="#474747"/>
</svg>
