<svg width="32" height="32" viewBox="0 0 32 32" fill="none" xmlns="http://www.w3.org/2000/svg">
<path d="M24.3553 5.7319L22.2347 7.85247C20.4612 6.48531 18.2348 5.67264 15.8222 5.67264C10.0404 5.67687 5.32095 10.4048 5.33364 16.1908C5.34634 21.9769 10.0404 26.6667 15.8307 26.6667C18.5354 26.6667 21.003 25.6424 22.8654 23.962C23.0812 23.7673 23.0939 23.4287 22.8865 23.2255L22.586 22.925C22.3956 22.7346 22.0908 22.7261 21.8876 22.9039C20.2369 24.3895 18.1036 25.2276 15.8307 25.2276C10.8361 25.2276 6.77275 21.1812 6.77275 16.1697C6.77275 11.1751 10.8192 7.11175 15.8307 7.11175C17.7989 7.11175 19.6697 7.74242 21.2062 8.87678L18.9375 11.1455C18.0867 11.9963 18.6877 13.4565 19.894 13.4565H25.3119C26.0611 13.4565 26.6663 12.8513 26.6663 12.1021V6.68848C26.6663 5.48217 25.2018 4.88113 24.3553 5.7319ZM25.3119 12.1063H19.894L25.3119 6.68848V12.1063Z" fill="#474747"/>
</svg>
