<svg width="32" height="32" viewBox="0 0 32 32" fill="none" xmlns="http://www.w3.org/2000/svg">
<path d="M19 18.6667H23.6667C23.85 18.6667 24 18.5167 24 18.3333V17.6667C24 17.4833 23.85 17.3333 23.6667 17.3333H19C18.8167 17.3333 18.6667 17.4833 18.6667 17.6667V18.3333C18.6667 18.5167 18.8167 18.6667 19 18.6667ZM19 16H23.6667C23.85 16 24 15.85 24 15.6667V15C24 14.8167 23.85 14.6667 23.6667 14.6667H19C18.8167 14.6667 18.6667 14.8167 18.6667 15V15.6667C18.6667 15.85 18.8167 16 19 16ZM19 21.3333H23.6667C23.85 21.3333 24 21.1833 24 21V20.3333C24 20.15 23.85 20 23.6667 20H19C18.8167 20 18.6667 20.15 18.6667 20.3333V21C18.6667 21.1833 18.8167 21.3333 19 21.3333ZM12 20C13.8417 20 15.3333 18.5083 15.3333 16.6667C15.3333 14.825 13.8417 13.3333 12 13.3333C10.1583 13.3333 8.66667 14.825 8.66667 16.6667C8.66667 18.5083 10.1583 20 12 20ZM12 14.6667C13.1042 14.6667 14 15.5625 14 16.6667C14 17.7708 13.1042 18.6667 12 18.6667C10.8958 18.6667 10 17.7708 10 16.6667C10 15.5625 10.8958 14.6667 12 14.6667ZM25.3333 6.66666H6.66667C5.19583 6.66666 4 7.86249 4 9.33332V22.6667C4 24.1375 5.19583 25.3333 6.66667 25.3333H25.3333C26.8042 25.3333 28 24.1375 28 22.6667V9.33332C28 7.86249 26.8042 6.66666 25.3333 6.66666ZM15.3333 24H8.66667V23.3708C8.66667 23.0792 8.75417 22.7958 8.91667 22.5542C9.15 22.2083 9.575 22.0042 10.0542 22.0042C10.5708 22.0042 10.9208 22.2958 12.0042 22.2958C13.0833 22.2958 13.4333 22.0042 13.9542 22.0042C14.4333 22.0042 14.8583 22.2125 15.0917 22.5542C15.2542 22.7958 15.3417 23.0792 15.3417 23.3708V24H15.3333ZM26.6667 22.6667C26.6667 23.4 26.0667 24 25.3333 24H16.6667V23.3708C16.6667 22.7917 16.4917 22.2542 16.1917 21.8083C15.6875 21.0625 14.8292 20.6667 13.95 20.6667C13.1375 20.6667 12.9333 20.9583 12 20.9583C11.0667 20.9583 10.8625 20.6667 10.05 20.6667C9.16667 20.6667 8.30833 21.0583 7.80833 21.8083C7.50833 22.2542 7.33333 22.7917 7.33333 23.3708V24H6.66667C5.93333 24 5.33333 23.4 5.33333 22.6667V12H26.6667V22.6667ZM26.6667 10.6667H5.33333V9.33332C5.33333 8.59999 5.93333 7.99999 6.66667 7.99999H25.3333C26.0667 7.99999 26.6667 8.59999 26.6667 9.33332V10.6667Z" fill="#474747"/>
</svg>
