<svg width="32" height="32" viewBox="0 0 32 32" fill="none" xmlns="http://www.w3.org/2000/svg">
<path d="M24.6667 8H7.33337C6.22879 8 5.33337 8.89542 5.33337 10V22C5.33337 23.1046 6.22879 24 7.33337 24H24.6667C25.7713 24 26.6667 23.1046 26.6667 22V10C26.6667 8.89542 25.7713 8 24.6667 8ZM25.3334 22C25.3334 22.3676 25.0343 22.6667 24.6667 22.6667H7.33337C6.96579 22.6667 6.66671 22.3676 6.66671 22V10C6.66671 9.63242 6.96579 9.33333 7.33337 9.33333H24.6667C25.0343 9.33333 25.3334 9.63242 25.3334 10V22ZM10 15C11.2887 15 12.3334 13.9553 12.3334 12.6667C12.3334 11.378 11.2887 10.3333 10 10.3333C8.71137 10.3333 7.66671 11.378 7.66671 12.6667C7.66671 13.9553 8.71137 15 10 15ZM10 11.6667C10.5515 11.6667 11 12.1153 11 12.6667C11 13.2181 10.5515 13.6667 10 13.6667C9.44862 13.6667 9.00004 13.2181 9.00004 12.6667C9.00004 12.1153 9.44862 11.6667 10 11.6667ZM18.6262 12.6262L14.6667 16.5858L13.3738 15.2929C12.9833 14.9024 12.3501 14.9024 11.9596 15.2929L8.29296 18.9596C8.20009 19.0524 8.12643 19.1627 8.07617 19.284C8.02591 19.4053 8.00004 19.5353 8.00004 19.6667V20.8333C8.00004 21.1095 8.22392 21.3333 8.50004 21.3333H23.5C23.7762 21.3333 24 21.1095 24 20.8333V17C24 16.7348 23.8947 16.4804 23.7072 16.2929L20.0405 12.6262C19.65 12.2357 19.0168 12.2357 18.6262 12.6262ZM22.6667 20H9.33337V19.8048L12.6667 16.4714L14.6667 18.4714L19.3334 13.8047L22.6667 17.1381V20Z" fill="#474747"/>
</svg>
