<svg width="32" height="32" viewBox="0 0 32 32" fill="none" xmlns="http://www.w3.org/2000/svg">
<path d="M11.3334 13.3333C11.729 13.3333 12.1157 13.216 12.4446 12.9963C12.7735 12.7765 13.0298 12.4641 13.1812 12.0987C13.3325 11.7332 13.3722 11.3311 13.295 10.9431C13.2178 10.5552 13.0273 10.1988 12.7476 9.91911C12.4679 9.6394 12.1116 9.44892 11.7236 9.37175C11.3356 9.29458 10.9335 9.33419 10.568 9.48556C10.2026 9.63694 9.89024 9.89328 9.67048 10.2222C9.45071 10.5511 9.33341 10.9378 9.33341 11.3333C9.33341 11.8638 9.54413 12.3725 9.9192 12.7475C10.2943 13.1226 10.803 13.3333 11.3334 13.3333ZM11.3334 10.6667C11.4653 10.6667 11.5942 10.7058 11.7038 10.779C11.8134 10.8523 11.8989 10.9564 11.9493 11.0782C11.9998 11.2 12.013 11.3341 11.9873 11.4634C11.9615 11.5927 11.8981 11.7115 11.8048 11.8047C11.7116 11.898 11.5928 11.9615 11.4635 11.9872C11.3342 12.0129 11.2001 11.9997 11.0783 11.9492C10.9565 11.8988 10.8524 11.8133 10.7791 11.7037C10.7058 11.5941 10.6667 11.4652 10.6667 11.3333C10.6667 11.1565 10.737 10.9869 10.862 10.8619C10.987 10.7369 11.1566 10.6667 11.3334 10.6667ZM24.0001 6.66666H8.00008C7.64646 6.66666 7.30732 6.80713 7.05727 7.05718C6.80722 7.30723 6.66675 7.64637 6.66675 7.99999V24C6.66675 24.3536 6.80722 24.6927 7.05727 24.9428C7.30732 25.1928 7.64646 25.3333 8.00008 25.3333H24.0001C24.3537 25.3333 24.6928 25.1928 24.9429 24.9428C25.1929 24.6927 25.3334 24.3536 25.3334 24V7.99999C25.3334 7.64637 25.1929 7.30723 24.9429 7.05718C24.6928 6.80713 24.3537 6.66666 24.0001 6.66666ZM24.0001 24H8.00008V20.6667H24.0001V24ZM10.2167 19.3333L12.3834 16.4446L14.0501 18.6667L13.5501 19.3333H10.2167ZM15.2167 19.3333L18.3834 15.1112L21.5501 19.3333H15.2167ZM24.0001 19.3333H23.2167L18.9167 13.6004C18.6642 13.2642 18.1017 13.2642 17.8492 13.6004L14.883 17.555L12.9167 14.9337C12.6642 14.5975 12.1017 14.5975 11.8492 14.9337L8.54925 19.3333H8.00008V7.99999H24.0001V19.3333Z" fill="currentColor"/>
</svg>
