<svg width="32" height="32" viewBox="0 0 32 32" fill="none" xmlns="http://www.w3.org/2000/svg">
<path d="M15.9999 6.70969C21.1019 6.70969 25.2902 10.8419 25.2902 16C25.2902 21.1308 21.135 25.2903 15.9999 25.2903C10.8711 25.2903 6.7096 21.1371 6.7096 16C6.7096 10.873 10.8645 6.70969 15.9999 6.70969ZM15.9999 5.33334C10.1093 5.33334 5.33325 10.1111 5.33325 16C5.33325 21.8924 10.1093 26.6667 15.9999 26.6667C21.8905 26.6667 26.6666 21.8924 26.6666 16C26.6666 10.1111 21.8905 5.33334 15.9999 5.33334ZM14.4515 20.129H14.9677V14.9678H14.4515C14.1665 14.9678 13.9354 14.7367 13.9354 14.4516V14.1075C13.9354 13.8225 14.1665 13.5914 14.4515 13.5914H16.516C16.8011 13.5914 17.0322 13.8225 17.0322 14.1075V20.129H17.5483C17.8333 20.129 18.0644 20.3601 18.0644 20.6452V20.9893C18.0644 21.2743 17.8333 21.5054 17.5483 21.5054H14.4515C14.1665 21.5054 13.9354 21.2743 13.9354 20.9893V20.6452C13.9354 20.3601 14.1665 20.129 14.4515 20.129ZM15.9999 9.80646C15.2398 9.80646 14.6236 10.4227 14.6236 11.1828C14.6236 11.9429 15.2398 12.5591 15.9999 12.5591C16.76 12.5591 17.3763 11.9429 17.3763 11.1828C17.3763 10.4227 16.76 9.80646 15.9999 9.80646Z" fill="currentColor"/>
</svg>
