<svg width="32" height="32" viewBox="0 0 32 32" fill="none" xmlns="http://www.w3.org/2000/svg">
<path fill-rule="evenodd" clip-rule="evenodd" d="M24.6467 14.3219L27.6375 17.1619C27.8708 17.3831 28 17.6819 28 18.0002C28 18.3185 27.8708 18.6164 27.6367 18.8385L24.6484 21.6768C24.4817 21.8343 23.9838 22.1701 23.3617 21.9014C22.9322 21.7172 22.6663 21.3185 22.6663 20.861V18.6664H10.9999C10.8157 18.6664 10.6666 18.5173 10.6666 18.3331V17.6664C10.6666 17.4823 10.8157 17.3331 10.9999 17.3331H18.6668V11.9999H14.3344C13.7802 11.9999 13.3344 11.557 13.3344 11.0028V6.66664H5.99955C5.63289 6.66664 5.33289 6.97038 5.33289 7.33705V24.6667C5.33289 25.0334 5.63289 25.3334 5.99955 25.3334H18.0002C18.3668 25.3334 18.6668 25.0334 18.6668 24.6667V19.9997H19.9997V24.6667C19.9997 25.7705 19.1039 26.6663 18.0002 26.6663H5.99955C4.89582 26.6663 4 25.7705 4 24.6667V7.33705C4 6.23332 4.89582 5.3375 5.99955 5.33333H14.5052C15.034 5.33333 15.5423 5.54583 15.9173 5.92082L19.4122 9.41576C19.7872 9.79033 19.9997 10.3028 19.9997 10.832V17.3331H22.6663V15.1382C22.6663 14.6803 22.9322 14.2819 23.3617 14.0978C23.7963 13.9103 24.3017 13.9969 24.6467 14.3219ZM14.6677 6.69122V10.6695H18.646C18.6168 10.5528 18.5585 10.4487 18.471 10.3612L14.9761 6.86622C14.8886 6.77872 14.7844 6.72039 14.6677 6.69122ZM26.5829 17.9998L23.9997 15.5465V20.4531L26.5829 17.9998Z" fill="currentColor"/>
<path d="M11.3436 8.49994V8.83327C11.3436 9.10827 11.1186 9.33326 10.8436 9.33326H7.82285C7.54786 9.33326 7.32286 9.10827 7.32286 8.83327V8.49994C7.32286 8.22494 7.54786 7.99995 7.82285 7.99995H10.8436C11.1186 7.99995 11.3436 8.22494 11.3436 8.49994Z" fill="currentColor"/>
<path d="M11.3436 11.4791V11.1457C11.3436 10.8707 11.1186 10.6457 10.8436 10.6457H7.82285C7.54786 10.6457 7.32286 10.8707 7.32286 11.1457V11.4791C7.32286 11.7541 7.54786 11.979 7.82285 11.979H10.8436C11.1186 11.979 11.3436 11.7541 11.3436 11.4791Z" fill="currentColor"/>
<path d="M16.8123 20.5206V20.8539C16.8123 21.1289 16.5873 21.3539 16.3123 21.3539H13.2915C13.0165 21.3539 12.7915 21.1289 12.7915 20.8539V20.5206C12.7915 20.2456 13.0165 20.0206 13.2915 20.0206H16.3123C16.5873 20.0206 16.8123 20.2456 16.8123 20.5206Z" fill="currentColor"/>
</svg>
