<svg width="32" height="32" viewBox="0 0 32 32" fill="none" xmlns="http://www.w3.org/2000/svg">
<path d="M23.3334 6.66666H8.66675C7.56216 6.66666 6.66675 7.56207 6.66675 8.66666V23.3333C6.66675 24.4379 7.56216 25.3333 8.66675 25.3333H23.3334C24.438 25.3333 25.3334 24.4379 25.3334 23.3333V8.66666C25.3334 7.56207 24.438 6.66666 23.3334 6.66666ZM24.0001 23.3333C24.0001 23.7009 23.701 24 23.3334 24H8.66675C8.29916 24 8.00008 23.7009 8.00008 23.3333V8.66666C8.00008 8.29907 8.29916 7.99999 8.66675 7.99999H23.3334C23.701 7.99999 24.0001 8.29907 24.0001 8.66666V23.3333ZM14.5001 20H15.0001V15H14.5001C14.224 15 14.0001 14.7761 14.0001 14.5V14.1667C14.0001 13.8905 14.224 13.6667 14.5001 13.6667H16.5001C16.7762 13.6667 17.0001 13.8905 17.0001 14.1667V20H17.5001C17.7762 20 18.0001 20.2239 18.0001 20.5V20.8333C18.0001 21.1094 17.7762 21.3333 17.5001 21.3333H14.5001C14.224 21.3333 14.0001 21.1094 14.0001 20.8333V20.5C14.0001 20.2239 14.224 20 14.5001 20ZM16.0001 9.99999C15.2637 9.99999 14.6667 10.5969 14.6667 11.3333C14.6667 12.0697 15.2637 12.6667 16.0001 12.6667C16.7365 12.6667 17.3334 12.0697 17.3334 11.3333C17.3334 10.5969 16.7365 9.99999 16.0001 9.99999Z" fill="currentColor"/>
</svg>
