<svg width="32" height="32" viewBox="0 0 32 32" fill="none" xmlns="http://www.w3.org/2000/svg">
<path fill-rule="evenodd" clip-rule="evenodd" d="M19.3608 25.3333H7.33729C7.16013 25.3333 6.99023 25.2631 6.86496 25.1381C6.73969 25.013 6.66932 24.8435 6.66932 24.6667V7.33708C6.66932 7.16027 6.73969 6.9907 6.86496 6.86567C6.99023 6.74065 7.16013 6.67041 7.33729 6.67041H14.685V11.0037C14.6846 11.1352 14.7102 11.2654 14.7605 11.3869C14.8107 11.5084 14.8845 11.6188 14.9776 11.7117C15.0707 11.8046 15.1813 11.8783 15.303 11.9284C15.4248 11.9785 15.5552 12.0041 15.6869 12.0037L21.3647 12V10.8333C21.3638 10.302 21.1522 9.79265 20.776 9.41666L17.2734 5.92083C16.8981 5.54534 16.3887 5.33402 15.8573 5.33333H7.33729C6.80571 5.33509 6.29646 5.54688 5.92093 5.92239C5.5454 6.29789 5.33414 6.80654 5.33337 7.33708V24.6667C5.33337 25.1971 5.5445 25.7058 5.92031 26.0809C6.29611 26.4559 6.80582 26.6667 7.33729 26.6667H19.3608C19.7761 26.6657 20.1808 26.5356 20.5186 26.2945C20.8564 26.0533 21.1105 25.7132 21.2457 25.3212C20.7685 25.3114 20.2938 25.2505 19.8296 25.1396C19.7052 25.2635 19.5366 25.3332 19.3608 25.3333ZM16.0209 6.69124C16.138 6.72014 16.2449 6.78069 16.3299 6.86625L19.8325 10.3617C19.9181 10.4463 19.9788 10.5528 20.0079 10.6696H16.0209V6.69124Z" fill="currentColor"/>
<path d="M19.88 19.677L19.8827 19.6744L19.1715 18.9646C19.0411 18.8344 19.0411 18.6234 19.1715 18.4932L19.6439 18.0218C19.7743 17.8916 19.9857 17.8916 20.1162 18.0218L20.8273 18.7316L22.6549 16.9075C22.7854 16.7773 22.9968 16.7773 23.1273 16.9075L23.5996 17.3789C23.73 17.5091 23.73 17.7202 23.5996 17.8503L21.0608 20.3841C20.9304 20.5143 20.7189 20.5143 20.5885 20.3841L19.88 19.677Z" fill="currentColor"/>
<path fill-rule="evenodd" clip-rule="evenodd" d="M26.6667 18.6458C26.6667 21.5568 24.3023 23.9167 21.3856 23.9167C18.4689 23.9167 16.1044 21.5568 16.1044 18.6458C16.1044 15.7348 18.4689 13.375 21.3856 13.375C24.3023 13.375 26.6667 15.7348 26.6667 18.6458ZM21.3856 22.6667C23.6105 22.6667 25.4143 20.8665 25.4143 18.6458C25.4143 16.4252 23.6105 14.625 21.3856 14.625C19.1606 14.625 17.3569 16.4252 17.3569 18.6458C17.3569 20.8665 19.1606 22.6667 21.3856 22.6667Z" fill="currentColor"/>
<path d="M12.6915 8.49999V8.83333C12.6915 9.10833 12.4661 9.33333 12.1905 9.33333H9.16377C8.88823 9.33333 8.66279 9.10833 8.66279 8.83333V8.49999C8.66279 8.22499 8.88823 7.99999 9.16377 7.99999H12.1905C12.4661 7.99999 12.6915 8.22499 12.6915 8.49999Z" fill="currentColor"/>
<path d="M12.6915 11.4792V11.1458C12.6915 10.8708 12.4661 10.6458 12.1905 10.6458H9.16377C8.88823 10.6458 8.66279 10.8708 8.66279 11.1458V11.4792C8.66279 11.7542 8.88823 11.9792 9.16377 11.9792H12.1905C12.4661 11.9792 12.6915 11.7542 12.6915 11.4792Z" fill="currentColor"/>
<path d="M12.6915 20.8333V20.5C12.6915 20.225 12.4661 20 12.1905 20H9.16377C8.88823 20 8.66279 20.225 8.66279 20.5V20.8333C8.66279 21.1083 8.88823 21.3333 9.16377 21.3333H12.1905C12.4661 21.3333 12.6915 21.1083 12.6915 20.8333Z" fill="currentColor"/>
<path d="M12.6915 23.1458V23.4792C12.6915 23.7542 12.4661 23.9792 12.1905 23.9792H9.16377C8.88823 23.9792 8.66279 23.7542 8.66279 23.4792V23.1458C8.66279 22.8708 8.88823 22.6458 9.16377 22.6458H12.1905C12.4661 22.6458 12.6915 22.8708 12.6915 23.1458Z" fill="currentColor"/>
</svg>
