<svg width="32" height="32" viewBox="0 0 32 32" fill="none" xmlns="http://www.w3.org/2000/svg">
<path d="M29.3053 24.3512L21.9583 5.66666C21.9237 5.56894 21.8597 5.48436 21.7749 5.42464C21.6902 5.36493 21.589 5.33302 21.4854 5.33333C21.3604 5.33333 21.277 5.375 21.0066 5.47125C20.7362 5.5675 20.5974 5.81458 20.7454 6.23708C20.0595 6.64083 18.2808 7.24083 17.5995 7.33791C17.5441 7.18041 17.5162 7.06208 17.3329 6.95333V6.66666C17.3329 6.31311 17.1924 5.97404 16.9425 5.724C16.6925 5.47397 16.3535 5.33344 15.9999 5.33333H12C11.75 5.33333 11.5325 5.41958 11.3333 5.5375C11.1341 5.41958 10.9166 5.33333 10.6666 5.33333H6.66662C6.313 5.33333 5.97386 5.47381 5.72382 5.72385C5.47377 5.9739 5.33329 6.31304 5.33329 6.66666V9.89832C5.76124 9.70803 6.20819 9.56375 6.66662 9.46791V6.66666H10.6666V9.89832C11.1409 10.1126 11.5884 10.3818 12 10.7004V10.6667H15.9999V21.3333H12V21.2996C11.5884 21.6182 11.1409 21.8874 10.6666 22.1016V25.3333H6.66662V22.5321C6.20819 22.4362 5.76124 22.2919 5.33329 22.1016V25.3333C5.33329 25.6869 5.47377 26.0261 5.72382 26.2761C5.97386 26.5262 6.313 26.6666 6.66662 26.6666H10.6666C10.9166 26.6666 11.1341 26.5804 11.3333 26.4625C11.5325 26.5808 11.75 26.6666 12 26.6666H15.9999C16.3536 26.6666 16.6927 26.5262 16.9428 26.2761C17.1928 26.0261 17.3333 25.6869 17.3333 25.3333V10.2867L23.6429 26.3333C23.6777 26.4308 23.7419 26.5152 23.8265 26.5749C23.9112 26.6345 24.0122 26.6666 24.1158 26.6666C24.2408 26.6666 24.3241 26.625 24.5945 26.5287C24.8649 26.4325 25.0041 26.1858 24.8558 25.7629C25.5416 25.3591 27.3203 24.7591 28.0016 24.6621C28.1537 25.0954 28.4237 25.1891 28.6841 25.0979L28.9987 24.9879C29.1237 24.9441 29.2263 24.8524 29.2838 24.733C29.3413 24.6136 29.349 24.4763 29.3053 24.3512ZM15.9999 25.3333H12V22.6666H15.9999V25.3333ZM15.9999 9.33333H12V6.66666H15.9999V9.33333ZM24.4645 24.6475L17.9912 8.45333C19.042 8.25583 20.6579 7.60624 21.137 7.35249L27.6104 23.5462C26.5591 23.7441 24.9433 24.3933 24.4645 24.6475ZM13.3333 16C13.3333 14.9452 13.0205 13.914 12.4345 13.0369C11.8484 12.1599 11.0155 11.4763 10.0409 11.0726C9.06639 10.669 7.99404 10.5633 6.95948 10.7691C5.92491 10.9749 4.9746 11.4829 4.22872 12.2288C3.48284 12.9746 2.97489 13.9249 2.76911 14.9595C2.56332 15.9941 2.66894 17.0664 3.0726 18.041C3.47627 19.0155 4.15986 19.8485 5.03692 20.4345C5.91398 21.0205 6.94512 21.3333 7.99996 21.3333C9.41444 21.3333 10.771 20.7714 11.7712 19.7712C12.7714 18.771 13.3333 17.4145 13.3333 16ZM3.99996 16C3.99996 15.2089 4.23456 14.4355 4.67408 13.7777C5.11361 13.1199 5.73832 12.6072 6.46922 12.3045C7.20013 12.0017 8.00439 11.9225 8.78032 12.0768C9.55624 12.2312 10.269 12.6122 10.8284 13.1716C11.3878 13.731 11.7688 14.4437 11.9231 15.2196C12.0774 15.9955 11.9982 16.7998 11.6955 17.5307C11.3927 18.2616 10.88 18.8863 10.2222 19.3259C9.56444 19.7654 8.79108 20 7.99996 20C6.93909 20 5.92168 19.5786 5.17153 18.8284C4.42139 18.0783 3.99996 17.0609 3.99996 16ZM8.8887 18.4446V16.8887H10.4445C10.4737 16.8887 10.5026 16.883 10.5295 16.8718C10.5565 16.8607 10.581 16.8443 10.6016 16.8237C10.6222 16.8031 10.6386 16.7786 10.6497 16.7516C10.6609 16.7247 10.6666 16.6958 10.6666 16.6667V15.3333C10.6666 15.2744 10.6432 15.2179 10.6016 15.1763C10.5599 15.1346 10.5034 15.1112 10.4445 15.1112H8.8887V13.5554C8.8887 13.4965 8.86531 13.44 8.82366 13.3984C8.78201 13.3567 8.72552 13.3333 8.66662 13.3333H7.33329C7.27439 13.3333 7.2179 13.3567 7.17625 13.3984C7.1346 13.44 7.11121 13.4965 7.11121 13.5554V15.1112H5.55538C5.49648 15.1112 5.43999 15.1346 5.39834 15.1763C5.35669 15.2179 5.33329 15.2744 5.33329 15.3333V16.6667C5.33329 16.7256 5.35669 16.782 5.39834 16.8237C5.43999 16.8653 5.49648 16.8887 5.55538 16.8887H7.11121V18.4446C7.11121 18.5035 7.1346 18.56 7.17625 18.6016C7.2179 18.6433 7.27439 18.6666 7.33329 18.6666H8.66662C8.69579 18.6666 8.72466 18.6609 8.75161 18.6497C8.77855 18.6386 8.80304 18.6222 8.82366 18.6016C8.84428 18.581 8.86064 18.5565 8.8718 18.5296C8.88296 18.5026 8.8887 18.4737 8.8887 18.4446Z" fill="currentColor"/>
</svg>
