<svg width="32" height="32" viewBox="0 0 32 32" fill="none" xmlns="http://www.w3.org/2000/svg">
<path d="M22.6667 6.99996V7.66663C22.6667 7.75503 22.6316 7.83982 22.5691 7.90233C22.5066 7.96484 22.4218 7.99996 22.3334 7.99996H18.6875L14.6875 24H18.3334C18.4218 24 18.5066 24.0351 18.5691 24.0976C18.6316 24.1601 18.6667 24.2449 18.6667 24.3333V25C18.6667 25.0884 18.6316 25.1731 18.5691 25.2357C18.5066 25.2982 18.4218 25.3333 18.3334 25.3333H9.66671C9.5783 25.3333 9.49352 25.2982 9.43101 25.2357C9.36849 25.1731 9.33337 25.0884 9.33337 25V24.3333C9.33337 24.2449 9.36849 24.1601 9.43101 24.0976C9.49352 24.0351 9.5783 24 9.66671 24H13.3125L17.3125 7.99996H13.6667C13.5783 7.99996 13.4935 7.96484 13.431 7.90233C13.3685 7.83982 13.3334 7.75503 13.3334 7.66663V6.99996C13.3334 6.91155 13.3685 6.82677 13.431 6.76426C13.4935 6.70174 13.5783 6.66663 13.6667 6.66663H22.3334C22.4218 6.66663 22.5066 6.70174 22.5691 6.76426C22.6316 6.82677 22.6667 6.91155 22.6667 6.99996Z" fill="#474747"/>
</svg>
