<svg width="32" height="32" viewBox="0 0 32 32" fill="none" xmlns="http://www.w3.org/2000/svg">
<path d="M26 8H6C4.89542 8 4 8.89542 4 10V22C4 23.1046 4.89542 24 6 24H26C27.1046 24 28 23.1046 28 22V10C28 8.89542 27.1046 8 26 8ZM26.6667 22C26.6667 22.3676 26.3676 22.6667 26 22.6667H6C5.63238 22.6667 5.33333 22.3676 5.33333 22V10C5.33333 9.63238 5.63238 9.33333 6 9.33333H26C26.3676 9.33333 26.6667 9.63238 26.6667 10V22ZM11 16.5V15.5C11 15.2239 10.7761 15 10.5 15H9.5C9.22388 15 9 15.2239 9 15.5V16.5C9 16.7761 9.22388 17 9.5 17H10.5C10.7761 17 11 16.7761 11 16.5ZM15 16.5V15.5C15 15.2239 14.7761 15 14.5 15H13.5C13.2239 15 13 15.2239 13 15.5V16.5C13 16.7761 13.2239 17 13.5 17H14.5C14.7761 17 15 16.7761 15 16.5ZM19 16.5V15.5C19 15.2239 18.7761 15 18.5 15H17.5C17.2239 15 17 15.2239 17 15.5V16.5C17 16.7761 17.2239 17 17.5 17H18.5C18.7761 17 19 16.7761 19 16.5ZM23 16.5V15.5C23 15.2239 22.7761 15 22.5 15H21.5C21.2239 15 21 15.2239 21 15.5V16.5C21 16.7761 21.2239 17 21.5 17H22.5C22.7761 17 23 16.7761 23 16.5ZM9 19.8333V18.8333C9 18.5572 8.77612 18.3333 8.5 18.3333H7.5C7.22388 18.3333 7 18.5572 7 18.8333V19.8333C7 20.1095 7.22388 20.3333 7.5 20.3333H8.5C8.77612 20.3333 9 20.1095 9 19.8333ZM25 19.8333V18.8333C25 18.5572 24.7761 18.3333 24.5 18.3333H23.5C23.2239 18.3333 23 18.5572 23 18.8333V19.8333C23 20.1095 23.2239 20.3333 23.5 20.3333H24.5C24.7761 20.3333 25 20.1095 25 19.8333ZM9 13.1667V12.1667C9 11.8905 8.77612 11.6667 8.5 11.6667H7.5C7.22388 11.6667 7 11.8905 7 12.1667V13.1667C7 13.4428 7.22388 13.6667 7.5 13.6667H8.5C8.77612 13.6667 9 13.4428 9 13.1667ZM13 13.1667V12.1667C13 11.8905 12.7761 11.6667 12.5 11.6667H11.5C11.2239 11.6667 11 11.8905 11 12.1667V13.1667C11 13.4428 11.2239 13.6667 11.5 13.6667H12.5C12.7761 13.6667 13 13.4428 13 13.1667ZM17 13.1667V12.1667C17 11.8905 16.7761 11.6667 16.5 11.6667H15.5C15.2239 11.6667 15 11.8905 15 12.1667V13.1667C15 13.4428 15.2239 13.6667 15.5 13.6667H16.5C16.7761 13.6667 17 13.4428 17 13.1667ZM21 13.1667V12.1667C21 11.8905 20.7761 11.6667 20.5 11.6667H19.5C19.2239 11.6667 19 11.8905 19 12.1667V13.1667C19 13.4428 19.2239 13.6667 19.5 13.6667H20.5C20.7761 13.6667 21 13.4428 21 13.1667ZM25 13.1667V12.1667C25 11.8905 24.7761 11.6667 24.5 11.6667H23.5C23.2239 11.6667 23 11.8905 23 12.1667V13.1667C23 13.4428 23.2239 13.6667 23.5 13.6667H24.5C24.7761 13.6667 25 13.4428 25 13.1667ZM21 19.5V19.1667C21 18.8905 20.7761 18.6667 20.5 18.6667H11.5C11.2239 18.6667 11 18.8905 11 19.1667V19.5C11 19.7761 11.2239 20 11.5 20H20.5C20.7761 20 21 19.7761 21 19.5Z" fill="#474747"/>
</svg>
