<svg width="32" height="32" viewBox="0 0 32 32" fill="none" xmlns="http://www.w3.org/2000/svg">
<path d="M26.6667 16.0006C26.6667 15.5847 26.4246 15.2114 26.0513 15.0501L21.8955 13.2472L26.0496 11.4447C26.4246 11.2826 26.6667 10.9097 26.6667 10.4943C26.6667 10.0789 26.4246 9.70597 26.0513 9.54472L16.6642 5.47222C16.2434 5.28722 15.7596 5.2868 15.3363 5.47138L5.95046 9.5443C5.57546 9.70638 5.33337 10.0793 5.33337 10.4947C5.33337 10.9101 5.57546 11.2831 5.94879 11.4443L10.1042 13.2476L5.95004 15.0501C5.57546 15.2118 5.33337 15.5847 5.33337 16.0006C5.33337 16.416 5.57546 16.7889 5.94879 16.9501L10.1038 18.7526L5.95004 20.5547C5.57546 20.7172 5.33337 21.0901 5.33337 21.506C5.33337 21.9214 5.57546 22.2943 5.94879 22.4556L15.3371 26.5289C15.5462 26.6196 15.7717 26.6665 15.9996 26.6668C16.2255 26.6668 16.4513 26.621 16.6621 26.5289L26.0492 22.4564C26.4242 22.2943 26.6663 21.9214 26.6663 21.506C26.6663 21.0901 26.4242 20.7168 26.0509 20.5555L21.8959 18.7531L26.0496 16.951C26.4246 16.7889 26.6667 16.416 26.6667 16.0006ZM7.21796 10.4947L15.8859 6.73388L15.8871 6.73305C15.9596 6.70347 16.0392 6.70138 16.1142 6.73388L24.7821 10.4947L16.1142 14.256C16.0388 14.2881 15.9584 14.2881 15.8859 14.256L7.21796 10.4947ZM24.7821 21.506L16.1142 25.2668C16.0388 25.2989 15.9584 25.2989 15.8859 25.2668L7.21796 21.5056L11.833 19.5031L15.3375 21.0235C15.5466 21.1142 15.7721 21.1611 16 21.1614C16.2259 21.1614 16.4517 21.1156 16.6625 21.0235L20.1671 19.5031L24.7821 21.506ZM16.1142 19.7614C16.0388 19.7935 15.9584 19.7935 15.8859 19.7614L7.21796 16.0001L11.8334 13.9976L15.3375 15.5185C15.5466 15.6092 15.7721 15.6561 16 15.6564C16.2259 15.6564 16.4517 15.6106 16.6625 15.5185L20.1667 13.9981L24.7821 16.001L16.1142 19.7614Z" fill="#474747"/>
</svg>
