<svg width="32" height="32" viewBox="0 0 32 32" fill="none" xmlns="http://www.w3.org/2000/svg">
<path d="M17.8812 21.7793L14.5812 25.0789C12.4655 27.1955 9.03801 27.1965 6.92123 25.0789C4.80461 22.9631 4.80357 19.5357 6.92123 17.4189L10.2208 14.1189C10.269 14.0707 10.318 14.0235 10.368 13.9771C10.6825 13.6852 11.1927 13.8936 11.21 14.3224C11.218 14.5227 11.2349 14.7227 11.2606 14.9217C11.2807 15.0766 11.2295 15.232 11.1191 15.3424C10.4324 16.0286 7.98818 18.4727 7.9816 18.4793C6.45085 20.0109 6.45115 22.4871 7.9816 24.0184C9.51321 25.5491 11.9894 25.5489 13.5207 24.0184L16.8207 20.7184L16.8357 20.7034C18.3483 19.1754 18.3416 16.7005 16.8203 15.1793C16.4781 14.837 16.0879 14.5718 15.6709 14.3831C15.4807 14.297 15.3615 14.1053 15.3737 13.8968C15.3862 13.6808 15.4258 13.4672 15.4914 13.261C15.5791 12.986 15.8886 12.846 16.1547 12.9577C16.7828 13.2212 17.3708 13.6085 17.8812 14.1189C19.9932 16.2309 19.9928 19.6676 17.8812 21.7793ZM14.1189 17.8812C14.6292 18.3916 15.2173 18.7789 15.8453 19.0424C16.1115 19.154 16.421 19.014 16.5086 18.739C16.5742 18.5329 16.6138 18.3193 16.6263 18.1033C16.6385 17.8948 16.5193 17.7031 16.3291 17.617C15.9121 17.4283 15.522 17.1631 15.1797 16.8208C13.6585 15.2996 13.6518 12.8247 15.1643 11.2967L15.1793 11.2817L18.4793 7.98168C20.0106 6.45123 22.4868 6.45094 24.0184 7.98168C25.5489 9.51301 25.5492 11.9892 24.0184 13.5208C24.0119 13.5274 21.5677 15.9715 20.881 16.6577C20.7705 16.7681 20.7194 16.9235 20.7394 17.0784C20.7651 17.2773 20.782 17.4773 20.7901 17.6777C20.8073 18.1065 21.3175 18.3148 21.6321 18.023C21.682 17.9766 21.7311 17.9294 21.7792 17.8812L25.0788 14.5812C27.1965 12.4644 27.1954 9.03697 25.0788 6.92123C22.9621 4.80357 19.5346 4.80461 17.4188 6.92123L14.1189 10.2208C12.0072 12.3325 12.0069 15.7692 14.1189 17.8812Z" fill="#474747"/>
</svg>
