<svg width="32" height="32" viewBox="0 0 32 32" fill="none" xmlns="http://www.w3.org/2000/svg">
<path d="M19.6262 10.8132L19.3316 11.1077C19.1363 11.303 19.1363 11.6196 19.3316 11.8149L22.8286 15.2917H7.16663C6.8905 15.2917 6.66663 15.5156 6.66663 15.7917V16.2084C6.66663 16.4845 6.8905 16.7084 7.16663 16.7084H22.8286L19.3316 20.1852C19.1363 20.3805 19.1363 20.697 19.3316 20.8923L19.6262 21.1869C19.8215 21.3822 20.1381 21.3822 20.3333 21.1869L25.1869 16.3536C25.3821 16.1583 25.3821 15.8417 25.1869 15.6465L20.3333 10.8132C20.1381 10.6179 19.8215 10.6179 19.6262 10.8132Z" fill="currentColor"/>
</svg>
