<svg width="32" height="32" viewBox="0 0 32 32" fill="none" xmlns="http://www.w3.org/2000/svg">
<path d="M12.3737 21.1869L12.6683 20.8923C12.8636 20.6971 12.8636 20.3805 12.6683 20.1852L9.17132 16.7083H24.8333C25.1094 16.7083 25.3333 16.4845 25.3333 16.2083V15.7917C25.3333 15.5155 25.1094 15.2917 24.8333 15.2917H9.17132L12.6683 11.8148C12.8636 11.6196 12.8636 11.303 12.6683 11.1077L12.3737 10.8131C12.1784 10.6179 11.8619 10.6179 11.6666 10.8131L6.81306 15.6465C6.61781 15.8417 6.61781 16.1583 6.81306 16.3536L11.6666 21.1869C11.8619 21.3822 12.1784 21.3822 12.3737 21.1869Z" fill="currentColor"/>
</svg>
