<svg width="32" height="32" viewBox="0 0 32 32" fill="none" xmlns="http://www.w3.org/2000/svg">
<path d="M21.1868 19.6263L20.8922 19.3317C20.697 19.1364 20.3804 19.1364 20.1851 19.3317L16.7083 22.8287V7.16669C16.7083 6.89056 16.4844 6.66669 16.2083 6.66669H15.7916C15.5155 6.66669 15.2916 6.89056 15.2916 7.16669V22.8287L11.8148 19.3317C11.6195 19.1364 11.3029 19.1364 11.1076 19.3317L10.8131 19.6263C10.6178 19.8215 10.6178 20.1381 10.8131 20.3334L15.6464 25.1869C15.8417 25.3822 16.1582 25.3822 16.3535 25.1869L21.1869 20.3334C21.3821 20.1381 21.3821 19.8215 21.1868 19.6263Z" fill="#474747"/>
</svg>
