<svg width="32" height="32" viewBox="0 0 32 32" fill="none" xmlns="http://www.w3.org/2000/svg">
<path d="M10.8131 12.3738L11.1077 12.6684C11.3029 12.8636 11.6195 12.8636 11.8148 12.6684L15.2916 9.17138V24.8334C15.2916 25.1095 15.5155 25.3334 15.7916 25.3334H16.2083C16.4844 25.3334 16.7083 25.1095 16.7083 24.8334V9.17138L20.1851 12.6684C20.3804 12.8636 20.697 12.8636 20.8923 12.6684L21.1869 12.3738C21.3821 12.1785 21.3821 11.8619 21.1869 11.6667L16.3535 6.81312C16.1583 6.61787 15.8417 6.61787 15.6464 6.81312L10.8131 11.6667C10.6178 11.8619 10.6178 12.1785 10.8131 12.3738Z" fill="currentColor"/>
</svg>
