<svg width="32" height="32" viewBox="0 0 32 32" fill="none" xmlns="http://www.w3.org/2000/svg">
<path d="M16 9.33333C13.7944 9.33333 12 11.1277 12 13.3333C12 15.539 13.7944 17.3333 16 17.3333C18.2056 17.3333 20 15.539 20 13.3333C20 11.1277 18.2056 9.33333 16 9.33333ZM16 16C14.5296 16 13.3333 14.8037 13.3333 13.3333C13.3333 11.8629 14.5296 10.6667 16 10.6667C17.4704 10.6667 18.6667 11.8629 18.6667 13.3333C18.6667 14.8037 17.4704 16 16 16ZM16 5.33333C11.5817 5.33333 8 8.91504 8 13.3333C8 16.5589 9.12375 17.4596 15.1778 26.2362C15.5751 26.8101 16.4249 26.8102 16.8222 26.2362C22.8763 17.4596 24 16.5589 24 13.3333C24 8.91504 20.4183 5.33333 16 5.33333ZM16 25.0805C10.196 16.687 9.33333 16.0206 9.33333 13.3333C9.33333 11.5526 10.0268 9.87845 11.286 8.61929C12.5451 7.36012 14.2193 6.66666 16 6.66666C17.7808 6.66666 19.4549 7.36012 20.714 8.61929C21.9732 9.87845 22.6667 11.5526 22.6667 13.3333C22.6667 16.0204 21.8045 16.6862 16 25.0805Z" fill="#474747"/>
</svg>
