<svg width="32" height="32" viewBox="0 0 32 32" fill="none" xmlns="http://www.w3.org/2000/svg">
<path d="M14.0421 16.1097L11.0959 19.056C10.9657 19.1861 10.9657 19.3972 11.0959 19.5274L14.0421 22.4737C14.1723 22.6039 14.3834 22.6039 14.5135 22.4737L14.9849 22.0023C15.1151 21.8722 15.1151 21.6611 14.9849 21.5309L12.7457 19.2917L14.9849 17.0525C15.1151 16.9223 15.1151 16.7113 14.9849 16.5811L14.5135 16.1097C14.3834 15.9795 14.1723 15.9795 14.0421 16.1097Z" fill="#474747"/>
<path d="M17.9577 16.1097L20.904 19.056C21.0341 19.1861 21.0342 19.3972 20.904 19.5274L17.9577 22.4737C17.8275 22.6039 17.6165 22.6039 17.4863 22.4737L17.0149 22.0023C16.8847 21.8722 16.8847 21.6611 17.0149 21.5309L19.2541 19.2917L17.0149 17.0525C16.8847 16.9223 16.8847 16.7113 17.0149 16.5811L17.4863 16.1097C17.6165 15.9795 17.8275 15.9795 17.9577 16.1097Z" fill="#474747"/>
<path d="M7.99992 10.6667C7.99992 11.4042 8.59575 12 9.33325 12C10.0708 12 10.6666 11.4042 10.6666 10.6667C10.6666 9.92917 10.0708 9.33334 9.33325 9.33334C8.59575 9.33334 7.99992 9.92917 7.99992 10.6667Z" fill="#474747"/>
<path d="M13.3333 9.33334C14.0708 9.33334 14.6666 9.92917 14.6666 10.6667C14.6666 11.4042 14.0708 12 13.3333 12C12.5958 12 11.9999 11.4042 11.9999 10.6667C11.9999 9.92917 12.5958 9.33334 13.3333 9.33334Z" fill="#474747"/>
<path d="M17.3333 9.33334C18.0708 9.33334 18.6666 9.92917 18.6666 10.6667C18.6666 11.4042 18.0708 12 17.3333 12C16.5958 12 15.9999 11.4042 15.9999 10.6667C15.9999 9.92917 16.5958 9.33334 17.3333 9.33334Z" fill="#474747"/>
<path fill-rule="evenodd" clip-rule="evenodd" d="M26.6666 23.3333V8.66667C26.6666 7.56251 25.7708 6.66667 24.6666 6.66667H7.33325C6.22909 6.66667 5.33325 7.56251 5.33325 8.66667V23.3333C5.33325 24.4375 6.22909 25.3333 7.33325 25.3333H24.6666C25.7708 25.3333 26.6666 24.4375 26.6666 23.3333ZM6.66659 23.3333V14.6667H25.3333V23.3333C25.3333 23.7 25.0333 24 24.6666 24H7.33325C6.96659 24 6.66659 23.7 6.66659 23.3333ZM25.3333 8.66667V13.3333H6.66659V8.66667C6.66659 8.30001 6.96659 8.00001 7.33325 8.00001H24.6666C25.0333 8.00001 25.3333 8.30001 25.3333 8.66667Z" fill="#474747"/>
</svg>
