<svg width="32" height="32" viewBox="0 0 32 32" fill="none" xmlns="http://www.w3.org/2000/svg">
<path d="M17.8488 16.8088L17.0258 15.14C16.6325 14.3563 15.3629 14.3542 14.9725 15.1434L14.1508 16.8088L12.315 17.0771C11.88 17.1396 11.5258 17.4384 11.3892 17.8563C11.2537 18.2738 11.3646 18.7242 11.6796 19.03L13.0092 20.3254L12.6942 22.1555C12.5312 23.103 13.5379 23.8013 14.3554 23.3625L16 22.4988L17.6433 23.3621C18.4496 23.7842 19.4713 23.1171 19.3063 22.1559L18.9913 20.3259L20.3208 19.0304C20.6358 18.7246 20.7467 18.2738 20.6113 17.8567C20.4746 17.4388 20.1204 17.1404 19.6867 17.0775L17.8488 16.8088ZM17.5588 19.8609L17.9271 22.0046L16 20.9921L14.0692 22.03L14.4417 19.8609L12.8829 18.3413L15.0367 18.0275L16 16.0742L16.9633 18.0275L19.1171 18.3413L17.5588 19.8609ZM27.3321 5.33333H20.755C20.2867 5.33333 19.8525 5.57916 19.6117 5.98083L16 12L12.3883 5.98083C12.2699 5.78335 12.1023 5.61992 11.902 5.50645C11.7016 5.39297 11.4753 5.33333 11.245 5.33333H4.66789C4.1283 5.33333 3.81247 5.94041 4.12164 6.3825L10.1267 14.9609C9.21415 16.1834 8.66665 17.6938 8.66665 19.3334C8.66665 23.3771 11.9562 26.6667 16 26.6667C20.0438 26.6667 23.3334 23.3771 23.3334 19.3334C23.3334 17.6938 22.7859 16.1834 21.8733 14.9609L27.8784 6.3825C28.1875 5.94041 27.8717 5.33333 27.3321 5.33333ZM5.94831 6.66666H11.245L14.5337 12.1479C13.2025 12.4192 12.0067 13.0579 11.0429 13.945L5.94831 6.66666ZM22 19.3334C22 22.6471 19.3138 25.3334 16 25.3334C12.6862 25.3334 9.99999 22.6471 9.99999 19.3334C9.99999 16.0196 12.6862 13.3333 16 13.3333C19.3138 13.3333 22 16.0196 22 19.3334ZM20.9571 13.945C19.9933 13.0579 18.7975 12.4192 17.4663 12.1479L20.755 6.66666H26.0517L20.9571 13.945Z" fill="#474747"/>
</svg>
