<svg width="32" height="32" viewBox="0 0 32 32" fill="none" xmlns="http://www.w3.org/2000/svg">
<path d="M17.0012 16.6666H11.0019C10.8186 16.6666 10.6687 16.8166 10.6687 16.9999V17.6665C10.6687 17.8498 10.8186 17.9997 11.0019 17.9997H17.0012C17.1845 17.9997 17.3345 17.8498 17.3345 17.6665V16.9999C17.3345 16.8166 17.1845 16.6666 17.0012 16.6666ZM21.0007 12.6671H11.0019C10.8186 12.6671 10.6687 12.8171 10.6687 13.0004V13.667C10.6687 13.8503 10.8186 14.0003 11.0019 14.0003H21.0007C21.184 14.0003 21.3339 13.8503 21.3339 13.667V13.0004C21.3339 12.8171 21.184 12.6671 21.0007 12.6671ZM16.0013 6.66788C10.1104 6.66788 5.33602 10.5465 5.33602 15.3334C5.33602 17.3165 6.16508 19.1329 7.5399 20.5952C6.91915 22.2367 5.62765 23.6282 5.60682 23.6448C5.33185 23.9365 5.25686 24.3614 5.41517 24.728C5.57349 25.0947 5.93594 25.3321 6.33589 25.3321C8.89806 25.3321 10.9186 24.2614 12.131 23.4032C13.335 23.7823 14.6348 23.999 16.0013 23.999C21.8922 23.999 26.6666 20.1203 26.6666 15.3334C26.6666 10.5465 21.8922 6.66788 16.0013 6.66788ZM16.0013 22.6658C14.8223 22.6658 13.6558 22.4867 12.5351 22.1325L11.9018 21.9326L11.3602 22.3158C10.402 22.9949 8.92305 23.7865 7.08579 23.9656C7.58573 23.3365 8.3273 22.2825 8.78557 21.066L9.08137 20.2869L8.51061 19.6787C7.30659 18.4039 6.66918 16.8999 6.66918 15.3334C6.66918 11.2923 10.8561 8.00104 16.0013 8.00104C21.1465 8.00104 25.3334 11.2923 25.3334 15.3334C25.3334 19.3746 21.1465 22.6658 16.0013 22.6658Z" fill="currentColor"/>
</svg>
