<svg width="32" height="32" viewBox="0 0 32 32" fill="none" xmlns="http://www.w3.org/2000/svg">
<path d="M23.3333 8C23.7 8 24 8.3 24 8.66666V23.3333C24 23.7 23.7 24 23.3333 24H8.66663C8.29996 24 7.99996 23.7 7.99996 23.3333V8.66666C7.99996 8.3 8.29996 8 8.66663 8H23.3333ZM23.3333 6.66666H8.66663C7.56246 6.66666 6.66663 7.5625 6.66663 8.66666V23.3333C6.66663 24.4375 7.56246 25.3333 8.66663 25.3333H23.3333C24.4375 25.3333 25.3333 24.4375 25.3333 23.3333V8.66666C25.3333 7.5625 24.4375 6.66666 23.3333 6.66666ZM20.8333 16.75C21.1083 16.75 21.3333 16.525 21.3333 16.25V15.75C21.3333 15.475 21.1083 15.25 20.8333 15.25H11.1666C10.8916 15.25 10.6666 15.475 10.6666 15.75V16.25C10.6666 16.525 10.8916 16.75 11.1666 16.75H20.8333Z" fill="#474747"/>
</svg>
