<svg width="32" height="32" viewBox="0 0 32 32" fill="none" xmlns="http://www.w3.org/2000/svg">
<path d="M17.3334 22.6667C17.3334 23.4042 16.7375 24 16 24C15.2625 24 14.6667 23.4042 14.6667 22.6667C14.6667 21.9292 15.2625 21.3333 16 21.3333C16.7375 21.3333 17.3334 21.9292 17.3334 22.6667ZM18.6667 9.33334H13.3334V19.3333H18.6667V9.33334ZM19.5 8C19.775 8 20 8.225 20 8.5V20.1667C20 20.4417 19.775 20.6667 19.5 20.6667H12.5C12.225 20.6667 12 20.4417 12 20.1667V8.5C12 8.225 12.225 8 12.5 8H19.5ZM22.6667 7.33334V24.6667C22.6667 25.7708 21.7709 26.6667 20.6667 26.6667H11.3334C10.2292 26.6667 9.33337 25.7708 9.33337 24.6667V7.33334C9.33337 6.22917 10.2292 5.33334 11.3334 5.33334H20.6667C21.7709 5.33334 22.6667 6.22917 22.6667 7.33334ZM21.3334 7.33334C21.3334 6.96667 21.0334 6.66667 20.6667 6.66667H11.3334C10.9667 6.66667 10.6667 6.96667 10.6667 7.33334V24.6667C10.6667 25.0333 10.9667 25.3333 11.3334 25.3333H20.6667C21.0334 25.3333 21.3334 25.0333 21.3334 24.6667V7.33334Z" fill="currentColor"/>
</svg>
