<svg width="32" height="32" viewBox="0 0 32 32" fill="none" xmlns="http://www.w3.org/2000/svg">
<path d="M25.9412 12.1884C25.8587 12.1205 25.0166 11.4421 23.9999 10.6246V9.33337C23.9999 8.59712 23.4028 8.00004 22.6666 8.00004H20.7303C20.5583 7.86212 20.4091 7.74337 20.3053 7.66087C19.3845 6.92462 17.8099 5.33337 15.9999 5.33337C14.1995 5.33337 12.6399 6.90504 11.6941 7.66087C11.5887 7.74462 11.4399 7.86379 11.2691 8.00004H9.33325C8.597 8.00004 7.99992 8.59712 7.99992 9.33337V10.6242C6.97825 11.4455 6.13534 12.1246 6.06325 12.1838C5.83507 12.3714 5.65126 12.6072 5.52504 12.8742C5.39882 13.1413 5.33332 13.433 5.33325 13.7284V24.6667C5.33325 25.7713 6.22867 26.6667 7.33325 26.6667H24.6666C25.7712 26.6667 26.6666 25.7713 26.6666 24.6667V13.7296C26.6666 13.1334 26.4008 12.568 25.9412 12.1884ZM15.9999 6.66671C16.907 6.66671 17.8599 7.36337 18.6308 8.00004H13.3708C14.1428 7.36379 15.0966 6.66671 15.9999 6.66671ZM9.33325 9.33337H22.6666V16.5563C21.3195 17.6396 19.9458 18.7413 19.0587 19.4455C18.3566 20.005 16.9674 21.3488 15.9999 21.3334C15.0328 21.3492 13.6433 20.005 12.9412 19.445C12.0541 18.7409 10.6812 17.6396 9.33325 16.5559V9.33337ZM6.66659 13.7284C6.66659 13.5284 6.75534 13.3405 6.90992 13.2134C6.96159 13.1709 7.39409 12.8225 7.99992 12.335V15.483C7.5195 15.0963 7.062 14.7275 6.66659 14.4088V13.7284ZM25.3333 24.6667C25.3333 25.0342 25.0341 25.3334 24.6666 25.3334H7.33325C6.96575 25.3334 6.66659 25.0342 6.66659 24.6667V16.1213C8.44784 17.5563 10.8045 19.4513 12.1116 20.4888C12.9653 21.1705 14.4758 22.6775 15.9999 22.6663C17.5187 22.6771 19.0112 21.1888 19.8878 20.4888C21.1966 19.45 23.5516 17.5559 25.3333 16.1209V24.6667ZM25.3333 14.4088C24.9324 14.7317 24.4887 15.0896 23.9999 15.4834V12.3359C24.6016 12.82 25.0333 13.168 25.0916 13.2159C25.2453 13.343 25.3333 13.53 25.3333 13.7296V14.4088ZM14.8712 15.3575L16.7462 15.92C16.9612 15.9846 17.1116 16.2025 17.1116 16.4505C17.1116 16.7534 16.8908 17 16.6199 17H15.4487C15.2587 17 15.0753 16.9463 14.9145 16.845C14.7795 16.7605 14.6078 16.7655 14.4924 16.8755L14.0028 17.3425C13.8558 17.483 13.8641 17.7263 14.0266 17.8484C14.4058 18.133 14.8633 18.2971 15.3337 18.3213V19C15.3337 19.1842 15.4828 19.3334 15.667 19.3334H16.3337C16.5178 19.3334 16.667 19.1842 16.667 19V18.3284C17.6512 18.3021 18.4449 17.4725 18.4449 16.4505C18.4449 15.6184 17.9041 14.875 17.1291 14.6425L15.2541 14.08C15.0391 14.0155 14.8887 13.7975 14.8887 13.5496C14.8887 13.2467 15.1095 13 15.3803 13H16.5516C16.7416 13 16.9249 13.0538 17.0858 13.155C17.2208 13.2396 17.3924 13.2346 17.5078 13.1246L17.9974 12.6575C18.1445 12.5171 18.1362 12.2738 17.9737 12.1517C17.5945 11.8671 17.137 11.703 16.6666 11.6788V11C16.6666 10.8159 16.5174 10.6667 16.3333 10.6667H15.6666C15.4824 10.6667 15.3333 10.8159 15.3333 11V11.6717C14.3491 11.698 13.5553 12.528 13.5553 13.5496C13.5553 14.3817 14.0962 15.125 14.8712 15.3575Z" fill="#474747"/>
</svg>
