<svg width="32" height="32" viewBox="0 0 32 32" fill="none" xmlns="http://www.w3.org/2000/svg">
<path d="M20.3847 22.2705C20.5088 22.396 20.6565 22.4956 20.8194 22.5636C20.9822 22.6316 21.1569 22.6667 21.3334 22.6668H24.0001C24.3537 22.6668 24.6928 22.5263 24.9429 22.2763C25.1929 22.0262 25.3334 21.6871 25.3334 21.3335V18.6668C25.3334 18.4904 25.2985 18.3158 25.2305 18.153C25.1626 17.9902 25.063 17.8425 24.9376 17.7185L12.9451 5.83638C12.7858 5.67689 12.5967 5.55035 12.3885 5.46402C12.1803 5.37769 11.9571 5.33325 11.7317 5.33325C11.5064 5.33325 11.2832 5.37769 11.075 5.46402C10.8668 5.55035 10.6777 5.67689 10.5184 5.83638L8.50258 7.85305C8.34232 8.01429 8.21544 8.20556 8.12921 8.41591C8.04299 8.62625 7.9991 8.85155 8.00008 9.07888C8.00049 9.30514 8.0462 9.52902 8.13451 9.73734C8.22281 9.94565 8.35193 10.1342 8.51425 10.2918L20.3847 22.2705ZM14.7276 9.50013L24.0001 18.6668V21.3335H21.3334L12.1709 12.0585L14.7276 9.50013ZM9.4455 8.79555L11.4617 6.77888C11.4974 6.74327 11.5398 6.71504 11.5864 6.6958C11.633 6.67657 11.683 6.66672 11.7334 6.6668C11.7834 6.66662 11.833 6.67644 11.8791 6.69569C11.9253 6.71494 11.9671 6.74322 12.0022 6.77888L13.8576 8.63472L11.3009 11.1922L9.4455 9.33638C9.3738 9.26465 9.33352 9.16739 9.33352 9.06597C9.33352 8.96455 9.3738 8.86728 9.4455 8.79555ZM12.0001 22.3335C12.0001 22.4219 12.0352 22.5067 12.0977 22.5692C12.1602 22.6317 12.245 22.6668 12.3334 22.6668H18.9005L17.5792 21.3335H12.3334C12.245 21.3335 12.1602 21.3686 12.0977 21.4311C12.0352 21.4936 12.0001 21.5784 12.0001 21.6668V22.3335ZM12.3334 18.6668H14.9372L13.6159 17.3335H12.3334C12.245 17.3335 12.1602 17.3686 12.0977 17.4311C12.0352 17.4936 12.0001 17.5784 12.0001 17.6668V18.3335C12.0001 18.4219 12.0352 18.5067 12.0977 18.5692C12.1602 18.6317 12.245 18.6668 12.3334 18.6668ZM28.0001 10.6668H19.7147L21.0605 12.0001H28.0001V25.3335H4.00008V12.0001H8.33341L7.58341 11.2451C7.40971 11.0713 7.25764 10.8771 7.1305 10.6668H4.00008C3.64646 10.6668 3.30732 10.8073 3.05727 11.0573C2.80722 11.3074 2.66675 11.6465 2.66675 12.0001L2.66675 25.3335C2.66675 25.6871 2.80722 26.0262 3.05727 26.2763C3.30732 26.5263 3.64646 26.6668 4.00008 26.6668H28.0001C28.3537 26.6668 28.6928 26.5263 28.9429 26.2763C29.1929 26.0262 29.3334 25.6871 29.3334 25.3335V12.0001C29.3334 11.6465 29.1929 11.3074 28.9429 11.0573C28.6928 10.8073 28.3537 10.6668 28.0001 10.6668ZM8.33341 23.0001H9.00008C9.08849 23.0001 9.17327 22.965 9.23578 22.9025C9.2983 22.84 9.33341 22.7552 9.33341 22.6668V21.9951C10.3176 21.9689 11.1113 21.1393 11.1113 20.1172C11.1113 19.2839 10.5697 18.5418 9.7955 18.3093L7.9205 17.7468C7.7055 17.6826 7.55508 17.4643 7.55508 17.2164C7.55508 16.9135 7.7755 16.6668 8.04633 16.6668H9.21758C9.40671 16.6669 9.59193 16.7207 9.75175 16.8218C9.81531 16.8648 9.8915 16.8852 9.96806 16.8797C10.0446 16.8742 10.1171 16.8431 10.1738 16.7914L10.6634 16.3243C10.6985 16.2913 10.7259 16.2512 10.744 16.2066C10.762 16.162 10.7702 16.114 10.7679 16.0659C10.7657 16.0179 10.7531 15.9709 10.7309 15.9281C10.7088 15.8854 10.6776 15.848 10.6397 15.8185C10.2609 15.5345 9.80616 15.3698 9.33341 15.3455V14.6668C9.33341 14.5784 9.2983 14.4936 9.23578 14.4311C9.17327 14.3686 9.08849 14.3335 9.00008 14.3335H8.33341C8.24501 14.3335 8.16022 14.3686 8.09771 14.4311C8.0352 14.4936 8.00008 14.5784 8.00008 14.6668V15.3385C7.01591 15.3647 6.22216 16.1947 6.22216 17.2164C6.22216 18.0497 6.76383 18.7918 7.538 19.0243L9.413 19.5868C9.628 19.651 9.77841 19.8693 9.77841 20.1172C9.77841 20.4201 9.558 20.6668 9.28716 20.6668H8.1155C7.9271 20.6661 7.74271 20.6124 7.58341 20.5118C7.51985 20.4688 7.44366 20.4484 7.36711 20.4539C7.29055 20.4594 7.21807 20.4905 7.16133 20.5422L6.66966 21.0093C6.63463 21.0423 6.60714 21.0824 6.5891 21.127C6.57105 21.1716 6.56288 21.2196 6.56514 21.2677C6.56739 21.3157 6.58003 21.3627 6.60217 21.4055C6.62431 21.4482 6.65544 21.4856 6.69341 21.5151C7.07236 21.799 7.52723 21.9636 8.00008 21.988V22.6668C8.00008 22.7552 8.0352 22.84 8.09771 22.9025C8.16022 22.965 8.24501 23.0001 8.33341 23.0001Z" fill="#474747"/>
</svg>
