<svg width="32" height="32" viewBox="0 0 32 32" fill="none" xmlns="http://www.w3.org/2000/svg">
<path d="M12.0416 13.5C12.0416 13.3159 12.1909 13.1667 12.375 13.1667H19.625C19.8091 13.1667 19.9583 13.3159 19.9583 13.5V14.1667C19.9583 14.3508 19.8091 14.5 19.625 14.5H12.375C12.1909 14.5 12.0416 14.3508 12.0416 14.1667V13.5Z" fill="currentColor"/>
<path d="M12.375 16.5833C12.1909 16.5833 12.0416 16.7326 12.0416 16.9167V17.5833C12.0416 17.7674 12.1909 17.9167 12.375 17.9167H14.9166C15.1007 17.9167 15.25 17.7674 15.25 17.5833V16.9167C15.25 16.7326 15.1007 16.5833 14.9166 16.5833H12.375Z" fill="currentColor"/>
<path fill-rule="evenodd" clip-rule="evenodd" d="M25.3333 19.8381V8.66672C25.3333 7.5621 24.4379 6.66666 23.3333 6.66666H8.66663C7.56204 6.66666 6.66663 7.5621 6.66663 8.66672V23.3333C6.66663 24.4379 7.56204 25.3333 8.66663 25.3333H19.8382C20.3686 25.3333 20.8773 25.1226 21.2524 24.7475L24.7475 21.2523C25.1226 20.8773 25.3333 20.3685 25.3333 19.8381ZM20.3096 23.8047C20.2242 23.8901 20.1172 23.9506 20 23.9795V19.9999H23.9795C23.9506 20.1171 23.8901 20.2242 23.8047 20.3095L20.3096 23.8047ZM24 8.66672V18.6665H19.6666C19.1143 18.6665 18.6666 19.1142 18.6666 19.6665V24H8.66663C8.29842 24 7.99996 23.7015 7.99996 23.3333V8.66672C7.99996 8.2985 8.29842 8.00003 8.66663 8.00003H23.3333C23.7015 8.00003 24 8.2985 24 8.66672Z" fill="currentColor"/>
</svg>
