<svg width="32" height="32" viewBox="0 0 32 32" fill="none" xmlns="http://www.w3.org/2000/svg">
<path d="M22.1666 13.3333H18.6666V11.1667C18.6666 10.8917 18.4416 10.6667 18.1666 10.6667H9.83325C9.55825 10.6667 9.33325 10.8917 9.33325 11.1667V18.1667C9.33325 18.4417 9.55825 18.6667 9.83325 18.6667H13.3333V20.8333C13.3333 21.1083 13.5583 21.3333 13.8333 21.3333H22.1666C22.4416 21.3333 22.6666 21.1083 22.6666 20.8333V13.8333C22.6666 13.5583 22.4416 13.3333 22.1666 13.3333ZM10.6666 17.3333V12H17.3333V17.3333H10.6666ZM21.3333 20H14.6666V18.6667H18.1666C18.4416 18.6667 18.6666 18.4417 18.6666 18.1667V14.6667H21.3333V20ZM26.1666 10.6667C26.4416 10.6667 26.6666 10.4417 26.6666 10.1667V7.16666C26.6666 6.89166 26.4416 6.66666 26.1666 6.66666H23.1666C22.8916 6.66666 22.6666 6.89166 22.6666 7.16666V8H9.33325V7.16666C9.33325 6.89166 9.10825 6.66666 8.83325 6.66666H5.83325C5.55825 6.66666 5.33325 6.89166 5.33325 7.16666V10.1667C5.33325 10.4417 5.55825 10.6667 5.83325 10.6667H6.66659V21.3333H5.83325C5.55825 21.3333 5.33325 21.5583 5.33325 21.8333V24.8333C5.33325 25.1083 5.55825 25.3333 5.83325 25.3333H8.83325C9.10825 25.3333 9.33325 25.1083 9.33325 24.8333V24H22.6666V24.8333C22.6666 25.1083 22.8916 25.3333 23.1666 25.3333H26.1666C26.4416 25.3333 26.6666 25.1083 26.6666 24.8333V21.8333C26.6666 21.5583 26.4416 21.3333 26.1666 21.3333H25.3333V10.6667H26.1666ZM6.66659 8H7.99992V9.33333H6.66659V8ZM7.99992 24H6.66659V22.6667H7.99992V24ZM22.6666 21.8333V22.6667H9.33325V21.8333C9.33325 21.5583 9.10825 21.3333 8.83325 21.3333H7.99992V10.6667H8.83325C9.10825 10.6667 9.33325 10.4417 9.33325 10.1667V9.33333H22.6666V10.1667C22.6666 10.4417 22.8916 10.6667 23.1666 10.6667H23.9999V21.3333H23.1666C22.8916 21.3333 22.6666 21.5583 22.6666 21.8333ZM25.3333 24H23.9999V22.6667H25.3333V24ZM23.9999 9.33333V8H25.3333V9.33333H23.9999Z" fill="#474747"/>
</svg>
