<svg width="32" height="32" viewBox="0 0 32 32" fill="none" xmlns="http://www.w3.org/2000/svg">
<path d="M7.907 22.0416L8.63617 21.202C8.78129 21.0402 8.85714 20.8279 8.84742 20.6108V20.4729C8.84742 20.1666 8.68742 20 8.37492 20H5.99992C5.91151 20 5.82673 20.0351 5.76422 20.0976C5.7017 20.1601 5.66659 20.2449 5.66659 20.3333V21C5.66659 21.0884 5.7017 21.1731 5.76422 21.2357C5.82673 21.2982 5.91151 21.3333 5.99992 21.3333H6.95159C6.78979 21.496 6.6368 21.6672 6.49325 21.8462L6.2595 22.1379C6.09284 22.3491 6.04075 22.56 6.14284 22.7579L6.18659 22.8383C6.31159 23.0783 6.44909 23.1666 6.697 23.1666H6.89409C7.3245 23.1666 7.55825 23.2683 7.55825 23.5454C7.55825 23.742 7.38325 23.8879 6.95992 23.8879C6.73872 23.8861 6.51992 23.842 6.31534 23.7579C6.04492 23.5962 5.82617 23.612 5.66534 23.8879L5.43242 24.2758C5.277 24.5312 5.29909 24.7641 5.54159 24.94C5.86284 25.1354 6.39117 25.3333 7.08325 25.3333C8.50659 25.3333 9.10409 24.3854 9.10409 23.495C9.10284 22.8958 8.72409 22.255 7.907 22.0416ZM5.83742 18.6666H8.66659C8.75499 18.6666 8.83978 18.6315 8.90229 18.569C8.9648 18.5065 8.99992 18.4217 8.99992 18.3333V17.6666C8.99992 17.5782 8.9648 17.4934 8.90229 17.4309C8.83978 17.3684 8.75499 17.3333 8.66659 17.3333H7.05534C7.192 16.9045 9.06909 16.555 9.06909 14.9816C9.06909 13.7708 8.02742 13.3333 7.21617 13.3333C6.32617 13.3333 5.80784 13.75 5.53075 14.1145C5.34825 14.3475 5.40575 14.5662 5.647 14.755L6.0045 15.0416C6.23825 15.2316 6.46284 15.1445 6.67659 14.94C6.78161 14.8368 6.92312 14.7793 7.07034 14.78C7.20909 14.78 7.457 14.845 7.457 15.1445C7.45825 15.6745 5.33325 16.0545 5.33325 18.0245V18.1912C5.33325 18.5 5.54492 18.6666 5.83742 18.6666ZM5.99992 12H8.66659C8.75499 12 8.83978 11.9648 8.90229 11.9023C8.9648 11.8398 8.99992 11.755 8.99992 11.6666V11C8.99992 10.9116 8.9648 10.8268 8.90229 10.7643C8.83978 10.7017 8.75499 10.6666 8.66659 10.6666H7.99992V6.99996C7.99992 6.91155 7.9648 6.82677 7.90229 6.76426C7.83978 6.70174 7.75499 6.66663 7.66659 6.66663H6.66659C6.6048 6.66674 6.54426 6.68402 6.49173 6.71654C6.4392 6.74906 6.39673 6.79554 6.36909 6.85079L6.03575 7.51746C6.01034 7.56823 5.99833 7.62466 6.00084 7.68138C6.00335 7.7381 6.02031 7.79324 6.05011 7.84157C6.07991 7.8899 6.12156 7.92982 6.17111 7.95754C6.22066 7.98526 6.27647 7.99986 6.33325 7.99996H6.66659V10.6666H5.99992C5.91151 10.6666 5.82673 10.7017 5.76422 10.7643C5.7017 10.8268 5.66659 10.9116 5.66659 11V11.6666C5.66659 11.755 5.7017 11.8398 5.76422 11.9023C5.82673 11.9648 5.91151 12 5.99992 12ZM26.3333 8.66663H12.3333C12.2448 8.66663 12.1601 8.70174 12.0975 8.76426C12.035 8.82677 11.9999 8.91155 11.9999 8.99996V9.66663C11.9999 9.75503 12.035 9.83982 12.0975 9.90233C12.1601 9.96484 12.2448 9.99996 12.3333 9.99996H26.3333C26.4217 9.99996 26.5064 9.96484 26.569 9.90233C26.6315 9.83982 26.6666 9.75503 26.6666 9.66663V8.99996C26.6666 8.91155 26.6315 8.82677 26.569 8.76426C26.5064 8.70174 26.4217 8.66663 26.3333 8.66663ZM26.3333 22H12.3333C12.2448 22 12.1601 22.0351 12.0975 22.0976C12.035 22.1601 11.9999 22.2449 11.9999 22.3333V23C11.9999 23.0884 12.035 23.1731 12.0975 23.2357C12.1601 23.2982 12.2448 23.3333 12.3333 23.3333H26.3333C26.4217 23.3333 26.5064 23.2982 26.569 23.2357C26.6315 23.1731 26.6666 23.0884 26.6666 23V22.3333C26.6666 22.2449 26.6315 22.1601 26.569 22.0976C26.5064 22.0351 26.4217 22 26.3333 22ZM26.3333 15.3333H12.3333C12.2448 15.3333 12.1601 15.3684 12.0975 15.4309C12.035 15.4934 11.9999 15.5782 11.9999 15.6666V16.3333C11.9999 16.4217 12.035 16.5065 12.0975 16.569C12.1601 16.6315 12.2448 16.6666 12.3333 16.6666H26.3333C26.4217 16.6666 26.5064 16.6315 26.569 16.569C26.6315 16.5065 26.6666 16.4217 26.6666 16.3333V15.6666C26.6666 15.5782 26.6315 15.4934 26.569 15.4309C26.5064 15.3684 26.4217 15.3333 26.3333 15.3333Z" fill="#474747"/>
</svg>
