<svg width="32" height="32" viewBox="0 0 32 32" fill="none" xmlns="http://www.w3.org/2000/svg">
<path d="M24.6667 5.51269L5.99935 16.2798C5.04098 16.834 5.13682 18.2465 6.15769 18.6674L11.9996 21.0841V25.3343C11.9996 26.5927 13.5746 27.1385 14.3622 26.1802L16.8914 23.105L22.1583 25.2801C22.9542 25.6093 23.8542 25.1051 23.9834 24.2509L26.6502 6.87107C26.821 5.75853 25.6251 4.9585 24.6667 5.51269ZM13.333 25.3343V21.6341L15.6039 22.5717L13.333 25.3343ZM22.6667 24.0467L14.0747 20.4966L22.3875 10.6712C22.5875 10.4379 22.2667 10.1212 22.0333 10.3212L11.3954 19.3882L6.66605 17.4381L25.3334 6.6669L22.6667 24.0467Z" fill="currentColor"/>
</svg>
