<svg width="32" height="32" viewBox="0 0 32 32" fill="none" xmlns="http://www.w3.org/2000/svg">
<path d="M23.6667 6.66675H14.6668C13.7539 6.66672 12.8508 6.85417 12.0133 7.21749C11.1759 7.5808 10.422 8.11224 9.79831 8.77886C9.17466 9.44548 8.69456 10.2331 8.38776 11.0929C8.08097 11.9526 7.95402 12.8662 8.01479 13.7771C8.24395 17.3187 11.3443 19.9999 14.8951 19.9999H16.0001V24.9999C16.0001 25.0883 16.0352 25.173 16.0977 25.2355C16.1602 25.2981 16.245 25.3332 16.3334 25.3332H17.0001C17.0885 25.3332 17.1733 25.2981 17.2358 25.2355C17.2983 25.173 17.3334 25.0883 17.3334 24.9999V8.00006H20.0001V24.9999C20.0001 25.0883 20.0352 25.173 20.0977 25.2355C20.1602 25.2981 20.245 25.3332 20.3334 25.3332H21C21.0884 25.3332 21.1732 25.2981 21.2357 25.2355C21.2982 25.173 21.3334 25.0883 21.3334 24.9999V8.00006H23.6667C23.7551 8.00006 23.8399 7.96495 23.9024 7.90243C23.9649 7.83992 24 7.75514 24 7.66674V7.00008C24 6.91167 23.9649 6.82689 23.9024 6.76438C23.8399 6.70187 23.7551 6.66675 23.6667 6.66675ZM16.0001 18.6666H14.6668C13.2523 18.6666 11.8958 18.1047 10.8956 17.1045C9.89541 16.1043 9.33352 14.7478 9.33352 13.3333C9.33352 11.9189 9.89541 10.5623 10.8956 9.56214C11.8958 8.56196 13.2523 8.00006 14.6668 8.00006H16.0001V18.6666Z" fill="#474747"/>
</svg>
