<svg width="32" height="32" viewBox="0 0 32 32" fill="none" xmlns="http://www.w3.org/2000/svg">
<path d="M11.5462 26.6667C10.168 26.6667 8.7898 26.1421 7.74063 25.0929C5.64213 22.9945 5.64213 19.5802 7.74055 17.4818L18.6602 6.56243C20.299 4.92364 22.9655 4.92364 24.6043 6.56243C26.2431 8.20126 26.2431 10.8677 24.6043 12.5065L15.3281 21.7825C14.149 22.9618 12.2303 22.9618 11.051 21.7825C9.87184 20.6033 9.87184 18.6847 11.051 17.5055L18.1469 10.4098C18.3421 10.2145 18.6587 10.2145 18.854 10.4098L19.0898 10.6456C19.2851 10.8409 19.2851 11.1575 19.0898 11.3528L11.994 18.4485C11.3348 19.1077 11.3348 20.1803 11.994 20.8395C12.6533 21.4987 13.7259 21.4987 14.3851 20.8395L23.6613 11.5634C24.7801 10.4446 24.7801 8.62422 23.6613 7.50535C22.5424 6.38655 20.722 6.38664 19.6032 7.50535L8.68359 18.4248C7.10517 20.0033 7.10517 22.5715 8.68359 24.1499C10.2621 25.7283 12.8304 25.7283 14.4088 24.1499L23.4814 15.0775C23.6766 14.8822 23.9932 14.8822 24.1885 15.0775L24.4243 15.3133C24.6196 15.5086 24.6196 15.8252 24.4243 16.0205L15.3518 25.0929C14.3026 26.1421 12.9244 26.6667 11.5462 26.6667Z" fill="currentColor"/>
</svg>
