<svg width="32" height="32" viewBox="0 0 32 32" fill="none" xmlns="http://www.w3.org/2000/svg">
<path d="M25.8854 7.67749L24.3225 6.11458C23.8021 5.59375 23.1196 5.33333 22.4371 5.33333C21.7546 5.33333 21.0721 5.59375 20.5513 6.11416L5.86883 20.7966L5.33967 25.5557C5.273 26.1549 5.74508 26.6666 6.33133 26.6666C6.36841 26.6666 6.40549 26.6645 6.44341 26.6603L11.1992 26.1349L25.8858 11.4483C26.9271 10.4071 26.9271 8.71874 25.8854 7.67749ZM10.5871 24.8616L6.71091 25.2912L7.14257 21.4091L18.1379 10.4137L21.5867 13.8625L10.5871 24.8616ZM24.9429 10.5058L22.5292 12.9196L19.0804 9.47082L21.4942 7.05708C21.7458 6.80541 22.0808 6.66666 22.4371 6.66666C22.7933 6.66666 23.1279 6.80541 23.38 7.05708L24.9429 8.61999C25.4625 9.13998 25.4625 9.98581 24.9429 10.5058Z" fill="#474747"/>
</svg>
