<svg width="32" height="32" viewBox="0 0 32 32" fill="none" xmlns="http://www.w3.org/2000/svg">
<path d="M25.8792 19.9707L21.3629 18.0332C21.1033 17.9225 20.8149 17.8988 20.5408 17.9657C20.2666 18.0325 20.0215 18.1863 19.842 18.404L18.0045 20.6499C15.1142 19.2284 12.7759 16.89 11.3543 13.9998L13.6002 12.1622C13.8179 11.9828 13.9717 11.7378 14.0385 11.4637C14.1054 11.1896 14.0817 10.9013 13.9711 10.6418L12.0335 6.12088C11.9124 5.84053 11.6967 5.61154 11.4242 5.47374C11.1516 5.33594 10.8394 5.29806 10.5418 5.3667L6.34174 6.33755C6.05464 6.40248 5.79826 6.56338 5.61493 6.79367C5.43161 7.02397 5.33229 7.30989 5.33338 7.60424C5.33338 18.1582 13.8877 26.6667 24.3958 26.6667C24.6912 26.6672 24.9779 26.5673 25.209 26.3833C25.44 26.1993 25.6016 25.9422 25.6671 25.6542L26.6334 21.4583C26.702 21.1612 26.664 20.8496 26.5261 20.5777C26.3883 20.3058 26.1593 20.091 25.8792 19.9707ZM24.3708 25.3333C14.6002 25.3208 6.67924 17.404 6.67091 7.63341L10.821 6.67505L12.7377 11.1497L9.7043 13.6289C11.721 17.929 14.0586 20.2749 18.3753 22.2999L20.8545 19.2665L25.3292 21.1833L24.3708 25.3333Z" fill="#474747"/>
</svg>
