<svg width="32" height="32" viewBox="0 0 32 32" fill="none" xmlns="http://www.w3.org/2000/svg">
<path d="M23.3334 8C23.7001 8 24.0001 8.3 24.0001 8.66667V23.3333C24.0001 23.7 23.7001 24 23.3334 24H8.66675C8.30008 24 8.00008 23.7 8.00008 23.3333V8.66667C8.00008 8.3 8.30008 8 8.66675 8H23.3334ZM23.3334 6.66667H8.66675C7.56258 6.66667 6.66675 7.5625 6.66675 8.66667V23.3333C6.66675 24.4375 7.56258 25.3333 8.66675 25.3333H23.3334C24.4376 25.3333 25.3334 24.4375 25.3334 23.3333V8.66667C25.3334 7.5625 24.4376 6.66667 23.3334 6.66667ZM20.8334 15.25H16.7501V11.1667C16.7501 10.8917 16.5251 10.6667 16.2501 10.6667H15.7501C15.4751 10.6667 15.2501 10.8917 15.2501 11.1667V15.25H11.1667C10.8917 15.25 10.6667 15.475 10.6667 15.75V16.25C10.6667 16.525 10.8917 16.75 11.1667 16.75H15.2501V20.8333C15.2501 21.1083 15.4751 21.3333 15.7501 21.3333H16.2501C16.5251 21.3333 16.7501 21.1083 16.7501 20.8333V16.75H20.8334C21.1084 16.75 21.3334 16.525 21.3334 16.25V15.75C21.3334 15.475 21.1084 15.25 20.8334 15.25Z" fill="currentColor"/>
</svg>
