<svg width="32" height="32" viewBox="0 0 32 32" fill="none" xmlns="http://www.w3.org/2000/svg">
<path d="M21.5054 15.7419V16.2581C21.5054 16.5419 21.2732 16.7742 20.9893 16.7742H16.7742V20.9892C16.7742 21.2731 16.542 21.5054 16.2581 21.5054H15.742C15.4581 21.5054 15.2258 21.2731 15.2258 20.9892V16.7742H11.0108C10.7269 16.7742 10.4947 16.5419 10.4947 16.2581V15.7419C10.4947 15.4581 10.7269 15.2258 11.0108 15.2258H15.2258V11.0108C15.2258 10.7269 15.4581 10.4946 15.742 10.4946H16.2581C16.542 10.4946 16.7742 10.7269 16.7742 11.0108V15.2258H20.9893C21.2732 15.2258 21.5054 15.4581 21.5054 15.7419ZM26.6667 16C26.6667 21.8925 21.8925 26.6667 16 26.6667C10.1076 26.6667 5.33337 21.8925 5.33337 16C5.33337 10.1075 10.1076 5.33333 16 5.33333C21.8925 5.33333 26.6667 10.1075 26.6667 16ZM25.2904 16C25.2904 10.843 21.1054 6.70968 16 6.70968C10.8431 6.70968 6.70972 10.8946 6.70972 16C6.70972 21.157 10.8947 25.2903 16 25.2903C21.157 25.2903 25.2904 21.1054 25.2904 16Z" fill="#474747"/>
</svg>
