<svg width="32" height="32" viewBox="0 0 32 32" fill="none" xmlns="http://www.w3.org/2000/svg">
<path d="M16 26.6667C21.8925 26.6667 26.6667 21.8925 26.6667 16C26.6667 10.1076 21.8925 5.33337 16 5.33337C10.1076 5.33337 5.33337 10.1076 5.33337 16C5.33337 21.8925 10.1076 26.6667 16 26.6667ZM6.70972 16C6.70972 10.8947 10.8431 6.70972 16 6.70972C21.1054 6.70972 25.2904 10.8431 25.2904 16C25.2904 21.1054 21.157 25.2904 16 25.2904C10.8947 25.2904 6.70972 21.157 6.70972 16ZM20.9764 15.2258L13.4065 10.6237C12.7269 10.2452 11.871 10.7312 11.871 11.5269V20.4732C11.871 21.2646 12.7226 21.7549 13.4065 21.3764L20.9764 17.0323C21.6818 16.6409 21.6818 15.6215 20.9764 15.2258ZM13.2474 19.4323V12.5979C13.2474 12.3957 13.4667 12.271 13.6388 12.3785L19.4237 15.8925C19.5914 15.9957 19.5871 16.2409 19.4194 16.3355L13.6344 19.656C13.4624 19.7549 13.2474 19.6301 13.2474 19.4323Z" fill="#474747"/>
</svg>
