<svg width="32" height="32" viewBox="0 0 32 32" fill="none" xmlns="http://www.w3.org/2000/svg">
<path d="M23.3334 13.3333H22.6667V9.88542C22.6667 9.53167 22.5263 9.19292 22.2763 8.9425L19.0571 5.72375C18.8071 5.47375 18.468 5.33333 18.1142 5.33333H10.6034C9.90171 5.33333 9.33337 5.93042 9.33337 6.66667V13.3333H8.66671C6.82587 13.3333 5.33337 14.8258 5.33337 16.6667V20.6667C5.33337 21.035 5.63171 21.3333 6.00004 21.3333H9.33337V26C9.33337 26.3683 9.63171 26.6667 10 26.6667H22C22.3684 26.6667 22.6667 26.3683 22.6667 26V21.3333H26C26.3684 21.3333 26.6667 21.035 26.6667 20.6667V16.6667C26.6667 14.8258 25.1742 13.3333 23.3334 13.3333ZM18.6667 7.21875L20.7813 9.33333H18.6667V7.21875ZM10.6717 6.66667H17.3334V9.33333C17.3334 10.0696 17.9305 10.6667 18.6667 10.6667H21.3334V13.3333H10.6675L10.6717 6.66667ZM21.3334 25.3333H10.6667V21.3333H21.3334V25.3333ZM25.3334 20H6.66671V16.6667C6.66671 15.5638 7.56379 14.6667 8.66671 14.6667H23.3334C24.4363 14.6667 25.3334 15.5638 25.3334 16.6667V20ZM22 16.3333C21.448 16.3333 21 16.7808 21 17.3333C21 17.8854 21.448 18.3333 22 18.3333C22.5521 18.3333 23 17.8854 23 17.3333C23 16.7808 22.5521 16.3333 22 16.3333Z" fill="currentColor"/>
</svg>
