<svg width="32" height="32" viewBox="0 0 32 32" fill="none" xmlns="http://www.w3.org/2000/svg">
<path d="M23.3333 6.66667H8.66663C7.56204 6.66667 6.66663 7.56209 6.66663 8.66667V23.3333C6.66663 24.4379 7.56204 25.3333 8.66663 25.3333H23.3333C24.4379 25.3333 25.3333 24.4379 25.3333 23.3333V8.66667C25.3333 7.56209 24.4379 6.66667 23.3333 6.66667ZM24 23.3333C24 23.7009 23.7009 24 23.3333 24H8.66663C8.29904 24 7.99996 23.7009 7.99996 23.3333V8.66667C7.99996 8.29909 8.29904 8.00001 8.66663 8.00001H23.3333C23.7009 8.00001 24 8.29909 24 8.66667V23.3333ZM16 19.5C15.3556 19.5 14.8333 20.0223 14.8333 20.6667C14.8333 21.311 15.3556 21.8333 16 21.8333C16.6443 21.8333 17.1666 21.311 17.1666 20.6667C17.1666 20.0223 16.6443 19.5 16 19.5ZM16.3195 18.5H15.6529C15.3767 18.5 15.1529 18.2761 15.1529 18V17.9841C15.1529 15.0532 18.3795 15.3333 18.3795 13.5088C18.3795 12.6748 17.6395 11.8333 15.9862 11.8333C14.7719 11.8333 14.1418 12.2354 13.5191 13.0288C13.3563 13.2363 13.0585 13.2786 12.8421 13.1278L12.2948 12.7466C12.0605 12.5833 12.009 12.2561 12.1846 12.0309C13.069 10.8964 14.1184 10.1667 15.9862 10.1667C18.1662 10.1667 20.0462 11.4063 20.0462 13.5088C20.0462 16.3177 16.8195 16.1692 16.8195 17.9841V18C16.8195 18.2761 16.5957 18.5 16.3195 18.5Z" fill="#474747"/>
</svg>
