<svg width="32" height="32" viewBox="0 0 32 32" fill="none" xmlns="http://www.w3.org/2000/svg">
<path d="M15.9999 19.6129C15.3348 19.6129 14.7956 20.1521 14.7956 20.8172C14.7956 21.4823 15.3348 22.0215 15.9999 22.0215C16.665 22.0215 17.2042 21.4823 17.2042 20.8172C17.2042 20.1521 16.665 19.6129 15.9999 19.6129ZM16.3298 18.5806H15.6416C15.3566 18.5806 15.1255 18.3495 15.1255 18.0645V18.0481C15.1255 15.0226 18.4563 15.3118 18.4563 13.4284C18.4563 12.5675 17.6923 11.6989 15.9857 11.6989C14.7322 11.6989 14.0819 12.1139 13.439 12.933C13.2709 13.1472 12.9636 13.1908 12.7402 13.0352L12.1753 12.6416C11.9333 12.4731 11.8802 12.1354 12.0615 11.9028C12.9745 10.7318 14.0576 9.9785 15.9857 9.9785C18.236 9.9785 20.1767 11.2581 20.1767 13.4284C20.1767 16.328 16.8459 16.1746 16.8459 18.0481V18.0645C16.8459 18.3495 16.6148 18.5806 16.3298 18.5806ZM15.9999 6.70968C21.1019 6.70968 25.2902 10.8419 25.2902 16C25.2902 21.1308 21.135 25.2903 15.9999 25.2903C10.8711 25.2903 6.7096 21.1371 6.7096 16C6.7096 10.873 10.8645 6.70968 15.9999 6.70968ZM15.9999 5.33333C10.1093 5.33333 5.33325 10.1111 5.33325 16C5.33325 21.8923 10.1093 26.6667 15.9999 26.6667C21.8905 26.6667 26.6666 21.8923 26.6666 16C26.6666 10.1111 21.8905 5.33333 15.9999 5.33333Z" fill="currentColor"/>
</svg>
