<svg width="32" height="32" viewBox="0 0 32 32" fill="none" xmlns="http://www.w3.org/2000/svg">
<path d="M16.0459 5.33333C12.9231 5.33333 10.7023 6.64996 9.00141 9.22092C8.4198 10.1 8.61438 11.2907 9.44438 11.9315L11.1644 13.2595C12.0119 13.9138 13.2247 13.7664 13.893 12.9049C14.7717 11.7724 15.054 11.5733 15.7808 11.5733C16.1989 11.5733 16.8156 11.8649 16.8156 12.3333C16.8156 13.4055 12.343 13.1977 12.343 17.4271V18C12.343 18.667 12.6655 19.2583 13.1599 19.6218C12.3137 20.3561 11.7761 21.4486 11.7761 22.6667C11.7761 24.8723 13.5383 26.6667 15.7045 26.6667C17.8706 26.6667 19.6329 24.8723 19.6329 22.6667C19.6329 21.4486 19.0952 20.3561 18.249 19.6218C18.7434 19.2583 19.0659 18.667 19.0659 18V17.804C20.1048 17.0127 23.3334 15.9496 23.3334 11.9947C23.3334 8.19971 19.6472 5.33333 16.0459 5.33333ZM15.7045 25.3333C14.2604 25.3333 13.0855 24.1371 13.0855 22.6667C13.0855 21.1963 14.2604 20 15.7045 20C17.1486 20 18.3234 21.1963 18.3234 22.6667C18.3234 24.1371 17.1486 25.3333 15.7045 25.3333ZM17.7565 17.5664V18C17.7565 18.3682 17.4634 18.6667 17.1017 18.6667H14.3072C13.9456 18.6667 13.6524 18.3682 13.6524 18V17.4271C13.6524 13.8112 18.1251 15.0385 18.1251 12.3333C18.1251 11 16.8288 10.2399 15.7808 10.2399C14.3983 10.2399 13.7688 10.9141 12.8655 12.0784C12.6444 12.3634 12.2401 12.4167 11.9556 12.197L10.2355 10.869C9.95904 10.6555 9.89357 10.2589 10.0874 9.96583C11.4845 7.85413 13.2639 6.66667 16.0459 6.66667C18.9375 6.66667 22.0239 8.96492 22.0239 11.9947C22.0239 16.0178 17.7565 16.0797 17.7565 17.5664Z" fill="#474747"/>
</svg>
