<svg width="32" height="32" viewBox="0 0 32 32" fill="none" xmlns="http://www.w3.org/2000/svg">
<path d="M24.7475 10.7475L21.2524 7.25246C20.8773 6.87739 20.3686 6.66667 19.8382 6.66667H8.66663C7.56204 6.66667 6.66663 7.56209 6.66663 8.66667V23.3333C6.66663 24.4379 7.56204 25.3333 8.66663 25.3333H23.3333C24.4379 25.3333 25.3333 24.4379 25.3333 23.3333V12.1618C25.3333 11.6313 25.1226 11.1226 24.7475 10.7475ZM18.6666 8.00001V12H10.6666V8.00001H18.6666ZM24 23.3333C24 23.7009 23.7009 24 23.3333 24H8.66663C8.29904 24 7.99996 23.7009 7.99996 23.3333V8.66667C7.99996 8.29909 8.29904 8.00001 8.66663 8.00001H9.33329V12.3333C9.33329 12.8856 9.781 13.3333 10.3333 13.3333H19C19.5522 13.3333 20 12.8856 20 12.3333V8.02046C20.1172 8.0494 20.2243 8.10984 20.3096 8.19525L23.8047 11.6903C23.8668 11.7521 23.916 11.8256 23.9496 11.9065C23.9831 11.9874 24.0002 12.0742 24 12.1618V23.3333ZM16 15C13.9782 15 12.3333 16.6449 12.3333 18.6667C12.3333 20.6885 13.9782 22.3333 16 22.3333C18.0218 22.3333 19.6666 20.6885 19.6666 18.6667C19.6666 16.6449 18.0218 15 16 15ZM16 21C14.7133 21 13.6666 19.9533 13.6666 18.6667C13.6666 17.38 14.7133 16.3333 16 16.3333C17.2866 16.3333 18.3333 17.38 18.3333 18.6667C18.3333 19.9533 17.2866 21 16 21Z" fill="#474747"/>
</svg>
