<svg width="32" height="32" viewBox="0 0 32 32" fill="none" xmlns="http://www.w3.org/2000/svg">
<path d="M26.5198 25.399L21.1451 20.0243C21.0493 19.9284 20.9243 19.8785 20.791 19.8785H20.3618C21.7909 18.3327 22.6659 16.2703 22.6659 13.9996C22.6659 9.21231 18.7869 5.33333 13.9996 5.33333C9.21235 5.33333 5.33337 9.21231 5.33337 13.9996C5.33337 18.7868 9.21235 22.6658 13.9996 22.6658C16.2703 22.6658 18.3327 21.7909 19.8785 20.3659V20.7909C19.8785 20.9242 19.9327 21.0492 20.0243 21.1451L25.3991 26.5198C25.5949 26.7156 25.9115 26.7156 26.1074 26.5198L26.5198 26.1073C26.7157 25.9115 26.7157 25.5948 26.5198 25.399ZM13.9996 21.3325C9.94565 21.3325 6.66664 18.0535 6.66664 13.9996C6.66664 9.9456 9.94565 6.6666 13.9996 6.6666C18.0536 6.6666 21.3326 9.9456 21.3326 13.9996C21.3326 18.0535 18.0536 21.3325 13.9996 21.3325Z" fill="#474747"/>
</svg>
