<svg width="32" height="32" viewBox="0 0 32 32" fill="none" xmlns="http://www.w3.org/2000/svg">
<path d="M22.6667 20.5865L26.216 17.3331C26.9686 16.6432 26.7302 15.4813 25.8586 15.1078L22.6667 13.7398V8.66666C22.6667 8.29845 22.3683 7.99999 22.0001 7.99999H20.0001V6.33333C20.0001 5.78104 19.5524 5.33333 19.0001 5.33333H13.0001C12.4478 5.33333 12.0001 5.78104 12.0001 6.33333V7.99999H10.0001C9.63187 7.99999 9.33341 8.29845 9.33341 8.66666V13.7398L6.16446 15.098C5.22762 15.4995 5.06558 16.6744 5.76579 17.3162L9.33341 20.5865C9.33341 22.0903 7.21041 25.3333 3.16675 25.3333C2.89062 25.3333 2.66675 25.5572 2.66675 25.8333V26.1667C2.66675 26.4428 2.89062 26.6667 3.16675 26.6667C5.89546 26.6667 8.05491 25.459 9.44825 23.6188C9.87658 25.3662 11.4558 26.6667 13.3334 26.6667H18.6667C20.5443 26.6667 22.1236 25.3662 22.5519 23.6188C23.9533 25.4697 26.1177 26.6667 28.8334 26.6667C29.1095 26.6667 29.3334 26.4428 29.3334 26.1667V25.8333C29.3334 25.5572 29.1095 25.3333 28.8334 25.3333C24.9325 25.3333 22.6667 22.2172 22.6667 20.5865ZM13.3334 6.66666H18.6667V7.99999H13.3334V6.66666ZM10.6667 9.33333H21.3334V13.1684L16.5253 11.1078C16.3593 11.0367 16.1806 11 16.0001 11C15.8195 11 15.6408 11.0367 15.4748 11.1078L10.6667 13.1684V9.33333ZM21.3334 20V22.6667C21.3334 24.1394 20.1395 25.3333 18.6667 25.3333H13.3334C11.8607 25.3333 10.6667 24.1394 10.6667 22.6667V20L6.66675 16.3333L16.0001 12.3333L25.3334 16.3333L21.3334 20Z" fill="#474747"/>
</svg>
