<svg width="32" height="32" viewBox="0 0 32 32" fill="none" xmlns="http://www.w3.org/2000/svg">
<path d="M26.9996 8.00001H9.38666L9.03962 6.14905C8.95091 5.67609 8.53795 5.33334 8.05674 5.33334H4.5C4.22387 5.33334 4 5.55722 4 5.83334V6.16668C4 6.4428 4.22387 6.66667 4.5 6.66667H7.77999L10.6936 22.2061C10.2627 22.6797 9.99999 23.3091 9.99999 24C9.99999 25.4727 11.1939 26.6666 12.6667 26.6666C14.1394 26.6666 15.3333 25.4727 15.3333 24C15.3338 23.5318 15.2105 23.0718 14.9757 22.6666H21.0243C20.7895 23.0718 20.6662 23.5318 20.6667 24C20.6667 25.4727 21.8606 26.6666 23.3333 26.6666C24.8061 26.6666 26 25.4727 26 24C26 23.2503 25.6902 22.5733 25.1922 22.0888C25.0842 21.6621 24.6983 21.3333 24.222 21.3333H11.8867L11.3867 18.6667H25.1942C25.6678 18.6667 26.0765 18.3343 26.1732 17.8706L27.9786 9.20396C28.108 8.58296 27.6339 8.00001 26.9996 8.00001ZM23.3333 22.6666C24.0685 22.6666 24.6666 23.2648 24.6666 24C24.6666 24.7352 24.0685 25.3333 23.3333 25.3333C22.5981 25.3333 22 24.7352 22 24C22 23.2648 22.5981 22.6666 23.3333 22.6666ZM12.6667 22.6666C13.4019 22.6666 14 23.2648 14 24C14 24.7352 13.4019 25.3333 12.6667 25.3333C11.9314 25.3333 11.3333 24.7352 11.3333 24C11.3333 23.2648 11.9314 22.6666 12.6667 22.6666ZM24.9231 17.3333H11.1367L9.63666 9.33334H26.5898L24.9231 17.3333ZM15.3333 13.5V13.1667C15.3333 12.8905 15.5572 12.6667 15.8333 12.6667H17.3333V11.1667C17.3333 10.8905 17.5572 10.6667 17.8333 10.6667H18.1666C18.4428 10.6667 18.6666 10.8905 18.6666 11.1667V12.6667H20.1666C20.4428 12.6667 20.6666 12.8905 20.6666 13.1667V13.5C20.6666 13.7761 20.4428 14 20.1666 14H18.6666V15.5C18.6666 15.7761 18.4428 16 18.1666 16H17.8333C17.5572 16 17.3333 15.7761 17.3333 15.5V14H15.8333C15.5572 14 15.3333 13.7761 15.3333 13.5Z" fill="currentColor"/>
</svg>
