<svg width="32" height="32" viewBox="0 0 32 32" fill="none" xmlns="http://www.w3.org/2000/svg">
<path d="M25.3333 17.3333H18.6666C17.9303 17.3333 17.3333 17.9304 17.3333 18.6667V25.3333C17.3333 26.0696 17.9303 26.6667 18.6666 26.6667H25.3333C26.0695 26.6667 26.6666 26.0696 26.6666 25.3333V18.6667C26.6666 17.9304 26.0695 17.3333 25.3333 17.3333ZM25.3333 25.3333H18.6666V18.6667H25.3333V25.3333ZM10.6666 16C7.72117 16 5.33325 18.3879 5.33325 21.3333C5.33325 24.2787 7.72117 26.6667 10.6666 26.6667C13.612 26.6667 15.9999 24.2787 15.9999 21.3333C15.9999 18.3879 13.612 16 10.6666 16ZM10.6666 25.3333C8.46117 25.3333 6.66659 23.5387 6.66659 21.3333C6.66659 19.1275 8.46117 17.3333 10.6666 17.3333C12.8724 17.3333 14.6666 19.1275 14.6666 21.3333C14.6666 23.5387 12.8724 25.3333 10.6666 25.3333ZM26.4574 13.7142L22.0028 6.09541C21.7062 5.58749 21.1862 5.33333 20.6666 5.33333C20.147 5.33333 19.627 5.58749 19.3303 6.09541L14.8758 13.7142C14.2816 14.73 15.0241 16 16.212 16H25.1212C26.3091 16 27.0516 14.73 26.4574 13.7142ZM25.3074 14.5637C25.2683 14.6321 25.2053 14.6667 25.1212 14.6667H16.212C16.1278 14.6667 16.0649 14.6321 16.0258 14.5637C15.9753 14.4754 16.0112 14.4137 16.0266 14.3875L20.4812 6.76833C20.5208 6.70083 20.5828 6.66666 20.6666 6.66666C20.7503 6.66666 20.8124 6.70083 20.852 6.76833L25.3066 14.3875C25.322 14.4137 25.3583 14.4754 25.3074 14.5637Z" fill="currentColor"/>
</svg>
