<svg width="32" height="32" viewBox="0 0 32 32" fill="none" xmlns="http://www.w3.org/2000/svg">
<path d="M21.3333 10.6667C21.3333 7.72589 18.9408 5.33334 16 5.33334C13.0591 5.33334 10.6666 7.72589 10.6666 10.6667H6.66663V23.3333C6.66663 25.1743 8.159 26.6667 9.99996 26.6667H22C23.8409 26.6667 25.3333 25.1743 25.3333 23.3333V10.6667H21.3333ZM16 6.66668C18.2056 6.66668 20 8.46105 20 10.6667H12C12 8.46105 13.7943 6.66668 16 6.66668ZM24 23.3333C24 24.4361 23.1028 25.3333 22 25.3333H9.99996C8.89717 25.3333 7.99996 24.4361 7.99996 23.3333V12H10.6666V14C10.6666 14.3682 10.9651 14.6667 11.3333 14.6667C11.7015 14.6667 12 14.3682 12 14V12H20V14C20 14.3682 20.2984 14.6667 20.6666 14.6667C21.0348 14.6667 21.3333 14.3682 21.3333 14V12H24V23.3333Z" fill="currentColor"/>
</svg>
