<svg width="32" height="32" viewBox="0 0 32 32" fill="none" xmlns="http://www.w3.org/2000/svg">
<path d="M25.4376 9.4868L17.4376 6.15314C17.1939 6.05204 16.9327 6 16.6688 6C16.405 6 16.1438 6.05204 15.9001 6.15314L7.90008 9.4868C7.15425 9.79516 6.66675 10.5244 6.66675 11.3328C6.66675 19.6045 11.4376 25.3217 15.8959 27.1802C16.3876 27.3844 16.9417 27.3844 17.4334 27.1802C21.0042 25.6925 26.6667 20.5545 26.6667 11.3328C26.6667 10.5244 26.1792 9.79516 25.4376 9.4868ZM16.9251 25.9509C16.7584 26.0176 16.5751 26.0176 16.4126 25.9509C12.3334 24.3341 8.00008 18.6669 8.00008 11.3328C8.00008 11.062 8.16258 10.8203 8.40841 10.7161L16.4084 7.38243C16.5709 7.31576 16.7584 7.31576 16.9209 7.38243L24.9209 10.7161C25.1709 10.8203 25.3334 11.062 25.3292 11.3328C25.3334 18.6669 21.0001 24.3341 16.9251 25.9509ZM16.6667 23.1256V10.166L10.7209 12.6454C11.1417 17.6501 13.9334 21.6047 16.6667 23.1256ZM15.3334 20.342C13.8167 18.6794 12.5917 16.2666 12.1626 13.4872L15.3334 12.1662V20.342Z" fill="currentColor"/>
</svg>
