<svg width="32" height="32" viewBox="0 0 32 32" fill="none" xmlns="http://www.w3.org/2000/svg">
<path d="M9.99996 7.99999H5.99996C5.82315 7.99999 5.65358 8.07023 5.52855 8.19526C5.40353 8.32028 5.33329 8.48985 5.33329 8.66666V12.6667C5.33329 12.8435 5.40353 13.013 5.52855 13.1381C5.65358 13.2631 5.82315 13.3333 5.99996 13.3333H9.99996C10.1768 13.3333 10.3463 13.2631 10.4714 13.1381C10.5964 13.013 10.6666 12.8435 10.6666 12.6667V8.66666C10.6666 8.48985 10.5964 8.32028 10.4714 8.19526C10.3463 8.07023 10.1768 7.99999 9.99996 7.99999ZM9.33329 12H6.66663V9.33333H9.33329V12ZM21.3333 11.3333V14.6667H22.6666V11.3333C22.6666 10.8029 22.4559 10.2942 22.0808 9.91912C21.7058 9.54404 21.1971 9.33333 20.6666 9.33333H14.6666V10.6667H20.6666C20.8434 10.6667 21.013 10.7369 21.138 10.8619C21.2631 10.9869 21.3333 11.1565 21.3333 11.3333ZM26 18.6667H22C21.8231 18.6667 21.6536 18.7369 21.5286 18.8619C21.4035 18.9869 21.3333 19.1565 21.3333 19.3333V23.3333C21.3333 23.5101 21.4035 23.6797 21.5286 23.8047C21.6536 23.9298 21.8231 24 22 24H26C26.1768 24 26.3463 23.9298 26.4714 23.8047C26.5964 23.6797 26.6666 23.5101 26.6666 23.3333V19.3333C26.6666 19.1565 26.5964 18.9869 26.4714 18.8619C26.3463 18.7369 26.1768 18.6667 26 18.6667ZM25.3333 22.6667H22.6666V20H25.3333V22.6667ZM27.3333 16H20.6666C20.1362 16 19.6275 16.2107 19.2524 16.5858C18.8773 16.9609 18.6666 17.4696 18.6666 18V24.6667C18.6666 25.1971 18.8773 25.7058 19.2524 26.0809C19.6275 26.4559 20.1362 26.6667 20.6666 26.6667H27.3333C27.8637 26.6667 28.3724 26.4559 28.7475 26.0809C29.1226 25.7058 29.3333 25.1971 29.3333 24.6667V18C29.3333 17.4696 29.1226 16.9609 28.7475 16.5858C28.3724 16.2107 27.8637 16 27.3333 16ZM28 24.6667C28 24.8435 27.9297 25.013 27.8047 25.1381C27.6797 25.2631 27.5101 25.3333 27.3333 25.3333H20.6666C20.4898 25.3333 20.3202 25.2631 20.1952 25.1381C20.0702 25.013 20 24.8435 20 24.6667V18C20 17.8232 20.0702 17.6536 20.1952 17.5286C20.3202 17.4036 20.4898 17.3333 20.6666 17.3333H27.3333C27.5101 17.3333 27.6797 17.4036 27.8047 17.5286C27.9297 17.6536 28 17.8232 28 18V24.6667ZM10.6666 20.6667V17.3333H9.33329V20.6667C9.33329 21.1971 9.54401 21.7058 9.91908 22.0809C10.2942 22.4559 10.8029 22.6667 11.3333 22.6667H17.3333V21.3333H11.3333C11.1565 21.3333 10.9869 21.2631 10.8619 21.1381C10.7369 21.013 10.6666 20.8435 10.6666 20.6667ZM13.3333 14V7.33333C13.3333 6.8029 13.1226 6.29419 12.7475 5.91911C12.3724 5.54404 11.8637 5.33333 11.3333 5.33333H4.66663C4.13619 5.33333 3.62749 5.54404 3.25241 5.91911C2.87734 6.29419 2.66663 6.8029 2.66663 7.33333V14C2.66663 14.5304 2.87734 15.0391 3.25241 15.4142C3.62749 15.7893 4.13619 16 4.66663 16H11.3333C11.8637 16 12.3724 15.7893 12.7475 15.4142C13.1226 15.0391 13.3333 14.5304 13.3333 14ZM3.99996 14V7.33333C3.99996 7.15652 4.0702 6.98695 4.19522 6.86192C4.32025 6.7369 4.48981 6.66666 4.66663 6.66666H11.3333C11.5101 6.66666 11.6797 6.7369 11.8047 6.86192C11.9297 6.98695 12 7.15652 12 7.33333V14C12 14.1768 11.9297 14.3464 11.8047 14.4714C11.6797 14.5964 11.5101 14.6667 11.3333 14.6667H4.66663C4.48981 14.6667 4.32025 14.5964 4.19522 14.4714C4.0702 14.3464 3.99996 14.1768 3.99996 14Z" fill="#474747"/>
</svg>
