<svg width="32" height="32" viewBox="0 0 32 32" fill="none" xmlns="http://www.w3.org/2000/svg">
<path d="M7.33276 8.00195H12.8314C13.1064 8.00195 13.3313 8.2269 13.3313 8.50183V8.83508C13.3313 9.11002 13.1064 9.33496 12.8314 9.33496H7.33276C6.96619 9.33496 6.66626 9.63489 6.66626 10.0015V21.9985C6.66626 22.3651 6.96619 22.665 7.33276 22.665H12.8314C13.1064 22.665 13.3313 22.89 13.3313 23.1649V23.4982C13.3313 23.7731 13.1064 23.998 12.8314 23.998H7.33276C6.22887 23.998 5.33325 23.1024 5.33325 21.9985V10.0015C5.33325 8.89757 6.22887 8.00195 7.33276 8.00195ZM18.9549 8.81425L18.6592 9.11002C18.4634 9.3058 18.4634 9.62239 18.6592 9.81818L24.1578 15.2918H12.4982C12.2232 15.2918 11.9983 15.5168 11.9983 15.7917V16.2083C11.9983 16.4832 12.2232 16.7082 12.4982 16.7082H24.1578L18.6633 22.1818C18.4675 22.3776 18.4675 22.6942 18.6633 22.89L18.9591 23.1857C19.1549 23.3815 19.4715 23.3815 19.6673 23.1857L26.5197 16.3541C26.7155 16.1583 26.7155 15.8417 26.5197 15.6459L19.6631 8.81425C19.4673 8.61847 19.1507 8.61847 18.9549 8.81425Z" fill="currentColor"/>
</svg>
