<svg width="32" height="32" viewBox="0 0 32 32" fill="none" xmlns="http://www.w3.org/2000/svg">
<path d="M12.9999 8.8125L19.8541 15.6458C20.0499 15.8417 20.0499 16.1583 19.8541 16.3542L12.9999 23.1875C12.8041 23.3833 12.4874 23.3833 12.2916 23.1875L11.9958 22.8917C11.7999 22.6958 11.7999 22.3792 11.9958 22.1833L17.4958 16.7083H5.83325C5.55825 16.7083 5.33325 16.4833 5.33325 16.2083V15.7917C5.33325 15.5167 5.55825 15.2917 5.83325 15.2917H17.4958L11.9999 9.81667C11.8041 9.62083 11.8041 9.30417 11.9999 9.10833L12.2958 8.8125C12.4874 8.61667 12.8041 8.61667 12.9999 8.8125ZM26.6666 22V10C26.6666 8.89583 25.7708 8 24.6666 8H19.1666C18.8916 8 18.6666 8.225 18.6666 8.5V8.83333C18.6666 9.10833 18.8916 9.33333 19.1666 9.33333H24.6666C25.0333 9.33333 25.3333 9.63333 25.3333 10V22C25.3333 22.3667 25.0333 22.6667 24.6666 22.6667H19.1666C18.8916 22.6667 18.6666 22.8917 18.6666 23.1667V23.5C18.6666 23.775 18.8916 24 19.1666 24H24.6666C25.7708 24 26.6666 23.1042 26.6666 22Z" fill="#474747"/>
</svg>
