<svg width="32" height="32" viewBox="0 0 32 32" fill="none" xmlns="http://www.w3.org/2000/svg">
<path d="M5.33337 10.6669V10.3335C5.33337 10.0585 5.55839 9.83348 5.8334 9.83348H10.2419C10.3795 9.83348 10.5128 9.89182 10.6086 9.99599L14.3463 14.0379L13.4379 15.0212L9.87526 11.1669H5.8334C5.55839 11.1669 5.33337 10.9419 5.33337 10.6669ZM26.2761 22.2758L23.6093 24.9426C22.7717 25.7801 21.3342 25.1842 21.3342 24.0008V22.1674H20.2633C20.1258 22.1674 19.9924 22.1091 19.8966 22.0049L16.1589 17.963L17.0673 16.9797L20.6258 20.834H21.3342V18.6672C21.3342 17.4797 22.7717 16.888 23.6093 17.7255L26.2761 20.3923C26.7969 20.9132 26.7969 21.7549 26.2761 22.2758ZM25.451 21.2174L22.7842 18.5506C22.6801 18.4464 22.5009 18.5214 22.5009 18.6672V24.0008C22.5009 24.1508 22.6801 24.2258 22.7842 24.1175L25.451 21.4507C25.5177 21.3882 25.5177 21.2799 25.451 21.2174ZM26.2761 11.6086L23.6093 14.2754C22.7717 15.1129 21.3342 14.517 21.3342 13.3337V11.1669H20.6258L10.6086 22.0049C10.5128 22.1091 10.3795 22.1674 10.2419 22.1674H5.8334C5.55839 22.1674 5.33337 21.9424 5.33337 21.6674V21.334C5.33337 21.059 5.55839 20.834 5.8334 20.834H9.87526L19.8924 9.99599C19.9883 9.89182 20.1216 9.83348 20.2591 9.83348H21.3342V8.00006C21.3342 6.8125 22.7717 6.2208 23.6093 7.05834L26.2761 9.72514C26.7969 10.246 26.7969 11.0877 26.2761 11.6086ZM25.451 10.5502L22.7842 7.88338C22.6801 7.77921 22.5009 7.85422 22.5009 8.00006V13.3337C22.5009 13.4837 22.6801 13.5587 22.7842 13.4503L25.451 10.7835C25.5177 10.721 25.5177 10.6127 25.451 10.5502Z" fill="currentColor"/>
</svg>
