<svg width="32" height="32" viewBox="0 0 32 32" fill="none" xmlns="http://www.w3.org/2000/svg">
<path d="M26.3333 21.3334H13.3333V19.6667C13.3333 19.1125 12.8874 18.6667 12.3333 18.6667H10.3333C9.77909 18.6667 9.33325 19.1125 9.33325 19.6667V21.3334H5.66659C5.48325 21.3334 5.33325 21.4834 5.33325 21.6667V22.3334C5.33325 22.5167 5.48325 22.6667 5.66659 22.6667H9.33325V24.3334C9.33325 24.8875 9.77909 25.3334 10.3333 25.3334H12.3333C12.8874 25.3334 13.3333 24.8875 13.3333 24.3334V22.6667H26.3333C26.5166 22.6667 26.6666 22.5167 26.6666 22.3334V21.6667C26.6666 21.4834 26.5166 21.3334 26.3333 21.3334ZM11.9999 24H10.6666V20H11.9999V24ZM26.3333 9.33335H15.9999V7.66669C15.9999 7.11252 15.5541 6.66669 14.9999 6.66669H12.9999C12.4458 6.66669 11.9999 7.11252 11.9999 7.66669V9.33335H5.66659C5.48325 9.33335 5.33325 9.48335 5.33325 9.66669V10.3334C5.33325 10.5167 5.48325 10.6667 5.66659 10.6667H11.9999V12.3334C11.9999 12.8875 12.4458 13.3334 12.9999 13.3334H14.9999C15.5541 13.3334 15.9999 12.8875 15.9999 12.3334V10.6667H26.3333C26.5166 10.6667 26.6666 10.5167 26.6666 10.3334V9.66669C26.6666 9.48335 26.5166 9.33335 26.3333 9.33335ZM14.6666 12H13.3333V8.00002H14.6666V12ZM26.3333 15.3334H22.6666V13.6667C22.6666 13.1125 22.2208 12.6667 21.6666 12.6667H19.6666C19.1124 12.6667 18.6666 13.1125 18.6666 13.6667V15.3334H5.66659C5.48325 15.3334 5.33325 15.4834 5.33325 15.6667V16.3334C5.33325 16.5167 5.48325 16.6667 5.66659 16.6667H18.6666V18.3334C18.6666 18.8875 19.1124 19.3334 19.6666 19.3334H21.6666C22.2208 19.3334 22.6666 18.8875 22.6666 18.3334V16.6667H26.3333C26.5166 16.6667 26.6666 16.5167 26.6666 16.3334V15.6667C26.6666 15.4834 26.5166 15.3334 26.3333 15.3334ZM21.3333 18H19.9999V14H21.3333V18Z" fill="#474747"/>
</svg>
