<svg width="32" height="32" viewBox="0 0 32 32" fill="none" xmlns="http://www.w3.org/2000/svg">
<path d="M21.3321 17.333H10.668C9.48495 17.333 8.88509 18.7702 9.72656 19.6075L15.0586 24.9395C15.5793 25.4602 16.4249 25.4602 16.9456 24.9395L22.2777 19.6075C23.1108 18.7702 22.5151 17.333 21.3321 17.333ZM16 23.9981L10.668 18.666H21.3321L16 23.9981ZM10.668 14.667H21.3321C22.5151 14.667 23.115 13.2298 22.2735 12.3925L16.9415 7.06048C16.4208 6.53978 15.5751 6.53978 15.0544 7.06048L9.72239 12.3925C8.88926 13.2298 9.48495 14.667 10.668 14.667ZM16 8.00192L21.3321 13.334H10.668L16 8.00192Z" fill="currentColor"/>
</svg>
