<svg width="32" height="32" viewBox="0 0 32 32" fill="none" xmlns="http://www.w3.org/2000/svg">
<path d="M21.3322 17.333H10.6681C9.48507 17.333 8.88521 18.7702 9.72668 19.6075L15.0587 24.9395C15.5794 25.4602 16.4251 25.4602 16.9458 24.9395L22.2778 19.6075C23.1109 18.7702 22.5153 17.333 21.3322 17.333ZM16.0002 23.9981L10.6681 18.666H21.3322L16.0002 23.9981Z" fill="#474747"/>
<path d="M10.6676 14.6669H21.3317C22.5147 14.6669 23.1146 13.2298 22.2731 12.3925L16.941 7.06045C16.4203 6.53974 15.5747 6.53974 15.054 7.06045L9.72196 12.3925C8.88883 13.2298 9.48451 14.6669 10.6676 14.6669ZM15.9996 8.00189L21.3317 13.3339H10.6676L15.9996 8.00189Z" fill="#B1B1B2"/>
</svg>
