<svg width="32" height="32" viewBox="0 0 32 32" fill="none" xmlns="http://www.w3.org/2000/svg">
<path d="M23.3333 6.66666H8.66663C7.56246 6.66666 6.66663 7.56249 6.66663 8.66666V23.3333C6.66663 24.4375 7.56246 25.3333 8.66663 25.3333H23.3333C24.4375 25.3333 25.3333 24.4375 25.3333 23.3333V8.66666C25.3333 7.56249 24.4375 6.66666 23.3333 6.66666ZM24 23.3333C24 23.7 23.7 24 23.3333 24H8.66663C8.29996 24 7.99996 23.7 7.99996 23.3333V8.66666C7.99996 8.29999 8.29996 7.99999 8.66663 7.99999H23.3333C23.7 7.99999 24 8.29999 24 8.66666V23.3333Z" fill="#474747"/>
</svg>
