<svg width="32" height="32" viewBox="0 0 32 32" fill="none" xmlns="http://www.w3.org/2000/svg">
<path d="M25.574 12.4788L19.7482 11.5914L17.1443 6.07545C16.6778 5.09223 15.326 5.07974 14.8555 6.07545L12.2516 11.5914L6.42585 12.4788C5.38112 12.6371 4.96243 13.9828 5.72006 14.7535L9.93488 19.0447L8.938 25.1064C8.75856 26.2021 9.86311 27.0229 10.7882 26.5104L15.9999 23.6483L21.2116 26.5104C22.1367 27.0187 23.2413 26.2021 23.0618 25.1064L22.065 19.0447L26.2798 14.7535C27.0374 13.9828 26.6187 12.6371 25.574 12.4788ZM20.6972 18.5781L21.8058 25.3272L15.9999 22.1443L10.1981 25.3314L11.3066 18.5822L6.60928 13.7953L13.097 12.8121L15.9999 6.66704L18.9028 12.8121L25.3906 13.7953L20.6972 18.5781Z" fill="#474747"/>
</svg>
