<svg width="32" height="32" viewBox="0 0 32 32" fill="none" xmlns="http://www.w3.org/2000/svg">
<path d="M20.39 18.6666C20.7689 19.0247 21.0486 19.4748 21.2019 19.9731C21.3553 20.4713 21.377 21.0008 21.265 21.51C21.0625 22.4683 20.3671 23.2654 19.4705 23.6566C18.9533 23.8823 18.3952 23.9992 17.8309 24H15.0834C14.3968 24.0022 13.727 23.7881 13.1691 23.3879C12.6113 22.9877 12.1937 22.4219 11.9759 21.7708C11.9515 21.6899 11.8975 21.6211 11.8247 21.5782C11.7519 21.5352 11.6656 21.5213 11.583 21.5391L10.9309 21.6912C10.8864 21.7009 10.8443 21.7195 10.8073 21.7461C10.7703 21.7726 10.7392 21.8064 10.7157 21.8455C10.6923 21.8845 10.6771 21.9279 10.6711 21.9731C10.6651 22.0182 10.6685 22.0641 10.6809 22.1079C10.9736 23.0454 11.5591 23.8645 12.3514 24.445C13.1437 25.0255 14.1012 25.3368 15.0834 25.3333H17.8334C18.5808 25.3321 19.3199 25.1774 20.005 24.8787C21.4025 24.2704 22.4284 22.9545 22.63 21.4437C22.7595 20.482 22.564 19.5046 22.0746 18.6666H20.39ZM12.3855 14.6666H15.2305L13.59 13.8495C12.5575 13.3358 11.9234 12.2887 11.953 11.07C11.9637 10.5187 12.1257 9.98095 12.4213 9.51551C12.7169 9.05008 13.1348 8.67484 13.6292 8.43079C14.1963 8.14825 14.8211 8.00079 15.4546 7.99996H17.4488C18.264 8.00098 19.0639 8.22176 19.7642 8.63906C20.4646 9.05635 21.0394 9.65473 21.4284 10.3712C21.467 10.4469 21.5331 10.5049 21.6131 10.5335C21.6931 10.562 21.781 10.559 21.8588 10.525L22.4671 10.2491C22.5087 10.2306 22.5461 10.2039 22.577 10.1705C22.608 10.1372 22.6318 10.0978 22.6471 10.055C22.6623 10.0121 22.6687 9.9666 22.6659 9.92118C22.663 9.87577 22.651 9.83141 22.6305 9.79079C22.1319 8.84858 21.3861 8.05993 20.4732 7.50952C19.5603 6.95911 18.5148 6.66772 17.4488 6.66663H15.4546C14.6135 6.66783 13.7841 6.86363 13.0313 7.23871C11.543 7.98288 10.6188 9.48121 10.6188 11.2058C10.6173 11.8815 10.7767 12.5479 11.0839 13.1497C11.3911 13.7515 11.8373 14.2715 12.3855 14.6666ZM26.3334 16H5.66671C5.5783 16 5.49352 16.0351 5.43101 16.0976C5.36849 16.1601 5.33337 16.2449 5.33337 16.3333V17C5.33337 17.0884 5.36849 17.1732 5.43101 17.2357C5.49352 17.2982 5.5783 17.3333 5.66671 17.3333H26.3334C26.4218 17.3333 26.5066 17.2982 26.5691 17.2357C26.6316 17.1732 26.6667 17.0884 26.6667 17V16.3333C26.6667 16.2449 26.6316 16.1601 26.5691 16.0976C26.5066 16.0351 26.4218 16 26.3334 16Z" fill="currentColor"/>
</svg>
