<svg width="32" height="32" viewBox="0 0 32 32" fill="none" xmlns="http://www.w3.org/2000/svg">
<path d="M26.5439 14.4599L24.8892 13.7696L24.1993 12.1138C24.1809 12.0768 24.1526 12.0456 24.1174 12.0238C24.0823 12.002 24.0418 11.9905 24.0005 11.9905C23.9592 11.9905 23.9187 12.002 23.8835 12.0238C23.8484 12.0456 23.8201 12.0768 23.8017 12.1138L23.1117 13.7696L21.4571 14.4599C21.4202 14.4784 21.3891 14.5068 21.3674 14.542C21.3458 14.5771 21.3343 14.6176 21.3343 14.6588C21.3343 14.7001 21.3458 14.7406 21.3674 14.7757C21.3891 14.8109 21.4202 14.8393 21.4571 14.8577L23.1117 15.5482L23.8017 17.2039C23.8201 17.241 23.8484 17.2721 23.8835 17.2939C23.9186 17.3157 23.9592 17.3273 24.0005 17.3273C24.0418 17.3273 24.0823 17.3157 24.1175 17.2939C24.1526 17.2721 24.1809 17.241 24.1993 17.2039L24.8892 15.5482L26.5439 14.8577C26.5808 14.8393 26.6118 14.8109 26.6335 14.7757C26.6552 14.7406 26.6667 14.7001 26.6667 14.6588C26.6667 14.6176 26.6552 14.5771 26.6335 14.542C26.6118 14.5068 26.5808 14.4784 26.5439 14.4599ZM20.5126 16.4617L16.1409 15.8241L14.1862 11.8562C14.108 11.6955 13.986 11.5602 13.8341 11.4659C13.6822 11.3716 13.5068 11.3222 13.3281 11.3234C13.1496 11.3213 12.9743 11.3703 12.8229 11.4648C12.6715 11.5592 12.5504 11.6951 12.4738 11.8562L10.5191 15.8241L6.15138 16.4617C5.36873 16.5736 5.05619 17.5442 5.62267 18.0979L8.78583 21.1836L8.03573 25.5425C8.01158 25.6801 8.01779 25.8213 8.05393 25.9562C8.09007 26.0911 8.15527 26.2165 8.24496 26.3236C8.33465 26.4307 8.44666 26.5169 8.57315 26.5762C8.69965 26.6354 8.83757 26.6663 8.97726 26.6667C9.13267 26.6667 9.28568 26.6283 9.42263 26.5548L13.332 24.4976L17.2413 26.5548C17.3776 26.6264 17.5289 26.6648 17.6828 26.6667C17.8222 26.6661 17.9598 26.6353 18.0862 26.5763C18.2125 26.5173 18.3245 26.4316 18.4144 26.325C18.5043 26.2185 18.57 26.0936 18.6069 25.9592C18.6438 25.8248 18.6511 25.6839 18.6282 25.5464L17.882 21.1875L21.0452 18.1018C21.6117 17.5442 21.2952 16.5781 20.5126 16.4617ZM16.4496 20.7204L17.1827 25.0181L13.3281 22.9857L9.47342 25.0181L10.2066 20.7204L7.09421 17.6731L11.402 17.0446L13.332 13.1346L15.2567 17.0446L19.5658 17.6731L16.4496 20.7204ZM22.9662 8.7221L20.9414 7.70907L19.9297 5.6739C19.7045 5.21983 18.9623 5.21983 18.737 5.6739L17.7253 7.7006L15.7006 8.71363C15.5902 8.76935 15.4975 8.85455 15.4327 8.95977C15.3679 9.065 15.3335 9.18613 15.3334 9.30972C15.3339 9.43434 15.3683 9.55646 15.433 9.66297C15.4977 9.76949 15.5902 9.85637 15.7006 9.91428L17.7253 10.9273L18.737 12.954C18.7924 13.0649 18.8774 13.1583 18.9827 13.2238C19.088 13.2892 19.2094 13.3242 19.3334 13.3247C19.4576 13.3251 19.5793 13.2906 19.6848 13.225C19.7903 13.1595 19.8751 13.0655 19.9297 12.954L20.9414 10.9273L22.9662 9.91428C23.0766 9.85867 23.1694 9.77349 23.2342 9.66824C23.299 9.56299 23.3334 9.4418 23.3334 9.31819C23.3334 9.19457 23.299 9.07338 23.2342 8.96813C23.1694 8.86288 23.0766 8.77771 22.9662 8.7221ZM20.1459 9.83089C20.0164 9.8962 19.9113 10.0015 19.8464 10.1312L19.3334 11.1612L18.8204 10.1312C18.7541 10.0025 18.6494 9.89752 18.5209 9.83089L17.4922 9.31428L18.5209 8.79702C18.6505 8.73189 18.7556 8.62652 18.8204 8.49669L19.3334 7.46673L19.8464 8.49669C19.9123 8.6257 20.017 8.73076 20.1459 8.79702L21.1745 9.31428L20.1459 9.83089Z" fill="#474747"/>
</svg>
