<svg width="32" height="32" viewBox="0 0 32 32" fill="none" xmlns="http://www.w3.org/2000/svg">
<path d="M26.1506 5.33334H25.7205C25.4354 5.33334 25.2043 5.56444 25.2043 5.84947V10.6076C23.3518 7.4521 19.9237 5.33334 16 5.33334C10.2894 5.33334 5.62688 9.821 5.34671 15.4621C5.33213 15.7553 5.56886 16 5.86245 16H6.29324C6.56649 16 6.79415 15.7872 6.80838 15.5143C7.06056 10.676 11.058 6.79571 16 6.79571C19.564 6.79571 22.6554 8.82053 24.1845 11.785H19.2689C18.9838 11.785 18.7527 12.0161 18.7527 12.3011V12.7312C18.7527 13.0162 18.9838 13.2473 19.2689 13.2473H26.1506C26.4356 13.2473 26.6667 13.0162 26.6667 12.7312V5.84947C26.6667 5.56444 26.4356 5.33334 26.1506 5.33334ZM26.1376 16H25.7069C25.4337 16 25.2059 16.2129 25.1917 16.4857C24.9394 21.3401 20.9268 25.2043 16 25.2043C12.447 25.2043 9.34748 23.1849 7.81514 20.2151H12.7312C13.0163 20.2151 13.2474 19.984 13.2474 19.6989V19.2688C13.2474 18.9838 13.0163 18.7527 12.7312 18.7527H5.8495C5.56447 18.7527 5.33337 18.9838 5.33337 19.2688V26.1505C5.33337 26.4356 5.56447 26.6667 5.8495 26.6667H6.27961C6.56464 26.6667 6.79574 26.4356 6.79574 26.1505V21.3924C8.64826 24.5479 12.0765 26.6667 16 26.6667C21.7107 26.6667 26.3732 22.179 26.6534 16.5379C26.668 16.2447 26.4312 16 26.1376 16Z" fill="currentColor"/>
</svg>
