<svg width="32" height="32" viewBox="0 0 32 32" fill="none" xmlns="http://www.w3.org/2000/svg">
<path d="M28.7475 17.576L20.2426 26.0809C19.4615 26.862 18.1952 26.8619 17.4142 26.0809L17.3402 26.0069L18.283 25.0641L18.357 25.1381C18.6175 25.3986 19.0396 25.3982 19.2998 25.1381L27.8047 16.6332C28.0646 16.3732 28.0646 15.9503 27.8047 15.6904L18.9763 6.86193C18.9145 6.79983 18.841 6.7506 18.7601 6.71708C18.6792 6.68357 18.5924 6.66643 18.5048 6.66668H17.6903L16.357 5.33334H18.5048C19.0353 5.33335 19.544 5.54406 19.9191 5.91914L28.7475 14.7476C29.5286 15.5286 29.5286 16.7949 28.7475 17.576ZM13.1715 6.66668H4.66663C4.29904 6.66668 3.99996 6.96576 3.99996 7.33334V15.8383C3.99996 16.0163 4.06929 16.1838 4.19521 16.3097L13.0236 25.1381C13.2842 25.3986 13.7063 25.3982 13.9664 25.1381L22.4713 16.6332C22.7313 16.3732 22.7313 15.9503 22.4713 15.6904L13.6429 6.86193C13.5812 6.79983 13.5077 6.7506 13.4268 6.71709C13.3459 6.68357 13.2591 6.66644 13.1715 6.66668ZM13.1715 5.33334C13.702 5.33335 14.2107 5.54406 14.5858 5.91914L23.4142 14.7476C24.1952 15.5286 24.1952 16.7949 23.4142 17.576L14.9093 26.0809C14.1282 26.862 12.8618 26.8619 12.0808 26.0809L3.25242 17.2525C2.87734 16.8774 2.66663 16.3687 2.66663 15.8383L2.66663 7.33334C2.66663 6.22876 3.56204 5.33334 4.66663 5.33334H13.1715ZM8.66663 10.5C8.20713 10.5 7.8333 10.8738 7.8333 11.3333C7.8333 11.7928 8.20713 12.1667 8.66663 12.1667C9.12613 12.1667 9.49996 11.7928 9.49996 11.3333C9.49996 10.8738 9.12613 10.5 8.66663 10.5ZM8.66663 9.33335C9.77121 9.33335 10.6666 10.2288 10.6666 11.3333C10.6666 12.4379 9.77121 13.3333 8.66663 13.3333C7.56205 13.3333 6.66663 12.4379 6.66663 11.3333C6.66663 10.2288 7.56205 9.33335 8.66663 9.33335Z" fill="#474747"/>
</svg>
