<svg width="32" height="32" viewBox="0 0 32 32" fill="none" xmlns="http://www.w3.org/2000/svg">
<path d="M26.0809 14.7475L17.2525 5.91914C16.8774 5.54406 16.3687 5.33335 15.8383 5.33334H7.33337C6.22879 5.33334 5.33337 6.22876 5.33337 7.33334V15.8383C5.33338 16.3687 5.54409 16.8774 5.91917 17.2525L14.7476 26.0809C15.5286 26.8619 16.795 26.862 17.576 26.0809L26.0809 17.576C26.862 16.7949 26.862 15.5286 26.0809 14.7475ZM25.1381 16.6332L16.6332 25.1381C16.3731 25.3982 15.9509 25.3986 15.6904 25.1381L6.86196 16.3096C6.79986 16.2479 6.75063 16.1744 6.71711 16.0935C6.6836 16.0126 6.66646 15.9258 6.66671 15.8382V7.33334C6.66671 6.96576 6.96579 6.66668 7.33337 6.66668H15.8383C16.0164 6.66668 16.1838 6.73601 16.3097 6.86193L25.1381 15.6903C25.398 15.9503 25.398 16.3733 25.1381 16.6332ZM11.3334 10.5C11.7929 10.5 12.1667 10.8738 12.1667 11.3333C12.1667 11.7928 11.7929 12.1667 11.3334 12.1667C10.8739 12.1667 10.5 11.7928 10.5 11.3333C10.5 10.8738 10.8739 10.5 11.3334 10.5ZM11.3334 9.33334C10.2288 9.33334 9.33337 10.2288 9.33337 11.3333C9.33337 12.4379 10.2288 13.3333 11.3334 13.3333C12.438 13.3333 13.3334 12.4379 13.3334 11.3333C13.3334 10.2288 12.438 9.33334 11.3334 9.33334Z" fill="#474747"/>
</svg>
