<svg width="32" height="32" viewBox="0 0 32 32" fill="none" xmlns="http://www.w3.org/2000/svg">
<path d="M26.0274 17.2368C26.441 16.7004 26.6667 16 26.6667 15.1445C26.6667 13.5748 25.3303 12.1207 23.6364 12.1207H20.7135C21.0768 11.3971 21.5758 10.4995 21.5758 9.21171C21.5758 6.77804 20.605 5.33337 18.1213 5.33337C16.8715 5.33337 16.4077 6.91329 16.1701 8.13454C16.0281 8.86417 15.894 9.55337 15.4815 9.96583C14.4995 10.948 13 13.3334 12.0993 13.8177C12.0081 13.8562 11.8915 13.8864 11.7646 13.9104C11.5241 13.5619 11.1222 13.3334 10.6667 13.3334H6.66671C5.93033 13.3334 5.33337 13.9303 5.33337 14.6667V25.3334C5.33337 26.0697 5.93033 26.6667 6.66671 26.6667H10.6667C11.4031 26.6667 12 26.0697 12 25.3334V24.9692C13.354 24.9692 16.1953 26.667 19.394 26.6661C19.6234 26.6663 20.9627 26.6674 21.1029 26.6661C23.573 26.6667 24.9468 25.1708 24.8668 22.9247C25.4971 22.1861 25.806 21.119 25.6262 20.1287C26.1452 19.3151 26.2565 18.1675 26.0274 17.2368ZM6.66671 25.3334V14.6667H10.6667V25.3334H6.66671ZM24.3341 16.848C25 17.3334 25 19.3334 24.1005 19.7924C24.6639 20.7407 24.1568 22.0098 23.4748 22.3756C23.8204 24.5647 22.6848 25.3175 21.091 25.3328C20.953 25.3341 19.539 25.3328 19.394 25.3328C16.3553 25.3328 13.7798 23.6359 12.0001 23.6359V15.1511C13.5712 15.1511 15.0128 12.3203 16.4244 10.9087C17.6971 9.63596 17.2728 7.51475 18.1213 6.66629C20.2425 6.66629 20.2425 8.14617 20.2425 9.21175C20.2425 10.9696 18.9698 11.7572 18.9698 13.4541H23.6365C24.5835 13.4541 25.3293 14.3026 25.3334 15.1511C25.3375 15.9995 25 16.6667 24.3341 16.848ZM9.66671 23.3334C9.66671 23.8857 9.219 24.3334 8.66671 24.3334C8.11442 24.3334 7.66671 23.8857 7.66671 23.3334C7.66671 22.7811 8.11442 22.3334 8.66671 22.3334C9.219 22.3334 9.66671 22.7811 9.66671 23.3334Z" fill="#474747"/>
</svg>
