<svg width="32" height="32" viewBox="0 0 32 32" fill="none" xmlns="http://www.w3.org/2000/svg">
<path d="M26.0273 14.7632C26.2564 13.8326 26.1452 12.6849 25.6262 11.8714C25.806 10.881 25.4971 9.81399 24.8668 9.07533C24.9468 6.82929 23.5729 5.33338 21.1028 5.33396C20.9627 5.33271 19.6233 5.33383 19.394 5.33396C16.1914 5.33308 13.4966 7.00004 12 7.00004H11.5482C11.3132 6.79275 11.0047 6.66671 10.6667 6.66671H6.6667C5.93033 6.66671 5.33337 7.26366 5.33337 8.00004V18.6667C5.33337 19.4031 5.93033 20 6.6667 20H10.6667C11.4031 20 12 19.4031 12 18.6667V18.1466C12.0354 18.1577 12.0689 18.1695 12.0993 18.1823C13 18.6667 14.4994 21.0521 15.4815 22.0342C15.894 22.4467 16.0281 23.1358 16.1701 23.8655C16.4077 25.0868 16.8715 26.6667 18.1213 26.6667C20.6049 26.6667 21.5758 25.222 21.5758 22.7883C21.5758 21.5006 21.0768 20.603 20.7135 19.8793H23.6364C25.3303 19.8793 26.6667 18.4253 26.6667 16.8555C26.6667 16 26.441 15.2996 26.0273 14.7632ZM10.6667 18.6667H6.6667V8.00004H10.6667V18.6667ZM23.6364 18.5459H18.9698C18.9698 20.2429 20.2425 21.0304 20.2425 22.7883C20.2425 23.8539 20.2425 25.3338 18.1213 25.3338C17.2728 24.4853 17.697 22.3641 16.4243 21.0914C15.2324 19.8994 13.4546 16.849 12.1819 16.849H12V8.3642H12.1819C13.6278 8.3642 16.4243 6.66725 19.394 6.66725C19.539 6.66725 20.9529 6.666 21.0909 6.66725C22.6847 6.68258 23.8203 7.43533 23.4748 9.62449C24.1567 9.99032 24.6638 11.2593 24.1004 12.2077C25 12.6667 25 14.6667 24.334 15.152C25 15.3334 25.3375 16.0005 25.3333 16.849C25.3292 17.6975 24.5835 18.5459 23.6364 18.5459ZM9.6667 16.6667C9.6667 17.219 9.21899 17.6667 8.6667 17.6667C8.11441 17.6667 7.6667 17.219 7.6667 16.6667C7.6667 16.1144 8.11441 15.6667 8.6667 15.6667C9.21899 15.6667 9.6667 16.1144 9.6667 16.6667Z" fill="#474747"/>
</svg>
