<svg width="32" height="32" viewBox="0 0 32 32" fill="none" xmlns="http://www.w3.org/2000/svg">
<path d="M21.6667 12H10.3333C9.78104 12 9.33333 12.4477 9.33333 13V19C9.33333 19.5523 9.78104 20 10.3333 20H21.6667C22.219 20 22.6667 19.5523 22.6667 19V13C22.6667 12.4477 22.219 12 21.6667 12ZM21.3333 18.6667H10.6667V13.3333H21.3333V18.6667ZM26.6667 14.6667H28V10C28 8.89542 27.1046 8 26 8H6C4.89542 8 4 8.89542 4 10V14.6667H5.33333C6.06971 14.6667 6.66667 15.2636 6.66667 16C6.66667 16.7364 6.06971 17.3333 5.33333 17.3333H4V22C4 23.1046 4.89542 24 6 24H26C27.1046 24 28 23.1046 28 22V17.3333H26.6667C25.9303 17.3333 25.3333 16.7364 25.3333 16C25.3333 15.2636 25.9303 14.6667 26.6667 14.6667ZM26.6667 18.6667V22C26.6667 22.3676 26.3676 22.6667 26 22.6667H6C5.63238 22.6667 5.33333 22.3676 5.33333 22V18.6667C6.80375 18.6667 8 17.4704 8 16C8 14.5296 6.80375 13.3333 5.33333 13.3333V10C5.33333 9.63238 5.63238 9.33333 6 9.33333H26C26.3676 9.33333 26.6667 9.63238 26.6667 10V13.3333C25.1963 13.3333 24 14.5296 24 16C24 17.4704 25.1963 18.6667 26.6667 18.6667Z" fill="currentColor"/>
</svg>
