<svg width="32" height="32" viewBox="0 0 32 32" fill="none" xmlns="http://www.w3.org/2000/svg">
<path d="M17.4143 16.0002L21.6878 11.7268L22.5691 10.8455C22.6991 10.7155 22.6991 10.5042 22.5691 10.3742L21.6261 9.43126C21.4961 9.30126 21.2849 9.30126 21.1549 9.43126L16.0001 14.586L10.8454 9.43085C10.7154 9.30084 10.5041 9.30084 10.3741 9.43085L9.43075 10.3738C9.30075 10.5038 9.30075 10.7151 9.43075 10.8451L14.5859 16.0002L9.43075 21.155C9.30075 21.285 9.30075 21.4962 9.43075 21.6262L10.3737 22.5692C10.5037 22.6992 10.715 22.6992 10.845 22.5692L16.0001 17.4144L20.2736 21.6879L21.1549 22.5692C21.2849 22.6992 21.4961 22.6992 21.6261 22.5692L22.5691 21.6262C22.6991 21.4962 22.6991 21.285 22.5691 21.155L17.4143 16.0002Z" fill="currentColor"/>
</svg>
