<svg width="32" height="32" viewBox="0 0 32 32" fill="none" xmlns="http://www.w3.org/2000/svg">
<path d="M23.3333 6.66669H8.66663C7.56246 6.66669 6.66663 7.56252 6.66663 8.66669V23.3334C6.66663 24.4375 7.56246 25.3334 8.66663 25.3334H23.3333C24.4375 25.3334 25.3333 24.4375 25.3333 23.3334V8.66669C25.3333 7.56252 24.4375 6.66669 23.3333 6.66669ZM24 23.3334C24 23.7 23.7 24 23.3333 24H8.66663C8.29996 24 7.99996 23.7 7.99996 23.3334V8.66669C7.99996 8.30002 8.29996 8.00002 8.66663 8.00002H23.3333C23.7 8.00002 24 8.30002 24 8.66669V23.3334ZM19.95 13.1125L17.0625 16L19.95 18.8875C20.1458 19.0834 20.1458 19.4 19.95 19.5959L19.5958 19.95C19.4 20.1459 19.0833 20.1459 18.8875 19.95L16 17.0625L13.1125 19.95C12.9166 20.1459 12.6 20.1459 12.4041 19.95L12.05 19.5959C11.8541 19.4 11.8541 19.0834 12.05 18.8875L14.9375 16L12.05 13.1125C11.8541 12.9167 11.8541 12.6 12.05 12.4042L12.4041 12.05C12.6 11.8542 12.9166 11.8542 13.1125 12.05L16 14.9375L18.8875 12.05C19.0833 11.8542 19.4 11.8542 19.5958 12.05L19.95 12.4042C20.1416 12.6 20.1416 12.9167 19.95 13.1125Z" fill="#474747"/>
</svg>
