<svg width="32" height="32" viewBox="0 0 32 32" fill="none" xmlns="http://www.w3.org/2000/svg">
<path d="M16 5.33331C10.1076 5.33331 5.33337 10.1075 5.33337 16C5.33337 21.8925 10.1076 26.6666 16 26.6666C21.8925 26.6666 26.6667 21.8925 26.6667 16C26.6667 10.1075 21.8925 5.33331 16 5.33331ZM16 25.2903C10.8947 25.2903 6.70972 21.157 6.70972 16C6.70972 10.8946 10.8431 6.70966 16 6.70966C21.1054 6.70966 25.2904 10.843 25.2904 16C25.2904 21.1054 21.157 25.2903 16 25.2903ZM20.0775 13.0193L17.0968 16L20.0775 18.9806C20.2796 19.1828 20.2796 19.5097 20.0775 19.7118L19.7119 20.0774C19.5097 20.2795 19.1828 20.2795 18.9807 20.0774L16 17.0968L13.0194 20.0774C12.8172 20.2795 12.4904 20.2795 12.2882 20.0774L11.9226 19.7118C11.7205 19.5097 11.7205 19.1828 11.9226 18.9806L14.9033 16L11.9226 13.0193C11.7205 12.8172 11.7205 12.4903 11.9226 12.2882L12.2882 11.9226C12.4904 11.7204 12.8172 11.7204 13.0194 11.9226L16 14.9032L18.9807 11.9226C19.1828 11.7204 19.5097 11.7204 19.7119 11.9226L20.0775 12.2882C20.2753 12.4903 20.2753 12.8172 20.0775 13.0193Z" fill="#474747"/>
</svg>
