<svg width="32" height="32" viewBox="0 0 32 32" fill="none" xmlns="http://www.w3.org/2000/svg">
<path d="M6.84998 22.6083L15.7416 19.7666C16.4416 19.5416 16.8291 18.7916 16.6041 18.0916L14.1666 10.4708C13.9416 9.76664 13.1875 9.37914 12.4916 9.60414L3.60415 12.4458C2.90415 12.6666 2.51248 13.4166 2.73748 14.1208L5.17081 21.7416C5.39165 22.4333 6.13748 22.8333 6.84998 22.6083ZM9.08748 12.0916L9.89998 14.6333L8.63331 15.0416L7.82081 12.5L9.08748 12.0916ZM6.54581 12.9041L7.76664 16.7125L11.575 15.4958L10.3583 11.6875L12.8958 10.875L15.3333 18.4958L6.44165 21.3375L4.00831 13.7166L6.54581 12.9041ZM20 6.66665H29.3333V5.33331H20C18.5291 5.33331 17.3333 6.52915 17.3333 7.99998V20.8291L2.91248 25.3666C2.73332 25.4166 2.62915 25.6 2.67915 25.775L2.85415 26.4166C2.90415 26.5958 3.08748 26.7 3.26248 26.65L17.9666 22H20C20 24.5791 22.0875 26.6666 24.6666 26.6666C27.2458 26.6666 29.3333 24.5791 29.3333 22C29.3333 19.4208 27.2458 17.3333 24.6666 17.3333C22.5583 17.3333 20.8 18.7458 20.2208 20.6666H18.6666V7.99998C18.6666 7.26664 19.2666 6.66665 20 6.66665ZM24.6666 18.6666C26.5041 18.6666 28 20.1625 28 22C28 23.8375 26.5041 25.3333 24.6666 25.3333C22.8291 25.3333 21.3333 23.8375 21.3333 22C21.3333 20.1625 22.8291 18.6666 24.6666 18.6666Z" fill="#474747"/>
</svg>
