<svg width="32" height="32" viewBox="0 0 32 32" fill="none" xmlns="http://www.w3.org/2000/svg">
<path d="M19.0001 23.3333H19.6667C19.7552 23.3333 19.8399 23.2982 19.9024 23.2357C19.965 23.1732 20.0001 23.0884 20.0001 23V11.6667C20.0001 11.5783 19.965 11.4935 19.9024 11.431C19.8399 11.3685 19.7552 11.3333 19.6667 11.3333H19.0001C18.9117 11.3333 18.8269 11.3685 18.7644 11.431C18.7019 11.4935 18.6667 11.5783 18.6667 11.6667V23C18.6667 23.0884 18.7019 23.1732 18.7644 23.2357C18.8269 23.2982 18.9117 23.3333 19.0001 23.3333ZM12.3334 23.3333H13.0001C13.0885 23.3333 13.1733 23.2982 13.2358 23.2357C13.2983 23.1732 13.3334 23.0884 13.3334 23V11.6667C13.3334 11.5783 13.2983 11.4935 13.2358 11.431C13.1733 11.3685 13.0885 11.3333 13.0001 11.3333H12.3334C12.245 11.3333 12.1602 11.3685 12.0977 11.431C12.0352 11.4935 12.0001 11.5783 12.0001 11.6667V23C12.0001 23.0884 12.0352 23.1732 12.0977 23.2357C12.1602 23.2982 12.245 23.3333 12.3334 23.3333ZM25.0001 8.00001H20.6667L19.2667 6.13334C19.0805 5.88495 18.8389 5.68334 18.5612 5.54449C18.2835 5.40563 17.9772 5.33334 17.6667 5.33334L14.3334 5.33334C14.0229 5.33334 13.7167 5.40563 13.439 5.54449C13.1613 5.68334 12.9197 5.88495 12.7334 6.13334L11.3334 8.00001H7.00008C6.91168 8.00001 6.82689 8.03513 6.76438 8.09764C6.70187 8.16015 6.66675 8.24494 6.66675 8.33334V9.00001C6.66675 9.08842 6.70187 9.1732 6.76438 9.23571C6.82689 9.29822 6.91168 9.33334 7.00008 9.33334H8.00008V24.6667C8.00008 25.1971 8.2108 25.7058 8.58587 26.0809C8.96094 26.456 9.46965 26.6667 10.0001 26.6667H22.0001C22.5305 26.6667 23.0392 26.456 23.4143 26.0809C23.7894 25.7058 24.0001 25.1971 24.0001 24.6667V9.33334H25.0001C25.0885 9.33334 25.1733 9.29822 25.2358 9.23571C25.2983 9.1732 25.3334 9.08842 25.3334 9.00001V8.33334C25.3334 8.24494 25.2983 8.16015 25.2358 8.09764C25.1733 8.03513 25.0885 8.00001 25.0001 8.00001ZM13.8001 6.93334C13.8624 6.85078 13.943 6.78376 14.0355 6.7375C14.128 6.69124 14.23 6.667 14.3334 6.66668H17.6667C17.7702 6.667 17.8722 6.69124 17.9647 6.7375C18.0572 6.78376 18.1378 6.85078 18.2001 6.93334L19.0001 8.00001H13.0001L13.8001 6.93334ZM22.6667 24.6667C22.6667 24.8435 22.5965 25.0131 22.4715 25.1381C22.3465 25.2631 22.1769 25.3333 22.0001 25.3333H10.0001C9.82327 25.3333 9.6537 25.2631 9.52868 25.1381C9.40365 25.0131 9.33341 24.8435 9.33341 24.6667V9.33334H22.6667V24.6667ZM15.6667 23.3333H16.3334C16.4218 23.3333 16.5066 23.2982 16.5691 23.2357C16.6316 23.1732 16.6667 23.0884 16.6667 23V11.6667C16.6667 11.5783 16.6316 11.4935 16.5691 11.431C16.5066 11.3685 16.4218 11.3333 16.3334 11.3333H15.6667C15.5783 11.3333 15.4936 11.3685 15.431 11.431C15.3685 11.4935 15.3334 11.5783 15.3334 11.6667V23C15.3334 23.0884 15.3685 23.1732 15.431 23.2357C15.4936 23.2982 15.5783 23.3333 15.6667 23.3333Z" fill="#474747"/>
</svg>
