<svg width="32" height="32" viewBox="0 0 32 32" fill="none" xmlns="http://www.w3.org/2000/svg">
<path d="M29 20.6667H28V16.1625C28 15.4625 27.7166 14.775 27.2166 14.2792L23.7208 10.7833C23.2291 10.2833 22.5416 10 21.8375 10H20V7.94167C20 6.87083 19.075 6 17.9416 6H4.72496C3.59163 6 2.66663 6.87083 2.66663 7.94167V20.0583C2.66663 21.1292 3.59163 22 4.72496 22H5.39996C5.35413 22.2167 5.33329 22.4375 5.33329 22.6667C5.33329 24.5083 6.82496 26 8.66663 26C10.5083 26 12 24.5083 12 22.6667C12 22.4375 11.975 22.2167 11.9333 22H20.0666C20.0208 22.2167 20 22.4375 20 22.6667C20 24.5083 21.4916 26 23.3333 26C25.175 26 26.6666 24.5083 26.6666 22.6667C26.6666 22.4375 26.6416 22.2167 26.6 22H29C29.1833 22 29.3333 21.85 29.3333 21.6667V21C29.3333 20.8167 29.1833 20.6667 29 20.6667ZM21.8375 11.3333C22.1875 11.3333 22.5333 11.475 22.7791 11.725L26.275 15.2208C26.3083 15.2542 26.3208 15.3 26.35 15.3375H20V11.3375H21.8375V11.3333ZM8.66663 24.6667C7.56246 24.6667 6.66663 23.7708 6.66663 22.6667C6.66663 21.5625 7.56246 20.6667 8.66663 20.6667C9.77079 20.6667 10.6666 21.5625 10.6666 22.6667C10.6666 23.7708 9.77079 24.6667 8.66663 24.6667ZM11.3166 20.6667C10.7083 19.8625 9.74996 19.3333 8.66663 19.3333C7.58329 19.3333 6.62496 19.8625 6.01663 20.6667H4.72496C4.32496 20.6667 3.99996 20.3958 3.99996 20.0583V7.94167C3.99996 7.60417 4.32496 7.33333 4.72496 7.33333H17.9416C18.3416 7.33333 18.6666 7.60417 18.6666 7.94167V20.6667H11.3166ZM23.3333 24.6667C22.2291 24.6667 21.3333 23.7708 21.3333 22.6667C21.3333 21.5625 22.2291 20.6667 23.3333 20.6667C24.4375 20.6667 25.3333 21.5625 25.3333 22.6667C25.3333 23.7708 24.4375 24.6667 23.3333 24.6667ZM23.3333 19.3333C22.2458 19.3333 21.2916 19.8625 20.6833 20.6667H20V16.6667H26.6666V20.6667H25.9833C25.375 19.8625 24.4208 19.3333 23.3333 19.3333Z" fill="#474747"/>
</svg>
