<svg width="32" height="32" viewBox="0 0 32 32" fill="none" xmlns="http://www.w3.org/2000/svg">
<path d="M21.1452 6.08665C19.7406 5.5754 18.3047 5.33331 16.8922 5.33331C13.1226 5.33331 9.52386 7.0604 7.16551 10.0137C6.88635 10.3633 7.05426 10.8904 7.47468 11.0433L17.3143 14.6246L13.4164 25.3334H3.00008C2.81592 25.3334 2.66675 25.4826 2.66675 25.6667V26.3334C2.66675 26.5176 2.81592 26.6667 3.00008 26.6667H26.3335C26.5177 26.6667 26.6668 26.5176 26.6668 26.3334V25.6667C26.6668 25.4826 26.5177 25.3334 26.3335 25.3334H14.8347L18.5664 15.0804L28.431 18.6709C28.5073 18.6988 28.5852 18.7117 28.6614 18.7117C29.006 18.7117 29.3206 18.4471 29.3298 18.0809C29.456 12.8867 26.2977 7.96207 21.1452 6.08665ZM8.84052 10.1217C10.9214 7.94332 13.8655 6.66665 16.8926 6.66665C17.2181 6.66665 17.5426 6.68123 17.866 6.70998C16.3297 7.67499 14.7926 9.48583 13.5718 11.8438L8.84052 10.1217ZM21.9743 14.9021L14.8443 12.3071C16.5289 9.12208 18.7039 7.25415 20.1835 7.25374C20.3647 7.25374 20.5301 7.28207 20.6889 7.33957C21.5039 7.63624 22.1043 8.80458 22.2956 10.4646C22.4481 11.7908 22.3177 13.3167 21.9743 14.9021ZM23.2577 15.3692C23.8339 12.8038 23.8272 10.4408 23.2868 8.71749C26.0089 10.6375 27.7693 13.6946 27.9789 17.0879L23.2577 15.3692Z" fill="#474747"/>
</svg>
