<svg width="32" height="32" viewBox="0 0 32 32" fill="none" xmlns="http://www.w3.org/2000/svg">
<path d="M25 5.33337H19C18.9116 5.33337 18.8268 5.36849 18.7643 5.43101C18.7017 5.49352 18.6666 5.5783 18.6666 5.66671V6.33337C18.6666 6.42178 18.7017 6.50656 18.7643 6.56908C18.8268 6.63159 18.9116 6.66671 19 6.66671H21.3333V16C21.3333 17.4145 20.7714 18.7711 19.7712 19.7713C18.771 20.7715 17.4144 21.3334 16 21.3334C14.5855 21.3334 13.2289 20.7715 12.2287 19.7713C11.2285 18.7711 10.6666 17.4145 10.6666 16V6.66671H13C13.0884 6.66671 13.1731 6.63159 13.2357 6.56908C13.2982 6.50656 13.3333 6.42178 13.3333 6.33337V5.66671C13.3333 5.5783 13.2982 5.49352 13.2357 5.43101C13.1731 5.36849 13.0884 5.33337 13 5.33337H6.99996C6.91155 5.33337 6.82677 5.36849 6.76426 5.43101C6.70174 5.49352 6.66663 5.5783 6.66663 5.66671V6.33337C6.66663 6.42178 6.70174 6.50656 6.76426 6.56908C6.82677 6.63159 6.91155 6.66671 6.99996 6.66671H9.33329V16C9.33329 19.6759 12.3241 22.6667 16 22.6667C19.6758 22.6667 22.6666 19.6759 22.6666 16V6.66671H25C25.0884 6.66671 25.1731 6.63159 25.2357 6.56908C25.2982 6.50656 25.3333 6.42178 25.3333 6.33337V5.66671C25.3333 5.5783 25.2982 5.49352 25.2357 5.43101C25.1731 5.36849 25.0884 5.33337 25 5.33337ZM25 25.3334H6.99996C6.91155 25.3334 6.82677 25.3685 6.76426 25.431C6.70174 25.4935 6.66663 25.5783 6.66663 25.6667V26.3334C6.66663 26.4218 6.70174 26.5066 6.76426 26.5691C6.82677 26.6316 6.91155 26.6667 6.99996 26.6667H25C25.0884 26.6667 25.1731 26.6316 25.2357 26.5691C25.2982 26.5066 25.3333 26.4218 25.3333 26.3334V25.6667C25.3333 25.5783 25.2982 25.4935 25.2357 25.431C25.1731 25.3685 25.0884 25.3334 25 25.3334Z" fill="#474747"/>
</svg>
