<svg width="32" height="32" viewBox="0 0 32 32" fill="none" xmlns="http://www.w3.org/2000/svg">
<path d="M16.1778 5.67229C13.7651 5.67229 11.5429 6.48498 9.76511 7.85218L7.64448 5.73154C6.79792 4.88075 5.33337 5.48181 5.33337 6.68816V12.1061C5.33337 12.8553 5.93866 13.4606 6.68787 13.4606H12.1059C13.3122 13.4606 13.9133 12.0003 13.0625 11.1495L10.7937 8.87651C12.3302 7.74212 14.2011 7.11144 16.1693 7.11144C21.181 7.11144 25.2275 11.1749 25.2275 16.1696C25.2275 21.1813 21.164 25.2278 16.1693 25.2278C13.8963 25.2278 11.7588 24.3897 10.1122 22.904C9.91326 22.722 9.60427 22.7347 9.41379 22.9252L9.11326 23.2257C8.90586 23.4331 8.91856 23.7675 9.13443 23.9622C10.9969 25.6426 13.4646 26.667 16.1693 26.667C21.9598 26.667 26.654 21.977 26.6667 16.1908C26.6794 10.4046 21.9598 5.67652 16.1778 5.67229ZM12.1059 12.1061H6.68787V6.68816L12.1059 12.1061Z" fill="currentColor"/>
</svg>
