<svg width="32" height="32" viewBox="0 0 32 32" fill="none" xmlns="http://www.w3.org/2000/svg">
<path d="M24.1666 23.3333C24.1666 23.7916 23.7916 24.1666 23.3333 24.1666C22.8749 24.1666 22.4999 23.7916 22.4999 23.3333C22.4999 22.875 22.8749 22.5 23.3333 22.5C23.7916 22.5 24.1666 22.875 24.1666 23.3333ZM20.6666 22.5C20.2083 22.5 19.8333 22.875 19.8333 23.3333C19.8333 23.7916 20.2083 24.1666 20.6666 24.1666C21.1249 24.1666 21.4999 23.7916 21.4999 23.3333C21.4999 22.875 21.1249 22.5 20.6666 22.5ZM26.6666 20.5V24.8333C26.6666 25.8458 25.8458 26.6666 24.8333 26.6666H7.16659C6.15409 26.6666 5.33325 25.8458 5.33325 24.8333V20.5C5.33325 19.4875 6.15409 18.6666 7.16659 18.6666H12.3333V14.5291H10.1374C8.65409 14.5291 7.91242 12.7333 8.95825 11.6833L14.8208 5.82081C15.4708 5.17081 16.5249 5.17081 17.1791 5.82081L23.0416 11.6833C24.0916 12.7333 23.3458 14.5291 21.8624 14.5291H19.6666V18.6666H24.8333C25.8458 18.6666 26.6666 19.4875 26.6666 20.5ZM13.6666 13.1958V21C13.6666 21.1833 13.8166 21.3333 13.9999 21.3333H17.9999C18.1833 21.3333 18.3333 21.1833 18.3333 21V13.1958H21.8624C22.1583 13.1958 22.3083 12.8375 22.0999 12.625L16.2374 6.76248C16.1083 6.63331 15.8958 6.63331 15.7666 6.76248L9.90409 12.625C9.69575 12.8333 9.84159 13.1958 10.1416 13.1958H13.6666ZM25.3333 20.5C25.3333 20.225 25.1083 20 24.8333 20H19.6666V21C19.6666 21.9208 18.9208 22.6666 17.9999 22.6666H13.9999C13.0791 22.6666 12.3333 21.9208 12.3333 21V20H7.16659C6.89159 20 6.66659 20.225 6.66659 20.5V24.8333C6.66659 25.1083 6.89159 25.3333 7.16659 25.3333H24.8333C25.1083 25.3333 25.3333 25.1083 25.3333 24.8333V20.5Z" fill="currentColor"/>
</svg>
