<svg width="32" height="32" viewBox="0 0 32 32" fill="none" xmlns="http://www.w3.org/2000/svg">
<path d="M29.2369 11.3582L28.6494 10.7665C28.5203 10.6374 28.3078 10.6332 28.1786 10.7665L23.3787 15.4206L21.1579 13.1957C21.0288 13.0665 20.8163 13.0665 20.6871 13.1957L20.0954 13.7831C19.9663 13.9123 19.9663 14.1248 20.0954 14.254L23.0204 17.1872C23.2162 17.3831 23.5329 17.3831 23.7287 17.1872L29.2328 11.829C29.3661 11.6999 29.3661 11.4874 29.2369 11.3582ZM15.733 17.3331C14.5372 17.3331 13.9622 17.9997 11.9998 17.9997C10.0373 17.9997 9.46649 17.3331 8.26652 17.3331C5.17491 17.3331 2.66663 19.8414 2.66663 22.933V24.6663C2.66663 25.7704 3.56244 26.6662 4.66659 26.6662H19.333C20.4371 26.6662 21.3329 25.7704 21.3329 24.6663V22.933C21.3329 19.8414 18.8246 17.3331 15.733 17.3331ZM19.9996 24.6663C19.9996 25.0329 19.6996 25.3329 19.333 25.3329H4.66659C4.29993 25.3329 3.99993 25.0329 3.99993 24.6663V22.933C3.99993 20.5788 5.9124 18.6664 8.26652 18.6664C9.08317 18.6664 9.89565 19.333 11.9998 19.333C14.0997 19.333 14.9164 18.6664 15.733 18.6664C18.0872 18.6664 19.9996 20.5788 19.9996 22.933V24.6663ZM11.9998 15.9998C14.9455 15.9998 17.333 13.6123 17.333 10.6665C17.333 7.72077 14.9455 5.33331 11.9998 5.33331C9.054 5.33331 6.66655 7.72077 6.66655 10.6665C6.66655 13.6123 9.054 15.9998 11.9998 15.9998ZM11.9998 6.66662C14.2039 6.66662 15.9997 8.46242 15.9997 10.6665C15.9997 12.8707 14.2039 14.6665 11.9998 14.6665C9.79565 14.6665 7.99985 12.8707 7.99985 10.6665C7.99985 8.46242 9.79565 6.66662 11.9998 6.66662Z" fill="#474747"/>
</svg>
