<svg width="32" height="32" viewBox="0 0 32 32" fill="none" xmlns="http://www.w3.org/2000/svg">
<path d="M15.9999 5.33331C10.1074 5.33331 5.33325 10.1075 5.33325 16C5.33325 21.8925 10.1074 26.6666 15.9999 26.6666C21.8924 26.6666 26.6666 21.8925 26.6666 16C26.6666 10.1075 21.8924 5.33331 15.9999 5.33331ZM21.5053 23.4666C19.9612 24.6064 18.0601 25.2903 15.9999 25.2903C13.9397 25.2903 12.0386 24.6064 10.4945 23.4666V22.8817C10.4945 21.3634 11.729 20.129 13.2472 20.129C13.7246 20.129 14.43 20.6193 15.9999 20.6193C17.5741 20.6193 18.2709 20.129 18.7526 20.129C20.2709 20.129 21.5053 21.3634 21.5053 22.8817V23.4666ZM22.8214 22.2839C22.529 20.2882 20.83 18.7527 18.7526 18.7527C17.8709 18.7527 17.4451 19.243 15.9999 19.243C14.5548 19.243 14.1333 18.7527 13.2472 18.7527C11.1698 18.7527 9.47089 20.2882 9.17841 22.2839C7.65153 20.6279 6.7096 18.4258 6.7096 16C6.7096 10.8774 10.8773 6.70966 15.9999 6.70966C21.1225 6.70966 25.2902 10.8774 25.2902 16C25.2902 18.4258 24.3483 20.6279 22.8214 22.2839ZM15.9999 10.1505C13.9096 10.1505 12.215 11.8451 12.215 13.9355C12.215 16.0258 13.9096 17.7204 15.9999 17.7204C18.0902 17.7204 19.7849 16.0258 19.7849 13.9355C19.7849 11.8451 18.0902 10.1505 15.9999 10.1505ZM15.9999 16.3441C14.6709 16.3441 13.5913 15.2645 13.5913 13.9355C13.5913 12.6064 14.6709 11.5269 15.9999 11.5269C17.329 11.5269 18.4085 12.6064 18.4085 13.9355C18.4085 15.2645 17.329 16.3441 15.9999 16.3441Z" fill="currentColor"/>
</svg>
