<svg width="32" height="32" viewBox="0 0 32 32" fill="none" xmlns="http://www.w3.org/2000/svg">
<path d="M29 14.6666H25.3333V11C25.3333 10.8166 25.1833 10.6666 25 10.6666H24.3333C24.15 10.6666 24 10.8166 24 11V14.6666H20.3333C20.15 14.6666 20 14.8166 20 15V15.6666C20 15.85 20.15 16 20.3333 16H24V19.6666C24 19.85 24.15 20 24.3333 20H25C25.1833 20 25.3333 19.85 25.3333 19.6666V16H29C29.1833 16 29.3333 15.85 29.3333 15.6666V15C29.3333 14.8166 29.1833 14.6666 29 14.6666ZM15.7333 17.3333C14.5375 17.3333 13.9625 18 12 18C10.0375 18 9.46663 17.3333 8.26663 17.3333C5.17496 17.3333 2.66663 19.8416 2.66663 22.9333V24.6666C2.66663 25.7708 3.56246 26.6666 4.66663 26.6666H19.3333C20.4375 26.6666 21.3333 25.7708 21.3333 24.6666V22.9333C21.3333 19.8416 18.825 17.3333 15.7333 17.3333ZM20 24.6666C20 25.0333 19.7 25.3333 19.3333 25.3333H4.66663C4.29996 25.3333 3.99996 25.0333 3.99996 24.6666V22.9333C3.99996 20.5791 5.91246 18.6666 8.26663 18.6666C9.08329 18.6666 9.89579 19.3333 12 19.3333C14.1 19.3333 14.9166 18.6666 15.7333 18.6666C18.0875 18.6666 20 20.5791 20 22.9333V24.6666ZM12 16C14.9458 16 17.3333 13.6125 17.3333 10.6666C17.3333 7.72081 14.9458 5.33331 12 5.33331C9.05413 5.33331 6.66663 7.72081 6.66663 10.6666C6.66663 13.6125 9.05413 16 12 16ZM12 6.66665C14.2041 6.66665 16 8.46248 16 10.6666C16 12.8708 14.2041 14.6666 12 14.6666C9.79579 14.6666 7.99996 12.8708 7.99996 10.6666C7.99996 8.46248 9.79579 6.66665 12 6.66665Z" fill="#474747"/>
</svg>
