<svg width="32" height="32" viewBox="0 0 32 32" fill="none" xmlns="http://www.w3.org/2000/svg">
<path d="M25.3334 14.6667C27.1751 14.6667 28.6667 13.175 28.6667 11.3334C28.6667 9.49169 27.1751 8.00002 25.3334 8.00002C23.4917 8.00002 22.0001 9.49169 22.0001 11.3334C22.0001 13.175 23.4917 14.6667 25.3334 14.6667ZM25.3334 9.33335C26.4376 9.33335 27.3334 10.2292 27.3334 11.3334C27.3334 12.4375 26.4376 13.3334 25.3334 13.3334C24.2292 13.3334 23.3334 12.4375 23.3334 11.3334C23.3334 10.2292 24.2292 9.33335 25.3334 9.33335ZM16.0001 16C18.5792 16 20.6667 13.9125 20.6667 11.3334C20.6667 8.75419 18.5792 6.66669 16.0001 6.66669C13.4209 6.66669 11.3334 8.75419 11.3334 11.3334C11.3334 13.9125 13.4209 16 16.0001 16ZM16.0001 8.00002C17.8376 8.00002 19.3334 9.49585 19.3334 11.3334C19.3334 13.1709 17.8376 14.6667 16.0001 14.6667C14.1626 14.6667 12.6667 13.1709 12.6667 11.3334C12.6667 9.49585 14.1626 8.00002 16.0001 8.00002ZM26.1667 16H24.5001C23.8667 16 23.2792 16.2 22.7876 16.5375C23.1792 16.8042 23.5334 17.1167 23.8459 17.4709C24.0501 17.3834 24.2709 17.3334 24.5001 17.3334H26.1667C27.1751 17.3334 28.0001 18.2292 28.0001 19.3334C28.0001 19.7 28.3001 20 28.6667 20C29.0334 20 29.3334 19.7 29.3334 19.3334C29.3334 17.4959 27.9126 16 26.1667 16ZM6.66675 14.6667C8.50841 14.6667 10.0001 13.175 10.0001 11.3334C10.0001 9.49169 8.50841 8.00002 6.66675 8.00002C4.82508 8.00002 3.33341 9.49169 3.33341 11.3334C3.33341 13.175 4.82508 14.6667 6.66675 14.6667ZM6.66675 9.33335C7.77091 9.33335 8.66675 10.2292 8.66675 11.3334C8.66675 12.4375 7.77091 13.3334 6.66675 13.3334C5.56258 13.3334 4.66675 12.4375 4.66675 11.3334C4.66675 10.2292 5.56258 9.33335 6.66675 9.33335ZM19.3376 16.8334C17.9459 16.8334 17.6001 17.3334 16.0001 17.3334C14.4001 17.3334 14.0542 16.8334 12.6626 16.8334C11.1501 16.8334 9.67925 17.5084 8.81675 18.7875C8.30008 19.5542 8.00008 20.475 8.00008 21.4667V23.3334C8.00008 24.4375 8.89591 25.3334 10.0001 25.3334H22.0001C23.1042 25.3334 24.0001 24.4375 24.0001 23.3334V21.4667C24.0001 20.475 23.7001 19.5542 23.1834 18.7875C22.3209 17.5084 20.8501 16.8334 19.3376 16.8334ZM22.6667 23.3334C22.6667 23.7 22.3667 24 22.0001 24H10.0001C9.63341 24 9.33341 23.7 9.33341 23.3334V21.4667C9.33341 20.775 9.53758 20.1042 9.92091 19.5334C10.4959 18.6792 11.5209 18.1667 12.6584 18.1667C13.8001 18.1667 14.2084 18.6667 16.0001 18.6667C17.7917 18.6667 18.2001 18.1667 19.3376 18.1667C20.4751 18.1667 21.5001 18.6792 22.0751 19.5334C22.4584 20.1042 22.6626 20.775 22.6626 21.4667V23.3334H22.6667ZM9.21258 16.5375C8.71675 16.2 8.12925 16 7.50008 16H5.83341C4.08758 16 2.66675 17.4959 2.66675 19.3334C2.66675 19.7 2.96675 20 3.33341 20C3.70008 20 4.00008 19.7 4.00008 19.3334C4.00008 18.2292 4.82508 17.3334 5.83341 17.3334H7.50008C7.72925 17.3334 7.95008 17.3834 8.15425 17.4709C8.46675 17.1167 8.82508 16.8042 9.21258 16.5375Z" fill="#474747"/>
</svg>
