<svg width="32" height="32" viewBox="0 0 32 32" fill="none" xmlns="http://www.w3.org/2000/svg">
<path d="M19.2872 10.4013L21.1089 7.40584C21.6989 6.51958 21.0639 5.33331 20.0001 5.33331H12.0063C10.9413 5.33331 10.3063 6.52083 10.8975 7.40667L12.713 10.4017C4.94702 15.358 5.33661 21.6819 5.33661 22.5002C5.33661 24.8015 7.38289 26.6669 9.90667 26.6669H22.0943C24.6185 26.6669 26.6644 24.8015 26.6644 22.5002C26.6644 21.6969 27.0094 15.3334 19.2872 10.4013ZM12.0063 6.66666H20.0001L17.953 10H14.0476L12.0063 6.66666ZM25.3335 22.5002C25.3335 24.0623 23.8814 25.3336 22.0964 25.3336H9.90667C8.12165 25.3336 6.66955 24.0623 6.66955 22.5002V22.3602C6.6308 19.866 7.50289 15.1518 13.7076 11.3334H18.2951C24.4852 15.1443 25.3652 19.8727 25.3335 22.3752V22.5002ZM17.2338 18.281L15.1922 17.6751C14.9563 17.6076 14.7934 17.3743 14.7934 17.1051C14.7934 16.7776 15.0334 16.513 15.3284 16.513H16.6022C16.8073 16.5142 17.0081 16.5719 17.1826 16.6797C17.2514 16.7266 17.3341 16.749 17.4172 16.7434C17.5003 16.7377 17.5791 16.7043 17.6409 16.6485L18.1714 16.1414C18.209 16.106 18.2384 16.063 18.2577 16.0151C18.277 15.9673 18.2857 15.9158 18.2831 15.8643C18.2805 15.8127 18.2668 15.7624 18.2428 15.7167C18.2188 15.671 18.1852 15.6311 18.1443 15.5997C17.7295 15.295 17.2345 15.1187 16.7205 15.0926V14.3593C16.7198 14.2636 16.6813 14.1722 16.6134 14.1048C16.5455 14.0375 16.4536 13.9999 16.358 14.0001H15.6334C15.5377 13.9999 15.4459 14.0375 15.3779 14.1048C15.3099 14.1721 15.2713 14.2636 15.2705 14.3593V15.0859C14.1959 15.1172 13.3346 16.0105 13.3346 17.1097C13.3346 18.0072 13.9238 18.806 14.7672 19.0572L16.8088 19.6631C17.0447 19.7302 17.208 19.9635 17.208 20.2327C17.208 20.5606 16.9676 20.8252 16.673 20.8252H15.3976C15.1924 20.8242 14.9916 20.7665 14.8172 20.6585C14.7483 20.6117 14.6656 20.5893 14.5825 20.595C14.4994 20.6008 14.4206 20.6343 14.3588 20.6902L13.8238 21.1927C13.7863 21.228 13.7569 21.2711 13.7376 21.319C13.7184 21.3668 13.7097 21.4183 13.7123 21.4698C13.7149 21.5213 13.7286 21.5716 13.7525 21.6173C13.7765 21.663 13.81 21.7029 13.8509 21.7344C14.2657 22.0389 14.7607 22.2152 15.2747 22.2414V22.9727C15.2754 23.0684 15.314 23.1599 15.382 23.2272C15.45 23.2945 15.5419 23.3321 15.6376 23.3319H16.363C16.4586 23.332 16.5504 23.2943 16.6183 23.227C16.6862 23.1597 16.7247 23.0683 16.7255 22.9727V22.2502C17.7955 22.2235 18.6614 21.326 18.666 20.2268C18.6668 19.331 18.0772 18.5322 17.2338 18.281Z" fill="currentColor"/>
</svg>
