<svg width="32" height="32" viewBox="0 0 32 32" fill="none" xmlns="http://www.w3.org/2000/svg">
<path d="M15.9999 5.33331C10.1074 5.33331 5.33325 10.1075 5.33325 16C5.33325 21.8925 10.1074 26.6666 15.9999 26.6666C21.8924 26.6666 26.6666 21.8925 26.6666 16C26.6666 10.1075 21.8924 5.33331 15.9999 5.33331ZM15.9999 25.2903C10.8773 25.2903 6.7096 21.1226 6.7096 16C6.7096 10.8774 10.8773 6.70966 15.9999 6.70966C21.1225 6.70966 25.2902 10.8774 25.2902 16C25.2902 21.1226 21.1225 25.2903 15.9999 25.2903ZM17.7333 15.772L14.6365 14.9032C14.116 14.757 13.7505 14.2839 13.7505 13.7548C13.7505 13.0968 14.301 12.5591 14.9763 12.5591H16.9117C17.3935 12.5591 17.8537 12.714 18.2279 12.9935C18.3655 13.0968 18.5548 13.0795 18.6752 12.9591L19.1612 12.4645C19.3074 12.3183 19.2902 12.0774 19.1268 11.9484C18.4988 11.4494 17.7247 11.1785 16.9074 11.1785H16.6881V9.45804C16.6881 9.2688 16.5333 9.11396 16.344 9.11396H15.6558C15.4666 9.11396 15.3117 9.2688 15.3117 9.45804V11.1785H14.9763C13.544 11.1785 12.3741 12.3312 12.3741 13.7505C12.3741 14.8946 13.1526 15.9097 14.2623 16.2236L17.3591 17.0925C17.8795 17.2387 18.2451 17.7118 18.2451 18.2408C18.2451 18.8989 17.6945 19.4365 17.0193 19.4365H15.0838C14.6021 19.4365 14.1419 19.2817 13.7677 19.0021C13.63 18.8989 13.4408 18.9161 13.3203 19.0365L12.8343 19.5312C12.6881 19.6774 12.7053 19.9183 12.8687 20.0473C13.4967 20.5462 14.2709 20.8172 15.0881 20.8172H15.3117V22.5376C15.3117 22.7269 15.4666 22.8817 15.6558 22.8817H16.344C16.5333 22.8817 16.6881 22.7269 16.6881 22.5376V20.8172H17.0236C18.4558 20.8172 19.6257 19.6645 19.6257 18.2451C19.6214 17.1011 18.8472 16.086 17.7333 15.772Z" fill="#474747"/>
</svg>
