<svg width="32" height="32" viewBox="0 0 32 32" fill="none" xmlns="http://www.w3.org/2000/svg">
<path d="M22.6667 16C24.8751 16 26.6667 14.2084 26.6667 12C26.6667 9.79169 24.8751 8.00002 22.6667 8.00002C20.4584 8.00002 18.6667 9.79169 18.6667 12C18.6667 14.2084 20.4584 16 22.6667 16ZM22.6667 9.33335C24.1376 9.33335 25.3334 10.5292 25.3334 12C25.3334 13.4709 24.1376 14.6667 22.6667 14.6667C21.1959 14.6667 20.0001 13.4709 20.0001 12C20.0001 10.5292 21.1959 9.33335 22.6667 9.33335ZM10.6667 16C13.2459 16 15.3334 13.9125 15.3334 11.3334C15.3334 8.75419 13.2459 6.66669 10.6667 6.66669C8.08758 6.66669 6.00008 8.75419 6.00008 11.3334C6.00008 13.9125 8.08758 16 10.6667 16ZM10.6667 8.00002C12.5042 8.00002 14.0001 9.49585 14.0001 11.3334C14.0001 13.1709 12.5042 14.6667 10.6667 14.6667C8.82925 14.6667 7.33341 13.1709 7.33341 11.3334C7.33341 9.49585 8.82925 8.00002 10.6667 8.00002ZM14.0042 16.8334C12.6126 16.8334 12.2667 17.3334 10.6667 17.3334C9.06675 17.3334 8.72091 16.8334 7.32925 16.8334C5.81675 16.8334 4.34591 17.5084 3.48341 18.7875C2.96675 19.5542 2.66675 20.475 2.66675 21.4667V23.3334C2.66675 24.4375 3.56258 25.3334 4.66675 25.3334H16.6667C17.7709 25.3334 18.6667 24.4375 18.6667 23.3334V21.4667C18.6667 20.475 18.3667 19.5542 17.8501 18.7875C16.9876 17.5084 15.5167 16.8334 14.0042 16.8334ZM17.3334 23.3334C17.3334 23.7 17.0334 24 16.6667 24H4.66675C4.30008 24 4.00008 23.7 4.00008 23.3334V21.4667C4.00008 20.775 4.20425 20.1042 4.58758 19.5334C5.16258 18.6792 6.18758 18.1667 7.32508 18.1667C8.46675 18.1667 8.87508 18.6667 10.6667 18.6667C12.4584 18.6667 12.8667 18.1667 14.0042 18.1667C15.1417 18.1667 16.1667 18.6792 16.7417 19.5334C17.1251 20.1042 17.3292 20.775 17.3292 21.4667V23.3334H17.3334ZM28.6542 18.5459C27.9334 17.4792 26.7084 16.9167 25.4501 16.9167C24.2917 16.9167 24.0001 17.3334 22.6667 17.3334C21.3334 17.3334 21.0417 16.9167 19.8834 16.9167C19.3334 16.9167 18.7959 17.0417 18.2959 17.2542C18.9292 17.8959 19.0667 18.2375 19.1376 18.3625C19.3751 18.2959 19.6209 18.2542 19.8834 18.2542C20.7917 18.2542 21.1334 18.6709 22.6667 18.6709C24.2001 18.6709 24.5417 18.2542 25.4501 18.2542C26.3251 18.2542 27.1084 18.6417 27.5501 19.2959C27.8459 19.7334 28.0042 20.25 28.0042 20.7834V22.3334C28.0042 22.5167 27.8542 22.6667 27.6709 22.6667H20.0001C20.0001 23.4042 20.0126 23.6042 19.9334 24H27.6667C28.5876 24 29.3334 23.2542 29.3334 22.3334V20.7792C29.3334 19.95 29.0834 19.1834 28.6542 18.5459Z" fill="currentColor"/>
</svg>
