<svg width="32" height="32" viewBox="0 0 32 32" fill="none" xmlns="http://www.w3.org/2000/svg">
<path d="M17.6791 15.7792L14.6791 14.9375C14.175 14.7959 13.8208 14.3375 13.8208 13.825C13.8208 13.1875 14.3541 12.6667 15.0083 12.6667H16.8833C17.35 12.6667 17.7958 12.8167 18.1583 13.0875C18.2916 13.1875 18.475 13.1709 18.5916 13.0542L19.0625 12.575C19.2041 12.4334 19.1875 12.2 19.0291 12.075C18.4208 11.5917 17.6708 11.3292 16.8791 11.3292H16.6666V9.66252C16.6666 9.47919 16.5166 9.32919 16.3333 9.32919H15.6666C15.4833 9.32919 15.3333 9.47919 15.3333 9.66252V11.3292H15.0083C13.6208 11.3292 12.4875 12.4459 12.4875 13.8209C12.4875 14.9292 13.2416 15.9125 14.3166 16.2167L17.3166 17.0584C17.8208 17.2 18.175 17.6584 18.175 18.1709C18.175 18.8084 17.6416 19.3292 16.9875 19.3292H15.1125C14.6458 19.3292 14.2 19.1792 13.8375 18.9084C13.7041 18.8084 13.5208 18.825 13.4041 18.9417L12.9333 19.4209C12.7916 19.5625 12.8083 19.7959 12.9666 19.9209C13.575 20.4042 14.325 20.6667 15.1166 20.6667H15.3333V22.3334C15.3333 22.5167 15.4833 22.6667 15.6666 22.6667H16.3333C16.5166 22.6667 16.6666 22.5167 16.6666 22.3334V20.6667H16.9916C18.3791 20.6667 19.5125 19.55 19.5125 18.175C19.5083 17.0667 18.7583 16.0834 17.6791 15.7792ZM23.3333 6.66669H8.66663C7.56246 6.66669 6.66663 7.56252 6.66663 8.66669V23.3334C6.66663 24.4375 7.56246 25.3334 8.66663 25.3334H23.3333C24.4375 25.3334 25.3333 24.4375 25.3333 23.3334V8.66669C25.3333 7.56252 24.4375 6.66669 23.3333 6.66669ZM24 23.3334C24 23.7 23.7 24 23.3333 24H8.66663C8.29996 24 7.99996 23.7 7.99996 23.3334V8.66669C7.99996 8.30002 8.29996 8.00002 8.66663 8.00002H23.3333C23.7 8.00002 24 8.30002 24 8.66669V23.3334Z" fill="currentColor"/>
</svg>
