<svg width="32" height="32" viewBox="0 0 32 32" fill="none" xmlns="http://www.w3.org/2000/svg">
<path d="M19.7333 17.3333C18.5375 17.3333 17.9625 18 16 18C14.0375 18 13.4666 17.3333 12.2666 17.3333C9.17496 17.3333 6.66663 19.8416 6.66663 22.9333V24.6666C6.66663 25.7708 7.56246 26.6666 8.66663 26.6666H23.3333C24.4375 26.6666 25.3333 25.7708 25.3333 24.6666V22.9333C25.3333 19.8416 22.825 17.3333 19.7333 17.3333ZM24 24.6666C24 25.0333 23.7 25.3333 23.3333 25.3333H8.66663C8.29996 25.3333 7.99996 25.0333 7.99996 24.6666V22.9333C7.99996 20.5791 9.91246 18.6666 12.2666 18.6666C13.0833 18.6666 13.8958 19.3333 16 19.3333C18.1 19.3333 18.9166 18.6666 19.7333 18.6666C22.0875 18.6666 24 20.5791 24 22.9333V24.6666ZM16 16C18.9458 16 21.3333 13.6125 21.3333 10.6666C21.3333 7.72081 18.9458 5.33331 16 5.33331C13.0541 5.33331 10.6666 7.72081 10.6666 10.6666C10.6666 13.6125 13.0541 16 16 16ZM16 6.66665C18.2041 6.66665 20 8.46248 20 10.6666C20 12.8708 18.2041 14.6666 16 14.6666C13.7958 14.6666 12 12.8708 12 10.6666C12 8.46248 13.7958 6.66665 16 6.66665Z" fill="currentColor"/>
</svg>
