<svg width="32" height="32" viewBox="0 0 32 32" fill="none" xmlns="http://www.w3.org/2000/svg">
<path d="M18.6625 16.1375L13.7375 14.5916C12.7166 14.2708 12 13.2083 12 12.0125C12 10.5333 13.0666 9.33331 14.375 9.33331H17.45C18.375 9.33331 19.2541 9.69165 19.9541 10.3541C20.0833 10.475 20.2791 10.4875 20.4125 10.3666L20.9083 9.91665C21.05 9.78748 21.0583 9.56665 20.925 9.43331C19.975 8.51665 18.7291 7.99581 17.4541 7.99581H16.6666V5.66665C16.6666 5.48331 16.5166 5.33331 16.3333 5.33331H15.6666C15.4833 5.33331 15.3333 5.48331 15.3333 5.66665V7.99998H14.375C12.3291 7.99998 10.6666 9.79998 10.6666 12.0125C10.6666 13.7875 11.7666 15.3708 13.3375 15.8625L18.2625 17.4083C19.2875 17.7291 20 18.7916 20 19.9875C20 21.4625 18.9333 22.6666 17.625 22.6666H14.55C13.625 22.6666 12.7458 22.3083 12.0458 21.6458C11.9166 21.525 11.7208 21.5125 11.5875 21.6333L11.0958 22.0833C10.9583 22.2083 10.9458 22.4333 11.0833 22.5625C12.0333 23.4791 13.2791 24 14.5541 24H15.3333V26.3333C15.3333 26.5166 15.4833 26.6666 15.6666 26.6666H16.3333C16.5166 26.6666 16.6666 26.5166 16.6666 26.3333V24H17.625C19.6708 24 21.3333 22.2 21.3333 19.9875C21.3333 18.2166 20.2333 16.6333 18.6625 16.1375Z" fill="currentColor"/>
</svg>
