<svg width="32" height="32" viewBox="0 0 32 32" fill="none" xmlns="http://www.w3.org/2000/svg">
<path d="M21.3334 16C20.5971 16 20 16.5971 20 17.3334C20 18.0696 20.5971 18.6667 21.3334 18.6667C22.0696 18.6667 22.6667 18.0696 22.6667 17.3334C22.6667 16.5971 22.0696 16 21.3334 16ZM24.6667 9.33335H24V8.66669C24 7.5621 23.1046 6.66669 22 6.66669H9.33337C7.12421 6.66669 5.33337 8.45752 5.33337 10.6667V21.3334C5.33337 23.5425 7.12421 25.3334 9.33337 25.3334H24C25.473 25.3334 26.6667 24.1396 26.6667 22.6667V11.3334C26.6667 10.2288 25.7713 9.33335 24.6667 9.33335ZM25.3334 22.6667C25.3334 23.4017 24.735 24 24 24H9.33337C7.86296 24 6.66671 22.8038 6.66671 21.3334V10.6667C6.66671 9.19627 7.86296 8.00002 9.33337 8.00002H22C22.3675 8.00002 22.6667 8.29919 22.6667 8.66669V9.33335H10C9.63171 9.33335 9.33337 9.63169 9.33337 10C9.33337 10.3684 9.63171 10.6667 10 10.6667H24.6667C25.0342 10.6667 25.3334 10.9659 25.3334 11.3334V22.6667Z" fill="#474747"/>
</svg>
