<svg width="32" height="32" viewBox="0 0 32 32" fill="none" xmlns="http://www.w3.org/2000/svg">
<path d="M25.3333 16V6.66671H15.9999C10.8453 6.66671 6.66659 10.8454 6.66659 16C6.66659 21.1547 10.8453 25.3334 15.9999 25.3334V26.6667C10.1089 26.6667 5.33325 21.8911 5.33325 16C5.33325 10.109 10.1089 5.33337 15.9999 5.33337H26.6666V16C26.6666 21.8911 21.891 26.6667 15.9999 26.6667V25.3334C21.1546 25.3334 25.3333 21.1547 25.3333 16Z" fill="#474747"/>
<path d="M15.9687 23.5521C11.5603 23.5521 9.13534 19.75 9.13534 17.125H22.8645C22.8645 19.75 20.377 23.5521 15.9687 23.5521Z" fill="#474747"/>
<path d="M22.8645 17.125C22.8645 19.75 20.377 23.5521 15.9687 23.5521V21.5521C17.5507 21.5521 18.7583 20.8849 19.5963 19.9714C19.8453 19.7 20.0513 19.412 20.2239 19.125H11.7525C12.5067 20.4001 13.9375 21.5521 15.9687 21.5521V23.5521C11.5603 23.5521 9.13534 19.75 9.13534 17.125H22.8645Z" fill="#474747"/>
<path d="M12.4624 14.0625C12.4624 14.7253 11.9252 15.2625 11.2624 15.2625C10.5997 15.2625 10.0624 14.7253 10.0624 14.0625C10.0624 13.3998 10.5997 12.8625 11.2624 12.8625C11.9252 12.8625 12.4624 13.3998 12.4624 14.0625Z" fill="#474747"/>
<path d="M22.1708 14.0625C22.1708 14.7253 21.6335 15.2625 20.9708 15.2625C20.308 15.2625 19.7708 14.7253 19.7708 14.0625C19.7708 13.3998 20.308 12.8625 20.9708 12.8625C21.6335 12.8625 22.1708 13.3998 22.1708 14.0625Z" fill="#474747"/>
</svg>
