<svg width="32" height="32" viewBox="0 0 32 32" fill="none" xmlns="http://www.w3.org/2000/svg">
<path d="M18.163 14.662H9.82715C9.55207 14.662 9.327 14.4369 9.327 14.1618V13.8284C9.327 13.5533 9.55207 13.3282 9.82715 13.3282H18.163C18.4381 13.3282 18.6632 13.5533 18.6632 13.8284V14.1618C18.6632 14.4369 18.4381 14.662 18.163 14.662ZM26.5198 26.0488L26.0488 26.5198C25.8529 26.7157 25.5362 26.7157 25.3403 26.5198L19.9636 21.1431C19.8677 21.0473 19.8177 20.9222 19.8177 20.7889V20.4346C18.2798 21.8267 16.2416 22.6728 14.0034 22.6728C9.24364 22.6728 5.39662 18.8758 5.3341 14.116C5.27158 9.23947 9.23947 5.27158 14.116 5.3341C18.8758 5.39662 22.6728 9.24364 22.6728 14.0034C22.6728 16.2416 21.8267 18.2798 20.4346 19.8177H20.7889C20.9222 19.8177 21.0473 19.8719 21.1431 19.9636L26.5198 25.3403C26.7157 25.5362 26.7157 25.8529 26.5198 26.0488ZM21.339 14.0034C21.339 9.94802 18.0589 6.66785 14.0034 6.66785C9.94802 6.66785 6.66785 9.94802 6.66785 14.0034C6.66785 18.0589 9.94802 21.339 14.0034 21.339C18.0589 21.339 21.339 18.0589 21.339 14.0034Z" fill="#474747"/>
</svg>
