<svg width="48" height="48" viewBox="0 0 48 48" fill="none" xmlns="http://www.w3.org/2000/svg">
<path d="M23.7529 4.50098C24.2168 4.29396 24.7479 4.29932 25.208 4.51465L43.7422 13.1904C44.3571 13.4784 44.75 14.0963 44.75 14.7754V17.4688C44.7498 18.4351 43.9664 19.2188 43 19.2188H5C4.03363 19.2188 3.25021 18.4351 3.25 17.4688V14.7881C3.25 14.0975 3.65649 13.4719 4.28711 13.1904L23.7529 4.50098Z" fill="#F8EA88" stroke="#262933" stroke-width="1.5"/>
<rect x="8.96484" y="19.1613" width="6.2619" height="18.8165" fill="white" stroke="#262933" stroke-width="1.5"/>
<rect x="32.7734" y="19.1613" width="6.2619" height="18.8165" fill="white" stroke="#262933" stroke-width="1.5"/>
<rect x="14.6777" y="19.1613" width="18.6429" height="16.8924" fill="white" stroke="#262933" stroke-width="1.5"/>
<path d="M25.2935 27.0525L23.1502 26.4112C22.9022 26.3382 22.7295 26.1008 22.7295 25.8369C22.7295 25.5062 22.9915 25.2383 23.3149 25.2383H24.6307C24.8728 25.2383 25.111 25.3134 25.3094 25.4514C25.4305 25.5346 25.5932 25.5143 25.6964 25.4108L26.387 24.7208C26.5279 24.5808 26.5081 24.3475 26.3513 24.2237C25.8651 23.8341 25.2578 23.6169 24.6347 23.6149V22.6408C24.6347 22.4623 24.4918 22.3162 24.3171 22.3162H23.6821C23.5074 22.3162 23.3646 22.4623 23.3646 22.6408V23.6149H23.3149C22.0508 23.6149 21.0347 24.7249 21.1518 26.0419C21.2351 26.9774 21.9337 27.7384 22.8148 28.0022L24.849 28.611C25.0971 28.686 25.2697 28.9214 25.2697 29.1852C25.2697 29.516 25.0078 29.7839 24.6843 29.7839H23.3685C23.1264 29.7839 22.8883 29.7088 22.6898 29.5708C22.5687 29.4876 22.406 29.5079 22.3028 29.6114L21.6122 30.3013C21.4713 30.4414 21.4911 30.6747 21.6479 30.7985C22.1341 31.1881 22.7414 31.4053 23.3646 31.4073V32.3814C23.3646 32.5599 23.5074 32.706 23.6821 32.706H24.3171C24.4918 32.706 24.6347 32.5599 24.6347 32.3814V31.4032C25.5595 31.385 26.4267 30.8229 26.7323 29.928C27.159 28.6779 26.4426 27.3954 25.2935 27.0525Z" fill="#262933"/>
<path d="M43 39.3638C43.9665 39.3638 44.75 40.1473 44.75 41.1138V43.7495H3.25V41.1138C3.25 40.1473 4.0335 39.3638 5 39.3638H43Z" fill="#F8EA88" stroke="#262933" stroke-width="1.5"/>
<path d="M40.0947 35.0352C41.6135 35.0352 42.8447 36.2664 42.8447 37.7852V39.4209H5.1543V37.7852C5.1543 36.2664 6.38551 35.0352 7.9043 35.0352H40.0947Z" fill="#F8EA88" stroke="#262933" stroke-width="1.5"/>
<ellipse cx="24.4754" cy="9.32939" rx="1.42857" ry="1.44304" fill="#262933"/>
</svg>
