<svg width="48" height="48" viewBox="0 0 48 48" fill="none" xmlns="http://www.w3.org/2000/svg">
<rect x="0.915984" y="-0.528827" width="22.6752" height="34.6467" rx="4.75" transform="matrix(-0.25612 0.966645 -0.965192 -0.261542 42.0562 17.9786)" fill="#F8EA88" stroke="#262933" stroke-width="1.5"/>
<rect x="44.75" y="7.25" width="22.691" height="34.6215" rx="4.75" transform="rotate(90 44.75 7.25)" fill="white" stroke="#262933" stroke-width="1.5"/>
<rect x="44" y="11.4171" width="4.10148" height="33.1215" transform="rotate(90 44 11.4171)" fill="#F8EA88"/>
<ellipse cx="38.5931" cy="23.7231" rx="2.73432" ry="2.7038" transform="rotate(90 38.5931 23.7231)" fill="#262933"/>
<rect x="20.3418" y="21.6721" width="1.36716" height="6.75949" rx="0.683581" transform="rotate(90 20.3418 21.6721)" fill="#262933"/>
<rect x="17.6387" y="24.4058" width="1.36716" height="4.0557" rx="0.683581" transform="rotate(90 17.6387 24.4058)" fill="#262933"/>
<rect width="1.36614" height="4.05878" rx="0.683072" transform="matrix(-0.25612 0.966645 -0.965192 -0.261542 33.9668 35.214)" fill="white"/>
<rect width="1.36614" height="1.35293" rx="0.676463" transform="matrix(-0.25612 0.966645 -0.965192 -0.261542 28.4531 33.6694)" fill="white"/>
</svg>
