<svg width="48" height="48" viewBox="0 0 48 48" fill="none" xmlns="http://www.w3.org/2000/svg">
<path d="M11.4863 8.75H32.4102C34.3816 8.75 35.8993 10.4914 35.6299 12.4443L32.3457 36.25H8.58984C6.61838 36.25 5.10074 34.5086 5.37012 32.5557L8.2666 11.5557C8.48852 9.94769 9.86309 8.75 11.4863 8.75Z" fill="#F8EA88" stroke="#262933" stroke-width="1.5"/>
<rect x="3" y="25" width="10" height="2" rx="1" fill="#262933"/>
<rect x="1" y="20" width="12" height="2" rx="1" fill="#262933"/>
<rect x="5" y="15" width="12" height="2" rx="1" fill="#262933"/>
<path d="M30.7461 15.75H38.3691C38.9624 15.75 39.4742 16.167 39.5938 16.748L41.2656 24.8721L41.3887 25.4707H43C44.7948 25.4707 46.2499 26.9259 46.25 28.7207V35C46.25 35.6904 45.6904 36.25 45 36.25H26.8594L29.5068 16.8311C29.5913 16.2117 30.121 15.75 30.7461 15.75Z" fill="white" stroke="#262933" stroke-width="1.5"/>
<circle cx="13.5" cy="36.5" r="3.75" fill="white" stroke="#262933" stroke-width="1.5"/>
<circle cx="37.5" cy="36.5" r="3.75" fill="white" stroke="#262933" stroke-width="1.5"/>
<path d="M34.2344 19.9707H39.8936L41.0723 25.4707H33.8057C33.0452 25.4705 32.4608 24.7968 32.5684 24.0439L32.9971 21.0439C33.085 20.4282 33.6124 19.9708 34.2344 19.9707Z" fill="#F8EA88" stroke="#262933" stroke-width="1.5"/>
</svg>
