<svg width="48" height="48" viewBox="0 0 48 48" fill="none" xmlns="http://www.w3.org/2000/svg">
<path d="M21.165 14.6953H31.8809C34.644 14.6953 36.3917 15.3953 37.417 16.458C38.4371 17.5155 38.8749 19.0708 38.7178 21.0801C38.452 24.4747 37.3005 27.0387 35.6055 28.748C33.9148 30.4528 31.6291 31.3633 28.9766 31.3633H26.1162C25.5371 31.3633 24.9898 31.5682 24.5742 32.0635C24.2392 32.4628 24.0343 32.9999 23.9121 33.6338L23.8643 33.9111L22.6494 42.0176C22.6246 42.1782 22.5804 42.2368 22.5713 42.2471C22.5674 42.2514 22.5679 42.2502 22.5703 42.249C22.5703 42.249 22.5687 42.2491 22.5654 42.25H15.9072C15.9018 42.2191 15.8958 42.1767 15.8936 42.1201C15.8885 41.9911 15.9 41.8158 15.9365 41.585L20.041 15.5977L20.042 15.5947C20.1053 15.1849 20.2301 14.9965 20.3477 14.8984C20.4692 14.7971 20.699 14.6953 21.165 14.6953Z" fill="white" stroke="#262933" stroke-width="1.5"/>
<path d="M15.9814 5.75H26.709C28.2199 5.75 29.8098 5.77569 31.3086 6.05078C32.8031 6.32513 34.1528 6.83883 35.2129 7.77539H35.2139C36.6148 9.01209 37.3884 11.0189 37.2109 13.2402C36.8926 17.2003 35.5564 20.217 33.5762 22.2373C31.6011 24.2521 28.9322 25.332 25.8291 25.332H20.54C19.8972 25.332 19.2998 25.5574 18.8457 26.1016C18.478 26.5421 18.2475 27.1415 18.1045 27.8623L18.0479 28.1787L16.5713 37.584C16.5339 37.8186 16.476 37.9197 16.4502 37.9521C16.4405 37.9644 16.4381 37.9642 16.4424 37.9619C16.445 37.9605 16.4427 37.9617 16.4326 37.9639H9.8623C9.8307 37.9639 9.80831 37.9603 9.79297 37.958C9.77895 37.9203 9.75761 37.8419 9.75195 37.7012C9.74552 37.5409 9.75789 37.3276 9.80078 37.0527L14.5586 6.9043H14.5596C14.6376 6.40862 14.7944 6.15533 14.9629 6.01465C15.1347 5.87136 15.4317 5.75 15.9814 5.75Z" fill="#F8EA88" stroke="#262933" stroke-width="1.5"/>
</svg>
