<svg width="48" height="48" viewBox="0 0 48 48" fill="none" xmlns="http://www.w3.org/2000/svg">
<path d="M6 8.75H27C28.7949 8.75 30.25 10.2051 30.25 12V36.25H6C4.20507 36.25 2.75 34.7949 2.75 33V12C2.75 10.2051 4.20507 8.75 6 8.75Z" fill="#F8EA88" stroke="#262933" stroke-width="1.5"/>
<path d="M27 15.75H36.3691C36.9624 15.75 37.4742 16.167 37.5938 16.748L39.2656 24.8721L39.3887 25.4707H41C42.7948 25.4707 44.2499 26.9259 44.25 28.7207V35C44.25 35.6904 43.6904 36.25 43 36.25H25.75V17C25.75 16.3096 26.3096 15.75 27 15.75Z" fill="white" stroke="#262933" stroke-width="1.5"/>
<circle cx="11.5" cy="36.5" r="3.75" fill="white" stroke="#262933" stroke-width="1.5"/>
<circle cx="35.5" cy="36.5" r="3.75" fill="white" stroke="#262933" stroke-width="1.5"/>
<path d="M31.5 19.9707H37.8936L39.0723 25.4707H31.5C30.8096 25.4707 30.25 24.9111 30.25 24.2207V21.2207C30.25 20.5303 30.8096 19.9707 31.5 19.9707Z" fill="#F8EA88" stroke="#262933" stroke-width="1.5"/>
</svg>
