<svg width="48" height="48" viewBox="0 0 48 48" fill="none" xmlns="http://www.w3.org/2000/svg">
<path d="M3 12.9219H43C43.1381 12.9219 43.25 13.0338 43.25 13.1719V37.999C43.2498 39.2415 42.2425 40.249 41 40.249H5C3.75747 40.249 2.75018 39.2415 2.75 37.999V13.1719C2.75 13.0338 2.86193 12.9219 3 12.9219Z" fill="#F8EA88" stroke="#262933" stroke-width="1.5" stroke-linejoin="round"/>
<path d="M26.8145 12.3789V22.0771C26.8145 22.2723 26.6002 22.3926 26.4336 22.291L23.3896 20.4346C23.18 20.3067 22.9227 20.29 22.7012 20.3857L22.6084 20.4346L19.5635 22.291C19.3969 22.3923 19.1836 22.2722 19.1836 22.0771V12.3789H26.8145Z" fill="white" stroke="#262933" stroke-width="1.5" stroke-linejoin="round"/>
<path d="M7.07324 3.75H38.9268C39.4586 3.75001 39.9324 4.08665 40.1074 4.58887L42.8291 12.4004C42.8855 12.5627 42.7647 12.7323 42.5928 12.7324H3.40723C3.23533 12.7323 3.11453 12.5627 3.1709 12.4004L5.89258 4.58887C6.06755 4.08665 6.54142 3.75001 7.07324 3.75Z" fill="#F8EA88" stroke="#262933" stroke-width="1.5"/>
<path d="M25.1074 3.75L26.6719 12.7324H19.3262L20.8906 3.75H25.1074Z" fill="white" stroke="#262933" stroke-width="1.5" stroke-linejoin="round"/>
<circle cx="34" cy="33" r="11.25" fill="white" stroke="#262933" stroke-width="1.5"/>
<path d="M29 32.7692L32.5 36L39 30" stroke="#262933" stroke-width="2" stroke-linecap="round" stroke-linejoin="round"/>
</svg>
