<svg width="207" height="281" viewBox="0 0 207 281" fill="none" xmlns="http://www.w3.org/2000/svg">
<path d="M150.288 243.229C148.073 247.304 136.592 252.089 131.129 253.971L122.823 248.766L103.774 248.655L51.9438 225.288L119.5 221.854C130.686 227.281 152.503 239.153 150.288 243.229Z" fill="#262933" stroke="#262933" stroke-width="2" stroke-linecap="round"/>
<path d="M29.573 242.233C24.7887 237.803 26.8967 230.235 28.521 226.949L64.2368 228.057L100.452 243.34C92.4777 248.139 72.3432 256.873 55.5985 253.418C42.198 250.539 35.5534 247.77 29.573 242.233Z" fill="white" stroke="#262933" stroke-width="2" stroke-linecap="round" stroke-linejoin="round"/>
<path d="M76.1007 252.238C87.5591 245.071 112.083 229.557 118.509 224.832C126.541 218.926 142.252 205.577 154.656 213.137C167.059 220.697 164.342 238.417 152.293 244.323C142.654 249.048 101.262 262.515 81.7708 268.657C80.5535 270.052 78.5284 271.974 75.9448 273.839C73.6386 275.505 70.8873 277.125 67.8683 278.286C65.2436 279.295 62.4166 279.956 59.5037 279.998C54.247 280.116 51.53 275.686 50.1715 272.497C48.8131 269.307 44.7967 257.731 50.7622 254.246C52.5664 253.192 55.1703 252.457 58.0542 251.985C60.9699 251.507 64.1718 251.299 67.1228 251.303C70.9037 251.307 74.2727 251.659 76.1007 252.238Z" fill="white"/>
<path d="M58.0542 251.985C55.1703 252.457 52.5664 253.192 50.7622 254.246C44.7967 257.731 48.8131 269.307 50.1715 272.497C51.53 275.686 54.247 280.116 59.5037 279.998C62.4166 279.956 65.2436 279.295 67.8683 278.286M58.0542 251.985C57.3503 252.3 56.4652 252.811 55.5893 253.501M58.0542 251.985C60.9699 251.507 64.1718 251.299 67.1228 251.303M67.8683 278.286C66.3608 278.546 65.0095 278.605 63.7962 278.496M67.8683 278.286C70.8873 277.125 73.6386 275.505 75.9448 273.839M55.5893 253.501C53.4411 255.192 51.3485 257.953 52.1205 261.511C53.3216 267.046 54.5341 277.663 63.7962 278.496M55.5893 253.501C56.3164 253.591 57.2962 253.85 58.3926 254.338M63.7962 278.496C66.0273 276.87 69.7925 271.705 67.0046 264.05C64.9836 258.501 61.2827 255.625 58.3926 254.338M63.7962 278.496C61.324 277.388 60.4485 275.45 60.9801 273.825M67.1228 251.303C70.9037 251.307 74.2727 251.659 76.1007 252.238C87.5591 245.071 112.083 229.557 118.509 224.832C126.541 218.926 142.252 205.577 154.656 213.137C167.059 220.697 164.342 238.417 152.293 244.323C142.654 249.048 101.262 262.515 81.7708 268.657C80.5535 270.052 78.5284 271.974 75.9448 273.839M67.1228 251.303C69.7019 253.445 73.3502 257.469 75.0964 261.511C77.1637 266.295 76.3708 272.053 75.9448 273.839M58.3926 254.338C56.4102 255.745 53.1187 259.195 55.812 261.747M55.812 261.747C55.5462 263.785 55.9892 265.557 57.7611 266.236M55.812 261.747L59.3854 260.388M57.7611 266.236C57.2 267.978 57.6135 269.543 59.0901 270.223M57.7611 266.236L60.7734 264.995M59.0901 270.223C58.7357 271.806 59.7102 273.412 60.9801 273.825M59.0901 270.223L62.2795 268.805M60.9801 273.825L63.8152 272.585" stroke="#262933" stroke-width="2" stroke-linecap="round" stroke-linejoin="round"/>
<path d="M1 218.089L49.6184 201.92L150.62 206.682L150.399 214.434L147.482 215.433C147.495 229.756 147.497 259.354 147.409 263.164C144.219 264.493 141.534 263.717 140.59 263.164V223.627V217.794L105.934 229.662L104.675 229.618C104.781 244.233 104.992 274.615 104.992 279.222C102.246 280.728 99.0517 279.702 97.798 279V229.375L13.6291 226.399C13.5909 240.278 13.5367 269.033 13.6253 273.02C10.3471 274.881 7.38465 273.648 6.31318 272.799V226.14L1 225.952V218.089Z" fill="white"/>
<path d="M150.62 206.682L105.768 221.965M150.62 206.682L49.6184 201.92L1 218.089M150.62 206.682L150.399 214.434L147.482 215.433M105.768 221.965L1 218.089M105.768 221.965L105.934 229.662M1 218.089V225.952L6.31318 226.14M105.934 229.662L104.675 229.618M105.934 229.662L140.59 217.794M6.31318 226.14V272.799C7.38465 273.648 10.3471 274.881 13.6253 273.02C13.5367 269.033 13.5909 240.278 13.6291 226.399M6.31318 226.14L13.6291 226.399M13.6291 226.399L97.798 229.375M97.798 229.375V279C99.0517 279.702 102.246 280.728 104.992 279.222C104.992 274.615 104.781 244.233 104.675 229.618M97.798 229.375L104.675 229.618M140.59 217.794L147.482 215.433M140.59 217.794V223.627V263.164C141.534 263.717 144.219 264.493 147.409 263.164C147.497 259.354 147.495 229.756 147.482 215.433" stroke="#262933" stroke-width="2" stroke-linecap="round" stroke-linejoin="round"/>
<path d="M140.487 223.544V218.062L147.326 215.764L147.242 218.865L140.487 223.544Z" fill="#262933"/>
<path d="M61.8008 98.8139C61.0921 93.3208 57.8878 85.7457 56.3742 82.6447C54.8239 77.6612 52.8303 74.7817 57.5924 69.5765C66.6502 59.676 103.553 64.0391 107.097 67.583C109.932 70.4182 114.628 79.6915 116.621 83.9737C119.574 81.8695 125.979 82.3679 127.142 88.1821C129.231 98.6267 120.94 102.136 115.514 102.69C108.536 124.286 85.9439 125.061 74.8691 121.185C63.7943 117.309 62.6868 105.68 61.8008 98.8139Z" fill="white"/>
<path d="M122.989 88.8467C120.811 89.5481 116.654 92.2577 117.452 97.485M56.3742 82.6447C57.8878 85.7457 61.0921 93.3208 61.8008 98.8139C62.6868 105.68 63.7943 117.309 74.8691 121.185C85.9439 125.061 108.536 124.286 115.514 102.69C120.94 102.136 129.231 98.6267 127.142 88.1821C125.979 82.3679 119.574 81.8695 116.621 83.9737C114.628 79.6915 109.932 70.4182 107.097 67.583C103.553 64.0391 66.6502 59.676 57.5924 69.5765C52.8303 74.7817 54.8239 77.6612 56.3742 82.6447Z" stroke="#262933" stroke-width="2" stroke-linecap="round" stroke-linejoin="round"/>
<path d="M68.1133 89.4001C69.11 88.2557 71.9452 86.4321 75.3119 88.2926" stroke="#262933" stroke-width="2" stroke-linecap="round" stroke-linejoin="round"/>
<path d="M90.9277 86.2989C92.3675 85.2653 96.0664 83.8403 99.3446 86.4097" stroke="#262933" stroke-width="2" stroke-linecap="round" stroke-linejoin="round"/>
<path d="M83.0647 98.9249C83.1755 99.6632 83.2198 101.472 82.511 102.801C81.625 104.462 83.7292 106.899 86.7194 104.905" stroke="#262933" stroke-width="2" stroke-linecap="round" stroke-linejoin="round"/>
<path d="M80.5171 110.886C84.0241 110.849 91.7912 110.11 94.8036 107.452C95.3573 113.433 86.8297 120.299 80.5171 110.886Z" stroke="#262933" stroke-width="2" stroke-linecap="round" stroke-linejoin="round"/>
<ellipse cx="73.54" cy="97.7615" rx="2.43646" ry="3.59931" fill="#262933"/>
<ellipse cx="94.829" cy="94.7723" rx="2.43646" ry="3.59931" fill="#262933"/>
<path d="M176.366 4.64051C172.388 2.41992 168.009 2.37632 164.348 4.65004C161.519 6.40728 159.53 9.2652 158.377 13.0285L158.238 13.501C157.608 15.733 157.266 18.2742 157.201 21.0772C152.036 24.0129 149.701 26.7751 148.235 28.9547L148.182 29.032C148.141 29.0938 148.1 29.1575 148.061 29.2219L147.947 29.4169L147.947 29.4178L147.904 29.4956L147.588 30.0937C146.13 32.9877 145.711 35.894 146.429 38.7087L146.508 38.9995C147.296 41.7776 149.15 44.1036 151.804 45.7408C151.832 45.7581 151.877 45.786 151.913 45.8076C151.931 45.8186 151.948 45.8283 151.96 45.8357C151.966 45.8393 151.972 45.8424 151.975 45.8445C151.977 45.8455 151.979 45.847 151.98 45.8475L151.981 45.8478L151.985 45.8509C155.858 48.1652 160.885 48.7567 164.213 48.8757C166.572 53.0145 169.268 56.0932 172.288 57.9559C172.349 57.9932 172.409 58.0296 172.467 58.0646L172.469 58.066C176.546 60.5025 181.09 60.6251 184.869 58.2778C187.698 56.5208 189.687 53.6638 190.84 49.9034C191.558 47.5623 191.948 44.8625 192.019 41.8623C194.293 40.5656 196.258 39.1615 197.866 37.6616C201.048 34.694 202.861 31.3761 203.085 27.7989C203.357 23.4349 201.165 19.5296 197.202 17.0852L197.196 17.0819L197.033 16.9823L197.027 16.9787C193.931 15.1286 189.876 14.1771 185.012 14.0591C182.653 9.91709 179.953 6.8359 176.929 4.97076C176.87 4.93455 176.81 4.89811 176.75 4.86236L176.366 4.64051Z" fill="white" stroke="#262933" stroke-width="2"/>
<path d="M174.134 9.23864C171.596 7.7221 169.112 7.6949 167.04 8.98209C165.38 10.0128 164.079 11.8273 163.254 14.5219C162.518 16.9215 162.192 19.9312 162.313 23.4983L162.336 24.1405L161.76 24.4272C156.304 27.1438 154.027 29.5879 152.716 31.4391L152.466 31.8021L152.415 31.8768L152.415 31.8777C152.414 31.8801 152.412 31.883 152.41 31.8855L152.367 31.9643C151.208 34.0584 150.941 35.9387 151.414 37.6078C151.839 39.106 152.837 40.385 154.482 41.3996L154.598 41.4702L154.602 41.4721C157.701 43.3239 162.674 43.9095 166.646 43.7868L167.288 43.7674L167.573 44.341C169.868 48.9579 172.479 52.1295 175.086 53.6884C177.623 55.2042 180.106 55.2319 182.179 53.9445C183.839 52.9135 185.139 51.0995 185.964 48.4075C186.699 46.0105 187.027 43.0047 186.907 39.4427L186.885 38.7996L187.462 38.5133C190.339 37.0879 192.66 35.5438 194.389 33.9313C196.722 31.7556 197.864 29.5831 197.995 27.4809C198.147 25.0461 196.946 22.8735 194.409 21.3545L194.408 21.3555C191.799 19.796 187.756 18.9982 182.588 19.1679L181.945 19.189L181.66 18.6123C179.363 13.9824 176.746 10.8023 174.133 9.23935L174.134 9.23864Z" fill="#262933" stroke="#262933" stroke-width="2"/>
<path d="M174.482 22.1837C173.51 21.5875 172.144 21.5848 170.608 22.315C169.082 23.0405 167.514 24.4439 166.323 26.3857C165.133 28.3276 164.594 30.3617 164.64 32.051C164.686 33.7513 165.308 34.9668 166.28 35.5631C167.253 36.1594 168.618 36.162 170.155 35.4319C171.681 34.7064 173.249 33.303 174.439 31.3611C175.63 29.4192 176.169 27.3851 176.123 25.6958C176.077 23.9955 175.455 22.78 174.482 22.1837Z" fill="white" stroke="#262933" stroke-width="2"/>
<path d="M175.016 21.3139C173.76 20.5437 172.071 20.4905 170.17 21.3942C168.396 22.2376 166.707 23.809 165.454 25.8532C164.201 27.8975 163.567 30.1153 163.62 32.079C163.677 34.1782 164.488 35.6555 165.739 36.4269L165.738 36.4279L165.74 36.4284L165.747 36.4331C167.003 37.2032 168.692 37.2573 170.593 36.3537C172.367 35.5104 174.055 33.9388 175.309 31.8947C176.562 29.8505 177.196 27.6326 177.143 25.6689L177.143 25.6679C177.089 23.7 176.374 22.2782 175.254 21.4726L175.024 21.32L175.016 21.3139ZM169.958 21.55C171.593 20.7061 173.477 20.4181 174.995 21.3489L174.997 21.3493L175.003 21.3539C176.516 22.2873 177.111 24.095 177.1 25.9341C177.089 27.8052 176.465 29.9311 175.275 31.8731C174.083 33.8167 172.469 35.3383 170.805 36.197C169.17 37.0409 167.286 37.3288 165.768 36.3981L165.766 36.3976L165.76 36.3931L165.759 36.3929C164.366 35.5332 163.709 33.9056 163.66 32.0779C163.604 30.0498 164.275 27.8529 165.488 25.8739C166.68 23.9302 168.294 22.4087 169.958 21.55Z" fill="#262933" stroke="#262933" stroke-width="2"/>
<path d="M170.659 24.8863C170.314 24.6745 169.755 24.6296 169.017 24.9804C168.289 25.3266 167.51 26.0142 166.91 26.9927C166.31 27.9712 166.051 28.9769 166.073 29.7829C166.095 30.6001 166.388 31.0775 166.734 31.2893C167.049 31.4825 167.538 31.534 168.185 31.2748L168.082 29.8127C168.009 28.7585 168.844 27.862 169.901 27.8625L171.09 27.8635C171.323 27.1335 171.369 26.464 171.275 25.94C171.175 25.3897 170.938 25.0574 170.659 24.8863Z" fill="#262933" stroke="#262933" stroke-width="2"/>
<path d="M182.924 27.391C181.952 26.7947 180.586 26.792 179.05 27.5222C177.524 28.2477 175.956 29.6511 174.765 31.593C173.575 33.5348 173.036 35.5689 173.081 37.2582C173.128 38.9585 173.75 40.174 174.722 40.7703C175.695 41.3666 177.06 41.3692 178.596 40.6391C180.123 39.9136 181.691 38.5102 182.881 36.5683C184.072 34.6264 184.611 32.5924 184.565 30.9031C184.519 29.2028 183.897 27.9872 182.924 27.391Z" fill="white" stroke="#262933" stroke-width="2"/>
<path d="M183.457 26.521C182.201 25.7508 180.513 25.6976 178.612 26.6013C176.837 27.4447 175.149 29.0161 173.896 31.0604C172.642 33.1046 172.008 35.3225 172.061 37.2862C172.118 39.3853 172.929 40.8627 174.18 41.6341L174.18 41.635L174.182 41.6355L174.189 41.6402C175.445 42.4104 177.133 42.4644 179.034 41.5609C180.808 40.7176 182.497 39.1459 183.75 37.1018C185.003 35.0576 185.637 32.8397 185.584 30.876C185.531 28.9078 184.815 27.4854 183.695 26.6797L183.466 26.5272L183.457 26.521ZM178.399 26.7572C180.035 25.9133 181.918 25.6253 183.436 26.556L183.438 26.5565L183.444 26.561L183.445 26.5612C184.958 27.4947 185.553 29.3023 185.541 31.1412C185.53 33.0123 184.907 35.1383 183.716 37.0802C182.525 39.0238 180.911 40.5454 179.247 41.4041C177.611 42.248 175.728 42.536 174.209 41.6052L174.208 41.6048L174.202 41.6002L174.201 41.6C172.807 40.7403 172.151 39.1127 172.101 37.2851C172.046 35.257 172.716 33.06 173.93 31.081C175.121 29.1374 176.735 27.6158 178.399 26.7572Z" fill="#262933" stroke="#262933" stroke-width="2"/>
<path d="M178.714 29.8549C178.368 29.6431 177.81 29.5973 177.072 29.9481C176.343 30.2943 175.564 30.9818 174.964 31.9604C174.365 32.9389 174.105 33.9446 174.127 34.7506C174.149 35.5677 174.443 36.0452 174.788 36.257C175.104 36.4502 175.593 36.5017 176.239 36.2425L176.137 34.7804C176.064 33.7262 176.899 32.8297 177.956 32.8302L179.145 32.8312C179.378 32.1012 179.424 31.4317 179.329 30.9077C179.23 30.3575 178.993 30.026 178.714 29.8549Z" fill="#262933" stroke="#262933" stroke-width="2"/>
<path d="M116.732 83.7527C116.289 87.2966 115.956 89.2347 112.523 93.277C112.34 87.5877 110.712 82.9247 108.237 79.0993L102.445 79.9319L94.6926 80.8733C91.6286 77.1078 85.2348 67.3177 84.1716 58.2807C83.2856 67.2291 85.6482 77.8831 86.9403 82.0915L74.8687 82.9775C72.1739 79.3966 67.3157 69.6877 69.4421 59.4989C66.607 71.7255 67.0056 80.7625 67.5594 83.7527C65.2132 84.222 60.4494 85.0093 57.5944 84.9691C57.6835 85.232 57.8186 85.6244 57.9898 86.1136C58.42 87.3432 59.0782 89.1844 59.807 91.1175C61.0806 94.4953 61.9112 98.9806 62.022 100.808C62.0639 101.5 62.1376 102.691 62.3871 104.208C62.7967 106.699 63.6806 110.068 65.6767 113.544C68.8219 119.347 75.5517 121.868 78.5234 122.404C74.0049 124.264 68.4454 123.474 66.2304 122.847C63.794 123.216 58.3231 123.29 55.9309 120.632C42.8626 118.528 43.3056 106.567 44.1916 100.143C45.0776 93.72 46.1852 83.8635 44.967 76.8863C43.7488 69.9092 43.638 56.841 55.7095 42.9975C67.7811 29.154 83.618 25.8315 89.3769 30.1507C109.09 24.1703 122.823 46.4306 126.477 54.9582C130.132 63.4858 138.771 80.7625 142.314 85.6354C145.858 90.5083 150.842 108.45 146.855 113.987C142.868 119.524 120.497 121.407 104.66 117.752C111.637 112.879 114.184 106.714 115.513 102.801C119.796 101.657 127.696 100.254 127.53 90.8406C127.372 81.8977 119.057 82.4237 116.732 83.7527Z" fill="#262933"/>
<path d="M102.058 64.4272C102.445 67.159 103.896 73.4642 106.598 76.831C107.177 77.5523 107.725 78.3079 108.237 79.0993M55.9309 120.632C42.8626 118.528 43.3056 106.567 44.1916 100.143C45.0776 93.72 46.1852 83.8635 44.967 76.8863C43.7488 69.9092 43.638 56.841 55.7095 42.9975C67.7811 29.154 83.618 25.8315 89.3769 30.1507C109.09 24.1703 122.823 46.4306 126.477 54.9582C130.132 63.4858 138.771 80.7625 142.314 85.6354C145.858 90.5083 150.842 108.449 146.855 113.987C142.868 119.524 120.497 121.407 104.66 117.752C111.637 112.879 114.184 106.714 115.513 102.801C119.796 101.657 127.696 100.254 127.53 90.8406C127.372 81.8977 119.057 82.4237 116.732 83.7527C116.289 87.2966 115.956 89.2347 112.523 93.277C112.34 87.5877 110.712 82.9247 108.237 79.0993M55.9309 120.632C58.3231 123.29 63.794 123.216 66.2304 122.847M55.9309 120.632C54.9895 119.174 53.0071 115.227 52.6084 111.107M66.2304 122.847C68.4454 123.474 74.0049 124.264 78.5234 122.404C75.5517 121.868 68.8219 119.347 65.6767 113.544C63.6806 110.068 62.7967 106.699 62.3871 104.208C62.1376 102.691 62.0639 101.5 62.022 100.808C61.9112 98.9806 61.0806 94.4953 59.807 91.1175C59.0782 89.1844 58.42 87.3432 57.9898 86.1136C57.8186 85.6244 57.6835 85.232 57.5944 84.9691M66.2304 122.847C65.086 121.924 62.3985 119.214 60.8038 115.759M108.237 79.0993L102.445 79.9319L94.6926 80.8733C91.6286 77.1078 85.2348 67.3177 84.1716 58.2807C83.2856 67.2291 85.6482 77.8831 86.9403 82.0915L74.8687 82.9775C72.1739 79.3966 67.3157 69.6877 69.4421 59.4989C66.607 71.7255 67.0056 80.7625 67.5594 83.7527C65.2132 84.222 60.4493 85.0093 57.5944 84.9691M55.8201 59.7204C52.4977 70.02 53.7159 77.1078 56.2631 84.8602C56.6281 84.9278 57.0803 84.9619 57.5944 84.9691" stroke="#262933" stroke-width="2" stroke-linecap="round" stroke-linejoin="round"/>
<path d="M158.816 39.1205C158.705 40.8371 157.099 43.6058 153.168 46.8728C155.327 48.7002 159.73 49.42 163.744 49.6415C167.62 56.0372 170.472 57.7538 172.023 58.6121C169.771 60.0888 164.94 62.7098 162.194 63.1528C161.917 66.9182 152.393 94.5498 145.859 107.507C142.403 113.975 142.019 115.924 142.259 116.09C137.515 111.845 127.663 102.125 126.201 97.2078C127.618 93.7525 139.597 68.9239 145.41 56.9415C144.617 52.7897 144.474 47.4368 144.917 45.1009C145.526 41.8892 149.901 39.5081 153.556 37.57C157.764 33.3062 158.927 37.4039 158.816 39.1205Z" fill="white"/>
<path d="M59.6966 134.253C67.6705 125.216 78.3761 122.809 82.7322 122.736C91.8347 123.212 98.664 121.382 104.269 118.094C112.985 112.982 118.741 104.345 125.481 95.3808C127.164 102.823 139.915 114.282 146.08 119.081L131.794 139.901C132.68 149.278 134.629 169.737 135.337 176.559C136.223 185.087 136.002 186.748 139.214 193.725C142.425 200.702 141.65 203.139 137.442 205.797C121.937 212.22 32.8956 213.549 33.1171 205.354C33.2943 198.797 39.2452 176.928 42.1984 166.813C44.7087 159.725 51.7228 143.29 59.6966 134.253Z" fill="white"/>
<path d="M82.7322 122.736C78.3761 122.809 67.6705 125.216 59.6966 134.253C51.7228 143.29 44.7087 159.725 42.1984 166.813C39.2452 176.928 33.2943 198.797 33.1171 205.354C32.8956 213.549 121.937 212.22 137.442 205.797C141.65 203.139 142.425 200.702 139.214 193.725C136.002 186.748 136.223 185.087 135.337 176.559C134.629 169.737 132.68 149.278 131.794 139.901M82.7322 122.736C83.1014 125.541 85.7667 131.108 93.4748 130.931C103.11 130.709 104.21 120.873 104.269 118.094M82.7322 122.736C91.8347 123.212 98.664 121.382 104.269 118.094M131.794 139.901L146.08 119.081C139.915 114.282 127.164 102.823 125.481 95.3808C118.741 104.345 112.985 112.982 104.269 118.094M131.794 139.901L129.136 143.445M114.96 169.25C112.302 173.606 105.081 183.115 97.4617 186.305M65.4555 147.1L65.3448 158.396" stroke="#262933" stroke-width="2" stroke-linecap="round" stroke-linejoin="round"/>
<path d="M141.982 115.426C147.741 104.093 159.702 78.4364 162.36 62.9317" stroke="#262933" stroke-width="2" stroke-linecap="round" stroke-linejoin="round"/>
<path d="M126.228 96.9036C131.359 86.7517 142.026 65.4346 145.304 57.7265" stroke="#262933" stroke-width="2" stroke-linecap="round" stroke-linejoin="round"/>
<path d="M146.246 60.4956C145.397 58.2068 143.876 52.1674 144.585 46.3199M144.585 46.3199C145.028 42.4437 148.572 40.3949 151.34 38.789C153.057 37.7923 154.331 37.1832 155.494 35.9649C156.656 34.7467 159.979 36.2418 158.207 40.8932C156.789 44.6144 153.962 46.3568 152.725 46.7629C154.792 47.7781 158.351 51.4475 156.047 58.0038M144.585 46.3199C144.714 44.4372 145.205 39.974 146.135 37.1832" stroke="#262933" stroke-width="2" stroke-linecap="round" stroke-linejoin="round"/>
<path d="M160.367 48.5068C159.536 50.0019 158.584 52.8094 160.311 53.7397C161.392 54.3218 162.862 53.7201 164.091 52.9033C164.826 52.4147 165.476 51.8492 165.904 51.414C165.018 52.5584 163.567 55.124 164.852 56.2315C166.136 57.339 168.239 56.3053 169.199 55.567" stroke="#262933" stroke-width="2" stroke-linecap="round" stroke-linejoin="round"/>
<path d="M156.933 62.987C159.443 63.5408 165.915 63.4411 172.382 57.948" stroke="#262933" stroke-width="2" stroke-linecap="round" stroke-linejoin="round"/>
<path d="M26.0288 214.546C22.3077 214.635 22.6326 211.704 23.2601 210.227L32.7844 199.042C61.0054 200.09 118.302 202.24 126.264 202.62C126.561 202.634 126.809 202.776 126.96 203.033C128.265 205.261 126.125 206.824 124.816 207.348C118.799 209.6 105.9 214.458 102.445 215.875C98.9896 217.293 95.9846 217.5 94.914 217.426C73.5028 216.429 29.75 214.458 26.0288 214.546Z" fill="white" stroke="#262933" stroke-width="2" stroke-linecap="round" stroke-linejoin="round"/>
<path d="M98.5132 211.501L108.314 207.016C109.533 206.407 109.621 205.698 105.767 205.742C101.913 205.786 99.7868 205.834 99.0115 205.853" stroke="#262933" stroke-width="2" stroke-linecap="round" stroke-linejoin="round"/>
<path d="M95.2188 213.549C96.6954 213.475 102.146 212.641 108.038 210.337C113.93 208.034 122.897 204.505 126.643 203.028" stroke="#262933" stroke-width="2" stroke-linecap="round" stroke-linejoin="round"/>
<path d="M18.9409 204.357L10.8563 166.26C8.81854 159.084 12.4066 158.065 15.1755 158.176C35.3685 158.471 77.1057 158.995 82.5102 158.729C87.9147 158.464 90.1518 162.901 90.5948 165.153C92.8836 176.707 97.7492 201.234 98.9009 206.905C100.053 212.575 96.3537 213.697 94.3603 213.55L27.1363 211.002C19.8712 210.914 19.8269 208.012 18.9409 204.357Z" fill="white" stroke="#262933" stroke-width="2" stroke-linecap="round" stroke-linejoin="round"/>
<path d="M44.0188 173.899C41.3464 174.41 39.3153 176.104 38.5785 178.595C38.0292 180.452 38.2799 182.437 39.2024 184.448C39.7464 185.634 40.5306 186.832 41.5238 188.029C40.5532 191.006 40.6 192.965 40.7953 194.4L40.7961 194.399L40.8022 194.449L40.8531 194.729L40.8527 194.73L40.8631 194.775L40.9553 195.149C41.4474 196.992 42.4281 198.455 43.9189 199.404C45.3441 200.311 47.0482 200.598 48.8086 200.287C48.8281 200.283 48.8581 200.278 48.88 200.274C48.8916 200.272 48.9023 200.27 48.91 200.268L48.9222 200.266L48.9279 200.264C51.3247 199.806 53.543 198.301 54.9623 197.153C57.3556 197.931 59.5507 198.194 61.4759 197.855C61.5159 197.848 61.5554 197.84 61.5926 197.833L61.5957 197.833C64.2672 197.322 66.2975 195.629 67.0343 193.138C67.5834 191.282 67.3335 189.296 66.4121 187.286C65.8693 186.102 65.0876 184.905 64.0965 183.709C64.5121 182.429 64.7799 181.202 64.8873 180.048C65.1133 177.622 64.6402 175.503 63.3532 173.862C61.7779 171.853 59.3104 171.017 56.6825 171.481L56.6764 171.482L56.5749 171.501L56.5671 171.502C54.6137 171.876 52.6301 172.938 50.6514 174.577C48.2586 173.799 46.0627 173.537 44.1364 173.877C44.098 173.884 44.0589 173.891 44.0197 173.899L44.0188 173.899Z" fill="white" stroke="#262933" stroke-width="2"/>
<path d="M44.7084 177.511C43.2781 177.784 42.4223 178.563 42.1044 179.638C41.8451 180.514 41.9399 181.598 42.5439 182.915L42.5443 182.916C43.0829 184.089 43.9988 185.381 45.3076 186.754L45.7516 187.22L45.5116 187.816C44.3909 190.61 44.2912 192.306 44.3874 193.448L44.4382 193.904L44.4412 193.927L44.4497 193.967C44.7151 195.143 45.2284 195.879 45.8931 196.302C46.4913 196.683 47.2337 196.831 48.1691 196.666L48.2205 196.657C48.2266 196.656 48.2325 196.655 48.2374 196.654C50.0236 196.312 52.1646 194.835 53.7065 193.375L54.1713 192.933L54.7663 193.173C57.1562 194.133 59.1505 194.465 60.6186 194.268L60.9061 194.222C62.3352 193.949 63.1904 193.17 63.5083 192.096C63.7677 191.219 63.6733 190.135 63.0702 188.819C62.5326 187.646 61.6177 186.356 60.3109 184.984L59.8664 184.518L60.1082 183.921C60.7461 182.339 61.1136 180.925 61.227 179.708C61.3803 178.063 61.067 176.906 60.4599 176.131C59.8117 175.305 58.8202 174.894 57.5193 175.071L57.2553 175.114C55.764 175.399 53.9216 176.464 51.9247 178.362L51.4586 178.806L50.8614 178.566C48.3067 177.537 46.2027 177.226 44.7084 177.511Z" fill="#262933" stroke="#262933" stroke-width="2"/>
<path d="M49.4106 182.123C48.7854 182.235 48.2239 182.738 47.8626 183.593C47.5035 184.443 47.3741 185.583 47.5927 186.802C47.8113 188.021 48.3286 189.045 48.9608 189.717C49.5967 190.393 50.298 190.67 50.9232 190.558C51.5486 190.446 52.1109 189.943 52.4722 189.087C52.8313 188.237 52.9596 187.097 52.741 185.878C52.5223 184.659 52.0061 183.636 51.374 182.963C50.738 182.287 50.036 182.011 49.4106 182.123Z" fill="white" stroke="#262933"/>
<path d="M48.9257 185.081C48.9105 185.084 48.7717 185.121 48.6385 185.436C48.5082 185.745 48.4443 186.211 48.5405 186.747C48.6367 187.283 48.8585 187.698 49.0879 187.942C49.3249 188.194 49.4688 188.177 49.4813 188.175C49.4863 188.174 49.505 188.167 49.535 188.147L49.2549 187.873C48.6558 187.288 48.6785 186.318 49.3043 185.761L49.5139 185.574C49.4064 185.404 49.2942 185.276 49.1897 185.194C49.0266 185.067 48.9401 185.078 48.9257 185.081Z" fill="#262933" stroke="#262933" stroke-width="2"/>
<path d="M54.6933 181.19C54.0681 181.303 53.5066 181.806 53.1453 182.661C52.7862 183.511 52.6568 184.65 52.8754 185.869C53.094 187.088 53.6113 188.112 54.2435 188.785C54.8794 189.461 55.5807 189.737 56.2059 189.625C56.8313 189.513 57.3936 189.01 57.7549 188.155C58.1141 187.305 58.2424 186.165 58.0237 184.946C57.805 183.727 57.2888 182.703 56.6567 182.031C56.0207 181.354 55.3187 181.078 54.6933 181.19Z" fill="white" stroke="#262933"/>
<path d="M53.9657 184.191C53.9505 184.194 53.8117 184.231 53.6785 184.547C53.5482 184.855 53.4843 185.321 53.5805 185.857C53.6767 186.394 53.8985 186.808 54.1279 187.052C54.3649 187.304 54.5088 187.288 54.5214 187.285C54.5264 187.284 54.5451 187.277 54.5751 187.257L54.2949 186.984C53.6958 186.398 53.7185 185.428 54.3443 184.872L54.554 184.684C54.4464 184.514 54.3343 184.387 54.2297 184.305C54.0667 184.177 53.9801 184.189 53.9657 184.191Z" fill="#262933" stroke="#262933" stroke-width="2"/>
<path d="M52.6089 96.5328C51.5088 92.3981 53.9033 89.9172 55.8079 88.8608C56.2878 88.5947 56.8595 88.8617 57.0444 89.3783C58.0028 92.0551 59.3644 96.1514 59.8074 97.9726C60.1995 99.5846 60.386 102.054 60.7983 104.598C60.9332 105.43 60.0626 106.098 59.3313 105.679C56.0872 103.821 53.9701 101.649 52.6089 96.5328Z" fill="white"/>
<path d="M61.3026 101.527C60.2505 100.807 57.8583 98.8912 56.7065 96.9863" stroke="#262933" stroke-width="2" stroke-linecap="round"/>
<path d="M134.917 251.094C136.788 265.421 131.302 273.231 122.267 271.101C121.367 270.889 120.466 270.623 119.571 270.315C113.28 268.147 107.782 263.376 105.164 261.097L115.196 257.724L134.917 251.094Z" fill="white"/>
<path d="M119.571 270.315C113.28 268.147 107.782 263.376 105.164 261.097L134.917 251.094C136.788 265.421 131.302 273.231 122.267 271.101C121.367 270.889 120.466 270.623 119.571 270.315ZM119.571 270.315C116.329 269.068 113.341 265.144 115.2 257.709M119.571 270.315C120.409 270.528 121.305 270.624 122.201 270.56M129.947 252.901C130.151 254.955 130.147 260.303 128.495 265.26C127.274 268.923 124.738 270.38 122.201 270.56M122.201 270.56C122.89 269.977 124.229 268.39 124.074 266.712M124.074 266.712C125.339 265.834 125.311 263.657 125.139 262.679M124.074 266.712L120.492 265.583M125.139 262.679C125.655 261.936 126.539 260.065 125.946 258.516M125.139 262.679L121.105 261.71M125.946 258.516C126.901 257.096 126.903 255.041 126.785 254.192M125.946 258.516L122.202 257.774" stroke="#262933" stroke-width="2" stroke-linecap="round" stroke-linejoin="round"/>
</svg>
