<svg width="148" height="403" viewBox="0 0 148 403" fill="none" xmlns="http://www.w3.org/2000/svg">
<path d="M94.018 362.845L93.051 347.977C92.4708 347.784 104.816 347.735 111.061 347.735C110.981 351.442 110.844 359.799 110.94 363.57C108.426 364.44 98.6112 363.449 94.018 362.845Z" fill="white" stroke="#262933" stroke-width="2" stroke-linecap="round" stroke-linejoin="round"/>
<path d="M41.0757 370.46L41.4383 355.834C46.3699 353.223 55.5805 355.391 59.5693 356.801C59.4887 359.46 59.2792 365.987 59.0858 370.822C51.1565 374.303 43.7752 372.031 41.0757 370.46Z" fill="white" stroke="#262933" stroke-width="2" stroke-linecap="round" stroke-linejoin="round"/>
<path d="M33.0981 354.021L36.7243 238.466L37.4496 232.664L113.116 224.444C114.003 258.208 115.921 330.474 116.501 349.427C108.765 354.649 92.9708 351.925 86.0407 349.911L78.7883 265.058C77.1767 275.775 72.5996 308.717 67.1845 354.746C57.708 359.194 40.5117 356.116 33.0981 354.021Z" fill="#262933" stroke="#262933" stroke-width="2" stroke-linejoin="round"/>
<path d="M106.227 233.751C106.912 236.45 107.556 242.102 111.787 244.398" stroke="white" stroke-width="2" stroke-linecap="round" stroke-linejoin="round"/>
<path d="M54.6135 243.554C52.196 248.751 48.8116 252.861 39.9878 253.334" stroke="white" stroke-width="2" stroke-linecap="round" stroke-linejoin="round"/>
<path d="M78.7886 274.616L83.14 259.979" stroke="white" stroke-width="2" stroke-linecap="round" stroke-linejoin="round"/>
<path d="M70.0855 154.521C67.1345 150.906 66.5802 146.342 66.8219 144.005L92.8099 144.126C93.6158 146.583 95.8315 151.136 91.3592 156.697C86.8869 162.257 74.9203 160.444 70.0855 154.521Z" fill="white" stroke="#262933" stroke-width="2" stroke-linecap="round" stroke-linejoin="round"/>
<path d="M110.095 87.7989C112.802 91.3767 110.175 93.8022 108.523 94.5678C100.425 110.644 46.1525 140.137 39.0209 122.731C34.9112 123.94 29.593 123.577 30.1973 117.413C25.4833 115.721 25.4834 113.182 28.8678 107.985C25.3625 105.205 26.2084 102.062 30.439 98.4357C28.2633 93.9634 31.1642 90.3372 35.7575 89.4911C34.5488 81.2717 39.8672 78.0081 44.2187 77.8872C45.6692 70.3931 47.9658 70.514 55.0973 69.6678C56.0643 63.8659 60.0531 60.8441 68.2725 62.0528C69.9647 57.2179 76.2502 57.3388 81.3269 59.8772C87.854 56.9762 89.9089 61.0859 91.4802 63.9868C93.8977 63.2615 100.606 60.4815 102.903 70.7557C110.155 67.3713 112.15 76.0741 109.611 80.3047C113.117 82.7222 112.512 86.4693 110.095 87.7989Z" fill="#262933" stroke="#262933" stroke-width="2" stroke-linecap="round" stroke-linejoin="round"/>
<path d="M96.738 77.1616C96.7178 76.3759 96.3935 74.7199 95.2573 74.3815C93.837 73.9584 92.3261 74.7743 92.0239 75.983" stroke="white" stroke-width="2" stroke-linecap="round" stroke-linejoin="round"/>
<path d="M62.9539 81.2106C62.1682 80.3645 60.2161 79.1256 58.6931 80.9387C57.1701 82.7518 57.8571 84.7765 58.3909 85.5622" stroke="white" stroke-width="2" stroke-linecap="round" stroke-linejoin="round"/>
<path d="M50.4139 94.2353C50.0815 94.9303 49.737 96.5681 51.0183 97.5593C52.2995 98.5505 53.889 97.4888 54.5235 96.8341" stroke="white" stroke-width="2" stroke-linecap="round" stroke-linejoin="round"/>
<path d="M49.8992 107.804C49.7783 108.227 49.8387 109.157 51.0475 109.496C52.2562 109.834 53.1831 109.033 53.4954 108.589" stroke="white" stroke-width="2" stroke-linecap="round" stroke-linejoin="round"/>
<path d="M103.567 83.81C105.139 85.9454 108.451 91.6668 109.128 97.4687C109.974 104.721 110.699 106.292 113.479 109.677C116.259 113.061 121.578 128.412 105.864 139.774C90.1505 151.137 72.0195 150.29 58.6025 137.599C56.9103 138.324 46.8778 141.467 41.1967 133.489C35.5157 125.511 39.8671 117.655 45.9108 118.138C51.9545 118.622 51.9545 121.885 54.2511 123.94C56.5477 125.995 59.3278 126.176 59.6904 122.671C59.9805 119.867 58.7234 117.755 58.0586 117.05C60.8589 116.446 64.9605 113.617 58.9652 107.139C63.4375 107.32 66.4593 103.875 60.8387 99.1609C65.855 100.551 69.179 98.1335 65.6132 93.4194C70.9316 97.5896 74.1952 93.9029 72.8656 88.9471C75.8875 94.1447 81.6894 93.1777 82.052 86.3483C84.7717 92.8151 91.0571 90.6394 90.634 85.0187C93.0599 88.9829 98.4399 89.0083 98.1545 82.3728C98.1427 82.2316 98.1339 82.0862 98.1282 81.9365C98.1396 82.085 98.1483 82.2304 98.1545 82.3728C98.5118 86.6774 101.578 87.0285 103.567 83.81Z" fill="white" stroke="#262933" stroke-width="2" stroke-linecap="round" stroke-linejoin="round"/>
<path d="M53.4054 131.796C52.6801 129.721 49.6946 125.51 43.5542 125.268" stroke="#262933" stroke-width="2" stroke-linecap="round" stroke-linejoin="round"/>
<path d="M50.0808 127.565C49.7585 128.371 48.159 129.959 44.3394 129.862" stroke="#262933" stroke-width="2" stroke-linecap="round" stroke-linejoin="round"/>
<path d="M73.1675 106.957C73.5905 105.627 75.1498 102.738 78.0024 101.819C80.855 100.901 82.656 102.565 83.2 103.512" stroke="#262933" stroke-width="2" stroke-linecap="round" stroke-linejoin="round"/>
<path d="M95.7104 98.7381C95.9321 97.5898 97.0521 95.1119 99.7597 94.3866C102.467 93.6614 104.393 94.9709 105.018 95.7162" stroke="#262933" stroke-width="2" stroke-linecap="round" stroke-linejoin="round"/>
<ellipse cx="82.3713" cy="112.849" rx="2.79715" ry="4.27268" transform="rotate(-15.7307 82.3713 112.849)" fill="#262933"/>
<ellipse cx="102.744" cy="105.959" rx="2.47855" ry="4.27268" transform="rotate(-11.0673 102.744 105.959)" fill="#262933"/>
<path d="M95.106 112.94C95.388 113.303 96.3026 114.052 97.7047 114.149C99.4574 114.27 101.935 117.352 97.5234 120.374" stroke="#262933" stroke-width="2" stroke-linecap="round" stroke-linejoin="round"/>
<path d="M88.8208 126.779C91.621 128.793 98.2248 131.239 102.238 124.905" stroke="#262933" stroke-width="2" stroke-linecap="round" stroke-linejoin="round"/>
<path d="M103.447 83.9765C103.855 83.2211 104.232 80.9849 103.084 77.8271" stroke="#262933" stroke-width="2" stroke-linecap="round" stroke-linejoin="round"/>
<path d="M49.5367 145.456C51.4223 144.537 65.2503 143.764 66.5194 144.71C67.426 154.884 72.0796 156.576 75.1014 158.268C78.1233 159.961 87.3097 161.774 91.4798 156.576C94.8159 152.418 94.1994 147.873 93.4742 146.121C102.781 142.917 107.254 139.231 111.666 134.396C115.042 130.696 116.239 125.753 116.501 123.819L116.984 119.831L122.061 113.303C119.804 105.527 114.929 88.1859 113.479 81.0302C115.316 74.7448 126.009 71.3201 131.126 70.3934C132.819 73.3749 137.823 82.6499 144.302 95.8977C152.231 113.69 140.595 138.042 133.786 147.994L114.688 173.378V198.64C114.688 207.536 118.314 219.269 120.127 224.024C115.574 226.723 102.818 233.379 88.2162 238.407C73.6147 243.436 45.0644 239.939 32.6144 237.561L29.0486 179.361C25.4023 174.627 17.2997 164.046 14.0603 159.598C7.83534 152.708 -3.16415 134.674 2.63778 117.655C8.43971 100.636 13.4359 88.6453 15.2088 84.7773C20.769 85.422 32.808 87.4849 36.4825 90.5792C35.3221 95.9944 32.2922 112.981 30.9223 120.798C30.3179 122.933 31.8893 126.841 36.9054 132.945C40.7331 137.841 46.3456 141.588 49.5367 145.456Z" fill="white" stroke="#262933" stroke-width="2" stroke-linecap="round" stroke-linejoin="round"/>
<path d="M13.2749 89.0048C18.7545 89.7905 30.8136 92.075 35.2134 94.9276" stroke="#262933" stroke-width="2"/>
<path d="M24.9995 174.102C27.4573 177.205 32.8321 184.062 34.6694 186.673" stroke="#262933" stroke-width="2" stroke-linecap="round"/>
<path d="M46.8174 142.614C47.7844 143.662 50.081 145.576 52.3171 149.323" stroke="#262933" stroke-width="2" stroke-linecap="round"/>
<path d="M114.688 173.709L114.567 164.522" stroke="#262933" stroke-width="2" stroke-linecap="round" stroke-linejoin="round"/>
<path d="M74.9194 1.92377C81.9715 -0.191428 88.7901 1.35318 93.5337 6.26654C97.0919 9.95221 99.0083 14.9869 99.3159 21.1318C99.5124 25.0504 99.0407 29.4248 97.9351 34.1689C104.873 40.7511 107.393 45.9157 108.793 49.8124H108.792L108.843 49.9521C108.917 50.158 108.984 50.3725 109.041 50.5878H109.042L109.078 50.7255H109.077C110.526 56.2123 110.061 61.2021 107.591 65.4794C105.377 69.3146 101.739 72.0933 97.1323 73.5458C97.0849 73.5608 97.0065 73.5849 96.9429 73.6044C96.9104 73.6144 96.8805 73.6242 96.8589 73.6308C96.8482 73.6341 96.8396 73.6368 96.8335 73.6386C96.8307 73.6395 96.8283 73.6401 96.8267 73.6406L96.8247 73.6415H96.8237L96.8188 73.6425C89.9488 75.7028 81.8987 74.5976 76.7593 73.4667C71.4797 79.0202 66.1234 82.7297 60.7876 84.412C60.6829 84.4451 60.578 84.4769 60.4761 84.5078L60.4741 84.5087C53.4245 86.6234 46.6064 85.0778 41.8628 80.164C38.3057 76.4788 36.3882 71.4463 36.0786 65.3056C35.8814 61.3924 36.3502 57.0233 37.4526 52.2851C34.3654 49.3497 31.8326 46.3737 29.9146 43.4013C26.2202 37.6764 24.777 32.0062 25.7896 26.5888L25.9155 25.9745C27.3211 19.6795 31.965 14.9117 38.6294 12.8105L38.6362 12.8085L38.9263 12.7197L38.9331 12.7167C44.3768 11.0839 51.0022 11.2047 58.6245 12.9736C63.9054 7.41548 69.267 3.70306 74.6099 2.01849C74.7122 1.98623 74.8154 1.95473 74.9185 1.92377H74.9194Z" fill="white" stroke="#262933" stroke-width="2"/>
<path d="M76.9116 8.56168C81.5919 7.15782 85.6742 8.10519 88.5474 11.0812C90.8329 13.4485 92.165 16.9063 92.394 21.4796C92.5979 25.5511 91.9152 30.3872 90.3276 35.882L90.1489 36.4992L90.6372 36.9181C98.0627 43.2905 100.682 48.024 102.019 51.4816L102.271 52.1564L102.32 52.2921V52.2931C102.327 52.3133 102.334 52.3346 102.339 52.3556L102.376 52.4953C103.378 56.286 103.066 59.4578 101.589 62.0148C100.265 64.3081 98.0971 65.9754 95.0483 66.9367L94.8481 66.9982C94.8319 67.0028 94.8169 67.0071 94.8081 67.0099C89.1438 68.7009 81.122 67.6302 75.019 65.8878L74.4019 65.7121L73.9849 66.1984C68.6151 72.4649 63.2645 76.4346 58.4819 77.8703C53.8036 79.2737 49.7222 78.327 46.8491 75.3507C44.5637 72.9833 43.2309 69.527 43.0005 64.9572C42.7954 60.8898 43.476 56.0591 45.0601 50.5714L45.2388 49.9533L44.7485 49.5343C40.8359 46.1902 37.816 42.8641 35.7378 39.6437H35.7368C32.934 35.3006 31.9506 31.352 32.603 27.8625C33.3397 23.9236 36.0698 20.9529 40.4946 19.4914L40.9282 19.3546C45.7149 17.9189 52.3874 18.2926 60.3413 20.5802L60.9595 20.758L61.3774 20.2687C66.5871 14.1791 71.783 10.2528 76.4604 8.70425L76.9116 8.56168Z" fill="#262933" stroke="#262933" stroke-width="2"/>
<path d="M71.3307 28.3863C73.3163 27.7663 75.6269 28.4023 77.8072 30.2052C79.9789 32.0011 81.9085 34.879 83.0177 38.4301C84.1267 41.9811 84.1777 45.4451 83.4143 48.1576C82.6477 50.8809 81.1098 52.719 79.1243 53.3392C77.1388 53.9593 74.8282 53.3232 72.6479 51.5203C70.4763 49.7245 68.5468 46.8473 67.4377 43.2963C66.3285 39.7451 66.2772 36.2806 67.0408 33.5679C67.8074 30.8446 69.3452 29.0065 71.3307 28.3863Z" fill="white" stroke="#262933" stroke-width="2"/>
<path d="M70.8467 26.8369C73.3214 26.0639 76.1488 26.728 78.8408 28.9541C81.3509 31.0298 83.4002 34.2144 84.5654 37.9453C85.7307 41.6763 85.8582 45.4613 84.9756 48.5967C84.0609 51.8462 82.212 53.9682 79.8555 54.8047L79.625 54.8818L79.6074 54.8877C77.1328 55.6605 74.3051 54.9964 71.6133 52.7705C69.1031 50.6948 67.0539 47.5093 65.8887 43.7783C64.7235 40.0475 64.596 36.2623 65.4785 33.127C66.3932 29.8774 68.2429 27.7552 70.5996 26.9189L70.8291 26.8418C70.8341 26.8402 70.8363 26.84 70.8369 26.8398L70.8467 26.8369ZM78.3398 30.1758C76.2225 28.3053 73.6417 27.2683 71.2178 28.0254H71.2158L71.2051 28.0293H71.2041C68.7856 28.7918 67.2582 31.113 66.584 33.8545C65.9021 36.6271 66.025 40.0384 67.0771 43.4072C68.1304 46.7792 69.9728 49.6571 72.1143 51.5488C74.2315 53.4192 76.8125 54.4561 79.2363 53.6992L79.2383 53.6982L79.25 53.6943H79.251C81.4765 52.9924 83.0205 50.9483 83.7773 48.2598C84.6148 45.2844 84.4516 41.754 83.3779 38.3164C82.3248 34.9445 80.4812 32.0675 78.3398 30.1758Z" fill="#262933" stroke="#262933" stroke-width="2"/>
<path d="M76.1743 34.0421C77.0431 33.7707 78.1259 34.0273 79.2231 34.9347C80.3118 35.8349 81.3031 37.3011 81.8765 39.1368C82.4498 40.9726 82.4692 42.7428 82.0864 44.1026C81.7006 45.4731 80.9561 46.3001 80.0874 46.5714C79.2466 46.8338 78.2076 46.6019 77.144 45.7618C77.0582 45.6939 77.0122 45.5636 77.0552 45.4327L77.8462 43.0206C78.263 41.749 77.5141 40.3904 76.2163 40.0636L74.1821 39.5509C74.0463 39.5166 73.9612 39.4048 73.9517 39.294C73.8326 37.9066 74.0324 36.6729 74.4526 35.7472C74.8712 34.825 75.4781 34.2596 76.1743 34.0421Z" fill="#262933" stroke="#262933" stroke-width="2"/>
<path d="M56.2839 33.1304C58.2694 32.5103 60.5801 33.1464 62.7603 34.9493C64.932 36.7451 66.8617 39.623 67.9708 43.1742C69.0798 46.7251 69.1308 50.1891 68.3674 52.9016C67.6009 55.6249 66.063 57.463 64.0775 58.0832C62.0919 58.7033 59.7813 58.0672 57.601 56.2643C55.4295 54.4685 53.4999 51.5913 52.3908 48.0403C51.2816 44.4891 51.2304 41.0246 51.9939 38.3119C52.7605 35.5886 54.2983 33.7505 56.2839 33.1304Z" fill="white" stroke="#262933" stroke-width="2"/>
<path d="M55.7998 31.5848C58.2746 30.8118 61.1019 31.4759 63.7939 33.702C66.304 35.7777 68.3533 38.9623 69.5186 42.6932C70.6838 46.4241 70.8113 50.2091 69.9287 53.3445C69.0141 56.594 67.1651 58.7161 64.8086 59.5526L64.5781 59.6297L64.5605 59.6356C62.0858 60.4084 59.2582 59.7443 56.5664 57.5184C54.0562 55.4427 52.007 52.2572 50.8418 48.5262C49.6766 44.7953 49.5491 41.0102 50.4316 37.8748C51.3465 34.6252 53.196 32.5031 55.5527 31.6668L55.7822 31.5897C55.7875 31.588 55.7895 31.5879 55.79 31.5877L55.7998 31.5848ZM63.293 34.9236C61.1756 33.0532 58.5948 32.0162 56.1709 32.7733H56.1689L56.1572 32.7772C53.7388 33.5397 52.2113 35.8609 51.5371 38.6024C50.8553 41.375 50.9781 44.7862 52.0303 48.1551C53.0835 51.5271 54.926 54.405 57.0674 56.2967C59.1846 58.167 61.7656 59.2039 64.1895 58.4471L64.1914 58.4461L64.2031 58.4422H64.2041C66.4296 57.7403 67.9736 55.6962 68.7305 53.0076C69.5679 50.0322 69.4038 46.5019 68.3301 43.0643C67.2769 39.6925 65.4343 36.8153 63.293 34.9236Z" fill="#262933" stroke="#262933" stroke-width="2"/>
<path d="M61.8179 38.5672C62.6866 38.2958 63.7694 38.5524 64.8667 39.4597C65.9554 40.36 66.9466 41.8262 67.52 43.6619C68.0934 45.4977 68.1128 47.2678 67.73 48.6277C67.3442 49.9982 66.5997 50.8251 65.731 51.0965C64.8902 51.3589 63.8512 51.127 62.7876 50.2869C62.7018 50.219 62.6558 50.0887 62.6987 49.9578L63.4897 47.5457C63.9065 46.2741 63.1577 44.9155 61.8599 44.5887L59.8257 44.076C59.6899 44.0417 59.6047 43.9299 59.5952 43.8191C59.4761 42.4317 59.676 41.198 60.0962 40.2722C60.5148 39.3501 61.1217 38.7847 61.8179 38.5672Z" fill="#262933" stroke="#262933" stroke-width="2"/>
<path d="M105.743 43.8588C113.672 41.8765 119.321 47.1022 121.155 49.9629C123.249 52.3126 125.613 61.9817 126.533 66.5225L127.712 70.2394C125.023 70.8438 118.731 72.9772 115.081 76.6759C114.887 75.4672 114.738 74.5203 114.688 74.198C114.58 73.5102 113.756 73.2466 113.358 73.2008L110.76 72.1432C109.974 70.6625 108.584 69.0911 106.166 69.0307C110.3 64.5342 110.991 58.8169 110.82 56.5203C110.481 55.795 110.155 55.513 110.034 55.4626C105.622 55.7044 103.688 55.2209 104.232 53.5891C102.419 54.0121 101.15 51.8969 100.969 50.3255C97.6447 47.7872 99.8204 45.3697 105.743 43.8588Z" fill="white"/>
<path d="M101.089 50.386C96.5565 48.1499 101.754 43.0731 111.061 43.5566C121.892 44.1368 125.889 59.1896 126.533 66.6434L127.863 70.8741" stroke="#262933" stroke-width="2" stroke-linecap="round" stroke-linejoin="round"/>
<path d="M107.677 46.6396C105.179 47.3648 101.283 48.8274 101.331 52.0185C101.235 53.2272 103.024 53.4488 103.93 53.4085" stroke="#262933" stroke-width="2" stroke-linecap="round" stroke-linejoin="round"/>
<path d="M114.506 66.5225C112.814 63.0172 114.809 58.0613 115.836 55.6439C113.177 54.1934 106.649 56.9735 104.595 55.8252C102.951 54.9065 104.776 52.5012 105.803 51.4737C106.831 50.4463 109.49 48.875 114.083 48.9958" stroke="#262933" stroke-width="2" stroke-linecap="round" stroke-linejoin="round"/>
<path d="M108.402 72.0829C109.49 72.7679 111.303 73.4126 113.721 74.3795L114.809 78.0662" stroke="#262933" stroke-width="2" stroke-linecap="round" stroke-linejoin="round"/>
<path d="M114.748 85.9257C115.896 84.1932 118.556 80.2447 123.753 77.8877C128.357 75.8 132.154 74.9665 133.423 74.6845" stroke="#262933" stroke-width="2"/>
<path d="M34.2163 58.0621C37.8425 57.5544 39.6556 58.596 40.1089 59.1802C44.2188 61.1382 44.561 63.4813 44.2184 64.4081C44.4904 64.4282 45.0706 64.7163 45.2156 65.7075C45.3969 66.9464 45.0041 68.1249 42.496 69.0919C43.2454 71.8962 43.9616 72.9901 44.294 73.6247C43.3471 75.7802 40.5318 79.8557 39.9274 81.693C39.323 83.5302 35.6968 86.3567 33.7326 87.9482C33.7326 87.9482 29.844 86.6332 27.3868 85.984C24.9296 85.3347 20.4063 84.5637 20.4063 84.5637L20.5574 82.2067C20.4064 80.1518 20.0862 75.3773 20.0137 72.7181C19.923 69.3941 20.9807 66.7047 22.7636 63.4411C24.5465 60.1775 29.6836 58.6967 34.2163 58.0621Z" fill="white"/>
<path d="M40.5563 60.0349C40.606 59.0484 39.7647 57.1613 36.0013 57.5047C31.2971 57.934 24.5441 58.5611 21.3571 65.1762C18.8075 70.4682 19.5523 78.5486 20.2434 81.9273L19.1974 85.1377" stroke="#262933" stroke-width="2" stroke-linecap="round"/>
<path d="M32.6871 60.9582C35.269 60.1265 39.6391 59.3334 42.4874 60.6499C45.3357 61.9665 44.9854 63.8483 44.4542 64.6246" stroke="#262933" stroke-width="2" stroke-linecap="round"/>
<path d="M33.9351 64.2521C36.8119 63.7414 43.1301 63.2801 45.3887 65.5208C46.7435 67.1442 44.1871 68.4 41.2295 69.0457C38.2719 69.6914 35.8778 69.6373 35.1557 71.2794C35.7398 73.4515 37.1449 76.9633 36.087 80.3706" stroke="#262933" stroke-width="2" stroke-linecap="round"/>
<path d="M33.8229 89.0059C35.8195 87.4298 39.8066 84.2314 40.8039 81.4514C41.8012 78.6715 41.0516 80.0492 41.4384 79.6382" stroke="#262933" stroke-width="2" stroke-linecap="round"/>
<path d="M37.5662 70.0019C37.4168 69.4702 36.8647 69.1603 36.333 69.3097C35.8013 69.4591 35.4914 70.0112 35.6408 70.5429L36.6035 70.2724L37.5662 70.0019ZM42.7681 81.0906L43.4512 80.3603C42.3071 79.29 39.1511 75.6421 37.5662 70.0019L36.6035 70.2724L35.6408 70.5429C37.3437 76.6032 40.7309 80.5542 42.0849 81.8208L42.7681 81.0906Z" fill="#262933"/>
<path d="M40.471 363.933L46.273 369.976C58.1788 356.197 65.5525 373.723 67.4261 376.624C69.2996 379.525 72.2006 381.459 74.4972 388.832C75.7059 396.991 72.1401 401.041 61.2011 401.947C50.262 402.854 37.9931 391.794 36.9657 382.789C35.902 372.829 38.8594 366.068 40.471 363.933Z" fill="white" stroke="#262933" stroke-width="2" stroke-linecap="round" stroke-linejoin="round"/>
<path d="M36.8452 378.315C38.8396 382.042 44.0734 390.403 49.0534 394.029C55.2784 398.561 66.8218 400.133 74.7391 392.095" stroke="#262933" stroke-width="2" stroke-linecap="round" stroke-linejoin="round"/>
<path d="M90.8754 366.23C90.7787 362.701 92.5274 360.166 93.4138 359.34C95.3478 361.214 105.199 361.879 108.644 361.395C108.221 354.687 116.017 358.434 118.193 359.884C120.368 361.335 129.978 365.565 133.423 366.835C136.868 368.104 137.714 374.933 137.593 376.444L137.591 376.472C137.47 377.982 137.298 380.138 128.89 381.279C120.429 382.427 102.842 380.554 98.1278 379.647C94.3565 378.922 92.5676 377.169 92.1445 376.384C91.7618 374.47 90.9721 369.76 90.8754 366.23Z" fill="white" stroke="#262933" stroke-width="2" stroke-linecap="round" stroke-linejoin="round"/>
<path d="M91.7822 373.421C94.663 374.388 101.851 376.431 107.556 376.866C114.688 377.41 127.077 378.86 137.231 374.569" stroke="#262933" stroke-width="2" stroke-linecap="round" stroke-linejoin="round"/>
</svg>
