<svg width="289" height="297" viewBox="0 0 289 297" fill="none" xmlns="http://www.w3.org/2000/svg">
<path d="M31.1112 230.516L32.1794 226.718L51.3496 235.205L49.6284 241.259C49.9252 243.573 49.7709 250.031 46.7796 257.343C46.246 258.647 45.4054 259.621 44.3327 260.321C37.8883 264.524 23.0662 258.81 16.0956 255.147C8.7397 251.281 1.18946 247.123 1.00351 240.961C0.983915 240.311 1.04607 239.64 1.19881 238.944C1.3982 238.222 1.65922 237.572 1.97362 236.987C6.33839 228.865 20.9916 233.253 23.8705 231.703C26.3394 230.374 29.7263 230.358 31.1112 230.516Z" fill="white"/>
<path d="M31.1112 230.516L32.1794 226.718L51.3496 235.205L49.6284 241.259M31.1112 230.516C29.7263 230.358 26.3394 230.374 23.8705 231.703C20.9916 233.253 6.33839 228.865 1.97362 236.987M31.1112 230.516C33.5504 230.55 36.2154 232.297 37.1649 235.739C39.5389 235.882 46.4631 239.478 49.6284 241.259M46.7796 257.343C49.7709 250.031 49.9252 243.573 49.6284 241.259M46.7796 257.343C44.1682 253.604 27.669 244.642 18.6478 241.021C11.4308 238.125 4.52461 237.125 1.97362 236.987M46.7796 257.343C46.246 258.647 45.4054 259.621 44.3327 260.321M1.97362 236.987C1.65922 237.572 1.3982 238.222 1.19881 238.944C1.04607 239.64 0.983915 240.311 1.00351 240.961M1.00351 240.961C1.18946 247.123 8.7397 251.281 16.0956 255.147C23.0662 258.81 37.8883 264.524 44.3327 260.321M1.00351 240.961C4.5505 241.218 14.0304 242.921 23.5738 247.669C33.1173 252.417 41.3895 258.082 44.3327 260.321" stroke="#262933" stroke-width="2" stroke-linecap="round" stroke-linejoin="round"/>
<path d="M71.8254 255.028C71.3506 254.672 75.8612 243.158 81.44 227.015C85.9032 214.1 92.2656 201.641 101.682 196.628C100.434 195.658 97.3339 192.497 94.9124 187.607C99.9453 187.796 108.637 192.187 112.354 194.358C122.093 195.055 129.936 202.837 134.899 210.135C141.233 213.433 154.796 234.256 151.948 243.158C137.822 261.32 120.848 259.302 108.978 253.129C106.889 257.497 101.397 268.705 98.9122 273.763C98.7342 274.62 97.2478 274.865 93.6661 274.139C94.2833 272.43 95.2958 270.076 95.7249 269.113C94.8445 268.223 93.856 267.279 92.8582 266.327L92.8352 266.305C87.6124 261.32 72.3002 255.384 71.8254 255.028Z" fill="#262933"/>
<path d="M139.484 218.35C138.486 216.041 136.934 213.129 134.899 210.135M95.7249 269.113C94.8377 268.216 93.8408 267.265 92.8352 266.305C87.6124 261.32 72.3002 255.384 71.8254 255.028C71.3506 254.672 75.8612 243.158 81.44 227.015C85.9032 214.1 92.2656 201.641 101.682 196.628M95.7249 269.113C95.2958 270.076 94.2833 272.43 93.6661 274.139C97.2478 274.865 98.7342 274.62 98.9122 273.763M95.7249 269.113C97.6854 271.094 99.1105 272.809 98.9122 273.763M98.9122 273.763C101.397 268.705 106.889 257.497 108.978 253.129C120.848 259.302 137.822 261.32 151.948 243.158C154.796 234.256 141.233 213.433 134.899 210.135M134.899 210.135C129.936 202.837 122.093 195.055 112.354 194.358M112.354 194.358C111.367 194.287 110.36 194.29 109.334 194.372C106.581 194.586 104.036 195.374 101.682 196.628M112.354 194.358C108.637 192.187 99.9453 187.796 94.9124 187.607C97.3339 192.497 100.434 195.658 101.682 196.628" stroke="#262933" stroke-width="2" stroke-linecap="round" stroke-linejoin="round"/>
<path d="M75.5053 173.362C89.2745 180.199 99.9179 191.8 103.518 196.746C114.32 210.159 92.8355 238.291 84.0517 233.068C77.0247 228.89 68.0668 220.881 64.4663 217.399C63.6354 219.219 60.8103 226.088 56.1573 239.003C53.9732 237.578 35.6222 229.546 26.7197 225.708C28.4607 215.065 33.8892 190.573 41.6759 177.754C49.4626 164.934 67.4733 169.484 75.5053 173.362Z" fill="#262933" stroke="#262933" stroke-width="2" stroke-linecap="round" stroke-linejoin="round"/>
<path d="M96.125 267.874C95.4722 269.397 92.7643 274.875 91.2924 277.344C91.3482 281.192 89.2033 285.983 86.1871 290.831C85.9932 291.143 85.7956 291.455 85.5947 291.767C84.8988 292.848 84.0546 293.736 83.0937 294.415C79.4653 296.98 74.1728 296.558 68.9174 292.241C62.2702 286.781 51.0532 270.816 49.8068 266.899C49.1649 264.881 48.6803 260.769 50.0079 257.256C50.4946 255.968 51.2248 254.76 52.2802 253.766C53.9348 252.206 56.3886 251.171 59.9557 251.171C66.7741 251.171 72.7182 254.536 77.2607 258.263C83.3693 259.069 92.3821 265.006 96.125 267.874Z" fill="white"/>
<path d="M91.2924 277.344C92.7643 274.875 95.4722 269.397 96.125 267.874C92.3821 265.006 83.3693 259.069 77.2607 258.263M91.2924 277.344C90.4219 275.089 87.9451 269.688 85.0013 266.127C83.4041 264.195 80.7446 261.122 77.2607 258.263M91.2924 277.344C91.3482 281.192 89.2033 285.983 86.1871 290.831M50.0079 257.256C48.6803 260.769 49.1649 264.881 49.8068 266.899C51.0532 270.816 62.2702 286.781 68.9174 292.241C74.1728 296.558 79.4653 296.98 83.0937 294.415M50.0079 257.256C52.3742 257.384 58.2463 258.91 62.8044 263.991C68.502 270.341 80.4147 287.628 83.0937 294.415M50.0079 257.256C50.4946 255.968 51.2248 254.76 52.2802 253.766M83.0937 294.415C84.0546 293.736 84.8988 292.848 85.5947 291.767C85.7956 291.455 85.9932 291.143 86.1871 290.831M52.2802 253.766C53.9348 252.206 56.3886 251.171 59.9557 251.171C66.7741 251.171 72.7182 254.536 77.2607 258.263M52.2802 253.766C54.9771 254.108 61.7005 256.192 67.0182 261.795C73.6654 268.798 84.2275 286.987 86.1871 290.831" stroke="#262933" stroke-width="2" stroke-linecap="round" stroke-linejoin="round"/>
<path d="M73.0032 203.662C72.5341 203.428 71.9635 203.618 71.729 204.087C70.5201 206.505 70.5601 206.472 68.8524 210.066C67.1563 213.635 65.3361 217.45 64.7925 219.032L66.4394 220.552C66.483 220.366 66.6255 219.845 66.8475 219.251C67.3485 217.794 68.8546 214.485 70.567 210.881C72.268 207.301 72.2232 207.346 73.4279 204.936C73.6624 204.467 73.4722 203.897 73.0032 203.662Z" fill="white"/>
<path d="M123.416 229.644C122.967 229.373 122.383 229.517 122.112 229.966C119.108 234.946 112.011 247.389 109.412 254.416C109.872 254.639 110.874 255.134 111.278 255.277C111.444 254.837 111.55 254.515 111.59 254.408C114.118 247.571 120.728 235.938 123.739 230.948C124.009 230.498 123.865 229.915 123.416 229.644Z" fill="white"/>
<path d="M109.448 194.341C109.399 193.819 108.936 193.436 108.414 193.486C105.749 193.74 99.7278 195.434 94.8039 199.963C93.5288 201.136 92.0591 203.059 90.5372 205.346C89.0045 207.649 87.3808 210.381 85.8031 213.22C82.6486 218.896 79.6515 225.044 77.8966 229.132L77.5674 229.818L79.0734 230.924C80.8003 226.901 84.3364 219.769 87.463 214.143C89.0259 211.33 90.622 208.645 92.1174 206.397C93.6233 204.134 94.9904 202.373 96.0892 201.362C100.661 197.156 106.273 195.597 108.593 195.376C109.116 195.326 109.498 194.863 109.448 194.341Z" fill="white"/>
<path d="M272.725 210.812C269.069 210.717 259.965 212.197 255.869 212.949L250.943 228.083C254.366 230.773 262.422 236.416 267.265 237.46C273.318 238.766 274.387 233.721 271.597 232.059C269.366 230.73 267.7 229.052 267.146 228.38C270.529 228.38 278.244 228.237 282.043 227.667C286.791 226.955 287.8 224.106 286.197 222.326C287.622 220.842 288.274 219.24 285.722 217.34C284.963 214.587 283.151 213.621 282.339 213.483C280.658 212.632 276.381 210.907 272.725 210.812Z" fill="white"/>
<path d="M282.339 213.483C280.658 212.632 276.381 210.907 272.725 210.812C269.069 210.717 259.965 212.197 255.869 212.949L250.943 228.083C254.366 230.773 262.422 236.416 267.265 237.46C273.318 238.766 274.387 233.721 271.597 232.059C269.366 230.73 267.7 229.052 267.146 228.38C270.529 228.38 278.244 228.237 282.043 227.667C286.791 226.955 287.8 224.106 286.197 222.326M282.339 213.483C283.151 213.621 284.963 214.587 285.722 217.34M282.339 213.483C279.847 213.364 274.458 213.15 272.843 213.245M285.722 217.34C288.274 219.24 287.622 220.842 286.197 222.326M285.722 217.34C282.834 217.004 276.274 216.415 273.14 216.747M286.197 222.326C283.151 221.633 276.215 220.379 272.843 220.901" stroke="#262933" stroke-width="2" stroke-linecap="round" stroke-linejoin="round"/>
<path d="M88.9375 11.1052C95.4098 7.37175 102.398 7.09719 108.054 10.4948C112.306 13.0488 115.225 17.2851 116.782 22.9717C117.771 26.5816 118.197 30.7792 118.079 35.4746C126.211 39.8757 129.736 44.0656 131.908 47.3611L131.986 47.4792C132.102 47.6551 132.212 47.8409 132.313 48.0301L132.313 48.031L132.377 48.1488L132.61 48.5978C134.96 53.2323 135.438 57.8845 133.923 62.3789C132.566 66.4023 129.697 69.8179 125.686 72.3059L125.294 72.5442C125.251 72.5699 125.178 72.6119 125.12 72.6462C125.09 72.6636 125.063 72.6804 125.043 72.692C125.033 72.6978 125.025 72.7019 125.019 72.7052C125.016 72.7067 125.014 72.708 125.013 72.7088L125.011 72.7102L125.007 72.7124C118.678 76.3623 110.54 77.3484 105.265 77.5802C101.202 84.1068 96.6924 88.9184 91.799 91.8272C91.7032 91.8841 91.6071 91.9406 91.5134 91.9949L91.5117 91.9963C85.0417 95.7287 78.054 96.003 72.3976 92.605C68.1471 90.0512 65.2283 85.8172 63.6701 80.1351C62.6817 76.5304 62.2531 72.3387 62.3688 67.6494C58.7528 65.6869 55.6688 63.5469 53.1845 61.2552C48.3862 56.8292 45.798 51.8732 45.6912 46.5216C45.5616 40.0035 49.2088 34.1358 55.5018 30.3951L55.507 30.3918L55.7741 30.2348L55.7803 30.2312C60.7899 27.3416 67.3212 25.791 75.1767 25.5323C79.2395 19.0009 83.7536 14.1851 88.6537 11.2724C88.7477 11.2166 88.8428 11.1609 88.9377 11.1061L88.9375 11.1052Z" fill="white" stroke="#262933" stroke-width="2"/>
<path d="M92.2258 16.906C96.5625 14.4045 100.79 14.269 104.22 16.3294C106.937 17.962 108.937 20.8429 110.085 25.037C111.109 28.775 111.421 33.4524 110.979 38.9786L110.925 39.6593L111.523 39.9444C120.114 44.0332 123.642 47.7948 125.651 50.6786L126.033 51.2437L126.109 51.3582L126.109 51.3592C126.119 51.3742 126.129 51.3895 126.137 51.4054L126.202 51.527C127.946 54.7986 128.278 57.812 127.356 60.548C126.526 63.0098 124.738 65.1167 121.924 66.7892C121.858 66.8282 121.793 66.8668 121.726 66.9054L121.721 66.9087C116.483 69.9297 108.357 70.9469 101.997 70.8522L101.394 70.8433L101.092 71.3859C97.0936 78.5842 92.6425 83.6432 88.2238 86.1931C83.8892 88.6935 79.6637 88.8292 76.2338 86.7687C73.516 85.136 71.5157 82.2572 70.3666 78.0667C69.3426 74.3327 69.0299 69.6606 69.4703 64.1418L69.5245 63.4601L68.924 63.1755C64.3998 61.0336 60.7589 58.6853 58.0668 56.202C54.5485 52.9567 52.7965 49.645 52.6292 46.3616L52.618 46.0442C52.542 42.2214 54.5989 38.7596 58.6704 36.2689L59.0706 36.0315C63.4974 33.4779 70.1445 32.1492 78.4285 32.2883L79.0332 32.2988L79.3347 31.7544C83.2119 24.761 87.5192 19.7818 91.8108 17.1531L92.2258 16.906Z" fill="#262933" stroke="#262933" stroke-width="2"/>
<path d="M90.5714 36.8959C92.4073 35.7595 94.805 35.7307 97.2944 36.828C99.7765 37.922 102.236 40.0995 104.027 43.134C105.818 46.1688 106.558 49.4111 106.351 52.1704C106.142 54.9378 105.003 57.0979 103.167 58.2344C101.331 59.3709 98.9339 59.4003 96.4445 58.3032C93.9622 57.2091 91.5021 55.0316 89.7108 51.9968C87.9195 48.9622 87.1806 45.72 87.3882 42.9607C87.5966 40.1932 88.7356 38.0324 90.5714 36.8959Z" fill="white" stroke="#262933" stroke-width="2"/>
<path d="M89.6926 35.6943C92.0558 34.3013 95.0509 34.1934 98.1856 35.5664C101.107 36.8461 103.776 39.2741 105.669 42.4296C107.563 45.5866 108.432 49.0564 108.173 52.1809C107.897 55.5132 106.403 58.0345 104.061 59.423L104.06 59.4232C104.054 59.4264 104.052 59.4278 104.051 59.4285L104.044 59.4324C101.681 60.8254 98.6856 60.9342 95.551 59.5613C92.6293 58.2816 89.9599 55.8528 88.0671 52.6971C86.1733 49.5401 85.3056 46.0701 85.5642 42.9456C85.8399 39.6137 87.334 37.0931 89.6759 35.7047L89.6767 35.7035C89.6816 35.7006 89.6837 35.7 89.6847 35.6994L89.6926 35.6943ZM97.7966 36.7423C95.3057 35.5501 92.5619 35.2785 90.3402 36.5879L90.3384 36.5884L90.3279 36.5952C88.094 37.9193 87.0078 40.4773 86.875 43.2512C86.7415 46.0405 87.5481 49.2117 89.276 52.0924C91.0061 54.9765 93.4266 57.1814 95.9398 58.3844C98.4306 59.5767 101.175 59.8491 103.396 58.5398L103.398 58.5383L103.409 58.5325L103.41 58.5323C105.463 57.3149 106.618 55.0113 106.845 52.2671C107.095 49.2455 106.223 45.973 104.46 43.0343C102.73 40.1502 100.31 37.9453 97.7966 36.7423Z" fill="#262933" stroke="#262933" stroke-width="2"/>
<path d="M96.2875 41.0775C97.1463 40.5718 98.3167 40.5437 99.5948 41.1061C100.865 41.6649 102.139 42.7726 103.068 44.321C103.997 45.8706 104.361 47.4947 104.252 48.8373C104.143 50.1783 103.581 51.1507 102.736 51.6484C101.905 52.1378 100.783 52.1792 99.5501 51.67C99.4952 51.6473 99.4635 51.6142 99.4462 51.5841C99.4288 51.5537 99.4213 51.518 99.4264 51.4773L99.736 49.0193C99.9135 47.6096 98.8005 46.5625 97.5146 46.5928L95.3791 46.6435C95.1828 46.6481 95.1087 46.5393 95.097 46.5021C94.2924 43.9296 94.9621 41.8579 96.2875 41.0775Z" fill="#262933" stroke="#262933" stroke-width="2"/>
<path d="M77.3063 44.9017C79.1421 43.7653 81.5398 43.7366 84.0293 44.8338C86.5114 45.9279 88.9705 48.1053 90.7617 51.1399C92.553 54.1746 93.2933 57.4169 93.0855 60.1763C92.8772 62.9436 91.7376 65.1037 89.9019 66.2403C88.0661 67.3768 85.6688 67.4061 83.1793 66.309C80.6971 65.2149 78.2369 63.0374 76.4456 60.0027C74.6544 56.968 73.9154 53.7258 74.1231 50.9665C74.3314 48.199 75.4704 46.0382 77.3063 44.9017Z" fill="white" stroke="#262933" stroke-width="2"/>
<path d="M76.428 43.7004C78.7912 42.3074 81.7863 42.1995 84.921 43.5725C87.8424 44.8522 90.5118 47.2802 92.4046 50.4357L92.4048 50.4366C94.2983 53.5935 95.1669 57.0627 94.9085 60.187C94.6328 63.5192 93.1382 66.0407 90.796 67.429L90.7951 67.4293C90.7896 67.4325 90.7875 67.4339 90.7862 67.4346L90.7791 67.4385C88.4159 68.8315 85.421 68.9403 82.2863 67.5673C79.3646 66.2877 76.6953 63.8589 74.8024 60.7032C72.9087 57.5461 72.041 54.0762 72.2996 50.9517C72.5754 47.6197 74.0693 45.0992 76.4113 43.7108L76.412 43.7096C76.4171 43.7066 76.4192 43.706 76.4201 43.7055L76.428 43.7004ZM84.5319 44.7484C82.0411 43.5561 79.2972 43.2845 77.0756 44.594L77.0737 44.5945L77.0632 44.6013C74.8293 45.9254 73.7431 48.4834 73.6104 51.2573C73.4769 54.0466 74.2835 57.2178 76.0114 60.0985C77.7414 62.9826 80.1619 65.1875 82.6751 66.3905C85.1659 67.5827 87.9101 67.8552 90.1317 66.5458L90.1334 66.5444L90.1441 66.5386L90.145 66.5383C92.1987 65.3209 93.3533 63.0173 93.5804 60.2732C93.8303 57.2516 92.9584 53.979 91.1957 51.0404C89.4656 48.1563 87.0452 45.9514 84.5319 44.7484Z" fill="#262933" stroke="#262933" stroke-width="2"/>
<path d="M83.6318 48.7122C84.4905 48.2066 85.6609 48.1785 86.9391 48.7408C88.209 49.2996 89.483 50.4074 90.4118 51.9558C91.3413 53.5053 91.7051 55.1294 91.5959 56.4721C91.4868 57.8131 90.9255 58.7855 90.0805 59.2832C89.2494 59.7725 88.1275 59.814 86.8944 59.3047C86.8394 59.282 86.8077 59.249 86.7904 59.2189C86.7731 59.1885 86.7655 59.1527 86.7706 59.1121L87.0802 56.6541C87.2578 55.2444 86.1447 54.1973 84.8589 54.2276L82.7233 54.2782C82.527 54.2828 82.4529 54.1741 82.4413 54.1369C81.6366 51.5644 82.3063 49.4927 83.6318 48.7122Z" fill="#262933" stroke="#262933" stroke-width="2"/>
<path d="M101.678 70.9824C105.334 70.1278 109.709 75.0514 111.688 77.9991C112.35 77.9101 114.166 77.4565 115.875 77.1241C117.727 80.2341 116.328 89.025 115.18 92.5564L115.121 95.1974L102.984 98.5507L97.7315 100.213L97.3457 97.6901C96.2972 96.6812 93.1923 93.4448 92.8125 92.1866C98.249 89.1004 102.589 83.3934 104.062 80.8116C104.003 80.4555 104.515 80.1462 103.518 79.0542L103.508 79.0429C102.244 77.6583 97.1208 72.0478 101.678 70.9824Z" fill="white"/>
<path d="M115.27 95.1991C115.052 94.4275 114.771 92.4927 115.388 90.9258C116.16 88.9673 118.474 82.5575 115.744 77.2159" stroke="#262933" stroke-width="2" stroke-linecap="round" stroke-linejoin="round"/>
<path d="M113.014 79.8858C111.649 77.5514 107.922 72.562 103.934 71.28C98.9483 69.6776 98.7702 74.5443 101.856 77.4524C104.325 79.779 105.813 82.3786 106.248 83.3877C104.606 84.1394 101.821 87.0911 103.815 92.8837" stroke="#262933" stroke-width="2" stroke-linecap="round" stroke-linejoin="round"/>
<path d="M92.625 91.7491C93.0009 92.9361 95.0784 96.6823 97.4049 97.6319C97.5474 98.8189 97.7017 100.303 97.761 100.896" stroke="#262933" stroke-width="2" stroke-linecap="round" stroke-linejoin="round"/>
<path d="M93.7847 103.923C99.6722 98.415 112.064 95.6137 117.525 94.9015C118.632 99.1747 121.747 113.279 131.769 132.411C137.67 143.678 148.675 153.833 159.472 161.593C167.786 167.567 175.977 172.121 181.623 174.668L256.047 210.516C255.77 215.501 253.839 226.944 248.332 232.831C239.501 232.357 202.078 221.634 184.471 216.332C177.587 223.968 161.586 241.639 152.66 251.23C151.789 251.903 149.698 253.034 144 251.23C145.749 249.934 149.823 246.42 152.124 242.733C147.041 204.291 107.265 190.776 94.7343 186.894C98.7701 179.06 105.061 181.671 108.266 179.535C110.83 177.826 115.823 173.679 117.999 171.819C108.741 161.849 95.9213 132.648 93.7847 103.923Z" fill="white"/>
<path d="M117.999 171.819C108.741 161.849 95.9213 132.648 93.7847 103.923C99.6722 98.415 112.064 95.6137 117.525 94.9015C118.632 99.1747 121.747 113.279 131.769 132.411C137.67 143.678 148.675 153.833 159.472 161.593M117.999 171.819C115.823 173.679 110.83 177.826 108.266 179.535C105.061 181.671 98.7701 179.06 94.7343 186.894C107.265 190.776 147.041 204.291 152.124 242.733M117.999 171.819L127.97 163.629M152.66 251.23C161.586 241.639 177.587 223.968 184.471 216.332M152.66 251.23C151.789 251.903 149.698 253.034 144 251.23C145.749 249.934 149.823 246.42 152.124 242.733M152.66 251.23C152.668 248.27 152.482 245.44 152.124 242.733M184.471 216.332C202.078 221.634 239.501 232.357 248.332 232.831C253.839 226.944 255.77 215.501 256.047 210.516L181.623 174.668M184.471 216.332C184.155 216.055 182.501 215.549 178.418 215.739M181.623 174.668C175.977 172.121 167.786 167.567 159.472 161.593M181.623 174.668C176.993 180.366 169.396 183.096 160.494 177.517C153.372 173.054 156.845 165.041 159.472 161.593" stroke="#262933" stroke-width="2" stroke-linecap="round" stroke-linejoin="round"/>
<path d="M167.972 95.6131C157.622 100.931 157.408 113.26 158.595 118.76C174.58 136.446 210.134 170.584 224.473 165.646C242.397 159.474 255.098 135.971 244.178 123.033C248.926 96.4438 225.502 88.0558 213.197 87.1854C221.743 66.2941 186.846 58.8158 176.4 66.7689C165.954 74.7221 164.767 82.5561 167.972 95.6131Z" fill="#262933" stroke="#262933" stroke-width="2" stroke-linecap="round" stroke-linejoin="round"/>
<path d="M227.203 128.493C229.735 127.623 236.343 127.116 242.515 132.054" stroke="white" stroke-width="2" stroke-linecap="round" stroke-linejoin="round"/>
<path d="M226.372 134.428C229.34 133.953 236.177 133.953 239.785 137.751" stroke="white" stroke-width="2" stroke-linecap="round" stroke-linejoin="round"/>
<path d="M225.067 139.769C227.203 139.215 232.616 139.246 237.174 143.805" stroke="white" stroke-width="2" stroke-linecap="round" stroke-linejoin="round"/>
<path d="M180.198 71.3976C176.518 75.5125 171.034 86.8999 178.536 99.5296" stroke="white" stroke-width="2" stroke-linecap="round" stroke-linejoin="round"/>
<path d="M187.439 70.6866C183.205 75.6325 176.779 88.9665 184.946 102.736" stroke="white" stroke-width="2" stroke-linecap="round" stroke-linejoin="round"/>
<path d="M194.561 72.2277C190.248 76.9361 183.712 89.8903 192.068 104.039" stroke="white" stroke-width="2" stroke-linecap="round" stroke-linejoin="round"/>
<path d="M196.342 81.3663C194.68 86.1539 193.208 97.9132 200.615 106.65" stroke="white" stroke-width="2" stroke-linecap="round" stroke-linejoin="round"/>
<path d="M203.819 89.2023C202.949 94.069 204.009 104.918 215.214 109.381" stroke="white" stroke-width="2" stroke-linecap="round" stroke-linejoin="round"/>
<path d="M161.444 114.368C163.343 109.05 169.515 103.289 172.364 101.073C175.371 103.764 182.715 109.62 188.032 111.519C194.68 113.893 199.428 111.994 210.348 116.742C227.441 123.864 218.42 140.957 215.096 145.23C211.772 149.503 207.974 154.251 210.348 157.1C212.722 159.949 217.47 155.201 221.743 159.949C226.016 164.697 225.067 172.294 219.369 175.617C213.672 178.941 207.974 178.466 200.377 172.294C185.184 178.466 167.141 173.718 156.696 163.272C146.25 152.827 143.876 139.532 147.2 130.036C150.523 120.54 159.07 121.015 161.444 114.368Z" fill="white"/>
<path d="M207.262 168.851C207.944 167.676 209.701 166.061 212.609 165.563M220.2 166.596C217.117 165.401 214.595 165.222 212.609 165.563M212.609 165.563C212.845 166.778 214.123 169.516 217.351 170.75M172.364 101.073C169.515 103.289 163.343 109.05 161.444 114.368C159.07 121.015 150.523 120.54 147.2 130.036C143.876 139.532 146.25 152.827 156.696 163.272C167.141 173.718 185.184 178.466 200.377 172.294C207.974 178.466 213.672 178.941 219.369 175.617C225.067 172.294 226.016 164.697 221.743 159.949C217.47 155.201 212.722 159.949 210.348 157.1C207.974 154.251 211.772 149.503 215.096 145.23C218.42 140.957 227.441 123.864 210.348 116.742C199.428 111.994 194.68 113.893 188.032 111.519C182.715 109.62 175.371 103.764 172.364 101.073Z" stroke="#262933" stroke-width="2" stroke-linecap="round" stroke-linejoin="round"/>
<path d="M169.04 112.112C170.267 111.4 173.313 110.308 175.687 111.637C178.061 112.967 178.813 115.673 178.892 116.86" stroke="#262933" stroke-width="2" stroke-linecap="round" stroke-linejoin="round"/>
<path d="M194.086 126.237C195.51 125.643 198.929 125.05 201.208 127.424C203.487 129.798 203.265 132.211 202.87 133.122" stroke="#262933" stroke-width="2" stroke-linecap="round" stroke-linejoin="round"/>
<ellipse cx="2.92443" cy="4.57739" rx="2.92443" ry="4.57739" transform="matrix(0.866974 0.498354 -0.49835 0.866976 168.532 116.859)" fill="#262933"/>
<ellipse cx="2.92444" cy="4.57738" rx="2.92444" ry="4.57738" transform="matrix(0.783408 0.621508 -0.621504 0.783411 192.249 132.196)" fill="#262933"/>
<path d="M178.181 130.868L176.637 132.886C175.807 131.897 173.67 130.299 171.771 131.818C169.397 133.717 169.99 136.803 173.076 137.159" stroke="#262933" stroke-width="2" stroke-linecap="round" stroke-linejoin="round"/>
<path d="M181.622 146.06C177.254 145.3 173.867 144.24 172.72 143.804C171.474 143.448 168.637 142.261 167.26 140.362C165.539 137.988 161.325 138.344 159.96 139.828C158.595 141.312 157.704 142.973 158.832 146.891C159.96 150.808 168.209 162.559 179.486 158.761C190.762 154.962 187.083 147.009 181.622 146.06Z" fill="#262933" stroke="#262933" stroke-width="2" stroke-linecap="round" stroke-linejoin="round"/>
<path d="M171.711 159.058C167.393 157.992 163.719 154.369 162.334 152.707C173.302 148.292 179.842 154.152 181.741 157.634C180.218 158.682 176.519 160.245 171.711 159.058Z" fill="white" stroke="#262933" stroke-width="2" stroke-linecap="round" stroke-linejoin="round"/>
<path d="M164.975 141.165C165.758 140.263 167.319 140.789 168.002 141.165C169.485 142.589 173.403 144.132 175.628 144.756C178.187 145.472 180.762 145.854 182.958 146.447C185.154 147.041 184.976 150.928 181.355 150.691C175.302 150.008 170.168 147.901 167.705 146.032C165.242 144.162 163.996 142.293 164.975 141.165Z" fill="white" stroke="#262933" stroke-width="2" stroke-linecap="round" stroke-linejoin="round"/>
</svg>
