<svg width="227" height="276" viewBox="0 0 227 276" fill="none" xmlns="http://www.w3.org/2000/svg">
<path d="M151.002 256.8C139.237 261.603 126.671 255.511 121.858 251.864C104.425 242.793 115.575 222.381 123.329 213.309C132.731 212.998 153.167 214.91 159.691 225.049C167.846 237.723 165.707 250.797 151.002 256.8Z" fill="white" stroke="#262933" stroke-width="2" stroke-linecap="round"/>
<path d="M124.164 241.696C121.223 237.64 115.775 233.224 113.603 230.656L97.6605 218.016C77.4738 220.061 35.7367 223.712 30.2823 221.951C23.4642 219.75 19.2531 224.619 17.7157 226.954C16.1783 229.289 9.96187 232.09 4.74807 235.626C-0.465724 239.161 -0.398881 245.498 5.95125 249.1C11.0314 251.981 22.6844 251.612 27.8759 251.067C33.3571 253.747 47.5279 260.626 60.3619 266.71C76.4043 274.314 90.9762 274.847 96.5911 274.981C102.206 275.114 113.837 274.714 123.863 264.975C131.884 257.184 128.074 246.865 124.164 241.696Z" fill="white" stroke="#262933" stroke-width="2" stroke-linecap="round"/>
<path d="M40.6426 236.493C37.5678 238.605 31.9664 245.071 34.1588 254.036" stroke="#262933" stroke-width="2" stroke-linecap="round"/>
<path d="M32.0866 225.954C29.903 225.665 24.9744 225.887 22.7285 229.089C19.921 233.091 16.3783 234.225 12.5014 236.76C8.62448 239.295 3.00967 241.229 3.94553 247.566" stroke="#262933" stroke-width="2" stroke-linecap="round"/>
<path d="M64.172 253.185C67.1799 255.037 74.4525 258.185 80.2813 263.841" stroke="#262933" stroke-width="2" stroke-linecap="round"/>
<path d="M48.4637 244.326C27.5015 232.587 24.9347 213.998 26.2716 206.172L103.409 194.032C110.584 200.413 126.27 214.43 131.617 219.446C127.606 222.181 121.791 228.784 120.053 231.052C118.315 233.32 117.179 234.321 115.641 232.52C114.104 230.719 107.085 225.049 104.011 223.115C100.936 221.18 91.5109 226.316 82.4202 233.52C73.3295 240.724 68.5836 249.996 67.982 252.531C67.5007 254.559 65.4642 253.776 64.5062 253.131C61.2085 251.397 53.3833 247.208 48.4637 244.326Z" fill="#262933" stroke="#262933" stroke-width="2"/>
<path d="M93.3638 207.88C92.9438 207.521 92.3126 207.57 91.9539 207.99C91.5951 208.41 91.6447 209.042 92.0646 209.4L92.7142 208.64L93.3638 207.88ZM104.178 224.582L105.005 225.144C105.239 224.8 106.126 223.725 106.565 222.556C106.796 221.942 106.946 221.213 106.815 220.445C106.681 219.655 106.266 218.918 105.531 218.287L104.88 219.046L104.228 219.804C104.643 220.161 104.795 220.493 104.844 220.78C104.896 221.089 104.846 221.446 104.693 221.852C104.366 222.724 103.751 223.431 103.351 224.02L104.178 224.582ZM104.88 219.046L105.531 218.287C103.231 216.312 96.4604 210.525 93.3638 207.88L92.7142 208.64L92.0646 209.4C95.1622 212.047 101.93 217.831 104.228 219.804L104.88 219.046Z" fill="white"/>
<path d="M97.5269 212.776C98.5073 211.597 100.802 208.8 102.139 207.039" stroke="white" stroke-width="2" stroke-linecap="round"/>
<path d="M129.278 148.873L125.534 142.67L116.644 148.473C117.87 148.895 120.655 149.98 121.992 150.941C123.663 152.142 125.467 154.81 126.537 156.21C127.606 157.611 130.08 157.278 133.088 157.211C135.494 157.158 138.814 157.011 140.173 156.944L159.959 154.81L173.461 151.608L176.402 149.407L187.164 156.01L185.894 149.674C184.78 148.339 182.445 145.591 182.017 145.271C181.482 144.871 177.405 142.603 177.071 142.603C176.736 142.603 169.651 142.536 169.116 142.536C168.582 142.536 162.165 145.605 161.83 145.605C161.563 145.605 158.51 147.828 157.018 148.94L153.007 149.54L149.397 149.273L139.371 148.806L129.278 148.873Z" fill="white"/>
<path d="M125.2 141.802L129.679 149.273C134.38 149.029 145.2 148.78 150.868 149.74C155.146 150.14 157.753 148.539 160.36 146.472C162.967 144.404 174.664 138.334 182.418 145.671C186.75 150.154 187.565 154.787 187.431 156.544C186.028 157.834 182.338 159.866 178.809 157.678" stroke="#262933" stroke-width="2" stroke-linecap="round" stroke-linejoin="round"/>
<path d="M99.3316 191.364C99.3316 191.364 127.339 177.756 141.176 170.685C155.012 163.615 170.832 153.787 176.67 149.34L226 182.159C224.128 183.893 216.963 190.003 203.273 200.569C189.584 211.135 160.583 227.117 147.793 233.787L99.3316 191.364Z" fill="white" stroke="#262933" stroke-width="2" stroke-linecap="round" stroke-linejoin="round"/>
<path d="M176.269 153.942C174.344 151.808 169.228 149.584 166.911 148.739L156.015 151.741L147.66 151.541L126.938 151.274C125.802 149.206 123.997 144.47 123.73 144.097C123.462 143.723 114.238 149.495 108.623 153.342L108.222 158.078C109.046 159.323 111.564 162.947 115.04 167.483C119.385 173.153 135.695 170.018 142.981 168.55C148.809 167.376 161.808 159.479 167.579 155.677C168.715 157.366 171.91 160.719 175.6 160.613C180.212 160.479 178.675 156.61 176.269 153.942Z" fill="white"/>
<path d="M160.026 160.546C159.246 160.434 157.325 159.879 155.881 158.545" stroke="#262933" stroke-width="2" stroke-linecap="round" stroke-linejoin="round"/>
<path d="M104.211 153.075C107.152 157.611 114.104 167.256 118.382 169.551C123.73 172.419 142.914 170.418 154.143 164.081C160.881 160.452 166.175 157.366 167.98 156.277L172.793 159.345C174.107 160.101 177.044 161.146 178.274 159.278C179.811 156.944 176.803 154.075 174.063 152.341C171.87 150.954 169.406 149.895 168.448 149.539" stroke="#262933" stroke-width="2" stroke-linecap="round" stroke-linejoin="round"/>
<path d="M60.9634 98.4451L63.303 93.1755L105.682 108.384C110.049 112.475 120.601 124.5 127.874 139.868C123.489 144.778 112.945 151.163 108.222 153.743L111.163 191.63C109.069 196.478 88.5164 206.199 23.0632 206.305C23.2771 180.371 24.1849 161.542 24.612 155.369C23.7871 149.239 23.2256 140.363 24.0658 132.397C25.269 120.991 33.4239 110.385 42.3141 104.715C49.4263 100.179 57.7104 98.6453 60.9634 98.4451Z" fill="white"/>
<path d="M54.747 132.998L58.1561 152.942C51.2489 154.743 35.095 158.972 25.7369 161.48C25.374 160.152 24.9684 158.017 24.612 155.369M24.612 155.369C23.7871 149.239 23.2256 140.363 24.0658 132.397C25.269 120.991 33.4239 110.385 42.3141 104.715C49.4263 100.179 57.7104 98.6453 60.9634 98.4451L63.303 93.1755L105.682 108.384C110.049 112.475 120.601 124.5 127.874 139.868C123.489 144.778 112.945 151.163 108.222 153.743L111.163 191.63C109.069 196.478 88.5164 206.199 23.0632 206.305C23.2771 180.371 24.1849 161.542 24.612 155.369Z" stroke="#262933" stroke-width="2" stroke-linecap="round" stroke-linejoin="round"/>
<path d="M59.0251 99.0455C59.2702 102.981 62.3406 111.626 73.1959 116.589C86.7652 122.792 90.3079 112.253 89.9068 108.851" stroke="#262933" stroke-width="2" stroke-linecap="round" stroke-linejoin="round"/>
<path d="M106.417 132.531L108.523 157.711" stroke="#262933" stroke-width="2" stroke-linecap="round" stroke-linejoin="round"/>
<path d="M138.435 43.014C141.216 57.5288 133.8 62.2247 129.745 62.7584C97.9812 87.9457 60.4508 73.9646 45.6562 63.8257C43.9628 62.0024 40.6028 55.6077 40.7097 44.6149C40.7097 24.337 48.9983 15.7989 61.2975 12.1968C65.1745 5.12623 76.4042 -2.3446 97.393 2.59149C118.382 7.52757 134.959 24.8706 138.435 43.014Z" fill="#262933" stroke="#262933" stroke-width="2"/>
<path d="M125.467 76.2329C128.302 71.5903 129.099 66.0049 129.612 62.8254C129.834 60.7798 130.257 55.5323 129.478 51.0854C128.698 46.6386 127.473 47.7503 125.969 50.1183C124.465 52.4863 120.889 56.2217 119.351 57.8226C116.443 60.7242 113.87 61.1578 113.034 60.5908C112.199 60.0238 111.898 59.1567 112.633 57.9894C113.369 56.8221 114.004 55.3212 115.976 51.0521C117.947 46.7831 115.508 48.7509 114.538 49.8848C113.569 51.0187 111.531 53.0528 110.829 53.7534L110.829 53.7536C105.147 59.4902 98.1952 61.4913 95.9225 60.5574C93.6498 59.6236 94.5188 58.2228 96.5241 53.3534C98.5294 48.484 94.3182 51.0188 92.9145 52.2862C91.5108 53.5536 89.6392 55.3546 87.6339 56.8888C81.4843 62.2918 75.8694 59.9571 76.4042 57.0889C76.8987 54.4364 74.8668 53.5536 73.062 55.021C71.2572 56.4885 68.2493 59.5569 66.4445 64.6931C64.6397 69.8293 62.7013 71.0967 60.8965 64.2929C59.0917 57.4891 47.7952 55.1544 46.3245 62.1583C43.0492 77.9672 53.7441 82.6364 59.2922 83.1034C63.1691 99.5792 80.8826 111.919 101.136 108.584C121.39 105.249 122.727 90.5742 122.727 88.2396C122.727 85.9049 121.925 82.0361 125.467 76.2329Z" fill="white" stroke="#262933" stroke-width="2" stroke-linejoin="round"/>
<path d="M52.1406 64.6934C53.4997 65.2938 56.3517 68.082 56.8865 74.4322" stroke="#262933" stroke-width="2" stroke-linecap="round"/>
<path d="M56.0842 70.5295C55.0927 70.0959 53.0829 69.9025 51.9065 71.3967" stroke="#262933" stroke-width="2" stroke-linecap="round"/>
<path d="M89.492 66.3706L98.8045 71.9215" stroke="#262933" stroke-width="2" stroke-linecap="round" stroke-linejoin="round"/>
<path d="M113.305 72.4203L121.305 68.99" stroke="#262933" stroke-width="2" stroke-linecap="round" stroke-linejoin="round"/>
<ellipse cx="1.99989" cy="2.99389" rx="1.99989" ry="2.99389" transform="matrix(0.98732 0.158745 -0.159394 0.987215 90.4945 76.0416)" fill="#262933"/>
<ellipse cx="1.99989" cy="2.99389" rx="1.99989" ry="2.99389" transform="matrix(0.98732 0.158745 -0.159394 0.987215 113.437 77.2227)" fill="#262933"/>
<path d="M103.867 90.0084L106.18 89.1976" stroke="#262933" stroke-width="2" stroke-linecap="round" stroke-linejoin="round"/>
<path d="M91.1171 94.5614C93.1796 95.3306 97.7296 97.1684 99.4296 98.3659C93.992 101.859 88.5545 99.8628 91.1171 94.5614Z" stroke="#262933" stroke-width="2" stroke-linecap="round" stroke-linejoin="round"/>
<path d="M30.8839 160.146L54.4796 154.076C54.8361 155.499 55.87 159.346 57.1534 163.348C64.5329 164.896 84.2473 171.375 93.182 174.421C94.7417 173.243 99.5723 170.659 106.417 169.752C118.315 167.551 125.267 179.09 127.54 183.093C129.812 187.095 126.47 188.962 124.532 187.695C122.981 186.681 120.634 184.489 119.655 183.519C120.335 185.171 120.769 186.938 120.989 188.829C121.417 192.511 118.583 192.32 117.112 191.764C117.085 192.178 117.016 192.537 116.911 192.831C116.323 194.486 113.681 194.232 112.434 193.899C112.429 194.501 112.264 194.982 111.932 195.299C110.728 196.447 108.2 194.71 107.085 193.698C106.172 192.876 103.81 190.79 101.671 189.029C96.2167 192.658 90.4415 189.874 88.2356 188.029C86.8319 188.006 82.5673 187.962 76.7385 187.962C55.8834 188.095 44.52 184.16 38.504 179.09C33.6913 175.035 31.4186 164.771 30.8839 160.146Z" fill="white"/>
<path d="M106.985 184.793C110.499 188.144 112.452 191.777 112.434 193.899M112.434 193.899C112.429 194.501 112.264 194.982 111.932 195.299C110.728 196.447 108.2 194.71 107.085 193.698C106.172 192.876 103.81 190.79 101.671 189.029C96.2167 192.658 90.4415 189.874 88.2356 188.029C86.8319 188.006 82.5673 187.962 76.7385 187.962C55.8834 188.095 44.52 184.16 38.504 179.09C33.6913 175.035 31.4186 164.771 30.8839 160.146L54.4796 154.076C54.8361 155.499 55.87 159.346 57.1534 163.348C64.5329 164.896 84.2473 171.375 93.182 174.421C94.7417 173.243 99.5723 170.659 106.417 169.752C118.315 167.551 125.267 179.09 127.54 183.093C129.812 187.095 126.47 188.962 124.532 187.695C122.981 186.681 120.634 184.489 119.655 183.519M112.434 193.899C113.681 194.232 116.323 194.486 116.911 192.831C117.016 192.537 117.085 192.178 117.112 191.764M111.363 180.224C115.893 184.744 117.275 189.265 117.112 191.764M117.112 191.764C118.583 192.32 121.417 192.511 120.989 188.829C120.769 186.938 120.335 185.171 119.655 183.519M115.107 177.089C117.194 179.015 118.678 181.149 119.655 183.519" stroke="#262933" stroke-width="2" stroke-linecap="round" stroke-linejoin="round"/>
<path d="M198.093 187.461C196.783 187.675 195.742 188.84 195.386 189.396C195.118 187.795 194.918 186.761 193.146 186.828C191.375 186.894 191.409 189.096 191.442 190.563C189.637 190.063 187.498 190.43 187.298 191.564C187.137 192.471 187.966 192.942 188.401 193.065L190.573 194.032C189.904 194.721 188.835 196.326 189.904 197.234C190.974 198.141 192.935 197.345 193.781 196.833C193.893 197.756 194.523 199.635 196.154 199.768C197.785 199.902 198.327 197.4 198.394 196.133C198.572 196.144 199.323 196.233 200.9 196.5C202.478 196.767 202.983 196.055 203.039 195.666C203.24 194.465 202.237 193.732 200.499 193.165C202.404 191.73 202.07 189.963 201.335 188.795C200.599 187.628 199.129 187.328 198.093 187.461Z" stroke="#262933" stroke-linecap="round" stroke-linejoin="round"/>
<ellipse cx="0.433984" cy="1.00171" rx="0.433984" ry="1.00171" transform="matrix(0.671952 0.740595 -0.741992 0.670409 194.333 190.704)" fill="#262933"/>
<ellipse cx="0.433984" cy="1.00171" rx="0.433984" ry="1.00171" transform="matrix(0.671952 0.740595 -0.741992 0.670409 197.408 193.606)" fill="#262933"/>
<path d="M195.52 193.198C195.063 193.142 194.189 193.245 194.35 194.098" stroke="#262933" stroke-linecap="round" stroke-linejoin="round"/>
<path d="M171.49 159.412C170.253 161.68 168.816 167.517 174.932 169.951C181.048 172.386 184.958 168.15 185.995 165.149C188.802 165.549 189.671 163.581 188.668 162.747C187.866 162.08 186.373 161.914 185.727 161.914C185.972 161.113 186.215 159.292 185.226 158.412C183.989 157.311 182.686 157.578 181.082 158.412C180.731 157.849 180.088 157.265 179.22 156.857" stroke="#262933" stroke-linecap="round" stroke-linejoin="round"/>
<path d="M181.816 164.882C181.928 165.416 181.917 166.517 180.981 166.65" stroke="#262933" stroke-linecap="round"/>
<path d="M175.932 160.295C175.386 160.321 174.321 160.606 174.425 161.544" stroke="#262933" stroke-linecap="round"/>
<ellipse cx="177.973" cy="163.415" rx="0.902388" ry="0.900502" fill="#262933"/>
<path d="M179.26 180.357C179.648 179.37 181.048 178.667 181.7 178.44L188.752 183.793L185.861 186.227L179.778 190.88C177.316 189.373 172.415 186.074 172.509 184.926C172.626 183.492 173.545 183.793 174.096 183.993C174.537 184.153 175.327 183.781 175.667 183.576L176.753 181.591C177.427 181.591 178.872 181.344 179.26 180.357Z" fill="#E8D06F"/>
<path d="M169.158 180.828L176.63 175.365C176.99 175.102 177.48 175.109 177.833 175.382L180.946 177.792L187.855 183.141C188.37 183.54 188.372 184.316 187.861 184.718L180.375 190.601C180.006 190.891 179.486 190.886 179.124 190.589L169.115 182.41C168.608 181.996 168.629 181.214 169.158 180.828Z" stroke="#262933" stroke-linecap="round" stroke-linejoin="round"/>
<path d="M180.112 179.34C179.823 179.462 179.233 179.9 179.193 180.674C179.143 181.641 178.191 181.741 177.288 181.575C176.386 181.408 176.325 182.131 176.068 183.075C175.801 184.059 174.681 184.193 173.745 183.909" stroke="#262933" stroke-linecap="round" stroke-linejoin="round"/>
<path d="M153.108 174.104L151.035 175.888C148.713 174.637 146.858 173.903 146.223 174.304C145.715 174.624 145.81 175.482 145.922 175.871C146.067 176.21 146.53 177.195 147.225 178.423C145.939 179.59 144.836 180.891 145.136 181.358C145.377 181.731 145.916 181.78 146.156 181.758L150.166 181.725C150.891 182.886 152.569 185.246 153.492 185.393C154.414 185.54 154.79 184.343 154.862 183.726L155.196 181.441C156.639 181.541 159.568 181.531 159.742 180.691C159.916 179.85 159.157 179.34 158.756 179.19L155.547 177.556C155.659 176.427 155.711 174.06 155.029 173.62C154.348 173.18 153.464 173.759 153.108 174.104Z" fill="#E8D475" stroke="#262933" stroke-linejoin="round"/>
<path d="M199.948 169.868L197.307 170.886C196.121 169.151 194.868 167.884 193.882 168.051C193.093 168.184 192.885 169.318 192.879 169.868C192.868 170.241 192.839 171.222 192.812 172.17C189.47 172.92 188.935 174.121 188.985 174.754C189.026 175.261 190.061 175.566 190.573 175.655C191.024 175.727 192.261 175.935 193.598 176.188C193.665 177.973 193.915 179.64 194.818 179.857C195.539 180.031 196.032 179.652 196.188 179.44C196.472 179.029 197.191 177.973 197.792 177.039C199.68 177.639 202.337 177.656 202.855 177.006C203.27 176.485 202.972 175.955 202.772 175.755C202.354 175.399 201.341 174.494 200.633 173.72C201.552 172.653 202.571 170.886 201.953 170.052C201.458 169.385 200.41 169.652 199.948 169.868Z" fill="#E9D070" stroke="#262933" stroke-linejoin="round"/>
<path d="M207.368 178.173L207.05 180.841C203.591 180.841 202.622 181.208 202.404 181.975C202.231 182.589 202.945 183.087 203.324 183.259C203.925 183.57 205.332 184.299 206.148 184.726C205.379 186.844 205.613 188.378 206.499 188.929C207.207 189.369 208.298 188.634 208.755 188.212C209.167 187.773 210.118 186.761 210.626 186.227C212.097 187.278 214.269 187.995 214.988 187.161C215.563 186.494 215.127 185.605 214.837 185.243L213.751 183.609C214.637 182.731 216.338 180.831 216.057 180.257C215.777 179.684 215.083 179.674 214.771 179.74L211.345 180.024C210.704 178.929 209.219 176.749 208.404 176.789C207.588 176.829 207.373 177.728 207.368 178.173Z" fill="#CE4152" stroke="#262933" stroke-linejoin="round"/>
<path d="M161.647 167L160.878 168.301C158.171 167.567 157.352 167.734 156.901 168.351C156.54 168.844 157.118 169.601 157.452 169.918C157.753 170.224 158.328 170.725 158.889 171.286C157.569 172.52 157.536 173.654 158.221 174.404C158.769 175.004 159.697 174.676 160.093 174.437C160.577 174.215 161.389 173.867 162.031 173.587C163.084 174.871 164.755 175.505 165.657 175.238C166.379 175.024 166.326 174.237 166.209 173.87L165.841 172.22C166.693 171.858 168.388 170.956 168.348 170.235C168.308 169.515 167.573 169.201 167.211 169.135C166.805 169.062 165.781 168.881 164.939 168.734C164.621 167.484 163.953 166.2 163.034 166.1C162.298 166.019 161.803 166.666 161.647 167Z" fill="#5599DD" stroke="#262933" stroke-linejoin="round"/>
<path d="M180.162 198.534L179.444 200.869C176.553 199.952 175.065 200.435 174.881 201.369C174.734 202.116 175.399 202.792 175.75 203.037C176.179 203.298 177.291 203.984 178.307 204.638C177.605 205.922 176.82 207.556 178.04 208.24C179.016 208.787 180.396 208.167 180.964 207.789C181.276 207.573 182.131 206.969 183.053 206.288C184.474 207.506 186.496 208.39 187.365 207.823C188.06 207.369 187.766 206.433 187.532 206.022C187.409 205.822 186.997 205.148 186.328 204.054C188.401 202.586 189.253 201.369 189.186 200.685C189.133 200.138 188.05 200.068 187.515 200.102C186.924 200.102 185.5 200.108 184.524 200.135C183.705 198.751 182.819 197.033 181.666 197.033C180.744 197.033 180.279 198.034 180.162 198.534Z" fill="#5599DD" stroke="#262933" stroke-linejoin="round"/>
<path d="M133.344 200.349L126.739 194.568C126.418 194.287 125.954 194.241 125.584 194.453L118.742 198.369C118.162 198.701 118.065 199.498 118.548 199.96L125.039 206.168C125.37 206.484 125.873 206.536 126.26 206.294L133.215 201.949C133.784 201.594 133.849 200.79 133.344 200.349Z" fill="#5599DD" stroke="#262933" stroke-linejoin="round"/>
<ellipse cx="3.53932" cy="6.11339" rx="3.53932" ry="6.11339" transform="matrix(0.707611 -0.706602 0.70808 0.706132 130.031 211.393)" fill="#EAD26F" stroke="#262933"/>
<ellipse cx="3.53932" cy="6.11339" rx="3.53932" ry="6.11339" transform="matrix(0.707611 -0.706602 0.70808 0.706132 139.389 205.723)" fill="#64A962" stroke="#262933"/>
<ellipse cx="4.42501" cy="7.51292" rx="4.42501" ry="7.51292" transform="matrix(0.408068 0.912952 -0.913586 0.406646 157.177 214.601)" fill="#64A962" stroke="#262933"/>
<path d="M167.746 207.673C169.725 208.393 169.44 210.152 169.05 210.941C172.191 209.741 174.431 213.776 171.957 215.811C169.484 217.845 163.134 217.078 161.396 216.544C161.129 210.574 165.273 206.772 167.746 207.673Z" fill="#D34656" stroke="#262933" stroke-linejoin="round"/>
<path d="M150.4 199.835C151.015 198.394 153.464 198.568 154.611 198.834C153.742 196.266 155.915 194.599 158.087 196.333C160.259 198.067 160.961 200.335 160.66 205.471C151.703 204.904 149.631 201.636 150.4 199.835Z" fill="#D34656" stroke="#262933" stroke-linejoin="round"/>
<path d="M168.047 188.462C166.79 188.289 165.891 189.596 165.49 190.346C164.849 189.779 162.883 189.513 162.365 190.563C161.847 191.614 162.014 192.197 163.702 193.398C162.632 193.665 162.031 194.899 162.465 195.733C162.9 196.566 164.304 197.434 166.242 196.667C166.142 197.367 166.86 198.684 167.997 198.768C169.133 198.851 170.303 198.067 170.336 196.617C171.205 197.234 173.411 197.033 173.712 195.816C173.952 194.842 172.91 193.998 172.358 193.698C172.904 193.298 173.852 192.264 173.277 191.33C172.702 190.396 171.099 190.519 170.37 190.697C170.119 190.024 169.303 188.635 168.047 188.462Z" fill="#63AA61" stroke="#262933" stroke-linejoin="round"/>
<ellipse cx="137.215" cy="187.278" rx="5.02997" ry="5.01947" fill="#F5DF4D" stroke="#262933"/>
<path d="M134.976 187.578C135.054 188.101 135.581 189.196 137.065 189.396" stroke="#262933" stroke-linecap="round" stroke-linejoin="round"/>
<path d="M137.533 184.777L136.614 185.961" stroke="#262933" stroke-linecap="round" stroke-linejoin="round"/>
<path d="M139.505 186.511L138.218 187.578" stroke="#262933" stroke-linecap="round" stroke-linejoin="round"/>
<ellipse cx="1.01898" cy="1.13439" rx="1.01898" ry="1.13439" transform="matrix(0.906646 0.421893 -0.423345 0.905969 139.739 180.105)" fill="#F5DF4D" stroke="#262933"/>
<ellipse cx="1.01898" cy="1.13439" rx="1.01898" ry="1.13439" transform="matrix(0.906646 0.421893 -0.423345 0.905969 134.273 191.803)" fill="#F5DF4D" stroke="#262933"/>
<ellipse cx="1.01748" cy="1.13607" rx="1.01748" ry="1.13607" transform="matrix(0.338515 0.940961 -0.94141 0.337263 144.261 183.89)" fill="#F5DF4D" stroke="#262933"/>
<ellipse cx="1.01748" cy="1.13607" rx="1.01748" ry="1.13607" transform="matrix(0.338515 0.940961 -0.94141 0.337263 132.088 188.252)" fill="#F5DF4D" stroke="#262933"/>
<ellipse cx="1.01763" cy="1.1359" rx="1.01763" ry="1.1359" transform="matrix(-0.431298 0.902209 -0.902909 -0.429831 144.751 189.76)" fill="#F5DF4D" stroke="#262933"/>
<ellipse cx="1.01763" cy="1.1359" rx="1.01763" ry="1.1359" transform="matrix(-0.431298 0.902209 -0.902909 -0.429831 133.077 184.203)" fill="#F5DF4D" stroke="#262933"/>
<ellipse cx="1.01913" cy="1.13422" rx="1.01913" ry="1.13422" transform="matrix(-0.944332 0.328993 -0.330222 -0.943903 140.918 194.24)" fill="#F5DF4D" stroke="#262933"/>
<ellipse cx="1.01913" cy="1.13422" rx="1.01913" ry="1.13422" transform="matrix(-0.944332 0.328993 -0.330222 -0.943903 136.655 182.054)" fill="#F5DF4D" stroke="#262933"/>
</svg>
