<svg width="145" height="262" viewBox="0 0 145 262" fill="none" xmlns="http://www.w3.org/2000/svg">
<path d="M27.4387 217.754C32.3884 220.078 34.7201 223.521 35.2672 224.952L31.3528 242.755C31.1845 243.134 28.8529 245.003 20.8729 249.447C6.4785 257.654 -0.592415 247.301 1.30158 240.23C3.19558 233.159 14.5595 224.447 18.095 221.669C21.6305 218.891 24.9134 216.618 27.4387 217.754Z" fill="white" stroke="#262933" stroke-width="2" stroke-linecap="round" stroke-linejoin="round"/>
<path d="M29.0489 219.08C27.3969 219.669 23.1146 221.984 20.7785 223.847C18.4424 225.709 17.1765 227.575 18.1584 229.75C19.0421 231.707 24.9137 233.916 26.1132 229.055C27.6537 227.54 32.2266 225.372 34.3206 224.478" stroke="#262933" stroke-width="2" stroke-linecap="round" stroke-linejoin="round"/>
<ellipse cx="22.1199" cy="227.871" rx="1.78351" ry="1.78351" fill="#262933"/>
<path d="M19.4837 250.711C18.3999 252.657 15.7272 254.878 13.6438 252.542C11.8761 252.321 11.3079 251.626 10.7083 250.553C9.16151 250.111 8.53005 249.701 8.40392 248.28C6.88872 247.775 6.03629 246.576 6.35209 245.029C5.86669 244.476 5.40433 243.566 5.38813 242.282C5.37355 241.126 5.7207 239.666 6.73849 237.89C7.23665 237.021 7.89548 236.076 8.75118 235.054C10.3712 233.119 12.1014 231.454 13.6673 230.12C20.6669 233.204 26.2389 242.945 26.302 246.544C23.9282 249.322 20.7674 250.479 19.4837 250.711Z" fill="white"/>
<path d="M19.4837 250.711C18.3999 252.657 15.7272 254.878 13.6438 252.542M19.4837 250.711C18.2262 247.235 13.9166 239.805 6.73849 237.89M19.4837 250.711C20.7674 250.479 23.9282 249.322 26.302 246.544C26.2389 242.945 20.6669 233.204 13.6673 230.12M13.6438 252.542C11.8761 252.321 11.3079 251.626 10.7083 250.553M13.6438 252.542C14.3488 251.889 15.5694 250.711 15.9482 250.206M10.7083 250.553C9.16151 250.111 8.53005 249.701 8.40392 248.28M10.7083 250.553C11.4343 250.006 13.0188 248.817 13.5491 248.438M8.40392 248.28C6.88872 247.775 6.03629 246.576 6.35209 245.029M8.40392 248.28C9.29826 247.786 11.2195 246.702 11.7498 246.323M6.35209 245.029C7.12016 244.829 8.89622 244.315 9.85585 243.861M6.35209 245.029C5.86669 244.476 5.40433 243.566 5.38813 242.282M17.7159 226.973C16.8057 227.498 15.6164 228.459 13.6673 230.12M5.38813 242.282C5.9409 242.145 7.25476 241.752 8.08812 241.272M5.38813 242.282C5.37355 241.126 5.7207 239.666 6.73849 237.89M6.73849 237.89C7.23665 237.021 7.89548 236.076 8.75118 235.054C10.3712 233.119 12.1014 231.454 13.6673 230.12" stroke="#262933" stroke-width="2" stroke-linecap="round" stroke-linejoin="round"/>
<path d="M109.849 193.184C100.532 194.618 51.0944 193.782 27.5401 193.184C26.2863 200.16 27.5162 212.407 36.6017 223.354C28.621 230.289 29.475 241.742 30.8996 246.601C32.0195 247.423 38.537 250.655 55.6484 257.016C83.9807 267.207 101.786 255 104.026 251.865C121.272 262.727 149.044 250.185 142.661 231.595C136.278 213.006 128.551 206.735 109.849 193.184Z" fill="#262933"/>
<path d="M64.9433 241.002C51.3766 236.782 42.3932 230.332 36.6017 223.354M36.6017 223.354C27.5162 212.407 26.2863 200.16 27.5401 193.184C51.0944 193.782 100.532 194.618 109.849 193.184C128.551 206.735 136.278 213.006 142.661 231.595C149.044 250.185 121.272 262.727 104.026 251.865C101.786 255 83.9807 267.207 55.6484 257.016C38.537 250.655 32.0195 247.423 30.8996 246.601C29.475 241.742 28.621 230.289 36.6017 223.354Z" stroke="#262933" stroke-width="2" stroke-linecap="round" stroke-linejoin="round"/>
<path d="M106.938 240.386L105.953 240.558L106.938 240.386ZM94.9218 216.376C94.5568 215.962 93.9249 215.921 93.5104 216.287C93.096 216.652 93.0559 217.283 93.4209 217.698L94.1714 217.037L94.9218 216.376ZM104.95 253.544L105.799 254.073C106.839 252.402 107.499 249.744 107.84 247.197C108.184 244.631 108.23 241.971 107.923 240.214L106.938 240.386L105.953 240.558C106.211 242.034 106.188 244.469 105.858 246.932C105.525 249.414 104.908 251.719 104.101 253.016L104.95 253.544ZM106.938 240.386L107.923 240.214C107.334 236.847 106.811 233.939 105.043 230.329C103.285 226.741 100.321 222.506 94.9218 216.376L94.1714 217.037L93.4209 217.698C98.7725 223.774 101.603 227.854 103.247 231.209C104.88 234.543 105.366 237.205 105.953 240.558L106.938 240.386Z" fill="white"/>
<path d="M12.7581 145.311C12.4782 136.968 14.2139 128.849 24.9645 112.835C35.6436 96.2958 53.4431 90.6209 63.0942 89.4198C63.4017 89.3816 63.701 89.3478 63.9914 89.3184C72.8892 88.4181 82.6888 90.3732 87.0877 91.2509L87.1851 91.2703C87.3999 91.3132 87.6013 91.3533 87.7884 91.3902C102.346 93.9658 113.993 104.492 123.064 113.451C132.135 122.41 139.75 135.288 135.718 143.015C131.687 150.742 124.632 151.414 117.017 147.831C113.616 146.231 110.825 143.835 108.795 141.621C109.654 148.479 110.08 175.196 110.185 187.698C90.6551 195.133 46.951 194.454 27.5402 193.185C27.1669 192.513 26.3979 190.139 26.3083 186.018C26.2187 181.897 29.1079 165.33 30.5637 157.561C20.0388 157.565 12.9854 152.084 12.7581 145.311Z" fill="white"/>
<path d="M57.4962 151.022C56.0404 151.75 50.1836 153.889 38.4027 156.622C35.631 157.265 33.004 157.56 30.5637 157.561M57.4962 151.022C55.4992 149.044 52.4569 142.254 56.2644 130.921C52.8654 130.581 46.3283 130.657 39.9586 131.075M57.4962 151.022C57.8695 150.388 58.5937 149.085 58.9521 147.159M24.8525 133.217C27.6746 132.221 33.7368 131.484 39.9586 131.075M30.5637 157.561C20.0388 157.565 12.9854 152.084 12.7581 145.311C12.4782 136.968 14.2139 128.849 24.9645 112.835C35.6436 96.2958 53.4431 90.6209 63.0942 89.4198M30.5637 157.561C29.1079 165.33 26.2187 181.897 26.3083 186.018C26.3979 190.139 27.1669 192.513 27.5402 193.185C46.951 194.454 90.6551 195.133 110.185 187.698C110.08 175.196 109.654 148.479 108.795 141.621M127.767 126.666C124.721 124.426 117.315 122.597 113.993 121.962C116.755 124.165 121.093 130.003 116.345 135.736C111.596 141.47 107.125 139.096 105.482 137.192C106.059 138.231 107.189 139.869 108.795 141.621M108.795 141.621C110.825 143.835 113.616 146.231 117.017 147.831C124.632 151.414 131.687 150.742 135.718 143.015C139.75 135.288 132.135 122.41 123.064 113.451C113.993 104.492 102.346 93.9658 87.7884 91.3902C87.6013 91.3533 87.4 91.3132 87.1851 91.2703M39.9586 131.075C40.8585 129.307 43.1733 125.143 45.2338 122.634M63.0942 89.4198C63.4017 89.3816 63.701 89.3478 63.9914 89.3184C72.9555 88.4114 82.8349 90.4026 87.1851 91.2703M63.0942 89.4198C63.3373 92.2044 65.1225 98.2997 70.3186 100.405C76.8137 103.037 86.19 101.397 87.1851 91.2703" stroke="#262933" stroke-width="2" stroke-linecap="round" stroke-linejoin="round"/>
<ellipse cx="83.9247" cy="144.079" rx="12.0384" ry="12.0384" fill="white" stroke="#262933" stroke-width="2"/>
<ellipse cx="83.9245" cy="144.078" rx="8.67887" ry="8.67887" fill="#262933"/>
<path d="M71.2142 128.12C66.1525 127.538 58.8025 130.677 55.7603 132.319C54.1925 137.807 54.4164 140.718 54.9764 146.038C59.1422 148.232 64.1778 145.683 66.1749 144.134C66.4922 144.395 67.6867 145.242 69.9264 146.541C72.726 148.165 74.3498 148.333 75.0777 146.765C76.7575 147.101 78.1013 147.269 78.7173 145.198C81.7969 145.086 81.069 141.222 80.677 140.102C83.3087 140.886 84.4845 138.255 82.6368 135.511C80.789 132.767 77.5414 128.848 71.2142 128.12Z" fill="white"/>
<path d="M80.677 140.102C83.3087 140.886 84.4845 138.255 82.6368 135.511C80.789 132.767 77.5414 128.848 71.2142 128.12C66.1525 127.538 58.8025 130.677 55.7603 132.319C54.1925 137.807 54.4164 140.718 54.9764 146.038C59.1422 148.232 64.1778 145.683 66.1749 144.134C66.4922 144.395 67.6867 145.242 69.9264 146.541C72.726 148.165 74.3498 148.333 75.0777 146.765M80.677 140.102C81.069 141.222 81.7969 145.086 78.7173 145.198M80.677 140.102C79.6692 138.227 76.8585 134.055 73.6781 132.375M78.7173 145.198C78.1013 147.269 76.7575 147.101 75.0777 146.765M78.7173 145.198C77.5975 142.669 74.5124 137.235 71.1304 135.735M75.0777 146.765C74.2939 145.067 71.9143 141.245 68.6668 139.542" stroke="#262933" stroke-width="2" stroke-linecap="round" stroke-linejoin="round"/>
<path d="M107.386 119.777C111.686 120.718 114.5 122.235 115.561 123.249C116.621 124.262 119.167 128.154 118.584 131.2C117.856 135.007 115.897 137.919 111.697 139.039C108.59 139.867 106.233 138.362 105.404 137.38C103.411 138.625 101.868 138.454 101.171 137.359C99.6475 139.285 97.8856 138.348 97.195 137.639C96.5418 138.292 94.9217 139.229 93.6675 137.751C92.4133 136.273 93.7795 131.461 94.6194 129.24C93.2196 132.487 90.364 135.847 89.0201 135.119C87.6763 134.391 87.7883 130.472 90.14 126.104C93.4708 119.604 101.338 118.67 106.718 119.644C106.945 119.685 107.168 119.73 107.386 119.777Z" fill="white"/>
<path d="M94.6194 129.24C93.2196 132.488 90.364 135.847 89.0201 135.119C87.6763 134.391 87.7883 130.472 90.14 126.104C93.4708 119.604 101.338 118.67 106.718 119.644M94.6194 129.24C95.7392 126.642 96.7658 125.246 97.139 124.872M94.6194 129.24C93.7795 131.461 92.4133 136.273 93.6675 137.751C94.9217 139.229 96.5418 138.292 97.195 137.639M97.195 137.639C97.8856 138.348 99.6475 139.285 101.171 137.359M97.195 137.639C97.083 135.884 97.7998 131.334 101.562 127.168M101.171 137.359C101.868 138.454 103.411 138.625 105.404 137.38M101.171 137.359C101.618 135.791 103.175 132.129 105.818 130.024M110.017 132.655C109.353 133.592 108.702 134.398 108.073 135.082M108.073 135.082C109.188 135.748 111.955 136.597 114.105 134.671M108.073 135.082C107.126 136.112 106.227 136.866 105.404 137.38M105.404 137.38C106.233 138.362 108.59 139.867 111.697 139.039C115.897 137.919 117.856 135.007 118.584 131.2C119.167 128.154 116.621 124.262 115.561 123.249C114.5 122.235 111.686 120.718 107.386 119.777C107.168 119.73 106.945 119.685 106.718 119.644M106.718 119.644C106.436 117.374 105.751 112.465 105.258 110.986" stroke="#262933" stroke-width="2" stroke-linecap="round" stroke-linejoin="round"/>
<path d="M106.49 64.2891C108.371 59.6305 109.513 50.4029 109.849 46.3714C104.474 5.72073 63.3753 27.4459 58.3359 39.8763C54.3045 49.8206 53.5206 69.7764 53.6325 78.5112C55.9842 83.14 63.868 92.7334 76.5896 94.0772C92.4915 95.757 98.6507 89.3738 102.234 84.1105C105.818 78.8472 104.138 70.1123 106.49 64.2891Z" fill="white" stroke="#262933" stroke-width="2" stroke-linejoin="round"/>
<path d="M92.0435 60.0895C93.5179 59.3803 97.1724 58.6561 99.9944 61.4333" stroke="#262933" stroke-width="2" stroke-linecap="round" stroke-linejoin="round"/>
<ellipse cx="72.1104" cy="67.2844" rx="2.40769" ry="3.44355" transform="rotate(5.42479 72.1104 67.2844)" fill="#262933"/>
<ellipse cx="93.6675" cy="69.9722" rx="2.40769" ry="3.44355" transform="rotate(5.42479 93.6675 69.9722)" fill="#262933"/>
<path d="M81.0343 75.8949C81.5085 75.6484 82.9442 75.1956 84.8931 75.3567" stroke="#262933" stroke-width="2" stroke-linecap="round" stroke-linejoin="round"/>
<path d="M74.5737 80.751C74.7417 80.975 76.0855 84.6705 83.8685 84.2226" stroke="#262933" stroke-width="2" stroke-linecap="round" stroke-linejoin="round"/>
<path d="M67.1831 57.794C68.8816 56.6181 73.0735 55.1511 76.2539 58.6899" stroke="#262933" stroke-width="2" stroke-linecap="round" stroke-linejoin="round"/>
<path d="M99.0426 32.4848C102.268 36.9195 101.096 48.6667 100.106 53.986C102.019 54.452 105.976 55.3358 108.411 55.6298C108.373 60.0731 106.546 63.2249 105.874 66.1925C105.202 69.1602 104.866 72.9117 104.53 76.8312C104.194 80.7506 103.242 82.9344 100.386 86.6859C98.1019 89.6871 93.8726 91.8932 92.0435 92.6211C104.026 95.5327 110.857 102.476 120.6 111.323C120.712 107.067 120.6 99.7882 118.696 90.4934C116.792 81.1986 118.696 63.2809 120.264 54.77C121.832 46.2591 122.615 35.3966 114.105 21.2864C102.682 1.46497 83.0846 0.00905991 76.4775 1.91281C71.4382 -0.214911 58.4479 0.680973 48.0332 12.2155C37.6186 23.75 33.1392 45.2512 33.2511 59.1374C33.3631 73.0236 31.2355 83.5502 29.7797 88.4775C28.3239 93.4049 26.1961 101.804 27.092 109.867C29.8917 105.723 35.7149 101.02 43.5539 95.3087C43.6659 100.348 45.0097 110.315 46.9134 113.114C48.8172 115.914 54.4165 115.69 56.4322 115.802C60.7324 117.504 62.8527 116.661 63.3753 116.026C62.2181 113.488 59.5902 105.119 58.3359 91.9491C57.0817 78.7796 59.5678 59.1747 60.9676 51.0184C64.6071 51.2237 72.7261 51.6791 76.0856 51.8583C80.6098 47.7372 83.3087 34.7992 84.0926 28.8453C84.3726 34.3326 84.395 46.7966 82.2448 52.7542C84.6637 53.6053 90.793 53.93 93.5554 53.986C95.0672 51.7463 98.2811 44.3105 99.0426 32.4848Z" fill="#262933"/>
<path d="M109.289 28.0054C111.772 33.8847 115.281 47.6589 109.457 55.7218C109.158 55.7093 108.805 55.6773 108.411 55.6298M108.411 55.6298C105.976 55.3358 102.019 54.452 100.106 53.986C101.096 48.6667 102.268 36.9195 99.0426 32.4848C98.2811 44.3105 95.0672 51.7463 93.5554 53.986C90.793 53.93 84.6637 53.6053 82.2448 52.7542C84.3949 46.7966 84.3726 34.3326 84.0926 28.8453C83.3087 34.7992 80.6098 47.7372 76.0856 51.8583C72.7261 51.6791 64.6071 51.2237 60.9676 51.0184C59.5678 59.1747 57.0817 78.7796 58.3359 91.9491C59.5902 105.119 62.2181 113.488 63.3753 116.026C62.8527 116.661 60.7324 117.504 56.4322 115.802C54.4165 115.69 48.8172 115.914 46.9134 113.114C45.0097 110.315 43.6659 100.348 43.5539 95.3087C35.7149 101.02 29.8917 105.723 27.092 109.867C26.1961 101.804 28.3239 93.4049 29.7797 88.4775C31.2355 83.5502 33.3631 73.0236 33.2511 59.1374C33.1392 45.2512 37.6186 23.75 48.0332 12.2155C58.4479 0.680973 71.4382 -0.214911 76.4775 1.91281C83.0846 0.00905993 102.682 1.46497 114.105 21.2864C122.615 35.3966 121.832 46.2591 120.264 54.77C118.696 63.2809 116.792 81.1986 118.696 90.4934C120.6 99.7882 120.712 107.067 120.6 111.323C110.857 102.476 104.026 95.5327 92.0435 92.6211C93.8726 91.8932 98.1019 89.6871 100.386 86.6859C103.242 82.9344 104.194 80.7507 104.53 76.8312C104.866 72.9117 105.202 69.1602 105.874 66.1925C106.546 63.2249 108.373 60.0731 108.411 55.6298Z" stroke="#262933" stroke-width="2" stroke-linecap="round" stroke-linejoin="round"/>
<path d="M114.273 58.41C113.018 56.1703 109.943 56.3569 108.561 56.7302C108.468 57.7567 108.024 60.4481 106.994 63.0014C105.706 66.193 104.922 71.9042 104.922 74.4239C114.609 72.9681 115.84 61.2096 114.273 58.41Z" fill="white" stroke="#262933" stroke-width="2" stroke-linecap="round" stroke-linejoin="round"/>
<path d="M110.353 63.4777C108.729 64.6348 106.646 65.9469 105.258 70.1128" stroke="#262933" stroke-width="2" stroke-linecap="round" stroke-linejoin="round"/>
<path d="M60.7437 52.3067C61.3596 47.9952 63.5321 39.8651 65.2791 36.6847" stroke="#262933" stroke-width="2" stroke-linecap="round" stroke-linejoin="round"/>
<path d="M43.5542 95.9248C43.5542 92.9012 43.5656 86.3948 43.8343 84.1103" stroke="#262933" stroke-width="2" stroke-linecap="round" stroke-linejoin="round"/>
<path d="M56.0684 115.495C54.6126 111.911 51.7288 102.98 51.2808 94.6933C50.8329 86.4064 51.2435 76.2717 51.5048 72.2402" stroke="#262933" stroke-width="2" stroke-linecap="round" stroke-linejoin="round"/>
<path d="M121.16 167.428L131.854 176.778L132.022 206.735L66.2868 208.582L56.7681 198.504L57.16 168.94L121.16 167.428Z" fill="white"/>
<path d="M57.16 168.94L66.6228 178.346M57.16 168.94L121.16 167.428L131.854 176.778M57.16 168.94L56.7681 198.504L66.2868 208.582M66.6228 178.346L131.854 176.778M66.6228 178.346L66.2868 208.582M131.854 176.778L132.022 206.735L66.2868 208.582" stroke="#262933" stroke-width="2" stroke-linecap="round" stroke-linejoin="round"/>
<path d="M67.6309 171.879L67.6729 158.791L87.6063 158.749L87.8162 171.851C86.2764 173.251 83.9247 174.315 78.3535 174.371C71.2987 174.442 68.9187 172.915 67.6309 171.879Z" fill="white" stroke="#262933" stroke-width="2" stroke-linecap="round" stroke-linejoin="round"/>
<ellipse cx="77.6397" cy="158.749" rx="9.9527" ry="3.73713" fill="white" stroke="#262933" stroke-width="2"/>
<ellipse cx="77.6397" cy="158.749" rx="6.62114" ry="1.6239" fill="#262933"/>
<path d="M67.771 164.068C69.3295 164.927 72.9435 166.429 77.8249 166.322C82.9483 166.21 86.1646 165.188 87.4524 164.124" stroke="#262933" stroke-width="2" stroke-linecap="round" stroke-linejoin="round"/>
<path d="M67.771 167.95C69.3295 168.809 73.0523 170.585 77.9337 170.478C83.057 170.366 85.8286 169.219 87.6204 168.202" stroke="#262933" stroke-width="2" stroke-linecap="round" stroke-linejoin="round"/>
<path d="M100.778 171.878L100.82 163.269L120.754 163.227L120.964 171.85C119.424 173.25 117.072 174.314 111.501 174.37C104.446 174.441 102.066 172.914 100.778 171.878Z" fill="white" stroke="#262933" stroke-width="2" stroke-linecap="round" stroke-linejoin="round"/>
<ellipse cx="110.787" cy="163.228" rx="9.9527" ry="3.73713" fill="white" stroke="#262933" stroke-width="2"/>
<ellipse cx="110.787" cy="163.228" rx="6.62114" ry="1.6239" fill="#262933"/>
<path d="M100.918 168.547C102.477 169.405 106.091 170.907 110.972 170.801C116.096 170.689 119.312 169.667 120.6 168.603" stroke="#262933" stroke-width="2" stroke-linecap="round" stroke-linejoin="round"/>
</svg>
