<svg width="32" height="32" viewBox="0 0 32 32" fill="none" xmlns="http://www.w3.org/2000/svg">
<path d="M24.317 8.15557C22.7873 7.45369 21.147 6.93658 19.4319 6.6404C19.4007 6.63469 19.3695 6.64897 19.3534 6.67754C19.1424 7.05276 18.9087 7.54226 18.7451 7.927C16.9004 7.65083 15.0652 7.65083 13.2583 7.927C13.0946 7.5337 12.8525 7.05276 12.6406 6.67754C12.6245 6.64992 12.5933 6.63564 12.562 6.6404C10.8479 6.93563 9.20756 7.45275 7.67693 8.15557C7.66368 8.16129 7.65233 8.17082 7.64479 8.18319C4.53339 12.8316 3.68105 17.3657 4.09918 21.8436C4.10107 21.8655 4.11337 21.8864 4.1304 21.8997C6.18321 23.4073 8.17171 24.3225 10.1233 24.9291C10.1545 24.9386 10.1876 24.9272 10.2075 24.9015C10.6691 24.2711 11.0806 23.6063 11.4335 22.9073C11.4543 22.8664 11.4344 22.8178 11.3919 22.8016C10.7391 22.554 10.1176 22.2521 9.51973 21.9093C9.47244 21.8816 9.46865 21.814 9.51216 21.7816C9.63797 21.6873 9.76382 21.5893 9.88396 21.4902C9.90569 21.4721 9.93598 21.4683 9.96153 21.4797C13.8893 23.273 18.1415 23.273 22.023 21.4797C22.0485 21.4674 22.0788 21.4712 22.1015 21.4893C22.2216 21.5883 22.3475 21.6873 22.4742 21.7816C22.5177 21.814 22.5149 21.8816 22.4676 21.9093C21.8697 22.2588 21.2482 22.554 20.5945 22.8006C20.552 22.8168 20.533 22.8664 20.5538 22.9073C20.9143 23.6054 21.3258 24.2701 21.7789 24.9005C21.7978 24.9272 21.8319 24.9386 21.8631 24.9291C23.8241 24.3225 25.8126 23.4073 27.8654 21.8997C27.8834 21.8864 27.8948 21.8664 27.8967 21.8445C28.3971 16.6676 27.0585 12.1706 24.3482 8.18414C24.3416 8.17082 24.3303 8.16129 24.317 8.15557ZM12.02 19.117C10.8375 19.117 9.86313 18.0313 9.86313 16.6981C9.86313 15.3648 10.8186 14.2791 12.02 14.2791C13.2309 14.2791 14.1958 15.3743 14.1769 16.6981C14.1769 18.0313 13.2214 19.117 12.02 19.117ZM19.9947 19.117C18.8123 19.117 17.8379 18.0313 17.8379 16.6981C17.8379 15.3648 18.7933 14.2791 19.9947 14.2791C21.2056 14.2791 22.1705 15.3743 22.1516 16.6981C22.1516 18.0313 21.2056 19.117 19.9947 19.117Z" fill="#262933"/>
</svg>
