<svg width="72" height="72" viewBox="0 0 72 72" fill="none" xmlns="http://www.w3.org/2000/svg">
<mask id="mask0_9_15263" style="mask-type:alpha" maskUnits="userSpaceOnUse" x="6" y="24" width="58" height="44">
<path d="M7.65665 51.2895L6.66895 24.7646L63.3504 28.0942C63.3398 35.5923 63.3122 51.3532 63.2867 54.4119C63.2612 57.4706 61.683 58.8301 60.8971 59.1274C57.0844 61.1666 48.7452 65.6208 45.8904 67.1247C43.0356 68.6286 39.5606 67.8575 38.1799 67.284C30.1933 63.8854 13.551 56.827 10.8747 55.782C8.19829 54.7369 7.61417 52.3515 7.65665 51.2895Z" fill="#DADBDB"/>
</mask>
<g mask="url(#mask0_9_15263)">
<path d="M7.65665 51.2895L6.66895 24.7646L63.3504 28.0942C63.3398 35.5923 63.3122 51.3532 63.2867 54.4119C63.2612 57.4706 61.683 58.8301 60.8971 59.1274C57.0844 61.1666 48.7452 65.6208 45.8904 67.1247C43.0356 68.6286 39.5606 67.8575 38.1799 67.284C30.1933 63.8854 13.551 56.827 10.8747 55.782C8.19829 54.7369 7.61417 52.3515 7.65665 51.2895Z" fill="#DBDBDD"/>
<path d="M43.9637 67.21L7.12036 19.7344L5.47027 24.2712L42.1026 71.0492L43.9637 67.21Z" fill="#F6F6F7"/>
<path d="M41.6566 71.9707L4.81323 24.4951L4.50517 26.0747L41.1375 72.8527L41.6566 71.9707Z" fill="#F6F6F7"/>
<path d="M42.4492 67.9852V38.5451C43.1884 38.5196 44.5627 38.0884 45.1574 37.876L62.745 28.7317L63.414 28.4131C63.3822 35.2952 63.3312 49.8623 63.3822 53.074C63.4332 56.2856 62.1077 58.3205 61.4386 58.9365C57.1586 61.2306 48.1333 66.048 46.2726 66.9657C44.4119 67.8833 42.9484 68.0277 42.4492 67.9852Z" fill="#8D8D8F"/>
<path d="M42.3533 38.6719V67.8253" stroke="#262933" stroke-width="0.5" stroke-linecap="round" stroke-linejoin="round"/>
<path d="M22.0128 35.6022C23.0061 35.588 24.1258 36.8289 24.6263 37.5308C24.672 37.5949 24.7431 37.6296 24.8019 37.6167C25.4447 37.4758 26.7544 37.4519 27.5895 38.3579C28.6116 39.4667 27.4778 40.8715 26.8787 41.2823C26.8282 41.3169 26.8156 41.392 26.8469 41.467C27.2066 42.3282 27.7081 44.6124 26.4641 44.5912C25.4644 44.5741 24.3859 43.3487 23.9004 42.6402C23.856 42.5753 23.7852 42.5387 23.7256 42.5498C23.0727 42.6715 21.7235 42.6705 20.9043 41.7444C19.9231 40.6352 21.0375 39.309 21.6608 38.8913C21.7111 38.8576 21.7238 38.7837 21.6925 38.7095C21.3146 37.8153 20.8037 35.6196 22.0128 35.6022Z" fill="#262933"/>
<path d="M22.5273 42.6332C23.6584 43.0026 24.7472 43.5993 25.6327 44.6373C27.4845 44.4808 30.1246 45.161 32.0187 46.2287C34.7241 47.754 37.7298 50.7181 36.8403 54.0196C36.2098 56.3604 32.8957 56.5347 30.6737 56.0712C29.0604 55.7347 27.4192 55.0759 25.9107 53.9611C23.4836 54.9153 20.223 54.3453 17.3526 53.06C14.8787 51.9525 11.894 49.4511 11.3358 46.339C10.6788 42.676 14.0497 41.6184 17.2158 43.1563C18.5927 42.38 20.7056 42.0384 22.5273 42.6332ZM22.7118 43.5444C20.8022 42.8975 18.7993 43.2746 17.3863 44.1192C16.7393 43.8486 16.1507 43.5582 15.4986 43.4505C12.1265 42.8928 11.1747 47.0345 13.9774 49.897C16.7788 52.7584 22.211 54.0959 25.0781 53.2526C25.2151 53.2122 25.6989 52.993 25.7959 53.0136C25.9809 53.0531 26.3422 53.3799 26.5416 53.511C28.8036 54.9992 31.4492 55.6378 33.6226 55.3122C36.6064 54.8652 37.2709 51.9127 34.1708 49.1826C32.064 47.3279 28.6742 45.5597 26.341 45.4984C26.1757 45.494 25.5497 45.5579 25.4573 45.5111C25.3452 45.4539 25.2938 45.3129 25.2115 45.217C24.5019 44.3905 23.6234 43.8532 22.7118 43.5444Z" fill="#262933"/>
<path d="M24.2778 40.9397C24.6742 40.5812 24.6081 39.7978 24.5256 39.4509C24.676 39.1827 24.9856 39.0845 25.1714 39.1423C25.3572 39.2001 25.8615 39.4033 25.8969 40.5262C25.9146 41.8196 25.136 41.8738 24.9148 41.805C24.6937 41.7362 24.4371 41.5823 24.2778 40.9397Z" fill="white"/>
<path d="M23.6151 38.3694C23.9761 38.4817 24.1779 39.0292 24.2123 39.1667C24.2468 39.3042 24.2716 39.452 24.2787 39.9656C24.2876 40.6077 23.7744 41.2819 23.332 41.0702C22.8897 40.8584 22.5977 40.3877 22.6242 39.5713C22.6508 38.755 23.1639 38.229 23.6151 38.3694Z" fill="white"/>
<path d="M35.9904 52.2044C36.0199 51.4733 35.7829 49.9941 33.863 48.3038C32.7766 47.347 31.3952 46.4398 29.973 45.7485C28.0252 44.8018 26.6784 44.5785 25.8916 44.5576C25.7585 44.5541 25.2924 44.5637 25.0918 44.5684C24.7502 44.2108 23.4068 42.8725 21.9306 42.3274C20.0872 41.647 18.5183 41.909 17.0007 43.1528C16.3683 42.888 15.7159 42.6185 15.0732 42.5124C13.4429 42.2428 12.2043 43.0196 11.8412 44.5395C11.6698 45.2557 11.7169 46.0638 11.977 46.8761C12.2556 47.7466 12.7722 48.584 13.4709 49.2973C14.4943 50.3426 15.9007 51.2382 17.5267 51.8933C18.0345 52.0977 18.5636 52.2789 19.109 52.4336C21.2286 53.0351 23.3466 53.1438 24.7749 52.7234C24.8253 52.7086 24.9046 52.6773 25.0049 52.6379C25.128 52.5893 25.3516 52.5011 25.4273 52.49C25.5136 52.52 25.7142 52.6746 25.8369 52.7691C25.926 52.8379 26.0104 52.903 26.0822 52.9501C28.3445 54.4388 31.0427 55.1252 33.3005 54.7874C34.0997 54.6676 34.7695 54.3648 35.238 53.9112C35.7033 53.4611 35.9634 52.8708 35.9904 52.2044Z" fill="#F5DF4D"/>
<path d="M15.7898 46.648C15.7433 46.6265 15.7244 46.7409 15.7175 46.7731C15.5853 47.3997 15.5421 48.1027 15.4114 48.7177C15.3735 48.8964 15.303 48.9553 15.1118 48.9108C14.6053 48.7926 14.618 48.2917 14.5572 47.886C14.4819 47.3822 14.4488 46.8813 14.3688 46.377L14.2558 46.9158C14.1877 47.1838 14.2467 48.0439 14.0917 48.198C13.9875 48.3017 13.4842 48.1076 13.3797 47.9386C13.3305 47.859 13.3126 47.6915 13.3116 47.6079C13.3053 47.0298 13.3846 44.9339 13.4125 44.5036C13.4472 43.9748 13.4906 43.7551 14.075 43.9191C14.3667 44.001 14.4937 44.0421 14.5758 44.367C14.7314 44.9823 14.8186 45.6412 14.9775 46.2629L15.0602 46.3542L15.5616 43.9989C15.6679 43.892 16.3149 44.037 16.4844 44.1136C16.6288 44.1789 16.7154 44.2726 16.7327 44.4361C16.7148 46.163 16.7452 47.9047 16.8707 49.6702C16.8038 49.9159 16.0353 49.6562 15.928 49.3244C15.8755 49.1617 15.8724 48.717 15.8624 48.5306C15.8284 47.9013 15.8299 47.2786 15.7898 46.648Z" fill="#262933"/>
<path d="M29.4409 46.6287C29.4877 46.7409 29.4695 46.8332 29.4415 46.9244C29.3181 47.3238 28.9669 47.8545 28.7833 48.246C28.6347 48.5624 28.4898 48.8825 28.3503 49.2056L29.2604 52.6556C29.2835 52.7538 29.2926 52.8731 29.2592 52.9511C29.1939 53.1048 28.4487 52.9729 28.3685 52.6998C28.1187 51.8834 27.9297 51.0649 27.6991 50.2481C27.6574 50.1009 27.6103 49.9081 27.5377 49.7707L27.4858 52.2034C27.4046 52.3961 26.7622 52.1444 26.6458 51.9539C26.5753 51.8387 26.5565 51.5548 26.5462 51.4256C26.4936 50.7622 26.5143 50.0669 26.4814 49.4004C26.4352 48.4647 26.3465 47.5149 26.338 46.5887C26.3362 46.3804 26.2912 45.9297 26.4462 45.8494C26.5863 45.7765 27.2585 45.9242 27.3584 46.1411C27.4627 46.8143 27.3919 47.4485 27.4517 48.1123C27.4569 48.1686 27.4253 48.1597 27.5095 48.1866L28.1762 46.3453C28.2069 46.2549 28.2828 46.1539 28.3822 46.153C28.5104 46.1515 29.3616 46.5067 29.4409 46.6287Z" fill="#262933"/>
<path d="M22.6052 45.7132C22.5958 45.8242 22.7893 50.062 22.7699 50.9514C22.7641 51.2108 22.7711 51.303 22.5201 51.3229C21.9828 51.3654 21.8221 51.1821 21.7899 50.615C21.7385 49.7147 21.7853 48.7965 21.7565 47.8946C21.7315 47.1198 21.6771 46.333 21.6267 45.5523C21.5231 45.4115 19.8037 45.3198 19.5421 45.2438C19.2668 45.0967 19.1732 44.2351 19.3002 44.0634C19.4075 43.918 20.0155 43.859 20.2219 43.8494C21.005 43.8131 21.943 43.9996 22.7702 44.3009C23.0024 44.3855 23.7694 44.6862 23.9192 44.8826C24.0845 45.0995 23.983 46.0165 23.8003 46.0908C23.6782 46.1402 23.2014 45.9073 23.0063 45.8431C22.9504 45.8247 22.6076 45.685 22.6052 45.7132Z" fill="#262933"/>
<path d="M18.1029 49.1507C18.3214 49.2842 18.3685 46.7056 18.5228 45.4938C18.5894 45.3361 18.9094 45.4767 19.0522 45.55C19.1552 45.6031 19.2932 45.6715 19.3023 45.8082C19.1786 46.8911 19.1731 48.0709 19.0245 49.1384C18.93 49.8175 18.6869 50.8295 17.7853 50.3619C17.1356 50.0249 17.0362 48.852 17.0277 48.2987C17.0122 47.2679 17.0408 46.4283 17.0785 45.4889C17.0888 45.2309 17.0824 44.7848 17.1177 44.5515C17.1642 44.2443 17.5844 44.3996 17.8291 44.5202C18.1913 44.6985 18.1557 44.8541 18.1481 45.201C18.125 46.2551 17.961 47.3041 17.9725 48.3785C17.9734 48.4313 17.9901 49.1882 18.1029 49.1507Z" fill="#262933"/>
<path d="M31.2252 49.8181C31.3391 49.8821 31.3817 50.0166 31.3804 50.132C31.3795 50.2275 31.2832 50.6566 31.2373 50.7069C31.1097 50.8456 30.7706 50.6886 30.5199 50.5734C30.436 50.5349 30.3594 50.5747 30.3515 50.6603L30.295 51.2828C30.2862 51.3844 30.3588 51.4429 30.4427 51.4767C30.5904 51.5198 31.0829 51.611 31.1598 51.7329C31.2707 51.9089 31.1805 52.602 31.1054 52.7511C31.0529 52.856 30.9486 52.8588 30.8307 52.8365C30.597 52.7924 29.7377 52.5285 29.5237 52.4146C29.3542 52.324 29.2685 52.1977 29.2551 52.0132C29.2436 51.8537 29.2591 51.5595 29.2667 51.3911C29.3162 50.2803 29.4627 49.0467 29.6584 47.9993C29.7033 47.7588 29.8118 47.1292 29.9091 46.9591C29.9866 46.8238 30.1437 46.8981 30.2904 46.9635C30.566 47.0862 31.5822 47.6415 31.8074 47.8264C31.8867 47.8915 31.942 47.9822 31.9606 48.0783C31.9955 48.2597 31.9071 48.9247 31.7241 48.9082C31.5743 48.8947 31.0945 48.5444 30.8538 48.4336C30.783 48.401 30.7159 48.4275 30.6979 48.4945C30.5885 48.901 30.518 49.1142 30.4971 49.4159C30.4943 49.4552 30.5025 49.5274 30.5594 49.5502C30.7535 49.6281 31.0492 49.7191 31.2252 49.8181Z" fill="#262933"/>
<path d="M21.3541 47.9106C21.2742 47.9539 20.7394 47.7661 20.647 47.6948C20.5477 47.6181 20.5616 47.2623 20.5398 47.14C20.5033 46.9346 20.4337 46.7717 20.345 47.0158C20.0751 47.7596 20.8008 48.2131 21.1636 48.8789C21.6121 49.7021 21.6121 50.9459 20.8798 51.1889C20.307 51.3791 19.5935 50.7744 19.351 50.092C19.2528 49.8162 19.1766 49.257 19.2683 49.0429C19.3276 48.9048 19.9672 49.0946 20.0934 49.2092C20.2499 49.3514 20.2313 50.0452 20.4009 50.1139C20.5559 50.1767 20.5862 49.7475 20.5808 49.6405C20.551 49.0735 19.763 48.3859 19.5455 47.7042C19.2638 46.8219 19.5145 45.4057 20.5683 45.893C21.3162 46.2392 21.6292 47.3434 21.3541 47.9106Z" fill="#262933"/>
<path d="M25.1694 47.1434C25.1062 47.1416 25.0707 47.2174 25.05 47.2688C24.9227 47.5874 24.9448 48.0591 24.9637 48.4454C24.9932 49.0511 25.0703 50.2047 25.2949 50.274C25.3551 50.3083 25.3818 50.2826 25.3964 50.2311C25.5253 49.7791 25.1399 49.2622 25.8702 49.5021C26.257 49.6291 26.2673 49.6638 26.2938 50.0611C26.3251 50.5343 26.2558 51.267 25.8665 51.4408C25.4481 51.6275 24.8971 51.2719 24.6115 50.7688C24.0074 49.7051 23.8171 46.78 24.4124 46.091C24.8686 45.5636 25.7176 46.142 25.9832 46.9127C26.0656 47.1518 26.185 47.8068 26.0665 47.9735C25.9917 48.0788 25.4371 47.9749 25.3408 47.8505C25.218 47.7054 25.3332 47.1689 25.1694 47.1434Z" fill="#262933"/>
<path d="M23.3323 46.6462C23.4469 46.6773 23.6614 46.7406 23.731 46.866C23.8185 47.0236 23.8195 48.3158 23.8353 48.5921C23.882 49.4181 23.9434 50.2497 24.0106 51.0805C24.0407 51.4752 23.0871 51.3242 23.0835 50.8961C23.0874 49.6452 22.8686 48.215 22.9175 46.9892C22.9321 46.6241 22.9528 46.543 23.3323 46.6462Z" fill="#262933"/>
<path d="M33.077 48.6134C32.6695 48.3336 32.5036 48.1344 32.3696 48.5937C32.141 49.3771 31.498 52.1562 31.4272 52.6279C31.4102 52.7419 31.3774 52.9156 31.4777 53.0292C31.581 53.1463 32.0851 53.3884 32.1778 53.3396C32.2787 53.2863 32.5191 52.2356 32.5944 52.0093C32.6075 51.9698 32.6336 51.8822 32.6619 51.7914C32.6765 51.7451 32.7461 51.7696 32.757 51.8248C32.7646 51.8631 32.9807 53.1691 33.2311 53.2356C33.3398 53.2643 33.8762 53.3956 33.9488 53.3504C34.0069 53.3144 34.0023 53.2162 33.9947 53.1414C33.9765 52.9617 33.668 51.9944 33.6878 51.9347C34.0214 51.8972 34.3414 51.8517 34.5484 51.5878C35.3141 50.6102 34.0379 49.2734 33.077 48.6134ZM33.6303 50.8909C33.4863 51.0099 33.1141 50.9733 32.9086 50.7513L33.1937 49.64C33.6978 49.8748 34.0266 50.5637 33.6303 50.8909Z" fill="#262933"/>
<path d="M21.7707 41.5455C22.9017 41.9148 24.4232 42.782 25.3087 43.8204C28.6769 43.1469 37.6496 48.0275 36.5176 53.2263C35.0019 56.8969 29.0939 55.6735 25.5877 53.168C21.63 54.6464 12.6111 52.3725 11.2674 45.9333C10.8423 42.3024 13.5957 40.7591 16.7615 42.2969C18.0226 40.889 19.9486 40.9506 21.7707 41.5455ZM22.2544 42.6217C20.0279 41.7426 18.4043 42.1724 17.0633 43.3261C12.8971 40.8751 10.0124 45.1802 13.6544 49.1038C16.7561 52.1983 22.4875 53.4737 25.4728 52.2202C27.9297 53.9975 30.8682 54.9129 33.2995 54.519C36.2833 54.0724 36.9558 51.1068 33.8477 48.3898C28.8295 44.0024 25.2018 44.682 25.2018 44.682C24.2977 43.7832 23.2873 43.0293 22.2544 42.6217Z" fill="#262933"/>
<path d="M25.6728 40.3095C25.963 40.7037 25.835 41.234 25.7347 41.4499C25.3277 42.1386 24.9635 41.6176 24.8323 41.271L25.2216 41.0169L24.8898 40.5477C25.0299 40.304 25.3826 39.9153 25.6728 40.3095Z" fill="#262933"/>
<path d="M24.0157 39.4825C24.325 39.7309 24.3105 40.287 24.2272 40.585C24.144 40.883 23.741 41.0211 23.5077 40.9225C23.3211 40.8437 23.2261 40.5981 23.202 40.4851L23.6125 40.2336L23.3116 39.7237C23.4174 39.5398 23.7064 39.234 24.0157 39.4825Z" fill="#262933"/>
</g>
<path d="M7.65641 51.2895L6.6687 24.7646L63.3502 28.0942C63.3396 35.5923 63.312 51.3532 63.2865 54.4119C63.261 57.4706 61.6828 58.8301 60.8969 59.1274C57.0841 61.1666 48.7449 65.6208 45.8901 67.1247C43.0353 68.6286 39.5603 67.8575 38.1797 67.284C30.1931 63.8854 13.5508 56.827 10.8744 55.782C8.19805 54.7369 7.61392 52.3515 7.65641 51.2895Z" stroke="#262933" stroke-width="0.5" stroke-linecap="round" stroke-linejoin="round"/>
<path d="M16.7693 4.96322L15.6223 7.95822L63.3189 28.063C63.5207 27.7975 64.1154 27.0179 64.8801 26.0239C66.0908 24.4626 64.5933 22.9651 63.7649 22.3279C61.9807 21.0959 57.8961 18.2815 55.8314 16.8796C53.7668 15.4777 50.1707 14.2563 48.6308 13.8209C40.368 11.0276 23.2053 5.22449 20.6564 4.35785C18.1075 3.49122 17.003 4.40034 16.7693 4.96322Z" fill="#DBDBDD" stroke="#262933" stroke-width="0.5" stroke-linecap="round" stroke-linejoin="round"/>
<path d="M16.3067 8.64285L25.7855 15.2383L26.8919 15.2945C27.4044 15.3206 27.9099 15.4254 28.3906 15.6053L30.5169 16.4012C40.6488 19.975 61.1708 27.2214 62.2031 27.6165C63.2354 28.0116 63.2704 27.6749 63.1589 27.4572C60.7906 25.9066 55.6078 22.4932 53.8235 21.2442C52.0393 19.9952 48.8107 18.7908 47.4194 18.3448L34.4199 13.8523C29.0778 11.9618 18.0973 8.1235 16.9121 7.8941C15.4305 7.60734 15.5102 7.95782 15.7173 8.18085C15.883 8.35928 16.1793 8.56319 16.3067 8.64285Z" fill="#DBDBDD" stroke="#262933" stroke-width="0.5" stroke-linecap="round" stroke-linejoin="round"/>
<path d="M19.3496 9.646L27.5699 15.3174L60.7695 27.0425C59.1127 25.9167 55.3721 23.372 53.6644 22.1995C51.9566 21.027 49.618 20.0754 48.6621 19.7461L19.3496 9.646Z" fill="#8D8D8F" stroke="#262933" stroke-width="0.5" stroke-linecap="round" stroke-linejoin="round"/>
<path d="M25.563 11.8442L28.1119 13.9471L56.2615 23.9835" stroke="#262933" stroke-width="0.5" stroke-linecap="round" stroke-linejoin="round"/>
<path d="M27.9213 10.1565L27.4434 11.3991L38.563 15.1905C38.6267 15.0312 38.7542 14.7572 39.0091 14.171C39.264 13.5847 38.7329 13.2682 38.4356 13.1833C36.0141 12.3443 30.8589 10.558 29.6099 10.1246C28.361 9.69133 28.0806 9.71049 27.9213 10.1565Z" fill="#8D8D8F" stroke="#262933" stroke-width="0.5" stroke-linecap="round" stroke-linejoin="round"/>
<path d="M16.6887 17.9771C17.6916 17.4811 18.3935 17.7199 18.7161 17.9721C18.8048 18.0414 18.8598 18.1499 18.8058 18.2487C18.3457 19.091 14.0362 21.8743 13.3273 20.9882C12.7155 20.2235 13.6671 19.48 14.2194 19.2039C14.5593 19.0339 15.5289 18.5506 16.6887 17.9771Z" fill="#8D8D8F" stroke="#262933" stroke-width="0.5" stroke-linecap="round" stroke-linejoin="round"/>
<path d="M14.0603 19.3643C14.3471 19.3961 14.876 19.6542 15.0799 20.814" stroke="#262933" stroke-width="0.5" stroke-linecap="round" stroke-linejoin="round"/>
<path d="M28.0476 15.4768L34.1012 17.739L62.1393 27.6003C64 28.0973 62.7288 28.9226 61.8207 29.4005C56.6804 31.9919 45.9792 37.3659 44.2969 38.1306C42.6147 38.8953 40.4736 38.4279 39.6133 38.0987L7.67218 25.593C6.2193 25.0323 6.57299 24.3982 7.27391 24.0318C11.9682 21.6793 21.7581 16.7513 23.3639 15.8592C24.9698 14.9671 27.1554 15.2326 28.0476 15.4768Z" fill="#DBDBDD" stroke="#262933" stroke-width="0.5" stroke-linecap="round" stroke-linejoin="round"/>
<mask id="mask1_9_15263" style="mask-type:alpha" maskUnits="userSpaceOnUse" x="10" y="16" width="50" height="21">
<path d="M24.6695 17.0027C26.0714 16.2635 28.0362 16.6841 28.8433 16.9868C38.2106 20.3588 57.2637 27.2049 58.5382 27.6127C59.8126 28.0205 59.0161 28.7916 58.4585 29.1261C54.0935 31.3777 45.0417 36.0306 43.7545 36.6296C42.4673 37.2286 40.8604 36.8579 40.2179 36.5977L10.9691 25.3027C9.56718 24.7802 10.2203 24.2035 10.9691 23.8371C14.9518 21.867 23.2676 17.7419 24.6695 17.0027Z" fill="#DADBDB"/>
</mask>
<g mask="url(#mask1_9_15263)">
<path d="M24.6695 17.0027C26.0714 16.2635 28.0362 16.6841 28.8433 16.9868C38.2106 20.3588 57.2637 27.2049 58.5382 27.6127C59.8126 28.0205 59.0161 28.7916 58.4585 29.1261C54.0935 31.3777 45.0417 36.0306 43.7545 36.6296C42.4673 37.2286 40.8604 36.8579 40.2179 36.5977L10.9691 25.3027C9.56718 24.7802 10.2203 24.2035 10.9691 23.8371C14.9518 21.867 23.2676 17.7419 24.6695 17.0027Z" fill="#8D8D8F"/>
<path d="M26.4541 16.4932V22.738" stroke="#262933" stroke-width="0.5" stroke-linecap="round" stroke-linejoin="round"/>
<path d="M28.1282 27.2958L31.0304 27.4039C31.2575 27.4123 31.475 27.498 31.647 27.6466L33.6675 29.3929C33.9642 29.6494 34.0836 30.0556 33.9729 30.4319L33.0244 33.6548C32.8995 34.0789 32.5111 34.3707 32.069 34.3724L29.1497 34.384C28.8731 34.3851 28.6083 34.2715 28.4185 34.0703L26.4552 31.9901C26.2094 31.7296 26.1217 31.3575 26.2252 31.0147L27.1337 28.006C27.2651 27.5707 27.6738 27.2788 28.1282 27.2958Z" fill="white" stroke="#262933" stroke-width="0.5" stroke-linecap="round" stroke-linejoin="round"/>
<path d="M27.4499 27.5081L29.7347 29.83C29.9464 30.0452 30.2441 30.1532 30.5446 30.1239L33.9263 29.794" stroke="#262933" stroke-width="0.5" stroke-linecap="round" stroke-linejoin="round"/>
<path d="M30.1521 30.0928L28.7047 34.2742" stroke="#262933" stroke-width="0.5" stroke-linecap="round" stroke-linejoin="round"/>
<path d="M32.6086 26.2983L35.0046 24.6572C35.1922 24.5287 35.4179 24.468 35.6446 24.485L38.3077 24.6851C38.6988 24.7144 39.0366 24.9697 39.1716 25.3379L40.3285 28.4921C40.4807 28.9071 40.3423 29.3728 39.9882 29.6375L37.6497 31.3849C37.4281 31.5505 37.1478 31.6169 36.8754 31.5683L34.0595 31.0659C33.7069 31.003 33.4149 30.7563 33.2939 30.4192L32.2325 27.4611C32.0789 27.033 32.2334 26.5553 32.6086 26.2983Z" fill="white" stroke="#262933" stroke-width="0.5" stroke-linecap="round" stroke-linejoin="round"/>
<path d="M32.1879 26.8731L35.4061 27.3782C35.7043 27.425 36.0078 27.3345 36.2317 27.1321L38.7522 24.8534" stroke="#262933" stroke-width="0.5" stroke-linecap="round" stroke-linejoin="round"/>
<path d="M35.8997 27.3413L37.2264 31.5625" stroke="#262933" stroke-width="0.5" stroke-linecap="round" stroke-linejoin="round"/>
<path d="M24.2884 19.7624L27.0762 18.9486C27.2944 18.8849 27.5278 18.8975 27.738 18.9842L30.2065 20.0032C30.569 20.1529 30.8106 20.5006 30.8243 20.8926L30.9419 24.2501C30.9574 24.6919 30.6809 25.0915 30.262 25.2327L27.4957 26.1655C27.2336 26.2538 26.9466 26.2297 26.7029 26.0988L24.1833 24.7448C23.8678 24.5753 23.667 24.25 23.657 23.8919L23.569 20.7504C23.5563 20.2958 23.8519 19.8899 24.2884 19.7624Z" fill="white" stroke="#262933" stroke-width="0.5" stroke-linecap="round" stroke-linejoin="round"/>
<path d="M23.8095 20.2514L26.614 21.6631C26.8818 21.7979 27.196 21.8055 27.47 21.6836L30.5778 20.3012" stroke="#262933" stroke-width="0.5" stroke-linecap="round" stroke-linejoin="round"/>
<path d="M27.0903 21.7783L27.0373 26.2028" stroke="#262933" stroke-width="0.5" stroke-linecap="round" stroke-linejoin="round"/>
<path d="M19.7945 21.8332L22.5823 21.0194C22.8005 20.9557 23.034 20.9683 23.2441 21.055L25.7126 22.074C26.0751 22.2237 26.3167 22.5714 26.3304 22.9634L26.448 26.3209C26.4635 26.7627 26.187 27.1623 25.7681 27.3035L23.0018 28.2363C22.7397 28.3246 22.4527 28.3005 22.209 28.1696L19.6894 26.8156C19.3739 26.6461 19.1731 26.3208 19.1631 25.9627L19.0751 22.8212C19.0624 22.3666 19.358 21.9607 19.7945 21.8332Z" fill="white" stroke="#262933" stroke-width="0.5" stroke-linecap="round" stroke-linejoin="round"/>
<path d="M19.3958 22.3541L22.12 23.7324C22.3882 23.8681 22.7032 23.876 22.9778 23.7538L26.0845 22.372" stroke="#262933" stroke-width="0.5" stroke-linecap="round" stroke-linejoin="round"/>
<path d="M22.5974 23.8486L22.5444 28.2731" stroke="#262933" stroke-width="0.5" stroke-linecap="round" stroke-linejoin="round"/>
<path d="M17.8919 23.2042L20.7487 23.7263C20.9723 23.7672 21.1753 23.8831 21.3243 24.0548L23.0742 26.0722C23.3312 26.3685 23.3912 26.7876 23.2278 27.1441L21.828 30.1982C21.6438 30.6001 21.2176 30.8333 20.7798 30.7718L17.8889 30.3656C17.6149 30.3271 17.3692 30.1769 17.2101 29.9506L15.5646 27.6109C15.3585 27.318 15.3249 26.9372 15.4764 26.6126L16.806 23.7649C16.9983 23.3528 17.4445 23.1224 17.8919 23.2042Z" fill="white" stroke="#262933" stroke-width="0.5" stroke-linecap="round" stroke-linejoin="round"/>
<path d="M17.2447 23.4045L19.1185 25.9412C19.2974 26.1834 19.5758 26.3321 19.8766 26.346L23.2722 26.5032" stroke="#262933" stroke-width="0.5" stroke-linecap="round" stroke-linejoin="round"/>
<path d="M19.4944 26.2598L17.4638 30.1911" stroke="#262933" stroke-width="0.5" stroke-linecap="round" stroke-linejoin="round"/>
<path d="M44.8889 31.3539L47.7783 31.0609C48.0044 31.038 48.2317 31.0928 48.4225 31.2163L50.6644 32.6674C50.9937 32.8805 51.1679 33.2664 51.1101 33.6543L50.6149 36.9772C50.5498 37.4145 50.2052 37.757 49.7676 37.8197L46.8778 38.2336C46.6039 38.2728 46.3261 38.1968 46.1103 38.0238L43.8791 36.234C43.5997 36.0099 43.4615 35.6535 43.5167 35.2996L44.0018 32.1944C44.072 31.7451 44.4365 31.3998 44.8889 31.3539Z" fill="white" stroke="#262933" stroke-width="0.5" stroke-linecap="round" stroke-linejoin="round"/>
<path d="M44.2443 31.6576L46.8274 33.6424C47.0668 33.8264 47.3765 33.8923 47.6701 33.8218L50.9741 33.0288" stroke="#262933" stroke-width="0.5" stroke-linecap="round" stroke-linejoin="round"/>
<path d="M47.2783 33.8447L46.4212 38.1857" stroke="#262933" stroke-width="0.5" stroke-linecap="round" stroke-linejoin="round"/>
<path d="M49.158 27.9774L52.0473 27.6844C52.2735 27.6615 52.5007 27.7163 52.6916 27.8398L54.9335 29.291C55.2627 29.5041 55.437 29.89 55.3792 30.2779L54.884 33.6008C54.8188 34.038 54.4743 34.3806 54.0367 34.4433L51.1468 34.8571C50.873 34.8964 50.5951 34.8204 50.3793 34.6473L48.1481 32.8575C47.8687 32.6334 47.7305 32.277 47.7858 31.9231L48.2709 28.818C48.341 28.3687 48.7055 28.0233 49.158 27.9774Z" fill="white" stroke="#262933" stroke-width="0.5" stroke-linecap="round" stroke-linejoin="round"/>
<path d="M48.5134 28.2792L51.0965 30.264C51.3359 30.4479 51.6456 30.5139 51.9391 30.4434L55.2431 29.6504" stroke="#262933" stroke-width="0.5" stroke-linecap="round" stroke-linejoin="round"/>
<path d="M51.5474 30.4688L50.6902 34.8097" stroke="#262933" stroke-width="0.5" stroke-linecap="round" stroke-linejoin="round"/>
<path d="M43.0865 27.029L45.8743 26.2152C46.0925 26.1515 46.3259 26.1641 46.5361 26.2508L49.0046 27.2698C49.3671 27.4195 49.6087 27.7672 49.6224 28.1592L49.74 31.5167C49.7555 31.9585 49.479 32.3581 49.0601 32.4993L46.2938 33.4321C46.0317 33.5204 45.7447 33.4963 45.501 33.3654L42.9814 32.0114C42.6658 31.8419 42.4651 31.5166 42.4551 31.1585L42.3671 28.017C42.3544 27.5624 42.65 27.1565 43.0865 27.029Z" fill="white" stroke="#262933" stroke-width="0.5" stroke-linecap="round" stroke-linejoin="round"/>
<path d="M42.5099 27.4428L45.411 28.9244C45.6798 29.0618 45.9964 29.0703 46.2722 28.9476L49.3768 27.5667" stroke="#262933" stroke-width="0.5" stroke-linecap="round" stroke-linejoin="round"/>
<path d="M45.8894 29.0449L45.8364 33.4694" stroke="#262933" stroke-width="0.5" stroke-linecap="round" stroke-linejoin="round"/>
<path d="M36.1026 26.1107L38.4232 24.3645C38.6049 24.2278 38.8277 24.1571 39.0549 24.164L41.7242 24.2452C42.1162 24.2572 42.4651 24.4972 42.6164 24.859L43.9125 27.9585C44.0831 28.3663 43.9656 28.8378 43.6236 29.1179L41.3652 30.9678C41.1512 31.1431 40.8741 31.2219 40.5999 31.1855L37.7644 30.809C37.4094 30.7618 37.1066 30.5284 36.9708 30.197L35.7786 27.289C35.6061 26.8683 35.7393 26.3841 36.1026 26.1107Z" fill="white" stroke="#262933" stroke-width="0.5" stroke-linecap="round" stroke-linejoin="round"/>
<path d="M35.709 26.7025L38.9464 27.0638C39.2465 27.0973 39.5456 26.9934 39.7603 26.7812L42.1769 24.3926" stroke="#262933" stroke-width="0.5" stroke-linecap="round" stroke-linejoin="round"/>
<path d="M39.4373 27.0068L40.9507 31.1648" stroke="#262933" stroke-width="0.5" stroke-linecap="round" stroke-linejoin="round"/>
<path d="M35.9171 32.0964L38.7049 31.2826C38.9231 31.2189 39.1565 31.2315 39.3666 31.3182L41.8351 32.3372C42.1977 32.4869 42.4392 32.8346 42.453 33.2266L42.5706 36.5841C42.5861 37.0259 42.3096 37.4254 41.8907 37.5667L39.1244 38.4994C38.8623 38.5878 38.5752 38.5637 38.3316 38.4327L35.8119 37.0788C35.4964 36.9093 35.2957 36.584 35.2856 36.2259L35.1977 33.0843C35.1849 32.6298 35.4805 32.2238 35.9171 32.0964Z" fill="white" stroke="#262933" stroke-width="0.5" stroke-linecap="round" stroke-linejoin="round"/>
<path d="M35.3395 32.5101L38.2406 33.9918C38.5094 34.1291 38.826 34.1376 39.1018 34.0149L42.2063 32.6341" stroke="#262933" stroke-width="0.5" stroke-linecap="round" stroke-linejoin="round"/>
<path d="M38.72 34.1099L38.6669 38.5344" stroke="#262933" stroke-width="0.5" stroke-linecap="round" stroke-linejoin="round"/>
<path d="M31.743 29.4187L34.5308 28.6049C34.749 28.5412 34.9824 28.5537 35.1926 28.6405L37.6611 29.6595C38.0236 29.8091 38.2652 30.1569 38.2789 30.5488L38.3965 33.9064C38.412 34.3482 38.1355 34.7477 37.7166 34.889L34.9503 35.8217C34.6882 35.9101 34.4012 35.8859 34.1575 35.755L31.6378 34.4011C31.3223 34.2316 31.1216 33.9062 31.1116 33.5482L31.0236 30.4066C31.0109 29.952 31.3064 29.5461 31.743 29.4187Z" fill="white" stroke="#262933" stroke-width="0.5" stroke-linecap="round" stroke-linejoin="round"/>
<path d="M31.1654 29.8324L34.0665 31.3141C34.3354 31.4514 34.6519 31.4599 34.9277 31.3372L38.0323 29.9563" stroke="#262933" stroke-width="0.5" stroke-linecap="round" stroke-linejoin="round"/>
<path d="M34.5449 31.4341L34.4919 35.8586" stroke="#262933" stroke-width="0.5" stroke-linecap="round" stroke-linejoin="round"/>
<path d="M30.054 21.4206L32.8418 20.6068C33.0601 20.5431 33.2935 20.5557 33.5036 20.6424L35.9721 21.6614C36.3346 21.8111 36.5762 22.1588 36.5899 22.5508L36.7075 25.9083C36.723 26.3501 36.4466 26.7497 36.0277 26.8909L33.2614 27.8237C32.9992 27.912 32.7122 27.8879 32.4685 27.757L29.9489 26.403C29.6334 26.2335 29.4326 25.9082 29.4226 25.5502L29.3346 22.4086C29.3219 21.954 29.6175 21.5481 30.054 21.4206Z" fill="white" stroke="#262933" stroke-width="0.5" stroke-linecap="round" stroke-linejoin="round"/>
<path d="M29.6239 21.8931L32.3773 23.3137C32.6469 23.4528 32.9651 23.4619 33.2422 23.3387L36.3444 21.9588" stroke="#262933" stroke-width="0.5" stroke-linecap="round" stroke-linejoin="round"/>
<path d="M32.8569 23.4365L32.8039 27.861" stroke="#262933" stroke-width="0.5" stroke-linecap="round" stroke-linejoin="round"/>
<path d="M39.9642 31.8396L42.752 31.0258C42.9702 30.9621 43.2036 30.9746 43.4138 31.0614L45.8823 32.0804C46.2448 32.23 46.4864 32.5778 46.5001 32.9697L46.6177 36.3273C46.6332 36.7691 46.3567 37.1686 45.9378 37.3099L43.1715 38.2426C42.9094 38.331 42.6223 38.3068 42.3787 38.1759L39.859 36.822C39.5435 36.6525 39.3428 36.3271 39.3328 35.9691L39.2448 32.8275C39.2321 32.3729 39.5276 31.967 39.9642 31.8396Z" fill="white" stroke="#262933" stroke-width="0.5" stroke-linecap="round" stroke-linejoin="round"/>
<path d="M39.5175 32.361L42.2915 33.7437C42.5587 33.8768 42.8713 33.8837 43.144 33.7624L46.254 32.379" stroke="#262933" stroke-width="0.5" stroke-linecap="round" stroke-linejoin="round"/>
<path d="M42.7671 33.855L42.714 38.2795" stroke="#262933" stroke-width="0.5" stroke-linecap="round" stroke-linejoin="round"/>
<path d="M27.1727 24.0443L30.0748 24.1524C30.302 24.1609 30.5195 24.2465 30.6915 24.3952L32.7119 26.1415C33.0087 26.3979 33.1281 26.8042 33.0173 27.1804L32.0688 30.4033C31.944 30.8274 31.5555 31.1192 31.1134 31.121L28.1941 31.1325C27.9175 31.1336 27.6528 31.0201 27.4629 30.8189L25.4997 28.7386C25.2539 28.4782 25.1661 28.1061 25.2696 27.7632L26.1781 24.7546C26.3096 24.3192 26.7182 24.0274 27.1727 24.0443Z" fill="white" stroke="#262933" stroke-width="0.5" stroke-linecap="round" stroke-linejoin="round"/>
<path d="M26.4943 24.2567L28.7791 26.5786C28.9909 26.7938 29.2885 26.9018 29.589 26.8725L32.9707 26.5425" stroke="#262933" stroke-width="0.5" stroke-linecap="round" stroke-linejoin="round"/>
<path d="M29.1965 26.8413L27.7492 31.0227" stroke="#262933" stroke-width="0.5" stroke-linecap="round" stroke-linejoin="round"/>
<path d="M23.0457 25.4699L25.8335 24.6562C26.0518 24.5924 26.2852 24.605 26.4953 24.6917L28.9638 25.7108C29.3263 25.8604 29.5679 26.2081 29.5816 26.6001L29.6992 29.9576C29.7147 30.3994 29.4383 30.799 29.0194 30.9402L26.2531 31.873C25.9909 31.9614 25.7039 31.9372 25.4602 31.8063L22.9406 30.4524C22.6251 30.2828 22.4243 29.9575 22.4143 29.5995L22.3263 26.4579C22.3136 26.0033 22.6092 25.5974 23.0457 25.4699Z" fill="white" stroke="#262933" stroke-width="0.5" stroke-linecap="round" stroke-linejoin="round"/>
<path d="M22.582 25.9883L25.3726 27.3724C25.6393 27.5047 25.9512 27.5112 26.2233 27.3902L29.3344 26.0064" stroke="#262933" stroke-width="0.5" stroke-linecap="round" stroke-linejoin="round"/>
<path d="M25.8477 27.4839L25.7946 31.9084" stroke="#262933" stroke-width="0.5" stroke-linecap="round" stroke-linejoin="round"/>
</g>
<path d="M24.6695 17.0037C26.0714 16.2645 28.0362 16.6851 28.8433 16.9878C38.2106 20.3598 57.2637 27.2059 58.5382 27.6137C59.8126 28.0215 59.0161 28.7926 58.4585 29.1271C54.0935 31.3787 45.0417 36.0315 43.7545 36.6305C42.4673 37.2295 40.8604 36.8589 40.2179 36.5987L10.9691 25.3037C9.56718 24.7812 10.2203 24.2045 10.9691 23.8381C14.9518 21.868 23.2676 17.7429 24.6695 17.0037Z" stroke="#262933" stroke-width="0.5" stroke-linecap="round" stroke-linejoin="round"/>
<path d="M60.8642 36.68V43.1479C60.8482 44.1995 60.8642 46.022 60.8642 47.2582C60.8642 48.4944 59.4994 49.3982 58.7932 49.7275C57.2638 50.5187 54.0203 52.1904 53.2811 52.5472C52.3572 52.9933 51.3854 53.1526 50.2384 52.7862C49.3208 52.4931 49.0807 51.3896 49.0754 50.8745V42.463C49.0754 40.4239 50.2862 39.3086 50.8915 39.0058L58.5861 35.3737C60.1791 34.6472 60.8642 35.9152 60.8642 36.68Z" fill="#D4D4D6" stroke="#262933" stroke-width="0.5"/>
<path d="M58.2197 38.9438V40.7599V45.8098C58.2197 46.8165 57.7384 47.1691 57.4072 47.3233C56.085 47.9605 53.2716 49.3401 52.5962 49.7607C51.9207 50.1813 51.7306 49.681 51.72 49.3784V42.4007C51.72 41.3428 52.2616 40.8235 52.5324 40.6961C53.3715 40.2872 55.3681 39.3102 56.6426 38.6729C57.917 38.0357 58.225 38.588 58.2197 38.9438Z" fill="#8D8D8F" stroke="#262933" stroke-width="0.5"/>
<path d="M56.2765 35.3104L51.7522 37.6204L53.1541 38.6718L53.3612 42.0651L58.3634 39.3569V36.2185C58.3634 34.893 57.0602 34.8581 56.2765 35.3104Z" fill="#8D8D8F" stroke="#262933" stroke-width="0.5" stroke-linejoin="round"/>
<path d="M51.3696 38.0672L51.3867 38.7679C52.4052 38.1946 52.7715 38.9036 52.7715 39.5886V40.5683C52.2697 40.7993 52.1901 40.9507 51.9591 41.3489C52.214 41.8906 52.7507 41.9809 53.2814 42.0658C53.6796 42.1296 53.5999 40.7436 53.5999 39.947C53.5999 38.577 53.1539 37.7326 52.3255 37.5893C51.6628 37.4745 51.4121 37.8601 51.3696 38.0672Z" fill="#656565" stroke="#262933" stroke-width="0.5" stroke-linejoin="round"/>
</svg>
