<svg width="72" height="72" viewBox="0 0 72 72" fill="none" xmlns="http://www.w3.org/2000/svg">
<mask id="mask0_9_15181" style="mask-type:alpha" maskUnits="userSpaceOnUse" x="11" y="8" width="51" height="57">
<path d="M20.5624 8.90377L11.2 12.678L50.0249 64.6982C52.8629 63.3523 58.2697 60.6899 60.0017 59.8707C61.7338 59.0514 61.9523 56.7986 61.845 55.7746V23.3278C61.845 20.3318 59.5629 19.0562 58.4218 18.7929C47.7233 15.6331 25.9224 9.19635 24.3074 8.72823C22.6924 8.26011 21.1378 8.65021 20.5624 8.90377Z" fill="#DADBDB"/>
</mask>
<g mask="url(#mask0_9_15181)">
<path d="M20.5624 8.90377L11.2 12.678L50.0249 64.6982C52.8629 63.3523 58.2697 60.6899 60.0017 59.8707C61.7338 59.0514 61.9523 56.7986 61.845 55.7746V23.3278C61.845 20.3318 59.5629 19.0562 58.4218 18.7929C47.7233 15.6331 25.9224 9.19635 24.3074 8.72823C22.6924 8.26011 21.1378 8.65021 20.5624 8.90377Z" fill="#DBDBDD"/>
<path d="M50.7855 27.5999L62.43 22.7139L62.8104 35.9383L63.1615 59.52L50.2881 65.196L50.7855 61.0414V27.5999Z" fill="#8D8D8F"/>
<path d="M62.0498 20.0807C58.4024 21.7971 51.0138 25.1832 50.6393 24.996L49.1179 24.1183L60.7625 19.0859L62.0498 20.0807Z" fill="#F6F6F7"/>
<path d="M20.2113 9.89929L17.6952 9.25562L14.8864 9.08008L10.6733 12.0644L13.7747 12.8836L20.2113 9.89929Z" fill="#F6F6F7"/>
<path d="M16.9929 10.3086L51.751 20.3732C53.4285 20.7048 56.7834 22.2106 56.7834 25.5811C56.7834 28.9516 56.7834 48.5971 56.7834 57.9986C56.8224 59.1299 56.5054 61.6119 54.984 62.3141" stroke="#262933" stroke-width="0.5"/>
</g>
<path d="M20.5619 8.90329L11.1995 12.6775L50.0244 64.6977C52.8624 63.3518 58.2692 60.6894 60.0013 59.8702C61.7333 59.051 61.9518 56.7981 61.8445 55.7741V23.3273C61.8445 20.3314 59.5624 19.0557 58.4213 18.7924C47.7228 15.6326 25.9219 9.19586 24.3069 8.72774C22.6919 8.25962 21.1373 8.64972 20.5619 8.90329Z" stroke="#262933" stroke-width="0.5"/>
<mask id="mask1_9_15181" style="mask-type:alpha" maskUnits="userSpaceOnUse" x="10" y="12" width="42" height="53">
<path d="M13.6273 12.7945L18.923 14.3159C26.1009 16.4809 40.5854 20.7701 41.6855 21.0744C43.0606 21.4547 48.561 22.7421 50.3165 23.9416C51.7208 24.9013 51.9744 27.8134 51.9257 29.1495V58.4657C52.0719 60.7478 51.9871 63.247 50.375 64.4928C49.0877 65.4875 46.1521 64.8146 44.699 64.2002L19.5374 55.4521C17.2943 54.7792 12.5156 53.1993 11.3452 52.2631C10.1749 51.3268 9.99939 49.2008 10.0579 48.2548V15.8373C10.0579 13.877 10.1457 13.9063 10.7308 12.97C11.199 12.221 12.8569 12.5409 13.6273 12.7945Z" fill="#D9D9D9"/>
</mask>
<g mask="url(#mask1_9_15181)">
<path d="M13.6273 12.7945L18.923 14.3159C26.1009 16.4809 40.5854 20.7701 41.6855 21.0744C43.0606 21.4547 48.561 22.7421 50.3165 23.9416C51.7208 24.9013 51.9744 27.8134 51.9257 29.1495V58.4657C52.0719 60.7478 51.9871 63.247 50.375 64.4928C49.0877 65.4875 46.1521 64.8146 44.699 64.2002L19.5374 55.4521C17.2943 54.7792 12.5156 53.1993 11.3452 52.2631C10.1749 51.3268 9.99939 49.2008 10.0579 48.2548V15.8373C10.0579 13.877 10.1457 13.9063 10.7308 12.97C11.199 12.221 12.8569 12.5409 13.6273 12.7945Z" fill="#D4D4D6"/>
<path d="M12.2816 13.4679C13.7328 13.3274 15.2952 14.0823 19.6253 15.3111C23.9554 16.5399 36.6474 20.0918 40.369 21.3089C45.021 22.8303 50.024 23.6495 51.3406 25.7853C51.4284 21.8356 30.8895 16.6374 21.7026 14.4919C20.0056 13.936 16.0383 12.6721 13.7445 12.0635C11.4507 11.4549 9.70694 12.5121 9.12179 13.1168L8.79997 44.0714C8.72195 46.2365 8.79997 50.8358 9.73622 51.9124C10.9065 53.2583 13.8908 54.019 12.4572 52.995C11.0236 51.971 10.7604 50.391 10.7019 49.5133C10.6433 48.6356 10.8189 19.7583 10.7896 17.6517C10.7603 15.5452 10.4676 13.6434 12.2816 13.4679Z" fill="#F6F6F7"/>
</g>
<path d="M13.6276 12.7952L18.9232 14.3166C26.1011 16.4817 40.5856 20.7709 41.6857 21.0751C43.0608 21.4555 48.5613 22.7428 50.3167 23.9424C51.7211 24.902 51.9747 27.8142 51.9259 29.1503V58.4664C52.0722 60.7485 51.9874 63.2478 50.3752 64.4935C49.0879 65.4883 46.1524 64.8154 44.6992 64.2009L19.5377 55.4529C17.2946 54.78 12.5158 53.2001 11.3455 52.2638C10.1752 51.3276 9.99964 49.2015 10.0582 48.2555V15.838C10.0582 13.8778 9.99962 13.6145 10.7311 12.9708C11.4625 12.3271 12.8571 12.5417 13.6276 12.7952Z" stroke="#262933" stroke-width="0.5"/>
<path d="M46.7481 22.5962C46.5335 24.9661 47.2513 29.975 51.8389 31.0517" stroke="#262933" stroke-width="0.5"/>
<ellipse cx="49.1025" cy="27.2467" rx="0.424236" ry="0.49738" transform="rotate(-19.4472 49.1025 27.2467)" fill="#D4D4D6" stroke="#262933" stroke-width="0.5"/>
<ellipse cx="12.5451" cy="16.6261" rx="0.424236" ry="0.49738" transform="rotate(-19.4472 12.5451 16.6261)" fill="#D4D4D6" stroke="#262933" stroke-width="0.5"/>
<ellipse cx="12.6914" cy="49.4532" rx="0.424236" ry="0.49738" transform="rotate(-19.4472 12.6914 49.4532)" fill="#D4D4D6" stroke="#262933" stroke-width="0.5"/>
<ellipse cx="48.5619" cy="59.8115" rx="0.424236" ry="0.49738" transform="rotate(-7.64958 48.5619 59.8115)" fill="#D4D4D6" stroke="#262933" stroke-width="0.5"/>
<path d="M10.0293 19.1146C11.8043 19.4071 15.2489 18.623 14.8276 13.146" stroke="#262933" stroke-width="0.5"/>
<path d="M10 45.4756C11.6774 45.6901 14.9855 47.6524 14.7983 53.7848" stroke="#262933" stroke-width="0.5"/>
<path d="M51.9262 57.442C51.2338 56.9739 49.5212 56.3127 48.2105 57.4128C46.5721 58.7879 46.4258 61.0115 46.4258 64.7857" stroke="#262933" stroke-width="0.5"/>
<path d="M15.9392 18.8218L46.1916 28.1842" stroke="#F6F6F7" stroke-width="0.5" stroke-linecap="round"/>
<path d="M12.0188 20.9575L49.7612 32.9239" stroke="#F6F6F7" stroke-width="0.5" stroke-linecap="round"/>
<path d="M12.0774 24.8198L50.0831 37.0495" stroke="#F6F6F7" stroke-width="0.5" stroke-linecap="round"/>
<path d="M11.8726 24.9951L49.8783 37.2248" stroke="#262933" stroke-width="0.5" stroke-linecap="round"/>
<path d="M12.0774 28.623L49.732 40.9113" stroke="#F6F6F7" stroke-width="0.5" stroke-linecap="round"/>
<path d="M12.0188 28.9741L49.6734 41.2623" stroke="#262933" stroke-width="0.5" stroke-linecap="round"/>
<path d="M12.0774 32.4561L49.6735 44.8028" stroke="#F6F6F7" stroke-width="0.5" stroke-linecap="round"/>
<path d="M12.0188 32.8071L49.6149 45.1539" stroke="#262933" stroke-width="0.5" stroke-linecap="round"/>
<path d="M12.0188 36.2886L49.7612 48.8401" stroke="#F6F6F7" stroke-width="0.5" stroke-linecap="round"/>
<path d="M11.9602 36.6396L49.7026 49.1912" stroke="#262933" stroke-width="0.5" stroke-linecap="round"/>
<path d="M12.0481 40.2388L49.7612 52.7025" stroke="#F6F6F7" stroke-width="0.5" stroke-linecap="round"/>
<path d="M11.9895 40.5898L49.7026 53.0536" stroke="#262933" stroke-width="0.5" stroke-linecap="round"/>
<path d="M12.0481 43.8955L46.3966 55.423" stroke="#F6F6F7" stroke-width="0.5" stroke-linecap="round"/>
<path d="M11.9895 44.2471L46.338 55.7746" stroke="#262933" stroke-width="0.5" stroke-linecap="round"/>
<path d="M15.9392 48.811L44.7873 58.6416" stroke="#F6F6F7" stroke-width="0.5" stroke-linecap="round"/>
<path d="M15.8809 49.1621L44.7289 58.9927" stroke="#262933" stroke-width="0.5" stroke-linecap="round"/>
<path d="M15.6467 19.0269L45.8992 28.3893" stroke="#262933" stroke-width="0.5" stroke-linecap="round"/>
<path d="M11.9019 21.1919L49.6442 33.1583" stroke="#262933" stroke-width="0.5" stroke-linecap="round"/>
<path d="M55.6423 31.7448V29.4377C55.6423 29.2436 55.7546 29.0671 55.9304 28.9848L57.2528 28.3661C57.5829 28.2116 57.962 28.4509 57.9647 28.8154L57.9807 31.0385C57.9821 31.2257 57.8789 31.3979 57.7132 31.4848L56.3748 32.1875C56.0418 32.3623 55.6423 32.1208 55.6423 31.7448Z" fill="#8D8D8F" stroke="#262933" stroke-width="0.5"/>
<ellipse cx="57.0612" cy="30.3046" rx="0.219433" ry="0.409607" fill="#262933"/>
<path d="M55.6423 54.3034V51.9963C55.6423 51.8022 55.7546 51.6257 55.9304 51.5434L57.2528 50.9247C57.5829 50.7702 57.962 51.0095 57.9647 51.374L57.9807 53.5971C57.9821 53.7842 57.8789 53.9565 57.7132 54.0434L56.3748 54.7461C56.0418 54.9209 55.6423 54.6794 55.6423 54.3034Z" fill="#8D8D8F" stroke="#262933" stroke-width="0.5"/>
<ellipse cx="57.1198" cy="52.7172" rx="0.219433" ry="0.409607" fill="#262933"/>
<path d="M45.8178 19.8801L45.7969 18.9683L48.0657 17.9493C48.1779 17.8989 48.3047 17.8917 48.4219 17.9289L51.9264 19.0414V20.0337C51.9264 20.231 51.8104 20.4098 51.6302 20.4902L49.6004 21.3966L46.1713 20.3467C45.9652 20.2836 45.8228 20.0955 45.8178 19.8801Z" fill="#DBDBDD"/>
<path d="M45.7969 18.9683L45.8178 19.8801C45.8228 20.0955 45.9652 20.2836 46.1713 20.3467L49.6004 21.3966M45.7969 18.9683L48.0657 17.9493C48.1779 17.8989 48.3047 17.8917 48.4219 17.9289L51.9264 19.0414M45.7969 18.9683L49.5711 20.1093M49.6004 21.3966L51.6302 20.4902C51.8104 20.4098 51.9264 20.231 51.9264 20.0337V19.0414M49.6004 21.3966L49.5711 20.1093M51.9264 19.0414L49.5711 20.1093" stroke="#262933" stroke-width="0.5"/>
<path d="M19.8662 11.8928L19.8452 10.981L22.1141 9.96201C22.2262 9.91163 22.353 9.90436 22.4702 9.94156L25.9747 11.0541V12.0464C25.9747 12.2437 25.8587 12.4225 25.6786 12.5029L23.6487 13.4093L20.2197 12.3594C20.0136 12.2963 19.8711 12.1082 19.8662 11.8928Z" fill="#DBDBDD"/>
<path d="M19.8452 10.981L19.8662 11.8928C19.8711 12.1082 20.0136 12.2963 20.2197 12.3594L23.6487 13.4093M19.8452 10.981L22.1141 9.96201C22.2262 9.91163 22.353 9.90436 22.4702 9.94156L25.9747 11.0541M19.8452 10.981L23.6195 12.122M23.6487 13.4093L25.6786 12.5029C25.8587 12.4225 25.9747 12.2437 25.9747 12.0464V11.0541M23.6487 13.4093L23.6195 12.122M25.9747 11.0541L23.6195 12.122" stroke="#262933" stroke-width="0.5"/>
<path d="M31.0072 15.0192L27.4662 13.9998C27.2719 13.9439 27.1263 13.7762 27.1226 13.574C27.1113 12.9626 27.2874 12.5626 27.582 12.3082C28.3492 11.646 29.9201 11.9713 31.0804 12.1227C31.44 12.1696 31.7303 12.2607 31.963 12.3762C32.6015 12.693 32.8069 13.1934 32.8212 13.4685V13.9984C32.8212 14.2075 32.6911 14.3945 32.4951 14.4672L31.0072 15.0192Z" fill="#D4D4D6"/>
<path d="M31.0072 15.0192L27.4662 13.9998C27.2719 13.9439 27.1263 13.7762 27.1226 13.574C27.1113 12.9626 27.2874 12.5626 27.582 12.3082M31.0072 15.0192L32.4951 14.4672C32.6911 14.3945 32.8212 14.2075 32.8212 13.9984V13.4685C32.8069 13.1934 32.6015 12.693 31.963 12.3762M31.0072 15.0192C31.0072 13.7026 31.0511 13.41 30.3342 12.9126M27.582 12.3082C28.3492 11.646 29.9201 11.9713 31.0804 12.1227C31.44 12.1696 31.7303 12.2607 31.963 12.3762M27.582 12.3082C28.1971 12.3195 29.7608 12.5147 30.3342 12.9126M30.3342 12.9126C30.6399 12.7013 31.2414 12.2396 31.963 12.3762" stroke="#262933" stroke-width="0.5"/>
<path d="M43.4418 18.8517L39.9008 17.8323C39.7065 17.7764 39.5609 17.6087 39.5572 17.4066C39.5459 16.7951 39.722 16.3951 40.0166 16.1407C40.7838 15.4785 42.3546 15.8039 43.515 15.9552C43.8745 16.0021 43.9258 15.9348 44.1586 16.0503C44.797 16.3671 45.2415 17.0259 45.2558 17.301V17.831C45.2558 18.04 45.1257 18.227 44.9297 18.2998L43.4418 18.8517Z" fill="#D4D4D6"/>
<path d="M43.4418 18.8517L39.9008 17.8323C39.7065 17.7764 39.5609 17.6087 39.5572 17.4066C39.5459 16.7951 39.722 16.3951 40.0166 16.1407M43.4418 18.8517L44.9297 18.2998C45.1257 18.227 45.2558 18.04 45.2558 17.831V17.301C45.2415 17.0259 44.797 16.3671 44.1586 16.0503M43.4418 18.8517C43.4418 17.5351 43.5305 17.1633 42.7688 16.7378M40.0166 16.1407C40.7838 15.4785 42.3546 15.8039 43.515 15.9552C43.8745 16.0021 43.9258 15.9348 44.1586 16.0503M40.0166 16.1407C40.4575 15.8382 41.145 15.8308 42.7688 16.7378M42.7688 16.7378C43.2442 16.4818 43.5515 16.2185 44.1586 16.0503" stroke="#262933" stroke-width="0.5"/>
<path d="M30.2172 12.7371L28.6519 12.3567C28.6812 11.5375 28.4981 9.61666 28.9738 8.3484C29.4786 7.0025 32.4408 7.2951 33.8744 7.67545L41.7155 10.0746L43.1199 12.4152L42.7395 16.6868L41.262 16.0724C41.2571 15.9554 41.2503 15.42 41.262 14.2145C41.2737 13.0091 40.1941 12.3664 39.6528 12.1958C37.4146 11.5862 32.6485 10.2794 31.4899 9.92832C30.3313 9.57723 30.1587 10.3087 30.2172 10.7183V12.7371Z" fill="#DADAD9" stroke="#262933" stroke-width="0.5" stroke-linejoin="round"/>
<path d="M35.3372 8.39168C33.8012 7.90892 30.8901 7.3384 29.7344 7.63098C29.501 7.69006 29.3615 7.75627 29.2151 7.93087C29.6885 7.25768 30.2171 6.97269 31.7824 7.00195C33.3477 7.03121 39.3163 8.40632 41.6715 9.47422C43.5557 10.3285 44.0268 11.9758 44.0268 12.6926V16.0718L42.7687 16.6862V13.2338C42.7687 12.0782 42.3152 10.864 40.7938 10.1618C39.2724 9.45959 36.8733 8.87443 35.3372 8.39168Z" fill="#989997"/>
<path d="M28.6665 12.634L28.7177 9.86191C28.7323 9.34993 28.7815 8.448 29.2151 7.93087M29.2151 7.93087C29.3615 7.75627 29.501 7.69006 29.7344 7.63098C30.8901 7.3384 33.8012 7.90892 35.3372 8.39168C36.8733 8.87443 39.2724 9.45959 40.7938 10.1618C42.3152 10.864 42.7687 12.0782 42.7687 13.2338C42.7687 14.1584 42.7687 15.9207 42.7687 16.6862L44.0268 16.0718V12.6926C44.0268 11.9758 43.5557 10.3285 41.6715 9.47422C39.3163 8.40632 33.3477 7.03121 31.7824 7.00195C30.2171 6.97269 29.6885 7.25768 29.2151 7.93087Z" stroke="#262933" stroke-width="0.5" stroke-linejoin="round"/>
<path d="M31.2996 12.4297L30.4073 12.9125L30.261 12.6784V10.4183C30.261 9.82727 30.9339 9.80142 31.2704 9.86238L31.2996 12.4297Z" fill="#9D9F9D" stroke="#262933" stroke-width="0.5" stroke-linejoin="round"/>
<path d="M28.127 26.2712C29.2002 26.2558 30.4101 27.5967 30.9509 28.3551C31.0002 28.4243 31.077 28.4618 31.1406 28.4479C31.8351 28.2957 33.2503 28.2698 34.1527 29.2487C35.2571 30.4468 34.0319 31.9647 33.3846 32.4085C33.33 32.446 33.3164 32.5271 33.3503 32.6082C33.7389 33.5387 34.2808 36.0067 32.9367 35.9838C31.8564 35.9654 30.6912 34.6413 30.1665 33.8758C30.1185 33.8057 30.0421 33.7661 29.9777 33.7781C29.2722 33.9096 27.8144 33.9085 26.9292 32.9079C25.869 31.7094 27.0732 30.2764 27.7466 29.8251C27.801 29.7887 27.8147 29.7088 27.7809 29.6287C27.3725 28.6624 26.8205 26.29 28.127 26.2712Z" fill="#262933"/>
<path d="M28.6821 33.8707C29.9042 34.2698 31.0807 34.9146 32.0375 36.0362C34.0384 35.8671 36.8911 36.602 38.9377 37.7556C41.8609 39.4038 45.1086 42.6065 44.1475 46.1738C43.4662 48.7031 39.8853 48.8914 37.4844 48.3906C35.7412 48.027 33.9678 47.3151 32.3379 46.1106C29.7154 47.1416 26.1923 46.5257 23.0907 45.1369C20.4177 43.9403 17.1927 41.2375 16.5895 37.8748C15.8796 33.9169 19.5219 32.7742 22.943 34.436C24.4307 33.5971 26.7137 33.228 28.6821 33.8707ZM28.8814 34.8553C26.8181 34.1563 24.654 34.5637 23.1272 35.4763C22.4281 35.1839 21.7921 34.8702 21.0875 34.7538C17.4439 34.1513 16.4155 38.6264 19.4438 41.7192C22.4708 44.811 28.3403 46.2562 31.4383 45.345C31.5863 45.3013 32.1091 45.0646 32.2138 45.0868C32.4138 45.1294 32.8042 45.4826 33.0196 45.6242C35.4638 47.2322 38.3223 47.9222 40.6707 47.5704C43.8947 47.0875 44.6128 43.8973 41.263 40.9474C38.9866 38.9433 35.3239 37.0328 32.8029 36.9666C32.6242 36.9619 31.9478 37.0309 31.848 36.9802C31.7269 36.9185 31.6714 36.7661 31.5824 36.6625C30.8157 35.7695 29.8665 35.1889 28.8814 34.8553Z" fill="#262933"/>
<path d="M30.574 32.0399C31.0023 31.6526 30.9309 30.8061 30.8416 30.4313C31.0042 30.1414 31.3388 30.0353 31.5395 30.0978C31.7403 30.1602 32.2852 30.3798 32.3234 31.5931C32.3425 32.9906 31.5013 33.0492 31.2623 32.9749C31.0233 32.9005 30.7461 32.7342 30.574 32.0399Z" fill="white"/>
<path d="M29.8572 29.2643C30.2472 29.3857 30.4652 29.9773 30.5025 30.1258C30.5397 30.2744 30.5665 30.4341 30.5742 30.9891C30.5837 31.6829 30.0292 32.4114 29.5513 32.1826C29.0733 31.9538 28.7578 31.4452 28.7865 30.5631C28.8152 29.681 29.3696 29.1126 29.8572 29.2643Z" fill="white"/>
<path d="M43.2288 44.2107C43.2606 43.4208 43.0045 41.8225 40.93 39.996C39.7562 38.9623 38.2635 37.9819 36.7269 37.2351C34.6222 36.2121 33.167 35.9708 32.3169 35.9483C32.1731 35.9445 31.6694 35.9548 31.4527 35.9599C31.0836 35.5736 29.632 34.1275 28.0369 33.5385C26.0452 32.8033 24.3499 33.0864 22.7102 34.4304C22.0269 34.1442 21.3219 33.8531 20.6275 33.7384C18.8659 33.4472 17.5276 34.2864 17.1352 35.9287C16.95 36.7026 17.0009 37.5757 17.282 38.4534C17.583 39.394 18.1412 40.2988 18.8961 41.0695C20.002 42.199 21.5215 43.1667 23.2785 43.8745C23.8272 44.0954 24.3988 44.2911 24.9882 44.4584C27.2784 45.1083 29.567 45.2256 31.1102 44.7715C31.1647 44.7555 31.2504 44.7216 31.3588 44.679C31.4918 44.6266 31.7334 44.5313 31.8152 44.5192C31.9084 44.5517 32.1251 44.7188 32.2578 44.8209C32.354 44.8952 32.4453 44.9655 32.5228 45.0164C34.9673 46.6249 37.8827 47.3666 40.3223 47.0016C41.1858 46.8722 41.9095 46.545 42.4158 46.0549C42.9185 45.5685 43.1996 44.9307 43.2288 44.2107Z" fill="#F5DF4D"/>
<path d="M21.4036 38.2063C21.3534 38.1831 21.333 38.3067 21.3255 38.3415C21.1827 39.0186 21.136 39.7781 20.9948 40.4426C20.9538 40.6358 20.8776 40.6994 20.6711 40.6513C20.1237 40.5236 20.1375 39.9824 20.0719 39.544C19.9904 38.9996 19.9546 38.4585 19.8683 37.9136L19.7461 38.4957C19.6726 38.7852 19.7363 39.7146 19.5688 39.8811C19.4562 39.9932 18.9125 39.7835 18.7995 39.6008C18.7463 39.5149 18.727 39.3339 18.726 39.2435C18.7191 38.6189 18.8048 36.3542 18.835 35.8893C18.8724 35.3179 18.9194 35.0806 19.5508 35.2578C19.866 35.3462 20.0032 35.3906 20.0919 35.7417C20.26 36.4065 20.3542 37.1185 20.526 37.7903L20.6153 37.8889L21.157 35.344C21.272 35.2285 21.971 35.3852 22.1542 35.4679C22.3102 35.5385 22.4038 35.6398 22.4225 35.8164C22.4031 37.6823 22.436 39.5642 22.5716 41.4718C22.4993 41.7374 21.6689 41.4567 21.553 41.0982C21.4962 40.9224 21.4929 40.4419 21.4821 40.2405C21.4453 39.5605 21.447 38.8877 21.4036 38.2063Z" fill="#262933"/>
<path d="M36.1518 38.187C36.2023 38.3082 36.1826 38.408 36.1524 38.5065C36.0191 38.938 35.6396 39.5115 35.4412 39.9345C35.2807 40.2764 35.1241 40.6222 34.9734 40.9713L35.9567 44.6991C35.9817 44.8052 35.9916 44.9341 35.9554 45.0184C35.8848 45.1844 35.0797 45.0419 34.9931 44.7468C34.7232 43.8647 34.5189 42.9803 34.2697 42.0978C34.2247 41.9387 34.1738 41.7304 34.0954 41.5819L34.0392 44.2105C33.9515 44.4187 33.2574 44.1467 33.1317 43.9409C33.0555 43.8164 33.0351 43.5097 33.024 43.3701C32.9672 42.6533 32.9895 41.902 32.954 41.1818C32.9041 40.1708 32.8082 39.1445 32.799 38.1438C32.7971 37.9187 32.7485 37.4317 32.9159 37.3449C33.0673 37.2662 33.7936 37.4258 33.9016 37.6602C34.0143 38.3875 33.9378 39.0728 34.0024 39.79C34.008 39.8509 33.9739 39.8413 34.0648 39.8703L34.7852 37.8807C34.8184 37.7831 34.9005 37.6739 35.0078 37.673C35.1464 37.6714 36.0661 38.0551 36.1518 38.187Z" fill="#262933"/>
<path d="M28.7662 37.1977C28.756 37.3176 28.9651 41.8966 28.9441 42.8576C28.9379 43.1379 28.9454 43.2375 28.6742 43.259C28.0937 43.3049 27.92 43.1069 27.8852 42.4942C27.8297 41.5213 27.8803 40.5292 27.8491 39.5547C27.8222 38.7176 27.7634 37.8675 27.7089 37.0238C27.5969 36.8718 25.7391 36.7726 25.4564 36.6905C25.159 36.5316 25.0578 35.6006 25.1951 35.4151C25.311 35.258 25.968 35.1943 26.1909 35.1839C27.0371 35.1446 28.0507 35.3462 28.9444 35.6717C29.1953 35.7631 30.024 36.088 30.1859 36.3003C30.3645 36.5346 30.2549 37.5255 30.0575 37.6057C29.9255 37.6591 29.4104 37.4074 29.1996 37.3381C29.1392 37.3182 28.7688 37.1673 28.7662 37.1977Z" fill="#262933"/>
<path d="M23.9019 40.912C24.138 41.0562 24.1889 38.27 24.3557 36.9607C24.4276 36.7902 24.7734 36.9421 24.9277 37.0214C25.039 37.0787 25.1881 37.1526 25.1979 37.3004C25.0643 38.4705 25.0584 39.7452 24.8978 40.8987C24.7957 41.6324 24.533 42.7259 23.5588 42.2207C22.8568 41.8566 22.7494 40.5892 22.7402 39.9913C22.7235 38.8776 22.7544 37.9704 22.7951 36.9553C22.8062 36.6766 22.7993 36.1946 22.8374 35.9425C22.8877 35.6106 23.3418 35.7783 23.6061 35.9087C23.9975 36.1013 23.9591 36.2694 23.9509 36.6443C23.9259 37.7832 23.7486 38.9167 23.7611 40.0776C23.7621 40.1346 23.7801 40.9524 23.9019 40.912Z" fill="#262933"/>
<path d="M38.0804 41.6322C38.2035 41.7015 38.2495 41.8467 38.2482 41.9714C38.2472 42.0746 38.1431 42.5382 38.0935 42.5926C37.9556 42.7425 37.5892 42.5728 37.3183 42.4483C37.2277 42.4067 37.1449 42.4497 37.1364 42.5423L37.0753 43.2149C37.0658 43.3246 37.1443 43.3879 37.2349 43.4243C37.3945 43.4709 37.9267 43.5695 38.0098 43.7012C38.1297 43.8914 38.0321 44.6403 37.951 44.8014C37.8942 44.9147 37.7816 44.9178 37.6542 44.8936C37.4017 44.846 36.4731 44.5609 36.242 44.4378C36.0588 44.3399 35.9662 44.2035 35.9517 44.0041C35.9393 43.8318 35.956 43.5139 35.9642 43.3318C36.0177 42.1317 36.176 40.7988 36.3875 39.667C36.436 39.4071 36.5533 38.7269 36.6583 38.5431C36.7421 38.3969 36.9118 38.4772 37.0704 38.5479C37.3682 38.6804 38.4662 39.2805 38.7095 39.4803C38.7952 39.5506 38.855 39.6486 38.875 39.7524C38.9128 39.9484 38.8172 40.667 38.6195 40.6491C38.4577 40.6345 37.9392 40.256 37.6792 40.1362C37.6027 40.1011 37.5301 40.1297 37.5107 40.2021C37.3925 40.6414 37.3163 40.8717 37.2937 41.1977C37.2907 41.2401 37.2996 41.3181 37.361 41.3427C37.5708 41.4269 37.8903 41.5253 38.0804 41.6322Z" fill="#262933"/>
<path d="M27.4148 39.57C27.3285 39.6167 26.7506 39.4139 26.6508 39.3368C26.5434 39.2539 26.5585 38.8695 26.5348 38.7373C26.4954 38.5154 26.4203 38.3394 26.3244 38.6031C26.0328 39.4068 26.8169 39.8968 27.2089 40.6162C27.6936 41.5057 27.6936 42.8497 26.9023 43.1122C26.2833 43.3177 25.5124 42.6643 25.2504 41.927C25.1443 41.629 25.0619 41.0248 25.161 40.7934C25.2251 40.6442 25.9162 40.8493 26.0525 40.9731C26.2216 41.1268 26.2016 41.8764 26.3848 41.9506C26.5522 42.0185 26.5851 41.5547 26.5792 41.4391C26.547 40.8265 25.6956 40.0835 25.4605 39.347C25.1561 38.3937 25.427 36.8634 26.5657 37.3899C27.3738 37.764 27.712 38.9571 27.4148 39.57Z" fill="#262933"/>
<path d="M31.5368 38.7426C31.4685 38.7406 31.4301 38.8225 31.4078 38.8781C31.2702 39.2224 31.2942 39.732 31.3145 40.1495C31.3464 40.8039 31.4298 42.0504 31.6724 42.1252C31.7375 42.1623 31.7664 42.1345 31.7821 42.0789C31.9213 41.5904 31.505 41.0319 32.294 41.2912C32.712 41.4284 32.7231 41.4659 32.7517 41.8952C32.7855 42.4065 32.7107 43.1982 32.2901 43.386C31.8379 43.5877 31.2426 43.2035 30.934 42.6599C30.2812 41.5105 30.0757 38.3499 30.7189 37.6055C31.2118 37.0356 32.1292 37.6606 32.4161 38.4934C32.5051 38.7517 32.6342 39.4594 32.5061 39.6395C32.4253 39.7533 31.8261 39.6411 31.722 39.5066C31.5894 39.3498 31.7138 38.7702 31.5368 38.7426Z" fill="#262933"/>
<path d="M29.5523 38.2072C29.6761 38.2409 29.9079 38.3092 29.9831 38.4446C30.0777 38.615 30.0787 40.0112 30.0957 40.3097C30.1463 41.2023 30.2126 42.1008 30.2852 42.9985C30.3177 43.4249 29.2874 43.2618 29.2834 42.7993C29.2877 41.4477 29.0513 39.9023 29.1041 38.5778C29.1199 38.1833 29.1422 38.0957 29.5523 38.2072Z" fill="#262933"/>
<path d="M40.081 40.3305C39.6407 40.0281 39.4614 39.8129 39.3166 40.3092C39.0697 41.1556 38.3749 44.1585 38.2984 44.6682C38.28 44.7914 38.2445 44.979 38.3529 45.1018C38.4645 45.2283 39.0093 45.4899 39.1094 45.4372C39.2184 45.3796 39.4781 44.2443 39.5596 43.9998C39.5737 43.9571 39.6019 43.8624 39.6325 43.7644C39.6482 43.7143 39.7234 43.7407 39.7352 43.8005C39.7434 43.8418 39.9769 45.253 40.2474 45.3248C40.365 45.3558 40.9445 45.4976 41.023 45.4488C41.0857 45.4099 41.0808 45.3039 41.0726 45.223C41.0529 45.0288 40.7196 43.9836 40.7409 43.9191C41.1015 43.8787 41.4472 43.8295 41.6708 43.5443C42.4982 42.488 41.1192 41.0436 40.081 40.3305ZM40.6789 42.7913C40.5233 42.9199 40.121 42.8803 39.8991 42.6405L40.2071 41.4397C40.7518 41.6934 41.107 42.4378 40.6789 42.7913Z" fill="#262933"/>
<path d="M27.8649 32.6959C29.087 33.095 30.7311 34.0321 31.6879 35.154C35.3272 34.4263 45.0223 39.6998 43.7992 45.3171C42.1614 49.2833 35.7777 47.9613 31.9893 45.2541C27.7129 46.8516 17.968 44.3946 16.516 37.437C16.0567 33.5138 19.0318 31.8463 22.4525 33.5079C23.8151 31.9866 25.8962 32.0532 27.8649 32.6959ZM28.3877 33.8588C25.9819 32.9089 24.2275 33.3733 22.7785 34.6199C18.2769 31.9717 15.1599 36.6233 19.0952 40.8628C22.4466 44.2064 28.6395 45.5845 31.8652 44.23C34.5198 46.1504 37.6949 47.1396 40.322 46.714C43.546 46.2314 44.2727 43.027 40.9144 40.0913C35.4921 35.3507 31.5723 36.085 31.5723 36.085C30.5954 35.1139 29.5037 34.2992 28.3877 33.8588Z" fill="#262933"/>
<path d="M32.0803 31.3592C32.3939 31.7851 32.2556 32.3581 32.1472 32.5914C31.7075 33.3356 31.3139 32.7726 31.1721 32.3981L31.5927 32.1235L31.2343 31.6165C31.3856 31.3533 31.7667 30.9332 32.0803 31.3592Z" fill="#262933"/>
<path d="M30.2905 30.4653C30.6247 30.7338 30.6091 31.3347 30.5191 31.6567C30.4291 31.9787 29.9937 32.1279 29.7416 32.0214C29.5399 31.9361 29.4373 31.6707 29.4112 31.5487L29.8549 31.277L29.5297 30.726C29.6441 30.5273 29.9563 30.1969 30.2905 30.4653Z" fill="#262933"/>
</svg>
