<svg width="72" height="72" viewBox="0 0 72 72" fill="none" xmlns="http://www.w3.org/2000/svg">
<mask id="mask0_9_15072" style="mask-type:alpha" maskUnits="userSpaceOnUse" x="19" y="11" width="33" height="55">
<path d="M23.1124 61.143L19.2002 12.4127L51.1885 11.8374C49.9611 27.4384 47.4833 58.9338 47.3913 60.1075C47.2762 61.5745 47.3338 62.4375 45.0037 63.6457C39.2216 66.2347 28.3479 64.4224 25.9028 63.8471C23.9467 63.3868 23.2275 61.8526 23.1124 61.143Z" fill="#D9D9D9"/>
</mask>
<g mask="url(#mask0_9_15072)">
<path d="M23.1124 61.143L19.2002 12.4127L51.1885 11.8374C49.9611 27.4384 47.4833 58.9338 47.3913 60.1075C47.2762 61.5745 47.3338 62.4375 45.0037 63.6457C39.2216 66.2347 28.3479 64.4224 25.9028 63.8471C23.9467 63.3868 23.2275 61.8526 23.1124 61.143Z" fill="#D4D4D6"/>
<g filter="url(#filter0_f_9_15072)">
<path d="M45.0901 64.1351L47.5065 13.3912L52.1091 11.0898L47.7366 64.1351H45.0901Z" fill="#BABABA"/>
</g>
<g filter="url(#filter1_f_9_15072)">
<path d="M42.3284 66.2062L43.5941 13.1609L47.9666 12.3555L45.0899 65.2857L42.3284 66.2062Z" fill="white"/>
</g>
<g filter="url(#filter2_f_9_15072)">
<path d="M43.8243 13.8516L37.8409 13.9666L37.0354 65.6311L42.9037 66.0914L43.8243 13.8516Z" fill="#BDBFBE"/>
</g>
<g filter="url(#filter3_f_9_15072)">
<path d="M38.0711 14.0817L30.1316 13.8516L31.1672 65.6311L37.4958 65.8612L38.0711 14.0817Z" fill="#838381"/>
</g>
<g filter="url(#filter4_f_9_15072)">
<path d="M24.3782 13.3911L30.3616 14.0815L31.7424 65.9761L27.0247 65.0556L24.3782 13.3911Z" fill="#C0C0C0"/>
</g>
<g filter="url(#filter5_f_9_15072)">
<path d="M25.2987 13.8516L18.74 11.8955L22.307 62.7545L27.2549 65.5161L25.2987 13.8516Z" fill="#A0A0A0"/>
</g>
<path d="M22.7959 57.8636C23.9274 58.7362 27.5136 60.4986 32.8066 60.5677C39.4229 60.654 44.8597 60.2225 47.6213 57.7773" stroke="#262933" stroke-width="0.5"/>
</g>
<path d="M23.1122 61.1426L19.2 12.4122L51.1882 11.8369C49.9608 27.4379 47.4831 58.9333 47.391 60.107C47.276 61.5741 47.3335 62.437 45.0034 63.6452C39.2214 66.2342 28.3477 64.4219 25.9025 63.8466C23.9464 63.3863 23.2273 61.8521 23.1122 61.1426Z" stroke="#262933" stroke-width="0.5"/>
<path d="M37.984 14.8286C29.3541 15.2659 21.8077 13.4382 19.1132 12.4698C19.1132 11.952 19.1075 10.6863 19.0845 9.76573C21.1269 7.86715 23.083 8.12605 26.7651 7.49319C30.4472 6.86033 37.0635 6.83156 43.2483 7.43566C48.1961 7.91893 50.6221 9.43972 51.2166 10.1397L51.2741 12.2109C50.4399 12.9013 46.6139 14.3914 37.984 14.8286Z" fill="url(#paint0_linear_9_15072)"/>
<path d="M20.8968 10.4269C20.4826 9.92059 21.2037 9.42965 21.616 9.24746C24.6366 8.26939 32.2307 7.75161 37.3512 7.83791C41.4475 7.90695 46.1345 8.71049 47.966 9.10364C47.8988 9.18993 47.6898 9.5754 47.3906 10.4269C46.6427 10.0817 41.1196 9.21869 34.5608 9.04609C29.3138 8.90802 23.8213 10.2351 21.731 10.9159C21.6255 10.9639 21.3111 10.9332 20.8968 10.4269Z" fill="#FEFEFE"/>
<path d="M22.1193 11.0737C21.6591 10.8781 22.1481 10.6662 22.4501 10.5847C22.6468 10.5367 23.3478 10.369 24.579 10.0813C26.118 9.72171 32.4897 9.1176 36.1287 9.0313C39.0399 8.96226 44.8305 9.94223 47.362 10.4409L47.3476 11.1312C47.362 11.2367 46.8816 11.5196 44.8449 11.8073C42.2991 12.1668 34.187 12.2388 30.059 12.1381C25.931 12.0374 22.6947 11.3182 22.1193 11.0737Z" fill="#CBC9C7"/>
<path d="M27.6467 10.7213C27.6467 10.7213 27.4917 9.87261 27.9558 9.73242C28.4198 9.59222 34.7043 8.83027 38.5878 9.16108C41.6946 9.42573 45.7506 10.1343 47.3903 10.4556L47.2609 11.3329C47.0068 11.3905 46.2857 11.5343 45.4342 11.6494C43.7514 10.6138 38.2857 10.398 36.344 10.3837C34.4023 10.3693 28.8247 10.8602 28.3192 10.9658C27.8373 11.0665 27.7258 10.937 27.6467 10.7213Z" fill="#939393"/>
<path d="M26.5719 11.2439C27.2264 10.8699 26.5548 9.94167 26.2051 9.99967L22.479 10.6007L21.9756 10.9459L22.2776 11.1617L24.6221 11.7082C25.1159 11.526 26.0721 11.3661 26.5719 11.2439Z" fill="#939393"/>
<path d="M34.4171 11.1172C29.8605 11.1172 26.7748 11.5007 25.9885 11.7788C29.1183 12.6763 39.5327 12.1815 43.7806 11.9226C42.7018 11.448 38.9737 11.1172 34.4171 11.1172Z" fill="#939393"/>
<path d="M23.8886 12.2101C20.7674 11.6204 19.746 10.4338 19.4297 9.91602C18.696 10.2037 19.1191 11.6521 19.1421 12.2964C20.4942 13.6485 26.2475 15.058 38.5595 14.7416C48.4091 14.4884 51.0249 12.8334 51.1016 12.0375L51.1592 11.2033C51.1592 10.9636 51.0499 10.4496 50.6126 10.3116C49.0736 12.0951 45.5497 12.2101 42.069 12.6704C38.5882 13.1307 27.9036 12.9687 23.8886 12.2101Z" fill="url(#paint1_linear_9_15072)"/>
<path d="M48.1101 8.67223C47.6383 9.3166 47.3574 10.6763 47.2759 11.2756C47.7074 11.2276 48.7142 11.0512 49.2895 10.729C49.3701 10.4759 49.558 10.3023 49.6419 10.2472H50.807C50.9052 10.3623 51.1104 10.6456 51.145 10.8585C51.1795 11.0714 51.1785 11.628 51.1737 11.8797H52.8422L53.1946 11.592V10.8441L52.8925 10.5852L52.0718 10.5852C52.0461 10.14 52.0068 9.54716 51.9648 9.16126C51.6886 8.7125 51.0251 8.2743 50.7278 8.11129L48.9299 8.08252L48.1101 8.67223Z" fill="#5B5B5B"/>
<path d="M52.0943 11.0023C52.0891 10.8958 52.0814 10.7507 52.0718 10.5852M52.0718 10.5852C52.0461 10.14 52.0068 9.54716 51.9648 9.16126C51.6886 8.7125 51.0251 8.2743 50.7278 8.11129L48.9299 8.08252L48.1101 8.67223C47.6383 9.3166 47.3574 10.6763 47.2759 11.2756C47.7074 11.2276 48.7142 11.0512 49.2895 10.729C49.3701 10.4759 49.558 10.3023 49.6419 10.2472H50.807C50.9052 10.3623 51.1104 10.6456 51.145 10.8585C51.1795 11.0714 51.1785 11.628 51.1737 11.8797H52.8422L53.1946 11.592V10.8441L52.8925 10.5852L52.0718 10.5852Z" stroke="#262933" stroke-width="0.5" stroke-linecap="round" stroke-linejoin="round"/>
<path d="M48.5847 10.9448L48.9319 9.99951C49.0041 9.80269 49.1915 9.67188 49.4012 9.67188H51.0355C51.2144 9.67188 51.3797 9.76747 51.4689 9.92256L52.0942 11.0095" stroke="#262933" stroke-width="0.5" stroke-linecap="round"/>
<path d="M49.1602 10.7942C48.2492 11.149 45.5904 11.883 41.379 12.1821C36.1147 12.5561 26.1615 12.0958 24.0328 11.6643C21.9041 11.2328 19.3151 10.226 21.6452 9.24796C23.9753 8.2699 32.2024 7.78087 37.294 7.86717C42.3857 7.95347 47.1034 8.81649 47.7938 9.13292" stroke="#262933" stroke-width="0.5"/>
<path d="M51.2165 11.8363C51.0822 12.2773 50.1694 13.2803 47.5919 13.7636C44.3701 14.3677 38.1853 14.8855 35.021 14.7992C31.8567 14.7129 24.4637 14.6841 20.2926 12.9869C19.6252 12.7338 19.2858 12.4979 19.1995 12.4116V9.85138C19.4679 9.44865 20.7989 8.4936 23.9747 7.89526C27.9445 7.14733 35.4525 7.06104 37.5237 7.06104C39.5949 7.06104 45.6933 7.57883 48.2823 8.49936" stroke="#262933" stroke-width="0.5"/>
<path d="M21.7021 10.9161C22.2871 10.5805 24.8549 9.77121 30.4471 9.21889C37.4374 8.5285 45.3481 9.85175 47.333 10.4558" stroke="#262933" stroke-width="0.5"/>
<path d="M24.3489 11.6924C24.7133 11.5486 25.6491 11.2149 26.4776 11.0308" stroke="#262933" stroke-width="0.5" stroke-linecap="round"/>
<path d="M28.0308 10.7723C31.3773 10.3599 40.5211 9.79422 45.7221 11.6353" stroke="#262933" stroke-width="0.5" stroke-linecap="round"/>
<mask id="mask1_9_15072" style="mask-type:alpha" maskUnits="userSpaceOnUse" x="23" y="20" width="24" height="24">
<path d="M24.2923 42.7041L23.8608 20.6978C35.2754 22.4698 43.5562 21.2444 46.2699 20.4102C46.2123 25.9813 46.1088 38.2281 46.1548 42.6466C37.9852 44.7638 28.1758 43.5671 24.2923 42.7041Z" fill="#EE478A"/>
</mask>
<g mask="url(#mask1_9_15072)">
<path d="M24.2923 42.7041L23.8608 20.6978C35.2754 22.4698 43.5562 21.2444 46.2699 20.4102C46.2123 25.9813 46.1088 38.2281 46.1548 42.6466C37.9852 44.7638 28.1758 43.5671 24.2923 42.7041Z" fill="#EE478A"/>
<path d="M29.7722 38.1169C30.3246 37.2885 32.5051 35.6622 33.5263 34.9526C34.0584 35.1636 35.1457 35.8271 35.2378 36.7937C33.857 38.7613 32.62 40.0587 32.1741 40.4614C32.4522 40.495 33.0544 40.6915 33.2385 41.2093C37.122 40.6484 36.374 43.7264 36.3021 44.1867C34.7947 45.3833 27.5045 44.1771 24.0477 43.4243C23.3286 41.8614 22.3217 38.2924 24.0477 36.5204C25.7737 34.7484 27.2408 36.1656 27.7586 37.0957C28.2524 37.0909 29.3465 37.2885 29.7722 38.1169Z" fill="#08C1E4"/>
<path d="M33.6783 35.3759L33.7275 35.3332C34.0008 35.3188 34.6552 35.4281 35.0004 36.2106C34.0339 37.902 31.6563 40.1875 30.6207 41.1224C31.0954 41.2279 32.0015 41.6373 31.8289 42.4313C34.3748 42.2587 34.4323 44.071 33.8857 44.3299C33.4485 44.537 27.1448 44.0038 24.0476 43.7114C23.3908 41.9614 22.3648 38.3522 23.5154 37.9149C24.9537 37.3684 25.9174 37.5554 26.8092 38.8786C27.9311 38.519 28.7509 38.6341 29.3119 39.5402C30.4436 38.1821 32.6747 36.2466 33.6783 35.3759Z" fill="#F680B3"/>
<path d="M31.0094 39.9438C30.4197 40.4903 29.0533 40.965 30.0745 39.8143C30.7409 39.0904 32.1169 37.5936 32.2895 37.3979C32.5052 37.1534 32.16 37.3404 31.9443 37.5346C31.7285 37.7288 30.8152 37.9373 31.4624 37.3476C32.1097 36.7579 32.6562 36.2473 32.9223 36.0459C32.8533 36.8399 32.9751 37.4267 33.0446 37.6209L33.7278 37.5489C33.7853 37.5681 33.8285 37.6741 33.5408 37.9445C33.2531 38.2149 32.715 38.764 32.534 38.8794C32.353 38.9948 32.203 38.8724 32.4812 38.5463C31.9838 39.0359 31.3596 39.6192 31.0094 39.9438Z" fill="#EF478A"/>
<path d="M31.6992 37.196C32.2055 36.6437 33.3293 35.6809 33.8279 35.2686C34.8635 34.7556 36.5263 34.2532 34.8923 36.3474C32.8499 38.9651 32.1164 39.0514 32.6054 38.4185C33.0944 37.7857 32.9218 37.7281 32.6628 38.0158C30.9944 39.6123 30.671 39.1018 31.347 38.397C32.023 37.6922 33.0081 36.6206 32.4759 37.0665C31.9437 37.5124 31.0663 37.8864 31.6992 37.196Z" fill="#FCC627"/>
<path d="M25.6298 39.7993C25.6989 38.1079 24.2107 37.8288 23.458 37.9007L23.2566 43.0212C25.4908 43.865 29.9707 45.2534 30.0167 44.0568C30.0742 42.5609 29.2112 41.6116 27.8017 41.5253C27.8161 40.7486 27.2551 39.8137 25.6298 39.7993Z" fill="#EC4689"/>
</g>
<path d="M24.2923 42.7041L23.8608 20.6978C35.2754 22.4698 43.5562 21.2444 46.2699 20.4102C46.2123 25.9813 46.1088 38.2281 46.1548 42.6466C37.9852 44.7638 28.1758 43.5671 24.2923 42.7041Z" stroke="#262933" stroke-width="0.5" stroke-linejoin="round"/>
<path d="M44.6124 41.5056C44.5691 41.5099 44.5249 41.5095 44.4798 41.5045C44.451 41.5019 44.4213 41.4968 44.3909 41.4894C44.36 41.4818 44.341 41.4517 44.3443 41.4202L44.353 41.3396C44.3577 41.2961 44.4023 41.2685 44.4454 41.2758C44.4526 41.2771 44.4599 41.2782 44.4673 41.2791C44.5048 41.283 44.5395 41.2834 44.5715 41.2802C44.6223 41.2751 44.6585 41.262 44.6802 41.2409C44.7017 41.2188 44.7108 41.1908 44.7074 41.1569C44.7044 41.1268 44.6927 41.1042 44.6722 41.0892C44.6517 41.0741 44.6264 41.0681 44.5963 41.0711C44.5608 41.0746 44.5292 41.0876 44.5014 41.11C44.4801 41.1273 44.4522 41.1367 44.4261 41.1285L44.3569 41.1069C44.3292 41.0982 44.3102 41.0727 44.3098 41.0437L44.3033 40.5991C44.3028 40.5642 44.3291 40.5347 44.3639 40.5312L44.7831 40.4896C44.8227 40.4856 44.857 40.5167 44.8569 40.5565L44.8569 40.6352C44.8569 40.6697 44.8307 40.6986 44.7963 40.702L44.5841 40.7231C44.5563 40.7259 44.5352 40.7493 44.5352 40.7772L44.5354 40.821C44.5354 40.8524 44.576 40.8708 44.6052 40.8593C44.6317 40.849 44.6572 40.8427 44.6817 40.8403C44.7456 40.8339 44.7987 40.8424 44.841 40.8657C44.8841 40.889 44.9173 40.9218 44.9405 40.9642C44.9637 41.0065 44.9779 41.0531 44.9829 41.1039C44.9911 41.1857 44.9809 41.2552 44.9523 41.3121C44.9238 41.3691 44.8802 41.4138 44.8217 41.4463C44.764 41.4777 44.6943 41.4974 44.6124 41.5056Z" fill="#F5DF4D"/>
<path d="M43.6759 41.5807C43.639 41.5843 43.6061 41.5574 43.6024 41.5204L43.5921 41.4171C43.5903 41.3988 43.5962 41.3804 43.6082 41.3664C43.6945 41.2655 43.7619 41.1776 43.8103 41.1027C43.8621 41.0216 43.8855 40.9561 43.8805 40.9062C43.8773 40.8733 43.8654 40.8497 43.845 40.8356C43.8245 40.8206 43.7992 40.8145 43.7691 40.8175C43.7341 40.821 43.7003 40.8304 43.6679 40.8456C43.6275 40.8647 43.5753 40.8525 43.5578 40.8114L43.5221 40.7278C43.5101 40.6997 43.5183 40.6667 43.5442 40.6505C43.5733 40.6323 43.6047 40.6167 43.6381 40.6039C43.6894 40.5846 43.7405 40.5724 43.7913 40.5673C43.8684 40.5597 43.9333 40.567 43.9859 40.5893C44.0384 40.6116 44.0793 40.6451 44.1084 40.6897C44.1385 40.7342 44.1565 40.7866 44.1625 40.8468C44.1716 40.9381 44.1508 41.0252 44.1001 41.1081C44.0834 41.136 44.0634 41.1637 44.0402 41.1913C43.9964 41.2433 44.0353 41.3369 44.103 41.3302L44.137 41.3268C44.1739 41.3231 44.2068 41.3501 44.2105 41.387L44.2177 41.4593C44.2214 41.4962 44.1944 41.5291 44.1575 41.5328L43.6759 41.5807Z" fill="#F5DF4D"/>
<path d="M43.0743 41.6507C42.9887 41.6592 42.9104 41.6456 42.8394 41.6099C42.7683 41.5733 42.7097 41.5193 42.6637 41.4478C42.6185 41.3754 42.591 41.2902 42.5813 41.1924C42.5717 41.0955 42.5819 41.0075 42.6121 40.9285C42.6432 40.8494 42.69 40.7849 42.7524 40.735C42.8149 40.6851 42.889 40.6559 42.9746 40.6474C43.0386 40.641 43.0986 40.6479 43.1548 40.6679C43.2109 40.6871 43.2609 40.7172 43.3049 40.7585C43.3488 40.7988 43.3846 40.8484 43.4123 40.9074C43.441 40.9663 43.4589 41.032 43.4661 41.1044C43.4757 41.2013 43.4651 41.2898 43.4341 41.3698C43.4039 41.4488 43.3576 41.5133 43.2951 41.5632C43.2335 41.613 43.16 41.6422 43.0743 41.6507ZM43.0504 41.4094C43.0974 41.4047 43.1318 41.378 43.1536 41.3293C43.1763 41.2805 43.1835 41.2152 43.1754 41.1333C43.1675 41.0534 43.1475 40.9917 43.1157 40.9483C43.0847 40.9039 43.0456 40.884 42.9986 40.8887C42.9506 40.8934 42.9153 40.9202 42.8926 40.969C42.8708 41.0178 42.864 41.0826 42.872 41.1635C42.8799 41.2435 42.8999 41.3056 42.9319 41.3499C42.9648 41.3942 43.0043 41.414 43.0504 41.4094Z" fill="#F5DF4D"/>
<path d="M41.986 41.7482C41.9491 41.7518 41.9161 41.7249 41.9125 41.6879L41.9022 41.5846C41.9004 41.5662 41.9062 41.5479 41.9182 41.5339C42.0046 41.4329 42.0719 41.345 42.1203 41.2702C42.1721 41.189 42.1955 41.1235 42.1906 41.0737C42.1873 41.0407 42.1755 41.0172 42.1551 41.0031C42.1346 40.988 42.1093 40.982 42.0792 40.985C42.0441 40.9885 42.0104 40.9978 41.978 41.0131C41.9375 41.0322 41.8854 41.02 41.8678 40.9789L41.8322 40.8953C41.8202 40.8672 41.8284 40.8342 41.8542 40.818C41.8834 40.7998 41.9147 40.7842 41.9482 40.7714C41.9995 40.7521 42.0505 40.7399 42.1013 40.7348C42.1785 40.7271 42.2433 40.7345 42.2959 40.7568C42.3485 40.7791 42.3893 40.8126 42.4185 40.8572C42.4486 40.9017 42.4666 40.9541 42.4726 41.0143C42.4816 41.1056 42.4608 41.1927 42.4102 41.2756C42.3935 41.3034 42.3735 41.3312 42.3502 41.3588C42.3064 41.4108 42.3454 41.5044 42.4131 41.4976L42.447 41.4943C42.484 41.4906 42.5169 41.5175 42.5206 41.5545L42.5277 41.6268C42.5314 41.6637 42.5045 41.6966 42.4675 41.7003L41.986 41.7482Z" fill="#F5DF4D"/>
<path d="M41.3675 41.8709C41.3155 41.8709 41.2758 41.8572 41.2484 41.8298C41.221 41.8014 41.2073 41.7669 41.2073 41.7262C41.2073 41.6846 41.2219 41.6506 41.2512 41.6241C41.2805 41.5967 41.3193 41.583 41.3675 41.583C41.4157 41.583 41.454 41.5972 41.4824 41.6256C41.5117 41.6539 41.5264 41.6875 41.5264 41.7262C41.5264 41.7697 41.5127 41.8047 41.4852 41.8312C41.4588 41.8577 41.4195 41.8709 41.3675 41.8709Z" fill="#F5DF4D"/>
<path d="M40.7199 41.869C40.6829 41.8722 40.6504 41.8448 40.6472 41.8078L40.5945 41.1928C40.5913 41.1558 40.5588 41.1284 40.5218 41.1316L40.4367 41.1389C40.3997 41.1421 40.3672 41.1147 40.364 41.0777L40.3563 40.9884C40.3532 40.9514 40.3806 40.9188 40.4176 40.9156L41.0509 40.8614C41.0878 40.8582 41.1204 40.8856 41.1236 40.9226L41.1312 41.0119C41.1344 41.0489 41.107 41.0814 41.07 41.0846L40.9849 41.0919C40.9479 41.0951 40.9205 41.1276 40.9237 41.1646L40.9764 41.7795C40.9796 41.8165 40.9522 41.8491 40.9152 41.8523L40.7199 41.869Z" fill="#F5DF4D"/>
<path d="M39.8777 41.972C39.8181 41.9729 39.7575 41.9662 39.6959 41.952C39.654 41.943 39.6165 41.9316 39.5833 41.9176C39.5563 41.9063 39.543 41.8767 39.5489 41.848L39.5688 41.7512C39.5778 41.7076 39.6258 41.685 39.6677 41.7001C39.693 41.7092 39.7173 41.7159 39.7406 41.7202C39.789 41.728 39.8335 41.7316 39.8741 41.731C39.9119 41.7304 39.9402 41.7238 39.9589 41.7113C39.9786 41.6987 39.9883 41.682 39.988 41.6612C39.9877 41.6423 39.9766 41.6278 39.9547 41.6177C39.9328 41.6067 39.9043 41.5967 39.8692 41.5878C39.835 41.5788 39.7984 41.5685 39.7595 41.5568C39.7205 41.5441 39.6834 41.5277 39.6481 41.5074C39.6138 41.4862 39.5855 41.4582 39.5632 41.4236C39.5409 41.388 39.5294 41.3432 39.5286 41.2893C39.5276 41.2213 39.5433 41.1624 39.5756 41.1128C39.608 41.0622 39.6547 41.0232 39.7157 40.9958C39.7768 40.9675 39.8489 40.9527 39.9321 40.9515C39.9878 40.9506 40.0423 40.9574 40.0955 40.9717C40.1312 40.9806 40.1622 40.9917 40.1885 41.0053C40.212 41.0173 40.2218 41.0445 40.2162 41.0703L40.1969 41.1597C40.1882 41.2003 40.1453 41.2229 40.1055 41.2109C40.0857 41.2049 40.0669 41.2001 40.0492 41.1965C40.0112 41.1876 39.9752 41.1834 39.9412 41.1839C39.9015 41.1845 39.8713 41.1906 39.8507 41.2023C39.8301 41.2139 39.8199 41.2292 39.8202 41.2481C39.8204 41.2661 39.8315 41.2806 39.8534 41.2916C39.8753 41.3026 39.9034 41.3131 39.9376 41.323C39.9718 41.3329 40.0083 41.3441 40.0473 41.3568C40.0862 41.3695 40.1229 41.3864 40.1572 41.4077C40.1916 41.4289 40.2199 41.4568 40.2422 41.4915C40.2644 41.5261 40.276 41.5699 40.2767 41.6229C40.2784 41.7325 40.2437 41.8177 40.1727 41.8783C40.1027 41.9389 40.0044 41.9702 39.8777 41.972Z" fill="#F5DF4D"/>
<path d="M38.804 42.0106C38.7669 42.0132 38.7348 41.9853 38.7322 41.9482L38.6734 41.109C38.6708 41.072 38.6987 41.0399 38.7357 41.0373L39.2849 40.9988C39.322 40.9962 39.3541 41.0241 39.3567 41.0612L39.3624 41.1421C39.365 41.1791 39.337 41.2112 39.3 41.2138L39.0946 41.2282C39.0576 41.2308 39.0296 41.263 39.0322 41.3L39.0349 41.3385C39.0375 41.3755 39.0696 41.4034 39.1067 41.4008L39.2824 41.3885C39.3194 41.3859 39.3515 41.4138 39.3541 41.4509L39.3572 41.495C39.3598 41.532 39.3319 41.5642 39.2949 41.5668L39.1192 41.5791C39.0821 41.5817 39.0542 41.6138 39.0568 41.6508L39.0604 41.7021C39.063 41.7391 39.0951 41.767 39.1322 41.7644L39.3376 41.75C39.3746 41.7474 39.4067 41.7753 39.4093 41.8124L39.4155 41.9004C39.4181 41.9374 39.3902 41.9695 39.3531 41.9721L38.804 42.0106Z" fill="#F5DF4D"/>
<path d="M33.4258 34.9806L34.6052 34.0889L36.1298 35.7573L35.1805 36.8648L33.4258 34.9806Z" fill="#07C5E6" stroke="#262933" stroke-width="0.3" stroke-linejoin="round"/>
<path d="M33.9866 34.5488C34.2934 34.918 35.0452 35.7944 35.5975 36.3467" stroke="#262933" stroke-width="0.3"/>
<path d="M31.3403 34.3467C32.0768 31.424 34.7444 31.4173 35.9142 31.7433C35.6937 32.0598 34.9246 32.871 34.1882 33.872C33.2533 33.4981 31.8725 33.944 31.3403 34.3467Z" fill="#FA6212" stroke="#262933" stroke-width="0.3" stroke-linejoin="round"/>
<path d="M35.7129 38.8924C36.8175 38.1559 36.4896 36.7541 36.1875 36.1452C36.7629 35.8431 38.0545 35.1412 38.6183 34.75C38.532 38.202 37.0074 38.6478 35.7129 38.8924Z" fill="#FA6212" stroke="#262933" stroke-width="0.3" stroke-linejoin="round"/>
<path d="M34.1306 33.9298C35.9026 30.9726 37.9997 29.3272 39.6969 28.8525C40.2914 29.1306 41.7882 29.9198 41.8688 30.7367C40.862 34.3038 37.6305 35.6174 36.1874 36.188C35.6409 35.6126 34.4643 34.3556 34.1306 33.9298Z" fill="white" stroke="#262933" stroke-width="0.3" stroke-linejoin="round"/>
<path d="M37.1528 33.6979C36.8683 34.048 36.2076 34.6371 36.0189 34.8078C35.8302 34.9785 35.3899 35.3114 34.4768 36.1383C33.3155 37.1899 33.311 36.7726 33.621 36.4346C34.2745 35.769 35.7583 34.2636 36.4653 33.5666C37.3491 32.6954 37.5084 33.2603 37.1528 33.6979Z" fill="#FA6212" stroke="#262933" stroke-width="0.3" stroke-linejoin="round"/>
<path d="M41.8186 30.8339C40.5874 30.4427 39.8169 29.3273 39.7114 28.8526C40.0782 28.6009 41.7682 28.2725 42.473 28.2485C42.4251 28.6752 42.2558 29.9709 41.8186 30.8339Z" fill="#FA6212" stroke="#262933" stroke-width="0.3" stroke-linejoin="round"/>
<circle cx="39.287" cy="31.4057" r="1.30168" fill="#FA6212" stroke="#262933" stroke-width="0.3"/>
<circle cx="39.2871" cy="31.4056" r="0.726352" fill="#07C1E4" stroke="#262933" stroke-width="0.3"/>
<path d="M44.0008 25.7812C43.7033 25.8443 43.4508 25.8263 43.2164 25.7452C42.991 25.646 42.7926 25.5017 42.6393 25.2943C42.477 25.096 42.4049 24.8615 42.3688 24.573C42.3237 24.2754 42.3508 24.023 42.441 23.7705C42.5221 23.5181 42.6664 23.3377 42.8377 23.1754C43.0451 23.0131 43.2615 22.9139 43.541 22.8689C43.7934 22.8238 44.0189 22.8328 44.1992 22.9049C44.2443 22.9139 44.2713 22.959 44.2713 23.0041L44.2623 23.4189C44.2803 23.509 44.2082 23.5631 44.109 23.5541C44.091 23.5541 44.0639 23.5451 44.0279 23.5361C43.9467 23.5361 43.8746 23.5451 43.8025 23.5631C43.577 23.5902 43.4238 23.6984 43.3246 23.8427C43.2344 23.9959 43.1984 24.1853 43.2344 24.4197C43.2705 24.6451 43.3607 24.8074 43.4959 24.9246C43.6402 25.0238 43.8205 25.0599 44.0279 25.0328C44.109 25.0058 44.1902 24.9878 44.2623 24.9607C44.2894 24.9607 44.3344 24.9337 44.3795 24.9156C44.4426 24.8796 44.5328 24.9066 44.5599 24.9697L44.6951 25.3574C44.7131 25.4206 44.7131 25.4747 44.659 25.5107C44.4697 25.655 44.2533 25.7452 44.0008 25.7812Z" fill="#F5DF4D"/>
<path d="M41.327 26.145C41.2729 26.154 41.2188 26.0999 41.2098 26.0278L40.9213 23.4671C40.9123 23.404 40.9483 23.3228 41.0205 23.3228L41.6516 23.2507C41.7057 23.2327 41.7779 23.2958 41.7779 23.3589L42.1205 25.9286C42.1205 25.9827 42.0754 26.0548 42.0123 26.0639L41.327 26.145Z" fill="#F5DF4D"/>
<path d="M39.4863 26.3256C39.4142 26.3256 39.3601 26.2715 39.3511 26.2084L39.1978 24.2698C39.1978 24.1977 39.1347 24.1436 39.0716 24.1436L38.7109 24.1797C38.6478 24.1887 38.5937 24.1256 38.5847 24.0624L38.5576 23.6567C38.5576 23.5936 38.6027 23.5395 38.6748 23.5305L40.5232 23.3682C40.5863 23.3682 40.6404 23.4223 40.6495 23.4854L40.6945 23.8821C40.7036 23.9452 40.6585 24.0174 40.5863 24.0083L40.2257 24.0534C40.1536 24.0534 40.1085 24.1165 40.1175 24.1977L40.2888 26.1272C40.2978 26.1903 40.2527 26.2535 40.1806 26.2625L39.4863 26.3256Z" fill="#F5DF4D"/>
<path d="M37.6533 26.4788C37.3557 26.4879 37.1033 26.4518 36.8778 26.3436C36.6614 26.2174 36.4901 26.0551 36.3639 25.8297C36.2377 25.6313 36.1746 25.3698 36.1746 25.0813C36.1655 24.7837 36.2196 24.5313 36.3368 24.2788C36.4541 24.0624 36.6164 23.8821 36.8237 23.7378C37.0311 23.5935 37.2656 23.5394 37.5361 23.5304C37.8065 23.5214 38.0139 23.5394 38.1943 23.6206C38.2303 23.6476 38.2484 23.6927 38.2484 23.7558L38.2123 24.1526C38.2033 24.2337 38.1221 24.2968 38.041 24.2788C38.0049 24.2698 37.9779 24.2698 37.9508 24.2518C37.8697 24.2427 37.7885 24.2427 37.7164 24.2427C37.5 24.2427 37.3377 24.3329 37.2205 24.4682C37.1033 24.6124 37.0492 24.7837 37.0582 25.0272C37.0672 25.2526 37.1393 25.4419 37.2565 25.5501C37.3828 25.6764 37.5631 25.7395 37.7795 25.7305C37.8606 25.7215 37.9328 25.7215 37.9959 25.6944C38.041 25.6764 38.077 25.6583 38.1221 25.6583C38.1943 25.6223 38.2844 25.6674 38.2934 25.7395L38.4016 26.1452C38.4107 26.1903 38.3926 26.2534 38.3475 26.2805C38.1311 26.3977 37.8967 26.4608 37.6533 26.4788Z" fill="#F5DF4D"/>
<path d="M33.4835 26.4916C33.3843 26.4916 33.3122 26.4015 33.3572 26.3293L34.1236 23.7596C34.1417 23.7145 34.1958 23.6604 34.2499 23.6695L35.3138 23.6785C35.3589 23.6785 35.422 23.7236 35.431 23.7686L36.1704 26.3654C36.1884 26.4375 36.1253 26.5187 36.0532 26.5277H35.3138C35.2597 26.5277 35.2146 26.4826 35.1966 26.4195L35.1245 26.0769C35.1245 26.0228 35.0704 25.9777 35.0163 25.9867L34.4933 25.9777C34.4302 25.9777 34.3761 26.0138 34.3491 26.0769L34.295 26.4105C34.2679 26.4736 34.2138 26.5097 34.1597 26.5187L33.4835 26.4916ZM34.5114 25.3195C34.5023 25.3916 34.5655 25.4637 34.6466 25.4637H34.863C34.9442 25.4637 35.0073 25.4006 34.9802 25.3195L34.8901 24.7965C34.854 24.6432 34.6737 24.6432 34.6466 24.7875L34.5114 25.3195Z" fill="#F5DF4D"/>
<path d="M31.384 26.443C31.3116 26.437 31.2643 26.3848 31.2516 26.295L31.3625 23.7096C31.3693 23.6552 31.4118 23.5903 31.4846 23.6054L32.0716 23.6174C32.1437 23.6145 32.2003 23.6754 32.1939 23.7388L32.147 25.6809C32.1495 25.744 32.2065 25.8138 32.2786 25.8109L32.9922 25.8268C33.0729 25.8145 33.1209 25.8847 33.1144 25.9482L33.1036 26.3457C33.0792 26.4098 33.0367 26.4747 32.9733 26.4683L31.384 26.443Z" fill="#F5DF4D"/>
<path d="M28.1313 26.2152C28.0491 26.2024 27.9978 26.1063 28.0208 26.0416L28.8805 23.5201C28.9125 23.4548 28.9557 23.4249 29.0097 23.4215L30.0706 23.4801C30.1155 23.4772 30.1724 23.5188 30.1939 23.5716L30.8298 26.1692C30.8445 26.2586 30.7867 26.3436 30.7052 26.3398L29.9801 26.3048C29.9076 26.3004 29.8603 26.2673 29.8568 26.2133L29.8074 25.8641C29.7944 25.8017 29.7465 25.7596 29.6919 25.754L29.1666 25.7334C29.1216 25.7363 29.0598 25.7583 29.0458 25.8225L28.9411 26.1634C28.9356 26.218 28.8845 26.2664 28.8209 26.2615L28.1313 26.2152ZM29.223 25.0612C29.2018 25.1529 29.2603 25.2215 29.3329 25.2259L29.568 25.2289C29.6406 25.2333 29.7001 25.1753 29.6943 25.0853L29.607 24.5668C29.5798 24.424 29.4071 24.408 29.3617 24.5464L29.223 25.0612Z" fill="#F5DF4D"/>
<path d="M26.7036 26.1026C26.4113 26.0751 26.1606 26.0077 25.9482 25.8643C25.7456 25.729 25.6017 25.5431 25.5076 25.3072C25.4151 25.0894 25.3837 24.8478 25.4112 24.5555C25.4475 24.2624 25.5232 24.0019 25.6755 23.7887C25.8181 23.5673 25.9845 23.4071 26.2195 23.304C26.4348 23.1845 26.6936 23.1426 26.976 23.1618C27.2405 23.1827 27.4447 23.2364 27.6367 23.3545C27.6652 23.37 27.6792 23.423 27.658 23.4884L27.5842 23.8664C27.5655 23.9587 27.4782 23.9939 27.4039 23.9736C27.2806 23.9125 27.1614 23.8963 27.0422 23.8801C26.8234 23.8641 26.648 23.9255 26.515 24.0554C26.3903 24.1756 26.3064 24.3463 26.2838 24.5929C26.2703 24.8386 26.3064 25.0345 26.4176 25.16C26.5223 25.3134 26.6652 25.3908 26.8383 25.402C26.8562 25.4003 26.884 25.4068 26.902 25.4052C26.9567 25.4092 26.9974 25.3602 27.0006 25.2965L27.0286 24.814C27.0408 24.7495 27.0824 24.7095 27.1534 24.6939L27.5941 24.6623C27.6676 24.6737 27.7256 24.7136 27.7249 24.8042L27.6682 25.8598C27.6642 25.9145 27.6234 25.9635 27.5892 25.9848C27.439 26.0258 27.306 26.0561 27.1819 26.0857C27.013 26.1193 26.8579 26.1065 26.7036 26.1026Z" fill="#F5DF4D"/>
<path d="M33.9083 30.4959C33.8273 30.4999 33.7612 30.4399 33.7486 30.3683L33.7284 27.7333C33.7245 27.6523 33.7849 27.5952 33.8389 27.5925L34.5152 27.5776C34.5868 27.5651 34.6358 27.6439 34.6389 27.707L34.7085 29.6896C34.7121 29.7616 34.7782 29.8216 34.8592 29.8176L35.6513 29.77C35.7418 29.7746 35.7985 29.826 35.802 29.898L35.7862 30.3141C35.7987 30.3857 35.7378 30.4338 35.6572 30.4467L33.9083 30.4959Z" fill="#F5DF4D"/>
<path d="M31.2715 30.5109C31.1894 30.4975 31.1324 30.4465 31.1283 30.3745L31.2044 27.7331C31.2088 27.6516 31.2597 27.5945 31.3408 27.5899L33.1393 27.6144C33.2108 27.6014 33.2689 27.6703 33.273 27.7423L33.2764 28.1214C33.2805 28.1935 33.2121 28.2606 33.1395 28.2556L32.3633 28.2635C32.3003 28.2671 32.2303 28.3072 32.2344 28.3792L32.2312 28.6413C32.2258 28.7048 32.3019 28.7727 32.3649 28.7691L33.0511 28.7664C33.1411 28.7613 33.1992 28.8302 33.1938 28.8938L33.1821 29.1654C33.2047 29.2454 33.1447 29.3029 33.0637 29.3075L32.3685 29.3108C32.2954 29.2969 32.2265 29.355 32.2311 29.436L32.2209 29.7346C32.225 29.8066 32.2911 29.8571 32.3726 29.8615L33.1578 29.8531C33.2393 29.8575 33.3059 29.9169 33.301 29.9895L33.3144 30.3861C33.3095 30.4586 33.2411 30.5257 33.168 30.5118L31.2715 30.5109Z" fill="#F5DF4D"/>
<path d="M29.1365 30.4572C28.8381 30.4422 28.5732 30.3627 28.3609 30.245C28.1392 30.1187 27.9884 29.9623 27.8809 29.7592C27.7644 29.5563 27.7278 29.3232 27.7623 29.0601L27.9246 27.5014C27.9393 27.4196 28.0002 27.363 28.0726 27.369L28.7523 27.4407C28.8158 27.4471 28.8817 27.5167 28.8663 27.5805L28.7296 29.102C28.7282 29.2916 28.7615 29.4437 28.8372 29.5308C28.923 29.6446 29.051 29.6846 29.2045 29.6874C29.3862 29.7161 29.5015 29.6663 29.6066 29.5898C29.7028 29.5137 29.7427 29.3858 29.7545 29.2319L29.8624 27.6663C29.8681 27.5849 29.9204 27.5376 30.0018 27.5434L30.7074 27.5869C30.7795 27.584 30.8365 27.6539 30.8394 27.7259L30.7586 29.2904C30.7508 29.5433 30.6601 29.7546 30.5237 29.9496C30.3861 30.1176 30.1937 30.2698 29.9534 30.3518C29.7045 30.4431 29.4447 30.4898 29.1365 30.4572Z" fill="#F5DF4D"/>
<path d="M25.3798 30.0966C25.3063 30.0851 25.2378 30.0279 25.2582 29.9536L25.5021 27.3334C25.5226 27.2592 25.5806 27.1996 25.654 27.2111L27.4229 27.3506C27.4866 27.3539 27.5379 27.4217 27.5346 27.4854L27.5057 27.8682C27.5032 27.9408 27.4452 28.0004 27.3725 27.9979L26.5163 27.9392C26.4428 27.9277 26.375 27.9791 26.3725 28.0517L26.3469 28.3709C26.3354 28.4443 26.3958 28.5113 26.4774 28.513L27.2521 28.57C27.3247 28.5725 27.3851 28.6395 27.3646 28.7138L27.3562 29.0223C27.3431 29.0778 27.2948 29.1456 27.2214 29.1341L26.4288 29.0787C26.3561 29.0762 26.2785 29.1194 26.276 29.192L26.2076 30.0401C26.205 30.1128 26.1283 30.165 26.0564 30.1714L25.3798 30.0966Z" fill="#F5DF4D"/>
<path d="M24.2916 42.7032L23.8601 20.6968C35.2746 22.4689 43.5555 21.2434 46.2691 20.4092C46.2116 25.9803 46.1081 38.2271 46.1541 42.6456C37.9844 44.7628 28.1751 43.5661 24.2916 42.7032Z" fill="#F5DF4D" stroke="#262933" stroke-width="0.5" stroke-linejoin="round"/>
<path d="M33.5848 25.7294C34.2854 25.5116 35.0752 26.1128 35.4282 26.4807C35.4604 26.5143 35.5105 26.5228 35.5521 26.5018C36.0054 26.2722 36.9292 25.9816 37.5183 26.4168C38.2393 26.9495 37.4395 28.1333 37.0169 28.5354C36.9813 28.5694 36.9724 28.6226 36.9945 28.6665C37.2482 29.1712 37.602 30.6045 36.7245 30.8509C36.0193 31.0489 35.2586 30.4495 34.9162 30.0741C34.8848 30.0397 34.8349 30.0299 34.7929 30.0498C34.3323 30.2686 33.3807 30.5507 32.8028 30.0986C32.1107 29.5571 32.8968 28.4304 33.3364 28.0185C33.3719 27.9852 33.3809 27.9327 33.3588 27.8894C33.0923 27.3663 32.7319 25.9945 33.5848 25.7294Z" fill="#262933"/>
<mask id="mask2_9_15072" style="mask-type:alpha" maskUnits="userSpaceOnUse" x="35" y="27" width="2" height="3">
<path d="M35.1831 28.85C35.4627 28.5255 35.4161 28.0117 35.3578 27.7954C35.4639 27.5832 35.6824 27.4521 35.8134 27.4521C35.9445 27.4521 36.3002 27.4834 36.3251 28.2322C36.3376 29.0997 35.7884 29.2994 35.6324 29.2994C35.4764 29.2994 35.2954 29.2494 35.1831 28.85Z" fill="white"/>
</mask>
<g mask="url(#mask2_9_15072)">
<path d="M35.1831 28.85C35.4627 28.5255 35.4161 28.0117 35.3578 27.7954C35.4639 27.5832 35.6824 27.4521 35.8134 27.4521C35.9445 27.4521 36.3002 27.4834 36.3251 28.2322C36.3376 29.0997 35.7884 29.2994 35.6324 29.2994C35.4764 29.2994 35.2954 29.2494 35.1831 28.85Z" fill="white"/>
<path d="M36.1661 28.1362C36.3708 28.3409 36.2805 28.7249 36.2098 28.8913C35.9838 29.3236 35.7765 29.2454 35.6533 29.0921C35.5954 29.0199 35.6192 28.9176 35.6872 28.855L35.7004 28.8428C35.7815 28.7682 35.7857 28.6418 35.7099 28.5619C35.6523 28.5012 35.6381 28.41 35.6845 28.3404C35.805 28.1597 36.0001 27.9701 36.1661 28.1362Z" fill="#262933"/>
</g>
<mask id="mask3_9_15072" style="mask-type:alpha" maskUnits="userSpaceOnUse" x="34" y="27" width="2" height="3">
<path d="M34.714 27.2573C34.9687 27.2573 35.1109 27.5838 35.1353 27.6692C35.1596 27.7546 35.1771 27.8489 35.1821 28.1934C35.1883 28.624 34.8264 29.1857 34.5143 29.1357C34.2023 29.0858 33.9964 28.8299 34.0151 28.2745C34.0338 27.7191 34.3958 27.2573 34.714 27.2573Z" fill="white"/>
</mask>
<g mask="url(#mask3_9_15072)">
<path d="M34.714 27.2573C34.9687 27.2573 35.1109 27.5838 35.1353 27.6692C35.1596 27.7546 35.1771 27.8489 35.1821 28.1934C35.1883 28.624 34.8264 29.1857 34.5143 29.1357C34.2023 29.0858 33.9964 28.8299 34.0151 28.2745C34.0338 27.7191 34.3958 27.2573 34.714 27.2573Z" fill="white"/>
<path d="M34.9966 27.9242C35.2148 28.0267 35.2046 28.4044 35.1459 28.6225C35.0871 28.8407 34.8029 29.0181 34.6383 29.0006C34.5724 28.9936 34.5227 28.9536 34.4873 28.9064C34.4313 28.8317 34.4665 28.7314 34.5366 28.6696L34.5549 28.6534C34.6437 28.5752 34.6571 28.4417 34.5856 28.3474C34.5333 28.2782 34.5235 28.1838 34.5751 28.1142C34.674 27.981 34.8312 27.8465 34.9966 27.9242Z" fill="#262933"/>
</g>
<path d="M33.9475 30.3593C34.7453 30.3711 35.5133 30.5448 36.1379 31.0584C37.4441 30.565 39.3063 30.4698 40.6423 30.7921C42.5506 31.2525 44.6707 32.6191 44.0433 35.0291C43.5985 36.7379 41.2609 37.5497 39.6936 37.7031C38.5557 37.8146 37.398 37.7147 36.334 37.28C34.6221 38.4312 32.3222 38.7305 30.2975 38.4664C28.5526 38.2388 26.4473 37.1795 26.0535 35.2003C25.5901 32.8709 27.9678 31.4522 30.2011 31.8246C31.1722 31.0132 32.6626 30.3404 33.9475 30.3593ZM34.0777 30.9344C32.7307 30.8988 31.318 31.5724 30.3213 32.4374C29.865 32.3907 29.4498 32.3185 28.9898 32.3826C26.6113 32.7136 25.9399 35.7026 27.9168 37.0432C29.8928 38.3834 33.7244 38.146 35.7467 36.9772C35.8434 36.9213 36.1846 36.6723 36.253 36.6659C36.3835 36.6537 36.6384 36.7981 36.779 36.8446C38.3746 37.373 40.2406 37.2487 41.7736 36.574C43.8782 35.6477 44.347 33.5199 42.1603 32.3307C40.6742 31.5229 38.2833 31.0423 36.6375 31.4899C36.5209 31.5217 36.0794 31.6958 36.0142 31.6836C35.9351 31.6686 35.8989 31.5844 35.8408 31.5371C35.3403 31.1291 34.7207 30.9513 34.0777 30.9344Z" fill="#262933"/>
<path d="M43.4438 33.9821C43.4645 33.4835 43.2974 32.5369 41.9431 31.8007C41.1769 31.3839 40.2025 31.0623 39.1993 30.8948C37.8254 30.6653 36.8755 30.7971 36.3205 30.9479C36.2266 30.9734 35.8978 31.0775 35.7564 31.1227C35.5155 30.9535 34.5678 30.3336 33.5266 30.2758C32.2264 30.2038 31.1197 30.709 30.0493 31.8647C29.6032 31.8189 29.1431 31.7741 28.6897 31.8373C27.5398 31.9974 26.6661 32.7801 26.41 33.8799C26.2891 34.3982 26.3223 34.9326 26.5058 35.4251C26.7023 35.9531 27.0667 36.4088 27.5595 36.7429C28.2814 37.2325 29.2734 37.541 30.4203 37.6415C30.7785 37.6728 31.1517 37.6839 31.5364 37.6738C33.0314 37.6348 34.5254 37.2642 35.5328 36.6818C35.5684 36.6612 35.6243 36.6235 35.6951 36.576C35.7819 36.5175 35.9396 36.4112 35.993 36.3878C36.0539 36.39 36.1953 36.4521 36.2819 36.49C36.3447 36.5177 36.4043 36.5438 36.4549 36.5605C38.0507 37.0891 39.9538 36.9861 41.5464 36.2854C42.1101 36.0373 42.5825 35.693 42.913 35.2893C43.2412 34.8886 43.4247 34.4365 43.4438 33.9821Z" fill="white"/>
<path d="M29.1969 34.4733C29.1642 34.4686 29.1509 34.5496 29.1459 34.5727C29.0527 35.0224 29.0223 35.505 28.9301 35.9466C28.9033 36.0749 28.8536 36.1293 28.7188 36.1394C28.3614 36.166 28.3704 35.8259 28.3276 35.5654C28.2744 35.2418 28.2511 34.9115 28.1947 34.5886L28.1149 34.9751C28.0669 35.1699 28.1085 35.7368 27.9992 35.8731C27.9257 35.9648 27.5707 35.9395 27.497 35.8476C27.4623 35.8043 27.4496 35.6952 27.449 35.6391C27.4445 35.2511 27.5004 33.8228 27.5201 33.5271C27.5446 33.1637 27.5752 33.0067 27.9874 32.9947C28.1932 32.9887 28.2828 32.9897 28.3407 33.1913C28.4504 33.5732 28.5119 33.9987 28.624 34.3842L28.6823 34.4283L29.036 32.7369C29.111 32.6426 29.5673 32.6047 29.6869 32.6208C29.7887 32.6345 29.8498 32.6795 29.8621 32.786C29.8494 33.9528 29.8708 35.1195 29.9594 36.2823C29.9122 36.4619 29.3701 36.4479 29.2945 36.247C29.2574 36.1484 29.2552 35.8495 29.2482 35.7261C29.2242 35.3093 29.2252 34.8896 29.1969 34.4733Z" fill="#262933"/>
<path d="M38.8235 31.6026C38.8565 31.6683 38.8437 31.7343 38.824 31.8016C38.7369 32.0964 38.4892 32.5275 38.3597 32.8296C38.2549 33.0739 38.1526 33.3199 38.0543 33.5667L38.6962 35.6997C38.7125 35.761 38.7189 35.8394 38.6954 35.899C38.6493 36.0162 38.1237 36.0834 38.0671 35.9163C37.8909 35.4188 37.7576 34.9071 37.5949 34.4053C37.5656 34.3149 37.5323 34.1949 37.4811 34.1176L37.4445 35.767C37.3872 35.9138 36.9341 35.8788 36.852 35.7749C36.8023 35.7121 36.789 35.5249 36.7817 35.44C36.7446 35.0042 36.7592 34.5315 36.7361 34.0895C36.7035 33.469 36.6409 32.8479 36.6349 32.2259C36.6336 32.0859 36.6019 31.7918 36.7112 31.7052C36.81 31.6268 37.2841 31.5854 37.3546 31.7105C37.4282 32.1421 37.3782 32.5841 37.4204 33.0186C37.4241 33.0555 37.4018 33.0561 37.4612 33.0565L37.9314 31.6767C37.9531 31.6094 38.0067 31.5254 38.0768 31.504C38.1672 31.4761 38.7676 31.537 38.8235 31.6026Z" fill="#262933"/>
<path d="M34.0029 32.4176C33.9962 32.4943 34.1328 35.308 34.1191 35.9112C34.115 36.0871 34.1199 36.1477 33.9429 36.2137C33.5639 36.3549 33.4505 36.2651 33.4278 35.8899C33.3916 35.2943 33.4246 34.6661 33.4042 34.0646C33.3866 33.548 33.3483 33.0295 33.3127 32.5142C33.2396 32.4412 32.0269 32.7396 31.8423 32.7433C31.6481 32.7019 31.5821 32.1412 31.6717 31.9989C31.7474 31.8785 32.1763 31.7114 32.3218 31.6617C32.8742 31.4731 33.5358 31.4022 34.1193 31.4318C34.283 31.4401 34.824 31.4819 34.9297 31.5828C35.0463 31.6942 34.9747 32.3332 34.8459 32.4214C34.7597 32.4804 34.4234 32.4234 34.2858 32.421C34.2464 32.4204 34.0046 32.3981 34.0029 32.4176Z" fill="#262933"/>
<path d="M30.8278 35.6765C30.9819 35.7207 31.0151 33.974 31.124 33.1255C31.1709 33.0053 31.3966 33.0329 31.4974 33.0524C31.57 33.0666 31.6674 33.0837 31.6738 33.1739C31.5866 33.9292 31.5827 34.725 31.4779 35.4751C31.4112 35.9523 31.2397 36.6848 30.6038 36.5589C30.1455 36.468 30.0754 35.6988 30.0694 35.3279C30.0585 34.6369 30.0787 34.0655 30.1052 33.4248C30.1125 33.2489 30.108 32.9498 30.1329 32.7852C30.1657 32.5686 30.4621 32.5851 30.6347 32.6151C30.8902 32.6593 30.8651 32.7715 30.8597 33.0068C30.8434 33.7216 30.7277 34.4625 30.7358 35.1837C30.7365 35.2191 30.7483 35.7254 30.8278 35.6765Z" fill="#262933"/>
<path d="M40.0827 33.3758C40.1631 33.3951 40.1931 33.4767 40.1922 33.5547C40.1916 33.6192 40.1236 33.9284 40.0913 33.9719C40.0012 34.0921 39.762 34.0573 39.5852 34.0323C39.526 34.0239 39.472 34.0668 39.4665 34.1261L39.4266 34.5572C39.4204 34.6275 39.4716 34.6517 39.5308 34.6569C39.6349 34.6549 39.9824 34.6131 40.0366 34.6791C40.1148 34.7745 40.0512 35.2602 39.9982 35.3763C39.9612 35.458 39.8876 35.4818 39.8045 35.4914C39.6396 35.5107 39.0335 35.513 38.8826 35.4811C38.763 35.4556 38.7025 35.3886 38.6931 35.2671C38.685 35.1621 38.6959 34.9607 38.7012 34.8456C38.7362 34.0871 38.8395 33.2256 38.9775 32.4791C39.0093 32.3077 39.0858 31.8609 39.1544 31.7259C39.209 31.6186 39.3198 31.6357 39.4234 31.649C39.6178 31.6739 40.3345 31.835 40.4934 31.9124C40.5493 31.9396 40.5883 31.9891 40.6014 32.0499C40.626 32.1648 40.5637 32.6312 40.4346 32.6584C40.329 32.6807 39.9905 32.5453 39.8208 32.5211C39.7708 32.514 39.7234 32.5459 39.7108 32.5948C39.6336 32.8915 39.5839 33.0499 39.5691 33.2575C39.5672 33.2845 39.573 33.3314 39.6131 33.3348C39.75 33.3466 39.9586 33.346 40.0827 33.3758Z" fill="#262933"/>
<path d="M33.1202 34.1573C33.0639 34.2032 32.6866 34.1888 32.6215 34.1601C32.5514 34.1293 32.5612 33.8867 32.5458 33.8089C32.5201 33.6782 32.471 33.5831 32.4084 33.7661C32.2181 34.3236 32.7299 34.477 32.9858 34.8494C33.3022 35.3099 33.3022 36.1476 32.7856 36.4647C32.3816 36.7128 31.8783 36.4551 31.7073 36.0463C31.6381 35.8811 31.5843 35.5205 31.649 35.357C31.6908 35.2516 32.142 35.2454 32.2309 35.2961C32.3413 35.3591 32.3282 35.8303 32.4478 35.841C32.5572 35.8509 32.5786 35.5554 32.5747 35.4845C32.5537 35.1089 31.9979 34.8108 31.8445 34.3973C31.6458 33.8621 31.8226 32.8557 32.5659 32.963C33.0934 33.0395 33.3142 33.7177 33.1202 34.1573Z" fill="#262933"/>
<path d="M35.8117 32.8432C35.7671 32.8552 35.742 32.9137 35.7274 32.9527C35.6376 33.194 35.6533 33.507 35.6666 33.7633C35.6873 34.165 35.7418 34.9259 35.9002 34.9254C35.9426 34.9359 35.9615 34.913 35.9718 34.8753C36.0627 34.5438 35.7909 34.2764 36.3059 34.285C36.5788 34.2895 36.5861 34.3107 36.6047 34.5727C36.6268 34.8849 36.5779 35.3929 36.3034 35.5916C36.0082 35.805 35.6196 35.6809 35.4181 35.4019C34.992 34.8121 34.8578 32.8818 35.2777 32.293C35.5995 31.8422 36.1983 32.0539 36.3857 32.5173C36.4438 32.6611 36.528 33.0772 36.4444 33.2143C36.3917 33.3009 36.0005 33.3472 35.9326 33.2835C35.846 33.2115 35.9272 32.8261 35.8117 32.8432Z" fill="#262933"/>
<path d="M34.5164 32.8932C34.5972 32.8902 34.7485 32.8879 34.7976 32.9577C34.8593 33.0456 34.86 33.9157 34.8711 34.0985C34.9041 34.6451 34.9474 35.1923 34.9948 35.7378C35.016 35.9973 34.3434 36.0954 34.3408 35.8079C34.3436 34.9645 34.1893 34.047 34.2238 33.2112C34.2341 32.9622 34.2486 32.9033 34.5164 32.8932Z" fill="#262933"/>
<path d="M41.389 32.1756C41.1016 32.0726 40.9845 31.9731 40.89 32.3106C40.7288 32.8861 40.2753 34.8927 40.2253 35.2252C40.2133 35.3056 40.1902 35.4294 40.2609 35.4849C40.3338 35.5421 40.6894 35.5995 40.7548 35.5473C40.8259 35.4903 40.9955 34.7322 41.0486 34.564C41.0578 34.5347 41.0763 34.4702 41.0962 34.4031C41.1065 34.3688 41.1556 34.3707 41.1633 34.4057C41.1687 34.4299 41.321 35.2642 41.4977 35.2565C41.5744 35.2531 41.9527 35.2291 42.0039 35.1834C42.0449 35.147 42.0417 35.0819 42.0363 35.033C42.0234 34.9158 41.8059 34.329 41.8198 34.2846C42.0552 34.1895 42.2809 34.0918 42.4268 33.8707C42.967 33.0517 42.0667 32.4188 41.389 32.1756ZM41.7793 33.5936C41.6777 33.704 41.4151 33.7573 41.2702 33.6508L41.4713 32.8426C41.8269 32.8951 42.0588 33.2902 41.7793 33.5936Z" fill="#262933"/>
<path d="M33.4146 29.7863C34.2123 29.7981 35.2856 30.0634 35.9101 30.5772C38.2859 29.4178 44.6148 30.8249 43.8164 34.5636C42.7472 37.3535 38.58 37.7674 36.1069 36.8146C33.3153 38.6397 26.9539 38.9979 26.006 34.9426C25.7062 32.5861 27.6483 30.9697 29.8813 31.3421C30.7709 30.1296 32.1294 29.7675 33.4146 29.7863ZM33.7558 30.4098C32.1853 30.2843 31.0401 30.914 30.0942 31.972C27.1555 31.1943 25.1208 34.6983 27.6897 36.5778C29.8775 38.0121 33.9202 37.6702 36.0259 36.2003C37.7588 36.8825 39.8315 36.8834 41.5465 36.1086C43.6511 35.1826 44.1255 33.0442 41.9332 31.8655C38.3935 29.962 35.8347 31.1799 35.8347 31.1799C35.197 30.764 34.4843 30.4679 33.7558 30.4098Z" fill="#262933"/>
<defs>
<filter id="filter0_f_9_15072" x="42.0901" y="8.08984" width="13.019" height="59.0454" filterUnits="userSpaceOnUse" color-interpolation-filters="sRGB">
<feFlood flood-opacity="0" result="BackgroundImageFix"/>
<feBlend mode="normal" in="SourceGraphic" in2="BackgroundImageFix" result="shape"/>
<feGaussianBlur stdDeviation="1.5" result="effect1_foregroundBlur_9_15072"/>
</filter>
<filter id="filter1_f_9_15072" x="39.3284" y="9.35547" width="11.6382" height="59.8506" filterUnits="userSpaceOnUse" color-interpolation-filters="sRGB">
<feFlood flood-opacity="0" result="BackgroundImageFix"/>
<feBlend mode="normal" in="SourceGraphic" in2="BackgroundImageFix" result="shape"/>
<feGaussianBlur stdDeviation="1.5" result="effect1_foregroundBlur_9_15072"/>
</filter>
<filter id="filter2_f_9_15072" x="34.0354" y="10.8516" width="12.7888" height="58.2397" filterUnits="userSpaceOnUse" color-interpolation-filters="sRGB">
<feFlood flood-opacity="0" result="BackgroundImageFix"/>
<feBlend mode="normal" in="SourceGraphic" in2="BackgroundImageFix" result="shape"/>
<feGaussianBlur stdDeviation="1.5" result="effect1_foregroundBlur_9_15072"/>
</filter>
<filter id="filter3_f_9_15072" x="27.1316" y="10.8516" width="13.9395" height="58.0098" filterUnits="userSpaceOnUse" color-interpolation-filters="sRGB">
<feFlood flood-opacity="0" result="BackgroundImageFix"/>
<feBlend mode="normal" in="SourceGraphic" in2="BackgroundImageFix" result="shape"/>
<feGaussianBlur stdDeviation="1.5" result="effect1_foregroundBlur_9_15072"/>
</filter>
<filter id="filter4_f_9_15072" x="21.3782" y="10.3911" width="13.3643" height="58.585" filterUnits="userSpaceOnUse" color-interpolation-filters="sRGB">
<feFlood flood-opacity="0" result="BackgroundImageFix"/>
<feBlend mode="normal" in="SourceGraphic" in2="BackgroundImageFix" result="shape"/>
<feGaussianBlur stdDeviation="1.5" result="effect1_foregroundBlur_9_15072"/>
</filter>
<filter id="filter5_f_9_15072" x="15.74" y="8.89551" width="14.5149" height="59.6206" filterUnits="userSpaceOnUse" color-interpolation-filters="sRGB">
<feFlood flood-opacity="0" result="BackgroundImageFix"/>
<feBlend mode="normal" in="SourceGraphic" in2="BackgroundImageFix" result="shape"/>
<feGaussianBlur stdDeviation="1.5" result="effect1_foregroundBlur_9_15072"/>
</filter>
<linearGradient id="paint0_linear_9_15072" x1="35.1793" y1="10.2548" x2="35.1793" y2="7" gradientUnits="userSpaceOnUse">
<stop stop-color="#FEFEFE"/>
<stop offset="1" stop-color="#989898"/>
</linearGradient>
<linearGradient id="paint1_linear_9_15072" x1="19.1384" y1="12.3477" x2="51.1591" y2="12.3477" gradientUnits="userSpaceOnUse">
<stop stop-color="#8F9190"/>
<stop offset="0.25" stop-color="#8F9190"/>
<stop offset="0.35" stop-color="#FEFEFE"/>
<stop offset="0.5" stop-color="#FEFEFE"/>
<stop offset="0.65" stop-color="#FEFEFE"/>
<stop offset="0.75" stop-color="#8F9190"/>
<stop offset="1" stop-color="#8F9190"/>
</linearGradient>
</defs>
</svg>
