<svg width="72" height="72" viewBox="0 0 72 72" fill="none" xmlns="http://www.w3.org/2000/svg">
<path fill-rule="evenodd" clip-rule="evenodd" d="M34.7832 35.1553C38.2064 36.6419 45.1213 39.6145 45.4091 39.6172C45.6909 39.6172 49.7537 39.6952 51.75 39.7344L54.5683 42.377C55.0184 43.7274 55.8307 47.0091 55.4785 49.334C53.0361 51.0953 44.4405 55.4492 40.4482 57.4062C40.2525 58.0423 39.1094 59.8667 36.1035 62.0742C30.8492 66.301 27.0334 65.2445 23.8925 61.4287C20.7515 57.6125 21.279 51.8583 21.3964 49.4512C19.6939 46.4861 17.9624 39.4702 17.1699 36.2119C15.0093 35.3665 14.6063 32.6109 14.6748 31.3389L14.9384 30.6934L34.7832 35.1553ZM32.4199 43.8008C31.9504 43.4633 31.6567 43.3602 31.29 43.6533C30.9965 43.8881 30.5414 44.2408 30.3505 44.3877C29.8613 44.8036 28.7122 45.782 28.0312 46.3691C27.1799 47.103 23.9217 49.9505 23.9804 52.7393C23.9217 57.5535 25.6973 59.5353 27.1503 60.959C28.6033 62.3825 30.335 62.0738 31.2304 61.7656C31.9765 60.7854 32.5334 61.0309 32.9003 61.1924L32.9042 61.1934C33.2712 61.3547 33.5502 61.0325 33.8144 60.8857C34.0786 60.7389 34.0928 60.254 34.0488 59.6816C34.0048 59.1093 34.3283 58.9772 34.7246 58.6396C35.1208 58.3022 35.5608 58.1259 35.957 58.1699C36.274 58.2051 36.5486 58.008 36.6464 57.9053C36.7541 57.7585 37.0639 57.36 37.4394 56.9375C37.9205 56.3625 38.0896 55.7196 38.1142 55.4697C38.4762 52.6911 39.2242 46.9575 39.3183 46.252C39.4122 45.5474 39.0443 45.1652 38.8486 45.0625C38.5941 44.9548 37.9705 44.6811 37.5126 44.4463C36.9404 44.1528 36.6613 44.0794 35.4873 44.4609C34.3133 44.8424 32.8898 44.1384 32.4199 43.8008ZM43.0468 46.5166C42.3278 46.1791 42.1373 46.3903 42.0634 46.9492C41.8286 48.7326 41.3293 52.479 41.2119 53.1953C41.0653 54.09 41.3003 53.9139 42.2099 53.3857C43.1199 52.8574 49.5232 49.4293 50.0039 49.1582C50.5762 48.8354 51.8093 48.1896 50.2099 48.1748C48.61 48.1601 44.6027 47.2505 43.0468 46.5166ZM25.5224 35.1992C23.0566 34.7765 21.0306 35.9236 20.3261 36.5498C20.0897 36.7375 20.1137 36.8353 20.1503 36.9453L22.8359 46.7354C22.8555 46.8968 22.9391 47.2372 23.1152 47.3076C23.3353 47.3954 23.6283 46.9705 23.9951 46.4863C24.362 46.002 27.1955 43.1253 29.5292 41.5107C29.9548 41.2319 30.013 41.0996 29.8369 40.6006C29.6607 40.1016 28.6044 35.728 25.5224 35.1992Z" fill="#262933"/>
<path d="M20.5434 47.2505L22.7891 47.7495C23.6453 47.9648 25.481 48.4217 25.9742 48.5274C26.4673 48.6331 26.4928 49.1683 26.4438 49.4227C26.4194 49.5597 26.347 49.9688 26.253 50.5089C26.1591 51.049 25.6561 51.0471 25.4164 50.9786C23.7285 50.6019 20.2205 49.8249 19.6921 49.731C19.1637 49.637 19.198 49.2026 19.2811 48.9971C19.335 48.7916 19.4778 48.2427 19.6187 47.6908C19.7596 47.1389 20.2939 47.1673 20.5434 47.2505Z" fill="#DBDBDD" stroke="#262933" stroke-width="0.5"/>
<path d="M20.4697 48.9238L25.0638 49.9659" stroke="#262933" stroke-width="0.5" stroke-linecap="round"/>
<path d="M38.6126 52.882L40.5501 54.1224C41.2802 54.6188 42.847 55.6787 43.2739 55.9474C43.7007 56.2161 43.5406 56.7275 43.4073 56.9496C43.3372 57.0699 43.1287 57.4291 42.8548 57.904C42.581 58.379 42.1094 58.2043 41.9078 58.0576C40.4521 57.1238 37.4247 55.1887 36.9608 54.9189C36.4969 54.6491 36.6783 54.2529 36.827 54.0885C36.9482 53.914 37.271 53.4476 37.593 52.9778C37.9149 52.5079 38.4069 52.7182 38.6126 52.882Z" fill="#DBDBDD" stroke="#262933" stroke-width="0.5"/>
<path d="M37.9685 54.4292L41.9247 56.9866" stroke="#262933" stroke-width="0.5" stroke-linecap="round"/>
<path d="M29.3648 62.5597C29.5761 61.3033 30.8682 61.4392 31.4064 61.6643C31.108 61.8991 30.6046 62.3764 31.0233 63.3229C31.3609 64.0861 31.948 64.0568 32.6233 64.0127C30.3041 66.2878 29.1006 64.1302 29.3648 62.5597Z" fill="#DBDBDD" stroke="#262933" stroke-width="0.5" stroke-linecap="round" stroke-linejoin="round"/>
<mask id="mask0_9_15012" style="mask-type:alpha" maskUnits="userSpaceOnUse" x="7" y="6" width="58" height="46">
<path d="M12.559 22.8838C13.7097 18.5862 16.1697 14.3119 24.3892 9.61515C32.6087 4.91845 52.2767 5.91657 60.4962 17.8347C67.7545 28.359 62.1695 41.7593 61.3475 43.8729C60.5256 45.9864 60.2907 48.1881 60.2027 49.4797C57.913 52.3272 54.86 50.6833 54.5371 47.7184C54.2142 44.7535 53.6858 42.317 52.0125 41.1722C50.3393 40.0273 48.167 40.4676 47.4625 40.8786C46.7579 41.2896 44.5563 42.6693 42.9124 42.5519C40.3291 42.4051 38.7146 40.4676 36.6891 37.855C35.0687 35.7649 31.3366 34.7727 29.6732 34.5378C23.4107 33.2071 10.5687 30.4868 9.30054 30.252C7.71536 29.9584 7.56858 28.4319 8.91893 27.8742C10.2693 27.3164 11.6196 25.9955 12.559 22.8838Z" fill="#D9D9D9" stroke="black" stroke-width="0.5"/>
</mask>
<g mask="url(#mask0_9_15012)">
<path d="M12.559 22.8838C13.7097 18.5862 16.1697 14.3119 24.3892 9.61515C32.6087 4.91845 52.2767 5.91657 60.4962 17.8347C67.7545 28.359 62.1695 41.7593 61.3475 43.8729C60.5256 45.9864 60.2907 48.1881 60.2027 49.4797C57.913 52.3272 54.86 50.6833 54.5371 47.7184C54.2142 44.7535 53.6858 42.317 52.0125 41.1722C50.3393 40.0273 48.167 40.4676 47.4625 40.8786C46.7579 41.2896 44.5563 42.6693 42.9124 42.5519C40.3291 42.4051 38.7146 40.4676 36.6891 37.855C35.0687 35.7649 31.3366 34.7727 29.6732 34.5378C23.4107 33.2071 10.5687 30.4868 9.30054 30.252C7.71536 29.9584 7.56858 28.4319 8.91893 27.8742C10.2693 27.3164 11.6196 25.9955 12.559 22.8838Z" fill="#D4D4D6"/>
<path d="M23.0978 12.7864C16.2874 18.5635 12.3538 26.1137 11.2383 29.1667C12.6278 29.4798 15.759 30.2234 17.1681 30.6931C25.9746 11.1424 37.4232 8.794 43.9988 6.79794C38.8323 6.44568 31.6109 5.56502 23.0978 12.7864Z" fill="#F6F6F7"/>
<path d="M30.0256 14.4892C23.2151 20.2663 19.2815 27.8165 18.166 30.8694C19.5555 31.1825 18.6944 30.9281 20.1035 31.3978C28.9101 11.8472 39.067 9.73358 50.6917 7.67876C45.5252 7.32649 38.5386 7.26776 30.0256 14.4892Z" fill="#F6F6F7"/>
</g>
<ellipse cx="31.8897" cy="16.0449" rx="2.21633" ry="1.9668" fill="#262933"/>
<ellipse cx="20.8577" cy="13.5799" rx="0.927715" ry="2.04648" transform="rotate(50.3108 20.8577 13.5799)" fill="#262933"/>
<path d="M44.4687 14.8837C42.5547 14.6371 43.0759 12.3881 43.3679 11.6692C43.6598 10.9503 44.0107 10.5009 44.7622 11.4051C45.7016 12.5353 46.8611 15.1919 44.4687 14.8837Z" fill="#262933"/>
<path d="M52.1297 14.1811C51.5426 13.6527 50.6815 12.6008 50.3244 12.1409C49.3263 10.7612 50.3977 11.2456 52.027 12.1849C53.6562 13.1243 53.847 13.9609 53.6268 14.2545C53.4067 14.548 52.8636 14.8416 52.1297 14.1811Z" fill="#262933"/>
<circle cx="42.5016" cy="37.8559" r="0.93937" fill="#262933"/>
<ellipse cx="58.4045" cy="46.4702" rx="0.755899" ry="0.93937" transform="rotate(12.9022 58.4045 46.4702)" fill="#262933"/>
<path d="M12.559 22.8838C13.88 18.4807 16.1697 14.3119 24.3892 9.61515C32.6087 4.91845 52.2767 5.91657 60.4962 17.8347C67.7545 28.359 62.1695 41.7593 61.3475 43.8729C60.5256 45.9864 60.2907 48.1881 60.2027 49.4797C57.913 52.3272 54.86 50.6833 54.5371 47.7184C54.2142 44.7535 53.6858 42.317 52.0125 41.1722C50.3393 40.0273 48.167 40.4676 47.4625 40.8786C46.7579 41.2896 44.5563 42.6693 42.9124 42.5519C40.3291 42.4051 38.7146 40.4676 36.6891 37.855C35.0687 35.7649 31.3366 34.7727 29.6732 34.5378C23.4107 33.2071 10.5687 30.4868 9.30054 30.252C7.71536 29.9584 7.56858 28.4319 8.91893 27.8742C10.2693 27.3164 11.6196 25.9955 12.559 22.8838Z" stroke="#262933" stroke-width="0.5"/>
<path d="M8.22925 28.3301C14.526 29.744 27.6947 32.6952 29.9962 33.1884C32.873 33.8048 37.0415 35.3313 38.656 38.032C40.2706 40.7327 42.5016 41.8188 45.1435 40.4978C47.7855 39.1769 51.1614 38.3843 53.3924 40.3511C55.6234 42.3179 55.6234 45.0479 55.8289 46.3689C56.0344 47.6899 56.4453 50.8896 60.1441 49.598" stroke="#262933" stroke-width="0.5"/>
<path d="M60.8486 27.8747C60.285 24.3051 58.5394 21.2404 57.737 20.1543C57.1939 19.4791 56.9003 19.5085 56.6802 19.6553C56.46 19.802 56.2692 20.2424 56.7095 20.8882C57.1499 21.534 58.5589 24.5869 58.9699 25.8199C59.3809 27.0528 59.5276 29.0783 60.2322 29.1664C60.9367 29.2544 60.9367 28.726 60.8486 27.8747Z" fill="#F6F6F7"/>
<rect x="48.3886" y="20.8746" width="12.6512" height="12.6512" rx="0.25" transform="rotate(15.979 48.3886 20.8746)" fill="#F5DF4D" stroke="#262933" stroke-width="0.5"/>
<path d="M52.9982 24.915C53.4103 24.9059 53.7436 25.3529 53.8773 25.6062C53.8895 25.6293 53.9153 25.6416 53.9409 25.6367C54.2213 25.583 54.7651 25.5691 55.0159 25.8953C55.3227 26.2946 54.7075 26.81 54.4171 26.9617C54.3926 26.9745 54.3795 27.0019 54.3847 27.029C54.4435 27.3408 54.4126 28.1696 53.9006 28.1668C53.4892 28.1645 53.1712 27.7231 53.0444 27.4673C53.0328 27.4439 53.0074 27.4308 52.9816 27.4351C52.6991 27.4819 52.1415 27.4869 51.8995 27.1533C51.6096 26.7537 52.2085 26.267 52.5097 26.1127C52.534 26.1002 52.547 26.0732 52.5418 26.0464C52.4788 25.7227 52.4966 24.9261 52.9982 24.915Z" fill="#262933"/>
<mask id="mask1_9_15012" style="mask-type:alpha" maskUnits="userSpaceOnUse" x="53" y="26" width="2" height="2">
<path d="M53.3771 26.8481C53.5783 26.7162 53.6327 26.4315 53.6347 26.3057C53.7249 26.2075 53.8631 26.1706 53.9339 26.1909C54.0046 26.2112 54.1919 26.2831 54.0894 26.6913C53.9618 27.1617 53.6344 27.1845 53.5501 27.1603C53.4659 27.1362 53.3759 27.0812 53.3771 26.8481Z" fill="white"/>
</mask>
<g mask="url(#mask1_9_15012)">
<path d="M53.3771 26.8481C53.5783 26.7162 53.6327 26.4315 53.6347 26.3057C53.7249 26.2075 53.8631 26.1706 53.9339 26.1909C54.0046 26.2112 54.1919 26.2831 54.0894 26.6913C53.9618 27.1617 53.6344 27.1845 53.5501 27.1603C53.4659 27.1362 53.3759 27.0812 53.3771 26.8481Z" fill="white"/>
<path d="M54.0185 26.6141C54.0973 26.7563 53.9891 26.9497 53.9252 27.0286C53.7362 27.2271 53.6364 27.1527 53.5936 27.0509C53.5735 27.003 53.6022 26.9514 53.6486 26.9281L53.6576 26.9236C53.7129 26.8959 53.7348 26.8282 53.7062 26.7733C53.6845 26.7317 53.691 26.6802 53.7268 26.6498C53.8199 26.5709 53.9545 26.4987 54.0185 26.6141Z" fill="#262933"/>
</g>
<mask id="mask2_9_15012" style="mask-type:alpha" maskUnits="userSpaceOnUse" x="52" y="25" width="2" height="2">
<path d="M53.3715 25.9165C53.509 25.9559 53.5352 26.1543 53.5352 26.2042C53.5351 26.254 53.5299 26.3077 53.4793 26.4945C53.416 26.728 53.1335 26.9752 52.9728 26.8999C52.812 26.8246 52.7404 26.6546 52.8365 26.3576C52.9327 26.0606 53.1996 25.8672 53.3715 25.9165Z" fill="white"/>
</mask>
<g mask="url(#mask2_9_15012)">
<path d="M53.3715 25.9165C53.509 25.9559 53.5352 26.1543 53.5352 26.2042C53.5351 26.254 53.5299 26.3077 53.4793 26.4945C53.416 26.728 53.1335 26.9752 52.9728 26.8999C52.812 26.8246 52.7404 26.6546 52.8365 26.3576C52.9327 26.0606 53.1996 25.8672 53.3715 25.9165Z" fill="white"/>
<path d="M53.4209 26.3206C53.5228 26.4098 53.4588 26.6121 53.3933 26.7208C53.3278 26.8295 53.1469 26.8813 53.0607 26.8464C53.0262 26.8324 53.0055 26.8031 52.9937 26.7722C52.975 26.7231 53.0096 26.6744 53.057 26.6519L53.0694 26.646C53.1295 26.6175 53.1574 26.5475 53.1334 26.4855C53.1158 26.44 53.1251 26.3876 53.1638 26.358C53.2378 26.3013 53.3435 26.253 53.4209 26.3206Z" fill="#262933"/>
</g>
<path d="M52.4768 27.4704C52.9058 27.6003 53.2936 27.813 53.5513 28.187C54.3331 28.1228 55.3534 28.3598 56.0249 28.7407C56.9841 29.2848 57.9173 30.351 57.2053 31.5553C56.7006 32.4091 55.3126 32.4856 54.4425 32.3257C53.8108 32.2097 53.2011 31.9765 52.6939 31.577C51.5912 31.9336 50.3029 31.7391 49.2505 31.2829C48.3435 30.8899 47.3707 29.9918 47.4645 28.8622C47.575 27.5325 49.0786 27.1346 50.2268 27.6815C50.8769 27.3937 51.7858 27.2612 52.4768 27.4704ZM52.458 27.801C51.7362 27.5733 50.869 27.7183 50.1969 28.031C49.9577 27.9352 49.7447 27.8319 49.4864 27.7952C48.1507 27.6057 47.3254 29.1158 48.1853 30.1458C49.0449 31.1755 51.1506 31.6406 52.4236 31.3226C52.4845 31.3074 52.7073 31.2257 52.7452 31.2329C52.8176 31.2465 52.9329 31.3639 53.0016 31.4108C53.7814 31.9432 54.8083 32.165 55.7405 32.0381C57.0204 31.8638 57.603 30.7873 56.6064 29.8066C55.929 29.1403 54.7123 28.5106 53.7543 28.4974C53.6864 28.4965 53.421 28.5222 53.3877 28.5055C53.3473 28.4852 53.3408 28.4341 53.3168 28.3995C53.1097 28.1017 52.8026 27.9097 52.458 27.801Z" fill="#262933"/>
<path d="M57.0433 30.8958C57.1317 30.6298 57.188 30.0927 56.5707 29.4855C56.2215 29.1418 55.7451 28.8173 55.2294 28.5715C54.523 28.2348 53.9896 28.1589 53.6666 28.1544C53.612 28.1536 53.4183 28.1589 53.3349 28.1614C53.231 28.0327 52.8153 27.5513 52.262 27.3588C51.571 27.1186 50.8952 27.2201 50.1383 27.6784C49.9045 27.5846 49.6629 27.4892 49.4083 27.4531C48.7626 27.3615 48.1696 27.6488 47.861 28.2031C47.7155 28.4642 47.6507 28.7579 47.6735 29.0523C47.6979 29.3678 47.8241 29.6704 48.0385 29.927C48.3525 30.3032 48.8404 30.6234 49.4441 30.8553C49.6327 30.9276 49.8325 30.9914 50.0418 31.0456C50.8552 31.256 51.7193 31.2872 52.3534 31.1287C52.3758 31.1231 52.4119 31.1114 52.4574 31.0966C52.5134 31.0785 52.615 31.0455 52.6475 31.0412C52.68 31.0518 52.7468 31.1072 52.7877 31.1411C52.8173 31.1658 52.8454 31.1891 52.8701 31.206C53.65 31.7385 54.6936 31.9775 55.6621 31.8458C56.0049 31.7991 56.3133 31.6863 56.5543 31.5195C56.7936 31.354 56.9626 31.1383 57.0433 30.8958Z" fill="white"/>
<path d="M49.2741 28.9556C49.2571 28.948 49.2374 28.9896 49.2311 29.0014C49.1111 29.2298 49.02 29.4856 48.9018 29.7098C48.8675 29.775 48.8322 29.7967 48.7579 29.7812C48.5608 29.7403 48.6183 29.558 48.6355 29.4107C48.6569 29.2278 48.6954 29.0457 48.715 28.8626L48.6121 29.059C48.556 29.1568 48.4907 29.4693 48.4106 29.526C48.3567 29.5641 48.1689 29.4955 48.1433 29.4345C48.1313 29.4057 48.1413 29.3449 48.1497 29.3145C48.2073 29.1042 48.4587 28.3416 48.5151 28.185C48.5846 27.9926 48.6254 27.9125 48.8499 27.9699C48.9619 27.9985 49.0101 28.0129 49.0102 28.1308C49.0103 28.3539 48.9776 28.5932 48.9785 28.8187L49.0031 28.8516L49.456 27.993C49.5111 27.9537 49.7634 28.0039 49.8255 28.0311C49.8783 28.0543 49.9044 28.088 49.8945 28.1474C49.707 28.7756 49.5379 29.4089 49.4057 30.0505C49.3524 30.1402 49.0618 30.0487 49.0521 29.9285C49.0473 29.8695 49.0925 29.7078 49.1077 29.64C49.1593 29.4113 49.2249 29.1848 49.2741 28.9556Z" fill="#262933"/>
<path d="M54.9174 28.8957C54.925 28.9363 54.9079 28.97 54.8868 29.0032C54.7941 29.149 54.5936 29.3434 54.4769 29.4865C54.3825 29.6022 54.2892 29.7191 54.1978 29.8372L54.2142 31.0884C54.2135 31.124 54.2049 31.1674 54.1829 31.1959C54.1399 31.252 53.8457 31.207 53.841 31.108C53.8229 30.812 53.8301 30.5151 53.82 30.2189C53.8181 30.1656 53.8187 30.0956 53.8031 30.0459L53.5279 30.9309C53.4742 31.0013 53.235 30.9123 53.2067 30.8435C53.1896 30.8019 53.2114 30.6987 53.2206 30.6517C53.2681 30.4106 53.3491 30.1577 53.4051 29.9154C53.4836 29.5753 53.5459 29.2302 53.639 28.8934C53.66 28.8176 53.6884 28.6539 53.7608 28.624C53.8263 28.597 54.0888 28.6481 54.1075 28.7266C54.0803 28.971 53.9849 29.2019 53.9405 29.4431C53.9367 29.4636 53.9246 29.4605 53.9566 29.4699L54.4242 28.7976C54.4463 28.7646 54.4882 28.7276 54.5294 28.7268C54.5825 28.7258 54.8973 28.8516 54.9174 28.8957Z" fill="#262933"/>
<path d="M52.1877 28.5889C52.1722 28.6293 51.8103 30.1698 51.7095 30.4934C51.6801 30.5878 51.6734 30.6213 51.5675 30.6295C51.341 30.6471 51.2937 30.581 51.3395 30.3749C51.4122 30.0477 51.5273 29.7135 51.6094 29.3856C51.6799 29.1039 51.7395 28.818 51.8001 28.5342C51.7719 28.4835 51.0708 28.4569 50.9706 28.4302C50.8721 28.3778 50.9233 28.0648 50.9937 28.0019C51.0532 27.9486 51.3107 27.9247 51.397 27.9204C51.7245 27.9041 52.0927 27.9683 52.4032 28.0746C52.4903 28.1045 52.776 28.2108 52.8174 28.2817C52.8632 28.3599 52.7256 28.6938 52.6423 28.7215C52.5867 28.74 52.4139 28.6572 52.34 28.6346C52.3188 28.6281 52.1917 28.5787 52.1877 28.5889Z" fill="#262933"/>
<path d="M49.9691 29.8576C50.0455 29.9053 50.3339 28.9673 50.524 28.5259C50.568 28.4683 50.6856 28.5182 50.737 28.5443C50.774 28.5632 50.8239 28.5875 50.8134 28.6372C50.6494 29.0316 50.5241 29.4607 50.3513 29.8495C50.2414 30.0968 50.0354 30.4659 49.7115 30.2994C49.4781 30.1794 49.5594 29.7531 49.6136 29.5519C49.7147 29.1771 49.814 28.8717 49.9276 28.5298C49.9587 28.436 50.0026 28.2737 50.0415 28.1887C50.0928 28.0768 50.2503 28.1317 50.3388 28.1746C50.4699 28.238 50.439 28.2947 50.3997 28.4209C50.2802 28.8044 50.103 29.1865 49.9957 29.5772C49.9906 29.5964 49.9186 29.8717 49.9691 29.8576Z" fill="#262933"/>
<path d="M55.3229 30.0489C55.3633 30.0717 55.3669 30.1205 55.3543 30.1625C55.344 30.1972 55.2594 30.3536 55.2352 30.3721C55.168 30.4231 55.0442 30.3673 54.9526 30.3264C54.9219 30.3127 54.8861 30.3275 54.8739 30.3586L54.7857 30.5853C54.7714 30.6222 54.7953 30.6433 54.8265 30.6552C54.883 30.6703 55.0771 30.7015 55.0962 30.7456C55.1237 30.8092 55.0141 31.0616 54.9675 31.1161C54.9349 31.1544 54.8915 31.1559 54.8451 31.1482C54.7531 31.1331 54.4254 31.0405 54.3489 30.9999C54.2882 30.9676 54.266 30.9221 54.2797 30.855C54.2915 30.797 54.3286 30.69 54.3493 30.6287C54.4856 30.2245 54.6748 29.7753 54.865 29.3936C54.9086 29.3059 55.0191 29.0765 55.0771 29.0142C55.1232 28.9647 55.1804 28.9912 55.2342 29.0144C55.3354 29.0579 55.6975 29.2559 55.7712 29.3222C55.7972 29.3456 55.8106 29.3784 55.8083 29.4132C55.8038 29.4791 55.6979 29.7213 55.624 29.716C55.5635 29.7117 55.4017 29.5862 55.3138 29.5468C55.2879 29.5352 55.2574 29.5451 55.243 29.5696C55.1554 29.7179 55.104 29.7957 55.0639 29.9055C55.0587 29.9198 55.0545 29.946 55.0756 29.9541C55.1478 29.9816 55.2605 30.0136 55.3229 30.0489Z" fill="#262933"/>
<path d="M51.4421 29.3932C51.4046 29.4093 51.2031 29.3431 51.1724 29.3175C51.1393 29.29 51.1822 29.1606 51.1859 29.1162C51.1922 29.0416 51.1805 28.9826 51.1183 29.0718C50.9292 29.3433 51.1819 29.5054 51.2624 29.7461C51.362 30.0438 51.2322 30.4962 50.9042 30.5874C50.6476 30.6588 50.4157 30.4417 50.3867 30.1945C50.3749 30.0945 50.4017 29.8915 50.4619 29.8132C50.5008 29.7628 50.7454 29.8293 50.7856 29.8705C50.8354 29.9216 50.7554 30.174 50.8184 30.1983C50.8759 30.2205 50.9332 30.0643 50.9421 30.0254C50.9889 29.8193 50.7349 29.5723 50.7161 29.3253C50.6917 29.0055 50.943 28.4894 51.3278 28.6625C51.6008 28.7855 51.615 29.1859 51.4421 29.3932Z" fill="#262933"/>
<path d="M53.0982 29.099C53.0723 29.0986 53.0497 29.1263 53.0358 29.1451C52.9499 29.2614 52.9099 29.4329 52.8774 29.5733C52.8264 29.7935 52.738 30.2128 52.8236 30.2371C52.8449 30.2493 52.8587 30.2399 52.87 30.2211C52.9704 30.0562 52.8651 29.8697 53.1419 29.9541C53.2885 29.9987 53.2892 30.0113 53.2587 30.1557C53.2223 30.3277 53.1172 30.5945 52.9382 30.6592C52.7458 30.7287 52.5551 30.6016 52.4895 30.4197C52.3508 30.0352 52.5772 28.9721 52.8951 28.7192C53.1386 28.5256 53.4292 28.7326 53.4586 29.0119C53.4678 29.0985 53.4488 29.3363 53.3824 29.3974C53.3406 29.4359 53.1222 29.4004 53.0953 29.3555C53.0597 29.3032 53.1633 29.1076 53.0982 29.099Z" fill="#262933"/>
<path d="M52.3912 28.9256C52.4353 28.9365 52.5174 28.9587 52.5331 29.004C52.5528 29.061 52.4185 29.5309 52.3962 29.6314C52.3294 29.9316 52.268 30.2338 52.2091 30.5357C52.1804 30.6791 51.802 30.628 51.8452 30.4723C51.9772 30.0173 52.036 29.498 52.184 29.052C52.2281 28.9192 52.2451 28.8896 52.3912 28.9256Z" fill="#262933"/>
<path d="M56.2132 29.6019C56.074 29.5017 56.0262 29.4299 55.9229 29.5975C55.7467 29.8833 55.1911 30.8966 55.1127 31.0684C55.0937 31.11 55.0621 31.1733 55.0917 31.2142C55.1222 31.2564 55.3053 31.3424 55.3487 31.3243C55.3959 31.3046 55.6049 30.9215 55.6596 30.8389C55.6691 30.8245 55.6891 30.7925 55.7102 30.7594C55.7211 30.7424 55.7473 30.7511 55.746 30.7711C55.7452 30.785 55.6983 31.2592 55.7949 31.2823C55.8368 31.2924 56.0448 31.338 56.0796 31.3213C56.1073 31.308 56.1157 31.2723 56.1203 31.2451C56.1315 31.1798 56.1049 30.8292 56.1193 30.8074C56.2611 30.7925 56.3981 30.7747 56.5112 30.6779C56.9297 30.3193 56.5415 29.8381 56.2132 29.6019ZM56.2044 30.428C56.1325 30.4719 55.9824 30.46 55.9207 30.3801L56.1544 29.9748C56.3383 30.0582 56.4023 30.3075 56.2044 30.428Z" fill="#262933"/>
<path d="M52.2775 27.0771C52.7065 27.207 53.2449 27.5164 53.5026 27.8906C54.9651 27.6324 58.1647 29.3722 57.1547 31.2674C56.1454 32.6084 53.831 32.1866 52.6431 31.2892C50.8531 31.8425 47.3625 31.0509 47.4786 28.7143C47.6815 27.3954 48.9806 26.8232 50.1287 27.3701C50.7968 26.8531 51.5864 26.8679 52.2775 27.0771ZM52.3652 27.4666C51.5366 27.1556 50.8207 27.3183 50.1461 27.7432C48.6797 26.8682 47.0384 28.4453 48.1345 29.858C49.0939 30.9712 51.3298 31.4126 52.6945 30.9449C53.5246 31.5816 54.6437 31.9031 55.6898 31.7502C56.9696 31.5761 57.5569 30.4948 56.5555 29.5189C54.9389 27.9429 53.3686 28.2043 53.3686 28.2043C53.0886 27.881 52.7496 27.6108 52.3652 27.4666Z" fill="#262933"/>
</svg>
