<svg width="120" height="96" viewBox="0 0 120 96" fill="none" xmlns="http://www.w3.org/2000/svg">
<mask id="mask0_9_14960" style="mask-type:luminance" maskUnits="userSpaceOnUse" x="25" y="22" width="86" height="52">
<path d="M25.0698 22.0767H110.89V73.923H25.0698V22.0767Z" fill="white"/>
</mask>
<g mask="url(#mask0_9_14960)">
<path d="M109.938 44.7979L95.8464 32.458C95.3182 31.9965 94.6401 31.7442 93.9388 31.7508H82.6696L84.1947 25.28V25.0601C84.1947 23.4764 82.9147 22.1924 81.335 22.1924H37.4776C35.945 22.1916 34.6832 23.4009 34.617 24.9356L25.0825 64.02V64.2491C25.0825 65.8328 26.3634 67.1168 27.9431 67.1168H33.7304C34.0583 69.587 35.5668 71.7426 37.7724 72.8922C39.978 74.0417 42.6043 74.0417 44.8099 72.8922C47.0155 71.7426 48.524 69.587 48.8519 67.1168H86.1684C86.4963 69.587 88.0048 71.7426 90.2104 72.8922C92.416 74.0417 95.0423 74.0417 97.2479 72.8922C99.4535 71.7426 100.962 69.587 101.29 67.1168H108.031C109.611 67.1168 110.891 65.8328 110.891 64.2491V46.9582C110.897 46.1348 110.55 45.3479 109.938 44.7985L109.938 44.7979ZM41.2903 71.8961C39.7736 71.8961 38.3181 71.2918 37.245 70.2161C36.1728 69.1404 35.5701 67.682 35.5701 66.1606C35.5701 64.64 36.1728 63.181 37.245 62.106C38.318 61.0303 39.7736 60.4261 41.2903 60.4261C42.808 60.4261 44.2626 61.0303 45.3357 62.106C46.4079 63.1809 47.0106 64.6401 47.0106 66.1606C47.0106 67.6821 46.4079 69.1403 45.3357 70.2161C44.2627 71.2918 42.8079 71.8961 41.2903 71.8961ZM72.9541 65.2053H48.8529C48.525 62.7352 47.0165 60.5795 44.8109 59.43C42.6053 58.2804 39.979 58.2804 37.7734 59.43C35.5678 60.5796 34.0593 62.7352 33.7314 65.2053H27.944C27.4531 65.2078 27.0399 64.8352 26.9911 64.3446L36.5248 25.2899V25.0608C36.5248 24.5329 36.952 24.1054 37.4785 24.1054H81.336C81.827 24.103 82.2401 24.4748 82.289 24.9654L72.9541 65.2053ZM93.7298 71.8961C92.213 71.8961 90.7576 71.2918 89.6845 70.2161C88.6123 69.1404 88.0096 67.682 88.0096 66.1606C88.0096 64.64 88.6123 63.181 89.6845 62.106C90.7575 61.0303 92.2131 60.4261 93.7298 60.4261C95.2475 60.4261 96.702 61.0303 97.7752 62.106C98.8482 63.1809 99.4501 64.6401 99.4501 66.1606C99.4501 67.6821 98.8482 69.1403 97.7752 70.2161C96.7021 71.2919 95.2474 71.8961 93.7298 71.8961ZM108.985 64.2492C108.985 64.5031 108.885 64.7463 108.706 64.9248C108.527 65.1041 108.284 65.2053 108.032 65.2053H101.291C100.963 62.7352 99.4542 60.5795 97.2486 59.43C95.0431 58.2804 92.4167 58.2804 90.2112 59.43C88.0056 60.5796 86.4971 62.7352 86.1692 65.2053H74.9091L82.2224 33.662H93.9685C94.2003 33.6628 94.4238 33.7474 94.5977 33.901L108.661 46.2409C108.867 46.4218 108.985 46.6832 108.985 46.9572L108.985 64.2492Z" fill="#262933"/>
</g>
<path d="M26.2049 33.605H13.3843C12.9123 33.605 12.5293 33.9889 12.5293 34.4622C12.5293 34.9354 12.9123 35.3186 13.3843 35.3186H26.2049C26.677 35.3186 27.0599 34.9354 27.0599 34.4622C27.0599 33.9889 26.677 33.605 26.2049 33.605Z" fill="#262933"/>
<path d="M24.4947 43.0303H15.9481C15.476 43.0303 15.093 43.4142 15.093 43.8875C15.093 44.3607 15.476 44.7439 15.9481 44.7439H24.4947C24.9668 44.7439 25.3498 44.3607 25.3498 43.8875C25.3498 43.4142 24.9668 43.0303 24.4947 43.0303Z" fill="#262933"/>
<path d="M21.9317 51.5981H18.513C18.0409 51.5981 17.6587 51.9813 17.6587 52.4546C17.6587 52.9278 18.0409 53.3118 18.513 53.3118H21.9317C22.4037 53.3118 22.7867 52.9278 22.7867 52.4546C22.7867 51.9813 22.4037 51.5981 21.9317 51.5981Z" fill="#262933"/>
<mask id="mask1_9_14960" style="mask-type:luminance" maskUnits="userSpaceOnUse" x="9" y="24" width="22" height="2">
<path d="M9.10986 24.0767H30.5639V25.9815H9.10986V24.0767Z" fill="white"/>
</mask>
<g mask="url(#mask1_9_14960)">
<path d="M30.4781 25.0347C30.4781 24.8077 30.3883 24.5897 30.228 24.429C30.0677 24.2682 29.8502 24.1782 29.6238 24.1782H9.9654C9.49334 24.1782 9.11035 24.5614 9.11035 25.0347C9.11035 25.5079 9.49334 25.8919 9.9654 25.8919H29.6238C29.8502 25.8919 30.0677 25.8018 30.228 25.6411C30.3884 25.4804 30.4781 25.2624 30.4781 25.0347Z" fill="#262933"/>
</g>
</svg>
