<svg width="120" height="96" viewBox="0 0 120 96" fill="none" xmlns="http://www.w3.org/2000/svg">
<path fill-rule="evenodd" clip-rule="evenodd" d="M91.4309 21.5H24.4166C23.9583 21.5 23.5 21.8382 23.5 22.4018V69.6236C23.5 70.0745 23.8437 70.5254 24.4166 70.5254H70.5829C71.3849 70.5254 71.7287 69.6236 71.1558 69.0599L70.1246 68.0454C70.01 67.9327 69.7808 67.8199 69.5517 67.8199H27.1667C26.7084 67.8199 26.2501 67.4818 26.2501 66.9181V58.3527C26.2501 58.1273 26.3646 57.9018 26.5938 57.6764L44.5787 42.2356C44.9224 41.8974 45.4953 42.0102 45.8391 42.3483L58.8991 55.9874L60.1594 57.2274C60.5031 57.5655 60.9614 57.5655 61.4197 57.3401L62.7947 56.2128L65.7728 53.7337L73.333 47.3092C73.6768 46.971 74.2496 47.0837 74.5934 47.4219L81.6952 54.8601C82.039 55.1982 82.6118 55.1982 82.9556 54.8601L83.643 54.1837C83.9868 53.8455 83.9868 53.2819 83.643 52.9437L74.8225 43.702C74.4787 43.3639 74.0204 43.3639 73.5621 43.5893L61.7634 53.733C61.4197 54.0711 60.8468 53.9584 60.503 53.6202L45.9546 38.6312C45.6109 38.293 45.1526 38.293 44.6943 38.5184L27.7407 53.1693C27.1679 53.6202 26.2512 53.282 26.2512 52.4929V24.9929C26.2512 24.542 26.595 24.0911 27.1678 24.0911H87.7679C88.2262 24.0911 88.6845 24.4293 88.6845 24.9929V47.0829C88.6845 47.3083 88.7991 47.5338 88.9137 47.6465L89.9449 48.661C90.5177 49.2247 91.4344 48.7738 91.4344 48.0974L91.4309 21.5ZM81.0062 60.1584L88.7957 52.4947C89.1394 52.1565 89.7123 52.1565 90.056 52.4947L96.2422 58.581C96.5859 58.9192 96.5859 59.4828 96.2422 59.821L81.5792 74.2464C81.2355 74.5845 80.6626 74.5845 80.3189 74.2464L69.8942 63.99C69.5505 63.6518 69.5505 63.0882 69.8942 62.75L76.0804 56.6637C76.4241 56.3255 76.997 56.3255 77.3407 56.6637L81.0062 60.1584ZM81.0062 63.7647L88.7957 56.101C89.1394 55.7629 89.7123 55.7629 90.056 56.101L92.6904 58.6929C93.0341 59.0311 93.0341 59.5947 92.6904 59.9329L81.6938 70.7519C81.3501 71.0901 80.7772 71.0901 80.4335 70.7519L73.5599 63.9893C73.2162 63.6511 73.2162 63.0875 73.5599 62.7493L76.1943 60.1575C76.538 59.8193 77.1109 59.8193 77.4546 60.1575L81.0062 63.7647ZM63.4797 33.2223C66.6868 33.2223 68.9785 36.7159 66.5725 39.9849C66.4579 40.0976 66.4579 40.0976 66.3433 40.2104C63.0216 42.5767 59.4697 40.3231 59.4697 37.1675C59.3561 35.0249 61.1881 33.2223 63.4797 33.2223ZM63.4797 38.7451C64.2817 38.7451 64.9692 38.0688 64.9692 37.2797C64.9692 36.4906 64.2817 35.8143 63.4797 35.8143C62.6777 35.8143 61.9902 36.4906 61.9902 37.2797C61.9902 38.0688 62.5631 38.7451 63.4797 38.7451Z" fill="#262933" stroke="white" stroke-width="0.7"/>
</svg>
