<svg width="120" height="96" viewBox="0 0 120 96" fill="none" xmlns="http://www.w3.org/2000/svg">
<path d="M36.3843 71.067C31.4262 71.067 29.0776 66.9846 29.0776 63.1744C29.0776 59.2281 31.5567 55.1457 36.2538 55.0096C34.9491 52.288 35.0796 49.2942 36.5148 46.8448C37.95 44.3954 40.2986 43.0346 43.0386 43.0346C44.2129 43.0346 45.5177 43.3067 46.692 43.851C49.8234 37.1831 54.3901 33.6451 60.5225 33.2368C61.0444 33.2368 61.5663 33.2368 62.0882 33.2368C70.9606 33.2368 77.354 39.3604 78.6587 49.1582C82.3121 49.0221 85.574 50.2468 87.6616 52.5602C89.4883 54.6014 90.5321 57.1869 90.4016 60.3167C90.2711 66.3042 86.2264 70.3866 79.9635 71.067" stroke="#262933" stroke-width="1.8" stroke-miterlimit="10" stroke-linecap="round" stroke-linejoin="round"/>
<path d="M48.9106 62.2212L39.9077 81.0002" stroke="#262933" stroke-width="1.8" stroke-miterlimit="10" stroke-linecap="round" stroke-linejoin="round"/>
<path d="M58.3047 62.2212L49.3018 81.0002" stroke="#262933" stroke-width="1.8" stroke-miterlimit="10" stroke-linecap="round" stroke-linejoin="round"/>
<path d="M67.6985 62.2212L58.6956 81.0002" stroke="#262933" stroke-width="1.8" stroke-miterlimit="10" stroke-linecap="round" stroke-linejoin="round"/>
<path d="M76.9611 62.2212L67.9583 81.0002" stroke="#262933" stroke-width="1.8" stroke-miterlimit="10" stroke-linecap="round" stroke-linejoin="round"/>
<path d="M56.0862 21.2598L58.6957 23.9814" stroke="#262933" stroke-width="1.8" stroke-miterlimit="10" stroke-linecap="round" stroke-linejoin="round"/>
<path d="M70.4382 15V19.0824" stroke="#262933" stroke-width="1.8" stroke-miterlimit="10" stroke-linecap="round" stroke-linejoin="round"/>
<path d="M84.9217 21.3955L82.1816 23.981" stroke="#262933" stroke-width="1.8" stroke-miterlimit="10" stroke-linecap="round" stroke-linejoin="round"/>
<path d="M87.269 36.4995H90.9224" stroke="#262933" stroke-width="1.8" stroke-miterlimit="10" stroke-linecap="round" stroke-linejoin="round"/>
<path d="M64.0461 29.0176C66.6557 24.663 72.1357 23.4383 76.1805 26.1599C80.3557 28.8815 81.53 34.5969 78.9205 38.8154" stroke="#262933" stroke-width="1.8" stroke-miterlimit="10" stroke-linecap="round" stroke-linejoin="round"/>
</svg>
