<svg width="24" height="24" viewBox="0 0 24 24" fill="none" xmlns="http://www.w3.org/2000/svg">
<rect x="0.00146484" width="24" height="24" rx="12" fill="#FBE201"/>
<g clip-path="url(#clip0_2134_4627)">
<mask id="mask0_2134_4627" style="mask-type:luminance" maskUnits="userSpaceOnUse" x="-33" y="-22" width="169" height="120">
<path d="M-32.8269 -21.6238H135.456V97.3647H-32.8269V-21.6238Z" fill="white"/>
</mask>
<g mask="url(#mask0_2134_4627)">
<path d="M24.003 12.0016C24.003 18.6266 18.6252 24 12.0014 24C5.37355 24 0 18.6266 0 12.0016C0 5.37255 5.37355 0 12.0014 0C18.6252 0 24.003 5.37255 24.003 12.0016Z" fill="#E83E44"/>
</g>
<mask id="mask1_2134_4627" style="mask-type:luminance" maskUnits="userSpaceOnUse" x="-33" y="-22" width="169" height="120">
<path d="M-32.8269 -21.6238H135.456V97.3647H-32.8269V-21.6238Z" fill="white"/>
</mask>
<g mask="url(#mask1_2134_4627)">
<path d="M2.00053 10.6635C2.00053 10.6717 2.02291 10.9282 2.02291 10.9282C2.01892 10.9873 2.0515 11.0435 2.10467 11.0639C2.15164 11.0855 2.20481 11.0753 2.25178 11.0355C2.69913 10.6595 3.37755 10.3233 3.92304 10.5112C4.34999 10.6595 4.64023 11.0999 4.79134 11.822C5.10197 13.336 4.06396 14.0656 3.41632 14.3626L3.39394 14.3728L2.56421 14.7796C2.56421 14.7796 2.51743 14.7998 2.46626 14.7754C2.41529 14.7488 2.4009 14.716 2.36612 14.6263C1.80224 12.5452 1.61015 10.3591 1.82063 8.31803C1.84302 8.16472 1.91258 7.97882 2.03111 7.82751L2.72771 7.08493L2.80547 7.00018C3.18346 6.63239 3.53885 6.44849 3.73115 6.52824C3.89046 6.59561 3.92923 6.85106 3.93123 7.05135C3.96381 8.13613 3.35716 9.2447 2.08628 10.4386C2.08628 10.4386 1.98813 10.5184 2.00053 10.6635ZM5.81916 9.15875C5.44098 8.93288 5.01422 8.86872 4.58306 8.93108C5.36942 8.09316 5.79677 7.18207 5.79677 6.26259C5.79677 6.17884 5.79458 6.09509 5.78438 6.00914C5.7436 5.43726 5.47995 5.00811 5.07139 4.86299C4.66262 4.70987 3.91264 4.78743 2.72152 6.00514L2.00652 6.80609C1.80844 7.04715 1.05646 8.1851 0.91754 9.37023C0.684672 11.3847 0.833787 13.3952 1.3467 15.1777C1.40586 15.386 1.59795 15.8889 2.05969 16.075C2.55021 16.2751 3.01595 16.0341 3.42872 15.8214L3.53885 15.7664L3.96381 15.5763L4.37658 15.3944L4.87929 15.1737C5.24069 15.0266 5.5801 14.8897 5.91091 14.6119C6.35026 14.2369 6.67308 13.7468 6.83858 13.1889C6.92454 12.9008 6.9837 12.5862 7.01428 12.2286C7.04087 11.9508 7.06945 11.4113 6.96531 10.9373C6.73864 9.89334 6.21953 9.39462 5.81916 9.15875Z" fill="white"/>
<path d="M15.238 2.83434C15.0049 2.03559 14.625 1.86809 14.5146 1.83111C13.5178 1.51249 12.4816 1.44713 11.4765 1.62263C9.9666 1.90067 8.66114 2.69322 7.79483 3.85396C6.88555 5.07467 6.53415 6.59781 6.8038 8.13833C7.07764 9.68506 7.8582 10.9375 9.07171 11.7569C10.4937 12.7151 12.3856 13.0072 14.4085 12.5822C15.6036 12.3228 16.5906 11.858 17.3546 11.199C17.6958 10.9028 17.7612 10.5258 17.7612 10.2611C17.7612 10.2611 17.7796 10.0477 17.6141 9.37443C17.5693 9.21113 17.4977 9.16195 17.3832 9.16195C17.2994 9.16195 17.2117 9.2581 17.1953 9.27849C16.6252 9.93851 15.7569 10.3981 14.6719 10.6115C11.8871 11.1468 9.74593 9.84657 9.21483 7.29661C8.98796 6.19224 9.17585 5.13304 9.75213 4.3135C10.3304 3.47997 11.2783 2.92829 12.4204 2.75678C13.2907 2.63006 14.1754 2.7372 14.9702 3.06941C14.9702 3.06941 15.3116 3.16835 15.238 2.83434Z" fill="white"/>
</g>
</g>
<defs>
<clipPath id="clip0_2134_4627">
<rect width="24.003" height="24" fill="white"/>
</clipPath>
</defs>
</svg>
