<svg width="24" height="24" viewBox="0 0 24 24" fill="none" xmlns="http://www.w3.org/2000/svg">
<rect width="24" height="24" rx="12" fill="#003B70"/>
<g clip-path="url(#clip0_2134_4755)">
<path d="M8.91363 15.1239L8.88539 15.1512C8.43024 15.6149 7.90343 15.8607 7.3606 15.8607C6.22752 15.8607 5.40502 15.0106 5.40502 13.8378C5.40502 12.6671 6.22752 11.8158 7.3606 11.8158C7.90343 11.8158 8.43024 12.0626 8.88539 12.5276L8.91363 12.5557L9.64233 11.6746L9.62285 11.6507C9.01684 10.9346 8.2897 10.5859 7.39578 10.5859C6.49876 10.5859 5.67877 10.8878 5.0878 11.4322C4.4457 12.0218 4.10669 12.8533 4.10669 13.8378C4.10669 14.8218 4.4457 15.6553 5.0878 16.2451C5.67877 16.792 6.49876 17.0922 7.39578 17.0922C8.2897 17.0922 9.01684 16.7438 9.62285 16.0274L9.64233 16.0051L8.91363 15.1239Z" fill="white"/>
<path d="M10.3787 16.9723H11.666V10.688H10.3787V16.9723Z" fill="white"/>
<path d="M16.7087 15.6057C16.3652 15.8149 16.0456 15.92 15.7586 15.92C15.3427 15.92 15.1547 15.7005 15.1547 15.2115V11.8771H16.4658V10.6937H15.1547V8.73828L13.8929 9.41354V10.6937H12.8044V11.8771H13.8929V15.4242C13.8929 16.3907 14.4654 17.0509 15.32 17.068C15.9002 17.0794 16.25 16.9065 16.4624 16.7802L16.4749 16.7709L16.7848 15.5592L16.7087 15.6057Z" fill="white"/>
<path d="M17.7747 16.9723H19.0628V10.688H17.7747V16.9723Z" fill="white"/>
<path fill-rule="evenodd" clip-rule="evenodd" d="M19.834 9.57275C18.6556 7.90358 16.6986 6.90771 14.7075 6.90771C12.7172 6.90771 10.7598 7.90358 9.5833 9.57275L9.52295 9.65863H11.0067L11.0232 9.64082C12.0331 8.59847 13.3514 8.04724 14.7075 8.04724C16.0637 8.04724 17.3817 8.59847 18.3936 9.64082L18.41 9.65863H19.8933L19.834 9.57275Z" fill="#D9261C"/>
</g>
<defs>
<clipPath id="clip0_2134_4755">
<rect width="16" height="10.3976" fill="white" transform="translate(4 6.80127)"/>
</clipPath>
</defs>
</svg>
