<svg width="183" height="40" viewBox="0 0 183 40" fill="none" xmlns="http://www.w3.org/2000/svg">
<g clip-path="url(#clip0_2124_21390)">
<mask id="mask0_2124_21390" style="mask-type:luminance" maskUnits="userSpaceOnUse" x="-89" y="-514" width="1486" height="1051">
<path d="M-88.1953 -513.972H1396.82V536.036H-88.1953V-513.972Z" fill="white"/>
</mask>
<g mask="url(#mask0_2124_21390)">
<path d="M62.8119 10.7731V32.0811H58.6438V21.8257H49.9918V32.0811H45.8237V10.7731H49.9918V19.0546H58.6438V10.7731H62.8119Z" fill="#231F20"/>
<path d="M75.2986 32.0811C75.1769 32.0017 75.0411 31.8235 74.8894 31.536C74.7324 31.2503 74.6566 30.9716 74.6566 30.6823C74.0286 31.3526 73.3089 31.8094 72.4958 32.0528C71.6826 32.2998 70.8836 32.418 70.0951 32.418C68.6505 32.418 67.451 31.977 66.4985 31.0915C65.5407 30.2113 65.0645 29.0101 65.0645 27.4879C65.0645 26.0891 65.5672 24.8632 66.5744 23.8154C67.5798 22.7747 69.0332 22.1468 70.9418 21.9457L74.3532 21.5506C74.3532 20.2488 74.0621 19.3615 73.4836 18.8871C72.9068 18.4073 72.2506 18.1709 71.5203 18.1709C70.6296 18.1709 69.7794 18.3702 68.9821 18.7618C68.1795 19.1605 67.4422 19.6614 66.7737 20.2717L66.0716 17.1955C66.883 16.6257 67.7421 16.1989 68.6469 15.9184C69.5465 15.6344 70.5855 15.4915 71.7655 15.4915C72.4958 15.4915 73.2507 15.5921 74.0339 15.7949C74.8153 15.9995 75.5209 16.3347 76.1471 16.7986C76.7979 17.2696 77.3254 17.8834 77.7328 18.6436C78.1367 19.4039 78.3431 20.3405 78.3431 21.4606V28.0964C78.3431 28.7261 78.3907 29.3982 78.4948 30.1037C78.5971 30.8181 78.7964 31.476 79.1051 32.0811H75.2986ZM74.3867 24.11L72.3423 24.3781C71.3898 24.5016 70.619 24.8297 70.0298 25.3553C69.4407 25.8827 69.1479 26.5406 69.1479 27.3379C69.1479 28.0453 69.3472 28.6115 69.7441 29.0401C70.1357 29.467 70.6066 29.6786 71.157 29.6786C71.5821 29.6786 71.9966 29.6169 72.3935 29.4952C72.7886 29.3735 73.1273 29.153 73.4077 28.8284C73.7164 28.5003 73.9545 28.0717 74.1274 27.532C74.2985 26.9957 74.3867 26.3007 74.3867 25.4453V24.11Z" fill="#231F20"/>
<path d="M85.2843 15.7943V17.1949C85.8293 16.6481 86.4732 16.2283 87.214 15.9319C87.9548 15.6356 88.7221 15.4892 89.5159 15.4892C91.465 15.4892 92.9961 16.0571 94.1303 17.1949C95.2503 18.3308 95.8148 19.8866 95.8148 21.8551V32.084H91.8301V22.4337C91.8301 21.1954 91.5514 20.19 90.9887 19.4192C90.4314 18.6483 89.6464 18.2603 88.6304 18.2603C87.6955 18.2603 86.9106 18.643 86.2738 19.4033C85.63 20.1618 85.3143 21.2166 85.3143 22.5536V32.084H81.3525V15.7943H85.2843Z" fill="#231F20"/>
<path d="M108.18 32.0811C108.057 32.0017 107.919 31.8235 107.768 31.536C107.618 31.2503 107.538 30.9716 107.538 30.6823C106.909 31.3526 106.189 31.8094 105.378 32.0528C104.566 32.2998 103.76 32.418 102.972 32.418C101.529 32.418 100.335 31.977 99.3749 31.0915C98.426 30.2113 97.9497 29.0101 97.9497 27.4879C97.9497 26.0891 98.4507 24.8632 99.4596 23.8154C100.458 22.7747 101.917 22.1468 103.825 21.9457L107.231 21.5506C107.231 20.2488 106.946 19.3615 106.367 18.8871C105.788 18.4073 105.134 18.1709 104.404 18.1709C103.508 18.1709 102.665 18.3702 101.857 18.7618C101.056 19.1605 100.322 19.6614 99.6536 20.2717L98.9551 17.1955C99.7648 16.6257 100.62 16.1989 101.522 15.9184C102.43 15.6344 103.469 15.4915 104.649 15.4915C105.378 15.4915 106.134 15.5921 106.914 15.7949C107.699 15.9995 108.401 16.3347 109.031 16.7986C109.68 17.2696 110.202 17.8834 110.616 18.6436C111.022 19.4039 111.221 20.3405 111.221 21.4606V28.0964C111.221 28.7261 111.276 29.3982 111.375 30.1037C111.474 30.8181 111.68 31.476 111.983 32.0811H108.18ZM107.263 24.11L105.228 24.3781C104.27 24.5016 103.502 24.8297 102.913 25.3553C102.324 25.8827 102.028 26.5406 102.028 27.3379C102.028 28.0453 102.227 28.6115 102.621 29.0401C103.014 29.467 103.492 29.6786 104.037 29.6786C104.464 29.6786 104.873 29.6169 105.27 29.4952C105.661 29.3735 106.005 29.153 106.291 28.8284C106.595 28.5003 106.829 28.0717 107.006 27.532C107.177 26.9957 107.263 26.3007 107.263 25.4453V24.11Z" fill="#231F20"/>
<path d="M125.413 32.0811H118.622V10.7731H125.866C127.651 10.7731 129.133 11.2264 130.301 12.1384C131.463 13.0556 132.047 14.2303 132.047 15.6732C132.047 17.1126 131.698 18.2503 130.982 19.0828C130.274 19.9172 129.491 20.4851 128.639 20.7903C129.878 21.0919 130.922 21.6546 131.774 22.4625C132.626 23.2756 133.051 24.4028 133.051 25.8474C133.051 27.733 132.396 29.2465 131.088 30.3807C129.782 31.5166 127.89 32.0811 125.413 32.0811ZM122.824 13.4207V19.6614H124.376C125.53 19.6614 126.404 19.351 126.992 18.7336C127.581 18.1127 127.879 17.2872 127.879 16.25C127.879 15.3998 127.63 14.7137 127.131 14.1951C126.635 13.68 125.926 13.4207 125.013 13.4207H122.824ZM122.824 22.3143V29.4334H125.013C126.073 29.4334 126.948 29.1248 127.651 28.5074C128.348 27.8883 128.703 27.001 128.703 25.8474C128.703 24.5633 128.283 23.6566 127.452 23.1222C126.62 22.5789 125.683 22.3143 124.651 22.3143H122.824Z" fill="#231F20"/>
<path d="M145.199 32.0811C145.08 32.0017 144.941 31.8235 144.789 31.536C144.634 31.2503 144.56 30.9716 144.56 30.6823C143.927 31.3526 143.209 31.8094 142.399 32.0528C141.584 32.2998 140.782 32.418 139.993 32.418C138.547 32.418 137.356 31.977 136.398 31.0915C135.446 30.2113 134.97 29.0101 134.97 27.4879C134.97 26.0891 135.476 24.8632 136.481 23.8154C137.48 22.7747 138.939 22.1468 140.847 21.9457L144.251 21.5506C144.251 20.2488 143.966 19.3615 143.389 18.8871C142.81 18.4073 142.156 18.1709 141.424 18.1709C140.528 18.1709 139.685 18.3702 138.879 18.7618C138.078 19.1605 137.344 19.6614 136.672 20.2717L135.975 17.1955C136.787 16.6257 137.644 16.1989 138.543 15.9184C139.452 15.6344 140.491 15.4915 141.671 15.4915C142.399 15.4915 143.156 15.5921 143.934 15.7949C144.719 15.9995 145.421 16.3347 146.052 16.7986C146.701 17.2696 147.224 17.8834 147.638 18.6436C148.04 19.4039 148.243 20.3405 148.243 21.4606V28.0964C148.243 28.7261 148.296 29.3982 148.395 30.1037C148.495 30.8181 148.698 31.476 149.003 32.0811H145.199ZM144.285 24.11L142.246 24.3781C141.292 24.5016 140.521 24.8297 139.933 25.3553C139.346 25.8827 139.048 26.5406 139.048 27.3379C139.048 28.0453 139.245 28.6115 139.642 29.0401C140.036 29.467 140.512 29.6786 141.057 29.6786C141.486 29.6786 141.895 29.6169 142.292 29.4952C142.683 29.3735 143.025 29.153 143.311 28.8284C143.615 28.5003 143.851 28.0717 144.026 27.532C144.2 26.9957 144.285 26.3007 144.285 25.4453V24.11Z" fill="#231F20"/>
<path d="M155.189 15.7943V17.1949C155.734 16.6481 156.378 16.2283 157.117 15.9319C157.86 15.6356 158.625 15.4892 159.421 15.4892C161.366 15.4892 162.903 16.0571 164.033 17.1949C165.159 18.3308 165.718 19.8866 165.718 21.8551V32.084H161.735V22.4337C161.735 21.1954 161.456 20.19 160.897 19.4192C160.333 18.6483 159.551 18.2603 158.533 18.2603C157.597 18.2603 156.817 18.643 156.179 19.4033C155.535 20.1618 155.216 21.2166 155.216 22.5536V32.084H151.257V15.7943H155.189Z" fill="#231F20"/>
<path d="M168.522 32.0811V9.85939H172.477V21.5206L177.657 15.7949H181.889L175.585 22.7712L182.677 32.0811H178.144L172.477 24.6885V32.0811H168.522Z" fill="#231F20"/>
<path d="M28.7948 23.7028C28.6925 23.0925 28.5284 22.5016 28.2815 21.9548C27.5089 20.2861 26.4312 18.8874 24.8225 17.9437C22.3124 16.4832 19.282 16.4902 16.8002 17.9984C15.6766 18.6757 14.7523 19.6511 14.1579 20.8259C13.9568 21.2228 13.791 21.639 13.6587 22.0659C13.0043 24.1438 13.0272 26.9378 14.2055 28.8358C14.5901 29.4531 15.1475 29.9858 15.823 30.2451C16.5057 30.508 17.3118 30.478 17.9256 30.0846C18.7141 29.5749 18.8552 28.6012 18.707 27.7369C18.5218 26.6327 18.3789 25.5443 18.7864 24.4631C18.9152 24.1191 19.1004 23.7857 19.3649 23.5317C19.5272 23.3765 19.7195 23.2513 19.9206 23.1525C20.3492 22.9426 20.836 22.8508 21.307 22.9267C22.129 23.0572 22.801 23.6958 23.1662 24.4437C23.5278 25.1916 23.6283 26.0365 23.6689 26.8708C23.84 30.4903 22.9757 34.2404 22.0531 37.717C21.9579 38.0769 21.8591 38.4332 21.7586 38.7913C21.681 39.0664 21.5398 39.4174 21.7145 39.6838C21.7903 39.7967 21.9085 39.8796 22.0355 39.9307C22.5735 40.1477 23.0127 39.8178 23.3725 39.4545C25.4963 37.3184 26.8545 34.5632 27.7858 31.7303C28.1333 30.6702 28.4314 29.5978 28.6325 28.4989C28.9077 26.9996 29.0629 25.2833 28.7948 23.7028Z" fill="#009591"/>
<path d="M43.9945 6.96624C43.9945 6.42296 43.513 6.06489 42.9979 6.08252C42.4723 6.10016 41.9855 6.37004 41.5039 6.55349C32.164 10.1025 21.6318 10.7763 11.7892 9.35986C10.1064 9.11644 8.39895 8.77601 6.7056 8.51318C5.64902 8.34914 4.60303 8.10572 3.5341 8.02987C2.62216 7.95755 1.48797 7.92404 0.750658 8.55905C-0.219489 9.3969 -0.150696 10.9844 0.399642 12.0357C1.06111 13.2969 2.21823 14.2406 3.42474 14.9603C4.59597 15.657 5.99122 16.4014 7.3847 16.3132C11.1471 16.0715 14.8989 15.7064 18.6366 15.2231C25.0114 14.3958 31.6966 13.6144 37.6833 11.1396C39.6412 10.3318 41.5762 9.32458 43.2519 8.02105C43.5571 7.78822 43.9945 7.40898 43.9945 6.96624Z" fill="#009591"/>
<path d="M17.2104 3.76445C17.2104 5.79471 18.8562 7.44043 20.8847 7.44043C22.9132 7.44043 24.5589 5.79471 24.5589 3.76445C24.5589 3.46459 24.4883 3.15943 24.3613 2.88603C24.0438 2.21751 23.6893 1.89471 23.7263 1.09214C23.7722 0.0161567 22.391 0.000280857 21.6449 0.000280857C20.8335 0.000280857 19.9692 0.114935 19.2354 0.481827C18.6516 0.776399 18.1488 1.22972 17.7943 1.77653C17.4292 2.34275 17.2263 3.00774 17.2104 3.68155V3.76445Z" fill="#ED1651"/>
</g>
</g>
<defs>
<clipPath id="clip0_2124_21390">
<rect width="182.677" height="40" fill="white"/>
</clipPath>
</defs>
</svg>
