<svg width="24" height="24" viewBox="0 0 24 24" fill="none" xmlns="http://www.w3.org/2000/svg">
<rect width="24" height="24" rx="12" fill="#009591"/>
<g clip-path="url(#clip0_2134_4654)">
<path d="M13.9624 12.9953C13.9305 12.8054 13.8795 12.6214 13.8026 12.4513C13.5621 11.9319 13.2267 11.4965 12.726 11.2028C11.9447 10.7482 11.0015 10.7504 10.229 11.2198C9.87931 11.4306 9.59161 11.7342 9.40661 12.0999C9.34402 12.2234 9.29242 12.353 9.25125 12.4858C9.04756 13.1326 9.05469 14.0022 9.42143 14.593C9.54113 14.7851 9.71461 14.951 9.92489 15.0316C10.1374 15.1134 10.3883 15.1041 10.5793 14.9817C10.8247 14.823 10.8687 14.52 10.8225 14.2509C10.7649 13.9073 10.7204 13.5685 10.8472 13.232C10.8873 13.1249 10.945 13.0211 11.0273 12.9421C11.0778 12.8938 11.1377 12.8548 11.2003 12.824C11.3337 12.7587 11.4852 12.7301 11.6318 12.7538C11.8877 12.7944 12.0968 12.9931 12.2105 13.2259C12.323 13.4587 12.3543 13.7217 12.3669 13.9814C12.4202 15.108 12.1512 16.2751 11.864 17.3573C11.8344 17.4693 11.8037 17.5802 11.7724 17.6916C11.7482 17.7773 11.7043 17.8865 11.7586 17.9694C11.7822 18.0046 11.819 18.0304 11.8585 18.0463C12.026 18.1138 12.1627 18.0111 12.2747 17.8981C12.9357 17.2332 13.3585 16.3756 13.6484 15.4939C13.7565 15.164 13.8493 14.8301 13.9119 14.4881C13.9975 14.0214 14.0458 13.4873 13.9624 12.9953Z" fill="white"/>
<path d="M18.6934 7.78599C18.6934 7.6169 18.5435 7.50545 18.3832 7.51094C18.2196 7.51643 18.0681 7.60043 17.9182 7.65752C15.0112 8.76215 11.7329 8.97188 8.66941 8.53102C8.14564 8.45525 7.6142 8.34929 7.08714 8.26749C6.75827 8.21643 6.4327 8.14066 6.1 8.11705C5.81615 8.09455 5.46313 8.08411 5.23364 8.28176C4.93168 8.54255 4.9531 9.03666 5.12439 9.36388C5.33027 9.75642 5.69043 10.0502 6.06596 10.2742C6.43051 10.491 6.86478 10.7227 7.29851 10.6952C8.46957 10.6201 9.63734 10.5064 10.8007 10.3559C12.7849 10.0985 14.8656 9.85524 16.729 9.08498C17.3384 8.83352 17.9407 8.52004 18.4623 8.11431C18.5573 8.04184 18.6934 7.9238 18.6934 7.78599Z" fill="white"/>
<path d="M10.3567 6.78929C10.3567 7.4212 10.8689 7.93344 11.5003 7.93344C12.1316 7.93344 12.6439 7.4212 12.6439 6.78929C12.6439 6.69595 12.6219 6.60097 12.5824 6.51587C12.4836 6.30779 12.3732 6.20732 12.3848 5.95752C12.399 5.62262 11.9692 5.61768 11.7369 5.61768C11.4843 5.61768 11.2153 5.65336 10.9869 5.76756C10.8052 5.85924 10.6488 6.00034 10.5384 6.17054C10.4248 6.34677 10.3616 6.55376 10.3567 6.76348V6.78929Z" fill="white"/>
</g>
<defs>
<clipPath id="clip0_2134_4654">
<rect width="14" height="12.7647" fill="white" transform="translate(5 5.61768)"/>
</clipPath>
</defs>
</svg>
