<svg width="24" height="24" viewBox="0 0 24 24" fill="none" xmlns="http://www.w3.org/2000/svg">
<rect width="24" height="24" rx="12" fill="#FBE201"/>
<g clip-path="url(#clip0_2134_4620)">
<path d="M18.4823 19.983H5.50056C4.67145 19.983 4 19.3108 4 18.4823V5.50056C4 4.67145 4.67145 4 5.50056 4H18.4823C19.3108 4 19.983 4.67145 19.983 5.50056V18.4823C19.983 19.3108 19.3108 19.983 18.4823 19.983Z" fill="#FFE300"/>
<path d="M12.5041 14.1893H11.6761V9.79356H12.5041V14.1893ZM14.6683 11.9915C15.3823 11.5208 15.8536 10.7127 15.8536 9.79365C15.8536 8.34102 14.6755 7.16357 13.2229 7.16357H8.81414C8.72961 7.16357 8.66187 7.23133 8.66187 7.31585V16.6672C8.66187 16.7516 8.72962 16.82 8.81414 16.82H13.2229C14.6755 16.82 15.8536 15.6426 15.8536 14.1894C15.8536 13.2704 15.3823 12.4615 14.6683 11.9915Z" fill="#1C1C1C"/>
</g>
<defs>
<clipPath id="clip0_2134_4620">
<rect width="16" height="16" fill="white" transform="translate(4 4)"/>
</clipPath>
</defs>
</svg>
