<svg width="24" height="24" viewBox="0 0 24 24" fill="none" xmlns="http://www.w3.org/2000/svg">
<rect width="24" height="24" rx="12" fill="#554B42"/>
<path d="M19.7423 11.8492L19.604 11.761C19.1322 11.2901 18.4751 11.086 17.5965 11.1373C16.8651 11.182 16.2848 11.4722 15.8419 11.7415C15.8419 11.7349 15.8413 11.7283 15.8413 11.7216C15.8413 11.4923 15.8671 11.2441 15.893 11.0028C15.9182 10.7577 15.9446 10.5083 15.9446 10.2723C15.9446 10.0313 15.9175 9.80296 15.8344 9.60766C15.8136 9.55757 15.7673 9.52764 15.709 9.52764C15.4728 9.533 15.0113 9.6946 14.8995 9.79288C14.8995 9.79351 14.8387 9.92612 14.8387 9.92612C14.8349 10.1879 14.7772 10.9184 14.7186 11.0072C14.7212 11.0041 14.6878 11.0954 14.6878 11.0954C14.5882 12.139 14.5863 13.0566 14.678 13.8445C14.6884 13.9232 14.8405 14.0413 14.9574 14.0842C15.0859 14.1317 15.4879 14.024 15.7197 13.9371C15.7166 13.938 15.8063 13.9232 15.8063 13.9232C15.8794 13.9153 15.9226 13.8536 15.9194 13.7701C15.9182 13.7682 15.9251 13.5433 15.9251 13.5433C16.0924 12.8635 16.7693 12.0521 17.5704 11.9302C18.0233 11.8584 18.3806 11.9749 18.6631 12.2824C18.7012 12.3378 18.7838 12.827 18.4855 13.3893C18.2634 13.8054 17.8192 14.1566 17.2346 14.3756C16.6814 14.586 16.0728 14.6707 15.3212 14.6449C15.2897 14.6247 14.6175 14.1689 14.6175 14.1689C14.0212 13.7503 13.2806 13.2296 12.6094 12.9747C12.4912 12.9294 12.2802 12.7539 12.1529 12.6487L12.0833 12.5917C11.6962 12.2814 10.9594 11.7897 10.3675 11.3959C10.3675 11.3959 10.1004 11.2167 10.0487 11.182C10.0493 11.16 10.0493 11.1153 10.0493 11.1153C10.0667 11.0964 10.4387 10.8733 10.4387 10.8733C10.9591 10.5687 11.1997 10.4194 11.2508 10.3422C11.2404 10.3548 11.3197 10.3016 11.3197 10.3016C11.3248 10.2994 12.6106 9.57143 12.6106 9.57143C13.8499 8.89102 15.2532 8.11832 15.9903 7.35506C15.9916 7.35412 16.0265 7.2382 16.0265 7.2382L16.0417 7.13424C16.0908 6.97076 16.0933 6.84602 16.0521 6.7008C16.0417 6.65922 16.0035 6.61134 15.9525 6.6022C15.3767 6.54456 14.6345 6.8898 13.9585 7.5239C13.8061 7.6666 13.6779 7.73685 13.5427 7.81024L13.4391 7.8682C12.6941 8.29188 11.0158 9.3336 10.1366 9.89588C10.1946 8.95087 10.3691 7.60675 10.5845 6.48628L10.5606 6.3524C10.5581 6.34799 10.4696 6.18293 10.4696 6.18293L10.4009 6.06166L10.381 6.0563C10.2056 5.96778 10.0623 6.00369 9.95704 6.02984L9.78158 6.09473L9.54722 6.17978C9.50123 6.18892 9.46847 6.21758 9.45051 6.26231C9.03093 7.27663 8.68096 8.94489 8.5978 10.2796C7.75926 9.74626 6.98403 9.36258 6.60382 9.17736L6.59343 9.17137L6.54838 9.16161C6.41167 9.14397 6.24503 9.04348 6.08501 8.94646C6.06769 8.93607 5.7656 8.7395 5.7656 8.7395L5.2786 8.42734C5.28207 8.43049 5.14976 8.39804 5.14976 8.39804C4.9406 8.43427 4.53897 8.70422 4.41959 8.88819C4.40415 8.91276 4.39753 8.9389 4.39753 8.96631C4.39753 9.00537 4.40982 9.04411 4.41959 9.08223L4.44101 9.18145L4.46369 9.24099C4.69742 9.48039 5.28679 9.87919 5.86451 10.1901L6.53452 10.5451L7.56017 11.1052C7.56017 11.1099 7.735 11.2441 7.735 11.2441L7.85565 11.3134C7.85565 11.3134 7.86982 11.3216 7.8777 11.3269C7.60459 11.51 6.01225 12.5728 6.01225 12.5728L5.03164 13.2226C4.93871 13.2856 4.55189 13.4589 4.46621 13.4932C4.25389 13.5799 4.09261 13.7128 4.02646 13.8571L4 13.9141L4.02646 13.9516L4.10143 14.0086C4.09765 14.0086 4.2016 14.0741 4.2016 14.0741L4.30996 14.1481C4.31248 14.1491 4.41203 14.1645 4.41203 14.1645C4.58433 14.1711 4.83949 14.0728 5.31703 13.8637C5.75583 13.6696 6.94686 12.9508 7.45622 12.644L7.67326 12.5139C7.76304 12.5211 7.86163 12.4452 7.95015 12.3787C8.05221 12.2972 8.27429 12.1608 8.40974 12.1009C8.41415 12.0997 8.49101 12.0565 8.56409 12.0159C8.56346 12.0382 8.56283 12.0741 8.56283 12.0741C8.58551 13.6321 8.67466 14.7646 8.84508 15.6378L8.8476 15.6526L8.86429 15.6879C8.94808 15.8107 9.04321 16.1802 9.12826 16.5056L9.32199 17.1558C9.3264 17.1637 9.3768 17.2169 9.3768 17.2169C9.48768 17.2922 9.82537 17.4216 10.0506 17.3949L10.1067 17.3883L10.1426 17.3089C10.1618 17.2115 10.1684 17.1161 10.1684 17.0109C10.1684 16.8921 10.1599 16.7614 10.1492 16.6007L10.1338 16.3664C10.0623 15.279 9.99106 13.7087 9.99106 12.6648C9.99106 12.6355 9.99106 12.609 9.99106 12.5816C10.1763 12.6972 10.984 13.2066 10.984 13.2066C12.3596 14.099 14.4373 15.4469 15.6929 15.8032C15.7582 15.823 15.8271 15.8079 15.875 15.7616C15.8769 15.7591 16.0681 15.6375 16.0681 15.6375L16.1043 15.6227C16.1765 15.5883 16.2244 15.467 16.2329 15.3354C17.291 15.2821 18.7671 14.8745 19.5571 13.8816C19.863 13.4964 20 13.0251 20 12.6216C20.0006 12.2915 19.909 12.0061 19.7423 11.8492Z" fill="#FCAF16"/>
</svg>
