<svg width="24" height="24" viewBox="0 0 24 24" fill="none" xmlns="http://www.w3.org/2000/svg">
<rect width="24" height="24" rx="12" fill="#0F0060"/>
<g clip-path="url(#clip0_2134_4786)">
<mask id="mask0_2134_4786" style="mask-type:luminance" maskUnits="userSpaceOnUse" x="7" y="10" width="4" height="4">
<path d="M10.4657 10.0273V13.9725H7.50684V10.0273H10.4657Z" fill="white"/>
</mask>
<g mask="url(#mask0_2134_4786)">
<path fill-rule="evenodd" clip-rule="evenodd" d="M8.98359 13.2731C8.57682 13.2731 8.24596 12.9465 8.24596 12.5451C8.24596 12.1436 8.57682 11.8171 8.98359 11.8171C9.39036 11.8171 9.72122 12.1436 9.72122 12.5451C9.72122 12.9465 9.39036 13.2731 8.98359 13.2731ZM9.10726 11.1158C8.81649 11.1158 8.54739 11.2175 8.34959 11.4023L8.2815 11.4657V10.0273H7.50684V12.4856C7.50684 13.4027 8.06237 13.9726 8.95665 13.9726C9.8311 13.9726 10.4657 13.373 10.4657 12.5469C10.4657 11.7177 9.89436 11.1158 9.10726 11.1158Z" fill="white"/>
</g>
<path fill-rule="evenodd" clip-rule="evenodd" d="M4.76796 10.0273H4V13.863H4.76796V12.1322L6.30046 13.863H7.28767L5.59212 11.9452L7.24177 10.0273H6.26995L4.76796 11.7735V10.0273Z" fill="white"/>
<mask id="mask1_2134_4786" style="mask-type:luminance" maskUnits="userSpaceOnUse" x="17" y="10" width="3" height="4">
<path d="M20 10.0273V13.863H17.3699V10.0273H20Z" fill="white"/>
</mask>
<g mask="url(#mask1_2134_4786)">
<path fill-rule="evenodd" clip-rule="evenodd" d="M18.1449 12.3501V10.0273H17.3699V13.863H18.1449V12.7131L19.1367 13.863H20L18.8516 12.5316L20 11.2003H19.1367L18.1449 12.3501Z" fill="white"/>
</g>
<path fill-rule="evenodd" clip-rule="evenodd" d="M15.9165 11.123C15.4517 11.123 15.1649 11.3417 15.028 11.4949V11.2137H14.3013V13.8628H15.0542L15.0541 12.4201C15.0541 12.0595 15.3039 11.8076 15.6163 11.8076C15.9288 11.8076 16.1786 12.0595 16.1786 12.4201V13.8628H16.9314V12.1929C16.9314 11.573 16.4844 11.123 15.9165 11.123Z" fill="white"/>
<mask id="mask2_2134_4786" style="mask-type:luminance" maskUnits="userSpaceOnUse" x="10" y="11" width="4" height="3">
<path d="M13.7533 11.123V13.9724H10.7944V11.123H13.7533Z" fill="white"/>
</mask>
<g mask="url(#mask2_2134_4786)">
<path fill-rule="evenodd" clip-rule="evenodd" d="M12.2917 13.2747C11.8901 13.2747 11.5634 12.949 11.5634 12.5487C11.5634 12.1482 11.8901 11.8225 12.2917 11.8225C12.6934 11.8225 13.0201 12.1482 13.0201 12.5487C13.0201 12.949 12.6934 13.2747 12.2917 13.2747ZM12.2686 11.123C11.4144 11.123 10.7944 11.7233 10.7944 12.5503C10.7944 13.3743 11.3657 13.9724 12.1528 13.9724C12.7122 13.9724 13.0112 13.5685 13.0141 13.5645L13.0575 13.5047V13.8831H13.7533V12.5503C13.7533 11.7233 13.1289 11.123 12.2686 11.123Z" fill="white"/>
</g>
</g>
<defs>
<clipPath id="clip0_2134_4786">
<rect width="16" height="3.94521" fill="white" transform="translate(4 10.0273)"/>
</clipPath>
</defs>
</svg>
