<svg width="24" height="24" viewBox="0 0 24 24" fill="none" xmlns="http://www.w3.org/2000/svg">
<rect width="24" height="24" rx="12" fill="#EE2722"/>
<g clip-path="url(#clip0_2134_4832)">
<path d="M4.03011 11.9737C4.00136 11.9885 3.99992 12.0152 4.02689 12.0331L6.49289 13.6619L7.19953 10.3379L4.03011 11.9737Z" fill="white"/>
<path d="M18.6308 10.3375H18.0074C17.975 10.3375 17.9248 10.3497 17.8961 10.3644L14.7708 11.9748C14.742 11.9897 14.7408 12.0163 14.7675 12.0342V12.0343L17.1923 13.6301C17.2195 13.6478 17.2681 13.6625 17.3008 13.6625H17.9238C17.9562 13.6625 17.9605 13.648 17.9339 13.6303L15.4592 12.0019L18.6373 10.3644C18.6663 10.3496 18.6632 10.3375 18.6308 10.3375Z" fill="white"/>
<path d="M17.2952 10.3374H12.9512L12.2454 13.6625H16.5885C16.6209 13.6625 16.6252 13.648 16.5984 13.6301L14.1278 12.0019L17.3017 10.3644C17.3306 10.3496 17.3276 10.3374 17.2952 10.3374Z" fill="white"/>
<path d="M19.9647 10.3375H19.3413C19.3088 10.3375 19.2588 10.3497 19.2301 10.3644L16.1047 11.9748C16.0761 11.9897 16.0747 12.0163 16.1015 12.0342L16.1016 12.0343L18.5263 13.6301C18.5533 13.6478 18.6021 13.6625 18.6344 13.6625H19.2578C19.2901 13.6625 19.2945 13.648 19.2676 13.6303L16.7928 12.0019L19.9713 10.3644C20.0001 10.3496 19.9973 10.3374 19.9648 10.3374" fill="white"/>
<path d="M17.1029 8.16162H6.87574C6.30485 8.16162 5.90538 8.52087 5.81108 8.96475C5.75948 9.20837 5.85201 9.42516 6.03968 9.57379L9.71434 11.9997L9.71718 11.9983L9.71767 11.9997L17.1095 8.18876C17.1383 8.1739 17.1354 8.16162 17.1029 8.16162ZM15.4808 15.8057L9.71767 11.9997L9.71664 12.0011L9.71434 11.9997L5.00822 14.4263C4.75774 14.574 4.57307 14.7911 4.52131 15.0353C4.42638 15.4782 4.67273 15.8381 5.244 15.8381H15.471C15.5035 15.8381 15.5078 15.8235 15.4808 15.8057" fill="white"/>
</g>
<defs>
<clipPath id="clip0_2134_4832">
<rect width="16" height="8" fill="white" transform="translate(4 8)"/>
</clipPath>
</defs>
</svg>
