<svg width="24" height="24" viewBox="0 0 24 24" fill="none" xmlns="http://www.w3.org/2000/svg">
<rect width="24" height="24" rx="12" fill="#DEEFFF"/>
<mask id="mask0_2134_4809" style="mask-type:alpha" maskUnits="userSpaceOnUse" x="4" y="4" width="16" height="16">
<path d="M4 12.0001C4 16.4182 7.58193 19.9997 12 19.9997C16.4181 19.9997 20 16.4182 20 12.0001C20 7.58204 16.4181 4.00049 12 4.00049C7.58193 4.00049 4 7.58204 4 12.0001Z" fill="#0091D1"/>
</mask>
<g mask="url(#mask0_2134_4809)">
<path d="M3.99951 4.00049L7.9978 8.00182L11.9994 4.00049H3.99951Z" fill="#0091D1"/>
<path d="M3.99951 4.00049V12.0001L7.9978 8.00156L3.99951 4.00049Z" fill="#009CD8"/>
<path d="M11.9991 12.0004L8.00084 7.99902L3.99951 12.0004H11.9991Z" fill="#0091D1"/>
<path d="M11.9993 12.0001V4.00049L8.00098 7.99953L11.9993 12.0001Z" fill="#0082C9"/>
<path d="M11.9993 4.00049V12.0001L15.9978 8.00156L11.9993 4.00049Z" fill="#0070BB"/>
<path d="M19.9991 12.0004L16.0009 7.99902L11.9993 12.0004H19.9991Z" fill="#004C98"/>
<path d="M3.99951 12L7.9978 16.0013L11.9994 12H3.99951Z" fill="#0082C9"/>
<path d="M3.99951 12V19.9999L7.9978 16.0006L3.99951 12Z" fill="#0070BB"/>
<path d="M11.9994 19.9998L8.00109 15.999L3.99951 20.0001L11.9994 19.9998Z" fill="#0060AF"/>
<path d="M11.9993 19.9996V12L8.00098 15.999L11.9993 19.9996Z" fill="#00529C"/>
<path d="M11.9993 12L15.9978 16.0013L19.9991 12H11.9993Z" fill="#1C378A"/>
<path d="M11.9993 12V19.9999L15.9978 16.0006L11.9993 12Z" fill="#004C98"/>
<path d="M19.9991 19.9998L16.0009 15.999L11.9993 20.0001L19.9991 19.9998Z" fill="#1C378A"/>
<path d="M19.9993 19.9996V12L16.001 15.999L19.9993 19.9996Z" fill="#1C378A"/>
<path d="M11.9993 4.00049L15.9978 8.00182L19.9991 4.00049H11.9993Z" fill="#0060AF"/>
<path d="M19.9993 12.0001V4.00049L16.001 7.99953L19.9993 12.0001Z" fill="#00529C"/>
<path d="M19.9994 14.0013L14.8771 9.12256L7.10327 16.9156L9.93914 19.7512L14.8771 14.8879L19.9994 19.9821V14.0013Z" fill="white"/>
</g>
</svg>
