<svg width="24" height="24" viewBox="0 0 24 24" fill="none" xmlns="http://www.w3.org/2000/svg">
<rect width="24" height="24" rx="12" fill="#ED1D24"/>
<g clip-path="url(#clip0_2134_4737)">
<mask id="mask0_2134_4737" style="mask-type:luminance" maskUnits="userSpaceOnUse" x="2" y="2" width="20" height="20">
<path d="M21.9016 2.09863H2.09863V21.9016H21.9016V2.09863Z" fill="white"/>
</mask>
<g mask="url(#mask0_2134_4737)">
<path d="M16.0888 20.2269C13.8227 22.4929 10.1774 22.4929 7.91141 20.2269L3.77348 16.089C1.50747 13.823 1.50747 10.1777 3.77348 7.91166L7.91141 3.77373C10.1774 1.50772 13.8227 1.50772 16.0888 3.77373L20.2267 7.91166C22.4927 10.1777 22.4927 13.823 20.2267 16.089L16.0888 20.2269Z" fill="#ED1D24"/>
</g>
<mask id="mask1_2134_4737" style="mask-type:luminance" maskUnits="userSpaceOnUse" x="2" y="2" width="20" height="20">
<path d="M21.9016 2.09863H2.09863V21.9016H21.9016V2.09863Z" fill="white"/>
</mask>
<g mask="url(#mask1_2134_4737)">
<path d="M9.58625 18.0592C9.29068 18.0592 8.99512 17.7637 8.99512 17.4681C8.99512 17.271 9.09364 17.1725 9.19216 17.074C9.29068 16.9755 9.48773 16.877 9.58625 16.877C9.88182 16.877 10.1774 17.1725 10.1774 17.4681C10.1774 17.7637 9.88182 18.0592 9.58625 18.0592Z" fill="white"/>
</g>
<mask id="mask2_2134_4737" style="mask-type:luminance" maskUnits="userSpaceOnUse" x="2" y="2" width="20" height="20">
<path d="M21.9016 2.09863H2.09863V21.9016H21.9016V2.09863Z" fill="white"/>
</mask>
<g mask="url(#mask2_2134_4737)">
<path d="M11.7537 6.82777C11.4581 6.82777 11.1626 6.9263 10.9655 7.12334C10.4729 7.61595 10.2759 8.50265 10.2759 9.78344C10.2759 11.3598 10.67 14.414 11.9508 16.0889C12.1478 16.3844 12.3448 16.5815 12.6404 16.68C12.8375 16.7785 13.133 16.9756 13.5271 16.9756C13.6256 16.9756 13.7242 16.9756 13.8227 16.9756C14.5123 16.7785 15.399 15.9903 16.0887 15.0051C16.1872 14.8081 16.3843 14.7095 16.5813 14.7095C16.6798 14.7095 16.7783 14.7095 16.8769 14.8081C16.9754 14.9066 17.0739 15.0051 17.0739 15.1036C17.0739 15.2022 17.0739 15.3992 16.9754 15.4977C16.0887 16.877 15.0049 17.7637 14.0197 17.9608C13.8227 17.9608 13.6256 18.0593 13.4286 18.0593C12.7389 18.0593 12.3448 17.7637 11.9508 17.5667C11.6552 17.3696 11.3596 17.0741 11.0641 16.68C9.29066 14.414 9.19214 10.1775 9.19214 9.78344C9.19214 8.69969 9.29066 7.12334 10.1774 6.23664C10.5714 5.84255 11.1626 5.64551 11.7537 5.64551H11.8522C12.4434 5.64551 13.0345 5.84255 13.4286 6.23664C14.3153 7.12334 14.5123 8.60117 14.4138 9.78344C14.4138 10.9657 14.2168 13.2317 12.936 15.2022C12.8375 15.3992 12.6404 15.4977 12.4434 15.4977C12.3448 15.4977 12.2463 15.4977 12.1478 15.3992C11.8522 15.2022 11.8522 14.9066 11.9508 14.611C12.8375 13.2317 13.2315 11.6554 13.2315 9.68492C13.2315 8.40413 13.0345 7.41891 12.5419 7.02482C12.4434 6.9263 12.2463 6.82777 11.7537 6.82777Z" fill="white"/>
</g>
</g>
<defs>
<clipPath id="clip0_2134_4737">
<rect width="20" height="20" fill="white" transform="translate(2 2)"/>
</clipPath>
</defs>
</svg>
