<svg width="24" height="24" viewBox="0 0 24 24" fill="none" xmlns="http://www.w3.org/2000/svg">
<rect width="24" height="24" rx="12" fill="#DEEFFF"/>
<g clip-path="url(#clip0_2134_4766)">
<mask id="mask0_2134_4766" style="mask-type:luminance" maskUnits="userSpaceOnUse" x="5" y="9" width="7" height="9">
<path d="M5 13.8459C5 16.1399 6.85568 18.0001 9.14496 18.0001C9.87765 18.0001 10.567 17.8088 11.1642 17.475V14.792C10.9211 15.1117 10.5841 15.3468 10.2008 15.4644C9.81737 15.5821 9.40685 15.5762 9.02694 15.4478C8.64703 15.3193 8.31686 15.0746 8.0829 14.7483C7.84893 14.4219 7.72293 14.0302 7.72263 13.6283C7.72263 13.1255 7.91599 12.6666 8.23164 12.3247C7.89077 11.6969 7.71276 10.9933 7.71397 10.2786C7.71397 10.1652 7.71855 10.0508 7.72721 9.93945C6.13623 10.5197 5 12.0493 5 13.8459Z" fill="white"/>
</mask>
<g mask="url(#mask0_2134_4766)">
<path d="M5 13.8459C5 16.1399 6.85568 18.0001 9.14496 18.0001C9.87765 18.0001 10.567 17.8088 11.1642 17.475V14.792C10.9211 15.1117 10.5841 15.3468 10.2008 15.4644C9.81737 15.5821 9.40685 15.5762 9.02694 15.4478C8.64703 15.3193 8.31686 15.0746 8.0829 14.7483C7.84893 14.4219 7.72293 14.0302 7.72263 13.6283C7.72263 13.1255 7.91599 12.6666 8.23164 12.3247C7.89077 11.6969 7.71276 10.9933 7.71397 10.2786C7.71397 10.1652 7.71855 10.0508 7.72721 9.93945C6.13623 10.5197 5 12.0493 5 13.8459Z" fill="url(#paint0_linear_2134_4766)"/>
</g>
<mask id="mask1_2134_4766" style="mask-type:luminance" maskUnits="userSpaceOnUse" x="7" y="6" width="10" height="7">
<path d="M7.71387 10.2785C7.71267 10.9933 7.89068 11.6968 8.23155 12.3246C8.48316 12.0512 8.8086 11.8569 9.16829 11.7654C9.52798 11.6739 9.90644 11.6891 10.2577 11.8092C10.0348 11.4709 9.91595 11.0744 9.91603 10.669C9.91616 10.1195 10.134 9.59253 10.5217 9.20404C10.9094 8.81555 11.4352 8.59734 11.9834 8.5974C12.3785 8.59729 12.7654 8.71073 13.0981 8.92428C13.4308 9.13782 13.6955 9.44252 13.8607 9.80226C14.1754 9.72746 14.4978 9.68983 14.8212 9.69015C15.3192 9.69015 15.7969 9.778 16.2389 9.93939C16.0654 7.73527 14.2266 6 11.9832 6C9.62509 6 7.71387 7.91582 7.71387 10.2785Z" fill="white"/>
</mask>
<g mask="url(#mask1_2134_4766)">
<path d="M7.71387 10.2785C7.71267 10.9933 7.89068 11.6968 8.23155 12.3246C8.48316 12.0512 8.8086 11.8569 9.16829 11.7654C9.52798 11.6739 9.90644 11.6891 10.2577 11.8092C10.0348 11.4709 9.91595 11.0744 9.91603 10.669C9.91616 10.1195 10.134 9.59253 10.5217 9.20404C10.9094 8.81555 11.4352 8.59734 11.9834 8.5974C12.3785 8.59729 12.7654 8.71073 13.0981 8.92428C13.4308 9.13782 13.6955 9.44252 13.8607 9.80226C14.1754 9.72746 14.4978 9.68983 14.8212 9.69015C15.3192 9.69015 15.7969 9.778 16.2389 9.93939C16.0654 7.73527 14.2266 6 11.9832 6C9.62509 6 7.71387 7.91582 7.71387 10.2785Z" fill="url(#paint1_linear_2134_4766)"/>
</g>
<mask id="mask2_2134_4766" style="mask-type:luminance" maskUnits="userSpaceOnUse" x="12" y="9" width="7" height="9">
<path d="M13.8607 9.80206C13.9857 10.0738 14.0502 10.3696 14.0498 10.6688C14.0503 11.0738 13.9317 11.47 13.7087 11.8078C13.9078 11.7406 14.1166 11.7062 14.3267 11.7061C14.5785 11.7061 14.8278 11.7558 15.0604 11.8524C15.293 11.949 15.5044 12.0906 15.6824 12.2691C15.8604 12.4475 16.0016 12.6594 16.0979 12.8926C16.1943 13.1258 16.2438 13.3757 16.2438 13.6281C16.2436 14.1376 16.0415 14.6262 15.6821 14.9865C15.3225 15.3467 14.8351 15.5492 14.3267 15.5492C14.0316 15.5495 13.7404 15.4814 13.476 15.3501C13.2115 15.2188 12.9809 15.028 12.8022 14.7926V17.4747C13.4194 17.8198 14.1145 18.0006 14.8212 17.9998C17.1105 17.9998 18.9661 16.1396 18.9661 13.8456C18.9661 11.5501 17.1105 9.68994 14.8212 9.68994C14.4978 9.68963 14.1754 9.72726 13.8607 9.80206Z" fill="white"/>
</mask>
<g mask="url(#mask2_2134_4766)">
<path d="M13.8607 9.80206C13.9857 10.0738 14.0502 10.3696 14.0498 10.6688C14.0503 11.0738 13.9317 11.47 13.7087 11.8078C13.9078 11.7406 14.1166 11.7062 14.3267 11.7061C14.5785 11.7061 14.8278 11.7558 15.0604 11.8524C15.293 11.949 15.5044 12.0906 15.6824 12.2691C15.8604 12.4475 16.0016 12.6594 16.0979 12.8926C16.1943 13.1258 16.2438 13.3757 16.2438 13.6281C16.2436 14.1376 16.0415 14.6262 15.6821 14.9865C15.3225 15.3467 14.8351 15.5492 14.3267 15.5492C14.0316 15.5495 13.7404 15.4814 13.476 15.3501C13.2115 15.2188 12.9809 15.028 12.8022 14.7926V17.4747C13.4194 17.8198 14.1145 18.0006 14.8212 17.9998C17.1105 17.9998 18.9661 16.1396 18.9661 13.8456C18.9661 11.5501 17.1105 9.68994 14.8212 9.68994C14.4978 9.68963 14.1754 9.72726 13.8607 9.80206Z" fill="url(#paint2_linear_2134_4766)"/>
</g>
</g>
<defs>
<linearGradient id="paint0_linear_2134_4766" x1="8.70469" y1="18.038" x2="7.27117" y2="9.9276" gradientUnits="userSpaceOnUse">
<stop stop-color="#66CEF5"/>
<stop offset="0.15" stop-color="#66CEF5"/>
<stop offset="0.471735" stop-color="#66CEF5"/>
<stop offset="1" stop-color="#176FC1"/>
</linearGradient>
<linearGradient id="paint1_linear_2134_4766" x1="7.43262" y1="10.2654" x2="15.4627" y2="7.34972" gradientUnits="userSpaceOnUse">
<stop stop-color="#66CEF5"/>
<stop offset="0.15" stop-color="#66CEF5"/>
<stop offset="0.471735" stop-color="#66CEF5"/>
<stop offset="1" stop-color="#176FC1"/>
</linearGradient>
<linearGradient id="paint2_linear_2134_4766" x1="16.665" y1="10.0614" x2="15.2362" y2="18.1447" gradientUnits="userSpaceOnUse">
<stop stop-color="#66CEF5"/>
<stop offset="0.15" stop-color="#66CEF5"/>
<stop offset="0.471735" stop-color="#66CEF5"/>
<stop offset="1" stop-color="#176FC1"/>
</linearGradient>
<clipPath id="clip0_2134_4766">
<rect width="14" height="12" fill="white" transform="translate(5 6)"/>
</clipPath>
</defs>
</svg>
