<svg width="24" height="24" viewBox="0 0 24 24" fill="none" xmlns="http://www.w3.org/2000/svg">
<rect width="24" height="24" rx="12" fill="#00A94E"/>
<g clip-path="url(#clip0_2134_4611)">
<path d="M14.7607 5L12 6.38581L9.24072 5L12 10.2485L14.7607 5Z" fill="#FDB811"/>
<path d="M15.7265 9.05623L15.6843 9.01911L17.6546 8.19155V5.42285L14.2323 6.88072C14.2323 6.88072 12.3784 10.3925 12.3362 10.4733C13.7883 10.6466 14.8778 11.8642 14.8778 13.3301C14.8778 14.9183 13.5881 16.2116 12 16.2116C10.4118 16.2116 9.12063 14.9183 9.12063 13.3301C9.12063 11.8642 10.2102 10.6466 11.6623 10.4733C11.62 10.3925 9.76841 6.88072 9.76841 6.88072L6.3512 5.42285V8.19155L8.31928 9.01911L8.27561 9.05623C7.0412 10.1356 6.33301 11.6932 6.33301 13.3301C6.33301 16.4562 8.87535 19 12 19C15.1246 19 17.6669 16.4562 17.6669 13.3301C17.6669 11.6946 16.9609 10.1371 15.7265 9.05623Z" fill="#FDB811"/>
</g>
<defs>
<clipPath id="clip0_2134_4611">
<rect width="11.3339" height="14" fill="white" transform="translate(6.33301 5)"/>
</clipPath>
</defs>
</svg>
