<svg width="24" height="24" viewBox="0 0 24 24" fill="none" xmlns="http://www.w3.org/2000/svg">
<rect width="24" height="24" rx="12" fill="black"/>
<g clip-path="url(#clip0_2134_4591)">
<mask id="mask0_2134_4591" style="mask-type:luminance" maskUnits="userSpaceOnUse" x="3" y="8" width="18" height="8">
<path d="M20.9707 8.04395H3V15.9305H20.9707V8.04395Z" fill="white"/>
</mask>
<g mask="url(#mask0_2134_4591)">
<path d="M4.80422 8.88115H5.43632C5.43632 8.88115 5.34422 8.04395 4.31446 8.04395C3.28469 8.04395 3.24702 8.75557 3.24702 8.95232C3.24702 9.14906 3.37678 9.54255 3.91678 9.73092C4.45678 9.91929 4.88376 10.0156 4.86702 10.4091C4.85027 10.8026 3.78702 10.79 3.78702 10.3672H3.16748C3.16748 10.3672 3.27213 11.2546 4.3019 11.2546C5.29818 11.2546 5.50329 10.6226 5.50329 10.2374C5.50329 9.85232 5.10143 9.55929 4.66609 9.43371C4.23074 9.30813 3.87074 9.17836 3.87074 8.80162C3.87074 8.62162 4.07585 8.46674 4.33539 8.46674C4.59492 8.46674 4.80422 8.61743 4.80422 8.88115Z" fill="white"/>
<path d="M7.37438 8.88101V9.07776C7.37438 9.07776 7.28229 8.80566 6.61251 8.80566C6.34042 8.80566 5.67065 9.09868 5.67065 9.9945C5.67065 10.8861 6.26089 11.2545 6.5874 11.2545C6.91391 11.2545 7.24462 11.1875 7.37438 10.9824V11.1457H7.93113V8.88101H7.37438ZM6.79251 10.8443C6.45344 10.8443 6.18135 10.4759 6.18135 10.0238C6.18135 9.57171 6.45344 9.20334 6.79251 9.20334C7.13158 9.20334 7.40369 9.57171 7.40369 10.0238C7.3995 10.4801 7.1274 10.8443 6.79251 10.8443Z" fill="white"/>
<path d="M7.56286 13.5568V13.7535C7.56286 13.7535 7.47077 13.4814 6.80099 13.4814C6.5289 13.4814 5.85913 13.7745 5.85913 14.6703C5.85913 15.5619 6.44936 15.9303 6.77588 15.9303C7.10239 15.9303 7.43309 15.8633 7.56286 15.6582V15.8214H8.1196V13.5526H7.56286V13.5568ZM6.97681 15.5242C6.63774 15.5242 6.36564 15.1559 6.36564 14.7038C6.36564 14.2517 6.63774 13.8833 6.97681 13.8833C7.31588 13.8833 7.58798 14.2517 7.58798 14.7038C7.58798 15.1559 7.3117 15.5242 6.97681 15.5242Z" fill="white"/>
<path d="M8.31616 8.88966V11.1376H8.86035V9.73943C8.86035 9.73943 8.87709 9.2371 9.31244 9.2371C9.79384 9.2371 9.77291 9.72268 9.77291 9.72268V11.1376H10.3129V9.73943C10.3129 9.73943 10.2836 9.2371 10.8278 9.2371C11.3008 9.2371 11.2464 9.76036 11.2464 9.76036V11.1376H11.7906V9.67245C11.7906 9.67245 11.8241 8.83105 10.9073 8.83105C10.405 8.83105 10.1706 9.15338 10.1706 9.15338C10.1706 9.15338 10.0283 8.83105 9.47151 8.83105C9.06128 8.83105 8.85616 9.06966 8.85616 9.06966V8.88547H8.31616V8.88966Z" fill="white"/>
<path d="M13.394 9.52594H13.9298C13.9298 9.52594 13.9173 8.83105 13.0005 8.83105C12.0838 8.83105 12.0461 9.33338 12.0461 9.5971C12.0461 9.86082 12.3643 10.0659 12.695 10.158C13.0298 10.2501 13.3898 10.3129 13.3898 10.585C13.3898 10.7776 13.1764 10.8152 12.988 10.8152C12.7996 10.8152 12.5526 10.6394 12.5526 10.4887H11.9917C11.9917 10.4887 12.0084 11.2297 12.9964 11.2297C13.9843 11.2297 13.9633 10.5641 13.9633 10.4469C13.9633 10.3338 13.8587 10.0032 13.3522 9.86083C12.8457 9.7185 12.6154 9.7185 12.6154 9.4464C12.6154 9.16175 13.394 9.12408 13.394 9.52594Z" fill="white"/>
<path d="M14.1892 8.89383V10.4762C14.1892 10.4762 14.1892 11.2296 14.9804 11.2296C15.4785 11.2296 15.6418 10.945 15.6418 10.945V11.1376H16.186V8.89383H15.625V10.225C15.625 10.225 15.6627 10.8027 15.1227 10.8027C14.7627 10.8027 14.7292 10.3883 14.7292 10.2166C14.7292 10.045 14.7292 8.88965 14.7292 8.88965H14.1892V8.89383Z" fill="white"/>
<path d="M16.592 8.89385V11.1418H17.1153V9.81478C17.1153 9.81478 17.086 9.22873 17.6469 9.22873C18.0069 9.22873 18.0404 9.68082 18.0404 9.84408C18.0404 10.0073 18.0404 11.1376 18.0404 11.1376H18.5846V9.61803C18.5846 9.61803 18.6516 8.83105 17.7558 8.83105C17.3581 8.83105 17.1153 9.06547 17.1153 9.06547V8.88966H16.592V8.89385Z" fill="white"/>
<path d="M20.4224 8.89357V9.06938C20.4224 9.06938 20.2842 8.80566 19.7233 8.80566C19.1624 8.80566 18.8149 9.29124 18.8149 10.0112C18.8149 10.7312 19.2754 11.0996 19.7066 11.0996C20.2675 11.0996 20.4224 10.8192 20.4224 10.8192C20.4224 10.8192 20.5061 11.5224 19.9368 11.5224C19.5559 11.5224 19.4219 11.2294 19.4219 11.2294H18.8903C18.8903 11.2294 19.0117 11.9871 19.9159 11.9871C20.8201 11.9871 20.9624 11.1959 20.9624 10.8275C20.9624 10.4592 20.9624 8.88939 20.9624 8.88939H20.4224V8.89357ZM19.8908 10.6726C19.5768 10.6726 19.3215 10.3503 19.3215 9.95264C19.3215 9.55496 19.5768 9.23264 19.8908 9.23264C20.2047 9.23264 20.4601 9.55496 20.4601 9.95264C20.4601 10.3503 20.2047 10.6726 19.8908 10.6726Z" fill="white"/>
<path d="M5.6707 13.808H5.06791C5.06791 13.808 4.97581 13.2011 4.38558 13.2011C3.79535 13.2011 3.5986 13.8876 3.5986 14.2559C3.5986 14.6201 3.77442 15.4238 4.33116 15.4238C4.88791 15.4238 5.07209 14.8797 5.07209 14.8001H5.6707C5.6707 14.8001 5.56605 15.9136 4.32279 15.9136C3.07953 15.9136 3 14.6411 3 14.2015C3 13.762 3.25535 12.6987 4.36465 12.6987C5.47395 12.6987 5.6707 13.6992 5.6707 13.808Z" fill="white"/>
<path d="M8.50879 13.5568V15.8382H9.0446V14.6494C9.0446 14.6494 9.06553 13.9922 9.80228 13.9922V13.5568C9.80228 13.5568 9.34181 13.4522 9.0446 13.8289V13.5442L8.50879 13.5568Z" fill="white"/>
<path d="M11.5898 12.8286V13.7579C11.5898 13.7579 11.4768 13.4816 10.9033 13.4816C10.3298 13.4816 9.86938 13.9547 9.86938 14.6872C9.86938 15.4198 10.3508 15.9305 10.874 15.9305C11.3973 15.9305 11.5898 15.6458 11.5898 15.6458V15.8384H12.1299V12.8286H11.5898ZM10.9954 15.4826C10.6605 15.4826 10.3926 15.1268 10.3926 14.6872C10.3926 14.2477 10.6647 13.8919 10.9954 13.8919C11.3303 13.8919 11.5982 14.2477 11.5982 14.6872C11.5982 15.1268 11.3303 15.4826 10.9954 15.4826Z" fill="white"/>
</g>
</g>
<defs>
<clipPath id="clip0_2134_4591">
<rect width="18" height="7.91163" fill="white" transform="translate(3 8.04395)"/>
</clipPath>
</defs>
</svg>
