<svg width="24" height="24" viewBox="0 0 24 24" fill="none" xmlns="http://www.w3.org/2000/svg">
<rect width="24" height="24" rx="12" fill="#076BAF"/>
<path d="M12.0079 12.3064L14.6406 13.8461V13.8504L14.6172 13.8371C13.6757 14.5808 12.7772 14.8268 12 14.827C11.2228 14.8268 10.3243 14.5808 9.38276 13.8371L9.35935 13.8504V13.8461L12.0079 12.3064ZM10.6699 6.90976H10.6845L10.6699 10.0692L8.02911 11.5479L8.02537 11.5436C7.48709 7.77568 10.6699 6.90976 10.6699 6.90976ZM15.9746 11.5436L15.9709 11.5479L13.3301 10.0692L13.3156 6.90976H13.3301C13.3301 6.90976 16.5129 7.77568 15.9746 11.5436ZM18.4754 13.2434C17.7683 15.0017 16.5831 15.4988 16.5831 15.4988C20.0702 11.9649 17.9405 7.8927 17.9405 7.8927C17.4256 6.97997 18.0809 6.58211 18.0809 6.58211C16.5831 6.95657 17.0512 8.19694 17.0512 8.19694C17.8038 9.98945 17.6522 11.4457 17.3966 12.3464L16.9031 12.0699L16.9108 12.0585C16.9108 12.0585 18.0802 7.45066 13.3106 5.83452L13.3067 4.96729H12.3003V10.6777L16.981 13.3457C16.8985 13.5131 16.8085 13.6767 16.7112 13.836L12.0099 11.1126L7.28882 13.836C7.19152 13.6767 7.1015 13.5131 7.01903 13.3457L11.6997 10.6777V4.96729H10.6933L10.6894 5.83452C5.91982 7.45066 7.08924 12.0585 7.08924 12.0585L7.0971 12.0699L6.60338 12.3464C6.34782 11.4457 6.19617 9.98945 6.94882 8.19694C6.94882 8.19694 7.41688 6.95657 5.91907 6.58211C5.91907 6.58211 6.57436 6.97997 6.05949 7.8927C6.05949 7.8927 3.92979 11.9649 7.41688 15.4988C7.41688 15.4988 6.23174 15.0017 5.52459 13.2434C5.52459 13.2434 5.12336 12.3861 4 12.5734C4 12.5734 4.42388 12.7655 4.67289 13.5424C4.67289 13.5424 5.68504 16.7626 9.59339 17.254V19.0327H11.5125V16.4115C11.5125 16.4115 9.47656 16.3952 7.92239 14.6849L8.40469 14.4033C8.49456 14.4883 9.97234 15.856 11.9884 15.8918V15.8925L12 15.8922L12.0118 15.8925V15.8918C14.0277 15.856 15.5054 14.4883 15.5953 14.4033L16.0776 14.6849C14.5234 16.3952 12.4875 16.4115 12.4875 16.4115V19.0327H14.4066V17.254C18.315 16.7626 19.3271 13.5424 19.3271 13.5424C19.5761 12.7655 20 12.5734 20 12.5734C18.8766 12.3861 18.4754 13.2434 18.4754 13.2434Z" fill="white"/>
</svg>
