<svg width="24" height="24" viewBox="0 0 24 24" fill="none" xmlns="http://www.w3.org/2000/svg">
<rect width="24" height="24" rx="12" fill="#0046FF"/>
<g clip-path="url(#clip0_2134_4580)">
<path fill-rule="evenodd" clip-rule="evenodd" d="M19.9979 11.9989C19.9979 15.6937 17.4868 18.8017 14.0802 19.7148C13.5204 19.8615 12.944 19.9545 12.3676 19.9762C12.1941 19.9872 12.0202 19.9906 11.846 19.9865C7.79799 19.9049 4.4885 16.8237 4.0588 12.8789C4.0409 12.7047 4.0285 12.5326 4.02162 12.3625C4.01404 12.2468 4.01025 12.1308 4.01025 12.0144V11.9989C4.01025 7.58624 7.5914 4.01025 12.0041 4.01025C15.7701 4.01025 18.9267 6.61322 19.7747 10.1128C19.8946 10.6127 19.971 11.1292 19.9927 11.6456C19.9961 11.7613 19.9979 11.877 19.9979 11.9927V11.9989ZM15.3569 7.28256C15.4272 7.22781 15.5253 7.24951 15.64 7.30425L15.7484 7.359C15.8899 7.42923 16.0469 7.51084 16.1719 7.52116C16.6285 7.58107 16.5417 6.88075 15.7205 6.47275C15.2371 6.23311 14.7589 6.13085 14.1174 6.1577C13.884 6.16803 13.6557 6.1577 13.4605 6.12465C13.2808 6.09779 13.0742 6.04305 12.8903 5.98934C12.7643 5.95628 12.6455 5.92426 12.5422 5.90257C12.3522 5.85816 12.2427 5.86435 12.1993 5.92943C12.1559 5.98934 12.1724 6.0761 12.2871 6.22278C12.3119 6.2517 12.337 6.28234 12.3625 6.31471C12.5908 6.58637 12.8624 6.91794 12.6941 7.5976C12.2323 9.48372 12.8676 10.3472 13.5152 10.4888C13.8737 10.5704 14.2104 10.4836 14.4118 10.2708C14.607 10.0704 14.6886 9.72749 14.5037 9.43931C14.2155 8.99411 14.1174 8.60883 14.3736 8.4508C14.6019 8.30412 14.9334 8.43943 15.1834 8.99928C15.5852 9.90206 16.112 10.1407 16.6336 9.49922C17.0633 8.97242 17.0468 8.21736 16.2267 7.98908C15.7587 7.85893 15.4117 7.74944 15.3084 7.53253C15.2588 7.4344 15.2919 7.33111 15.3569 7.28256ZM10.6458 10.4671C9.1945 9.43414 8.96623 8.66255 8.91768 8.12439C8.84124 7.16274 9.56945 6.29921 10.309 5.89121C10.3679 5.85299 10.466 5.77759 10.4226 5.6681C10.3793 5.55448 10.2491 5.57617 10.1944 5.5865C8.53653 5.93976 6.92827 7.39618 7.17823 9.34221C7.27636 10.1138 7.77113 11.4184 10.309 12.912C10.7759 13.1837 11.2056 13.4233 11.6839 13.6898C12.1022 13.9181 12.5587 14.168 13.1021 14.4831C14.6938 15.39 15.4272 16.5644 14.4387 17.8411C14.3674 17.9279 14.3023 18.0208 14.3302 18.1024C14.3571 18.1944 14.482 18.2109 14.5957 18.1613C15.3518 17.8143 15.9767 17.2864 16.2752 16.803C16.7968 15.9498 17.0582 14.2817 14.7702 12.9068C13.8458 12.3583 13.1237 11.9452 12.5308 11.6084C11.721 11.1519 11.1509 10.8307 10.6458 10.4671ZM10.8028 17.4393C10.7212 17.3577 10.7108 17.2647 10.7707 17.1728C11.1395 16.646 11.2428 16.4394 11.3461 16.1895C11.564 15.6678 11.3461 15.6131 11.0094 15.7112C10.6396 15.8197 10.3524 15.923 10.1241 16.0097C9.80909 16.1296 9.61284 16.1998 9.49922 16.1461C9.38456 16.0862 9.36287 15.8899 9.31949 15.5645C9.31949 15.5535 9.31776 15.5425 9.31432 15.5315C9.28643 15.2867 9.23272 15.0099 9.16765 14.7382C9.0313 14.1897 8.79786 14.293 8.6078 14.5151C8.42291 14.7382 8.30309 14.9933 8.21632 15.1896C8.18327 15.2547 8.15641 15.3146 8.12956 15.3631C8.08101 15.4613 8.0149 15.4995 7.94466 15.4829C7.7763 15.4447 7.55319 15.1896 7.31458 14.8797C7.19992 14.733 7.10283 14.5967 7.02639 14.4769C6.85803 14.2383 6.74957 14.0802 6.62459 14.0647C6.23827 14.0214 6.40664 14.9396 6.77126 15.6947C7.12969 16.4332 7.67817 17.1676 8.60264 17.7492C9.65622 18.4175 11.2159 18.6561 12.1724 18.5208C12.4771 18.4826 12.537 18.1778 12.2323 18.0911C12.0423 18.0363 11.7489 17.9444 11.5041 17.8411C11.1994 17.7058 10.9226 17.5581 10.8028 17.4393Z" fill="white"/>
</g>
<defs>
<clipPath id="clip0_2134_4580">
<rect width="16" height="15.9793" fill="white" transform="translate(4 4.01025)"/>
</clipPath>
</defs>
</svg>
