<svg width="24" height="24" viewBox="0 0 24 24" fill="none" xmlns="http://www.w3.org/2000/svg">
<rect width="24" height="24" rx="12" fill="#076BAF"/>
<g clip-path="url(#clip0_2134_4865)">
<path d="M15.553 12.028C15.856 12.028 16.1013 11.7834 16.1013 11.479C16.1013 11.1753 15.856 10.9279 15.553 10.9279C15.2496 10.9279 15.0029 11.1753 15.0029 11.479C15.0029 11.7834 15.2496 12.028 15.553 12.028ZM10.1732 9.42827C10.4773 9.42827 10.724 9.18273 10.724 8.87906C10.724 8.57516 10.4773 8.32849 10.1732 8.32849C9.86805 8.32849 9.62374 8.57516 9.62374 8.87906C9.62357 8.95124 9.63768 9.02274 9.66523 9.08946C9.69278 9.15619 9.73326 9.2168 9.78431 9.26784C9.83536 9.31887 9.896 9.35932 9.96273 9.38685C10.0295 9.41438 10.101 9.42845 10.1732 9.42827ZM4.89794 12.1772C5.20094 12.1772 5.44879 11.932 5.44879 11.6276C5.44879 11.3227 5.20094 11.0772 4.89798 11.0772C4.82561 11.077 4.75388 11.091 4.68697 11.1186C4.62004 11.1461 4.55922 11.1867 4.50801 11.2378C4.4568 11.289 4.41621 11.3497 4.38856 11.4166C4.36091 11.4835 4.34675 11.5552 4.34691 11.6276C4.34691 11.932 4.59211 12.1772 4.89794 12.1772ZM10.264 14.7471C10.5688 14.7471 10.8148 14.5023 10.8148 14.1977C10.8148 13.8938 10.5688 13.6466 10.264 13.6466C9.96122 13.6466 9.71387 13.8938 9.71387 14.1977C9.71387 14.5023 9.96126 14.7471 10.264 14.7471ZM3.00282 12.315L3.05188 12.3959C4.18639 14.1815 8.21233 13.6461 8.21233 13.6461C8.77554 13.5701 8.33997 13.2894 8.33997 13.2894C7.21837 12.2704 8.64718 11.5043 8.64718 11.5043C10.6214 10.344 13.273 10.7533 13.273 10.7533C13.8858 10.7653 13.5274 10.4966 13.5274 10.4966C13.0704 10.0523 13.2866 9.51555 13.2866 9.51555C13.6931 8.5477 15.3756 8.22872 15.3756 8.22872C15.848 8.03864 15.3756 7.85861 15.3756 7.85861C11.2955 7.01795 9.28368 8.19046 9.28368 8.19046C6.84872 9.45194 9.42285 10.5235 9.42285 10.5235C7.95787 10.2562 6.4908 10.344 6.4908 10.344C3.33093 10.5984 3.01383 11.8092 3.01383 11.8092C3.01383 11.8092 3 11.9622 3 12.0969M9.04076 15.6844C10.7481 16.6296 13.4258 16.2968 13.4258 16.2968C14.2427 16.2968 13.6558 15.8124 13.6558 15.8124C12.8146 15.2134 13.4769 14.5121 13.4769 14.5121C14.1897 13.7473 15.0311 13.6461 15.0311 13.6461C16.7389 13.1094 18.7031 13.3647 18.7031 13.3647C19.3142 13.4673 18.804 12.9327 18.804 12.9327C18.4222 12.6259 18.6519 11.9622 18.6519 11.9622C19.468 10.9193 20.7853 10.8181 20.7853 10.8181L20.7268 10.6306L20.6788 10.4966C19.9143 10.2661 19.1607 10.2562 19.1607 10.2562C16.2039 9.94999 14.7255 10.7906 14.7255 10.7906C12.3558 11.989 14.7255 13.1235 14.7255 13.1235C12.4705 12.7412 10.7482 13.1613 10.7482 13.1613C9.52564 13.3648 8.88868 13.8626 8.88868 13.8626C7.48568 14.8433 9.04076 15.6844 9.04076 15.6844ZM3 12.0969C3 8.55939 7.01958 5.69336 11.9817 5.69336C16.9422 5.69336 20.9635 8.55943 20.9635 12.0969C20.9635 15.6314 16.9422 18.3065 11.9817 18.3065C7.01958 18.3065 3 15.6314 3 12.0969Z" fill="white"/>
</g>
<defs>
<clipPath id="clip0_2134_4865">
<rect width="18" height="12.6131" fill="white" transform="translate(3 5.69336)"/>
</clipPath>
</defs>
</svg>
