<svg width="24" height="24" viewBox="0 0 24 24" fill="none" xmlns="http://www.w3.org/2000/svg">
<rect width="24" height="24" rx="12" fill="#A7DBFF"/>
<g clip-path="url(#clip0_2134_4662)">
<path d="M19.9099 11.9549C19.9099 16.3493 16.3493 19.9099 11.9549 19.9099C7.56056 19.9099 4 16.3493 4 11.9549C4 7.56056 7.56056 4 11.9549 4C16.3493 4 19.8986 7.56056 19.8986 11.9549" fill="white"/>
<path d="M11.9662 19.527C16.1464 19.527 19.538 16.1354 19.538 11.9439C19.538 7.75231 16.1464 4.3833 11.9549 4.3833C7.77461 4.3833 4.38306 7.77485 4.38306 11.9551C4.38306 16.1354 7.77461 19.527 11.9549 19.527" fill="#0869AB"/>
<mask id="mask0_2134_4662" style="mask-type:luminance" maskUnits="userSpaceOnUse" x="4" y="4" width="16" height="16">
<path d="M4.38306 11.9551C4.38306 16.1354 7.77461 19.527 11.9549 19.527C16.1352 19.527 19.5267 16.1354 19.5267 11.9551C19.5267 7.77485 16.1352 4.3833 11.9549 4.3833C7.77461 4.3833 4.38306 7.77485 4.38306 11.9551Z" fill="white"/>
</mask>
<g mask="url(#mask0_2134_4662)">
<path d="M12.0226 15.6057C15.3578 15.6057 18.2085 16.541 19.4367 17.8593C19.8536 16.8903 20.0677 15.8536 20.0677 14.7945C20.0677 10.4452 16.462 6.92969 12.0226 6.92969C7.58313 6.92969 3.98877 10.4452 3.98877 14.7945C3.98877 15.8424 4.20285 16.8903 4.61976 17.8593C5.84792 16.541 8.69863 15.6057 12.0226 15.6057Z" fill="#0869AB"/>
<path d="M12.0225 15.6168C15.3464 15.6168 18.1859 16.5408 19.414 17.8478C19.8309 16.8901 20.045 15.8534 20.045 14.8056C20.045 10.4901 16.4507 6.98584 12.0225 6.98584C7.59433 6.98584 4.01123 10.4901 4.01123 14.8056C4.01123 15.8534 4.22532 16.8901 4.64222 17.8478C5.85912 16.5408 8.70982 15.6168 12.0225 15.6168Z" fill="#0D6BAD"/>
<path d="M12.0225 15.6283C15.3352 15.6283 18.1746 16.541 19.3915 17.8368C19.8084 16.8903 20.0225 15.8649 20.0225 14.8283C20.0225 10.5466 16.4394 7.06494 12.0225 7.06494C7.60556 7.06494 4.02246 10.5466 4.02246 14.8283C4.02246 15.8649 4.23655 16.8903 4.65345 17.8368C5.87035 16.541 8.70978 15.6283 12.0225 15.6283Z" fill="#0F6EAD"/>
<path d="M12.0226 15.6393C15.3353 15.6393 18.1634 16.552 19.3803 17.8365C19.7972 16.89 20.0113 15.876 20.0001 14.8506C20.0001 10.6027 16.4282 7.14355 12.0226 7.14355C7.61696 7.14355 4.0564 10.6027 4.0564 14.8393C4.0564 15.8647 4.27048 16.89 4.68738 17.8253C5.89302 16.5295 8.73245 15.6281 12.0339 15.6281" fill="#1270B0"/>
<path d="M12.0226 15.6397C15.324 15.6397 18.1409 16.5411 19.3578 17.8143C19.7747 16.8791 19.9775 15.8763 19.9775 14.8509C19.9775 10.6369 16.4169 7.18896 12.0226 7.18896C7.62819 7.18896 4.06763 10.6369 4.06763 14.8509C4.06763 15.8763 4.28171 16.8791 4.69861 17.8143C5.91551 16.5411 8.73242 15.6397 12.0338 15.6397" fill="#1473B2"/>
<path d="M12.0225 15.6507C15.3126 15.6507 18.1295 16.5409 19.3352 17.8028C19.7521 16.8789 19.9549 15.8761 19.9549 14.862C19.9549 10.6817 16.4056 7.25635 12.0112 7.25635C7.61685 7.25635 4.09009 10.693 4.09009 14.8732C4.09009 15.8873 4.30417 16.8902 4.70981 17.8141C5.91544 16.5521 8.73234 15.662 12.0225 15.662" fill="#1775B2"/>
<path d="M12.0227 15.6622C15.3015 15.6622 18.1072 16.5523 19.3241 17.803C19.7297 16.8904 19.9438 15.8876 19.9438 14.8847C19.9438 10.7495 16.3945 7.33545 12.0227 7.33545C7.65082 7.33545 4.11279 10.7495 4.11279 14.8847C4.11279 15.8876 4.32688 16.8791 4.73251 17.803C5.93815 16.5523 8.74378 15.6622 12.0227 15.6622Z" fill="#1A78B5"/>
<path d="M12.0226 15.6733C15.2902 15.6733 18.0958 16.5522 19.3015 17.7916C19.7071 16.8789 19.9212 15.8986 19.9212 14.8958C19.9212 10.7944 16.3832 7.3916 12.0226 7.3916C7.66205 7.3916 4.12402 10.7944 4.12402 14.8958C4.12402 15.8874 4.33811 16.8789 4.74374 17.7916C5.94938 16.5522 8.74374 15.6733 12.0113 15.6733" fill="#1C7AB5"/>
<path d="M12.0225 15.6736C15.2902 15.6736 18.0845 16.5412 19.2789 17.7806C19.6845 16.8792 19.8986 15.8989 19.8986 14.9074C19.8986 10.8398 16.3719 7.45947 12.0225 7.45947C7.67324 7.45947 4.14648 10.8397 4.14648 14.9186C4.14648 15.9102 4.36057 16.8905 4.7662 17.7806C5.96057 16.5524 8.75493 15.6736 12.0225 15.6736Z" fill="#1C7DB8"/>
<path d="M12.0225 15.6846C15.2788 15.6846 18.0619 16.5522 19.2563 17.7691C19.6619 16.879 19.876 15.91 19.876 14.9297C19.876 10.8959 16.3605 7.52686 12.0225 7.52686C7.68444 7.52686 4.16895 10.8959 4.16895 14.9297C4.16895 15.91 4.38303 16.879 4.78866 17.7691C5.98303 16.5522 8.7774 15.6846 12.0225 15.6846Z" fill="#1F80B8"/>
<path d="M12.0227 15.6957C15.2677 15.6957 18.0508 16.552 19.2452 17.7576C19.6508 16.8788 19.8649 15.9097 19.8649 14.9407C19.8649 10.9407 16.3607 7.59424 12.0339 7.59424C7.70718 7.59424 4.18042 10.9407 4.18042 14.9407C4.18042 15.9097 4.3945 16.8788 4.80014 17.7576C5.9945 16.552 8.7776 15.6957 12.0114 15.6957" fill="#2182BA"/>
<path d="M12.0113 15.7071C15.2451 15.7071 18.017 16.5522 19.2114 17.7578C19.617 16.879 19.8311 15.9325 19.8311 14.9635C19.8311 10.9973 16.3268 7.67334 12.0113 7.67334C7.69584 7.67334 4.20288 10.9973 4.20288 14.9635C4.20288 15.9325 4.41697 16.879 4.8226 17.7578C6.0057 16.5522 8.7888 15.7071 12.0113 15.7071Z" fill="#2485BA"/>
<path d="M12.0113 15.7069C15.2451 15.7069 18.0056 16.552 19.1887 17.7351C19.5944 16.8675 19.8084 15.921 19.8084 14.9633C19.8084 11.0309 16.3155 7.72949 12.0113 7.72949C7.70703 7.72949 4.22534 11.0422 4.22534 14.9746C4.22534 15.9323 4.43943 16.8788 4.84506 17.7464C6.02816 16.552 8.79999 15.7182 12.0225 15.7182" fill="#298ABD"/>
<path d="M12.0112 15.7185C15.2338 15.7185 17.983 16.5523 19.1774 17.7241C19.583 16.8678 19.7859 15.9326 19.7859 14.9749C19.7859 11.0763 16.3042 7.78613 12.0112 7.78613C7.71826 7.78613 4.23657 11.0763 4.23657 14.9749C4.23657 15.9213 4.45066 16.8565 4.84502 17.7241C6.02812 16.5411 8.78869 15.7185 12 15.7185" fill="#2B8CBF"/>
<path d="M12.0114 15.7295C15.2227 15.7295 17.972 16.552 19.1551 17.7239C19.5607 16.8788 19.7635 15.9436 19.7635 15.0084C19.7635 11.1548 16.2931 7.87598 12.0114 7.87598C7.7297 7.87598 4.25928 11.1548 4.25928 15.0084C4.25928 15.9436 4.47336 16.8788 4.86773 17.7239C6.05083 16.552 8.80012 15.7295 12.0001 15.7295" fill="#2E8FBF"/>
<path d="M12.0113 15.7411C15.2113 15.7411 17.9606 16.5523 19.1324 17.7129C19.5381 16.8678 19.7409 15.9552 19.7409 15.0199C19.7409 11.2002 16.2817 7.93262 12.0113 7.93262C7.74089 7.93262 4.28174 11.189 4.28174 15.0199C4.28174 15.9552 4.48456 16.8678 4.89019 17.7129C6.06202 16.5523 8.81132 15.7411 12.0113 15.7411Z" fill="#2E91C2"/>
<path d="M12.0112 15.7408C15.2112 15.7408 17.938 16.5521 19.1211 17.7014C19.5268 16.8676 19.7296 15.9549 19.7296 15.031C19.7296 11.2451 16.2704 8 12.0112 8C7.75209 8 4.3042 11.2451 4.3042 15.031C4.3042 15.9549 4.51828 16.8676 4.91265 17.7014C6.08448 16.5521 8.82251 15.7408 12.0112 15.7408Z" fill="#3394C2"/>
<path d="M12.0114 15.7524C15.2001 15.7524 17.9269 16.5524 19.0987 17.6904C19.5044 16.8679 19.7072 15.9552 19.7072 15.0425C19.7072 11.2904 16.2593 8.06787 12.0114 8.06787C7.76352 8.06787 4.3269 11.2904 4.3269 15.0425C4.3269 15.9552 4.52972 16.8679 4.93536 17.6904C6.10719 16.5524 8.83395 15.7524 12.0114 15.7524Z" fill="#3396C2"/>
<path d="M12.0113 15.7634C15.1888 15.7634 17.9156 16.5522 19.0761 17.6789C19.4705 16.8677 19.6846 15.9663 19.6846 15.0536C19.6846 11.3353 16.2479 8.12402 12.0113 8.12402C7.77472 8.12402 4.34937 11.3353 4.34937 15.0536C4.34937 15.9663 4.55218 16.8564 4.95782 17.6789C6.12965 16.5522 8.84514 15.7634 12.0226 15.7634" fill="#3699C4"/>
<path d="M12.0112 15.7749C15.1774 15.7749 17.8929 16.5637 19.0648 17.6792C19.4591 16.8679 19.6732 15.9777 19.6732 15.0876C19.6732 11.4031 16.2479 8.21436 12.0225 8.21436C7.79714 8.21436 4.38306 11.4031 4.38306 15.0876C4.38306 15.989 4.58587 16.8679 4.98024 17.6792C6.1408 16.5637 8.8563 15.7749 12.0225 15.7749" fill="#389CC7"/>
<path d="M12.0114 15.7747C15.1776 15.7747 17.8819 16.5522 19.0424 17.6564C19.4368 16.8564 19.6509 15.9776 19.6509 15.0874C19.6509 11.4367 16.2368 8.27051 12.0227 8.27051C7.80862 8.27051 4.39453 11.448 4.39453 15.0874C4.39453 15.9776 4.59735 16.8677 5.00298 17.6677C6.16355 16.5635 8.86777 15.786 12.0227 15.786" fill="#3DA1C9"/>
<path d="M12.0114 15.7858C15.1663 15.7858 17.8705 16.552 19.0198 17.645C19.4142 16.8562 19.617 15.9774 19.617 15.0985C19.617 11.4816 16.2142 8.32666 12.0114 8.32666C7.80858 8.32666 4.40576 11.4816 4.40576 15.0985C4.40576 15.9774 4.60858 16.8562 5.00294 17.645C6.16351 16.552 8.85647 15.7858 12.0114 15.7858Z" fill="#40A3C9"/>
<path d="M12.0001 15.7973C15.1438 15.7973 17.8367 16.5635 18.986 17.6452C19.3804 16.8677 19.5832 16.0001 19.5832 15.1213C19.5832 11.5382 16.1804 8.40576 11.9889 8.40576C7.79731 8.40576 4.40576 11.5494 4.40576 15.1213C4.40576 16.0001 4.60858 16.8677 5.00294 17.6452C6.15224 16.5635 8.85647 15.7973 11.9889 15.7973" fill="#42A6CC"/>
<path d="M12 15.8084C15.1324 15.8084 17.8254 16.5633 18.9747 17.6337C19.369 16.8562 19.5719 15.9999 19.5719 15.1323C19.5719 11.583 16.1803 8.47314 12 8.47314C7.81974 8.47314 4.43945 11.5943 4.43945 15.1323C4.43945 15.9999 4.64227 16.8562 5.03664 17.6337C6.18593 16.5633 8.87889 15.8084 12 15.8084Z" fill="#45A8CC"/>
<path d="M12 15.8087C15.1324 15.8087 17.8028 16.5523 18.9521 17.6227C19.3465 16.8565 19.5493 16.0115 19.5493 15.1439C19.5493 11.6396 16.169 8.52979 12 8.52979C7.83097 8.52979 4.45068 11.6284 4.45068 15.1439C4.45068 16.0002 4.6535 16.8565 5.04787 17.6227C6.19716 16.5636 8.87885 15.8087 11.9887 15.8087" fill="#47ABCF"/>
<path d="M11.9999 15.8197C15.121 15.8197 17.7915 16.5633 18.9295 17.6112C19.3239 16.8563 19.5267 16.0112 19.5267 15.1661C19.5267 11.6957 16.1577 8.6084 11.9999 8.6084C7.84216 8.6084 4.47314 11.6957 4.47314 15.1661C4.47314 16.0225 4.67596 16.8563 5.07033 17.6112C6.20835 16.5633 8.89005 15.8197 11.9999 15.8197Z" fill="#4AADD1"/>
<path d="M12 15.8312C15.1099 15.8312 17.7691 16.5636 18.9183 17.6115C19.3127 16.8678 19.5155 16.034 19.5155 15.1889C19.5155 11.7523 16.1578 8.67627 12.0113 8.67627C7.86483 8.67627 4.50708 11.7411 4.50708 15.1777C4.50708 16.0227 4.7099 16.8566 5.10426 17.6002C6.24229 16.5636 8.91271 15.8199 12.0113 15.8199" fill="#4AB0D1"/>
<path d="M12 15.8423C15.0986 15.8423 17.7578 16.5634 18.8958 17.6C19.2902 16.8564 19.493 16.0338 19.4817 15.1888C19.4817 11.7859 16.124 8.73242 11.9888 8.73242C7.85356 8.73242 4.50708 11.7859 4.50708 15.1888C4.50708 16.0226 4.7099 16.8451 5.10426 17.5888C6.24229 16.5521 8.90145 15.831 11.9888 15.831" fill="#4FB2D4"/>
<path d="M12 15.8425C15.0986 15.8425 17.7465 16.5637 18.8732 17.5777C19.2676 16.8454 19.4704 16.0341 19.4592 15.2003C19.4592 11.8313 16.1127 8.80029 11.9887 8.80029C7.86475 8.80029 4.52954 11.8313 4.52954 15.2003C4.52954 16.0341 4.73236 16.8454 5.11546 17.5777C6.25348 16.5524 8.90137 15.8425 11.9887 15.8425" fill="#54BAD6"/>
<path d="M12.0001 15.8536C15.0875 15.8536 17.7241 16.5635 18.8509 17.5775C19.2339 16.8564 19.4368 16.0451 19.4368 15.2226C19.4368 11.8874 16.1016 8.86768 11.9889 8.86768C7.87619 8.86768 4.55225 11.8874 4.55225 15.2226C4.55225 16.0451 4.75506 16.8451 5.13816 17.5775C6.26492 16.5635 8.91281 15.8536 11.9889 15.8536" fill="#54BDD6"/>
<path d="M12.0001 15.8651C15.0761 15.8651 17.7127 16.5637 18.8395 17.5665C19.2226 16.8567 19.4254 16.0567 19.4254 15.2341C19.4254 11.9327 16.1015 8.93555 12.0001 8.93555C7.89865 8.93555 4.57471 11.9327 4.57471 15.2341C4.57471 16.0454 4.77752 16.8454 5.16062 17.5665C6.28738 16.5637 8.924 15.8651 11.9888 15.8651" fill="#59BFD9"/>
<path d="M12 15.8761C15.0648 15.8761 17.6901 16.5747 18.8169 17.555C19.2 16.8451 19.4028 16.0564 19.4028 15.2564C19.4028 11.9888 16.0901 9.01416 12 9.01416C7.90984 9.01416 4.59717 12.0001 4.59717 15.2564C4.59717 16.0564 4.79999 16.8564 5.18308 17.5663C6.30984 16.5747 8.9352 15.8874 12 15.8874" fill="#59C2D9"/>
<path d="M11.9999 15.8873C15.0647 15.8873 17.6901 16.5746 18.8056 17.5549C19.1887 16.8563 19.3915 16.0675 19.3915 15.2675C19.3915 12.0225 16.0788 9.05908 11.9999 9.05908C7.92107 9.05908 4.6084 12.0225 4.6084 15.2675C4.6084 16.0675 4.81122 16.8563 5.19431 17.5549C6.32107 16.5746 8.94643 15.8873 11.9999 15.8873Z" fill="#5EC2DB"/>
<path d="M12.0002 15.9101C15.0537 15.9101 17.679 16.5974 18.7945 17.5664C19.1776 16.8678 19.3804 16.0903 19.3804 15.2903C19.3804 12.0678 16.079 9.12695 12.0002 9.12695C7.92128 9.12695 4.61987 12.0791 4.61987 15.2903C4.61987 16.0903 4.82269 16.8678 5.20579 17.5664C6.33255 16.5861 8.94663 15.9101 12.0002 15.9101Z" fill="#63C4DB"/>
<path d="M12.0001 15.9323C15.0536 15.9323 17.6677 16.6084 18.7945 17.5887C19.1776 16.9013 19.3804 16.1239 19.3804 15.3351C19.3804 12.1351 16.079 9.20557 12.0001 9.20557C7.92124 9.20557 4.6311 12.1351 4.6311 15.3351C4.6311 16.1239 4.83392 16.9013 5.21702 17.5887C6.34378 16.6196 8.95786 15.9323 12.0001 15.9323Z" fill="#69C7DE"/>
<path d="M12.0001 15.9439C15.0536 15.9439 17.6677 16.62 18.7832 17.589C19.1663 16.9017 19.3691 16.1355 19.3691 15.3467C19.3691 12.1693 16.0677 9.25098 12.0001 9.25098C7.93247 9.25098 4.64233 12.1693 4.64233 15.3355C4.64233 16.1242 4.84515 16.8904 5.22825 17.5777C6.34374 16.62 8.95783 15.9327 12.0001 15.9327" fill="#6EC9DE"/>
<path d="M12 15.9662C15.0423 15.9662 17.6564 16.6423 18.7719 17.6C19.155 16.924 19.3578 16.1578 19.3578 15.3691C19.3578 12.2141 16.0677 9.31836 12 9.31836C7.93244 9.31836 4.65356 12.2141 4.65356 15.3691C4.65356 16.1465 4.85638 16.9127 5.23948 17.6C6.35497 16.6423 8.96906 15.9662 12.0113 15.9662" fill="#73CCE0"/>
<path d="M12 15.989C15.0423 15.989 17.6451 16.6538 18.7606 17.6116C19.1437 16.9355 19.3465 16.1693 19.3465 15.4031C19.3465 12.2707 16.0564 9.38623 12 9.38623C7.94367 9.38623 4.66479 12.2707 4.66479 15.4031C4.66479 16.1806 4.86761 16.9355 5.25071 17.6229C6.3662 16.6764 8.96902 16.0003 12.0113 16.0003" fill="#7ACFE0"/>
<path d="M12 16.0114C15.0422 16.0114 17.645 16.6762 18.7493 17.6226C19.1324 16.9579 19.3352 16.1917 19.3352 15.4255C19.3352 12.3156 16.0563 9.45361 12 9.45361C7.94363 9.45361 4.67603 12.3156 4.67603 15.4255C4.67603 16.1917 4.87884 16.9579 5.25067 17.6226C6.36617 16.6762 8.96898 16.0114 12 16.0114Z" fill="#80CFE3"/>
<path d="M12.0002 16.0225C15.0312 16.0225 17.634 16.676 18.7495 17.6225C19.1326 16.9577 19.3241 16.2028 19.3354 15.4366C19.3354 12.338 16.0565 9.49854 12.0114 9.49854C7.96637 9.49854 4.6875 12.338 4.6875 15.4366C4.6875 16.2028 4.89032 16.9577 5.26215 17.6225C6.37764 16.6873 8.98046 16.0225 12.0002 16.0225Z" fill="#85D1E3"/>
<path d="M11.9999 16.0453C15.0309 16.0453 17.6225 16.6988 18.738 17.634C19.1211 16.9692 19.3126 16.2256 19.3239 15.4706C19.3239 12.3946 16.045 9.56641 12.0112 9.56641C7.97736 9.56641 4.69849 12.3946 4.69849 15.4594C4.69849 16.2256 4.9013 16.9692 5.27313 17.634C6.38863 16.6988 8.98018 16.0453 11.9999 16.0453Z" fill="#8AD4E5"/>
<path d="M12.0001 16.0676C15.0311 16.0676 17.6227 16.7211 18.7269 17.6451C19.11 16.9915 19.3015 16.2479 19.3128 15.4929C19.3128 12.4394 16.0452 9.63379 12.0114 9.63379C7.97757 9.63379 4.70996 12.4394 4.70996 15.4929C4.70996 16.2479 4.91278 16.9915 5.28461 17.6451C6.4001 16.7211 8.99165 16.0676 12.0114 16.0676" fill="#8FD6E5"/>
<path d="M12.0001 16.0792C15.0198 16.0792 17.6114 16.7215 18.7156 17.6454C19.0987 16.9919 19.2903 16.2595 19.2903 15.5046C19.2903 12.4736 16.0227 9.6792 12.0001 9.6792C7.97757 9.6792 4.70996 12.4736 4.70996 15.5046C4.70996 16.2595 4.91278 16.9919 5.28461 17.6454C6.38883 16.7215 8.98038 16.0792 12.0001 16.0792Z" fill="#94D6E8"/>
<path d="M12.0001 16.1015C15.0198 16.1015 17.6001 16.7437 18.7043 17.6564C19.0761 17.0141 19.2789 16.2817 19.2789 15.5381C19.2789 12.5296 16.0113 9.75781 12.0001 9.75781C7.9888 9.75781 4.72119 12.5296 4.72119 15.5381C4.72119 16.2817 4.92401 17.0141 5.29584 17.6677C6.40006 16.755 8.99161 16.1127 12.0001 16.1127" fill="#99D9E8"/>
<path d="M12.0001 16.1238C15.0085 16.1238 17.6001 16.7661 18.693 17.6675C19.0649 17.0252 19.2677 16.3041 19.2677 15.5604C19.2677 12.5745 16.0113 9.81396 11.9888 9.81396C7.96626 9.81396 4.72119 12.5745 4.72119 15.5604C4.72119 16.3041 4.92401 17.0252 5.29584 17.6675C6.40006 16.7661 8.98035 16.1238 11.9888 16.1238" fill="#9EDBE8"/>
<path d="M12 16.1466C15.0084 16.1466 17.5887 16.7776 18.6929 17.679C19.0648 17.048 19.2676 16.3269 19.2676 15.5832C19.2676 12.6199 16.0112 9.88184 12 9.88184C7.98872 9.88184 4.74365 12.6199 4.74365 15.5832C4.74365 16.3156 4.94647 17.048 5.3183 17.679C6.42253 16.7776 9.00281 16.1466 12 16.1466Z" fill="#A3DEEB"/>
<path d="M12 16.1577C15.0084 16.1577 17.5775 16.7887 18.6817 17.6788C19.0535 17.0478 19.2563 16.338 19.2563 15.6056C19.2563 12.6535 16.0113 9.93799 12 9.93799C7.98869 9.93799 4.75488 12.6647 4.75488 15.6056C4.75488 16.338 4.9577 17.0591 5.32953 17.6901C6.43375 16.8 9.01404 16.169 12 16.169" fill="#A8DEED"/>
<path d="M11.9999 16.1805C14.9971 16.1805 17.5774 16.8003 18.6704 17.6904C19.0422 17.0707 19.245 16.3496 19.245 15.6284C19.245 12.6988 15.9999 9.99463 11.9999 9.99463C7.99992 9.99463 4.76611 12.6988 4.76611 15.6284C4.76611 16.3608 4.96893 17.0707 5.34076 17.6904C6.44499 16.8003 9.014 16.1805 12.0112 16.1805" fill="#B0E3ED"/>
<path d="M11.9999 16.2029C14.9971 16.2029 17.5661 16.8226 18.6591 17.7014C19.0309 17.0817 19.2337 16.3719 19.2337 15.6507C19.2337 12.7437 15.9887 10.062 11.9999 10.062C8.01118 10.062 4.76611 12.755 4.76611 15.6507C4.76611 16.3719 4.96893 17.0817 5.34076 17.7014C6.43372 16.8226 9.014 16.2029 11.9999 16.2029Z" fill="#B5E3ED"/>
<path d="M12.0001 16.2257C14.9973 16.2257 17.5551 16.8454 18.648 17.713C19.0199 17.1045 19.2227 16.3947 19.2227 15.6848C19.2227 12.8003 15.9889 10.1299 12.0001 10.1299C8.01139 10.1299 4.77759 12.8003 4.77759 15.6848C4.77759 16.3947 4.9804 17.1045 5.35224 17.713C6.44519 16.8454 9.01421 16.2257 12.0001 16.2257Z" fill="#BAE5F0"/>
<path d="M12 16.2368C14.986 16.2368 17.555 16.8452 18.6479 17.7128C19.0198 17.1044 19.2113 16.4058 19.2226 15.6959C19.2226 12.834 15.9888 10.1748 12.0113 10.1748C8.03385 10.1748 4.80005 12.8227 4.80005 15.6847C4.80005 16.3945 4.9916 17.0931 5.36343 17.7016C6.45639 16.834 9.0254 16.2255 12 16.2255" fill="#BFE8F2"/>
<path d="M12 16.2591C14.9859 16.2591 17.5437 16.8676 18.6367 17.7239C19.0085 17.1267 19.2 16.4281 19.2113 15.7183C19.2113 12.8788 15.9888 10.2422 12.0113 10.2422C8.03381 10.2422 4.81128 12.8788 4.81128 15.7183C4.81128 16.4281 5.0141 17.1154 5.38593 17.7239C6.47888 16.8676 9.03663 16.2591 12.0225 16.2591" fill="#C4E8F2"/>
<path d="M12 16.2819C14.9859 16.2819 17.5324 16.8791 18.6254 17.7354C18.9972 17.1382 19.1888 16.4509 19.2 15.7523C19.2 12.9354 15.9775 10.3101 12 10.3101C8.02255 10.3101 4.81128 12.9241 4.81128 15.7523C4.81128 16.4509 5.0141 17.1382 5.37466 17.7354C6.46762 16.8791 9.02536 16.2819 12 16.2819Z" fill="#C9EBF2"/>
<path d="M12 16.293C14.9747 16.293 17.5324 16.8902 18.6141 17.7352C18.9747 17.138 19.1775 16.462 19.1775 15.7634C19.1775 12.9578 15.955 10.3662 11.9887 10.3662C8.02254 10.3662 4.81128 12.969 4.81128 15.7634C4.81128 16.462 5.0141 17.138 5.37466 17.7352C6.46762 16.8902 9.02536 16.293 11.9887 16.293" fill="#CFEDF5"/>
<path d="M12 16.3158C14.9746 16.3158 17.5211 16.913 18.6028 17.7468C18.9634 17.1609 19.1662 16.4848 19.1662 15.7862C19.1662 13.0031 15.9549 10.4229 11.9887 10.4229C8.02251 10.4229 4.82251 13.0031 4.82251 15.7862C4.82251 16.4736 5.02533 17.1609 5.38589 17.7468C6.47885 16.9017 9.02533 16.3158 11.9887 16.3158" fill="#D4F0F5"/>
<path d="M11.9999 16.3381C14.9633 16.3381 17.5098 16.924 18.5915 17.7578C18.9521 17.1719 19.1549 16.5071 19.1549 15.8198C19.1549 13.0592 15.9436 10.5015 11.9887 10.5015C8.03374 10.5015 4.83374 13.0705 4.83374 15.8198C4.83374 16.5071 5.03656 17.1832 5.39712 17.7578C6.47881 16.924 9.02529 16.3381 11.9887 16.3381" fill="#D9F2F5"/>
<path d="M12.0001 16.3492C14.9635 16.3492 17.51 16.9351 18.5917 17.7576C18.9523 17.183 19.1551 16.5182 19.1551 15.8309C19.1551 13.0929 15.9438 10.5464 12.0001 10.5464C8.05648 10.5464 4.84521 13.0929 4.84521 15.8309C4.84521 16.5182 5.04803 17.183 5.4086 17.7576C6.49029 16.9351 9.03676 16.3492 11.9889 16.3492" fill="#DEF2F7"/>
<path d="M12.0001 16.372C14.9634 16.372 17.4987 16.9467 18.5804 17.7692C18.9409 17.1946 19.1438 16.5298 19.1438 15.8537C19.1438 13.1382 15.9438 10.603 12.0001 10.603C8.05641 10.603 4.86768 13.1382 4.86768 15.8537C4.86768 16.5298 5.07049 17.1946 5.43105 17.7692C6.51275 16.9467 9.05922 16.372 12.0113 16.372" fill="#E5F5FA"/>
<path d="M12.0001 16.3943C14.9522 16.3943 17.4874 16.969 18.5691 17.7802C18.9297 17.2169 19.1325 16.5521 19.1325 15.8873C19.1325 13.1943 15.9325 10.6816 12.0001 10.6816C8.06767 10.6816 4.86768 13.1943 4.86768 15.8873C4.86768 16.5633 5.07049 17.2169 5.43105 17.7802C6.51275 16.969 9.04796 16.3943 12.0001 16.3943Z" fill="#EBF7FA"/>
<path d="M12 16.4172C14.9521 16.4172 17.4761 16.9918 18.5578 17.7918C18.9184 17.2284 19.1212 16.5749 19.1212 15.9101C19.1212 13.2397 15.9324 10.7383 12 10.7383C8.06764 10.7383 4.87891 13.2397 4.87891 15.9101C4.87891 16.5749 5.08172 17.2284 5.44229 17.7918C6.52398 16.9805 9.05919 16.4172 12 16.4172Z" fill="#F0FAFC"/>
<path d="M12 16.4282C14.9408 16.4282 17.4761 16.9916 18.5465 17.7916C18.907 17.2395 19.0986 16.586 19.1099 15.9324C19.1099 13.2845 15.9211 10.8057 12 10.8057C8.07887 10.8057 4.89014 13.2845 4.89014 15.9324C4.89014 16.5972 5.09295 17.2395 5.45352 17.8029C6.53521 17.0029 9.05915 16.4395 12 16.4395" fill="#F5FAFC"/>
<path d="M12.0002 16.451C14.941 16.451 17.4649 17.0144 18.5466 17.8032C18.9072 17.251 19.0987 16.6088 19.11 15.9553C19.11 13.3186 15.9325 10.8623 12.0114 10.8623C8.09031 10.8623 4.91284 13.3299 4.91284 15.9553C4.91284 16.6088 5.11566 17.2623 5.47622 17.8144C6.55791 17.0144 9.08186 16.4623 12.0114 16.4623" fill="#FAFCFF"/>
<path d="M12.0002 16.4734C14.941 16.4734 17.4537 17.0368 18.5354 17.8142C18.8959 17.2734 19.0875 16.6311 19.0987 15.9776C19.0987 13.3635 15.9213 10.9185 12.0002 10.9185C8.07904 10.9185 4.91284 13.3635 4.91284 15.9776C4.91284 16.6311 5.11566 17.2734 5.47622 17.8142C6.54664 17.0255 9.07059 16.4734 12.0002 16.4621" fill="white"/>
</g>
<path d="M11.9549 13.8706C9.38592 13.8706 6.99718 14.31 5.03662 15.0424C6.7493 18.8621 11.2338 20.5748 15.0535 18.8734C16.7549 18.1072 18.1183 16.7438 18.8845 15.0424C16.9127 14.2988 14.5239 13.8706 11.9662 13.8706" fill="#0869AB"/>
</g>
<defs>
<clipPath id="clip0_2134_4662">
<rect width="16" height="16" fill="white" transform="translate(4 4)"/>
</clipPath>
</defs>
</svg>
