<svg width="83" height="80" viewBox="0 0 83 80" fill="none" xmlns="http://www.w3.org/2000/svg">
<path d="M16.6824 68.4622C21.7811 75.442 30.1965 79.9468 40.295 79.9963C53.4626 80.1448 62.9671 76.1351 70.442 67.6207L59.6009 58.3142C55.4922 62.5714 50.1955 65.0465 43.4632 65.0465C38.8594 65.0465 34.7012 63.1654 31.9786 59.7993C26.3848 63.0664 21.4841 65.9376 16.8309 68.3137C16.8309 68.4127 16.7814 68.4622 16.6824 68.4622Z" fill="#262933"/>
<path d="M77.0256 33.7612C76.8276 33.8602 76.6296 33.9592 76.5801 34.0087C73.4614 35.7908 70.3428 37.6224 67.1746 39.4044C63.5609 41.4835 59.8978 43.7606 55.9376 46.1368C55.5415 46.3843 55.1455 46.6318 54.7495 46.8298C53.8089 47.3743 52.8684 47.9188 51.9278 48.5129C50.1953 49.5029 48.4132 50.5425 46.5321 51.582H78.6592C80.2432 44.6022 80.0947 38.2659 78.6096 32.8701C78.4116 33.0186 77.6196 33.4641 77.0256 33.7612Z" fill="#262933"/>
<path d="M32.6221 37.4733C34.4042 34.8002 36.5328 32.3746 38.9584 30.246C41.2355 28.2164 43.7106 26.4343 46.3838 24.9987C48.9084 23.6126 51.631 22.5236 54.4031 21.7811C57.0268 21.088 59.7989 20.692 62.5215 20.6425C65.0956 20.593 67.7193 20.9395 70.1944 21.6325C72.5705 22.3256 74.8476 23.3651 76.9267 24.8007C77.9663 25.5432 78.9068 26.3353 79.7484 27.2263C80.1939 27.6718 80.5899 28.1669 80.9859 28.6619C81.3325 29.1074 81.679 29.5529 81.877 30.048C81.778 29.7014 81.6295 29.3054 81.6295 29.3054C76.1347 11.7816 60.1454 0 41.7305 0C18.7119 0 0 18.7119 0 41.78C0 52.2745 3.96018 62.3235 11.0885 70.0459L12.1776 71.234C12.1776 71.234 15.3953 68.5608 17.0784 66.0362C19.5535 62.274 24.3057 55.7892 28.3154 45.5917C29.5034 42.7206 30.939 39.9979 32.6221 37.4733Z" fill="#D42941"/>
<mask id="mask0_3752_1252" style="mask-type:luminance" maskUnits="userSpaceOnUse" x="12" y="20" width="71" height="52">
<path d="M62.5708 20.592C59.8482 20.6415 57.076 21.0375 54.4524 21.7305C51.6308 22.4731 48.9576 23.5621 46.433 24.9482C43.7599 26.4333 41.2352 28.1658 39.0076 30.1954C36.6315 32.324 34.5029 34.7992 32.6713 37.4228C30.9387 39.9474 29.5527 42.6701 28.4141 45.4917C24.4044 55.6892 19.6522 62.174 17.1771 65.8867C15.494 68.4608 12.2764 71.0844 12.2764 71.0844C12.3754 71.0349 12.4744 70.9854 12.5734 70.9359C19.0582 67.5698 26.038 63.3621 34.4039 58.5603C36.6316 57.2733 40.4432 54.8971 42.4233 53.8576C45.8885 52.026 49.0566 50.2439 52.0268 48.5113C53.1158 47.8678 54.2049 47.2243 55.2445 46.6302C55.69 46.3827 56.1355 46.0857 56.581 45.8382C61.0857 43.1651 65.1944 40.591 69.3031 38.2643C72.8178 36.2347 76.382 34.2051 79.8966 32.1755C79.9956 32.126 80.1936 32.027 80.4412 31.8785C81.1342 31.532 82.1737 30.9875 82.1737 30.7895C82.1737 30.641 82.1243 30.443 82.1243 30.2945C81.9758 29.6014 81.4807 29.1064 81.0847 28.5619C80.6887 28.0668 80.2926 27.5718 79.8471 27.1263C79.0056 26.2353 78.0155 25.3937 77.0255 24.7007C74.9959 23.2651 72.7188 22.1761 70.3427 21.5325C67.9665 20.8395 65.4419 20.5425 62.9668 20.5425C62.7688 20.592 62.6698 20.592 62.5708 20.592Z" fill="white"/>
</mask>
<g mask="url(#mask0_3752_1252)">
<path d="M28.8102 100.934L-9.30664 32.5714L65.541 -9.15918L103.658 59.1541L28.8102 100.934Z" fill="url(#paint0_linear_3752_1252)"/>
</g>
<defs>
<linearGradient id="paint0_linear_3752_1252" x1="47.8307" y1="47.0366" x2="42.8141" y2="38.043" gradientUnits="userSpaceOnUse">
<stop stop-color="#E5E5E4"/>
<stop offset="0.4424" stop-color="#ECEBEA"/>
<stop offset="1" stop-color="white"/>
</linearGradient>
</defs>
</svg>
