<svg width="80" height="80" viewBox="0 0 80 80" fill="none" xmlns="http://www.w3.org/2000/svg">
<path d="M56.8347 79.7454C49.2251 78.4325 40.5119 72.0522 35.2625 67.0305C25.714 71.2446 17.4415 72.898 11.2113 71.8225C5.79716 70.8886 2.03447 67.8917 0.612932 63.383C-1.71671 55.9922 2.63988 46.0714 12.9087 35.2665C10.1767 29.1005 8.51379 23.4894 7.96586 18.552C7.31065 12.6615 8.25708 7.98438 10.7783 4.65832C13.6329 0.888272 18.1849 -0.669506 23.599 0.264393C29.8407 1.34374 37.0902 5.69173 44.6845 12.8835C54.2522 8.65418 62.54 6.99307 68.7856 8.06858C74.2036 9.00248 77.9662 12.0032 79.3877 16.5081C81.7174 23.9028 77.3532 33.8274 67.0729 44.6399C70.3528 52.1035 72.9467 60.0837 71.962 68.4046L71.939 68.5807L71.9046 68.7529C71.0041 73.0856 69.1074 76.2394 66.2605 78.1187C63.6742 79.8334 60.5016 80.3769 56.8347 79.7454Z" fill="#262933"/>
<path d="M59.0226 43.0132C57.624 51.6747 51.9111 57.9594 46.267 57.0485C40.623 56.1376 37.1784 48.3793 38.5769 39.7178C39.9755 31.0562 45.6885 24.7715 51.3325 25.6825C56.9803 26.5896 60.425 34.3478 59.0226 43.0132Z" fill="white"/>
<path d="M42.0691 27.9375C44.6229 25.1277 48.0123 23.38 51.6093 23.9598L51.6097 23.9594C55.2091 24.5375 57.8783 27.2606 59.4185 30.7311C60.9666 34.2192 61.4945 38.6744 60.7472 43.2918C60.0019 47.9071 58.0976 51.969 55.5304 54.7936C52.9761 57.6039 49.5859 59.352 45.9883 58.7713C42.3912 58.1908 39.7239 55.4665 38.1839 51.9967C36.6361 48.509 36.107 44.0552 36.8522 39.4397C37.5975 34.8242 39.5018 30.7622 42.0691 27.9375ZM51.0536 27.4052C49.0073 27.075 46.719 28.0137 44.6562 30.2833C42.6064 32.5385 40.9547 35.9496 40.3014 39.9955C39.6481 44.0415 40.1422 47.7977 41.378 50.5823C42.6217 53.3846 44.4989 54.9951 46.5458 55.3255C48.5921 55.6557 50.8804 54.7171 52.9432 52.4474C54.993 50.1922 56.6443 46.7812 57.2976 42.7353L57.298 42.7345C57.9531 38.6867 57.4597 34.93 56.2241 32.1458C54.9807 29.3441 53.1035 27.7343 51.0551 27.4052H51.0536Z" fill="#262933"/>
<path d="M53.0917 37.073C50.7008 36.5448 48.1451 38.47 46.6929 41.6009C46.4323 42.1673 46.5664 42.8371 47.0148 43.2696L48.7237 44.9116C49.3405 45.5049 49.3252 46.4962 48.6892 47.0703L46.5588 48.9917C46.1028 49.4012 45.9419 50.0557 46.1718 50.6222C46.8308 52.2603 47.9573 53.4277 49.4095 53.7492C52.4097 54.4114 55.6704 51.2116 56.6858 46.6072C57.7012 42.0066 56.0919 37.7351 53.0917 37.073Z" fill="#262933"/>
<path d="M41.4123 40.2232C40.0137 48.8847 34.3007 55.1694 28.6567 54.2585C23.0127 53.3475 19.568 45.5893 20.9666 36.9277C22.3651 28.2662 28.0781 21.9815 33.7221 22.8924C39.37 23.7995 42.8108 31.5616 41.4123 40.2232Z" fill="white"/>
<path d="M24.4587 25.1472C27.0125 22.3374 30.4019 20.5897 33.9989 21.1695L33.9993 21.1691C37.5993 21.7473 40.2671 24.4721 41.8067 27.9427C43.354 31.4309 43.8821 35.8855 43.1369 40.5008C42.3916 45.1163 40.4874 49.1786 37.92 52.0033C35.3658 54.8136 31.9756 56.5617 28.3779 55.981C24.7809 55.4005 22.1135 52.6763 20.5736 49.2064C19.0257 45.7187 18.4966 41.2649 19.2418 36.6494C19.9871 32.034 21.8914 27.9719 24.4587 25.1472ZM33.4433 24.615C31.397 24.2847 29.1087 25.2235 27.0458 27.493C24.9961 29.7483 23.3444 33.1593 22.6911 37.2052C22.0378 41.2512 22.5318 45.0075 23.7676 47.792C25.0113 50.5944 26.8885 52.2048 28.9355 52.5352C30.9818 52.8654 33.27 51.9268 35.3329 49.6571C37.3827 47.4019 39.034 43.9909 39.6873 39.945C40.3406 35.8987 39.8476 32.1416 38.6122 29.3567C37.369 26.554 35.4926 24.9439 33.4448 24.615H33.4433Z" fill="#262933"/>
<path d="M35.393 33.9001C33.0021 33.372 30.4464 35.2972 28.9942 38.428C28.7336 38.9945 28.8677 39.6643 29.3161 40.0968L31.025 41.7388C31.6418 42.332 31.6265 43.3233 30.9905 43.8975L28.8601 45.8188C28.4041 46.2284 28.2432 46.8829 28.4731 47.4493C29.1321 49.0875 30.2586 50.2549 31.7108 50.5764C34.711 51.2385 37.9717 48.0388 38.9871 43.4343C40.0025 38.8299 38.3932 34.5623 35.393 33.9001Z" fill="#262933"/>
</svg>
