<svg width="81" height="80" viewBox="0 0 81 80" fill="none" xmlns="http://www.w3.org/2000/svg">
<path d="M5.91608 41.0017C9.20897 20.5962 27.4624 4.18359 49.0088 4.18359C68.6883 4.18359 83.8304 20.5962 80.5375 41.0017C77.2447 61.2776 60.858 77.6642 37.2892 77.6642C17.4801 77.6901 2.64912 61.2776 5.91608 41.0017ZM60.858 41.0017C62.4396 31.149 55.8539 23.3186 46.0271 23.3186C36.0447 23.3186 27.2032 31.1749 25.6215 41.0017C24.0399 50.6988 30.9109 58.5551 40.4525 58.5551C50.5904 58.5551 59.3023 50.7248 60.858 41.0017Z" fill="#262933"/>
<path d="M4.59369 21.4001C-5.67389 40.95 1.84529 65.141 21.4211 75.4086C36.9003 83.55 55.2575 80.4905 67.34 69.1858V69.1599C67.34 69.1599 66.614 67.5005 64.6175 65.4003C61.7136 62.3148 56.4502 57.3625 47.9976 51.4768C26.6068 36.6199 27.6698 7.81369 45.3529 0.787135C45.6122 0.683422 45.8714 0.553773 46.1566 0.475989C29.7181 -2.09091 12.7611 5.84313 4.59369 21.4001Z" fill="#D42941"/>
<mask id="mask0_3752_1263" style="mask-type:luminance" maskUnits="userSpaceOnUse" x="32" y="0" width="36" height="70">
<path d="M45.3788 0.813333C27.6958 7.86581 26.6327 36.6721 48.0235 51.503C56.4761 57.3628 61.7396 62.341 64.6435 65.4265C66.64 67.5267 67.366 69.1861 67.366 69.1861C63.8138 61.2002 60.5209 52.0475 57.6688 43.1023C54.1426 32.0569 51.2645 21.2707 49.2681 13.3367C47.3494 5.63599 46.2604 0.60591 46.2345 0.502197H46.2085C45.8974 0.579982 45.6381 0.70962 45.3788 0.813333Z" fill="white"/>
</mask>
<g mask="url(#mask0_3752_1263)">
<path d="M85.4638 64.0002L29.6663 79.9201L8.50885 5.66163L64.2805 -10.2583L85.4638 64.0002Z" fill="url(#paint0_linear_3752_1263)"/>
</g>
<defs>
<linearGradient id="paint0_linear_3752_1263" x1="53.2769" y1="33.0319" x2="43.9649" y2="35.6879" gradientUnits="userSpaceOnUse">
<stop stop-color="#E6E6E6"/>
<stop offset="0.4598" stop-color="#EDECEC"/>
<stop offset="1" stop-color="white"/>
</linearGradient>
</defs>
</svg>
