<svg width="77" height="80" viewBox="0 0 77 80" fill="none" xmlns="http://www.w3.org/2000/svg">
<path d="M12.2678 47.8376C15.1406 29.8744 30.4291 15.6426 49.3829 15.6426C60.9071 15.6426 70.9454 22.4448 74.7097 32.351L61.9307 38.4268C59.6193 32.7803 54.237 28.9499 47.2696 28.9499C36.8021 28.9499 27.3252 37.4361 25.7072 47.8046C24.0231 58.1731 30.7263 66.6594 41.1938 66.6594C48.3593 66.6594 55.0625 62.7299 59.091 56.9183L70.0868 62.9941C63.1195 73.0984 53.4445 79.9997 39.2456 79.9997C22.207 80.0327 9.39501 65.6357 12.2678 47.8376Z" fill="#262933"/>
<path d="M52.0246 2.53373C32.2452 -5.02798 10.0554 4.91121 2.52674 24.6905C-3.44998 40.3423 1.53611 57.48 13.6877 67.7164C13.6877 67.7164 15.1736 66.8248 16.9567 64.7115C19.5654 61.6075 23.6929 56.0271 28.3158 47.3096C40.0051 25.2519 67.5773 23.0065 76.2947 39.0545L76.6909 39.7809C77.2193 23.766 67.7424 8.54347 52.0246 2.53373Z" fill="#D42941"/>
<mask id="mask0_3752_1274" style="mask-type:luminance" maskUnits="userSpaceOnUse" x="13" y="28" width="64" height="40">
<path d="M28.2829 47.2761C23.66 55.9936 19.5324 61.574 16.9238 64.678C15.1737 66.7583 13.7208 67.6498 13.6548 67.6828C20.8533 63.3902 29.2075 59.2296 37.3966 55.4982C47.5339 50.8754 57.4401 46.9129 64.7706 44.1062C71.87 41.3985 76.559 39.7805 76.625 39.7474V39.7144L76.2288 38.988C72.4644 32.0867 65.2329 28.5535 57.275 28.5535C46.7414 28.5535 34.9531 34.6953 28.2829 47.2761Z" fill="white"/>
</mask>
<g mask="url(#mask0_3752_1274)">
<path d="M23.0655 90.1041L-0.28009 34.3984L67.247 6.13281L90.5925 61.8385L23.0655 90.1041Z" fill="url(#paint0_linear_3752_1274)"/>
</g>
<defs>
<linearGradient id="paint0_linear_3752_1274" x1="46.0782" y1="50.3425" x2="42.4915" y2="41.7787" gradientUnits="userSpaceOnUse">
<stop stop-color="#E6E6E5"/>
<stop offset="0.4693" stop-color="#EDEDEC"/>
<stop offset="1" stop-color="white"/>
</linearGradient>
</defs>
</svg>
