<svg width="80" height="80" viewBox="0 0 80 80" fill="none" xmlns="http://www.w3.org/2000/svg">
<path d="M73.6705 18.4883L73.4747 18.1621C66.3187 7.24308 54.0076 0 40 0C17.9445 0 0 17.9445 0 40C0 49.6574 3.43665 58.5318 9.15715 65.4486L9.37466 65.6879C16.7265 74.4318 27.7107 80 40 80C62.0555 80 80 62.0555 80 40C80 32.0827 77.6509 24.7091 73.6705 18.4883ZM69.1463 19.5323L59.4454 34.5405L42.1098 4.43718C53.2898 5.11146 63.0778 10.919 69.1463 19.5323ZM14.8994 42.3708L7.83034 31.1473L37.7162 19.8804V33.4965L14.8994 42.3708ZM37.7162 4.45895V15.2039L6.89505 26.8189C11.876 14.3556 23.7085 5.35074 37.7162 4.45895ZM4.80696 34.5188L12.1588 46.199L12.2458 46.3078L12.398 46.5035L12.6808 46.7645L12.8766 46.8951L13.2246 47.0691L13.4203 47.1343L13.9641 47.2213H14.0076H14.0294C14.2686 47.2213 14.4861 47.1778 14.7254 47.0908L14.8124 47.0691L37.7162 38.1512V51.7238L11.6803 61.5552C7.11256 55.5519 4.37194 48.1131 4.37194 40C4.35019 38.1294 4.54595 36.3023 4.80696 34.5188ZM14.6819 65.0571L37.7162 56.3785V75.5411C28.733 74.9538 20.6417 71.0821 14.6819 65.0571ZM42.0663 75.5411V13.0941L57.4443 39.826C57.814 40.4785 58.5101 40.8918 59.2713 40.9135H59.3148C60.0544 40.9135 60.7504 40.5438 61.1419 39.913L71.6476 23.6868C74.1925 28.5808 75.6498 34.1272 75.6498 40.0217C75.6498 58.9668 60.7504 74.4753 42.0663 75.5411Z" fill="#D42941"/>
</svg>
