<svg width="80" height="80" viewBox="0 0 80 80" fill="none" xmlns="http://www.w3.org/2000/svg">
<path d="M53.73 30.1028C53.7324 30.8947 53.4997 31.6695 53.0613 32.3289C52.6229 32.9884 51.9985 33.5028 51.2674 33.807C50.5362 34.1111 49.7312 34.1914 48.9544 34.0375C48.1777 33.8836 47.4641 33.5025 46.9041 32.9426C46.3442 32.3826 45.9631 31.669 45.8092 30.8922C45.6553 30.1154 45.7355 29.3105 46.0397 28.5793C46.3439 27.8482 46.8583 27.2238 47.5178 26.7854C48.1772 26.347 48.952 26.1143 49.7439 26.1167C50.8011 26.1167 51.8149 26.5367 52.5625 27.2842C53.31 28.0318 53.73 29.0456 53.73 30.1028Z" fill="#C8A25F"/>
<path d="M40.8389 0.846924V39.1527H79.1491V40.8464H39.1531V0.846924H40.8389Z" fill="#262933"/>
<path d="M53.5576 1.00791V0.846924H55.2434V1.00791C55.2434 7.30293 57.744 13.3414 62.1964 17.7939C66.649 22.2465 72.6893 24.7485 78.9879 24.7485H79.1493V26.4422H78.9879C72.2447 26.4422 65.776 23.7641 61.0067 18.9947C56.2372 14.2252 53.5576 7.75466 53.5576 1.00791Z" fill="#262933"/>
<path d="M53.5576 1.00791V0.846924H55.2434V1.00791C55.2434 7.30293 57.744 13.3414 62.1964 17.7939C66.649 22.2465 72.6893 24.7485 78.9879 24.7485H79.1493V26.4422H78.9879C72.2447 26.4422 65.776 23.7641 61.0067 18.9947C56.2372 14.2252 53.5576 7.75466 53.5576 1.00791Z" fill="#262933"/>
<path d="M0.244751 34.0239C6.56208 32.4624 13.1755 32.5573 19.4454 34.2996C25.7155 36.042 31.4304 39.3733 36.0371 43.9711C40.6439 48.569 43.9867 54.2781 45.7417 60.5465C47.4967 66.815 47.6044 73.4305 46.0545 79.7529L44.4181 79.3482C45.8982 73.3101 45.7946 66.9919 44.1184 61.0052C42.4423 55.0185 39.2494 49.5644 34.8485 45.172C30.4477 40.7799 24.9878 37.5976 18.9965 35.9327C13.0047 34.2676 6.68357 34.1768 0.646456 35.6691L0.244751 34.0239Z" fill="#262933"/>
<path d="M79.9921 0V80H0V0H79.9921ZM1.68585 78.3063H78.3062V1.69371H1.68585V78.3063Z" fill="#262933"/>
<path d="M21.2687 0.846924V20.4293H19.5828V0.846924H21.2687Z" fill="#262933"/>
<path d="M60.4092 40.0371V79.1533H58.7234V40.0371H60.4092Z" fill="#262933"/>
<path d="M73.4726 40.0371V79.1533H71.7868V40.0371H73.4726Z" fill="#262933"/>
<path d="M66.941 40.0371V79.1533H65.2551V40.0371H66.941Z" fill="#262933"/>
<path d="M39.9961 19.5703V21.264H0.843018V19.5703H39.9961Z" fill="#262933"/>
</svg>
