<svg width="52" height="18" viewBox="0 0 52 18" fill="none" xmlns="http://www.w3.org/2000/svg">
<path d="M4.43836 4.43836H6.24658L5.34247 2.13699L4.43836 4.43836Z" fill="#2FABF7"/>
<path d="M26.8767 2.46575C26.7123 2.38356 26.4658 2.38356 26.2192 2.38356H24.5753V3.69863H26.2192C26.4658 3.69863 26.7123 3.69863 26.8767 3.61644C27.0411 3.53425 27.1233 3.28767 27.1233 3.0411C27.2055 2.71233 27.0411 2.54795 26.8767 2.46575Z" fill="#228FE0"/>
<path d="M44.4658 0V0.9863L43.9726 0H40.1096V0.9863L39.6164 0H34.3562C33.4521 0 32.7123 0.164384 32.0548 0.493151V0H28.3562V0.493151C27.9452 0.164384 27.4521 0 26.7945 0H13.5616L12.6575 2.05479L11.7534 0H7.56164V0.9863L7.06849 0H3.53425L1.89041 3.86301L0 8.13699H4.19178L4.68493 6.82192H5.83562L6.32877 8.13699H11.0959V7.15068L11.5068 8.13699H13.8904L14.3014 7.15068V8.13699H25.726V6H25.8904C26.0548 6 26.0548 6 26.0548 6.24658V8.05479H31.9726V7.56164C32.4658 7.80822 33.2055 8.05479 34.1918 8.05479H36.6575L37.1507 6.73973H38.3014L38.7945 8.05479H43.5616V6.82192L44.3014 8.05479H48.1644V0H44.4658ZM16.6849 6.90411H15.2877V2.38356L13.3151 6.90411H12.0822L10.1096 2.38356V6.90411H7.31507L6.73973 5.67123H3.94521L3.45205 6.9863H1.89041L4.35616 1.15068H6.41096L8.71233 6.65753V1.15068H10.9315L12.7397 5.09589L14.3836 1.15068H16.6849V6.90411ZM22.274 2.38356H19.0685V3.45205H22.1918V4.60274H19.0685V5.75342H22.274V6.9863H17.6712V1.15068H22.274V2.38356ZM28.4384 4.76712C28.6027 5.09589 28.6849 5.34247 28.6849 5.83562V6.9863H27.2877V6.24658C27.2877 5.91781 27.2877 5.42466 27.0411 5.09589C26.7945 4.84931 26.5479 4.84931 26.0548 4.84931H24.5753V6.9863H23.1781V1.15068H26.3014C27.0411 1.15068 27.5342 1.15068 27.9452 1.39726C28.3562 1.64383 28.6027 2.05479 28.6027 2.71233C28.6027 3.61644 28.0274 4.10959 27.6164 4.27397C28.0274 4.35616 28.274 4.60274 28.4384 4.76712ZM30.9041 6.90411H29.5069V1.06849H30.9041V6.90411ZM47.0959 6.90411H45.1233L42.4932 2.54795V6.90411H39.6986L39.2055 5.67123H36.3288L35.8356 6.9863H34.274C33.6164 6.9863 32.7945 6.82192 32.3014 6.32877C31.8082 5.83562 31.5616 5.17808 31.5616 4.10959C31.5616 3.28767 31.726 2.46575 32.3014 1.80822C32.7123 1.31507 33.4521 1.15068 34.3562 1.15068H35.6712V2.38356H34.3562C33.863 2.38356 33.6164 2.46575 33.2877 2.71233C33.0411 2.9589 32.8767 3.45205 32.8767 4.0274C32.8767 4.68493 32.9589 5.09589 33.2877 5.42466C33.5342 5.67123 33.863 5.75342 34.274 5.75342H34.8493L36.7397 1.23288H38.7945L41.0959 6.73973V1.23288H43.1507L45.5342 5.26027V1.23288H46.9315V6.90411H47.0959Z" fill="#0571C1"/>
<path d="M36.8219 4.43836H38.7123L37.8082 2.13699L36.8219 4.43836ZM22.8493 16.274V11.589L20.7123 13.8904L22.8493 16.274Z" fill="#228FE0"/>
<path d="M14.0548 12.1644V13.2329H17.0959V14.3836H14.0548V15.6164H17.4247L18.9863 13.8904L17.5068 12.1644H14.0548Z" fill="#2FABF7"/>
<path d="M51.3699 13.5616V9.86301H47.9178C47.1781 9.86301 46.6027 10.0274 46.1918 10.3562V9.86301H42.411C41.8356 9.86301 41.0959 10.0274 40.7671 10.3562V9.86301H34.1096V10.3562C33.6164 9.94521 32.7123 9.86301 32.3014 9.86301H27.863V10.3562C27.4521 9.94521 26.4658 9.86301 25.9726 9.86301H21.0411L19.8904 11.0959L18.8219 9.86301H11.4247V17.9178H18.6575L19.8082 16.6849L20.8767 17.9178H25.3151V16.0274H25.8904C26.4658 16.0274 27.2055 16.0274 27.7808 15.7808V18H31.4795V15.863H31.6438C31.8904 15.863 31.8904 15.863 31.8904 16.1096V18H43.0685C43.8082 18 44.548 17.8356 44.9589 17.5069V18H48.4932C49.2329 18 49.9726 17.9178 50.4658 17.589C51.2877 17.0959 51.7808 16.1918 51.7808 15.1233C51.7808 14.5479 51.6164 13.9726 51.3699 13.5616ZM25.8904 14.8767H24.2466V16.8493H21.6164L19.9726 14.9589L18.2466 16.8493H12.8219V11.0137H18.3288L19.9726 12.9041L21.6986 11.0137H26.0548C27.1233 11.0137 28.3562 11.3425 28.3562 12.9041C28.274 14.5479 27.1233 14.8767 25.8904 14.8767ZM34.1096 14.5479C34.274 14.7945 34.3562 15.1233 34.3562 15.6164V16.7671H32.9589V16.0274C32.9589 15.6986 32.9589 15.1233 32.7123 14.8767C32.5479 14.6301 32.2192 14.6301 31.726 14.6301H30.2466V16.7671H28.8493V10.9315H31.9726C32.6301 10.9315 33.2055 10.9315 33.6164 11.1781C34.0274 11.4247 34.3562 11.8356 34.3562 12.4931C34.3562 13.3973 33.7808 13.8904 33.3699 14.0548C33.7808 14.2192 34.0274 14.3836 34.1096 14.5479ZM39.7808 12.1644H36.5753V13.2329H39.6986V14.3836H36.5753V15.5342H39.7808V16.7671H35.1781V10.9315H39.7808V12.1644ZM43.2329 16.7671H40.6027V15.5342H43.2329C43.4795 15.5342 43.6438 15.5342 43.8082 15.3699C43.8904 15.2877 43.9726 15.1233 43.9726 14.9589C43.9726 14.7945 43.8904 14.6301 43.8082 14.5479C43.726 14.4658 43.5616 14.3836 43.3151 14.3836C42 14.3014 40.4384 14.3836 40.4384 12.5753C40.4384 11.7534 40.9315 10.8493 42.411 10.8493H45.1233V12.2466H42.5753C42.3288 12.2466 42.1644 12.2466 42 12.3288C41.8356 12.411 41.8356 12.5753 41.8356 12.7397C41.8356 12.9863 42 13.0685 42.1644 13.1507C42.3288 13.2329 42.4932 13.2329 42.6575 13.2329H43.3973C44.137 13.2329 44.6301 13.3973 44.9589 13.726C45.2055 13.9726 45.3699 14.3836 45.3699 14.9589C45.3699 16.1918 44.6301 16.7671 43.2329 16.7671ZM50.3014 16.1918C49.9726 16.5205 49.3973 16.7671 48.5753 16.7671H45.9452V15.5342H48.5753C48.8219 15.5342 48.9863 15.5342 49.1507 15.3699C49.2329 15.2877 49.3151 15.1233 49.3151 14.9589C49.3151 14.7945 49.2329 14.6301 49.1507 14.5479C49.0685 14.4658 48.9041 14.3836 48.6575 14.3836C47.3425 14.3014 45.7808 14.3836 45.7808 12.5753C45.7808 11.7534 46.274 10.8493 47.7534 10.8493H50.4658V12.2466H48C47.7534 12.2466 47.589 12.2466 47.4247 12.3288C47.2603 12.411 47.2603 12.5753 47.2603 12.7397C47.2603 12.9863 47.3425 13.0685 47.589 13.1507C47.7534 13.2329 47.9178 13.2329 48.0822 13.2329H48.8219C49.5616 13.2329 50.0548 13.3973 50.3836 13.726C50.4658 13.726 50.4658 13.8082 50.4658 13.8082C50.7123 14.137 50.7945 14.5479 50.7945 14.9589C50.7945 15.4521 50.6301 15.863 50.3014 16.1918Z" fill="#0571C1"/>
<path d="M26.8767 2.46575C26.7123 2.38356 26.4658 2.38356 26.2192 2.38356H24.5753V3.69863H26.2192C26.4658 3.69863 26.7123 3.69863 26.8767 3.61644C27.0411 3.53425 27.1233 3.28767 27.1233 3.0411C27.2055 2.71233 27.0411 2.54795 26.8767 2.46575ZM36.8219 4.43836H38.7123L37.8082 2.13699L36.8219 4.43836ZM22.8493 16.274V11.589L20.7123 13.8904L22.8493 16.274ZM25.9726 12.1644H24.2466V13.6438H26.0548C26.5479 13.6438 26.8767 13.3973 26.8767 12.9041C26.7945 12.411 26.4658 12.1644 25.9726 12.1644ZM32.6301 12.3288C32.4658 12.2466 32.2192 12.2466 31.9726 12.2466H30.3288V13.5616H31.9726C32.2192 13.5616 32.4658 13.5616 32.6301 13.4795C32.7945 13.3973 32.8767 13.1507 32.8767 12.9041C32.9589 12.5753 32.7945 12.411 32.6301 12.3288Z" fill="#228FE0"/>
<path d="M25.3973 16.6027L24.2466 15.3699V16.7671H21.5342L19.8904 14.8767L18.0822 16.7671H12.6575V11.0137H18.1644L19.8904 12.9041L20.7123 11.9178L18.6575 9.86301H11.4247V17.9178H18.6575L19.8904 16.6849L20.9589 17.9178H25.3973V16.6027Z" fill="#2FABF7"/>
<path d="M16.8493 8.05479L15.7808 6.90411H15.2877V6.41096L14.0548 5.17808L13.2329 6.90411H12.0822L10.1096 2.38356V6.90411H7.31507L6.73973 5.67123H3.94521L3.36986 6.90411H1.89041L4.35616 1.15068H6.41096L8.71233 6.65753V1.15068H9.94521L8.79452 0H7.56164V0.9863L7.15068 0H3.53425L1.89041 3.86301L0 8.05479H4.27397L4.76712 6.82192H5.91781L6.49315 8.05479H11.0959V7.06849L11.5068 8.05479H13.8904L14.3014 7.06849V8.05479H16.8493Z" fill="#2FABF7"/>
<path d="M13.0685 4.27397L11.7534 2.9589L12.7397 5.09589L13.0685 4.27397Z" fill="#2FABF7"/>
<path d="M50.4658 17.5069C51.2055 17.0137 51.6986 16.1918 51.7808 15.2877L50.6301 14.137C50.7123 14.3836 50.7945 14.6301 50.7945 14.9589C50.7945 15.4521 50.6301 15.863 50.3014 16.1918C49.9726 16.5205 49.3973 16.7671 48.5753 16.7671H45.9452V15.5342H48.5753C48.8219 15.5342 48.9863 15.5342 49.1507 15.3699C49.2329 15.2877 49.3151 15.1233 49.3151 14.9589C49.3151 14.7945 49.2329 14.6301 49.1507 14.5479C49.0685 14.4658 48.9041 14.3836 48.6575 14.3836C47.3425 14.3014 45.7808 14.3836 45.7808 12.5753C45.7808 11.7534 46.274 11.0137 47.5069 10.8493L46.6027 9.94521C46.4384 10.0274 46.3562 10.1096 46.274 10.1096V9.61644H42.4932C41.9178 9.61644 41.1781 9.78082 40.8493 10.1096V9.61644H34.1096V10.1096C33.6164 9.69863 32.7123 9.61644 32.3014 9.61644H27.863V10.1096C27.4521 9.69863 26.4658 9.61644 25.9726 9.61644H21.0411L19.8904 10.8493L18.8219 9.61644H17.9178L20.3836 12.0822L21.6164 10.7671H25.9726C27.0411 10.7671 28.274 11.0959 28.274 12.6575C28.274 14.3014 27.1233 14.6301 25.8904 14.6301H24.2466V15.863L25.4795 17.0959V15.863H25.8904C26.4658 15.863 27.2055 15.863 27.7808 15.6164V17.8356H31.4795V15.6986H31.6438C31.8904 15.6986 31.8904 15.6986 31.8904 15.9452V17.8356H43.0685C43.8082 17.8356 44.5479 17.6712 44.9589 17.3425V17.8356H48.4932C49.1507 17.9178 49.8904 17.8356 50.4658 17.5069ZM34.1096 14.5479C34.274 14.7945 34.3562 15.1233 34.3562 15.6164V16.7671H32.9589V16.0274C32.9589 15.6986 32.9589 15.1233 32.7123 14.8767C32.5479 14.6301 32.2192 14.6301 31.726 14.6301H30.2466V16.7671H28.8493V10.9315H31.9726C32.6301 10.9315 33.2055 10.9315 33.6164 11.1781C34.0274 11.4247 34.3562 11.8356 34.3562 12.4931C34.3562 13.3973 33.7808 13.8904 33.3699 14.0548C33.7808 14.2192 34.0274 14.3836 34.1096 14.5479ZM39.7808 12.1644H36.5753V13.2329H39.6986V14.3836H36.5753V15.5342H39.7808V16.7671H35.1781V10.9315H39.7808V12.1644ZM43.2329 16.7671H40.6027V15.5342H43.2329C43.4795 15.5342 43.6438 15.5342 43.8082 15.3699C43.8904 15.2877 43.9726 15.1233 43.9726 14.9589C43.9726 14.7945 43.8904 14.6301 43.8082 14.5479C43.726 14.4658 43.5616 14.3836 43.3151 14.3836C42 14.3014 40.4384 14.3836 40.4384 12.5753C40.4384 11.7534 40.9315 10.8493 42.411 10.8493H45.1233V12.2466H42.5753C42.3288 12.2466 42.1644 12.2466 42 12.3288C41.8356 12.411 41.8356 12.5753 41.8356 12.7397C41.8356 12.9863 42 13.0685 42.1644 13.1507C42.3288 13.2329 42.4932 13.2329 42.6575 13.2329H43.3973C44.137 13.2329 44.6301 13.3973 44.9589 13.726C45.2055 13.9726 45.3699 14.3836 45.3699 14.9589C45.3699 16.1918 44.6301 16.7671 43.2329 16.7671Z" fill="#228FE0"/>
<path d="M47.1781 12.7397C47.1781 12.9863 47.2603 13.0685 47.5069 13.1507C47.6712 13.2329 47.8356 13.2329 48 13.2329H48.7397C49.2329 13.2329 49.5616 13.3151 49.8904 13.4795L48.6575 12.2466H47.9178C47.6712 12.2466 47.5069 12.2466 47.3425 12.3288C47.2603 12.411 47.1781 12.5753 47.1781 12.7397Z" fill="#228FE0"/>
<path d="M44.3014 7.80822L44.4658 8.05479H44.5479L44.3014 7.80822ZM39.7808 3.28767L41.1781 6.65753V4.68493L39.7808 3.28767Z" fill="#228FE0"/>
<path d="M25.726 6H25.8904C26.0548 6 26.0548 6 26.0548 6.24658V8.05479H31.9726V7.56164C32.4658 7.80822 33.2055 8.05479 34.1918 8.05479H36.6575L37.1507 6.73973H38.3014L38.7945 8.05479H43.5616V7.23288L42.411 6.08219V6.9863H39.6164L39.2055 5.67123H36.3288L35.8356 6.9863H34.274C33.6164 6.9863 32.7945 6.82192 32.3014 6.32877C31.8082 5.83562 31.5616 5.17808 31.5616 4.10959C31.5616 3.28767 31.726 2.46575 32.3014 1.80822C32.7123 1.31507 33.4521 1.15068 34.3562 1.15068H35.6712V2.38356H34.3562C33.863 2.38356 33.6164 2.46575 33.2877 2.71233C33.0411 2.9589 32.8767 3.45205 32.8767 4.0274C32.8767 4.68493 32.9589 5.09589 33.2877 5.42466C33.5342 5.67123 33.863 5.75342 34.274 5.75342H34.8493L36.7397 1.23288H37.5616L36.411 0.0821921H34.274C33.3699 0.0821921 32.6301 0.246574 31.9726 0.575342V0.0821921H28.3562V0.575342C27.9452 0.246574 27.4521 0.0821921 26.7945 0.0821921H13.5616L12.6575 2.13699L11.7534 0.0821921H8.13699L9.28767 1.23288H10.9315L12.3288 4.27397L12.8219 4.76712L14.3014 1.15068H16.6027V6.9863H15.2055V2.46575L13.8082 5.75342L16.1918 8.13699H25.6438L25.726 6ZM29.5069 1.15068H30.9041V6.9863H29.5069V1.15068ZM22.274 2.38356H19.0685V3.45205H22.1918V4.60274H19.0685V5.75342H22.274V6.9863H17.6712V1.15068H22.274V2.38356ZM24.5753 6.90411H23.1781V1.06849H26.3014C27.0411 1.06849 27.5342 1.06849 27.9452 1.31507C28.3562 1.56164 28.6027 1.9726 28.6027 2.63014C28.6027 3.53425 28.0274 4.0274 27.6164 4.19178C27.9452 4.27397 28.1918 4.52055 28.274 4.68493C28.4384 5.0137 28.5205 5.26027 28.5205 5.75342V6.90411H27.1233V6.16438C27.1233 5.83562 27.1233 5.34247 26.8767 5.0137C26.7945 4.84932 26.5479 4.84931 26.0548 4.84931H24.5753V6.90411Z" fill="#228FE0"/>
<path d="M25.9726 12.1644H24.2466V13.6438H26.0548C26.5479 13.6438 26.8767 13.3973 26.8767 12.9041C26.7945 12.411 26.4658 12.1644 25.9726 12.1644Z" fill="#228FE0"/>
<path d="M32.6301 12.3288C32.4658 12.2466 32.2192 12.2466 31.9726 12.2466H30.3288V13.5616H31.9726C32.2192 13.5616 32.4658 13.5616 32.6301 13.4795C32.7945 13.3973 32.8767 13.1507 32.8767 12.9041C32.9589 12.5753 32.7945 12.411 32.6301 12.3288Z" fill="#228FE0"/>
</svg>
