<svg width="25" height="18" viewBox="0 0 25 18" fill="none" xmlns="http://www.w3.org/2000/svg">
<path d="M3.42742 0C1.49194 0 0 1.24832 0 3.42282V9.62416C0.16129 10.3893 0.967742 10.953 1.85484 10.953C2.8629 10.953 3.58871 10.2282 3.58871 9.34228V6.20134H6.33065V9.30201C6.33065 11.0336 4.1129 11.9195 2.5 11.9195C1.57258 11.9195 0.685484 11.6376 0.0403226 11.1544V18H4.39516C5.92742 18 7.70161 16.5503 7.70161 14.698V0H3.42742Z" fill="#1174CE"/>
<path d="M0 3.42282V9.62416C0.16129 10.3893 0.967742 10.953 1.85484 10.953C2.8629 10.953 3.58871 10.2282 3.58871 9.34228V6.20134H6.33065V9.30201C6.33065 11.0336 4.1129 11.9195 2.5 11.9195C1.57258 11.9195 0.685484 11.6376 0.0403226 11.1544V18H4.39516C5.92742 18 7.70161 16.5503 7.70161 14.698V0" fill="#0F549D"/>
<path d="M6.29032 6.20134V9.30201C6.29032 11.0336 4.07258 11.9195 2.45968 11.9195C1.53226 11.9195 0.645161 11.6376 0 11.1544V18H4.35484C5.8871 18 7.66129 16.5503 7.66129 14.698" fill="#02375E"/>
<path d="M18.6694 10.8725H20.5645C21.0484 10.8725 21.4919 10.4295 21.4919 9.94631C21.4919 9.46309 21.0484 9.02013 20.5645 9.02013H18.6694V10.8725Z" fill="#146643"/>
<path d="M20.8065 0C18.8306 0 17.379 1.24832 17.379 3.38255V6.20134H22.4597C23.1855 6.20134 23.7903 6.80537 23.7903 7.5302C23.7903 8.25503 23.1855 8.85906 22.4597 8.85906C23.2661 8.85906 23.9113 9.42282 23.9113 10.1477C23.9113 10.8725 23.3065 11.4362 22.4597 11.4362H17.3387V18H21.6935C23.2258 18 25 16.5503 25 14.698V0H20.8065Z" fill="#1BCC38"/>
<path d="M17.3387 3.42282V6.20134H22.4194C23.1452 6.20134 23.75 6.80537 23.75 7.5302C23.75 8.25503 23.1452 8.85906 22.4194 8.85906C23.2258 8.85906 23.871 9.42282 23.871 10.1477C23.871 10.8725 23.2661 11.4362 22.4194 11.4362H17.3387V18H21.6935C23.2258 18 25 16.5503 25 14.698V0" fill="#329947"/>
<path d="M23.75 7.5302C23.75 8.25503 23.1452 8.85906 22.4194 8.85906C23.2258 8.85906 23.871 9.42282 23.871 10.1477C23.871 10.8725 23.2661 11.4362 22.4194 11.4362H17.3387V18H21.6935C23.2258 18 25 16.5503 25 14.698M21.4516 7.69128C21.4516 7.20805 21.0081 6.7651 20.5242 6.7651H18.6694V8.57718H20.5645C21.0484 8.57718 21.4516 8.1745 21.4516 7.69128Z" fill="#146643"/>
<path d="M12.0565 0C10.0806 0 8.62903 1.24832 8.62903 3.38255V6.84564C9.1129 6.44295 9.71774 6.16107 10.3629 6.16107H14.9597V7.12752C13.871 6.88591 12.8226 6.7651 12.2984 6.7651C11.1694 6.7651 10.2419 7.69128 10.2419 8.81879C10.2419 9.94631 11.1694 10.8725 12.2984 10.8725C12.8226 10.8725 13.871 10.7919 14.9597 10.5503V11.4362H10.3629C9.71774 11.4362 9.07258 11.1946 8.62903 10.7517V18H12.9839C14.5161 18 16.2903 16.5503 16.2903 14.698V0H12.0565Z" fill="#E20E37"/>
<path d="M8.62903 3.42282V6.88591C9.1129 6.48322 9.71774 6.20134 10.3629 6.20134H14.9597V7.16779C13.871 6.92617 12.8226 6.80537 12.2984 6.80537C11.1694 6.80537 10.2419 7.73154 10.2419 8.85906C10.2419 9.98658 11.1694 10.9128 12.2984 10.9128C12.8226 10.9128 13.871 10.8322 14.9597 10.5906V11.4362H10.3629C9.71774 11.4362 9.07258 11.1946 8.62903 10.7517V18H12.9839C14.5161 18 16.2903 16.5503 16.2903 14.698V0" fill="#B41F36"/>
<path d="M14.9597 6.20134V7.16779C13.871 6.92617 12.8226 6.80537 12.2984 6.80537C11.1694 6.80537 10.2419 7.73154 10.2419 8.85906C10.2419 9.98658 11.1694 10.9128 12.2984 10.9128C12.8226 10.9128 13.871 10.8322 14.9597 10.5906V11.4362H10.3629C9.71774 11.4362 9.07258 11.1946 8.62903 10.7517V18H12.9839C14.5161 18 16.2903 16.5503 16.2903 14.698" fill="#720A1E"/>
</svg>
