<svg width="29" height="18" viewBox="0 0 29 18" fill="none" xmlns="http://www.w3.org/2000/svg">
<path d="M18.421 16.0761H10.579V1.92268H18.421V16.0761Z" fill="#FF5F00"/>
<path d="M11.0768 9C11.0756 7.63702 11.3832 6.29163 11.9763 5.06568C12.5694 3.83973 13.4324 2.76536 14.5 1.92389C13.1779 0.880408 11.5902 0.231512 9.91826 0.0513642C8.24634 -0.128784 6.55768 0.167083 5.04526 0.905153C3.53285 1.64322 2.25769 2.79372 1.36552 4.22516C0.473343 5.65661 0.000144602 7.31125 0 9C0.00032268 10.6885 0.473577 12.3429 1.36569 13.7742C2.25781 15.2054 3.5328 16.3557 5.045 17.0938C6.5572 17.8318 8.24562 18.1277 9.91735 17.9478C11.5891 17.7678 13.1767 17.1192 14.4988 16.0761C13.4315 15.2344 12.5688 14.1599 11.976 12.934C11.3831 11.7081 11.0756 10.3629 11.0768 9Z" fill="#EB001B"/>
<path d="M29 9C28.9999 10.6887 28.5267 12.3434 27.6345 13.7748C26.7423 15.2063 25.4672 16.3568 23.9547 17.0948C22.4423 17.8329 20.7537 18.1288 19.0817 17.9486C17.4098 17.7685 15.8221 17.1196 14.5 16.0761C16.5844 14.4281 17.9232 11.8712 17.9232 9C17.9232 6.12878 16.5844 3.57187 14.5 1.92389C15.8221 0.880408 17.4098 0.231512 19.0817 0.0513642C20.7537 -0.128784 22.4423 0.167083 23.9547 0.905153C25.4672 1.64322 26.7423 2.79372 27.6345 4.22516C28.5267 5.65661 28.9999 7.31125 29 9Z" fill="#F79E1B"/>
</svg>
