<svg width="17" height="20" viewBox="0 0 17 20" fill="none" xmlns="http://www.w3.org/2000/svg">
<path d="M14.5966 1.5C13.7081 0.500002 12.058 0 9.77335 0H3.42702C3.04624 0 2.66546 0.375001 2.53853 0.750002L0 17.125C0 17.5 0.253853 17.75 0.507707 17.75H4.44243L5.45785 11.625V11.875C5.58477 11.5 5.96555 11.125 6.34633 11.125H8.25023C11.9311 11.125 14.7235 9.62502 15.612 5.50001V5.12501C15.4851 5.12501 15.4851 5.12501 15.612 5.12501C15.7389 3.50001 15.4851 2.50001 14.5966 1.5Z" fill="#263B80"/>
<path d="M15.485 5.12498V5.49998C14.5965 9.74998 11.8041 11.125 8.12324 11.125H6.21934C5.83856 11.125 5.45778 11.5 5.33086 11.875L4.06159 19.5C4.06159 19.75 4.18852 20 4.5693 20H7.86939C8.25017 20 8.63095 19.75 8.63095 19.375V19.25L9.26558 15.375V15.125C9.26558 14.75 9.64636 14.5 10.0271 14.5H10.5349C13.708 14.5 16.2466 13.25 16.8812 9.49998C17.135 7.99998 17.0081 6.62498 16.2466 5.74998C16.1196 5.49998 15.8658 5.24998 15.485 5.12498Z" fill="#139AD6"/>
<path d="M14.5966 4.75001C14.4697 4.75001 14.3428 4.62501 14.2158 4.62501C14.0889 4.62501 13.962 4.62501 13.8351 4.50001C13.3274 4.37501 12.8197 4.37501 12.185 4.37501H7.23488C7.10796 4.37501 6.98103 4.37501 6.8541 4.50001C6.60025 4.62501 6.47332 4.87501 6.47332 5.12501L5.45785 11.625V11.875C5.58477 11.5 5.96555 11.125 6.34633 11.125H8.25023C11.9311 11.125 14.7235 9.62502 15.612 5.50001C15.612 5.37501 15.612 5.25001 15.739 5.12501C15.4851 5.00001 15.3582 4.87501 15.1043 4.87501C14.7236 4.75001 14.7236 4.75001 14.5966 4.75001Z" fill="#232C65"/>
</svg>
