<svg width="37" height="16" viewBox="0 0 37 16" fill="none" xmlns="http://www.w3.org/2000/svg">
<path d="M14.5016 9.96226H14.6806C14.8597 9.96226 14.979 9.90189 15.0387 9.78113L15.5758 8.99623H16.9484L16.65 9.47925H18.321L18.0823 10.2642H16.1129C15.8742 10.6264 15.6355 10.7472 15.2774 10.7472H14.2629L14.5016 9.96226ZM14.2629 11.0491H17.8435L17.6048 11.8943H16.1726L15.9339 12.7396H17.3661L17.1274 13.5849H15.6952L15.3371 14.7925C15.2774 14.9736 15.3371 15.0943 15.6355 15.034H16.7694L16.5306 15.8189H14.3226C13.9048 15.8189 13.7855 15.5774 13.9048 15.0943L14.3226 13.5245H13.4274L13.6661 12.6792H14.5613L14.8 11.834H13.9645L14.2629 11.0491ZM20.0516 8.99623L19.9919 9.47925C19.9919 9.47925 20.6484 8.93585 21.3048 8.93585H23.5726L22.6774 12.1962C22.6177 12.5585 22.3194 12.7396 21.7226 12.7396H19.1565L18.5597 14.9736C18.5 15.0943 18.5597 15.1547 18.679 15.1547H19.2161L19.0371 15.8189H17.7242C17.2468 15.8189 17.0081 15.6981 17.1274 15.3358L18.8581 8.93585H20.0516V8.99623ZM21.9613 9.90189H19.9323L19.6936 10.7472C19.6936 10.7472 20.0516 10.5057 20.5887 10.5057H21.7823L21.9613 9.90189ZM21.2452 11.8943C21.4242 11.8943 21.4839 11.834 21.4839 11.7132L21.6032 11.2302H19.5742L19.3952 11.8943H21.2452ZM19.8726 12.9208H21.0661V13.4642H21.3645C21.5435 13.4642 21.6032 13.4038 21.6032 13.283L21.7226 12.9208H22.6774L22.5581 13.4038C22.4387 13.8264 22.1403 14.0075 21.6629 14.0679H21.0065V14.9736C21.0065 15.0943 21.1258 15.2151 21.3645 15.2151H21.9613L21.7823 15.9396H20.35C19.9323 15.9396 19.7532 15.7585 19.7532 15.3358L19.8726 12.9208Z" fill="#009DA5"/>
<path d="M15.8742 10.566L16.1129 10.3245H18.0823L18.321 9.53962H16.65L16.9484 9.0566H15.5758L15.0387 9.78113C14.979 9.90189 14.8597 9.96226 14.6806 9.96226H14.5016L14.4419 10.1434C14.9194 10.2642 15.3968 10.4453 15.8742 10.566ZM19.9919 9.47925L20.0516 8.99623H18.8581L18.321 10.9283C18.6194 10.9283 18.9774 10.9887 19.2758 10.9887C20.6484 10.9887 21.9016 10.8075 23.1548 10.4453L23.5726 8.99623H21.3048C20.6484 8.99623 19.9919 9.47925 19.9919 9.47925ZM21.7823 10.5057H20.5887C19.9919 10.5057 19.6936 10.7472 19.6936 10.7472L19.9323 9.90189H21.9613L21.7823 10.5057Z" fill="#02CCCC"/>
<path d="M24.8258 9.96226L25.1242 8.99623H26.4968L26.4371 9.35849C26.4371 9.35849 27.1532 8.99623 27.6306 8.99623H29.3613L29.0629 9.96226H28.8242L27.5113 14.5509H27.75L27.5113 15.4566H27.2129L27.0935 15.8792H25.7806L25.9 15.4566H23.2742L23.5129 14.5509H23.7516L25.0645 9.96226H24.8258ZM26.3177 9.96226L25.9597 11.2302C25.9597 11.2302 26.5565 10.9887 27.0935 10.9283C27.2129 10.5057 27.3323 9.96226 27.3323 9.96226H26.3177ZM25.8403 11.834L25.4823 13.1623C25.4823 13.1623 26.1387 12.8604 26.6161 12.8L26.8548 11.834H25.8403ZM26.079 14.5509L26.3177 13.5849H25.3032L25.0645 14.5509H26.079ZM29.421 8.93585H30.7339L30.7935 9.41887C30.7935 9.53962 30.8532 9.6 31.0323 9.6H31.271L31.0323 10.4453H30.0774C29.7194 10.4453 29.5403 10.3245 29.4806 10.0226L29.421 8.93585ZM29.0629 10.7472H33.2403L33.0016 11.5925H31.6887L31.45 12.4377H32.7629L32.5242 13.3434H31.0323L30.6742 13.8868H31.3903L31.5694 14.9132C31.5694 15.034 31.6887 15.0943 31.8081 15.0943H32.0468L31.8081 15.9396H31.0323C30.6145 15.9396 30.3758 15.8189 30.3758 15.517L30.1968 14.5509L29.5403 15.5774C29.3613 15.8792 29.1226 16 28.8242 16H27.571L27.8097 15.1547H28.1677C28.3468 15.1547 28.4661 15.0943 28.5855 14.9132L29.6 13.4038H28.2871L28.5258 12.4981H29.9581L30.1968 11.6528H28.7645L29.0629 10.7472Z" fill="#009DA5"/>
<path d="M26.4968 9.0566H25.1242L24.8855 9.84151C25.4226 9.6 25.9597 9.35849 26.4968 9.0566Z" fill="#02CCCC"/>
<path d="M5.55 4.70943C5.37097 5.49434 5.0129 6.09811 4.47581 6.52076C3.87903 6.9434 3.1629 7.18491 2.26774 7.18491C1.43226 7.18491 0.775807 6.9434 0.417742 6.52076C0.119355 6.21887 0 5.79623 0 5.31321C0 5.13208 1.33389e-08 4.89057 0.0596774 4.64906L1.01452 0H2.44677L1.49194 4.58868C1.49194 4.70943 1.43226 4.83019 1.43226 4.95094C1.43226 5.19245 1.49194 5.37359 1.61129 5.55472C1.79032 5.79623 2.08871 5.91698 2.44677 5.91698C2.86452 5.91698 3.28226 5.79623 3.52097 5.6151C3.81936 5.37359 3.99839 5.0717 4.05806 4.64906L5.0129 0.0603776H6.56452L5.55 4.70943Z" fill="#FF7F29"/>
<path d="M5.55 4.70943C5.37097 5.49434 5.0129 6.09811 4.47581 6.52076C3.87903 6.9434 3.1629 7.18491 2.26774 7.18491C1.43226 7.18491 0.775807 6.9434 0.417742 6.52076C0.119355 6.21887 0 5.79623 0 5.31321C0 5.13208 1.33389e-08 4.89057 0.0596774 4.64906L2.14839 0H2.44677L1.49194 4.58868C1.49194 4.70943 1.43226 4.83019 1.43226 4.95094C1.43226 5.19245 1.49194 5.37359 1.61129 5.55472C1.79032 5.79623 2.08871 5.91698 2.44677 5.91698C2.86452 5.91698 3.28226 5.79623 3.52097 5.6151C3.81936 5.37359 3.99839 5.0717 4.05806 4.64906L6.14677 0.0603776H6.56452L5.55 4.70943ZM6.92258 2.89811H7.9371L7.81774 3.50189L7.9371 3.32075C8.29516 2.95849 8.65323 2.77736 9.13064 2.77736C9.54839 2.77736 9.84677 2.89811 10.0855 3.13962C10.2645 3.38113 10.3242 3.7434 10.2645 4.16604L9.72742 7.00377H8.65323L9.13064 4.40755C9.19032 4.16604 9.19032 3.92453 9.07097 3.80377C9.01129 3.68302 8.83226 3.62264 8.59355 3.62264C8.29516 3.62264 8.11613 3.68302 7.9371 3.86415C7.75806 4.04528 7.63871 4.28679 7.57903 4.58868L7.10161 7.00377H6.02742L6.92258 2.89811Z" fill="#EA2227"/>
<path d="M18.6194 2.89811H19.6339L19.5145 3.50189L19.6339 3.32075C19.9919 2.95849 20.35 2.77736 20.8274 2.77736C21.2452 2.77736 21.5435 2.89811 21.7823 3.13962C21.9613 3.38113 22.021 3.7434 21.9613 4.16604L21.4242 7.00377H20.35L20.8871 4.40755C20.9468 4.16604 20.9468 3.92453 20.8274 3.80377C20.7677 3.68302 20.5887 3.62264 20.35 3.62264C20.0516 3.62264 19.8726 3.68302 19.6936 3.86415C19.5145 4.04528 19.3952 4.28679 19.3355 4.58868L18.8581 7.00377H17.7839L18.6194 2.89811Z" fill="#A5002F"/>
<path d="M11.6371 2.89811H12.771L11.8758 7.06415H10.7419L11.6371 2.89811ZM11.9952 1.38868H13.129L12.8903 2.41509H11.7565L11.9952 1.38868ZM13.7855 6.76226C13.4871 6.46038 13.3677 6.09811 13.3677 5.6151V5.31321C13.3677 5.19245 13.3677 5.13208 13.4274 5.01132C13.5468 4.34717 13.8452 3.80377 14.2629 3.38113C14.6806 2.95849 15.2177 2.77736 15.8742 2.77736C16.4113 2.77736 16.7694 2.89811 17.0677 3.2C17.3661 3.50189 17.4855 3.86415 17.4855 4.40755V4.70943C17.4855 4.83019 17.4855 4.89057 17.4258 5.01132C17.3065 5.67547 17.0081 6.21887 16.5903 6.58113C16.1726 6.9434 15.6355 7.18491 14.979 7.18491C14.5016 7.18491 14.0839 7.00377 13.7855 6.76226ZM15.9339 5.91698C16.1129 5.67547 16.2919 5.37359 16.3516 4.95094C16.3516 4.89057 16.3516 4.83019 16.4113 4.70943V4.5283C16.4113 4.28679 16.3516 4.04528 16.2323 3.92453C16.1129 3.80377 15.9339 3.68302 15.6952 3.68302C15.3968 3.68302 15.0984 3.80377 14.9194 4.04528C14.7403 4.28679 14.5613 4.58868 14.5016 5.0717C14.5016 5.13208 14.5016 5.19245 14.4419 5.25283V5.43396C14.4419 5.67547 14.5016 5.91698 14.621 6.03774C14.7403 6.15849 14.9194 6.21887 15.1581 6.21887C15.5161 6.21887 15.7548 6.15849 15.9339 5.91698Z" fill="#EA2227"/>
<path d="M23.6919 0.301887H26.6758C27.2726 0.301887 27.6903 0.422642 27.9887 0.664151C28.2871 0.905661 28.4661 1.26792 28.4661 1.81132V2.11321C28.4661 2.23396 28.4065 2.35472 28.4065 2.47547C28.2871 3.13962 27.9887 3.62264 27.5113 4.04528C27.0339 4.40755 26.4968 4.64906 25.8403 4.64906H24.229L23.7516 7.06415H22.379L23.6919 0.301887ZM24.4081 3.44151H25.721C26.079 3.44151 26.3177 3.38113 26.5565 3.2C26.7355 3.01887 26.8548 2.77736 26.9742 2.47547V2.17359C26.9742 1.93208 26.9145 1.75094 26.7355 1.63019C26.5565 1.50943 26.3177 1.44906 25.9597 1.44906H24.8258L24.4081 3.44151Z" fill="#1398E2"/>
<path d="M24.8258 0.301887H26.6161C27.2129 0.301887 27.6306 0.422642 27.929 0.664151C28.2274 0.905661 28.4065 1.26792 28.4065 1.81132V2.11321C28.4065 2.23396 28.3468 2.35472 28.3468 2.47547C28.2274 3.13962 27.929 3.62264 27.4516 4.04528C26.9742 4.40755 26.4371 4.64906 25.7806 4.64906H24.1694L23.6919 7.06415H22.3194L24.8258 0.301887ZM24.4081 3.44151H25.721C26.079 3.44151 26.3177 3.38113 26.5565 3.2C26.7355 3.01887 26.8548 2.77736 26.9742 2.47547V2.17359C26.9742 1.93208 26.9145 1.75094 26.7355 1.63019C26.5565 1.50943 26.3177 1.44906 25.9597 1.44906H24.8258L24.4081 3.44151Z" fill="#0872B9"/>
<path d="M34.5532 7.84906C34.1355 8.81509 33.7177 9.35849 33.479 9.6C33.2403 9.84151 32.7629 10.4453 31.5694 10.3849L31.6887 9.66038C32.6435 9.35849 33.1806 7.96981 33.479 7.36604L33.121 2.89811H34.5532L34.6129 5.73585L35.8065 2.89811H37L34.5532 7.84906Z" fill="#055093"/>
<path d="M31.2113 3.2L30.7339 3.56227C30.2565 3.13962 29.779 2.89811 28.8839 3.32076C27.6903 3.86415 26.6758 8.21132 29.9581 6.76226L30.1371 7.00377L31.45 7.06415L32.2855 3.13962L31.2113 3.2ZM30.4355 5.37359C30.1968 5.97736 29.779 6.4 29.421 6.27925C29.0629 6.15849 28.9436 5.55472 29.1226 4.95094C29.3613 4.34717 29.779 3.92453 30.1371 4.04528C30.5548 4.16604 30.6742 4.76981 30.4355 5.37359Z" fill="#0872B9"/>
<path d="M29.0629 7.06415C29.3016 7.00377 29.6 6.9434 29.9581 6.82264L30.1371 7.06415L31.45 7.12453L32.2855 3.2H31.9871C31.3903 4.70943 30.3161 6.03774 29.0629 7.06415Z" fill="#055093"/>
<path d="M17.0677 3.2C16.7694 2.89811 16.3516 2.77736 15.8742 2.77736H15.5758C15.4565 3.13962 15.2774 3.50189 15.0984 3.86415C15.2774 3.7434 15.4565 3.68302 15.6952 3.68302C15.9339 3.68302 16.1129 3.7434 16.2323 3.92453C16.3516 4.04528 16.4113 4.28679 16.4113 4.5283V4.70943C16.4113 4.76981 16.4113 4.83019 16.3516 4.95094C16.2919 5.37359 16.1129 5.73585 15.9339 5.91698C15.7548 6.15849 15.4565 6.21887 15.1581 6.21887C14.9194 6.21887 14.7403 6.15849 14.621 6.03774C14.5016 5.91698 14.4419 5.67547 14.4419 5.43396V5.25283C14.4419 5.19245 14.4419 5.13208 14.5016 5.0717C14.5016 4.95094 14.5613 4.89057 14.5613 4.83019C14.2629 5.31321 13.8452 5.79623 13.4274 6.21887C13.4871 6.46038 13.6065 6.64151 13.7855 6.82264C14.0839 7.12453 14.5016 7.24528 14.979 7.24528C15.5758 7.24528 16.1129 7.06415 16.5903 6.64151C17.0081 6.27925 17.3065 5.73585 17.4258 5.0717C17.4258 4.95094 17.4855 4.89057 17.4855 4.76981V4.46793C17.4855 3.86415 17.3661 3.50189 17.0677 3.2Z" fill="#A5002F"/>
</svg>
