<svg width="33" height="10" viewBox="0 0 33 10" fill="none" xmlns="http://www.w3.org/2000/svg">
<path d="M19.2046 7.97796C18.1514 7.97796 17.5739 7.83313 16.687 7.46762L16.3584 7.31728L15.9858 9.48966C16.6265 9.75449 17.7815 9.98207 18.9764 10C21.7827 10 23.617 8.69381 23.639 6.68419C23.661 5.57937 22.9377 4.74077 21.4101 4.04974C20.4834 3.60147 19.9059 3.30079 19.9059 2.84562C19.9059 2.44287 20.3995 2.01391 21.4307 2.01391C22.116 1.99737 22.7973 2.12372 23.4314 2.38494L23.6789 2.49528L24.0515 0.396003L23.9869 0.409797C23.2195 0.133492 22.4097 -0.00517277 21.5944 0.000147477C18.9544 0.000147477 17.0912 1.31599 17.0775 3.20148C17.061 4.58766 18.403 5.36834 19.4164 5.83316C20.4573 6.30902 20.8051 6.60833 20.8024 7.03591C20.7955 7.68555 19.9705 7.97796 19.2046 7.97796ZM30.8385 0.178075H28.776C28.1339 0.178075 27.654 0.350487 27.3721 0.982202L23.4052 9.86483H26.2116L26.7726 8.41106L30.1964 8.41382C30.2803 8.75312 30.5264 9.86483 30.5264 9.86483H33L30.8385 0.178075ZM27.5413 6.4235L28.6055 3.71595C28.5918 3.74354 28.8255 3.15596 28.9603 2.79183L29.1431 3.62768L29.7605 6.4235H27.5413ZM11.6105 9.78759H14.2835L15.9541 0.0966974H13.2825V0.093939L11.6105 9.78759ZM6.76912 6.78349L6.49138 5.43731V5.44145L5.55363 0.991857C5.39275 0.375314 4.9225 0.193248 4.3395 0.171179H0.034375L0 0.375313C0.969375 0.602896 1.8425 0.932547 2.6235 1.33668C2.74478 1.4078 2.83358 1.5236 2.871 1.65943L5.181 9.85104H8.00525L12.2141 0.178075H9.383L6.76912 6.78349Z" fill="#191E6E"/>
</svg>
