<svg width="32" height="32" viewBox="0 0 32 32" fill="none" xmlns="http://www.w3.org/2000/svg">
<path d="M25.4286 4H6.57143C5.88944 4 5.23539 4.27092 4.75315 4.75315C4.27092 5.23539 4 5.88944 4 6.57143V25.4286C4 26.1106 4.27092 26.7646 4.75315 27.2468C5.23539 27.7291 5.88944 28 6.57143 28H13.9241V19.8405H10.5491V16H13.9241V13.0729C13.9241 9.74339 15.9063 7.90429 18.9421 7.90429C20.3961 7.90429 21.9164 8.16357 21.9164 8.16357V11.4314H20.2413C18.5907 11.4314 18.0759 12.4557 18.0759 13.5063V16H21.7605L21.1712 19.8405H18.0759V28H25.4286C26.1106 28 26.7646 27.7291 27.2468 27.2468C27.7291 26.7646 28 26.1106 28 25.4286V6.57143C28 5.88944 27.7291 5.23539 27.2468 4.75315C26.7646 4.27092 26.1106 4 25.4286 4Z" fill="#474747"/>
</svg>
