<svg width="32" height="32" viewBox="0 0 32 32" fill="none" xmlns="http://www.w3.org/2000/svg">
<path d="M28 6.57143V25.4286C28 26.8482 26.8482 28 25.4286 28H12.2714C12.7964 27.1214 13.4714 25.8571 13.7393 24.8232C13.9 24.2071 14.5589 21.6946 14.5589 21.6946C14.9875 22.5143 16.2411 23.2054 17.575 23.2054C21.5446 23.2054 24.4 19.5571 24.4 15.025C24.4 10.6804 20.8536 7.42857 16.2893 7.42857C10.6107 7.42857 7.6 11.2375 7.6 15.3893C7.6 17.3179 8.62857 19.7179 10.2679 20.4839C10.5196 20.6018 10.6482 20.5482 10.7071 20.3071C10.75 20.125 10.975 19.2304 11.0714 18.8179C11.1036 18.6839 11.0875 18.5714 10.9804 18.4429C10.4393 17.7839 10 16.5732 10 15.4429C10 12.5393 12.1964 9.73214 15.9411 9.73214C19.1714 9.73214 21.4375 11.9339 21.4375 15.0839C21.4375 18.6411 19.6429 21.1054 17.3018 21.1054C16.0107 21.1054 15.0464 20.0393 15.3518 18.7268C15.7214 17.1625 16.4393 15.475 16.4393 14.3446C16.4393 11.5054 12.3946 11.8964 12.3946 15.6839C12.3946 16.8464 12.7857 17.6393 12.7857 17.6393C11.1036 24.7536 10.8518 24.8446 11.2 27.9571L11.3179 28H6.57143C5.15179 28 4 26.8482 4 25.4286V6.57143C4 5.15179 5.15179 4 6.57143 4H25.4286C26.8482 4 28 5.15179 28 6.57143Z" fill="#474747"/>
</svg>
