<svg width="32" height="32" viewBox="0 0 32 32" fill="none" xmlns="http://www.w3.org/2000/svg">
<path d="M15.9999 7.99955C10.8441 7.99955 6.66659 12.1783 6.66659 17.3329C6.66565 19.347 7.32012 21.3068 8.53117 22.9162L6.86034 24.5866C6.79841 24.6485 6.74929 24.722 6.71578 24.8029C6.68227 24.8838 6.66502 24.9705 6.66502 25.0581C6.66502 25.1457 6.68227 25.2324 6.71578 25.3133C6.74929 25.3941 6.79841 25.4676 6.86034 25.5296L7.80325 26.4721C7.92826 26.597 8.09777 26.6672 8.2745 26.6672C8.45124 26.6672 8.62074 26.597 8.74575 26.4721L10.4166 24.8004C12.0259 26.0118 13.9856 26.6669 15.9999 26.6669C18.0142 26.6669 19.9739 26.0118 21.5833 24.8004L23.2541 26.4708C23.316 26.5327 23.3895 26.5818 23.4704 26.6154C23.5513 26.6489 23.638 26.6661 23.7255 26.6661C23.8131 26.6661 23.8998 26.6489 23.9807 26.6154C24.0616 26.5818 24.1351 26.5327 24.197 26.4708L25.1395 25.5283C25.2014 25.4664 25.2505 25.3929 25.2841 25.312C25.3176 25.2311 25.3348 25.1444 25.3348 25.0568C25.3348 24.9693 25.3176 24.8826 25.2841 24.8017C25.2505 24.7208 25.2014 24.6473 25.1395 24.5854L23.467 22.9162C24.6786 21.307 25.3337 19.3472 25.3333 17.3329C25.3333 12.1783 21.1541 7.99955 15.9999 7.99955ZM15.9999 24.6662C14.5495 24.6662 13.1317 24.2361 11.9257 23.4303C10.7198 22.6245 9.77984 21.4792 9.2248 20.1392C8.66976 18.7992 8.52454 17.3248 8.80749 15.9022C9.09045 14.4797 9.78888 13.173 10.8145 12.1474C11.8401 11.1219 13.1467 10.4234 14.5693 10.1405C15.9918 9.8575 17.4663 10.0027 18.8063 10.5578C20.1463 11.1128 21.2916 12.0527 22.0974 13.2587C22.9032 14.4647 23.3333 15.8825 23.3333 17.3329C23.3333 19.2778 22.5606 21.1431 21.1854 22.5183C19.8101 23.8936 17.9448 24.6662 15.9999 24.6662ZM9.33325 5.33289C8.27239 5.33289 7.25497 5.75431 6.50482 6.50446C5.75468 7.2546 5.33325 8.27202 5.33325 9.33289C5.33633 10.0913 5.55764 10.8327 5.97075 11.4687L12.0499 6.40289C11.3124 5.71533 10.3416 5.33297 9.33325 5.33289ZM16.9999 17.5191V12.3329C16.9999 12.2445 16.9648 12.1597 16.9023 12.0972C16.8398 12.0347 16.755 11.9996 16.6666 11.9996H15.3333C15.2448 11.9996 15.1601 12.0347 15.0975 12.0972C15.035 12.1597 14.9999 12.2445 14.9999 12.3329V17.8396C14.9998 18.0396 15.0447 18.237 15.1312 18.4174C15.2178 18.5977 15.3438 18.7562 15.4999 18.8812L18.1891 21.03C18.259 21.0831 18.3461 21.1086 18.4337 21.1016C18.5213 21.0918 18.6015 21.0476 18.6566 20.9787L19.4899 19.9371C19.5174 19.9028 19.5379 19.8635 19.5502 19.8214C19.5625 19.7792 19.5663 19.7351 19.5614 19.6914C19.5566 19.6478 19.5432 19.6056 19.522 19.5671C19.5008 19.5287 19.4722 19.4948 19.4378 19.4675L16.9999 17.5191ZM22.6666 5.33289C21.6587 5.33308 20.6883 5.71511 19.9508 6.40205L26.0295 11.4675C26.4421 10.8317 26.6633 10.0908 26.6666 9.33289C26.6666 8.27202 26.2452 7.2546 25.495 6.50446C24.7449 5.75431 23.7275 5.33289 22.6666 5.33289Z" fill="#474747"/>
</svg>
