<svg width="32" height="32" viewBox="0 0 32 32" fill="none" xmlns="http://www.w3.org/2000/svg">
<path d="M15.9999 7.99943C10.8458 7.99943 6.66659 12.1782 6.66659 17.3328C6.66616 19.3471 7.32122 21.3069 8.53284 22.9161L6.862 24.5865C6.80008 24.6484 6.75096 24.7219 6.71745 24.8028C6.68393 24.8837 6.66669 24.9704 6.66669 25.058C6.66669 25.1455 6.68393 25.2322 6.71745 25.3131C6.75096 25.394 6.80008 25.4675 6.862 25.5294L7.8045 26.4719C7.86641 26.5339 7.93991 26.583 8.0208 26.6165C8.1017 26.65 8.1884 26.6672 8.27596 26.6672C8.36352 26.6672 8.45022 26.65 8.53112 26.6165C8.61201 26.583 8.68551 26.5339 8.74742 26.4719L10.4166 24.8003C12.0259 26.0116 13.9856 26.6667 15.9999 26.6667C18.0142 26.6667 19.9739 26.0116 21.5833 24.8003L23.2541 26.4707C23.3791 26.5956 23.5486 26.6658 23.7253 26.6658C23.9021 26.6658 24.0716 26.5956 24.1966 26.4707L25.1395 25.5282C25.2014 25.4663 25.2505 25.3928 25.2841 25.3119C25.3176 25.231 25.3348 25.1443 25.3348 25.0567C25.3348 24.9692 25.3176 24.8825 25.2841 24.8016C25.2505 24.7207 25.2014 24.6472 25.1395 24.5853L23.4687 22.9161C24.6797 21.3067 25.3342 19.3469 25.3333 17.3328C25.3333 12.1782 21.1558 7.99943 15.9999 7.99943ZM15.9999 24.6661C14.5495 24.6661 13.1317 24.236 11.9257 23.4302C10.7198 22.6244 9.77984 21.4791 9.2248 20.1391C8.66976 18.7991 8.52454 17.3246 8.80749 15.9021C9.09045 14.4796 9.78888 13.1729 10.8145 12.1473C11.8401 11.1217 13.1467 10.4233 14.5693 10.1403C15.9918 9.85738 17.4663 10.0026 18.8063 10.5576C20.1463 11.1127 21.2916 12.0526 22.0974 13.2586C22.9032 14.4645 23.3333 15.8824 23.3333 17.3328C23.3333 19.2777 22.5606 21.1429 21.1854 22.5182C19.8101 23.8935 17.9448 24.6661 15.9999 24.6661ZM9.33325 5.33276C8.27239 5.33276 7.25497 5.75419 6.50482 6.50434C5.75468 7.25448 5.33325 8.2719 5.33325 9.33276C5.33633 10.0911 5.55764 10.8326 5.97075 11.4686L12.0499 6.40276C11.3124 5.71521 10.3416 5.33285 9.33325 5.33276ZM22.6666 5.33276C21.6587 5.33296 20.6883 5.71498 19.9508 6.40193L26.0295 11.4673C26.4421 10.8316 26.6633 10.0907 26.6666 9.33276C26.6666 8.2719 26.2452 7.25448 25.495 6.50434C24.7449 5.75419 23.7275 5.33276 22.6666 5.33276ZM15.9999 19.9994C15.7362 19.9994 15.4784 20.0776 15.2592 20.2241C15.0399 20.3706 14.869 20.5789 14.7681 20.8225C14.6672 21.0662 14.6408 21.3342 14.6922 21.5929C14.7437 21.8515 14.8706 22.0891 15.0571 22.2756C15.2436 22.462 15.4812 22.589 15.7398 22.6405C15.9984 22.6919 16.2665 22.6655 16.5102 22.5646C16.7538 22.4637 16.962 22.2928 17.1085 22.0735C17.2551 21.8543 17.3333 21.5965 17.3333 21.3328C17.3333 20.9791 17.1928 20.64 16.9427 20.39C16.6927 20.1399 16.3535 19.9994 15.9999 19.9994ZM16.9291 11.9994H15.0708C14.9778 11.9999 14.8859 12.0198 14.801 12.0578C14.7162 12.0958 14.6401 12.151 14.5778 12.22C14.5155 12.289 14.4682 12.3702 14.439 12.4585C14.4098 12.5468 14.3993 12.6402 14.4083 12.7328L14.9416 18.0661C14.9581 18.2304 15.035 18.3827 15.1574 18.4936C15.2798 18.6044 15.439 18.6659 15.6041 18.6661H16.3958C16.5609 18.6659 16.7201 18.6044 16.8424 18.4936C16.9648 18.3827 17.0417 18.2304 17.0583 18.0661L17.5916 12.7328C17.6009 12.6402 17.5907 12.5466 17.5617 12.4582C17.5327 12.3698 17.4855 12.2884 17.4231 12.2193C17.3607 12.1503 17.2846 12.095 17.1996 12.0571C17.1146 12.0193 17.0226 11.9996 16.9295 11.9994H16.9291Z" fill="#474747"/>
</svg>
