<svg width="32" height="32" viewBox="0 0 32 32" fill="none" xmlns="http://www.w3.org/2000/svg">
<path d="M15.9999 5.33337C10.1074 5.33337 5.33325 10.1076 5.33325 16C5.33325 21.8925 10.1074 26.6667 15.9999 26.6667C21.8924 26.6667 26.6666 21.8925 26.6666 16C26.6666 10.1076 21.8924 5.33337 15.9999 5.33337ZM15.9999 24.6022C11.2558 24.6022 7.39777 20.7441 7.39777 16C7.39777 11.256 11.2558 7.39789 15.9999 7.39789C20.744 7.39789 24.6021 11.256 24.6021 16C24.6021 20.7441 20.744 24.6022 15.9999 24.6022ZM15.9999 18.4086C14.5548 18.4086 13.1956 19.0452 12.2666 20.1549C11.901 20.5936 11.9612 21.2431 12.3999 21.6086C12.8386 21.9742 13.4881 21.9183 13.8537 21.4796C14.9203 20.2022 17.0795 20.2022 18.1462 21.4796C18.4945 21.8968 19.144 21.9914 19.5999 21.6086C20.0386 21.2431 20.0945 20.5936 19.7333 20.1549C18.8042 19.0452 17.4451 18.4086 15.9999 18.4086ZM13.9354 15.3119C14.3784 15.3119 14.7913 15.0237 14.9247 14.5764C15.0881 14.0301 14.7784 13.4538 14.2322 13.2904L10.7913 12.2581C10.2408 12.0904 9.66874 12.4043 9.50529 12.9506C9.34185 13.4968 9.65153 14.0732 10.1978 14.2366L11.4107 14.6022C11.2773 14.8129 11.1827 15.0495 11.1827 15.3162C11.1827 16.0775 11.7978 16.6925 12.5591 16.6925C13.3203 16.6925 13.9354 16.0732 13.9354 15.3119ZM22.4945 12.9506C22.3311 12.4043 21.7591 12.0947 21.2085 12.2581L17.7677 13.2904C17.2214 13.4538 16.9117 14.0301 17.0752 14.5764C17.2085 15.0237 17.6214 15.3119 18.0644 15.3119C18.0644 16.0732 18.6795 16.6882 19.4408 16.6882C20.2021 16.6882 20.8171 16.0732 20.8171 15.3119C20.8171 15.0452 20.7225 14.8086 20.5892 14.5979L21.8021 14.2323C22.3483 14.0732 22.658 13.4968 22.4945 12.9506Z" fill="currentColor"/>
</svg>
