<svg width="32" height="32" viewBox="0 0 32 32" fill="none" xmlns="http://www.w3.org/2000/svg">
<path d="M22.5208 15.0041L16.3542 21.1875C16.1583 21.3833 15.8417 21.3833 15.6458 21.1875L9.47917 15.0041C9.28333 14.8083 9.28333 14.4916 9.47917 14.2958L10.2958 13.4791C10.4958 13.2791 10.8167 13.2833 11.0083 13.4875L14.9125 17.5333V7.16663C14.9125 6.89163 15.1375 6.66663 15.4125 6.66663H16.5792C16.8542 6.66663 17.0792 6.89163 17.0792 7.16663V17.5333L20.9833 13.4875C21.1792 13.2875 21.5 13.2833 21.6958 13.4791L22.5125 14.2958C22.7167 14.4916 22.7167 14.8083 22.5208 15.0041ZM23.5 23.1666H8.5C8.225 23.1666 8 23.3916 8 23.6666V24.8333C8 25.1083 8.225 25.3333 8.5 25.3333H23.5C23.775 25.3333 24 25.1083 24 24.8333V23.6666C24 23.3916 23.775 23.1666 23.5 23.1666Z" fill="#474747"/>
</svg>
