<svg width="32" height="32" viewBox="0 0 32 32" fill="none" xmlns="http://www.w3.org/2000/svg">
<path d="M21.6665 22.5202L26.5201 17.6869C26.7153 17.4917 26.7153 17.1751 26.5201 16.9798L21.6665 12.1465C21.4713 11.9512 21.1547 11.9512 20.9594 12.1465L20.0297 13.0762C19.8294 13.2765 19.8354 13.6031 20.0429 13.796L22.6247 16.1667L7.66655 16.1667L7.66655 11.1677C7.66656 11.102 7.65362 11.037 7.62849 10.9764C7.60336 10.9157 7.56653 10.8606 7.52009 10.8142L6.18676 9.48083C5.8718 9.16583 5.33322 9.38892 5.33322 9.83437L5.33322 17.5C5.33322 18.0523 5.78093 18.5 6.33322 18.5L22.6247 18.5L20.0429 20.8708C19.8354 21.0637 19.8295 21.3903 20.0298 21.5906L20.9594 22.5203C21.1547 22.7155 21.4713 22.7155 21.6665 22.5202Z" fill="#474747"/>
</svg>
