<svg width="32" height="32" viewBox="0 0 32 32" fill="none" xmlns="http://www.w3.org/2000/svg">
<path d="M10.3332 22.5202L5.47969 17.6869C5.28444 17.4917 5.28444 17.1751 5.47969 16.9798L10.3332 12.1465C10.5285 11.9512 10.8451 11.9512 11.0403 12.1465L11.97 13.0762C12.1703 13.2765 12.1644 13.6031 11.9569 13.796L9.37506 16.1667L24.3332 16.1667L24.3332 11.1677C24.3332 11.102 24.3461 11.037 24.3713 10.9764C24.3964 10.9157 24.4332 10.8606 24.4797 10.8142L25.813 9.48083C26.128 9.16583 26.6665 9.38892 26.6665 9.83437L26.6665 17.5C26.6665 18.0523 26.2188 18.5 25.6665 18.5L9.37506 18.5L11.9568 20.8708C12.1643 21.0637 12.1703 21.3903 11.97 21.5906L11.0403 22.5203C10.8451 22.7155 10.5285 22.7155 10.3332 22.5202Z" fill="#474747"/>
</svg>
