<svg width="32" height="32" viewBox="0 0 32 32" fill="none" xmlns="http://www.w3.org/2000/svg">
<path d="M25.2639 23.3837L22.666 17.6504C22.851 17.1741 23.0127 17.06 23.5968 16.4758C23.828 16.2446 23.9942 15.9566 24.0789 15.6408C24.1635 15.325 24.1635 14.9925 24.0789 14.6767C23.7335 13.3871 23.7331 13.5663 24.0789 12.2759C24.1635 11.9601 24.1634 11.6275 24.0788 11.3117C23.9942 10.9959 23.828 10.708 23.5968 10.4767C22.6519 9.53091 22.7419 9.68757 22.396 8.39675C22.3115 8.08089 22.1453 7.79287 21.9141 7.56166C21.6828 7.33045 21.3948 7.16422 21.079 7.07969C19.789 6.73427 19.9448 6.82427 18.9998 5.87928C18.7686 5.64799 18.4806 5.48163 18.1647 5.39693C17.8488 5.31224 17.5162 5.31219 17.2003 5.39679C15.914 5.74137 16.0882 5.7422 14.7995 5.39679C14.4835 5.31221 14.1509 5.31228 13.835 5.39697C13.5192 5.48166 13.2311 5.64801 12.9999 5.87928C12.0557 6.82344 12.2112 6.73386 10.9208 7.07969C10.6049 7.16422 10.3169 7.33045 10.0857 7.56166C9.85445 7.79287 9.68822 8.08089 9.60368 8.39675C9.25827 9.68674 9.34827 9.53091 8.40328 10.4759C7.93287 10.9463 7.74871 11.6325 7.92121 12.275C8.26662 13.5646 8.26703 13.3854 7.92121 14.6758C7.83663 14.9917 7.83666 15.3242 7.92128 15.64C8.0059 15.9558 8.17213 16.2438 8.40328 16.475C9.03244 17.1046 9.15411 17.1858 9.3341 17.6496L6.7358 23.3837C6.48747 23.9316 6.93788 24.527 7.58788 24.527C7.59996 24.527 7.61246 24.5266 7.62454 24.5261L10.6603 24.4216L12.7491 26.4069C12.9353 26.5832 13.1774 26.6665 13.4166 26.6665C13.772 26.6665 14.1215 26.4836 14.2728 26.1499L15.9999 22.3387L17.7269 26.1499C17.8782 26.4836 18.2277 26.6665 18.5832 26.6665C18.8227 26.6665 19.0648 26.5832 19.2502 26.4069L21.339 24.4216L24.3748 24.5261C24.3873 24.5266 24.3993 24.527 24.4114 24.527C25.0614 24.5266 25.5122 23.9316 25.2639 23.3837ZM13.072 23.9541L11.4303 22.3941L9.34744 22.4657L10.5858 19.7329C10.6937 19.7862 10.8016 19.8399 10.9208 19.872C11.9682 20.1529 12.037 20.1095 12.7149 20.7874C13.0745 21.147 13.5511 21.3333 14.0328 21.3333C14.114 21.3333 14.194 21.3103 14.2749 21.2999L13.072 23.9541ZM14.0532 19.2975C13.1357 18.3775 12.6474 18.2641 11.5149 17.9604C11.0424 16.1979 10.8049 16.0487 9.87326 15.1171C10.3528 13.3284 10.202 13.0596 9.87326 11.8342C11.1632 10.5442 11.1741 10.2638 11.5153 8.99091C12.7274 8.66675 13.0599 8.64842 14.359 7.34927C16.1349 7.82509 16.4086 7.6801 17.6419 7.34927C18.529 8.23634 18.7107 8.51508 20.4852 8.99091C20.9577 10.7534 21.1952 10.9026 22.1269 11.8346C21.6548 13.5971 21.7856 13.8454 22.1269 15.1183C21.2398 16.0054 20.961 16.1875 20.4852 17.9621C19.3906 18.2554 18.8902 18.3554 17.9465 19.2991C16.649 18.5416 15.154 18.6554 14.0532 19.2975ZM21.4077 22.4228L20.5694 22.3941L18.9277 23.9541L17.7248 21.2999C17.8057 21.3108 17.8857 21.3333 17.9669 21.3333C18.4482 21.3333 18.9252 21.147 19.2848 20.7874C19.9686 20.1037 20.0269 20.1541 21.079 19.872C21.1977 19.8404 21.3056 19.7862 21.414 19.7329L22.6523 22.4653L21.4077 22.4228ZM19.9998 13.3334C19.9998 11.1242 18.209 9.33341 15.9999 9.33341C13.7907 9.33341 11.9999 11.1242 11.9999 13.3334C11.9999 15.5425 13.7907 17.3333 15.9999 17.3333C18.209 17.3333 19.9998 15.5425 19.9998 13.3334ZM15.9999 15.3333C14.897 15.3333 13.9999 14.4363 13.9999 13.3334C13.9999 12.2305 14.897 11.3334 15.9999 11.3334C17.1028 11.3334 17.9998 12.2305 17.9998 13.3334C17.9998 14.4363 17.1028 15.3333 15.9999 15.3333Z" fill="currentColor"/>
</svg>
