<svg width="32" height="32" viewBox="0 0 32 32" fill="none" xmlns="http://www.w3.org/2000/svg">
<path d="M24.8332 10.383H7.1665C6.89038 10.383 6.6665 10.1543 6.6665 9.87234V8.51064C6.6665 8.22864 6.89038 8 7.1665 8H24.8332C25.1093 8 25.3332 8.22864 25.3332 8.51064V9.87234C25.3332 10.1543 25.1093 10.383 24.8332 10.383ZM24.8332 17.1915H7.1665C6.89038 17.1915 6.6665 16.9629 6.6665 16.6809V15.3191C6.6665 15.0371 6.89038 14.8085 7.1665 14.8085H24.8332C25.1093 14.8085 25.3332 15.0371 25.3332 15.3191V16.6809C25.3332 16.9629 25.1093 17.1915 24.8332 17.1915ZM24.8332 24H7.1665C6.89038 24 6.6665 23.7714 6.6665 23.4894V22.1277C6.6665 21.8457 6.89038 21.617 7.1665 21.617H24.8332C25.1093 21.617 25.3332 21.8457 25.3332 22.1277V23.4894C25.3332 23.7714 25.1093 24 24.8332 24Z" fill="#474747"/>
</svg>
