<svg width="32" height="32" viewBox="0 0 32 32" fill="none" xmlns="http://www.w3.org/2000/svg">
<path d="M13.3332 19.3334H13.3323C13.3323 18.6592 13.3882 18.9696 9.78859 11.7705C9.42067 11.035 8.70984 10.6667 7.999 10.6667C7.289 10.6667 6.579 11.0342 6.21067 11.7705C2.58067 19.0313 2.66734 18.6805 2.66734 19.3334H2.6665C2.6665 21.1742 5.05442 22.6667 7.99984 22.6667C10.9453 22.6667 13.3332 21.1742 13.3332 19.3334ZM6.13484 16.3805C6.60984 15.4367 7.219 14.2267 7.98734 12.668C7.98859 12.6675 7.99275 12.6667 7.99942 12.6667L8.00025 12.665C8.82609 14.3167 9.45984 15.5738 9.94609 16.5384C10.4161 17.4709 10.7669 18.1684 11.0107 18.6667H4.99275C5.25109 18.1384 5.62775 17.388 6.13484 16.3805ZM24.6665 24.6667H16.9998V11.8305C18.1423 11.4692 19.0244 10.5238 19.2661 9.33337H24.6665C25.0348 9.33337 25.3332 9.03504 25.3332 8.66671V8.00004C25.3332 7.63171 25.0348 7.33337 24.6665 7.33337H19.0519C18.5369 6.15712 17.3661 5.33337 15.9998 5.33337C14.6336 5.33337 13.4628 6.15712 12.9478 7.33337H7.33317C6.96484 7.33337 6.6665 7.63171 6.6665 8.00004V8.66671C6.6665 9.03504 6.96484 9.33337 7.33317 9.33337H12.7336C12.9753 10.5238 13.8573 11.4692 14.9998 11.8305V24.6667H7.33317C6.96484 24.6667 6.6665 24.965 6.6665 25.3334V26C6.6665 26.3684 6.96484 26.6667 7.33317 26.6667H24.6665C25.0348 26.6667 25.3332 26.3684 25.3332 26V25.3334C25.3332 24.965 25.0348 24.6667 24.6665 24.6667ZM15.9998 10C15.2648 10 14.6665 9.40171 14.6665 8.66671C14.6665 7.93171 15.2648 7.33337 15.9998 7.33337C16.7348 7.33337 17.3332 7.93171 17.3332 8.66671C17.3332 9.40171 16.7348 10 15.9998 10ZM29.3323 19.3334C29.3323 18.6592 29.3882 18.9696 25.7886 11.7705C25.4207 11.035 24.7098 10.6667 23.999 10.6667C23.289 10.6667 22.579 11.0342 22.2107 11.7705C18.5807 19.0313 18.6673 18.6805 18.6673 19.3334H18.6665C18.6665 21.1742 21.0544 22.6667 23.9998 22.6667C26.9453 22.6667 29.3332 21.1742 29.3332 19.3334H29.3323ZM20.9928 18.6667C21.2507 18.1384 21.6273 17.388 22.1344 16.3805C22.6094 15.4367 23.2186 14.2267 23.9869 12.668C23.9882 12.6675 23.9923 12.6667 23.999 12.6667L23.9998 12.665C24.8257 14.3167 25.4594 15.5738 25.9457 16.5384C26.4157 17.4709 26.7665 18.1684 27.0103 18.6667H20.9928Z" fill="#474747"/>
</svg>
