<svg width="32" height="32" viewBox="0 0 32 32" fill="none" xmlns="http://www.w3.org/2000/svg">
<path d="M24.9744 20.4287C24.1694 19.5637 22.6632 18.2625 22.6632 14C22.6632 10.7625 20.3932 8.17087 17.3323 7.53503V6.6667C17.3323 5.93046 16.7357 5.33337 15.9998 5.33337C15.264 5.33337 14.6673 5.93046 14.6673 6.6667V7.53503C11.6065 8.17087 9.33652 10.7625 9.33652 14C9.33652 18.2625 7.83028 19.5637 7.02528 20.4287C6.77528 20.6975 6.66445 21.0187 6.66653 21.3333C6.67112 22.0167 7.20736 22.6667 8.00403 22.6667H23.9956C24.7923 22.6667 25.329 22.0167 25.3331 21.3333C25.3352 21.0187 25.2244 20.6971 24.9744 20.4287ZM9.48027 20.6667C10.3644 19.5012 11.3311 17.5696 11.3357 14.0242C11.3357 14.0158 11.3332 14.0083 11.3332 14C11.3332 11.4225 13.4223 9.33336 15.9998 9.33336C18.5773 9.33336 20.6665 11.4225 20.6665 14C20.6665 14.0083 20.664 14.0158 20.664 14.0242C20.6686 17.57 21.6352 19.5017 22.5194 20.6667H9.48027ZM15.9998 26.6666C17.4715 26.6666 18.6652 25.4729 18.6652 24H13.3344C13.3344 25.4729 14.5282 26.6666 15.9998 26.6666Z" fill="currentColor"/>
</svg>
