<svg width="32" height="32" viewBox="0 0 32 32" fill="none" xmlns="http://www.w3.org/2000/svg">
<path d="M25.1571 23.2201H6.84259C6.65577 23.2201 6.4766 23.2943 6.3445 23.4264C6.2124 23.5585 6.13818 23.7377 6.13818 23.9245V24.6289C6.13818 24.8157 6.2124 24.9949 6.3445 25.127C6.4766 25.2591 6.65577 25.3333 6.84259 25.3333H25.1571C25.3439 25.3333 25.523 25.2591 25.6551 25.127C25.7872 24.9949 25.8615 24.8157 25.8615 24.6289V23.9245C25.8615 23.7377 25.7872 23.5585 25.6551 23.4264C25.523 23.2943 25.3439 23.2201 25.1571 23.2201ZM7.34051 20.5478L11.5669 16.3213C11.6989 16.1893 11.7731 16.0102 11.7731 15.8234C11.7731 15.6367 11.6989 15.4576 11.5669 15.3255L7.34051 11.0991C6.8985 10.6579 6.13818 10.9714 6.13818 11.5974V20.0503C6.13818 20.6803 6.90114 20.988 7.34051 20.5478ZM25.2966 11.9496H15.1559C15.0817 11.9496 15.0082 11.9642 14.9396 11.9925C14.8711 12.0209 14.8088 12.0625 14.7563 12.115C14.7039 12.1674 14.6623 12.2297 14.6339 12.2983C14.6055 12.3668 14.591 12.4403 14.591 12.5145V13.498C14.591 13.5722 14.6055 13.6457 14.6339 13.7142C14.6623 13.7828 14.7039 13.8451 14.7563 13.8975C14.8088 13.95 14.8711 13.9916 14.9396 14.02C15.0082 14.0483 15.0817 14.0629 15.1559 14.0629H25.2966C25.3708 14.0629 25.4443 14.0483 25.5128 14.02C25.5814 13.9916 25.6437 13.95 25.6961 13.8975C25.7486 13.8451 25.7902 13.7828 25.8186 13.7142C25.8469 13.6457 25.8615 13.5722 25.8615 13.498V12.5145C25.8615 12.4403 25.8469 12.3668 25.8186 12.2983C25.7902 12.2297 25.7486 12.1674 25.6961 12.115C25.6437 12.0625 25.5814 12.0209 25.5128 11.9925C25.4443 11.9642 25.3708 11.9496 25.2966 11.9496ZM25.1571 6.66663H6.84259C6.65577 6.66663 6.4766 6.74084 6.3445 6.87294C6.2124 7.00504 6.13818 7.18421 6.13818 7.37103V8.07543C6.13818 8.26225 6.2124 8.44142 6.3445 8.57352C6.4766 8.70562 6.65577 8.77983 6.84259 8.77983H25.1571C25.3439 8.77983 25.523 8.70562 25.6551 8.57352C25.7872 8.44142 25.8615 8.26225 25.8615 8.07543V7.37103C25.8615 7.18421 25.7872 7.00504 25.6551 6.87294C25.523 6.74084 25.3439 6.66663 25.1571 6.66663ZM25.2966 17.5849H15.1559C15.0817 17.5848 15.0082 17.5994 14.9396 17.6277C14.8711 17.6561 14.8088 17.6977 14.7563 17.7502C14.7039 17.8026 14.6623 17.8649 14.6339 17.9335C14.6055 18.002 14.591 18.0755 14.591 18.1497V19.1332C14.591 19.2074 14.6055 19.2809 14.6339 19.3495C14.6623 19.418 14.7039 19.4803 14.7563 19.5328C14.8088 19.5852 14.8711 19.6268 14.9396 19.6552C15.0082 19.6836 15.0817 19.6981 15.1559 19.6981H25.2966C25.3708 19.6981 25.4443 19.6836 25.5128 19.6552C25.5814 19.6268 25.6437 19.5852 25.6961 19.5328C25.7486 19.4803 25.7902 19.418 25.8186 19.3495C25.8469 19.2809 25.8615 19.2074 25.8615 19.1332V18.1497C25.8615 18.0755 25.8469 18.002 25.8186 17.9335C25.7902 17.8649 25.7486 17.8026 25.6961 17.7502C25.6437 17.6977 25.5814 17.6561 25.5128 17.6277C25.4443 17.5994 25.3708 17.5848 25.2966 17.5849Z" fill="#474747"/>
</svg>
