<svg width="32" height="32" viewBox="0 0 32 32" fill="none" xmlns="http://www.w3.org/2000/svg">
<path d="M27.3334 14.6667H22.6667V7.33337C22.6667 6.22921 21.7709 5.33337 20.6667 5.33337H11.3334C10.2292 5.33337 9.33341 6.22921 9.33341 7.33337V14.6667H4.66675C3.56258 14.6667 2.66675 15.5625 2.66675 16.6667V24.6667C2.66675 25.7709 3.56258 26.6667 4.66675 26.6667H27.3334C28.4376 26.6667 29.3334 25.7709 29.3334 24.6667V16.6667C29.3334 15.5625 28.4376 14.6667 27.3334 14.6667ZM11.3334 7.33337H14.6667V10.3334C14.6667 10.5167 14.8167 10.6667 15.0001 10.6667H17.0001C17.1834 10.6667 17.3334 10.5167 17.3334 10.3334V7.33337H20.6667V14.6667H11.3334V7.33337ZM15.0001 24.6667H4.66675V16.6667H8.66675V19.6667C8.66675 19.85 8.81675 20 9.00008 20H11.0001C11.1834 20 11.3334 19.85 11.3334 19.6667V16.6667H15.0001V24.6667ZM27.3334 24.6667H17.0001V16.6667H20.6667V19.6667C20.6667 19.85 20.8167 20 21.0001 20H23.0001C23.1834 20 23.3334 19.85 23.3334 19.6667V16.6667H27.3334V24.6667Z" fill="currentColor"/>
</svg>
