<svg width="32" height="32" viewBox="0 0 32 32" fill="none" xmlns="http://www.w3.org/2000/svg">
<path d="M29.2627 15.3258L27.117 11.0427C26.9503 10.7052 26.6128 10.6469 26.4212 10.6719L24.3088 10.9427L25.2296 8.41786C25.3837 8.00122 25.3629 7.54708 25.1754 7.14294C24.9879 6.73879 24.6546 6.43465 24.2338 6.28049L21.9215 5.43471C21.059 5.11806 20.1007 5.56804 19.7841 6.43048L18.4967 9.96776C17.8759 7.31376 15.5094 5.33472 12.6679 5.33472C9.53058 5.33472 6.98491 7.75123 6.71826 10.8177L5.57666 10.6719C5.38501 10.6469 5.05169 10.7094 4.88087 11.0427L2.73934 15.3258C2.54769 15.7091 2.75184 16.1674 3.16015 16.284L5.33501 16.9048V23.0419C5.33501 23.6544 5.75165 24.1877 6.34328 24.3335L15.351 26.5875C15.9177 26.7292 16.3926 26.65 16.6426 26.5875L25.6587 24.3335C26.2504 24.1835 26.667 23.6502 26.667 23.0419V16.9048L28.8377 16.284C29.2502 16.1674 29.4502 15.7091 29.2627 15.3258ZM21.5507 7.43042L23.238 8.04288L22.0798 11.226L20.0716 11.4802L21.5507 7.43042ZM5.23918 14.8008L6.25162 12.7759L12.7012 13.5967L10.9847 16.4424L5.23918 14.8008ZM15.0011 24.4377L7.33488 22.5211V17.4756L11.4096 18.638C11.7429 18.7339 12.0429 18.5631 12.1804 18.3339L15.0011 13.6592V24.4377ZM16.6093 11.9218L16.001 12.001L8.69313 11.0719C8.83479 8.98865 10.5513 7.33459 12.6679 7.33459C14.8719 7.33459 16.6676 9.13031 16.6676 11.3343C16.6676 11.5343 16.6385 11.7301 16.6093 11.9218ZM24.6671 22.5211L17.0009 24.4377V13.6592L19.8216 18.3381C19.9591 18.5672 20.2632 18.738 20.5924 18.6422L24.6671 17.4798V22.5211ZM21.0132 16.4424L19.2966 13.5967L25.7504 12.7759L26.7628 14.8008L21.0132 16.4424Z" fill="currentColor"/>
</svg>
