<svg width="32" height="32" viewBox="0 0 32 32" fill="none" xmlns="http://www.w3.org/2000/svg">
<path d="M24.4964 13.3341C24.4672 13.3341 24.4385 13.335 24.4106 13.3362C22.3356 13.4546 18.556 13.8779 16.0006 15.3183C13.4452 13.8779 9.66516 13.4546 7.59058 13.3362C7.56266 13.3346 7.53391 13.3341 7.50475 13.3341C6.65475 13.3337 5.3335 13.9316 5.3335 15.4258V22.8446C5.3335 23.9566 6.21891 24.8737 7.34766 24.9329C8.78141 25.0083 12.371 25.3112 14.7227 26.4941C14.9506 26.6096 15.1952 26.6666 15.4389 26.6666H16.5614C16.8047 26.6666 17.0497 26.6096 17.2777 26.4941C19.6293 25.3112 23.2189 25.0087 24.6527 24.9329C25.7814 24.8737 26.6668 23.9562 26.6668 22.8446V15.4258C26.6668 13.9316 25.3456 13.3341 24.4964 13.3341ZM15.0002 24.4346C12.4739 23.3596 9.24308 23.03 7.45266 22.9358C7.38141 22.9321 7.3335 22.8854 7.3335 22.8446L7.31433 15.4091C7.346 15.3775 7.45141 15.3366 7.476 15.3325C8.97016 15.4175 12.6881 15.7566 15.0002 17.0516V24.4346ZM24.6668 22.8446C24.6668 22.8854 24.6189 22.9321 24.5472 22.9358C22.7581 23.03 19.5293 23.3591 17.0002 24.435V17.0516C19.3052 15.7608 23.0072 15.42 24.4972 15.3341C24.5556 15.3396 24.6547 15.3796 24.6668 15.4258V22.8446ZM16.0002 13.3329C18.2093 13.3329 20.0002 11.5421 20.0002 9.33331C20.0002 7.12456 18.2093 5.33331 16.0002 5.33331C13.791 5.33331 12.0002 7.12415 12.0002 9.3329C12.0002 11.5416 13.791 13.3329 16.0002 13.3329ZM16.0002 7.33331C17.1031 7.33331 18.0002 8.2304 18.0002 9.33331C18.0002 10.4362 17.1031 11.3333 16.0002 11.3333C14.8972 11.3333 14.0002 10.4362 14.0002 9.33331C14.0002 8.2304 14.8972 7.33331 16.0002 7.33331Z" fill="currentColor"/>
</svg>
