<svg width="32" height="32" viewBox="0 0 32 32" fill="none" xmlns="http://www.w3.org/2000/svg">
<path d="M12.0001 11.6667V10.3334C12.0001 10.15 12.1501 10 12.3334 10H21.0001C21.1834 10 21.3334 10.15 21.3334 10.3334V11.6667C21.3334 11.85 21.1834 12 21.0001 12H12.3334C12.1501 12 12.0001 11.85 12.0001 11.6667ZM12.3334 15.3334H21.0001C21.1834 15.3334 21.3334 15.1834 21.3334 15V13.6667C21.3334 13.4834 21.1834 13.3334 21.0001 13.3334H12.3334C12.1501 13.3334 12.0001 13.4834 12.0001 13.6667V15C12.0001 15.1834 12.1501 15.3334 12.3334 15.3334ZM24.7959 21.9875C24.6209 22.5292 24.6209 24.1375 24.7959 24.6792C25.1001 24.7375 25.3334 25.0084 25.3334 25.3334V26C25.3334 26.3667 25.0334 26.6667 24.6667 26.6667H10.0001C8.15841 26.6667 6.66675 25.175 6.66675 23.3334V8.66671C6.66675 6.82504 8.15841 5.33337 10.0001 5.33337H24.6667C25.0334 5.33337 25.3334 5.63337 25.3334 6.00004V21.3334C25.3334 21.6584 25.1042 21.925 24.7959 21.9875ZM23.0834 22H10.0001C9.26675 22 8.66675 22.6 8.66675 23.3334C8.66675 24.0709 9.26258 24.6667 10.0001 24.6667H23.0834C22.9709 23.9459 22.9709 22.7209 23.0834 22ZM23.3334 7.33337H10.0001C9.26258 7.33337 8.66675 7.92921 8.66675 8.66671V20.2792C9.07508 20.1 9.52508 20 10.0001 20H23.3334V7.33337Z" fill="#474747"/>
</svg>
