<svg width="32" height="32" viewBox="0 0 32 32" fill="none" xmlns="http://www.w3.org/2000/svg">
<path d="M20.4384 15.2825C21.1648 14.5956 21.6682 13.7065 21.8832 12.7302C22.0983 11.7539 22.0152 10.7356 21.6447 9.8071C21.2741 8.87862 20.6333 8.08283 19.8051 7.52288C18.977 6.96293 17.9998 6.66463 17.0001 6.66664H9.33341C9.1566 6.66664 8.98703 6.73687 8.86201 6.8619C8.73699 6.98692 8.66675 7.15649 8.66675 7.3333V7.99997C8.66675 8.17678 8.73699 8.34635 8.86201 8.47137C8.98703 8.5964 9.1566 8.66663 9.33341 8.66663H10.0001V23.3333H9.33341C9.1566 23.3333 8.98703 23.4035 8.86201 23.5286C8.73699 23.6536 8.66675 23.8231 8.66675 24V24.6666C8.66675 24.8434 8.73699 25.013 8.86201 25.138C8.98703 25.2631 9.1566 25.3333 9.33341 25.3333H18.0001C19.4146 25.3333 20.7711 24.7714 21.7713 23.7712C22.7715 22.771 23.3334 21.4144 23.3334 20C23.3334 17.9379 22.1509 16.17 20.4384 15.2825ZM12.6667 8.66663H16.3334C17.1291 8.66663 17.8921 8.98271 18.4547 9.54531C19.0173 10.1079 19.3334 10.871 19.3334 11.6666C19.3334 12.4623 19.0173 13.2253 18.4547 13.788C17.8921 14.3506 17.1291 14.6666 16.3334 14.6666H12.6667V8.66663ZM17.3334 23.3333H12.6667V16.6666H17.3334C18.2175 16.6666 19.0653 17.0178 19.6904 17.6429C20.3156 18.2681 20.6667 19.1159 20.6667 20C20.6667 20.884 20.3156 21.7319 19.6904 22.357C19.0653 22.9821 18.2175 23.3333 17.3334 23.3333Z" fill="currentColor"/>
</svg>
