<svg width="32" height="32" viewBox="0 0 32 32" fill="none" xmlns="http://www.w3.org/2000/svg">
<path d="M26.6671 12.3701V6.0004C26.6671 5.63581 26.3762 4.66663 25.3341 4.66663H25.3337C25.037 4.66663 24.7424 4.76579 24.5012 4.95913L20.9582 7.79376C19.1786 9.21629 16.9444 10.0001 14.6669 10.0001H6.66671C5.19377 10.0001 4 11.1938 4 12.6668V16.6668C4 18.1398 5.19377 19.3335 6.66671 19.3335L6.64671 20.6669C6.64671 22.324 7.03255 23.8899 7.71173 25.2895C7.92798 25.7349 8.40008 26.0003 8.89509 26.0003H13.3235C14.4089 26.0003 15.0606 24.757 14.4027 23.8936C13.7193 22.9969 13.3131 21.8786 13.3131 20.6669C13.3131 20.204 13.3806 19.759 13.4968 19.3335H14.6669C16.9444 19.3335 19.1786 20.1173 20.9578 21.5398L24.5008 24.3745C24.7371 24.5636 25.0306 24.6667 25.3333 24.667C26.3716 24.667 26.6666 23.7178 26.6666 23.3336V16.9639C27.4604 16.5018 28 15.6518 28 14.6672C28.0004 13.6822 27.4608 12.8322 26.6671 12.3701ZM9.32218 24.0003C8.87383 22.9399 8.64675 21.8207 8.64675 20.6669C8.64675 20.0744 8.71842 19.6111 8.75508 19.3335H11.4597C11.3726 19.7794 11.313 20.2256 11.313 20.6669C11.313 21.8428 11.5872 22.9753 12.1135 24.0003H9.32218ZM14.0002 17.3335H6.66671C6.29921 17.3335 6.00003 17.0343 6.00003 16.6668V12.6668C6.00003 12.2993 6.29921 12.0001 6.66671 12.0001H14.0002V17.3335ZM24.667 21.9461L22.207 19.9777C20.4236 18.5519 18.2573 17.6706 16.0002 17.4173V11.9163C18.2573 11.663 20.4236 10.7817 22.2074 9.35546L24.667 7.38751V21.9461Z" fill="#474747"/>
</svg>
