<svg width="32" height="32" viewBox="0 0 32 32" fill="none" xmlns="http://www.w3.org/2000/svg">
<path d="M23.3334 14.6667C20.0172 14.6667 17.3334 17.3505 17.3334 20.6667C17.3334 23.983 20.0172 26.6667 23.3334 26.6667C26.6497 26.6667 29.3334 23.983 29.3334 20.6667C29.3334 17.3505 26.6497 14.6667 23.3334 14.6667ZM26.0001 20.9288C26.0001 21.1513 25.818 21.3334 25.5955 21.3334H23.0717C22.8492 21.3334 22.6672 21.1513 22.6672 20.9288V17.7384C22.6672 17.5159 22.8492 17.3338 23.0717 17.3338H23.5955C23.818 17.3338 24.0001 17.5159 24.0001 17.7384V20H25.5955C25.818 20 26.0001 20.1821 26.0001 20.4046V20.9288ZM11.6667 18.6667H15.0001C15.5522 18.6667 16.0001 18.2188 16.0001 17.6667V16.6667H17.1951C17.7077 15.8834 18.3645 15.2047 19.1305 14.6667H4.66675V11.5834C4.66675 11.4455 4.77883 11.3334 4.91675 11.3334H21.7501C21.888 11.3334 22.0001 11.4455 22.0001 11.5834V13.4609C22.433 13.3809 22.8776 13.3334 23.3334 13.3334C23.5584 13.3334 23.7801 13.3471 24.0001 13.3671V11.3334C24.0001 10.2288 23.1047 9.33337 22.0001 9.33337H18.6667V7.33337C18.6667 6.22879 17.7713 5.33337 16.6667 5.33337H10.0001C8.8955 5.33337 8.00008 6.22879 8.00008 7.33337V9.33337H4.66675C3.56216 9.33337 2.66675 10.2288 2.66675 11.3334V22C2.66675 23.1046 3.56216 24 4.66675 24H16.8097C16.4862 23.3701 16.2564 22.6964 16.1276 22H4.91675C4.77883 22 4.66675 21.888 4.66675 21.75V16.6667H10.6667V17.6667C10.6667 18.2188 11.1147 18.6667 11.6667 18.6667ZM10.0001 7.33337H16.6667V9.33337H10.0001V7.33337Z" fill="currentColor"/>
</svg>
