<svg width="32" height="32" viewBox="0 0 32 32" fill="none" xmlns="http://www.w3.org/2000/svg">
<path d="M12.0001 11.5V9.83337C12.0001 9.55837 12.2251 9.33337 12.5001 9.33337H14.1667C14.4417 9.33337 14.6667 9.55837 14.6667 9.83337V11.5C14.6667 11.775 14.4417 12 14.1667 12H12.5001C12.2251 12 12.0001 11.775 12.0001 11.5ZM17.8334 12H19.5001C19.7751 12 20.0001 11.775 20.0001 11.5V9.83337C20.0001 9.55837 19.7751 9.33337 19.5001 9.33337H17.8334C17.5584 9.33337 17.3334 9.55837 17.3334 9.83337V11.5C17.3334 11.775 17.5584 12 17.8334 12ZM12.5001 16H14.1667C14.4417 16 14.6667 15.775 14.6667 15.5V13.8334C14.6667 13.5584 14.4417 13.3334 14.1667 13.3334H12.5001C12.2251 13.3334 12.0001 13.5584 12.0001 13.8334V15.5C12.0001 15.775 12.2251 16 12.5001 16ZM17.8334 16H19.5001C19.7751 16 20.0001 15.775 20.0001 15.5V13.8334C20.0001 13.5584 19.7751 13.3334 19.5001 13.3334H17.8334C17.5584 13.3334 17.3334 13.5584 17.3334 13.8334V15.5C17.3334 15.775 17.5584 16 17.8334 16ZM14.6667 19.5V17.8334C14.6667 17.5584 14.4417 17.3334 14.1667 17.3334H12.5001C12.2251 17.3334 12.0001 17.5584 12.0001 17.8334V19.5C12.0001 19.775 12.2251 20 12.5001 20H14.1667C14.4417 20 14.6667 19.775 14.6667 19.5ZM17.8334 20H19.5001C19.7751 20 20.0001 19.775 20.0001 19.5V17.8334C20.0001 17.5584 19.7751 17.3334 19.5001 17.3334H17.8334C17.5584 17.3334 17.3334 17.5584 17.3334 17.8334V19.5C17.3334 19.775 17.5584 20 17.8334 20ZM25.3334 25.1667V26.6667H6.66675V25.1667C6.66675 24.8917 6.89175 24.6667 7.16675 24.6667H7.97925V6.33337C7.97925 5.77921 8.42508 5.33337 8.97925 5.33337H23.0209C23.5751 5.33337 24.0209 5.77921 24.0209 6.33337V24.6667H24.8334C25.1084 24.6667 25.3334 24.8917 25.3334 25.1667ZM9.97925 24.625H14.6667V21.8334C14.6667 21.5584 14.8917 21.3334 15.1667 21.3334H16.8334C17.1084 21.3334 17.3334 21.5584 17.3334 21.8334V24.625H22.0209V7.37504L10.0001 7.33337L9.97925 24.625Z" fill="currentColor"/>
</svg>
