<svg width="32" height="32" viewBox="0 0 32 32" fill="none" xmlns="http://www.w3.org/2000/svg">
<path d="M19.6127 11.3333H24.6668V23.3333H7.3335V11.3333H12.3877L13.3877 8.66663H18.6168L19.6127 11.3333ZM18.846 6.66663H13.3877C12.5543 6.66663 11.8085 7.18329 11.5168 7.96246L11.0002 9.33329H7.3335C6.22933 9.33329 5.3335 10.2291 5.3335 11.3333V23.3333C5.3335 24.4375 6.22933 25.3333 7.3335 25.3333H24.6668C25.771 25.3333 26.6668 24.4375 26.6668 23.3333V11.3333C26.6668 10.2291 25.771 9.33329 24.6668 9.33329H21.0002L20.4043 7.74996C20.1627 7.09579 19.5418 6.66663 18.846 6.66663ZM16.0002 22.3333C13.2418 22.3333 11.0002 20.0916 11.0002 17.3333C11.0002 14.575 13.2418 12.3333 16.0002 12.3333C18.7585 12.3333 21.0002 14.575 21.0002 17.3333C21.0002 20.0916 18.7585 22.3333 16.0002 22.3333ZM16.0002 14.3333C14.346 14.3333 13.0002 15.6791 13.0002 17.3333C13.0002 18.9875 14.346 20.3333 16.0002 20.3333C17.6543 20.3333 19.0002 18.9875 19.0002 17.3333C19.0002 15.6791 17.6543 14.3333 16.0002 14.3333Z" fill="#474747"/>
</svg>
