<svg width="32" height="32" viewBox="0 0 32 32" fill="none" xmlns="http://www.w3.org/2000/svg">
<path d="M12.8332 17.3334H11.1665C10.8915 17.3334 10.6665 17.1084 10.6665 16.8334V15.1667C10.6665 14.8917 10.8915 14.6667 11.1665 14.6667H12.8332C13.1082 14.6667 13.3332 14.8917 13.3332 15.1667V16.8334C13.3332 17.1084 13.1082 17.3334 12.8332 17.3334ZM17.3332 16.8334V15.1667C17.3332 14.8917 17.1082 14.6667 16.8332 14.6667H15.1665C14.8915 14.6667 14.6665 14.8917 14.6665 15.1667V16.8334C14.6665 17.1084 14.8915 17.3334 15.1665 17.3334H16.8332C17.1082 17.3334 17.3332 17.1084 17.3332 16.8334ZM21.3332 16.8334V15.1667C21.3332 14.8917 21.1082 14.6667 20.8332 14.6667H19.1665C18.8915 14.6667 18.6665 14.8917 18.6665 15.1667V16.8334C18.6665 17.1084 18.8915 17.3334 19.1665 17.3334H20.8332C21.1082 17.3334 21.3332 17.1084 21.3332 16.8334ZM17.3332 20.8334V19.1667C17.3332 18.8917 17.1082 18.6667 16.8332 18.6667H15.1665C14.8915 18.6667 14.6665 18.8917 14.6665 19.1667V20.8334C14.6665 21.1084 14.8915 21.3334 15.1665 21.3334H16.8332C17.1082 21.3334 17.3332 21.1084 17.3332 20.8334ZM13.3332 20.8334V19.1667C13.3332 18.8917 13.1082 18.6667 12.8332 18.6667H11.1665C10.8915 18.6667 10.6665 18.8917 10.6665 19.1667V20.8334C10.6665 21.1084 10.8915 21.3334 11.1665 21.3334H12.8332C13.1082 21.3334 13.3332 21.1084 13.3332 20.8334ZM21.3332 20.8334V19.1667C21.3332 18.8917 21.1082 18.6667 20.8332 18.6667H19.1665C18.8915 18.6667 18.6665 18.8917 18.6665 19.1667V20.8334C18.6665 21.1084 18.8915 21.3334 19.1665 21.3334H20.8332C21.1082 21.3334 21.3332 21.1084 21.3332 20.8334ZM25.3332 10V24.6667C25.3332 25.7709 24.4373 26.6667 23.3332 26.6667H8.6665C7.56234 26.6667 6.6665 25.7709 6.6665 24.6667V10C6.6665 8.89587 7.56234 8.00004 8.6665 8.00004H10.6665V5.83337C10.6665 5.55837 10.8915 5.33337 11.1665 5.33337H12.8332C13.1082 5.33337 13.3332 5.55837 13.3332 5.83337V8.00004H18.6665V5.83337C18.6665 5.55837 18.8915 5.33337 19.1665 5.33337H20.8332C21.1082 5.33337 21.3332 5.55837 21.3332 5.83337V8.00004H23.3332C24.4373 8.00004 25.3332 8.89587 25.3332 10ZM23.3332 24.4167V12H8.6665V24.4167C8.6665 24.5542 8.779 24.6667 8.9165 24.6667H23.0832C23.2207 24.6667 23.3332 24.5542 23.3332 24.4167Z" fill="#474747"/>
</svg>
