<svg width="32" height="32" viewBox="0 0 32 32" fill="none" xmlns="http://www.w3.org/2000/svg">
<path fill-rule="evenodd" clip-rule="evenodd" d="M5.33325 9.34304C5.33325 8.23313 6.23219 7.33337 7.3411 7.33337H24.6587C25.7676 7.33337 26.6666 8.23313 26.6666 9.34304V22.657C26.6666 23.767 25.7676 24.6667 24.6587 24.6667H7.34109C6.23219 24.6667 5.33325 23.767 5.33325 22.657V9.34304ZM7.3411 9.92919C7.3411 9.55922 7.64074 9.2593 8.01038 9.2593H14.3267C14.6964 9.2593 14.996 9.55922 14.996 9.92919V14.2835C14.996 14.6534 14.6964 14.9533 14.3267 14.9533H8.01038C7.64074 14.9533 7.3411 14.6534 7.3411 14.2835V9.92919ZM17.6731 9.2593C17.3035 9.2593 17.0038 9.55922 17.0038 9.92919V14.2835C17.0038 14.6534 17.3035 14.9533 17.6731 14.9533H23.9895C24.3591 14.9533 24.6587 14.6534 24.6587 14.2835V9.92919C24.6587 9.55922 24.3591 9.2593 23.9895 9.2593H17.6731ZM7.3411 17.6329C7.3411 17.2629 7.64074 16.963 8.01038 16.963H14.3267C14.6964 16.963 14.996 17.2629 14.996 17.6329V21.9872C14.996 22.3571 14.6964 22.657 14.3267 22.657H8.01038C7.64074 22.657 7.3411 22.3571 7.3411 21.9872V17.6329ZM17.6731 16.963C17.3035 16.963 17.0038 17.2629 17.0038 17.6329V21.9872C17.0038 22.3571 17.3035 22.657 17.6731 22.657H23.9895C24.3591 22.657 24.6587 22.3571 24.6587 21.9872V17.6329C24.6587 17.2629 24.3591 16.963 23.9895 16.963H17.6731Z" fill="#474747"/>
</svg>
