<svg width="32" height="32" viewBox="0 0 32 32" fill="none" xmlns="http://www.w3.org/2000/svg">
<path d="M12.862 15.6092C13.1224 15.8696 13.5445 15.8696 13.8049 15.6092L17.3333 12.0808L20.9833 15.7308L19.7541 16.9596C19.1241 17.5896 19.5703 18.6667 20.4612 18.6667H24.6666C25.0349 18.6667 25.3333 18.3683 25.3333 18V13.7946C25.3333 12.9038 24.2562 12.4575 23.6262 13.0875L22.3974 14.3167L17.8045 9.72417C17.5441 9.46375 17.122 9.46375 16.8616 9.72417L13.3333 13.2525L11.1783 11.0975C10.9178 10.8371 10.4958 10.8371 10.2353 11.0975L9.76409 11.5687C9.50367 11.8292 9.50367 12.2513 9.76409 12.5117L12.862 15.6092ZM25.9999 22H7.33325V8.66667C7.33325 8.29833 7.03492 8 6.66659 8H5.99992C5.63159 8 5.33325 8.29833 5.33325 8.66667V22.6667C5.33325 23.4029 5.93034 24 6.66659 24H25.9999C26.3683 24 26.6666 23.7017 26.6666 23.3333V22.6667C26.6666 22.2983 26.3683 22 25.9999 22Z" fill="#474747"/>
</svg>
