<svg width="32" height="32" viewBox="0 0 32 32" fill="none" xmlns="http://www.w3.org/2000/svg">
<path d="M16.0002 5.33337C10.1091 5.33337 5.3335 10.109 5.3335 16C5.3335 21.8911 10.1091 26.6667 16.0002 26.6667C21.8912 26.6667 26.6668 21.8911 26.6668 16C26.6668 10.109 21.8912 5.33337 16.0002 5.33337ZM16.0002 7.39789C20.7542 7.39789 24.6023 11.2452 24.6023 16C24.6023 20.7541 20.755 24.6022 16.0002 24.6022C11.2461 24.6022 7.39801 20.7548 7.39801 16C7.39801 11.246 11.2454 7.39789 16.0002 7.39789ZM22.0304 13.0008L21.0612 12.0237C20.8604 11.8213 20.5336 11.82 20.3313 12.0207L14.2516 18.0515L11.6799 15.459C11.4792 15.2566 11.1524 15.2553 10.95 15.456L9.97285 16.4253C9.77049 16.626 9.76915 16.9528 9.96993 17.1552L13.8745 21.0914C14.0752 21.2938 14.402 21.2951 14.6044 21.0943L22.0276 13.7307C22.2299 13.5299 22.2312 13.2031 22.0304 13.0008Z" fill="currentColor"/>
</svg>
