<svg width="32" height="32" viewBox="0 0 32 32" fill="none" xmlns="http://www.w3.org/2000/svg">
<path d="M10.2499 16.9167L9.74992 16.4167C9.44436 16.1111 9.44436 15.8056 9.74992 15.5L12.8749 12.375C13.1805 12.0694 13.486 12.0694 13.7916 12.375L17.3333 15.9167L20.9999 12.25L19.7499 11.0417C19.4444 10.7361 19.3749 10.375 19.5416 9.95833C19.7083 9.54167 20.0138 9.33333 20.4583 9.33333H24.6666C24.861 9.33333 25.0138 9.40278 25.1249 9.54167C25.2638 9.65278 25.3333 9.80556 25.3333 10V14.2083C25.3333 14.6528 25.1249 14.9583 24.7083 15.125C24.2916 15.2917 23.9305 15.2222 23.6249 14.9167L22.4166 13.6667L17.7916 18.2917C17.486 18.5972 17.1805 18.5972 16.8749 18.2917L13.3333 14.75L11.1666 16.9167C10.861 17.2222 10.5555 17.2222 10.2499 16.9167ZM25.9999 22C26.1944 22 26.3471 22.0694 26.4583 22.2083C26.5971 22.3194 26.6666 22.4722 26.6666 22.6667V23.3333C26.6666 23.5278 26.5971 23.6944 26.4583 23.8333C26.3471 23.9444 26.1944 24 25.9999 24H6.66659C6.30547 24 5.98603 23.875 5.70825 23.625C5.45825 23.3472 5.33325 23.0278 5.33325 22.6667V8.66667C5.33325 8.47222 5.38881 8.31944 5.49992 8.20833C5.63881 8.06944 5.80547 8 5.99992 8H6.66659C6.86103 8 7.01381 8.06944 7.12492 8.20833C7.26381 8.31944 7.33325 8.47222 7.33325 8.66667V22H25.9999Z" fill="#474747"/>
</svg>
