<svg width="32" height="32" viewBox="0 0 32 32" fill="none" xmlns="http://www.w3.org/2000/svg">
<path d="M21.8666 20H22.7999C23.0666 20 23.3333 19.7333 23.3333 19.4667V9.86667C23.3333 9.6 23.0666 9.33333 22.7999 9.33333H21.8666C21.5999 9.33333 21.3333 9.6 21.3333 9.86667V19.4667C21.3333 19.7333 21.5999 20 21.8666 20ZM13.8666 20H14.7999C15.0666 20 15.3333 19.7333 15.3333 19.4667V11.2C15.3333 10.9333 15.0666 10.6667 14.7999 10.6667H13.8666C13.5999 10.6667 13.3333 10.9333 13.3333 11.2V19.4667C13.3333 19.7333 13.5999 20 13.8666 20ZM17.8666 20H18.7999C19.0666 20 19.3333 19.7333 19.3333 19.4667V13.8667C19.3333 13.6 19.0666 13.3333 18.7999 13.3333H17.8666C17.5999 13.3333 17.3333 13.6 17.3333 13.8667V19.4667C17.3333 19.7333 17.5999 20 17.8666 20ZM25.9999 22H7.33325V8.66667C7.33325 8.29833 7.03492 8 6.66659 8H5.99992C5.63159 8 5.33325 8.29833 5.33325 8.66667V22.6667C5.33325 23.4029 5.93034 24 6.66659 24H25.9999C26.3683 24 26.6666 23.7017 26.6666 23.3333V22.6667C26.6666 22.2983 26.3683 22 25.9999 22ZM9.86659 20H10.7999C11.0666 20 11.3333 19.7333 11.3333 19.4667V16.5333C11.3333 16.2667 11.0666 16 10.7999 16H9.86659C9.59992 16 9.33325 16.2667 9.33325 16.5333V19.4667C9.33325 19.7333 9.59992 20 9.86659 20Z" fill="#474747"/>
</svg>
