<svg width="32" height="32" viewBox="0 0 32 32" fill="none" xmlns="http://www.w3.org/2000/svg">
<path d="M25.3207 13.6709C25.154 11.2542 23.1415 9.33335 20.6665 9.33335C20.3498 9.33335 20.0373 9.36669 19.7332 9.42919C18.404 7.76252 16.3373 6.66669 13.9998 6.66669C10.4748 6.66669 7.52067 9.15419 6.82067 12.4917C4.329 13.5042 2.6665 15.9334 2.6665 18.6667C2.6665 22.35 5.64984 25.3334 9.33317 25.3334H23.3332C26.6457 25.3334 29.3332 22.6459 29.3332 19.3334C29.3332 16.7584 27.6998 14.5084 25.3207 13.6709ZM23.3332 23.3334H9.33317C6.754 23.3334 4.6665 21.2459 4.6665 18.6667C4.6665 16.3167 6.404 14.3709 8.6665 14.0459V14C8.6665 11.0542 11.054 8.66669 13.9998 8.66669C16.229 8.66669 18.1373 10.0334 18.9332 11.975C19.3998 11.575 20.004 11.3334 20.6665 11.3334C22.1373 11.3334 23.3332 12.5292 23.3332 14C23.3332 14.4917 23.1998 14.9542 22.9665 15.35C23.0873 15.3375 23.2123 15.3334 23.3332 15.3334C25.5415 15.3334 27.3332 17.125 27.3332 19.3334C27.3332 21.5417 25.5415 23.3334 23.3332 23.3334ZM15.0207 11.6042C14.8248 11.4084 14.5082 11.4084 14.3123 11.6042L9.979 15.9375C9.78317 16.1334 9.78317 16.45 9.979 16.6459L10.6832 17.35C10.879 17.5459 11.1998 17.5459 11.3957 17.3459L13.6665 15.0209V20.8334C13.6665 21.1084 13.8915 21.3334 14.1665 21.3334H15.1665C15.4415 21.3334 15.6665 21.1084 15.6665 20.8334V15.0209L17.9373 17.3459C18.1332 17.5459 18.4498 17.5459 18.6498 17.35L19.354 16.6459C19.5498 16.45 19.5498 16.1334 19.354 15.9375L15.0207 11.6042Z" fill="#474747"/>
</svg>
