<svg width="32" height="32" viewBox="0 0 32 32" fill="none" xmlns="http://www.w3.org/2000/svg">
<path d="M19.2208 14.7416C19.0583 14.5791 18.7958 14.5791 18.6333 14.7375L14.9667 18.375L13.3792 16.7708C13.2167 16.6083 12.9542 16.6083 12.7917 16.7666L11.8083 17.7416C11.6458 17.9041 11.6458 18.1666 11.8042 18.3291L14.6583 21.2083C14.8208 21.3708 15.0833 21.3708 15.2458 21.2125L20.1875 16.3125C20.35 16.15 20.35 15.8875 20.1917 15.725L19.2208 14.7416ZM22 7.99998H18.6667C18.6667 6.52915 17.4708 5.33331 16 5.33331C14.5292 5.33331 13.3333 6.52915 13.3333 7.99998H10C8.89583 7.99998 8 8.89581 8 9.99998V24.6666C8 25.7708 8.89583 26.6666 10 26.6666H22C23.1042 26.6666 24 25.7708 24 24.6666V9.99998C24 8.89581 23.1042 7.99998 22 7.99998ZM16 7.33331C16.3667 7.33331 16.6667 7.63331 16.6667 7.99998C16.6667 8.36665 16.3667 8.66665 16 8.66665C15.6333 8.66665 15.3333 8.36665 15.3333 7.99998C15.3333 7.63331 15.6333 7.33331 16 7.33331ZM22 24.3333C22 24.5166 21.85 24.6666 21.6667 24.6666H10.3333C10.15 24.6666 10 24.5166 10 24.3333V10.3333C10 10.15 10.15 9.99998 10.3333 9.99998H12V11.3333C12 11.7 12.3 12 12.6667 12H19.3333C19.7 12 20 11.7 20 11.3333V9.99998H21.6667C21.85 9.99998 22 10.15 22 10.3333V24.3333Z" fill="currentColor"/>
</svg>
