<svg width="32" height="32" viewBox="0 0 32 32" fill="none" xmlns="http://www.w3.org/2000/svg">
<path d="M19.6667 15.3333H15C14.8167 15.3333 14.6667 15.4833 14.6667 15.6666V16.3333C14.6667 16.5166 14.8167 16.6666 15 16.6666H19.6667C19.85 16.6666 20 16.5166 20 16.3333V15.6666C20 15.4833 19.85 15.3333 19.6667 15.3333ZM19.6667 19.3333H15C14.8167 19.3333 14.6667 19.4833 14.6667 19.6666V20.3333C14.6667 20.5166 14.8167 20.6666 15 20.6666H19.6667C19.85 20.6666 20 20.5166 20 20.3333V19.6666C20 19.4833 19.85 19.3333 19.6667 19.3333ZM12.6667 15C12.1125 15 11.6667 15.4458 11.6667 16C11.6667 16.5541 12.1125 17 12.6667 17C13.2208 17 13.6667 16.5541 13.6667 16C13.6667 15.4458 13.2208 15 12.6667 15ZM12.6667 19C12.1125 19 11.6667 19.4458 11.6667 20C11.6667 20.5541 12.1125 21 12.6667 21C13.2208 21 13.6667 20.5541 13.6667 20C13.6667 19.4458 13.2208 19 12.6667 19ZM22 7.99998H18.6667C18.6667 6.52915 17.4708 5.33331 16 5.33331C14.5292 5.33331 13.3333 6.52915 13.3333 7.99998H10C8.89583 7.99998 8 8.89581 8 9.99998V24.6666C8 25.7708 8.89583 26.6666 10 26.6666H22C23.1042 26.6666 24 25.7708 24 24.6666V9.99998C24 8.89581 23.1042 7.99998 22 7.99998ZM16 7.33331C16.3667 7.33331 16.6667 7.63331 16.6667 7.99998C16.6667 8.36665 16.3667 8.66665 16 8.66665C15.6333 8.66665 15.3333 8.36665 15.3333 7.99998C15.3333 7.63331 15.6333 7.33331 16 7.33331ZM22 24.3333C22 24.5166 21.85 24.6666 21.6667 24.6666H10.3333C10.15 24.6666 10 24.5166 10 24.3333V10.3333C10 10.15 10.15 9.99998 10.3333 9.99998H12V11.3333C12 11.7 12.3 12 12.6667 12H19.3333C19.7 12 20 11.7 20 11.3333V9.99998H21.6667C21.85 9.99998 22 10.15 22 10.3333V24.3333Z" fill="#474747"/>
</svg>
