<svg width="32" height="32" viewBox="0 0 32 32" fill="none" xmlns="http://www.w3.org/2000/svg">
<path d="M13.7838 14.6261C13.9134 14.4964 14.1237 14.4964 14.2534 14.6261L16 16.3727L17.7466 14.6261C17.8763 14.4964 18.0866 14.4964 18.2162 14.6261L19.3611 15.7709C19.4908 15.9006 19.4908 16.1109 19.3611 16.2406L17.6145 17.9872L19.3611 19.7338C19.4908 19.8635 19.4908 20.0737 19.3611 20.2034L18.2162 21.3483C18.0866 21.4779 17.8763 21.4779 17.7466 21.3483L16 19.6017L14.2534 21.3483C14.1237 21.478 13.9135 21.478 13.7838 21.3483L12.6389 20.2034C12.5092 20.0737 12.5092 19.8635 12.6389 19.7338L14.3855 17.9872L12.6389 16.2406C12.5092 16.1109 12.5092 15.9006 12.6389 15.7709L13.7838 14.6261Z" fill="#474747"/>
<path fill-rule="evenodd" clip-rule="evenodd" d="M18.6667 7.99998H22C23.1042 7.99998 24 8.89581 24 9.99998V24.6666C24 25.7708 23.1042 26.6666 22 26.6666H10C8.89583 26.6666 8 25.7708 8 24.6666V9.99998C8 8.89581 8.89583 7.99998 10 7.99998H13.3333C13.3333 6.52915 14.5292 5.33331 16 5.33331C17.4708 5.33331 18.6667 6.52915 18.6667 7.99998ZM16.6667 7.99998C16.6667 7.63331 16.3667 7.33331 16 7.33331C15.6333 7.33331 15.3333 7.63331 15.3333 7.99998C15.3333 8.36665 15.6333 8.66665 16 8.66665C16.3667 8.66665 16.6667 8.36665 16.6667 7.99998ZM21.6667 24.6666C21.85 24.6666 22 24.5166 22 24.3333V10.3333C22 10.15 21.85 9.99998 21.6667 9.99998H20V11.3333C20 11.7 19.7 12 19.3333 12H12.6667C12.3 12 12 11.7 12 11.3333V9.99998H10.3333C10.15 9.99998 10 10.15 10 10.3333V24.3333C10 24.5166 10.15 24.6666 10.3333 24.6666H21.6667Z" fill="#474747"/>
</svg>
