<svg width="32" height="32" viewBox="0 0 32 32" fill="none" xmlns="http://www.w3.org/2000/svg">
<path d="M26.081 16.7474C26.456 16.3723 26.6667 15.8636 26.6667 15.3332C26.6667 14.8028 26.456 14.2941 26.081 13.9191L19.4143 7.25237C19.0392 6.87732 18.5305 6.66663 18.0001 6.66663C17.4697 6.66663 16.961 6.87732 16.586 7.25237L5.91924 17.9191C5.54419 18.2942 5.3335 18.8028 5.3335 19.3333C5.3335 19.8637 5.54419 20.3724 5.91924 20.7474L9.91926 24.7474C10.2943 25.1225 10.803 25.3333 11.3334 25.3333H26.1668C26.2994 25.3333 26.4266 25.2806 26.5204 25.1868C26.6142 25.0931 26.6668 24.9659 26.6668 24.8333V23.8333C26.6668 23.7007 26.6142 23.5735 26.5204 23.4797C26.4266 23.386 26.2994 23.3333 26.1668 23.3333H19.4951L26.081 16.7474ZM18.0001 8.66654L24.6668 15.3332L20.3751 19.6249L13.7084 12.9582L18.0001 8.66654ZM11.3334 23.3333L7.33341 19.3333L12.2918 14.3749L18.9585 21.0416L16.6668 23.3333H11.3334Z" fill="#474747"/>
</svg>
