<svg width="32" height="32" viewBox="0 0 32 32" fill="none" xmlns="http://www.w3.org/2000/svg">
<path d="M13.7854 26.654L12.1688 26.1832C11.9938 26.1332 11.8896 25.9457 11.9396 25.7707L17.8062 5.57484C17.8562 5.39984 18.0438 5.29567 18.2188 5.34567L19.8354 5.81651C20.0104 5.86651 20.1146 6.05401 20.0646 6.22901L14.1979 26.4248C14.1479 26.604 13.9646 26.704 13.7854 26.654ZM10.3188 21.6082L11.4521 20.3998C11.5813 20.2623 11.5688 20.0457 11.4313 19.9207L7.01042 15.9998L11.4313 12.079C11.5729 11.954 11.5813 11.7373 11.4521 11.5998L10.3188 10.3915C10.1938 10.2582 9.98125 10.2498 9.84792 10.3748L4.10625 15.7582C3.96458 15.8915 3.96458 16.1123 4.10625 16.2457L9.84792 21.6248C9.98125 21.7498 10.1896 21.7415 10.3188 21.6082ZM22.1562 21.6248L27.8938 16.2457C28.0354 16.1123 28.0354 15.8915 27.8938 15.7582L22.1562 10.3748C22.0229 10.2498 21.8104 10.254 21.6854 10.3915L20.5521 11.5998C20.4229 11.7373 20.4354 11.954 20.5729 12.079L24.9937 15.9998L20.5729 19.9207C20.4312 20.0457 20.4229 20.2623 20.5521 20.3998L21.6854 21.6082C21.8146 21.7415 22.0229 21.7498 22.1562 21.6248Z" fill="currentColor"/>
</svg>
