<svg width="32" height="32" viewBox="0 0 32 32" fill="none" xmlns="http://www.w3.org/2000/svg">
<path d="M24.7474 8.08092L22.5856 5.91917C22.2106 5.54409 21.7019 5.33338 21.1714 5.33337H13.9998C12.8953 5.33337 11.9998 6.22879 11.9998 7.33337V9.33337H8.6665C7.56192 9.33337 6.6665 10.2288 6.6665 11.3334V24.6667C6.6665 25.7713 7.56192 26.6667 8.6665 26.6667H17.9998C19.1044 26.6667 19.9998 25.7713 19.9998 24.6667V22.6667H23.3332C24.4378 22.6667 25.3332 21.7713 25.3332 20.6667V9.49512C25.3332 8.96469 25.1225 8.45599 24.7474 8.08092ZM17.7498 24.6667H8.9165C8.8502 24.6667 8.78661 24.6404 8.73973 24.5935C8.69284 24.5466 8.6665 24.483 8.6665 24.4167V11.5834C8.6665 11.5171 8.69284 11.4535 8.73973 11.4066C8.78661 11.3597 8.8502 11.3334 8.9165 11.3334H11.9998V20.6667C11.9998 21.7713 12.8953 22.6667 13.9998 22.6667H17.9998V24.4167C17.9998 24.483 17.9735 24.5466 17.9266 24.5935C17.8797 24.6404 17.8161 24.6667 17.7498 24.6667ZM23.0832 20.6667H14.2498C14.1835 20.6667 14.1199 20.6404 14.0731 20.5935C14.0262 20.5466 13.9998 20.483 13.9998 20.4167V7.58337C13.9998 7.51707 14.0262 7.45348 14.0731 7.4066C14.1199 7.35971 14.1835 7.33337 14.2498 7.33337H18.6665V11C18.6665 11.5523 19.1142 12 19.6665 12H23.3332V20.4167C23.3332 20.483 23.3068 20.5466 23.2599 20.5935C23.2131 20.6404 23.1495 20.6667 23.0832 20.6667ZM23.3332 10H20.6665V7.33337H21.0678C21.1341 7.33337 21.1977 7.35971 21.2446 7.40658L23.26 9.42192C23.2832 9.44513 23.3016 9.4727 23.3141 9.50303C23.3267 9.53336 23.3332 9.56588 23.3332 9.59871V10Z" fill="#474747"/>
</svg>
