<svg width="32" height="32" viewBox="0 0 32 32" fill="none" xmlns="http://www.w3.org/2000/svg">
<path d="M11.7129 25.2538C10.7212 25.2538 9.97961 25.1079 9.31714 24.9413C8.87549 24.8288 8.56301 24.4288 8.56301 23.9705V22.6497C8.17136 22.4664 7.79638 22.2497 7.44223 21.9997L6.32978 22.6414C5.9298 22.8747 5.41732 22.7997 5.10067 22.4622C3.62574 20.8956 3.25909 20.0207 2.71745 18.3582C2.56745 17.9041 2.76328 17.4125 3.17576 17.175L4.29237 16.55C4.25487 16.1208 4.25487 15.6875 4.29237 15.2542L3.17576 14.6251C2.75911 14.3918 2.56745 13.8959 2.71745 13.4418C3.26325 11.7752 3.6299 10.9044 5.10067 9.33782C5.41732 9.00034 5.92563 8.92534 6.32978 9.15867L7.44223 9.8003C7.79638 9.55031 8.17136 9.33366 8.56301 9.15033V7.89206C8.56301 7.42958 8.87966 7.02543 9.32964 6.92127C11.1712 6.48379 12.2462 6.48379 14.0919 6.92127C14.5419 7.0296 14.8586 7.42958 14.8586 7.89206V9.15867C15.2502 9.34199 15.6252 9.55865 15.9793 9.80864L17.0918 9.167C17.4959 8.93368 18.0042 9.01284 18.3251 9.35032C19.4125 10.5128 20.3416 11.7877 20.6916 13.5293C20.7749 13.9376 20.5916 14.3543 20.2375 14.5751L19.1292 15.2625C19.1667 15.6917 19.1667 16.125 19.1292 16.5583L20.2375 17.2458C20.5875 17.4624 20.7749 17.8791 20.6916 18.2832C20.3541 19.9707 19.4583 21.2539 18.3209 22.4747C18.0042 22.8122 17.4959 22.8872 17.0918 22.6539L15.9793 22.0122C15.6252 22.2622 15.2502 22.4789 14.8586 22.6622V23.983C14.8586 24.4413 14.5502 24.8413 14.1044 24.9538C13.4461 25.1121 12.7045 25.2538 11.7129 25.2538ZM10.5629 23.1414C11.3254 23.2622 12.1003 23.2622 12.8586 23.1414V21.2748L13.5253 21.0373C14.1586 20.8123 14.7377 20.479 15.246 20.0415L15.7835 19.5832L17.4001 20.5165C17.8876 19.9165 18.2751 19.2457 18.55 18.5291L16.9335 17.5958L17.0626 16.9C17.1834 16.2375 17.1834 15.5667 17.0626 14.9042L16.9335 14.2084L18.55 13.2751C18.2751 12.5585 17.8876 11.8877 17.4001 11.2877L15.7835 12.221L15.246 11.7627C14.7336 11.3252 14.1544 10.9877 13.5253 10.7669L12.8586 10.5294V8.66702C12.0962 8.54619 11.3212 8.54619 10.5629 8.66702V10.5336L9.89628 10.7711C9.26298 10.9961 8.68384 11.3294 8.17553 11.7669L7.63805 12.2252L6.02146 11.2919C5.53398 11.8919 5.1465 12.5627 4.87151 13.2793L6.4881 14.2126L6.35894 14.9084C6.23812 15.5709 6.23812 16.2417 6.35894 16.9041L6.4881 17.5999L4.87151 18.5332C5.1465 19.2499 5.53398 19.9248 6.02146 20.5206L7.63805 19.5874L8.17553 20.0457C8.688 20.4831 9.26714 20.8206 9.89628 21.0414L10.5629 21.2789V23.1414ZM11.692 19.5957C10.7504 19.5957 9.80878 19.2374 9.09215 18.5207C7.65888 17.0875 7.65888 14.7542 9.09215 13.321C10.5254 11.8877 12.8586 11.8877 14.2919 13.321C15.7252 14.7542 15.7252 17.0875 14.2919 18.5207C13.5711 19.2374 12.6295 19.5957 11.692 19.5957ZM11.692 14.2459C11.2629 14.2459 10.8337 14.4084 10.5046 14.7376C9.85045 15.3917 9.85045 16.4542 10.5046 17.1083C11.1587 17.7624 12.2212 17.7624 12.8753 17.1083C13.5294 16.4542 13.5294 15.3917 12.8753 14.7376C12.5503 14.4084 12.1212 14.2459 11.692 14.2459ZM29.2704 8.87534C29.2287 8.63369 29.0204 8.4587 28.7746 8.4587H28.1038C27.9579 8.04622 27.7371 7.66707 27.458 7.34208L27.7913 6.76294C27.9121 6.55045 27.8663 6.27963 27.6788 6.12547C27.2913 5.80465 26.8538 5.54633 26.3747 5.36717C26.1455 5.27968 25.883 5.37134 25.7622 5.588L25.4289 6.16714C25.0039 6.08797 24.5664 6.08797 24.1415 6.16714L23.8081 5.588C23.6831 5.37551 23.4248 5.28384 23.1957 5.36717C22.7165 5.54633 22.2749 5.80465 21.8874 6.12547C21.6999 6.27963 21.6499 6.55045 21.7749 6.76294L22.1082 7.34208C21.8291 7.66707 21.6082 8.04622 21.4624 8.4587H20.7916C20.5458 8.4587 20.3333 8.63786 20.2958 8.88368C20.2125 9.39199 20.2166 9.90446 20.2958 10.3919C20.3375 10.6336 20.5458 10.8086 20.7916 10.8086H21.4624C21.6082 11.2211 21.8291 11.6002 22.1082 11.9252L21.7749 12.5043C21.6541 12.7168 21.6999 12.9877 21.8874 13.1418C22.2749 13.4626 22.7165 13.721 23.1957 13.9001C23.4248 13.9876 23.6873 13.8959 23.8081 13.6793L24.1415 13.1001C24.5664 13.1793 25.0039 13.1793 25.4289 13.1001L25.7622 13.6793C25.8872 13.8918 26.1455 13.9834 26.3747 13.9001C26.8538 13.721 27.2955 13.4626 27.683 13.1418C27.8705 12.9877 27.9204 12.7168 27.7955 12.5043L27.4621 11.9252C27.7413 11.6002 27.9621 11.2211 28.1079 10.8086H28.7787C29.0246 10.8086 29.2371 10.6294 29.2746 10.3836C29.3537 9.8753 29.3537 9.36699 29.2704 8.87534ZM24.7789 10.9669C24.0415 10.9669 23.4457 10.3711 23.4457 9.63364C23.4457 8.89618 24.0415 8.30037 24.7789 8.30037C25.5164 8.30037 26.1122 8.89618 26.1122 9.63364C26.1122 10.3711 25.5164 10.9669 24.7789 10.9669ZM29.2704 21.6081C29.2287 21.3664 29.0204 21.1914 28.7746 21.1914H28.1038C27.9579 20.779 27.7371 20.3998 27.458 20.0748L27.7913 19.4957C27.9121 19.2832 27.8663 19.0124 27.6788 18.8582C27.2913 18.5374 26.8497 18.2791 26.3705 18.0999C26.1414 18.0124 25.8789 18.1041 25.758 18.3207L25.4247 18.8999C24.9998 18.8207 24.5623 18.8207 24.1373 18.8999L23.804 18.3207C23.679 18.1083 23.4207 18.0166 23.1915 18.0999C22.7124 18.2791 22.2707 18.5374 21.8832 18.8582C21.6957 19.0124 21.6457 19.2832 21.7707 19.4957L22.104 20.0748C21.8249 20.3998 21.6041 20.779 21.4582 21.1914H20.7874C20.5416 21.1914 20.3291 21.3706 20.2916 21.6164C20.2083 22.1247 20.2125 22.6372 20.2916 23.1247C20.3333 23.3663 20.5416 23.5413 20.7874 23.5413H21.4582C21.6041 23.9538 21.8249 24.333 22.104 24.6579L21.7707 25.2371C21.6499 25.4496 21.6957 25.7204 21.8832 25.8746C22.2707 26.1954 22.7124 26.4537 23.1915 26.6329C23.4207 26.7204 23.6831 26.6287 23.804 26.412L24.1373 25.8329C24.5623 25.9121 24.9998 25.9121 25.4247 25.8329L25.758 26.412C25.883 26.6245 26.1414 26.7162 26.3705 26.6329C26.8497 26.4537 27.2913 26.1954 27.6788 25.8746C27.8663 25.7204 27.9163 25.4496 27.7913 25.2371L27.458 24.6579C27.7371 24.333 27.9579 23.9538 28.1038 23.5413H28.7746C29.0204 23.5413 29.2329 23.3622 29.2704 23.1164C29.3537 22.6122 29.3537 22.0997 29.2704 21.6081ZM24.7789 23.6997C24.0415 23.6997 23.4457 23.1039 23.4457 22.3664C23.4457 21.6289 24.0415 21.0331 24.7789 21.0331C25.5164 21.0331 26.1122 21.6289 26.1122 22.3664C26.1122 23.1039 25.5164 23.6997 24.7789 23.6997Z" fill="currentColor"/>
</svg>
