<svg width="32" height="32" viewBox="0 0 32 32" fill="none" xmlns="http://www.w3.org/2000/svg">
<path d="M16.0001 14.9999V11.0414C16.0001 10.1505 17.0772 9.70431 17.7072 10.3343L18.8615 11.4886L23.5371 6.81306C23.7323 6.61781 24.0489 6.61781 24.2442 6.81306L25.187 7.75586C25.3822 7.95111 25.3822 8.26769 25.187 8.46298L20.5114 13.1385L21.6657 14.2929C22.2957 14.9228 21.8495 15.9999 20.9586 15.9999H17.0001C16.4478 15.9999 16.0001 15.5522 16.0001 14.9999ZM8.46306 25.1868L13.1386 20.5113L14.2929 21.6656C14.9229 22.2956 16.0001 21.8494 16.0001 20.9585V16.9999C16.0001 16.4476 15.5524 15.9999 15.0001 15.9999H11.0415C10.1506 15.9999 9.70444 17.0771 10.3344 17.7071L11.4887 18.8614L6.81319 23.5369C6.61794 23.7322 6.61794 24.0488 6.81319 24.2441L7.75598 25.1869C7.95123 25.3821 8.26781 25.3821 8.46306 25.1868Z" fill="#474747"/>
</svg>
