<svg width="32" height="32" viewBox="0 0 32 32" fill="none" xmlns="http://www.w3.org/2000/svg">
<path d="M24.7211 15.1828L26.1342 14.3922C26.5525 14.1582 26.7553 13.6807 26.6302 13.2286C26.1241 11.3993 25.1284 9.76418 23.7875 8.46311C23.4466 8.13244 22.9188 8.06543 22.5012 8.29919L21.0906 9.08878C20.6324 8.77097 20.1434 8.497 19.6306 8.27072V6.68994C19.6306 6.46226 19.553 6.24096 19.4098 6.06046C19.2666 5.87996 19.0659 5.75037 18.8388 5.69183C16.9856 5.21411 15.0171 5.21351 13.1616 5.69179C12.6948 5.81214 12.3697 6.22173 12.3697 6.6899V8.27068C11.8569 8.49695 11.3679 8.77093 10.9097 9.08874L9.49916 8.29915C9.08157 8.06539 8.55369 8.1324 8.21287 8.46306C6.87195 9.76414 5.8762 11.3992 5.37011 13.2285C5.24501 13.6807 5.44782 14.1581 5.86612 14.3921L7.27925 15.1828C7.22511 15.7263 7.22511 16.2737 7.27925 16.8172L5.86612 17.6078C5.44782 17.8418 5.24501 18.3193 5.37011 18.7714C5.8762 20.6007 6.87195 22.2358 8.21287 23.5369C8.55369 23.8675 9.08157 23.9346 9.49916 23.7008L10.9097 22.9112C11.3679 23.229 11.8569 23.503 12.3697 23.7292V25.31C12.3697 25.5377 12.4474 25.759 12.5906 25.9395C12.7338 26.12 12.9345 26.2496 13.1615 26.3081C15.0148 26.7858 16.9832 26.7865 18.8387 26.3082C19.3056 26.1878 19.6306 25.7782 19.6306 25.31V23.7293C20.1434 23.503 20.6324 23.229 21.0906 22.9112L22.5012 23.7008C22.9188 23.9346 23.4466 23.8676 23.7875 23.5369C25.1284 22.2358 26.1241 20.6008 26.6302 18.7715C26.7553 18.3193 26.5525 17.8419 26.1342 17.6078L24.7211 16.8172C24.7752 16.2731 24.7752 15.7269 24.7211 15.1828ZM22.3833 17.8933L24.3279 18.981C23.9781 19.8966 23.4701 20.7479 22.8257 21.4983L20.8807 20.4098C19.4613 21.5881 19.2539 21.7034 17.5005 22.3035V24.4798C16.5075 24.6441 15.4929 24.6441 14.4998 24.4798V22.3035C12.7467 21.7035 12.5385 21.5877 11.1196 20.4098L9.17458 21.4983C8.5302 20.7479 8.02224 19.8966 7.67244 18.981L9.61703 17.8933C9.27843 16.117 9.27825 15.8839 9.61703 14.1067L7.67244 13.019C8.0208 12.1059 8.52937 11.2535 9.17458 10.5016L11.1196 11.5902C12.539 10.4118 12.7465 10.2965 14.4998 9.69648V7.52022C15.4929 7.35592 16.5075 7.35592 17.5005 7.52022V9.69653C19.2536 10.2965 19.4619 10.4123 20.8807 11.5902L22.8257 10.5017C23.4701 11.2522 23.9781 12.1034 24.3279 13.0191L22.3833 14.1068C22.7219 15.8831 22.7221 16.1161 22.3833 17.8933ZM16.0002 11.871C13.651 11.871 11.7399 13.7232 11.7399 16C11.7399 18.2768 13.651 20.1291 16.0002 20.1291C18.3493 20.1291 20.2604 18.2768 20.2604 16C20.2604 13.7232 18.3493 11.871 16.0002 11.871ZM16.0002 18.0645C14.8256 18.0645 13.87 17.1384 13.87 16C13.87 14.8616 14.8256 13.9355 16.0002 13.9355C17.1748 13.9355 18.1303 14.8616 18.1303 16C18.1303 17.1384 17.1748 18.0645 16.0002 18.0645Z" fill="#474747"/>
</svg>
