<svg width="32" height="32" viewBox="0 0 32 32" fill="none" xmlns="http://www.w3.org/2000/svg">
<path d="M18.6666 5.33331C14.2499 5.33331 10.6666 6.82498 10.6666 8.66665V10.8583C7.56242 11.3166 5.33325 12.55 5.33325 14V23.3333C5.33325 25.175 8.91659 26.6666 13.3333 26.6666C17.7499 26.6666 21.3333 25.175 21.3333 23.3333V21.1375C24.4374 20.6791 26.6666 19.45 26.6666 18V8.66665C26.6666 6.82498 23.0833 5.33331 18.6666 5.33331ZM19.3333 23.1791C18.9166 23.6666 16.8166 24.6666 13.3333 24.6666C9.84992 24.6666 7.74992 23.6666 7.33325 23.1791V21.5333C8.79992 22.225 10.9416 22.6666 13.3333 22.6666C15.7249 22.6666 17.8666 22.225 19.3333 21.5333V23.1791ZM19.3333 19.1791C18.9166 19.6666 16.8166 20.6666 13.3333 20.6666C9.84992 20.6666 7.74992 19.6666 7.33325 19.1791V17.3083C8.79992 18.1416 10.9416 18.6666 13.3333 18.6666C15.7249 18.6666 17.8666 18.1375 19.3333 17.3083V19.1791ZM13.3333 16.6666C10.0208 16.6666 7.33325 15.7708 7.33325 14.6666C7.33325 13.5625 10.0208 12.6666 13.3333 12.6666C16.6458 12.6666 19.3333 13.5625 19.3333 14.6666C19.3333 15.7708 16.6458 16.6666 13.3333 16.6666ZM24.6666 17.8458C24.3708 18.1916 23.2124 18.7875 21.3333 19.1125V17.125C22.6249 16.9333 23.7791 16.6208 24.6666 16.2V17.8458ZM24.6666 13.8458C24.3708 14.1916 23.2124 14.7875 21.3333 15.1125V14C21.3333 13.7 21.2291 13.4083 21.0499 13.1291C22.4583 12.9083 23.7166 12.5125 24.6666 11.9708V13.8458ZM18.6666 11.3333C18.4583 11.3333 18.2583 11.3208 18.0541 11.3125C16.9708 10.9833 15.6874 10.7625 14.2874 10.6916C13.2916 10.3333 12.6666 9.85831 12.6666 9.33331C12.6666 8.22915 15.3541 7.33331 18.6666 7.33331C21.9791 7.33331 24.6666 8.22915 24.6666 9.33331C24.6666 10.4375 21.9791 11.3333 18.6666 11.3333Z" fill="#474747"/>
</svg>
