<svg width="32" height="32" viewBox="0 0 32 32" fill="none" xmlns="http://www.w3.org/2000/svg">
<path d="M23.9999 5.33331H7.99992C6.52909 5.33331 5.33325 6.52915 5.33325 7.99998V20C5.33325 21.4708 6.52909 22.6666 7.99992 22.6666H11.9999V26.1666C11.9999 26.4625 12.2416 26.6666 12.4999 26.6666C12.5999 26.6666 12.7041 26.6375 12.7958 26.5666L17.9999 22.6666H23.9999C25.4708 22.6666 26.6666 21.4708 26.6666 20V7.99998C26.6666 6.52915 25.4708 5.33331 23.9999 5.33331ZM24.6666 20C24.6666 20.3666 24.3666 20.6666 23.9999 20.6666H17.3333L16.7999 21.0666L13.9999 23.1666V20.6666H7.99992C7.63325 20.6666 7.33325 20.3666 7.33325 20V7.99998C7.33325 7.63331 7.63325 7.33331 7.99992 7.33331H23.9999C24.3666 7.33331 24.6666 7.63331 24.6666 7.99998V20ZM20.6666 11H11.3333C10.9666 11 10.6666 11.3 10.6666 11.6666V12.3333C10.6666 12.7 10.9666 13 11.3333 13H20.6666C21.0333 13 21.3333 12.7 21.3333 12.3333V11.6666C21.3333 11.3 21.0333 11 20.6666 11ZM16.6666 15H11.3333C10.9666 15 10.6666 15.3 10.6666 15.6666V16.3333C10.6666 16.7 10.9666 17 11.3333 17H16.6666C17.0333 17 17.3333 16.7 17.3333 16.3333V15.6666C17.3333 15.3 17.0333 15 16.6666 15Z" fill="currentColor"/>
</svg>
