<svg width="32" height="32" viewBox="0 0 32 32" fill="none" xmlns="http://www.w3.org/2000/svg">
<path d="M23.9999 5.33331H7.99992C6.52909 5.33331 5.33325 6.52915 5.33325 7.99998V20C5.33325 21.4708 6.52909 22.6666 7.99992 22.6666H11.9999V26.1666C11.9999 26.4625 12.2416 26.6666 12.4999 26.6666C12.5999 26.6666 12.7041 26.6375 12.7958 26.5666L17.9999 22.6666H23.9999C25.4708 22.6666 26.6666 21.4708 26.6666 20V7.99998C26.6666 6.52915 25.4708 5.33331 23.9999 5.33331ZM24.6666 20C24.6666 20.3666 24.3666 20.6666 23.9999 20.6666H17.3333L16.7999 21.0666L13.9999 23.1666V20.6666H7.99992C7.63325 20.6666 7.33325 20.3666 7.33325 20V7.99998C7.33325 7.63331 7.63325 7.33331 7.99992 7.33331H23.9999C24.3666 7.33331 24.6666 7.63331 24.6666 7.99998V20ZM12.2041 15.4666L12.0041 17.25C11.9791 17.4875 12.1791 17.6916 12.4208 17.6666L14.2041 17.4666L17.7666 13.9041L15.7666 11.9041L12.2041 15.4666ZM18.8416 9.88748C18.5499 9.59581 18.0749 9.59581 17.7833 9.88748L16.6041 11.0666L18.6041 13.0666L19.7833 11.8875C20.0749 11.5958 20.0749 11.1208 19.7833 10.8291L18.8416 9.88748Z" fill="currentColor"/>
</svg>
