<svg width="32" height="32" viewBox="0 0 32 32" fill="none" xmlns="http://www.w3.org/2000/svg">
<path d="M26.1643 21.4243C27.31 20.2953 27.9974 18.8788 27.9974 17.3332C27.9974 14.0002 24.8103 11.2464 20.6566 10.7548C19.3443 8.35508 16.2613 6.66779 12.6659 6.66779C7.87898 6.66779 4.00028 9.65076 4.00028 13.3337C4.00028 14.8751 4.6877 16.2916 5.83339 17.4248C5.19597 18.7038 4.27941 19.6954 4.26275 19.7121C4.00028 19.9912 3.92529 20.3995 4.07944 20.7536C4.22942 21.1077 4.57938 21.3369 4.96267 21.3369C7.19156 21.3369 8.99135 20.4953 10.1787 19.7204C10.562 19.8079 10.9578 19.8745 11.3619 19.9245C12.6701 22.3159 15.7405 23.999 19.3318 23.999C20.1983 23.999 21.0316 23.8991 21.8231 23.7157C23.0105 24.4865 24.8061 25.3322 27.0392 25.3322C27.4225 25.3322 27.7683 25.1031 27.9224 24.7489C28.0724 24.3948 28.0016 23.9865 27.7391 23.7074C27.7224 23.6949 26.8017 22.7034 26.1643 21.4243ZM9.79958 17.579L9.08717 18.0414C8.49974 18.4205 7.89981 18.7205 7.29155 18.933C7.40404 18.7372 7.51653 18.5289 7.62485 18.3164L8.2706 17.0207L7.23739 16C6.67496 15.4417 6.00004 14.5293 6.00004 13.3337C6.00004 10.8048 9.05384 8.66755 12.6659 8.66755C16.278 8.66755 19.3318 10.8048 19.3318 13.3337C19.3318 15.8625 16.278 17.9998 12.6659 17.9998C11.9785 17.9998 11.2911 17.9206 10.6245 17.7665L9.79958 17.579ZM24.7603 19.9995L23.7312 21.0161L24.377 22.3117C24.4853 22.5242 24.5978 22.7325 24.7103 22.9283C24.102 22.7159 23.5021 22.4159 22.9147 22.0368L22.2023 21.5743L21.3732 21.766C20.7066 21.9201 20.0192 21.9993 19.3318 21.9993C17.082 21.9993 15.074 21.1619 13.8616 19.9287C18.0819 19.4787 21.3315 16.7041 21.3315 13.3337C21.3315 13.192 21.3149 13.0545 21.3024 12.917C23.9854 13.5211 25.9976 15.2834 25.9976 17.3332C25.9976 18.5289 25.3227 19.4413 24.7603 19.9995Z" fill="currentColor"/>
</svg>
