<svg width="32" height="32" viewBox="0 0 32 32" fill="none" xmlns="http://www.w3.org/2000/svg">
<path d="M25.9958 6.66669H6.00417C4.89583 6.66669 4 7.56252 4 8.66669V23.3334C4 24.4375 4.89583 25.3334 6.00417 25.3334H25.9958C27.1042 25.3334 28 24.4375 28 23.3334V8.66669C28 7.56252 27.1042 6.66669 25.9958 6.66669ZM6.25417 8.66669H25.7458C25.8833 8.66669 25.9958 8.77919 25.9958 8.91669V10.6667H6.00417V8.91669C6.00417 8.77919 6.11667 8.66669 6.25417 8.66669ZM25.7458 23.3334H6.25417C6.11667 23.3334 6.00417 23.2209 6.00417 23.0834V16H25.9958V23.0834C25.9958 23.2209 25.8833 23.3334 25.7458 23.3334ZM12 19.1667V20.8334C12 21.1084 11.775 21.3334 11.5 21.3334H8.5C8.225 21.3334 8 21.1084 8 20.8334V19.1667C8 18.8917 8.225 18.6667 8.5 18.6667H11.5C11.775 18.6667 12 18.8917 12 19.1667ZM20 19.1667V20.8334C20 21.1084 19.775 21.3334 19.5 21.3334H13.8333C13.5583 21.3334 13.3333 21.1084 13.3333 20.8334V19.1667C13.3333 18.8917 13.5583 18.6667 13.8333 18.6667H19.5C19.775 18.6667 20 18.8917 20 19.1667Z" fill="#474747"/>
</svg>
