<svg width="32" height="32" viewBox="0 0 32 32" fill="none" xmlns="http://www.w3.org/2000/svg">
<path d="M26.2756 15.055L16.9452 5.72456C16.6843 5.46373 16.3422 5.33331 16.0002 5.33331C15.6581 5.33331 15.316 5.46373 15.0552 5.72456L5.72475 15.055C5.20308 15.5771 5.20308 16.4229 5.72475 16.945L15.0552 26.2754C15.316 26.5362 15.6581 26.6666 16.0002 26.6666C16.3422 26.6666 16.6843 26.5362 16.9452 26.2754L26.2756 16.945C26.7972 16.4229 26.7972 15.5771 26.2756 15.055ZM16.0002 24.3916L7.6085 16L16.0002 7.60831L24.3918 16L16.0002 24.3916ZM12.0002 15.6666V19C12.0002 19.1841 12.1493 19.3333 12.3335 19.3333H13.6668C13.851 19.3333 14.0002 19.1841 14.0002 19V16.3333H17.3335V18.5721C17.3335 18.7721 17.4972 18.9062 17.6689 18.9062C17.7468 18.9062 17.8264 18.8787 17.8931 18.8171L21.4018 15.5783C21.5447 15.4462 21.5447 15.2204 21.4018 15.0883L17.8931 11.8496C17.8264 11.7883 17.7468 11.7604 17.6689 11.7604C17.4972 11.7604 17.3335 11.8946 17.3335 12.0946V14.3333H13.3335C12.5972 14.3333 12.0002 14.9304 12.0002 15.6666Z" fill="currentColor"/>
</svg>
