<svg width="32" height="32" viewBox="0 0 32 32" fill="none" xmlns="http://www.w3.org/2000/svg">
<path d="M19.1431 15.3484L13.7594 13.7922C13.028 13.5812 12.4355 12.9859 12.3197 12.2219C12.1392 11.0312 13.0511 10 14.1945 10H17.6109C18.3469 10 19.0691 10.2344 19.6662 10.6609C19.9625 10.8719 20.3606 10.8391 20.6152 10.5812L21.6753 9.50781C21.9901 9.18906 21.9577 8.65469 21.6058 8.37813C20.4624 7.48281 19.0737 7 17.6109 7H17.4813V4.75C17.4813 4.3375 17.148 4 16.7406 4H15.2593C14.8519 4 14.5186 4.3375 14.5186 4.75V7H14.4029C12.1253 7 10.0237 8.49063 9.47742 10.7313C8.83396 13.3656 10.4125 15.9437 12.8567 16.6516L18.2404 18.2078C18.9718 18.4188 19.5644 19.0141 19.6801 19.7781C19.8606 20.9688 18.9487 22 17.8053 22H14.389C13.6529 22 12.9308 21.7656 12.3336 21.3391C12.0373 21.1281 11.6392 21.1609 11.3846 21.4188L10.3246 22.4922C10.0098 22.8109 10.0422 23.3453 10.394 23.6219C11.5328 24.5172 12.9215 25 14.389 25H14.5186V27.25C14.5186 27.6625 14.8519 28 15.2593 28H16.7406C17.148 28 17.4813 27.6625 17.4813 27.25V25H17.597C19.8745 25 21.9762 23.5094 22.5224 21.2687C23.1659 18.6344 21.5873 16.0563 19.1431 15.3484Z" fill="#474747"/>
</svg>
