<svg width="32" height="32" viewBox="0 0 32 32" fill="none" xmlns="http://www.w3.org/2000/svg">
<path d="M26 17.3333H22.1625L24.0833 15.4125C25.3375 14.1583 24.45 12 22.6708 12H20.0042V7.33331C20.0042 6.22915 19.1083 5.33331 18.0042 5.33331H14.0042C12.9 5.33331 12.0042 6.22915 12.0042 7.33331V12H9.3375C7.5625 12 6.6625 14.1541 7.925 15.4125L9.84583 17.3333H6C4.89583 17.3333 4 18.2291 4 19.3333V24.6666C4 25.7708 4.89583 26.6666 6 26.6666H26C27.1042 26.6666 28 25.7708 28 24.6666V19.3333C28 18.2291 27.1042 17.3333 26 17.3333ZM9.33333 14H14V7.33331H18V14H22.6667L16 20.6666L9.33333 14ZM26 24.6666H6V19.3333H11.8375L14.5833 22.0791C15.3667 22.8625 16.6292 22.8583 17.4125 22.0791L20.1583 19.3333H26V24.6666ZM22.3333 22C22.3333 21.4458 22.7792 21 23.3333 21C23.8875 21 24.3333 21.4458 24.3333 22C24.3333 22.5541 23.8875 23 23.3333 23C22.7792 23 22.3333 22.5541 22.3333 22Z" fill="#474747"/>
</svg>
