<svg width="32" height="32" viewBox="0 0 32 32" fill="none" xmlns="http://www.w3.org/2000/svg">
<path d="M20.7629 19.7052L22.0962 18.372C22.3046 18.1637 22.6671 18.3095 22.6671 18.6095V24.6669C22.6671 25.7709 21.7712 26.6666 20.667 26.6666H6.00004C4.89585 26.6666 4 25.7709 4 24.6669V10.0024C4 8.89842 4.89585 8.00271 6.00004 8.00271H17.3961C17.692 8.00271 17.842 8.36099 17.6336 8.57346L16.3003 9.9066C16.2378 9.96909 16.1544 10.0024 16.0628 10.0024H6.00004V24.6669H20.667V19.9385C20.667 19.851 20.7004 19.7677 20.7629 19.7052ZM27.288 11.2981L16.3461 22.2381L12.5794 22.6547C11.4877 22.7756 10.5585 21.8549 10.6793 20.755L11.096 16.9889L22.0379 6.04883C22.9921 5.09481 24.5338 5.09481 25.4838 6.04883L27.2838 7.84857C28.238 8.8026 28.238 10.3482 27.288 11.2981ZM23.1712 12.5854L20.7504 10.1649L13.0085 17.9096L12.7044 20.63L15.4252 20.3259L23.1712 12.5854ZM25.8713 9.26503L24.0713 7.46529C23.9004 7.29448 23.6213 7.29448 23.4546 7.46529L22.1671 8.7526L24.5879 11.1731L25.8755 9.88577C26.0421 9.7108 26.0421 9.43584 25.8713 9.26503Z" fill="currentColor"/>
</svg>
