<svg width="32" height="32" viewBox="0 0 32 32" fill="none" xmlns="http://www.w3.org/2000/svg">
<path d="M15.9999 13.3333C17.4721 13.3333 18.6666 14.5278 18.6666 16C18.6666 17.4722 17.4721 18.6667 15.9999 18.6667C14.5277 18.6667 13.3333 17.4722 13.3333 16C13.3333 14.5278 14.5277 13.3333 15.9999 13.3333ZM13.3333 6.66667C13.3333 8.13889 14.5277 9.33333 15.9999 9.33333C17.4721 9.33333 18.6666 8.13889 18.6666 6.66667C18.6666 5.19444 17.4721 4 15.9999 4C14.5277 4 13.3333 5.19444 13.3333 6.66667ZM13.3333 25.3333C13.3333 26.8056 14.5277 28 15.9999 28C17.4721 28 18.6666 26.8056 18.6666 25.3333C18.6666 23.8611 17.4721 22.6667 15.9999 22.6667C14.5277 22.6667 13.3333 23.8611 13.3333 25.3333Z" fill="#474747"/>
</svg>
