<svg width="32" height="32" viewBox="0 0 32 32" fill="none" xmlns="http://www.w3.org/2000/svg">
<path d="M18.6667 16C18.6667 17.4722 17.4722 18.6666 16 18.6666C14.5278 18.6666 13.3333 17.4722 13.3333 16C13.3333 14.5278 14.5278 13.3333 16 13.3333C17.4722 13.3333 18.6667 14.5278 18.6667 16ZM25.3333 13.3333C23.8611 13.3333 22.6667 14.5278 22.6667 16C22.6667 17.4722 23.8611 18.6666 25.3333 18.6666C26.8056 18.6666 28 17.4722 28 16C28 14.5278 26.8056 13.3333 25.3333 13.3333ZM6.66667 13.3333C5.19444 13.3333 4 14.5278 4 16C4 17.4722 5.19444 18.6666 6.66667 18.6666C8.13889 18.6666 9.33333 17.4722 9.33333 16C9.33333 14.5278 8.13889 13.3333 6.66667 13.3333Z" fill="currentColor"/>
</svg>
