<svg width="32" height="32" viewBox="0 0 32 32" fill="none" xmlns="http://www.w3.org/2000/svg">
<path d="M24.6666 8H7.33325C6.22867 8 5.33325 8.89542 5.33325 10V22C5.33325 23.1046 6.22867 24 7.33325 24H24.6666C25.7712 24 26.6666 23.1046 26.6666 22V10C26.6666 8.89542 25.7712 8 24.6666 8ZM24.6666 10V11.7002C23.7323 12.461 22.2429 13.644 19.0588 16.1373C18.3571 16.6893 16.9671 18.0153 15.9999 17.9998C15.0329 18.0155 13.6425 16.689 12.941 16.1373C9.75742 13.6444 8.26763 12.4611 7.33325 11.7002V10H24.6666ZM7.33325 22V14.2666C8.288 15.027 9.64196 16.0942 11.7057 17.7102C12.6164 18.427 14.2113 20.0096 15.9999 20C17.7798 20.0096 19.3545 18.45 20.2938 17.7105C22.3575 16.0945 23.7118 15.0271 24.6666 14.2666V22H7.33325Z" fill="currentColor"/>
</svg>
