<svg width="32" height="32" viewBox="0 0 32 32" fill="none" xmlns="http://www.w3.org/2000/svg">
<path d="M25.9412 12.1883C25.8778 12.1358 25.3637 11.7216 24.6666 11.1608V9.33331C24.6666 8.22873 23.7712 7.33331 22.6666 7.33331H19.9112C18.9683 6.5354 17.5737 5.33331 15.9999 5.33331C14.4312 5.33331 13.0458 6.52623 12.0895 7.33331H9.33325C8.22867 7.33331 7.33325 8.22873 7.33325 9.33331V11.1604C6.63284 11.7237 6.11867 12.1379 6.06325 12.1837C5.83507 12.3713 5.65126 12.6071 5.52504 12.8742C5.39882 13.1412 5.33332 13.4329 5.33325 13.7283V24.6666C5.33325 25.7712 6.22867 26.6666 7.33325 26.6666H24.6666C25.7712 26.6666 26.6666 25.7712 26.6666 24.6666V13.7296C26.6666 13.1333 26.4008 12.5679 25.9412 12.1883ZM9.33325 9.33331H22.6666V15.8608C21.1558 17.0825 19.3878 18.5137 19.0587 18.7754C18.302 19.38 16.9833 20.6666 15.9999 20.6666C15.0128 20.6666 13.6724 19.3596 12.9412 18.7754C12.612 18.5137 10.8441 17.0821 9.33325 15.86V9.33331ZM24.6666 24.4166C24.6666 24.5546 24.5545 24.6666 24.4166 24.6666H7.58325C7.44534 24.6666 7.33325 24.5546 7.33325 24.4166V16.815C8.95659 18.1266 11.3312 20.0504 11.6941 20.3391C12.6128 21.0733 14.1895 22.6666 15.9999 22.6666C17.8003 22.6666 19.3599 21.095 20.3058 20.3391C20.6808 20.0412 23.0491 18.1229 24.6666 16.8158V24.4166ZM12.6666 13.3333H19.3333C19.7016 13.3333 19.9999 13.035 19.9999 12.6666V12C19.9999 11.6316 19.7016 11.3333 19.3333 11.3333H12.6666C12.2983 11.3333 11.9999 11.6316 11.9999 12V12.6666C11.9999 13.035 12.2983 13.3333 12.6666 13.3333ZM19.9999 16V15.3333C19.9999 14.965 19.7016 14.6666 19.3333 14.6666H12.6666C12.2983 14.6666 11.9999 14.965 11.9999 15.3333V16C11.9999 16.3683 12.2983 16.6666 12.6666 16.6666H19.3333C19.7016 16.6666 19.9999 16.3683 19.9999 16Z" fill="currentColor"/>
</svg>
