<svg width="32" height="32" viewBox="0 0 32 32" fill="none" xmlns="http://www.w3.org/2000/svg">
<path d="M25.3334 7.66669V11.6252C25.3334 12.5161 24.2563 12.9623 23.6263 12.3324L22.472 11.178L18.0035 15.6465C17.8083 15.8417 17.4917 15.8417 17.2964 15.6465L16.3536 14.7037C16.1584 14.5084 16.1584 14.1919 16.3536 13.9966L20.8221 9.5281L19.6677 8.37377C19.0378 7.74381 19.484 6.66669 20.3749 6.66669H24.3334C24.8857 6.66669 25.3334 7.1144 25.3334 7.66669ZM13.9966 16.3536L9.52816 20.822L8.37383 19.6677C7.74387 19.0377 6.66675 19.4839 6.66675 20.3748V24.3334C6.66675 24.8856 7.11446 25.3334 7.66675 25.3334H11.6253C12.5162 25.3334 12.9624 24.2562 12.3324 23.6262L11.1781 22.4719L15.6465 18.0034C15.8418 17.8082 15.8418 17.4916 15.6465 17.2963L14.7037 16.3535C14.5085 16.1583 14.1919 16.1583 13.9966 16.3536Z" fill="#474747"/>
</svg>
