<svg width="32" height="32" viewBox="0 0 32 32" fill="none" xmlns="http://www.w3.org/2000/svg">
<path d="M25.3332 8.66669V23.3334C25.3332 24.4379 24.4378 25.3334 23.3332 25.3334H8.6665C7.56192 25.3334 6.6665 24.4379 6.6665 23.3334V8.66669C6.6665 7.5621 7.56192 6.66669 8.6665 6.66669H23.3332C24.4378 6.66669 25.3332 7.5621 25.3332 8.66669ZM23.3332 23.0834V8.91669C23.3332 8.85038 23.3068 8.78679 23.2599 8.73991C23.2131 8.69303 23.1495 8.66669 23.0832 8.66669H8.9165C8.8502 8.66669 8.78661 8.69303 8.73973 8.73991C8.69284 8.78679 8.6665 8.85038 8.6665 8.91669V23.0834C8.6665 23.1497 8.69284 23.2132 8.73973 23.2601C8.78661 23.307 8.8502 23.3334 8.9165 23.3334H23.0832C23.1495 23.3334 23.2131 23.307 23.2599 23.2601C23.3068 23.2132 23.3332 23.1497 23.3332 23.0834ZM17.7498 20C17.7498 20.965 16.9648 21.75 15.9998 21.75C15.0349 21.75 14.2498 20.965 14.2498 20C14.2498 19.0351 15.0349 18.25 15.9998 18.25C16.9648 18.25 17.7498 19.0351 17.7498 20ZM14.3594 11.1916L14.6428 16.8583C14.656 17.1244 14.8757 17.3334 15.1421 17.3334H16.8575C17.124 17.3334 17.3436 17.1244 17.3569 16.8583L17.6403 11.1916C17.6545 10.9061 17.4268 10.6667 17.1409 10.6667H14.8588C14.5728 10.6667 14.3451 10.9061 14.3594 11.1916Z" fill="#474747"/>
</svg>
