<svg width="32" height="32" viewBox="0 0 32 32" fill="none" xmlns="http://www.w3.org/2000/svg">
<path d="M26.0666 5.33331L19.2666 5.3404C19.1075 5.3404 18.9548 5.40361 18.8423 5.51613C18.7298 5.62865 18.6666 5.78127 18.6666 5.9404V7.32831C18.6666 7.40813 18.6825 7.48715 18.7134 7.56075C18.7443 7.63434 18.7896 7.70103 18.8466 7.75691C18.9036 7.81278 18.9712 7.85672 19.0453 7.88616C19.1195 7.91559 19.1989 7.92992 19.2787 7.92831L22.3466 7.81498L22.4324 7.90081L10.8133 19.5204C10.7666 19.5668 10.7297 19.622 10.7044 19.6828C10.6792 19.7436 10.6662 19.8088 10.6662 19.8746C10.6662 19.9404 10.6792 20.0055 10.7044 20.0663C10.7297 20.1271 10.7666 20.1823 10.8133 20.2287L11.7716 21.1871C11.818 21.2337 11.8732 21.2707 11.934 21.2959C11.9948 21.3211 12.0599 21.3341 12.1258 21.3341C12.1916 21.3341 12.2567 21.3211 12.3175 21.2959C12.3783 21.2707 12.4335 21.2337 12.4799 21.1871L24.0991 9.56748L24.1849 9.65331L24.0716 12.7212C24.07 12.801 24.0843 12.8804 24.1137 12.9546C24.1432 13.0287 24.1871 13.0963 24.243 13.1533C24.2989 13.2103 24.3656 13.2556 24.4391 13.2865C24.5127 13.3174 24.5918 13.3333 24.6716 13.3333H26.0595C26.2186 13.3333 26.3712 13.2701 26.4838 13.1576C26.5963 13.0451 26.6595 12.8924 26.6595 12.7333L26.6666 5.93331C26.6666 5.77418 26.6034 5.62157 26.4909 5.50905C26.3783 5.39653 26.2257 5.33331 26.0666 5.33331ZM23.3333 17.3333H22.6666C22.4898 17.3333 22.3202 17.4036 22.1952 17.5286C22.0702 17.6536 21.9999 17.8232 21.9999 18V24.4166C21.9999 24.483 21.9736 24.5465 21.9267 24.5934C21.8798 24.6403 21.8162 24.6666 21.7499 24.6666H7.58325C7.51695 24.6666 7.45336 24.6403 7.40648 24.5934C7.35959 24.5465 7.33325 24.483 7.33325 24.4166V10.25C7.33325 10.1837 7.35959 10.1201 7.40648 10.0732C7.45336 10.0263 7.51695 9.99998 7.58325 9.99998H13.9999C14.1767 9.99998 14.3463 9.92974 14.4713 9.80472C14.5963 9.67969 14.6666 9.51012 14.6666 9.33331V8.66665C14.6666 8.48984 14.5963 8.32027 14.4713 8.19524C14.3463 8.07022 14.1767 7.99998 13.9999 7.99998H7.33325C6.80282 7.99998 6.29411 8.21069 5.91904 8.58577C5.54397 8.96084 5.33325 9.46955 5.33325 9.99998V24.6666C5.33325 25.1971 5.54397 25.7058 5.91904 26.0809C6.29411 26.4559 6.80282 26.6666 7.33325 26.6666H21.9999C22.5304 26.6666 23.0391 26.4559 23.4141 26.0809C23.7892 25.7058 23.9999 25.1971 23.9999 24.6666V18C23.9999 17.8232 23.9297 17.6536 23.8047 17.5286C23.6796 17.4036 23.5101 17.3333 23.3333 17.3333Z" fill="#474747"/>
</svg>
