<svg width="32" height="32" viewBox="0 0 32 32" fill="none" xmlns="http://www.w3.org/2000/svg">
<path d="M14.3645 13.8628L14.639 18.5294C14.6545 18.7937 14.8734 19 15.1381 19H16.8618C16.9894 19 17.1121 18.9513 17.2048 18.8638C17.2976 18.7763 17.3535 18.6567 17.361 18.5294L17.6355 13.8628C17.6523 13.5755 17.424 13.3334 17.1363 13.3334H14.8635C14.5759 13.3334 14.3476 13.5755 14.3645 13.8628ZM17.75 21.3334C17.75 22.2999 16.9665 23.0834 16 23.0834C15.0335 23.0834 14.25 22.2999 14.25 21.3334C14.25 20.3669 15.0335 19.5834 16 19.5834C16.9665 19.5834 17.75 20.3669 17.75 21.3334ZM17.7324 6.33275C16.9643 5.00146 15.0371 4.99904 14.2676 6.33275L4.26988 23.6673C3.5023 24.9978 4.46326 26.6667 6.00226 26.6667H25.9975C27.5336 26.6667 28.499 25.0003 27.7299 23.6673L17.7324 6.33275ZM6.2163 24.2918L15.7835 7.70871C15.8797 7.54196 16.1203 7.54196 16.2165 7.70871L25.7837 24.2918C25.8799 24.4584 25.7596 24.6667 25.5672 24.6667H6.43284C6.24046 24.6667 6.12017 24.4585 6.2163 24.2918Z" fill="#474747"/>
</svg>
