<svg width="32" height="32" viewBox="0 0 32 32" fill="none" xmlns="http://www.w3.org/2000/svg">
<path d="M17.9105 7.33331C18.1969 7.33331 18.4248 7.57344 18.4098 7.85948L17.9206 17.1928C17.9067 17.4584 17.6873 17.6666 17.4213 17.6666H14.5786C14.3126 17.6666 14.0932 17.4584 14.0793 17.1928L13.59 7.85948C13.575 7.57344 13.8029 7.33331 14.0893 7.33331H17.9105ZM15.9999 19.3333C17.4703 19.3333 18.6666 20.5296 18.6666 22C18.6666 23.4704 17.4703 24.6666 15.9999 24.6666C14.5295 24.6666 13.3333 23.4704 13.3333 22C13.3333 20.5296 14.5295 19.3333 15.9999 19.3333ZM17.9105 5.33331H14.0893C12.6616 5.33331 11.5177 6.5326 11.5928 7.96419L12.082 17.2975C12.1111 17.8521 12.319 18.3564 12.6483 18.7559C11.8347 19.5962 11.3333 20.7407 11.3333 22C11.3333 24.5732 13.4267 26.6666 15.9999 26.6666C18.5731 26.6666 20.6666 24.5732 20.6666 22C20.6666 20.7407 20.1651 19.5962 19.3515 18.7559C19.692 18.3432 19.8906 17.8319 19.9179 17.2975L20.4071 7.96419C20.4818 6.5384 19.344 5.33331 17.9105 5.33331Z" fill="currentColor"/>
</svg>
