<svg width="32" height="32" viewBox="0 0 32 32" fill="none" xmlns="http://www.w3.org/2000/svg">
<path d="M15.9999 5.33331C10.1093 5.33331 5.33325 10.1111 5.33325 16C5.33325 21.8923 10.1093 26.6666 15.9999 26.6666C21.8905 26.6666 26.6666 21.8923 26.6666 16C26.6666 10.1111 21.8905 5.33331 15.9999 5.33331ZM15.9999 24.6021C11.2459 24.6021 7.39777 20.7556 7.39777 16C7.39777 11.2475 11.246 7.39783 15.9999 7.39783C20.7522 7.39783 24.6021 11.246 24.6021 16C24.6021 20.754 20.7556 24.6021 15.9999 24.6021ZM17.8064 20.129C17.8064 21.1251 16.996 21.9355 15.9999 21.9355C15.0038 21.9355 14.1935 21.1251 14.1935 20.129C14.1935 19.1329 15.0038 18.3226 15.9999 18.3226C16.996 18.3226 17.8064 19.1329 17.8064 20.129ZM14.3066 11.0365L14.5991 16.886C14.6128 17.1607 14.8395 17.3763 15.1145 17.3763H16.8853C17.1603 17.3763 17.3871 17.1607 17.4008 16.886L17.6933 11.0365C17.708 10.7417 17.473 10.4946 17.1778 10.4946H14.8221C14.5269 10.4946 14.2918 10.7417 14.3066 11.0365Z" fill="#474747"/>
</svg>
