<svg width="32" height="32" viewBox="0 0 32 32" fill="none" xmlns="http://www.w3.org/2000/svg">
<path d="M25.4951 6.50607L25.4943 6.50524L25.4931 6.50399C23.9318 4.94275 21.3989 4.94317 19.8381 6.50524L16.6261 9.71729L16.0802 9.17146C15.6869 8.77813 15.0532 8.78355 14.6661 9.17146L12.0161 11.8214C11.6257 12.2118 11.6257 12.8452 12.0161 13.2356L12.7236 13.9431L7.44781 19.2189C6.94782 19.7189 6.66657 20.3972 6.66657 21.1047V23.0001L5.33325 25.3334L6.66657 26.6667L8.99988 25.3334H10.8953C11.6024 25.3334 12.2807 25.0526 12.7807 24.5526L18.0573 19.2768L18.764 19.9834C19.1573 20.3768 19.791 20.3714 20.1781 19.9834L22.8281 17.3335C23.2185 16.9431 23.2185 16.3097 22.8281 15.9193L22.2823 15.3735L25.4943 12.1614C27.0568 10.6002 27.0568 8.06772 25.4951 6.50607ZM11.3665 23.1384C11.3048 23.2004 11.2313 23.2496 11.1504 23.2831C11.0695 23.3166 10.9828 23.3337 10.8953 23.3334H8.66655V21.1047C8.66655 20.9268 8.73572 20.7593 8.86197 20.6334L14.1382 15.3577L16.6431 17.8626L11.3665 23.1384ZM24.0806 10.7477L20.8685 13.9597L19.4544 15.3739L20.7073 16.6264L19.4714 17.8622L14.1382 12.5289L15.374 11.2935L16.6265 12.5464L21.2531 7.91897C21.6302 7.54148 22.1323 7.33356 22.666 7.33356C23.2002 7.33356 23.7018 7.54106 24.0789 7.91856L24.0806 7.92022C24.4585 8.29772 24.6664 8.7998 24.6664 9.33396C24.6664 9.86771 24.4581 10.3698 24.0806 10.7477Z" fill="currentColor"/>
</svg>
