<svg width="32" height="32" viewBox="0 0 32 32" fill="none" xmlns="http://www.w3.org/2000/svg">
<path d="M16 11.3333C15.5584 11.3402 15.12 11.4104 14.6983 11.5417C14.8934 11.8847 14.9973 12.2721 15 12.6667C15 12.9731 14.9396 13.2765 14.8224 13.5596C14.7051 13.8427 14.5332 14.0999 14.3166 14.3166C14.0999 14.5333 13.8427 14.7051 13.5596 14.8224C13.2765 14.9397 12.9731 15 12.6667 15C12.272 14.9973 11.8847 14.8934 11.5417 14.6983C11.271 15.637 11.3025 16.637 11.6318 17.5568C11.9611 18.4765 12.5714 19.2694 13.3763 19.823C14.1812 20.3766 15.1399 20.6629 16.1166 20.6414C17.0932 20.6199 18.0384 20.2916 18.8181 19.7031C19.5979 19.1145 20.1727 18.2956 20.4611 17.3623C20.7496 16.4289 20.737 15.4285 20.4253 14.5026C20.1136 13.5768 19.5184 12.7725 18.7242 12.2037C17.93 11.6349 16.9769 11.3304 16 11.3333ZM27.855 15.3917C25.5954 10.9829 21.1221 8 16 8C10.8779 8 6.40332 10.985 4.14498 15.3921C4.04966 15.5806 4 15.789 4 16.0002C4 16.2115 4.04966 16.4198 4.14498 16.6083C6.40457 21.0171 10.8779 24 16 24C21.1221 24 25.5967 21.015 27.855 16.6079C27.9503 16.4194 28 16.2111 28 15.9998C28 15.7885 27.9503 15.5802 27.855 15.3917ZM16 22C11.8896 22 8.12123 19.7084 6.08623 16C8.12123 12.2917 11.8892 10 16 10C20.1108 10 23.8788 12.2917 25.9138 16C23.8792 19.7084 20.1108 22 16 22Z" fill="currentColor"/>
</svg>
