<svg width="32" height="32" viewBox="0 0 32 32" fill="none" xmlns="http://www.w3.org/2000/svg">
<path d="M29.0828 24.9583L4.16687 5.47956C4.09853 5.42485 4.02008 5.38413 3.936 5.35973C3.85192 5.33533 3.76386 5.32773 3.67685 5.33736C3.58984 5.347 3.50557 5.37367 3.42887 5.41588C3.35217 5.45808 3.28453 5.51497 3.22981 5.58331L2.81316 6.10373C2.75831 6.1721 2.71749 6.2506 2.69302 6.33477C2.66855 6.41893 2.66091 6.50709 2.67055 6.5942C2.68018 6.68132 2.7069 6.76568 2.74917 6.84246C2.79145 6.91923 2.84844 6.98692 2.9169 7.04165L27.8328 26.5204C27.9011 26.5751 27.9796 26.6158 28.0637 26.6402C28.1477 26.6646 28.2358 26.6722 28.3228 26.6626C28.4098 26.653 28.4941 26.6263 28.5708 26.5841C28.6475 26.5419 28.7151 26.485 28.7699 26.4166L29.1865 25.8962C29.2414 25.8279 29.2822 25.7494 29.3067 25.6652C29.3311 25.581 29.3388 25.4929 29.3291 25.4058C29.3195 25.3186 29.2928 25.2343 29.2505 25.1575C29.2082 25.0807 29.1512 25.013 29.0828 24.9583ZM15.0328 11.4362L20.6489 15.8271C20.5564 13.3296 18.5198 11.3333 15.9998 11.3333C15.6748 11.3339 15.3507 11.3684 15.0328 11.4362ZM16.9669 20.5641L11.3508 16.1733C11.4437 18.6704 13.4803 20.6666 15.9998 20.6666C16.3249 20.666 16.6489 20.6316 16.9669 20.5641ZM15.9998 9.99998C20.1101 9.99998 23.8783 12.2916 25.9133 16C25.4145 16.9126 24.7981 17.7559 24.08 18.5083L25.6525 19.7375C26.5279 18.8009 27.2697 17.7477 27.8566 16.6079C27.9519 16.4194 28.0015 16.211 28.0015 15.9998C28.0015 15.7885 27.9519 15.5802 27.8566 15.3916C25.595 10.9829 21.1218 7.99998 15.9998 7.99998C14.4707 7.99998 13.012 8.29165 11.6404 8.78373L13.5741 10.2958C14.3632 10.1166 15.1715 9.99998 15.9998 9.99998ZM15.9998 22C11.8895 22 8.12174 19.7083 6.08639 16C6.58587 15.0873 7.20292 14.2442 7.92175 13.4921L6.3493 12.2629C5.47397 13.1993 4.73238 14.2524 4.14562 15.3921C4.0503 15.5806 4.00064 15.7889 4.00064 16.0002C4.00064 16.2115 4.0503 16.4198 4.14562 16.6083C6.40513 21.0171 10.8783 24 15.9998 24C17.529 24 18.9877 23.7062 20.3593 23.2162L18.4256 21.7046C17.6365 21.8833 16.8286 22 15.9998 22Z" fill="#474747"/>
</svg>
