<svg width="32" height="32" viewBox="0 0 32 32" fill="none" xmlns="http://www.w3.org/2000/svg">
<path d="M23.4125 9.41457L19.9167 5.91874C19.5417 5.54374 19.0333 5.33124 18.5042 5.33124H10C8.89583 5.3354 8 6.23124 8 7.3354V24.6687C8 25.7729 8.89583 26.6687 10 26.6687H22C23.1042 26.6687 24 25.7729 24 24.6687V10.8312C24 10.3021 23.7875 9.78957 23.4125 9.41457ZM21.8375 10.6687H18.6667V7.4979L21.8375 10.6687ZM10 24.6687V7.3354H16.6667V11.6687C16.6667 12.2229 17.1125 12.6687 17.6667 12.6687H22V24.6687H10ZM11.3333 22.6687H20.6667V17.3354L19.6875 16.3562C19.4917 16.1604 19.175 16.1604 18.9792 16.3562L15.3333 20.0021L13.6875 18.3562C13.4917 18.1604 13.175 18.1604 12.9792 18.3562L11.3333 20.0021V22.6687ZM13.3333 12.6687C12.2292 12.6687 11.3333 13.5646 11.3333 14.6687C11.3333 15.7729 12.2292 16.6687 13.3333 16.6687C14.4375 16.6687 15.3333 15.7729 15.3333 14.6687C15.3333 13.5646 14.4375 12.6687 13.3333 12.6687Z" fill="currentColor"/>
</svg>
