<svg width="32" height="32" viewBox="0 0 32 32" fill="none" xmlns="http://www.w3.org/2000/svg">
<path d="M20 15.6666V16.8333C20 17.1083 19.775 17.3333 19.5 17.3333H12.5C12.225 17.3333 12 17.1083 12 16.8333V15.6666C12 15.3916 12.225 15.1666 12.5 15.1666H19.5C19.775 15.1666 20 15.3916 20 15.6666ZM19.5 18.6666H12.5C12.225 18.6666 12 18.8916 12 19.1666V20.3333C12 20.6083 12.225 20.8333 12.5 20.8333H19.5C19.775 20.8333 20 20.6083 20 20.3333V19.1666C20 18.8916 19.775 18.6666 19.5 18.6666ZM24 10.8291V24.6666C24 25.7708 23.1042 26.6666 22 26.6666H10C8.89583 26.6666 8 25.7708 8 24.6666V7.33331C8 6.22915 8.89583 5.33331 10 5.33331H18.5042C19.0333 5.33331 19.5417 5.54581 19.9167 5.92081L23.4125 9.41665C23.7875 9.78748 24 10.3 24 10.8291ZM18.6667 7.49581V10.6666H21.8375L18.6667 7.49581ZM22 24.6666V12.6666H17.6667C17.1125 12.6666 16.6667 12.2208 16.6667 11.6666V7.33331H10V24.6666H22Z" fill="#474747"/>
</svg>
