<svg width="32" height="32" viewBox="0 0 32 32" fill="none" xmlns="http://www.w3.org/2000/svg">
<path d="M17 15.1696C17 14.8933 16.7763 14.6696 16.5 14.6696H15.5C15.2238 14.6696 15 14.8933 15 15.1696V18.67H12.9633C12.5171 18.67 12.2946 19.2104 12.6113 19.525L15.6242 22.5154C15.8321 22.7216 16.1675 22.7216 16.3754 22.5154L19.3883 19.525C19.705 19.2108 19.4825 18.67 19.0363 18.67H17V15.1696ZM23.4096 9.41581L19.9142 5.92081C19.5392 5.54581 19.0308 5.33331 18.5021 5.33331H9.99958C8.89583 5.33748 8 6.23331 8 7.33706V24.6671C8 25.7708 8.89583 26.6666 9.99958 26.6666H21.9971C23.1013 26.6666 24 25.7708 24 24.6671V10.8321C24 10.3033 23.7846 9.79081 23.4096 9.41581ZM18.6646 7.49956L21.835 10.6696H18.6646V7.49956ZM22 24.6671H9.99958V7.33706H16.665V11.6696C16.665 12.2237 17.1108 12.6691 17.665 12.6691H22V24.6671Z" fill="#474747"/>
</svg>
