<svg width="32" height="32" viewBox="0 0 32 32" fill="none" xmlns="http://www.w3.org/2000/svg">
<path d="M23.4125 9.41457L19.9167 5.91874C19.5417 5.54374 19.0333 5.33124 18.5042 5.33124H10C8.89583 5.3354 8 6.23124 8 7.3354V24.6687C8 25.7729 8.89583 26.6687 10 26.6687H22C23.1042 26.6687 24 25.7729 24 24.6687V10.8312C24 10.3021 23.7875 9.78957 23.4125 9.41457ZM21.8375 10.6687H18.6667V7.4979L21.8375 10.6687ZM10 24.6687V7.3354H16.6667V11.6687C16.6667 12.2229 17.1125 12.6687 17.6667 12.6687H22V24.6687H10ZM16.7958 15.0896L18.7458 17.0396C18.8292 17.1229 18.8292 17.2562 18.7458 17.3396L13.975 22.1104L11.9667 22.3354C11.7 22.3646 11.4708 22.1396 11.5 21.8687L11.725 19.8604L16.4958 15.0896C16.5792 15.0062 16.7125 15.0062 16.7958 15.0896ZM20.2542 15.8312L19.4417 16.6437C19.3583 16.7271 19.225 16.7271 19.1417 16.6437L17.1917 14.6937C17.1083 14.6104 17.1083 14.4771 17.1917 14.3937L18.0042 13.5812C18.3333 13.2521 18.8667 13.2521 19.1958 13.5812L20.2542 14.6396C20.5833 14.9687 20.5833 15.5021 20.2542 15.8312Z" fill="currentColor"/>
</svg>
