<svg width="32" height="32" viewBox="0 0 32 32" fill="none" xmlns="http://www.w3.org/2000/svg">
<path d="M23.4142 9.41419L19.9191 5.9191C19.5441 5.54403 19.0353 5.33332 18.5049 5.33331H10C8.89542 5.33331 8 6.22873 8 7.33331V24.6666C8 25.7712 8.89542 26.6666 10 26.6666H22C23.1046 26.6666 24 25.7712 24 24.6666V10.8284C24 10.298 23.7893 9.78926 23.4142 9.41419ZM21.8383 10.6666H18.6667V7.49506L21.8383 10.6666ZM10 24.6666V7.33331H16.6667V11.6666C16.6667 12.2189 17.1144 12.6666 17.6667 12.6666H22V24.6666H10ZM20.8813 16.6391L14.9518 22.5211C14.7557 22.7156 14.4391 22.7144 14.2446 22.5183L11.1158 19.3641C10.9214 19.1681 10.9226 18.8515 11.1187 18.657L12.0653 17.718C12.2613 17.5236 12.5779 17.5248 12.7724 17.7209L14.61 19.5734L19.238 14.9826C19.4341 14.7881 19.7507 14.7894 19.9452 14.9854L20.8842 15.932C21.0786 16.1281 21.0773 16.4446 20.8813 16.6391Z" fill="#474747"/>
</svg>
