<svg width="32" height="32" viewBox="0 0 32 32" fill="none" xmlns="http://www.w3.org/2000/svg">
<path d="M17.6 22.1905H14.4C14.1878 22.1905 13.9844 22.2774 13.8343 22.4322C13.6843 22.587 13.6 22.7969 13.6 23.0159V23.8412C13.6 24.0602 13.6843 24.2701 13.8343 24.4249C13.9844 24.5797 14.1878 24.6666 14.4 24.6666H17.6C17.8122 24.6666 18.0157 24.5797 18.1657 24.4249C18.3157 24.2701 18.4 24.0602 18.4 23.8412V23.0159C18.4 22.7969 18.3157 22.587 18.1657 22.4322C18.0157 22.2774 17.8122 22.1905 17.6 22.1905ZM24 12.2857H8.00626C7.79409 12.2857 7.5906 12.3727 7.44057 12.5274C7.29055 12.6822 7.20626 12.8922 7.20626 13.1111V13.9365C7.20626 14.1554 7.29055 14.3653 7.44057 14.5201C7.5906 14.6749 7.79409 14.7619 8.00626 14.7619H24C24.2122 14.7619 24.4157 14.6749 24.5657 14.5201C24.7157 14.3653 24.8 14.1554 24.8 13.9365V13.1111C24.8 12.8922 24.7157 12.6822 24.5657 12.5274C24.4157 12.3727 24.2122 12.2857 24 12.2857ZM27.2 7.33331H4.8C4.58783 7.33331 4.38434 7.42027 4.23431 7.57507C4.08429 7.72986 4 7.9398 4 8.15871V8.98411C4 9.20302 4.08429 9.41296 4.23431 9.56775C4.38434 9.72254 4.58783 9.8095 4.8 9.8095H27.2C27.4122 9.8095 27.6157 9.72254 27.7657 9.56775C27.9157 9.41296 28 9.20302 28 8.98411V8.15871C28 7.9398 27.9157 7.72986 27.7657 7.57507C27.6157 7.42027 27.4122 7.33331 27.2 7.33331ZM20.8 17.2381H11.2063C10.9941 17.2381 10.7906 17.325 10.6406 17.4798C10.4905 17.6346 10.4063 17.8446 10.4063 18.0635V18.8889C10.4063 19.1078 10.4905 19.3177 10.6406 19.4725C10.7906 19.6273 10.9941 19.7143 11.2063 19.7143H20.8C21.0122 19.7143 21.2157 19.6273 21.3657 19.4725C21.5157 19.3177 21.6 19.1078 21.6 18.8889V18.0635C21.6 17.8446 21.5157 17.6346 21.3657 17.4798C21.2157 17.325 21.0122 17.2381 20.8 17.2381Z" fill="#474747"/>
</svg>
