<svg width="24" height="24" viewBox="0 0 24 24" fill="none" xmlns="http://www.w3.org/2000/svg">
<path d="M13.2 16.6429H10.8C10.6409 16.6429 10.4883 16.7081 10.3757 16.8242C10.2632 16.9403 10.2 17.0977 10.2 17.2619V17.881C10.2 18.0451 10.2632 18.2026 10.3757 18.3187C10.4883 18.4348 10.6409 18.5 10.8 18.5H13.2C13.3591 18.5 13.5117 18.4348 13.6243 18.3187C13.7368 18.2026 13.8 18.0451 13.8 17.881V17.2619C13.8 17.0977 13.7368 16.9403 13.6243 16.8242C13.5117 16.7081 13.3591 16.6429 13.2 16.6429ZM18 9.21429H6.00469C5.84556 9.21429 5.69295 9.27951 5.58043 9.3956C5.46791 9.51169 5.40469 9.66915 5.40469 9.83333V10.4524C5.40469 10.6166 5.46791 10.774 5.58043 10.8901C5.69295 11.0062 5.84556 11.0714 6.00469 11.0714H18C18.1591 11.0714 18.3117 11.0062 18.4243 10.8901C18.5368 10.774 18.6 10.6166 18.6 10.4524V9.83333C18.6 9.66915 18.5368 9.51169 18.4243 9.3956C18.3117 9.27951 18.1591 9.21429 18 9.21429ZM20.4 5.5H3.6C3.44087 5.5 3.28826 5.56522 3.17574 5.68131C3.06321 5.79741 3 5.95487 3 6.11905V6.7381C3 6.90228 3.06321 7.05973 3.17574 7.17583C3.28826 7.29192 3.44087 7.35714 3.6 7.35714H20.4C20.5591 7.35714 20.7117 7.29192 20.8243 7.17583C20.9368 7.05973 21 6.90228 21 6.7381V6.11905C21 5.95487 20.9368 5.79741 20.8243 5.68131C20.7117 5.56522 20.5591 5.5 20.4 5.5ZM15.6 12.9286H8.40469C8.24556 12.9286 8.09295 12.9938 7.98043 13.1099C7.86791 13.226 7.80469 13.3834 7.80469 13.5476V14.1667C7.80469 14.3308 7.86791 14.4883 7.98043 14.6044C8.09295 14.7205 8.24556 14.7857 8.40469 14.7857H15.6C15.7591 14.7857 15.9117 14.7205 16.0243 14.6044C16.1368 14.4883 16.2 14.3308 16.2 14.1667V13.5476C16.2 13.3834 16.1368 13.226 16.0243 13.1099C15.9117 12.9938 15.7591 12.9286 15.6 12.9286Z" fill="currentColor"/>
</svg>
