<svg width="32" height="32" viewBox="0 0 32 32" fill="none" xmlns="http://www.w3.org/2000/svg">
<path d="M23.4125 9.41457L19.9167 5.91874C19.5423 5.54346 19.0343 5.33215 18.5042 5.33124H10C9.46939 5.333 8.96107 5.54485 8.58626 5.92044C8.21145 6.29603 8.00066 6.80479 8 7.3354V24.6687C8 25.1992 8.21071 25.7079 8.58579 26.083C8.96086 26.458 9.46957 26.6687 10 26.6687H22C22.5304 26.6687 23.0391 26.458 23.4142 26.083C23.7893 25.7079 24 25.1992 24 24.6687V10.8312C23.9991 10.2999 23.7879 9.79056 23.4125 9.41457ZM18.6667 7.4979L21.8375 10.6687H18.6667V7.4979ZM22 24.6687H10V7.3354H16.6667V11.6687C16.6663 11.8002 16.692 11.9303 16.7421 12.0518C16.7923 12.1733 16.8659 12.2837 16.9588 12.3766C17.0517 12.4695 17.1621 12.5432 17.2836 12.5933C17.4051 12.6434 17.5353 12.6691 17.6667 12.6687H22V24.6687ZM19.0354 16.3312C19.0973 16.2693 19.1465 16.1958 19.18 16.1149C19.2135 16.034 19.2307 15.9473 19.2307 15.8598C19.2307 15.7722 19.2135 15.6855 19.18 15.6046C19.1465 15.5237 19.0973 15.4502 19.0354 15.3883L18.5638 14.9146C18.5018 14.8526 18.4283 14.8035 18.3474 14.77C18.2666 14.7365 18.1799 14.7193 18.0923 14.7193C18.0047 14.7193 17.918 14.7365 17.8371 14.77C17.7562 14.8035 17.6827 14.8526 17.6208 14.9146L15.9542 16.5812L14.3192 14.9462C14.2573 14.8843 14.1838 14.8352 14.1029 14.8017C14.022 14.7682 13.9353 14.7509 13.8477 14.7509C13.7601 14.7509 13.6734 14.7682 13.5926 14.8017C13.5117 14.8352 13.4382 14.8843 13.3763 14.9462L12.905 15.4175C12.8431 15.4794 12.794 15.5529 12.7604 15.6338C12.7269 15.7147 12.7097 15.8014 12.7097 15.8889C12.7097 15.9765 12.7269 16.0632 12.7604 16.1441C12.794 16.225 12.8431 16.2985 12.905 16.3604L14.5417 17.9946L12.8917 19.6446C12.8297 19.7065 12.7806 19.78 12.7471 19.8609C12.7136 19.9418 12.6964 20.0285 12.6964 20.116C12.6964 20.2036 12.7136 20.2903 12.7471 20.3712C12.7806 20.4521 12.8297 20.5256 12.8917 20.5875L13.3633 21.0587C13.4252 21.1207 13.4987 21.1698 13.5796 21.2033C13.6605 21.2368 13.7472 21.2541 13.8348 21.2541C13.9224 21.2541 14.0091 21.2368 14.0899 21.2033C14.1708 21.1698 14.2443 21.1207 14.3063 21.0587L15.9583 19.4087L17.625 21.0754C17.6869 21.1373 17.7604 21.1864 17.8413 21.22C17.9222 21.2535 18.0089 21.2707 18.0965 21.2707C18.184 21.2707 18.2707 21.2535 18.3516 21.22C18.4325 21.1864 18.506 21.1373 18.5679 21.0754L19.0396 20.6037C19.1015 20.5418 19.1506 20.4683 19.1841 20.3874C19.2177 20.3065 19.2349 20.2198 19.2349 20.1323C19.2349 20.0447 19.2177 19.958 19.1841 19.8771C19.1506 19.7962 19.1015 19.7227 19.0396 19.6608L17.3729 17.9962L19.0354 16.3312Z" fill="currentColor"/>
</svg>
