<svg width="32" height="32" viewBox="0 0 32 32" fill="none" xmlns="http://www.w3.org/2000/svg">
<path d="M23.4125 9.41463L19.9167 5.9188C19.5417 5.5438 19.0333 5.3313 18.5042 5.3313H10C8.89583 5.33547 8 6.2313 8 7.33547V24.6688C8 25.773 8.89583 26.6688 10 26.6688H22C23.1042 26.6688 24 25.773 24 24.6688V10.8313C24 10.3021 23.7875 9.78963 23.4125 9.41463ZM21.8375 10.6688H18.6667V7.49797L21.8375 10.6688ZM10 24.6688V7.33547H16.6667V11.6688C16.6667 12.223 17.1125 12.6688 17.6667 12.6688H22V24.6688H10ZM20.425 18.6813C19.9167 18.1813 18.4667 18.3188 17.7417 18.4105C17.025 17.973 16.5458 17.3688 16.2083 16.4813C16.3708 15.8105 16.6292 14.7896 16.4333 14.148C16.2583 13.0563 14.8583 13.1646 14.6583 13.9021C14.475 14.573 14.6417 15.5063 14.95 16.698C14.5333 17.6938 13.9125 19.0313 13.475 19.798C12.6417 20.2271 11.5167 20.8896 11.35 21.723C11.2125 22.3813 12.4333 24.023 14.5208 20.423C15.4542 20.1146 16.4708 19.7355 17.3708 19.5855C18.1583 20.0105 19.0792 20.2938 19.6958 20.2938C20.7583 20.2938 20.8625 19.1188 20.425 18.6813ZM12.1708 21.923C12.3833 21.3521 13.1917 20.6938 13.4375 20.4646C12.6458 21.7271 12.1708 21.9521 12.1708 21.923ZM15.5708 13.9813C15.8792 13.9813 15.85 15.3188 15.6458 15.6813C15.4625 15.1021 15.4667 13.9813 15.5708 13.9813ZM14.5542 19.673C14.9583 18.9688 15.3042 18.1313 15.5833 17.3938C15.9292 18.023 16.3708 18.5271 16.8375 18.873C15.9708 19.0521 15.2167 19.4188 14.5542 19.673ZM20.0375 19.4646C20.0375 19.4646 19.8292 19.7146 18.4833 19.1396C19.9458 19.0313 20.1875 19.3646 20.0375 19.4646Z" fill="#474747"/>
</svg>
