<svg width="32" height="32" viewBox="0 0 32 32" fill="none" xmlns="http://www.w3.org/2000/svg">
<path d="M23.4096 9.41584L19.9142 5.92084C19.5392 5.54584 19.0308 5.33334 18.5021 5.33334H9.99958C8.89583 5.33751 8 6.23334 8 7.33709V24.6671C8 25.7708 8.89583 26.6667 9.99958 26.6667H21.9971C23.1012 26.6667 24 25.7708 24 24.6671V10.8321C24 10.3033 23.7846 9.79084 23.4096 9.41584ZM18.6646 7.49959L21.835 10.6696H18.6646V7.49959ZM22 24.6671H9.99958V7.33709H16.665V11.6696C16.665 12.2238 17.1108 12.6692 17.665 12.6692H22V24.6671ZM16.6667 14.3333C16.6667 14.1492 16.5175 14 16.3333 14H15.6667C15.4825 14 15.3333 14.1492 15.3333 14.3333V15.3383C14.3492 15.3646 13.5554 16.1946 13.5554 17.2163C13.5554 18.0483 14.0963 18.7917 14.8713 19.0242L16.7463 19.5867C16.9613 19.6513 17.1117 19.8692 17.1117 20.1171C17.1117 20.42 16.8908 20.6667 16.62 20.6667H15.4488C15.2588 20.6667 15.0754 20.6129 14.9146 20.5117C14.7796 20.4271 14.6079 20.4321 14.4925 20.5421L14.0029 21.0092C13.8558 21.1496 13.8642 21.3929 14.0267 21.515C14.4058 21.7996 14.8633 21.9638 15.3337 21.9879V23C15.3337 23.1842 15.4829 23.3333 15.6671 23.3333H16.3337C16.5179 23.3333 16.6671 23.1842 16.6671 23V21.995C17.6512 21.9688 18.445 21.1392 18.445 20.1171C18.445 19.285 17.9042 18.5417 17.1292 18.3092L15.2542 17.7467C15.0392 17.6821 14.8888 17.4642 14.8888 17.2163C14.8888 16.9133 15.1096 16.6667 15.3804 16.6667H16.5517C16.7417 16.6667 16.925 16.7204 17.0858 16.8217C17.2208 16.9063 17.3925 16.9013 17.5079 16.7913L17.9975 16.3242C18.1446 16.1838 18.1363 15.9404 17.9738 15.8183C17.5946 15.5338 17.1371 15.3696 16.6667 15.3454V14.3333ZM11.6667 10H15C15.1842 10 15.3333 9.85084 15.3333 9.66668V9.00001C15.3333 8.81584 15.1842 8.66668 15 8.66668H11.6667C11.4825 8.66668 11.3333 8.81584 11.3333 9.00001V9.66668C11.3333 9.85084 11.4825 10 11.6667 10ZM15.3333 12.3333V11.6667C15.3333 11.4825 15.1842 11.3333 15 11.3333H11.6667C11.4825 11.3333 11.3333 11.4825 11.3333 11.6667V12.3333C11.3333 12.5175 11.4825 12.6667 11.6667 12.6667H15C15.1842 12.6667 15.3333 12.5175 15.3333 12.3333Z" fill="currentColor"/>
</svg>
