<svg width="32" height="32" viewBox="0 0 32 32" fill="none" xmlns="http://www.w3.org/2000/svg">
<path d="M13.4667 18.6666H12.5333C12.2667 18.6666 12 18.9333 12 19.2V22.1333C12 22.4 12.2667 22.6666 12.5333 22.6666H13.4667C13.7333 22.6666 14 22.4 14 22.1333V19.2C14 18.9333 13.7333 18.6666 13.4667 18.6666ZM16.4667 16H15.5333C15.2667 16 15 16.2666 15 16.5333V22.1333C15 22.4 15.2667 22.6666 15.5333 22.6666H16.4667C16.7333 22.6666 17 22.4 17 22.1333V16.5333C17 16.2666 16.7333 16 16.4667 16ZM18.5333 22.6666H19.4667C19.7333 22.6666 20 22.4 20 22.1333V17.8666C20 17.6 19.7333 17.3333 19.4667 17.3333H18.5333C18.2667 17.3333 18 17.6 18 17.8666V22.1333C18 22.4 18.2667 22.6666 18.5333 22.6666ZM23.4096 9.41581L19.9142 5.92081C19.5392 5.54581 19.0308 5.33331 18.5021 5.33331H9.99958C8.89583 5.33748 8 6.23331 8 7.33706V24.6671C8 25.7708 8.89583 26.6666 9.99958 26.6666H21.9971C23.1012 26.6666 24 25.7708 24 24.6671V10.8321C24 10.3033 23.7846 9.79081 23.4096 9.41581ZM18.6646 7.49956L21.835 10.6696H18.6646V7.49956ZM22 24.6671H9.99958V7.33706H16.665V11.6696C16.665 12.2237 17.1108 12.6691 17.665 12.6691H22V24.6671Z" fill="currentColor"/>
</svg>
