<svg width="32" height="32" viewBox="0 0 32 32" fill="none" xmlns="http://www.w3.org/2000/svg">
<path d="M14.2458 19.8812L14.2375 19.8729L12.8708 18.6687L14.2375 17.4646C14.3875 17.3312 14.4042 17.0979 14.2708 16.9479L14.2625 16.9396L13.5375 16.1646C13.3958 16.0146 13.1625 16.0104 13.0208 16.1479L10.6167 18.4021C10.4625 18.5479 10.4625 18.7937 10.6167 18.9354L13.0208 21.1896C13.0875 21.2521 13.1792 21.2896 13.2708 21.2896C13.3708 21.2896 13.4708 21.2479 13.5375 21.1729L14.2625 20.3979C14.4 20.2521 14.3917 20.0187 14.2458 19.8812ZM23.4125 9.41457L19.9167 5.91874C19.5417 5.54374 19.0333 5.33124 18.5042 5.33124H10C8.89583 5.3354 8 6.23124 8 7.3354V24.6687C8 25.7729 8.89583 26.6687 10 26.6687H22C23.1042 26.6687 24 25.7729 24 24.6687V10.8312C24 10.3021 23.7875 9.78957 23.4125 9.41457ZM18.6667 7.4979L21.8375 10.6687H18.6667V7.4979ZM22 24.6687H10V7.3354H16.6667V11.6687C16.6667 12.2229 17.1125 12.6687 17.6667 12.6687H22V24.6687ZM16.7333 14.2521C16.5375 14.1937 16.3375 14.3062 16.2792 14.5021L14 22.3396C13.9417 22.5354 14.0542 22.7396 14.25 22.7937L15.2667 23.0896C15.4625 23.1479 15.6667 23.0312 15.7208 22.8396L18 14.9979C18.0583 14.8021 17.9458 14.5979 17.75 14.5437L16.7333 14.2521ZM17.7542 17.4562L17.7625 17.4646L19.1292 18.6687L17.7625 19.8729C17.6125 20.0062 17.5958 20.2396 17.7292 20.3896L17.7375 20.3979L18.4625 21.1729C18.6 21.3187 18.8333 21.3271 18.9792 21.1896L21.3833 18.9354C21.5375 18.7896 21.5375 18.5437 21.3833 18.4021L18.9792 16.1479C18.8333 16.0104 18.6 16.0146 18.4625 16.1646L17.7375 16.9396C17.6 17.0854 17.6083 17.3187 17.7542 17.4562Z" fill="currentColor"/>
</svg>
