<svg width="32" height="32" viewBox="0 0 32 32" fill="none" xmlns="http://www.w3.org/2000/svg">
<path d="M27.8453 16.9608L24.8549 13.9479C24.5403 13.6312 23.9999 13.8537 23.9999 14.2999V16.3366H19.9999V10.8325C19.9999 10.3033 19.7845 9.79079 19.4095 9.41621L15.9141 5.92081C15.5391 5.54581 15.0308 5.33331 14.502 5.33331H5.99957C4.89583 5.33748 4 6.23331 4 7.33705V24.667C4 25.7707 4.89583 26.6666 5.99957 26.6666H17.997C19.1012 26.6666 19.9999 25.7707 19.9999 24.667V20.3362H17.9999V24.667H5.99957V7.33705H12.665V11.6695C12.665 12.2237 13.1108 12.6691 13.665 12.6691H17.9999V16.3362H11.1666C10.8904 16.3362 10.6666 16.5599 10.6666 16.8362V17.8362C10.6666 18.1124 10.8904 18.3362 11.1666 18.3362H23.9999V20.3728C23.9999 20.8191 24.5403 21.0416 24.8549 20.7249L27.8453 17.712C28.0516 17.5041 28.0516 17.1687 27.8453 16.9608ZM14.6645 10.6695V7.49955L17.8349 10.6695H14.6645Z" fill="#474747"/>
</svg>
