<svg width="32" height="32" viewBox="0 0 32 32" fill="none" xmlns="http://www.w3.org/2000/svg">
<path d="M13.3458 12.0021V13.3354H14.6792V12.0021H13.3458ZM16.0125 8.00207H14.6792V9.3354H16.0125V8.00207ZM13.3458 9.3354V10.6687H14.6792V9.3354H13.3458ZM16.0125 10.6687H14.6792V12.0021H16.0125V10.6687ZM23.4125 9.41457L19.9167 5.91874C19.5417 5.54374 19.0333 5.33124 18.5042 5.33124H10C8.89583 5.3354 8 6.23124 8 7.3354V24.6687C8 25.7729 8.89583 26.6687 10 26.6687H22C23.1042 26.6687 24 25.7729 24 24.6687V10.8312C24 10.3021 23.7875 9.78957 23.4125 9.41457ZM18.6667 7.4979L21.8375 10.6687H18.6667V7.4979ZM22 24.6687H10V7.3354H13.3208V8.00207H14.6542V7.3354H16.6667V11.6687C16.6667 12.2229 17.1125 12.6687 17.6667 12.6687H22V24.6687ZM16.0917 16.4062C16.0458 16.1729 15.8417 16.0021 15.6 16.0021H14.6792V14.6687H13.3458V16.0021L12.525 20.0479C12.25 21.4021 13.2833 22.6687 14.6667 22.6687C16.0458 22.6687 17.0792 21.4104 16.8125 20.0604L16.0917 16.4062ZM14.6792 21.5896C13.9333 21.5896 13.3292 21.0854 13.3292 20.4646C13.3292 19.8437 13.9333 19.3396 14.6792 19.3396C15.425 19.3396 16.0292 19.8437 16.0292 20.4646C16.0292 21.0854 15.425 21.5896 14.6792 21.5896ZM16.0125 13.3354H14.6792V14.6687H16.0125V13.3354Z" fill="#474747"/>
</svg>
