<svg width="32" height="32" viewBox="0 0 32 32" fill="none" xmlns="http://www.w3.org/2000/svg">
<path d="M19.3405 8.66671C17.2933 8.66671 15.4528 7.33338 12.5941 7.33338C11.2899 7.33338 10.1648 7.60346 9.23075 7.96538C9.32333 7.6875 9.3538 7.39269 9.32 7.10175C9.21104 6.149 8.42354 5.39979 7.46663 5.33771C6.30167 5.26213 5.33325 6.18467 5.33325 7.33338C5.33325 8.07354 5.73563 8.71929 6.33325 9.06513V26C6.33325 26.3683 6.63171 26.6667 6.99992 26.6667H7.66659C8.03479 26.6667 8.33325 26.3683 8.33325 26V22.5233C9.91113 21.8034 11.3024 21.3334 13.6593 21.3334C15.7065 21.3334 17.547 22.6667 20.4057 22.6667C22.8423 22.6667 24.6545 21.7243 25.7619 21.0008C26.3268 20.6318 26.6666 20.0022 26.6666 19.3273V9.33075C26.6666 7.89496 25.1973 6.92375 23.8789 7.49254C22.383 8.13792 20.8183 8.66671 19.3405 8.66671ZM24.6666 19.3334C23.759 19.9755 22.1323 20.6667 20.4057 20.6667C17.908 20.6667 16.1556 19.3334 13.6593 19.3334C11.8526 19.3334 9.64354 19.7252 8.33325 20.3334V10.6667C9.24092 10.0245 10.8676 9.33338 12.5941 9.33338C15.0918 9.33338 16.8442 10.6667 19.3405 10.6667C21.1435 10.6667 23.3538 9.94313 24.6666 9.33338V19.3334Z" fill="#474747"/>
</svg>
