<svg width="32" height="32" viewBox="0 0 32 32" fill="none" xmlns="http://www.w3.org/2000/svg">
<path d="M27.3332 8.00001H19.3332L17.0569 5.72376C16.8069 5.47376 16.4678 5.33334 16.114 5.33334H9.99984C8.89525 5.33334 7.99984 6.22876 7.99984 7.33334V10.6667H4.6665C3.56192 10.6667 2.6665 11.5621 2.6665 12.6667V24.6667C2.6665 25.7713 3.56192 26.6667 4.6665 26.6667H21.9998C23.1044 26.6667 23.9998 25.7713 23.9998 24.6667V21.3333H27.3332C28.4378 21.3333 29.3332 20.4379 29.3332 19.3333V10C29.3332 8.89543 28.4378 8.00001 27.3332 8.00001ZM21.9998 24.6667H4.6665V12.6667H7.99984V19.3333C7.99984 20.4379 8.89525 21.3333 9.99984 21.3333H21.9998V24.6667ZM27.3332 19.3333H9.99984V7.33334H15.8382L18.1144 9.60959C18.3644 9.85959 18.7036 10 19.0573 10H27.3332V19.3333Z" fill="#474747"/>
</svg>
