<svg width="32" height="32" viewBox="0 0 32 32" fill="none" xmlns="http://www.w3.org/2000/svg">
<path d="M24.6665 21.7449H23.2782L17.6532 5.77485C17.6078 5.64584 17.5226 5.53399 17.4096 5.45486C17.2966 5.37574 17.1614 5.33327 17.0228 5.33337H14.9769C14.8383 5.33335 14.7032 5.37586 14.5903 5.45498C14.4774 5.5341 14.3923 5.64591 14.3469 5.77485L8.7215 21.7449H7.33317C7.15636 21.7449 6.98679 21.8141 6.86177 21.9372C6.73674 22.0603 6.6665 22.2273 6.6665 22.4014V23.0579C6.6665 23.232 6.73674 23.3989 6.86177 23.5221C6.98679 23.6452 7.15636 23.7143 7.33317 23.7143H12.6665C12.8433 23.7143 13.0129 23.6452 13.1379 23.5221C13.2629 23.3989 13.3332 23.232 13.3332 23.0579V22.4014C13.3332 22.2273 13.2629 22.0603 13.1379 21.9372C13.0129 21.8141 12.8433 21.7449 12.6665 21.7449H11.1898L12.5778 17.8062H19.4219L20.8098 21.7449H19.3332C19.1564 21.7449 18.9868 21.8141 18.8618 21.9372C18.7367 22.0603 18.6665 22.2273 18.6665 22.4014V23.0579C18.6665 23.232 18.7367 23.3989 18.8618 23.5221C18.9868 23.6452 19.1564 23.7143 19.3332 23.7143H24.6665C24.8433 23.7143 25.0129 23.6452 25.1379 23.5221C25.2629 23.3989 25.3332 23.232 25.3332 23.0579V22.4014C25.3332 22.2273 25.2629 22.0603 25.1379 21.9372C25.0129 21.8141 24.8433 21.7449 24.6665 21.7449ZM13.2719 15.8368L15.9998 8.09503L18.7278 15.8368H13.2719Z" fill="currentColor"/>
<path d="M6.6665 25.2381C6.6665 24.9225 6.92632 24.6667 7.24681 24.6667H24.7529C25.0734 24.6667 25.3332 24.9225 25.3332 25.2381V26.0953C25.3332 26.4109 25.0734 26.6667 24.7529 26.6667H7.24681C6.92632 26.6667 6.6665 26.4109 6.6665 26.0953V25.2381Z" fill="currentColor"/>
</svg>
