<svg width="32" height="32" viewBox="0 0 32 32" fill="none" xmlns="http://www.w3.org/2000/svg">
<path d="M16.0002 5.33337C10.1077 5.33337 5.3335 10.1076 5.3335 16C5.3335 21.8925 10.1077 26.6667 16.0002 26.6667C21.8926 26.6667 26.6668 21.8925 26.6668 16C26.6668 10.1076 21.8926 5.33337 16.0002 5.33337ZM23.712 12.2151H20.8217C20.5335 10.6452 20.069 9.25595 19.4797 8.14198C21.3249 8.95918 22.8217 10.4086 23.712 12.2151ZM16.0002 7.39789C16.8002 7.39789 18.0905 9.16993 18.7184 12.2151H13.2819C13.9098 9.16993 15.2002 7.39789 16.0002 7.39789ZM7.39801 16C7.39801 15.4108 7.45823 14.8344 7.57006 14.2796H10.912C10.869 14.8431 10.8389 15.4108 10.8389 16C10.8389 16.5893 10.869 17.157 10.912 17.7205H7.57006C7.45823 17.1656 7.39801 16.5893 7.39801 16ZM8.28833 19.785H11.1787C11.4668 21.3549 11.9313 22.7441 12.5206 23.8581C10.6754 23.0409 9.17866 21.5914 8.28833 19.785ZM11.1787 12.2151H8.28833C9.17866 10.4086 10.6754 8.95918 12.5206 8.14198C11.9313 9.25595 11.4668 10.6452 11.1787 12.2151ZM16.0002 24.6022C15.2002 24.6022 13.9098 22.8301 13.2819 19.785H18.7227C18.0905 22.8301 16.8002 24.6022 16.0002 24.6022ZM19.0152 17.7205H12.9851C12.9378 17.1699 12.9034 16.6022 12.9034 16C12.9034 15.3979 12.9378 14.8301 12.9851 14.2796H19.0195C19.0668 14.8301 19.1012 15.3979 19.1012 16C19.1012 16.6022 19.0625 17.1699 19.0152 17.7205ZM19.4797 23.8581C20.069 22.7441 20.5292 21.3549 20.8217 19.785H23.712C22.8217 21.5914 21.3249 23.0409 19.4797 23.8581ZM21.0883 17.7205C21.1313 17.157 21.1615 16.5893 21.1615 16C21.1615 15.4108 21.1313 14.8431 21.0883 14.2796H24.4303C24.5421 14.8344 24.6023 15.4108 24.6023 16C24.6023 16.5893 24.5421 17.1656 24.4303 17.7205H21.0883Z" fill="#474747"/>
</svg>
