<svg width="32" height="32" viewBox="0 0 32 32" fill="none" xmlns="http://www.w3.org/2000/svg">
<path d="M10 7.33587L16.6667 7.33337V12C16.6667 12.1769 16.7369 12.3464 16.8619 12.4714C16.987 12.5965 17.1565 12.6667 17.3333 12.6667H22V14.3334H24V10.8334C23.9999 10.302 23.7887 9.7924 23.4129 9.41671L19.9167 5.91962C19.5408 5.54413 19.0313 5.33326 18.5 5.33337L9.33333 5.33671C8.97971 5.33671 8.64057 5.47718 8.39052 5.72723C8.14048 5.97728 8 6.31642 8 6.67004V14.3334H10V7.33587ZM18.6667 7.50004L21.8363 10.6667H18.6667V7.50004ZM14 16.3334C13.8232 16.3334 13.6536 16.4036 13.5286 16.5286C13.4036 16.6537 13.3333 16.8232 13.3333 17V17.6667C13.3333 17.8435 13.4036 18.0131 13.5286 18.1381C13.6536 18.2631 13.8232 18.3334 14 18.3334H18C18.1768 18.3334 18.3464 18.2631 18.4714 18.1381C18.5964 18.0131 18.6667 17.8435 18.6667 17.6667V17C18.6667 16.8232 18.5964 16.6537 18.4714 16.5286C18.3464 16.4036 18.1768 16.3334 18 16.3334H14ZM22 24.6667H10V20.3334H8V25.3334C8 25.687 8.14048 26.0261 8.39052 26.2762C8.64057 26.5262 8.97971 26.6667 9.33333 26.6667H22.6667C23.0203 26.6667 23.3594 26.5262 23.6095 26.2762C23.8595 26.0261 24 25.687 24 25.3334V20.3334H22V24.6667ZM27.3333 16.3334H22C21.8232 16.3334 21.6536 16.4036 21.5286 16.5286C21.4036 16.6537 21.3333 16.8232 21.3333 17V17.6667C21.3333 17.8435 21.4036 18.0131 21.5286 18.1381C21.6536 18.2631 21.8232 18.3334 22 18.3334H27.3333C27.5101 18.3334 27.6797 18.2631 27.8047 18.1381C27.9298 18.0131 28 17.8435 28 17.6667V17C28 16.8232 27.9298 16.6537 27.8047 16.5286C27.6797 16.4036 27.5101 16.3334 27.3333 16.3334ZM10.6667 17.6667V17C10.6667 16.8232 10.5964 16.6537 10.4714 16.5286C10.3464 16.4036 10.1768 16.3334 10 16.3334H4.66667C4.48986 16.3334 4.32029 16.4036 4.19526 16.5286C4.07024 16.6537 4 16.8232 4 17V17.6667C4 17.8435 4.07024 18.0131 4.19526 18.1381C4.32029 18.2631 4.48986 18.3334 4.66667 18.3334H10C10.1768 18.3334 10.3464 18.2631 10.4714 18.1381C10.5964 18.0131 10.6667 17.8435 10.6667 17.6667Z" fill="currentColor"/>
</svg>
