<svg width="32" height="32" viewBox="0 0 32 32" fill="none" xmlns="http://www.w3.org/2000/svg">
<path d="M26.9983 18.3336C25.7023 17.2335 24.1105 17.6627 23.3146 18.2586L20.7976 20.1546H20.6601C20.6518 18.5711 19.3891 17.3293 17.7765 17.3293H11.7758C10.5924 17.3293 9.42974 17.721 8.50464 18.4253L7.32535 19.3337H4.66674C4.30003 19.3337 4 19.6337 4 20.0004V20.6672C4 21.0339 4.30003 21.3339 4.66674 21.3339H8.00042L9.72144 20.0213C10.3048 19.5754 11.0299 19.3337 11.78 19.3337H17.7806C18.9433 19.3337 18.9933 21.0089 17.7348 21.0089H15.2429C14.9262 21.0089 14.6678 21.2672 14.6678 21.5839V21.5881C14.6678 21.9048 14.9262 22.1632 15.2429 22.1632H20.8476C21.2518 22.1632 21.6477 22.0298 21.9686 21.7881L24.523 19.8671C24.8689 19.6087 25.3773 19.5879 25.7065 19.8671C26.1273 20.2213 26.094 20.8297 25.669 21.1464L21.4769 24.2926C21.1518 24.5343 20.7601 24.6676 20.3559 24.6676H4.66674C4.30003 24.6676 4 24.9676 4 25.3343V26.0011C4 26.3678 4.30003 26.6678 4.66674 26.6678H20.3684C21.1977 26.6678 22.0061 26.397 22.6686 25.8969L26.8691 22.7341C27.5608 22.2132 27.9734 21.4214 27.9984 20.5672C28.0276 19.7129 27.6608 18.8962 26.9983 18.3336ZM8.688 16H23.3562C23.7229 16 24.023 15.7 24.023 15.3333V5.99895C24.023 5.63225 23.7229 5.33221 23.3562 5.33221H8.688C8.32129 5.33221 8.02126 5.63225 8.02126 5.99895V15.3333C8.02126 15.7 8.32129 16 8.688 16ZM10.0215 7.33243H13.3552V11.9996L16.0221 10.6661L18.6891 11.9996V7.33243H22.0227V13.9998H10.0215V7.33243Z" fill="currentColor"/>
</svg>
