<svg width="32" height="32" viewBox="0 0 32 32" fill="none" xmlns="http://www.w3.org/2000/svg">
<path d="M15.0667 15.6104C15.3251 15.8687 15.6626 15.9979 16.0001 15.9979C16.3376 15.9979 16.6751 15.8687 16.9334 15.6104L20.9501 11.5937C21.4667 11.0812 21.4667 10.2437 20.9501 9.73124L16.9334 5.71874C16.6751 5.4604 16.3376 5.33124 16.0001 5.33124C15.6626 5.33124 15.3251 5.4604 15.0667 5.71874L11.0501 9.7354C10.5334 10.2479 10.5334 11.0854 11.0501 11.5979L15.0667 15.6104ZM16.0001 7.58124L19.0834 10.6646L16.0001 13.7479L12.9167 10.6646L16.0001 7.58124ZM26.5376 9.33957C24.7917 9.2229 23.3334 10.6104 23.3334 12.3312C23.3334 12.3312 23.3292 13.9562 23.3251 15.4979C22.8376 15.1729 22.2542 14.9979 21.6667 14.9979C20.7292 14.9979 19.8626 15.4229 19.2917 16.1646L16.3001 20.0521C16.1876 20.1979 16.0917 20.3604 16.0001 20.5187C15.9042 20.3604 15.8126 20.1979 15.7001 20.0521L12.7084 16.1646C12.1334 15.4229 11.2667 14.9979 10.3334 14.9979C9.74591 14.9979 9.16258 15.1771 8.67508 15.4979C8.67091 13.9521 8.66675 12.3312 8.66675 12.3312C8.66675 10.6104 7.20841 9.2229 5.46258 9.33957C3.86675 9.44374 2.66675 10.8396 2.66675 12.4354V20.4146C2.66675 21.4687 3.02925 22.5062 3.68758 23.3312L6.13341 26.4146C6.25841 26.5729 6.45425 26.6687 6.65425 26.6687H7.33341C7.70008 26.6687 8.00008 26.3687 8.00008 26.0021V25.5187L5.25008 22.0812C4.87091 21.6104 4.66675 21.0229 4.66675 20.4146V12.3687C4.66675 11.8854 4.99175 11.4396 5.46675 11.3521C6.10425 11.2271 6.66675 11.7146 6.66675 12.3312C6.66675 12.3312 6.67508 16.5396 6.67925 17.8562C6.67925 18.1729 6.79591 18.4729 7.00425 18.7146L10.1917 22.5729C10.3751 22.7937 10.6376 22.9062 10.9001 22.9062C11.1417 22.9062 11.3876 22.8104 11.5709 22.6146C11.8834 22.2854 11.8751 21.7646 11.6042 21.3979L9.54175 18.6062C9.20425 18.1687 9.28758 17.5396 9.72508 17.2021C9.90841 17.0604 10.1209 16.9937 10.3334 16.9937C10.6334 16.9937 10.9292 17.1271 11.1292 17.3854L14.1167 21.2687C14.4751 21.7354 14.6709 22.3062 14.6709 22.8937V25.9979C14.6709 26.3646 14.9709 26.6646 15.3376 26.6646H16.6709C17.0376 26.6646 17.3376 26.3646 17.3376 25.9979V22.8979C17.3376 22.3104 17.5334 21.7396 17.8917 21.2729L20.8792 17.3896C21.0751 17.1354 21.3751 16.9979 21.6751 16.9979C21.8876 16.9979 22.1001 17.0646 22.2834 17.2062C22.7209 17.5437 22.8042 18.1687 22.4667 18.6104L20.4042 21.4021C20.1334 21.7687 20.1292 22.2896 20.4376 22.6187C20.6209 22.8146 20.8626 22.9104 21.1084 22.9104C21.3709 22.9104 21.6334 22.7979 21.8167 22.5771L25.0042 18.7187C25.2126 18.4771 25.3251 18.1771 25.3292 17.8604C25.3251 16.5396 25.3334 12.3312 25.3334 12.3312C25.3334 11.7146 25.8917 11.2271 26.5334 11.3521C27.0084 11.4437 27.3334 11.8854 27.3334 12.3687V20.4146C27.3334 21.0187 27.1292 21.6062 26.7501 22.0771L24.0001 25.5146V25.9979C24.0001 26.3646 24.3001 26.6646 24.6667 26.6646H25.3459C25.5501 26.6646 25.7417 26.5729 25.8667 26.4104L28.3126 23.3271C28.9709 22.5021 29.3334 21.4687 29.3334 20.4104V12.4354C29.3334 10.8396 28.1334 9.44374 26.5376 9.33957Z" fill="currentColor"/>
</svg>
