<svg width="32" height="32" viewBox="0 0 32 32" fill="none" xmlns="http://www.w3.org/2000/svg">
<path d="M14.7315 11.3449L16.8187 11.9407C16.9687 11.9823 17.0728 12.124 17.0728 12.2781C17.0728 12.4698 16.9145 12.6281 16.7229 12.6281H15.3564C15.2065 12.6281 15.0606 12.5947 14.9273 12.5364C14.7274 12.4448 14.4941 12.4656 14.3399 12.6197L13.6109 13.3488C13.3901 13.5696 13.4151 13.9445 13.6734 14.1153C14.0691 14.3778 14.5232 14.5361 14.9982 14.5944V15.3318C14.9982 15.6984 15.2981 15.9984 15.6647 15.9984H16.3313C16.6979 15.9984 16.9978 15.6984 16.9978 15.3318V14.5986C18.2601 14.4486 19.2225 13.3071 19.0517 11.974C18.9309 11.0158 18.1893 10.2534 17.2645 9.98681L15.1773 9.39107C15.0273 9.34941 14.9232 9.20777 14.9232 9.05363C14.9232 8.86199 15.0815 8.70368 15.2731 8.70368H16.6396C16.7895 8.70368 16.9354 8.73701 17.0687 8.79533C17.2686 8.88699 17.5019 8.86616 17.6561 8.71201L18.3851 7.98296C18.6059 7.76216 18.5809 7.38722 18.3226 7.21641C17.9269 6.95395 17.4728 6.79565 16.9978 6.73732V5.99994C16.9978 5.63333 16.6979 5.33337 16.3313 5.33337H15.6647C15.2981 5.33337 14.9982 5.63333 14.9982 5.99994V6.73316C13.7359 6.88313 12.7735 8.02462 12.9443 9.35775C13.0651 10.3159 13.8025 11.0783 14.7315 11.3449ZM26.5339 9.34108C24.7883 9.22443 23.3302 10.6117 23.3302 12.3323C23.3302 12.3323 23.326 13.957 23.3219 15.4985C22.8344 15.1735 22.2512 14.9985 21.6638 14.9985C20.7264 14.9985 19.8599 15.4235 19.2892 16.165L16.298 20.0519C16.1855 20.1977 16.0897 20.3602 15.998 20.5185C15.9022 20.3602 15.8105 20.1977 15.698 20.0519L12.7068 16.165C12.1319 15.4235 11.2654 14.9985 10.3322 14.9985C9.74481 14.9985 9.16157 15.1777 8.67414 15.4985C8.66998 13.9529 8.66581 12.3323 8.66581 12.3323C8.66581 10.6117 7.20771 9.22443 5.46214 9.34108C3.86656 9.44523 2.66675 10.8408 2.66675 12.4364V20.4144C2.66675 21.4684 3.02919 22.5057 3.68742 23.3306L6.13287 26.4134C6.25785 26.5717 6.45366 26.6675 6.65362 26.6675H7.33269C7.69929 26.6675 7.99925 26.3676 7.99925 26.001C7.99925 25.6885 7.89093 25.3844 7.6993 25.1428L5.24968 22.0808C4.87057 21.61 4.66644 21.0226 4.66644 20.4144V12.3698C4.66644 11.8865 4.99138 11.4408 5.46631 11.3533C6.10371 11.2283 6.66612 11.7157 6.66612 12.3323C6.66612 12.3323 6.67446 16.54 6.67862 17.8564C6.67862 18.173 6.79527 18.473 7.00357 18.7146L10.1906 22.5723C10.528 22.9806 11.1738 23.0348 11.5695 22.614C11.882 22.2849 11.8736 21.7641 11.6029 21.3975L9.54067 18.6063C9.20323 18.1689 9.28655 17.5398 9.72398 17.2024C9.90728 17.0607 10.1197 16.9941 10.3322 16.9941C10.6322 16.9941 10.928 17.1274 11.1279 17.3857L14.115 21.2684C14.4732 21.735 14.669 22.3057 14.669 22.8931V25.9968C14.669 26.3634 14.969 26.6634 15.3356 26.6634H16.6687C17.0353 26.6634 17.3353 26.3634 17.3353 25.9968V22.8973C17.3353 22.3099 17.5311 21.7391 17.8894 21.2726L20.8764 17.3898C21.0722 17.1357 21.3722 16.9982 21.6721 16.9982C21.8846 16.9982 22.097 17.0649 22.2803 17.2065C22.7178 17.544 22.8011 18.1689 22.4637 18.6105L20.4015 21.4017C20.1307 21.7683 20.1265 22.2891 20.4348 22.6182C20.8597 23.0723 21.5055 22.9473 21.8138 22.5765L25.0008 18.7188C25.2091 18.4772 25.3215 18.1772 25.3257 17.8606C25.3215 16.54 25.3299 12.3323 25.3299 12.3323C25.3299 11.7157 25.8881 11.2283 26.5297 11.3533C27.0046 11.4449 27.3296 11.8865 27.3296 12.3698V20.4144C27.3296 21.0184 27.1254 21.6058 26.7463 22.0766L24.3009 25.1344C24.1051 25.3802 24.0009 25.6802 24.0009 25.9926C24.0009 26.3593 24.3009 26.6592 24.6675 26.6592H25.3465C25.5507 26.6592 25.7423 26.5676 25.8673 26.4051L28.3127 23.3222C28.971 22.4974 29.3334 21.4642 29.3334 20.406V12.4364C29.3292 10.8408 28.1294 9.44523 26.5339 9.34108Z" fill="#404041"/>
</svg>
