<svg width="32" height="32" viewBox="0 0 32 32" fill="none" xmlns="http://www.w3.org/2000/svg">
<path d="M24.3967 14.4906L27.5998 10.9124C27.6797 10.823 27.724 10.7081 27.7243 10.5891V9.82585C27.7235 9.69454 27.6696 9.5689 27.5743 9.47656C27.4791 9.38421 27.3504 9.33272 27.2165 9.33338H20.1395C20.0732 9.33305 20.0075 9.34553 19.9461 9.3701C19.8848 9.39467 19.8289 9.43085 19.7818 9.47658C19.7347 9.52231 19.6973 9.5767 19.6716 9.63662C19.6459 9.69655 19.6325 9.76085 19.6322 9.82585V10.8333C19.6325 10.8983 19.6458 10.9627 19.6715 11.0226C19.6971 11.0826 19.7346 11.137 19.7817 11.1828C19.8288 11.2286 19.8847 11.2648 19.946 11.2894C20.0074 11.314 20.0732 11.3265 20.1395 11.3262C20.1395 11.3262 24.4919 11.3216 24.6431 11.3158C24.5254 11.4357 21.494 14.8814 21.494 14.8814C21.4322 14.9511 21.392 15.0366 21.378 15.128C21.364 15.2193 21.3768 15.3127 21.415 15.3972L21.7 16.0346C21.7435 16.1203 21.8094 16.1931 21.891 16.2455C21.9726 16.2979 22.067 16.3281 22.1644 16.3329H22.8901C24.9554 16.3329 25.6879 17.4675 25.6879 18.4395C25.6879 19.6298 24.6435 20.5281 23.2589 20.5281C22.2392 20.5281 21.2671 20.0923 20.4849 19.4077C20.432 19.3606 20.3695 19.3249 20.3015 19.303C20.2336 19.281 20.1617 19.2734 20.0905 19.2805C20.0193 19.2876 19.9505 19.3093 19.8884 19.3442C19.8264 19.3792 19.7725 19.4265 19.7303 19.4832L19.0506 20.3998C18.9793 20.4956 18.9461 20.6136 18.957 20.7318C18.968 20.8499 19.0224 20.9601 19.11 21.0418C20.1552 22.0142 21.6856 22.6667 23.3324 22.6667C26.06 22.6667 28 20.741 28 18.3682C28.0004 16.2392 26.4395 14.8614 24.3967 14.4906ZM16.916 9.33338H12.7124C12.5652 9.33338 12.4241 9.39071 12.32 9.49275C12.2159 9.5948 12.1575 9.7332 12.1575 9.87751V10.7891C12.1575 10.9334 12.2159 11.0718 12.32 11.1739C12.4241 11.2759 12.5652 11.3333 12.7124 11.3333H13.857V14.9997H7.73885V11.3333H8.88344C9.03061 11.3333 9.17174 11.2759 9.2758 11.1739C9.37986 11.0718 9.43832 10.9334 9.43832 10.7891V10C9.43832 9.82321 9.3667 9.65365 9.23922 9.52863C9.11173 9.40361 8.93882 9.33338 8.75853 9.33338H4.67979C4.4995 9.33338 4.32659 9.40361 4.19911 9.52863C4.07162 9.65365 4 9.82321 4 10V10.7891C4 10.9334 4.05846 11.0718 4.16252 11.1739C4.26658 11.2759 4.40772 11.3333 4.55488 11.3333H5.69948V20.666H4.55488C4.40772 20.666 4.26658 20.7233 4.16252 20.8254C4.05846 20.9274 4 21.0658 4 21.2101V21.9992C4 22.176 4.07162 22.3456 4.19911 22.4706C4.32659 22.5956 4.4995 22.6659 4.67979 22.6659H8.88344C9.03061 22.6659 9.17174 22.6085 9.2758 22.5065C9.37986 22.4045 9.43832 22.2661 9.43832 22.1217V21.2101C9.43832 21.0658 9.37986 20.9274 9.2758 20.8254C9.17174 20.7233 9.03061 20.666 8.88344 20.666H7.73885V16.9996H13.857V20.666H12.7124C12.5652 20.666 12.4241 20.7233 12.32 20.8254C12.2159 20.9274 12.1575 21.0658 12.1575 21.2101V21.9992C12.1575 22.176 12.2291 22.3456 12.3566 22.4706C12.4841 22.5956 12.657 22.6659 12.8373 22.6659H16.916C17.0963 22.6659 17.2692 22.5956 17.3967 22.4706C17.5242 22.3456 17.5958 22.176 17.5958 21.9992V21.2101C17.5958 21.0658 17.5373 20.9274 17.4333 20.8254C17.3292 20.7233 17.1881 20.666 17.0409 20.666H15.8963V11.3333H17.0409C17.1881 11.3333 17.3292 11.2759 17.4333 11.1739C17.5373 11.0718 17.5958 10.9334 17.5958 10.7891V10C17.5958 9.82321 17.5242 9.65365 17.3967 9.52863C17.2692 9.40361 17.0963 9.33338 16.916 9.33338Z" fill="#474747"/>
</svg>
