<svg width="32" height="32" viewBox="0 0 32 32" fill="none" xmlns="http://www.w3.org/2000/svg">
<path d="M16.6667 9.33337H12.5442C12.3998 9.33337 12.2614 9.39071 12.1594 9.49276C12.0573 9.59481 12 9.73322 12 9.87754V10.7892C12 10.9335 12.0573 11.0719 12.1594 11.174C12.2614 11.276 12.3998 11.3334 12.5442 11.3334H13.6667V15H7.66667V11.3334H8.78917C8.93349 11.3334 9.0719 11.276 9.17395 11.174C9.276 11.0719 9.33333 10.9335 9.33333 10.7892V10C9.33333 9.82323 9.2631 9.65366 9.13807 9.52864C9.01305 9.40361 8.84348 9.33337 8.66667 9.33337H4.66667C4.48986 9.33337 4.32029 9.40361 4.19526 9.52864C4.07024 9.65366 4 9.82323 4 10V10.7892C4 10.9335 4.05733 11.0719 4.15938 11.174C4.26143 11.276 4.39984 11.3334 4.54417 11.3334H5.66667V20.6667H4.54417C4.39984 20.6667 4.26143 20.724 4.15938 20.8261C4.05733 20.9281 4 21.0666 4 21.2109V22C4 22.1769 4.07024 22.3464 4.19526 22.4714C4.32029 22.5965 4.48986 22.6667 4.66667 22.6667H8.78917C8.93349 22.6667 9.0719 22.6094 9.17395 22.5073C9.276 22.4053 9.33333 22.2669 9.33333 22.1225V21.2109C9.33333 21.0666 9.276 20.9281 9.17395 20.8261C9.0719 20.724 8.93349 20.6667 8.78917 20.6667H7.66667V17H13.6667V20.6667H12.5442C12.3998 20.6667 12.2614 20.724 12.1594 20.8261C12.0573 20.9281 12 21.0666 12 21.2109V22C12 22.1769 12.0702 22.3464 12.1953 22.4714C12.3203 22.5965 12.4899 22.6667 12.6667 22.6667H16.6667C16.8435 22.6667 17.013 22.5965 17.1381 22.4714C17.2631 22.3464 17.3333 22.1769 17.3333 22V21.2109C17.3333 21.0666 17.276 20.9281 17.174 20.8261C17.0719 20.724 16.9335 20.6667 16.7892 20.6667H15.6667V11.3334H16.7892C16.9335 11.3334 17.0719 11.276 17.174 11.174C17.276 11.0719 17.3333 10.9335 17.3333 10.7892V10C17.3333 9.82323 17.2631 9.65366 17.1381 9.52864C17.013 9.40361 16.8435 9.33337 16.6667 9.33337ZM27.3333 20.6667H25V10.3334C25 10.0682 24.8946 9.8138 24.7071 9.62627C24.5196 9.43873 24.2652 9.33337 24 9.33337H23C22.8145 9.33355 22.6327 9.38532 22.475 9.48289C22.3172 9.58046 22.1897 9.71999 22.1067 9.88587L21.1067 11.8859C21.0304 12.0383 20.9944 12.2076 21.0019 12.3778C21.0095 12.5481 21.0605 12.7136 21.15 12.8586C21.2395 13.0036 21.3645 13.1233 21.5133 13.2064C21.6621 13.2895 21.8296 13.3332 22 13.3334H23V20.6667H20.6667C20.4899 20.6667 20.3203 20.7369 20.1953 20.862C20.0702 20.987 20 21.1566 20 21.3334V22C20 22.1769 20.0702 22.3464 20.1953 22.4714C20.3203 22.5965 20.4899 22.6667 20.6667 22.6667H27.3333C27.5101 22.6667 27.6797 22.5965 27.8047 22.4714C27.9298 22.3464 28 22.1769 28 22V21.3334C28 21.1566 27.9298 20.987 27.8047 20.862C27.6797 20.7369 27.5101 20.6667 27.3333 20.6667Z" fill="#474747"/>
</svg>
