<svg width="32" height="32" viewBox="0 0 32 32" fill="none" xmlns="http://www.w3.org/2000/svg">
<path d="M16.6667 9.33337H12.5442C12.3998 9.33337 12.2614 9.39071 12.1594 9.49276C12.0573 9.59481 12 9.73322 12 9.87754V10.7892C12 10.9335 12.0573 11.0719 12.1594 11.174C12.2614 11.276 12.3998 11.3334 12.5442 11.3334H13.6667V15H7.66667V11.3334H8.78917C8.93349 11.3334 9.0719 11.276 9.17395 11.174C9.276 11.0719 9.33333 10.9335 9.33333 10.7892V10C9.33333 9.82323 9.2631 9.65366 9.13807 9.52864C9.01305 9.40361 8.84348 9.33337 8.66667 9.33337H4.66667C4.48986 9.33337 4.32029 9.40361 4.19526 9.52864C4.07024 9.65366 4 9.82323 4 10V10.7892C4 10.9335 4.05733 11.0719 4.15938 11.174C4.26143 11.276 4.39984 11.3334 4.54417 11.3334H5.66667V20.6667H4.54417C4.39984 20.6667 4.26143 20.724 4.15938 20.8261C4.05733 20.9281 4 21.0666 4 21.2109V22C4 22.1769 4.07024 22.3464 4.19526 22.4714C4.32029 22.5965 4.48986 22.6667 4.66667 22.6667H8.78917C8.93349 22.6667 9.0719 22.6094 9.17395 22.5073C9.276 22.4053 9.33333 22.2669 9.33333 22.1225V21.2109C9.33333 21.0666 9.276 20.9281 9.17395 20.8261C9.0719 20.724 8.93349 20.6667 8.78917 20.6667H7.66667V17H13.6667V20.6667H12.5442C12.3998 20.6667 12.2614 20.724 12.1594 20.8261C12.0573 20.9281 12 21.0666 12 21.2109V22C12 22.1769 12.0702 22.3464 12.1953 22.4714C12.3203 22.5965 12.4899 22.6667 12.6667 22.6667H16.6667C16.8435 22.6667 17.013 22.5965 17.1381 22.4714C17.2631 22.3464 17.3333 22.1769 17.3333 22V21.2109C17.3333 21.0666 17.276 20.9281 17.174 20.8261C17.0719 20.724 16.9335 20.6667 16.7892 20.6667H15.6667V11.3334H16.7892C16.9335 11.3334 17.0719 11.276 17.174 11.174C17.276 11.0719 17.3333 10.9335 17.3333 10.7892V10C17.3333 9.82323 17.2631 9.65366 17.1381 9.52864C17.013 9.40361 16.8435 9.33337 16.6667 9.33337ZM27.3333 15H26.6667V10C26.6667 9.82323 26.5964 9.65366 26.4714 9.52864C26.3464 9.40361 26.1768 9.33337 26 9.33337H25.3333C25.1565 9.33337 24.987 9.40361 24.8619 9.52864C24.7369 9.65366 24.6667 9.82323 24.6667 10V15H20.6667V10C20.6667 9.82323 20.5964 9.65366 20.4714 9.52864C20.3464 9.40361 20.1768 9.33337 20 9.33337H19.3333C19.1565 9.33337 18.987 9.40361 18.8619 9.52864C18.7369 9.65366 18.6667 9.82323 18.6667 10V15.6667C18.6667 16.0203 18.8071 16.3595 19.0572 16.6095C19.3072 16.8596 19.6464 17 20 17H24.6667V22C24.6667 22.1769 24.7369 22.3464 24.8619 22.4714C24.987 22.5965 25.1565 22.6667 25.3333 22.6667H26C26.1768 22.6667 26.3464 22.5965 26.4714 22.4714C26.5964 22.3464 26.6667 22.1769 26.6667 22V17H27.3333C27.5101 17 27.6797 16.9298 27.8047 16.8048C27.9298 16.6798 28 16.5102 28 16.3334V15.6667C28 15.4899 27.9298 15.3203 27.8047 15.1953C27.6797 15.0703 27.5101 15 27.3333 15Z" fill="currentColor"/>
</svg>
