<svg width="32" height="32" viewBox="0 0 32 32" fill="none" xmlns="http://www.w3.org/2000/svg">
<path d="M24.4332 8.01093C22.0249 5.98593 18.3041 6.2901 15.9999 8.63593C13.6958 6.2901 9.97492 5.98176 7.56659 8.01093C4.43326 10.6484 4.89159 14.9484 7.12492 17.2276L14.4332 24.6734C14.8499 25.0984 15.4082 25.3359 15.9999 25.3359C16.5957 25.3359 17.1499 25.1026 17.5666 24.6776L24.8749 17.2318C27.1041 14.9526 27.5707 10.6526 24.4332 8.01093ZM23.4499 15.8234L16.1416 23.2693C16.0416 23.3693 15.9582 23.3693 15.8582 23.2693L8.54992 15.8234C7.02909 14.2734 6.72076 11.3401 8.85409 9.54426C10.4749 8.18176 12.9749 8.38593 14.5416 9.98176L15.9999 11.4693L17.4582 9.98176C19.0332 8.3776 21.5332 8.18176 23.1457 9.5401C25.2749 11.3359 24.9582 14.2859 23.4499 15.8234Z" fill="#474747"/>
</svg>
