<svg width="32" height="32" viewBox="0 0 32 32" fill="none" xmlns="http://www.w3.org/2000/svg">
<path d="M23.3332 8.66663V23.3333H24.6665C24.8433 23.3333 25.0129 23.4035 25.1379 23.5286C25.2629 23.6536 25.3332 23.8231 25.3332 24V24.6666C25.3332 24.8434 25.2629 25.013 25.1379 25.138C25.0129 25.2631 24.8433 25.3333 24.6665 25.3333H19.3332C19.1564 25.3333 18.9868 25.2631 18.8618 25.138C18.7367 25.013 18.6665 24.8434 18.6665 24.6666V24C18.6665 23.8231 18.7367 23.6536 18.8618 23.5286C18.9868 23.4035 19.1564 23.3333 19.3332 23.3333H20.6665V17H11.3332V23.3333H12.6665C12.8433 23.3333 13.0129 23.4035 13.1379 23.5286C13.2629 23.6536 13.3332 23.8231 13.3332 24V24.6666C13.3332 24.8434 13.2629 25.013 13.1379 25.138C13.0129 25.2631 12.8433 25.3333 12.6665 25.3333H7.33317C7.15636 25.3333 6.98679 25.2631 6.86177 25.138C6.73674 25.013 6.6665 24.8434 6.6665 24.6666V24C6.6665 23.8231 6.73674 23.6536 6.86177 23.5286C6.98679 23.4035 7.15636 23.3333 7.33317 23.3333H8.6665V8.66663H7.33317C7.15636 8.66663 6.98679 8.59639 6.86177 8.47136C6.73674 8.34634 6.6665 8.17677 6.6665 7.99996V7.33329C6.6665 7.15648 6.73674 6.98691 6.86177 6.86189C6.98679 6.73686 7.15636 6.66663 7.33317 6.66663H12.6665C12.8433 6.66663 13.0129 6.73686 13.1379 6.86189C13.2629 6.98691 13.3332 7.15648 13.3332 7.33329V7.99996C13.3332 8.17677 13.2629 8.34634 13.1379 8.47136C13.0129 8.59639 12.8433 8.66663 12.6665 8.66663H11.3332V15H20.6665V8.66663H19.3332C19.1564 8.66663 18.9868 8.59639 18.8618 8.47136C18.7367 8.34634 18.6665 8.17677 18.6665 7.99996V7.33329C18.6665 7.15648 18.7367 6.98691 18.8618 6.86189C18.9868 6.73686 19.1564 6.66663 19.3332 6.66663H24.6665C24.8433 6.66663 25.0129 6.73686 25.1379 6.86189C25.2629 6.98691 25.3332 7.15648 25.3332 7.33329V7.99996C25.3332 8.17677 25.2629 8.34634 25.1379 8.47136C25.0129 8.59639 24.8433 8.66663 24.6665 8.66663H23.3332Z" fill="#474747"/>
</svg>
