<svg width="32" height="32" viewBox="0 0 32 32" fill="none" xmlns="http://www.w3.org/2000/svg">
<path d="M17.0286 9.33337H12.7883C12.6398 9.33337 12.4975 9.39071 12.3925 9.49276C12.2875 9.59481 12.2286 9.73322 12.2286 9.87754V10.7892C12.2286 10.9335 12.2875 11.0719 12.3925 11.174C12.4975 11.276 12.6398 11.3334 12.7883 11.3334H13.9429V15H7.77143V11.3334H8.926C9.07445 11.3334 9.21681 11.276 9.32178 11.174C9.42674 11.0719 9.48571 10.9335 9.48571 10.7892V10C9.48571 9.82323 9.41347 9.65366 9.28487 9.52864C9.15628 9.40361 8.98186 9.33337 8.8 9.33337H4.68571C4.50385 9.33337 4.32944 9.40361 4.20084 9.52864C4.07224 9.65366 4 9.82323 4 10V10.7892C4 10.9335 4.05897 11.0719 4.16394 11.174C4.2689 11.276 4.41127 11.3334 4.55971 11.3334H5.71429V20.6667H4.55971C4.41127 20.6667 4.2689 20.724 4.16394 20.8261C4.05897 20.9281 4 21.0666 4 21.2109V22C4 22.1769 4.07224 22.3464 4.20084 22.4714C4.32944 22.5965 4.50385 22.6667 4.68571 22.6667H8.926C9.07445 22.6667 9.21681 22.6094 9.32178 22.5073C9.42674 22.4053 9.48571 22.2669 9.48571 22.1225V21.2109C9.48571 21.0666 9.42674 20.9281 9.32178 20.8261C9.21681 20.724 9.07445 20.6667 8.926 20.6667H7.77143V17H13.9429V20.6667H12.7883C12.6398 20.6667 12.4975 20.724 12.3925 20.8261C12.2875 20.9281 12.2286 21.0666 12.2286 21.2109V22C12.2286 22.1769 12.3008 22.3464 12.4294 22.4714C12.558 22.5965 12.7324 22.6667 12.9143 22.6667H17.0286C17.2104 22.6667 17.3848 22.5965 17.5134 22.4714C17.642 22.3464 17.7143 22.1769 17.7143 22V21.2109C17.7143 21.0666 17.6553 20.9281 17.5503 20.8261C17.4454 20.724 17.303 20.6667 17.1546 20.6667H16V11.3334H17.1546C17.303 11.3334 17.4454 11.276 17.5503 11.174C17.6553 11.0719 17.7143 10.9335 17.7143 10.7892V10C17.7143 9.82323 17.642 9.65366 17.5134 9.52864C17.3848 9.40361 17.2104 9.33337 17.0286 9.33337ZM27.4917 20.6721H21.6066C21.9717 18.1575 27.8637 17.3688 27.8637 13.2009C27.8629 10.9238 26.0714 9.33337 23.5021 9.33337C22.659 9.33377 21.8302 9.54495 21.0953 9.94664C20.3604 10.3483 19.7441 10.927 19.3056 11.6271C19.2381 11.7358 19.2163 11.8655 19.2449 11.9894C19.2735 12.1132 19.3502 12.2216 19.459 12.2917L20.3714 12.8846C20.4816 12.9559 20.616 12.9827 20.7461 12.9594C20.8762 12.936 20.9919 12.8644 21.0687 12.7596C21.6259 12 22.4221 11.4534 23.371 11.4534C24.6383 11.4534 25.4894 12.2067 25.4894 13.3284C25.4894 16.12 19.0844 16.8284 19.0844 21.4738C19.0865 21.7306 19.1064 21.987 19.144 22.2413C19.1637 22.3585 19.2252 22.4653 19.3176 22.5431C19.41 22.6208 19.5275 22.6646 19.6497 22.6667H27.4926C27.627 22.6666 27.7558 22.6147 27.851 22.5224C27.9461 22.4301 27.9997 22.3049 28 22.1742V21.1667C28.0001 21.1018 27.987 21.0374 27.9615 20.9774C27.9361 20.9174 27.8986 20.8628 27.8514 20.8169C27.8042 20.7709 27.7481 20.7345 27.6864 20.7097C27.6247 20.6848 27.5585 20.6721 27.4917 20.6721Z" fill="currentColor"/>
</svg>
