<svg width="32" height="32" viewBox="0 0 32 32" fill="none" xmlns="http://www.w3.org/2000/svg">
<path d="M5.33325 25.4158L9.25011 26.6666L10.6446 25.2768L8.01678 22.658L5.33325 25.4158ZM26.0364 9.76311L23.5591 7.29436C23.1407 6.87717 22.5897 6.66663 22.0379 6.66663C21.5309 6.66663 21.023 6.84436 20.6152 7.20295L10.2274 16.0401C10.0209 16.2216 9.8713 16.4584 9.79627 16.7223C9.72124 16.9862 9.72401 17.266 9.80423 17.5283L10.316 19.2014L8.98462 20.5283C8.61717 20.8944 8.61717 21.4877 8.98462 21.8537L11.4262 24.2869C11.7936 24.6533 12.3901 24.6533 12.7576 24.2869L14.0854 22.9635L15.7607 23.4744C15.8967 23.516 16.0381 23.5372 16.1803 23.5373C16.3838 23.5373 16.5849 23.4942 16.7704 23.4109C16.9559 23.3275 17.1214 23.2057 17.256 23.0537L26.1285 12.6971C26.8799 11.8487 26.8399 10.5639 26.0364 9.76311ZM16.0305 21.5955L14.6364 21.1701L13.5544 20.8401L12.7544 21.6373L12.0921 22.2975L10.9819 21.1912L11.6474 20.528L12.4462 19.7319L12.1168 18.6549L11.6909 17.2619L13.1901 15.9865L17.3148 20.0971L16.0305 21.5955ZM24.6968 11.4795L18.1317 19.1428L14.1474 15.1721L21.8603 8.60959C21.9109 8.56506 21.9709 8.54241 22.0379 8.54241C22.0889 8.54241 22.1634 8.55608 22.2285 8.62092L24.7058 11.0897C24.8054 11.1897 24.8105 11.3506 24.6968 11.4795Z" fill="#474747"/>
</svg>
