<svg width="32" height="32" viewBox="0 0 32 32" fill="none" xmlns="http://www.w3.org/2000/svg">
<path d="M26.6666 15.9799C26.6775 21.8569 21.8219 26.6625 15.868 26.6667C13.0786 26.6686 10.5357 25.6274 8.61751 23.9165C8.39542 23.7184 8.38657 23.377 8.59821 23.1681L9.33722 22.4386C9.53457 22.2438 9.85035 22.2382 10.0586 22.4216C11.599 23.7782 13.6313 24.6022 15.8602 24.6022C20.6773 24.6022 24.575 20.7541 24.575 16C24.575 11.2452 20.6765 7.39786 15.8602 7.39786C13.441 7.39786 11.2541 8.36878 9.67606 9.93734L11.8151 12.0196C12.1481 12.3437 11.9156 12.9032 11.448 12.9032H5.85614C5.56738 12.9032 5.33325 12.6721 5.33325 12.3871V6.94379C5.33325 6.48569 5.89287 6.25463 6.22329 6.57631L8.18835 8.48917C10.1462 6.54053 12.8601 5.33334 15.8602 5.33334C21.8216 5.33334 26.6555 10.0981 26.6666 15.9799ZM19.3872 19.8583L20.0023 19.0235C20.1721 18.793 20.1205 18.4702 19.8869 18.3025L16.906 16.1625V9.9785C16.906 9.69347 16.6719 9.46238 16.3831 9.46238H15.3373C15.0486 9.46238 14.8144 9.69347 14.8144 9.9785V17.2139L18.6567 19.9721C18.8903 20.1398 19.2173 20.0888 19.3872 19.8583Z" fill="currentColor"/>
</svg>
