<svg width="32" height="32" viewBox="0 0 32 32" fill="none" xmlns="http://www.w3.org/2000/svg">
<path d="M27.7589 15.6416L17.4935 7.2078C17.0738 6.85839 16.545 6.66705 15.9989 6.66705C15.4528 6.66705 14.924 6.85839 14.5043 7.2078L4.2388 15.6416C4.17166 15.6978 4.11624 15.7667 4.07571 15.8443C4.03519 15.9219 4.01035 16.0067 4.00261 16.0939C3.99487 16.1811 4.00439 16.269 4.03061 16.3526C4.05684 16.4361 4.09927 16.5136 4.15547 16.5808L4.58213 17.0933C4.69561 17.2288 4.85823 17.3136 5.03426 17.3293C5.21029 17.3449 5.38532 17.29 5.52089 17.1766L6.66548 16.2366V23.9996C6.66647 24.3529 6.80726 24.6915 7.0571 24.9413C7.30694 25.1911 7.6455 25.3319 7.99882 25.3329H13.3322C13.6855 25.3319 14.0241 25.1911 14.2739 24.9413C14.5237 24.6915 14.6645 24.3529 14.6655 23.9996V19.6662H17.3322V23.9996C17.3332 24.3529 17.474 24.6915 17.7238 24.9413C17.9737 25.1911 18.3122 25.3319 18.6656 25.3329H23.9989C24.3506 25.3322 24.6878 25.1928 24.9374 24.9451C25.187 24.6974 25.3289 24.3612 25.3323 24.0096V16.2358L26.4794 17.1783C26.6149 17.2917 26.79 17.3466 26.966 17.3309C27.142 17.3153 27.3046 17.2304 27.4181 17.0949L27.8444 16.5829C27.9008 16.5155 27.9433 16.4377 27.9695 16.3539C27.9958 16.2701 28.0052 16.1819 27.9973 16.0945C27.9893 16.007 27.9642 15.922 27.9233 15.8443C27.8824 15.7665 27.8265 15.6977 27.7589 15.6416ZM23.326 23.3329H19.3322V18.9995C19.3312 18.6462 19.1904 18.3077 18.9406 18.0578C18.6908 17.808 18.3522 17.6672 17.9989 17.6662H13.9989C13.6455 17.6672 13.307 17.808 13.0571 18.0578C12.8073 18.3077 12.6665 18.6462 12.6655 18.9995V23.3329H8.66549V14.5941L15.9989 8.56823L23.3323 14.5916L23.326 23.3329Z" fill="#474747"/>
</svg>
