<svg width="32" height="32" viewBox="0 0 32 32" fill="none" xmlns="http://www.w3.org/2000/svg">
<path d="M26 6.66666H6C4.89583 6.66666 4 7.56249 4 8.66666V23.3333C4 24.4375 4.89583 25.3333 6 25.3333H26C27.1042 25.3333 28 24.4375 28 23.3333V8.66666C28 7.56249 27.1042 6.66666 26 6.66666ZM26 23.3333H16.6333C16.6708 23.1458 16.6667 23.4833 16.6667 22.4C16.6667 21.075 15.4125 20 13.8667 20C13.4167 20 13.0875 20.3333 12 20.3333C10.8792 20.3333 10.6083 20 10.1333 20C8.5875 20 7.33333 21.075 7.33333 22.4C7.33333 23.4833 7.325 23.1458 7.36667 23.3333H6V11.3333H26V23.3333ZM19 20H23.6667C23.85 20 24 19.85 24 19.6667V19C24 18.8167 23.85 18.6667 23.6667 18.6667H19C18.8167 18.6667 18.6667 18.8167 18.6667 19V19.6667C18.6667 19.85 18.8167 20 19 20ZM19 17.3333H23.6667C23.85 17.3333 24 17.1833 24 17V16.3333C24 16.15 23.85 16 23.6667 16H19C18.8167 16 18.6667 16.15 18.6667 16.3333V17C18.6667 17.1833 18.8167 17.3333 19 17.3333ZM19 14.6667H23.6667C23.85 14.6667 24 14.5167 24 14.3333V13.6667C24 13.4833 23.85 13.3333 23.6667 13.3333H19C18.8167 13.3333 18.6667 13.4833 18.6667 13.6667V14.3333C18.6667 14.5167 18.8167 14.6667 19 14.6667ZM12 18.6667C13.4708 18.6667 14.6667 17.4708 14.6667 16C14.6667 14.5292 13.4708 13.3333 12 13.3333C10.5292 13.3333 9.33333 14.5292 9.33333 16C9.33333 17.4708 10.5292 18.6667 12 18.6667Z" fill="currentColor"/>
</svg>
