<svg width="32" height="32" viewBox="0 0 32 32" fill="none" xmlns="http://www.w3.org/2000/svg">
<path d="M24.6666 8H7.33325C6.22867 8 5.33325 8.89542 5.33325 10V22C5.33325 23.1046 6.22867 24 7.33325 24H24.6666C25.7712 24 26.6666 23.1046 26.6666 22V10C26.6666 8.89542 25.7712 8 24.6666 8ZM24.4166 22H7.58325C7.51695 22 7.45336 21.9737 7.40648 21.9268C7.35959 21.8799 7.33325 21.8163 7.33325 21.75V10.25C7.33325 10.1837 7.35959 10.1201 7.40648 10.0732C7.45336 10.0263 7.51695 10 7.58325 10H24.4166C24.4829 10 24.5465 10.0263 24.5934 10.0732C24.6402 10.1201 24.6666 10.1837 24.6666 10.25V21.75C24.6666 21.8163 24.6402 21.8799 24.5934 21.9268C24.5465 21.9737 24.4829 22 24.4166 22ZM10.6666 11.6667C9.74613 11.6667 8.99992 12.4129 8.99992 13.3333C8.99992 14.2538 9.74613 15 10.6666 15C11.587 15 12.3333 14.2538 12.3333 13.3333C12.3333 12.4129 11.587 11.6667 10.6666 11.6667ZM9.33325 20H22.6666V16.6667L19.0201 13.0202C18.8249 12.825 18.5083 12.825 18.313 13.0202L13.3333 18L11.6868 16.3535C11.4915 16.1583 11.175 16.1583 10.9797 16.3535L9.33325 18V20Z" fill="#474747"/>
</svg>
