<svg width="32" height="32" viewBox="0 0 32 32" fill="none" xmlns="http://www.w3.org/2000/svg">
<path d="M23.9998 6.66666H7.99984C7.64622 6.66666 7.30708 6.80713 7.05703 7.05718C6.80698 7.30723 6.6665 7.64637 6.6665 7.99999V24C6.6665 24.3536 6.80698 24.6927 7.05703 24.9428C7.30708 25.1928 7.64622 25.3333 7.99984 25.3333H23.9998C24.3535 25.3333 24.6926 25.1928 24.9426 24.9428C25.1927 24.6927 25.3332 24.3536 25.3332 24V7.99999C25.3332 7.64637 25.1927 7.30723 24.9426 7.05718C24.6926 6.80713 24.3535 6.66666 23.9998 6.66666ZM23.3332 23.3333H8.6665V20.6667H23.3332V23.3333ZM23.3332 18.6667H22.6665L18.6219 13.625C18.3111 13.2371 17.6886 13.2371 17.3778 13.625L14.7369 16.9167L13.3598 15.0092C13.0298 14.5508 12.3032 14.5508 11.9732 15.0092L9.33317 18.6667H8.6665V8.66666H23.3332V18.6667ZM12.6665 12.6667C12.9302 12.6667 13.188 12.5885 13.4073 12.4419C13.6265 12.2954 13.7974 12.0872 13.8983 11.8436C13.9993 11.5999 14.0257 11.3318 13.9742 11.0732C13.9228 10.8146 13.7958 10.577 13.6093 10.3905C13.4228 10.204 13.1853 10.0771 12.9266 10.0256C12.668 9.97416 12.3999 10.0006 12.1563 10.1015C11.9126 10.2024 11.7044 10.3733 11.5579 10.5926C11.4114 10.8118 11.3332 11.0696 11.3332 11.3333C11.3332 11.6869 11.4736 12.0261 11.7237 12.2761C11.9737 12.5262 12.3129 12.6667 12.6665 12.6667Z" fill="#474747"/>
</svg>
