<svg width="32" height="32" viewBox="0 0 32 32" fill="none" xmlns="http://www.w3.org/2000/svg">
<path fill-rule="evenodd" clip-rule="evenodd" d="M27.8456 16.9608L24.8552 13.9479C24.5406 13.6312 24.0002 13.8537 24.0002 14.3V16.3366H20.0002V10.8325C20.0002 10.3033 19.7848 9.79081 19.4098 9.41623L15.9144 5.92083C15.5394 5.54583 15.031 5.33333 14.5023 5.33333H5.99982C4.89607 5.3375 4.00024 6.23333 4.00024 7.33707V24.667C4.00024 25.7707 4.89607 26.6666 5.99982 26.6666H17.9973C19.1014 26.6666 20.0002 25.7707 20.0002 24.667V20.3362H18.0002V24.667H5.99982V7.33707H12.6652V11.6696C12.6652 12.2237 13.111 12.6691 13.6652 12.6691H18.0002V16.3362H11.1669C10.8906 16.3362 10.6669 16.5599 10.6669 16.8362V17.8362C10.6669 18.1124 10.8906 18.3362 11.1669 18.3362H24.0002V20.3728C24.0002 20.8191 24.5406 21.0416 24.8552 20.7249L27.8456 17.712C28.0518 17.5041 28.0518 17.1687 27.8456 16.9608ZM14.6648 10.6696V7.49957L17.8352 10.6696H14.6648Z" fill="#474747"/>
<path d="M7.29195 11.1041C7.29195 10.874 7.47849 10.6875 7.70861 10.6875H10.8128C11.0429 10.6875 11.2294 10.874 11.2294 11.1041V12.25C11.2294 12.4801 11.0429 12.6666 10.8128 12.6666H7.70861C7.47849 12.6666 7.29195 12.4801 7.29195 12.25V11.1041Z" fill="#474747"/>
<path d="M12.6808 20.7499C12.6808 20.5198 12.8674 20.3333 13.0975 20.3333H16.2016C16.4318 20.3333 16.6183 20.5198 16.6183 20.7499V21.8958C16.6183 22.1259 16.4318 22.3124 16.2016 22.3124H13.0975C12.8674 22.3124 12.6808 22.1259 12.6808 21.8958V20.7499Z" fill="#474747"/>
</svg>
