<svg width="32" height="32" viewBox="0 0 32 32" fill="none" xmlns="http://www.w3.org/2000/svg">
<path d="M13.3335 16C13.3335 14.9452 13.0207 13.914 12.4347 13.037C11.8487 12.1599 11.0157 11.4763 10.0411 11.0726C9.06659 10.669 7.99422 10.5634 6.95965 10.7691C5.92507 10.9749 4.97475 11.4829 4.22886 12.2288C3.48298 12.9746 2.97502 13.9249 2.76923 14.9595C2.56344 15.9941 2.66906 17.0664 3.07273 18.041C3.4764 19.0155 4.16 19.8485 5.03707 20.4345C5.91414 21.0205 6.9453 21.3333 8.00014 21.3333C9.41464 21.3333 10.7712 20.7714 11.7714 19.7712C12.7716 18.771 13.3335 17.4145 13.3335 16ZM7.11138 18.4446V16.8887H5.55553C5.52637 16.8887 5.49749 16.883 5.47054 16.8718C5.4436 16.8607 5.41912 16.8443 5.39849 16.8237C5.37787 16.8031 5.36151 16.7786 5.35035 16.7516C5.33919 16.7247 5.33345 16.6958 5.33345 16.6667V15.3333C5.33345 15.2744 5.35684 15.2179 5.39849 15.1763C5.44014 15.1346 5.49663 15.1112 5.55553 15.1112H7.11138V13.5554C7.11138 13.4965 7.13478 13.44 7.17643 13.3984C7.21808 13.3567 7.27457 13.3333 7.33347 13.3333H8.66681C8.69598 13.3333 8.72486 13.3391 8.7518 13.3502C8.77875 13.3614 8.80323 13.3778 8.82385 13.3984C8.84447 13.419 8.86083 13.4435 8.87199 13.4704C8.88315 13.4974 8.8889 13.5262 8.8889 13.5554V15.1112H10.4447C10.5037 15.1112 10.5601 15.1346 10.6018 15.1763C10.6434 15.2179 10.6668 15.2744 10.6668 15.3333V16.6667C10.6668 16.7256 10.6434 16.7821 10.6018 16.8237C10.5601 16.8653 10.5037 16.8887 10.4447 16.8887H8.8889V18.4446C8.8889 18.5035 8.8655 18.56 8.82385 18.6016C8.7822 18.6433 8.72571 18.6667 8.66681 18.6667H7.33347C7.27457 18.6667 7.21808 18.6433 7.17643 18.6016C7.13478 18.56 7.11138 18.5035 7.11138 18.4446ZM29.3112 24.2746L24.4399 5.82749C24.3941 5.65716 24.2826 5.51193 24.1299 5.4236C23.9773 5.33528 23.7958 5.31105 23.6253 5.35624L22.9795 5.52833C22.8302 5.56824 22.6995 5.65875 22.6096 5.78437C22.5197 5.91 22.4762 6.06294 22.4865 6.21708C22.0086 6.52624 19.8107 7.115 19.2428 7.08624C19.1747 6.94767 19.0606 6.83702 18.92 6.77319C18.7794 6.70936 18.6211 6.6963 18.4719 6.73624L18.0002 6.86249V6.66666C18.0002 5.93041 17.4032 5.33333 16.3336 5.33333H6.33346C5.93054 5.33333 5.33345 5.93041 5.33345 6.66666V9.89833C5.9547 9.62499 6.63096 9.47166 7.33347 9.40083V7.33333H10.6668V9.89833C11.4463 10.2397 12.1534 10.7268 12.7502 11.3333H16.0002V20.6667H12.7502C12.1534 21.2732 11.4463 21.7603 10.6668 22.1017V24.6667H7.33347V22.5992C6.63096 22.5283 5.9547 22.3742 5.33345 22.1017V25.3333C5.33345 26.0696 5.93054 26.6667 6.33346 26.6667H16.3336C17.4032 26.6667 18.0002 26.0696 18.0002 25.3333V10.1642L22.2274 26.1725C22.25 26.2571 22.2892 26.3363 22.3425 26.4058C22.3958 26.4752 22.4623 26.5335 22.5381 26.5773C22.6139 26.621 22.6977 26.6494 22.7845 26.6608C22.8713 26.6722 22.9595 26.6664 23.044 26.6437L23.6882 26.4712C23.8374 26.4313 23.9681 26.3409 24.058 26.2154C24.1479 26.0898 24.1914 25.937 24.1811 25.7829C24.6591 25.4737 26.8566 24.885 27.4249 24.9137C27.493 25.0523 27.6071 25.163 27.7477 25.2268C27.8882 25.2906 28.0466 25.3037 28.1958 25.2637L28.8399 25.0912C29.0104 25.0449 29.1556 24.933 29.2438 24.78C29.3321 24.627 29.3563 24.4453 29.3112 24.2746ZM16.0002 24.6667H12.6669V22.6667H16.0002V24.6667ZM16.0002 9.33333H12.6669V7.33333H16.0002V9.33333ZM23.7503 24.125L19.6978 8.73708C20.3961 8.66208 22.2286 8.17916 22.917 7.87499L26.9695 23.2625C26.2712 23.3379 24.4386 23.8208 23.7503 24.125Z" fill="currentColor"/>
</svg>
