<svg width="32" height="32" viewBox="0 0 32 32" fill="none" xmlns="http://www.w3.org/2000/svg">
<path fill-rule="evenodd" clip-rule="evenodd" d="M7.36298 24.6667V7.33708H14.1288V11.6704C14.1284 11.8018 14.1544 11.9321 14.2052 12.0536C14.2561 12.1751 14.3308 12.2854 14.4251 12.3784C14.5195 12.4713 14.6315 12.545 14.7548 12.5951C14.8781 12.6452 15.0102 12.6708 15.1436 12.6704H18.6656C19.549 12.2537 20.5262 12.0012 21.5711 12.0012V10.8333C21.5702 10.302 21.3559 9.79265 20.9749 9.41666L17.4271 5.92083C17.0471 5.54555 16.5315 5.33423 15.9936 5.33333H7.36298C6.82456 5.33509 6.30875 5.54688 5.92838 5.92239C5.54801 6.29789 5.33403 6.80653 5.33325 7.33708V24.6667C5.33325 25.1971 5.5471 25.7058 5.92775 26.0809C6.30839 26.4559 6.82467 26.6667 7.36298 26.6667H19.5414C19.9621 26.6657 20.372 26.5357 20.7142 26.2945C21.0563 26.0534 21.3137 25.7132 21.4506 25.3212C20.4873 25.3024 19.5394 25.0792 18.6716 24.6667H7.36298ZM16.1585 7.49999L19.3765 10.67H16.1585V7.49999Z" fill="#474747"/>
<path d="M20.3839 19.9305C20.3774 19.9242 20.3713 19.9176 20.3655 19.9109L19.3389 18.8994C19.2068 18.7692 19.2068 18.5581 19.3389 18.428L19.7575 18.0155C19.8896 17.8853 20.1038 17.8853 20.2359 18.0155L21.0425 18.8102L22.9105 16.9695C23.0426 16.8394 23.2568 16.8394 23.3889 16.9695L23.8075 17.382C23.9396 17.5122 23.9396 17.7233 23.8075 17.8534L21.7195 19.9108C21.7137 19.9176 21.7075 19.9242 21.7011 19.9306L21.2824 20.343C21.2162 20.4083 21.1293 20.4409 21.0425 20.4407C20.9557 20.4409 20.8688 20.4083 20.8025 20.343L20.3839 19.9305Z" fill="#474747"/>
<path fill-rule="evenodd" clip-rule="evenodd" d="M21.5732 23.6751C24.3862 23.6751 26.6666 21.4281 26.6666 18.6563C26.6666 15.8845 24.3862 13.6375 21.5732 13.6375C18.7602 13.6375 16.4798 15.8845 16.4798 18.6563C16.4798 21.4281 18.7602 23.6751 21.5732 23.6751ZM24.9751 18.6563C24.9751 20.5076 23.452 22.0084 21.5732 22.0084C19.6944 22.0084 18.1713 20.5076 18.1713 18.6563C18.1713 16.805 19.6944 15.3042 21.5732 15.3042C23.452 15.3042 24.9751 16.805 24.9751 18.6563Z" fill="#474747"/>
<path d="M8.75124 11.1042C8.75124 10.874 8.94075 10.6875 9.17452 10.6875H12.328C12.5617 10.6875 12.7512 10.874 12.7512 11.1042V12.25C12.7512 12.4801 12.5617 12.6667 12.328 12.6667H9.17452C8.94075 12.6667 8.75124 12.4801 8.75124 12.25V11.1042Z" fill="#474747"/>
<path d="M8.75124 19.8958C8.75124 19.6657 8.94075 19.4792 9.17452 19.4792H12.328C12.5617 19.4792 12.7512 19.6657 12.7512 19.8958V21.0417C12.7512 21.2718 12.5617 21.4583 12.328 21.4583H9.17452C8.94075 21.4583 8.75124 21.2718 8.75124 21.0417V19.8958Z" fill="#474747"/>
</svg>
