<svg width="32" height="32" viewBox="0 0 32 32" fill="none" xmlns="http://www.w3.org/2000/svg">
<path d="M16.0002 5.33334C10.1095 5.33334 5.3335 10.1111 5.3335 16C5.3335 21.8924 10.1095 26.6667 16.0002 26.6667C21.8908 26.6667 26.6668 21.8924 26.6668 16C26.6668 10.1111 21.8908 5.33334 16.0002 5.33334ZM16.0002 24.6022C11.2461 24.6022 7.39801 20.7557 7.39801 16C7.39801 11.2475 11.2463 7.39786 16.0002 7.39786C20.7525 7.39786 24.6023 11.2461 24.6023 16C24.6023 20.754 20.7558 24.6022 16.0002 24.6022ZM16.0002 10.0645C16.9978 10.0645 17.8066 10.8733 17.8066 11.871C17.8066 12.8687 16.9978 13.6774 16.0002 13.6774C15.0025 13.6774 14.1937 12.8687 14.1937 11.871C14.1937 10.8733 15.0025 10.0645 16.0002 10.0645ZM18.4088 20.9893C18.4088 21.2743 18.1777 21.5054 17.8926 21.5054H14.1077C13.8227 21.5054 13.5916 21.2743 13.5916 20.9893V19.957C13.5916 19.672 13.8227 19.4409 14.1077 19.4409H14.6238V16.6882H14.1077C13.8227 16.6882 13.5916 16.4571 13.5916 16.1721V15.1398C13.5916 14.8548 13.8227 14.6237 14.1077 14.6237H16.8604C17.1454 14.6237 17.3765 14.8548 17.3765 15.1398V19.4409H17.8926C18.1777 19.4409 18.4088 19.672 18.4088 19.957V20.9893Z" fill="currentColor"/>
</svg>
