<svg width="32" height="32" viewBox="0 0 32 32" fill="none" xmlns="http://www.w3.org/2000/svg">
<path d="M22.6666 7.33329V7.99996C22.6666 8.17677 22.5963 8.34634 22.4713 8.47136C22.3463 8.59639 22.1767 8.66663 21.9999 8.66663H19.2083L15.5416 23.3333H17.9999C18.1767 23.3333 18.3463 23.4035 18.4713 23.5286C18.5963 23.6536 18.6666 23.8231 18.6666 24V24.6666C18.6666 24.8434 18.5963 25.013 18.4713 25.138C18.3463 25.2631 18.1767 25.3333 17.9999 25.3333H9.99992C9.82311 25.3333 9.65354 25.2631 9.52851 25.138C9.40349 25.013 9.33325 24.8434 9.33325 24.6666V24C9.33325 23.8231 9.40349 23.6536 9.52851 23.5286C9.65354 23.4035 9.82311 23.3333 9.99992 23.3333H12.7916L16.4583 8.66663H13.9999C13.8231 8.66663 13.6535 8.59639 13.5285 8.47136C13.4035 8.34634 13.3333 8.17677 13.3333 7.99996V7.33329C13.3333 7.15648 13.4035 6.98691 13.5285 6.86189C13.6535 6.73686 13.8231 6.66663 13.9999 6.66663H21.9999C22.1767 6.66663 22.3463 6.73686 22.4713 6.86189C22.5963 6.98691 22.6666 7.15648 22.6666 7.33329Z" fill="currentColor"/>
</svg>
