<svg width="32" height="32" viewBox="0 0 32 32" fill="none" xmlns="http://www.w3.org/2000/svg">
<path d="M26 8H6C4.89542 8 4 8.89542 4 10V22C4 23.1046 4.89542 24 6 24H26C27.1046 24 28 23.1046 28 22V10C28 8.89542 27.1046 8 26 8ZM26.3333 22C26.3333 22.1838 26.1838 22.3333 26 22.3333H6C5.81621 22.3333 5.66667 22.1838 5.66667 22V10C5.66667 9.81621 5.81621 9.66667 6 9.66667H26C26.1838 9.66667 26.3333 9.81621 26.3333 10V22ZM11.0833 16.5833V15.4167C11.0833 15.1405 10.8595 14.9167 10.5833 14.9167H9.41667C9.14054 14.9167 8.91667 15.1405 8.91667 15.4167V16.5833C8.91667 16.8595 9.14054 17.0833 9.41667 17.0833H10.5833C10.8595 17.0833 11.0833 16.8595 11.0833 16.5833ZM15.0833 16.5833V15.4167C15.0833 15.1405 14.8595 14.9167 14.5833 14.9167H13.4167C13.1405 14.9167 12.9167 15.1405 12.9167 15.4167V16.5833C12.9167 16.8595 13.1405 17.0833 13.4167 17.0833H14.5833C14.8595 17.0833 15.0833 16.8595 15.0833 16.5833ZM19.0833 16.5833V15.4167C19.0833 15.1405 18.8595 14.9167 18.5833 14.9167H17.4167C17.1405 14.9167 16.9167 15.1405 16.9167 15.4167V16.5833C16.9167 16.8595 17.1405 17.0833 17.4167 17.0833H18.5833C18.8595 17.0833 19.0833 16.8595 19.0833 16.5833ZM23.0833 16.5833V15.4167C23.0833 15.1405 22.8595 14.9167 22.5833 14.9167H21.4167C21.1405 14.9167 20.9167 15.1405 20.9167 15.4167V16.5833C20.9167 16.8595 21.1405 17.0833 21.4167 17.0833H22.5833C22.8595 17.0833 23.0833 16.8595 23.0833 16.5833ZM9.08333 20V18.8333C9.08333 18.5572 8.85946 18.3333 8.58333 18.3333H7.41667C7.14054 18.3333 6.91667 18.5572 6.91667 18.8333V20C6.91667 20.2761 7.14054 20.5 7.41667 20.5H8.58333C8.85946 20.5 9.08333 20.2761 9.08333 20ZM25.0833 20V18.8333C25.0833 18.5572 24.8595 18.3333 24.5833 18.3333H23.4167C23.1405 18.3333 22.9167 18.5572 22.9167 18.8333V20C22.9167 20.2761 23.1405 20.5 23.4167 20.5H24.5833C24.8595 20.5 25.0833 20.2761 25.0833 20ZM9.08333 13.1667V12C9.08333 11.7239 8.85946 11.5 8.58333 11.5H7.41667C7.14054 11.5 6.91667 11.7239 6.91667 12V13.1667C6.91667 13.4428 7.14054 13.6667 7.41667 13.6667H8.58333C8.85946 13.6667 9.08333 13.4428 9.08333 13.1667ZM13.0833 13.1667V12C13.0833 11.7239 12.8595 11.5 12.5833 11.5H11.4167C11.1405 11.5 10.9167 11.7239 10.9167 12V13.1667C10.9167 13.4428 11.1405 13.6667 11.4167 13.6667H12.5833C12.8595 13.6667 13.0833 13.4428 13.0833 13.1667ZM17.0833 13.1667V12C17.0833 11.7239 16.8595 11.5 16.5833 11.5H15.4167C15.1405 11.5 14.9167 11.7239 14.9167 12V13.1667C14.9167 13.4428 15.1405 13.6667 15.4167 13.6667H16.5833C16.8595 13.6667 17.0833 13.4428 17.0833 13.1667ZM21.0833 13.1667V12C21.0833 11.7239 20.8595 11.5 20.5833 11.5H19.4167C19.1405 11.5 18.9167 11.7239 18.9167 12V13.1667C18.9167 13.4428 19.1405 13.6667 19.4167 13.6667H20.5833C20.8595 13.6667 21.0833 13.4428 21.0833 13.1667ZM25.0833 13.1667V12C25.0833 11.7239 24.8595 11.5 24.5833 11.5H23.4167C23.1405 11.5 22.9167 11.7239 22.9167 12V13.1667C22.9167 13.4428 23.1405 13.6667 23.4167 13.6667H24.5833C24.8595 13.6667 25.0833 13.4428 25.0833 13.1667ZM21 19.75V19.0833C21 18.8072 20.7761 18.5833 20.5 18.5833H11.5C11.2239 18.5833 11 18.8072 11 19.0833V19.75C11 20.0261 11.2239 20.25 11.5 20.25H20.5C20.7761 20.25 21 20.0261 21 19.75Z" fill="#474747"/>
</svg>
