<svg width="32" height="32" viewBox="0 0 32 32" fill="none" xmlns="http://www.w3.org/2000/svg">
<path d="M26.6663 16.0004C26.6663 15.4645 26.3525 14.9829 25.8696 14.7737L22.5492 13.3328L25.8684 11.8924C26.3525 11.6828 26.6667 11.2012 26.6667 10.6658C26.6667 10.1303 26.3529 9.64866 25.87 9.43991L16.7773 5.49531C16.2839 5.27989 15.7173 5.27906 15.2239 5.49448L6.13157 9.43949C5.647 9.64908 5.33325 10.1307 5.33325 10.6662C5.33325 11.2016 5.647 11.6833 6.12991 11.892L9.45069 13.3328L6.13116 14.7733C5.647 14.9824 5.33325 15.4645 5.33325 16.0004C5.33325 16.5354 5.647 17.0174 6.12991 17.2262L9.45027 18.6666L6.13157 20.1066C5.647 20.3162 5.33325 20.7979 5.33325 21.3337C5.33325 21.8687 5.647 22.3508 6.12991 22.5596L15.2248 26.505C15.4691 26.6116 15.7328 26.6666 15.9993 26.6667C16.2635 26.6658 16.5281 26.6125 16.7739 26.5058L25.8675 22.5604C26.3517 22.3508 26.6659 21.8691 26.6659 21.3337C26.6659 20.7979 26.3521 20.3162 25.8692 20.107L22.5492 18.6666L25.8679 17.2266C26.3525 17.017 26.6663 16.5354 26.6663 16.0004ZM15.9777 7.32865L15.9789 7.32948H15.9764L15.9777 7.32865ZM15.9998 7.33823L23.673 10.667L16.0218 14.0041L8.32946 10.6662L15.9998 7.33823ZM23.6742 21.335L16.0218 24.6712L8.32946 21.3333L11.9632 19.7566L15.2252 21.1716C15.4695 21.2782 15.7332 21.3333 15.9998 21.3333C16.2639 21.3325 16.5285 21.2791 16.7743 21.1725L20.0364 19.757L23.6742 21.335ZM16.0218 19.3375L8.32946 15.9995L11.9636 14.4229L15.2252 15.8379C15.4695 15.9445 15.7332 15.9995 15.9998 15.9995C16.2639 15.9987 16.5285 15.9454 16.7743 15.8387L20.0364 14.4233L23.6742 16.0016L16.0218 19.3375Z" fill="#474747"/>
</svg>
