<svg width="32" height="32" viewBox="0 0 32 32" fill="none" xmlns="http://www.w3.org/2000/svg">
<path d="M18.4258 13.5742C20.5546 15.703 20.6915 19.0862 18.8321 21.3725C18.572 21.6946 18.7161 21.5336 15.2929 24.9567C13.0139 27.2357 9.32349 27.2377 7.04333 24.9567C4.76371 22.6779 4.76275 18.9877 7.04333 16.7071C8.40887 15.3416 9.20312 14.5447 9.68537 14.0631C9.99632 13.7526 10.5325 13.965 10.5389 14.4044C10.5467 14.9355 10.613 15.4641 10.7367 15.9806C10.7769 16.1485 10.7254 16.3251 10.6033 16.4472L8.69291 18.3571C7.32812 19.7227 7.32262 21.9359 8.69291 23.3071C10.0585 24.6719 12.2717 24.6774 13.6429 23.3071L16.7758 20.1738C18.1391 18.8102 18.1415 16.5899 16.7758 15.2242C16.4992 14.947 16.1778 14.7185 15.8252 14.548C15.6326 14.455 15.526 14.2459 15.5519 14.0336C15.6084 13.5702 15.8142 13.1217 16.1691 12.7667L16.3514 12.5844C16.5025 12.4333 16.7338 12.393 16.9248 12.4888C17.4664 12.7607 17.9742 13.1226 18.4258 13.5742ZM24.9565 7.04339C22.6763 4.76235 18.9859 4.76439 16.7069 7.04339C13.2837 10.4665 13.4278 10.3055 13.1677 10.6275C11.3083 12.9139 11.4452 16.2971 13.574 18.4259C14.0256 18.8775 14.5334 19.2394 15.075 19.5112C15.2659 19.6071 15.4973 19.5667 15.6484 19.4157L15.8306 19.2334C16.1856 18.8784 16.3914 18.4299 16.4479 17.9665C16.4738 17.7542 16.3672 17.5451 16.1746 17.4521C15.822 17.2816 15.5006 17.053 15.224 16.7759C13.8583 15.4102 13.8607 13.1898 15.224 11.8263L18.3569 8.69297C19.7281 7.32268 21.9413 7.32818 23.3069 8.69297C24.6772 10.0641 24.6717 12.2773 23.3069 13.643L21.3966 15.553C21.2745 15.675 21.2229 15.8517 21.2631 16.0195C21.3868 16.5361 21.4531 17.0646 21.4609 17.5957C21.4674 18.0351 22.0035 18.2475 22.3145 17.937C22.7967 17.4555 23.591 16.6585 24.9565 15.293C27.2371 13.0124 27.2361 9.32218 24.9565 7.04339Z" fill="currentColor"/>
</svg>
