<svg width="32" height="32" viewBox="0 0 32 32" fill="none" xmlns="http://www.w3.org/2000/svg">
<path d="M21.8524 18.984L21.0345 18.167C20.8342 17.9669 20.5128 17.9711 20.3209 18.1754L17.0826 21.5392V7.16688C17.0826 6.89177 16.8573 6.66669 16.5819 6.66669H15.4134C15.138 6.66669 14.9127 6.89177 14.9127 7.16688V21.5392L11.6786 18.1754C11.4825 17.9753 11.1611 17.9711 10.965 18.167L10.1471 18.984C9.95097 19.1799 9.95097 19.4967 10.1471 19.6926L15.6471 25.1864C15.8433 25.3823 16.1604 25.3823 16.3565 25.1864L21.8565 19.6926C22.0485 19.4967 22.0485 19.1799 21.8524 18.984Z" fill="currentColor"/>
</svg>
