<svg width="32" height="32" viewBox="0 0 32 32" fill="none" xmlns="http://www.w3.org/2000/svg">
<path d="M18.9854 10.1466L18.1672 10.9655C17.9691 11.1639 17.9724 11.4864 18.1745 11.6807L21.5392 14.9151H7.16697C6.89072 14.9151 6.66675 15.1393 6.66675 15.4158V16.5842C6.66675 16.8607 6.89072 17.0849 7.16697 17.0849H21.5392L18.1745 20.3193C17.9724 20.5136 17.9691 20.8361 18.1673 21.0345L18.9854 21.8534C19.1807 22.0489 19.4975 22.0489 19.6928 21.8534L25.1869 16.354C25.3822 16.1585 25.3822 15.8415 25.1869 15.6459L19.6928 10.1466C19.4974 9.95112 19.1807 9.95112 18.9854 10.1466Z" fill="currentColor"/>
</svg>
