<svg width="32" height="32" viewBox="0 0 32 32" fill="none" xmlns="http://www.w3.org/2000/svg">
<path d="M13.0147 21.8534L13.8329 21.0345C14.031 20.8361 14.0277 20.5136 13.8257 20.3193L10.4609 17.0848H24.8332C25.1094 17.0848 25.3334 16.8607 25.3334 16.5841V15.4158C25.3334 15.1393 25.1094 14.9151 24.8332 14.9151H10.4609L13.8256 11.6807C14.0277 11.4864 14.031 11.1639 13.8328 10.9655L13.0147 10.1466C12.8194 9.95112 12.5026 9.95112 12.3073 10.1466L6.81325 15.646C6.61791 15.8415 6.61791 16.1585 6.81325 16.3541L12.3073 21.8534C12.5027 22.0489 12.8194 22.0489 13.0147 21.8534Z" fill="currentColor"/>
</svg>
