<svg width="32" height="32" viewBox="0 0 32 32" fill="none" xmlns="http://www.w3.org/2000/svg">
<path d="M10.1466 13.0147L10.9655 13.8328C11.1639 14.0309 11.4864 14.0277 11.6807 13.8256L14.9151 10.4608V24.8331C14.9151 25.1094 15.1393 25.3334 15.4158 25.3334H16.5842C16.8607 25.3334 17.0849 25.1094 17.0849 24.8331V10.4608L20.3193 13.8256C20.5136 14.0277 20.8361 14.0309 21.0345 13.8328L21.8534 13.0146C22.0489 12.8193 22.0489 12.5026 21.8534 12.3072L16.354 6.81319C16.1585 6.61785 15.8415 6.61785 15.6459 6.81319L10.1466 12.3073C9.95112 12.5026 9.95112 12.8194 10.1466 13.0147Z" fill="#474747"/>
</svg>
