<svg width="32" height="32" viewBox="0 0 32 32" fill="none" xmlns="http://www.w3.org/2000/svg">
<path d="M16 5.33333C11.5793 5.33333 8 8.91724 8 13.3333C8 16.2965 8.99962 17.2225 14.303 25.726C15.0857 26.981 16.9152 26.9795 17.697 25.726C23.0031 17.2181 24 16.296 24 13.3333C24 8.91262 20.4161 5.33333 16 5.33333ZM16 24.6667C10.6907 16.1536 10 15.6162 10 13.3333C10 10.0196 12.6863 7.33333 16 7.33333C19.3137 7.33333 22 10.0196 22 13.3333C22 15.6064 21.3681 16.0594 16 24.6667ZM12.6667 13.3333C12.6667 11.4924 14.159 9.99999 16 9.99999C17.841 9.99999 19.3333 11.4924 19.3333 13.3333C19.3333 15.1743 17.841 16.6667 16 16.6667C14.159 16.6667 12.6667 15.1743 12.6667 13.3333Z" fill="currentColor"/>
</svg>
