<svg width="32" height="32" viewBox="0 0 32 32" fill="none" xmlns="http://www.w3.org/2000/svg">
<path d="M19.5905 17.0696L17.406 16.7512L16.4297 14.7712C16.3418 14.5942 16.1705 14.505 15.9993 14.505C15.8293 14.505 15.6593 14.5933 15.571 14.7712L14.5947 16.7512L12.4101 17.0696C12.0185 17.1262 11.8614 17.6096 12.1455 17.8858L13.726 19.4258L13.3522 21.6017C13.2989 21.9125 13.5468 22.1617 13.8239 22.1617C13.8976 22.1617 13.9731 22.1442 14.046 22.1054L16.0001 21.0783L17.9543 22.1054C18.0268 22.1437 18.1022 22.1608 18.1755 22.1608C18.453 22.1608 18.7014 21.9125 18.648 21.6012L18.2743 19.4254L19.8547 17.8854C20.1393 17.6092 19.9822 17.1262 19.5905 17.0696ZM25.9989 5.33333H19.4218C18.9535 5.33333 18.5193 5.57916 18.2785 5.98083L16.0001 9.77791L13.7218 5.98083C13.6034 5.78335 13.4358 5.61992 13.2354 5.50645C13.0351 5.39297 12.8087 5.33333 12.5785 5.33333H6.00138C5.4618 5.33333 5.14597 5.94041 5.45513 6.38249L10.2047 13.1679C8.84222 14.6029 8.00013 16.5362 8.00013 18.6667C8.00013 23.0779 11.5889 26.6667 16.0001 26.6667C20.4114 26.6667 24.0001 23.0779 24.0001 18.6667C24.0001 16.5362 23.158 14.6029 21.7955 13.1675L26.5451 6.38249C26.8543 5.94041 26.5385 5.33333 25.9989 5.33333ZM8.56222 7.33333H12.201L14.311 10.85C13.3897 11.0492 12.5306 11.4104 11.7568 11.8971L8.56222 7.33333ZM22.0001 18.6667C22.0001 21.9804 19.3139 24.6667 16.0001 24.6667C12.6864 24.6667 10.0001 21.9804 10.0001 18.6667C10.0001 15.3529 12.6864 12.6667 16.0001 12.6667C19.3139 12.6667 22.0001 15.3529 22.0001 18.6667ZM20.2435 11.8971C19.4697 11.4104 18.6105 11.0487 17.6893 10.85L19.7993 7.33333H23.438L20.2435 11.8971Z" fill="currentColor"/>
</svg>
