<svg width="32" height="32" viewBox="0 0 32 32" fill="none" xmlns="http://www.w3.org/2000/svg">
<path d="M20.6676 12.3338H11.3355C10.9689 12.3338 10.6689 12.6338 10.6689 13.0004V13.667C10.6689 14.0336 10.9689 14.3336 11.3355 14.3336H20.6676C21.0342 14.3336 21.3342 14.0336 21.3342 13.667V13.0004C21.3342 12.6338 21.0342 12.3338 20.6676 12.3338ZM16.6681 16.3333H11.3355C10.9689 16.3333 10.6689 16.6333 10.6689 16.9999V17.6665C10.6689 18.0331 10.9689 18.333 11.3355 18.333H16.6681C17.0347 18.333 17.3347 18.0331 17.3347 17.6665V16.9999C17.3347 16.6333 17.0347 16.3333 16.6681 16.3333ZM16.0015 6.66788C10.1106 6.66788 5.33626 10.5465 5.33626 15.3334C5.33626 17.3165 6.16532 19.1329 7.54014 20.5952C6.91939 22.2367 5.62789 23.6282 5.60706 23.6448C5.33209 23.9365 5.2571 24.3614 5.41542 24.728C5.57373 25.0947 5.93618 25.3321 6.33613 25.3321C8.8983 25.3321 10.9189 24.2614 12.1312 23.4032C13.3352 23.7823 14.6351 23.999 16.0015 23.999C21.8924 23.999 26.6668 20.1203 26.6668 15.3334C26.6668 10.5465 21.8924 6.66788 16.0015 6.66788ZM16.0015 21.9992C14.8892 21.9992 13.7893 21.8284 12.7353 21.4951L11.7896 21.1952L10.9772 21.7701C10.3814 22.1909 9.56488 22.6616 8.58167 22.9783C8.8858 22.4742 9.1816 21.9076 9.41073 21.3035L9.85234 20.1328L8.99412 19.2246C8.24005 18.4205 7.336 17.0915 7.336 15.3334C7.336 11.6589 11.223 8.66762 16.0015 8.66762C20.7801 8.66762 24.6671 11.6589 24.6671 15.3334C24.6671 19.0079 20.7801 21.9992 16.0015 21.9992Z" fill="#474747"/>
</svg>
