<svg width="32" height="32" viewBox="0 0 32 32" fill="none" xmlns="http://www.w3.org/2000/svg">
<path d="M14.236 21.0688L14.7072 20.5975C14.9677 20.3371 14.9677 19.915 14.7072 19.6546L13.2189 18.1667L14.7068 16.6783C14.9672 16.4179 14.9672 15.9958 14.7068 15.7354L14.2356 15.2642C13.9752 15.0038 13.5531 15.0038 13.2927 15.2642L10.8618 17.695C10.6014 17.9554 10.6014 18.3775 10.8618 18.6379L13.2927 21.0688C13.5531 21.3292 13.9756 21.3292 14.236 21.0688Z" fill="#474747"/>
<path d="M17.2935 20.5979L17.7647 21.0692C18.0252 21.3296 18.4472 21.3296 18.7077 21.0692L21.1385 18.6383C21.3989 18.3779 21.3989 17.9558 21.1385 17.6954L18.7077 15.2646C18.4472 15.0042 18.0252 15.0042 17.7647 15.2646L17.2935 15.7358C17.0331 15.9963 17.0331 16.4183 17.2935 16.6788L18.7814 18.1667L17.2935 19.655C17.0331 19.9154 17.0331 20.3375 17.2935 20.5979Z" fill="#474747"/>
<path fill-rule="evenodd" clip-rule="evenodd" d="M7.3335 6.66667H24.6668C25.771 6.66667 26.6668 7.56251 26.6668 8.66667V23.3333C26.6668 24.4375 25.771 25.3333 24.6668 25.3333H7.3335C6.22933 25.3333 5.3335 24.4375 5.3335 23.3333V8.66667C5.3335 7.56251 6.22933 6.66667 7.3335 6.66667ZM17.3335 8.66667C16.596 8.66667 16.0002 9.2625 16.0002 10C16.0002 10.7375 16.596 11.3333 17.3335 11.3333C18.071 11.3333 18.6668 10.7375 18.6668 10C18.6668 9.2625 18.071 8.66667 17.3335 8.66667ZM13.3335 8.66667C12.596 8.66667 12.0002 9.2625 12.0002 10C12.0002 10.7375 12.596 11.3333 13.3335 11.3333C14.071 11.3333 14.6668 10.7375 14.6668 10C14.6668 9.2625 14.071 8.66667 13.3335 8.66667ZM9.3335 8.66667C8.596 8.66667 8.00016 9.2625 8.00016 10C8.00016 10.7375 8.596 11.3333 9.3335 11.3333C10.071 11.3333 10.6668 10.7375 10.6668 10C10.6668 9.2625 10.071 8.66667 9.3335 8.66667ZM24.4168 23.3333C24.5543 23.3333 24.6668 23.2208 24.6668 23.0833V13.3333H7.3335V23.0833C7.3335 23.2208 7.446 23.3333 7.5835 23.3333H24.4168Z" fill="#474747"/>
</svg>
