<svg width="32" height="32" viewBox="0 0 32 32" fill="none" xmlns="http://www.w3.org/2000/svg">
<path d="M11.1667 17.1667C10.8917 17.1667 10.6667 16.9417 10.6667 16.6667V15.3333C10.6667 15.0583 10.8917 14.8333 11.1667 14.8333H20.8334C21.1084 14.8333 21.3334 15.0583 21.3334 15.3333V16.6667C21.3334 16.9417 21.1084 17.1667 20.8334 17.1667H11.1667ZM25.3334 8.66666V23.3333C25.3334 24.4375 24.4376 25.3333 23.3334 25.3333H8.66675C7.56258 25.3333 6.66675 24.4375 6.66675 23.3333V8.66666C6.66675 7.5625 7.56258 6.66666 8.66675 6.66666H23.3334C24.4376 6.66666 25.3334 7.5625 25.3334 8.66666ZM23.3334 23.0833V8.91666C23.3334 8.77916 23.2209 8.66666 23.0834 8.66666H8.91675C8.77925 8.66666 8.66675 8.77916 8.66675 8.91666V23.0833C8.66675 23.2208 8.77925 23.3333 8.91675 23.3333H23.0834C23.2209 23.3333 23.3334 23.2208 23.3334 23.0833Z" fill="#474747"/>
</svg>
