<svg width="32" height="32" viewBox="0 0 32 32" fill="none" xmlns="http://www.w3.org/2000/svg">
<path d="M22.8961 21.3326H24.6665C24.8433 21.3326 25.0129 21.2624 25.1379 21.1374C25.2629 21.0124 25.3332 20.8428 25.3332 20.666V18.8968C25.3332 18.7217 25.2987 18.5483 25.2317 18.3865C25.1648 18.2247 25.0666 18.0777 24.9428 17.9539L15.299 8.31057L12.3115 11.2981L21.9528 20.9418C22.0766 21.0657 22.2237 21.1641 22.3855 21.2311C22.5474 21.2982 22.7209 21.3327 22.8961 21.3326ZM11.3698 10.3564L14.3573 7.36473L12.6157 5.62432C12.4277 5.43831 12.1739 5.33398 11.9094 5.33398C11.645 5.33398 11.3912 5.43831 11.2032 5.62432L9.62484 7.20223C9.43909 7.38952 9.33487 7.64262 9.33487 7.9064C9.33487 8.17018 9.43909 8.42327 9.62484 8.61057L11.3698 10.3564ZM8.33317 22.9993H8.99984C9.08824 22.9993 9.17303 22.9642 9.23554 22.9017C9.29805 22.8392 9.33317 22.7544 9.33317 22.666V21.9943C10.3173 21.9681 11.1111 21.1385 11.1111 20.1164C11.1111 19.2831 10.5694 18.541 9.79525 18.3085L7.92025 17.746C7.70525 17.6818 7.55484 17.4635 7.55484 17.2156C7.55484 16.9126 7.77567 16.666 8.0465 16.666H9.21775C9.40688 16.6661 9.5921 16.7198 9.75192 16.821C9.81114 16.8586 9.87971 16.8788 9.94984 16.8793C10.0332 16.8799 10.1136 16.8481 10.174 16.7906L10.6636 16.3235C10.6986 16.2905 10.7261 16.2503 10.7442 16.2057C10.7622 16.1611 10.7704 16.1132 10.7681 16.0651C10.7659 16.017 10.7532 15.97 10.7311 15.9273C10.7089 15.8846 10.6778 15.8472 10.6398 15.8176C10.261 15.5337 9.80604 15.369 9.33317 15.3447V14.666C9.33317 14.5776 9.29805 14.4928 9.23554 14.4303C9.17303 14.3678 9.08824 14.3326 8.99984 14.3326H8.33317C8.24476 14.3326 8.15998 14.3678 8.09747 14.4303C8.03496 14.4928 7.99984 14.5776 7.99984 14.666V15.3376C7.01567 15.3639 6.22192 16.1939 6.22192 17.2156C6.22192 18.0489 6.76359 18.791 7.53775 19.0235L9.41275 19.586C9.62775 19.6501 9.77817 19.8685 9.77817 20.1164C9.77817 20.4193 9.55734 20.666 9.2865 20.666H8.11525C7.92686 20.6653 7.74246 20.6116 7.58317 20.511C7.52395 20.4734 7.45538 20.4532 7.38525 20.4526C7.30183 20.452 7.22143 20.4838 7.16109 20.5414L6.66942 21.0085C6.63438 21.0415 6.6069 21.0816 6.58885 21.1262C6.57081 21.1708 6.56264 21.2188 6.56489 21.2669C6.56715 21.3149 6.57978 21.3619 6.60193 21.4046C6.62407 21.4474 6.6552 21.4848 6.69317 21.5143C7.07215 21.7981 7.52701 21.9627 7.99984 21.9872V22.666C7.99984 22.7544 8.03496 22.8392 8.09747 22.9017C8.15998 22.9642 8.24476 22.9993 8.33317 22.9993ZM13.3332 17.9993H17.1248L15.1248 15.9993H13.3332C13.1564 15.9993 12.9868 16.0696 12.8618 16.1946C12.7367 16.3196 12.6665 16.4892 12.6665 16.666V17.3326C12.6665 17.5095 12.7367 17.679 12.8618 17.8041C12.9868 17.9291 13.1564 17.9993 13.3332 17.9993ZM12.6665 20.666C12.6665 20.8428 12.7367 21.0124 12.8618 21.1374C12.9868 21.2624 13.1564 21.3326 13.3332 21.3326H20.4582L18.4582 19.3326H13.3332C13.1564 19.3326 12.9868 19.4029 12.8618 19.5279C12.7367 19.6529 12.6665 19.8225 12.6665 19.9993V20.666ZM27.9998 10.666H19.5415L21.5415 12.666H27.3332V24.666H4.6665V12.666H11.7936L11.3686 12.241L10.4269 11.2993L9.79359 10.666H3.99984C3.64622 10.666 3.30708 10.8065 3.05703 11.0565C2.80698 11.3066 2.6665 11.6457 2.6665 11.9993L2.6665 25.3326C2.6665 25.6863 2.80698 26.0254 3.05703 26.2755C3.30708 26.5255 3.64622 26.666 3.99984 26.666H27.9998C28.3535 26.666 28.6926 26.5255 28.9426 26.2755C29.1927 26.0254 29.3332 25.6863 29.3332 25.3326V11.9993C29.3332 11.6457 29.1927 11.3066 28.9426 11.0565C28.6926 10.8065 28.3535 10.666 27.9998 10.666Z" fill="#474747"/>
</svg>
