<svg width="32" height="32" viewBox="0 0 32 32" fill="none" xmlns="http://www.w3.org/2000/svg">
<path d="M14.9468 15.0717L16.7047 15.5484C16.8793 15.5959 17.0002 15.738 17.0002 15.8942C17.0002 16.0942 16.8127 16.2567 16.581 16.2567H15.4835C15.3106 16.2567 15.1406 16.2134 14.9931 16.1338C14.8647 16.0642 14.7081 16.0767 14.6081 16.183L14.1052 16.7134C13.9756 16.85 13.9968 17.0734 14.1522 17.1796C14.4981 17.415 14.9047 17.5496 15.3335 17.5763V18C15.3335 18.1842 15.4827 18.3334 15.6668 18.3334H16.3335C16.5177 18.3334 16.6668 18.1842 16.6668 18V17.573C17.591 17.5271 18.3335 16.7992 18.3335 15.8938C18.3335 15.1367 17.8077 14.4655 17.0535 14.2617L15.2956 13.785C15.121 13.7375 15.0002 13.5955 15.0002 13.4392C15.0002 13.2392 15.1877 13.0767 15.4193 13.0767H16.5168C16.6897 13.0767 16.8597 13.12 17.0072 13.1996C17.1356 13.2688 17.2922 13.2567 17.3922 13.1505L17.8952 12.62C18.0247 12.4834 18.0035 12.26 17.8481 12.1538C17.5022 11.9184 17.0956 11.7838 16.6668 11.7571V11.3334C16.6668 11.1492 16.5177 11 16.3335 11H15.6668C15.4827 11 15.3335 11.1492 15.3335 11.3334V11.7605C14.4093 11.8063 13.6668 12.5342 13.6668 13.4396C13.6668 14.1967 14.1927 14.868 14.9468 15.0717ZM25.9414 12.1884C25.8781 12.1359 25.3639 11.7217 24.6668 11.1609V9.33337C24.6668 8.22879 23.7714 7.33337 22.6668 7.33337H19.9114C18.9685 6.53546 17.5739 5.33337 16.0002 5.33337C14.4314 5.33337 13.046 6.52629 12.0897 7.33337H9.3335C8.22891 7.33337 7.3335 8.22879 7.3335 9.33337V11.1605C6.63308 11.7238 6.11891 12.138 6.0635 12.1838C5.83531 12.3714 5.6515 12.6072 5.52528 12.8742C5.39907 13.1413 5.33357 13.433 5.3335 13.7284V24.6667C5.3335 25.7713 6.22891 26.6667 7.3335 26.6667H24.6668C25.7714 26.6667 26.6668 25.7713 26.6668 24.6667V13.7296C26.6668 13.1334 26.401 12.568 25.9414 12.1884ZM9.3335 9.33337H22.6668V15.8609C21.156 17.0825 19.3881 18.5138 19.0589 18.7755C18.3022 19.38 16.9835 20.6667 16.0002 20.6667C15.0131 20.6667 13.6727 19.3596 12.9414 18.7755C12.6122 18.5138 10.8443 17.0821 9.3335 15.86V9.33337ZM24.6668 24.4167C24.6668 24.5546 24.5547 24.6667 24.4168 24.6667H7.5835C7.44558 24.6667 7.3335 24.5546 7.3335 24.4167V16.815C8.95683 18.1267 11.3314 20.0505 11.6943 20.3392C12.6131 21.0734 14.1897 22.6667 16.0002 22.6667C17.8006 22.6667 19.3602 21.095 20.306 20.3392C20.681 20.0413 23.0493 18.123 24.6668 16.8159V24.4167Z" fill="#474747"/>
</svg>
