<svg width="32" height="32" viewBox="0 0 32 32" fill="none" xmlns="http://www.w3.org/2000/svg">
<path d="M17.3308 22.6667C17.3308 23.4042 16.735 24 15.9975 24C15.26 24 14.6641 23.4042 14.6641 22.6667C14.6641 21.9292 15.26 21.3333 15.9975 21.3333C16.735 21.3333 17.3308 21.9292 17.3308 22.6667ZM20.6641 20.1667V9.16667C20.6641 8.89167 20.4391 8.66667 20.1641 8.66667H11.836C11.561 8.66667 11.336 8.89167 11.336 9.16667V20.1667C11.336 20.4417 11.561 20.6667 11.836 20.6667H20.1641C20.4391 20.6667 20.6641 20.4417 20.6641 20.1667ZM23.9975 7.33334V24.6667C23.9975 25.7708 23.1016 26.6667 21.9975 26.6667H10.0027C8.89852 26.6667 8.00269 25.7708 8.00269 24.6667V7.33334C8.00269 6.22917 8.89852 5.33334 10.0027 5.33334H21.9975C23.1016 5.33334 23.9975 6.22917 23.9975 7.33334ZM21.9975 24.4167V7.58334C21.9975 7.44584 21.885 7.33334 21.7475 7.33334H10.2527C10.1152 7.33334 10.0027 7.44584 10.0027 7.58334V24.4167C10.0027 24.5542 10.1152 24.6667 10.2527 24.6667H21.7475C21.885 24.6667 21.9975 24.5542 21.9975 24.4167Z" fill="#474747"/>
</svg>
