<svg width="32" height="32" viewBox="0 0 32 32" fill="none" xmlns="http://www.w3.org/2000/svg">
<path d="M20.0001 13.2083V14.375C20.0001 14.65 19.7751 14.875 19.5001 14.875H12.5001C12.2251 14.875 12.0001 14.65 12.0001 14.375V13.2083C12.0001 12.9332 12.2251 12.7082 12.5001 12.7082H19.5001C19.7751 12.7082 20.0001 12.9332 20.0001 13.2083Z" fill="currentColor"/>
<path d="M14.7501 16.2083H12.5001C12.2251 16.2083 12.0001 16.4333 12.0001 16.7083V17.875C12.0001 18.1501 12.2251 18.3751 12.5001 18.3751H14.7501C15.0251 18.3751 15.2501 18.1501 15.2501 17.875V16.7083C15.2501 16.4333 15.0251 16.2083 14.7501 16.2083Z" fill="currentColor"/>
<path fill-rule="evenodd" clip-rule="evenodd" d="M25.3334 8.66672V19.8381C25.3334 20.3685 25.1227 20.8773 24.7476 21.2523L21.2525 24.7475C20.8775 25.1226 20.3688 25.3333 19.8383 25.3333H8.66675C7.56216 25.3333 6.66675 24.4379 6.66675 23.3333V8.66672C6.66675 7.5621 7.56216 6.66666 8.66675 6.66666H23.3334C24.438 6.66666 25.3334 7.5621 25.3334 8.66672ZM20.0001 19.9999V23.1715L23.1717 19.9999H20.0001ZM23.3334 17.9998V8.66672H8.66675V23.3333H18.0001V18.9998C18.0001 18.4475 18.4478 17.9998 19.0001 17.9998H23.3334Z" fill="currentColor"/>
</svg>
