<svg width="32" height="32" viewBox="0 0 32 32" fill="none" xmlns="http://www.w3.org/2000/svg">
<path d="M26.1668 10.6667C26.443 10.6667 26.6668 10.4428 26.6668 10.1667V7.16666C26.6668 6.89054 26.443 6.66666 26.1668 6.66666H23.1668C22.8907 6.66666 22.6668 6.89054 22.6668 7.16666V7.66666H9.3335V7.16666C9.3335 6.89054 9.10962 6.66666 8.8335 6.66666H5.8335C5.55737 6.66666 5.3335 6.89054 5.3335 7.16666V10.1667C5.3335 10.4428 5.55737 10.6667 5.8335 10.6667H6.3335V21.3333H5.8335C5.55737 21.3333 5.3335 21.5572 5.3335 21.8333V24.8333C5.3335 25.1095 5.55737 25.3333 5.8335 25.3333H8.8335C9.10962 25.3333 9.3335 25.1095 9.3335 24.8333V24.3333H22.6668V24.8333C22.6668 25.1095 22.8907 25.3333 23.1668 25.3333H26.1668C26.443 25.3333 26.6668 25.1095 26.6668 24.8333V21.8333C26.6668 21.5572 26.443 21.3333 26.1668 21.3333H25.6668V10.6667H26.1668ZM24.0002 8H25.3335V9.33333H24.0002V8ZM6.66683 8H8.00016V9.33333H6.66683V8ZM8.00016 24H6.66683V22.6667H8.00016V24ZM25.3335 24H24.0002V22.6667H25.3335V24ZM23.6668 21.3333H23.1668C22.8907 21.3333 22.6668 21.5572 22.6668 21.8333V22.3333H9.3335V21.8333C9.3335 21.5572 9.10962 21.3333 8.8335 21.3333H8.3335V10.6667H8.8335C9.10962 10.6667 9.3335 10.4428 9.3335 10.1667V9.66666H22.6668V10.1667C22.6668 10.4428 22.8907 10.6667 23.1668 10.6667H23.6668V21.3333ZM22.1668 13.3333H18.6668V11.1667C18.6668 10.8905 18.443 10.6667 18.1668 10.6667H9.8335C9.55737 10.6667 9.3335 10.8905 9.3335 11.1667V18.1667C9.3335 18.4428 9.55737 18.6667 9.8335 18.6667H13.3335V20.8333C13.3335 21.1095 13.5574 21.3333 13.8335 21.3333H22.1668C22.443 21.3333 22.6668 21.1095 22.6668 20.8333V13.8333C22.6668 13.5572 22.443 13.3333 22.1668 13.3333ZM11.0002 12.3333H17.0002V17H11.0002V12.3333ZM21.0002 19.6667H15.0002V18.6667H18.1668C18.443 18.6667 18.6668 18.4428 18.6668 18.1667V15H21.0002V19.6667Z" fill="#474747"/>
</svg>
