<svg width="32" height="32" viewBox="0 0 32 32" fill="none" xmlns="http://www.w3.org/2000/svg">
<path d="M7.90725 22.0416L8.63641 21.202C8.78153 21.0402 8.85738 20.8279 8.84766 20.6108V20.4729C8.84766 20.1666 8.68766 20 8.37516 20H6.00016C5.91176 20 5.82697 20.0351 5.76446 20.0976C5.70195 20.1601 5.66683 20.2449 5.66683 20.3333V21C5.66683 21.0884 5.70195 21.1731 5.76446 21.2357C5.82697 21.2982 5.91176 21.3333 6.00016 21.3333H6.95183C6.79004 21.496 6.63704 21.6672 6.4935 21.8462L6.25975 22.1379C6.09308 22.3491 6.041 22.56 6.14308 22.7579L6.18683 22.8383C6.31183 23.0783 6.44933 23.1666 6.69725 23.1666H6.89433C7.32475 23.1666 7.5585 23.2683 7.5585 23.5454C7.5585 23.742 7.3835 23.8879 6.96016 23.8879C6.73897 23.8861 6.52016 23.842 6.31558 23.7579C6.04516 23.5962 5.82641 23.612 5.66558 23.8879L5.43266 24.2758C5.27725 24.5312 5.29933 24.7641 5.54183 24.94C5.86308 25.1354 6.39141 25.3333 7.0835 25.3333C8.50683 25.3333 9.10433 24.3854 9.10433 23.495C9.10308 22.8958 8.72433 22.255 7.90725 22.0416ZM26.0002 21.6666H12.6668C12.49 21.6666 12.3204 21.7369 12.1954 21.8619C12.0704 21.9869 12.0002 22.1565 12.0002 22.3333V23C12.0002 23.1768 12.0704 23.3463 12.1954 23.4714C12.3204 23.5964 12.49 23.6666 12.6668 23.6666H26.0002C26.177 23.6666 26.3465 23.5964 26.4716 23.4714C26.5966 23.3463 26.6668 23.1768 26.6668 23V22.3333C26.6668 22.1565 26.5966 21.9869 26.4716 21.8619C26.3465 21.7369 26.177 21.6666 26.0002 21.6666ZM26.0002 8.33329H12.6668C12.49 8.33329 12.3204 8.40353 12.1954 8.52855C12.0704 8.65358 12.0002 8.82315 12.0002 8.99996V9.66663C12.0002 9.84344 12.0704 10.013 12.1954 10.138C12.3204 10.2631 12.49 10.3333 12.6668 10.3333H26.0002C26.177 10.3333 26.3465 10.2631 26.4716 10.138C26.5966 10.013 26.6668 9.84344 26.6668 9.66663V8.99996C26.6668 8.82315 26.5966 8.65358 26.4716 8.52855C26.3465 8.40353 26.177 8.33329 26.0002 8.33329ZM26.0002 15H12.6668C12.49 15 12.3204 15.0702 12.1954 15.1952C12.0704 15.3202 12.0002 15.4898 12.0002 15.6666V16.3333C12.0002 16.5101 12.0704 16.6797 12.1954 16.8047C12.3204 16.9297 12.49 17 12.6668 17H26.0002C26.177 17 26.3465 16.9297 26.4716 16.8047C26.5966 16.6797 26.6668 16.5101 26.6668 16.3333V15.6666C26.6668 15.4898 26.5966 15.3202 26.4716 15.1952C26.3465 15.0702 26.177 15 26.0002 15ZM6.00016 12H8.66683C8.75523 12 8.84002 11.9648 8.90253 11.9023C8.96504 11.8398 9.00016 11.755 9.00016 11.6666V11C9.00016 10.9116 8.96504 10.8268 8.90253 10.7643C8.84002 10.7017 8.75523 10.6666 8.66683 10.6666H8.00016V6.99996C8.00016 6.91155 7.96504 6.82677 7.90253 6.76426C7.84002 6.70174 7.75523 6.66663 7.66683 6.66663H6.66683C6.60504 6.66674 6.54451 6.68402 6.49197 6.71654C6.43944 6.74906 6.39698 6.79554 6.36933 6.85079L6.036 7.51746C6.01059 7.56823 5.99857 7.62466 6.00108 7.68138C6.0036 7.7381 6.02056 7.79324 6.05036 7.84157C6.08015 7.8899 6.1218 7.92982 6.17136 7.95754C6.22091 7.98526 6.27672 7.99986 6.3335 7.99996H6.66683V10.6666H6.00016C5.91176 10.6666 5.82697 10.7017 5.76446 10.7643C5.70195 10.8268 5.66683 10.9116 5.66683 11V11.6666C5.66683 11.755 5.70195 11.8398 5.76446 11.9023C5.82697 11.9648 5.91176 12 6.00016 12ZM5.83766 18.6666H8.66683C8.75523 18.6666 8.84002 18.6315 8.90253 18.569C8.96504 18.5065 9.00016 18.4217 9.00016 18.3333V17.6666C9.00016 17.5782 8.96504 17.4934 8.90253 17.4309C8.84002 17.3684 8.75523 17.3333 8.66683 17.3333H7.05558C7.19225 16.9045 9.06933 16.555 9.06933 14.9816C9.06933 13.7708 8.02766 13.3333 7.21641 13.3333C6.32641 13.3333 5.80808 13.75 5.531 14.1145C5.3485 14.3475 5.406 14.5662 5.64725 14.755L6.00475 15.0416C6.2385 15.2316 6.46308 15.1445 6.67683 14.94C6.78185 14.8368 6.92337 14.7793 7.07058 14.78C7.20933 14.78 7.45725 14.845 7.45725 15.1445C7.4585 15.6745 5.3335 16.0545 5.3335 18.0245V18.1912C5.3335 18.5 5.54516 18.6666 5.83766 18.6666Z" fill="currentColor"/>
</svg>
