<svg width="32" height="32" viewBox="0 0 32 32" fill="none" xmlns="http://www.w3.org/2000/svg">
<path d="M23.6636 5.60314L6.33161 15.5991C4.89838 16.4282 5.03587 18.5491 6.56909 19.1783L11.3312 21.1491V24.6658C11.3312 26.5992 13.7977 27.395 14.9393 25.8575L16.7641 23.395L21.4263 25.32C21.6721 25.42 21.9304 25.47 22.1887 25.47C22.5304 25.47 22.8678 25.3825 23.172 25.2117C23.7053 24.9117 24.0719 24.3783 24.1677 23.7742L26.6425 7.64066C26.8967 5.96981 25.1052 4.77397 23.6636 5.60314ZM13.3311 24.6658V21.9741L14.856 22.6033L13.3311 24.6658ZM22.1887 23.47L15.7809 20.8241L21.6221 12.3949C22.0679 11.749 21.2263 10.999 20.6347 11.5115L11.8229 19.1908L7.33153 17.3324L24.6635 7.33232L22.1887 23.47Z" fill="#474747"/>
</svg>
