<svg width="32" height="32" viewBox="0 0 32 32" fill="none" xmlns="http://www.w3.org/2000/svg">
<path d="M23.36 7.33557H14.4C12.7026 7.33557 11.0747 8.00985 9.87452 9.21009C8.67428 10.4103 8 12.0382 8 13.7356C8 15.433 8.67428 17.0608 9.87452 18.2611C11.0747 19.4613 12.7026 20.1356 14.4 20.1356H16.32V24.025C16.32 24.1947 16.3874 24.3575 16.5075 24.4775C16.6275 24.5976 16.7903 24.665 16.96 24.665H17.6C17.7697 24.665 17.9325 24.5976 18.0525 24.4775C18.1726 24.3575 18.24 24.1947 18.24 24.025V9.25557H20.16V24.025C20.16 24.1947 20.2274 24.3575 20.3475 24.4775C20.4675 24.5976 20.6303 24.665 20.8 24.665H21.44C21.6097 24.665 21.7725 24.5976 21.8925 24.4775C22.0126 24.3575 22.08 24.1947 22.08 24.025V9.25557H23.36C23.5297 9.25557 23.6925 9.18814 23.8125 9.06812C23.9326 8.9481 24 8.78531 24 8.61557V7.97557C24 7.80583 23.9326 7.64305 23.8125 7.52302C23.6925 7.403 23.5297 7.33557 23.36 7.33557ZM16.32 18.2156H14.4C13.2118 18.2156 12.0723 17.7436 11.2322 16.9034C10.392 16.0632 9.92 14.9237 9.92 13.7356C9.92 12.5474 10.392 11.4079 11.2322 10.5677C12.0723 9.72757 13.2118 9.25557 14.4 9.25557H16.32V18.2156Z" fill="currentColor"/>
</svg>
