<svg width="32" height="32" viewBox="0 0 32 32" fill="none" xmlns="http://www.w3.org/2000/svg">
<path d="M8.14632 24.8528C5.72945 22.4356 5.72899 18.5228 8.14632 16.1052L17.5218 6.72849C19.3819 4.86828 22.4084 4.86828 24.2684 6.72849C26.1327 8.59303 26.1331 11.6112 24.2684 13.4762L16.3741 21.3716C15.0653 22.6804 12.9358 22.6804 11.6272 21.3716C10.3155 20.0599 10.3151 17.9361 11.6272 16.6239L18.3131 9.93712C18.5084 9.74182 18.825 9.74182 19.0202 9.93712L19.7272 10.6442C19.9224 10.8395 19.9224 11.156 19.7272 11.3513L13.0411 18.0382C12.5109 18.5684 12.5107 19.4269 13.0411 19.9573C13.5701 20.4863 14.4309 20.4864 14.96 19.9572L22.8544 12.0619C23.9372 10.979 23.9375 9.22603 22.8544 8.14287C21.774 7.06228 20.0162 7.06237 18.9357 8.14287L9.56032 17.5195C7.92495 19.155 7.92457 21.8026 9.56028 23.4385C11.1972 25.0756 13.8472 25.0755 15.4837 23.4374C18.2039 20.7145 20.9246 17.9922 23.6459 15.2704C23.8411 15.0751 24.1576 15.0752 24.3529 15.2706L25.0599 15.9777C25.2551 16.1729 25.2552 16.4893 25.06 16.6846C22.339 19.4062 19.6184 22.1284 16.8983 24.8511C14.4802 27.2716 10.5648 27.2716 8.14632 24.8528Z" fill="#474747"/>
</svg>
