<svg width="32" height="32" viewBox="0 0 32 32" fill="none" xmlns="http://www.w3.org/2000/svg">
<path d="M25.8858 7.6775L24.3229 6.11458C23.802 5.59375 23.1195 5.33333 22.437 5.33333C21.7545 5.33333 21.072 5.59375 20.5516 6.11417L17.4479 9.21792L16 10.6658L5.86871 20.7967L5.33954 25.5558C5.27288 26.155 5.74496 26.6667 6.33121 26.6667C6.36829 26.6667 6.40579 26.6646 6.44329 26.6604L11.1991 26.135L21.3341 16L22.7816 14.5525L25.8854 11.4487C26.927 10.4071 26.927 8.71875 25.8858 7.6775ZM10.2812 24.2246L7.46538 24.5354L7.77913 21.715L17.4141 12.08L18.7066 10.7875L21.2125 13.2933L19.92 14.5858L10.2812 24.2246ZM24.4712 10.0342L22.6262 11.8792L20.1208 9.37333L21.9658 7.52833C22.1358 7.35833 22.3341 7.33292 22.437 7.33292C22.54 7.33292 22.7387 7.35833 22.9083 7.52833L24.4712 9.09125C24.7312 9.35167 24.7312 9.77458 24.4712 10.0342Z" fill="currentColor"/>
</svg>
