<svg width="32" height="32" viewBox="0 0 32 32" fill="none" xmlns="http://www.w3.org/2000/svg">
<path d="M25.5103 19.0833L21.2774 17.2688C20.8974 17.1072 20.4753 17.073 20.0743 17.1714C19.6732 17.2698 19.3149 17.4955 19.0528 17.8146L17.6903 19.4812C15.5047 18.29 13.7082 16.4946 12.5158 14.3096L14.1824 12.9471C14.5015 12.6848 14.7272 12.3262 14.8256 11.925C14.9239 11.5237 14.8898 11.1015 14.7282 10.7213L12.9166 6.49127C12.7417 6.07961 12.4273 5.74278 12.0287 5.53999C11.6301 5.3372 11.1727 5.28145 10.737 5.38252L6.81243 6.2871C6.39132 6.38267 6.01534 6.61886 5.74646 6.95674C5.47758 7.29463 5.33184 7.71404 5.33326 8.14585C5.33326 18.4067 13.6532 26.6708 23.8566 26.6667C24.2883 26.6679 24.7076 26.5221 25.0453 26.2531C25.3831 25.9842 25.6191 25.6082 25.7145 25.1871L26.6186 21.2612C26.7183 20.8259 26.6619 20.3694 26.4594 19.9713C26.2568 19.5733 25.9209 19.259 25.5103 19.0833ZM23.7774 24.6704C14.7116 24.6287 7.37493 17.2917 7.33326 8.22085L11.112 7.35002L12.8658 11.4425L10.0287 13.7638C11.9616 17.8888 14.1199 20.04 18.237 21.9721L20.5574 19.1342L24.6487 20.8887L23.7774 24.6704Z" fill="#474747"/>
</svg>
