<svg width="32" height="32" viewBox="0 0 32 32" fill="none" xmlns="http://www.w3.org/2000/svg">
<path d="M20.9763 15.2258L13.4064 10.6237C12.7268 10.2452 11.8709 10.7312 11.8709 11.5269V20.4732C11.8709 21.2646 12.7225 21.7549 13.4064 21.3764L20.9763 17.0323C21.6816 16.6409 21.6816 15.6215 20.9763 15.2258ZM26.6666 16C26.6666 10.1076 21.8924 5.33337 15.9999 5.33337C10.1074 5.33337 5.33325 10.1076 5.33325 16C5.33325 21.8925 10.1074 26.6667 15.9999 26.6667C21.8924 26.6667 26.6666 21.8925 26.6666 16ZM7.39777 16C7.39777 11.2474 11.2472 7.39789 15.9999 7.39789C20.7526 7.39789 24.6021 11.2474 24.6021 16C24.6021 20.7527 20.7526 24.6022 15.9999 24.6022C11.2472 24.6022 7.39777 20.7527 7.39777 16Z" fill="#474747"/>
</svg>
