<svg width="32" height="32" viewBox="0 0 32 32" fill="none" xmlns="http://www.w3.org/2000/svg">
<path d="M21.3332 15.3333V16.6667C21.3332 16.9417 21.1082 17.1667 20.8332 17.1667H17.1665V20.8333C17.1665 21.1083 16.9415 21.3333 16.6665 21.3333H15.3332C15.0582 21.3333 14.8332 21.1083 14.8332 20.8333V17.1667H11.1665C10.8915 17.1667 10.6665 16.9417 10.6665 16.6667V15.3333C10.6665 15.0583 10.8915 14.8333 11.1665 14.8333H14.8332V11.1667C14.8332 10.8917 15.0582 10.6667 15.3332 10.6667H16.6665C16.9415 10.6667 17.1665 10.8917 17.1665 11.1667V14.8333H20.8332C21.1082 14.8333 21.3332 15.0583 21.3332 15.3333ZM25.3332 8.66667V23.3333C25.3332 24.4375 24.4373 25.3333 23.3332 25.3333H8.6665C7.56234 25.3333 6.6665 24.4375 6.6665 23.3333V8.66667C6.6665 7.5625 7.56234 6.66667 8.6665 6.66667H23.3332C24.4373 6.66667 25.3332 7.5625 25.3332 8.66667ZM23.3332 23.0833V8.91667C23.3332 8.77917 23.2207 8.66667 23.0832 8.66667H8.9165C8.779 8.66667 8.6665 8.77917 8.6665 8.91667V23.0833C8.6665 23.2208 8.779 23.3333 8.9165 23.3333H23.0832C23.2207 23.3333 23.3332 23.2208 23.3332 23.0833Z" fill="currentColor"/>
</svg>
