<svg width="32" height="32" viewBox="0 0 32 32" fill="none" xmlns="http://www.w3.org/2000/svg">
<path d="M21.5053 15.3118V16.6882C21.5053 16.972 21.273 17.2043 20.9892 17.2043H17.2042V20.9892C17.2042 21.2731 16.972 21.5054 16.6881 21.5054H15.3117C15.0279 21.5054 14.7956 21.2731 14.7956 20.9892V17.2043H11.0107C10.7268 17.2043 10.4945 16.972 10.4945 16.6882V15.3118C10.4945 15.028 10.7268 14.7957 11.0107 14.7957H14.7956V11.0108C14.7956 10.7269 15.0279 10.4946 15.3117 10.4946H16.6881C16.972 10.4946 17.2042 10.7269 17.2042 11.0108V14.7957H20.9892C21.273 14.7957 21.5053 15.028 21.5053 15.3118ZM26.6666 16C26.6666 21.8925 21.8924 26.6667 15.9999 26.6667C10.1074 26.6667 5.33325 21.8925 5.33325 16C5.33325 10.1075 10.1074 5.33333 15.9999 5.33333C21.8924 5.33333 26.6666 10.1075 26.6666 16ZM24.6021 16C24.6021 11.2473 20.7526 7.39785 15.9999 7.39785C11.2472 7.39785 7.39777 11.2473 7.39777 16C7.39777 20.7527 11.2472 24.6021 15.9999 24.6021C20.7526 24.6021 24.6021 20.7527 24.6021 16Z" fill="#474747"/>
</svg>
