<svg width="32" height="32" viewBox="0 0 32 32" fill="none" xmlns="http://www.w3.org/2000/svg">
<path d="M21.9999 16.3333C21.4478 16.3333 20.9999 16.7808 20.9999 17.3333C20.9999 17.8854 21.4478 18.3333 21.9999 18.3333C22.552 18.3333 22.9999 17.8854 22.9999 17.3333C22.9999 16.7808 22.552 16.3333 21.9999 16.3333ZM23.3333 12.6667V9.495C23.3333 8.96458 23.1224 8.45583 22.7474 8.08083L20.5858 5.91917C20.2108 5.54417 19.702 5.33333 19.1716 5.33333H9.93659C9.23492 5.33333 8.66659 5.93042 8.66659 6.66667V12.6667C6.82575 12.6667 5.33325 14.1592 5.33325 16V21.3333C5.33325 21.7017 5.63159 22 5.99992 22H8.66659V26C8.66659 26.3683 8.96492 26.6667 9.33325 26.6667H22.6666C23.0349 26.6667 23.3333 26.3683 23.3333 26V22H25.9999C26.3683 22 26.6666 21.7017 26.6666 21.3333V16C26.6666 14.1592 25.1741 12.6667 23.3333 12.6667ZM10.6666 7.33333H18.6666V9.33333C18.6666 9.70167 18.9649 10 19.3333 10H21.3333V12.6667H10.6666V7.33333ZM21.3333 24.6667H10.6666V22H21.3333V24.6667ZM24.6666 20H7.33325V16C7.33325 15.265 7.93159 14.6667 8.66659 14.6667H23.3333C24.0683 14.6667 24.6666 15.265 24.6666 16V20Z" fill="currentColor"/>
</svg>
