<svg width="32" height="32" viewBox="0 0 32 32" fill="none" xmlns="http://www.w3.org/2000/svg">
<path d="M25.3334 8.66667V23.3333C25.3334 24.4379 24.438 25.3333 23.3334 25.3333H8.66675C7.56216 25.3333 6.66675 24.4379 6.66675 23.3333V8.66667C6.66675 7.56209 7.56216 6.66667 8.66675 6.66667H23.3334C24.438 6.66667 25.3334 7.56209 25.3334 8.66667ZM23.3334 23.0833V8.91667C23.3334 8.85037 23.3071 8.78678 23.2602 8.7399C23.2133 8.69301 23.1497 8.66667 23.0834 8.66667H8.91675C8.85044 8.66667 8.78686 8.69301 8.73997 8.7399C8.69309 8.78678 8.66675 8.85037 8.66675 8.91667V23.0833C8.66675 23.1496 8.69309 23.2132 8.73997 23.2601C8.78686 23.307 8.85044 23.3333 8.91675 23.3333H23.0834C23.1497 23.3333 23.2133 23.307 23.2602 23.2601C23.3071 23.2132 23.3334 23.1496 23.3334 23.0833ZM20.4686 13.7C20.4686 16.4938 17.451 16.5368 17.451 17.5693V17.8333C17.451 18.1095 17.2272 18.3333 16.951 18.3333H15.0491C14.773 18.3333 14.5491 18.1095 14.5491 17.8333V17.4725C14.5491 15.9832 15.6782 15.3878 16.5315 14.9094C17.2632 14.4992 17.7117 14.2202 17.7117 13.6769C17.7117 12.9583 16.7951 12.4814 16.054 12.4814C15.0878 12.4814 14.6418 12.9388 14.0148 13.7301C13.8457 13.9434 13.5373 13.983 13.3204 13.8186L12.161 12.9395C11.9482 12.7782 11.9006 12.4784 12.0509 12.2577C13.0353 10.8121 14.2892 10 16.2415 10C18.2861 10 20.4686 11.596 20.4686 13.7ZM17.7501 20.6667C17.7501 21.6316 16.965 22.4167 16.0001 22.4167C15.0351 22.4167 14.2501 21.6316 14.2501 20.6667C14.2501 19.7017 15.0351 18.9167 16.0001 18.9167C16.965 18.9167 17.7501 19.7017 17.7501 20.6667Z" fill="#474747"/>
</svg>
