<svg width="32" height="32" viewBox="0 0 32 32" fill="none" xmlns="http://www.w3.org/2000/svg">
<path d="M16.0327 5.33333C13.0619 5.33333 10.8161 6.59112 9.11226 9.18792C8.34292 10.3608 8.59294 11.9504 9.68093 12.8071L11.155 13.9675C11.5888 14.3092 12.1258 14.5004 12.6696 14.5075C12.1944 15.2992 11.9544 16.1996 11.9544 17.1971V17.6733C11.9544 18.3558 12.2033 18.9792 12.6118 19.4504C11.9528 20.2167 11.5519 21.2271 11.5519 22.3333C11.5519 24.7229 13.4241 26.6667 15.7257 26.6667C18.0273 26.6667 19.8994 24.7229 19.8994 22.3333C19.8994 21.2271 19.4985 20.2167 18.8395 19.4504C19.1871 19.0496 19.4187 18.5392 19.4805 17.9762C20.6157 17.274 23.3332 15.939 23.3332 12.2175C23.3332 8.29796 19.6803 5.33333 16.0327 5.33333ZM15.7257 24.6667C14.4864 24.6667 13.4783 23.62 13.4783 22.3333C13.4783 21.047 14.4863 20 15.7257 20C16.9652 20 17.9731 21.0472 17.9731 22.3333C17.9731 23.62 16.965 24.6667 15.7257 24.6667ZM17.5706 17.3246V17.6733C17.5706 18.0395 17.2844 18.3333 16.9349 18.3333H14.5165C14.167 18.3333 13.8808 18.0395 13.8808 17.6733V17.1971C13.8808 15.2312 15.3163 14.4454 16.4015 13.8137C17.3318 13.2721 17.9021 12.9042 17.9021 12.1871C17.9021 11.2383 16.7366 10.6087 15.7943 10.6087C14.5658 10.6087 13.9988 11.2125 13.2017 12.2571C12.9864 12.5392 12.5935 12.5908 12.3188 12.3737L10.8448 11.2133C10.5743 11.0004 10.5137 10.605 10.7047 10.3137C11.9564 8.40542 13.5505 7.33333 16.0327 7.33333C18.6321 7.33333 21.4068 9.44 21.4068 12.2175C21.4068 15.9054 17.5706 15.9621 17.5706 17.3246Z" fill="#474747"/>
</svg>
