<svg width="32" height="32" viewBox="0 0 32 32" fill="none" xmlns="http://www.w3.org/2000/svg">
<path d="M16.0002 5.33333C10.1095 5.33333 5.3335 10.1111 5.3335 16C5.3335 21.8923 10.1095 26.6667 16.0002 26.6667C21.8908 26.6667 26.6668 21.8923 26.6668 16C26.6668 10.1111 21.8908 5.33333 16.0002 5.33333ZM16.0002 24.6021C11.2461 24.6021 7.39801 20.7557 7.39801 16C7.39801 11.2475 11.2463 7.39785 16.0002 7.39785C20.7525 7.39785 24.6023 11.2461 24.6023 16C24.6023 20.754 20.7558 24.6021 16.0002 24.6021ZM20.6128 13.6258C20.6128 16.5098 17.4979 16.5541 17.4979 17.6199V17.8925C17.4979 18.1775 17.2668 18.4086 16.9818 18.4086H15.0185C14.7335 18.4086 14.5024 18.1775 14.5024 17.8925V17.52C14.5024 15.9826 15.6679 15.368 16.5488 14.8742C17.3041 14.4508 17.767 14.1628 17.767 13.602C17.767 12.8602 16.8208 12.3679 16.0559 12.3679C15.0585 12.3679 14.5981 12.84 13.9508 13.6569C13.7763 13.8771 13.4579 13.918 13.234 13.7482L12.0373 12.8408C11.8176 12.6742 11.7684 12.3648 11.9236 12.137C12.9398 10.6448 14.2341 9.80645 16.2494 9.80645C18.3599 9.80645 20.6128 11.4539 20.6128 13.6258ZM17.8066 20.8172C17.8066 21.8133 16.9962 22.6237 16.0002 22.6237C15.0041 22.6237 14.1937 21.8133 14.1937 20.8172C14.1937 19.8211 15.0041 19.0108 16.0002 19.0108C16.9962 19.0108 17.8066 19.8211 17.8066 20.8172Z" fill="#474747"/>
</svg>
