<svg width="32" height="32" viewBox="0 0 32 32" fill="none" xmlns="http://www.w3.org/2000/svg">
<path d="M25.7855 6.21445L23.5419 8.45811C21.6117 6.52765 18.9455 5.33337 16 5.33337C10.1221 5.33337 5.32895 10.1301 5.33325 16.008C5.33756 21.8954 10.1115 26.6667 15.9999 26.6667C18.7494 26.6667 21.2559 25.6264 23.1474 23.918C23.3673 23.7194 23.3776 23.3777 23.1681 23.1682L22.3191 22.3192C22.1257 22.1258 21.8136 22.1134 21.6094 22.2955C20.1198 23.6235 18.155 24.4301 15.9999 24.4301C11.341 24.4301 7.56981 20.6597 7.56981 16C7.56981 11.3411 11.3402 7.56993 15.9999 7.56993C18.3295 7.56993 20.4368 8.51286 21.9618 10.0381L19.6337 12.3663C19.3086 12.6914 19.5388 13.2474 19.9987 13.2474H26.1505C26.4355 13.2474 26.6666 13.0163 26.6666 12.7312V6.57944C26.6666 6.11961 26.1106 5.88933 25.7855 6.21445Z" fill="#474747"/>
</svg>
