<svg width="32" height="32" viewBox="0 0 32 32" fill="none" xmlns="http://www.w3.org/2000/svg">
<path d="M24.7476 10.7475L21.2525 7.25246C20.8775 6.87739 20.3688 6.66667 19.8383 6.66667H8.66675C7.56216 6.66667 6.66675 7.56209 6.66675 8.66667V23.3333C6.66675 24.4379 7.56216 25.3333 8.66675 25.3333H23.3334C24.438 25.3333 25.3334 24.4379 25.3334 23.3333V12.1618C25.3334 11.6313 25.1227 11.1226 24.7476 10.7475ZM18.0001 8.66667V12H12.6667V8.66667H18.0001ZM23.0834 23.3333H8.91675C8.85044 23.3333 8.78686 23.307 8.73997 23.2601C8.69309 23.2132 8.66675 23.1496 8.66675 23.0833V8.91667C8.66675 8.85037 8.69309 8.78678 8.73997 8.7399C8.78686 8.69301 8.85044 8.66667 8.91675 8.66667H10.6667V13C10.6667 13.5523 11.1145 14 11.6667 14H19.0001C19.5524 14 20.0001 13.5523 20.0001 13V8.82842L23.2602 12.0885C23.2834 12.1118 23.3018 12.1393 23.3144 12.1697C23.327 12.2 23.3334 12.2325 23.3334 12.2653V23.0833C23.3334 23.1496 23.3071 23.2132 23.2602 23.2601C23.2133 23.307 23.1497 23.3333 23.0834 23.3333ZM16.0001 15C13.9783 15 12.3334 16.6449 12.3334 18.6667C12.3334 20.6885 13.9783 22.3333 16.0001 22.3333C18.0219 22.3333 19.6667 20.6885 19.6667 18.6667C19.6667 16.6449 18.0219 15 16.0001 15ZM16.0001 20.3333C15.0811 20.3333 14.3334 19.5857 14.3334 18.6667C14.3334 17.7477 15.0811 17 16.0001 17C16.9191 17 17.6667 17.7477 17.6667 18.6667C17.6667 19.5857 16.9191 20.3333 16.0001 20.3333Z" fill="#474747"/>
</svg>
