<svg width="32" height="32" viewBox="0 0 32 32" fill="none" xmlns="http://www.w3.org/2000/svg">
<path d="M26.5197 24.8699L21.4616 19.8118C21.3658 19.716 21.2408 19.666 21.1075 19.666H20.5575C21.8699 18.1452 22.6657 16.1661 22.6657 13.9996C22.6657 9.21231 18.7868 5.33333 13.9995 5.33333C9.21223 5.33333 5.33325 9.21231 5.33325 13.9996C5.33325 18.7868 9.21223 22.6658 13.9995 22.6658C16.1661 22.6658 18.1451 21.87 19.6659 20.5576V21.1076C19.6659 21.2409 19.72 21.3659 19.8117 21.4617L24.8698 26.5198C25.0656 26.7156 25.3823 26.7156 25.5781 26.5198L26.5197 25.5782C26.7155 25.3823 26.7155 25.0657 26.5197 24.8699ZM13.9995 20.6659C10.3163 20.6659 7.33315 17.6827 7.33315 13.9996C7.33315 10.3164 10.3163 7.33323 13.9995 7.33323C17.6826 7.33323 20.6658 10.3164 20.6658 13.9996C20.6658 17.6827 17.6826 20.6659 13.9995 20.6659Z" fill="#474747"/>
</svg>
