<svg width="32" height="32" viewBox="0 0 32 32" fill="none" xmlns="http://www.w3.org/2000/svg">
<path d="M16.6665 23.0656V10.1656L10.7123 12.6448C11.0623 17.4865 13.429 21.0865 16.6665 23.0656ZM25.4373 9.48646L17.4373 6.15313C17.1936 6.05204 16.9324 6 16.6686 6C16.4048 6 16.1435 6.05204 15.8998 6.15313L7.89984 9.48646C7.154 9.79479 6.6665 10.524 6.6665 11.3323C6.6665 19.6031 11.4373 25.3198 15.8957 27.1781C16.3873 27.3823 16.9415 27.3823 17.4332 27.1781C21.004 25.6906 26.6665 20.5531 26.6665 11.3323C26.6665 10.524 26.179 9.79479 25.4373 9.48646ZM16.6665 25.3323C12.604 23.6406 8.6665 18.3865 8.6665 11.3323L16.6665 7.99896L24.6665 11.3323C24.6665 18.574 20.5665 23.7073 16.6665 25.3323Z" fill="#474747"/>
</svg>
