<svg width="32" height="32" viewBox="0 0 32 32" fill="none" xmlns="http://www.w3.org/2000/svg">
<path d="M22.8683 21.1415L25.9584 18.5268C27.14 17.527 26.7839 15.6165 25.3208 15.11L22.9998 14.3066V8.99999C22.9998 8.4477 22.5521 7.99999 21.9998 7.99999H19.9998V6.33333C19.9998 5.78104 19.5521 5.33333 18.9998 5.33333H12.9998C12.4475 5.33333 11.9998 5.78104 11.9998 6.33333V7.99999H9.99984C9.44755 7.99999 8.99984 8.4477 8.99984 8.99999V14.3066L6.67896 15.11C5.21634 15.6163 4.85934 17.5267 6.0413 18.5267L9.13142 21.1415C8.15792 23.2828 6.1905 24.6667 3.1665 24.6667C2.89038 24.6667 2.6665 24.8905 2.6665 25.1667V26.1667C2.6665 26.4428 2.89038 26.6667 3.1665 26.6667C5.73659 26.6667 7.93042 25.9577 9.715 23.8962C9.98334 25.467 11.3537 26.6667 12.9998 26.6667H18.9998C20.646 26.6667 22.0163 25.467 22.2847 23.8962C24.081 25.9713 26.2842 26.6667 28.8332 26.6667C29.1093 26.6667 29.3332 26.4428 29.3332 26.1667V25.1667C29.3332 24.8905 29.1093 24.6667 28.8332 24.6667C25.834 24.6667 23.852 23.3053 22.8683 21.1415ZM13.6665 6.99999H18.3332V7.99999H13.6665V6.99999ZM10.9998 10H20.9998V13.6143L16.654 12.11C16.2302 11.9633 15.7694 11.9633 15.3456 12.11L10.9998 13.6143V10ZM20.3332 23.3333C20.3332 24.0697 19.7362 24.6667 18.9998 24.6667H12.9998C12.2635 24.6667 11.6665 24.0697 11.6665 23.3333V20.6667L7.33317 17L15.9998 14L24.6665 17L20.3332 20.6667V23.3333Z" fill="currentColor"/>
</svg>
