<svg width="32" height="32" viewBox="0 0 32 32" fill="none" xmlns="http://www.w3.org/2000/svg">
<path d="M21.3334 10.6667C21.3334 7.72584 18.9409 5.33334 16.0001 5.33334C13.0592 5.33334 10.6667 7.72584 10.6667 10.6667H6.66675V23.3333C6.66675 25.1743 8.15912 26.6667 10.0001 26.6667H22.0001C23.841 26.6667 25.3334 25.1743 25.3334 23.3333V10.6667H21.3334ZM16.0001 7.33334C17.8381 7.33334 19.3334 8.82868 19.3334 10.6667H12.6667C12.6667 8.82868 14.1621 7.33334 16.0001 7.33334ZM23.3334 23.3333C23.3334 24.0686 22.7353 24.6667 22.0001 24.6667H10.0001C9.26487 24.6667 8.66675 24.0686 8.66675 23.3333V12.6667H10.6667V14.3333C10.6667 14.8856 11.1145 15.3333 11.6667 15.3333C12.219 15.3333 12.6667 14.8856 12.6667 14.3333V12.6667H19.3334V14.3333C19.3334 14.8856 19.7811 15.3333 20.3334 15.3333C20.8857 15.3333 21.3334 14.8856 21.3334 14.3333V12.6667H23.3334V23.3333Z" fill="#474747"/>
</svg>
