<svg width="32" height="32" viewBox="0 0 32 32" fill="none" xmlns="http://www.w3.org/2000/svg">
<path d="M25.3335 17.3333H18.6668C17.9306 17.3333 17.3335 17.9304 17.3335 18.6667V25.3333C17.3335 26.0696 17.9306 26.6667 18.6668 26.6667H25.3335C26.0697 26.6667 26.6668 26.0696 26.6668 25.3333V18.6667C26.6668 17.9304 26.0697 17.3333 25.3335 17.3333ZM24.6668 24.6667H19.3335V19.3333H24.6668V24.6667ZM10.6668 16C7.72141 16 5.3335 18.3879 5.3335 21.3333C5.3335 24.2787 7.72141 26.6667 10.6668 26.6667C13.6122 26.6667 16.0002 24.2787 16.0002 21.3333C16.0002 18.3879 13.6122 16 10.6668 16ZM10.6668 24.6667C8.82891 24.6667 7.3335 23.1712 7.3335 21.3333C7.3335 19.4954 8.82891 18 10.6668 18C12.5047 18 14.0002 19.4954 14.0002 21.3333C14.0002 23.1712 12.5047 24.6667 10.6668 24.6667ZM26.4577 13.7142L22.0031 6.09541C21.7064 5.58749 21.1864 5.33333 20.6668 5.33333C20.1472 5.33333 19.6272 5.58749 19.3306 6.09541L14.876 13.7142C14.2818 14.73 15.0243 16 16.2122 16H25.1214C26.3093 16 27.0518 14.73 26.4577 13.7142ZM17.0256 14L20.6668 7.77208L24.3081 14H17.0256Z" fill="currentColor"/>
</svg>
