<svg width="32" height="32" viewBox="0 0 32 32" fill="none" xmlns="http://www.w3.org/2000/svg">
<path d="M26.9996 8.00001H10.0117L9.64808 6.14134C9.55625 5.67201 9.14492 5.33334 8.66667 5.33334H4.5C4.22387 5.33334 4 5.55722 4 5.83334V6.83334C4 7.10947 4.22387 7.33334 4.5 7.33334H7.84333L10.7431 22.1542C10.2832 22.6334 10 23.2834 10 24C10 25.4728 11.1939 26.6667 12.6667 26.6667C14.1394 26.6667 15.3333 25.4728 15.3333 24C15.3338 23.5318 15.2105 23.0718 14.9757 22.6667H21.0243C20.7896 23.0718 20.6662 23.5318 20.6667 24C20.6667 25.4728 21.8606 26.6667 23.3334 26.6667C24.8061 26.6667 26 25.4728 26 24C26 23.2443 25.6852 22.5627 25.1802 22.0774L25.2233 21.8792C25.3589 21.2559 24.8841 20.6667 24.2462 20.6667H12.49L12.0987 18.6667H25.1156C25.586 18.6667 25.9929 18.3388 26.0928 17.8791L27.9768 9.21243C28.1123 8.58913 27.6375 8.00001 26.9996 8.00001ZM23.3333 23C23.8847 23 24.3333 23.4486 24.3333 24C24.3333 24.5514 23.8847 25 23.3333 25C22.7819 25 22.3333 24.5514 22.3333 24C22.3333 23.4486 22.7819 23 23.3333 23ZM12.6667 23C13.2181 23 13.6667 23.4486 13.6667 24C13.6667 24.5514 13.2181 25 12.6667 25C12.1152 25 11.6667 24.5514 11.6667 24C11.6667 23.4486 12.1152 23 12.6667 23ZM24.3099 16.6667H11.7075L10.4029 10H25.7591L24.3099 16.6667ZM15.3333 13.6667V13C15.3333 12.7239 15.5572 12.5 15.8333 12.5H17.1667V11.1667C17.1667 10.8906 17.3905 10.6667 17.6667 10.6667H18.3333C18.6095 10.6667 18.8333 10.8906 18.8333 11.1667V12.5H20.1667C20.4428 12.5 20.6667 12.7239 20.6667 13V13.6667C20.6667 13.9428 20.4428 14.1667 20.1667 14.1667H18.8333V15.5C18.8333 15.7761 18.6095 16 18.3333 16H17.6667C17.3905 16 17.1667 15.7761 17.1667 15.5V14.1667H15.8333C15.5572 14.1667 15.3333 13.9428 15.3333 13.6667Z" fill="#474747"/>
</svg>
