<svg width="32" height="32" viewBox="0 0 32 32" fill="none" xmlns="http://www.w3.org/2000/svg">
<path d="M9.3333 8H12.8331C13.1081 8 13.3331 8.225 13.3331 8.5V9.5C13.3331 9.775 13.1081 10 12.8331 10H9.3333C8.22919 10 7.3334 10.8958 7.3334 12V20C7.3334 21.1042 8.22919 22 9.3333 22H12.8331C13.1081 22 13.3331 22.225 13.3331 22.5V23.5C13.3331 23.775 13.1081 24 12.8331 24H9.3333C7.12508 24 5.3335 22.2083 5.3335 20V12C5.3335 9.79167 7.12508 8 9.3333 8ZM18.962 8.8125L18.1454 9.62917C17.9454 9.82917 17.9495 10.15 18.1537 10.3417L22.866 14.9167H12.4998C12.2248 14.9167 11.9998 15.1417 11.9998 15.4167V16.5833C11.9998 16.8583 12.2248 17.0833 12.4998 17.0833H22.866L18.1537 21.6542C17.9537 21.85 17.9495 22.1708 18.1454 22.3667L18.962 23.1833C19.1578 23.3792 19.4745 23.3792 19.6703 23.1833L26.52 16.35C26.7158 16.1542 26.7158 15.8375 26.52 15.6417L19.6703 8.80833C19.4745 8.61667 19.1578 8.61667 18.962 8.8125Z" fill="currentColor"/>
</svg>
