<svg width="32" height="32" viewBox="0 0 32 32" fill="none" xmlns="http://www.w3.org/2000/svg">
<path d="M22.6667 20.6667V11.3333C22.6667 10.8029 22.456 10.2942 22.081 9.91911C21.7059 9.54404 21.1972 9.33333 20.6667 9.33333H11.3334C10.803 9.33333 10.2943 9.54404 9.9192 9.91911C9.54413 10.2942 9.33341 10.8029 9.33341 11.3333V20.6667C9.33341 21.1971 9.54413 21.7058 9.9192 22.0809C10.2943 22.4559 10.803 22.6667 11.3334 22.6667H20.6667C21.1972 22.6667 21.7059 22.4559 22.081 22.0809C22.456 21.7058 22.6667 21.1971 22.6667 20.6667ZM11.3334 11.3333H20.6667V20.6667H11.3334V11.3333ZM4.66675 7.33333H11.3334V7.99999H13.3334V7.33333C13.3334 6.8029 13.1227 6.29419 12.7476 5.91911C12.3726 5.54404 11.8638 5.33333 11.3334 5.33333H4.66675C4.13631 5.33333 3.62761 5.54404 3.25253 5.91911C2.87746 6.29419 2.66675 6.8029 2.66675 7.33333L2.66675 14C2.66675 14.5304 2.87746 15.0391 3.25253 15.4142C3.62761 15.7893 4.13631 16 4.66675 16H8.00008V14H4.66675V7.33333ZM27.3334 16H24.0001V18H27.3334V24.6667H20.6667V24H18.6667V24.6667C18.6667 25.1971 18.8775 25.7058 19.2525 26.0809C19.6276 26.4559 20.1363 26.6667 20.6667 26.6667H27.3334C27.8638 26.6667 28.3726 26.4559 28.7476 26.0809C29.1227 25.7058 29.3334 25.1971 29.3334 24.6667V18C29.3334 17.4696 29.1227 16.9609 28.7476 16.5858C28.3726 16.2107 27.8638 16 27.3334 16ZM6.66675 12H8.00008V11.3333C8.00268 10.6097 8.24291 9.90706 8.68383 9.33333H6.66675V12ZM25.3334 20H24.0001V20.6667C23.9975 21.3902 23.7572 22.0929 23.3163 22.6667H25.3334V20Z" fill="#474747"/>
</svg>
