<svg width="32" height="32" viewBox="0 0 32 32" fill="none" xmlns="http://www.w3.org/2000/svg">
<path d="M26.3759 22.0004L23.0758 25.038C22.4466 25.6672 21.334 25.2214 21.334 24.3296V22.6629H20.0423C19.9048 22.6629 19.7715 22.6046 19.6756 22.5004L15.9338 18.4502L17.5213 16.7293L20.8465 20.3253H21.334V18.3252C21.334 17.4335 22.4466 16.9876 23.0758 17.6168L26.3759 20.5753C26.7635 20.9753 26.7635 21.6087 26.3759 22.0004ZM5.83328 11.6665H9.65846L12.9836 15.2625L14.5712 13.5416L10.8294 9.49142C10.7335 9.38725 10.6002 9.32891 10.4627 9.32891H5.83328C5.55826 9.32891 5.33325 9.55392 5.33325 9.82894V11.1623C5.33325 11.4415 5.55826 11.6665 5.83328 11.6665ZM26.3759 9.92061L23.0758 6.96213C22.4466 6.33293 21.334 6.77879 21.334 7.66633V9.33308H20.0423C19.9048 9.33308 19.7715 9.39142 19.6756 9.49559L9.65846 20.3336H5.83328C5.55826 20.3336 5.33325 20.5586 5.33325 20.8336V22.167C5.33325 22.4421 5.55826 22.6671 5.83328 22.6671H10.4585C10.596 22.6671 10.7293 22.6087 10.8252 22.5046L20.8423 11.6665H21.334V13.6666C21.334 14.5583 22.4466 15.0042 23.0758 14.375L26.3759 11.3332C26.7635 10.9415 26.7635 10.3081 26.3759 9.92061Z" fill="currentColor"/>
</svg>
