<svg width="32" height="32" viewBox="0 0 32 32" fill="none" xmlns="http://www.w3.org/2000/svg">
<path d="M22.6668 24H19.1668C18.8918 24 18.6668 23.775 18.6668 23.5V22.5C18.6668 22.225 18.8918 22 19.1668 22H22.6668C23.771 22 24.6668 21.1042 24.6668 20V12C24.6668 10.8958 23.771 10 22.6668 10H19.1668C18.8918 10 18.6668 9.775 18.6668 9.5V8.5C18.6668 8.225 18.8918 8 19.1668 8H22.6668C24.8752 8 26.6668 9.79167 26.6668 12V20C26.6668 22.2083 24.8752 24 22.6668 24ZM12.296 8.8125L11.4793 9.62917C11.2793 9.82917 11.2835 10.15 11.4877 10.3417L16.2002 14.9167H5.8335C5.5585 14.9167 5.3335 15.1417 5.3335 15.4167V16.5833C5.3335 16.8583 5.5585 17.0833 5.8335 17.0833H16.2002L11.4877 21.6542C11.2877 21.85 11.2835 22.1708 11.4793 22.3667L12.296 23.1833C12.4918 23.3792 12.8085 23.3792 13.0043 23.1833L19.8543 16.35C20.0502 16.1542 20.0502 15.8375 19.8543 15.6417L13.0043 8.80833C12.8085 8.61667 12.4918 8.61667 12.296 8.8125Z" fill="#474747"/>
</svg>
