<svg width="32" height="32" viewBox="0 0 32 32" fill="none" xmlns="http://www.w3.org/2000/svg">
<path d="M26.0002 8.33335H17.3335V7.33335C17.3335 6.96669 17.0335 6.66669 16.6668 6.66669H15.3335C14.9668 6.66669 14.6668 6.96669 14.6668 7.33335V8.33335H6.00016C5.6335 8.33335 5.3335 8.63335 5.3335 9.00002V9.66669C5.3335 10.0334 5.6335 10.3334 6.00016 10.3334H14.6668V11.3334C14.6668 11.7 14.9668 12 15.3335 12H16.6668C17.0335 12 17.3335 11.7 17.3335 11.3334V10.3334H26.0002C26.3668 10.3334 26.6668 10.0334 26.6668 9.66669V9.00002C26.6668 8.63335 26.3668 8.33335 26.0002 8.33335ZM26.0002 21.6667H12.0002V20.6667C12.0002 20.3 11.7002 20 11.3335 20H10.0002C9.6335 20 9.3335 20.3 9.3335 20.6667V21.6667H6.00016C5.6335 21.6667 5.3335 21.9667 5.3335 22.3334V23C5.3335 23.3667 5.6335 23.6667 6.00016 23.6667H9.3335V24.6667C9.3335 25.0334 9.6335 25.3334 10.0002 25.3334H11.3335C11.7002 25.3334 12.0002 25.0334 12.0002 24.6667V23.6667H26.0002C26.3668 23.6667 26.6668 23.3667 26.6668 23V22.3334C26.6668 21.9667 26.3668 21.6667 26.0002 21.6667ZM26.0002 15H22.6668V14C22.6668 13.6334 22.3668 13.3334 22.0002 13.3334H20.6668C20.3002 13.3334 20.0002 13.6334 20.0002 14V15H6.00016C5.6335 15 5.3335 15.3 5.3335 15.6667V16.3334C5.3335 16.7 5.6335 17 6.00016 17H20.0002V18C20.0002 18.3667 20.3002 18.6667 20.6668 18.6667H22.0002C22.3668 18.6667 22.6668 18.3667 22.6668 18V17H26.0002C26.3668 17 26.6668 16.7 26.6668 16.3334V15.6667C26.6668 15.3 26.3668 15 26.0002 15Z" fill="#474747"/>
</svg>
