<svg width="32" height="32" viewBox="0 0 32 32" fill="none" xmlns="http://www.w3.org/2000/svg">
<path d="M20.6636 17.3337H11.3356C9.56088 17.3337 8.661 19.4886 9.92333 20.7473L14.5852 25.4154C15.3643 26.1948 16.6308 26.1948 17.414 25.4154L22.08 20.7473C23.3299 19.4927 22.4425 17.3337 20.6636 17.3337ZM15.9975 24.0025L11.3315 19.3344H20.6636L15.9975 24.0025Z" fill="#B1B1B2"/>
<path d="M11.3341 14.6663H20.662C22.4368 14.6663 23.3367 12.5114 22.0744 11.2527L17.4125 6.58456C16.6334 5.80515 15.3669 5.80515 14.5837 6.58456L9.91764 11.2527C8.66781 12.5072 9.55519 14.6663 11.3341 14.6663ZM16.0002 7.9975L20.6662 12.6656H11.3341L16.0002 7.9975Z" fill="currentColor"/>
</svg>
