<svg width="32" height="32" viewBox="0 0 32 32" fill="none" xmlns="http://www.w3.org/2000/svg">
<path d="M20.666 17.3337H11.338C9.56328 17.3337 8.6634 19.4886 9.92573 20.7473L14.5876 25.4154C15.3667 26.1949 16.6332 26.1949 17.4164 25.4154L22.0824 20.7473C23.3323 19.4928 22.4449 17.3337 20.666 17.3337ZM15.9999 24.0025L11.3339 19.3344H20.666L15.9999 24.0025ZM11.3339 14.6663H20.6618C22.4366 14.6663 23.3364 12.5114 22.0741 11.2527L17.4122 6.58456C16.6332 5.80515 15.3667 5.80515 14.5834 6.58456L9.9174 11.2527C8.66756 12.5072 9.55495 14.6663 11.3339 14.6663ZM15.9999 7.9975L20.666 12.6656H11.3339L15.9999 7.9975Z" fill="currentColor"/>
</svg>
