<svg width="32" height="32" viewBox="0 0 32 32" fill="none" xmlns="http://www.w3.org/2000/svg">
<path d="M23.3334 6.66666H8.66675C7.56258 6.66666 6.66675 7.56249 6.66675 8.66666V23.3333C6.66675 24.4375 7.56258 25.3333 8.66675 25.3333H23.3334C24.4376 25.3333 25.3334 24.4375 25.3334 23.3333V8.66666C25.3334 7.56249 24.4376 6.66666 23.3334 6.66666ZM23.0834 23.3333H8.91675C8.77925 23.3333 8.66675 23.2208 8.66675 23.0833V8.91666C8.66675 8.77916 8.77925 8.66666 8.91675 8.66666H23.0834C23.2209 8.66666 23.3334 8.77916 23.3334 8.91666V23.0833C23.3334 23.2208 23.2209 23.3333 23.0834 23.3333Z" fill="currentColor"/>
</svg>
