<svg width="32" height="32" viewBox="0 0 32 32" fill="none" xmlns="http://www.w3.org/2000/svg">
<path d="M25.5742 12.4788L19.7484 11.5914L17.1446 6.07545C16.678 5.09223 15.3263 5.07974 14.8557 6.07545L12.2519 11.5914L6.4261 12.4788C5.38137 12.6371 4.96267 13.9828 5.72031 14.7535L9.93513 19.0447L8.93824 25.1064C8.75881 26.2021 9.86335 27.0229 10.7885 26.5104L16.0002 23.6483L21.2119 26.5104C22.137 27.0187 23.2415 26.2021 23.0621 25.1064L22.0652 19.0447L26.28 14.7535C27.0377 13.9828 26.619 12.6371 25.5742 12.4788ZM20.0116 18.3448L20.9567 24.1107L16.0002 21.3902L11.0437 24.1107L11.9887 18.3448L7.97725 14.2619L13.5199 13.4204L16.0002 8.17102L18.4804 13.4204L24.0231 14.2619L20.0116 18.3448Z" fill="currentColor"/>
</svg>
