<svg width="32" height="32" viewBox="0 0 32 32" fill="none" xmlns="http://www.w3.org/2000/svg">
<path d="M16.1535 8.91534L18.2221 9.77786L19.0848 11.8464C19.1077 11.8927 19.1432 11.9316 19.1871 11.9588C19.231 11.986 19.2816 12.0004 19.3332 12.0004C19.3849 12.0004 19.4355 11.986 19.4794 11.9588C19.5233 11.9316 19.5587 11.8927 19.5817 11.8464L20.4443 9.77786L22.5129 8.91534C22.559 8.89227 22.5978 8.85681 22.6249 8.81293C22.6521 8.76905 22.6664 8.71848 22.6664 8.66689C22.6664 8.61531 22.6521 8.56474 22.6249 8.52086C22.5978 8.47697 22.559 8.44151 22.5129 8.41845L20.4443 7.55585L19.5817 5.48739C19.5587 5.44113 19.5233 5.4022 19.4794 5.37498C19.4355 5.34776 19.3849 5.33334 19.3332 5.33334C19.2816 5.33334 19.231 5.34776 19.1871 5.37498C19.1432 5.4022 19.1077 5.44113 19.0848 5.48739L18.2221 7.55585L16.1535 8.41845C16.1074 8.44151 16.0686 8.47697 16.0415 8.52086C16.0143 8.56474 16 8.61531 16 8.66689C16 8.71848 16.0143 8.76905 16.0415 8.81293C16.0686 8.85681 16.1074 8.89227 16.1535 8.91534ZM26.5437 14.4682L24.889 13.7783L24.199 12.1237C24.1806 12.0866 24.1523 12.0555 24.1172 12.0337C24.0821 12.012 24.0416 12.0004 24.0003 12.0004C23.9589 12.0004 23.9184 12.012 23.8833 12.0337C23.8482 12.0555 23.8199 12.0866 23.8015 12.1237L23.1114 13.7783L21.4568 14.4682C21.4199 14.4867 21.3888 14.5151 21.3671 14.5502C21.3454 14.5853 21.334 14.6257 21.334 14.667C21.334 14.7083 21.3454 14.7487 21.3671 14.7838C21.3888 14.8189 21.4199 14.8473 21.4568 14.8658L23.1114 15.5558L23.8015 17.2103C23.8198 17.2473 23.8482 17.2785 23.8833 17.3003C23.9184 17.3221 23.9589 17.3336 24.0003 17.3336C24.0416 17.3336 24.0821 17.3221 24.1172 17.3003C24.1523 17.2785 24.1807 17.2473 24.199 17.2103L24.889 15.5558L26.5437 14.8658C26.5806 14.8473 26.6117 14.8189 26.6334 14.7838C26.6551 14.7487 26.6665 14.7083 26.6665 14.667C26.6665 14.6257 26.6551 14.5853 26.6334 14.5502C26.6117 14.5151 26.5806 14.4867 26.5437 14.4682ZM20.5127 16.471L16.1454 15.8337L14.1909 11.867C14.1124 11.7057 13.9897 11.57 13.8371 11.4756C13.6845 11.3812 13.5083 11.3321 13.3289 11.3338C13.1505 11.3317 12.9751 11.3808 12.8238 11.4753C12.6724 11.5698 12.5512 11.7058 12.4747 11.867L10.5202 15.8337L6.15292 16.471C5.37034 16.5836 5.05392 17.5504 5.62425 18.1044L8.78711 21.1876L8.03709 25.5456C7.92901 26.1667 8.42382 26.6666 8.97852 26.6666C9.13406 26.6671 9.2872 26.6283 9.42385 26.554L13.3328 24.4961L17.2418 26.554C17.3996 26.6384 17.578 26.6767 17.7565 26.6644C17.9351 26.6521 18.1066 26.5898 18.2513 26.4845C18.396 26.3793 18.5082 26.2354 18.5749 26.0693C18.6417 25.9032 18.6602 25.7217 18.6285 25.5456L17.8824 21.1876L21.0453 18.1044C21.6117 17.5504 21.2953 16.5836 20.5127 16.471ZM15.7287 20.4917L16.2991 23.8002L13.3328 22.2377L10.3614 23.8002L10.933 20.4917L8.52408 18.1461L11.8497 17.663L13.3328 14.6547L14.8159 17.663L18.1416 18.1461L15.7287 20.4917Z" fill="#474747"/>
</svg>
