<svg width="32" height="32" viewBox="0 0 32 32" fill="none" xmlns="http://www.w3.org/2000/svg">
<path d="M11.5995 14H16.3149L14.3853 13.035C14.0692 12.8771 13.8033 12.6342 13.6174 12.3336C13.4316 12.0331 13.3331 11.6867 13.3331 11.3333C13.3331 10.9799 13.4316 10.6335 13.6174 10.3329C13.8033 10.0324 14.0692 9.78952 14.3853 9.63163C14.7775 9.43572 15.2099 9.33359 15.6483 9.33329H18.2499C18.545 9.33324 18.836 9.40194 19.0999 9.53393C19.3638 9.66592 19.5934 9.85758 19.7703 10.0937L20.3991 10.9325C20.4516 11.0025 20.5174 11.0616 20.5927 11.1062C20.668 11.1509 20.7514 11.1802 20.838 11.1927C20.9247 11.2051 21.013 11.2003 21.0978 11.1786C21.1826 11.1569 21.2624 11.1187 21.3324 11.0662L22.3999 10.2666C22.47 10.2141 22.529 10.1483 22.5737 10.073C22.6183 9.99771 22.6477 9.91433 22.6601 9.82766C22.6725 9.74099 22.6678 9.65273 22.6461 9.5679C22.6244 9.48308 22.5862 9.40336 22.5337 9.33329L21.9041 8.49329C21.4794 7.9262 20.9284 7.46586 20.2949 7.14878C19.6613 6.83171 18.9626 6.66663 18.2541 6.66663H15.6483C14.7959 6.66763 13.9553 6.86601 13.1924 7.24621C11.5112 8.08663 10.5178 9.84246 10.6849 11.7462C10.7583 12.5833 11.1024 13.345 11.5995 14ZM25.9999 15.3333H5.99992C5.82311 15.3333 5.65354 15.4035 5.52851 15.5286C5.40349 15.6536 5.33325 15.8231 5.33325 16V16.6666C5.33325 16.8434 5.40349 17.013 5.52851 17.138C5.65354 17.2631 5.82311 17.3333 5.99992 17.3333H25.9999C26.1767 17.3333 26.3463 17.2631 26.4713 17.138C26.5963 17.013 26.6666 16.8434 26.6666 16.6666V16C26.6666 15.8231 26.5963 15.6536 26.4713 15.5286C26.3463 15.4035 26.1767 15.3333 25.9999 15.3333ZM22.1458 18.6666H18.3512L18.9478 18.965C19.264 19.1229 19.5299 19.3657 19.7158 19.6663C19.9016 19.9668 20.0001 20.3132 20.0001 20.6666C20.0001 21.02 19.9016 21.3664 19.7158 21.667C19.5299 21.9675 19.264 22.2104 18.9478 22.3683C18.5556 22.5642 18.1233 22.6663 17.6849 22.6666H15.0833C14.7882 22.6667 14.4971 22.598 14.2332 22.466C13.9693 22.334 13.7398 22.1423 13.5628 21.9062L12.9341 21.0675C12.8816 20.9974 12.8158 20.9383 12.7405 20.8937C12.6652 20.8491 12.5818 20.8197 12.4951 20.8073C12.4085 20.7948 12.3202 20.7996 12.2354 20.8213C12.1505 20.843 12.0708 20.8812 12.0008 20.9337L10.9333 21.7333C10.8632 21.7858 10.8041 21.8516 10.7595 21.9269C10.7149 22.0022 10.6855 22.0856 10.6731 22.1723C10.6606 22.2589 10.6654 22.3472 10.6871 22.432C10.7088 22.5168 10.747 22.5966 10.7995 22.6666L11.4291 23.507C11.8538 24.0741 12.4048 24.5343 13.0384 24.8513C13.6719 25.1683 14.3706 25.3333 15.0791 25.3333H17.6849C18.5372 25.3323 19.3776 25.1339 20.1403 24.7537C21.822 23.9133 22.8153 22.1575 22.6483 20.2537C22.5987 19.6833 22.4028 19.1591 22.1458 18.6666Z" fill="currentColor"/>
</svg>
