<svg width="32" height="32" viewBox="0 0 32 32" fill="none" xmlns="http://www.w3.org/2000/svg">
<path d="M26.1666 5.33334H25.012C24.7312 5.33334 24.5054 5.57197 24.5121 5.86177L24.6099 10.1016C22.7588 7.22767 19.5939 5.33334 15.9999 5.33334C10.9505 5.33334 6.74713 9.07201 5.84559 14.0139C5.78775 14.3309 6.02509 14.6237 6.33754 14.6237H7.52821C7.76463 14.6237 7.96746 14.4524 8.01725 14.2138C8.80996 10.4141 12.0798 7.5699 15.9999 7.5699C19.3143 7.5699 22.1642 9.60354 23.4448 12.5291L18.1785 12.3997C17.8978 12.3928 17.6666 12.6258 17.6666 12.9157V14.1075C17.6666 14.3926 17.8905 14.6237 18.1666 14.6237H26.1666C26.4427 14.6237 26.6666 14.3926 26.6666 14.1075V5.84947C26.6666 5.56444 26.4427 5.33334 26.1666 5.33334ZM25.6623 17.3764H24.4716C24.2352 17.3764 24.0324 17.5476 23.9826 17.7862C23.1899 21.5859 19.92 24.4301 15.9999 24.4301C12.6855 24.4301 9.83567 22.3965 8.55509 19.4709L13.8213 19.6003C14.102 19.6072 14.3333 19.3742 14.3333 19.0843V17.8925C14.3333 17.6075 14.1094 17.3764 13.8333 17.3764H5.83325C5.55713 17.3764 5.33325 17.6075 5.33325 17.8925V26.1505C5.33325 26.4356 5.55713 26.6667 5.83325 26.6667H6.98788C7.26867 26.6667 7.49442 26.4281 7.48775 26.1382L7.38996 21.8985C9.24109 24.7724 12.4059 26.6667 15.9999 26.6667C21.0494 26.6667 25.2527 22.928 26.1543 17.9861C26.2121 17.6691 25.9748 17.3764 25.6623 17.3764Z" fill="currentColor"/>
</svg>
