<svg width="32" height="32" viewBox="0 0 32 32" fill="none" xmlns="http://www.w3.org/2000/svg">
<path d="M26.0808 14.7475L17.2524 5.9191C16.8773 5.54403 16.3686 5.33332 15.8382 5.33331H7.33325C6.22867 5.33331 5.33325 6.22873 5.33325 7.33331V15.8382C5.33325 16.1009 5.38498 16.361 5.48549 16.6036C5.586 16.8463 5.73332 17.0667 5.91904 17.2524L14.7475 26.0809C15.5285 26.8619 16.7948 26.8619 17.5759 26.0809L26.0808 17.5759C26.8618 16.7949 26.8618 15.5286 26.0808 14.7475ZM16.1618 24.6665L7.33325 15.8382V7.33331H15.8382L24.6666 16.1617L16.1618 24.6665ZM13.3333 11.3333C13.3333 12.4379 12.4378 13.3333 11.3333 13.3333C10.2287 13.3333 9.33325 12.4379 9.33325 11.3333C9.33325 10.2287 10.2287 9.33331 11.3333 9.33331C12.4378 9.33331 13.3333 10.2287 13.3333 11.3333Z" fill="#474747"/>
</svg>
