<svg width="32" height="32" viewBox="0 0 32 32" fill="none" xmlns="http://www.w3.org/2000/svg">
<path d="M28.7476 17.576L20.2427 26.0809C19.4616 26.862 18.1953 26.8619 17.4143 26.0809L17.3993 26.0659L27.3334 16.1618L16.475 5.33334H18.505C19.0354 5.33335 19.5441 5.54406 19.9192 5.91914L28.7476 14.7476C29.5287 15.5286 29.5287 16.7949 28.7476 17.576ZM23.4143 17.576L14.9094 26.0809C14.5189 26.4714 14.007 26.6667 13.4952 26.6667C12.9833 26.6667 12.4715 26.4714 12.081 26.0809L3.25254 17.2525C2.87747 16.8774 2.66675 16.3687 2.66675 15.8383L2.66675 7.33334C2.66675 6.22876 3.56217 5.33334 4.66675 5.33334H13.1717C13.4343 5.33334 13.6944 5.38507 13.937 5.48558C14.1797 5.58609 14.4002 5.73341 14.5859 5.91914L23.4143 14.7476C24.1953 15.5286 24.1953 16.7949 23.4143 17.576ZM22.0001 16.1618L13.1717 7.33334H4.66675V15.8383L13.4953 24.6665L22.0001 16.1618ZM8.66675 9.33334C7.56217 9.33334 6.66675 10.2288 6.66675 11.3333C6.66675 12.4379 7.56217 13.3333 8.66675 13.3333C9.77133 13.3333 10.6668 12.4379 10.6668 11.3333C10.6668 10.2288 9.77133 9.33334 8.66675 9.33334Z" fill="currentColor"/>
</svg>
