<svg width="32" height="32" viewBox="0 0 32 32" fill="none" xmlns="http://www.w3.org/2000/svg">
<path d="M25.4279 17.2788C25.7933 16.66 26 16 26 15.2021C26 13.3682 24.4493 11.6363 22.4242 11.6363H20.9042C21.1092 11.1025 21.2729 10.4642 21.2729 9.69712C21.2729 6.66404 19.7025 5.33337 17.3033 5.33337C14.7364 5.33337 14.8828 9.28892 14.3133 9.85837C13.3655 10.8062 12.246 12.627 11.4483 13.3334H7.33333C6.59696 13.3334 6 13.9303 6 14.6667V24.6667C6 25.4031 6.59696 26 7.33333 26H10C10.6205 26 11.142 25.5761 11.2908 25.0021C13.1453 25.0438 14.4183 26.6663 18.6992 26.6663C19 26.6663 19.3333 26.6667 19.625 26.6667C22.8382 26.6667 24.2911 25.0241 24.3308 22.6946C24.8858 21.9269 25.1766 20.8979 25.0533 19.9034C25.4639 19.1345 25.6227 18.2224 25.4279 17.2788ZM22.855 19.5217C23.3783 20.4021 22.9075 21.5805 22.2742 21.9205C22.595 23.953 21.5405 24.6663 20.0608 24.6663H18.485C15.5 24.6663 13.5671 23.0905 11.3333 23.0905V15.3334H11.7883C12.97 15.3334 14.6208 12.3796 15.7275 11.2725C16.9092 10.0909 16.5154 8.12129 17.3033 7.33337C19.2729 7.33337 19.2729 8.70754 19.2729 9.69712C19.2729 11.3292 18.0913 12.0605 18.0913 13.6363H22.4242C23.3038 13.6363 23.9963 14.4242 24 15.2121C24.0038 15.9996 23.4658 16.7875 23.0721 16.7875C23.6341 17.394 23.7542 18.6724 22.855 19.5217ZM9.66667 23.3334C9.66667 23.8857 9.21896 24.3334 8.66667 24.3334C8.11438 24.3334 7.66667 23.8857 7.66667 23.3334C7.66667 22.7811 8.11438 22.3334 8.66667 22.3334C9.21896 22.3334 9.66667 22.7811 9.66667 23.3334Z" fill="#474747"/>
</svg>
