<svg width="32" height="32" viewBox="0 0 32 32" fill="none" xmlns="http://www.w3.org/2000/svg">
<path d="M25.4279 14.7213C25.6227 13.7777 25.4639 12.8655 25.0533 12.0967C25.1766 11.1022 24.8858 10.0732 24.3308 9.30546C24.2911 6.976 22.8382 5.33337 19.625 5.33337C19.3333 5.33337 19 5.33379 18.6992 5.33379C14.3831 5.33379 13.0415 7.00004 11.3333 7.00004H10.8815C10.6465 6.79275 10.338 6.66671 10 6.66671H7.33333C6.59696 6.66671 6 7.26367 6 8.00004V18C6 18.7364 6.59696 19.3334 7.33333 19.3334H10C10.4934 19.3334 10.924 19.0651 11.1545 18.6667H11.4483C12.2461 19.3731 13.3655 21.1939 14.3133 22.1417C14.8828 22.7112 14.7364 26.6667 17.3033 26.6667C19.7025 26.6667 21.2729 25.336 21.2729 22.303C21.2729 21.5359 21.1092 20.8975 20.9042 20.3638H22.4242C24.4493 20.3638 26 18.6319 26 16.798C26 16 25.7933 15.34 25.4279 14.7213ZM8.66667 17.6667C8.11438 17.6667 7.66667 17.219 7.66667 16.6667C7.66667 16.1144 8.11438 15.6667 8.66667 15.6667C9.21896 15.6667 9.66667 16.1144 9.66667 16.6667C9.66667 17.219 9.21896 17.6667 8.66667 17.6667ZM22.4242 18.3638H18.0913C18.0913 19.9396 19.2729 20.6709 19.2729 22.303C19.2729 23.2925 19.2729 24.6667 17.3033 24.6667C16.5154 23.8788 16.9092 21.9092 15.7275 20.7275C14.6208 19.6205 12.97 16.6667 11.7883 16.6667H11.3333V8.90962C13.5671 8.90962 15.5 7.33379 18.485 7.33379H20.0608C21.5405 7.33379 22.595 8.04712 22.2742 10.0796C22.9075 10.4196 23.3783 11.598 22.855 12.4784C23.7542 13.3277 23.6341 14.6061 23.0721 15.2125C23.4658 15.2125 24.0038 16.0005 24 16.788C23.9963 17.5759 23.3038 18.3638 22.4242 18.3638Z" fill="#474747"/>
</svg>
