<svg width="32" height="32" viewBox="0 0 32 32" fill="none" xmlns="http://www.w3.org/2000/svg">
<path d="M15.9999 5.33331C10.1074 5.33331 5.33325 10.1075 5.33325 16C5.33325 21.8925 10.1074 26.6666 15.9999 26.6666C21.8924 26.6666 26.6666 21.8925 26.6666 16C26.6666 10.1075 21.8924 5.33331 15.9999 5.33331ZM15.9999 24.6021C11.2472 24.6021 7.39777 20.7527 7.39777 16C7.39777 11.2473 11.2472 7.39783 15.9999 7.39783C20.7526 7.39783 24.6021 11.2473 24.6021 16C24.6021 20.7527 20.7526 24.6021 15.9999 24.6021ZM20.3784 13.3247L17.7031 16L20.3784 18.6752C20.5806 18.8774 20.5806 19.2043 20.3784 19.4064L19.4064 20.3785C19.2042 20.5806 18.8773 20.5806 18.6752 20.3785L15.9999 17.7032L13.3246 20.3785C13.1225 20.5806 12.7956 20.5806 12.5935 20.3785L11.6214 19.4064C11.4193 19.2043 11.4193 18.8774 11.6214 18.6752L14.2967 16L11.6214 13.3247C11.4193 13.1226 11.4193 12.7957 11.6214 12.5935L12.5935 11.6215C12.7956 11.4193 13.1225 11.4193 13.3246 11.6215L15.9999 14.2968L18.6752 11.6215C18.8773 11.4193 19.2042 11.4193 19.4064 11.6215L20.3784 12.5935C20.5806 12.7957 20.5806 13.1226 20.3784 13.3247Z" fill="#474747"/>
</svg>
