<svg width="32" height="32" viewBox="0 0 32 32" fill="none" xmlns="http://www.w3.org/2000/svg">
<path d="M20.6667 14V18H11.3333V14H20.6667ZM21.6667 12H10.3333C9.78104 12 9.33333 12.4477 9.33333 13V19C9.33333 19.5523 9.78104 20 10.3333 20H21.6667C22.219 20 22.6667 19.5523 22.6667 19V13C22.6667 12.4477 22.219 12 21.6667 12ZM27.6667 14.3333H28V10C28 8.89542 27.1046 8 26 8H6C4.89542 8 4 8.89542 4 10V14.3333H4.33333C5.25379 14.3333 6 15.0795 6 16C6 16.9205 5.25379 17.6667 4.33333 17.6667H4V22C4 23.1046 4.89542 24 6 24H26C27.1046 24 28 23.1046 28 22V17.6667H27.6667C26.7462 17.6667 26 16.9205 26 16C26 15.0795 26.7462 14.3333 27.6667 14.3333ZM26 12.7345C24.8138 13.3424 24 14.578 24 16C24 17.422 24.8138 18.6576 26 19.2655V22H6V19.2655C7.18629 18.6576 8 17.422 8 16C8 14.578 7.18629 13.3424 6 12.7345V10H26V12.7345Z" fill="currentColor"/>
</svg>
