<svg width="32" height="32" viewBox="0 0 32 32" fill="none" xmlns="http://www.w3.org/2000/svg">
<path d="M17.9833 15.9999L22.4717 11.5116C22.7313 11.252 22.7313 10.8308 22.4717 10.5708L21.4288 9.52785C21.1692 9.26826 20.7479 9.26826 20.4879 9.52785L16 14.0166L11.5116 9.52826C11.252 9.26868 10.8307 9.26868 10.5707 9.52826L9.52819 10.5708C9.2686 10.8303 9.2686 11.2516 9.52819 11.5116L14.0166 15.9999L9.52819 20.4883C9.2686 20.7478 9.2686 21.1691 9.52819 21.4291L10.5711 22.472C10.8307 22.7316 11.252 22.7316 11.512 22.472L16 17.9833L20.4884 22.4716C20.7479 22.7312 21.1692 22.7312 21.4292 22.4716L22.4721 21.4287C22.7317 21.1691 22.7317 20.7478 22.4721 20.4878L17.9833 15.9999Z" fill="currentColor"/>
</svg>
