<svg width="32" height="32" viewBox="0 0 32 32" fill="none" xmlns="http://www.w3.org/2000/svg">
<path d="M20.2417 13.4084L17.6501 16L20.2417 18.5917C20.4376 18.7875 20.4376 19.1042 20.2417 19.3L19.3001 20.2417C19.1042 20.4375 18.7876 20.4375 18.5917 20.2417L16.0001 17.65L13.4084 20.2417C13.2126 20.4375 12.8959 20.4375 12.7001 20.2417L11.7584 19.3C11.5626 19.1042 11.5626 18.7875 11.7584 18.5917L14.3501 16L11.7584 13.4084C11.5626 13.2125 11.5626 12.8959 11.7584 12.7L12.7001 11.7584C12.8959 11.5625 13.2126 11.5625 13.4084 11.7584L16.0001 14.35L18.5917 11.7584C18.7876 11.5625 19.1042 11.5625 19.3001 11.7584L20.2417 12.7C20.4376 12.8959 20.4376 13.2125 20.2417 13.4084ZM25.3334 8.66669V23.3334C25.3334 24.4375 24.4376 25.3334 23.3334 25.3334H8.66675C7.56258 25.3334 6.66675 24.4375 6.66675 23.3334V8.66669C6.66675 7.56252 7.56258 6.66669 8.66675 6.66669H23.3334C24.4376 6.66669 25.3334 7.56252 25.3334 8.66669ZM23.3334 23.0834V8.91669C23.3334 8.77919 23.2209 8.66669 23.0834 8.66669H8.91675C8.77925 8.66669 8.66675 8.77919 8.66675 8.91669V23.0834C8.66675 23.2209 8.77925 23.3334 8.91675 23.3334H23.0834C23.2209 23.3334 23.3334 23.2209 23.3334 23.0834Z" fill="#474747"/>
</svg>
