<svg width="32" height="32" viewBox="0 0 32 32" fill="none" xmlns="http://www.w3.org/2000/svg">
<path d="M28.6667 20.6666H28.0001V15.8291C28.0001 15.0375 27.6792 14.2666 27.1209 13.7083L23.6251 10.2125C23.0667 9.65415 22.2917 9.33331 21.5042 9.33331H20.0001V7.66665C20.0001 6.37915 18.9542 5.33331 17.6667 5.33331H5.00008C3.71258 5.33331 2.66675 6.37915 2.66675 7.66665V20.3333C2.66675 21.6208 3.71258 22.6666 5.00008 22.6666H5.33341C5.33341 24.875 7.12508 26.6666 9.33341 26.6666C11.5417 26.6666 13.3334 24.875 13.3334 22.6666H18.6667C18.6667 24.875 20.4584 26.6666 22.6667 26.6666C24.8751 26.6666 26.6667 24.875 26.6667 22.6666H28.6667C29.0334 22.6666 29.3334 22.3666 29.3334 22V21.3333C29.3334 20.9666 29.0334 20.6666 28.6667 20.6666ZM9.33341 24.6666C8.22925 24.6666 7.33341 23.7708 7.33341 22.6666C7.33341 21.5625 8.22925 20.6666 9.33341 20.6666C10.4376 20.6666 11.3334 21.5625 11.3334 22.6666C11.3334 23.7708 10.4376 24.6666 9.33341 24.6666ZM18.0001 20.6666H12.7792C12.0876 19.475 10.8126 18.6666 9.33341 18.6666C7.85425 18.6666 6.57925 19.475 5.88758 20.6666H5.00008C4.81675 20.6666 4.66675 20.5166 4.66675 20.3333V7.66665C4.66675 7.48331 4.81675 7.33331 5.00008 7.33331H17.6667C17.8501 7.33331 18.0001 7.48331 18.0001 7.66665V20.6666ZM20.0001 11.3333H21.5042C21.7667 11.3333 22.0251 11.4416 22.2126 11.625L25.2542 14.6666H20.0001V11.3333ZM22.6667 24.6666C21.5626 24.6666 20.6667 23.7708 20.6667 22.6666C20.6667 21.5625 21.5626 20.6666 22.6667 20.6666C23.7709 20.6666 24.6667 21.5625 24.6667 22.6666C24.6667 23.7708 23.7709 24.6666 22.6667 24.6666ZM26.0001 20.4625C25.2834 19.3833 24.0584 18.6666 22.6667 18.6666C21.6376 18.6666 20.7084 19.0666 20.0001 19.7041V16.6666H26.0001V20.4625Z" fill="#474747"/>
</svg>
