<svg width="32" height="32" viewBox="0 0 32 32" fill="none" xmlns="http://www.w3.org/2000/svg">
<path d="M17.8332 22.6667H18.8332C18.9658 22.6667 19.093 22.614 19.1867 22.5202C19.2805 22.4265 19.3332 22.2993 19.3332 22.1667V13.1667C19.3332 13.0341 19.2805 12.9069 19.1867 12.8131C19.093 12.7194 18.9658 12.6667 18.8332 12.6667H17.8332C17.7006 12.6667 17.5734 12.7194 17.4796 12.8131C17.3858 12.9069 17.3332 13.0341 17.3332 13.1667V22.1667C17.3332 22.2993 17.3858 22.4265 17.4796 22.5202C17.5734 22.614 17.7006 22.6667 17.8332 22.6667ZM24.6665 8.66668H21.2328L19.8161 6.30418C19.6383 6.00793 19.3868 5.7628 19.0861 5.59266C18.7854 5.42252 18.4458 5.33318 18.1003 5.33334H13.8994C13.5541 5.33332 13.2146 5.42273 12.914 5.59286C12.6135 5.763 12.3621 6.00805 12.1844 6.30418L10.7669 8.66668H7.33317C7.15636 8.66668 6.98679 8.73692 6.86177 8.86194C6.73674 8.98696 6.6665 9.15653 6.6665 9.33334V10C6.6665 10.1768 6.73674 10.3464 6.86177 10.4714C6.98679 10.5964 7.15636 10.6667 7.33317 10.6667H7.99984V24.6667C7.99984 25.1971 8.21055 25.7058 8.58562 26.0809C8.9607 26.456 9.4694 26.6667 9.99984 26.6667H21.9998C22.5303 26.6667 23.039 26.456 23.4141 26.0809C23.7891 25.7058 23.9998 25.1971 23.9998 24.6667V10.6667H24.6665C24.8433 10.6667 25.0129 10.5964 25.1379 10.4714C25.2629 10.3464 25.3332 10.1768 25.3332 10V9.33334C25.3332 9.15653 25.2629 8.98696 25.1379 8.86194C25.0129 8.73692 24.8433 8.66668 24.6665 8.66668ZM13.8265 7.45459C13.8488 7.41751 13.8803 7.38684 13.918 7.36558C13.9557 7.34433 13.9982 7.33322 14.0415 7.33334H17.9582C18.0014 7.33329 18.0438 7.34444 18.0814 7.36569C18.119 7.38694 18.1505 7.41757 18.1728 7.45459L18.9003 8.66668H13.0994L13.8265 7.45459ZM21.9998 24.6667H9.99984V10.6667H21.9998V24.6667ZM13.1665 22.6667H14.1665C14.2991 22.6667 14.4263 22.614 14.5201 22.5202C14.6138 22.4265 14.6665 22.2993 14.6665 22.1667V13.1667C14.6665 13.0341 14.6138 12.9069 14.5201 12.8131C14.4263 12.7194 14.2991 12.6667 14.1665 12.6667H13.1665C13.0339 12.6667 12.9067 12.7194 12.813 12.8131C12.7192 12.9069 12.6665 13.0341 12.6665 13.1667V22.1667C12.6665 22.2993 12.7192 22.4265 12.813 22.5202C12.9067 22.614 13.0339 22.6667 13.1665 22.6667Z" fill="#474747"/>
</svg>
