<svg width="32" height="32" viewBox="0 0 32 32" fill="none" xmlns="http://www.w3.org/2000/svg">
<path d="M29.3334 7.33313V5.33331H18.6677C17.9303 5.33331 17.3345 5.92909 17.3345 6.66652V20.8569L2.91501 24.7232C2.73586 24.769 2.63171 24.9523 2.67753 25.1315L3.02334 26.4189C3.06917 26.598 3.25248 26.7022 3.43163 26.6563L20.0218 22.2068C20.1343 24.6857 22.1632 26.6647 24.6672 26.6647C27.2461 26.6647 29.3334 24.5774 29.3334 21.9984C29.3334 19.4195 27.2461 17.3322 24.6672 17.3322C22.809 17.3322 21.2175 18.4279 20.4676 19.9986H19.3343V7.33313H29.3334ZM24.6672 19.332C26.1379 19.332 27.3336 20.5277 27.3336 21.9984C27.3336 23.4691 26.1379 24.6649 24.6672 24.6649C23.1965 24.6649 22.0008 23.4691 22.0008 21.9984C22.0008 20.5277 23.1965 19.332 24.6672 19.332ZM4.76068 20.9819C4.8565 21.336 5.22313 21.5485 5.57727 21.4527L14.5931 19.0362C14.9472 18.9404 15.1597 18.5738 15.0639 18.2196L12.9933 10.4912C12.8974 10.137 12.5308 9.92456 12.1767 10.0204L8.96029 10.887L9.99353 14.7491L7.41876 15.4365L6.38553 11.5744L3.16499 12.4368C2.81086 12.5327 2.59838 12.8993 2.6942 13.2534L4.76068 20.9819Z" fill="#474747"/>
</svg>
