<svg width="32" height="32" viewBox="0 0 32 32" fill="none" xmlns="http://www.w3.org/2000/svg">
<path d="M21.1449 6.08665C19.7403 5.5754 18.3045 5.33331 16.892 5.33331C13.1224 5.33331 9.52361 7.0604 7.16527 10.0137C6.8861 10.3633 7.05402 10.8904 7.47444 11.0433L17.0236 14.5188L13.2849 24.6667H3.33317C2.96484 24.6667 2.6665 24.9651 2.6665 25.3334V26.0001C2.6665 26.3684 2.96484 26.6667 3.33317 26.6667H25.9999C26.3683 26.6667 26.6666 26.3684 26.6666 26.0001V25.3334C26.6666 24.9651 26.3683 24.6667 25.9999 24.6667H15.417L18.9032 15.2034L28.4308 18.6709C28.507 18.6988 28.5849 18.7117 28.6612 18.7117C29.0058 18.7117 29.3208 18.4471 29.3295 18.0809C29.4558 12.8867 26.2974 7.96207 21.1449 6.08665ZM21.5241 14.0288L15.4749 11.8271C16.0686 10.7746 16.7474 9.85666 17.4816 9.16166C18.5374 8.16041 19.5662 7.73832 20.2903 8.00457C21.0207 8.27041 21.5337 9.25124 21.7003 10.6971C21.8157 11.7017 21.7457 12.8408 21.5241 14.0288ZM10.0811 9.86416C11.8682 8.33666 14.1565 7.43749 16.5207 7.3504C16.3345 7.50707 14.9849 8.53583 13.592 11.1421L10.0811 9.86416ZM23.407 14.7142C23.7145 13.2529 23.9095 11.5029 23.5782 9.78583C25.4853 11.3808 26.7924 13.6054 27.1978 16.0938L23.407 14.7142Z" fill="#474747"/>
</svg>
