<svg width="32" height="32" viewBox="0 0 32 32" fill="none" xmlns="http://www.w3.org/2000/svg">
<path d="M6.21433 6.21445L8.45798 8.45811C10.3881 6.52765 13.0543 5.33337 15.9999 5.33337C21.8778 5.33337 26.6709 10.1301 26.6666 16.008C26.6623 21.8954 21.8883 26.6667 15.9999 26.6667C13.2504 26.6667 10.7439 25.6264 8.85248 23.918C8.63256 23.7194 8.62224 23.3777 8.83175 23.1682L9.68069 22.3192C9.87416 22.1258 10.1862 22.1134 10.3904 22.2955C11.88 23.6235 13.8449 24.4301 15.9999 24.4301C20.6589 24.4301 24.43 20.6597 24.43 16C24.43 11.3411 20.6596 7.56993 15.9999 7.56993C13.6703 7.56993 11.5631 8.51286 10.038 10.0381L12.3661 12.3663C12.6913 12.6914 12.461 13.2474 12.0012 13.2474H5.84938C5.56435 13.2474 5.33325 13.0163 5.33325 12.7312V6.57944C5.33325 6.11961 5.88921 5.88933 6.21433 6.21445Z" fill="currentColor"/>
</svg>
