<svg width="32" height="32" viewBox="0 0 32 32" fill="none" xmlns="http://www.w3.org/2000/svg">
<path d="M8.00008 7.33337H9.33341V16C9.33341 19.6759 12.3242 22.6667 16.0001 22.6667C19.6759 22.6667 22.6667 19.6759 22.6667 16V7.33337H24.0001C24.1769 7.33337 24.3465 7.26314 24.4715 7.13811C24.5965 7.01309 24.6667 6.84352 24.6667 6.66671V6.00004C24.6667 5.82323 24.5965 5.65366 24.4715 5.52864C24.3465 5.40361 24.1769 5.33337 24.0001 5.33337H18.6667C18.4899 5.33337 18.3204 5.40361 18.1953 5.52864C18.0703 5.65366 18.0001 5.82323 18.0001 6.00004V6.66671C18.0001 6.84352 18.0703 7.01309 18.1953 7.13811C18.3204 7.26314 18.4899 7.33337 18.6667 7.33337H20.0001V16C20.0001 17.0609 19.5787 18.0783 18.8285 18.8285C18.0784 19.5786 17.0609 20 16.0001 20C14.9392 20 13.9218 19.5786 13.1717 18.8285C12.4215 18.0783 12.0001 17.0609 12.0001 16V7.33337H13.3334C13.5102 7.33337 13.6798 7.26314 13.8048 7.13811C13.9298 7.01309 14.0001 6.84352 14.0001 6.66671V6.00004C14.0001 5.82323 13.9298 5.65366 13.8048 5.52864C13.6798 5.40361 13.5102 5.33337 13.3334 5.33337H8.00008C7.82327 5.33337 7.6537 5.40361 7.52868 5.52864C7.40365 5.65366 7.33341 5.82323 7.33341 6.00004V6.66671C7.33341 6.84352 7.40365 7.01309 7.52868 7.13811C7.6537 7.26314 7.82327 7.33337 8.00008 7.33337ZM24.6667 24.6667H7.33341C7.1566 24.6667 6.98703 24.7369 6.86201 24.862C6.73699 24.987 6.66675 25.1566 6.66675 25.3334V26C6.66675 26.1769 6.73699 26.3464 6.86201 26.4714C6.98703 26.5965 7.1566 26.6667 7.33341 26.6667H24.6667C24.8436 26.6667 25.0131 26.5965 25.1382 26.4714C25.2632 26.3464 25.3334 26.1769 25.3334 26V25.3334C25.3334 25.1566 25.2632 24.987 25.1382 24.862C25.0131 24.7369 24.8436 24.6667 24.6667 24.6667Z" fill="currentColor"/>
</svg>
