<svg width="32" height="32" viewBox="0 0 32 32" fill="none" xmlns="http://www.w3.org/2000/svg">
<path d="M26 17.3325H20V15.9992H22.6667C24.4417 15.9992 25.3417 13.845 24.0792 12.5867L17.4125 5.92004C16.6292 5.13671 15.3667 5.14088 14.5833 5.92004L7.91667 12.5867C6.6625 13.8409 7.55417 15.9992 9.33333 15.9992H12V17.3325H6C4.89583 17.3325 4 18.2284 4 19.3325V24.6659C4 25.77 4.89583 26.6659 6 26.6659H26C27.1042 26.6659 28 25.77 28 24.6659V19.3325C28 18.2284 27.1042 17.3325 26 17.3325ZM9.33333 13.9992L16 7.33255L22.6667 13.9992H18V20.6659H14V13.9992H9.33333ZM26 24.6659H6V19.3325H12V20.6659C12 21.77 12.8958 22.6659 14 22.6659H18C19.1042 22.6659 20 21.77 20 20.6659V19.3325H26V24.6659ZM24.3333 21.9992C24.3333 22.5534 23.8875 22.9992 23.3333 22.9992C22.7792 22.9992 22.3333 22.5534 22.3333 21.9992C22.3333 21.445 22.7792 20.9992 23.3333 20.9992C23.8875 20.9992 24.3333 21.445 24.3333 21.9992Z" fill="#474747"/>
</svg>
