<svg width="32" height="32" viewBox="0 0 32 32" fill="none" xmlns="http://www.w3.org/2000/svg">
<path d="M22.6665 16C24.8748 16 26.6665 14.2084 26.6665 12C26.6665 9.79169 24.8748 8.00002 22.6665 8.00002C20.4582 8.00002 18.6665 9.79169 18.6665 12C18.6665 14.2084 20.4582 16 22.6665 16ZM22.6665 10C23.7707 10 24.6665 10.8959 24.6665 12C24.6665 13.1042 23.7707 14 22.6665 14C21.5623 14 20.6665 13.1042 20.6665 12C20.6665 10.8959 21.5623 10 22.6665 10ZM14.004 16.8334C13.5082 16.8334 13.0082 16.9042 12.5248 17.0542C11.9332 17.2334 11.3123 17.3334 10.6623 17.3334C10.0123 17.3334 9.3915 17.2334 8.79984 17.0542C8.3165 16.9084 7.8165 16.8334 7.32067 16.8334C5.80817 16.8334 4.33734 17.5084 3.47484 18.7875C2.9665 19.5542 2.6665 20.475 2.6665 21.4667V23.3334C2.6665 24.4375 3.56234 25.3334 4.6665 25.3334H16.6665C17.7707 25.3334 18.6665 24.4375 18.6665 23.3334V21.4667C18.6665 20.475 18.3665 19.5542 17.8498 18.7875C16.9873 17.5084 15.5165 16.8334 14.004 16.8334ZM16.6665 23.3334H4.6665V21.4667C4.6665 20.2625 5.43317 19.2334 6.504 18.8375C6.93317 18.6792 7.404 18.6834 7.83317 18.8375C8.754 19.1667 9.70817 19.3334 10.6665 19.3334C11.6248 19.3334 12.5748 19.1667 13.504 18.8375C13.9332 18.6834 14.404 18.6792 14.8332 18.8375C15.904 19.2292 16.6707 20.2625 16.6707 21.4667V23.3334H16.6665ZM10.6665 16C13.2457 16 15.3332 13.9125 15.3332 11.3334C15.3332 8.75419 13.2457 6.66669 10.6665 6.66669C8.08734 6.66669 5.99984 8.75419 5.99984 11.3334C5.99984 13.9125 8.08734 16 10.6665 16ZM10.6665 8.66669C12.1373 8.66669 13.3332 9.86252 13.3332 11.3334C13.3332 12.8042 12.1373 14 10.6665 14C9.19567 14 7.99984 12.8042 7.99984 11.3334C7.99984 9.86252 9.19567 8.66669 10.6665 8.66669ZM28.654 18.5459C27.9332 17.4792 26.7082 16.9167 25.4498 16.9167C24.2915 16.9167 23.9998 17.3334 22.6665 17.3334C21.3332 17.3334 21.0415 16.9167 19.8832 16.9167C19.329 16.9167 18.7915 17.0417 18.2915 17.2542C18.5332 17.5 18.7623 17.7542 18.9582 18.0417C19.154 18.3334 19.3165 18.6417 19.4582 18.9584C19.5957 18.9292 19.7373 18.9125 19.8832 18.9125C20.5998 18.9125 21.1165 19.3292 22.6665 19.3292C24.2248 19.3292 24.729 18.9125 25.4498 18.9125C26.104 18.9125 26.679 19.1917 26.9957 19.6584C27.2165 19.9875 27.3332 20.3709 27.3332 20.7709V22H19.9998V23.3334C19.9998 23.5625 19.9748 23.7834 19.9332 24H27.6665C28.5873 24 29.3332 23.2542 29.3332 22.3334V20.7792C29.3332 19.95 29.0832 19.1834 28.654 18.5459Z" fill="currentColor"/>
</svg>
