<svg width="32" height="32" viewBox="0 0 32 32" fill="none" xmlns="http://www.w3.org/2000/svg">
<path d="M25.3367 14.6667C27.1787 14.6667 28.6706 13.175 28.6706 11.3334C28.6706 9.49169 27.1787 8.00002 25.3367 8.00002C23.4948 8.00002 22.0029 9.49169 22.0029 11.3334C22.0029 13.175 23.4948 14.6667 25.3367 14.6667ZM25.3367 10C26.0702 10 26.6702 10.6 26.6702 11.3334C26.6702 12.0667 26.0702 12.6667 25.3367 12.6667C24.6033 12.6667 24.0032 12.0667 24.0032 11.3334C24.0032 10.6 24.6033 10 25.3367 10ZM6.66713 14.6667C8.50908 14.6667 10.001 13.175 10.001 11.3334C10.001 9.49169 8.50908 8.00002 6.66713 8.00002C4.82517 8.00002 3.33327 9.49169 3.33327 11.3334C3.33327 13.175 4.82517 14.6667 6.66713 14.6667ZM6.66713 10C7.40058 10 8.00067 10.6 8.00067 11.3334C8.00067 12.0667 7.40058 12.6667 6.66713 12.6667C5.93368 12.6667 5.33359 12.0667 5.33359 11.3334C5.33359 10.6 5.93368 10 6.66713 10ZM23.1864 18.7875C22.0404 17.0875 19.8233 16.4542 17.8605 17.05C17.2688 17.2292 16.6479 17.3292 15.9977 17.3292C15.3476 17.3292 14.7267 17.2292 14.135 17.05C12.1722 16.4542 9.95514 17.0834 8.80913 18.7875C8.29238 19.5542 7.99233 20.475 7.99233 21.4667V23.3334C7.99233 24.4375 8.88831 25.3334 9.99265 25.3334H21.9945C23.0989 25.3334 23.9948 24.4375 23.9948 23.3334V21.4667C24.0032 20.475 23.7031 19.5542 23.1864 18.7875ZM22.0029 23.3334H10.001V21.4667C10.001 19.95 11.2178 18.7084 12.7264 18.6667C13.7891 19.1084 14.8892 19.3334 16.0019 19.3334C17.1146 19.3334 18.2148 19.1084 19.2774 18.6667C20.786 18.7084 22.0029 19.9459 22.0029 21.4667V23.3334ZM25.8368 16H24.8366C24.1157 16 23.4447 16.2209 22.8863 16.5959C23.4447 17.0167 23.9365 17.5209 24.3199 18.1042C24.4824 18.0459 24.6533 18 24.8325 18H25.8326C26.6577 18 27.3329 18.675 27.3329 19.5C27.3329 20.05 27.7829 20.5 28.333 20.5C28.8831 20.5 29.3332 20.05 29.3332 19.5C29.3373 17.5709 27.7663 16 25.8368 16ZM16.0019 16C18.5815 16 20.6693 13.9125 20.6693 11.3334C20.6693 8.75419 18.5815 6.66669 16.0019 6.66669C13.4223 6.66669 11.3345 8.75419 11.3345 11.3334C11.3345 13.9125 13.4223 16 16.0019 16ZM16.0019 8.66669C17.473 8.66669 18.669 9.86252 18.669 11.3334C18.669 12.8042 17.473 14 16.0019 14C14.5309 14 13.3348 12.8042 13.3348 11.3334C13.3348 9.86252 14.5309 8.66669 16.0019 8.66669ZM9.11751 16.5959C8.55909 16.2209 7.88815 16 7.16721 16H6.16705C4.23758 16 2.6665 17.5709 2.6665 19.5C2.6665 20.05 3.11657 20.5 3.66666 20.5C4.21675 20.5 4.66682 20.05 4.66682 19.5C4.66682 18.675 5.34192 18 6.16705 18H7.16721C7.35057 18 7.52143 18.0459 7.67979 18.1042C8.06735 17.5209 8.55909 17.0167 9.11751 16.5959Z" fill="currentColor"/>
</svg>
