<svg width="32" height="32" viewBox="0 0 32 32" fill="none" xmlns="http://www.w3.org/2000/svg">
<path d="M19.7334 18C18.5376 18 17.9626 18.6666 16.0001 18.6666C14.0376 18.6666 13.4667 18 12.2667 18C9.17508 18 6.66675 20.5083 6.66675 23.6V24.6666C6.66675 25.7708 7.56258 26.6666 8.66675 26.6666H23.3334C24.4376 26.6666 25.3334 25.7708 25.3334 24.6666V23.6C25.3334 20.5083 22.8251 18 19.7334 18ZM23.3334 24.6666H8.66675V23.6C8.66675 21.6166 10.2834 20 12.2667 20C12.8751 20 13.8626 20.6666 16.0001 20.6666C18.1542 20.6666 19.1209 20 19.7334 20C21.7167 20 23.3334 21.6166 23.3334 23.6V24.6666ZM16.0001 17.3333C19.3126 17.3333 22.0001 14.6458 22.0001 11.3333C22.0001 8.02081 19.3126 5.33331 16.0001 5.33331C12.6876 5.33331 10.0001 8.02081 10.0001 11.3333C10.0001 14.6458 12.6876 17.3333 16.0001 17.3333ZM16.0001 7.33331C18.2042 7.33331 20.0001 9.12915 20.0001 11.3333C20.0001 13.5375 18.2042 15.3333 16.0001 15.3333C13.7959 15.3333 12.0001 13.5375 12.0001 11.3333C12.0001 9.12915 13.7959 7.33331 16.0001 7.33331Z" fill="#474747"/>
</svg>
