<svg width="32" height="32" viewBox="0 0 32 32" fill="none" xmlns="http://www.w3.org/2000/svg">
<path d="M17.5751 15.4292L15.0001 14.6542C14.7417 14.575 14.5584 14.3084 14.5584 14.0042C14.5584 13.6334 14.8251 13.3334 15.1501 13.3334H16.7584C17.0334 13.3334 17.3001 13.4209 17.5251 13.5875C17.6501 13.6792 17.8251 13.6584 17.9334 13.55L18.9084 12.6209C19.0459 12.4875 19.0542 12.2584 18.9084 12.1375C18.3709 11.6834 17.6959 11.4125 16.9959 11.3625V10.3334C16.9959 10.15 16.8459 10 16.6626 10H15.3292C15.1459 10 14.9959 10.15 14.9959 10.3334V11.35C13.6376 11.4292 12.5501 12.5875 12.5501 14.0084C12.5501 15.1875 13.3167 16.2459 14.4167 16.575L16.9959 17.35C17.2542 17.4292 17.4376 17.6959 17.4376 18C17.4376 18.3709 17.1709 18.6709 16.8459 18.6709H15.2376C14.9626 18.6709 14.6959 18.5834 14.4709 18.4167C14.3459 18.325 14.1709 18.3459 14.0626 18.4542L13.0876 19.3834C12.9501 19.5167 12.9417 19.7459 13.0876 19.8667C13.6251 20.3209 14.3001 20.5917 15.0001 20.6417V21.6667C15.0001 21.85 15.1501 22 15.3334 22H16.6667C16.8501 22 17.0001 21.85 17.0001 21.6667V20.65C18.3584 20.5709 19.4459 19.4125 19.4459 17.9917C19.4459 16.8125 18.6751 15.7584 17.5751 15.4292ZM23.0001 6.66669H9.00008C7.71258 6.66669 6.66675 7.71252 6.66675 9.00002V23C6.66675 24.2875 7.71258 25.3334 9.00008 25.3334H23.0001C24.2876 25.3334 25.3334 24.2875 25.3334 23V9.00002C25.3334 7.71252 24.2876 6.66669 23.0001 6.66669ZM23.3334 23C23.3334 23.1834 23.1834 23.3334 23.0001 23.3334H9.00008C8.81675 23.3334 8.66675 23.1834 8.66675 23V9.00002C8.66675 8.81669 8.81675 8.66669 9.00008 8.66669H23.0001C23.1834 8.66669 23.3334 8.81669 23.3334 9.00002V23Z" fill="currentColor"/>
</svg>
