<svg width="32" height="32" viewBox="0 0 32 32" fill="none" xmlns="http://www.w3.org/2000/svg">
<path d="M29.2084 12.0458L28.4126 11.2458C28.2459 11.075 27.9709 11.075 27.8042 11.2458L23.5084 15.5666L21.5334 13.5791C21.3667 13.4083 21.0917 13.4083 20.9251 13.5791L20.1251 14.3791C19.9584 14.55 19.9584 14.8208 20.1251 14.9916L23.2001 18.0875C23.3667 18.2583 23.6417 18.2583 23.8084 18.0875L29.2084 12.6583C29.3751 12.4916 29.3751 12.2166 29.2084 12.0458ZM12.0001 17.3333C15.3126 17.3333 18.0001 14.6458 18.0001 11.3333C18.0001 8.02081 15.3126 5.33331 12.0001 5.33331C8.68758 5.33331 6.00008 8.02081 6.00008 11.3333C6.00008 14.6458 8.68758 17.3333 12.0001 17.3333ZM12.0001 7.33331C14.2042 7.33331 16.0001 9.12915 16.0001 11.3333C16.0001 13.5375 14.2042 15.3333 12.0001 15.3333C9.79591 15.3333 8.00008 13.5375 8.00008 11.3333C8.00008 9.12915 9.79591 7.33331 12.0001 7.33331ZM15.7334 18C14.5334 18 13.9667 18.6666 12.0001 18.6666C10.0376 18.6666 9.46675 18 8.26675 18C5.17508 18 2.66675 20.5083 2.66675 23.6V24.6666C2.66675 25.7708 3.56258 26.6666 4.66675 26.6666H19.3334C20.4376 26.6666 21.3334 25.7708 21.3334 24.6666V23.6C21.3334 20.5083 18.8251 18 15.7334 18ZM19.3334 24.6666H4.66675V23.6C4.66675 21.6166 6.28341 20 8.26675 20C8.87508 20 9.86258 20.6666 12.0001 20.6666C14.1542 20.6666 15.1209 20 15.7334 20C17.7167 20 19.3334 21.6166 19.3334 23.6V24.6666Z" fill="currentColor"/>
</svg>
