<svg width="32" height="32" viewBox="0 0 32 32" fill="none" xmlns="http://www.w3.org/2000/svg">
<path d="M17.8496 15.4839L14.7529 14.5419C14.3658 14.4215 14.0991 14.0215 14.0991 13.5656C14.0991 13.0107 14.4948 12.5591 14.9808 12.5591H16.9163C17.2174 12.5591 17.5098 12.6408 17.7722 12.7914C18.0475 12.9505 18.3873 12.9376 18.6195 12.7226L19.1356 12.2365C19.4625 11.9269 19.4066 11.4021 19.0367 11.1527C18.4432 10.7527 17.7507 10.529 17.041 10.5032V9.80643C17.041 9.42794 16.7313 9.11826 16.3529 9.11826H15.6647C15.2862 9.11826 14.9765 9.42794 14.9765 9.80643V10.4946C13.3593 10.4989 12.0432 11.8752 12.0432 13.5656C12.0432 14.9204 12.912 16.1333 14.1593 16.5161L17.2561 17.458C17.6432 17.5785 17.9098 17.9785 17.9098 18.4344C17.9098 18.9892 17.5141 19.4408 17.0281 19.4408H15.0926C14.7916 19.4408 14.4991 19.3591 14.2367 19.2086C13.9615 19.0494 13.6217 19.0623 13.3894 19.2774L12.8733 19.7634C12.5464 20.0731 12.6023 20.5978 12.9722 20.8473C13.5658 21.2473 14.2582 21.4709 14.9679 21.4968V22.1935C14.9679 22.572 15.2776 22.8817 15.6561 22.8817H16.3442C16.7227 22.8817 17.0324 22.572 17.0324 22.1935V21.5054C18.6496 21.5011 19.9658 20.1247 19.9658 18.4344C19.9658 17.0795 19.0969 15.8666 17.8496 15.4839ZM16.0002 5.33331C10.1077 5.33331 5.3335 10.1075 5.3335 16C5.3335 21.8925 10.1077 26.6666 16.0002 26.6666C21.8926 26.6666 26.6668 21.8925 26.6668 16C26.6668 10.1075 21.8926 5.33331 16.0002 5.33331ZM16.0002 24.6021C11.2561 24.6021 7.39801 20.7441 7.39801 16C7.39801 11.2559 11.2561 7.39783 16.0002 7.39783C20.7442 7.39783 24.6023 11.2559 24.6023 16C24.6023 20.7441 20.7442 24.6021 16.0002 24.6021Z" fill="currentColor"/>
</svg>
