<svg width="32" height="32" viewBox="0 0 32 32" fill="none" xmlns="http://www.w3.org/2000/svg">
<path d="M16.0002 9.46235C13.7206 9.46235 11.8711 11.3118 11.8711 13.5914C11.8711 15.8709 13.7206 17.7204 16.0002 17.7204C18.2797 17.7204 20.1292 15.8709 20.1292 13.5914C20.1292 11.3118 18.2797 9.46235 16.0002 9.46235ZM16.0002 15.6559C14.8604 15.6559 13.9356 14.7312 13.9356 13.5914C13.9356 12.4516 14.8604 11.5269 16.0002 11.5269C17.1399 11.5269 18.0647 12.4516 18.0647 13.5914C18.0647 14.7312 17.1399 15.6559 16.0002 15.6559ZM16.0002 5.33331C10.1077 5.33331 5.3335 10.1075 5.3335 16C5.3335 21.8925 10.1077 26.6666 16.0002 26.6666C21.8926 26.6666 26.6668 21.8925 26.6668 16C26.6668 10.1075 21.8926 5.33331 16.0002 5.33331ZM16.0002 24.6021C13.8625 24.6021 11.9098 23.815 10.4045 22.5204C11.0453 21.5312 12.1421 20.8602 13.398 20.8215C14.2926 21.0968 15.1442 21.2344 16.0002 21.2344C16.8561 21.2344 17.7077 21.1011 18.6023 20.8215C19.8582 20.8645 20.955 21.5312 21.5959 22.5204C20.0905 23.815 18.1378 24.6021 16.0002 24.6021ZM22.998 20.9849C21.9486 19.6344 20.327 18.7527 18.4776 18.7527C18.0389 18.7527 17.3593 19.1656 16.0002 19.1656C14.6453 19.1656 13.9615 18.7527 13.5227 18.7527C11.6776 18.7527 10.0561 19.6344 9.00231 20.9849C7.99586 19.5785 7.39801 17.858 7.39801 16C7.39801 11.2559 11.2561 7.39783 16.0002 7.39783C20.7442 7.39783 24.6023 11.2559 24.6023 16C24.6023 17.858 24.0045 19.5785 22.998 20.9849Z" fill="currentColor"/>
</svg>
