<svg width="32" height="32" viewBox="0 0 32 32" fill="none" xmlns="http://www.w3.org/2000/svg">
<path d="M18.9167 10.1629L21.2251 6.7804C21.3012 6.62815 21.3371 6.459 21.3296 6.28896C21.322 6.11892 21.2712 5.95362 21.1819 5.80872C21.0926 5.66381 20.9678 5.5441 20.8194 5.4609C20.6709 5.37771 20.5036 5.33379 20.3334 5.33331H11.6667C11.4963 5.3333 11.3287 5.37685 11.1798 5.45984C11.0309 5.54283 10.9057 5.6625 10.8161 5.80748C10.7264 5.95247 10.6753 6.11795 10.6677 6.28823C10.66 6.45851 10.6959 6.62793 10.7721 6.7804L13.0834 10.1633C4.92423 15.1525 5.33673 21.6687 5.33673 22.5C5.33673 24.8012 7.38298 26.6666 9.90715 26.6666H22.0942C24.618 26.6666 26.6642 24.8012 26.6642 22.5C26.6642 21.6837 27.0309 15.125 18.9167 10.1629ZM18.4284 7.33331L16.8359 9.66665H15.1642L13.5717 7.33331H18.4284ZM24.6642 22.5C24.6642 23.6946 23.5113 24.6666 22.0942 24.6666H9.90715C8.49048 24.6666 7.33715 23.6946 7.33715 22.5C7.30298 19.125 8.69673 15.1896 14.4584 11.6666H17.5451C23.2776 15.1741 24.6921 19.1221 24.6642 22.5ZM17.2338 18.2808L15.1921 17.675C14.9567 17.6075 14.7934 17.3741 14.7934 17.105C14.7934 16.7775 15.0338 16.5129 15.3284 16.5129H16.603C16.8081 16.5141 17.0089 16.5718 17.1834 16.6796C17.2522 16.7265 17.3349 16.7489 17.418 16.7432C17.5011 16.7376 17.5799 16.7041 17.6417 16.6483L18.1726 16.1412C18.2101 16.1059 18.2396 16.0628 18.2588 16.0149C18.2781 15.967 18.2867 15.9156 18.2841 15.864C18.2815 15.8125 18.2677 15.7622 18.2437 15.7165C18.2197 15.6708 18.186 15.6309 18.1451 15.5996C17.7303 15.2949 17.2353 15.1186 16.7213 15.0925V14.3591C16.7205 14.2635 16.6819 14.172 16.6139 14.1047C16.5459 14.0374 16.4541 13.9998 16.3584 14H15.6326C15.5369 13.9998 15.4451 14.0374 15.3772 14.1047C15.3092 14.172 15.2707 14.2635 15.2701 14.3591V15.0858C14.1951 15.1171 13.3334 16.0104 13.3334 17.1096C13.3334 18.0071 13.923 18.8058 14.7663 19.0571L16.808 19.6629C17.0434 19.73 17.2067 19.9633 17.2067 20.2325C17.2067 20.5604 16.9663 20.825 16.6717 20.825H15.3967C15.1916 20.824 14.9907 20.7663 14.8163 20.6583C14.7474 20.6115 14.6648 20.5891 14.5817 20.5948C14.4985 20.6006 14.4198 20.6341 14.358 20.69L13.8226 21.1925C13.785 21.2278 13.7556 21.2709 13.7363 21.3188C13.717 21.3667 13.7084 21.4181 13.711 21.4697C13.7136 21.5212 13.7274 21.5715 13.7514 21.6172C13.7754 21.6629 13.8091 21.7028 13.8501 21.7341C14.265 22.0387 14.7602 22.215 15.2742 22.2412V22.9725C15.2749 23.0681 15.3134 23.1596 15.3813 23.2269C15.4493 23.2942 15.5411 23.3319 15.6367 23.3316H16.3626C16.4582 23.3319 16.55 23.2942 16.618 23.2269C16.6859 23.1596 16.7244 23.0681 16.7251 22.9725V22.25C17.7955 22.2233 18.6617 21.3258 18.6663 20.2266C18.6667 19.3308 18.0771 18.5321 17.2338 18.2808Z" fill="#474747"/>
</svg>
