<svg width="32" height="32" viewBox="0 0 32 32" fill="none" xmlns="http://www.w3.org/2000/svg">
<path d="M12.0001 17.3333C15.3126 17.3333 18.0001 14.6458 18.0001 11.3333C18.0001 8.02081 15.3126 5.33331 12.0001 5.33331C8.68758 5.33331 6.00008 8.02081 6.00008 11.3333C6.00008 14.6458 8.68758 17.3333 12.0001 17.3333ZM12.0001 7.33331C14.2042 7.33331 16.0001 9.12915 16.0001 11.3333C16.0001 13.5375 14.2042 15.3333 12.0001 15.3333C9.79591 15.3333 8.00008 13.5375 8.00008 11.3333C8.00008 9.12915 9.79591 7.33331 12.0001 7.33331ZM15.7334 18C14.5376 18 13.9626 18.6666 12.0001 18.6666C10.0376 18.6666 9.46675 18 8.26675 18C5.17508 18 2.66675 20.5083 2.66675 23.6V24.6666C2.66675 25.7708 3.56258 26.6666 4.66675 26.6666H19.3334C20.4376 26.6666 21.3334 25.7708 21.3334 24.6666V23.6C21.3334 20.5083 18.8251 18 15.7334 18ZM19.3334 24.6666H4.66675V23.6C4.66675 21.6166 6.28341 20 8.26675 20C8.87508 20 9.86258 20.6666 12.0001 20.6666C14.1542 20.6666 15.1209 20 15.7334 20C17.7167 20 19.3334 21.6166 19.3334 23.6V24.6666ZM28.6667 14.3333H25.6667V11.3333C25.6667 10.9666 25.3667 10.6666 25.0001 10.6666H24.3334C23.9667 10.6666 23.6667 10.9666 23.6667 11.3333V14.3333H20.6667C20.3001 14.3333 20.0001 14.6333 20.0001 15V15.6666C20.0001 16.0333 20.3001 16.3333 20.6667 16.3333H23.6667V19.3333C23.6667 19.7 23.9667 20 24.3334 20H25.0001C25.3667 20 25.6667 19.7 25.6667 19.3333V16.3333H28.6667C29.0334 16.3333 29.3334 16.0333 29.3334 15.6666V15C29.3334 14.6333 29.0334 14.3333 28.6667 14.3333Z" fill="#474747"/>
</svg>
