<svg width="32" height="32" viewBox="0 0 32 32" fill="none" xmlns="http://www.w3.org/2000/svg">
<path d="M23.9999 10V9.33335C23.9999 7.86044 22.8062 6.66669 21.3333 6.66669H9.33325C7.12409 6.66669 5.33325 8.45752 5.33325 10.6667V21.3334C5.33325 23.5425 7.12409 25.3334 9.33325 25.3334H23.9999C25.4728 25.3334 26.6666 24.1396 26.6666 22.6667V12.6667C26.6666 11.1938 25.4728 10 23.9999 10ZM24.6666 22.6667C24.6666 23.0342 24.3674 23.3334 23.9999 23.3334H9.33325C8.23034 23.3334 7.33325 22.4363 7.33325 21.3334V10.6667C7.33325 9.56377 8.23034 8.66669 9.33325 8.66669H21.3333C21.7008 8.66669 21.9999 8.96585 21.9999 9.33335V10.6667H9.99992C9.63159 10.6667 9.33325 10.965 9.33325 11.3334C9.33325 11.7017 9.63159 12 9.99992 12H23.9999C24.3674 12 24.6666 12.2992 24.6666 12.6667V22.6667ZM21.3333 16C20.597 16 19.9999 16.5971 19.9999 17.3334C19.9999 18.0696 20.597 18.6667 21.3333 18.6667C22.0695 18.6667 22.6666 18.0696 22.6666 17.3334C22.6666 16.5971 22.0695 16 21.3333 16Z" fill="#474747"/>
</svg>
