<svg width="32" height="32" viewBox="0 0 32 32" fill="none" xmlns="http://www.w3.org/2000/svg">
<path d="M24.6668 16V7.33337H16.0002C11.2137 7.33337 7.3335 11.2136 7.3335 16C7.3335 20.7865 11.2137 24.6667 16.0002 24.6667V26.6667C10.1091 26.6667 5.3335 21.8911 5.3335 16C5.3335 10.109 10.1091 5.33337 16.0002 5.33337H26.6668V16C26.6668 21.8911 21.8912 26.6667 16.0002 26.6667V24.6667C20.7866 24.6667 24.6668 20.7865 24.6668 16Z" fill="#474747"/>
<path d="M15.9689 23.5521C11.5606 23.5521 9.13558 19.75 9.13558 17.125H22.8647C22.8647 19.75 20.3772 23.5521 15.9689 23.5521Z" fill="#474747"/>
<path d="M22.8647 17.125C22.8647 19.75 20.3772 23.5521 15.9689 23.5521V21.5521C17.5509 21.5521 18.7585 20.8849 19.5965 19.9714C19.8455 19.7 20.0516 19.412 20.2241 19.125H11.7528C12.507 20.4001 13.9378 21.5521 15.9689 21.5521V23.5521C11.5606 23.5521 9.13558 19.75 9.13558 17.125H22.8647Z" fill="#474747"/>
<path d="M12.4627 14.0625C12.4627 14.7253 11.9254 15.2625 11.2627 15.2625C10.5999 15.2625 10.0627 14.7253 10.0627 14.0625C10.0627 13.3998 10.5999 12.8625 11.2627 12.8625C11.9254 12.8625 12.4627 13.3998 12.4627 14.0625Z" fill="#474747"/>
<path d="M22.171 14.0625C22.171 14.7253 21.6337 15.2625 20.971 15.2625C20.3083 15.2625 19.771 14.7253 19.771 14.0625C19.771 13.3998 20.3083 12.8625 20.971 12.8625C21.6337 12.8625 22.171 13.3998 22.171 14.0625Z" fill="#474747"/>
</svg>
