<svg width="32" height="32" viewBox="0 0 32 32" fill="none" xmlns="http://www.w3.org/2000/svg">
<path d="M18.3326 13.4996V14.4996C18.3326 14.7746 18.1076 14.9996 17.8326 14.9996H14.9994V17.8328C14.9994 18.1077 14.7745 18.3327 14.4995 18.3327H13.4995C13.2245 18.3327 12.9995 18.1077 12.9995 17.8328V14.9996H10.1663C9.89136 14.9996 9.66637 14.7746 9.66637 14.4996V13.4996C9.66637 13.2247 9.89136 12.9997 10.1663 12.9997H12.9995V10.1665C12.9995 9.89148 13.2245 9.6665 13.4995 9.6665H14.4995C14.7745 9.6665 14.9994 9.89148 14.9994 10.1665V12.9997H17.8326C18.1076 12.9997 18.3326 13.2247 18.3326 13.4996ZM26.5197 25.5782L25.5781 26.5198C25.3823 26.7157 25.0656 26.7157 24.8698 26.5198L19.8117 21.4618C19.7159 21.3659 19.6659 21.2409 19.6659 21.1076V20.5576C18.1451 21.8701 16.1661 22.6659 13.9995 22.6659C9.21223 22.6659 5.33325 18.7869 5.33325 13.9996C5.33325 9.21235 9.21223 5.33337 13.9995 5.33337C18.7868 5.33337 22.6657 9.21235 22.6657 13.9996C22.6657 16.1662 21.8699 18.1452 20.5575 19.666H21.1075C21.2408 19.666 21.3658 19.7202 21.4616 19.8118L26.5197 24.8699C26.7155 25.0657 26.7155 25.3824 26.5197 25.5782ZM20.6658 13.9996C20.6658 10.3165 17.6826 7.33328 13.9995 7.33328C10.3163 7.33328 7.33315 10.3165 7.33315 13.9996C7.33315 17.6828 10.3163 20.666 13.9995 20.666C17.6826 20.666 20.6658 17.6828 20.6658 13.9996Z" fill="#474747"/>
</svg>
