<svg width="32" height="32" viewBox="0 0 32 32" fill="none" xmlns="http://www.w3.org/2000/svg">
<path d="M26.6666 13.842C24.5695 13.847 22.5239 13.2032 20.8187 12.0017V20.3813C20.8181 21.9333 20.3362 23.4482 19.4374 24.7233C18.5386 25.9984 17.2657 26.973 15.7889 27.5168C14.3122 28.0606 12.702 28.1477 11.1737 27.7664C9.64529 27.3851 8.27162 26.5536 7.23632 25.383C6.20102 24.2125 5.55343 22.7587 5.38016 21.2161C5.20688 19.6735 5.51618 18.1156 6.26668 16.7507C7.01719 15.3858 8.17313 14.279 9.57994 13.5782C10.9868 12.8775 12.5774 12.6162 14.1391 12.8293V17.0439C13.4245 16.8227 12.6571 16.8293 11.9465 17.063C11.2359 17.2966 10.6185 17.7453 10.1824 18.345C9.74635 18.9446 9.51393 19.6646 9.51834 20.402C9.52276 21.1395 9.76378 21.8567 10.207 22.4512C10.6502 23.0458 11.2729 23.4873 11.9863 23.7127C12.6996 23.9381 13.467 23.9359 14.179 23.7063C14.891 23.4768 15.511 23.0316 15.9507 22.4345C16.3903 21.8374 16.627 21.1188 16.627 20.3813V4H20.8187C20.8158 4.34844 20.8454 4.6964 20.9073 5.03948C21.053 5.80537 21.3558 6.53396 21.7973 7.18068C22.2389 7.8274 22.8098 8.37867 23.4752 8.80075C24.4218 9.41688 25.5317 9.74528 26.6666 9.74505V13.842Z" fill="#474747"/>
</svg>
