<svg width="244" height="28" viewBox="0 0 244 28" fill="none" xmlns="http://www.w3.org/2000/svg">
<path d="M57.6751 11.9525L54.8432 17.0978H60.8394V20.9667C59.3371 22.0437 57.3959 22.5888 55.2288 22.5888C50.4292 22.5888 47.0256 18.9459 47.0256 14C47.0256 9.32003 50.4691 5.49097 54.8034 5.49097C57.1699 5.49097 58.8053 6.06267 60.3608 7.09971L63.1927 1.96771C61.0123 0.678062 58.4995 0 54.9895 0C46.7863 0 40.7901 6.30199 40.7901 14C40.7901 22.0836 46.6001 28 55.0294 28C59.9752 28 63.8176 26.0589 66.5963 23.7056V11.9525H57.6751Z" fill="white"/>
<path d="M72.3266 0.465332H78.2829V22.1367H91.791V27.5479H72.3266V0.465332Z" fill="white"/>
<path d="M93.5194 14C93.5194 6.30199 99.5953 0 107.958 0C116.321 0 122.317 6.23551 122.317 14C122.317 21.698 116.241 28 107.892 28C99.5156 28.0133 93.5194 21.7778 93.5194 14ZM116.082 14C116.082 9.35992 112.678 5.49097 107.878 5.49097C103.079 5.49097 99.7549 9.28015 99.7549 14C99.7549 18.6401 103.158 22.509 107.958 22.509C112.758 22.5223 116.082 18.7198 116.082 14Z" fill="white"/>
<path d="M127.609 0.465332H138.67C145.132 0.465332 149.041 4.29439 149.041 9.90502C149.041 16.1671 144.161 19.4245 138.085 19.4245H133.565V27.5479H127.609V0.465332ZM138.285 14.1196C141.263 14.1196 143.005 12.3381 143.005 9.94491C143.005 7.27255 141.143 5.84994 138.165 5.84994H133.565V14.1329H138.285V14.1196Z" fill="white"/>
<path d="M153.455 0.465332H159.411V11.1814H170.393V0.465332H176.349V27.5479H170.393V16.6723H159.411V27.5479H153.455V0.465332Z" fill="white"/>
<path d="M183.13 0.465332H189.086V27.5479H183.13V0.465332Z" fill="white"/>
<path d="M194.67 14C194.67 6.30199 200.48 0 208.79 0C213.895 0 216.754 1.94112 219.28 4.41405L215.717 8.50902C213.63 6.60778 211.848 5.49097 208.75 5.49097C204.19 5.49097 200.893 9.28015 200.893 14C200.893 18.6401 204.11 22.509 208.75 22.509C211.848 22.509 213.736 21.2725 215.863 19.3314L219.652 23.3998C216.86 26.378 213.776 28 208.551 28C200.587 28.0133 194.67 21.8575 194.67 14Z" fill="white"/>
<path d="M222.564 23.5993L226.087 19.3847C228.52 21.3923 231.073 22.6686 234.171 22.6686C236.604 22.6686 238.08 21.698 238.08 20.0361C238.08 18.5338 237.149 17.7493 232.629 16.5926C227.177 15.1966 223.654 13.6943 223.654 8.22987C223.654 3.31059 227.603 0.0665283 233.134 0.0665283C237.083 0.0665283 240.446 1.30299 243.198 3.51002L240.101 8.00384C237.707 6.34193 235.341 5.33148 233.054 5.33148C230.767 5.33148 229.571 6.38181 229.571 7.76453C229.571 9.5461 230.727 10.1311 235.407 11.3277C240.898 12.7636 243.996 14.7313 243.996 19.5309C243.996 24.9022 239.901 27.9203 234.051 27.9203C229.956 27.9336 225.808 26.4977 222.564 23.5993Z" fill="white"/>
<path d="M10.7027 0.0133057H21.4587L5.38461 27.8803L0 18.5603L10.7027 0.0133057Z" fill="white"/>
<path d="M16.1007 9.30664H26.8566L21.4853 18.6267L16.1007 9.30664Z" fill="#DBDBDD"/>
<path d="M26.8566 9.30664L21.4853 18.6267L26.83 27.8802L32.2013 18.5602L26.8566 9.30664Z" fill="#10B798"/>
<path d="M26.83 27.8804L21.4853 18.6268L16.1273 27.8538L26.83 27.8804Z" fill="#028C74"/>
</svg>
