<svg width="142" height="72" viewBox="0 0 142 72" fill="none" xmlns="http://www.w3.org/2000/svg">
<path fill-rule="evenodd" clip-rule="evenodd" d="M58.6671 3.43966C64.583 3.52617 72.5413 5.49657 77.1723 9.31037C89.5777 3.24826 116.516 6.63587 129.303 18.8623C136.029 24.2278 140.183 31.9996 137.485 42.3778C134.186 55.0663 116.853 61.0959 105.232 62.2356C96.793 63.063 88.2095 62.3198 80.3211 59.0927C67.6269 67.642 50.5724 69.8631 35.56 67.9017C22.6179 66.211 6.30708 57.8322 3.73357 41.7254C1.16007 25.6187 15.9106 12.2239 32.4691 14.9882C39.0631 5.98766 49.1367 3.29868 58.6671 3.43966Z" fill="#262933"/>
<path d="M58.7174 0.00552696L59.3203 0.0197823C64.969 0.208274 72.3424 1.9004 77.6125 5.37813C84.6376 2.66622 94.3238 2.31242 103.65 3.83855C113.87 5.51119 124.489 9.575 131.562 16.2726C135.227 19.2227 138.331 22.9359 140.123 27.4807C141.949 32.112 142.328 37.3966 140.809 43.2421C138.811 50.9266 132.674 56.2334 126.069 59.6819C119.412 63.1573 111.732 65.0495 105.567 65.6541C97.3032 66.4644 88.7565 65.8529 80.7151 62.9254C67.3202 71.2548 50.0969 73.2651 35.1146 71.3076C28.1611 70.3992 20.2938 67.7039 13.755 63.0101C7.18065 58.2907 1.80552 51.4293 0.341568 42.2669C-2.53588 24.2561 13.2074 9.62207 30.9739 11.3319C38.4455 2.41955 49.1251 -0.136292 58.7174 0.00552696ZM58.6671 3.4394C49.1367 3.29842 39.0631 5.98751 32.469 14.9879C15.9106 12.2236 1.16014 25.6185 3.73351 41.7252C6.30701 57.8319 22.6178 66.2107 35.5599 67.9014C50.5723 69.8629 67.6269 67.6417 80.321 59.0924C88.2094 62.3195 96.793 63.0627 105.232 62.2353C116.853 61.0956 134.186 55.066 137.485 42.3776C140.183 31.9994 136.029 24.2275 129.303 18.862C116.516 6.63569 89.5777 3.24809 77.1722 9.3101C72.5413 5.49634 64.5829 3.52592 58.6671 3.4394Z" fill="white"/>
<path d="M34.0449 19.667C41.0598 11.8118 49.5516 7.13648 61.1972 8.06729C66.6003 8.49983 71.8854 10.6984 76.614 13.7845C76.6923 13.7473 95.6412 4.77177 121.834 18.8754C138.09 27.6296 134.571 43.5056 118.965 50.3831C106.248 56.1378 90.8787 56.1328 78.0287 51.0666C62.415 61.9797 32.439 64.5199 16.2148 53.8682C-2.83296 39.9121 12.2544 13.8918 34.0449 19.667Z" fill="white"/>
<path d="M117.735 21.315C115.605 20.5496 114.737 19.8105 114.036 22.3173C112.841 26.5901 109.478 41.4921 109.108 43.9614C109.018 44.5575 108.847 45.4772 109.371 45.8909C109.912 46.3159 112.55 46.7409 113.033 46.3535C113.561 45.9304 114.818 40.3017 115.212 39.0511C115.282 38.8329 115.417 38.3553 115.565 37.855C115.64 37.5993 116.005 37.6143 116.063 37.8738C116.103 38.0544 117.234 44.2491 118.543 44.1908C119.112 44.1645 121.917 43.9877 122.297 43.6492C122.599 43.3784 122.576 42.8951 122.537 42.5321C122.443 41.6614 120.827 37.304 120.933 36.9749C122.678 36.2678 124.352 35.5419 125.434 33.9001C129.437 27.82 122.762 23.1204 117.735 21.315ZM120.63 31.8446C119.877 32.6626 117.93 33.0594 116.856 32.2696L118.348 26.2685C120.983 26.6578 122.702 29.5916 120.63 31.8446Z" fill="#262933"/>
<path d="M108.051 30.2196C108.648 30.3625 108.87 30.97 108.864 31.5473C108.859 32.0269 108.357 34.3212 108.115 34.6447C107.448 35.538 105.674 35.2785 104.363 35.0923C103.925 35.0302 103.523 35.348 103.484 35.79L103.189 38.9908C103.144 39.5117 103.523 39.6923 103.961 39.7318C104.733 39.7186 107.311 39.4064 107.711 39.8973C108.291 40.6044 107.818 44.2133 107.427 45.0746C107.153 45.6802 106.608 45.8569 105.99 45.9284C104.767 46.0713 100.273 46.0901 99.1534 45.8513C98.2666 45.6632 97.8176 45.1649 97.7481 44.2603C97.688 43.4798 97.7688 41.9847 97.8082 41.1309C98.0675 35.4985 98.8321 29.1006 99.856 23.5565C100.091 22.2834 100.658 18.966 101.167 17.9636C101.573 17.1662 102.394 17.2941 103.161 17.3919C104.603 17.5762 109.916 18.7741 111.094 19.3477C111.509 19.5508 111.797 19.9176 111.895 20.3689C112.077 21.2208 111.615 24.6849 110.658 24.888C109.875 25.0535 107.365 24.0493 106.106 23.8687C105.736 23.8161 105.385 24.053 105.291 24.416C104.72 26.6201 104.35 27.7955 104.241 29.3376C104.226 29.5388 104.269 29.8867 104.566 29.913C105.584 30.0033 107.13 29.9996 108.051 30.2196Z" fill="#262933"/>
<path d="M98.714 17.0497C98.9601 17.5368 98.8643 18.0276 98.7158 18.5278C98.0696 20.7169 96.2323 23.9177 95.2723 26.1613C94.4964 27.9761 93.7374 29.8022 93.0066 31.6358L97.7671 47.4743C97.8874 47.9294 97.9343 48.5124 97.7615 48.9525C97.4196 49.8232 93.5232 50.3216 93.1043 49.0823C91.7986 45.3869 90.8085 41.588 89.6024 37.8625C89.3845 37.1911 89.1384 36.2997 88.7589 35.7242L88.4865 47.9708C88.0619 49.0616 84.7029 48.8021 84.0942 48.031C83.726 47.5646 83.6264 46.1748 83.5738 45.5429C83.2976 42.3064 83.4066 38.7953 83.2356 35.5136C82.9951 30.9061 82.5292 26.2948 82.486 21.6741C82.4766 20.6341 82.2418 18.4507 83.0515 17.8076C83.7842 17.2246 87.3011 16.918 87.8214 17.8471C88.3663 21.0516 87.9962 24.3333 88.308 27.5605C88.3343 27.835 88.169 27.8388 88.6105 27.8407L92.0973 17.595C92.257 17.0967 92.6553 16.4723 93.1757 16.3125C93.8482 16.1131 98.3007 16.5645 98.714 17.0497Z" fill="#262933"/>
<path d="M76.3747 26.2684C76.0441 26.3568 75.8581 26.7931 75.751 27.0808C75.0841 28.873 75.2024 31.1975 75.3001 33.0988C75.4542 36.0814 75.8581 41.7308 77.0323 41.7271C77.3479 41.8042 77.4869 41.6349 77.5639 41.3547C78.2384 38.893 76.2226 36.9089 80.0419 36.9729C82.0652 37.0067 82.1197 37.1647 82.2568 39.1092C82.4203 41.4262 82.0596 45.2006 80.0212 46.675C77.8345 48.2603 74.9507 47.3388 73.4572 45.2683C70.2991 40.8883 69.3015 26.5542 72.4164 22.1818C74.8023 18.8343 79.2435 20.4065 80.6318 23.848C81.062 24.9143 81.6876 28.0061 81.0676 29.0235C80.6769 29.6648 77.7762 30.0089 77.2727 29.5369C76.6302 29.0047 77.2333 26.1405 76.3747 26.2684Z" fill="#262933"/>
<path d="M66.7725 26.6408C67.3718 26.6183 68.4934 26.6013 68.8578 27.1204C69.3143 27.773 69.32 34.2348 69.4026 35.5907C69.6469 39.6491 69.9681 43.7131 70.3194 47.764C70.4772 49.6916 65.4894 50.4194 65.4687 48.2849C65.4894 42.0224 64.3453 35.2089 64.6008 29.0029C64.6778 27.1542 64.7868 26.7161 66.7725 26.6408Z" fill="#262933"/>
<path d="M62.9646 23.1052C62.9139 23.675 63.9283 44.5687 63.825 49.0464C63.795 50.3516 63.8307 50.8029 62.5193 51.2938C59.7107 52.3413 58.8691 51.6755 58.7 48.8903C58.4314 44.4671 58.6775 39.8013 58.5253 35.3367C58.3957 31.5002 58.112 27.6506 57.8471 23.8235C57.3042 23.28 48.311 25.4973 46.9452 25.5255C45.5061 25.2171 45.0158 21.0553 45.6789 19.9984C46.2407 19.1032 49.4213 17.862 50.4996 17.4934C54.5951 16.0923 59.5022 15.5657 63.8269 15.7858C65.0405 15.8478 69.0534 16.1581 69.8368 16.9085C70.7009 17.736 70.1712 22.4808 69.2149 23.1352C68.5762 23.5734 66.0813 23.1503 65.0631 23.1315C64.7719 23.1258 62.9777 22.9622 62.9646 23.1052Z" fill="#262933"/>
<path d="M56.4232 36.0326C56.0062 36.373 53.2088 36.2677 52.7241 36.0533C52.2038 35.8238 52.277 34.0222 52.1624 33.4449C51.9727 32.4745 51.6082 31.7673 51.1442 33.127C49.7333 37.2682 53.5282 38.4059 55.4276 41.1704C57.774 44.5894 57.774 50.8105 53.9415 53.165C50.9451 55.0062 47.214 53.0936 45.944 50.0583C45.4312 48.8321 45.031 46.1541 45.5119 44.9392C45.8219 44.1569 49.1678 44.1098 49.8272 44.4878C50.6445 44.9561 50.5487 48.4541 51.4354 48.5331C52.247 48.6064 52.4048 46.4136 52.3766 45.8852C52.2207 43.0962 48.0989 40.8827 46.9604 37.8116C45.4875 33.8379 46.7988 26.3643 52.309 27.1617C56.2222 27.7315 57.8604 32.7678 56.4232 36.0326Z" fill="#262933"/>
<path d="M39.4191 47.3031C40.5614 47.6303 40.8075 34.6616 41.6153 28.3596C41.9628 27.4663 43.6367 27.6732 44.3845 27.8161C44.9236 27.9196 45.645 28.0474 45.692 28.7188C45.0457 34.3268 45.0176 40.2357 44.2398 45.8061C43.7457 49.3492 42.4738 54.7899 37.7584 53.8533C34.3599 53.1782 33.8395 47.4667 33.7963 44.7135C33.7155 39.5832 33.8639 35.3386 34.0612 30.5825C34.1156 29.2755 34.0818 27.0545 34.2659 25.8321C34.5083 24.2241 36.7063 24.3464 37.9876 24.5683C39.8832 24.8974 39.6972 25.7305 39.6577 27.4757C39.5375 32.7828 38.6789 38.2855 38.739 43.6415C38.7447 43.9048 38.8311 47.6661 39.4191 47.3031Z" fill="#262933"/>
<path d="M27.3259 38.374C27.0816 38.3402 26.984 38.9401 26.9483 39.1131C26.2569 42.4531 26.0296 46.0357 25.3476 49.3136C25.1485 50.267 24.7803 50.6714 23.7808 50.7447C21.1319 50.9422 21.1977 48.4165 20.8802 46.4814C20.4856 44.0798 20.3128 41.6256 19.8939 39.2278L19.304 42.0976C18.947 43.5438 19.2551 47.7545 18.4454 48.7663C17.9006 49.4471 15.2667 49.259 14.7219 48.5764C14.4645 48.2548 14.3706 47.4442 14.3668 47.0286C14.333 44.1475 14.7482 33.5408 14.8947 31.3461C15.0751 28.6493 15.3024 27.4815 18.359 27.3912C19.8863 27.3461 20.5495 27.3555 20.9779 28.8524C21.7913 31.6884 22.2478 34.8478 23.0782 37.7101L23.5103 38.0374L26.1329 25.4767C26.689 24.7771 30.0725 24.495 30.9592 24.6135C31.7144 24.7151 32.1672 25.0498 32.2574 25.8416C32.1634 34.5075 32.3231 43.1696 32.9788 51.8035C32.6294 53.1369 28.609 53.0334 28.0492 51.5402C27.7749 50.8087 27.758 48.5895 27.7054 47.6737C27.5269 44.5819 27.5363 41.4658 27.3259 38.374Z" fill="#262933"/>
</svg>
