<svg width="120" height="48" viewBox="0 0 120 48" fill="none" xmlns="http://www.w3.org/2000/svg">
<path d="M22.7562 14.4877H33.1045V6.19881H20.6967V0H16.4656C7.39167 0 0 7.38147 0 16.4656C0 20.921 1.74342 25.0807 4.94478 28.2311L5.59728 28.8326L7.05522 30.2906L1.23364 36.1224C0.448598 36.9074 0.0203908 37.9473 0.0203908 39.0484C0.0203908 40.1597 0.448598 41.1997 1.23364 41.9745L7.25913 48L11.6432 43.616L14.3755 46.3483C15.9966 47.9592 18.6168 47.9592 20.2379 46.3483L30.2498 36.3364L31.8709 34.695C33.4817 33.0739 33.4817 30.4537 31.8709 28.8326L29.8929 26.8547L33.0943 26.8955V18.5862H22.746C21.6143 18.5862 20.6967 17.6686 20.6967 16.537C20.6967 15.4155 21.6245 14.4877 22.7562 14.4877ZM7.25913 45.0535L2.71198 40.5064C2.32455 40.1189 2.11045 39.599 2.11045 39.0586C2.11045 38.5081 2.32455 37.9983 2.71198 37.6109C3.09941 37.2234 3.61937 37.0093 4.15973 37.0093C4.71028 37.0093 5.22005 37.2234 5.60748 37.6109L10.1546 42.158L7.25913 45.0535ZM15.8641 44.8904L7.09601 36.1224C6.57604 35.6024 5.94393 35.2455 5.26083 35.0518L8.55395 31.7587L18.7698 41.9745C19.5752 42.7799 19.5752 44.0748 18.7698 44.8802C17.9643 45.6856 16.6593 45.6856 15.8641 44.8904ZM30.4027 30.3212C31.2082 31.1266 31.2082 32.4214 30.3925 33.237L28.7715 34.8785L21.2982 42.3517C21.1147 41.6788 20.7681 41.0365 20.2379 40.5064L7.06542 27.3237L6.40272 26.712C3.62957 23.9898 2.10025 20.35 2.10025 16.4656C2.10025 8.54375 8.54375 2.10025 16.4656 2.10025H18.5964V6.209H12.3976V7.25913C12.3976 8.78844 11.9694 9.98131 11.113 10.8173C9.62447 12.2753 7.27952 12.2447 7.26933 12.2447L6.19881 12.2141V13.2846C6.19881 20.6967 12.2243 26.7222 19.6364 26.7324L26.8955 26.8241L30.4027 30.3212ZM22.7562 20.6865H31.0042V24.785L19.667 24.6321H19.6568C13.723 24.6321 8.83942 20.0544 8.35004 14.243C9.47154 14.0901 11.2251 13.6313 12.5811 12.3059C13.6415 11.2761 14.2634 9.92013 14.4469 8.27867H31.0042V12.3874H22.7562C20.4724 12.3874 18.6066 14.243 18.6066 16.537C18.6066 18.8309 20.4622 20.6865 22.7562 20.6865Z" fill="#D42941"/>
<path d="M43.0654 32.8597C43.6669 32.8597 44.1665 33.0636 44.5641 33.4612C44.9618 33.8588 45.1657 34.3584 45.1657 34.9497C45.1657 35.5411 44.9618 36.0304 44.5641 36.4383C44.1665 36.8461 43.6669 37.0398 43.0654 37.0398H41.5667V39.3644H40.7001V32.8495H43.0654V32.8597ZM43.0654 36.2445C43.4222 36.2445 43.7179 36.1222 43.9626 35.8775C44.1971 35.6328 44.3194 35.327 44.3194 34.9599C44.3194 34.5929 44.1971 34.2769 43.9626 34.0424C43.7281 33.7977 43.4324 33.6753 43.0654 33.6753H41.5667V36.2445H43.0654Z" fill="white"/>
<path d="M55.6261 39.3746L54.1682 36.8767H52.6287V39.3746H51.7621V32.8597H54.3721C54.9329 32.8597 55.412 33.0534 55.8097 33.4511C56.2073 33.8487 56.401 34.3177 56.401 34.8784C56.401 35.2964 56.2787 35.6839 56.0238 36.0305C55.7689 36.3771 55.4528 36.6218 55.0552 36.7646L56.5947 39.3644H55.6261V39.3746ZM52.6389 33.6754V36.1019H54.3823C54.7086 36.1019 54.9838 35.9795 55.2081 35.745C55.4324 35.5105 55.5446 35.2149 55.5446 34.8886C55.5446 34.5522 55.4324 34.2667 55.2081 34.0322C54.9838 33.7977 54.7086 33.6754 54.3823 33.6754H52.6389Z" fill="white"/>
<path d="M63.0382 32.8597H63.9048V39.3746H63.0382V32.8597Z" fill="white"/>
<path d="M74.9261 32.8597H75.7927V39.3746H75.0994L71.7553 34.5114V39.3746H70.8887V32.8597H71.5616L74.9363 37.7535V32.8597H74.9261Z" fill="white"/>
<path d="M86.9363 32.8597V33.6754H85.0094V39.3644H84.1529V33.6754H82.2362V32.8597H86.9363Z" fill="white"/>
<path d="M93.3696 32.8597H94.2362V39.3746H93.3696V32.8597Z" fill="white"/>
<path d="M105.268 32.8597H106.134V39.3746H105.441L102.097 34.5114V39.3746H101.23V32.8597H101.903L105.278 37.7535V32.8597H105.268Z" fill="white"/>
<path d="M119.388 36.1529V36.5403C119.388 37.3865 119.093 38.1002 118.511 38.661C117.93 39.2217 117.155 39.5072 116.197 39.5072C115.208 39.5072 114.382 39.1809 113.74 38.5284C113.087 37.8759 112.771 37.0807 112.771 36.1325C112.771 35.1945 113.098 34.3891 113.74 33.7366C114.392 33.0841 115.198 32.7578 116.187 32.7578C116.788 32.7578 117.339 32.9005 117.839 33.186C118.338 33.4715 118.726 33.8589 119.001 34.3279L118.257 34.7663C118.073 34.4095 117.788 34.1342 117.41 33.9201C117.033 33.706 116.625 33.604 116.166 33.604C115.422 33.604 114.811 33.8487 114.331 34.3381C113.852 34.8275 113.618 35.429 113.618 36.1427C113.618 36.8666 113.862 37.4681 114.342 37.9473C114.821 38.4265 115.443 38.6711 116.207 38.6711C116.86 38.6711 117.39 38.508 117.788 38.192C118.195 37.8759 118.44 37.4579 118.522 36.9481H116.126V36.1631H119.388V36.1529Z" fill="white"/>
<path d="M62.3245 6.21912C61.0501 6.21912 60.0204 7.24885 60.0204 8.52327C60.0204 9.7977 61.0501 10.8274 62.3245 10.8274C63.599 10.8274 64.6287 9.7977 64.6287 8.52327C64.6287 7.24885 63.599 6.21912 62.3245 6.21912Z" fill="#D42941"/>
<path d="M91.3611 13.3968C90.26 13.8556 89.3424 14.6611 88.7409 15.6806C88.2617 16.4962 87.9864 17.4342 87.9864 18.4435C87.9864 19.4529 88.2617 20.3909 88.7409 21.2065C89.1385 21.8896 89.689 22.4809 90.3313 22.9295L89.8827 23.9083L89.689 24.3161C89.689 24.3161 89.689 24.3263 89.6788 24.3263C89.6482 24.3773 89.6279 24.4385 89.6075 24.4894C89.4443 24.8769 89.3628 25.2949 89.3628 25.7333C89.3628 25.8454 89.3628 25.9474 89.3832 26.0595C89.4953 27.13 90.1172 28.0476 91.0042 28.5472C91.1164 28.6186 91.2387 28.6695 91.3611 28.7205C91.7485 28.8837 92.1665 28.9754 92.6049 28.9754H97.0909H102.107C101.862 28.0272 101.261 27.2116 100.466 26.6916C99.9762 26.3654 99.3951 26.1513 98.7833 26.0901C98.6406 26.0697 98.4877 26.0595 98.3347 26.0595H93.2064C92.6967 26.0595 92.2787 25.6415 92.2787 25.1318C92.2787 25.04 92.2889 24.938 92.3194 24.8565C92.3296 24.8259 92.3398 24.7953 92.35 24.7749L92.6559 23.9083L92.6763 23.8573C92.921 23.8981 93.1759 23.9083 93.4409 23.9083H95.011C95.1028 23.9083 95.1945 23.9083 95.2863 23.8981C95.9286 23.8675 96.5403 23.7248 97.1011 23.4903C97.7332 23.2252 98.3041 22.8582 98.7833 22.3892C99.1504 22.0425 99.4664 21.6449 99.7111 21.2065C100.19 20.3909 100.466 19.4529 100.466 18.4435C100.466 17.4342 100.19 16.4962 99.7111 15.6806H102.24V12.989H93.4511C92.7069 12.989 92.0034 13.1317 91.3611 13.3968ZM97.1011 17.3628C97.1215 17.475 97.1317 17.5769 97.1317 17.6891V19.1878C97.1317 19.3 97.1215 19.4121 97.1011 19.5141C96.9482 20.4622 96.1121 21.1963 95.1232 21.1963H93.3798C92.6253 21.1963 91.9728 20.7783 91.6262 20.1666C91.463 19.8811 91.3713 19.5447 91.3713 19.1878V17.6891C91.3713 16.5778 92.2685 15.6806 93.3798 15.6806H95.1232C96.1121 15.6806 96.9482 16.4045 97.1011 17.3628Z" fill="white"/>
<path d="M54.5148 21.9202C54.1376 19.5752 52.4248 17.6891 50.1818 17.057L49.5701 16.8633L45.5939 15.65C45.5735 15.6398 45.5429 15.6296 45.5225 15.6296C44.4316 15.2728 43.6465 14.2532 43.6465 13.0502C43.6465 11.5514 44.8598 10.3382 46.3585 10.3382H50.5386L50.9872 13.4784H53.2302V10.3382V7.198H46.2056C45.288 7.198 44.4214 7.40191 43.6363 7.77914C42.4843 8.3297 41.5463 9.2269 40.9448 10.3484C40.9346 10.3688 40.9244 10.3892 40.9142 10.4096C40.486 11.2354 40.2413 12.1734 40.2413 13.1623C40.2413 13.4682 40.2617 13.7638 40.3126 14.0493C40.4044 14.712 40.6185 15.3339 40.9142 15.9151C41.5157 17.057 42.4741 17.9847 43.6363 18.5455C43.7791 18.6169 43.932 18.678 44.0849 18.7392C44.1971 18.78 44.3092 18.8208 44.4214 18.8616L45.6856 19.249L46.124 19.3815L48.2753 20.0442L48.9176 20.2379C49.0297 20.2685 49.1317 20.2991 49.2336 20.3297H49.2438C50.3755 20.7477 51.1708 21.8284 51.1708 23.1028C51.1708 24.7341 49.8453 26.0595 48.2141 26.0595H43.4936L43.045 22.9193H40.802V26.0595V28.9754H48.4996C51.8538 28.9754 54.576 26.2532 54.576 22.8989C54.5964 22.5625 54.5658 22.2362 54.5148 21.9202Z" fill="white"/>
<path d="M64.0272 28.9346H66.2294V26.7222L64.0272 26.4979V13.4784H60.6219H58.3789V15.7214L60.6219 15.9457V26.4979H60.5913L58.3789 26.7222V28.9346H60.6219H64.0272Z" fill="white"/>
<path d="M117.145 26.6916V17.3118C117.145 16.8326 117.064 16.3738 116.921 15.9456C116.452 14.5285 115.259 13.4274 113.771 13.0909C113.465 13.0195 113.138 12.9788 112.812 12.9788H110.834H110.039H105.471V13.7536V15.4664V15.6602H105.492L105.471 15.6703V18.362H107.714L107.939 15.6703L107.929 15.6602H112.2C113.047 15.6602 113.73 16.3229 113.781 17.1589V17.1895C113.781 17.2099 113.781 17.2201 113.781 17.2404C113.781 17.2506 113.781 17.2608 113.781 17.271V17.6585C113.781 17.6687 113.781 17.6789 113.781 17.6891V19.2286L113.353 19.2693H113.332L112.7 19.3203L110.671 19.4936L109.172 19.6262L108.357 19.6975C108.316 19.6975 108.285 19.7077 108.245 19.7077C108.143 19.7179 108.041 19.7383 107.949 19.7485C106.95 19.932 106.083 20.4724 105.482 21.2269C105.186 21.5939 104.952 22.0119 104.799 22.4605C104.656 22.8785 104.574 23.3271 104.574 23.7859V25.0501C104.574 25.5395 104.666 26.0187 104.819 26.4571C104.972 26.8853 105.196 27.2727 105.471 27.6194C105.655 27.8437 105.859 28.0578 106.083 28.2413C106.613 28.6797 107.245 28.9754 107.939 29.1079C108.183 29.1487 108.428 29.1793 108.683 29.1793H110.661C110.967 29.1691 111.609 29.1079 112.496 28.8122L113.771 28.384L114.219 28.2311V29.1793H119.388V26.9057L117.145 26.6916ZM113.771 25.7026L112.669 26.0697L112.292 26.2022C111.609 26.4265 111.161 26.4775 110.936 26.4877H109.825C108.775 26.4877 107.929 25.6415 107.929 24.5913V23.9286C107.929 22.9601 108.663 22.175 109.601 22.0731C109.631 22.0731 109.662 22.0731 109.703 22.0629L111.324 21.9201L112.292 21.8386L113.771 21.7162V25.7026Z" fill="white"/>
<path d="M84.1223 26.4978V17.8623C84.1223 16.3024 83.3882 14.9158 82.2361 14.0288C81.7875 13.6822 81.2778 13.4171 80.7272 13.2438C80.2786 13.101 79.7892 13.0297 79.2897 13.0297H78.576C77.689 13.0297 77.0059 13.2336 76.7306 13.3253L74.4672 14.1614V13.4783H68.8292V15.7213L71.0722 15.9456V26.4978L68.8292 26.7221V28.9651H71.0722H74.4672H76.7102V26.7221L74.4672 26.4978V16.9039L74.5692 16.8631L76.9855 15.9659C76.9855 15.9659 76.9957 15.966 76.9957 15.9558C77.0671 15.9252 77.1486 15.8946 77.2302 15.864C77.2302 15.864 77.2302 15.864 77.2404 15.864C77.4953 15.7824 77.7603 15.7416 78.0356 15.7416C79.514 15.7416 80.717 16.9447 80.717 18.423V26.4876L78.474 26.7119V28.9549H80.717H84.1121H86.3551V26.7119L84.1223 26.4978Z" fill="white"/>
</svg>
