<svg width="155" height="48" viewBox="0 0 155 48" fill="none" xmlns="http://www.w3.org/2000/svg">
<path d="M109.612 30.4536C107.576 30.4536 105.997 31.6282 104.861 33.9381H104.835L104.822 33.8207L104.131 30.7668H102.238H100.02V32.0588L102.238 33.0115V44.1567L100.02 45.0833V46.3753H107.21V45.0833L104.992 44.1567V36.4438C105.853 34.2774 107.21 33.1681 109.011 33.1681C109.573 33.1681 109.964 33.2334 110.277 33.3247L110.656 30.5711C110.316 30.4928 109.977 30.4536 109.612 30.4536Z" fill="white"/>
<path d="M80.1044 36.4439C80.1044 34.5646 79.6737 33.116 78.7472 32.0589C78.3165 31.5629 77.7292 31.1584 77.0767 30.9104C76.4242 30.6624 75.6281 30.5058 74.6623 30.5058C73.7096 30.5058 72.8091 30.8191 71.9478 31.3019C70.9951 31.8631 70.3426 32.6983 69.9119 33.7685C69.5987 32.7766 69.1419 31.9806 68.4894 31.3933C67.8369 30.806 66.9494 30.4928 65.8923 30.4928C64.261 30.4928 62.7733 31.328 61.4813 32.9332V32.9071L60.907 30.7408H58.9233H56.7047V32.0328L58.9233 32.9855V44.1306L56.7047 45.0572V46.3492H63.8956V45.0572L61.677 44.1306V34.7473C62.7211 33.39 63.8695 32.7114 65.1615 32.7114C67.1321 32.7114 68.124 33.9512 68.124 36.4177V46.3884H73.0832V45.0572L70.8646 44.1306V36.4047C70.8646 35.2302 71.2039 34.3036 71.8826 33.6249C72.4959 33.0116 73.3051 32.6983 74.2317 32.6983C75.2496 32.6983 76.0196 33.0377 76.5808 33.651C77.1419 34.2644 77.3768 35.191 77.3768 36.4308V46.4014H82.3491V45.0442L80.0914 44.1176V36.4439H80.1044Z" fill="white"/>
<path d="M96.1566 44.1306V36.3133C96.1566 35.452 96.0653 34.6428 95.8173 33.899C95.5694 33.1551 95.23 32.5417 94.7733 32.0458C94.3165 31.5499 93.7553 31.1844 93.0767 30.8712C92.3981 30.558 91.5889 30.4406 90.7276 30.4406C89.4878 30.4406 88.3785 30.6233 87.3866 31.0539C86.7211 31.341 86.0816 31.7195 85.4682 32.1763L86.6167 34.0164C86.8646 33.8337 87.1648 33.6771 87.5171 33.4553C87.8565 33.2334 88.2219 33.0898 88.6917 32.8941C89.1485 32.7114 89.7096 32.62 90.3883 32.62C91.4062 32.62 92.1762 32.9593 92.6982 33.5727C93.2202 34.1861 93.5074 35.1127 93.5074 36.3525V37.5531C91.7194 37.5531 90.2317 37.6706 89.0049 37.9577C87.7651 38.2318 86.7863 38.6363 86.0424 39.067C85.2986 39.4976 84.7113 40.0588 84.372 40.607C84.0327 41.1551 83.876 41.7815 83.876 42.3949C83.876 43.0996 83.9674 43.726 84.2154 44.2481C84.4633 44.7701 84.7765 45.2008 85.1419 45.5401C85.5074 45.8794 86.0033 46.0882 86.5253 46.2839C87.0473 46.4667 87.5694 46.558 88.1958 46.558C88.8092 46.558 89.3703 46.5319 89.8663 46.4014C90.3622 46.284 90.7928 46.1273 91.2235 45.9446C91.6542 45.7619 92.0848 45.514 92.4633 45.2008C92.8287 44.8876 93.2594 44.5482 93.7031 44.1828L94.2251 46.2839H95.9478H96.1697H98.1795V44.9528L96.1566 44.1306ZM93.4291 42.5515C93.1158 42.8647 92.8157 43.1649 92.5025 43.4128C92.1893 43.6608 91.8499 43.9088 91.4845 44.0915C91.1191 44.2742 90.7406 44.4047 90.3361 44.496C89.9315 44.5874 89.5269 44.6526 89.0441 44.6526C88.6787 44.6526 88.3393 44.5874 88.0261 44.496C87.7129 44.4047 87.4649 44.2742 87.23 44.0915C86.9821 43.9088 86.7994 43.6608 86.6689 43.3476C86.5384 43.0344 86.447 42.7342 86.447 42.3035C86.447 41.8729 86.5775 41.4944 86.8255 41.129C87.0734 40.7636 87.5041 40.4504 88.0522 40.2024C88.6134 39.9544 89.3442 39.7065 90.2186 39.5499C91.08 39.3933 92.1631 39.328 93.4291 39.328V42.5515Z" fill="white"/>
<path d="M66.3882 16.0197C66.0228 15.7065 65.5791 15.4063 65.0962 15.2106L63.6084 14.6494C63.1125 14.4667 62.46 14.3101 61.69 14.0621C60.92 13.8142 60.3328 13.4749 59.9021 12.9789C59.6541 12.731 59.5367 12.3264 59.5367 11.8044C59.5367 11.2823 59.8107 10.8125 60.3719 10.3819C60.9331 9.95119 61.6378 9.70323 62.4991 9.70323H62.5252C63.2039 9.70323 64 9.82069 64.9396 10.0426L65.6443 12.5091H66.845V9.57273V8.48953C65.2137 7.94141 63.8695 7.6543 62.7863 7.6543C60.8809 7.6543 59.4584 8.08496 58.4143 9.01155C57.4225 9.87289 56.9266 10.8908 56.9266 12.1567C56.9266 13.3965 57.3572 14.3492 58.2186 15.054C58.584 15.3672 59.0538 15.6673 59.615 15.9153C60.1761 16.1633 61.1288 16.4765 62.4861 16.9071C62.982 17.0246 63.4127 17.2204 63.7781 17.4031C64.1435 17.5858 64.4567 17.8729 64.7047 18.1469C64.9527 18.421 65.0701 18.8517 65.0701 19.439C65.0701 20.0262 64.7961 20.5483 64.261 21.0181C63.6737 21.514 62.8776 21.7881 61.8466 21.7881C60.6068 21.7881 59.5367 21.6054 58.6623 21.1747L58.0098 18.8256H56.9005V22.8974C58.5709 23.4585 60.2936 23.7326 61.9641 23.7326C63.6345 23.7326 65.0571 23.2106 66.1011 22.284C67.1191 21.3835 67.615 20.1828 67.615 18.7081C67.6541 17.5988 67.2496 16.6983 66.3882 16.0197Z" fill="white"/>
<path d="M77.3115 20.9659C77.181 21.0312 77.0897 21.1226 76.9461 21.2139C76.7895 21.3053 76.6068 21.3966 76.3849 21.4619C76.1761 21.5271 75.9282 21.5793 75.615 21.5793C75.119 21.5793 74.6623 21.4227 74.3491 21.1225C74.0358 20.8093 73.8792 20.3134 73.8792 19.6348V10.2514H78.3556V8.24164H73.8792V3.36072H71.8694L71.2561 8.20249L69.2854 8.4635V10.2123H71.1647V19.7783C71.1647 21.0703 71.4779 22.0622 72.1566 22.7408C72.8352 23.4195 73.7618 23.7849 75.0016 23.7849C75.7063 23.7849 76.3849 23.6544 77.0636 23.4195C77.5464 23.2498 77.938 23.0018 78.3164 22.7278L77.3115 20.9659Z" fill="white"/>
<path d="M82.7145 4.744C82.8972 4.92671 83.0799 5.0572 83.3279 5.17465C83.5758 5.29211 83.8238 5.33127 84.0718 5.33127C84.3197 5.33127 84.5677 5.30516 84.8156 5.17465C85.0636 5.0572 85.2463 4.92671 85.429 4.744C85.6117 4.5613 85.7422 4.37859 85.8597 4.13062C85.9771 3.88266 86.0424 3.63469 86.0424 3.38673C86.0424 3.13877 85.9771 2.86471 85.8597 2.61675C85.7292 2.36879 85.6117 2.15998 85.429 1.96422C85.2463 1.78152 85.0636 1.65101 84.8156 1.53355C84.5677 1.4161 84.3197 1.37695 84.0718 1.37695C83.8238 1.37695 83.5758 1.40305 83.3279 1.53355C83.0799 1.66406 82.8972 1.78152 82.7145 1.96422C82.5318 2.14693 82.4013 2.36879 82.2838 2.61675C82.1664 2.86471 82.1272 3.13877 82.1272 3.38673C82.1272 3.63469 82.1533 3.88266 82.2838 4.13062C82.4143 4.37859 82.5318 4.5613 82.7145 4.744Z" fill="white"/>
<path d="M85.4421 8.24158H80.4698V9.22037L82.7145 10.147V21.3052L80.4698 22.2318V23.5499H87.6607V22.2318L85.4421 21.3052V8.24158Z" fill="white"/>
<path d="M99.9152 20.3393C98.9233 21.2007 97.7879 21.6313 96.4829 21.6313C95.0604 21.6313 93.9772 21.1093 93.1811 20.0914C92.372 19.0473 91.9413 17.5596 91.9413 15.7064C91.9413 13.8532 92.3067 12.4307 93.1158 11.3867C93.5204 10.8907 94.0163 10.4862 94.5644 10.2382C95.1256 9.99024 95.7129 9.83363 96.261 9.83363C96.8222 9.83363 97.3703 9.85974 97.9837 9.96415C98.2317 10.0294 98.5971 10.0946 99.093 10.2382L99.8369 12.8614H101.077V8.78958C99.1582 8.0457 97.6183 7.6803 96.4437 7.6803C94.1207 7.6803 92.2806 8.42417 90.9494 9.93804C89.6835 11.4258 89.0702 13.3051 89.0702 15.7194C89.0702 18.186 89.7488 20.1697 91.0799 21.6444C92.3459 23.0669 93.9511 23.7716 95.9609 23.7716C98.1273 23.7716 99.876 23.1844 101.142 22.0098L99.9152 20.3393Z" fill="white"/>
<path d="M131.628 20.3393C131.38 20.496 131.067 20.6525 130.701 20.8353C130.336 21.018 129.905 21.2007 129.409 21.3573C128.914 21.5139 128.3 21.5661 127.622 21.5661C126.878 21.5661 126.264 21.4487 125.638 21.2007C125.024 20.9527 124.529 20.5873 124.098 20.0914C123.667 19.5955 123.302 19.0473 123.054 18.3035C122.806 17.5596 122.688 16.6982 122.688 15.7064H133.064C133.312 15.7064 133.533 15.615 133.625 15.4845C133.716 15.3671 133.755 15.0539 133.755 14.6232C133.755 13.5139 133.573 12.522 133.259 11.6607C132.946 10.7994 132.45 10.0555 131.902 9.46822C131.341 8.88094 130.662 8.45027 129.866 8.13706C129.07 7.83689 128.222 7.6803 127.308 7.6803C126.212 7.6803 125.194 7.863 124.281 8.26757C123.354 8.67214 122.584 9.22026 121.971 9.89889C121.357 10.5775 120.861 11.4389 120.522 12.3654C120.183 13.292 120 14.2839 120 15.3932C120 16.7504 120.183 17.925 120.561 18.969C120.927 20.0131 121.423 20.8875 122.101 21.5922C122.78 22.2969 123.55 22.8581 124.476 23.2235C125.403 23.5889 126.395 23.7847 127.465 23.7847C128.026 23.7847 128.613 23.7195 129.162 23.6281C129.723 23.5367 130.271 23.3801 130.832 23.1974C131.393 23.0147 131.85 22.7406 132.346 22.4274C132.555 22.2969 132.75 22.1534 132.92 22.0229L131.628 20.3393ZM124.215 10.8255C124.959 10.0555 126.003 9.67703 127.334 9.67703L127.308 9.70312C127.922 9.70312 128.509 9.79448 129.005 10.0163C129.501 10.2382 129.931 10.5384 130.271 10.9168C130.61 11.2823 130.832 11.7782 131.015 12.3002C131.197 12.8222 131.289 13.4095 131.289 14.0229H122.793C122.976 12.6787 123.471 11.6085 124.215 10.8255Z" fill="white"/>
<path d="M145.175 7.61511C143.139 7.61511 141.56 8.78966 140.424 11.0996H140.398L140.385 10.9822L139.693 7.91527H137.801H135.582V9.20728L137.801 10.16V21.3051L135.582 22.2317V23.5238H142.773V22.2317L140.555 21.3051V13.5923C141.416 11.4259 142.773 10.3166 144.574 10.3166C145.135 10.3166 145.527 10.3818 145.84 10.4732L146.219 7.71952C145.879 7.66732 145.54 7.61511 145.175 7.61511Z" fill="white"/>
<path d="M117.181 21.3314L112.835 15.811L112.391 15.2498L112.052 14.8061L116.476 10.1601L118.786 9.23348V7.94148H112.235V9.23348L113.592 9.96433L110.682 13.0834L110.068 13.7359C109.82 14.0492 109.455 14.1666 109.077 14.1666H108.398V3.08667H103.4V4.41783L105.618 5.34441V21.3183L103.4 22.2449V23.5761H110.617V22.2449L108.398 21.3183V16.0981H109.142C109.442 16.0981 109.69 16.1242 109.847 16.1894C109.951 16.2286 110.068 16.3069 110.186 16.4374L110.577 16.9333L115.471 23.0671L115.876 23.563H119.374V22.2057L117.181 21.3314Z" fill="white"/>
<path d="M127.06 44.1699L122.715 38.6495L122.271 38.0883L121.931 37.6446L126.356 32.9986L128.666 32.072V30.7669H122.127V32.072L123.484 32.8028L120.574 35.9219L119.961 36.5744C119.713 36.8877 119.334 37.0051 118.969 37.0051H118.29V25.9252H113.292V27.2563L115.511 28.1829V44.1568L113.292 45.0834V46.4146H120.509V45.0834L118.29 44.1568V38.9366H119.034C119.334 38.9366 119.582 38.9627 119.739 39.0279C119.843 39.0671 119.961 39.1454 120.078 39.2759L120.47 39.7718L125.364 45.9056L125.768 46.4015H129.266V45.0443L127.06 44.1699Z" fill="white"/>
<path d="M141.455 43.1778C141.207 43.3345 140.894 43.491 140.529 43.6738C140.163 43.8565 139.732 44.0392 139.237 44.1958C138.741 44.3524 138.127 44.4046 137.449 44.4046C136.705 44.4046 136.091 44.2872 135.478 44.0392C134.865 43.7912 134.369 43.4258 133.938 42.9299C133.507 42.434 133.142 41.8728 132.894 41.142C132.646 40.3981 132.529 39.5367 132.529 38.5449H142.904C143.152 38.5449 143.36 38.4535 143.452 38.323C143.543 38.2056 143.582 37.8924 143.582 37.4617C143.582 36.3524 143.4 35.3605 143.086 34.4992C142.773 33.6379 142.29 32.894 141.729 32.3067C141.168 31.7194 140.489 31.2888 139.693 30.9756C138.897 30.6754 138.049 30.5188 137.135 30.5188C136.039 30.5188 135.034 30.7015 134.108 31.1061C133.181 31.5106 132.411 32.0588 131.798 32.7374C131.184 33.416 130.688 34.2774 130.349 35.2039C130.01 36.1305 129.827 37.1224 129.827 38.2317C129.827 39.5889 130.01 40.7635 130.388 41.8075C130.754 42.8516 131.25 43.726 131.928 44.4307C132.607 45.1354 133.377 45.6966 134.303 46.062C135.23 46.4274 136.222 46.6232 137.292 46.6232C137.853 46.6232 138.44 46.558 138.989 46.4666C139.537 46.3752 140.098 46.2186 140.659 46.0359C141.207 45.8532 141.677 45.5791 142.173 45.2659C142.382 45.1354 142.577 44.9919 142.747 44.8614L141.455 43.1778ZM134.042 33.664C134.786 32.894 135.83 32.5155 137.161 32.5155L137.135 32.5416C137.749 32.5416 138.336 32.633 138.832 32.8548C139.328 33.0767 139.759 33.3769 140.098 33.7553C140.437 34.1208 140.659 34.6167 140.842 35.1517C141.024 35.6738 141.116 36.261 141.116 36.8744H132.62C132.803 35.5172 133.299 34.434 134.042 33.664Z" fill="white"/>
<path d="M137.07 30.5057L137.096 30.5188L137.135 30.5057H137.07Z" fill="white"/>
<path d="M153.527 43.7914C153.396 43.8567 153.305 43.948 153.161 44.0394C153.005 44.1307 152.822 44.2221 152.6 44.2873C152.391 44.3526 152.144 44.4178 151.83 44.4178C151.334 44.4178 150.878 44.2612 150.564 43.961C150.251 43.6478 150.108 43.1519 150.108 42.4733V33.0899H154.584V31.0801H150.108V26.1992H148.098L147.471 31.041L145.501 31.302V33.0508H147.38V42.6168C147.38 43.9088 147.693 44.9007 148.372 45.5793C149.051 46.258 149.977 46.6234 151.217 46.6234C151.922 46.6234 152.6 46.5059 153.279 46.258C153.749 46.0883 154.153 45.8403 154.532 45.5663L153.527 43.7914Z" fill="white"/>
<path d="M44.2023 11.093L44.0848 10.8972C39.7912 4.34585 32.4046 0 24 0C10.7667 0 0 10.7667 0 24C0 29.7945 2.06199 35.1191 5.49429 39.2692L5.6248 39.4127C10.0359 44.6591 16.6264 48 24 48C37.2333 48 48 37.2333 48 24C48 19.2496 46.5905 14.8254 44.2023 11.093ZM41.4878 11.7194L35.6672 20.7243L25.2659 2.66231C31.9739 3.06688 37.8467 6.55138 41.4878 11.7194ZM8.93964 25.4225L4.69821 18.6884L22.6297 11.9282V20.0979L8.93964 25.4225ZM22.6297 2.67537V9.12236L4.13703 16.0914C7.12561 8.61338 14.2251 3.21044 22.6297 2.67537ZM2.88418 20.7113L7.29527 27.7194L7.34747 27.7847L7.43883 27.9021L7.60848 28.0587L7.72594 28.137L7.93475 28.2414L8.0522 28.2806L8.37847 28.3328H8.40457H8.41762C8.56117 28.3328 8.69168 28.3067 8.83524 28.2545L8.88744 28.2414L22.6297 22.8907V31.0343L7.00816 36.9331C4.26754 33.3312 2.62316 28.8679 2.62316 24C2.61011 22.8777 2.72757 21.7814 2.88418 20.7113ZM8.80914 39.0343L22.6297 33.8271V45.3246C17.2398 44.9723 12.385 42.6493 8.80914 39.0343ZM25.2398 45.3246V7.85645L34.4666 23.8956C34.6884 24.2871 35.106 24.5351 35.5628 24.5481H35.5889C36.0326 24.5481 36.4502 24.3263 36.6852 23.9478L42.9886 14.2121C44.5155 17.1485 45.3899 20.4763 45.3899 24.013C45.3899 35.3801 36.4502 44.6852 25.2398 45.3246Z" fill="#D42941"/>
</svg>
