<svg width="223" height="28" viewBox="0 0 223 28" fill="none" xmlns="http://www.w3.org/2000/svg">
<path d="M121.14 1.39795H129.258C132.731 1.39795 135.591 3.72053 134.946 7.83881C134.301 11.9893 131.075 14.3119 127.247 14.3119H123.269L122.204 21.0108H118.064L121.14 1.39795ZM127.462 10.785C129.172 10.785 130.516 9.58074 130.796 7.83881C131.075 6.12913 130.097 4.92483 128.387 4.92483H124.72L123.828 10.7743H127.462V10.785Z" fill="#262933"/>
<path d="M135.699 7.13986H139.677L139.312 9.44094C140.656 7.9033 142.753 6.94632 145.161 6.97857L144.516 11.0431C142.774 10.1506 139.247 10.8495 138.548 14.1829L137.452 21.0216H133.473L135.699 7.13986Z" fill="#262933"/>
<path d="M145.667 7.13986H149.645L147.43 21.0001H143.452L145.667 7.13986ZM146.15 2.79578C146.344 1.64524 147.495 0.666748 148.699 0.666748C149.903 0.666748 150.742 1.64524 150.548 2.79578C150.355 4.03234 149.204 5.01083 148.032 5.01083C146.817 5.01083 145.946 4.03234 146.15 2.79578Z" fill="#262933"/>
<path d="M151.129 7.13985H155.107L154.774 9.18286C155.839 7.78501 157.409 7.00006 159.344 7.00006C162.312 7.00006 164.892 9.44092 164.193 13.8065L163.075 21.0001H159.097L160.193 14.1076C160.581 11.613 159.548 10.3226 157.753 10.3226C155.796 10.3226 154.419 11.7205 154.032 13.9893L152.914 20.9893H148.935L151.129 7.13985Z" fill="#262933"/>
<path d="M166.204 16.0753L167.097 10.5592H164.548L165.107 7.13986H167.634L168.28 3.1076H172.258L171.613 7.13986H175.366L174.839 10.5592H171.086L170.301 15.4087C170.075 16.8603 170.774 17.7313 172.258 17.7313C172.785 17.7313 173.323 17.613 173.882 17.4194L173.355 20.613C172.376 20.9248 171.452 21.0646 170.613 21.0646C167.355 21.0646 165.72 18.9893 166.204 16.0753Z" fill="#262933"/>
<path d="M176.366 7.13986H180.344L178.129 21.0001H174.151L176.366 7.13986ZM176.849 2.79578C177.043 1.64524 178.194 0.666748 179.398 0.666748C180.602 0.666748 181.441 1.64524 181.247 2.79578C181.054 4.03234 179.903 5.01083 178.731 5.01083C177.516 5.01083 176.645 4.03234 176.849 2.79578Z" fill="#262933"/>
<path d="M181.828 7.13985H185.806L185.473 9.18286C186.538 7.78501 188.107 7.00006 190.043 7.00006C193.011 7.00006 195.591 9.44092 194.892 13.8065L193.774 21.0001H189.796L190.892 14.1076C191.279 11.613 190.247 10.3226 188.451 10.3226C186.494 10.3226 185.118 11.7205 184.731 13.9893L183.613 20.9893H179.634L181.828 7.13985Z" fill="#262933"/>
<path d="M211.57 7.13985L209.473 20.3549C208.634 25.5915 204.71 28.0001 200.312 28.0001C197.796 28.0001 195.247 26.7635 194.204 24.8603L197.538 22.3656C198.215 23.5377 199.441 24.0753 200.957 24.0753C202.978 24.0753 205.107 22.9785 205.462 20.6345L205.656 19.3979C204.398 20.4947 202.796 21.1398 200.925 21.1398C197.366 21.1398 194.817 18.2796 195.495 14.0538C196.172 9.82802 199.559 7.00006 203.172 7.00006C205.054 7.00006 206.452 7.64522 207.376 8.7635L207.624 7.13985H211.57ZM206.505 14.0646C206.839 11.9893 205.495 10.3979 203.484 10.3979C201.462 10.3979 199.677 12.0216 199.366 14.0646C199.054 16.1076 200.29 17.7635 202.312 17.7635C204.322 17.7527 206.172 16.1613 206.505 14.0646Z" fill="#262933"/>
<path d="M214.011 8.0323H212.527L212.667 7.13983H216.58L216.441 8.0323H214.968L214.387 11.6882H213.43L214.011 8.0323Z" fill="#262933"/>
<path d="M216.978 7.13983H218.064L219.086 9.75273L220.925 7.13983H222.086L221.376 11.6882H220.419L220.871 8.77424L219.344 10.957H218.516L217.688 8.78499L217.226 11.6882H216.258L216.978 7.13983Z" fill="#262933"/>
<path d="M10.8064 1.39789H15.5161L20.2258 21H15.8817L15.129 17.7742H6.44086L4.70968 21H0L10.8064 1.39789ZM14.3656 14.0323L12.5161 6.38713L8.36559 14.0323H14.3656Z" fill="#262933"/>
<path d="M21.2258 16.1935L23.8065 0H27.785L25.3226 15.4624C25.129 16.7742 25.7742 17.5376 27.086 17.5376C27.4516 17.5376 27.8172 17.4839 28.1506 17.3441L27.5914 20.7849C26.7742 20.9785 26.0215 21.1183 25.3549 21.1183C22.2903 21.1183 20.7312 19.3763 21.2258 16.1935Z" fill="#262933"/>
<path d="M28.2581 16.1935L30.8387 0H34.8172L32.3548 15.4624C32.1613 16.7742 32.8064 17.5376 34.1183 17.5376C34.4839 17.5376 34.8494 17.4839 35.1828 17.3441L34.6236 20.7849C33.8064 20.9785 33.0537 21.1183 32.3871 21.1183C29.3226 21.1183 27.7527 19.3763 28.2581 16.1935Z" fill="#262933"/>
<path d="M34.699 16.2473L38.8172 15.1505C39.2151 16.5484 40.4194 17.5269 42.2043 17.5269C44.0216 17.5269 45.2904 16.6882 45.4302 15.3656C45.7097 12.957 40.9463 13.4623 38.3979 11.5806C37.1936 10.7097 36.1828 9.08601 36.4947 7.043C37.0216 3.46235 40.2151 1.07526 44.4194 1.07526C47.8065 1.10751 50.3011 3.01074 50.8603 5.8602L46.8818 6.97848C46.5484 5.58063 45.5914 4.70966 43.9355 4.70966C42.1398 4.70966 40.9355 5.77418 40.742 6.97848C40.3549 9.33332 44.1291 9.19353 46.4517 10.2796C48.7527 11.172 50.2581 12.8602 49.8925 15.4086C49.3549 19.0752 46.1936 21.3441 41.6345 21.2903C37.9248 21.258 35.3764 19.1613 34.699 16.2473Z" fill="#262933"/>
<path d="M51.7312 16.0753L52.6237 10.5592H50.0753L50.6345 7.1398H53.1613L53.8065 3.10754H57.785L57.1398 7.1398H60.8925L60.3656 10.5592H56.613L55.828 15.4086C55.6022 16.8602 56.3011 17.7312 57.785 17.7312C58.3119 17.7312 58.8495 17.6129 59.4086 17.4194L58.8818 20.6129C57.9033 20.9247 56.9785 21.0645 56.1398 21.0645C52.8818 21.0645 51.2581 18.9893 51.7312 16.0753Z" fill="#262933"/>
<path d="M61.9032 7.1398H65.8817L63.6666 21H59.6881L61.9032 7.1398ZM62.3763 2.79572C62.5698 1.64518 63.7204 0.666687 64.9247 0.666687C66.129 0.666687 66.9677 1.64518 66.7741 2.79572C66.5806 4.03228 65.43 5.01077 64.258 5.01077C63.0429 5.01077 62.1827 4.03228 62.3763 2.79572Z" fill="#262933"/>
<path d="M65.5376 14.086C66.1828 10.086 69.7419 6.86023 73.9354 6.86023C76.1182 6.86023 78.3655 7.957 79.344 9.91399L75.9032 12.2366C75.4838 11.2581 74.5268 10.6667 73.3548 10.6667C71.4731 10.6667 69.7419 12.1828 69.4623 14.086C69.1505 15.9678 70.387 17.4731 72.2688 17.4731C73.4731 17.4731 74.6451 16.8817 75.3763 15.9032L78.0322 18.2258C76.4301 20.0753 74.3655 21.2796 71.6451 21.2796C67.9462 21.2903 64.8924 18.0645 65.5376 14.086Z" fill="#262933"/>
<path d="M81.6128 0H85.5376L83.6343 12.0107H85.5053L90.2365 7.13978H95.258L88.5053 13.8925L93.1827 21H88.5053L85.1182 15.7419H83.0752L82.2365 21H78.3118L81.6128 0Z" fill="#262933"/>
<path d="M110.097 7.1398H114.075L113.71 9.44088C115.054 7.90324 117.151 6.94625 119.559 6.97851L118.914 11.043C117.183 10.1506 113.645 10.8495 112.946 14.1828L111.849 21.0215H107.871L110.097 7.1398Z" fill="#262933"/>
<mask id="mask0_3741_2074" style="mask-type:luminance" maskUnits="userSpaceOnUse" x="94" y="18" width="1" height="1">
<path d="M94.4301 18.8379C94.4401 18.8379 94.4401 18.8379 94.4401 18.8279C94.4401 18.8279 94.4301 18.8379 94.4301 18.8379Z" fill="white"/>
</mask>
<g mask="url(#mask0_3741_2074)">
<path d="M94.4301 18.8494L94.4193 18.8279L94.4408 18.8171L94.4516 18.8386L94.4301 18.8494Z" fill="url(#paint0_linear_3741_2074)"/>
</g>
<path d="M94.4408 18.8279C95.5483 20.344 97.3763 21.3225 99.5698 21.3333C102.43 21.3655 104.495 20.4946 106.118 18.6451L103.763 16.6236C102.871 17.5483 101.72 18.086 100.258 18.086C99.258 18.086 98.3548 17.6774 97.7634 16.9462C96.5483 17.6559 95.4838 18.2795 94.4731 18.7956C94.4731 18.8171 94.4623 18.8279 94.4408 18.8279Z" fill="#262933"/>
<path d="M107.548 11.2904C107.505 11.3119 107.462 11.3334 107.451 11.3442C106.774 11.7313 106.097 12.1291 105.408 12.5162C104.623 12.9678 103.828 13.4625 102.968 13.9786C102.882 14.0323 102.796 14.0861 102.71 14.1291C102.505 14.2474 102.301 14.3657 102.097 14.4947C101.72 14.7098 101.333 14.9356 100.925 15.1614H107.903C108.247 13.6452 108.215 12.2689 107.892 11.0969C107.849 11.1291 107.677 11.2259 107.548 11.2904Z" fill="#262933"/>
<path d="M97.9032 12.0967C98.2903 11.516 98.7526 10.9892 99.2795 10.5268C99.7741 10.0859 100.312 9.69884 100.892 9.38701C101.441 9.08594 102.032 8.84938 102.634 8.68809C103.204 8.53755 103.806 8.45153 104.398 8.44078C104.957 8.43003 105.527 8.50529 106.064 8.65583C106.581 8.80637 107.075 9.03218 107.527 9.344C107.753 9.50529 107.957 9.67734 108.14 9.87089C108.236 9.96766 108.323 10.0752 108.409 10.1827C108.484 10.2795 108.559 10.3763 108.602 10.4838C108.581 10.4085 108.548 10.3225 108.548 10.3225C107.355 6.51605 103.882 3.95691 99.8817 3.95691C94.8817 3.95691 90.8171 8.02142 90.8171 13.0322C90.8171 15.3117 91.6774 17.4945 93.2257 19.172L93.4623 19.43C93.4623 19.43 94.1612 18.8494 94.5268 18.301C95.0645 17.4838 96.0967 16.0752 96.9677 13.8601C97.2257 13.2365 97.5376 12.6451 97.9032 12.0967Z" fill="#D42941"/>
<mask id="mask1_3741_2074" style="mask-type:luminance" maskUnits="userSpaceOnUse" x="93" y="8" width="16" height="12">
<path d="M104.408 8.43C103.817 8.44076 103.215 8.52678 102.645 8.67731C102.032 8.8386 101.451 9.07516 100.903 9.37624C100.322 9.69882 99.7741 10.0752 99.2902 10.516C98.7741 10.9784 98.3117 11.516 97.9139 12.0859C97.5375 12.6343 97.2364 13.2257 96.9891 13.8386C96.1182 16.0537 95.0859 17.4623 94.5483 18.2687C94.1827 18.8278 93.4838 19.3977 93.4838 19.3977C93.5053 19.387 93.5268 19.3762 93.5483 19.3655C94.9569 18.6343 96.473 17.7203 98.2902 16.6773C98.7741 16.3977 99.602 15.8816 100.032 15.6558C100.785 15.258 101.473 14.8709 102.118 14.4945C102.355 14.3547 102.591 14.2149 102.817 14.0859C102.914 14.0322 103.011 13.9676 103.107 13.9139C104.086 13.3332 104.978 12.7741 105.871 12.2687C106.634 11.8279 107.408 11.387 108.172 10.9461C108.193 10.9354 108.236 10.9139 108.29 10.8816C108.441 10.8063 108.667 10.6881 108.667 10.6451C108.667 10.6128 108.656 10.5698 108.656 10.5375C108.624 10.387 108.516 10.2795 108.43 10.1612C108.344 10.0537 108.258 9.94613 108.161 9.84936C107.978 9.65581 107.763 9.47301 107.548 9.32248C107.107 9.01065 106.613 8.77409 106.097 8.6343C105.581 8.48377 105.032 8.41925 104.495 8.41925C104.451 8.43 104.43 8.43 104.408 8.43Z" fill="white"/>
</mask>
<g mask="url(#mask1_3741_2074)">
<path d="M97.0752 25.8816L88.7957 11.0321L105.054 1.96759L113.333 16.8063L97.0752 25.8816Z" fill="url(#paint1_linear_3741_2074)"/>
</g>
<defs>
<linearGradient id="paint0_linear_3741_2074" x1="94.0863" y1="18.2091" x2="93.1231" y2="16.4825" gradientUnits="userSpaceOnUse">
<stop stop-color="#E5E5E4"/>
<stop offset="0.4424" stop-color="#ECEBEA"/>
<stop offset="1" stop-color="white"/>
</linearGradient>
<linearGradient id="paint1_linear_3741_2074" x1="101.207" y1="14.1742" x2="100.117" y2="12.2206" gradientUnits="userSpaceOnUse">
<stop stop-color="#E5E5E4"/>
<stop offset="0.4424" stop-color="#ECEBEA"/>
<stop offset="1" stop-color="white"/>
</linearGradient>
</defs>
</svg>
