<svg width="244" height="28" viewBox="0 0 244 28" fill="none" xmlns="http://www.w3.org/2000/svg">
<path d="M57.6751 11.9525L54.8432 17.0978H60.8394V20.9667C59.3371 22.0437 57.3959 22.5888 55.2288 22.5888C50.4292 22.5888 47.0256 18.9459 47.0256 14C47.0256 9.32003 50.4691 5.49097 54.8034 5.49097C57.1699 5.49097 58.8053 6.06267 60.3608 7.09971L63.1927 1.96771C61.0123 0.678062 58.4995 0 54.9895 0C46.7863 0 40.7901 6.30199 40.7901 14C40.7901 22.0836 46.6001 28 55.0294 28C59.9752 28 63.8176 26.0589 66.5963 23.7056V11.9525H57.6751Z" fill="#262933"/>
<path d="M72.3266 0.465271H78.2829V22.1367H91.791V27.5479H72.3266V0.465271Z" fill="#262933"/>
<path d="M93.5194 14C93.5194 6.30199 99.5953 0 107.958 0C116.321 0 122.317 6.23551 122.317 14C122.317 21.698 116.241 28 107.892 28C99.5156 28.0133 93.5194 21.7778 93.5194 14ZM116.082 14C116.082 9.35992 112.678 5.49097 107.878 5.49097C103.079 5.49097 99.7549 9.28015 99.7549 14C99.7549 18.6401 103.158 22.509 107.958 22.509C112.758 22.5223 116.082 18.7198 116.082 14Z" fill="#262933"/>
<path d="M127.609 0.465271H138.67C145.132 0.465271 149.041 4.29433 149.041 9.90496C149.041 16.1671 144.161 19.4244 138.085 19.4244H133.565V27.5479H127.609V0.465271ZM138.285 14.1196C141.263 14.1196 143.005 12.338 143.005 9.94485C143.005 7.27248 141.143 5.84988 138.165 5.84988H133.565V14.1329H138.285V14.1196Z" fill="#262933"/>
<path d="M153.455 0.465271H159.411V11.1813H170.393V0.465271H176.349V27.5479H170.393V16.6723H159.411V27.5479H153.455V0.465271Z" fill="#262933"/>
<path d="M183.13 0.465271H189.086V27.5479H183.13V0.465271Z" fill="#262933"/>
<path d="M194.67 14C194.67 6.30199 200.48 0 208.79 0C213.895 0 216.754 1.94112 219.28 4.41405L215.717 8.50902C213.63 6.60778 211.848 5.49097 208.75 5.49097C204.19 5.49097 200.893 9.28015 200.893 14C200.893 18.6401 204.11 22.509 208.75 22.509C211.848 22.509 213.736 21.2725 215.863 19.3314L219.652 23.3998C216.86 26.378 213.776 28 208.551 28C200.587 28.0133 194.67 21.8575 194.67 14Z" fill="#262933"/>
<path d="M222.564 23.5992L226.087 19.3846C228.52 21.3922 231.073 22.6685 234.171 22.6685C236.604 22.6685 238.08 21.698 238.08 20.0361C238.08 18.5337 237.149 17.7493 232.629 16.5926C227.177 15.1966 223.654 13.6942 223.654 8.2298C223.654 3.31053 227.603 0.0664673 233.134 0.0664673C237.083 0.0664673 240.446 1.30293 243.198 3.50996L240.101 8.00378C237.707 6.34187 235.341 5.33142 233.054 5.33142C230.767 5.33142 229.571 6.38175 229.571 7.76447C229.571 9.54604 230.727 10.131 235.407 11.3276C240.898 12.7635 243.996 14.7312 243.996 19.5308C243.996 24.9022 239.901 27.9202 234.051 27.9202C229.956 27.9335 225.808 26.4976 222.564 23.5992Z" fill="#262933"/>
<path d="M10.7027 0.0133667H21.4587L5.38461 27.8804L0 18.5604L10.7027 0.0133667Z" fill="#262933"/>
<path d="M16.1007 9.3067H26.8566L21.4853 18.6267L16.1007 9.3067Z" fill="#DBDBDD"/>
<path d="M26.8566 9.3067L21.4853 18.6267L26.83 27.8803L32.2013 18.5603L26.8566 9.3067Z" fill="#10B798"/>
<path d="M26.83 27.8804L21.4853 18.6268L16.1273 27.8538L26.83 27.8804Z" fill="#028C74"/>
</svg>
