<svg width="175" height="56" viewBox="0 0 175 56" fill="none" xmlns="http://www.w3.org/2000/svg">
<path d="M50.8671 3.66162C55.9575 3.73585 60.8571 4.8429 64.8434 8.11727C73.1782 4.97201 85.0595 4.36684 93.5834 6.41957C105.761 9.35343 119.286 18.0614 115.283 33.4182C112.445 44.3064 97.5309 49.4802 87.5312 50.4581C80.2698 51.1682 72.884 50.5307 66.0962 47.7615C55.1735 55.0978 40.4988 57.0036 27.5813 55.3205C16.4451 53.8697 3.01352 47.1192 0.501458 34.5075C-2.45676 19.6639 12.7158 10.6235 26.9637 12.9974C33.1582 7.8284 42.6665 3.5422 50.8671 3.66162ZM51.6947 7.32652C43.1014 7.10059 34.0877 11.3916 27.7284 16.9043C24.817 16.6058 22.1676 16.1475 19.2336 16.5558C4.05778 18.665 -0.225968 37.7108 12.386 46.2542C24.9932 54.7944 49.4413 53.2822 62.3443 45.833C62.9618 45.4764 65.1393 43.89 65.5741 43.8497C66.4082 43.7722 68.0328 44.6921 68.93 44.989C79.1108 48.357 91.0164 47.5646 100.798 43.2655C114.226 37.3639 117.218 23.8049 103.266 16.2282C93.7838 11.0802 78.5288 8.01722 68.0296 10.8688C67.286 11.0705 64.4684 12.1808 64.053 12.1033C63.547 12.0081 63.3175 11.4707 62.9457 11.1689C59.753 8.56752 55.7991 7.43464 51.6947 7.32652Z" fill="#262933"/>
<path d="M111.454 26.7464C111.586 23.5689 110.52 17.5382 101.879 12.8453C96.9893 10.1906 90.7722 8.14109 84.3725 7.07277C75.6061 5.61068 69.5442 6.44985 66.0041 7.41166C65.4043 7.57465 63.3077 8.23792 62.4057 8.52517C60.8684 7.44555 54.8226 3.49662 48.1788 3.12868C39.8812 2.67036 32.8203 5.88825 25.9922 13.2536C23.1471 12.9615 20.2099 12.6758 17.3164 13.0777C9.97903 14.0976 4.4053 19.0842 2.76939 26.0944C1.99831 29.3962 2.21007 32.8013 3.38043 35.9418C4.63484 39.3065 6.95938 42.2097 10.1035 44.3383C14.7089 47.4577 21.0392 49.4249 28.3571 50.064C30.6413 50.2641 33.024 50.3351 35.4779 50.2705C45.0169 50.0236 54.5495 47.6594 60.9767 43.9493C61.203 43.8186 61.5603 43.5782 62.0129 43.2748C62.5657 42.902 63.5744 42.2242 63.9139 42.0774C64.3019 42.0903 65.2055 42.4873 65.7567 42.7293C66.1576 42.9052 66.5375 43.0714 66.8608 43.178C77.0416 46.5459 89.1864 45.8907 99.3462 41.4254C102.943 39.8455 105.958 37.6491 108.066 35.0784C110.162 32.5221 111.334 29.6415 111.454 26.7464Z" fill="white"/>
<path d="M47.4643 0.00447851C52.5547 0.0787126 59.4023 1.76996 63.387 5.04271C78.5466 -2.34519 118.929 6.62099 113.833 30.4437C107.012 48.2211 80.4234 50.858 64.6446 44.787C46.8307 56.4159 6.24331 58.6994 0.195943 32.8579C-1.71801 17.8433 10.6742 7.54246 24.9221 9.91473C30.5961 2.19116 39.2638 -0.116555 47.4643 0.00447851ZM49.6418 3.976C39.621 3.17718 32.3144 7.18904 26.2784 13.9298C7.52844 8.97389 -5.45376 31.3022 10.936 43.2781C24.8962 52.4186 50.6893 50.2384 64.1241 40.8736C75.181 45.2211 88.4057 45.2259 99.3479 40.2878C112.776 34.3861 115.804 20.7626 101.816 13.2504C79.232 1.12283 62.9069 8.8819 62.9069 8.8819C58.8381 6.23368 54.2909 4.34717 49.6418 3.976Z" fill="#262933"/>
<path d="M98.3454 15.2335C96.5123 14.5767 95.7655 13.9425 95.1625 16.0937C94.1344 19.7602 91.2409 32.5478 90.9224 34.6667C90.8448 35.1783 90.6977 35.9674 91.1487 36.3225C91.6143 36.6872 93.8839 37.0519 94.2993 36.7195C94.7536 36.3564 95.835 31.5263 96.1745 30.4531C96.2343 30.2659 96.3507 29.856 96.4784 29.4268C96.543 29.2073 96.8566 29.2202 96.9067 29.4429C96.9407 29.5978 97.9138 34.9136 99.0406 34.8636C99.5304 34.841 101.944 34.6893 102.27 34.3988C102.531 34.1665 102.511 33.7517 102.477 33.4402C102.396 32.6931 101.006 28.9539 101.097 28.6715C102.598 28.0647 104.039 27.4418 104.97 26.033C108.415 20.8156 102.671 16.7828 98.3454 15.2335ZM100.836 24.2691C100.188 24.9711 98.5136 25.3116 97.5889 24.6338L98.8724 19.4842C101.14 19.8183 102.62 22.3358 100.836 24.2691Z" fill="#262933"/>
<path d="M90.0127 22.8748C90.5267 22.9974 90.7175 23.5187 90.7126 24.0141C90.7078 24.4256 90.2761 26.3944 90.0676 26.672C89.4938 27.4386 87.9678 27.2159 86.8394 27.0561C86.4628 27.0028 86.1169 27.2756 86.0829 27.6548L85.8291 30.4015C85.7903 30.8485 86.1169 31.0034 86.4935 31.0373C87.1579 31.026 89.3757 30.7581 89.7201 31.1793C90.2196 31.7861 89.8122 34.8829 89.476 35.6221C89.24 36.1417 88.7712 36.2934 88.2393 36.3547C87.187 36.4774 83.3203 36.4935 82.3569 36.2885C81.5939 36.1272 81.2075 35.6995 81.1477 34.9233C81.096 34.2536 81.1655 32.9706 81.1994 32.2379C81.4225 27.4047 82.0804 21.9146 82.9614 17.1571C83.1635 16.0646 83.6517 13.2179 84.0898 12.3577C84.4389 11.6735 85.1453 11.7832 85.8049 11.8671C87.0464 12.0253 91.6178 13.0533 92.6314 13.5455C92.9886 13.7198 93.236 14.0345 93.32 14.4218C93.4768 15.1528 93.0792 18.1254 92.2564 18.2997C91.5823 18.4417 89.4226 17.5799 88.3396 17.425C88.0211 17.3798 87.7188 17.5832 87.638 17.8946C87.1466 19.786 86.8281 20.7946 86.7344 22.1179C86.7214 22.2906 86.7586 22.5891 87.014 22.6117C87.8902 22.6892 89.2206 22.686 90.0127 22.8748Z" fill="#262933"/>
<path d="M81.9787 11.5735C82.1904 11.9914 82.108 12.4126 81.9803 12.8419C81.4242 14.7203 79.8433 17.467 79.0172 19.3923C78.3496 20.9496 77.6965 22.5165 77.0677 24.09L81.164 37.6813C81.2674 38.0718 81.3078 38.5721 81.1591 38.9497C80.8649 39.6969 77.5123 40.1245 77.1518 39.0611C76.0283 35.89 75.1764 32.6301 74.1386 29.4332C73.9511 28.8571 73.7393 28.0922 73.4128 27.5983L73.1784 38.1073C72.8131 39.0433 69.9228 38.8206 69.399 38.159C69.0822 37.7587 68.9965 36.5661 68.9512 36.0239C68.7136 33.2466 68.8073 30.2337 68.6602 27.4176C68.4533 23.4638 68.0524 19.5068 68.0153 15.5418C68.0072 14.6493 67.8051 12.7757 68.5018 12.2238C69.1323 11.7236 72.1584 11.4605 72.6062 12.2577C73.0749 15.0076 72.7565 17.8237 73.0248 20.5929C73.0475 20.8285 72.9052 20.8318 73.2851 20.8334L76.2853 12.0415C76.4227 11.6138 76.7654 11.078 77.2132 10.9409C77.7919 10.7698 81.6231 11.1571 81.9787 11.5735Z" fill="#262933"/>
<path d="M62.7567 19.4844C62.4722 19.5602 62.3122 19.9346 62.2201 20.1815C61.6462 21.7194 61.748 23.7141 61.8321 25.3456C61.9647 27.9051 62.3122 32.7529 63.3225 32.7497C63.5941 32.8158 63.7137 32.6706 63.78 32.4301C64.3603 30.3177 62.6258 28.6152 65.9122 28.67C67.6532 28.6991 67.7 28.8346 67.818 30.5033C67.9587 32.4915 67.6483 35.7303 65.8944 36.9955C64.0128 38.3559 61.5314 37.5652 60.2463 35.7884C57.529 32.0299 56.6706 19.7297 59.3508 15.9776C61.4037 13.1051 65.2252 14.4542 66.4198 17.4074C66.7899 18.3224 67.3282 20.9755 66.7948 21.8486C66.4586 22.3989 63.9627 22.6942 63.5294 22.2891C62.9766 21.8324 63.4955 19.3746 62.7567 19.4844Z" fill="#262933"/>
<path d="M54.4944 19.8038C55.0101 19.7844 55.9751 19.7699 56.2887 20.2153C56.6815 20.7753 56.6864 26.3202 56.7575 27.4838C56.9677 30.9663 57.2441 34.4537 57.5464 37.9298C57.6822 39.5839 53.3903 40.2085 53.3725 38.3768C53.3903 33.0029 52.4059 27.1562 52.6257 21.8307C52.692 20.2444 52.7858 19.8683 54.4944 19.8038Z" fill="#262933"/>
<path d="M51.2179 16.77C51.1743 17.259 52.0472 35.1881 51.9583 39.0305C51.9324 40.1505 51.9631 40.5378 50.8348 40.959C48.4181 41.8579 47.6939 41.2866 47.5484 38.8966C47.3173 35.101 47.529 31.0972 47.3981 27.266C47.2866 23.9739 47.0425 20.6705 46.8145 17.3865C46.3474 16.9201 38.6091 18.8227 37.4339 18.8469C36.1957 18.5823 35.7738 15.011 36.3444 14.104C36.8277 13.3359 39.5645 12.2708 40.4924 11.9545C44.0164 10.7522 48.2387 10.3003 51.9599 10.4891C53.0042 10.5424 56.457 10.8087 57.1311 11.4526C57.8747 12.1626 57.4189 16.2342 56.596 16.7958C56.0464 17.1718 53.8997 16.8087 53.0236 16.7926C52.773 16.7877 51.2292 16.6473 51.2179 16.77Z" fill="#262933"/>
<path d="M45.5894 27.8631C45.2306 28.1552 42.8236 28.0648 42.4065 27.8808C41.9587 27.6839 42.0218 26.1379 41.9232 25.6425C41.7599 24.8098 41.4463 24.203 41.047 25.3698C39.833 28.9233 43.0984 29.8997 44.7327 32.2719C46.7517 35.2058 46.7517 40.5442 43.454 42.5647C40.8757 44.1445 37.6653 42.5033 36.5725 39.8987C36.1312 38.8465 35.7869 36.5485 36.2007 35.506C36.4675 34.8346 39.3465 34.7943 39.9139 35.1186C40.617 35.5205 40.5346 38.5221 41.2976 38.5899C41.9959 38.6528 42.1317 36.7712 42.1075 36.3177C41.9733 33.9245 38.4267 32.025 37.4471 29.3897C36.1797 25.9798 37.308 19.5666 42.0493 20.2509C45.4165 20.7398 46.8261 25.0616 45.5894 27.8631Z" fill="#262933"/>
<path d="M30.958 37.5344C31.9409 37.8152 32.1526 26.6865 32.8477 21.2787C33.1468 20.5122 34.5871 20.6897 35.2305 20.8123C35.6944 20.9011 36.3152 21.0108 36.3556 21.5869C35.7995 26.3992 35.7752 31.4698 35.106 36.2498C34.6809 39.2902 33.5865 43.9588 29.529 43.1552C26.6048 42.5758 26.157 37.6748 26.1198 35.3122C26.0503 30.9098 26.178 27.2675 26.3478 23.1862C26.3946 22.0646 26.3655 20.1587 26.5239 19.1098C26.7325 17.73 28.6238 17.8349 29.7263 18.0253C31.3573 18.3077 31.1973 19.0226 31.1633 20.5202C31.0599 25.0743 30.3211 29.7963 30.3729 34.3923C30.3777 34.6182 30.4521 37.8458 30.958 37.5344Z" fill="#262933"/>
<path d="M20.5525 29.8726C20.3423 29.8435 20.2583 30.3583 20.2276 30.5068C19.6327 33.3729 19.4371 36.4471 18.8503 39.2599C18.679 40.0781 18.3621 40.4251 17.5021 40.488C15.2228 40.6575 15.2794 38.4902 15.0062 36.8296C14.6668 34.7688 14.518 32.6628 14.1576 30.6052L13.65 33.0679C13.3429 34.3089 13.608 37.9221 12.9112 38.7903C12.4425 39.3745 10.1761 39.2131 9.70732 38.6273C9.48586 38.3514 9.40503 37.6558 9.40179 37.2992C9.3727 34.8269 9.72995 25.7251 9.85603 23.8419C10.0112 21.5277 10.2068 20.5255 12.8369 20.4481C14.1511 20.4093 14.7217 20.4174 15.0903 21.702C15.7902 24.1356 16.1831 26.8467 16.8976 29.3029L17.2693 29.5837L19.526 18.8052C20.0045 18.2049 22.9158 17.9628 23.6788 18.0645C24.3287 18.1516 24.7182 18.4389 24.7958 19.1183C24.715 26.5546 24.8524 33.9877 25.4166 41.3966C25.1159 42.5408 21.6566 42.452 21.1748 41.1707C20.9388 40.5429 20.9243 38.6386 20.879 37.8527C20.7255 35.1997 20.7335 32.5256 20.5525 29.8726Z" fill="#262933"/>
<path d="M121.271 34.4902H120.205L123.391 22.6367H124.471L121.271 34.4902ZM133.711 31.0312H128.174V23.1699H133.711V31.0312ZM129.24 30.1699H132.672V24.0176H129.24V30.1699ZM137.758 34.1348H136.691V21.9531H137.758V34.1348ZM137.115 27.2988H133.547V26.4102H137.115V27.2988ZM145.16 23.7441C145.16 24.5827 144.923 25.3665 144.449 26.0957C143.975 26.8249 143.362 27.4401 142.61 27.9414C141.858 28.4427 141.068 28.7891 140.238 28.9805L139.746 28.0781C140.466 27.9323 141.173 27.6475 141.865 27.2236C142.558 26.7998 143.123 26.2803 143.561 25.665C143.998 25.0498 144.217 24.4095 144.217 23.7441V22.8145H145.16V23.7441ZM145.338 23.7441C145.338 24.4004 145.561 25.0384 146.008 25.6582C146.454 26.278 147.026 26.8021 147.724 27.2305C148.421 27.6589 149.125 27.9414 149.836 28.0781L149.344 28.9805C148.523 28.7891 147.737 28.445 146.985 27.9482C146.233 27.4515 145.618 26.8363 145.14 26.1025C144.661 25.3688 144.422 24.5827 144.422 23.7441V22.8145H145.338V23.7441ZM150.41 32.4531H139.281V31.5645H150.41V32.4531ZM152.631 30.293C153.843 30.293 154.882 30.2633 155.748 30.2041C156.614 30.1449 157.503 30.0423 158.414 29.8965L158.523 30.7852C157.621 30.931 156.73 31.0312 155.851 31.0859C154.971 31.1406 153.898 31.1725 152.631 31.1816H151.66V30.293H152.631ZM157.58 23.9629H152.727V30.5938H151.66V23.0605H157.58V23.9629ZM157.143 27.3535H152.467V26.4785H157.143V27.3535ZM160.93 34.1074H159.85V21.9531H160.93V34.1074ZM168.66 23.2246C168.66 24.4733 168.489 25.6309 168.147 26.6973C167.806 27.7637 167.225 28.7572 166.404 29.6777C165.584 30.5983 164.486 31.4049 163.109 32.0977L162.494 31.2773C163.734 30.6576 164.732 29.9466 165.488 29.1445C166.245 28.3424 166.789 27.4629 167.122 26.5059C167.455 25.5488 167.621 24.4961 167.621 23.3477V23.2246H168.66ZM168.264 24.1133H163.15V23.2246H168.264V24.1133ZM162.727 27.5039L162.535 26.5742L167.539 26.2461V27.0527L162.727 27.5039ZM172.543 34.1074H171.477V21.9531H172.543V34.1074ZM171.996 27.7363H168.619V26.8477H171.996V27.7363Z" fill="#262933"/>
</svg>
