<svg width="149" height="72" viewBox="0 0 149 72" fill="none" xmlns="http://www.w3.org/2000/svg">
<path d="M65.3379 4.70754C71.8764 4.80298 78.1699 6.22634 83.2903 10.4362C93.9961 6.39233 109.257 5.61425 120.206 8.25348C135.848 12.0256 153.221 23.2216 148.08 42.966C144.433 56.9651 125.277 63.6171 112.432 64.8745C103.105 65.7874 93.6182 64.9678 84.8995 61.4074C70.8694 70.8397 52.02 73.2901 35.4276 71.1261C21.1235 69.2607 3.87082 60.5816 0.64412 44.3665C-3.15566 25.2819 16.3333 13.6585 34.6345 16.7106C42.5912 10.0648 54.8044 4.554 65.3379 4.70754ZM66.401 9.41956C55.363 9.12908 43.7851 14.6461 35.6166 21.7339C31.877 21.35 28.4738 20.7608 24.7052 21.2857C5.21216 23.9976 -0.290246 48.4851 15.9097 59.4695C32.1034 70.4496 63.5065 68.5055 80.0802 58.9279C80.8734 58.4694 83.6703 56.4298 84.2288 56.3779C85.3002 56.2783 87.387 57.461 88.5394 57.8428C101.616 62.173 116.909 61.1543 129.473 55.6268C146.722 48.039 150.565 30.606 132.644 20.8645C120.464 14.2457 100.869 10.3076 87.3828 13.9739C86.4277 14.2332 82.8086 15.6608 82.2749 15.5612C81.625 15.4387 81.3302 14.7478 80.8526 14.3598C76.7518 11.0151 71.6729 9.55857 66.401 9.41956Z" fill="#262933"/>
<path d="M143.161 34.3884C143.331 30.303 141.96 22.5493 130.862 16.5156C124.581 13.1024 116.595 10.4673 108.375 9.09376C97.1148 7.21393 89.3284 8.29286 84.7811 9.52948C84.0107 9.73904 81.3177 10.5918 80.1591 10.9611C78.1844 9.57305 70.4188 4.49586 61.8848 4.02279C51.2268 3.43352 42.1571 7.57081 33.3865 17.0405C29.7321 16.6649 25.9593 16.2977 22.2426 16.8143C12.8179 18.1256 5.65853 24.537 3.55724 33.5502C2.5668 37.7954 2.8388 42.1733 4.3421 46.211C5.95337 50.5371 8.93921 54.2698 12.9778 57.0065C18.8934 61.0173 27.0245 63.5465 36.4243 64.3682C39.3582 64.6255 42.4188 64.7167 45.5707 64.6337C57.8234 64.3163 70.0678 61.2766 78.3235 56.5065C78.6142 56.3384 79.0731 56.0293 79.6545 55.6392C80.3646 55.1599 81.6603 54.2885 82.0963 54.0997C82.5947 54.1163 83.7553 54.6267 84.4634 54.9379C84.9783 55.1641 85.4663 55.3778 85.8816 55.5147C98.9586 59.845 114.558 59.0026 127.608 53.2614C132.228 51.2301 136.101 48.4062 138.808 45.101C141.502 41.8144 143.007 38.1108 143.161 34.3884Z" fill="white"/>
<path d="M60.9671 0.00575808C67.5057 0.101202 76.3012 2.27566 81.4195 6.48349C100.892 -3.01525 152.762 8.51271 146.217 39.1419C137.455 61.9986 103.302 65.3889 83.0349 57.5833C60.1532 72.5347 8.01942 75.4707 0.251686 42.2459C-2.20675 22.9413 13.7108 9.69745 32.012 12.7475C39.3001 2.8172 50.4337 -0.149857 60.9671 0.00575808ZM63.764 5.112C50.8925 4.08494 41.5073 9.24305 33.7541 17.9098C9.67016 11.5379 -7.00526 40.2457 14.0472 55.6433C31.9788 67.3953 65.1095 64.5922 82.3663 52.5517C96.5687 58.1414 113.556 58.1476 127.611 51.7985C144.859 44.2108 148.748 26.6947 130.781 17.0362C101.772 1.44364 80.8028 11.4196 80.8028 11.4196C75.5765 8.01473 69.7357 5.58922 63.764 5.112Z" fill="#262933"/>
<path d="M126.323 19.5864C123.968 18.742 123.009 17.9266 122.235 20.6923C120.914 25.4064 117.197 41.8477 116.788 44.572C116.689 45.2297 116.5 46.2443 117.079 46.7008C117.677 47.1697 120.592 47.6386 121.126 47.2112C121.709 46.7444 123.098 40.5343 123.534 39.1545C123.611 38.9138 123.761 38.3868 123.925 37.8349C124.008 37.5527 124.411 37.5693 124.475 37.8556C124.519 38.0548 125.769 44.8894 127.216 44.8251C127.845 44.7961 130.945 44.601 131.364 44.2275C131.699 43.9288 131.674 43.3955 131.63 42.9951C131.526 42.0344 129.741 37.227 129.857 36.8639C131.786 36.0837 133.636 35.2828 134.832 33.4714C139.257 26.7634 131.879 21.5783 126.323 19.5864ZM129.523 31.2036C128.69 32.1062 126.539 32.544 125.351 31.6725L127 25.0516C129.913 25.4811 131.813 28.7179 129.523 31.2036Z" fill="#262933"/>
<path d="M115.62 29.4108C116.28 29.5685 116.525 30.2387 116.519 30.8757C116.513 31.4048 115.958 33.9361 115.69 34.293C114.953 35.2785 112.993 34.9922 111.544 34.7868C111.06 34.7183 110.616 35.069 110.572 35.5566L110.246 39.088C110.196 39.6627 110.616 39.8619 111.099 39.9055C111.953 39.891 114.802 39.5465 115.244 40.0881C115.885 40.8682 115.362 44.8499 114.93 45.8002C114.627 46.4683 114.025 46.6633 113.342 46.7422C111.99 46.8999 107.024 46.9206 105.786 46.6571C104.806 46.4496 104.31 45.8998 104.233 44.9018C104.166 44.0407 104.256 42.3912 104.299 41.4492C104.586 35.235 105.431 28.1763 106.563 22.0596C106.822 20.6549 107.449 16.9948 108.012 15.8889C108.46 15.0092 109.368 15.1503 110.215 15.2582C111.81 15.4615 117.682 16.7832 118.983 17.416C119.442 17.6401 119.76 18.0447 119.868 18.5427C120.069 19.4826 119.559 23.3045 118.502 23.5286C117.636 23.7112 114.862 22.6032 113.471 22.404C113.062 22.3459 112.673 22.6073 112.57 23.0078C111.938 25.4395 111.529 26.7363 111.409 28.4377C111.392 28.6597 111.44 29.0436 111.768 29.0726C112.893 29.1722 114.602 29.1681 115.62 29.4108Z" fill="#262933"/>
<path d="M105.3 14.8806C105.572 15.4179 105.466 15.9595 105.302 16.5114C104.588 18.9265 102.557 22.458 101.496 24.9333C100.639 26.9355 99.7999 28.9502 98.9922 30.9732L104.254 48.4477C104.387 48.9498 104.439 49.5931 104.247 50.0786C103.87 51.0392 99.5632 51.5891 99.1001 50.2217C97.657 46.1446 96.5628 41.9534 95.2298 37.8431C94.9889 37.1024 94.7169 36.1189 94.2975 35.484L93.9964 48.9955C93.5271 50.1989 89.8146 49.9126 89.1418 49.0619C88.7348 48.5473 88.6248 47.014 88.5667 46.3168C88.2614 42.746 88.3818 38.8722 88.1929 35.2516C87.9271 30.1682 87.4122 25.0806 87.3644 19.9827C87.3541 18.8353 87.0945 16.4263 87.9894 15.7167C88.7992 15.0735 92.6862 14.7353 93.2613 15.7603C93.8635 19.2959 93.4544 22.9165 93.7991 26.477C93.8282 26.7799 93.6455 26.7841 94.1334 26.7861L97.9872 15.4823C98.1637 14.9324 98.6039 14.2436 99.179 14.0672C99.9224 13.8473 104.843 14.3452 105.3 14.8806Z" fill="#262933"/>
<path d="M80.61 25.0516C80.2445 25.1492 80.039 25.6305 79.9206 25.948C79.1835 27.9253 79.3143 30.4899 79.4223 32.5875C79.5925 35.8783 80.039 42.1112 81.3367 42.107C81.6855 42.1921 81.8392 42.0054 81.9243 41.6962C82.6697 38.9802 80.4418 36.7912 84.6631 36.8618C86.8993 36.8991 86.9595 37.0734 87.1111 39.2188C87.2918 41.775 86.8931 45.9393 84.6402 47.566C82.2233 49.3151 79.0361 48.2984 77.3854 46.014C73.895 41.1816 72.7924 25.367 76.235 20.5429C78.872 16.8497 83.7806 18.5843 85.3151 22.3813C85.7905 23.5577 86.482 26.9688 85.7968 28.0913C85.3649 28.7988 82.159 29.1785 81.6025 28.6577C80.8924 28.0706 81.5589 24.9105 80.61 25.0516Z" fill="#262933"/>
<path d="M69.9971 25.4624C70.6595 25.4375 71.8991 25.4188 72.3019 25.9915C72.8065 26.7115 72.8127 33.8407 72.9041 35.3367C73.174 39.8142 73.5291 44.298 73.9173 48.7673C74.0918 50.894 68.579 51.697 68.5561 49.342C68.579 42.4327 67.3145 34.9155 67.5968 28.0684C67.682 26.0288 67.8024 25.5454 69.9971 25.4624Z" fill="#262933"/>
<path d="M65.7885 21.5616C65.7325 22.1903 66.8537 45.242 66.7395 50.1823C66.7063 51.6222 66.7457 52.1202 65.2964 52.6617C62.1922 53.8174 61.262 53.0829 61.0751 50.0101C60.7782 45.13 61.0502 39.9822 60.882 35.0565C60.7388 30.8238 60.4252 26.5765 60.1325 22.3542C59.5324 21.7545 49.5928 24.2008 48.0832 24.2319C46.4927 23.8917 45.9508 19.3 46.6838 18.1339C47.3046 17.1463 50.8199 15.7768 52.0118 15.3702C56.5383 13.8244 61.9618 13.2434 66.7416 13.4862C68.0829 13.5547 72.5181 13.897 73.3839 14.7249C74.3391 15.6378 73.7535 20.8727 72.6967 21.5948C71.9907 22.0782 69.2332 21.6114 68.1078 21.5906C67.786 21.5844 65.8031 21.4039 65.7885 21.5616Z" fill="#262933"/>
<path d="M58.5588 35.8243C58.0979 36.1999 55.0061 36.0837 54.4704 35.8471C53.8953 35.594 53.9762 33.6063 53.8496 32.9693C53.6399 31.8987 53.2371 31.1185 52.7242 32.6187C51.1648 37.1875 55.3591 38.4428 57.4583 41.4929C60.0517 45.265 60.0517 52.1286 55.8159 54.7263C52.5041 56.7576 48.3804 54.6475 46.9768 51.2987C46.4099 49.9459 45.9677 46.9913 46.4992 45.6509C46.8418 44.7877 50.5398 44.7359 51.2686 45.1529C52.1719 45.6696 52.066 49.5288 53.046 49.616C53.943 49.6969 54.1174 47.2776 54.0863 46.6945C53.914 43.6175 49.3584 41.1754 48.1001 37.7871C46.4722 33.403 47.9215 25.1574 54.0116 26.0372C58.3367 26.6659 60.1472 32.2224 58.5588 35.8243Z" fill="#262933"/>
<path d="M39.7651 48.2589C41.0275 48.6199 41.2995 34.3117 42.1924 27.3588C42.5765 26.3732 44.4265 26.6015 45.2529 26.7592C45.8489 26.8733 46.6462 27.0144 46.6981 27.7551C45.9838 33.9423 45.9527 40.4616 45.0931 46.6073C44.547 50.5164 43.1413 56.519 37.9296 55.4857C34.1734 54.7408 33.5982 48.4394 33.5505 45.4018C33.4612 39.7416 33.6252 35.0586 33.8432 29.8113C33.9035 28.3692 33.8661 25.9188 34.0696 24.5702C34.3374 22.7962 36.7668 22.931 38.1829 23.1759C40.2779 23.539 40.0724 24.4581 40.0288 26.3836C39.8959 32.2389 38.947 38.3099 39.0134 44.2191C39.0196 44.5096 39.1152 48.6594 39.7651 48.2589Z" fill="#262933"/>
<path d="M26.3993 38.4075C26.1294 38.3702 26.0214 39.032 25.982 39.2229C25.2179 42.9079 24.9666 46.8605 24.2129 50.477C23.9928 51.529 23.5858 51.9751 22.4812 52.056C19.5535 52.2738 19.6262 49.4873 19.2752 47.3523C18.8392 44.7027 18.6482 41.995 18.1851 39.3495L17.5332 42.5157C17.1387 44.1113 17.4792 48.7569 16.5843 49.8732C15.9821 50.6243 13.071 50.4168 12.4689 49.6637C12.1844 49.3089 12.0806 48.4146 12.0764 47.956C12.0391 44.7773 12.4979 33.0751 12.6599 30.6537C12.8592 27.6784 13.1105 26.3899 16.4887 26.2903C18.1768 26.2405 18.9098 26.2509 19.3832 27.9025C20.2823 31.0314 20.7868 34.5171 21.7046 37.6751L22.1822 38.0361L25.0808 24.1781C25.6954 23.4062 29.435 23.095 30.415 23.2257C31.2497 23.3378 31.7501 23.7071 31.8498 24.5806C31.746 34.1416 31.9225 43.6984 32.6471 53.2241C32.2609 54.6952 27.8175 54.5811 27.1987 52.9336C26.8956 52.1265 26.8769 49.6782 26.8187 48.6677C26.6215 45.2566 26.6319 41.8186 26.3993 38.4075Z" fill="#262933"/>
</svg>
