<svg width="104" height="48" viewBox="0 0 104 48" fill="none" xmlns="http://www.w3.org/2000/svg">
<path d="M32.8887 25.5974L40.838 22.9068C41.4495 25.4751 43.7732 26.887 46.6527 26.887C50.1437 26.887 52.2228 25.4195 52.523 23.1514C53.0789 19.7827 45.2407 21.3726 40.2266 19.2379C37.6583 18.1372 35.457 15.6913 36.124 11.4665C37.0468 5.71852 43.284 1.49371 50.3772 1.49371C57.1036 1.49371 61.1505 4.91803 61.762 9.75433L53.9905 11.8334C53.6792 9.50974 52.2117 8.04217 49.3988 7.97546C46.6416 7.90876 44.507 9.63203 44.2624 11.4665C43.5842 15.5023 51.7225 13.5455 56.8034 15.6246C59.4383 16.792 61.762 19.2935 61.0838 23.5183C59.9831 30.0668 53.5014 33.858 45.4853 33.858C39.3149 33.858 33.8004 30.8006 32.8887 25.5974Z" fill="#262933"/>
<path d="M66.4203 2.40542H75.0478L74.3697 6.56352C76.8823 3.80628 80.5512 2.09412 84.776 2.09412C92.3029 2.09412 98.2954 8.33127 96.8279 17.5703C95.3603 26.8093 88.6339 32.9908 79.873 32.9908C75.7705 32.9908 72.5908 31.212 70.9342 28.3991L67.8212 48H59.1937L66.4203 2.40542ZM88.0113 17.5814C88.6895 13.2343 85.9879 9.75436 81.5852 9.75436C77.3048 9.75436 73.3246 13.2454 72.6575 17.5814C71.9793 21.9285 74.8033 25.4084 79.1392 25.4084C83.4864 25.4195 87.3443 21.9285 88.0113 17.5814Z" fill="#262933"/>
<path d="M94.0706 28.4103C94.5042 25.8976 97.0724 23.6963 99.763 23.6963C102.398 23.6963 104.355 25.8976 103.921 28.4103C103.487 31.2231 100.864 33.3689 98.2287 33.3689C95.5382 33.3689 93.6481 31.2342 94.0706 28.4103Z" fill="#262933"/>
<path d="M2.53675 17.5813C3.94873 8.83153 11.7757 1.79388 21.0147 1.79388C29.4532 1.79388 35.9461 8.83153 34.5341 17.5813C33.1222 26.2755 26.0956 33.3021 15.9894 33.3021C7.49535 33.3132 1.1359 26.2755 2.53675 17.5813ZM26.0956 17.5813C26.7738 13.3565 23.9499 9.99891 19.7362 9.99891C15.4558 9.99891 11.6646 13.3676 10.9864 17.5813C10.3082 21.7394 13.2544 25.1082 17.3458 25.1082C21.6929 25.1082 25.4286 21.7506 26.0956 17.5813Z" fill="#262933"/>
<path d="M1.96975 9.17626C-2.43294 17.5592 0.791254 27.9322 9.18528 32.3349C15.8227 35.8259 23.6942 34.514 28.8751 29.6666V29.6555C28.8751 29.6555 28.5638 28.9439 27.7077 28.0434C26.4625 26.7203 24.2056 24.5968 20.5812 22.0731C11.4089 15.7025 11.8647 3.35048 19.4471 0.33752C19.5583 0.293048 19.6695 0.237456 19.7918 0.204102C12.743 -0.896572 5.4719 2.50551 1.96975 9.17626Z" fill="#D42941"/>
<mask id="mask0_3741_2195" style="mask-type:luminance" maskUnits="userSpaceOnUse" x="13" y="0" width="16" height="30">
<path d="M19.4583 0.348685C11.8758 3.37276 11.42 15.7248 20.5923 22.0842C24.2167 24.5969 26.4737 26.7315 27.7189 28.0545C28.575 28.9551 28.8863 29.6666 28.8863 29.6666C27.3631 26.2423 25.9511 22.3177 24.7282 18.482C23.2161 13.7458 21.982 9.12073 21.126 5.71864C20.3032 2.41662 19.8363 0.259743 19.8252 0.215271H19.814C19.6806 0.248625 19.5694 0.304213 19.4583 0.348685Z" fill="white"/>
</mask>
<g mask="url(#mask0_3741_2195)">
<path d="M36.6465 27.443L12.7208 34.2694L3.64856 2.42772L27.5632 -4.39868L36.6465 27.443Z" fill="url(#paint0_linear_3741_2195)"/>
</g>
<defs>
<linearGradient id="paint0_linear_3741_2195" x1="22.8449" y1="14.164" x2="18.852" y2="15.3029" gradientUnits="userSpaceOnUse">
<stop stop-color="#E6E6E6"/>
<stop offset="0.4598" stop-color="#EDECEC"/>
<stop offset="1" stop-color="white"/>
</linearGradient>
</defs>
</svg>
