<svg width="120" height="48" viewBox="0 0 120 48" fill="none" xmlns="http://www.w3.org/2000/svg">
<path d="M22.7562 14.4877H33.1045V6.19881H20.6967V0H16.4656C7.39167 0 0 7.38147 0 16.4656C0 20.921 1.74342 25.0807 4.94478 28.2311L5.59728 28.8326L7.05522 30.2906L1.23364 36.1224C0.448598 36.9074 0.0203908 37.9473 0.0203908 39.0484C0.0203908 40.1597 0.448598 41.1997 1.23364 41.9745L7.25913 48L11.6432 43.616L14.3755 46.3483C15.9966 47.9592 18.6168 47.9592 20.2379 46.3483L30.2498 36.3364L31.8709 34.695C33.4817 33.0739 33.4817 30.4537 31.8709 28.8326L29.8929 26.8547L33.0943 26.8955V18.5862H22.746C21.6143 18.5862 20.6967 17.6686 20.6967 16.537C20.6967 15.4155 21.6245 14.4877 22.7562 14.4877ZM7.25913 45.0535L2.71198 40.5064C2.32455 40.1189 2.11045 39.599 2.11045 39.0586C2.11045 38.5081 2.32455 37.9983 2.71198 37.6109C3.09941 37.2234 3.61937 37.0093 4.15973 37.0093C4.71028 37.0093 5.22005 37.2234 5.60748 37.6109L10.1546 42.158L7.25913 45.0535ZM15.8641 44.8904L7.09601 36.1224C6.57604 35.6024 5.94393 35.2455 5.26083 35.0518L8.55395 31.7587L18.7698 41.9745C19.5752 42.7799 19.5752 44.0748 18.7698 44.8802C17.9643 45.6856 16.6593 45.6856 15.8641 44.8904ZM30.4027 30.3212C31.2082 31.1266 31.2082 32.4214 30.3925 33.237L28.7715 34.8785L21.2982 42.3517C21.1147 41.6788 20.7681 41.0365 20.2379 40.5064L7.06542 27.3237L6.40272 26.712C3.62957 23.9898 2.10025 20.35 2.10025 16.4656C2.10025 8.54375 8.54375 2.10025 16.4656 2.10025H18.5964V6.209H12.3976V7.25913C12.3976 8.78844 11.9694 9.98131 11.113 10.8173C9.62447 12.2753 7.27952 12.2447 7.26933 12.2447L6.19881 12.2141V13.2846C6.19881 20.6967 12.2243 26.7222 19.6364 26.7324L26.8955 26.8241L30.4027 30.3212ZM22.7562 20.6865H31.0042V24.785L19.667 24.6321H19.6568C13.723 24.6321 8.83942 20.0544 8.35004 14.243C9.47154 14.0901 11.2251 13.6313 12.5811 12.3059C13.6415 11.2761 14.2634 9.92013 14.4469 8.27867H31.0042V12.3874H22.7562C20.4724 12.3874 18.6066 14.243 18.6066 16.537C18.6066 18.8309 20.4622 20.6865 22.7562 20.6865Z" fill="#D42941"/>
<path d="M43.0654 32.8598C43.6669 32.8598 44.1665 33.0637 44.5641 33.4613C44.9618 33.859 45.1657 34.3585 45.1657 34.9499C45.1657 35.5412 44.9618 36.0306 44.5641 36.4384C44.1665 36.8462 43.6669 37.0399 43.0654 37.0399H41.5667V39.3645H40.7001V32.8496H43.0654V32.8598ZM43.0654 36.2447C43.4222 36.2447 43.7179 36.1223 43.9626 35.8776C44.1971 35.633 44.3194 35.3271 44.3194 34.9601C44.3194 34.593 44.1971 34.277 43.9626 34.0425C43.7281 33.7978 43.4324 33.6754 43.0654 33.6754H41.5667V36.2447H43.0654Z" fill="#0D0E11"/>
<path d="M55.6261 39.3747L54.1682 36.8768H52.6287V39.3747H51.7621V32.8598H54.3721C54.9329 32.8598 55.412 33.0535 55.8097 33.4511C56.2073 33.8487 56.401 34.3177 56.401 34.8785C56.401 35.2965 56.2787 35.6839 56.0238 36.0306C55.7689 36.3772 55.4528 36.6219 55.0552 36.7646L56.5947 39.3645H55.6261V39.3747ZM52.6389 33.6754V36.1019H54.3823C54.7086 36.1019 54.9838 35.9796 55.2081 35.7451C55.4324 35.5106 55.5446 35.2149 55.5446 34.8887C55.5446 34.5522 55.4324 34.2668 55.2081 34.0323C54.9838 33.7978 54.7086 33.6754 54.3823 33.6754H52.6389Z" fill="#0D0E11"/>
<path d="M63.0382 32.8598H63.9048V39.3747H63.0382V32.8598Z" fill="#0D0E11"/>
<path d="M74.9261 32.8598H75.7927V39.3747H75.0994L71.7553 34.5115V39.3747H70.8887V32.8598H71.5616L74.9363 37.7536V32.8598H74.9261Z" fill="#0D0E11"/>
<path d="M86.9363 32.8598V33.6754H85.0094V39.3645H84.1529V33.6754H82.2362V32.8598H86.9363Z" fill="#0D0E11"/>
<path d="M93.3696 32.8598H94.2362V39.3747H93.3696V32.8598Z" fill="#0D0E11"/>
<path d="M105.268 32.8598H106.134V39.3747H105.441L102.097 34.5115V39.3747H101.23V32.8598H101.903L105.278 37.7536V32.8598H105.268Z" fill="#0D0E11"/>
<path d="M119.388 36.1529V36.5404C119.388 37.3866 119.093 38.1003 118.511 38.661C117.93 39.2218 117.155 39.5072 116.197 39.5072C115.208 39.5072 114.382 39.181 113.74 38.5285C113.087 37.876 112.771 37.0807 112.771 36.1326C112.771 35.1946 113.098 34.3891 113.74 33.7366C114.392 33.0841 115.198 32.7579 116.187 32.7579C116.788 32.7579 117.339 32.9006 117.839 33.1861C118.338 33.4715 118.726 33.859 119.001 34.328L118.257 34.7664C118.073 34.4095 117.788 34.1342 117.41 33.9201C117.033 33.706 116.625 33.6041 116.166 33.6041C115.422 33.6041 114.811 33.8488 114.331 34.3381C113.852 34.8275 113.618 35.4291 113.618 36.1428C113.618 36.8666 113.862 37.4681 114.342 37.9473C114.821 38.4265 115.443 38.6712 116.207 38.6712C116.86 38.6712 117.39 38.5081 117.788 38.192C118.195 37.876 118.44 37.4579 118.522 36.9482H116.126V36.1631H119.388V36.1529Z" fill="#0D0E11"/>
<path d="M62.3245 6.21918C61.0501 6.21918 60.0204 7.24891 60.0204 8.52333C60.0204 9.79776 61.0501 10.8275 62.3245 10.8275C63.599 10.8275 64.6287 9.79776 64.6287 8.52333C64.6287 7.24891 63.599 6.21918 62.3245 6.21918Z" fill="#D42941"/>
<path d="M91.3611 13.3969C90.26 13.8557 89.3424 14.6611 88.7409 15.6807C88.2617 16.4963 87.9864 17.4343 87.9864 18.4436C87.9864 19.453 88.2617 20.3909 88.7409 21.2066C89.1385 21.8897 89.689 22.481 90.3313 22.9296L89.8827 23.9084L89.689 24.3162C89.689 24.3162 89.689 24.3264 89.6788 24.3264C89.6482 24.3773 89.6279 24.4385 89.6075 24.4895C89.4443 24.8769 89.3628 25.2949 89.3628 25.7333C89.3628 25.8455 89.3628 25.9474 89.3832 26.0596C89.4953 27.1301 90.1172 28.0477 91.0042 28.5473C91.1164 28.6186 91.2387 28.6696 91.3611 28.7206C91.7485 28.8837 92.1665 28.9755 92.6049 28.9755H97.0909H102.107C101.862 28.0273 101.261 27.2117 100.466 26.6917C99.9762 26.3655 99.3951 26.1513 98.7833 26.0902C98.6406 26.0698 98.4877 26.0596 98.3347 26.0596H93.2064C92.6967 26.0596 92.2787 25.6416 92.2787 25.1318C92.2787 25.0401 92.2889 24.9381 92.3194 24.8565C92.3296 24.8259 92.3398 24.7954 92.35 24.775L92.6559 23.9084L92.6763 23.8574C92.921 23.8982 93.1759 23.9084 93.4409 23.9084H95.011C95.1028 23.9084 95.1945 23.9084 95.2863 23.8982C95.9286 23.8676 96.5403 23.7248 97.1011 23.4904C97.7332 23.2253 98.3041 22.8582 98.7833 22.3892C99.1504 22.0426 99.4664 21.645 99.7111 21.2066C100.19 20.3909 100.466 19.453 100.466 18.4436C100.466 17.4343 100.19 16.4963 99.7111 15.6807H102.24V12.9891H93.4511C92.7069 12.9891 92.0034 13.1318 91.3611 13.3969ZM97.1011 17.3629C97.1215 17.475 97.1317 17.577 97.1317 17.6892V19.1879C97.1317 19.3 97.1215 19.4122 97.1011 19.5141C96.9482 20.4623 96.1121 21.1964 95.1232 21.1964H93.3798C92.6253 21.1964 91.9728 20.7784 91.6262 20.1666C91.463 19.8812 91.3713 19.5447 91.3713 19.1879V17.6892C91.3713 16.5779 92.2685 15.6807 93.3798 15.6807H95.1232C96.1121 15.6807 96.9482 16.4045 97.1011 17.3629Z" fill="#262933"/>
<path d="M54.5148 21.9202C54.1376 19.5752 52.4248 17.6891 50.1818 17.057L49.5701 16.8633L45.5939 15.65C45.5735 15.6398 45.5429 15.6296 45.5225 15.6296C44.4316 15.2728 43.6465 14.2532 43.6465 13.0502C43.6465 11.5514 44.8598 10.3382 46.3585 10.3382H50.5386L50.9872 13.4784H53.2302V10.3382V7.198H46.2056C45.288 7.198 44.4214 7.40191 43.6363 7.77914C42.4843 8.3297 41.5463 9.2269 40.9448 10.3484C40.9346 10.3688 40.9244 10.3892 40.9142 10.4096C40.486 11.2354 40.2413 12.1734 40.2413 13.1623C40.2413 13.4682 40.2617 13.7638 40.3126 14.0493C40.4044 14.712 40.6185 15.3339 40.9142 15.9151C41.5157 17.057 42.4741 17.9847 43.6363 18.5455C43.7791 18.6169 43.932 18.678 44.0849 18.7392C44.1971 18.78 44.3092 18.8208 44.4214 18.8616L45.6856 19.249L46.124 19.3815L48.2753 20.0442L48.9176 20.2379C49.0297 20.2685 49.1317 20.2991 49.2336 20.3297H49.2438C50.3755 20.7477 51.1708 21.8284 51.1708 23.1028C51.1708 24.7341 49.8453 26.0595 48.2141 26.0595H43.4936L43.045 22.9193H40.802V26.0595V28.9754H48.4996C51.8538 28.9754 54.576 26.2532 54.576 22.8989C54.5964 22.5625 54.5658 22.2362 54.5148 21.9202Z" fill="#262933"/>
<path d="M64.0272 28.9347H66.2294V26.7223L64.0272 26.498V13.4785H60.6219H58.3789V15.7214L60.6219 15.9457V26.498H60.5913L58.3789 26.7223V28.9347H60.6219H64.0272Z" fill="#262933"/>
<path d="M117.145 26.6917V17.3119C117.145 16.8327 117.064 16.374 116.921 15.9458C116.452 14.5286 115.259 13.4275 113.771 13.091C113.465 13.0197 113.138 12.9789 112.812 12.9789H110.834H110.039H105.471V13.7537V15.4666V15.6603H105.492L105.471 15.6705V18.3621H107.714L107.939 15.6705L107.929 15.6603H112.2C113.047 15.6603 113.73 16.323 113.781 17.159V17.1896C113.781 17.21 113.781 17.2202 113.781 17.2406C113.781 17.2508 113.781 17.261 113.781 17.2712V17.6586C113.781 17.6688 113.781 17.679 113.781 17.6892V19.2287L113.353 19.2695H113.332L112.7 19.3204L110.671 19.4937L109.172 19.6263L108.357 19.6977C108.316 19.6977 108.285 19.7079 108.245 19.7079C108.143 19.7181 108.041 19.7384 107.949 19.7486C106.95 19.9322 106.083 20.4725 105.482 21.227C105.186 21.594 104.952 22.012 104.799 22.4606C104.656 22.8786 104.574 23.3272 104.574 23.786V25.0503C104.574 25.5396 104.666 26.0188 104.819 26.4572C104.972 26.8854 105.196 27.2728 105.471 27.6195C105.655 27.8438 105.859 28.0579 106.083 28.2414C106.613 28.6798 107.245 28.9755 107.939 29.108C108.183 29.1488 108.428 29.1794 108.683 29.1794H110.661C110.967 29.1692 111.609 29.108 112.496 28.8124L113.771 28.3841L114.219 28.2312V29.1794H119.388V26.9058L117.145 26.6917ZM113.771 25.7028L112.669 26.0698L112.292 26.2023C111.609 26.4266 111.161 26.4776 110.936 26.4878H109.825C108.775 26.4878 107.929 25.6416 107.929 24.5915V23.9288C107.929 22.9602 108.663 22.1752 109.601 22.0732C109.631 22.0732 109.662 22.0732 109.703 22.063L111.324 21.9203L112.292 21.8387L113.771 21.7164V25.7028Z" fill="#262933"/>
<path d="M84.1223 26.4979V17.8624C84.1223 16.3025 83.3882 14.9159 82.2361 14.0289C81.7875 13.6823 81.2778 13.4172 80.7272 13.2439C80.2786 13.1012 79.7892 13.0298 79.2897 13.0298H78.576C77.689 13.0298 77.0059 13.2337 76.7306 13.3255L74.4672 14.1615V13.4784H68.8292V15.7214L71.0722 15.9457V26.4979L68.8292 26.7222V28.9652H71.0722H74.4672H76.7102V26.7222L74.4672 26.4979V16.904L74.5692 16.8633L76.9855 15.9661C76.9855 15.9661 76.9957 15.9661 76.9957 15.9559C77.0671 15.9253 77.1486 15.8947 77.2302 15.8641C77.2302 15.8641 77.2302 15.8641 77.2404 15.8641C77.4953 15.7825 77.7603 15.7418 78.0356 15.7418C79.514 15.7418 80.717 16.9448 80.717 18.4232V26.4877L78.474 26.712V28.955H80.717H84.1121H86.3551V26.712L84.1223 26.4979Z" fill="#262933"/>
</svg>
