<svg width="199" height="72" viewBox="0 0 199 72" fill="none" xmlns="http://www.w3.org/2000/svg">
<g clip-path="url(#clip0_3741_2030)">
<path d="M188.476 18.7137H185.342V21.8476H188.476V18.7137Z" fill="#C8A25F"/>
<path d="M118.55 43.6506V40.6952H115.595V43.6506H118.55Z" fill="#C8A25F"/>
<path d="M104.286 32.342C102.948 30.7361 101.554 29.1524 100.149 27.6134C98.9145 26.3049 97.6357 24.9814 96.3122 23.6431L95.9888 23.3197L95.6542 23.6431C94.1041 25.1041 92.487 26.4982 90.8364 27.803C88.9293 29.2974 87.0669 30.7472 85.2602 32.1413L84.9925 32.3309L82.9405 29.632L83.2081 29.4312C83.3866 29.2974 83.5762 29.1524 83.7546 28.9963C83.9331 28.8402 84.1673 28.6729 84.4238 28.5056C85.6282 27.5799 86.9888 26.5093 88.4832 25.316C89.9777 24.1227 91.4275 22.8736 92.8327 21.5688C94.1821 20.3143 95.4522 18.9771 96.6357 17.5651C97.6395 16.4179 98.4426 15.1096 99.0111 13.6952C99.1987 13.0171 99.3439 12.3281 99.4461 11.632C99.517 11.1924 99.5654 10.7494 99.591 10.3048V9.80299H85.9405V6.69147H103.059V9.6134C103.101 11.7646 102.663 13.8979 101.777 15.8588C100.953 17.5596 99.9111 19.1455 98.6766 20.5762L98.3866 20.9108L98.71 21.2231C100.071 22.5391 101.42 23.9219 102.714 25.3272C104.164 26.9108 105.591 28.5614 106.952 30.2565L107.152 30.513L104.498 32.6097L104.286 32.342Z" fill="#262933"/>
<path d="M171.257 32.1635V28.9293H171.591C171.959 28.9293 172.383 28.9293 172.84 28.9293C173.278 28.924 173.715 28.8792 174.145 28.7955C174.56 28.7223 174.964 28.5987 175.349 28.4275C175.687 28.2844 175.982 28.058 176.208 27.7695C176.337 27.6148 176.442 27.4419 176.52 27.2565C176.61 27.0223 176.688 26.7992 176.755 26.5985C176.822 26.3977 176.922 25.8959 177 25.4832C177.078 25.0706 177.123 24.658 177.167 24.2342C177.212 23.8104 177.245 23.3754 177.279 22.9405C177.312 22.5056 177.279 22.1264 177.279 21.8253V13.8847H169.383V14.3531C169.383 15.3345 169.316 16.316 169.227 17.2862C169.123 18.2924 168.937 19.2884 168.669 20.2639C168.375 21.2332 168.002 22.1769 167.554 23.0855C167.13 24.0111 166.572 25.0595 165.903 26.2082C165.546 26.8215 165.167 27.4572 164.788 28.1152L162.268 32.1301L159.48 30.2788L161.933 26.3308C162.725 25.0818 163.383 23.9665 163.907 23.0409C164.391 22.175 164.798 21.2681 165.123 20.3308C165.436 19.3969 165.649 18.4324 165.758 17.4535C165.87 16.4275 165.937 15.4015 165.948 14.3754V13.8847H160.929V10.6951H166.026V5.26392H169.439V10.6951H180.669V21.7583C180.669 22.7063 180.669 23.6877 180.58 24.6914C180.529 25.69 180.342 26.677 180.022 27.6245C179.747 28.5368 179.287 29.3831 178.673 30.1115C178.13 30.7102 177.459 31.1791 176.71 31.4832C175.942 31.7959 175.129 31.9841 174.301 32.0409C173.431 32.1189 172.517 32.1524 171.591 32.1524L171.257 32.1635Z" fill="#262933"/>
<path d="M127.918 62.0521L131.375 57.9145C131.926 57.2602 132.45 56.6134 132.948 55.974C133.435 55.37 133.868 54.7244 134.242 54.0446C134.61 53.3641 134.906 52.6463 135.123 51.9034C135.336 51.0839 135.445 50.2408 135.446 49.3941V43.0149H138.993V49.3829C139.005 50.4334 138.893 51.4816 138.658 52.5056C138.447 53.4067 138.129 54.2791 137.71 55.1041C137.296 55.9317 136.807 56.7194 136.249 57.4573C135.714 58.1822 135.134 58.9629 134.42 59.7881L132.602 61.9405C131.989 62.6766 131.364 63.3792 130.74 64.0707L130.528 64.3049L127.918 62.0521Z" fill="#262933"/>
<path d="M198.859 18.7137H188.487V21.8476H198.859V18.7137Z" fill="#262933"/>
<path d="M118.561 67.1041V43.6506H115.606V67.1041H118.561Z" fill="#262933"/>
<path d="M173.063 43.2267H162.502V46.5947H173.063V43.2267Z" fill="#262933"/>
<path d="M162.502 43.2267H159.134V46.5947H162.502V43.2267Z" fill="#C8A25F"/>
<path d="M107.688 43.0594V37.6171H104.989V43.0594H107.688Z" fill="#262933"/>
<path d="M103.171 43.0594V37.6171H100.472V43.0594H103.171Z" fill="#262933"/>
<path d="M144.268 20.2305V11.632H141.491V20.2305H144.268Z" fill="#262933"/>
<path d="M138.758 20.2305V11.632H135.981V20.2305H138.758Z" fill="#262933"/>
<path d="M110.822 27.7249C118.941 26.2974 120.535 23.1301 120.859 17.1078V16.606H109.528V13.7398H133.829V16.606H124.16V17.0521C123.747 24.145 121.394 28.9517 111.123 30.9145L110.822 27.7249Z" fill="#262933"/>
<path d="M137.175 27.0669C146.152 24.1227 148.327 22.4721 151.104 11.9108L154.45 12.0781C153.045 21.2565 149.587 27.5911 137.42 30.6691L137.175 27.0669Z" fill="#262933"/>
<path d="M85.4944 61.7175C91.2044 61.1487 95.0743 59.5539 98.0297 56.5874C100.846 53.8352 102.932 50.4235 104.097 46.6617L106.952 48.2119C102.937 59.0075 97.2156 63.5019 85.3829 65.1748L85.4944 61.7175Z" fill="#262933"/>
<path d="M123.569 59.5204L121.996 57.2119C124.015 56.077 125.535 54.2267 126.257 52.026L126.558 51.3122L118.684 51.9702L114.892 52.2602L109.048 52.6505L109.171 49.8513L114.747 49.4498L118.539 49.2267L130.059 48.5799C129.558 53.565 127.517 57.0334 123.703 59.5093L123.569 59.5204Z" fill="#262933"/>
<path d="M150.691 64.4275C149.351 56.7942 146.984 49.3774 143.654 42.3792L146.777 41.6208C150.458 48.8374 153.087 56.5438 154.584 64.5055L150.691 64.4275Z" fill="#262933"/>
<path d="M153.112 37.6171C152.432 37.6171 151.768 37.8185 151.203 38.196C150.638 38.5734 150.198 39.1099 149.938 39.7375C149.678 40.3652 149.61 41.0558 149.743 41.7222C149.875 42.3885 150.202 43.0005 150.683 43.4809C151.163 43.9613 151.775 44.2884 152.441 44.421C153.108 44.5535 153.798 44.4855 154.426 44.2255C155.054 43.9655 155.59 43.5253 155.968 42.9604C156.345 42.3955 156.546 41.7314 156.546 41.052C156.548 40.6005 156.46 40.1532 156.288 39.7358C156.116 39.3184 155.863 38.9391 155.544 38.6199C155.224 38.3006 154.845 38.0477 154.428 37.8756C154.01 37.7035 153.563 37.6156 153.112 37.6171ZM153.112 42.2453C152.954 42.2468 152.799 42.217 152.653 42.1575C152.508 42.0981 152.376 42.0103 152.264 41.8991C152.153 41.788 152.065 41.6559 152.006 41.5104C151.947 41.365 151.917 41.2092 151.918 41.052C151.915 40.8945 151.944 40.738 152.003 40.5918C152.062 40.4457 152.15 40.3129 152.261 40.2015C152.372 40.0901 152.505 40.0023 152.651 39.9434C152.797 39.8845 152.954 39.8557 153.112 39.8587C153.428 39.8587 153.732 39.9844 153.955 40.2082C154.179 40.432 154.305 40.7355 154.305 41.052C154.305 41.3685 154.179 41.672 153.955 41.8958C153.732 42.1196 153.428 42.2453 153.112 42.2453Z" fill="#262933"/>
<path d="M160.394 61.7063C169.807 60.8698 175.874 57.7694 180.591 44.5538L183.58 45.4349C179.978 58.0706 174.234 62.9442 160.327 65.1746L160.394 61.7063Z" fill="#262933"/>
<path d="M131.855 6.02234H114.39V8.93312H131.855V6.02234Z" fill="#262933"/>
<path d="M114.39 6.02234H111.48V8.93312H114.39V6.02234Z" fill="#C8A25F"/>
<path d="M160.929 10.6952H157.729V13.8959H160.929V10.6952Z" fill="#C8A25F"/>
<path d="M95.119 43.2267H86.1636V46.0706H95.119V43.2267Z" fill="#262933"/>
<path d="M95.119 48.29H86.1636V51.1338H95.119V48.29Z" fill="#262933"/>
<path d="M86.1636 43.2267H82.907V46.0706H86.1636V43.2267Z" fill="#C8A25F"/>
<path d="M86.1636 48.29H82.907V51.1338H86.1636V48.29Z" fill="#C8A25F"/>
<path d="M48.3345 27.1115C48.3368 27.8227 48.1277 28.5185 47.734 29.1108C47.3402 29.703 46.7795 30.165 46.1229 30.4382C45.4662 30.7114 44.7433 30.7835 44.0456 30.6453C43.348 30.507 42.7071 30.1648 42.2042 29.6619C41.7013 29.159 41.3591 28.5181 41.2209 27.8205C41.0827 27.1228 41.1547 26.3999 41.4279 25.7432C41.7011 25.0866 42.1631 24.5259 42.7553 24.1321C43.3476 23.7384 44.0434 23.5294 44.7546 23.5316C45.7041 23.5316 46.6146 23.9087 47.286 24.5801C47.9574 25.2515 48.3345 26.162 48.3345 27.1115Z" fill="#C8A25F"/>
<path d="M36.757 0.836426V35.239H71.1637V36.7602H35.243V0.836426H36.757Z" fill="#262933"/>
<path d="M48.1797 0.981012V0.836426H49.6938V0.981012C49.6938 6.6346 51.9395 12.0578 55.9383 16.0566C59.9372 20.0555 65.362 22.3025 71.0188 22.3025H71.1637V23.8237H71.0188C64.9628 23.8237 59.1532 21.4184 54.8698 17.1351C50.5863 12.8516 48.1797 7.04031 48.1797 0.981012Z" fill="#262933"/>
<path d="M48.1797 0.981012V0.836426H49.6938V0.981012C49.6938 6.6346 51.9395 12.0578 55.9383 16.0566C59.9372 20.0555 65.362 22.3025 71.0188 22.3025H71.1637V23.8237H71.0188C64.9628 23.8237 59.1532 21.4184 54.8698 17.1351C50.5863 12.8516 48.1797 7.04031 48.1797 0.981012Z" fill="#262933"/>
<path d="M0.299194 30.6331C5.97283 29.2307 11.9124 29.3159 17.5434 30.8807C23.1746 32.4455 28.3072 35.4374 32.4445 39.5667C36.5819 43.6961 39.5841 48.8234 41.1603 54.4532C42.7365 60.0829 42.8331 66.0244 41.4412 71.7025L39.9715 71.3391C41.3008 65.9162 41.2077 60.2418 39.7024 54.8651C38.1971 49.4884 35.3295 44.59 31.377 40.6452C27.4247 36.7007 22.521 33.8427 17.1402 32.3473C11.759 30.852 6.08194 30.7704 0.659968 32.1106L0.299194 30.6331Z" fill="#262933"/>
<path d="M71.9207 0.0758667V71.9243H0.0793457V0.0758667H71.9207ZM1.59341 70.4032H70.4066V1.59699H1.59341V70.4032Z" fill="#262933"/>
<path d="M19.1808 0.836426V18.4235H17.6667V0.836426H19.1808Z" fill="#262933"/>
<path d="M54.3333 36.0334V71.1639H52.8192V36.0334H54.3333Z" fill="#262933"/>
<path d="M66.0656 36.0334V71.1639H64.5515V36.0334H66.0656Z" fill="#262933"/>
<path d="M60.1994 36.0334V71.1639H58.6854V36.0334H60.1994Z" fill="#262933"/>
<path d="M36.0001 17.6522V19.1733H0.836426V17.6522H36.0001Z" fill="#262933"/>
</g>
<defs>
<clipPath id="clip0_3741_2030">
<rect width="198.848" height="72" fill="white"/>
</clipPath>
</defs>
</svg>
