<svg width="207" height="28" viewBox="0 0 207 28" fill="none" xmlns="http://www.w3.org/2000/svg">
<path d="M0 22.3157L4.58826 21.0937C5.02633 22.65 6.36361 23.7452 8.36953 23.7452C10.3985 23.7452 11.805 22.8114 11.9664 21.3358C12.2776 18.6497 6.97461 19.2146 4.12713 17.1164C2.78984 16.148 1.66007 14.3381 2.00592 12.0555C2.60539 8.05519 6.1561 5.40369 10.8481 5.40369C14.6294 5.43827 17.4077 7.55947 18.0302 10.7413L13.5918 11.9863C13.2229 10.43 12.1508 9.46164 10.3178 9.46164C8.32342 9.46164 6.97461 10.6491 6.75557 11.9863C6.3175 14.6033 10.5369 14.4534 13.1192 15.6754C15.6785 16.6783 17.3616 18.5459 16.9581 21.3934C16.3586 25.486 12.831 28.0107 7.74701 27.953C3.5853 27.9069 0.749338 25.5667 0 22.3157Z" fill="#262933"/>
<path d="M18.9871 22.1313L19.9901 15.9752H17.1541L17.7766 12.1709H20.5895L21.3043 7.67487H25.7427L25.0279 12.1709H29.2127L28.6132 15.9752H24.4285L23.5523 21.382C23.2987 23.0075 24.0826 23.9759 25.7427 23.9759C26.3422 23.9759 26.9301 23.8491 27.5526 23.63L26.9647 27.1922C25.8695 27.5381 24.8435 27.688 23.9097 27.688C20.2668 27.688 18.4568 25.3823 18.9871 22.1313Z" fill="#262933"/>
<path d="M30.3193 12.1709H34.7577L32.2907 27.6303H27.8523L30.3193 12.1709ZM30.8496 7.329C31.0687 6.04936 32.3483 4.95416 33.6856 4.95416C35.0229 4.95416 35.9682 6.04936 35.7492 7.329C35.5301 8.70086 34.2505 9.79605 32.9363 9.79605C31.599 9.79605 30.6306 8.70086 30.8496 7.329Z" fill="#262933"/>
<path d="M34.3773 19.9179C35.0921 15.4564 39.0578 11.8596 43.7498 11.8596C46.1823 11.8596 48.6839 13.0816 49.7791 15.2605L45.9402 17.8543C45.4675 16.7591 44.4069 16.102 43.1042 16.102C41.0176 16.102 39.0808 17.7852 38.7581 19.9064C38.4122 22.0045 39.7841 23.6876 41.8822 23.6876C43.2195 23.6876 44.5337 23.0305 45.3522 21.9353L48.315 24.5292C46.5396 26.5928 44.2225 27.93 41.1905 27.93C37.0634 27.9416 33.6626 24.3447 34.3773 19.9179Z" fill="#262933"/>
<path d="M52.3038 4.20483H56.673L54.5518 17.6007H56.6384L61.9184 12.1709H67.5096L59.9816 19.6988L65.1924 27.6303H59.9816L56.2004 21.7624H53.9293L52.984 27.6303H48.6147L52.3038 4.20483Z" fill="#262933"/>
<path d="M81.5856 21.1052H69.5386C69.7 23.1688 71.2563 24.3793 73.1008 24.3793C74.7263 24.3793 76.006 23.7913 77.0089 22.7538L79.6258 25.0018C77.8159 27.0654 75.4987 28.0337 72.3169 27.9992C67.8209 27.9646 64.6967 24.3447 65.4115 19.9063C66.1262 15.4449 69.6308 11.6636 74.8762 11.6636C79.5912 11.6751 82.8653 15.514 81.5856 21.1052ZM77.5969 18.1655C77.2856 16.3556 76.0636 15.3296 74.3228 15.3296C72.4783 15.3296 70.945 16.4824 70.1381 18.1655H77.5969Z" fill="#262933"/>
<path d="M84.0528 12.1708H88.4911L88.0877 14.7301C89.5863 13.0124 91.9266 11.9518 94.6127 11.9864L93.8979 16.517C91.9611 15.514 88.03 16.2979 87.2461 20.01L86.0241 27.6302H81.5857L84.0528 12.1708Z" fill="#262933"/>
<path d="M131.768 12.1707L129.336 27.6301H124.932L125.209 25.8548C123.837 27.0998 122.05 27.7915 119.963 27.7915C116.217 27.7915 113.092 24.6097 113.842 19.8946C114.591 15.1796 118.28 12.0208 122.43 12.0208C124.494 12.0208 126.085 12.7356 127.088 13.9921L127.364 12.1822H131.768V12.1707ZM126.142 19.8831C126.511 17.5774 125.013 15.7906 122.765 15.7906C120.517 15.7906 118.522 17.6005 118.142 19.8831C117.796 22.1657 119.202 24.0102 121.45 24.0102C123.71 24.0102 125.774 22.2233 126.142 19.8831Z" fill="#262933"/>
<path d="M133.67 12.1707H138.109L137.728 14.4533C138.916 12.897 140.668 12.0208 142.812 12.0208C146.121 12.0208 148.992 14.7415 148.219 19.6064L146.974 27.6301H142.536L143.758 19.9523C144.196 17.174 143.043 15.7329 141.037 15.7329C138.847 15.7329 137.325 17.2892 136.887 19.8255L135.642 27.6301H131.203L133.67 12.1707Z" fill="#262933"/>
<path d="M166.837 12.1707L164.405 27.6301H160.001L160.278 25.8548C158.906 27.0998 157.119 27.7915 155.032 27.7915C151.286 27.7915 148.162 24.6097 148.911 19.8946C149.66 15.1796 153.349 12.0208 157.499 12.0208C159.563 12.0208 161.154 12.7356 162.157 13.9921L162.434 12.1822H166.837V12.1707ZM161.212 19.8831C161.592 17.5774 160.093 15.7906 157.834 15.7906C155.586 15.7906 153.591 17.6005 153.211 19.8831C152.865 22.1657 154.272 24.0102 156.52 24.0102C158.779 24.0102 160.843 22.2233 161.212 19.8831Z" fill="#262933"/>
<path d="M166.711 19.8832C167.46 15.1682 171.299 12.0094 175.334 12.0094C177.42 12.0094 179.08 12.9201 179.922 14.3151L181.547 4.19324H185.951L182.239 27.6072H177.835L178.147 25.4514C176.867 26.8578 175.022 27.7571 172.844 27.7571C168.832 27.7801 165.961 24.5983 166.711 19.8832ZM179.046 19.8832C179.415 17.5776 177.916 15.7907 175.668 15.7907C173.42 15.7907 171.426 17.6006 171.045 19.8832C170.665 22.1658 172.106 24.0104 174.354 24.0104C176.602 24.0104 178.665 22.2235 179.046 19.8832Z" fill="#262933"/>
<path d="M202.206 12.1707L199.774 27.6301H195.37L195.646 25.8548C194.275 27.0998 192.488 27.7915 190.401 27.7915C186.654 27.7915 183.53 24.6097 184.28 19.8946C185.029 15.1796 188.718 12.0208 192.868 12.0208C194.932 12.0208 196.523 12.7356 197.526 13.9921L197.802 12.1822H202.206V12.1707ZM196.592 19.8831C196.972 17.5774 195.462 15.7906 193.214 15.7906C190.966 15.7906 188.972 17.6005 188.591 19.8831C188.245 22.1657 189.652 24.0102 191.9 24.0102C194.148 24.0102 196.211 22.2233 196.592 19.8831Z" fill="#262933"/>
<path d="M199.093 5.01165H197.802L197.918 4.23926H201.364L201.238 5.01165H199.947L199.439 8.22804H198.598L199.093 5.01165Z" fill="#262933"/>
<path d="M201.71 4.23926H202.667L203.555 6.52185L205.169 4.23926H206.206L205.572 8.22804H204.731L205.123 5.66876L203.785 7.58246H203.059L202.333 5.68029L201.929 8.22804H201.076L201.71 4.23926Z" fill="#262933"/>
<path d="M93.6096 16.7014C94.6126 10.43 99.9502 5.4613 106.567 5.4613C110.591 5.4613 114.095 7.83613 115.41 11.2946L110.948 13.4158C110.141 11.4445 108.262 10.1072 105.83 10.1072C102.175 10.1072 98.8665 13.07 98.3017 16.6899C97.7137 20.3097 100.054 23.2725 103.708 23.2725C106.21 23.2725 108.55 21.9006 109.957 19.8717L113.796 21.9929C111.363 25.5205 107.985 27.9299 103.028 27.9299C97.0797 27.9415 92.6067 22.9151 93.6096 16.7014Z" fill="#262933"/>
<path d="M107.49 0.884586C100.584 -1.75539 92.8373 1.71462 90.2088 8.62006C88.1222 14.0845 89.863 20.0677 94.1054 23.6414C94.1054 23.6414 94.6241 23.3302 95.2467 22.5923C96.1574 21.5087 97.5984 19.5604 99.2124 16.5169C103.293 8.81605 112.92 8.03213 115.963 13.6349L116.101 13.8885C116.286 8.29727 112.977 2.98273 107.49 0.884586Z" fill="#D42941"/>
<mask id="mask0_3741_2228" style="mask-type:luminance" maskUnits="userSpaceOnUse" x="94" y="9" width="23" height="15">
<path d="M99.2009 16.5053C97.5869 19.5488 96.1459 21.4971 95.2352 22.5807C94.6242 23.307 94.1169 23.6183 94.0939 23.6298C96.607 22.1311 99.5237 20.6786 102.383 19.3759C105.922 17.7619 109.38 16.3785 111.94 15.3986C114.418 14.4533 116.055 13.8884 116.078 13.8769V13.8654L115.94 13.6117C114.626 11.2023 112.101 9.96881 109.323 9.96881C105.645 9.96881 101.53 12.1131 99.2009 16.5053Z" fill="white"/>
</mask>
<g mask="url(#mask0_3741_2228)">
<path d="M97.3794 31.4576L89.2289 12.0094L112.804 2.14117L120.955 21.5894L97.3794 31.4576Z" fill="url(#paint0_linear_3741_2228)"/>
</g>
<defs>
<linearGradient id="paint0_linear_3741_2228" x1="105.414" y1="17.5759" x2="104.161" y2="14.586" gradientUnits="userSpaceOnUse">
<stop stop-color="#E6E6E5"/>
<stop offset="0.4693" stop-color="#EDEDEC"/>
<stop offset="1" stop-color="white"/>
</linearGradient>
</defs>
</svg>
