<svg width="201" height="28" viewBox="0 0 201 28" fill="none" xmlns="http://www.w3.org/2000/svg">
<path d="M200.502 23.4159C200.502 25.9488 198.45 27.9999 195.917 27.9999C193.385 27.9999 191.333 25.9488 191.333 23.4159C191.333 20.8829 193.385 18.8318 195.917 18.8318C198.437 18.8318 200.502 20.8829 200.502 23.4159Z" fill="#D42941"/>
<path d="M30.1337 19.7953V11.935H34.5664V8.08049H30.1337V2.78058H25.3982V8.08049H22.7689V11.935H25.2881V20.4148C25.2881 26.9399 30.6706 27.7383 33.3825 27.7383C34.2635 27.7383 34.8692 27.6282 34.8692 27.6282V23.3883C34.8692 23.3883 34.5251 23.4708 33.9882 23.4708C32.6529 23.4571 30.1337 23.0028 30.1337 19.7953Z" fill="#262933"/>
<path d="M43.9135 0.44043H39.7148V4.90062H43.9135V0.44043Z" fill="#262933"/>
<path d="M44.2989 22.6175V10.6686C44.2989 8.87906 43.528 8.08063 41.7384 8.08063H37.1268V12.1967H38.6549C39.1917 12.1967 39.4946 12.4582 39.4946 13.0364V24.944C39.4946 26.7748 40.2655 27.532 42.0551 27.532H46.6667V23.4435H45.1386C44.6018 23.4572 44.2989 23.1544 44.2989 22.6175Z" fill="#262933"/>
<path d="M59.7581 23.76C56.6333 23.76 53.6873 21.7363 53.6873 17.7717C53.6873 14.2614 56.0964 11.701 59.4553 11.701C60.6392 11.701 62.236 12.1552 62.236 13.229V14.3027H66.5172V12.0176C66.5172 8.65867 61.9745 7.62622 59.4553 7.62622C52.7788 7.62622 48.8004 12.3204 48.8004 17.813C48.8004 23.4571 52.9164 27.9999 59.3314 27.9999C64.6313 27.9999 67.5359 24.4895 67.5359 24.4895L65.5123 21.1306C65.5123 21.1306 63.0757 23.76 59.7581 23.76Z" fill="#262933"/>
<path d="M85.707 22.7275L83.4907 18.5289C82.8024 17.2762 82.1141 17.0009 82.1141 17.0009V16.9183C82.1141 16.9183 82.7198 16.6154 83.5595 15.3903L88.4877 8.06676H83.1053L79.1407 14.2064C78.7139 14.8121 77.9155 14.936 77.3098 14.936H75.8643V2.64296C75.8643 0.853382 75.0659 0.426636 73.2626 0.426636H68.6372V4.55643H70.1652C70.7021 4.55643 71.005 4.81798 71.005 5.39616V27.5319H75.8506V19.0245H76.9243C77.53 19.0245 78.3422 19.0658 78.7139 19.7541L81.9627 25.8662C82.7198 27.2841 83.3806 27.5456 85.0187 27.5456H88.6116V23.4571H87.3176C86.3953 23.4571 86.0099 23.3057 85.707 22.7275Z" fill="#262933"/>
<path d="M99.9134 7.61249C94.0766 7.61249 90.0294 11.8111 90.0294 17.7993C90.0294 23.3332 94.0353 27.9861 100.492 27.9861C105.337 27.9861 108.324 25.054 108.324 25.054L106.301 21.6951C106.301 21.6951 103.974 23.8701 100.836 23.8701C97.9036 23.8701 95.3844 22.0805 94.9989 18.639H108.435C108.435 18.639 108.545 17.4139 108.545 16.8494C108.545 11.701 105.489 7.61249 99.9134 7.61249ZM95.1366 15.2939C95.6735 12.8573 97.4218 11.3568 99.9134 11.3568C101.896 11.3568 103.506 12.9675 103.575 15.2939H95.1366Z" fill="#262933"/>
<path d="M117.892 12.8024H117.809C117.809 12.8024 117.892 12.3068 117.892 11.5772V10.4347C117.892 8.7965 117.011 8.0669 115.29 8.0669H110.857V12.1829H112.385C112.922 12.1829 113.225 12.4445 113.225 13.0226V27.532H118.029V19.823C118.029 18.6805 118.181 17.6067 118.456 16.6569C119.337 13.7522 121.705 12.5684 123.756 12.5684C124.444 12.5684 124.94 12.651 124.94 12.651V7.87418C124.94 7.87418 124.486 7.79156 124.059 7.79156C121.099 7.80533 118.773 10.0217 117.892 12.8024Z" fill="#262933"/>
<path d="M145.644 22.6174V3.02841C145.644 1.23883 144.846 0.426636 143.056 0.426636H138.431V4.55643H139.959C140.496 4.55643 140.798 4.81798 140.798 5.39616V8.83765C140.798 9.48465 140.84 9.98023 140.84 9.98023H140.757C140.757 9.98023 139.381 7.61248 135.141 7.61248C129.992 7.61248 126.289 11.6184 126.289 17.7993C126.289 23.8288 129.689 27.9861 134.948 27.9861C139.408 27.9861 141.019 24.82 141.019 24.82H141.087V25.5496C141.087 26.6921 141.734 27.5319 143.497 27.5319H147.957V23.4434H146.47C145.947 23.4571 145.644 23.1543 145.644 22.6174ZM136.022 23.9114C133.158 23.9114 131.217 21.5023 131.217 17.7993C131.217 13.9448 133.434 11.7698 136.104 11.7698C139.353 11.7698 140.909 14.7433 140.909 17.758C140.909 22.0805 138.541 23.9114 136.022 23.9114Z" fill="#262933"/>
<path d="M160.676 7.61249C154.757 7.61249 150.022 11.8524 150.022 17.7993C150.022 23.7875 154.757 27.9861 160.676 27.9861C166.637 27.9861 171.373 23.7875 171.373 17.7993C171.373 11.8524 166.637 7.61249 160.676 7.61249ZM160.676 23.8839C157.552 23.8839 154.909 21.4473 154.909 17.8131C154.909 14.2201 157.538 11.7423 160.676 11.7423C163.843 11.7423 166.486 14.2201 166.486 17.8131C166.486 21.4335 163.856 23.8839 160.676 23.8839Z" fill="#262933"/>
<path d="M184.547 23.4571C183.211 23.4571 180.692 23.0028 180.692 19.7953V11.935H185.125V8.08049H180.692V2.78058H175.957V8.08049H173.327V11.935H175.847V20.4148C175.847 26.9399 181.229 27.7383 183.941 27.7383C184.822 27.7383 185.428 27.6282 185.428 27.6282V23.3883C185.414 23.3745 185.07 23.4571 184.547 23.4571Z" fill="#262933"/>
<path d="M5.91937 7.28219C5.91937 5.16223 7.87414 4.11601 10.8889 4.11601C12.527 4.11601 14.9086 4.80433 14.9086 6.38741V7.70894H19.5064V5.176C19.5064 1.10127 13.9587 0 10.7237 0C5.27237 0 0.784661 2.38151 0.784661 7.50246C0.784661 16.12 15.3766 15.5968 15.3766 20.4012C15.3766 22.7276 13.2016 23.8427 10.7237 23.8427C8.19076 23.8427 6.13963 22.7965 4.72173 21.7778V17.9784H0V23.2783H0.013766L0 23.292C0 23.292 3.53786 28 10.6824 28C16.2852 28 20.5113 24.9302 20.5113 20.1809C20.5113 11.2468 5.91937 12.3481 5.91937 7.28219Z" fill="#262933"/>
</svg>
