<svg width="139" height="48" viewBox="0 0 139 48" fill="none" xmlns="http://www.w3.org/2000/svg">
<path d="M100.374 34.1038C100.326 34.2936 100.286 34.4762 100.257 34.6478C100.374 34.3703 100.494 34.0965 100.619 33.8226C100.546 33.9066 100.465 33.9979 100.374 34.1038Z" fill="#262933"/>
<path d="M55.0903 20.0917C55.0903 18.3355 56.569 16.908 58.3945 16.908C60.22 16.908 61.6987 18.3319 61.6987 20.0917C61.6987 21.8514 60.22 23.2753 58.3945 23.2753C56.5726 23.2753 55.0903 21.8478 55.0903 20.0917Z" fill="#3DD7D5"/>
<path d="M131.86 20.0917C131.86 18.3355 133.339 16.908 135.164 16.908C136.99 16.908 138.469 18.3319 138.469 20.0917C138.469 21.8514 136.99 23.2753 135.164 23.2753C133.339 23.2753 131.86 21.8478 131.86 20.0917Z" fill="#3DD7D5"/>
<path d="M108.804 30.1137C108.848 30.0736 108.892 30.0334 108.936 29.9896C109.487 29.0184 110.045 28.0509 110.622 27.087C110.016 28.0947 109.41 29.1024 108.804 30.1137ZM100.374 34.1043C100.326 34.2942 100.286 34.4767 100.257 34.6483C100.374 34.3708 100.494 34.097 100.619 33.8232C100.546 33.9071 100.465 33.9984 100.374 34.1043Z" fill="#262933"/>
<path d="M138.224 35.9224C136.245 39.0952 131.714 44.8309 127.194 44.8309C124.31 44.8309 122.561 42.6622 122.247 39.9787C121.641 40.6943 120.995 41.3807 120.316 42.0342C118.983 43.3157 117.461 44.506 115.657 44.9112C113.85 45.3201 111.721 44.7542 110.765 43.1697C109.976 41.8626 110.133 40.2087 110.44 38.7154C111.196 35.0279 112.733 31.5047 114.923 28.4451C114.233 27.7514 113.079 28.4342 112.4 29.1352C108.11 33.5639 105.266 39.1134 103.861 45.0938C103.601 46.2037 101.166 45.1778 100.505 44.8419C99.3808 44.2723 98.6506 43.2573 98.4462 42.016C98.3367 41.4172 98.333 40.8148 98.3987 40.216C95.9306 42.6293 92.4476 44.8857 88.2489 44.8857C86.982 44.8857 83.5098 44.4074 82.2685 41.085C80.6401 43.6078 78.3948 45.521 75.1855 45.521C67.6644 45.521 65.576 35.1447 65.576 35.1447H65.5213V35.1995C64.7436 37.4778 63.6118 39.7231 63.4584 42.1657C63.4073 42.9287 63.6629 44.0167 63.1152 44.6593C62.5822 45.2909 61.538 45.2033 60.7968 45.2106C59.833 45.2179 58.8837 44.9879 58.1243 44.3928C57.0618 43.5567 56.8209 42.2861 56.9596 41.0338C54.8968 43.1113 52.4177 44.8309 49.9423 44.8309C47.2041 44.8309 45.4881 42.874 45.0573 40.3803C43.1587 42.8995 40.4205 45.2289 37.9414 45.2289C33.06 45.2289 31.4682 42.5636 31.4682 39.4858C31.4682 39.128 31.4828 38.7739 31.512 38.4197C29.2118 43.962 23.9507 48 17.0028 48C7.47729 48 0 41.9941 0 32.9797C0 26.7182 4.28265 21.4132 10.1608 21.4132C11.6066 21.4132 12.9575 21.9207 13.9798 22.954C15.1663 24.1552 16.572 26.3823 14.5347 27.5105C13.9396 27.839 13.2569 27.996 12.6691 28.3356C11.4496 29.0402 10.8654 30.4678 10.8654 31.8296C10.8654 35.8567 13.6147 38.1568 17.514 38.1568C23.0745 37.7735 24.7357 32.5963 24.7357 28.4415C24.7357 23.2643 20.7086 17.2584 20.7086 10.8654C20.7086 5.04936 24.4144 0 30.8694 0C35.8567 0 39.756 3.26036 39.756 8.69309C39.756 12.5267 37.7114 15.2138 34.8965 15.2138C33.6332 15.2138 32.1327 14.7282 31.282 13.7424C30.7708 13.151 30.4641 12.4755 31.03 11.8001C31.271 11.5153 31.5886 11.2817 31.8917 11.0662C33.3959 9.98555 32.9651 7.35316 30.8694 7.35316C29.5295 7.35316 27.2293 8.05416 27.2293 11.5701C27.2293 15.787 32.7862 22.9467 32.7862 31.9574C32.7862 32.4978 32.7606 33.0345 32.7132 33.5675C33.8304 30.7343 35.5354 28.0618 37.0871 25.5827C37.3938 25.0971 31.4901 22.4465 31.0556 21.9207C29.953 20.5699 33.3959 19.1131 34.3598 19.1131C35.5281 19.1131 37.6493 20.5297 40.0444 21.7053C41.0083 20.5443 42.0233 19.4161 43.1222 18.3792C43.8634 17.6819 44.6557 16.9663 45.5684 16.499C46.4885 16.028 47.8065 16.2507 48.5805 16.9225C48.9967 17.2803 49.2413 17.7622 49.256 18.3099C49.2742 18.8648 48.8981 19.4417 48.6207 19.9017C48.2519 20.5151 47.8174 21.081 47.3793 21.6433C47.1603 21.928 46.9412 22.2092 46.7258 22.494C46.6345 22.6181 46.2439 23.2388 46.0869 23.2388C46.5286 23.2351 47.0106 23.1803 47.4414 23.0781C47.9452 22.954 48.2483 22.7057 48.6024 22.3516C48.7923 22.0996 48.942 21.771 49.2596 21.6542C50.3732 21.2526 50.731 23.2278 50.6872 23.9471C50.6287 24.962 50.1322 25.9624 49.3983 26.6598C48.0548 27.9376 46.1051 28.2991 44.3161 28.2991C43.805 28.2991 43.2902 28.237 42.7717 28.1275C40.6614 31.5594 38.8651 35.1521 38.8651 37.3865C38.8651 37.9998 39.1134 39.0112 40.2343 39.0112C42.2387 39.0112 44.3964 36.649 45.6232 35.2397C47.2479 30.0005 51.3918 24.0018 53.7211 24.0018C56.6566 24.0018 57.4671 26.2399 57.4671 26.8387C57.4671 27.6565 51.976 33.8085 51.976 36.9885C51.976 37.6019 52.2352 38.6132 53.3962 38.6132C55.3459 38.6132 57.4342 36.5431 58.7377 35.1228C61.4759 27.0066 64.404 19.0875 65.8644 10.5551C65.901 10.3616 65.9375 10.1571 66.0762 10.0148C66.2076 9.87967 66.4048 9.83586 66.5874 9.803C69.9938 9.21883 72.8379 11.7709 71.7828 15.2649C70.5195 19.438 69.1467 23.6112 67.8287 27.7843C70.3516 25.371 73.6484 23.173 76.2297 23.173C79.6325 23.173 81.6661 25.1482 81.6661 28.2808C81.6661 29.6646 80.9213 30.9534 79.9282 31.8698C77.5696 34.0494 76.6021 29.9384 74.4152 29.5441C74.1961 29.4893 73.9223 29.4893 73.6484 29.4893C72.8233 29.4893 71.9471 29.6536 71.0124 30.0917C71.6148 33.1111 73.6484 39.4822 77.0512 39.4822C80.7862 39.4822 82.6519 34.1553 82.6519 34.1553H82.6592C84.5285 29.1315 89.3077 23.9763 94.7513 23.9763C99.6474 23.9763 100.619 26.9445 100.619 27.9084C100.619 29.2849 99.7131 30.6321 98.5776 31.355C97.9131 31.7785 96.6316 32.0341 95.8649 31.8807C93.196 31.344 97.3983 28.0399 95.0325 27.4484C93.5903 27.0942 90.5016 29.3141 88.99 32.2896C87.3945 35.4332 88.457 37.7552 89.9612 38.2919C94.8937 40.0517 98.8551 35.8421 100.374 34.1042C100.326 34.2941 100.286 34.4766 100.257 34.6482C100.374 34.3707 100.494 34.0969 100.619 33.8231C100.546 33.9071 100.465 33.9983 100.374 34.1042C102.031 27.5068 114.073 11.0042 118.224 11.4204C118.815 11.4788 119.359 11.822 119.721 12.2857C120.042 12.6983 120.283 13.3007 120.316 13.8264C120.345 14.2609 120.071 14.4654 119.765 14.71C119.67 14.783 119.578 14.8633 119.487 14.9436C119.25 15.1627 119.02 15.3964 118.797 15.6337C117.548 16.97 116.431 18.434 115.347 19.9054C115.347 19.9054 115.336 19.92 115.31 19.9565C113.81 21.9719 112.43 24.0894 111.123 26.2509C110.951 26.5283 110.787 26.8058 110.622 27.0869C110.016 28.0946 109.41 29.1023 108.804 30.1136C108.848 30.0735 108.892 30.0333 108.936 29.9895C110.677 28.3721 112.152 26.3969 114.248 25.2833C116.398 24.1369 119.586 24.3523 120.681 26.5283C121.564 28.2881 120.692 30.4094 119.659 32.0888C118.625 33.7683 117.373 35.5172 117.508 37.4851C117.526 37.7735 117.585 38.0802 117.775 38.2992C118.326 38.9272 119.341 38.3905 119.973 37.8429C120.929 37.0104 121.882 36.1853 122.839 35.3565L122.842 35.3529C124.438 30.0844 128.629 24.0018 130.973 24.0018C133.912 24.0018 134.719 26.2399 134.719 26.8387C134.719 27.6565 129.228 33.8085 129.228 36.9885C129.228 37.6019 129.487 38.6132 130.648 38.6132C133.616 38.6132 136.913 33.8085 137.268 33.8085C137.625 33.8085 138.695 35.1703 138.224 35.9224Z" fill="#262933"/>
</svg>
