<svg width="156" height="120" viewBox="0 0 156 120" fill="none" xmlns="http://www.w3.org/2000/svg">
<path d="M108.707 96.5948H65.4473V60.8876H105.746L108.707 96.5948Z" fill="#DBDBDD"/>
<path d="M108.707 97.541H65.4473C64.9246 97.541 64.501 97.1173 64.501 96.5947V60.8875C64.501 60.3649 64.9246 59.9412 65.4473 59.9412H105.746C106.238 59.9412 106.649 60.3186 106.689 60.8093L109.65 96.5165C109.672 96.7802 109.583 97.0409 109.403 97.2356C109.224 97.4302 108.972 97.541 108.707 97.541ZM66.3936 95.6484H107.679L104.875 61.8338H66.3936V95.6484Z" fill="#262933"/>
<path d="M108.706 96.5948C103.599 96.5948 98.3426 92.2813 94.2861 84.7601C89.7142 76.283 87.1963 64.9315 87.1963 52.7965C87.1963 40.6616 89.7142 29.3101 94.2861 20.8328C98.3426 13.3116 103.599 8.99805 108.706 8.99805C113.814 8.99805 119.07 13.3116 123.126 20.8328C127.698 29.31 130.216 40.6616 130.216 52.7965C130.216 64.9315 127.698 76.283 123.126 84.7601C119.07 92.2813 113.814 96.5948 108.706 96.5948Z" fill="white"/>
<path d="M108.706 97.541C103.239 97.541 97.6799 93.0462 93.4533 85.2092C88.8083 76.5963 86.25 65.0854 86.25 52.7965C86.25 40.5077 88.8083 28.9966 93.4533 20.3836C97.6799 12.5466 103.239 8.05176 108.706 8.05176C114.173 8.05176 119.733 12.5466 123.959 20.3836C128.604 28.9966 131.163 40.5077 131.163 52.7965C131.163 65.0854 128.604 76.5963 123.959 85.2092C119.733 93.0462 114.173 97.541 108.706 97.541ZM108.706 9.94434C103.957 9.94434 99.0052 14.0768 95.1192 21.2819C90.6204 29.6238 88.1426 40.8158 88.1426 52.7965C88.1426 64.7772 90.6204 75.9691 95.1192 84.3108C99.0052 91.516 103.957 95.6484 108.706 95.6484C113.456 95.6484 118.408 91.516 122.293 84.3108C126.792 75.9691 129.27 64.7772 129.27 52.7965C129.27 40.8158 126.792 29.6238 122.293 21.2819C118.408 14.0768 113.455 9.94434 108.706 9.94434Z" fill="#262933"/>
<path d="M109.052 90.4537C104.662 90.4537 100.217 86.6491 96.8573 80.0153C93.1928 72.7799 91.1748 63.1135 91.1748 52.7965C91.1748 42.4796 93.1928 32.8132 96.8573 25.5774C100.217 18.9437 104.662 15.139 109.052 15.139C113.442 15.139 117.887 18.9437 121.247 25.5774C124.911 32.8132 126.929 42.4797 126.929 52.7965C126.929 63.1134 124.911 72.7799 121.247 80.0153C117.887 86.6491 113.442 90.4537 109.052 90.4537ZM109.052 17.0317C105.401 17.0317 101.572 20.4582 98.5457 26.4326C95.0129 33.4082 93.0674 42.7712 93.0674 52.7965C93.0674 62.8219 95.0129 72.1849 98.5457 79.1602C101.572 85.1346 105.401 88.5611 109.052 88.5611C112.703 88.5611 116.532 85.1346 119.558 79.1602C123.091 72.1849 125.037 62.822 125.037 52.7965C125.037 42.771 123.091 33.4082 119.558 26.4326C116.532 20.4582 112.703 17.0317 109.052 17.0317Z" fill="#DBDBDD"/>
<path d="M109.712 84.3165C106.384 84.3165 103.046 81.1005 100.554 75.4932C97.8724 69.4574 96.3955 61.397 96.3955 52.7966C96.3955 44.1961 97.8725 36.1357 100.554 30.0998C103.046 24.4924 106.383 21.2764 109.712 21.2764C113.04 21.2764 116.378 24.4923 118.869 30.0997C121.551 36.1357 123.028 44.1961 123.028 52.7965C123.028 61.3969 121.551 69.4574 118.869 75.4931C116.378 81.1005 113.04 84.3165 109.712 84.3165ZM109.712 23.169C107.203 23.169 104.426 26.0472 102.284 30.8683C99.707 36.6675 98.2881 44.4551 98.2881 52.7966C98.2881 61.1381 99.707 68.9256 102.284 74.7246C104.426 79.5457 107.203 82.4239 109.712 82.4239C112.221 82.4239 114.997 79.5457 117.14 74.7246C119.716 68.9256 121.135 61.138 121.135 52.7966C121.135 44.4552 119.716 36.6675 117.14 30.8683C114.997 26.0473 112.221 23.169 109.712 23.169Z" fill="#DBDBDD"/>
<path d="M110.057 76.8954C108.158 76.8954 106.204 74.522 104.696 70.3836C102.997 65.7193 102.061 59.4734 102.061 52.7964C102.061 46.1194 102.997 39.8735 104.696 35.2091C106.204 31.0707 108.158 28.6973 110.057 28.6973C111.955 28.6973 113.909 31.0707 115.417 35.2091C117.117 39.8735 118.053 46.1194 118.053 52.7964C118.053 59.4734 117.117 65.7193 115.417 70.3836C113.909 74.522 111.955 76.8954 110.057 76.8954Z" fill="#D4D4D6"/>
<path d="M110.057 77.8418C107.703 77.8418 105.484 75.3082 103.807 70.7078C102.07 65.9423 101.114 59.5813 101.114 52.7964C101.114 46.0115 102.07 39.6506 103.807 34.8852C105.484 30.2846 107.703 27.751 110.057 27.751C112.411 27.751 114.63 30.2846 116.306 34.8852C118.043 39.6506 118.999 46.0115 118.999 52.7964C118.999 59.5813 118.043 65.9423 116.306 70.7076C114.63 75.3081 112.411 77.8418 110.057 77.8418ZM110.057 29.6436C108.933 29.6436 107.168 31.1908 105.585 35.5333C103.923 40.0961 103.007 46.227 103.007 52.7964C103.007 59.3657 103.923 65.4968 105.585 70.0598C107.168 74.4019 108.933 75.9491 110.057 75.9491C111.181 75.9491 112.946 74.4019 114.528 70.0598C116.191 65.4968 117.106 59.3659 117.106 52.7964C117.106 46.2269 116.191 40.0961 114.528 35.5331C112.946 31.1908 111.181 29.6436 110.057 29.6436Z" fill="#262933"/>
<path d="M110.056 71.838C108.907 71.838 107.724 69.9626 106.811 66.6927C105.782 63.0073 105.216 58.0722 105.216 52.7965C105.216 47.5207 105.782 42.5856 106.811 38.9001C107.724 35.6302 108.907 33.7549 110.056 33.7549C111.206 33.7549 112.388 35.6302 113.301 38.9001C114.33 42.5856 114.897 47.5207 114.897 52.7965C114.897 58.0722 114.33 63.0073 113.301 66.6927C112.388 69.9626 111.206 71.838 110.056 71.838Z" fill="#DBDBDD"/>
<path d="M109.807 9.00939C104.499 8.3329 96.6674 13.1333 91.5629 26.3047C86.2886 39.9142 87.2976 52.8453 87.4909 60.8474C88.1395 87.6954 79.5607 104.54 76.612 109.51C76.0443 110.467 75.0166 111.054 73.9039 111.054H26.8369C25.46 111.054 24.5417 109.625 25.1226 108.377C36.9823 82.8909 37.2279 52.7527 37.2279 52.7527C37.2279 40.6178 39.7457 29.2663 44.3177 20.789C46.4727 16.7934 49.6576 13.9972 53.0866 12.1057C56.8648 10.0216 61.1411 9.00942 65.456 9.00942L109.807 9.00939Z" fill="white"/>
<path d="M73.9044 112H26.8374C25.8635 112 24.9692 111.509 24.4454 110.688C23.9235 109.87 23.8561 108.856 24.2652 107.978C35.8977 82.9799 36.2794 53.0443 36.2819 52.7449C36.2819 40.4639 38.8401 28.9528 43.4851 20.3397C45.5322 16.5444 48.6088 13.4952 52.63 11.2771C56.4415 9.1745 60.8768 8.06307 65.4564 8.06307H107.701C108.459 7.97696 109.204 7.97859 109.928 8.07061C110.423 8.13387 110.784 8.57102 110.752 9.06936C110.721 9.56769 110.307 9.95569 109.808 9.95569H107.775C102.871 10.5748 96.6916 15.6906 92.4456 26.6467C87.7398 38.79 88.1168 50.6025 88.3665 58.4192C88.3934 59.2626 88.4191 60.0658 88.4375 60.8245C89.0965 88.1159 80.1761 105.359 77.4262 109.993C76.6921 111.231 75.3425 112 73.9044 112ZM65.4564 9.95571C61.1958 9.95571 57.0765 10.9857 53.544 12.9343C49.8464 14.9741 47.0226 17.7678 45.151 21.2381C40.6522 29.5799 38.1745 40.772 38.1745 52.7527C38.172 53.0639 37.7909 83.3976 25.9809 108.776C25.8443 109.07 25.8662 109.396 26.0411 109.67C26.218 109.948 26.5083 110.107 26.8374 110.107H73.9044C74.6777 110.107 75.4036 109.694 75.7987 109.028C78.4832 104.503 87.1924 87.6571 86.5454 60.8703C86.5271 60.116 86.5016 59.318 86.475 58.4795C86.2204 50.5096 85.8356 38.4654 90.6811 25.9627C93.0691 19.8003 96.2908 14.8829 99.9974 11.7421C100.808 11.0553 101.635 10.4586 102.468 9.95569L65.4564 9.95571Z" fill="#262933"/>
<g filter="url(#filter0_d_9_21866)">
<path d="M71.2278 53.94L71.1095 53.9363C67.8315 53.7674 64.5071 52.6971 61.2094 50.7532C58.8502 51.9549 55.4363 53.4138 51.6967 53.4138L51.5501 53.413C47.534 53.3625 44.3447 51.43 43.2214 48.3698C40.8942 42.029 45.4673 36.7709 47.6334 34.4766C47.0449 32.4579 46.8469 30.4959 47.0452 28.6382C47.3779 25.5122 48.8118 22.7373 51.1907 20.6138C53.6513 18.4185 56.9478 17.1597 60.2352 17.1597H60.2923C63.7403 17.1744 66.5427 18.6933 68.8505 20.2647C72.0193 18.6839 75.2073 17.3133 79.0102 17.3133H79.0928C83.4789 17.3375 86.0644 20.3288 86.6829 23.2819C87.6543 27.9218 85.3004 33.1598 80.3726 37.3866C81.1164 39.5802 81.8015 42.6249 81.3221 45.5941C81.3065 45.7148 81.2852 45.8261 81.2593 45.9362L81.2453 45.9957C80.6326 48.6363 79.3622 50.6825 77.4704 52.0753C75.7885 53.3136 73.7574 53.9412 71.434 53.9412L71.2278 53.94Z" fill="url(#paint0_linear_9_21866)"/>
</g>
<path d="M84.1668 23.8234C83.7624 21.8921 82.0339 19.9363 79.0839 19.9201C75.2959 19.8978 71.9583 21.595 68.7377 23.2349L68.6327 23.2884C66.2815 21.58 63.6173 19.7807 60.2795 19.7665C60.2646 19.7664 60.2501 19.7664 60.2352 19.7664C57.5638 19.7664 54.8889 20.7869 52.8904 22.5702C51.0016 24.2559 49.8645 26.4509 49.6017 28.9182C49.3952 30.8551 49.7241 32.9472 50.5791 35.145C47.6888 38.1249 43.7936 42.4527 45.6319 47.4609C46.3758 49.4877 48.6511 50.7697 51.5695 50.8064C55.0629 50.8438 58.4367 49.3331 61.3139 47.7569C64.654 49.963 67.985 51.1653 71.2225 51.332C71.2328 51.3326 71.2431 51.3329 71.2534 51.3332C71.3139 51.334 71.3739 51.3346 71.4337 51.3346C73.2033 51.3346 74.7251 50.8745 75.959 49.9662C77.3377 48.9515 78.2742 47.4135 78.7422 45.3969L78.7587 45.3261C78.7655 45.2976 78.7709 45.2687 78.7748 45.2399L78.781 45.1917C79.3224 41.8811 78.0405 38.279 77.2844 36.5304C81.393 33.4959 85.1898 28.7079 84.1668 23.8234Z" fill="#262933"/>
<path d="M73.3341 35.5756C72.3027 38.6103 69.8108 42.5068 66.4926 42.5449C63.2521 42.5821 62.4049 38.2149 63.3009 35.5334C64.4161 32.1961 67.013 28.543 70.4681 28.543C74.521 28.543 74.1239 33.252 73.3341 35.5756Z" fill="white"/>
<path d="M66.4513 43.3971C65.1545 43.3971 64.0568 42.8307 63.274 41.7567C61.9457 39.9346 61.8756 37.111 62.493 35.2634C64.3607 29.6741 67.9567 27.691 70.4685 27.691C72.3071 27.691 73.2997 28.5379 73.8087 29.2484C75.0981 31.0487 74.7936 33.9297 74.1411 35.8498C73.527 37.657 72.5341 39.4391 71.4175 40.739C69.9411 42.4578 68.2415 43.3768 66.5028 43.3968C66.4855 43.397 66.4683 43.3971 66.4513 43.3971ZM70.4685 29.395C67.5548 29.395 65.175 32.6136 64.1091 35.8034C63.5598 37.4478 63.7925 39.5756 64.6509 40.7529C65.1186 41.3944 65.7194 41.7008 66.483 41.6929C69.1538 41.6623 71.4887 38.3581 72.5278 35.3013C73.0908 33.6449 73.2356 31.3747 72.4235 30.2407C72.0158 29.6717 71.3764 29.395 70.4685 29.395Z" fill="#262933"/>
<path d="M71.144 31.95C69.9511 31.9487 68.5408 33.0198 67.6929 34.5073C67.5398 34.7759 67.5859 35.0528 67.7978 35.1976C68.1198 35.4176 68.2813 35.5277 68.6051 35.7481C68.8978 35.9473 68.8623 36.3778 68.5304 36.6845C68.0861 37.095 67.8659 37.3 67.4294 37.7094C67.1959 37.9284 67.1068 38.2243 67.2139 38.4484C67.5227 39.0944 68.0747 39.4941 68.7919 39.4998C70.274 39.5114 71.9061 37.8324 72.5649 35.7405C73.2238 33.6487 72.6413 31.9515 71.144 31.95Z" fill="#262933"/>
<path d="M64.6834 35.5603C63.6881 38.5834 61.2424 42.4453 57.9369 42.4802C54.7064 42.5145 53.7503 38.2374 54.6511 35.5189C55.7577 32.1793 58.461 28.5717 61.8971 28.5717C65.4331 28.5717 65.4435 33.2512 64.6834 35.5603Z" fill="white"/>
<path d="M57.8981 43.3325C56.5755 43.3325 55.4537 42.7525 54.6509 41.6533C53.4645 40.0282 53.132 37.3954 53.8426 35.2509C55.0851 31.5022 58.0574 27.7197 61.8974 27.7197C63.183 27.7197 64.2369 28.237 64.945 29.2156C66.3187 31.1142 66.0254 34.2094 65.4932 35.8267H65.4929C64.2719 39.5358 61.4648 43.2949 57.9462 43.3322C57.9301 43.3323 57.914 43.3325 57.8981 43.3325ZM61.8974 29.4237C58.9235 29.4237 56.4759 32.7222 55.4603 35.7869C54.9294 37.3887 55.1731 39.4788 56.0271 40.6484C56.5022 41.2988 57.1319 41.6283 57.8997 41.6283C57.909 41.6283 57.9186 41.6283 57.9282 41.6282C60.5902 41.6001 62.8766 38.325 63.8747 35.2939C64.3919 33.7226 64.4174 31.393 63.5645 30.2146C63.1795 29.6825 62.634 29.4237 61.8974 29.4237Z" fill="#262933"/>
<path d="M62.8864 31.9616C61.7008 31.9604 60.2967 33.0249 59.4593 34.5011C59.3081 34.7676 59.3565 35.0424 59.5697 35.186C59.8937 35.4043 60.056 35.5135 60.3813 35.7321C60.6752 35.9297 60.6437 36.3568 60.3149 36.6611C59.8748 37.0684 59.6565 37.2718 59.2234 37.6781C58.9918 37.8954 58.9053 38.189 59.0149 38.4115C59.3305 39.0527 59.8871 39.4496 60.6031 39.4552C62.0827 39.4668 63.6836 37.7999 64.3193 35.7244C64.9549 33.649 64.3746 31.9631 62.8864 31.9616Z" fill="#262933"/>
<g filter="url(#filter1_d_9_21866)">
<path d="M44.9213 101.805C40.8946 101.748 37.9267 99.6744 36.9746 96.2568C35.8509 92.2243 37.7702 87.2106 42.68 81.3496C41.9419 79.2085 41.5152 77.152 41.41 75.2302C41.2248 71.8294 42.0179 68.9281 43.7668 66.6062C45.8224 63.8778 48.9037 62.3754 52.4429 62.3754L52.5624 62.3758C55.5669 62.4177 58.8539 63.61 62.1048 65.8287C66.1956 63.7554 69.8851 62.6612 72.7984 62.6612L72.9483 62.662C76.9755 62.7187 79.9442 64.7924 80.8971 68.2101C82.0212 72.2418 80.0998 77.2575 75.1855 83.1231C75.8858 85.1348 76.2887 87.0278 76.4152 88.8962L76.4452 89.3381L73.0469 92.0251L73.067 90.2622C73.1011 87.2697 72.1815 84.639 71.4865 82.9206L71.291 82.4367L71.6373 82.0465C76.4161 76.6632 78.489 72.1933 77.6322 69.1202C77.0905 67.1763 75.4147 66.0862 72.9134 66.0513L72.7984 66.0505C70.1057 66.0505 66.4741 67.2642 62.297 69.5609L61.814 69.8263L61.3778 69.4895C58.2698 67.0904 55.2116 65.8024 52.5333 65.765L52.4425 65.7646C49.9938 65.7646 47.874 66.7877 46.4735 68.6454C45.2191 70.3109 44.654 72.4643 44.7944 75.0453C44.9029 77.0353 45.4347 79.2261 46.3753 81.5557L46.5704 82.0391L46.2246 82.4289C41.4528 87.8069 39.3831 92.2735 40.2395 95.3465C40.7809 97.2905 42.4562 98.3806 44.9567 98.4155L45.0713 98.4163C47.7578 98.4163 51.3808 97.2067 55.5484 94.919L56.0298 94.6549L56.4651 94.9888C58.4814 96.5343 60.8352 97.7493 62.9242 98.3222L64.5276 98.7621L61.2406 101.361L60.8024 101.205C58.7648 100.481 56.9921 99.4583 55.7579 98.6413C51.6695 100.713 47.9825 101.806 45.0713 101.806L44.9213 101.805Z" fill="url(#paint1_linear_9_21866)"/>
<path d="M72.267 82.6054C77.2472 76.9947 79.3817 72.2612 78.443 68.8944C77.8016 66.5931 75.7906 65.2503 72.9257 65.2103C70.0694 65.1725 66.2681 66.4183 61.8922 68.8239C58.6359 66.31 55.4152 64.9642 52.5456 64.9239C49.784 64.8952 47.394 66.0274 45.8027 68.1393C44.4249 69.968 43.8034 72.3068 43.9552 75.091C44.069 77.1759 44.6206 79.4541 45.5961 81.871C40.6226 87.4758 38.4916 92.206 39.4298 95.5725C40.0709 97.8738 42.0813 99.2164 44.9453 99.2566C47.7859 99.2944 51.5876 98.0533 55.9541 95.6564C57.7774 97.0545 60.754 99.0992 63.2413 99.7816L74.4802 90.8941C74.5137 87.9612 73.1236 84.7238 72.267 82.6054Z" fill="#262933"/>
<path d="M68.2097 82.2577C67.2691 86.4869 64.2759 89.9094 61.524 89.902C58.7722 89.8946 57.3038 86.4601 58.2444 82.2309C59.185 78.0016 62.1782 74.5792 64.9301 74.5866C67.6819 74.594 69.1503 78.0285 68.2097 82.2577Z" fill="white"/>
<path d="M61.5325 90.7851H61.5213C60.2962 90.7818 59.2275 90.2534 58.4307 89.2574C57.1304 87.6317 56.7385 84.9332 57.382 82.0391C58.4222 77.3621 61.7321 73.7035 64.921 73.7035H64.9322C66.1572 73.7069 67.226 74.2351 68.0228 75.2312C69.3231 76.8569 69.715 79.5552 69.0715 82.4493C68.0312 87.1264 64.7214 90.7851 61.5325 90.7851ZM64.9207 75.4694C62.6061 75.4694 59.9446 78.6508 59.1059 82.4225C58.5851 84.7642 58.8549 86.9604 59.8099 88.1543C60.2672 88.7263 60.8447 89.0172 61.5262 89.019C61.5281 89.019 61.5308 89.0191 61.5327 89.0191C63.8473 89.0194 66.5088 85.8376 67.3475 82.066C67.8683 79.7244 67.5986 77.5282 66.6435 76.3343C66.1863 75.7623 65.6088 75.4714 64.9273 75.4696C64.9254 75.4696 64.9226 75.4694 64.9207 75.4694Z" fill="#262933"/>
<path d="M65.6991 78.3151C64.5208 78.3119 63.2602 79.4788 62.5406 81.1029C62.4107 81.3961 62.4774 81.6983 62.6986 81.8559L63.5391 82.4548C63.843 82.6713 63.8341 83.1405 63.5198 83.4759L62.4679 84.5982C62.2429 84.8384 62.1627 85.1622 62.2751 85.4066C62.599 86.1111 63.1527 86.5449 63.8684 86.5469C65.3475 86.5509 66.9563 84.7113 67.4619 82.4382C67.9674 80.1651 67.1782 78.3191 65.6991 78.3151Z" fill="#262933"/>
<path d="M59.6238 82.2577C58.6832 86.4869 55.6899 89.9094 52.9381 89.902C50.1863 89.8946 48.7179 86.4601 49.6585 82.2309C50.599 78.0017 53.5923 74.5792 56.3441 74.5866C59.096 74.594 60.5643 78.0285 59.6238 82.2577Z" fill="white"/>
<path d="M52.9466 90.7851H52.9353C51.7103 90.7818 50.6416 90.2534 49.8448 89.2574C48.5444 87.6317 48.1526 84.9332 48.7961 82.0391C49.8363 77.3621 53.1462 73.7035 56.335 73.7035H56.3463C57.5713 73.7069 58.64 74.2351 59.4368 75.2312C60.7372 76.8569 61.129 79.5552 60.4855 82.4493C59.4453 87.1264 56.1354 90.7851 52.9466 90.7851ZM56.3348 75.4694C54.0202 75.4694 51.3587 78.6508 50.52 82.4225C49.9992 84.7642 50.2689 86.9604 51.224 88.1543C51.6813 88.7263 52.2587 89.0172 52.9403 89.019C52.9422 89.019 52.9449 89.0191 52.9468 89.0191C55.2614 89.0194 57.9229 85.8376 58.7616 82.066C59.2824 79.7244 59.0127 77.5282 58.0576 76.3343C57.6003 75.7623 57.0229 75.4714 56.3413 75.4696C56.3394 75.4696 56.3367 75.4694 56.3348 75.4694Z" fill="#262933"/>
<path d="M57.5077 78.3151C56.3294 78.3119 55.0688 79.4788 54.3492 81.1029C54.2193 81.3961 54.286 81.6983 54.5072 81.8559L55.3477 82.4548C55.6516 82.6713 55.6427 83.1405 55.3284 83.4759L54.2765 84.5982C54.0515 84.8384 53.9713 85.1622 54.0836 85.4066C54.4076 86.1111 54.9613 86.5449 55.677 86.5469C57.1561 86.5509 58.7649 84.7113 59.2705 82.4382C59.776 80.1651 58.9868 78.3191 57.5077 78.3151Z" fill="#262933"/>
</g>
<path d="M61.135 99.9383C61.0465 98.6329 61.1155 97.3412 61.3391 96.0985L61.3527 96.0244C61.3664 95.9454 61.3852 95.8627 61.4074 95.779L61.4254 95.7103C62.084 93.2413 63.32 91.3024 65.0995 89.9458C66.337 89.0016 67.7494 88.4057 69.2979 88.1744L69.3378 88.1696C69.8266 88.1231 70.3173 88.0999 70.7966 88.0999C71.3914 88.0999 71.9872 88.136 72.5676 88.2072C73.4151 88.3422 74.2785 88.5673 75.1603 88.8806L76.4479 89.3381L61.2317 101.37L61.135 99.9383Z" fill="url(#paint2_linear_9_21866)"/>
<path d="M113.925 41.575C113.741 40.6278 113.534 39.7308 113.302 38.9001C112.389 35.6302 111.207 33.7549 110.057 33.7549C108.908 33.7549 107.725 35.6302 106.812 38.9001C105.783 42.5856 105.217 47.5208 105.217 52.7965C105.217 54.1018 105.252 55.386 105.32 56.6358C107.809 48.9035 111.257 44.2401 113.925 41.575Z" fill="#D4D4D6"/>
<path d="M105.319 56.6358C105.526 60.4375 106.038 63.9191 106.812 66.6927C107.725 69.9626 108.908 71.8379 110.057 71.8379C111.206 71.8379 112.389 69.9626 113.302 66.6927C114.331 63.0073 114.897 58.0721 114.897 52.7964C114.897 48.7097 114.556 44.8304 113.925 41.575C111.257 44.24 107.809 48.9035 105.319 56.6358Z" fill="#DBDBDD"/>
<defs>
<filter id="filter0_d_9_21866" x="41.5391" y="16.1207" width="48.4763" height="40.9375" filterUnits="userSpaceOnUse" color-interpolation-filters="sRGB">
<feFlood flood-opacity="0" result="BackgroundImageFix"/>
<feColorMatrix in="SourceAlpha" type="matrix" values="0 0 0 0 0 0 0 0 0 0 0 0 0 0 0 0 0 0 127 0" result="hardAlpha"/>
<feOffset dx="1.039" dy="1.039"/>
<feGaussianBlur stdDeviation="1.039"/>
<feColorMatrix type="matrix" values="0 0 0 0 0 0 0 0 0 0 0 0 0 0 0 0 0 0 0.2 0"/>
<feBlend mode="normal" in2="BackgroundImageFix" result="effect1_dropShadow_9_21866"/>
<feBlend mode="normal" in="SourceGraphic" in2="effect1_dropShadow_9_21866" result="shape"/>
</filter>
<filter id="filter1_d_9_21866" x="35.5779" y="61.2902" width="48.8867" height="43.771" filterUnits="userSpaceOnUse" color-interpolation-filters="sRGB">
<feFlood flood-opacity="0" result="BackgroundImageFix"/>
<feColorMatrix in="SourceAlpha" type="matrix" values="0 0 0 0 0 0 0 0 0 0 0 0 0 0 0 0 0 0 127 0" result="hardAlpha"/>
<feOffset dx="1.0852" dy="1.0852"/>
<feGaussianBlur stdDeviation="1.0852"/>
<feColorMatrix type="matrix" values="0 0 0 0 0 0 0 0 0 0 0 0 0 0 0 0 0 0 0.2 0"/>
<feBlend mode="normal" in2="BackgroundImageFix" result="effect1_dropShadow_9_21866"/>
<feBlend mode="normal" in="SourceGraphic" in2="effect1_dropShadow_9_21866" result="shape"/>
</filter>
<linearGradient id="paint0_linear_9_21866" x1="77.9825" y1="63.7742" x2="58.3657" y2="29.5372" gradientUnits="userSpaceOnUse">
<stop stop-color="#CACACA"/>
<stop offset="1" stop-color="#DFDFDF"/>
</linearGradient>
<linearGradient id="paint1_linear_9_21866" x1="71.8221" y1="107.46" x2="47.9488" y2="71.9279" gradientUnits="userSpaceOnUse">
<stop stop-color="#CACACA"/>
<stop offset="1" stop-color="#DFDFDF"/>
</linearGradient>
<linearGradient id="paint2_linear_9_21866" x1="61.0976" y1="94.7352" x2="76.4479" y2="94.7352" gradientUnits="userSpaceOnUse">
<stop stop-color="white" stop-opacity="0.7"/>
<stop offset="1" stop-color="white" stop-opacity="0.4"/>
</linearGradient>
</defs>
</svg>
