<svg width="156" height="120" viewBox="0 0 156 120" fill="none" xmlns="http://www.w3.org/2000/svg">
<path d="M108.707 96.5948H65.4473V60.8876H105.746L108.707 96.5948Z" fill="#DBDBDD"/>
<path d="M108.707 97.541H65.4473C64.9247 97.541 64.501 97.1173 64.501 96.5947V60.8875C64.501 60.3649 64.9247 59.9412 65.4473 59.9412H105.746C106.238 59.9412 106.649 60.3186 106.689 60.8093L109.65 96.5165C109.672 96.7802 109.583 97.0409 109.403 97.2356C109.224 97.4302 108.972 97.541 108.707 97.541ZM66.3936 95.6484H107.679L104.875 61.8338H66.3936L66.3936 95.6484Z" fill="#262933"/>
<path d="M108.706 96.5948C103.599 96.5948 98.3426 92.2813 94.2861 84.7601C89.7142 76.283 87.1963 64.9315 87.1963 52.7965C87.1963 40.6616 89.7142 29.3101 94.2861 20.8328C98.3426 13.3116 103.599 8.99805 108.706 8.99805C113.814 8.99805 119.07 13.3116 123.126 20.8328C127.698 29.31 130.216 40.6616 130.216 52.7965C130.216 64.9315 127.698 76.283 123.126 84.7601C119.07 92.2813 113.814 96.5948 108.706 96.5948Z" fill="white"/>
<path d="M108.706 97.541C103.24 97.541 97.6802 93.0462 93.4533 85.2092C88.8083 76.5966 86.25 65.0855 86.25 52.7965C86.25 40.5075 88.8083 28.9963 93.4533 20.3836C97.6802 12.5466 103.24 8.05176 108.706 8.05176C114.173 8.05176 119.732 12.5466 123.959 20.3836C128.604 28.9963 131.163 40.5074 131.163 52.7965C131.163 65.0857 128.604 76.5966 123.959 85.2092C119.732 93.0462 114.173 97.541 108.706 97.541ZM108.706 9.94434C103.958 9.94434 99.0052 14.0768 95.1192 21.2819C90.6202 29.6235 88.1426 40.8156 88.1426 52.7965C88.1426 64.7775 90.6202 75.9694 95.1192 84.3108C99.0052 91.516 103.958 95.6484 108.706 95.6484C113.455 95.6484 118.407 91.516 122.293 84.3108C126.792 75.9694 129.27 64.7775 129.27 52.7965C129.27 40.8156 126.792 29.6235 122.293 21.2819C118.407 14.0768 113.455 9.94434 108.706 9.94434Z" fill="#262933"/>
<path d="M109.051 90.4537C104.661 90.4537 100.216 86.6491 96.8566 80.0153C93.192 72.7802 91.1738 63.1136 91.1738 52.7965C91.1738 42.4794 93.192 32.8129 96.8566 25.5774C100.216 18.9437 104.661 15.139 109.051 15.139C113.442 15.139 117.886 18.9437 121.246 25.5774C124.91 32.813 126.928 42.4795 126.928 52.7965C126.928 63.1135 124.91 72.78 121.246 80.0153C117.886 86.6491 113.441 90.4537 109.051 90.4537ZM109.051 17.0317C105.4 17.0317 101.571 20.4582 98.545 26.4326C95.0121 33.408 93.0664 42.7709 93.0664 52.7965C93.0664 62.8222 95.0121 72.185 98.545 79.1602C101.571 85.1346 105.4 88.5611 109.051 88.5611C112.702 88.5611 116.532 85.1346 119.557 79.1602C123.09 72.1849 125.036 62.8222 125.036 52.7965C125.036 42.7709 123.09 33.4082 119.557 26.4326C116.532 20.4582 112.702 17.0317 109.051 17.0317Z" fill="#DBDBDD"/>
<path d="M109.712 84.3164C106.384 84.3164 103.046 81.1005 100.554 75.4931C97.8724 69.4574 96.3955 61.397 96.3955 52.7965C96.3955 44.1961 97.8725 36.1355 100.554 30.0997C103.046 24.4924 106.383 21.2764 109.712 21.2764C113.04 21.2764 116.378 24.4923 118.869 30.0997C121.551 36.1356 123.028 44.196 123.028 52.7965C123.028 61.3971 121.551 69.4574 118.869 75.4931C116.378 81.1005 113.04 84.3164 109.712 84.3164ZM109.712 23.169C107.203 23.169 104.426 26.0472 102.284 30.8683C99.7072 36.6673 98.2881 44.455 98.2881 52.7966C98.2881 61.1381 99.7072 68.9257 102.284 74.7246C104.426 79.5456 107.203 82.4239 109.712 82.4239C112.221 82.4239 114.997 79.5457 117.14 74.7246C119.716 68.9257 121.135 61.1381 121.135 52.7966C121.135 44.455 119.716 36.6673 117.14 30.8683C114.997 26.0472 112.221 23.169 109.712 23.169Z" fill="#DBDBDD"/>
<path d="M110.057 76.8954C108.158 76.8954 106.204 74.522 104.696 70.3836C102.997 65.7193 102.061 59.4734 102.061 52.7964C102.061 46.1194 102.997 39.8735 104.696 35.2091C106.204 31.0707 108.158 28.6973 110.057 28.6973C111.955 28.6973 113.909 31.0707 115.417 35.2091C117.117 39.8735 118.053 46.1194 118.053 52.7964C118.053 59.4734 117.117 65.7193 115.417 70.3836C113.909 74.522 111.955 76.8954 110.057 76.8954Z" fill="#D4D4D6"/>
<path d="M110.057 77.8417C107.703 77.8417 105.483 75.3081 103.807 70.7076C102.071 65.9421 101.114 59.5811 101.114 52.7964C101.114 46.0116 102.071 39.6507 103.807 34.8852C105.483 30.2846 107.703 27.751 110.057 27.751C112.411 27.751 114.63 30.2846 116.306 34.8852C118.043 39.6506 118.999 46.0115 118.999 52.7964C118.999 59.5813 118.043 65.9423 116.306 70.7076C114.63 75.3081 112.41 77.8417 110.057 77.8417ZM110.057 29.6436C108.933 29.6436 107.168 31.1908 105.585 35.5331C103.923 40.0964 103.007 46.2272 103.007 52.7964C103.007 59.3655 103.923 65.4965 105.585 70.0597C107.168 74.4019 108.933 75.9491 110.057 75.9491C111.181 75.9491 112.946 74.4019 114.528 70.0596C116.191 65.4968 117.106 59.3659 117.106 52.7964C117.106 46.2269 116.191 40.0961 114.528 35.5331C112.946 31.1908 111.181 29.6436 110.057 29.6436Z" fill="#262933"/>
<path d="M110.056 71.838C108.907 71.838 107.724 69.9626 106.811 66.6927C105.782 63.0073 105.216 58.0722 105.216 52.7965C105.216 47.5207 105.782 42.5856 106.811 38.9001C107.724 35.6302 108.907 33.7549 110.056 33.7549C111.206 33.7549 112.388 35.6302 113.301 38.9001C114.33 42.5856 114.897 47.5207 114.897 52.7965C114.897 58.0722 114.33 63.0073 113.301 66.6927C112.388 69.9626 111.206 71.838 110.056 71.838Z" fill="#DBDBDD"/>
<path d="M109.809 9.00939C104.5 8.3329 96.6685 13.1333 91.5639 26.3047C86.2896 39.9142 87.2987 52.8453 87.492 60.8474C88.1405 87.6954 79.5618 104.54 76.613 109.51C76.0453 110.467 75.0177 111.054 73.9049 111.054H26.8379C25.461 111.054 24.5426 109.625 25.1236 108.377C36.9833 82.8909 37.2288 52.7527 37.2288 52.7527C37.2288 40.6178 39.7467 29.2663 44.3187 20.789C46.4737 16.7934 49.6586 13.9972 53.0876 12.1057C56.8658 10.0216 61.1421 9.00942 65.457 9.00942L109.809 9.00939Z" fill="white"/>
<path d="M73.9044 112H26.8373C25.8634 112 24.9691 111.51 24.4453 110.688C23.9235 109.87 23.8562 108.857 24.265 107.978C35.8976 82.9799 36.2795 53.0443 36.2819 52.7449C36.2819 40.4637 38.8401 28.9526 43.4851 20.3397C45.5323 16.5443 48.609 13.4952 52.6298 11.2771C56.4416 9.1745 60.8769 8.06307 65.4563 8.06307H107.701C108.459 7.97696 109.204 7.97859 109.928 8.07061C110.423 8.13387 110.784 8.57102 110.752 9.06936C110.721 9.56769 110.307 9.95569 109.808 9.95569H107.775C102.871 10.5748 96.6918 15.6906 92.4457 26.6467C87.7396 38.7899 88.1169 50.6023 88.3665 58.4187C88.3935 59.2625 88.4191 60.0656 88.4374 60.8245C89.0966 88.1157 80.176 105.359 77.4262 109.993C76.6919 111.231 75.3425 112 73.9044 112ZM65.4563 9.95571C61.1958 9.95571 57.0766 10.9857 53.5441 12.9343C49.8465 14.9739 47.0226 17.7678 45.151 21.2381C40.6522 29.5798 38.1746 40.7719 38.1746 52.7527C38.1721 53.0639 37.7908 83.3976 25.981 108.776C25.8442 109.07 25.8661 109.396 26.0411 109.671C26.2181 109.948 26.5084 110.107 26.8373 110.107H73.9044C74.6777 110.107 75.4034 109.694 75.7985 109.028C78.4833 104.503 87.1924 87.6569 86.5454 60.8703C86.5272 60.116 86.5017 59.3177 86.4749 58.4792C86.2204 50.5093 85.8357 38.4651 90.681 25.9627C93.0692 19.8004 96.2908 14.8829 99.9976 11.7421C100.808 11.0554 101.635 10.4586 102.468 9.95571H65.4563Z" fill="#262933"/>
<g filter="url(#filter0_d_9_21815)">
<path d="M71.2326 53.0988L71.1384 53.0956C67.8769 52.9275 64.5509 51.8163 61.2396 49.7906C58.8704 51.0286 55.4045 52.5726 51.6961 52.5726L51.5544 52.5721C47.8995 52.5258 45.0106 50.8045 44.0105 48.08C41.8085 42.0806 46.3434 37.0444 48.5806 34.7001C47.9147 32.6247 47.6792 30.6171 47.8807 28.7273C48.1912 25.8121 49.5293 23.2235 51.7503 21.2413C54.0584 19.1819 57.1508 18.0009 60.2346 18.0009L60.2915 18.001C63.639 18.0154 66.3528 19.5413 68.7818 21.2402C72.1572 19.5372 75.2848 18.1543 79.0096 18.1543L79.0919 18.1546C83.0047 18.1761 85.3096 20.8321 85.8587 23.4546C86.7983 27.9405 84.382 33.0227 79.3848 37.1162C80.1948 39.3297 80.9768 42.4509 80.491 45.4603C80.4763 45.5715 80.4601 45.6575 80.4401 45.7422L80.4259 45.8037C79.859 48.2457 78.6966 50.1277 76.9711 51.3981C75.4366 52.5275 73.5735 53.1002 71.4332 53.1002L71.2326 53.0988Z" fill="#F5DF4D"/>
</g>
<path d="M84.1658 23.8234C83.7615 21.8921 82.033 19.9363 79.083 19.9201C75.2949 19.8978 71.9574 21.595 68.7368 23.2349L68.6317 23.2884C66.2806 21.58 63.6163 19.7807 60.2786 19.7665C60.2637 19.7664 60.2491 19.7664 60.2342 19.7664C57.5628 19.7664 54.888 20.7869 52.8895 22.5702C51.0007 24.2559 49.8635 26.4509 49.6007 28.9182C49.3943 30.8551 49.7231 32.9472 50.5782 35.145C47.6879 38.1249 43.7927 42.4527 45.6309 47.4609C46.3748 49.4877 48.6501 50.7697 51.5685 50.8064C55.0619 50.8438 58.4357 49.3331 61.3129 47.7569C64.6531 49.963 67.984 51.1653 71.2215 51.332C71.2318 51.3326 71.2422 51.3329 71.2525 51.3332C71.3129 51.334 71.3729 51.3346 71.4328 51.3346C73.2024 51.3346 74.7242 50.8745 75.958 49.9662C77.3367 48.9515 78.2733 47.4135 78.7413 45.3969L78.7578 45.3261C78.7645 45.2976 78.7699 45.2687 78.7739 45.2399L78.7801 45.1917C79.3214 41.8811 78.0395 38.279 77.2835 36.5304C81.392 33.4959 85.1889 28.7079 84.1658 23.8234Z" fill="#262933"/>
<path d="M73.3332 35.5756C72.3017 38.6103 69.8099 42.5068 66.4917 42.5449C63.2511 42.5821 62.4039 38.2149 63.2999 35.5334C64.4151 32.1961 67.012 28.543 70.4672 28.543C74.5201 28.543 74.1229 33.252 73.3332 35.5756Z" fill="white"/>
<path d="M66.4502 43.3971C65.1536 43.3971 64.0558 42.8306 63.2729 41.7567C61.9446 39.9346 61.8747 37.1108 62.4921 35.2634C64.3595 29.6741 67.9556 27.691 70.4674 27.691C72.3062 27.691 73.2988 28.538 73.8078 29.2485C75.0972 31.0488 74.7926 33.9298 74.14 35.8498C73.5257 37.6571 72.5329 39.4391 71.4163 40.7391C69.94 42.4578 68.2406 43.3769 66.5016 43.3969C66.4845 43.397 66.4672 43.3971 66.4502 43.3971ZM70.4674 29.395C67.5536 29.395 65.174 32.6136 64.1081 35.8034C63.5587 37.4477 63.7916 39.5755 64.6499 40.7529C65.1174 41.3942 65.725 41.7078 66.482 41.6929C69.1529 41.6623 71.4876 38.3582 72.5266 35.3013C73.0897 33.6449 73.2347 31.3747 72.4224 30.2407C72.0148 29.6717 71.3754 29.395 70.4674 29.395Z" fill="#262933"/>
<path d="M71.143 31.95C69.9502 31.9487 68.5398 33.0198 67.6919 34.5073C67.5388 34.7759 67.585 35.0528 67.7968 35.1976C68.1189 35.4176 68.2804 35.5277 68.6041 35.7481C68.8968 35.9473 68.8614 36.3778 68.5294 36.6845C68.0851 37.095 67.8649 37.3 67.4284 37.7094C67.1949 37.9284 67.1058 38.2243 67.2129 38.4484C67.5217 39.0944 68.0738 39.4941 68.7909 39.4998C70.273 39.5114 71.9051 37.8324 72.564 35.7405C73.2228 33.6487 72.6403 31.9515 71.143 31.95Z" fill="#262933"/>
<path d="M64.6824 35.5603C63.6872 38.5834 61.2415 42.4453 57.9359 42.4802C54.7055 42.5145 53.7493 38.2374 54.6501 35.5189C55.7567 32.1793 58.4601 28.5717 61.8961 28.5717C65.4322 28.5717 65.4425 33.2512 64.6824 35.5603Z" fill="white"/>
<path d="M57.897 43.3325C56.5746 43.3325 55.4527 42.7525 54.6501 41.6534C53.4635 40.0285 53.131 37.3956 53.8417 35.2509C55.0838 31.5022 58.0562 27.7197 61.8964 27.7197C63.182 27.7197 64.2357 28.237 64.9439 29.2156C66.3177 31.1142 66.0244 34.2094 65.492 35.8267C64.271 39.5357 61.464 43.2949 57.9452 43.3322C57.9291 43.3323 57.9131 43.3325 57.897 43.3325ZM61.8964 29.4237C58.9223 29.4237 56.4747 32.7222 55.4591 35.7869C54.9283 37.3889 55.1722 39.4789 56.0262 40.6485C56.507 41.3069 57.1436 41.6419 57.9272 41.6282C60.5893 41.6001 62.8757 38.325 63.8735 35.2939C64.3907 33.7226 64.4162 31.393 63.5634 30.2146C63.1784 29.6825 62.6331 29.4237 61.8964 29.4237Z" fill="#262933"/>
<path d="M62.8854 31.9616C61.6998 31.9604 60.2958 33.0249 59.4583 34.5011C59.3071 34.7676 59.3555 35.0424 59.5687 35.186C59.8928 35.4043 60.0551 35.5135 60.3803 35.7321C60.6742 35.9297 60.6427 36.3568 60.3139 36.6611C59.8738 37.0684 59.6555 37.2718 59.2224 37.6781C58.9908 37.8954 58.9044 38.189 59.0139 38.4115C59.3295 39.0527 59.8862 39.4496 60.6022 39.4552C62.0817 39.4668 63.6827 37.7999 64.3183 35.7244C64.954 33.649 64.3736 31.9631 62.8854 31.9616Z" fill="#262933"/>
<g filter="url(#filter1_d_9_21815)">
<path d="M80.0869 68.4361C79.2401 65.3982 76.5714 63.5542 72.9436 63.5033L72.7984 63.5025C69.908 63.5025 66.1936 64.6447 62.0392 66.8085C58.7897 64.4988 55.5201 63.2583 52.5597 63.2169L52.443 63.2163C49.1744 63.2163 46.3317 64.5999 44.4387 67.1121C42.8122 69.2712 42.0758 71.9871 42.2502 75.1841C42.3581 77.1623 42.8235 79.2936 43.6344 81.524C38.6851 87.3194 36.7171 92.1991 37.7849 96.0307C38.6311 99.0686 41.299 100.913 44.9263 100.964L45.0713 100.965C47.9575 100.965 51.6675 99.8245 55.8165 97.6655C57.0224 98.498 58.9042 99.6381 61.0839 100.413L62.7016 99.1335C60.2143 98.4512 57.7769 97.0544 55.9536 95.6563C51.5872 98.0532 47.7854 99.2943 44.9448 99.2565C42.0808 99.2162 40.0704 97.8737 39.4293 95.5724C38.491 92.2059 40.622 87.4757 45.5956 81.8709C44.6201 79.454 44.0685 77.1758 43.9547 75.0909C43.8029 72.3067 44.4244 69.9678 45.8022 68.1391C47.3935 66.0273 49.7836 64.8951 52.5451 64.9237C55.4148 64.964 58.6354 66.3099 61.8917 68.8237C66.2676 66.4182 70.069 65.1724 72.9253 65.2102C75.7902 65.2502 77.8012 66.593 78.4426 68.8943C79.3812 72.2611 77.2468 76.9946 72.2665 82.6052C73.1232 84.7237 73.9417 87.3388 73.9082 90.2718L75.5764 88.9526C75.4466 87.0357 75.0008 85.0467 74.2302 82.9501C79.1845 77.15 81.155 72.2677 80.0869 68.4361Z" fill="#F5DF4D"/>
<path d="M72.266 82.6052C77.2463 76.9946 79.3807 72.2611 78.4421 68.8943C77.8007 66.593 75.7897 65.2502 72.9248 65.2102C70.0685 65.1724 66.2671 66.4182 61.8912 68.8237C58.6349 66.3099 55.4143 64.964 52.5446 64.9237C49.7831 64.8951 47.393 66.0273 45.8017 68.1391C44.4239 69.9679 43.8024 72.3067 43.9542 75.0909C44.068 77.1757 44.6196 79.454 45.5951 81.8709C40.6216 87.4757 38.4906 92.2059 39.4288 95.5724C40.0699 97.8737 42.0804 99.2162 44.9443 99.2565C47.7849 99.2943 51.5867 98.0532 55.9532 95.6563C57.7765 97.0544 60.2138 98.4512 62.7011 99.1335L73.9077 90.2718C73.9412 87.3389 73.1227 84.7237 72.266 82.6052Z" fill="#262933"/>
<path d="M61.0928 100.42L62.761 99.1007L73.9677 90.239L75.5853 88.9598C74.7215 88.6529 73.8123 88.4017 72.8777 88.2524C71.7527 88.1142 70.6147 88.1037 69.4648 88.2129C67.8824 88.4494 66.4421 89.0565 65.1772 90.0217C63.3482 91.4164 62.0743 93.4221 61.3904 95.9843L61.3707 96.0593C61.3519 96.1296 61.3362 96.1996 61.3236 96.2699L61.3089 96.351C61.0699 97.6779 60.9988 99.0301 61.0928 100.42Z" fill="#CCBA40"/>
<path d="M68.2097 82.2576C67.2692 86.4868 64.2759 89.9093 61.524 89.9019C58.7722 89.8945 57.3038 86.46 58.2444 82.2308C59.185 78.0015 62.1782 74.579 64.9301 74.5864C67.6819 74.5938 69.1503 78.0283 68.2097 82.2576Z" fill="white"/>
<path d="M61.5324 90.7849H61.5213C60.2962 90.7817 59.2274 90.2533 58.4308 89.2573C57.1304 87.6317 56.7385 84.9332 57.3821 82.039C58.4223 77.3619 61.7322 73.7034 64.9209 73.7034H64.932C66.1572 73.7066 67.2259 74.235 68.0227 75.231C69.3229 76.8566 69.7149 79.5551 69.0712 82.4492C68.031 87.1262 64.721 90.7849 61.5324 90.7849ZM64.9205 75.4693C62.6061 75.4693 59.9447 78.6507 59.106 82.4223C58.5852 84.764 58.8549 86.9603 59.8099 88.1543C60.2673 88.7262 60.8448 89.0171 61.526 89.0189C61.5282 89.0189 61.5307 89.019 61.5329 89.019C63.8473 89.0193 66.5085 85.8375 67.3473 82.0659C67.8681 79.7243 67.5984 77.528 66.6435 76.3341C66.1861 75.7622 65.6086 75.4713 64.9273 75.4695C64.9252 75.4695 64.9227 75.4693 64.9205 75.4693Z" fill="#262933"/>
<path d="M65.6991 78.3148C64.5208 78.3117 63.2602 79.4786 62.5406 81.1027C62.4107 81.3959 62.4774 81.6981 62.6986 81.8557L63.5391 82.4546C63.843 82.6711 63.8341 83.1402 63.5198 83.4756L62.4679 84.598C62.2429 84.8381 62.1627 85.1619 62.2751 85.4064C62.599 86.1109 63.1527 86.5447 63.8684 86.5466C65.3475 86.5506 66.9563 84.7111 67.4619 82.438C67.9674 80.1648 67.1782 78.3188 65.6991 78.3148Z" fill="#262933"/>
<path d="M59.6228 82.2576C58.6822 86.4868 55.689 89.9093 52.9371 89.9019C50.1853 89.8945 48.7169 86.46 49.6575 82.2308C50.598 78.0016 53.5913 74.579 56.3432 74.5864C59.095 74.5938 60.5634 78.0283 59.6228 82.2576Z" fill="white"/>
<path d="M52.9465 90.7849H52.9354C51.7102 90.7817 50.6415 90.2533 49.8448 89.2573C48.5445 87.6317 48.1525 84.9332 48.7961 82.039C49.8364 77.3619 53.1462 73.7034 56.335 73.7034H56.3461C57.5712 73.7066 58.64 74.235 59.4367 75.231C60.737 76.8566 61.1289 79.5551 60.4853 82.4492C59.4451 87.1262 56.1351 90.7849 52.9465 90.7849ZM56.3346 75.4693C54.0201 75.4693 51.3588 78.6507 50.5201 82.4223C49.9993 84.764 50.269 86.9603 51.2239 88.1543C51.6813 88.7262 52.2588 89.0171 52.9401 89.0189C52.9423 89.0189 52.9447 89.019 52.9469 89.019C55.2613 89.0193 57.9226 85.8375 58.7614 82.0659C59.2822 79.7243 59.0125 77.528 58.0575 76.3341C57.6001 75.7622 57.0227 75.4713 56.3414 75.4695C56.3392 75.4695 56.3367 75.4693 56.3346 75.4693Z" fill="#262933"/>
<path d="M57.5077 78.3148C56.3294 78.3117 55.0688 79.4786 54.3492 81.1027C54.2193 81.3959 54.286 81.6981 54.5072 81.8557L55.3477 82.4546C55.6516 82.6711 55.6427 83.1402 55.3284 83.4756L54.2765 84.598C54.0515 84.8381 53.9713 85.1619 54.0836 85.4064C54.4076 86.1109 54.9613 86.5447 55.677 86.5466C57.1561 86.5506 58.7649 84.7111 59.2705 82.438C59.776 80.1648 58.9868 78.3188 57.5077 78.3148Z" fill="#262933"/>
</g>
<path d="M113.925 41.575C113.741 40.6278 113.534 39.7308 113.302 38.9001C112.389 35.6302 111.207 33.7549 110.057 33.7549C108.908 33.7549 107.725 35.6302 106.812 38.9001C105.783 42.5856 105.217 47.5208 105.217 52.7965C105.217 54.1018 105.252 55.386 105.32 56.6358C107.809 48.9035 111.257 44.2401 113.925 41.575Z" fill="#D4D4D6"/>
<path d="M105.319 56.6358C105.526 60.4375 106.038 63.9191 106.812 66.6927C107.725 69.9626 108.908 71.8379 110.057 71.8379C111.206 71.8379 112.389 69.9626 113.302 66.6927C114.331 63.0073 114.897 58.0721 114.897 52.7964C114.897 48.7097 114.556 44.8304 113.925 41.575C111.257 44.24 107.809 48.9035 105.319 56.6358Z" fill="#DBDBDD"/>
<defs>
<filter id="filter0_d_9_21815" x="42.3839" y="16.9619" width="46.7917" height="39.2554" filterUnits="userSpaceOnUse" color-interpolation-filters="sRGB">
<feFlood flood-opacity="0" result="BackgroundImageFix"/>
<feColorMatrix in="SourceAlpha" type="matrix" values="0 0 0 0 0 0 0 0 0 0 0 0 0 0 0 0 0 0 127 0" result="hardAlpha"/>
<feOffset dx="1.039" dy="1.039"/>
<feGaussianBlur stdDeviation="1.039"/>
<feColorMatrix type="matrix" values="0 0 0 0 0 0 0 0 0 0 0 0 0 0 0 0 0 0 0.2 0"/>
<feBlend mode="normal" in2="BackgroundImageFix" result="effect1_dropShadow_9_21815"/>
<feBlend mode="normal" in="SourceGraphic" in2="effect1_dropShadow_9_21815" result="shape"/>
</filter>
<filter id="filter1_d_9_21815" x="36.4177" y="62.1311" width="47.207" height="42.089" filterUnits="userSpaceOnUse" color-interpolation-filters="sRGB">
<feFlood flood-opacity="0" result="BackgroundImageFix"/>
<feColorMatrix in="SourceAlpha" type="matrix" values="0 0 0 0 0 0 0 0 0 0 0 0 0 0 0 0 0 0 127 0" result="hardAlpha"/>
<feOffset dx="1.0852" dy="1.0852"/>
<feGaussianBlur stdDeviation="1.0852"/>
<feColorMatrix type="matrix" values="0 0 0 0 0 0 0 0 0 0 0 0 0 0 0 0 0 0 0.2 0"/>
<feBlend mode="normal" in2="BackgroundImageFix" result="effect1_dropShadow_9_21815"/>
<feBlend mode="normal" in="SourceGraphic" in2="effect1_dropShadow_9_21815" result="shape"/>
</filter>
</defs>
</svg>
