<svg width="156" height="120" viewBox="0 0 156 120" fill="none" xmlns="http://www.w3.org/2000/svg">
<path d="M108.707 96.5948H65.4473V60.8876H105.746L108.707 96.5948Z" fill="#DBDBDD"/>
<path d="M108.707 97.541H65.4473C64.9247 97.541 64.501 97.1173 64.501 96.5947V60.8875C64.501 60.3649 64.9247 59.9412 65.4473 59.9412H105.746C106.238 59.9412 106.648 60.3186 106.689 60.8093L109.65 96.5165C109.672 96.7802 109.583 97.0409 109.403 97.2356C109.224 97.4302 108.972 97.541 108.707 97.541ZM66.3936 95.6484H107.679L104.875 61.8338H66.3936L66.3936 95.6484Z" fill="#262933"/>
<path d="M108.706 96.5948C103.599 96.5948 98.3426 92.2813 94.2861 84.7601C89.7142 76.283 87.1963 64.9315 87.1963 52.7965C87.1963 40.6616 89.7142 29.3101 94.2861 20.8328C98.3426 13.3116 103.599 8.99805 108.706 8.99805C113.814 8.99805 119.07 13.3116 123.126 20.8328C127.698 29.31 130.216 40.6616 130.216 52.7965C130.216 64.9315 127.698 76.283 123.126 84.7601C119.07 92.2813 113.814 96.5948 108.706 96.5948Z" fill="white"/>
<path d="M108.706 97.541C103.24 97.541 97.6802 93.0462 93.4533 85.2092C88.8083 76.5966 86.25 65.0855 86.25 52.7965C86.25 40.5075 88.8083 28.9963 93.4533 20.3836C97.6802 12.5466 103.24 8.05176 108.706 8.05176C114.173 8.05176 119.732 12.5466 123.959 20.3836C128.604 28.9963 131.163 40.5074 131.163 52.7965C131.163 65.0857 128.604 76.5966 123.959 85.2092C119.732 93.0462 114.173 97.541 108.706 97.541ZM108.706 9.94434C103.958 9.94434 99.0052 14.0768 95.1192 21.2819C90.6202 29.6235 88.1426 40.8156 88.1426 52.7965C88.1426 64.7775 90.6202 75.9694 95.1192 84.3108C99.0052 91.516 103.958 95.6484 108.706 95.6484C113.455 95.6484 118.407 91.516 122.293 84.3108C126.792 75.9694 129.27 64.7775 129.27 52.7965C129.27 40.8156 126.792 29.6235 122.293 21.2819C118.407 14.0768 113.455 9.94434 108.706 9.94434Z" fill="#262933"/>
<path d="M109.051 90.4537C104.661 90.4537 100.216 86.6491 96.8566 80.0153C93.192 72.7802 91.1738 63.1136 91.1738 52.7965C91.1738 42.4794 93.192 32.8129 96.8566 25.5774C100.216 18.9437 104.661 15.139 109.051 15.139C113.441 15.139 117.886 18.9437 121.246 25.5774C124.91 32.813 126.928 42.4795 126.928 52.7965C126.928 63.1135 124.91 72.78 121.246 80.0153C117.886 86.6491 113.441 90.4537 109.051 90.4537ZM109.051 17.0317C105.4 17.0317 101.571 20.4582 98.545 26.4326C95.012 33.408 93.0664 42.7709 93.0664 52.7965C93.0664 62.8222 95.012 72.185 98.545 79.1602C101.571 85.1346 105.4 88.5611 109.051 88.5611C112.702 88.5611 116.531 85.1346 119.557 79.1602C123.09 72.1849 125.036 62.8222 125.036 52.7965C125.036 42.7709 123.09 33.4082 119.557 26.4326C116.531 20.4582 112.702 17.0317 109.051 17.0317Z" fill="#DBDBDD"/>
<path d="M109.712 84.3164C106.384 84.3164 103.046 81.1005 100.554 75.4931C97.8724 69.4574 96.3955 61.397 96.3955 52.7965C96.3955 44.1961 97.8725 36.1355 100.554 30.0997C103.046 24.4924 106.383 21.2764 109.712 21.2764C113.04 21.2764 116.378 24.4923 118.869 30.0997C121.551 36.1356 123.028 44.196 123.028 52.7965C123.028 61.3971 121.551 69.4574 118.869 75.4931C116.378 81.1005 113.04 84.3164 109.712 84.3164ZM109.712 23.169C107.203 23.169 104.426 26.0472 102.284 30.8683C99.7072 36.6673 98.2881 44.455 98.2881 52.7966C98.2881 61.1381 99.7072 68.9257 102.284 74.7246C104.426 79.5456 107.203 82.4239 109.712 82.4239C112.221 82.4239 114.997 79.5457 117.14 74.7246C119.716 68.9257 121.135 61.1381 121.135 52.7966C121.135 44.455 119.716 36.6673 117.14 30.8683C114.997 26.0472 112.221 23.169 109.712 23.169Z" fill="#DBDBDD"/>
<path d="M110.057 76.8954C108.158 76.8954 106.204 74.522 104.696 70.3836C102.997 65.7193 102.061 59.4734 102.061 52.7964C102.061 46.1194 102.997 39.8735 104.696 35.2091C106.204 31.0707 108.158 28.6973 110.057 28.6973C111.955 28.6973 113.909 31.0707 115.417 35.2091C117.117 39.8735 118.053 46.1194 118.053 52.7964C118.053 59.4734 117.117 65.7193 115.417 70.3836C113.909 74.522 111.955 76.8954 110.057 76.8954Z" fill="#D4D4D6"/>
<path d="M110.057 77.8417C107.703 77.8417 105.483 75.3081 103.807 70.7076C102.071 65.9421 101.114 59.5811 101.114 52.7964C101.114 46.0116 102.071 39.6507 103.807 34.8852C105.483 30.2846 107.703 27.751 110.057 27.751C112.411 27.751 114.63 30.2846 116.306 34.8852C118.043 39.6506 118.999 46.0115 118.999 52.7964C118.999 59.5813 118.043 65.9423 116.306 70.7076C114.63 75.3081 112.41 77.8417 110.057 77.8417ZM110.057 29.6436C108.933 29.6436 107.168 31.1908 105.585 35.5331C103.923 40.0964 103.007 46.2272 103.007 52.7964C103.007 59.3655 103.923 65.4965 105.585 70.0597C107.168 74.4019 108.933 75.9491 110.057 75.9491C111.181 75.9491 112.946 74.4019 114.528 70.0596C116.191 65.4968 117.106 59.3659 117.106 52.7964C117.106 46.2269 116.191 40.0961 114.528 35.5331C112.946 31.1908 111.181 29.6436 110.057 29.6436Z" fill="#262933"/>
<path d="M110.056 71.838C108.907 71.838 107.724 69.9626 106.811 66.6927C105.782 63.0073 105.216 58.0722 105.216 52.7965C105.216 47.5207 105.782 42.5856 106.811 38.9001C107.724 35.6302 108.907 33.7549 110.056 33.7549C111.206 33.7549 112.388 35.6302 113.301 38.9001C114.33 42.5856 114.897 47.5207 114.897 52.7965C114.897 58.0722 114.33 63.0073 113.301 66.6927C112.388 69.9626 111.206 71.838 110.056 71.838Z" fill="#DBDBDD"/>
<path d="M109.807 9.00939C104.499 8.3329 96.6674 13.1333 91.5629 26.3047C86.2886 39.9142 87.2976 52.8453 87.4909 60.8474C88.1395 87.6954 79.5607 104.54 76.612 109.51C76.0443 110.467 75.0166 111.054 73.9039 111.054H26.8369C25.46 111.054 24.5417 109.625 25.1226 108.377C36.9823 82.8909 37.2279 52.7527 37.2279 52.7527C37.2279 40.6178 39.7457 29.2663 44.3177 20.789C46.4727 16.7934 49.6576 13.9972 53.0866 12.1057C56.8648 10.0216 61.1411 9.00942 65.456 9.00942L109.807 9.00939Z" fill="white"/>
<path d="M73.9044 112H26.8373C25.8634 112 24.9691 111.51 24.4453 110.688C23.9235 109.87 23.8562 108.857 24.265 107.978C35.8976 82.9799 36.2795 53.0443 36.2819 52.7449C36.2819 40.4637 38.84 28.9526 43.485 20.3397C45.5322 16.5443 48.609 13.4952 52.6298 11.2771C56.4416 9.1745 60.8769 8.06307 65.4563 8.06307H107.701C108.459 7.97696 109.204 7.97859 109.928 8.07061C110.423 8.13387 110.784 8.57102 110.752 9.06936C110.721 9.56769 110.307 9.95569 109.808 9.95569H107.775C102.871 10.5748 96.6917 15.6906 92.4456 26.6467C87.7395 38.7899 88.1169 50.6023 88.3665 58.4187C88.3934 59.2625 88.419 60.0656 88.4374 60.8245C89.0966 88.1157 80.1759 105.359 77.4261 109.993C76.6919 111.231 75.3424 112 73.9044 112ZM65.4563 9.95571C61.1957 9.95571 57.0766 10.9857 53.5441 12.9343C49.8465 14.9739 47.0226 17.7678 45.1509 21.2381C40.6522 29.5798 38.1745 40.7719 38.1745 52.7527C38.1721 53.0639 37.7908 83.3976 25.981 108.776C25.8442 109.07 25.8661 109.396 26.0411 109.671C26.2181 109.948 26.5084 110.107 26.8373 110.107H73.9044C74.6776 110.107 75.4034 109.694 75.7985 109.028C78.4833 104.503 87.1924 87.6569 86.5453 60.8703C86.5271 60.116 86.5017 59.3177 86.4748 58.4792C86.2203 50.5093 85.8356 38.4651 90.6809 25.9627C93.0691 19.8004 96.2907 14.8829 99.9975 11.7421C100.808 11.0554 101.635 10.4586 102.467 9.95571H65.4563Z" fill="#262933"/>
<path d="M113.925 41.575C113.741 40.6278 113.534 39.7308 113.302 38.9001C112.389 35.6302 111.207 33.7549 110.057 33.7549C108.908 33.7549 107.725 35.6302 106.812 38.9001C105.783 42.5856 105.217 47.5208 105.217 52.7965C105.217 54.1018 105.252 55.386 105.32 56.6358C107.809 48.9035 111.257 44.2401 113.925 41.575Z" fill="#D4D4D6"/>
<path d="M105.319 56.6358C105.526 60.4375 106.038 63.9191 106.812 66.6927C107.725 69.9626 108.908 71.8379 110.057 71.8379C111.206 71.8379 112.389 69.9626 113.302 66.6927C114.331 63.0073 114.897 58.0721 114.897 52.7964C114.897 48.7097 114.556 44.8304 113.925 41.575C111.257 44.24 107.809 48.9035 105.319 56.6358Z" fill="#DBDBDD"/>
<g filter="url(#filter0_d_9_22062)">
<path d="M85.6419 28.03C83.9912 35.0283 74.0824 40.1322 63.5203 39.4298C52.9661 38.7273 45.8725 32.4845 47.666 25.4862C49.456 18.4878 59.3389 13.3839 69.7504 14.0864C80.1698 14.7888 87.2893 21.0316 85.6419 28.03Z" fill="#262933"/>
</g>
<g filter="url(#filter1_d_9_22062)">
<path d="M81.1619 60.817C79.9344 68.2579 70.0744 73.7469 59.1575 73.0769C48.2545 72.4069 40.6513 65.8317 42.1568 58.3908C43.6556 50.9499 53.4688 45.4609 64.0939 46.1309C74.7328 46.8009 82.3827 53.3761 81.1619 60.817Z" fill="#262933"/>
</g>
<g filter="url(#filter2_d_9_22062)">
<path d="M62.1272 80.3291C51.3681 78.6262 40.517 82.7207 37.9518 89.4745C35.4053 96.2283 39.584 103.306 52.26 104.787C53.5373 104.936 54.814 105.014 56.0768 105.024L76.7411 90.6235C75.6891 85.7729 70.1519 81.6049 62.1272 80.3291Z" fill="#262933"/>
<path d="M76.9238 90.6247C67.7521 90.5501 59.3201 94.0707 56.7849 100.007C56.0569 101.701 55.907 103.401 56.2594 105.025L76.9238 90.6247Z" fill="#D4D4D6"/>
</g>
<defs>
<filter id="filter0_d_9_22062" x="45.8887" y="12.5217" width="44.4902" height="31.4727" filterUnits="userSpaceOnUse" color-interpolation-filters="sRGB">
<feFlood flood-opacity="0" result="BackgroundImageFix"/>
<feColorMatrix in="SourceAlpha" type="matrix" values="0 0 0 0 0 0 0 0 0 0 0 0 0 0 0 0 0 0 127 0" result="hardAlpha"/>
<feOffset dx="1.5" dy="1.5"/>
<feGaussianBlur stdDeviation="1.5"/>
<feColorMatrix type="matrix" values="0 0 0 0 0 0 0 0 0 0 0 0 0 0 0 0 0 0 0.3 0"/>
<feBlend mode="normal" in2="BackgroundImageFix" result="effect1_dropShadow_9_22062"/>
<feBlend mode="normal" in="SourceGraphic" in2="effect1_dropShadow_9_22062" result="shape"/>
</filter>
<filter id="filter1_d_9_22062" x="40.4668" y="44.5756" width="45.3232" height="33.0566" filterUnits="userSpaceOnUse" color-interpolation-filters="sRGB">
<feFlood flood-opacity="0" result="BackgroundImageFix"/>
<feColorMatrix in="SourceAlpha" type="matrix" values="0 0 0 0 0 0 0 0 0 0 0 0 0 0 0 0 0 0 127 0" result="hardAlpha"/>
<feOffset dx="1.5" dy="1.5"/>
<feGaussianBlur stdDeviation="1.5"/>
<feColorMatrix type="matrix" values="0 0 0 0 0 0 0 0 0 0 0 0 0 0 0 0 0 0 0.3 0"/>
<feBlend mode="normal" in2="BackgroundImageFix" result="effect1_dropShadow_9_22062"/>
<feBlend mode="normal" in="SourceGraphic" in2="effect1_dropShadow_9_22062" result="shape"/>
</filter>
<filter id="filter2_d_9_22062" x="35.7402" y="78.4434" width="45.6836" height="31.0817" filterUnits="userSpaceOnUse" color-interpolation-filters="sRGB">
<feFlood flood-opacity="0" result="BackgroundImageFix"/>
<feColorMatrix in="SourceAlpha" type="matrix" values="0 0 0 0 0 0 0 0 0 0 0 0 0 0 0 0 0 0 127 0" result="hardAlpha"/>
<feOffset dx="1.5" dy="1.5"/>
<feGaussianBlur stdDeviation="1.5"/>
<feColorMatrix type="matrix" values="0 0 0 0 0 0 0 0 0 0 0 0 0 0 0 0 0 0 0.3 0"/>
<feBlend mode="normal" in2="BackgroundImageFix" result="effect1_dropShadow_9_22062"/>
<feBlend mode="normal" in="SourceGraphic" in2="effect1_dropShadow_9_22062" result="shape"/>
</filter>
</defs>
</svg>
