<svg width="156" height="129" viewBox="0 0 156 129" fill="none" xmlns="http://www.w3.org/2000/svg">
<path d="M104.707 96.5948H61.4473V60.8876H101.746L104.707 96.5948Z" fill="#AD8F79"/>
<path d="M104.707 97.541H61.4473C60.9246 97.541 60.501 97.1172 60.501 96.5947V60.8875C60.501 60.3649 60.9246 59.9412 61.4473 59.9412H101.746C102.238 59.9412 102.649 60.3186 102.689 60.8093L105.65 96.5165C105.672 96.7802 105.583 97.0408 105.403 97.2355C105.224 97.4302 104.972 97.541 104.707 97.541ZM62.3936 95.6484H103.679L100.875 61.8338H62.3936V95.6484Z" fill="#262933"/>
<path d="M104.707 96.5948C99.5996 96.5948 94.3436 92.2812 90.2871 84.76C85.7151 76.283 83.1973 64.9314 83.1973 52.7965C83.1973 40.6616 85.7151 29.3101 90.2871 20.8328C94.3436 13.3116 99.5996 8.99805 104.707 8.99805C109.815 8.99805 115.071 13.3116 119.127 20.8328C123.699 29.31 126.217 40.6616 126.217 52.7965C126.217 64.9315 123.699 76.283 119.127 84.76C115.071 92.2812 109.815 96.5948 104.707 96.5948Z" fill="#CCAE93"/>
<path d="M104.707 97.541C99.2404 97.541 93.6808 93.0462 89.4542 85.2092C84.8092 76.5963 82.251 65.0854 82.251 52.7965C82.251 40.5077 84.8092 28.9966 89.4542 20.3836C93.6808 12.5466 99.2404 8.05176 104.707 8.05176C110.174 8.05176 115.734 12.5466 119.96 20.3836C124.605 28.9966 127.164 40.5077 127.164 52.7965C127.164 65.0854 124.605 76.5963 119.96 85.2092C115.734 93.0462 110.174 97.541 104.707 97.541ZM104.707 9.94434C99.9584 9.94434 95.0061 14.0768 91.1201 21.2819C86.6213 29.6237 84.1436 40.8158 84.1436 52.7965C84.1436 64.7772 86.6213 75.9691 91.1201 84.3108C95.0061 91.5159 99.9584 95.6483 104.707 95.6483C109.456 95.6483 114.409 91.5159 118.294 84.3108C122.793 75.9691 125.271 64.7772 125.271 52.7965C125.271 40.8158 122.793 29.6237 118.294 21.2819C114.409 14.0767 109.456 9.94434 104.707 9.94434Z" fill="#262933"/>
<path d="M105.052 90.4537C100.662 90.4537 96.217 86.649 92.8573 80.0153C89.1928 72.7798 87.1748 63.1135 87.1748 52.7965C87.1748 42.4795 89.1928 32.8132 92.8573 25.5774C96.217 18.9437 100.662 15.139 105.052 15.139C109.442 15.139 113.887 18.9437 117.247 25.5774C120.911 32.8132 122.929 42.4797 122.929 52.7965C122.929 63.1133 120.911 72.7798 117.247 80.0153C113.887 86.649 109.442 90.4537 105.052 90.4537ZM105.052 17.0317C101.401 17.0317 97.5716 20.4582 94.5456 26.4326C91.0129 33.4081 89.0674 42.7711 89.0674 52.7965C89.0674 62.8219 91.0129 72.1848 94.5456 79.1602C97.5716 85.1345 101.401 88.5611 105.052 88.5611C108.703 88.5611 112.532 85.1345 115.558 79.1602C119.091 72.1849 121.036 62.822 121.036 52.7965C121.036 42.771 119.091 33.4082 115.558 26.4326C112.532 20.4582 108.703 17.0317 105.052 17.0317Z" fill="#AD8F79"/>
<path d="M105.713 84.3163C102.384 84.3163 99.0467 81.1004 96.5552 75.493C93.8734 69.4573 92.3965 61.3969 92.3965 52.7964C92.3965 44.196 93.8735 36.1356 96.5552 30.0997C99.0466 24.4922 102.384 21.2762 105.713 21.2762C109.041 21.2762 112.379 24.4922 114.87 30.0996C117.552 36.1355 119.029 44.196 119.029 52.7964C119.029 61.3968 117.552 69.4573 114.87 75.493C112.379 81.1003 109.041 84.3163 105.713 84.3163ZM105.713 23.1689C103.204 23.1689 100.427 26.0471 98.2846 30.8682C95.708 36.6673 94.2891 44.4549 94.2891 52.7964C94.2891 61.138 95.708 68.9254 98.2846 74.7244C100.427 79.5455 103.204 82.4237 105.713 82.4237C108.222 82.4237 110.998 79.5455 113.141 74.7244C115.717 68.9254 117.136 61.1379 117.136 52.7964C117.136 44.455 115.717 36.6673 113.141 30.8682C110.998 26.0471 108.222 23.1689 105.713 23.1689Z" fill="#AD8F79"/>
<path d="M106.058 76.8954C104.159 76.8954 102.205 74.522 100.697 70.3836C98.9975 65.7193 98.0615 59.4733 98.0615 52.7964C98.0615 46.1194 98.9975 39.8735 100.697 35.2091C102.205 31.0707 104.159 28.6973 106.058 28.6973C107.956 28.6973 109.91 31.0707 111.418 35.2091C113.118 39.8735 114.054 46.1194 114.054 52.7964C114.054 59.4733 113.118 65.7193 111.418 70.3836C109.91 74.522 107.956 76.8954 106.058 76.8954Z" fill="#AD8F79"/>
<path d="M106.058 77.8417C103.704 77.8417 101.485 75.3081 99.8079 70.7077C98.0714 65.9422 97.1152 59.5812 97.1152 52.7963C97.1152 46.0115 98.0714 39.6506 99.8079 34.8852C101.485 30.2846 103.704 27.751 106.058 27.751C108.411 27.751 110.631 30.2846 112.307 34.8852C114.044 39.6506 115 46.0115 115 52.7963C115 59.5812 114.044 65.9422 112.307 70.7076C110.631 75.3081 108.412 77.8417 106.058 77.8417ZM106.058 29.6436C104.934 29.6436 103.169 31.1908 101.586 35.5333C99.9235 40.0961 99.0078 46.227 99.0078 52.7964C99.0078 59.3657 99.9235 65.4968 101.586 70.0598C103.169 74.4019 104.934 75.9491 106.058 75.9491C107.182 75.9491 108.947 74.4019 110.529 70.0598C112.192 65.4968 113.107 59.3659 113.107 52.7964C113.107 46.2268 112.192 40.0961 110.529 35.5331C108.947 31.1908 107.182 29.6436 106.058 29.6436Z" fill="#262933"/>
<path d="M105.807 9.00939C100.499 8.3329 92.6674 13.1333 87.5629 26.3047C82.2886 39.9142 83.2976 52.8453 83.4909 60.8474C84.1394 87.6954 75.5607 104.54 72.612 109.51C72.0442 110.467 71.0166 111.054 69.9039 111.054H22.8369C21.46 111.054 20.5417 109.625 21.1226 108.377C32.9823 82.8909 33.2278 52.7527 33.2278 52.7527C33.2278 40.6178 35.7457 29.2662 40.3177 20.789C42.4727 16.7934 45.6576 13.9972 49.0865 12.1057C52.8648 10.0216 57.141 9.00942 61.4559 9.00942L105.807 9.00939Z" fill="#E1B178"/>
<path d="M69.9044 112H22.8374C21.8635 112 20.9692 111.509 20.4454 110.688C19.9235 109.87 19.8561 108.856 20.2652 107.978C31.8977 82.9799 32.2794 53.0444 32.2819 52.7449C32.2819 40.4639 34.8401 28.9528 39.4851 20.3398C41.5322 16.5444 44.6087 13.4952 48.63 11.2772C52.4415 9.17455 56.8768 8.06313 61.4563 8.06313H103.701C104.459 7.97688 105.204 7.97865 105.928 8.07067C106.423 8.13392 106.784 8.57108 106.752 9.06941C106.721 9.56774 106.307 9.95574 105.808 9.95574H103.775C98.8714 10.5748 92.6916 15.6907 88.4455 26.6467C83.7398 38.79 84.1168 50.6026 84.3665 58.4192C84.3933 59.2627 84.4191 60.0658 84.4374 60.8245C85.0965 88.1159 76.1761 105.359 73.4262 109.993C72.6921 111.231 71.3425 112 69.9044 112ZM61.4564 9.95577C57.1958 9.95577 53.0765 10.9857 49.544 12.9343C45.8464 14.9741 43.0225 17.7679 41.151 21.2382C36.6522 29.58 34.1745 40.7721 34.1745 52.7527C34.172 53.0639 33.7908 83.3976 21.9809 108.776C21.8443 109.07 21.8662 109.396 22.0411 109.67C22.218 109.948 22.5083 110.107 22.8374 110.107H69.9044C70.6776 110.107 71.4035 109.694 71.7987 109.028C74.4831 104.503 83.1924 87.6571 82.5454 60.8703C82.527 60.1161 82.5016 59.318 82.475 58.4796C82.2203 50.5096 81.8356 38.4654 86.6811 25.9627C89.069 19.8004 92.2907 14.8829 95.9974 11.7421C96.8079 11.0554 97.6348 10.4586 98.4675 9.95574L61.4564 9.95577Z" fill="#262933"/>
<path d="M105.807 9.00939C100.499 8.3329 92.6674 13.1333 87.5629 26.3047C82.2886 39.9142 83.2976 52.8453 83.4909 60.8474C84.1394 87.6954 75.5607 104.54 72.612 109.51C72.0442 110.467 71.0166 111.054 69.9039 111.054H22.8369C21.46 111.054 20.5417 109.625 21.1226 108.377C32.9823 82.8909 33.2278 52.7527 33.2278 52.7527C33.2278 40.6178 35.7457 29.2662 40.3177 20.789C42.4727 16.7934 45.6576 13.9972 49.0865 12.1057C52.8648 10.0216 57.141 9.00942 61.4559 9.00942L105.807 9.00939Z" fill="#D6B99A"/>
<path d="M69.9044 112H22.8374C21.8635 112 20.9692 111.509 20.4454 110.688C19.9235 109.87 19.8561 108.856 20.2652 107.978C31.8977 82.9799 32.2794 53.0444 32.2819 52.7449C32.2819 40.4639 34.8401 28.9528 39.4851 20.3398C41.5322 16.5444 44.6087 13.4952 48.63 11.2772C52.4415 9.17455 56.8768 8.06313 61.4563 8.06313H103.701C104.459 7.97688 105.204 7.97865 105.928 8.07067C106.423 8.13392 106.784 8.57108 106.752 9.06941C106.721 9.56774 106.307 9.95574 105.808 9.95574H103.775C98.8714 10.5748 92.6916 15.6907 88.4455 26.6467C83.7398 38.79 84.1168 50.6026 84.3665 58.4192C84.3933 59.2627 84.4191 60.0658 84.4374 60.8245C85.0965 88.1159 76.1761 105.359 73.4262 109.993C72.6921 111.231 71.3425 112 69.9044 112ZM61.4564 9.95577C57.1958 9.95577 53.0765 10.9857 49.544 12.9343C45.8464 14.9741 43.0225 17.7679 41.151 21.2382C36.6522 29.58 34.1745 40.7721 34.1745 52.7527C34.172 53.0639 33.7908 83.3976 21.9809 108.776C21.8443 109.07 21.8662 109.396 22.0411 109.67C22.218 109.948 22.5083 110.107 22.8374 110.107H69.9044C70.6776 110.107 71.4035 109.694 71.7987 109.028C74.4831 104.503 83.1924 87.6571 82.5454 60.8703C82.527 60.1161 82.5016 59.318 82.475 58.4796C82.2203 50.5096 81.8356 38.4654 86.6811 25.9627C89.069 19.8004 92.2907 14.8829 95.9974 11.7421C96.8079 11.0554 97.6348 10.4586 98.4675 9.95574L61.4564 9.95577Z" fill="#262933"/>
<g opacity="0.41">
<mask id="mask0_9_22089" style="mask-type:luminance" maskUnits="userSpaceOnUse" x="20" y="8" width="86" height="104">
<path d="M105.808 9.00939C100.5 8.3329 92.6684 13.1333 87.5639 26.3047C82.2896 39.9142 83.2986 52.8453 83.4919 60.8474C84.1404 87.6954 75.5617 104.54 72.613 109.51C72.0452 110.467 71.0176 111.054 69.9049 111.054H22.8379C21.461 111.054 20.5426 109.625 21.1236 108.377C32.9833 82.8909 33.2288 52.7527 33.2288 52.7527C33.2288 40.6178 35.7467 29.2662 40.3187 20.789C42.4737 16.7934 45.6586 13.9972 49.0875 12.1057C52.8657 10.0216 57.142 9.00942 61.4569 9.00942L105.808 9.00939Z" fill="white"/>
</mask>
<g mask="url(#mask0_9_22089)">
<g opacity="0.6">
<path d="M73.2988 111.866C73.2988 110.594 74.0005 107.156 73.2988 111.866V111.866Z" fill="#915B20"/>
<path d="M77.9878 112.266C74.1472 112.554 80.547 110.115 77.9878 112.266V112.266Z" fill="#915B20"/>
<path opacity="0.55" d="M60.6729 107.45C60.4633 110.279 64.5494 105.975 60.6729 107.45V107.45Z" fill="#915B20"/>
<path opacity="0.55" d="M59.5986 103.432C59.5986 103.081 61.0669 103.785 59.5986 103.432V103.432Z" fill="#915B20"/>
<path d="M52.3887 103.831C52.3887 100.726 54.2494 103.99 52.3887 103.831V103.831Z" fill="#915B20"/>
<path opacity="0.55" d="M49.5006 98.0091C49.2154 95.343 62.4959 102.973 49.5006 98.0091V98.0091Z" fill="#915B20"/>
<path d="M80.5134 96.8067C79.1453 96.8067 80.1144 96.5868 80.5134 96.8067V96.8067Z" fill="#915B20"/>
<path opacity="0.55" d="M41.5677 94.9989C41.2656 95.733 44.7381 96.6959 41.5677 94.9989V94.9989Z" fill="#915B20"/>
<path d="M82.3171 68.2929C82.4105 67.8276 83.2802 67.8303 83.7535 68.0912C84.0342 68.5537 81.8486 68.953 82.3171 68.2929Z" fill="#915B20"/>
<path opacity="0.55" d="M92.7754 63.4755C92.9309 61.3289 93.0452 66.3977 92.7754 63.4755V63.4755Z" fill="#915B20"/>
<path opacity="0.55" d="M64.2891 60.8657C65.762 64.1346 66.2631 60.8657 64.2891 60.8657V60.8657Z" fill="#915B20"/>
<path opacity="0.55" d="M62.1248 30.1443C61.9153 32.4034 64.2567 29.5632 62.1248 30.1443V30.1443Z" fill="#915B20"/>
<path opacity="0.55" d="M74.3809 47.6103C74.6065 47.5755 74.6809 48.9807 74.3809 47.6103V47.6103Z" fill="#915B20"/>
<path opacity="0.55" d="M99.2625 14.8821C96.7636 14.1716 100.362 12.6602 99.2625 14.8821V14.8821Z" fill="#915B20"/>
<path opacity="0.55" d="M58.157 110.86C57.0101 107.974 58.9425 110.894 58.157 110.86V110.86Z" fill="#915B20"/>
<path opacity="0.55" d="M18.1255 106.844C17.7335 106.992 21.9809 106.844 18.1255 106.844V106.844Z" fill="#915B20"/>
<path opacity="0.55" d="M94.9336 65.4804C91.7123 63.6339 101.342 66.2947 94.9336 65.4804V65.4804Z" fill="#915B20"/>
<path opacity="0.55" d="M53.8209 44.3991C53.4869 44.3022 55.8634 44.6145 53.8209 44.3991V44.3991Z" fill="#915B20"/>
<path d="M102.148 41.183C102.438 41.183 103.28 41.3486 102.148 41.183V41.183Z" fill="#915B20"/>
<path opacity="0.55" d="M92.0549 39.379C91.5011 40.401 95.5558 39.379 92.0549 39.379V39.379Z" fill="#915B20"/>
<path d="M43.7296 37.5702C41.7426 37.5702 44.8169 34.7895 43.7296 37.5702V37.5702Z" fill="#915B20"/>
<path opacity="0.55" d="M89.8891 31.7492C89.4032 31.7492 91.7146 27.4133 89.8891 31.7492V31.7492Z" fill="#915B20"/>
<path opacity="0.55" d="M33.6354 21.909C33.547 22.2651 33.9984 22.9143 32.9116 22.7127C32.1106 22.6308 32.4298 21.5368 33.6354 21.909Z" fill="#915B20"/>
<path opacity="0.55" d="M64.2892 19.9018C63.0764 19.5213 64.0564 19.0892 63.9249 18.2972C64.7399 18.4425 64.0705 19.421 64.2892 19.9018Z" fill="#915B20"/>
<path d="M32.5529 16.6891C28.9952 17.0153 32.5529 12.0975 32.5529 16.6891V16.6891Z" fill="#915B20"/>
<path opacity="0.55" d="M40.851 9.26074C41.6499 9.41518 42.801 9.37537 43.0085 9.86329C41.9152 9.87 40.636 9.97904 40.851 9.26074Z" fill="#915B20"/>
<path d="M65.7269 71.2301C65.1588 70.7078 71.0088 71.4748 65.7269 71.2301V71.2301Z" fill="#915B20"/>
<path opacity="0.55" d="M72.2207 80.5629C72.2207 77.4149 76.3271 83.7978 72.2207 80.5629V80.5629Z" fill="#915B20"/>
<path d="M88.8104 13.7656C86.025 13.7656 89.4934 10.5529 88.8104 13.7656V13.7656Z" fill="#915B20"/>
<path d="M100.344 23.0947C97.506 20.7885 98.674 23.1912 100.344 23.0947V23.0947Z" fill="#915B20"/>
<path opacity="0.55" d="M75.8261 66.7798C72.2666 66.7798 75.8261 68.0636 75.8261 66.7798V66.7798Z" fill="#915B20"/>
<path opacity="0.55" d="M86.6401 65.0833C86.0155 65.0833 86.675 65.101 86.6401 65.0833V65.0833Z" fill="#915B20"/>
<path opacity="0.55" d="M85.5576 52.7824C86.7365 52.7287 87.2949 53.0359 87.3655 53.6331C86.3064 53.6181 86.0198 53.1474 85.5576 52.7824Z" fill="#915B20"/>
<path opacity="0.55" d="M59.9575 52.9955C57.4619 52.9955 60.9769 50.9445 59.9575 52.9955V52.9955Z" fill="#915B20"/>
<path d="M73.2988 38.365C76.1522 40.5046 77.7123 38.365 73.2988 38.365V38.365Z" fill="#915B20"/>
<path opacity="0.55" d="M22.8168 35.8199C21.9728 35.753 21.3276 35.4041 20.6469 35.8199C20.2456 34.6419 22.8947 35.2905 22.8168 35.8199Z" fill="#915B20"/>
<path opacity="0.55" d="M43.7295 33.4877C43.7295 32.3712 47.2537 33.243 43.7295 33.4877V33.4877Z" fill="#915B20"/>
<path opacity="0.55" d="M97.46 32.6398C98.2399 34.8803 101.672 31.9587 97.46 32.6398V32.6398Z" fill="#915B20"/>
<path opacity="0.55" d="M39.3959 10.7965C35.4711 11.3421 40.564 11.6096 39.3959 10.7965V10.7965Z" fill="#915B20"/>
<path opacity="0.55" d="M86.6402 82.4721C81.6946 81.6961 86.7655 80.9106 86.6402 82.4721V82.4721Z" fill="#915B20"/>
<path opacity="0.55" d="M104.678 35.1853C105.826 36.3301 106.931 35.4117 104.678 35.1853V35.1853Z" fill="#915B20"/>
<path opacity="0.55" d="M54.5498 27.9714C55.4654 25.6265 55.965 27.9714 54.5498 27.9714V27.9714Z" fill="#915B20"/>
<path opacity="0.55" d="M104.045 103.851C104.045 102.374 106.917 103.12 104.045 103.851V103.851Z" fill="#915B20"/>
<path opacity="0.55" d="M104.045 34.9775C104.513 32.4254 104.649 34.9775 104.045 34.9775V34.9775Z" fill="#915B20"/>
<path opacity="0.55" d="M101.738 68.5694C102.047 66.8573 103.081 68.355 101.738 68.5694V68.5694Z" fill="#915B20"/>
<path opacity="0.55" d="M99.1724 16.066C93.6215 18.4984 99.417 14.8473 99.1724 16.066V16.066Z" fill="#915B20"/>
<path d="M94.8112 101.596C94.7184 103.039 98.7309 100.625 94.8112 101.596V101.596Z" fill="#915B20"/>
<path d="M94.8105 17.7589C95.0432 16.4713 96.2806 18.1074 94.8105 17.7589V17.7589Z" fill="#915B20"/>
<path d="M87.8877 74.4948C87.9042 71.2056 88.2085 76.6161 87.8877 74.4948V74.4948Z" fill="#915B20"/>
<path opacity="0.55" d="M85.063 99.3379C84.593 102.64 87.3449 99.3379 85.063 99.3379V99.3379Z" fill="#915B20"/>
<path d="M80.7058 84.6548C78.7054 84.6548 83.086 85.064 80.7058 84.6548V84.6548Z" fill="#915B20"/>
<path d="M75.5771 106.109C75.5771 106.189 81.887 102.617 75.5771 106.109V106.109Z" fill="#915B20"/>
<path d="M68.1367 9.29006C67.2871 6.22071 69.7711 9.29006 68.1367 9.29006V9.29006Z" fill="#915B20"/>
<path opacity="0.55" d="M67.6224 51.9143C64.0012 52.1565 70.7257 48.6489 67.6224 51.9143V51.9143Z" fill="#915B20"/>
<path opacity="0.55" d="M60.6932 111.756C60.3351 108.944 62.6176 111.917 60.6932 111.756V111.756Z" fill="#915B20"/>
<path opacity="0.55" d="M58.6416 74.2135C58.6882 73.6072 59.042 79.2187 58.6416 74.2135V74.2135Z" fill="#915B20"/>
<path opacity="0.55" d="M40.6865 68.2861C40.6865 69.6349 44.2728 67.3669 40.6865 68.2861V68.2861Z" fill="#915B20"/>
<path opacity="0.55" d="M39.4051 20.0175C35.6762 20.0175 41.8256 21.1031 39.4051 20.0175V20.0175Z" fill="#915B20"/>
<path opacity="0.55" d="M20.4237 86.9171C17.3134 86.9171 22.8539 86.6375 20.4237 86.9171V86.9171Z" fill="#915B20"/>
<path opacity="0.55" d="M102.764 62.9194C102.764 65.3 104.704 62.6968 102.764 62.9194V62.9194Z" fill="#915B20"/>
<path d="M99.6825 82.9621C95.4289 81.8743 99.6825 82.0295 99.6825 82.9621V82.9621Z" fill="#915B20"/>
<path opacity="0.55" d="M95.0676 83.532C94.5129 83.635 96.0843 87.4699 95.0676 83.532V83.532Z" fill="#915B20"/>
<path opacity="0.55" d="M91.7329 16.6286C91.3231 18.5626 91.7329 15.7819 91.7329 16.6286V16.6286Z" fill="#915B20"/>
<path d="M91.7329 88.6091C87.1528 88.6091 91.7329 85.973 91.7329 88.6091V88.6091Z" fill="#915B20"/>
<path opacity="0.55" d="M88.9102 55.8646C90.7314 55.6208 93.887 54.5735 88.9102 55.8646V55.8646Z" fill="#915B20"/>
<path opacity="0.55" d="M83.7818 83.532C82.7218 85.9485 83.6431 84.8397 83.7818 83.532V83.532Z" fill="#915B20"/>
<path opacity="0.55" d="M69.1592 97.0804C65.2443 97.0804 69.242 98.8759 69.1592 97.0804V97.0804Z" fill="#915B20"/>
<path opacity="0.55" d="M58.8984 14.0864C59.623 11.239 62.6285 10.1818 58.8984 14.0864V14.0864Z" fill="#915B20"/>
<path opacity="0.55" d="M35.0432 89.7391C32.7127 92.2679 35.0538 89.9228 35.0432 89.7391V89.7391Z" fill="#915B20"/>
<path opacity="0.55" d="M29.6604 80.7047C28.6154 82.4012 33.5222 79.7516 29.6604 80.7047V80.7047Z" fill="#915B20"/>
<path d="M68.4414 16.7968V15.9485C69.8323 15.7799 69.8323 16.9643 68.4414 16.7968Z" fill="#6D3803"/>
<path opacity="0.55" d="M105.229 53.662C105.13 53.662 106.105 54.1236 105.229 53.662V53.662Z" fill="#6D3803"/>
<path opacity="0.55" d="M87.1941 61.2918C86.4772 60.1016 86.6465 61.2368 87.1941 61.2918V61.2918Z" fill="#6D3803"/>
<path opacity="0.55" d="M70.2443 89.603C69.8317 88.0443 76.8109 91.4108 70.2443 89.603V89.603Z" fill="#6D3803"/>
<path d="M92.2461 109.684C93.1268 108.558 94.1119 109.684 92.2461 109.684V109.684Z" fill="#6D3803"/>
<path opacity="0.55" d="M21.5645 77.9588C21.72 75.8122 21.8342 80.8809 21.5645 77.9588V77.9588Z" fill="#6D3803"/>
<path opacity="0.55" d="M88.9976 68.721C88.8037 67.1786 89.2288 68.7393 88.9976 68.721V68.721Z" fill="#6D3803"/>
<path d="M44.6362 67.717C43.5071 67.8067 43.0363 67.5454 43.1935 66.9155C44.039 66.9864 44.8858 67.0436 44.6362 67.717Z" fill="#6D3803"/>
<path opacity="0.55" d="M67.7197 67.9174C65.3005 68.1972 67.7197 63.938 67.7197 67.9174V67.9174Z" fill="#6D3803"/>
<path d="M68.8072 33.1805C66.0003 33.1805 69.5436 33.8041 68.8072 33.1805V33.1805Z" fill="#6D3803"/>
<path d="M45 61.4944C45.0097 63.1267 49.3667 61.5785 45 61.4944V61.4944Z" fill="#6D3803"/>
<path opacity="0.55" d="M44.2822 56.47C44.2822 58.286 47.3458 56.47 44.2822 56.47V56.47Z" fill="#6D3803"/>
<path d="M68.8076 50.0475C68.913 47.6294 70.6316 55.6679 68.8076 50.0475V50.0475Z" fill="#6D3803"/>
<path opacity="0.55" d="M79.6211 33.7813C79.6211 37.2147 82.3169 33.5647 79.6211 33.7813V33.7813Z" fill="#6D3803"/>
<path opacity="0.55" d="M28.0516 29.3654C25.5526 28.6549 29.1511 27.1435 28.0516 29.3654V29.3654Z" fill="#6D3803"/>
<path opacity="0.55" d="M50.4097 90.2054C47.9588 87.3079 53.7785 90.2054 50.4097 90.2054V90.2054Z" fill="#6D3803"/>
<path opacity="0.55" d="M98.3721 79.9637C98.1485 79.9322 99.1227 79.9637 98.3721 79.9637V79.9637Z" fill="#6D3803"/>
<path opacity="0.55" d="M23.7227 79.9637C20.5013 78.1172 30.1308 80.778 23.7227 79.9637V79.9637Z" fill="#6D3803"/>
<path opacity="0.55" d="M109.553 69.7235C105.528 69.8521 110.895 70.844 109.553 69.7235V69.7235Z" fill="#6D3803"/>
<path opacity="0.55" d="M68.8076 65.708C68.8076 64.7467 74.1171 65.0863 68.8076 65.708V65.708Z" fill="#6D3803"/>
<path d="M67.7199 63.0968C66.7752 62.8569 67.233 63.1432 67.7199 63.0968V63.0968Z" fill="#6D3803"/>
<path opacity="0.55" d="M65.9785 62.821C64.5743 62.9201 62.5913 62.1301 65.4166 61.9359C65.3155 62.093 65.5121 62.5573 65.9785 62.821Z" fill="#6D3803"/>
<path opacity="0.55" d="M66.4885 62.734C66.1163 62.253 65.8413 62.0073 65.6602 61.9225C66.0337 61.9026 66.4701 61.8916 66.9987 61.8932C67.143 62.3502 66.8947 62.6088 66.4885 62.734Z" fill="#6D3803"/>
<path d="M35.2607 57.4756C35.8854 55.3959 37.1767 57.72 35.2607 57.4756V57.4756Z" fill="#6D3803"/>
<path d="M30.9375 55.6663C31.2271 55.6663 32.0689 55.8319 30.9375 55.6663V55.6663Z" fill="#6D3803"/>
<path opacity="0.55" d="M20.8439 53.8623C20.2901 54.8843 24.3448 53.8623 20.8439 53.8623V53.8623Z" fill="#6D3803"/>
<path opacity="0.55" d="M75.6553 29.5638C76.636 29.5439 78.925 30.353 75.6553 29.5638V29.5638Z" fill="#6D3803"/>
<path d="M101.62 21.5358C97.8049 21.3828 104.701 21.5358 101.62 21.5358V21.5358Z" fill="#6D3803"/>
<path opacity="0.55" d="M57.6304 13.702C56.5583 16.1134 63.5678 13.702 57.6304 13.702V13.702Z" fill="#6D3803"/>
<path d="M29.134 37.578C26.296 35.2717 27.464 37.6744 29.134 37.578V37.578Z" fill="#6D3803"/>
<path d="M80.7031 90.5955C79.3335 90.3259 81.1349 89.9968 80.7031 90.5955V90.5955Z" fill="#6D3803"/>
<path opacity="0.55" d="M85.0307 93.3469C84.5334 93.4444 90.9542 93.3469 85.0307 93.3469V93.3469Z" fill="#6D3803"/>
<path d="M96.9316 93.1377C97.5701 90.2692 99.0716 98.4822 96.9316 93.1377V93.1377Z" fill="#6D3803"/>
<path opacity="0.55" d="M103.777 91.4423V92.7156C102.026 92.7986 102.894 91.5714 103.777 91.4423Z" fill="#6D3803"/>
<path opacity="0.55" d="M74.933 83.171C72.2501 83.5316 77.3803 83.0392 74.933 83.171V83.171Z" fill="#6D3803"/>
<path d="M72.7695 66.4198C72.8821 66.1473 77.7359 67.4671 72.7695 66.4198V66.4198Z" fill="#6D3803"/>
<path opacity="0.55" d="M101.978 58.571C98.8874 58.1641 105.588 58.1037 101.978 58.571V58.571Z" fill="#6D3803"/>
<path opacity="0.55" d="M26.249 47.123C27.0289 49.3635 30.4606 46.4419 26.249 47.123V47.123Z" fill="#6D3803"/>
<path d="M66.999 37.366C67.6322 35.2564 68.3879 35.8651 66.999 37.366V37.366Z" fill="#6D3803"/>
<path d="M70.2436 16.1623C63.2863 12.9333 71.314 21.7657 70.2436 16.1623V16.1623ZM68.4414 16.7969V15.9485C69.8323 15.78 69.8323 16.9644 68.4414 16.7969Z" fill="#6D3803"/>
<path d="M48.9685 13.4029C47.5703 13.5503 48.007 11.0071 48.9685 13.4029V13.4029Z" fill="#6D3803"/>
<path d="M60.1523 97.8037C60.7827 94.9892 64.1865 97.8037 60.1523 97.8037V97.8037Z" fill="#6D3803"/>
<path d="M104.145 76.599C104.145 79.447 108.437 76.6157 104.145 76.599V76.599Z" fill="#6D3803"/>
<path opacity="0.55" d="M33.4668 49.6686C34.6152 50.8134 35.7202 49.895 33.4668 49.6686V49.6686Z" fill="#6D3803"/>
<path d="M80.7031 26.7641C80.7031 24.4989 83.4408 27.1927 80.7031 26.7641V26.7641Z" fill="#6D3803"/>
<path opacity="0.55" d="M66.2805 25.704C63.4022 26.3648 64.0538 20.237 66.2805 25.704V25.704Z" fill="#6D3803"/>
<path opacity="0.55" d="M88.2452 23.2106C86.5861 25.0168 87.888 20.6895 88.2452 23.2106V23.2106Z" fill="#6D3803"/>
<path opacity="0.55" d="M94.3965 85.3088C94.3965 87.2247 96.5503 85.3088 94.3965 85.3088V85.3088Z" fill="#6D3803"/>
<path d="M88.2446 23.2107C87.9353 21.0268 90.2683 23.1603 88.2446 23.2107V23.2107Z" fill="#6D3803"/>
<path opacity="0.55" d="M84.1357 50.8722C84.1357 45.9634 87.8448 52.0352 84.1357 50.8722V50.8722Z" fill="#6D3803"/>
<path opacity="0.55" d="M84.6526 99.4232C82.5142 99.4232 87.7013 99.6702 84.6526 99.4232V99.4232Z" fill="#6D3803"/>
<path opacity="0.55" d="M80.0317 81.6374C79.9129 80.1637 81.8325 80.4655 80.0317 81.6374V81.6374Z" fill="#6D3803"/>
<path opacity="0.55" d="M80.2878 26.593C79.3426 29.3654 80.4442 27.5638 80.2878 26.593V26.593Z" fill="#6D3803"/>
<path opacity="0.55" d="M79.7804 63.0076C79.2923 63.0076 79.7804 65.7058 79.7804 63.0076V63.0076Z" fill="#6D3803"/>
<path d="M75.6719 77.9716C75.6257 77.9626 75.6719 82.1215 75.6719 77.9716V77.9716Z" fill="#6D3803"/>
<path opacity="0.55" d="M65.4113 83.3333C61.9799 81.926 64.9535 85.2407 65.4113 83.3333V83.3333Z" fill="#6D3803"/>
<path opacity="0.55" d="M73.1104 92.9314C73.1399 92.212 73.4816 91.8339 74.1353 91.8049C74.0979 92.5222 73.761 92.8962 73.1104 92.9314Z" fill="#6D3803"/>
<path d="M70.7988 61.0315C64.1557 62.0737 71.9095 58.3419 70.7988 61.0315V61.0315Z" fill="#6D3803"/>
<path opacity="0.55" d="M66.695 63.0076C66.4093 63.0076 66.173 62.9306 65.9785 62.821C66.1621 62.8082 66.3363 62.781 66.4884 62.734C66.5556 62.8215 66.6214 62.9039 66.695 63.0076Z" fill="#6D3803"/>
<path opacity="0.55" d="M65.6604 61.9225C65.5773 61.9265 65.4927 61.931 65.417 61.9359C65.4553 61.8765 65.5355 61.8638 65.6604 61.9225Z" fill="#6D3803"/>
<path opacity="0.55" d="M66.4883 62.734C66.3362 62.781 66.162 62.8081 65.9784 62.821C65.512 62.5573 65.3154 62.093 65.4165 61.9359C65.4922 61.931 65.5768 61.9265 65.6599 61.9225C65.8411 62.0073 66.1161 62.2531 66.4883 62.734Z" fill="#6D3803"/>
<path opacity="0.55" d="M66.4883 62.734C66.3362 62.781 66.162 62.8081 65.9784 62.821C65.512 62.5573 65.3154 62.093 65.4165 61.9359C65.4922 61.931 65.5768 61.9265 65.6599 61.9225C65.8411 62.0073 66.1161 62.2531 66.4883 62.734Z" fill="#6D3803"/>
<path opacity="0.55" d="M64.3836 23.7733C63.3087 25.6226 64.7442 22.4231 64.3836 23.7733V23.7733Z" fill="#6D3803"/>
<path d="M60.2835 45.5104C53.4713 45.5773 60.2835 49.5134 60.2835 45.5104V45.5104Z" fill="#6D3803"/>
<path opacity="0.55" d="M47.1563 104.975C45.737 105.137 43.4961 105.565 45.4045 105.632C46.3369 105.444 46.986 105.3 47.4202 105.192C47.718 105.574 47.2984 106.083 45.1455 106.485C43.3937 104.4 46.143 104.388 47.1563 104.975Z" fill="#6D3803"/>
<path d="M47.1562 104.975C48.1036 104.867 48.681 104.877 47.4202 105.192C46.9859 105.3 46.3368 105.444 45.4044 105.632C43.4961 105.565 45.7369 105.137 47.1562 104.975Z" fill="#6D3803"/>
<path d="M42.8419 16.4348C42.5376 18.1826 47.8103 13.1072 42.8419 16.4348V16.4348Z" fill="#6D3803"/>
<path opacity="0.55" d="M42.0684 18.9771C38.8428 19.6849 42.0684 21.1602 42.0684 18.9771V18.9771Z" fill="#6D3803"/>
<path opacity="0.55" d="M41.8113 77.1229C38.1971 76.1936 41.5508 78.4994 41.8113 77.1229V77.1229Z" fill="#6D3803"/>
<path opacity="0.55" d="M34.6317 9.09741C28.2651 9.11724 39.1414 13.7054 34.6317 9.09741V9.09741Z" fill="#6D3803"/>
<path opacity="0.55" d="M32.834 49.4608C33.3017 46.9087 33.4383 49.4608 32.834 49.4608V49.4608Z" fill="#6D3803"/>
<path opacity="0.55" d="M30.5273 83.0527C30.8359 81.3406 31.8701 82.8382 30.5273 83.0527V83.0527Z" fill="#6D3803"/>
<path opacity="0.55" d="M27.9624 30.5493C22.4116 32.9817 28.207 29.3305 27.9624 30.5493V30.5493Z" fill="#6D3803"/>
<path d="M23.5996 32.2422C23.8322 30.9545 25.0697 32.5906 23.5996 32.2422V32.2422Z" fill="#6D3803"/>
<path opacity="0.55" d="M104.403 80.5157C102.427 80.5157 102.637 83.2773 104.403 80.5157V80.5157Z" fill="#6D3803"/>
<path d="M102.859 95.1879C100.144 94.8523 102.984 94.7841 102.859 95.1879V95.1879Z" fill="#6D3803"/>
<path opacity="0.55" d="M93.8877 22.0819C93.7691 22.0475 96.4144 19.4062 93.8877 22.0819V22.0819Z" fill="#6D3803"/>
<path d="M82.6007 29.1367C81.9089 32.4843 81.9329 23.5805 82.6007 29.1367V29.1367Z" fill="#6D3803"/>
<path opacity="0.55" d="M79.7802 84.1784C77.6451 83.557 79.1846 85.723 79.7802 84.1784V84.1784Z" fill="#6D3803"/>
<path d="M77.9805 106.197C78.0873 106.742 78.2767 105.628 77.9805 106.197V106.197Z" fill="#6D3803"/>
<path opacity="0.55" d="M75.6717 27.1605C75.5652 28.7757 76.026 24.7969 75.6717 27.1605V27.1605Z" fill="#6D3803"/>
<path opacity="0.55" d="M75.1594 100.272C72.9216 101.513 75.209 100.437 75.1594 100.272V100.272Z" fill="#6D3803"/>
<path opacity="0.55" d="M74.1349 98.8571C72.4625 95.6598 74.1349 101.679 74.1349 98.8571V98.8571Z" fill="#6D3803"/>
<path d="M65.6678 24.0554C65.0244 22.524 65.6678 21.4644 65.6678 24.0554V24.0554Z" fill="#6D3803"/>
<path opacity="0.55" d="M60.2838 90.6691C59.7808 88.8064 60.7515 90.8165 60.2838 90.6691V90.6691Z" fill="#6D3803"/>
<path d="M54.3796 48.6117H54.896C55.1953 50.2763 53.4363 49.671 54.3796 48.6117Z" fill="#6D3803"/>
<path opacity="0.55" d="M48.7399 36.4763C47.9828 39.044 51.9931 37.2346 48.7399 36.4763V36.4763Z" fill="#6D3803"/>
<path opacity="0.55" d="M31.5527 77.4026C31.5527 79.7831 33.4933 77.18 31.5527 77.4026V77.4026Z" fill="#6D3803"/>
<path d="M28.4715 97.4454C24.218 96.3576 28.4715 96.5128 28.4715 97.4454V97.4454Z" fill="#6D3803"/>
<path opacity="0.55" d="M23.8567 98.0153C23.302 98.1183 24.8734 101.953 23.8567 98.0153V98.0153Z" fill="#6D3803"/>
<path opacity="0.55" d="M17.6992 70.3477C19.5205 70.1039 22.676 69.0567 17.6992 70.3477V70.3477Z" fill="#6D3803"/>
</g>
<g opacity="0.3">
<path d="M92.7109 21.314V20.4657C94.1018 20.2971 94.1018 21.4815 92.7109 21.314Z" fill="#915B20"/>
<path opacity="0.55" d="M94.5129 94.1201C94.1003 92.5614 101.079 95.9279 94.5129 94.1201V94.1201Z" fill="#915B20"/>
<path d="M35.3766 87.2933C35.47 86.8279 36.3398 86.8307 36.813 87.0916C37.0938 87.5541 34.9081 87.9534 35.3766 87.2933Z" fill="#915B20"/>
<path opacity="0.55" d="M45.834 82.4759C45.9895 80.3292 46.1037 85.398 45.834 82.4759V82.4759Z" fill="#915B20"/>
<path d="M68.9057 72.2341C67.7767 72.3238 67.3059 72.0625 67.463 71.4326C68.3085 71.5035 69.1553 71.5607 68.9057 72.2341Z" fill="#915B20"/>
<path opacity="0.55" d="M91.9893 72.4345C89.5701 72.7142 91.9893 68.4551 91.9893 72.4345V72.4345Z" fill="#915B20"/>
<path d="M93.0767 37.6976C90.2698 37.6976 93.8132 38.3212 93.0767 37.6976V37.6976Z" fill="#915B20"/>
<path opacity="0.55" d="M27.4404 66.6106C27.6661 66.5759 27.7404 67.9811 27.4404 66.6106V66.6106Z" fill="#915B20"/>
<path d="M69.2695 66.0116C69.2792 67.6439 73.6362 66.0957 69.2695 66.0116V66.0116Z" fill="#915B20"/>
<path opacity="0.55" d="M68.5518 60.9871C68.5518 62.8031 71.6154 60.9871 68.5518 60.9871V60.9871Z" fill="#915B20"/>
<path d="M93.0771 54.5646C93.1825 52.1465 94.9012 60.185 93.0771 54.5646V54.5646Z" fill="#915B20"/>
<path opacity="0.55" d="M103.891 38.2984C103.891 41.7318 106.586 38.0817 103.891 38.2984V38.2984Z" fill="#915B20"/>
<path opacity="0.55" d="M52.3211 33.8825C49.8222 33.1719 53.4207 31.6606 52.3211 33.8825V33.8825Z" fill="#915B20"/>
<path opacity="0.55" d="M53.4027 10.7899C51.8064 10.9095 52.3336 13.3163 53.4027 10.7899V10.7899Z" fill="#915B20"/>
<path opacity="0.55" d="M74.6793 94.7225C72.2283 91.825 78.048 94.7225 74.6793 94.7225V94.7225Z" fill="#915B20"/>
<path opacity="0.55" d="M47.9922 84.4808C44.7709 82.6343 54.4003 85.2951 47.9922 84.4808V84.4808Z" fill="#915B20"/>
<path opacity="0.55" d="M93.0771 70.2251C93.0771 69.2637 98.3866 69.6034 93.0771 70.2251V70.2251Z" fill="#915B20"/>
<path d="M91.9894 67.6138C91.0447 67.374 91.5025 67.6603 91.9894 67.6138V67.6138Z" fill="#915B20"/>
<path opacity="0.55" d="M90.248 67.3381C88.8439 67.4372 86.8608 66.6472 89.6861 66.453C89.5851 66.6101 89.7816 67.0744 90.248 67.3381Z" fill="#915B20"/>
<path opacity="0.55" d="M90.7581 67.2511C90.3859 66.7701 90.1108 66.5243 89.9297 66.4396C90.3032 66.4197 90.7396 66.4087 91.2682 66.4103C91.4125 66.8673 91.1642 67.1259 90.7581 67.2511Z" fill="#915B20"/>
<path d="M59.5303 61.9927C60.1549 59.913 61.4462 62.2371 59.5303 61.9927V61.9927Z" fill="#915B20"/>
<path d="M55.207 60.1833C55.4967 60.1833 56.3384 60.349 55.207 60.1833V60.1833Z" fill="#915B20"/>
<path opacity="0.55" d="M45.1135 58.3794C44.5597 59.4014 48.6144 58.3794 45.1135 58.3794V58.3794Z" fill="#915B20"/>
<path opacity="0.55" d="M42.9477 50.7496C42.4618 50.7496 44.7732 46.4136 42.9477 50.7496V50.7496Z" fill="#915B20"/>
<path opacity="0.55" d="M99.9248 34.0809C100.906 34.061 103.195 34.8701 99.9248 34.0809V34.0809Z" fill="#915B20"/>
<path opacity="0.55" d="M81.8999 18.2192C80.8279 20.6307 87.8373 18.2192 81.8999 18.2192V18.2192Z" fill="#915B20"/>
<path d="M18.7865 90.2304C18.2183 89.7081 24.0683 90.4751 18.7865 90.2304V90.2304Z" fill="#915B20"/>
<path opacity="0.55" d="M25.2803 99.5632C25.2803 96.4152 29.3867 102.798 25.2803 99.5632V99.5632Z" fill="#915B20"/>
<path d="M32.125 23.0099C32.125 20.8853 33.9878 22.8628 32.125 23.0099V23.0099Z" fill="#915B20"/>
<path d="M41.869 32.766C39.0836 32.766 42.552 29.5533 41.869 32.766V32.766Z" fill="#915B20"/>
<path d="M53.4035 42.0951C50.5655 39.7888 51.7336 42.1915 53.4035 42.0951V42.0951Z" fill="#915B20"/>
<path d="M104.973 95.1126C103.603 94.843 105.404 94.5139 104.973 95.1126V95.1126Z" fill="#915B20"/>
<path opacity="0.55" d="M99.2025 87.6881C96.5196 88.0487 101.65 87.5563 99.2025 87.6881V87.6881Z" fill="#915B20"/>
<path opacity="0.55" d="M28.8847 85.7802C25.3252 85.7802 28.8847 87.064 28.8847 85.7802V85.7802Z" fill="#915B20"/>
<path opacity="0.55" d="M39.6987 84.0836C39.0741 84.0836 39.7336 84.1014 39.6987 84.0836V84.0836Z" fill="#915B20"/>
<path opacity="0.55" d="M38.6172 71.7826C39.796 71.7289 40.3545 72.0362 40.4251 72.6334C39.366 72.6183 39.0793 72.1476 38.6172 71.7826Z" fill="#915B20"/>
<path d="M97.0391 70.9369C97.1516 70.6644 102.005 71.9842 97.0391 70.9369V70.9369Z" fill="#915B20"/>
<path d="M26.3574 57.3654C29.2108 59.505 30.7709 57.3654 26.3574 57.3654V57.3654Z" fill="#915B20"/>
<path opacity="0.55" d="M50.5186 51.6401C51.2985 53.8805 54.7301 50.959 50.5186 51.6401V51.6401Z" fill="#915B20"/>
<path d="M91.2686 41.883C91.9017 39.7735 92.6575 40.3822 91.2686 41.883V41.883Z" fill="#915B20"/>
<path opacity="0.55" d="M40.784 17.92C40.4868 17.0692 42.7714 17.92 40.784 17.92V17.92Z" fill="#915B20"/>
<path d="M94.5131 20.6794C87.5558 17.4504 95.5835 26.2828 94.5131 20.6794V20.6794ZM92.711 21.314V20.4656C94.1019 20.2971 94.1019 21.4815 92.711 21.314Z" fill="#915B20"/>
<path d="M73.238 17.92C71.8399 18.0674 72.2765 15.5242 73.238 17.92V17.92Z" fill="#915B20"/>
<path d="M84.4219 102.321C85.0523 99.5063 88.4561 102.321 84.4219 102.321V102.321Z" fill="#915B20"/>
<path opacity="0.55" d="M39.6988 101.472C34.7532 100.696 39.8241 99.911 39.6988 101.472V101.472Z" fill="#915B20"/>
<path opacity="0.55" d="M57.7363 54.1857C58.8848 55.3305 59.9898 54.4121 57.7363 54.1857V54.1857Z" fill="#915B20"/>
<path d="M104.973 31.2812C104.973 29.016 107.71 31.7098 104.973 31.2812V31.2812Z" fill="#915B20"/>
<path opacity="0.55" d="M90.55 30.2211C87.6717 30.8819 88.3233 24.7541 90.55 30.2211V30.2211Z" fill="#915B20"/>
<path opacity="0.55" d="M63.0038 9.65887C62.4563 7.98966 63.0229 9.03189 63.0038 9.65887V9.65887Z" fill="#915B20"/>
<path opacity="0.55" d="M104.301 86.1545C104.182 84.6808 106.102 84.9826 104.301 86.1545V86.1545Z" fill="#915B20"/>
<path opacity="0.55" d="M104.557 31.1101C103.612 33.8825 104.714 32.0809 104.557 31.1101V31.1101Z" fill="#915B20"/>
<path opacity="0.55" d="M104.05 67.5247C103.562 67.5247 104.05 70.2229 104.05 67.5247V67.5247Z" fill="#915B20"/>
<path d="M99.9404 82.4887C99.8943 82.4797 99.9404 86.6386 99.9404 82.4887V82.4887Z" fill="#915B20"/>
<path opacity="0.55" d="M89.6808 87.8504C86.2494 86.4431 89.223 89.7578 89.6808 87.8504V87.8504Z" fill="#915B20"/>
<path opacity="0.55" d="M97.3799 97.4487C97.4094 96.7292 97.7511 96.3511 98.4048 96.3221C98.3674 97.0394 98.0305 97.4134 97.3799 97.4487Z" fill="#915B20"/>
<path d="M95.0683 65.5486C88.4252 66.5908 96.1791 62.859 95.0683 65.5486V65.5486Z" fill="#915B20"/>
<path opacity="0.55" d="M90.9645 67.5247C90.6788 67.5247 90.4425 67.4476 90.248 67.3381C90.4317 67.3253 90.6059 67.2981 90.758 67.2511C90.8251 67.3386 90.8909 67.421 90.9645 67.5247Z" fill="#915B20"/>
<path opacity="0.55" d="M89.93 66.4396C89.8468 66.4436 89.7622 66.4481 89.6865 66.453C89.7249 66.3936 89.8051 66.3809 89.93 66.4396Z" fill="#915B20"/>
<path opacity="0.55" d="M90.7578 67.2511C90.6058 67.2981 90.4315 67.3252 90.2479 67.338C89.7815 67.0744 89.585 66.6101 89.686 66.453C89.7617 66.4481 89.8463 66.4436 89.9295 66.4396C90.1106 66.5244 90.3857 66.7702 90.7578 67.2511Z" fill="#915B20"/>
<path opacity="0.55" d="M90.7578 67.2511C90.6058 67.2981 90.4315 67.3252 90.2479 67.338C89.7815 67.0744 89.585 66.6101 89.686 66.453C89.7617 66.4481 89.8463 66.4436 89.9295 66.4396C90.1106 66.5244 90.3857 66.7702 90.7578 67.2511Z" fill="#915B20"/>
<path opacity="0.55" d="M88.6531 28.2904C87.5782 30.1397 89.0138 26.9402 88.6531 28.2904V28.2904Z" fill="#915B20"/>
<path d="M84.553 50.0275C77.7409 50.0944 84.553 54.0305 84.553 50.0275V50.0275Z" fill="#915B20"/>
<path opacity="0.55" d="M71.4258 109.492C70.0065 109.654 67.7657 110.082 69.674 110.149C70.6064 109.961 71.2555 109.817 71.6898 109.709C71.9875 110.091 71.5679 110.601 69.4151 111.002C67.6632 108.917 70.4126 108.906 71.4258 109.492Z" fill="#915B20"/>
<path d="M71.4258 109.492C72.3732 109.384 72.9505 109.394 71.6897 109.709C71.2555 109.817 70.6063 109.961 69.6739 110.149C67.7656 110.082 70.0064 109.654 71.4258 109.492Z" fill="#915B20"/>
<path d="M67.1114 20.952C66.8071 22.6998 72.0799 17.6244 67.1114 20.952V20.952Z" fill="#915B20"/>
<path opacity="0.55" d="M66.3379 23.4941C63.1123 24.202 66.3379 25.6773 66.3379 23.4941V23.4941Z" fill="#915B20"/>
<path opacity="0.55" d="M66.0808 81.64C62.4666 80.7107 65.8203 83.0164 66.0808 81.64V81.64Z" fill="#915B20"/>
<path opacity="0.55" d="M58.9002 13.6145C52.5336 13.6343 63.41 18.2225 58.9002 13.6145V13.6145Z" fill="#915B20"/>
<path opacity="0.55" d="M57.1035 53.9779C57.5712 51.4258 57.7078 53.9779 57.1035 53.9779V53.9779Z" fill="#915B20"/>
<path opacity="0.55" d="M54.7969 87.5698C55.1054 85.8577 56.1396 87.3553 54.7969 87.5698V87.5698Z" fill="#915B20"/>
<path opacity="0.55" d="M52.2319 35.0664C46.6811 37.4988 52.4765 33.8476 52.2319 35.0664V35.0664Z" fill="#915B20"/>
<path d="M47.8691 36.7593C48.1018 35.4716 49.3392 37.1077 47.8691 36.7593V36.7593Z" fill="#915B20"/>
<path d="M40.9463 93.4952C40.9627 90.206 41.2671 95.6164 40.9463 93.4952V93.4952Z" fill="#915B20"/>
<path d="M33.7644 103.655C31.764 103.655 36.1445 104.064 33.7644 103.655V103.655Z" fill="#915B20"/>
<path d="M21.1962 28.2904C20.3466 25.2211 22.8306 28.2904 21.1962 28.2904V28.2904Z" fill="#915B20"/>
<path opacity="0.55" d="M20.6819 70.9147C17.0608 71.1568 23.7852 67.6493 20.6819 70.9147V70.9147Z" fill="#915B20"/>
<path opacity="0.55" d="M104.05 88.6955C101.915 88.0741 103.454 90.2401 104.05 88.6955V88.6955Z" fill="#915B20"/>
<path d="M102.25 110.714C102.357 111.259 102.546 110.145 102.25 110.714V110.714Z" fill="#915B20"/>
<path opacity="0.55" d="M99.9412 31.6776C99.8347 33.2928 100.296 29.314 99.9412 31.6776V31.6776Z" fill="#915B20"/>
<path opacity="0.55" d="M99.429 104.789C97.1912 106.03 99.4785 104.954 99.429 104.789V104.789Z" fill="#915B20"/>
<path opacity="0.55" d="M98.4044 103.374C96.732 100.177 98.4044 106.196 98.4044 103.374V103.374Z" fill="#915B20"/>
<path d="M89.9373 28.5725C89.2939 27.0411 89.9373 25.9815 89.9373 28.5725V28.5725Z" fill="#915B20"/>
<path opacity="0.55" d="M84.5533 95.1862C84.0503 93.3235 85.021 95.3336 84.5533 95.1862V95.1862Z" fill="#915B20"/>
<path d="M78.6492 53.1288H79.1656C79.4649 54.7934 77.7058 54.1881 78.6492 53.1288Z" fill="#915B20"/>
<path opacity="0.55" d="M73.0094 40.9934C72.2524 43.5611 76.2626 41.7517 73.0094 40.9934V40.9934Z" fill="#915B20"/>
<path opacity="0.55" d="M55.8223 81.9197C55.8223 84.3002 57.7628 81.6971 55.8223 81.9197V81.9197Z" fill="#915B20"/>
<path d="M52.7411 101.963C48.4875 100.875 52.7411 101.03 52.7411 101.963V101.963Z" fill="#915B20"/>
<path opacity="0.55" d="M48.1262 102.532C47.5715 102.636 49.1429 106.47 48.1262 102.532V102.532Z" fill="#915B20"/>
<path opacity="0.55" d="M44.7915 35.629C44.3817 37.563 44.7915 34.7823 44.7915 35.629V35.629Z" fill="#915B20"/>
<path d="M44.7915 107.609C40.2114 107.609 44.7915 104.973 44.7915 107.609V107.609Z" fill="#915B20"/>
<path opacity="0.55" d="M41.9688 74.8649C43.79 74.6212 46.9456 73.5739 41.9688 74.8649V74.8649Z" fill="#915B20"/>
<path opacity="0.55" d="M36.8414 102.532C35.7813 104.949 36.7027 103.84 36.8414 102.532V102.532Z" fill="#915B20"/>
<path opacity="0.55" d="M20.4208 21.7959C20.3807 21.7849 21.0011 18.2303 20.4208 21.7959V21.7959Z" fill="#915B20"/>
<path opacity="0.55" d="M19.6572 7.96631C19.6572 6.64707 23.0831 11.4809 19.6572 7.96631V7.96631Z" fill="#915B20"/>
<path d="M21.501 35.7972V34.9488C22.8919 34.7803 22.8919 35.9647 21.501 35.7972Z" fill="#6D3803"/>
<path opacity="0.55" d="M58.2874 72.6624C58.1884 72.6624 59.164 73.124 58.2874 72.6624V72.6624Z" fill="#6D3803"/>
<path opacity="0.55" d="M79.8113 105.845C79.7065 105.552 80.1681 105.43 81.3638 106.395C81.1676 106.421 80.9923 106.417 80.8293 106.4C80.5903 106.135 80.2557 105.939 79.8113 105.845Z" fill="#6D3803"/>
<path opacity="0.55" d="M40.2527 80.292C39.5357 79.1018 39.7051 80.237 40.2527 80.292V80.292Z" fill="#6D3803"/>
<path opacity="0.55" d="M23.3029 108.603C22.8903 107.045 29.8695 110.411 23.3029 108.603V108.603Z" fill="#6D3803"/>
<path opacity="0.55" d="M84.6084 107.601C84.6112 107.601 84.6848 108.521 84.6084 107.601V107.601Z" fill="#6D3803"/>
<path d="M76.3165 90.3307C68.8908 89.769 78.2303 90.1157 76.3165 90.3307V90.3307Z" fill="#6D3803"/>
<path opacity="0.55" d="M42.0562 87.7214C41.8623 86.179 42.2874 87.7397 42.0562 87.7214V87.7214Z" fill="#6D3803"/>
<path d="M21.8657 52.1809C19.0589 52.1809 22.6022 52.8045 21.8657 52.1809V52.1809Z" fill="#6D3803"/>
<path d="M21.8662 69.0479C21.9716 66.6298 23.6902 74.6683 21.8662 69.0479V69.0479Z" fill="#6D3803"/>
<path opacity="0.55" d="M76.6748 62.8191C76.6748 62.843 77.0661 64.1507 76.6748 62.8191V62.8191Z" fill="#6D3803"/>
<path opacity="0.55" d="M32.6807 52.7817C32.6807 56.2151 35.3765 52.565 32.6807 52.7817V52.7817Z" fill="#6D3803"/>
<path d="M64.7735 49.7705C59.5002 47.169 65.3402 48.228 64.7735 49.7705V49.7705Z" fill="#6D3803"/>
<path opacity="0.55" d="M104.444 42.5417C100.37 42.6835 104.077 39.5553 104.444 42.5417V42.5417Z" fill="#6D3803"/>
<path opacity="0.55" d="M86.96 29.7915C86.4958 29.7494 85.8476 29.6608 84.9717 29.4924C86.6354 29.3993 87.7106 29.6043 87.8387 29.7306C87.5161 29.7382 87.1603 29.7637 86.96 29.7915Z" fill="#6D3803"/>
<path opacity="0.55" d="M81.0025 23.0643C74.7478 18.6766 81.0025 27.3456 81.0025 23.0643V23.0643Z" fill="#6D3803"/>
<path d="M91.0942 104.187C90.7703 103.492 93.159 103.083 91.0942 104.187V104.187Z" fill="#6D3803"/>
<path opacity="0.55" d="M51.4307 98.9641C51.2071 98.9326 52.1813 98.9641 51.4307 98.9641V98.9641Z" fill="#6D3803"/>
<path opacity="0.55" d="M62.6119 88.7239C58.5861 88.8525 63.9535 89.8444 62.6119 88.7239V88.7239Z" fill="#6D3803"/>
<path opacity="0.55" d="M65.49 87.7214C64.2628 86.4663 65.8741 86.7743 65.49 87.7214V87.7214Z" fill="#6D3803"/>
<path opacity="0.55" d="M21.8662 84.7084C21.8662 83.747 27.1757 84.0867 21.8662 84.7084V84.7084Z" fill="#6D3803"/>
<path opacity="0.55" d="M78.1191 81.6978C80.2955 81.3782 79.5795 83.1422 78.1191 82.2998V81.6978Z" fill="#6D3803"/>
<path d="M67.291 69.4493C68.7066 69.6287 68.8368 72.0584 67.291 69.4493V69.4493Z" fill="#6D3803"/>
<path opacity="0.55" d="M28.7148 48.5642C29.6956 48.5443 31.9846 49.3534 28.7148 48.5642V48.5642Z" fill="#6D3803"/>
<path d="M54.6784 40.5361C50.8635 40.3832 57.7591 40.5361 54.6784 40.5361V40.5361Z" fill="#6D3803"/>
<path d="M94.7012 34.7118C94.1671 36.8718 99.3575 34.7118 94.7012 34.7118V34.7118Z" fill="#6D3803"/>
<path d="M88.2119 29.8923C86.7326 29.8923 86.625 29.8378 86.9596 29.7915C87.1599 29.7637 87.5158 29.7381 87.8383 29.7306C88.3773 29.7172 88.8114 29.7493 88.2119 29.8923Z" fill="#6D3803"/>
<path d="M33.7617 109.596C32.3921 109.326 34.1935 108.997 33.7617 109.596V109.596Z" fill="#6D3803"/>
<path d="M86.0511 70.1483C85.2927 68.3699 86.5689 70.1644 86.0511 70.1483V70.1483Z" fill="#6D3803"/>
<path d="M103.359 89.4479C100.575 89.4479 103.009 86.2111 103.359 89.4479V89.4479Z" fill="#6D3803"/>
<path d="M49.9912 112.138C50.6297 109.269 52.1311 117.482 49.9912 112.138V112.138Z" fill="#6D3803"/>
<path opacity="0.55" d="M56.8362 110.443V111.716C55.0855 111.799 55.9538 110.572 56.8362 110.443Z" fill="#6D3803"/>
<path opacity="0.55" d="M79.1991 105.778C79.4262 105.778 79.6251 105.806 79.8111 105.845C79.8847 106.052 80.2412 106.339 80.8291 106.4C82.7785 108.559 78.616 115.131 79.1991 105.778Z" fill="#6D3803"/>
<path opacity="0.55" d="M79.8115 105.845C80.256 105.939 80.5905 106.135 80.8296 106.4C80.2417 106.339 79.8851 106.052 79.8115 105.845Z" fill="#6D3803"/>
<path opacity="0.55" d="M79.8115 105.845C80.256 105.939 80.5905 106.135 80.8296 106.4C80.2417 106.339 79.8851 106.052 79.8115 105.845Z" fill="#6D3803"/>
<path opacity="0.55" d="M27.9915 102.171C25.3087 102.532 30.4389 102.04 27.9915 102.171V102.171Z" fill="#6D3803"/>
<path d="M25.8281 85.4202C25.9407 85.1477 30.7945 86.4675 25.8281 85.4202V85.4202Z" fill="#6D3803"/>
<path opacity="0.55" d="M82.8046 50.6426C80.8569 47.0383 83.4713 50.5872 82.8046 50.6426V50.6426Z" fill="#6D3803"/>
<path opacity="0.55" d="M88.5697 54.2474C87.3265 51.8296 89.6296 54.1507 88.5697 54.2474V54.2474Z" fill="#6D3803"/>
<path opacity="0.55" d="M55.0376 77.5714C51.947 77.1645 58.6474 77.1041 55.0376 77.5714V77.5714Z" fill="#6D3803"/>
<path d="M20.0576 56.3663C20.6908 54.2567 21.4465 54.8655 20.0576 56.3663V56.3663Z" fill="#6D3803"/>
<path d="M23.3022 35.1627C16.3449 31.9336 24.3726 40.7661 23.3022 35.1627V35.1627ZM21.5 35.7973V34.9489C22.8909 34.7804 22.8909 35.9648 21.5 35.7973Z" fill="#6D3803"/>
<path d="M57.2031 95.5994C57.2031 98.4473 61.4951 95.616 57.2031 95.5994V95.5994Z" fill="#6D3803"/>
<path opacity="0.55" d="M75.2347 94.3256C69.2115 94.9067 76.9118 94.2319 75.2347 94.3256V94.3256Z" fill="#6D3803"/>
<path d="M100.839 75.6647C99.4248 72.4773 103.404 76.5581 100.839 75.6647V75.6647Z" fill="#6D3803"/>
<path d="M33.7617 45.7645C33.7617 43.4992 36.4994 46.1931 33.7617 45.7645V45.7645Z" fill="#6D3803"/>
<path d="M97.9482 15.2283C97.9482 16.7372 99.7264 15.0887 97.9482 15.2283V15.2283Z" fill="#6D3803"/>
<path opacity="0.55" d="M96.1445 11.8346C96.1997 11.9639 99.7389 11.9684 96.1445 11.8346V11.8346Z" fill="#6D3803"/>
<path d="M30.0162 17.3675C30.1357 17.9567 29.6214 18.0497 28.4736 17.6477C29.9878 17.6477 28.3153 17.2701 30.0162 17.3675Z" fill="#6D3803"/>
<path opacity="0.55" d="M41.3038 42.211C39.6447 44.0171 40.9466 39.6899 41.3038 42.211V42.211Z" fill="#6D3803"/>
<path opacity="0.55" d="M64.1289 110.805C61.4273 112.81 64.2886 110.842 64.1289 110.805V110.805Z" fill="#6D3803"/>
<path opacity="0.55" d="M104.145 111.085C104.179 110.369 104.517 109.993 105.172 109.955C105.143 110.675 104.797 111.051 104.145 111.085Z" fill="#6D3803"/>
<path d="M102.092 96.403C98.2718 96.403 102.318 98.0451 102.092 96.403V96.403Z" fill="#6D3803"/>
<path opacity="0.55" d="M100.81 104.029C99.9528 104.311 99.9718 103.634 100.04 102.898C100.897 102.619 100.883 103.289 100.81 104.029Z" fill="#6D3803"/>
<path d="M83.6263 53.7797C81.9218 56.6724 85.3542 48.5227 83.6263 53.7797V53.7797Z" fill="#6D3803"/>
<path opacity="0.55" d="M71.0576 106.003C71.1014 106.581 71.7602 105.108 71.0576 106.003V106.003Z" fill="#6D3803"/>
<path opacity="0.55" d="M71.8247 26.3984C65.423 29.1324 71.8247 27.2394 71.8247 26.3984V26.3984Z" fill="#6D3803"/>
<path opacity="0.55" d="M47.4551 104.309C47.4551 106.225 49.6089 104.309 47.4551 104.309V104.309Z" fill="#6D3803"/>
<path d="M41.3041 42.2111C40.9949 40.0272 43.3278 42.1606 41.3041 42.2111V42.2111Z" fill="#6D3803"/>
<path opacity="0.55" d="M37.1953 69.8725C37.1953 64.9638 40.9043 71.0355 37.1953 69.8725V69.8725Z" fill="#6D3803"/>
<path opacity="0.55" d="M33.0903 100.638C32.9715 99.164 34.8911 99.4659 33.0903 100.638V100.638Z" fill="#6D3803"/>
<path opacity="0.55" d="M33.3464 45.5934C32.4012 48.3658 33.5028 46.5642 33.3464 45.5934V45.5934Z" fill="#6D3803"/>
<path opacity="0.55" d="M32.839 82.0079C32.3509 82.0079 32.839 84.7062 32.839 82.0079V82.0079Z" fill="#6D3803"/>
<path d="M28.7305 96.9719C28.6843 96.9629 28.7305 101.122 28.7305 96.9719V96.9719Z" fill="#6D3803"/>
<path opacity="0.55" d="M26.1689 111.932C26.1985 111.212 26.5402 110.834 27.1939 110.805C27.1565 111.523 26.8196 111.897 26.1689 111.932Z" fill="#6D3803"/>
<path d="M23.8583 80.0318C17.2153 81.0739 24.9691 77.3422 23.8583 80.0318V80.0318Z" fill="#6D3803"/>
<path d="M105.172 82.2932C104.922 81.3759 107.516 81.6184 106.452 82.2932C105.998 82.1237 105.39 83.1206 105.172 82.2932Z" fill="#6D3803"/>
<path d="M94.9122 74.6698C94.4401 70.6749 95.4266 78.5235 94.9122 74.6698V74.6698Z" fill="#6D3803"/>
<path opacity="0.55" d="M57.4621 99.5161C55.4859 99.5161 55.696 102.278 57.4621 99.5161V99.5161Z" fill="#6D3803"/>
<path opacity="0.55" d="M46.9463 41.0822C46.8277 41.0479 49.473 38.4066 46.9463 41.0822V41.0822Z" fill="#6D3803"/>
<path opacity="0.55" d="M46.4293 24.1421C45.6413 24.9994 46.4293 22.0452 46.4293 24.1421V24.1421Z" fill="#6D3803"/>
<path d="M35.6593 48.137C34.9675 51.4847 34.9915 42.5809 35.6593 48.137V48.137Z" fill="#6D3803"/>
<path opacity="0.55" d="M32.8398 103.179C30.7047 102.557 32.2442 104.723 32.8398 103.179V103.179Z" fill="#6D3803"/>
<path opacity="0.55" d="M30.5273 10.5949C30.5273 7.98963 31.677 11.2107 30.5273 10.5949V10.5949Z" fill="#6D3803"/>
<path opacity="0.55" d="M28.7302 46.1609C28.6238 47.776 29.0846 43.7972 28.7302 46.1609V46.1609Z" fill="#6D3803"/>
</g>
</g>
</g>
<path d="M101.319 56.6358C101.526 60.4375 102.038 63.9191 102.812 66.6927C103.725 69.9626 104.908 71.8379 106.057 71.8379C107.206 71.8379 108.389 69.9626 109.302 66.6927C110.331 63.0073 110.897 58.0721 110.897 52.7964C110.897 48.7097 110.556 44.8304 109.925 41.575C107.257 44.24 103.809 48.9035 101.319 56.6358Z" fill="#C4A89B"/>
<g filter="url(#filter0_d_9_22089)">
<path d="M67.2325 53.0988L67.1383 53.0956C63.8769 52.9275 60.5509 51.8163 57.2396 49.7906C54.8704 51.0286 51.4045 52.5726 47.6961 52.5726L47.5544 52.572C43.8995 52.5258 41.0106 50.8045 40.0105 48.08C37.8085 42.0806 42.3434 37.0444 44.5806 34.7001C43.9147 32.6247 43.6792 30.617 43.8806 28.7273C44.1912 25.8121 45.5293 23.2235 47.7503 21.2413C50.0584 19.1819 53.1508 18.0009 56.2346 18.0009L56.2915 18.001C59.6389 18.0154 62.3528 19.5413 64.7818 21.2402C68.1571 19.5372 71.2847 18.1543 75.0095 18.1543L75.0919 18.1546C79.0047 18.1761 81.3095 20.8321 81.8586 23.4546C82.7982 27.9405 80.382 33.0227 75.3847 37.1162C76.1948 39.3297 76.9767 42.4509 76.491 45.4603C76.4762 45.5715 76.46 45.6574 76.44 45.7422L76.4258 45.8037C75.8589 48.2457 74.6966 50.1277 72.971 51.3981C71.4366 52.5275 69.5735 53.1002 67.4331 53.1002L67.2325 53.0988Z" fill="#EFD5BF"/>
</g>
<path d="M80.1658 23.8234C79.7614 21.8921 78.0329 19.9363 75.0829 19.9201C71.2949 19.8978 67.9573 21.595 64.7368 23.2349L64.6317 23.2884C62.2805 21.58 59.6163 19.7807 56.2785 19.7665C56.2636 19.7664 56.2491 19.7664 56.2342 19.7664C53.5628 19.7664 50.888 20.7869 48.8894 22.5702C47.0006 24.2559 45.8635 26.4509 45.6007 28.9182C45.3943 30.8551 45.7231 32.9472 46.5782 35.145C43.6879 38.1249 39.7927 42.4527 41.6309 47.4609C42.3748 49.4877 44.6501 50.7696 47.5685 50.8064C51.0619 50.8438 54.4357 49.3331 57.3129 47.7569C60.653 49.963 63.984 51.1653 67.2215 51.332C67.2318 51.3325 67.2422 51.3329 67.2524 51.3331C67.3129 51.334 67.3729 51.3346 67.4327 51.3346C69.2024 51.3346 70.7241 50.8745 71.958 49.9661C73.3367 48.9514 74.2732 47.4135 74.7413 45.3969L74.7577 45.3261C74.7645 45.2976 74.7699 45.2687 74.7738 45.2398L74.78 45.1917C75.3214 41.8811 74.0395 38.279 73.2834 36.5304C77.392 33.4959 81.1889 28.7078 80.1658 23.8234Z" fill="#3A3B3D"/>
<path d="M69.3332 35.5756C68.3017 38.6103 65.8099 42.5068 62.4917 42.5449C59.2511 42.5821 58.4039 38.2149 59.2999 35.5334C60.4151 32.1961 63.012 28.543 66.4672 28.543C70.52 28.543 70.1229 33.252 69.3332 35.5756Z" fill="white"/>
<path d="M62.4503 43.3971C61.1535 43.3971 60.0558 42.8307 59.273 41.7567C57.9447 39.9346 57.8746 37.111 58.492 35.2634C60.3597 29.6741 63.9558 27.691 66.4675 27.691C68.3061 27.691 69.2987 28.5379 69.8077 29.2484C71.0971 31.0487 70.7927 33.9297 70.1401 35.8498C69.526 37.657 68.5331 39.4391 67.4165 40.739C65.9401 42.4578 64.2405 43.3768 62.5018 43.3968C62.4845 43.397 62.4673 43.3971 62.4503 43.3971ZM66.4675 29.395C63.5538 29.395 61.1741 32.6135 60.1081 35.8034C59.5588 37.4478 59.7916 39.5756 60.65 40.7529C61.1177 41.3944 61.7184 41.7059 62.4821 41.6928C65.1529 41.6623 67.4877 38.358 68.5268 35.3013C69.0898 33.6449 69.2346 31.3747 68.4225 30.2407C68.0148 29.6717 67.3754 29.395 66.4675 29.395Z" fill="#3A3B3D"/>
<path d="M67.143 31.95C65.9502 31.9487 64.5398 33.0198 63.6919 34.5073C63.5388 34.7759 63.585 35.0528 63.7968 35.1976C64.1189 35.4176 64.2803 35.5277 64.6041 35.7481C64.8968 35.9473 64.8614 36.3778 64.5294 36.6845C64.0851 37.095 63.8649 37.3 63.4284 37.7094C63.1949 37.9284 63.1058 38.2243 63.2129 38.4484C63.5217 39.0944 64.0738 39.4941 64.7909 39.4998C66.273 39.5114 67.9051 37.8324 68.564 35.7405C69.2228 33.6486 68.6403 31.9515 67.143 31.95Z" fill="#3A3B3D"/>
<path d="M60.6824 35.5602C59.6872 38.5834 57.2415 42.4452 53.9359 42.4802C50.7055 42.5144 49.7493 38.2374 50.6501 35.5189C51.7567 32.1793 54.46 28.5717 57.8961 28.5717C61.4322 28.5717 61.4425 33.2512 60.6824 35.5602Z" fill="white"/>
<path d="M53.8971 43.3324C52.5746 43.3324 51.4527 42.7525 50.6499 41.6533C49.4635 40.0282 49.131 37.3954 49.8416 35.2509C51.0842 31.5022 54.0564 27.7197 57.8964 27.7197C59.182 27.7197 60.2359 28.237 60.944 29.2156C62.3177 31.1142 62.0245 34.2094 61.4922 35.8267H61.4919C60.2709 39.5358 57.4638 43.2949 53.9453 43.3322C53.9291 43.3323 53.913 43.3324 53.8971 43.3324ZM57.8965 29.4237C54.9226 29.4237 52.4749 32.7222 51.4593 35.7869C50.9284 37.3887 51.1721 39.4787 52.0261 40.6484C52.5012 41.2988 53.131 41.6283 53.8988 41.6283C53.9081 41.6283 53.9177 41.6283 53.9272 41.6282C56.5893 41.6001 58.8756 38.325 59.8737 35.2939C60.3909 33.7226 60.4164 31.393 59.5635 30.2146C59.1785 29.6825 58.633 29.4237 57.8965 29.4237Z" fill="#3A3B3D"/>
<path d="M58.8854 31.9616C57.6998 31.9604 56.2958 33.0249 55.4583 34.5011C55.3071 34.7676 55.3555 35.0424 55.5687 35.186C55.8928 35.4043 56.0551 35.5135 56.3803 35.7321C56.6742 35.9297 56.6427 36.3568 56.3139 36.6611C55.8738 37.0684 55.6555 37.2718 55.2224 37.6781C54.9908 37.8954 54.9044 38.189 55.0139 38.4115C55.3295 39.0527 55.8862 39.4496 56.6022 39.4552C58.0817 39.4668 59.6827 37.7999 60.3183 35.7244C60.954 33.649 60.3736 31.9631 58.8854 31.9616Z" fill="#3A3B3D"/>
<g filter="url(#filter1_d_9_22089)">
<path d="M76.0869 68.4362C75.24 65.3983 72.5714 63.5543 68.9435 63.5035L68.7984 63.5026C65.9079 63.5026 62.1935 64.6448 58.0392 66.8086C54.7896 64.4989 51.5201 63.2584 48.5597 63.217L48.443 63.2164C45.1744 63.2164 42.3317 64.6001 40.4387 67.1122C38.8122 69.2713 38.0758 71.9872 38.2502 75.1842C38.3581 77.1624 38.8235 79.2937 39.6344 81.5241C34.6851 87.3195 32.7171 92.1992 33.7849 96.0308C34.6311 99.0687 37.299 100.913 40.9263 100.964L41.0713 100.965C43.9575 100.965 47.6674 99.8246 51.8165 97.6656C53.0223 98.4981 54.9042 99.6382 57.0839 100.413L58.7015 99.1336C56.2142 98.4513 53.7769 97.0545 51.9536 95.6564C47.5871 98.0533 43.7854 99.2944 40.9448 99.2566C38.0808 99.2163 36.0704 97.8738 35.4293 95.5725C34.491 92.206 36.622 87.4758 41.5956 81.871C40.6201 79.4541 40.0685 77.1759 39.9547 75.091C39.8029 72.3068 40.4244 69.968 41.8022 68.1393C43.3935 66.0274 45.7836 64.8952 48.5451 64.9239C51.4147 64.9641 54.6354 66.31 57.8917 68.8238C62.2676 66.4183 66.0689 65.1725 68.9252 65.2103C71.7901 65.2503 73.8011 66.5931 74.4425 68.8944C75.3812 72.2612 73.2467 76.9947 68.2665 82.6053C69.1231 84.7238 69.9417 87.339 69.9082 90.2719L71.5764 88.9527C71.4466 87.0358 71.0007 85.0469 70.2301 82.9503C75.1845 77.1501 77.155 72.2678 76.0869 68.4362Z" fill="#EFD5BF"/>
<path d="M68.267 82.6055C73.2472 76.9948 75.3817 72.2614 74.443 68.8945C73.8016 66.5932 71.7906 65.2504 68.9257 65.2104C66.0694 65.1726 62.2681 66.4185 57.8921 68.824C54.6359 66.3101 51.4152 64.9643 48.5456 64.924C45.784 64.8954 43.394 66.0276 41.8027 68.1394C40.4249 69.9681 39.8034 72.3069 39.9552 75.0911C40.069 77.176 40.6206 79.4542 41.5961 81.8712C36.6226 87.4759 34.4916 92.2061 35.4298 95.5726C36.0709 97.8739 38.0813 99.2165 40.9453 99.2567C43.7859 99.2945 47.5876 98.0534 51.9541 95.6565C53.7774 97.0546 56.2147 98.4514 58.702 99.1337L69.9086 90.272C69.9422 87.3391 69.1236 84.724 68.267 82.6055Z" fill="#3A3B3D"/>
<path d="M57.0928 100.42L58.761 99.1008L69.9677 90.2391L71.5853 88.96C70.7215 88.6531 69.8123 88.4018 68.8777 88.2525C67.7527 88.1143 66.6147 88.1038 65.4648 88.2131C63.8823 88.4495 62.442 89.0566 61.1772 90.0218C59.3482 91.4165 58.0743 93.4222 57.3904 95.9844L57.3707 96.0594C57.3519 96.1297 57.3362 96.1997 57.3236 96.27L57.3089 96.3511C57.0699 97.678 56.9988 99.0302 57.0928 100.42Z" fill="#A38C79"/>
<path d="M64.2097 82.2577C63.2691 86.4869 60.2759 89.9094 57.524 89.902C54.7722 89.8946 53.3038 86.4601 54.2444 82.2309C55.185 78.0016 58.1782 74.5792 60.9301 74.5866C63.6819 74.594 65.1503 78.0285 64.2097 82.2577Z" fill="white"/>
<path d="M57.5325 90.785H57.5213C56.2962 90.7818 55.2275 90.2534 54.4307 89.2574C53.1304 87.6317 52.7385 84.9332 53.382 82.0391C54.4222 77.3621 57.7321 73.7035 60.921 73.7035H60.9322C62.1572 73.7069 63.226 74.2351 64.0228 75.2312C65.3231 76.8569 65.7149 79.5552 65.0715 82.4493C64.0312 87.1264 60.7214 90.785 57.5325 90.785ZM60.9207 75.4694C58.6061 75.4694 55.9446 78.6508 55.1059 82.4225C54.5851 84.7641 54.8549 86.9604 55.8099 88.1543C56.2672 88.7262 56.8447 89.0172 57.5262 89.019C57.5281 89.019 57.5308 89.0191 57.5327 89.0191C59.8473 89.0194 62.5088 85.8376 63.3475 82.066C63.8683 79.7244 63.5986 77.5282 62.6435 76.3343C62.1863 75.7623 61.6088 75.4714 60.9273 75.4696C60.9253 75.4696 60.9226 75.4694 60.9207 75.4694Z" fill="#3A3B3D"/>
<path d="M61.7001 78.3151C60.5218 78.3119 59.2612 79.4788 58.5416 81.1029C58.4117 81.3961 58.4784 81.6983 58.6996 81.8559L59.5401 82.4548C59.844 82.6713 59.8351 83.1405 59.5208 83.4759L58.4689 84.5982C58.2438 84.8384 58.1636 85.1622 58.276 85.4066C58.6 86.1111 59.1537 86.5449 59.8694 86.5469C61.3485 86.5509 62.9573 84.7113 63.4629 82.4382C63.9684 80.1651 63.1792 78.3191 61.7001 78.3151Z" fill="#3A3B3D"/>
<path d="M55.6238 82.2577C54.6832 86.4869 51.6899 89.9094 48.9381 89.902C46.1863 89.8946 44.7179 86.4601 45.6585 82.2309C46.599 78.0016 49.5923 74.5792 52.3441 74.5866C55.096 74.594 56.5643 78.0285 55.6238 82.2577Z" fill="white"/>
<path d="M48.9466 90.785H48.9353C47.7103 90.7818 46.6416 90.2534 45.8448 89.2574C44.5444 87.6317 44.1526 84.9332 44.7961 82.0391C45.8363 77.3621 49.1462 73.7035 52.335 73.7035H52.3463C53.5713 73.7069 54.64 74.2351 55.4368 75.2312C56.7372 76.8569 57.129 79.5552 56.4855 82.4493C55.4453 87.1264 52.1354 90.785 48.9466 90.785ZM52.3348 75.4694C50.0202 75.4694 47.3587 78.6508 46.52 82.4225C45.9992 84.7641 46.2689 86.9604 47.224 88.1543C47.6813 88.7262 48.2587 89.0172 48.9402 89.019C48.9422 89.019 48.9449 89.0191 48.9468 89.0191C51.2614 89.0194 53.9229 85.8376 54.7616 82.066C55.2824 79.7244 55.0126 77.5282 54.0576 76.3343C53.6003 75.7623 53.0229 75.4714 52.3413 75.4696C52.3394 75.4696 52.3367 75.4694 52.3348 75.4694Z" fill="#3A3B3D"/>
<path d="M53.5077 78.3151C52.3294 78.3119 51.0688 79.4788 50.3492 81.1029C50.2193 81.3961 50.286 81.6983 50.5072 81.8559L51.3477 82.4548C51.6516 82.6713 51.6427 83.1405 51.3284 83.4759L50.2765 84.5982C50.0515 84.8384 49.9713 85.1622 50.0836 85.4066C50.4076 86.1111 50.9613 86.5449 51.677 86.5469C53.1561 86.5509 54.7649 84.7113 55.2705 82.4382C55.776 80.1651 54.9868 78.3191 53.5077 78.3151Z" fill="#3A3B3D"/>
</g>
<g filter="url(#filter2_d_9_22089)">
<path d="M113.033 110.39C126.009 110.39 136.528 99.8703 136.528 86.8941C136.528 73.9179 126.009 63.3986 113.033 63.3986C100.056 63.3986 89.5371 73.9179 89.5371 86.8941C89.5371 99.8703 100.056 110.39 113.033 110.39Z" fill="#3ACC66"/>
</g>
<path d="M118.739 95.9672C122.393 91.938 122.036 86.4483 123.552 81.5949C124.002 80.155 124.679 78.8218 125.385 77.4996C124.472 77.0741 123.517 76.7565 122.529 76.5403C117.382 75.4143 109.581 75.8959 105.444 79.499C100.577 83.7371 99.7684 89.6297 102.686 95.3257C102.757 95.4643 103.598 96.9947 103.707 96.9101C104.515 93.5491 105.339 89.817 107.422 86.9916C109.792 83.7774 113.529 81.618 117.378 80.6716L115.134 82.0893C112.345 84.0342 109.855 86.4877 108.506 89.6616C107.277 92.5554 106.651 95.7131 106.444 98.903C111.17 101.064 116.44 98.5036 118.739 95.9672Z" fill="#3A3B3D"/>
<defs>
<filter id="filter0_d_9_22089" x="38.3839" y="16.9619" width="46.7917" height="39.2554" filterUnits="userSpaceOnUse" color-interpolation-filters="sRGB">
<feFlood flood-opacity="0" result="BackgroundImageFix"/>
<feColorMatrix in="SourceAlpha" type="matrix" values="0 0 0 0 0 0 0 0 0 0 0 0 0 0 0 0 0 0 127 0" result="hardAlpha"/>
<feOffset dx="1.039" dy="1.039"/>
<feGaussianBlur stdDeviation="1.039"/>
<feColorMatrix type="matrix" values="0 0 0 0 0 0 0 0 0 0 0 0 0 0 0 0 0 0 0.2 0"/>
<feBlend mode="normal" in2="BackgroundImageFix" result="effect1_dropShadow_9_22089"/>
<feBlend mode="normal" in="SourceGraphic" in2="effect1_dropShadow_9_22089" result="shape"/>
</filter>
<filter id="filter1_d_9_22089" x="32.4177" y="62.1312" width="47.207" height="42.089" filterUnits="userSpaceOnUse" color-interpolation-filters="sRGB">
<feFlood flood-opacity="0" result="BackgroundImageFix"/>
<feColorMatrix in="SourceAlpha" type="matrix" values="0 0 0 0 0 0 0 0 0 0 0 0 0 0 0 0 0 0 127 0" result="hardAlpha"/>
<feOffset dx="1.0852" dy="1.0852"/>
<feGaussianBlur stdDeviation="1.0852"/>
<feColorMatrix type="matrix" values="0 0 0 0 0 0 0 0 0 0 0 0 0 0 0 0 0 0 0.2 0"/>
<feBlend mode="normal" in2="BackgroundImageFix" result="effect1_dropShadow_9_22089"/>
<feBlend mode="normal" in="SourceGraphic" in2="effect1_dropShadow_9_22089" result="shape"/>
</filter>
<filter id="filter2_d_9_22089" x="83.5371" y="57.3986" width="70.9912" height="70.9911" filterUnits="userSpaceOnUse" color-interpolation-filters="sRGB">
<feFlood flood-opacity="0" result="BackgroundImageFix"/>
<feColorMatrix in="SourceAlpha" type="matrix" values="0 0 0 0 0 0 0 0 0 0 0 0 0 0 0 0 0 0 127 0" result="hardAlpha"/>
<feOffset dx="6" dy="6"/>
<feGaussianBlur stdDeviation="6"/>
<feColorMatrix type="matrix" values="0 0 0 0 0 0 0 0 0 0 0 0 0 0 0 0 0 0 0.15 0"/>
<feBlend mode="normal" in2="BackgroundImageFix" result="effect1_dropShadow_9_22089"/>
<feBlend mode="normal" in="SourceGraphic" in2="effect1_dropShadow_9_22089" result="shape"/>
</filter>
</defs>
</svg>
