<svg width="156" height="120" viewBox="0 0 156 120" fill="none" xmlns="http://www.w3.org/2000/svg">
<path d="M108.707 96.5948H65.4473V60.8876H105.746L108.707 96.5948Z" fill="#DBDBDD"/>
<path d="M108.707 97.541H65.4473C64.9246 97.541 64.501 97.1173 64.501 96.5947V60.8875C64.501 60.3649 64.9246 59.9412 65.4473 59.9412H105.746C106.238 59.9412 106.649 60.3186 106.689 60.8093L109.65 96.5165C109.672 96.7802 109.583 97.0409 109.403 97.2356C109.224 97.4302 108.972 97.541 108.707 97.541ZM66.3936 95.6484H107.679L104.875 61.8338H66.3936V95.6484Z" fill="#262933"/>
<path d="M108.706 96.5948C103.599 96.5948 98.3426 92.2813 94.2861 84.7601C89.7142 76.283 87.1963 64.9315 87.1963 52.7965C87.1963 40.6616 89.7142 29.3101 94.2861 20.8328C98.3426 13.3116 103.599 8.99805 108.706 8.99805C113.814 8.99805 119.07 13.3116 123.126 20.8328C127.698 29.31 130.216 40.6616 130.216 52.7965C130.216 64.9315 127.698 76.283 123.126 84.7601C119.07 92.2813 113.814 96.5948 108.706 96.5948Z" fill="white"/>
<path d="M108.706 97.541C103.239 97.541 97.6799 93.0462 93.4533 85.2092C88.8083 76.5963 86.25 65.0854 86.25 52.7965C86.25 40.5077 88.8083 28.9966 93.4533 20.3836C97.6799 12.5466 103.239 8.05176 108.706 8.05176C114.173 8.05176 119.733 12.5466 123.959 20.3836C128.604 28.9966 131.163 40.5077 131.163 52.7965C131.163 65.0854 128.604 76.5963 123.959 85.2092C119.733 93.0462 114.173 97.541 108.706 97.541ZM108.706 9.94434C103.957 9.94434 99.0052 14.0768 95.1192 21.2819C90.6204 29.6238 88.1426 40.8158 88.1426 52.7965C88.1426 64.7772 90.6204 75.9691 95.1192 84.3108C99.0052 91.516 103.957 95.6484 108.706 95.6484C113.456 95.6484 118.408 91.516 122.293 84.3108C126.792 75.9691 129.27 64.7772 129.27 52.7965C129.27 40.8158 126.792 29.6238 122.293 21.2819C118.408 14.0768 113.455 9.94434 108.706 9.94434Z" fill="#262933"/>
<path d="M109.052 90.4537C104.662 90.4537 100.217 86.6491 96.8573 80.0153C93.1928 72.7799 91.1748 63.1135 91.1748 52.7965C91.1748 42.4796 93.1928 32.8132 96.8573 25.5774C100.217 18.9437 104.662 15.139 109.052 15.139C113.442 15.139 117.887 18.9437 121.247 25.5774C124.911 32.8132 126.929 42.4797 126.929 52.7965C126.929 63.1134 124.911 72.7799 121.247 80.0153C117.887 86.6491 113.442 90.4537 109.052 90.4537ZM109.052 17.0317C105.401 17.0317 101.572 20.4582 98.5457 26.4326C95.0129 33.4082 93.0674 42.7712 93.0674 52.7965C93.0674 62.8219 95.0129 72.1849 98.5457 79.1602C101.572 85.1346 105.401 88.5611 109.052 88.5611C112.703 88.5611 116.532 85.1346 119.558 79.1602C123.091 72.1849 125.037 62.822 125.037 52.7965C125.037 42.771 123.091 33.4082 119.558 26.4326C116.532 20.4582 112.703 17.0317 109.052 17.0317Z" fill="#DBDBDD"/>
<path d="M109.712 84.3165C106.384 84.3165 103.046 81.1005 100.554 75.4932C97.8724 69.4574 96.3955 61.397 96.3955 52.7966C96.3955 44.1961 97.8725 36.1357 100.554 30.0998C103.046 24.4924 106.383 21.2764 109.712 21.2764C113.04 21.2764 116.378 24.4923 118.869 30.0997C121.551 36.1357 123.028 44.1961 123.028 52.7965C123.028 61.3969 121.551 69.4574 118.869 75.4931C116.378 81.1005 113.04 84.3165 109.712 84.3165ZM109.712 23.169C107.203 23.169 104.426 26.0472 102.284 30.8683C99.707 36.6675 98.2881 44.4551 98.2881 52.7966C98.2881 61.1381 99.707 68.9256 102.284 74.7246C104.426 79.5457 107.203 82.4239 109.712 82.4239C112.221 82.4239 114.997 79.5457 117.14 74.7246C119.716 68.9256 121.135 61.138 121.135 52.7966C121.135 44.4552 119.716 36.6675 117.14 30.8683C114.997 26.0473 112.221 23.169 109.712 23.169Z" fill="#DBDBDD"/>
<path d="M110.057 76.8954C108.158 76.8954 106.204 74.522 104.696 70.3836C102.997 65.7193 102.061 59.4734 102.061 52.7964C102.061 46.1194 102.997 39.8735 104.696 35.2091C106.204 31.0707 108.158 28.6973 110.057 28.6973C111.955 28.6973 113.909 31.0707 115.417 35.2091C117.117 39.8735 118.053 46.1194 118.053 52.7964C118.053 59.4734 117.117 65.7193 115.417 70.3836C113.909 74.522 111.955 76.8954 110.057 76.8954Z" fill="#D4D4D6"/>
<path d="M110.057 77.8418C107.703 77.8418 105.484 75.3082 103.807 70.7078C102.07 65.9423 101.114 59.5813 101.114 52.7964C101.114 46.0115 102.07 39.6506 103.807 34.8852C105.484 30.2846 107.703 27.751 110.057 27.751C112.411 27.751 114.63 30.2846 116.306 34.8852C118.043 39.6506 118.999 46.0115 118.999 52.7964C118.999 59.5813 118.043 65.9423 116.306 70.7076C114.63 75.3081 112.411 77.8418 110.057 77.8418ZM110.057 29.6436C108.933 29.6436 107.168 31.1908 105.585 35.5333C103.923 40.0961 103.007 46.227 103.007 52.7964C103.007 59.3657 103.923 65.4968 105.585 70.0598C107.168 74.4019 108.933 75.9491 110.057 75.9491C111.181 75.9491 112.946 74.4019 114.528 70.0598C116.191 65.4968 117.106 59.3659 117.106 52.7964C117.106 46.2269 116.191 40.0961 114.528 35.5331C112.946 31.1908 111.181 29.6436 110.057 29.6436Z" fill="#262933"/>
<path d="M110.056 71.838C108.907 71.838 107.724 69.9626 106.811 66.6927C105.782 63.0073 105.216 58.0722 105.216 52.7965C105.216 47.5207 105.782 42.5856 106.811 38.9001C107.724 35.6302 108.907 33.7549 110.056 33.7549C111.206 33.7549 112.388 35.6302 113.301 38.9001C114.33 42.5856 114.897 47.5207 114.897 52.7965C114.897 58.0722 114.33 63.0073 113.301 66.6927C112.388 69.9626 111.206 71.838 110.056 71.838Z" fill="#DBDBDD"/>
<path d="M109.807 9.00939C104.499 8.3329 96.6674 13.1333 91.5629 26.3047C86.2886 39.9142 87.2976 52.8453 87.4909 60.8474C88.1395 87.6954 79.5607 104.54 76.612 109.51C76.0443 110.467 75.0166 111.054 73.9039 111.054H26.8369C25.46 111.054 24.5417 109.625 25.1226 108.377C36.9823 82.8909 37.2279 52.7527 37.2279 52.7527C37.2279 40.6178 39.7457 29.2663 44.3177 20.789C46.4727 16.7934 49.6576 13.9972 53.0866 12.1057C56.8648 10.0216 61.1411 9.00942 65.456 9.00942L109.807 9.00939Z" fill="white"/>
<path d="M73.9044 112H26.8374C25.8635 112 24.9692 111.509 24.4454 110.688C23.9235 109.87 23.8561 108.856 24.2652 107.978C35.8977 82.9799 36.2794 53.0443 36.2819 52.7449C36.2819 40.4639 38.8401 28.9528 43.4851 20.3397C45.5322 16.5444 48.6088 13.4952 52.63 11.2771C56.4415 9.1745 60.8768 8.06307 65.4564 8.06307H107.701C108.459 7.97696 109.204 7.97859 109.928 8.07061C110.423 8.13387 110.784 8.57102 110.752 9.06936C110.721 9.56769 110.307 9.95569 109.808 9.95569H107.775C102.871 10.5748 96.6916 15.6906 92.4456 26.6467C87.7398 38.79 88.1168 50.6025 88.3665 58.4192C88.3934 59.2626 88.4191 60.0658 88.4375 60.8245C89.0965 88.1159 80.1761 105.359 77.4262 109.993C76.6921 111.231 75.3425 112 73.9044 112ZM65.4564 9.95571C61.1958 9.95571 57.0765 10.9857 53.544 12.9343C49.8464 14.9741 47.0226 17.7678 45.151 21.2381C40.6522 29.5799 38.1745 40.772 38.1745 52.7527C38.172 53.0639 37.7909 83.3976 25.9809 108.776C25.8443 109.07 25.8662 109.396 26.0411 109.67C26.218 109.948 26.5083 110.107 26.8374 110.107H73.9044C74.6777 110.107 75.4036 109.694 75.7987 109.028C78.4832 104.503 87.1924 87.6571 86.5454 60.8703C86.5271 60.116 86.5016 59.318 86.475 58.4795C86.2204 50.5096 85.8356 38.4654 90.6811 25.9627C93.0691 19.8003 96.2908 14.8829 99.9974 11.7421C100.808 11.0553 101.635 10.4586 102.468 9.95569L65.4564 9.95571Z" fill="#262933"/>
<path d="M113.925 41.575C113.741 40.6278 113.534 39.7308 113.302 38.9001C112.389 35.6302 111.207 33.7549 110.057 33.7549C108.908 33.7549 107.725 35.6302 106.812 38.9001C105.783 42.5856 105.217 47.5208 105.217 52.7965C105.217 54.1018 105.252 55.386 105.32 56.6358C107.809 48.9035 111.257 44.2401 113.925 41.575Z" fill="#D4D4D6"/>
<path d="M105.319 56.6358C105.526 60.4375 106.038 63.9191 106.812 66.6927C107.725 69.9626 108.908 71.8379 110.057 71.8379C111.206 71.8379 112.389 69.9626 113.302 66.6927C114.331 63.0073 114.897 58.0721 114.897 52.7964C114.897 48.7097 114.556 44.8304 113.925 41.575C111.257 44.24 107.809 48.9035 105.319 56.6358Z" fill="#DBDBDD"/>
<g filter="url(#filter0_d_9_21945)">
<path d="M80.3131 54.2924H44.9229C45.1601 42.1902 44.837 29.8242 53.4927 20.1343H86.4087C81.9275 29.8486 79.4424 39.0658 80.3131 54.2924Z" fill="#262933"/>
</g>
<g filter="url(#filter1_d_9_21945)">
<path d="M79.4001 67.8412H44.3289C42.6539 78.4798 41.8993 88.1167 36.1797 101.999H56.3237L76.6534 88.5307C78.7104 81.4082 79.2788 74.7647 79.4001 67.8412Z" fill="#262933"/>
<path d="M56.3232 101.999L76.653 88.5308H61.8406C59.8409 93.4837 58.2188 97.3479 56.3232 101.999Z" fill="#D4D4D6"/>
</g>
<defs>
<filter id="filter0_d_9_21945" x="43.4229" y="18.6343" width="47.4854" height="40.1582" filterUnits="userSpaceOnUse" color-interpolation-filters="sRGB">
<feFlood flood-opacity="0" result="BackgroundImageFix"/>
<feColorMatrix in="SourceAlpha" type="matrix" values="0 0 0 0 0 0 0 0 0 0 0 0 0 0 0 0 0 0 127 0" result="hardAlpha"/>
<feOffset dx="1.5" dy="1.5"/>
<feGaussianBlur stdDeviation="1.5"/>
<feColorMatrix type="matrix" values="0 0 0 0 0 0 0 0 0 0 0 0 0 0 0 0 0 0 0.3 0"/>
<feBlend mode="normal" in2="BackgroundImageFix" result="effect1_dropShadow_9_21945"/>
<feBlend mode="normal" in="SourceGraphic" in2="effect1_dropShadow_9_21945" result="shape"/>
</filter>
<filter id="filter1_d_9_21945" x="34.6797" y="66.3412" width="49.2207" height="40.1582" filterUnits="userSpaceOnUse" color-interpolation-filters="sRGB">
<feFlood flood-opacity="0" result="BackgroundImageFix"/>
<feColorMatrix in="SourceAlpha" type="matrix" values="0 0 0 0 0 0 0 0 0 0 0 0 0 0 0 0 0 0 127 0" result="hardAlpha"/>
<feOffset dx="1.5" dy="1.5"/>
<feGaussianBlur stdDeviation="1.5"/>
<feColorMatrix type="matrix" values="0 0 0 0 0 0 0 0 0 0 0 0 0 0 0 0 0 0 0.3 0"/>
<feBlend mode="normal" in2="BackgroundImageFix" result="effect1_dropShadow_9_21945"/>
<feBlend mode="normal" in="SourceGraphic" in2="effect1_dropShadow_9_21945" result="shape"/>
</filter>
</defs>
</svg>
