<svg width="32" height="32" viewBox="0 0 32 32" fill="none" xmlns="http://www.w3.org/2000/svg">
<path d="M16.0266 4C9.25097 4 4 8.95219 4 15.6411C4 19.1396 5.43758 22.163 7.77758 24.2515C8.18161 24.6149 8.09839 24.8254 8.1671 27.0692C8.17251 27.2264 8.21629 27.3799 8.29462 27.5162C8.37295 27.6526 8.48346 27.7677 8.6165 27.8516C8.74954 27.9354 8.90107 27.9854 9.05788 27.9973C9.21469 28.0091 9.37202 27.9824 9.51613 27.9194C12.0763 26.792 12.1092 26.7029 12.5432 26.821C19.9605 28.8626 28 24.1155 28 15.6411C28 8.95219 22.8027 4 16.0266 4ZM23.2479 12.9584L19.7156 18.5507C19.5823 18.761 19.4069 18.9415 19.2005 19.0808C18.9941 19.2202 18.7612 19.3154 18.5163 19.3605C18.2714 19.4056 18.0198 19.3997 17.7773 19.343C17.5348 19.2863 17.3067 19.1802 17.1071 19.0313L14.2968 16.9278C14.1711 16.8335 14.0183 16.7826 13.8613 16.7826C13.7042 16.7826 13.5514 16.8335 13.4258 16.9278L9.63371 19.804C9.12758 20.1878 8.46468 19.5814 8.80581 19.0458L12.3381 13.4534C12.4714 13.243 12.6468 13.0625 12.8531 12.9231C13.0595 12.7837 13.2925 12.6885 13.5374 12.6434C13.7823 12.5983 14.0339 12.6043 14.2764 12.661C14.5189 12.7177 14.7471 12.8238 14.9466 12.9729L17.756 15.0759C17.8816 15.1701 18.0344 15.2211 18.1915 15.2211C18.3485 15.2211 18.5013 15.1701 18.6269 15.0759L22.421 12.2025C22.9261 11.8164 23.589 12.4222 23.2479 12.9584Z" fill="#474747"/>
</svg>
