<svg width="32" height="32" viewBox="0 0 32 32" fill="none" xmlns="http://www.w3.org/2000/svg">
<path d="M16.625 2.66663C11.2812 2.66663 6 6.32115 6 12.2357C6 15.9971 8.0625 18.1342 9.3125 18.1342C9.82812 18.1342 10.125 16.6596 10.125 16.2429C10.125 15.746 8.89062 14.6881 8.89062 12.6204C8.89062 8.32472 12.0781 5.27929 16.2031 5.27929C19.75 5.27929 22.375 7.34698 22.375 11.1458C22.375 13.9828 21.2656 19.3043 17.6719 19.3043C16.375 19.3043 15.2656 18.3426 15.2656 16.9641C15.2656 14.9445 16.6406 12.989 16.6406 10.9053C16.6406 7.36835 11.75 8.00949 11.75 12.2838C11.75 13.1814 11.8594 14.1752 12.25 14.9926C11.5312 18.1663 10.0625 22.8947 10.0625 26.1646C10.0625 27.1744 10.2031 28.1681 10.2969 29.1779C10.474 29.381 10.3854 29.3596 10.6562 29.2581C13.2812 25.5715 13.1875 24.8502 14.375 20.0256C15.0156 21.2758 16.6719 21.949 17.9844 21.949C23.5156 21.949 26 16.4192 26 11.4343C26 6.1288 21.5312 2.66663 16.625 2.66663Z" fill="currentColor"/>
</svg>
