<svg width="156" height="122" viewBox="0 0 156 122" fill="none" xmlns="http://www.w3.org/2000/svg">
<path d="M118.656 108.225V19.1684C118.656 17.5412 117.337 16.2222 115.71 16.2222L48.1682 16.2222C46.5411 16.2222 45.222 17.5412 45.222 19.1684V108.225C45.222 109.852 46.5411 111.171 48.1682 111.171H115.71C117.337 111.171 118.656 109.852 118.656 108.225Z" fill="#EDEDED"/>
<path d="M115.71 112H48.1684C46.087 112 44.3936 110.307 44.3936 108.225V19.1684C44.3936 17.0869 46.087 15.3936 48.1684 15.3936H115.71C117.792 15.3936 119.485 17.0869 119.485 19.1684V108.225C119.485 110.307 117.792 112 115.71 112ZM48.1684 17.0508C47.0007 17.0508 46.0508 18.0007 46.0508 19.1684V108.225C46.0508 109.393 47.0007 110.343 48.1684 110.343H115.71C116.878 110.343 117.828 109.393 117.828 108.225V19.1684C117.828 18.0007 116.878 17.0508 115.71 17.0508H48.1684Z" fill="#262933"/>
<g filter="url(#filter0_d_13_38000)">
<path d="M111.263 100.832V11.7748C111.263 10.1477 109.944 8.82861 108.317 8.82861L40.7746 8.82861C39.1475 8.82861 37.8285 10.1477 37.8285 11.7748V100.832C37.8285 102.459 39.1475 103.778 40.7746 103.778H108.317C109.944 103.778 111.263 102.459 111.263 100.832Z" fill="white"/>
<path d="M108.317 104.606H40.7748C38.6934 104.606 37 102.913 37 100.832V11.7748C37 9.69332 38.6934 8 40.7748 8H108.317C110.398 8 112.091 9.69332 112.091 11.7748V100.832C112.091 102.913 110.398 104.606 108.317 104.606ZM40.7748 9.65723C39.6072 9.65723 38.6572 10.6072 38.6572 11.7748V100.832C38.6572 101.999 39.6072 102.949 40.7748 102.949H108.317C109.484 102.949 110.434 101.999 110.434 100.832V11.7748C110.434 10.6072 109.484 9.65723 108.317 9.65723H40.7748Z" fill="#262933"/>
</g>
<path d="M96.3778 12.769C90.8755 12.769 86.415 17.2295 86.415 22.7317C86.415 27.2985 89.4891 31.1449 93.6798 32.3216L106.234 21.2824C105.532 16.4673 101.388 12.769 96.3778 12.769Z" fill="#262933"/>
<g filter="url(#filter1_d_13_38000)">
<path d="M52.3006 55.0571C57.8028 55.0571 62.2633 50.5967 62.2633 45.0944C62.2633 39.5922 57.8028 35.1317 52.3006 35.1317C46.7983 35.1317 42.3379 39.5922 42.3379 45.0944C42.3379 50.5967 46.7983 55.0571 52.3006 55.0571Z" fill="#262933"/>
<path d="M52.3 36.734C56.9099 36.734 60.6604 40.4845 60.6604 45.0945C60.6604 49.7045 56.9099 53.4549 52.3 53.4549C47.69 53.4549 43.9396 49.7045 43.9396 45.0945C43.9396 40.4845 47.69 36.734 52.3 36.734ZM52.3 36.3657C47.4793 36.3657 43.5713 40.2737 43.5713 45.0945C43.5713 49.9152 47.4793 53.8232 52.3 53.8232C57.1207 53.8232 61.0287 49.9152 61.0287 45.0945C61.0287 40.2737 57.1207 36.3657 52.3 36.3657Z" fill="#55585E"/>
<path d="M74.3387 55.0571C79.8409 55.0571 84.3014 50.5967 84.3014 45.0944C84.3014 39.5922 79.8409 35.1317 74.3387 35.1317C68.8364 35.1317 64.376 39.5922 64.376 45.0944C64.376 50.5967 68.8364 55.0571 74.3387 55.0571Z" fill="#262933"/>
<path d="M74.3391 36.734C78.9491 36.734 82.6995 40.4845 82.6995 45.0945C82.6995 49.7045 78.9491 53.4549 74.3391 53.4549C69.7291 53.4549 65.9786 49.7045 65.9786 45.0945C65.9786 40.4845 69.7291 36.734 74.3391 36.734ZM74.3391 36.3657C69.5183 36.3657 65.6104 40.2737 65.6104 45.0945C65.6104 49.9152 69.5183 53.8232 74.3391 53.8232C79.1598 53.8232 83.0678 49.9152 83.0678 45.0945C83.0678 40.2737 79.1598 36.3657 74.3391 36.3657Z" fill="#55585E"/>
<path d="M96.3777 55.0571C101.88 55.0571 106.34 50.5967 106.34 45.0944C106.34 39.5922 101.88 35.1317 96.3777 35.1317C90.8755 35.1317 86.415 39.5922 86.415 45.0944C86.415 50.5967 90.8755 55.0571 96.3777 55.0571Z" fill="#262933"/>
<path d="M96.3782 36.734C100.988 36.734 104.739 40.4845 104.739 45.0945C104.739 49.7045 100.988 53.4549 96.3782 53.4549C91.7682 53.4549 88.0177 49.7045 88.0177 45.0945C88.0177 40.4845 91.7682 36.734 96.3782 36.734ZM96.3782 36.3657C91.5574 36.3657 87.6494 40.2737 87.6494 45.0945C87.6494 49.9152 91.5574 53.8232 96.3782 53.8232C101.199 53.8232 105.107 49.9152 105.107 45.0945C105.107 40.2737 101.199 36.3657 96.3782 36.3657Z" fill="#55585E"/>
</g>
<g filter="url(#filter2_d_13_38000)">
<path d="M52.3006 77.4196C57.8028 77.4196 62.2633 72.9592 62.2633 67.457C62.2633 61.9547 57.8028 57.4943 52.3006 57.4943C46.7983 57.4943 42.3379 61.9547 42.3379 67.457C42.3379 72.9592 46.7983 77.4196 52.3006 77.4196Z" fill="#262933"/>
<path d="M52.3 59.0965C56.9099 59.0965 60.6604 62.847 60.6604 67.457C60.6604 72.0669 56.9099 75.8174 52.3 75.8174C47.69 75.8174 43.9396 72.0669 43.9396 67.457C43.9396 62.847 47.69 59.0965 52.3 59.0965ZM52.3 58.7283C47.4793 58.7283 43.5713 62.6363 43.5713 67.457C43.5713 72.2777 47.4793 76.1857 52.3 76.1857C57.1207 76.1857 61.0287 72.2777 61.0287 67.457C61.0287 62.6362 57.1207 58.7283 52.3 58.7283Z" fill="#55585E"/>
<path d="M74.3387 77.4196C79.8409 77.4196 84.3014 72.9592 84.3014 67.457C84.3014 61.9547 79.8409 57.4943 74.3387 57.4943C68.8364 57.4943 64.376 61.9547 64.376 67.457C64.376 72.9592 68.8364 77.4196 74.3387 77.4196Z" fill="#262933"/>
<path d="M74.3391 59.0965C78.9491 59.0965 82.6995 62.847 82.6995 67.457C82.6995 72.0669 78.9491 75.8174 74.3391 75.8174C69.7291 75.8174 65.9786 72.0669 65.9786 67.457C65.9786 62.847 69.7291 59.0965 74.3391 59.0965ZM74.3391 58.7283C69.5183 58.7283 65.6104 62.6363 65.6104 67.457C65.6104 72.2777 69.5183 76.1857 74.3391 76.1857C79.1598 76.1857 83.0678 72.2777 83.0678 67.457C83.0678 62.6362 79.1598 58.7283 74.3391 58.7283Z" fill="#55585E"/>
<path d="M96.3777 77.4196C101.88 77.4196 106.34 72.9592 106.34 67.457C106.34 61.9547 101.88 57.4943 96.3777 57.4943C90.8755 57.4943 86.415 61.9547 86.415 67.457C86.415 72.9592 90.8755 77.4196 96.3777 77.4196Z" fill="#262933"/>
<path d="M96.3782 59.0965C100.988 59.0965 104.739 62.847 104.739 67.457C104.739 72.0669 100.988 75.8174 96.3782 75.8174C91.7682 75.8174 88.0177 72.0669 88.0177 67.457C88.0177 62.847 91.7682 59.0965 96.3782 59.0965ZM96.3782 58.7283C91.5574 58.7283 87.6494 62.6363 87.6494 67.457C87.6494 72.2777 91.5574 76.1857 96.3782 76.1857C101.199 76.1857 105.107 72.2777 105.107 67.457C105.107 62.6362 101.199 58.7283 96.3782 58.7283Z" fill="#55585E"/>
</g>
<g filter="url(#filter3_d_13_38000)">
<path d="M52.3006 99.7823C57.8028 99.7823 62.2633 95.3219 62.2633 89.8196C62.2633 84.3174 57.8028 79.8569 52.3006 79.8569C46.7983 79.8569 42.3379 84.3174 42.3379 89.8196C42.3379 95.3219 46.7983 99.7823 52.3006 99.7823Z" fill="#262933"/>
<path d="M52.3 81.4592C56.9099 81.4592 60.6604 85.2097 60.6604 89.8197C60.6604 94.4297 56.9099 98.1801 52.3 98.1801C47.69 98.1801 43.9396 94.4296 43.9396 89.8197C43.9396 85.2097 47.69 81.4592 52.3 81.4592ZM52.3 81.0909C47.4793 81.0909 43.5713 84.9989 43.5713 89.8197C43.5713 94.6404 47.4793 98.5484 52.3 98.5484C57.1207 98.5484 61.0287 94.6404 61.0287 89.8197C61.0287 84.9989 57.1207 81.0909 52.3 81.0909Z" fill="#55585E"/>
<path d="M74.3387 99.7823C79.8409 99.7823 84.3014 95.3219 84.3014 89.8196C84.3014 84.3174 79.8409 79.8569 74.3387 79.8569C68.8364 79.8569 64.376 84.3174 64.376 89.8196C64.376 95.3219 68.8364 99.7823 74.3387 99.7823Z" fill="#262933"/>
<path d="M74.3391 81.4591C78.9491 81.4591 82.6995 85.2096 82.6995 89.8196C82.6995 94.4296 78.9491 98.18 74.3391 98.18C69.7291 98.18 65.9786 94.4295 65.9786 89.8196C65.9786 85.2096 69.7291 81.4591 74.3391 81.4591ZM74.3391 81.0908C69.5183 81.0908 65.6104 84.9988 65.6104 89.8196C65.6104 94.6403 69.5183 98.5483 74.3391 98.5483C79.1598 98.5483 83.0678 94.6403 83.0678 89.8196C83.0678 84.9988 79.1598 81.0908 74.3391 81.0908Z" fill="#55585E"/>
<path d="M96.3777 99.7823C101.88 99.7823 106.34 95.3219 106.34 89.8196C106.34 84.3174 101.88 79.8569 96.3777 79.8569C90.8755 79.8569 86.415 84.3174 86.415 89.8196C86.415 95.3219 90.8755 99.7823 96.3777 99.7823Z" fill="#262933"/>
<path d="M96.3782 81.4591C100.988 81.4591 104.739 85.2096 104.739 89.8196C104.739 94.4296 100.988 98.18 96.3782 98.18C91.7682 98.18 88.0177 94.4295 88.0177 89.8196C88.0177 85.2096 91.7682 81.4591 96.3782 81.4591ZM96.3782 81.0908C91.5574 81.0908 87.6494 84.9988 87.6494 89.8196C87.6494 94.6403 91.5574 98.5483 96.3782 98.5483C101.199 98.5483 105.107 94.6403 105.107 89.8196C105.107 84.9988 101.199 81.0908 96.3782 81.0908Z" fill="#55585E"/>
</g>
<g filter="url(#filter4_d_13_38000)">
<path d="M52.3006 32.6944C57.8028 32.6944 62.2633 28.234 62.2633 22.7317C62.2633 17.2295 57.8028 12.769 52.3006 12.769C46.7983 12.769 42.3379 17.2295 42.3379 22.7317C42.3379 28.234 46.7983 32.6944 52.3006 32.6944Z" fill="#262933"/>
<path d="M52.3 14.3712C56.9099 14.3712 60.6604 18.1217 60.6604 22.7317C60.6604 27.3417 56.9099 31.0921 52.3 31.0921C47.69 31.0921 43.9396 27.3417 43.9396 22.7317C43.9396 18.1217 47.69 14.3712 52.3 14.3712ZM52.3 14.0029C47.4793 14.0029 43.5713 17.9109 43.5713 22.7317C43.5713 27.5524 47.4793 31.4604 52.3 31.4604C57.1207 31.4604 61.0287 27.5524 61.0287 22.7317C61.0287 17.9109 57.1207 14.0029 52.3 14.0029Z" fill="#55585E"/>
</g>
<g filter="url(#filter5_d_13_38000)">
<path d="M74.3387 32.6944C79.8409 32.6944 84.3014 28.234 84.3014 22.7317C84.3014 17.2295 79.8409 12.769 74.3387 12.769C68.8364 12.769 64.376 17.2295 64.376 22.7317C64.376 28.234 68.8364 32.6944 74.3387 32.6944Z" fill="#262933"/>
<path d="M74.3391 14.3712C78.9491 14.3712 82.6995 18.1217 82.6995 22.7317C82.6995 27.3417 78.9491 31.0921 74.3391 31.0921C69.7291 31.0921 65.9786 27.3417 65.9786 22.7317C65.9786 18.1217 69.7291 14.3712 74.3391 14.3712ZM74.3391 14.0029C69.5183 14.0029 65.6104 17.9109 65.6104 22.7317C65.6104 27.5524 69.5183 31.4604 74.3391 31.4604C79.1598 31.4604 83.0678 27.5524 83.0678 22.7317C83.0678 17.9109 79.1598 14.0029 74.3391 14.0029Z" fill="#55585E"/>
</g>
<g filter="url(#filter6_d_13_38000)">
<path d="M93.5798 30.6093C90.3416 29.4559 88.0167 26.3609 88.0167 22.7318C88.0167 18.1218 91.7672 14.3713 96.3773 14.3713C100.383 14.3713 103.738 17.2032 104.549 20.9697C104.678 20.983 104.808 20.9937 104.936 21.0118C104.137 17.0149 100.609 14.0031 96.3773 14.0031C91.5565 14.0031 87.6484 17.911 87.6484 22.7318C87.6484 26.5729 90.1307 29.8321 93.5777 30.9991C93.5771 30.9574 93.5732 30.9166 93.5732 30.8747C93.5732 30.7857 93.5775 30.6977 93.5798 30.6093Z" fill="#55585E"/>
<path d="M104.936 21.0118C104.808 20.9936 104.678 20.9829 104.549 20.9697C104.216 20.9354 103.879 20.912 103.536 20.912C98.1227 20.912 93.7211 25.2301 93.5799 30.6092C93.5776 30.6977 93.5732 30.7856 93.5732 30.8747C93.5732 30.9165 93.5772 30.9573 93.5777 30.999C93.5835 31.4482 93.616 31.8908 93.6793 32.324L94.8217 31.3195L95.1792 31.0051L104.735 22.6031L105.095 22.2863L106.234 21.2848C105.812 21.1662 105.378 21.0748 104.936 21.0118Z" fill="#D4D4D6"/>
</g>
<defs>
<filter id="filter0_d_13_38000" x="31.5166" y="2.5166" width="97.0254" height="118.54" filterUnits="userSpaceOnUse" color-interpolation-filters="sRGB">
<feFlood flood-opacity="0" result="BackgroundImageFix"/>
<feColorMatrix in="SourceAlpha" type="matrix" values="0 0 0 0 0 0 0 0 0 0 0 0 0 0 0 0 0 0 127 0" result="hardAlpha"/>
<feOffset dx="5.4834" dy="5.4834"/>
<feGaussianBlur stdDeviation="5.4834"/>
<feColorMatrix type="matrix" values="0 0 0 0 0 0 0 0 0 0 0 0 0 0 0 0 0 0 0.25 0"/>
<feBlend mode="normal" in2="BackgroundImageFix" result="effect1_dropShadow_13_38000"/>
<feBlend mode="normal" in="SourceGraphic" in2="effect1_dropShadow_13_38000" result="shape"/>
</filter>
<filter id="filter1_d_13_38000" x="41.3845" y="34.1783" width="67.8165" height="23.739" filterUnits="userSpaceOnUse" color-interpolation-filters="sRGB">
<feFlood flood-opacity="0" result="BackgroundImageFix"/>
<feColorMatrix in="SourceAlpha" type="matrix" values="0 0 0 0 0 0 0 0 0 0 0 0 0 0 0 0 0 0 127 0" result="hardAlpha"/>
<feOffset dx="0.9534" dy="0.9534"/>
<feGaussianBlur stdDeviation="0.9534"/>
<feColorMatrix type="matrix" values="0 0 0 0 0 0 0 0 0 0 0 0 0 0 0 0 0 0 0.2 0"/>
<feBlend mode="normal" in2="BackgroundImageFix" result="effect1_dropShadow_13_38000"/>
<feBlend mode="normal" in="SourceGraphic" in2="effect1_dropShadow_13_38000" result="shape"/>
</filter>
<filter id="filter2_d_13_38000" x="41.3845" y="56.5409" width="67.8165" height="23.739" filterUnits="userSpaceOnUse" color-interpolation-filters="sRGB">
<feFlood flood-opacity="0" result="BackgroundImageFix"/>
<feColorMatrix in="SourceAlpha" type="matrix" values="0 0 0 0 0 0 0 0 0 0 0 0 0 0 0 0 0 0 127 0" result="hardAlpha"/>
<feOffset dx="0.9534" dy="0.9534"/>
<feGaussianBlur stdDeviation="0.9534"/>
<feColorMatrix type="matrix" values="0 0 0 0 0 0 0 0 0 0 0 0 0 0 0 0 0 0 0.2 0"/>
<feBlend mode="normal" in2="BackgroundImageFix" result="effect1_dropShadow_13_38000"/>
<feBlend mode="normal" in="SourceGraphic" in2="effect1_dropShadow_13_38000" result="shape"/>
</filter>
<filter id="filter3_d_13_38000" x="41.3845" y="78.9035" width="67.8165" height="23.739" filterUnits="userSpaceOnUse" color-interpolation-filters="sRGB">
<feFlood flood-opacity="0" result="BackgroundImageFix"/>
<feColorMatrix in="SourceAlpha" type="matrix" values="0 0 0 0 0 0 0 0 0 0 0 0 0 0 0 0 0 0 127 0" result="hardAlpha"/>
<feOffset dx="0.9534" dy="0.9534"/>
<feGaussianBlur stdDeviation="0.9534"/>
<feColorMatrix type="matrix" values="0 0 0 0 0 0 0 0 0 0 0 0 0 0 0 0 0 0 0.2 0"/>
<feBlend mode="normal" in2="BackgroundImageFix" result="effect1_dropShadow_13_38000"/>
<feBlend mode="normal" in="SourceGraphic" in2="effect1_dropShadow_13_38000" result="shape"/>
</filter>
<filter id="filter4_d_13_38000" x="41.3845" y="11.8156" width="23.7394" height="23.739" filterUnits="userSpaceOnUse" color-interpolation-filters="sRGB">
<feFlood flood-opacity="0" result="BackgroundImageFix"/>
<feColorMatrix in="SourceAlpha" type="matrix" values="0 0 0 0 0 0 0 0 0 0 0 0 0 0 0 0 0 0 127 0" result="hardAlpha"/>
<feOffset dx="0.9534" dy="0.9534"/>
<feGaussianBlur stdDeviation="0.9534"/>
<feColorMatrix type="matrix" values="0 0 0 0 0 0 0 0 0 0 0 0 0 0 0 0 0 0 0.2 0"/>
<feBlend mode="normal" in2="BackgroundImageFix" result="effect1_dropShadow_13_38000"/>
<feBlend mode="normal" in="SourceGraphic" in2="effect1_dropShadow_13_38000" result="shape"/>
</filter>
<filter id="filter5_d_13_38000" x="63.4226" y="11.8156" width="23.7394" height="23.739" filterUnits="userSpaceOnUse" color-interpolation-filters="sRGB">
<feFlood flood-opacity="0" result="BackgroundImageFix"/>
<feColorMatrix in="SourceAlpha" type="matrix" values="0 0 0 0 0 0 0 0 0 0 0 0 0 0 0 0 0 0 127 0" result="hardAlpha"/>
<feOffset dx="0.9534" dy="0.9534"/>
<feGaussianBlur stdDeviation="0.9534"/>
<feColorMatrix type="matrix" values="0 0 0 0 0 0 0 0 0 0 0 0 0 0 0 0 0 0 0.2 0"/>
<feBlend mode="normal" in2="BackgroundImageFix" result="effect1_dropShadow_13_38000"/>
<feBlend mode="normal" in="SourceGraphic" in2="effect1_dropShadow_13_38000" result="shape"/>
</filter>
<filter id="filter6_d_13_38000" x="86.695" y="13.0497" width="22.3986" height="22.1345" filterUnits="userSpaceOnUse" color-interpolation-filters="sRGB">
<feFlood flood-opacity="0" result="BackgroundImageFix"/>
<feColorMatrix in="SourceAlpha" type="matrix" values="0 0 0 0 0 0 0 0 0 0 0 0 0 0 0 0 0 0 127 0" result="hardAlpha"/>
<feOffset dx="0.9534" dy="0.9534"/>
<feGaussianBlur stdDeviation="0.9534"/>
<feColorMatrix type="matrix" values="0 0 0 0 0 0 0 0 0 0 0 0 0 0 0 0 0 0 0.2 0"/>
<feBlend mode="normal" in2="BackgroundImageFix" result="effect1_dropShadow_13_38000"/>
<feBlend mode="normal" in="SourceGraphic" in2="effect1_dropShadow_13_38000" result="shape"/>
</filter>
</defs>
</svg>
