<svg width="156" height="122" viewBox="0 0 156 122" fill="none" xmlns="http://www.w3.org/2000/svg">
<path d="M118.688 108.225V19.1684C118.688 17.5412 117.369 16.2222 115.742 16.2222L48.2004 16.2222C46.5733 16.2222 45.2542 17.5412 45.2542 19.1684V108.225C45.2542 109.852 46.5733 111.171 48.2004 111.171H115.742C117.369 111.171 118.688 109.852 118.688 108.225Z" fill="#EDEDED"/>
<path d="M115.742 112H48.2006C46.1192 112 44.4258 110.307 44.4258 108.225V19.1684C44.4258 17.0869 46.1192 15.3936 48.2006 15.3936H115.742C117.824 15.3936 119.517 17.0869 119.517 19.1684V108.225C119.517 110.307 117.824 112 115.742 112ZM48.2006 17.0508C47.0329 17.0508 46.083 18.0007 46.083 19.1684V108.225C46.083 109.393 47.0329 110.343 48.2006 110.343H115.742C116.91 110.343 117.86 109.393 117.86 108.225V19.1684C117.86 18.0007 116.91 17.0508 115.742 17.0508H48.2006Z" fill="#262933"/>
<g filter="url(#filter0_d_13_37769)">
<path d="M111.263 100.832V11.7748C111.263 10.1477 109.944 8.82861 108.317 8.82861L40.7746 8.82861C39.1475 8.82861 37.8285 10.1477 37.8285 11.7748V100.832C37.8285 102.459 39.1475 103.778 40.7746 103.778H108.317C109.944 103.778 111.263 102.459 111.263 100.832Z" fill="white"/>
<path d="M108.317 104.606H40.7748C38.6934 104.606 37 102.913 37 100.832V11.7748C37 9.69332 38.6934 8 40.7748 8H108.317C110.398 8 112.091 9.69332 112.091 11.7748V100.832C112.091 102.913 110.398 104.606 108.317 104.606ZM40.7748 9.65723C39.6072 9.65723 38.6572 10.6072 38.6572 11.7748V100.832C38.6572 101.999 39.6072 102.949 40.7748 102.949H108.317C109.484 102.949 110.434 101.999 110.434 100.832V11.7748C110.434 10.6072 109.484 9.65723 108.317 9.65723H40.7748Z" fill="#262933"/>
</g>
<g filter="url(#filter1_d_13_37769)">
<path d="M66.364 40.065C63.7764 40.0276 60.9883 38.5719 59.573 37.7189C57.1495 39.1211 54.8778 39.8587 52.9676 39.8587L52.8601 39.8581C50.5544 39.825 48.6992 38.735 47.7693 36.8674C47.0597 35.4423 46.9558 33.7397 47.461 31.8067C47.8243 30.4154 48.5057 28.9117 49.4896 27.3275C48.6585 25.897 48.0621 24.5309 47.7134 23.2568C47.1253 21.1091 47.2368 19.2536 48.0445 17.7426C49.0097 15.9357 50.8569 14.8992 53.1125 14.8992L53.2179 14.8998C55.1545 14.9277 57.4441 15.7334 59.8765 17.2371C62.3028 15.8315 64.5775 15.0921 66.4916 15.0921L66.5982 15.0927C68.9042 15.1261 70.76 16.2161 71.6899 18.0831C72.3998 19.5087 72.5031 21.2121 71.9973 23.1459C71.6331 24.5387 70.9499 26.0449 69.9641 27.6312C71.7528 30.7097 72.0569 32.7256 72.1128 34.1573L72.1149 34.2063C72.1171 34.2682 72.1167 34.322 72.114 34.3746L72.1116 34.4219C72.0259 36.2258 71.4183 37.6569 70.3056 38.6755C69.2983 39.598 68.0105 40.0659 66.4786 40.0659C66.4783 40.0659 66.364 40.065 66.364 40.065Z" fill="white"/>
<path d="M53.1112 15.2676L53.2126 15.2681C55.0737 15.295 57.3111 16.0842 59.6828 17.5504C59.7421 17.587 59.8092 17.6054 59.8764 17.6054C59.9402 17.6054 60.0039 17.5889 60.0611 17.5558C62.4274 16.185 64.6511 15.4605 66.4895 15.4605L66.5929 15.461C68.7563 15.4924 70.494 16.508 71.3602 18.2474C72.0292 19.5907 72.1237 21.2075 71.6411 23.0528C71.2868 24.4073 70.6174 25.8823 69.6513 27.437C69.5794 27.5526 69.5772 27.6986 69.6457 27.8164C71.4044 30.8434 71.6914 32.8029 71.7449 34.1732L71.7469 34.2192C71.7486 34.2693 71.7485 34.3128 71.7462 34.3556L71.7437 34.4046C71.6628 36.1079 71.0953 37.4535 70.0568 38.404C69.1196 39.2625 67.9156 39.6977 66.4813 39.6977L66.3694 39.6968C63.8723 39.6607 61.1585 38.2445 59.763 37.4036C59.7047 37.3683 59.6388 37.3507 59.573 37.3507C59.5093 37.3507 59.4456 37.3672 59.3885 37.4002C57.0251 38.7677 54.8048 39.4905 52.9697 39.4905L52.8654 39.49C50.7025 39.4589 48.9652 38.4433 48.099 36.7033C47.4301 35.3602 47.3353 33.7441 47.8173 31.8998C48.1706 30.5469 48.8385 29.0739 49.8025 27.5219C49.8743 27.4062 49.8765 27.2604 49.8081 27.1426C48.9936 25.7408 48.4083 24.4008 48.0687 23.1596C47.5062 21.1058 47.6074 19.3417 48.3694 17.9162C49.2683 16.2333 50.9965 15.2679 53.1112 15.2676ZM53.1125 14.8993C50.8569 14.8993 49.0096 15.9358 48.0445 17.7427C47.2368 19.2537 47.1253 21.1092 47.7134 23.2569C48.0622 24.5309 48.6585 25.897 49.4896 27.3275C48.5057 28.9118 47.8243 30.4155 47.461 31.8068C46.9558 33.7397 47.0597 35.4424 47.7693 36.8674C48.6992 38.7351 50.5544 39.8251 52.8601 39.8582L52.9676 39.8588C54.8778 39.8588 57.1495 39.1212 59.573 37.7189C60.9884 38.572 63.7764 40.0277 66.3641 40.065C66.3641 40.065 66.4783 40.066 66.4785 40.066C68.0106 40.066 69.2983 39.5981 70.3056 38.6755C71.4183 37.657 72.0259 36.2258 72.1116 34.422L72.114 34.3746C72.1168 34.3221 72.1171 34.2683 72.1149 34.2063L72.1128 34.1574C72.0569 32.7257 71.7528 30.7098 69.9642 27.6313C70.9499 26.045 71.6331 24.5388 71.9974 23.146C72.5032 21.2121 72.3999 19.5088 71.69 18.0832C70.7601 16.2162 68.9043 15.1262 66.5983 15.0928L66.4916 15.0922C64.5776 15.0922 62.3028 15.8316 59.8765 17.2371C57.4442 15.7335 55.1546 14.9278 53.218 14.8999L53.1125 14.8993Z" fill="#D8D8D8"/>
<path d="M68.499 27.6086C69.6418 25.891 70.4131 24.2853 70.7934 22.8311C71.2208 21.1967 71.1477 19.7859 70.5761 18.6379C69.8505 17.1808 68.4316 16.3636 66.5805 16.337C64.7005 16.3105 62.383 17.1262 59.8554 18.7014C57.3728 17.0539 55.0784 16.171 53.2009 16.1439C51.3498 16.1186 49.9087 16.8932 49.1416 18.329C48.489 19.5504 48.4123 21.0979 48.9135 22.9285C49.2855 24.2873 49.9717 25.7729 50.9549 27.3489C49.8141 29.0645 49.0442 30.6685 48.6647 32.1214C48.2381 33.7548 48.3116 35.165 48.8831 36.3129C49.6085 37.7701 51.0271 38.5873 52.8776 38.6139C54.7534 38.6406 57.0656 37.8276 59.5883 36.2583C61.4932 37.5171 64.1774 38.7891 66.3879 38.821C66.3888 38.821 66.3896 38.821 66.3905 38.8211C66.419 38.8215 66.4471 38.8217 66.4752 38.8217C67.6878 38.8221 68.6936 38.4644 69.4654 37.7578C70.327 36.9689 70.7992 35.8268 70.8688 34.3629L70.8712 34.3116C70.8721 34.2936 70.8721 34.2755 70.8715 34.2575L70.8694 34.2059C70.815 32.8143 70.4912 30.8165 68.499 27.6086Z" fill="#262933"/>
<path d="M65.8023 27.4938C65.8109 24.7258 64.3569 22.4774 62.5548 22.4718C60.7527 22.4662 59.2849 24.7056 59.2763 27.4735C59.2677 30.2415 60.7216 32.4899 62.5237 32.4955C64.3258 32.5011 65.7937 30.2617 65.8023 27.4938Z" fill="white"/>
<path d="M62.5294 33.0734C62.5268 33.0734 62.5243 33.0734 62.5218 33.0734C61.4482 33.0701 60.4587 32.4524 59.7356 31.3342C59.0622 30.2928 58.6937 28.9211 58.6983 27.4718C58.7028 26.0224 59.0797 24.653 59.7595 23.6158C60.4878 22.5048 61.4783 21.8935 62.549 21.8939C62.5515 21.8939 62.554 21.8939 62.5565 21.8939C63.6301 21.8973 64.6196 22.5149 65.3427 23.6331C66.0161 24.6745 66.3846 26.0463 66.38 27.4956C66.3755 28.9449 65.9986 30.3143 65.3188 31.3515C64.5905 32.4626 63.6001 33.0739 62.5294 33.0734ZM62.5487 23.0497C61.095 23.0491 59.8615 25.0741 59.854 27.4753C59.8466 29.8787 61.0699 31.9131 62.5254 31.9176H62.5296C63.1976 31.9179 63.8447 31.492 64.3521 30.7179C64.9107 29.8657 65.2204 28.7201 65.2242 27.492C65.2316 25.0886 64.0083 23.0542 62.5529 23.0497H62.5487Z" fill="#262933"/>
<path d="M63.594 24.9125C62.8223 24.9101 62.1647 25.6736 61.9269 26.7364C61.884 26.9283 61.971 27.1261 62.1383 27.2293L62.7744 27.6215C63.0044 27.7633 63.0659 28.0704 62.9083 28.2898L62.3809 29.0242C62.2681 29.1813 62.2621 29.3932 62.3708 29.5533C62.6839 30.0145 63.1085 30.2986 63.5773 30.3C64.5459 30.303 65.3348 29.0994 65.3394 27.6117C65.344 26.124 64.5626 24.9155 63.594 24.9125Z" fill="#262933"/>
<path d="M60.1831 27.4915C60.1917 24.7235 58.7378 22.4751 56.9357 22.4695C55.1336 22.4639 53.6657 24.7032 53.6572 27.4712C53.6486 30.2392 55.1025 32.4876 56.9046 32.4932C58.7067 32.4988 60.1745 30.2594 60.1831 27.4915Z" fill="white"/>
<path d="M56.9102 33.0711C56.9077 33.0711 56.9052 33.0711 56.9027 33.0711C55.829 33.0678 54.8395 32.4501 54.1164 31.3319C53.443 30.2905 53.0746 28.9188 53.0791 27.4694C53.0836 26.0201 53.4605 24.6507 54.1404 23.6135C54.8687 22.5025 55.8591 21.8912 56.9298 21.8916C56.9324 21.8916 56.9348 21.8916 56.9373 21.8916C58.011 21.8949 59.0005 22.5126 59.7235 23.6308C60.3969 24.6722 60.7654 26.044 60.7609 27.4933C60.7564 28.9426 60.3794 30.312 59.6996 31.3492C58.9713 32.4603 57.9809 33.0716 56.9102 33.0711ZM56.9295 23.0474C55.4758 23.0468 54.2424 25.0718 54.2349 27.473C54.2275 29.8764 55.4508 31.9108 56.9062 31.9153H56.9105C57.5785 31.9156 58.2255 31.4897 58.7329 30.7156C59.2915 29.8634 59.6012 28.7177 59.605 27.4897C59.6125 25.0862 58.3892 23.0519 56.9337 23.0474H56.9295Z" fill="#262933"/>
<path d="M58.2326 24.9103C57.461 24.9079 56.8034 25.6714 56.5656 26.7342C56.5226 26.9261 56.6096 27.1239 56.777 27.2271L57.4131 27.6193C57.6431 27.7611 57.7046 28.0682 57.547 28.2876L57.0196 29.022C56.9068 29.1791 56.9008 29.391 57.0094 29.5511C57.3226 30.0123 57.7472 30.2964 58.2159 30.2978C59.1846 30.3008 59.9735 29.0973 59.9781 27.6095C59.9827 26.1218 59.2012 24.9133 58.2326 24.9103Z" fill="#262933"/>
</g>
<g filter="url(#filter2_d_13_37769)">
<path d="M99.2837 27.4368C100.25 25.8822 100.919 24.4072 101.273 23.0527C101.756 21.2073 101.662 19.5905 100.993 18.2472C100.126 16.5078 98.3887 15.4922 96.2253 15.4608L96.1219 15.4603C94.2834 15.4603 92.0597 16.1848 89.6935 17.5556C89.6363 17.5887 89.5725 17.6052 89.5088 17.6052C89.4416 17.6052 89.3745 17.5868 89.3152 17.5502C86.9435 16.084 84.7062 15.2948 82.8448 15.2679L82.7441 15.2673C80.6293 15.2676 78.9008 16.2329 78.0017 17.916C77.2398 19.3414 77.1386 21.1055 77.7009 23.1594C78.0407 24.4006 78.6261 25.7407 79.4405 27.1423C79.5088 27.2601 79.5066 27.406 79.4349 27.5216C78.4709 29.0736 77.803 30.5465 77.4498 31.8996C76.9677 33.7437 77.0625 35.3598 77.7313 36.7032C78.5976 38.443 80.3349 39.4587 82.4976 39.4898L82.6019 39.4903C84.4371 39.4903 86.6574 38.7675 89.021 37.4C89.0781 37.367 89.1418 37.3505 89.2055 37.3505C89.2713 37.3505 89.3371 37.3682 89.3955 37.4034C90.2292 37.9059 91.5349 38.6121 92.9826 39.1082L93.712 38.4242C92.1161 37.9453 90.4944 37.0999 89.2208 36.2583C86.6981 37.8276 84.3859 38.6406 82.51 38.6139C80.6597 38.5872 79.241 37.7701 78.5156 36.3129C77.944 35.165 77.8706 33.7548 78.2972 32.1214C78.6766 30.6684 79.4466 29.0644 80.5874 27.3489C79.6041 25.7728 78.9179 24.2872 78.546 22.9284C78.0447 21.0979 78.1215 19.5504 78.774 18.3289C79.5411 16.8932 80.9822 16.1186 82.8333 16.1438C84.7108 16.1709 87.0052 17.0538 89.4878 18.7014C92.0155 17.1262 94.333 16.3105 96.2131 16.3369C98.0641 16.3636 99.4829 17.1808 100.209 18.6379C100.78 19.7859 100.853 21.1967 100.426 22.831C100.046 24.2853 99.2741 25.891 98.1314 27.6086C99.3594 29.5858 99.9523 31.1023 100.24 32.3015L100.968 31.6188C100.67 30.5786 100.158 29.3312 99.2781 27.8162C99.2098 27.6984 99.212 27.5525 99.2837 27.4368Z" fill="white"/>
<path d="M92.982 39.1085C91.5343 38.6124 90.2286 37.9062 89.3949 37.4037C89.3365 37.3684 89.2707 37.3508 89.2049 37.3508C89.1412 37.3508 89.0775 37.3673 89.0203 37.4003C86.6568 38.7678 84.4365 39.4906 82.6013 39.4906L82.497 39.4901C80.3343 39.459 78.597 38.4433 77.7307 36.7034C77.0619 35.3601 76.9671 33.744 77.4492 31.8999C77.8024 30.5468 78.4703 29.0739 79.4343 27.5219C79.506 27.4063 79.5082 27.2604 79.4399 27.1426C78.6255 25.7409 78.0401 24.4009 77.7003 23.1597C77.138 21.1058 77.2392 19.3417 78.0011 17.9163C78.9002 16.2332 80.6286 15.2678 82.7435 15.2676L82.8442 15.2682C84.7056 15.2951 86.9429 16.0843 89.3146 17.5505C89.3739 17.5871 89.441 17.6055 89.5082 17.6055C89.5719 17.6055 89.6357 17.589 89.6929 17.5559C92.0591 16.1851 94.2828 15.4605 96.1213 15.4605L96.2247 15.4611C98.3881 15.4925 100.126 16.5081 100.992 18.2475C101.661 19.5908 101.755 21.2076 101.273 23.053C100.919 24.4075 100.249 25.8825 99.2831 27.4371C99.2113 27.5528 99.2092 27.6987 99.2775 27.8164C100.158 29.3315 100.669 30.5789 100.967 31.6191L101.267 31.3382C100.954 30.3062 100.443 29.0892 99.596 27.6314C100.212 26.64 100.71 25.6798 101.086 24.7591C101.311 24.2067 101.493 23.6684 101.629 23.1462C101.945 21.9374 102.023 20.8189 101.864 19.8018C101.823 19.5342 101.758 19.2764 101.683 19.023C101.588 18.6987 101.471 18.3835 101.322 18.0833C100.572 16.5778 99.2194 15.5786 97.5149 15.2301C97.4574 15.2184 97.3986 15.209 97.3403 15.1987C96.9837 15.1359 96.6138 15.0985 96.2301 15.0929L96.1235 15.0923C94.2093 15.0923 91.9345 15.8317 89.5082 17.2373C89.3113 17.1155 89.1169 17.0058 88.922 16.8933C88.5151 16.6583 88.1108 16.4359 87.7141 16.2416C87.4205 16.0979 87.1301 15.9654 86.8431 15.8443C85.4083 15.2387 84.06 14.9175 82.8496 14.9L82.8473 14.9L82.7442 14.8994C82.3213 14.8994 81.9128 14.9358 81.5216 15.007C81.2611 15.0544 81.0081 15.1172 80.7637 15.1949C80.5195 15.2726 80.2839 15.3653 80.0581 15.4723C79.0412 15.9538 78.2193 16.7264 77.6764 17.7428C77.2725 18.4983 77.0427 19.3399 76.9873 20.2611C76.9596 20.7217 76.9756 21.2022 77.0353 21.7018C77.0948 22.2014 77.1983 22.7201 77.3452 23.257C77.5633 24.0533 77.8778 24.8856 78.2862 25.747C78.4494 26.0916 78.6278 26.4408 78.8208 26.7943C78.9173 26.9711 79.0175 27.1489 79.1214 27.3276C78.5065 28.3178 78.0098 29.2765 77.6349 30.196C77.4101 30.7476 77.2292 31.2852 77.0929 31.8069C76.9034 32.5318 76.7996 33.2242 76.7813 33.8819C76.7752 34.101 76.7786 34.3164 76.7915 34.5277C76.8172 34.9504 76.8809 35.3573 76.9825 35.7475C77.0843 36.1377 77.2238 36.5113 77.4011 36.8676C78.331 38.7352 80.1862 39.8252 82.4918 39.8583L82.5994 39.8589C84.032 39.8589 85.668 39.4441 87.4189 38.6451C88.0026 38.3787 88.5989 38.0697 89.2049 37.7191C89.3818 37.8258 89.5802 37.9418 89.7969 38.0633C89.9053 38.1241 90.0182 38.1862 90.1353 38.2492C90.8542 38.6357 91.7321 39.0543 92.6792 39.3926L92.982 39.1085Z" fill="#D8D8D8"/>
<path d="M98.1307 27.6087C99.2735 25.891 100.045 24.2853 100.425 22.8311C100.853 21.1967 100.78 19.7859 100.208 18.638C99.4823 17.1808 98.0635 16.3637 96.2124 16.337C94.3324 16.3106 92.0149 17.1262 89.4871 18.7014C87.0045 17.0539 84.7102 16.171 82.8327 16.1439C80.9816 16.1186 79.5405 16.8933 78.7734 18.329C78.1208 19.5504 78.044 21.0979 78.5454 22.9285C78.9172 24.2873 79.6034 25.7729 80.5867 27.349C79.4459 29.0645 78.6759 30.6685 78.2965 32.1214C77.87 33.7549 77.9433 35.165 78.515 36.313C79.2404 37.7702 80.659 38.5873 82.5094 38.614C84.3853 38.6407 86.6974 37.8277 89.2201 36.2584C90.4938 37.0999 92.1154 37.9454 93.7113 38.4243L100.24 32.3015C99.9516 31.1023 99.3587 29.5859 98.1307 27.6087Z" fill="#262933"/>
<path d="M95.4341 27.4938C95.4427 24.7258 93.9888 22.4774 92.1867 22.4718C90.3846 22.4662 88.9167 24.7056 88.9081 27.4735C88.8995 30.2415 90.3535 32.4899 92.1556 32.4955C93.9577 32.5011 95.4255 30.2617 95.4341 27.4938Z" fill="white"/>
<path d="M92.1612 33.0734C92.1586 33.0734 92.1562 33.0734 92.1536 33.0734C91.08 33.0701 90.0905 32.4524 89.3674 31.3342C88.694 30.2928 88.3256 28.9211 88.3301 27.4718C88.3346 26.0224 88.7115 24.653 89.3914 23.6158C90.1196 22.5048 91.1101 21.8935 92.1808 21.8939C92.1834 21.8939 92.1858 21.8939 92.1883 21.8939C93.262 21.8973 94.2515 22.5149 94.9746 23.6331C95.648 24.6745 96.0164 26.0463 96.0119 27.4956C96.0074 28.9449 95.6304 30.3143 94.9506 31.3515C94.2223 32.4626 93.2319 33.0739 92.1612 33.0734ZM92.1806 23.0497C90.7268 23.0491 89.4934 25.0741 89.4859 27.4753C89.4785 29.8787 90.7018 31.9131 92.1572 31.9176H92.1615C92.8295 31.9179 93.4765 31.492 93.9839 30.7179C94.5425 29.8657 94.8523 28.7201 94.8561 27.492C94.8635 25.0886 93.6402 23.0542 92.1847 23.0497H92.1806Z" fill="#262933"/>
<path d="M93.2258 24.9125C92.4541 24.9101 91.7966 25.6736 91.5587 26.7364C91.5158 26.9283 91.6028 27.1261 91.7702 27.2293L92.4062 27.6215C92.6362 27.7633 92.6977 28.0704 92.5401 28.2898L92.0128 29.0242C91.9 29.1813 91.894 29.3932 92.0026 29.5533C92.3157 30.0145 92.7404 30.2986 93.2091 30.3C94.1777 30.303 94.9666 29.0994 94.9713 27.6117C94.9759 26.124 94.1944 24.9155 93.2258 24.9125Z" fill="#262933"/>
<path d="M89.815 27.4915C89.8235 24.7235 88.3696 22.4751 86.5675 22.4695C84.7654 22.4639 83.2976 24.7032 83.289 27.4712C83.2804 30.2392 84.7343 32.4876 86.5364 32.4932C88.3385 32.4988 89.8064 30.2594 89.815 27.4915Z" fill="white"/>
<path d="M86.542 33.0711C86.5395 33.0711 86.537 33.0711 86.5345 33.0711C85.4608 33.0678 84.4714 32.4501 83.7483 31.3319C83.0748 30.2905 82.7064 28.9188 82.711 27.4694C82.7155 26.0201 83.0923 24.6507 83.7722 23.6135C84.5005 22.5025 85.4909 21.8912 86.5616 21.8916C86.5642 21.8916 86.5666 21.8916 86.5692 21.8916C87.6428 21.8949 88.6323 22.5126 89.3554 23.6308C90.0288 24.6722 90.3972 26.044 90.3927 27.4933C90.3882 28.9426 90.0113 30.312 89.3314 31.3492C88.6032 32.4603 87.6127 33.0716 86.542 33.0711ZM86.5614 23.0474C85.1077 23.0468 83.8742 25.0718 83.8667 27.473C83.8593 29.8764 85.0826 31.9108 86.5381 31.9153H86.5423C87.2103 31.9156 87.8573 31.4897 88.3648 30.7156C88.9233 29.8634 89.2331 28.7177 89.2369 27.4897C89.2443 25.0862 88.021 23.0519 86.5655 23.0474H86.5614Z" fill="#262933"/>
<path d="M87.8645 24.9103C87.0928 24.9079 86.4353 25.6714 86.1974 26.7342C86.1545 26.9261 86.2415 27.1239 86.4088 27.2271L87.0449 27.6193C87.2749 27.7611 87.3364 28.0682 87.1788 28.2876L86.6515 29.022C86.5386 29.1791 86.5326 29.391 86.6413 29.5511C86.9544 30.0123 87.379 30.2964 87.8478 30.2978C88.8164 30.3008 89.6053 29.0973 89.6099 27.6095C89.6146 26.1218 88.8331 24.9133 87.8645 24.9103Z" fill="#262933"/>
</g>
<path d="M92.2038 36.569C92.2178 36.927 92.2471 37.3214 92.3115 37.7598C92.3825 38.2447 92.4989 38.7858 92.6814 39.3884L92.981 39.1075L93.7087 38.4249L100.237 32.3021L100.966 31.6181L101.269 31.334C100.209 30.9554 99.0627 30.6774 97.9525 30.6614C97.9525 30.6614 97.8383 30.6605 97.8379 30.6605C97.6536 30.6605 97.4732 30.6681 97.2961 30.6816C97.0661 30.6991 96.8438 30.7309 96.6261 30.7711C96.3686 30.8187 96.1202 30.8831 95.8802 30.9624C95.6674 31.0326 95.459 31.1106 95.2605 31.2055C94.8057 31.4229 94.3886 31.7049 94.0109 32.0509C93.5936 32.4328 93.2474 32.8728 92.973 33.3687C92.7901 33.6993 92.6393 34.0548 92.5206 34.4344C92.3426 35.004 92.237 35.628 92.2048 36.3044L92.2036 36.3284L92.2025 36.3518C92.1998 36.4044 92.1994 36.4581 92.2016 36.5201L92.2038 36.569Z" fill="#D4D4D6"/>
<g filter="url(#filter3_d_13_37769)">
<path d="M66.364 68.7475C63.7764 68.7101 60.9883 67.2544 59.573 66.4014C57.1495 67.8036 54.8778 68.5412 52.9676 68.5412L52.8601 68.5406C50.5544 68.5075 48.6992 67.4175 47.7693 65.5499C47.0597 64.1248 46.9558 62.4222 47.461 60.4892C47.8243 59.0979 48.5057 57.5942 49.4896 56.0099C48.6585 54.5794 48.0621 53.2134 47.7134 51.9393C47.1253 49.7916 47.2368 47.9361 48.0445 46.4251C49.0097 44.6182 50.8569 43.5817 53.1125 43.5817L53.2179 43.5823C55.1545 43.6102 57.4441 44.4159 59.8765 45.9196C62.3028 44.514 64.5775 43.7746 66.4916 43.7746L66.5982 43.7752C68.9042 43.8086 70.76 44.8986 71.6899 46.7656C72.3998 48.1912 72.5031 49.8946 71.9973 51.8284C71.6331 53.2212 70.9499 54.7274 69.9641 56.3137C71.7528 59.3922 72.0569 61.4081 72.1128 62.8398L72.1149 62.8887C72.1171 62.9507 72.1167 63.0045 72.114 63.057L72.1116 63.1044C72.0259 64.9083 71.4183 66.3394 70.3056 67.358C69.2983 68.2805 68.0105 68.7484 66.4786 68.7484C66.4783 68.7484 66.364 68.7475 66.364 68.7475Z" fill="white"/>
<path d="M53.1115 43.9499L53.2126 43.9505C55.0738 43.9774 57.3111 44.7666 59.6828 46.2328C59.7421 46.2694 59.8092 46.2878 59.8764 46.2878C59.9402 46.2878 60.0039 46.2714 60.0611 46.2382C62.4273 44.8674 64.6509 44.1429 66.4895 44.1429L66.5929 44.1434C68.7563 44.1748 70.494 45.1904 71.3602 46.9298C72.0292 48.2731 72.1237 49.8899 71.6411 51.7352C71.2869 53.0896 70.6174 54.5647 69.6513 56.1194C69.5794 56.2351 69.5772 56.381 69.6457 56.4988C71.4044 59.5257 71.6914 61.4852 71.7449 62.8556L71.7469 62.9016C71.7486 62.9517 71.7485 62.9952 71.7462 63.038L71.7437 63.087C71.6628 64.7903 71.0953 66.1359 70.0568 67.0864C69.1196 67.9448 67.9156 68.3801 66.4811 68.3801L66.3694 68.3793C63.8723 68.3432 61.1585 66.927 59.763 66.086C59.7047 66.0507 59.6388 66.0331 59.573 66.0331C59.5093 66.0331 59.4456 66.0496 59.3885 66.0827C57.0251 67.4501 54.8048 68.1729 52.9697 68.1729L52.8654 68.1724C50.7025 68.1413 48.9652 67.1256 48.099 65.3857C47.4301 64.0426 47.3353 62.4265 47.8173 60.5823C48.1705 59.2293 48.8385 57.7564 49.8025 56.2043C49.8743 56.0887 49.8765 55.9428 49.8081 55.825C48.9936 54.4232 48.4083 53.0832 48.0687 51.842C47.5062 49.7882 47.6074 48.024 48.3694 46.5986C49.2684 44.9155 50.9967 43.9502 53.1115 43.9499ZM53.1125 43.5817C50.8569 43.5817 49.0096 44.6182 48.0445 46.4251C47.2368 47.9361 47.1253 49.7916 47.7134 51.9393C48.0622 53.2134 48.6585 54.5795 49.4896 56.01C48.5057 57.5942 47.8243 59.0979 47.461 60.4892C46.9558 62.4221 47.0597 64.1249 47.7693 65.5499C48.6992 67.4175 50.5544 68.5075 52.8601 68.5406L52.9676 68.5412C54.8778 68.5412 57.1495 67.8036 59.573 66.4014C60.9884 67.2544 63.7764 68.7101 66.3641 68.7475C66.3641 68.7475 66.4783 68.7484 66.4785 68.7484C68.0106 68.7484 69.2983 68.2806 70.3056 67.358C71.4183 66.3394 72.0259 64.9083 72.1116 63.1044L72.114 63.057C72.1168 63.0045 72.1171 62.9507 72.1149 62.8888L72.1128 62.8399C72.0569 61.4081 71.7528 59.3922 69.9642 56.3137C70.9499 54.7274 71.6331 53.2213 71.9974 51.8284C72.5032 49.8946 72.3999 48.1912 71.69 46.7656C70.7601 44.8986 68.9043 43.8086 66.5983 43.7752L66.4916 43.7746C64.5776 43.7746 62.3028 44.514 59.8765 45.9196C57.4442 44.4159 55.1546 43.6103 53.218 43.5823L53.1125 43.5817Z" fill="#D8D8D8"/>
<path d="M68.499 56.2911C69.6418 54.5735 70.4131 52.9678 70.7934 51.5136C71.2208 49.8792 71.1477 48.4684 70.5761 47.3204C69.8505 45.8633 68.4316 45.0461 66.5805 45.0195C64.7005 44.993 62.383 45.8087 59.8554 47.3839C57.3728 45.7364 55.0784 44.8535 53.2009 44.8264C51.3498 44.8011 49.9087 45.5757 49.1416 47.0115C48.489 48.2329 48.4123 49.7804 48.9135 51.611C49.2855 52.9698 49.9717 54.4553 50.9549 56.0314C49.8141 57.7469 49.0442 59.3509 48.6647 60.8039C48.2381 62.4373 48.3116 63.8475 48.8831 64.9954C49.6085 66.4526 51.0271 67.2698 52.8776 67.2964C54.7534 67.3231 57.0656 66.5101 59.5883 64.9408C61.4932 66.1995 64.1774 67.4716 66.3879 67.5035C66.3888 67.5035 66.3896 67.5035 66.3905 67.5036C66.419 67.504 66.4471 67.5041 66.4752 67.5041C67.6878 67.5046 68.6936 67.1469 69.4654 66.4403C70.327 65.6514 70.7992 64.5093 70.8688 63.0454L70.8712 62.9941C70.8721 62.9761 70.8721 62.958 70.8715 62.94L70.8694 62.8884C70.815 61.4968 70.4912 59.499 68.499 56.2911Z" fill="#262933"/>
<path d="M65.8023 56.1763C65.8109 53.4083 64.3569 51.1599 62.5548 51.1543C60.7527 51.1487 59.2849 53.3881 59.2763 56.156C59.2677 58.924 60.7216 61.1724 62.5237 61.178C64.3258 61.1836 65.7937 58.9442 65.8023 56.1763Z" fill="white"/>
<path d="M62.5294 61.7559C62.5268 61.7559 62.5243 61.7559 62.5218 61.7559C61.4482 61.7526 60.4587 61.1349 59.7356 60.0167C59.0622 58.9753 58.6937 57.6036 58.6983 56.1543C58.7028 54.7049 59.0797 53.3355 59.7595 52.2983C60.4878 51.1873 61.4783 50.576 62.549 50.5764C62.5515 50.5764 62.554 50.5764 62.5565 50.5764C63.6301 50.5798 64.6196 51.1974 65.3427 52.3156C66.0161 53.357 66.3846 54.7288 66.38 56.1781C66.3755 57.6274 65.9986 58.9968 65.3188 60.034C64.5905 61.1451 63.6001 61.7564 62.5294 61.7559ZM62.5487 51.7322C61.095 51.7316 59.8615 53.7566 59.854 56.1578C59.8466 58.5612 61.0699 60.5956 62.5254 60.6001H62.5296C63.1976 60.6004 63.8447 60.1745 64.3521 59.4004C64.9107 58.5482 65.2204 57.4026 65.2242 56.1745C65.2316 53.7711 64.0083 51.7367 62.5529 51.7322H62.5487Z" fill="#262933"/>
<path d="M63.594 53.595C62.8223 53.5926 62.1647 54.3561 61.9269 55.4189C61.884 55.6108 61.971 55.8086 62.1383 55.9118L62.7744 56.304C63.0044 56.4458 63.0659 56.7529 62.9083 56.9723L62.3809 57.7067C62.2681 57.8638 62.2621 58.0757 62.3708 58.2357C62.6839 58.697 63.1085 58.9811 63.5773 58.9825C64.5459 58.9855 65.3348 57.7819 65.3394 56.2942C65.344 54.8065 64.5626 53.598 63.594 53.595Z" fill="#262933"/>
<path d="M60.1831 56.1739C60.1917 53.406 58.7378 51.1576 56.9357 51.152C55.1336 51.1464 53.6657 53.3857 53.6572 56.1537C53.6486 58.9217 55.1025 61.1701 56.9046 61.1757C58.7067 61.1812 60.1745 58.9419 60.1831 56.1739Z" fill="white"/>
<path d="M56.9102 61.7536C56.9077 61.7536 56.9052 61.7536 56.9027 61.7536C55.829 61.7503 54.8395 61.1326 54.1164 60.0144C53.443 58.973 53.0746 57.6013 53.0791 56.1519C53.0836 54.7026 53.4605 53.3332 54.1404 52.296C54.8687 51.185 55.8591 50.5737 56.9298 50.5741C56.9324 50.5741 56.9348 50.5741 56.9373 50.5741C58.011 50.5774 59.0005 51.1951 59.7235 52.3133C60.3969 53.3547 60.7654 54.7265 60.7609 56.1758C60.7564 57.6251 60.3794 58.9945 59.6996 60.0317C58.9713 61.1428 57.9809 61.7541 56.9102 61.7536ZM56.9295 51.7299C55.4758 51.7293 54.2424 53.7543 54.2349 56.1555C54.2275 58.5589 55.4508 60.5933 56.9062 60.5978H56.9105C57.5785 60.598 58.2255 60.1722 58.7329 59.3981C59.2915 58.5459 59.6012 57.4002 59.605 56.1722C59.6125 53.7687 58.3892 51.7344 56.9337 51.7299H56.9295Z" fill="#262933"/>
<path d="M58.2326 53.5928C57.461 53.5904 56.8034 54.3539 56.5656 55.4167C56.5226 55.6086 56.6096 55.8064 56.777 55.9096L57.4131 56.3018C57.6431 56.4436 57.7046 56.7507 57.547 56.9701L57.0196 57.7045C56.9068 57.8616 56.9008 58.0735 57.0094 58.2336C57.3226 58.6948 57.7472 58.9789 58.2159 58.9803C59.1846 58.9833 59.9735 57.7797 59.9781 56.292C59.9827 54.8043 59.2012 53.5958 58.2326 53.5928Z" fill="#262933"/>
</g>
<g filter="url(#filter4_d_13_37769)">
<path d="M95.9959 68.7475C93.4082 68.7101 90.6201 67.2544 89.2048 66.4014C86.7813 67.8036 84.5096 68.5412 82.5995 68.5412L82.4919 68.5406C80.1862 68.5075 78.331 67.4175 77.4012 65.5499C76.6915 64.1248 76.5876 62.4222 77.0928 60.4892C77.4561 59.0979 78.1375 57.5942 79.1215 56.0099C78.2903 54.5794 77.694 53.2134 77.3453 51.9393C76.7571 49.7916 76.8686 47.9361 77.6764 46.4251C78.6415 44.6182 80.4888 43.5817 82.7444 43.5817L82.8498 43.5823C84.7864 43.6102 87.076 44.4159 89.5083 45.9196C91.9346 44.514 94.2093 43.7746 96.1234 43.7746L96.2301 43.7752C98.5361 43.8086 100.392 44.8986 101.322 46.7656C102.032 48.1912 102.135 49.8946 101.629 51.8284C101.265 53.2212 100.582 54.7274 99.596 56.3137C101.385 59.3922 101.689 61.4081 101.745 62.8398L101.747 62.8887C101.749 62.9507 101.749 63.0045 101.746 63.057L101.743 63.1044C101.658 64.9083 101.05 66.3394 99.9374 67.358C98.9301 68.2805 97.6424 68.7484 96.1104 68.7484C96.1101 68.7484 95.9959 68.7475 95.9959 68.7475Z" fill="white"/>
<path d="M82.7434 43.9499L82.8444 43.9505C84.7056 43.9774 86.943 44.7666 89.3147 46.2328C89.374 46.2694 89.4412 46.2878 89.5084 46.2878C89.5721 46.2878 89.6359 46.2714 89.693 46.2382C92.0591 44.8674 94.2828 44.1429 96.1214 44.1429L96.2247 44.1434C98.3882 44.1748 100.126 45.1904 100.992 46.9298C101.661 48.2731 101.756 49.8899 101.273 51.7352C100.919 53.0896 100.249 54.5647 99.2832 56.1194C99.2112 56.2351 99.2091 56.381 99.2776 56.4988C101.036 59.5257 101.323 61.4852 101.377 62.8556L101.379 62.9016C101.38 62.9517 101.38 62.9952 101.378 63.0385L101.376 63.0869C101.295 64.7903 100.727 66.1359 99.6887 67.0864C98.7514 67.9448 97.5475 68.3801 96.113 68.3801L96.0012 68.3793C93.5041 68.3432 90.7904 66.927 89.395 66.086C89.3366 66.0507 89.2708 66.0331 89.2049 66.0331C89.1412 66.0331 89.0775 66.0496 89.0205 66.0827C86.657 67.4501 84.4366 68.1729 82.6015 68.1729L82.4972 68.1724C80.3344 68.1413 78.5971 67.1256 77.7308 65.3857C77.062 64.0426 76.9672 62.4265 77.4492 60.5823C77.8025 59.2292 78.4704 57.7562 79.4343 56.2043C79.5062 56.0887 79.5084 55.9428 79.4399 55.825C78.6254 54.4232 78.0402 53.0832 77.7005 51.842C77.1381 49.7882 77.2392 48.024 78.0012 46.5986C78.9002 44.9155 80.6285 43.9502 82.7434 43.9499ZM82.7443 43.5817C80.4888 43.5817 78.6415 44.6182 77.6764 46.4251C76.8686 47.9361 76.7571 49.7916 77.3453 51.9393C77.694 53.2134 78.2903 54.5795 79.1215 56.01C78.1375 57.5942 77.4562 59.0979 77.0928 60.4892C76.5876 62.4221 76.6915 64.1249 77.4012 65.5499C78.3311 67.4175 80.1862 68.5075 82.4919 68.5406L82.5995 68.5412C84.5097 68.5412 86.7813 67.8036 89.2049 66.4014C90.6202 67.2544 93.4083 68.7101 95.9959 68.7475C95.9959 68.7475 96.1101 68.7484 96.1105 68.7484C97.6424 68.7484 98.9301 68.2806 99.9375 67.358C101.05 66.3394 101.658 64.9083 101.743 63.1044L101.746 63.057C101.749 63.0045 101.749 62.9507 101.747 62.8888L101.745 62.8399C101.689 61.4081 101.385 59.3922 99.596 56.3137C100.582 54.7274 101.265 53.2213 101.629 51.8284C102.135 49.8946 102.032 48.1912 101.322 46.7656C100.392 44.8986 98.5361 43.8086 96.2301 43.7752L96.1235 43.7746C94.2094 43.7746 91.9347 44.514 89.5084 45.9196C87.0761 44.4159 84.7865 43.6103 82.8499 43.5823L82.7443 43.5817Z" fill="#D8D8D8"/>
<path d="M98.1308 56.2912C99.2736 54.5736 100.045 52.9679 100.425 51.5137C100.853 49.8793 100.78 48.4685 100.208 47.3205C99.4824 45.8634 98.0634 45.0463 96.2124 45.0196C94.3324 44.9932 92.0149 45.8088 89.4872 47.384C87.0046 45.7365 84.7102 44.8536 82.8328 44.8265C80.9816 44.8012 79.5405 45.5759 78.7734 47.0116C78.1209 48.233 78.0441 49.7805 78.5453 51.6111C78.9173 52.9699 79.6036 54.4555 80.5868 56.0316C79.4459 57.7471 78.676 59.3511 78.2965 60.804C77.8699 62.4374 77.9434 63.8476 78.515 64.9956C79.2404 66.4527 80.659 67.2699 82.5094 67.2965C84.3852 67.3232 86.6974 66.5102 89.2202 64.941C91.125 66.1997 93.8092 67.4717 96.0197 67.5037C96.0206 67.5037 96.0215 67.5037 96.0224 67.5037C96.0508 67.5041 96.0789 67.5043 96.1071 67.5043C97.3196 67.5047 98.3254 67.147 99.0972 66.4404C99.9588 65.6515 100.431 64.5094 100.501 63.0456L100.503 62.9942C100.504 62.9762 100.504 62.9581 100.503 62.9401L100.501 62.8885C100.447 61.4969 100.123 59.4991 98.1308 56.2912Z" fill="#262933"/>
<path d="M95.4341 56.1764C95.4427 53.4084 93.9888 51.16 92.1867 51.1544C90.3846 51.1488 88.9167 53.3882 88.9081 56.1561C88.8995 58.9241 90.3535 61.1725 92.1556 61.1781C93.9577 61.1837 95.4255 58.9443 95.4341 56.1764Z" fill="white"/>
<path d="M92.1612 61.7559C92.1586 61.7559 92.1562 61.7559 92.1536 61.7559C91.08 61.7526 90.0905 61.1349 89.3674 60.0167C88.694 58.9753 88.3256 57.6036 88.3301 56.1543C88.3346 54.7049 88.7115 53.3355 89.3914 52.2983C90.1196 51.1873 91.1101 50.576 92.1808 50.5764C92.1834 50.5764 92.1858 50.5764 92.1883 50.5764C93.262 50.5798 94.2515 51.1974 94.9746 52.3156C95.648 53.357 96.0164 54.7288 96.0119 56.1781C96.0074 57.6274 95.6304 58.9968 94.9506 60.034C94.2223 61.1451 93.2319 61.7564 92.1612 61.7559ZM92.1806 51.7322C90.7268 51.7316 89.4934 53.7566 89.4859 56.1578C89.4785 58.5612 90.7018 60.5956 92.1572 60.6001H92.1615C92.8295 60.6004 93.4765 60.1745 93.9839 59.4004C94.5425 58.5482 94.8523 57.4026 94.8561 56.1745C94.8635 53.7711 93.6402 51.7367 92.1847 51.7322H92.1806Z" fill="#262933"/>
<path d="M93.2258 53.595C92.4541 53.5926 91.7966 54.3561 91.5587 55.4189C91.5158 55.6108 91.6028 55.8086 91.7702 55.9118L92.4062 56.304C92.6362 56.4458 92.6977 56.7529 92.5401 56.9723L92.0128 57.7067C91.9 57.8638 91.894 58.0757 92.0026 58.2357C92.3157 58.697 92.7404 58.9811 93.2091 58.9825C94.1777 58.9855 94.9666 57.7819 94.9713 56.2942C94.9759 54.8065 94.1944 53.598 93.2258 53.595Z" fill="#262933"/>
<path d="M89.815 56.1739C89.8235 53.406 88.3696 51.1576 86.5675 51.152C84.7654 51.1464 83.2976 53.3857 83.289 56.1537C83.2804 58.9217 84.7343 61.1701 86.5364 61.1757C88.3385 61.1812 89.8064 58.9419 89.815 56.1739Z" fill="white"/>
<path d="M86.542 61.7536C86.5395 61.7536 86.537 61.7536 86.5345 61.7536C85.4608 61.7503 84.4714 61.1326 83.7483 60.0144C83.0748 58.973 82.7064 57.6013 82.711 56.1519C82.7155 54.7026 83.0923 53.3332 83.7722 52.296C84.5005 51.185 85.4909 50.5737 86.5616 50.5741C86.5642 50.5741 86.5666 50.5741 86.5692 50.5741C87.6428 50.5774 88.6323 51.1951 89.3554 52.3133C90.0288 53.3547 90.3972 54.7265 90.3927 56.1758C90.3882 57.6251 90.0113 58.9945 89.3314 60.0317C88.6032 61.1428 87.6127 61.7541 86.542 61.7536ZM86.5614 51.7299C85.1077 51.7293 83.8742 53.7543 83.8667 56.1555C83.8593 58.5589 85.0826 60.5933 86.5381 60.5978H86.5423C87.2103 60.598 87.8573 60.1722 88.3648 59.3981C88.9233 58.5459 89.2331 57.4002 89.2369 56.1722C89.2443 53.7687 88.021 51.7344 86.5655 51.7299H86.5614Z" fill="#262933"/>
<path d="M87.8645 53.5928C87.0928 53.5904 86.4353 54.3539 86.1974 55.4167C86.1545 55.6086 86.2415 55.8064 86.4088 55.9096L87.0449 56.3018C87.2749 56.4436 87.3364 56.7507 87.1788 56.9701L86.6515 57.7045C86.5386 57.8616 86.5326 58.0735 86.6413 58.2336C86.9544 58.6948 87.379 58.9789 87.8478 58.9803C88.8164 58.9833 89.6053 57.7797 89.6099 56.292C89.6146 54.8043 88.8331 53.5958 87.8645 53.5928Z" fill="#262933"/>
</g>
<g filter="url(#filter5_d_13_37769)">
<path d="M66.364 97.43C63.7764 97.3926 60.9883 95.9369 59.573 95.0839C57.1495 96.4861 54.8778 97.2237 52.9676 97.2237L52.8601 97.2231C50.5544 97.19 48.6992 96.1 47.7693 94.2324C47.0597 92.8073 46.9558 91.1047 47.461 89.1717C47.8243 87.7804 48.5057 86.2767 49.4896 84.6924C48.6585 83.262 48.0621 81.8959 47.7134 80.6218C47.1253 78.4741 47.2368 76.6185 48.0445 75.1075C49.0097 73.3007 50.8569 72.2642 53.1125 72.2642L53.2179 72.2648C55.1545 72.2927 57.4441 73.0983 59.8765 74.6021C62.3028 73.1965 64.5775 72.4571 66.4916 72.4571L66.5982 72.4577C68.9042 72.4911 70.76 73.5811 71.6899 75.4481C72.3998 76.8737 72.5031 78.577 71.9973 80.5109C71.6331 81.9037 70.9499 83.4099 69.9641 84.9962C71.7528 88.0747 72.0569 90.0906 72.1128 91.5223L72.1149 91.5712C72.1171 91.6332 72.1167 91.687 72.114 91.7395L72.1116 91.7869C72.0259 93.5908 71.4183 95.0219 70.3056 96.0405C69.2983 96.963 68.0105 97.4309 66.4786 97.4309C66.4783 97.4309 66.364 97.43 66.364 97.43Z" fill="white"/>
<path d="M53.1112 72.6326L53.2126 72.6331C55.0737 72.66 57.3111 73.4492 59.6828 74.9154C59.7421 74.9521 59.8092 74.9705 59.8764 74.9705C59.9402 74.9705 60.0039 74.954 60.0611 74.9208C62.4274 73.55 64.651 72.8254 66.4895 72.8254L66.5929 72.826C68.7563 72.8574 70.494 73.8729 71.3602 75.6124C72.0292 76.9557 72.1237 78.5725 71.6411 80.4178C71.2868 81.7723 70.6174 83.2473 69.6513 84.8019C69.5794 84.9176 69.5772 85.0636 69.6457 85.1813C71.4044 88.2083 71.6914 90.1679 71.7449 91.5382L71.7469 91.5842C71.7486 91.6343 71.7485 91.6778 71.7462 91.7206L71.7437 91.7695C71.6628 93.4728 71.0953 94.8184 70.0568 95.769C69.1196 96.6274 67.9156 97.0627 66.4811 97.0627L66.3694 97.0618C63.8723 97.0258 61.1585 95.6095 59.763 94.7686C59.7047 94.7334 59.6388 94.7157 59.573 94.7157C59.5093 94.7157 59.4456 94.7322 59.3885 94.7652C57.0251 96.1327 54.8048 96.8555 52.9697 96.8555L52.8654 96.855C50.7025 96.8239 48.9652 95.8082 48.099 94.0683C47.4301 92.7251 47.3353 91.1091 47.8173 89.2649C48.1706 87.9118 48.8385 86.4389 49.8025 84.8869C49.8743 84.7712 49.8765 84.6253 49.8081 84.5075C48.9936 83.1058 48.4083 81.7657 48.0687 80.5246C47.5062 78.4707 47.6074 76.7066 48.3694 75.2812C49.2683 73.5982 50.9964 72.6329 53.1112 72.6326ZM53.1125 72.2643C50.8569 72.2643 49.0096 73.3008 48.0445 75.1077C47.2368 76.6187 47.1253 78.4742 47.7134 80.6219C48.0622 81.896 48.6585 83.2621 49.4896 84.6925C48.5057 86.2768 47.8243 87.7805 47.461 89.1718C46.9558 91.1048 47.0597 92.8075 47.7693 94.2325C48.6992 96.1001 50.5544 97.1901 52.8601 97.2232L52.9676 97.2238C54.8778 97.2238 57.1495 96.4862 59.573 95.084C60.9884 95.937 63.7764 97.3927 66.3641 97.4301C66.3641 97.4301 66.4783 97.431 66.4785 97.431C68.0106 97.431 69.2983 96.9632 70.3056 96.0406C71.4183 95.022 72.0259 93.5909 72.1116 91.787L72.114 91.7396C72.1168 91.6871 72.1171 91.6333 72.1149 91.5714L72.1128 91.5225C72.0569 90.0907 71.7528 88.0748 69.9642 84.9963C70.9499 83.41 71.6331 81.9039 71.9974 80.511C72.5032 78.5771 72.3999 76.8739 71.69 75.4482C70.7601 73.5812 68.9043 72.4912 66.5983 72.4578L66.4916 72.4572C64.5776 72.4572 62.3028 73.1966 59.8765 74.6022C57.4442 73.0985 55.1546 72.2928 53.218 72.2649L53.1125 72.2643Z" fill="#D8D8D8"/>
<path d="M68.499 84.9736C69.6418 83.256 70.4131 81.6503 70.7934 80.1961C71.2208 78.5617 71.1477 77.1509 70.5761 76.0029C69.8505 74.5458 68.4316 73.7286 66.5805 73.702C64.7005 73.6755 62.383 74.4912 59.8554 76.0664C57.3728 74.4189 55.0784 73.536 53.2009 73.5089C51.3498 73.4836 49.9087 74.2582 49.1416 75.694C48.489 76.9154 48.4123 78.4629 48.9135 80.2935C49.2855 81.6523 49.9717 83.1378 50.9549 84.7139C49.8141 86.4294 49.0442 88.0334 48.6647 89.4864C48.2381 91.1198 48.3116 92.53 48.8831 93.6779C49.6085 95.1351 51.0271 95.9523 52.8776 95.9789C54.7534 96.0056 57.0656 95.1926 59.5883 93.6233C61.4932 94.882 64.1774 96.1541 66.3879 96.186C66.3888 96.186 66.3896 96.186 66.3905 96.1861C66.419 96.1864 66.4471 96.1866 66.4752 96.1866C67.6878 96.1871 68.6936 95.8294 69.4654 95.1228C70.327 94.3339 70.7992 93.1917 70.8688 91.7279L70.8712 91.6766C70.8721 91.6586 70.8721 91.6405 70.8715 91.6225L70.8694 91.5709C70.815 90.1793 70.4912 88.1815 68.499 84.9736Z" fill="#262933"/>
<path d="M65.8023 84.8589C65.8108 82.0909 64.3569 79.8425 62.5548 79.8369C60.7527 79.8313 59.2849 82.0707 59.2763 84.8386C59.2677 87.6066 60.7216 89.855 62.5237 89.8606C64.3258 89.8662 65.7937 87.6268 65.8023 84.8589Z" fill="white"/>
<path d="M62.5294 90.4384C62.5268 90.4384 62.5243 90.4384 62.5218 90.4384C61.4482 90.4351 60.4587 89.8174 59.7356 88.6992C59.0622 87.6578 58.6937 86.2861 58.6983 84.8368C58.7028 83.3874 59.0797 82.018 59.7595 80.9808C60.4878 79.8698 61.4783 79.2585 62.549 79.2589C62.5515 79.2589 62.554 79.2589 62.5565 79.2589C63.6301 79.2623 64.6196 79.8799 65.3427 80.9981C66.0161 82.0395 66.3846 83.4113 66.38 84.8606C66.3755 86.3099 65.9986 87.6793 65.3188 88.7165C64.5905 89.8276 63.6001 90.4389 62.5294 90.4384ZM62.5487 80.4147C61.095 80.4141 59.8615 82.4391 59.854 84.8403C59.8466 87.2437 61.0699 89.2781 62.5254 89.2826H62.5296C63.1976 89.2829 63.8447 88.857 64.3521 88.0829C64.9107 87.2307 65.2204 86.085 65.2242 84.857C65.2316 82.4536 64.0083 80.4192 62.5529 80.4147H62.5487Z" fill="#262933"/>
<path d="M63.594 82.2775C62.8223 82.2751 62.1647 83.0386 61.9269 84.1014C61.884 84.2933 61.971 84.4911 62.1383 84.5943L62.7744 84.9865C63.0044 85.1283 63.0659 85.4354 62.9083 85.6548L62.3809 86.3892C62.2681 86.5463 62.2621 86.7582 62.3708 86.9183C62.6839 87.3795 63.1085 87.6636 63.5773 87.665C64.5459 87.668 65.3348 86.4644 65.3394 84.9767C65.344 83.489 64.5626 82.2805 63.594 82.2775Z" fill="#262933"/>
<path d="M60.1831 84.8566C60.1917 82.0886 58.7378 79.8402 56.9357 79.8346C55.1336 79.829 53.6657 82.0684 53.6572 84.8363C53.6486 87.6043 55.1025 89.8527 56.9046 89.8583C58.7067 89.8639 60.1745 87.6245 60.1831 84.8566Z" fill="white"/>
<path d="M56.9102 90.4361C56.9077 90.4361 56.9052 90.4361 56.9027 90.4361C55.829 90.4328 54.8395 89.8151 54.1164 88.6969C53.443 87.6555 53.0746 86.2838 53.0791 84.8344C53.0836 83.3851 53.4605 82.0157 54.1404 80.9785C54.8687 79.8675 55.8591 79.2562 56.9298 79.2566C56.9324 79.2566 56.9348 79.2566 56.9373 79.2566C58.011 79.2599 59.0005 79.8776 59.7235 80.9958C60.3969 82.0372 60.7654 83.4089 60.7609 84.8583C60.7564 86.3076 60.3794 87.677 59.6996 88.7142C58.9713 89.8253 57.9809 90.4366 56.9102 90.4361ZM56.9295 80.4124C55.4758 80.4118 54.2424 82.4368 54.2349 84.838C54.2275 87.2414 55.4508 89.2758 56.9062 89.2803H56.9105C57.5785 89.2805 58.2255 88.8547 58.7329 88.0806C59.2915 87.2284 59.6012 86.0827 59.605 84.8547C59.6125 82.4512 58.3892 80.4169 56.9337 80.4124H56.9295Z" fill="#262933"/>
<path d="M58.2326 82.2753C57.461 82.2729 56.8034 83.0364 56.5656 84.0992C56.5226 84.2911 56.6096 84.4889 56.777 84.5921L57.4131 84.9843C57.6431 85.1261 57.7046 85.4332 57.547 85.6526L57.0196 86.387C56.9068 86.5441 56.9008 86.756 57.0094 86.9161C57.3226 87.3773 57.7472 87.6614 58.2159 87.6628C59.1846 87.6658 59.9735 86.4622 59.9781 84.9745C59.9827 83.4868 59.2012 82.2783 58.2326 82.2753Z" fill="#262933"/>
</g>
<g filter="url(#filter6_d_13_37769)">
<path d="M95.9959 97.43C93.4082 97.3926 90.6201 95.9369 89.2048 95.0839C86.7813 96.4861 84.5096 97.2237 82.5995 97.2237L82.4919 97.2231C80.1862 97.19 78.331 96.1 77.4012 94.2324C76.6915 92.8073 76.5876 91.1047 77.0928 89.1717C77.4561 87.7804 78.1375 86.2767 79.1215 84.6924C78.2903 83.262 77.694 81.8959 77.3453 80.6218C76.7571 78.4741 76.8686 76.6185 77.6764 75.1075C78.6415 73.3007 80.4888 72.2642 82.7444 72.2642L82.8498 72.2648C84.7864 72.2927 87.076 73.0983 89.5083 74.6021C91.9346 73.1965 94.2093 72.4571 96.1234 72.4571L96.2301 72.4577C98.5361 72.4911 100.392 73.5811 101.322 75.4481C102.032 76.8737 102.135 78.577 101.629 80.5109C101.265 81.9037 100.582 83.4099 99.596 84.9962C101.385 88.0747 101.689 90.0906 101.745 91.5223L101.747 91.5712C101.749 91.6332 101.749 91.687 101.746 91.7395L101.743 91.7869C101.658 93.5908 101.05 95.0219 99.9374 96.0405C98.9301 96.963 97.6424 97.4309 96.1104 97.4309C96.1101 97.4309 95.9959 97.43 95.9959 97.43Z" fill="white"/>
<path d="M82.743 72.6326L82.8444 72.6331C84.7055 72.66 86.9429 73.4492 89.3147 74.9154C89.374 74.9521 89.4412 74.9705 89.5084 74.9705C89.5721 74.9705 89.6359 74.954 89.693 74.9208C92.0592 73.55 94.2828 72.8254 96.1214 72.8254L96.2247 72.826C98.3882 72.8574 100.126 73.8729 100.992 75.6124C101.661 76.9557 101.756 78.5725 101.273 80.4178C100.919 81.7723 100.249 83.2473 99.2832 84.8019C99.2112 84.9176 99.2091 85.0636 99.2776 85.1813C101.036 88.2083 101.323 90.1679 101.377 91.5382L101.379 91.5842C101.38 91.6343 101.38 91.6778 101.378 91.721L101.376 91.7695C101.295 93.4729 100.727 94.8184 99.6887 95.769C98.7514 96.6274 97.5475 97.0627 96.113 97.0627L96.0012 97.0618C93.5041 97.0258 90.7904 95.6095 89.395 94.7686C89.3366 94.7333 89.2708 94.7157 89.2049 94.7157C89.1412 94.7157 89.0775 94.7322 89.0205 94.7652C86.657 96.1327 84.4366 96.8555 82.6015 96.8555L82.4972 96.855C80.3344 96.8239 78.5971 95.8082 77.7308 94.0683C77.062 92.7251 76.9672 91.1091 77.4492 89.2649C77.8025 87.9117 78.4704 86.4387 79.4343 84.8869C79.5062 84.7712 79.5084 84.6253 79.4399 84.5075C78.6254 83.1058 78.0402 81.7657 77.7005 80.5246C77.1381 78.4707 77.2392 76.7066 78.0012 75.2812C78.9002 73.5982 80.6283 72.6329 82.743 72.6326ZM82.7443 72.2643C80.4888 72.2643 78.6415 73.3008 77.6764 75.1077C76.8686 76.6187 76.7571 78.4742 77.3453 80.6219C77.694 81.896 78.2903 83.2621 79.1215 84.6925C78.1375 86.2768 77.4562 87.7805 77.0928 89.1718C76.5876 91.1048 76.6915 92.8075 77.4012 94.2325C78.3311 96.1001 80.1862 97.1901 82.4919 97.2232L82.5995 97.2238C84.5097 97.2238 86.7813 96.4862 89.2049 95.084C90.6202 95.937 93.4083 97.3927 95.9959 97.4301C95.9959 97.4301 96.1101 97.431 96.1105 97.431C97.6424 97.431 98.9301 96.9632 99.9375 96.0406C101.05 95.022 101.658 93.5909 101.743 91.787L101.746 91.7396C101.749 91.6871 101.749 91.6333 101.747 91.5714L101.745 91.5225C101.689 90.0907 101.385 88.0748 99.596 84.9963C100.582 83.41 101.265 81.9039 101.629 80.511C102.135 78.5771 102.032 76.8739 101.322 75.4482C100.392 73.5812 98.5361 72.4912 96.2301 72.4578L96.1235 72.4572C94.2094 72.4572 91.9347 73.1966 89.5084 74.6022C87.0761 73.0985 84.7865 72.2928 82.8499 72.2649L82.7443 72.2643Z" fill="#D8D8D8"/>
<path d="M98.1308 84.9736C99.2736 83.256 100.045 81.6503 100.425 80.1961C100.853 78.5617 100.78 77.1509 100.208 76.0029C99.4824 74.5458 98.0634 73.7286 96.2124 73.702C94.3324 73.6755 92.0149 74.4912 89.4872 76.0664C87.0046 74.4189 84.7102 73.536 82.8328 73.5089C80.9816 73.4836 79.5405 74.2582 78.7734 75.694C78.1209 76.9154 78.0441 78.4629 78.5453 80.2935C78.9173 81.6523 79.6036 83.1378 80.5868 84.7139C79.4459 86.4294 78.676 88.0334 78.2965 89.4864C77.8699 91.1198 77.9434 92.53 78.515 93.6779C79.2404 95.1351 80.659 95.9523 82.5094 95.9789C84.3852 96.0056 86.6974 95.1926 89.2202 93.6233C91.125 94.882 93.8092 96.1541 96.0197 96.186C96.0206 96.186 96.0215 96.186 96.0224 96.1861C96.0508 96.1864 96.0789 96.1866 96.1071 96.1866C97.3196 96.1871 98.3254 95.8294 99.0972 95.1228C99.9588 94.3339 100.431 93.1917 100.501 91.7279L100.503 91.6766C100.504 91.6586 100.504 91.6405 100.503 91.6225L100.501 91.5709C100.447 90.1793 100.123 88.1815 98.1308 84.9736Z" fill="#262933"/>
<path d="M95.4341 84.8589C95.4427 82.0909 93.9888 79.8425 92.1867 79.8369C90.3846 79.8313 88.9167 82.0707 88.9081 84.8386C88.8995 87.6066 90.3535 89.855 92.1556 89.8606C93.9577 89.8662 95.4255 87.6268 95.4341 84.8589Z" fill="white"/>
<path d="M92.1612 90.4384C92.1586 90.4384 92.1562 90.4384 92.1536 90.4384C91.08 90.4351 90.0905 89.8174 89.3674 88.6992C88.694 87.6578 88.3256 86.2861 88.3301 84.8368C88.3346 83.3874 88.7115 82.018 89.3914 80.9808C90.1196 79.8698 91.1101 79.2585 92.1808 79.2589C92.1834 79.2589 92.1858 79.2589 92.1883 79.2589C93.262 79.2623 94.2515 79.8799 94.9746 80.9981C95.648 82.0395 96.0164 83.4113 96.0119 84.8606C96.0074 86.3099 95.6304 87.6793 94.9506 88.7165C94.2223 89.8276 93.2319 90.4389 92.1612 90.4384ZM92.1806 80.4147C90.7268 80.4141 89.4934 82.4391 89.4859 84.8403C89.4785 87.2437 90.7018 89.2781 92.1572 89.2826H92.1615C92.8295 89.2829 93.4765 88.857 93.9839 88.0829C94.5425 87.2307 94.8523 86.085 94.8561 84.857C94.8635 82.4536 93.6402 80.4192 92.1847 80.4147H92.1806Z" fill="#262933"/>
<path d="M93.2258 82.2775C92.4541 82.2751 91.7966 83.0386 91.5587 84.1014C91.5158 84.2933 91.6028 84.4911 91.7702 84.5943L92.4062 84.9865C92.6362 85.1283 92.6977 85.4354 92.5401 85.6548L92.0128 86.3892C91.9 86.5463 91.894 86.7582 92.0026 86.9183C92.3157 87.3795 92.7404 87.6636 93.2091 87.665C94.1777 87.668 94.9666 86.4644 94.9713 84.9767C94.9759 83.489 94.1944 82.2805 93.2258 82.2775Z" fill="#262933"/>
<path d="M89.815 84.8566C89.8235 82.0886 88.3696 79.8402 86.5675 79.8346C84.7654 79.829 83.2976 82.0684 83.289 84.8363C83.2804 87.6043 84.7343 89.8527 86.5364 89.8583C88.3385 89.8639 89.8064 87.6245 89.815 84.8566Z" fill="white"/>
<path d="M86.542 90.4361C86.5395 90.4361 86.537 90.4361 86.5345 90.4361C85.4608 90.4328 84.4714 89.8151 83.7483 88.6969C83.0748 87.6555 82.7064 86.2838 82.711 84.8344C82.7155 83.3851 83.0923 82.0157 83.7722 80.9785C84.5005 79.8675 85.4909 79.2562 86.5616 79.2566C86.5642 79.2566 86.5666 79.2566 86.5692 79.2566C87.6428 79.2599 88.6323 79.8776 89.3554 80.9958C90.0288 82.0372 90.3972 83.4089 90.3927 84.8583C90.3882 86.3076 90.0113 87.677 89.3314 88.7142C88.6032 89.8253 87.6127 90.4366 86.542 90.4361ZM86.5614 80.4124C85.1077 80.4118 83.8742 82.4368 83.8667 84.838C83.8593 87.2414 85.0826 89.2758 86.5381 89.2803H86.5423C87.2103 89.2805 87.8573 88.8547 88.3648 88.0806C88.9233 87.2284 89.2331 86.0827 89.2369 84.8547C89.2443 82.4512 88.021 80.4169 86.5655 80.4124H86.5614Z" fill="#262933"/>
<path d="M87.8645 82.2753C87.0928 82.2729 86.4353 83.0364 86.1974 84.0992C86.1545 84.2911 86.2415 84.4889 86.4088 84.5921L87.0449 84.9843C87.2749 85.1261 87.3364 85.4332 87.1788 85.6526L86.6515 86.387C86.5386 86.5441 86.5326 86.756 86.6413 86.9161C86.9544 87.3773 87.379 87.6614 87.8478 87.6628C88.8164 87.6658 89.6053 86.4622 89.6099 84.9745C89.6146 83.4868 88.8331 82.2783 87.8645 82.2753Z" fill="#262933"/>
</g>
<defs>
<filter id="filter0_d_13_37769" x="31.5166" y="2.5166" width="97.0254" height="118.54" filterUnits="userSpaceOnUse" color-interpolation-filters="sRGB">
<feFlood flood-opacity="0" result="BackgroundImageFix"/>
<feColorMatrix in="SourceAlpha" type="matrix" values="0 0 0 0 0 0 0 0 0 0 0 0 0 0 0 0 0 0 127 0" result="hardAlpha"/>
<feOffset dx="5.4834" dy="5.4834"/>
<feGaussianBlur stdDeviation="5.4834"/>
<feColorMatrix type="matrix" values="0 0 0 0 0 0 0 0 0 0 0 0 0 0 0 0 0 0 0.25 0"/>
<feBlend mode="normal" in2="BackgroundImageFix" result="effect1_dropShadow_13_37769"/>
<feBlend mode="normal" in="SourceGraphic" in2="effect1_dropShadow_13_37769" result="shape"/>
</filter>
<filter id="filter1_d_13_37769" x="45.6465" y="13.3992" width="31.166" height="31.1667" filterUnits="userSpaceOnUse" color-interpolation-filters="sRGB">
<feFlood flood-opacity="0" result="BackgroundImageFix"/>
<feColorMatrix in="SourceAlpha" type="matrix" values="0 0 0 0 0 0 0 0 0 0 0 0 0 0 0 0 0 0 127 0" result="hardAlpha"/>
<feOffset dx="1.5" dy="1.5"/>
<feGaussianBlur stdDeviation="1.5"/>
<feColorMatrix type="matrix" values="0 0 0 0 0 0 0 0 0 0 0 0 0 0 0 0 0 0 0.3 0"/>
<feBlend mode="normal" in2="BackgroundImageFix" result="effect1_dropShadow_13_37769"/>
<feBlend mode="normal" in="SourceGraphic" in2="effect1_dropShadow_13_37769" result="shape"/>
</filter>
<filter id="filter2_d_13_37769" x="75.2783" y="13.3994" width="31.166" height="30.9596" filterUnits="userSpaceOnUse" color-interpolation-filters="sRGB">
<feFlood flood-opacity="0" result="BackgroundImageFix"/>
<feColorMatrix in="SourceAlpha" type="matrix" values="0 0 0 0 0 0 0 0 0 0 0 0 0 0 0 0 0 0 127 0" result="hardAlpha"/>
<feOffset dx="1.5" dy="1.5"/>
<feGaussianBlur stdDeviation="1.5"/>
<feColorMatrix type="matrix" values="0 0 0 0 0 0 0 0 0 0 0 0 0 0 0 0 0 0 0.3 0"/>
<feBlend mode="normal" in2="BackgroundImageFix" result="effect1_dropShadow_13_37769"/>
<feBlend mode="normal" in="SourceGraphic" in2="effect1_dropShadow_13_37769" result="shape"/>
</filter>
<filter id="filter3_d_13_37769" x="45.6465" y="42.0817" width="31.166" height="31.1667" filterUnits="userSpaceOnUse" color-interpolation-filters="sRGB">
<feFlood flood-opacity="0" result="BackgroundImageFix"/>
<feColorMatrix in="SourceAlpha" type="matrix" values="0 0 0 0 0 0 0 0 0 0 0 0 0 0 0 0 0 0 127 0" result="hardAlpha"/>
<feOffset dx="1.5" dy="1.5"/>
<feGaussianBlur stdDeviation="1.5"/>
<feColorMatrix type="matrix" values="0 0 0 0 0 0 0 0 0 0 0 0 0 0 0 0 0 0 0.3 0"/>
<feBlend mode="normal" in2="BackgroundImageFix" result="effect1_dropShadow_13_37769"/>
<feBlend mode="normal" in="SourceGraphic" in2="effect1_dropShadow_13_37769" result="shape"/>
</filter>
<filter id="filter4_d_13_37769" x="75.2783" y="42.0817" width="31.166" height="31.1667" filterUnits="userSpaceOnUse" color-interpolation-filters="sRGB">
<feFlood flood-opacity="0" result="BackgroundImageFix"/>
<feColorMatrix in="SourceAlpha" type="matrix" values="0 0 0 0 0 0 0 0 0 0 0 0 0 0 0 0 0 0 127 0" result="hardAlpha"/>
<feOffset dx="1.5" dy="1.5"/>
<feGaussianBlur stdDeviation="1.5"/>
<feColorMatrix type="matrix" values="0 0 0 0 0 0 0 0 0 0 0 0 0 0 0 0 0 0 0.3 0"/>
<feBlend mode="normal" in2="BackgroundImageFix" result="effect1_dropShadow_13_37769"/>
<feBlend mode="normal" in="SourceGraphic" in2="effect1_dropShadow_13_37769" result="shape"/>
</filter>
<filter id="filter5_d_13_37769" x="45.6465" y="70.7642" width="31.166" height="31.1669" filterUnits="userSpaceOnUse" color-interpolation-filters="sRGB">
<feFlood flood-opacity="0" result="BackgroundImageFix"/>
<feColorMatrix in="SourceAlpha" type="matrix" values="0 0 0 0 0 0 0 0 0 0 0 0 0 0 0 0 0 0 127 0" result="hardAlpha"/>
<feOffset dx="1.5" dy="1.5"/>
<feGaussianBlur stdDeviation="1.5"/>
<feColorMatrix type="matrix" values="0 0 0 0 0 0 0 0 0 0 0 0 0 0 0 0 0 0 0.3 0"/>
<feBlend mode="normal" in2="BackgroundImageFix" result="effect1_dropShadow_13_37769"/>
<feBlend mode="normal" in="SourceGraphic" in2="effect1_dropShadow_13_37769" result="shape"/>
</filter>
<filter id="filter6_d_13_37769" x="75.2783" y="70.7642" width="31.166" height="31.1669" filterUnits="userSpaceOnUse" color-interpolation-filters="sRGB">
<feFlood flood-opacity="0" result="BackgroundImageFix"/>
<feColorMatrix in="SourceAlpha" type="matrix" values="0 0 0 0 0 0 0 0 0 0 0 0 0 0 0 0 0 0 127 0" result="hardAlpha"/>
<feOffset dx="1.5" dy="1.5"/>
<feGaussianBlur stdDeviation="1.5"/>
<feColorMatrix type="matrix" values="0 0 0 0 0 0 0 0 0 0 0 0 0 0 0 0 0 0 0.3 0"/>
<feBlend mode="normal" in2="BackgroundImageFix" result="effect1_dropShadow_13_37769"/>
<feBlend mode="normal" in="SourceGraphic" in2="effect1_dropShadow_13_37769" result="shape"/>
</filter>
</defs>
</svg>
