<svg width="156" height="122" viewBox="0 0 156 122" fill="none" xmlns="http://www.w3.org/2000/svg">
<path d="M118.656 108.225V19.1684C118.656 17.5412 117.337 16.2222 115.71 16.2222L48.1682 16.2222C46.5411 16.2222 45.222 17.5412 45.222 19.1684V108.225C45.222 109.852 46.5411 111.171 48.1682 111.171H115.71C117.337 111.171 118.656 109.852 118.656 108.225Z" fill="#EDEDED"/>
<path d="M115.71 112H48.1684C46.087 112 44.3936 110.307 44.3936 108.225V19.1684C44.3936 17.0869 46.087 15.3936 48.1684 15.3936H115.71C117.792 15.3936 119.485 17.0869 119.485 19.1684V108.225C119.485 110.307 117.792 112 115.71 112ZM48.1684 17.0508C47.0007 17.0508 46.0508 18.0007 46.0508 19.1684V108.225C46.0508 109.393 47.0007 110.343 48.1684 110.343H115.71C116.878 110.343 117.828 109.393 117.828 108.225V19.1684C117.828 18.0007 116.878 17.0508 115.71 17.0508H48.1684Z" fill="#262933"/>
<g filter="url(#filter0_d_13_38110)">
<path d="M111.263 100.832V11.7748C111.263 10.1477 109.944 8.82861 108.317 8.82861L40.7746 8.82861C39.1475 8.82861 37.8285 10.1477 37.8285 11.7748V100.832C37.8285 102.459 39.1475 103.778 40.7746 103.778H108.317C109.944 103.778 111.263 102.459 111.263 100.832Z" fill="white"/>
<path d="M108.317 104.606H40.7748C38.6934 104.606 37 102.913 37 100.832V11.7748C37 9.69332 38.6934 8 40.7748 8H108.317C110.398 8 112.091 9.69332 112.091 11.7748V100.832C112.091 102.913 110.398 104.606 108.317 104.606ZM40.7748 9.65723C39.6072 9.65723 38.6572 10.6072 38.6572 11.7748V100.832C38.6572 101.999 39.6072 102.949 40.7748 102.949H108.317C109.484 102.949 110.434 101.999 110.434 100.832V11.7748C110.434 10.6072 109.484 9.65723 108.317 9.65723H40.7748Z" fill="#262933"/>
</g>
<g filter="url(#filter1_d_13_38110)">
<path d="M58.6084 33.786C66.7428 33.786 73.337 29.5853 73.337 24.4036C73.337 19.2218 66.7428 15.0211 58.6084 15.0211C50.4741 15.0211 43.8799 19.2218 43.8799 24.4036C43.8799 29.5853 50.4741 33.786 58.6084 33.786Z" fill="#262933"/>
<path d="M58.6078 16.8624C62.0175 16.8624 65.2612 17.6775 67.7415 19.1575C70.1621 20.6019 71.4952 22.465 71.4952 24.4037C71.4952 26.3425 70.1621 28.2055 67.7415 29.6498C65.2612 31.1297 62.0175 31.9447 58.6078 31.9447C55.1982 31.9447 51.9545 31.1297 49.4744 29.6498C47.0539 28.2055 45.7208 26.3425 45.7208 24.4037C45.7208 22.465 47.0539 20.6018 49.4744 19.1575C51.9546 17.6775 55.1983 16.8624 58.6078 16.8624ZM58.6078 16.4941C51.4226 16.4941 45.3525 20.1165 45.3525 24.4037C45.3525 28.691 51.4226 32.313 58.6078 32.313C65.7931 32.313 71.8635 28.691 71.8635 24.4037C71.8635 20.1165 65.7931 16.4941 58.6078 16.4941Z" fill="#55585E"/>
<path d="M58.6084 55.0359C66.7428 55.0359 73.337 50.8352 73.337 45.6534C73.337 40.4717 66.7428 36.271 58.6084 36.271C50.4741 36.271 43.8799 40.4717 43.8799 45.6534C43.8799 50.8352 50.4741 55.0359 58.6084 55.0359Z" fill="#262933"/>
<path d="M58.6078 38.1122C62.0175 38.1122 65.2612 38.9272 67.7415 40.4072C70.1621 41.8516 71.4952 43.7148 71.4952 45.6535C71.4952 47.5922 70.1621 49.4553 67.7415 50.8996C65.2612 52.3795 62.0175 53.1945 58.6078 53.1945C55.1982 53.1945 51.9545 52.3795 49.4744 50.8996C47.0539 49.4553 45.7208 47.5922 45.7208 45.6535C45.7208 43.7148 47.0539 41.8516 49.4744 40.4072C51.9546 38.9272 55.1983 38.1122 58.6078 38.1122ZM58.6078 37.7439C51.4226 37.7439 45.3525 41.3662 45.3525 45.6535C45.3525 49.9408 51.4226 53.5627 58.6078 53.5627C65.7931 53.5627 71.8635 49.9408 71.8635 45.6535C71.8635 41.3662 65.7931 37.7439 58.6078 37.7439Z" fill="#55585E"/>
<path d="M90.8242 55.0359C98.9586 55.0359 105.553 50.8352 105.553 45.6534C105.553 40.4717 98.9586 36.271 90.8242 36.271C82.6899 36.271 76.0957 40.4717 76.0957 45.6534C76.0957 50.8352 82.6899 55.0359 90.8242 55.0359Z" fill="#262933"/>
<path d="M90.8246 38.1122C94.2343 38.1122 97.478 38.9272 99.9583 40.4072C102.379 41.8516 103.712 43.7148 103.712 45.6535C103.712 47.5922 102.379 49.4553 99.9583 50.8996C97.478 52.3795 94.2343 53.1945 90.8246 53.1945C87.415 53.1945 84.1713 52.3795 81.6912 50.8996C79.2707 49.4553 77.9376 47.5922 77.9376 45.6535C77.9376 43.7148 79.2707 41.8516 81.6912 40.4072C84.1714 38.9272 87.4151 38.1122 90.8246 38.1122ZM90.8246 37.7439C83.6394 37.7439 77.5693 41.3662 77.5693 45.6535C77.5693 49.9408 83.6394 53.5627 90.8246 53.5627C98.0099 53.5627 104.08 49.9408 104.08 45.6535C104.08 41.3662 98.0099 37.7439 90.8246 37.7439Z" fill="#55585E"/>
<path d="M58.6084 76.2858C66.7428 76.2858 73.337 72.0851 73.337 66.9033C73.337 61.7215 66.7428 57.5209 58.6084 57.5209C50.4741 57.5209 43.8799 61.7215 43.8799 66.9033C43.8799 72.0851 50.4741 76.2858 58.6084 76.2858Z" fill="#262933"/>
<path d="M58.6078 59.3623C62.0175 59.3623 65.2612 60.1773 67.7415 61.6572C70.1621 63.1015 71.4952 64.9646 71.4952 66.9033C71.4952 68.8419 70.1621 70.705 67.7415 72.1494C65.2612 73.6292 62.0175 74.4442 58.6078 74.4442C55.1982 74.4442 51.9545 73.6292 49.4744 72.1494C47.0539 70.705 45.7208 68.842 45.7208 66.9033C45.7208 64.9646 47.0539 63.1015 49.4744 61.6572C51.9545 60.1773 55.1982 59.3623 58.6078 59.3623ZM58.6078 58.994C51.4226 58.994 45.3525 62.616 45.3525 66.9032C45.3525 71.1905 51.4226 74.8125 58.6078 74.8125C65.7931 74.8125 71.8635 71.1905 71.8635 66.9032C71.8635 62.616 65.7931 58.994 58.6078 58.994Z" fill="#55585E"/>
<path d="M90.8242 76.2858C98.9586 76.2858 105.553 72.0851 105.553 66.9033C105.553 61.7215 98.9586 57.5209 90.8242 57.5209C82.6899 57.5209 76.0957 61.7215 76.0957 66.9033C76.0957 72.0851 82.6899 76.2858 90.8242 76.2858Z" fill="#262933"/>
<path d="M90.8246 59.3623C94.2343 59.3623 97.478 60.1773 99.9583 61.6572C102.379 63.1015 103.712 64.9646 103.712 66.9033C103.712 68.8419 102.379 70.705 99.9583 72.1494C97.478 73.6292 94.2343 74.4442 90.8246 74.4442C87.415 74.4442 84.1713 73.6292 81.6912 72.1494C79.2707 70.705 77.9376 68.842 77.9376 66.9033C77.9376 64.9646 79.2707 63.1015 81.6912 61.6572C84.1713 60.1773 87.415 59.3623 90.8246 59.3623ZM90.8246 58.994C83.6394 58.994 77.5693 62.616 77.5693 66.9032C77.5693 71.1905 83.6394 74.8125 90.8246 74.8125C98.0099 74.8125 104.08 71.1905 104.08 66.9032C104.08 62.616 98.0099 58.994 90.8246 58.994Z" fill="#55585E"/>
<path d="M58.6084 97.5355C66.7428 97.5355 73.337 93.3348 73.337 88.1531C73.337 82.9713 66.7428 78.7706 58.6084 78.7706C50.4741 78.7706 43.8799 82.9713 43.8799 88.1531C43.8799 93.3348 50.4741 97.5355 58.6084 97.5355Z" fill="#262933"/>
<path d="M58.6078 80.6122C62.0175 80.6122 65.2612 81.4272 67.7415 82.9071C70.1621 84.3514 71.4952 86.2145 71.4952 88.1532C71.4952 90.0919 70.1621 91.955 67.7415 93.3993C65.2612 94.8791 62.0175 95.6942 58.6078 95.6942C55.1982 95.6942 51.9545 94.8791 49.4744 93.3993C47.0539 91.955 45.7208 90.0919 45.7208 88.1532C45.7208 86.2145 47.0539 84.3514 49.4744 82.9071C51.9545 81.4272 55.1982 80.6122 58.6078 80.6122ZM58.6078 80.2439C51.4226 80.2439 45.3525 83.8658 45.3525 88.1532C45.3525 92.4405 51.4226 96.0624 58.6078 96.0624C65.7931 96.0624 71.8635 92.4405 71.8635 88.1532C71.8635 83.8659 65.7931 80.2439 58.6078 80.2439Z" fill="#55585E"/>
<path d="M90.8242 97.5355C98.9586 97.5355 105.553 93.3348 105.553 88.1531C105.553 82.9713 98.9586 78.7706 90.8242 78.7706C82.6899 78.7706 76.0957 82.9713 76.0957 88.1531C76.0957 93.3348 82.6899 97.5355 90.8242 97.5355Z" fill="#262933"/>
<path d="M90.8246 80.6122C94.2343 80.6122 97.478 81.4272 99.9583 82.9071C102.379 84.3514 103.712 86.2145 103.712 88.1532C103.712 90.0919 102.379 91.955 99.9583 93.3993C97.478 94.8791 94.2343 95.6942 90.8246 95.6942C87.415 95.6942 84.1713 94.8791 81.6912 93.3993C79.2707 91.955 77.9376 90.0919 77.9376 88.1532C77.9376 86.2145 79.2707 84.3514 81.6912 82.9071C84.1713 81.4272 87.415 80.6122 90.8246 80.6122ZM90.8246 80.2439C83.6394 80.2439 77.5693 83.8658 77.5693 88.1532C77.5693 92.4405 83.6394 96.0624 90.8246 96.0624C98.0099 96.0624 104.08 92.4405 104.08 88.1532C104.08 83.8659 98.0099 80.2439 90.8246 80.2439Z" fill="#55585E"/>
<path d="M90.8236 16.8625C83.8381 16.8625 77.9365 20.3159 77.9365 24.4038C77.9365 28.4916 83.8381 31.9447 90.8236 31.9447C93.4432 31.9447 95.9103 31.4591 97.9709 30.6365L101.109 19.9224C98.7335 18.0789 94.9695 16.8625 90.8236 16.8625Z" fill="#262933"/>
<path d="M90.8243 32.3131C83.639 32.3131 77.569 28.6911 77.569 24.4038C77.569 20.1165 83.639 16.4942 90.8243 16.4942C94.9823 16.4942 98.7641 17.7087 101.215 19.5616L101.658 18.0493C98.9666 16.1881 95.11 15.0212 90.8243 15.0212C82.6899 15.0212 76.0957 19.2219 76.0957 24.4037C76.0957 29.5854 82.6899 33.7861 90.8243 33.7861C93.1611 33.7861 95.3693 33.4379 97.332 32.821L97.845 31.069C95.794 31.8528 93.3808 32.3131 90.8243 32.3131Z" fill="#262933"/>
<path d="M77.5684 24.4037C77.5684 28.691 83.6384 32.313 90.8237 32.313C93.3802 32.313 95.7934 31.8527 97.8444 31.0689L97.971 30.6365C95.9105 31.4591 93.4433 31.9447 90.8237 31.9447C83.8382 31.9447 77.9367 28.4913 77.9367 24.4037C77.9367 20.3162 83.8382 16.8624 90.8237 16.8624C94.9696 16.8624 98.7336 18.0789 101.109 19.9223L101.214 19.5615C98.7635 17.7086 94.9817 16.4941 90.8237 16.4941C83.6384 16.4941 77.5684 20.1164 77.5684 24.4037Z" fill="#55585E"/>
<path d="M97.3314 32.8209L97.7743 31.3085L97.8799 30.9477L101.018 20.2336L101.144 19.8012L101.657 18.0492C96.7877 19.5799 93.4365 22.7733 93.4365 26.4665C93.4365 28.9183 94.9143 31.1495 97.3314 32.8209Z" fill="#D4D4D6"/>
</g>
<defs>
<filter id="filter0_d_13_38110" x="31.5166" y="2.5166" width="97.0254" height="118.54" filterUnits="userSpaceOnUse" color-interpolation-filters="sRGB">
<feFlood flood-opacity="0" result="BackgroundImageFix"/>
<feColorMatrix in="SourceAlpha" type="matrix" values="0 0 0 0 0 0 0 0 0 0 0 0 0 0 0 0 0 0 127 0" result="hardAlpha"/>
<feOffset dx="5.4834" dy="5.4834"/>
<feGaussianBlur stdDeviation="5.4834"/>
<feColorMatrix type="matrix" values="0 0 0 0 0 0 0 0 0 0 0 0 0 0 0 0 0 0 0.25 0"/>
<feBlend mode="normal" in2="BackgroundImageFix" result="effect1_dropShadow_13_38110"/>
<feBlend mode="normal" in="SourceGraphic" in2="effect1_dropShadow_13_38110" result="shape"/>
</filter>
<filter id="filter1_d_13_38110" x="42.3799" y="13.5211" width="67.6729" height="88.5144" filterUnits="userSpaceOnUse" color-interpolation-filters="sRGB">
<feFlood flood-opacity="0" result="BackgroundImageFix"/>
<feColorMatrix in="SourceAlpha" type="matrix" values="0 0 0 0 0 0 0 0 0 0 0 0 0 0 0 0 0 0 127 0" result="hardAlpha"/>
<feOffset dx="1.5" dy="1.5"/>
<feGaussianBlur stdDeviation="1.5"/>
<feColorMatrix type="matrix" values="0 0 0 0 0 0 0 0 0 0 0 0 0 0 0 0 0 0 0.3 0"/>
<feBlend mode="normal" in2="BackgroundImageFix" result="effect1_dropShadow_13_38110"/>
<feBlend mode="normal" in="SourceGraphic" in2="effect1_dropShadow_13_38110" result="shape"/>
</filter>
</defs>
</svg>
